<?xml version="1.0" encoding="UTF-8"?><svg id="Layer_1" xmlns="http://www.w3.org/2000/svg" width="2000" height="2000" viewBox="0 0 2000 2000"><defs><style>.cls-1{fill:#003d58;}.cls-2{fill:#fff;}.cls-3{fill:#ff7c66;}</style></defs><g id="Boomi_Icon_Logo_2-Color_Positive_RGB"><g><path class="cls-1" d="M1937.32,1000c0,517.67-419.66,937.33-937.33,937.33S62.67,1517.67,62.67,1000,482.33,62.68,1000,62.68s937.33,419.66,937.33,937.33"/><path class="cls-2" d="M1076.9,788.09c-118.34,0-222.15,42.81-298.08,113.53V344.08c0-14.05-15.21-22.83-27.38-15.81l-134.42,77.61c-2.99,1.72-4.82,4.9-4.82,8.36V1594.71c0,10.08,8.17,18.26,18.25,18.26h130.12c10.07,0,18.25-8.18,18.25-18.26v-78.41c75.93,70.71,179.74,113.53,298.08,113.53,245.79,0,429.29-184.34,429.29-420.87s-183.49-420.87-429.29-420.87m0,685.18c-152.35,0-262.62-115.32-262.62-264.31s110.27-264.32,262.62-264.32,262.62,115.33,262.62,264.32-110.27,264.31-262.62,264.31"/><path class="cls-3" d="M1600.2,689.21c0,57.12-46.31,103.43-103.43,103.43s-103.43-46.31-103.43-103.43,46.31-103.43,103.43-103.43,103.43,46.31,103.43,103.43"/></g></g></svg>