<?xml version="1.0" encoding="UTF-8"?><svg id="Layer_2" xmlns="http://www.w3.org/2000/svg" width="360.3" height="72.84" viewBox="0 0 360.3 72.84"><defs><style>.cls-1{fill:#02293b;}</style></defs><g id="Layer_1-2"><path class="cls-1" d="m256.36,12.17c0,3.2-2.59,5.79-5.79,5.79s-5.79-2.59-5.79-5.79,2.59-5.79,5.79-5.79,5.79,2.59,5.79,5.79"/><path class="cls-1" d="m80.04,25.82c13.73,0,23.98,10.3,23.98,23.51s-10.25,23.51-23.98,23.51-23.98-10.3-23.98-23.51,10.25-23.51,23.98-23.51m0,38.27c8.51,0,14.67-6.44,14.67-14.76s-6.16-14.76-14.67-14.76-14.67,6.44-14.67,14.76,6.16,14.76,14.67,14.76"/><path class="cls-1" d="m133.51,25.82c13.73,0,23.98,10.3,23.98,23.51s-10.25,23.51-23.98,23.51-23.98-10.3-23.98-23.51,10.25-23.51,23.98-23.51m0,38.27c8.51,0,14.67-6.44,14.67-14.76s-6.16-14.76-14.67-14.76-14.67,6.44-14.67,14.76,6.16,14.76,14.67,14.76"/><path class="cls-1" d="m245.92,70.88V26.85c0-.56.46-1.02,1.02-1.02h7.27c.56,0,1.02.46,1.02,1.02v44.03c0,.56-.46,1.02-1.02,1.02h-7.27c-.56,0-1.02-.46-1.02-1.02"/><path class="cls-1" d="m218.73,25.82c-7.76,0-13.4,4-16.13,8.42-2.87-5.22-8.32-8.42-16.08-8.42s-12.22,4.33-13.68,6.63v-7.14c0-.78-.85-1.28-1.53-.88l-7.56,4.36c-.17.1-.27.27-.27.47v41.62c0,.56.46,1.02,1.02,1.02h7.32c.56,0,1.02-.46,1.02-1.02v-24.42c0-7.48,5.5-11.8,12.22-11.8s10.63,4.33,10.63,11.8v24.42c0,.56.46,1.02,1.02,1.02h7.32c.56,0,1.02-.46,1.02-1.02v-24.98c.23-7.1,5.64-11.24,12.22-11.24s10.63,4.33,10.63,11.8v24.42c0,.56.46,1.02,1.02,1.02h7.32c.56,0,1.02-.46,1.02-1.02v-26.39c0-10.95-6.49-18.67-18.52-18.67"/><path class="cls-1" d="m25.96,25.82c-6.61,0-12.41,2.39-16.65,6.34V1.02c0-.78-.85-1.28-1.53-.88L.27,4.47c-.17.1-.27.27-.27.47v65.94c0,.56.46,1.02,1.02,1.02h7.27c.56,0,1.02-.46,1.02-1.02v-4.38c4.24,3.95,10.04,6.34,16.65,6.34,13.73,0,23.98-10.3,23.98-23.51s-10.25-23.51-23.98-23.51m0,38.27c-8.51,0-14.67-6.44-14.67-14.76s6.16-14.76,14.67-14.76,14.67,6.44,14.67,14.76-6.16,14.76-14.67,14.76"/><path class="cls-1" d="m279.2,70.81l22.38-59.96c.12-.32.42-.52.76-.52h14.29c.34,0,.64.21.76.53l21.93,59.96c.19.53-.2,1.08-.76,1.08h-13.5c-.35,0-.65-.22-.76-.55l-4.52-13.57h-21.69l-4.52,13.57c-.11.33-.42.55-.76.55h-12.84c-.56,0-.95-.56-.76-1.09Zm22.12-23.83h15.14l-7.48-23.26-7.66,23.26Z"/><path class="cls-1" d="m346.36,70.84V11.39c0-.58.47-1.06,1.06-1.06h11.82c.58,0,1.06.47,1.06,1.06v59.45c0,.58-.47,1.06-1.06,1.06h-11.82c-.58,0-1.06-.47-1.06-1.06Z"/></g></svg>