<?xml version="1.0" encoding="UTF-8"?><svg id="Layer_2" xmlns="http://www.w3.org/2000/svg" width="500" height="498.5" xmlns:xlink="http://www.w3.org/1999/xlink" viewBox="0 0 500 498.5"><defs><style>.cls-1{fill:none;}.cls-2{clip-path:url(#clippath);}.cls-3{fill:#ff7c66;}.cls-4{clip-path:url(#clippath-1);}</style><clipPath id="clippath"><rect class="cls-1" width="500" height="498.5"/></clipPath><clipPath id="clippath-1"><rect class="cls-1" y="0" width="500" height="498.5"/></clipPath></defs><g id="Layer_1-2"><g id="Coral_Circle_3"><g class="cls-2"><g class="cls-4"><path class="cls-3" d="m216.97,496.16c-1.85.31-3.7.63-5.55.94,3.5.54,7.02,1,10.57,1.39,23.29-3.94,47.3-7.72,71.55-6.78,6.08.24,12.18.45,18.28.64,3.43-.87,6.82-1.82,10.19-2.83-9.47-.27-18.93-.58-28.35-.95-26.14-1.01-51.84,3.35-76.69,7.58"/><path class="cls-3" d="m213.85,485.29c-10.2,2.01-20.56,4.03-31.03,5.63,2.5.7,5.02,1.35,7.55,1.97,8.11-1.38,16.14-2.95,24.08-4.52,24.63-4.84,50.11-9.86,76.26-8.56,17.66.87,35.43,1.5,53.16,2.02,2.34-.95,4.65-1.93,6.95-2.94-19.98-.54-40.05-1.23-59.96-2.21-26.54-1.31-52.2,3.74-77.02,8.62"/><path class="cls-3" d="m211.78,475.13c-16.42,3.59-33.23,7.24-50.4,8.76,2.25.85,4.51,1.68,6.79,2.46,15.08-1.78,29.83-5,44.28-8.15,24.3-5.31,49.44-10.79,75.57-9.31,25.75,1.47,51.77,2.3,77.49,2.94,1.87-.98,3.73-1.98,5.58-3-27.47-.65-55.35-1.5-82.89-3.07-26.56-1.52-51.91,4.02-76.42,9.37"/><path class="cls-3" d="m209.5,464.66c-21.86,5.34-44.49,10.86-67.97,10.41-.21,0-.42-.01-.63-.02,2.22,1.08,4.45,2.12,6.7,3.14,21.69-.5,42.48-5.56,62.64-10.48,23.97-5.85,48.76-11.89,74.92-10.18,32.75,2.14,65.98,3.09,98.38,3.91,1.57-.99,3.12-2,4.66-3.03-33.82-.84-68.61-1.79-102.84-4.02-26.65-1.74-51.67,4.36-75.87,10.27"/><path class="cls-3" d="m391.39,447.46c-35.74-1.07-72.71-2.18-109-4.86-26.81-1.98-51.5,4.77-75.37,11.3-20.75,5.67-42.2,11.53-64.81,11.53h-.3c-6.53-.01-13.09-.18-19.65-.44,1.91,1.14,3.83,2.25,5.77,3.33,4.63.14,9.26.24,13.87.25h.31c23.03,0,44.69-5.92,65.64-11.65,23.62-6.45,48.05-13.13,74.31-11.19,36.37,2.68,73.36,3.79,109.14,4.86,2.56.08,5.14.16,7.71.23,1.34-.99,2.66-2,3.97-3.02-3.88-.12-7.74-.23-11.59-.35"/><path class="cls-3" d="m396.51,436.14c-38.56-1.68-78.43-3.42-117.65-6.58-27.16-2.19-51.45,5.34-74.92,12.61-19.3,5.98-39.26,12.17-60.69,12.88-12.28.4-24.72.11-37.18-.56,1.64,1.16,3.29,2.29,4.96,3.41,6.8.3,13.6.48,20.36.48,4,0,7.99-.06,11.96-.19,21.85-.72,42.01-6.97,61.51-13.01,23.19-7.19,47.16-14.62,73.74-12.48,39.28,3.16,79.18,4.9,117.76,6.58,5.37.23,10.78.47,16.21.71,1.15-.99,2.29-1.99,3.42-2.99-6.53-.29-13.04-.58-19.49-.86"/><path class="cls-3" d="m275.08,415.55c-28.13-2.35-52.28,6.08-75.64,14.23-17.74,6.19-36.09,12.6-56.16,14.3-16.75,1.42-33.88,1.07-51.03-.08,1.41,1.15,2.83,2.29,4.27,3.41,7.82.46,15.63.75,23.41.75s15.81-.28,23.62-.95c20.47-1.74,39.01-8.21,56.93-14.47,24.11-8.41,46.88-16.35,74.34-14.07,51.11,4.27,101.25,7.69,149.42,10.66,1.01-.98,2.02-1.96,3.01-2.96-49.02-3.01-100.1-6.48-152.17-10.83"/><path class="cls-3" d="m334.9,407.32c-20.67-1.91-42.05-3.88-63.24-5.68-29.47-2.51-53.91,6.89-77.55,15.98-16.71,6.42-33.99,13.06-53.16,15.65-19.8,2.67-40.17,2.18-60.51.5,1.26,1.16,2.54,2.31,3.82,3.45,8.87.66,17.74,1.08,26.58,1.08,10.25,0,20.45-.55,30.53-1.91,19.54-2.64,36.99-9.34,53.87-15.83,24.38-9.37,47.42-18.21,76.16-15.78,21.18,1.8,42.55,3.77,63.21,5.68,32.68,3.02,66.05,6.1,99.68,8.56.9-.98,1.78-1.97,2.67-2.96-34.42-2.49-68.61-5.64-102.06-8.73"/><path class="cls-3" d="m139.77,425c18.12-3.45,34.09-10.2,49.54-16.72,23.74-10.03,46.15-19.52,75.24-17.51,23.68,1.63,47.89,5.48,71.3,9.2,11.64,1.85,23.67,3.77,35.44,5.37,23.45,3.2,47.12,4.46,70.45,5.18.85-1.01,1.69-2.03,2.52-3.06-24.03-.71-48.43-1.94-72.55-5.23-11.73-1.6-23.75-3.51-35.37-5.36-23.48-3.74-47.76-7.6-71.58-9.23-29.83-2.05-52.59,7.57-76.68,17.75-15.29,6.46-31.11,13.14-48.9,16.53-22.85,4.35-46.31,3.55-69.58,1.23,1.12,1.17,2.25,2.33,3.39,3.47,10.12.94,20.27,1.56,30.41,1.56,12.18,0,24.34-.89,36.36-3.18"/><path class="cls-3" d="m372.44,390.84c-12.17-1.87-24.63-4.12-36.69-6.3-24.14-4.36-49.11-8.87-73.64-10.68-31.55-2.34-54.45,8.3-78.69,19.55-14.35,6.66-29.18,13.55-46.18,17.67-25.52,6.2-51.47,4.81-77.01,1.73,1.02,1.18,2.05,2.35,3.09,3.52,11.5,1.31,23.08,2.25,34.68,2.25,13.33,0,26.69-1.21,39.98-4.44,17.3-4.2,32.28-11.16,46.77-17.88,23.86-11.08,46.4-21.55,77.14-19.27,24.36,1.8,49.25,6.3,73.31,10.64,12.07,2.18,24.56,4.44,36.77,6.31,25.88,3.97,52.05,5.54,77.91,6.35.76-1.02,1.51-2.04,2.26-3.07-26.82-.79-53.01-2.29-79.69-6.38"/><path class="cls-3" d="m373.86,379.37c-12.53-2.1-25.39-4.65-37.82-7.12-25.05-4.98-50.95-10.12-76.42-12.01-32.95-2.44-56.36,9.05-81.12,21.22-13.66,6.71-27.78,13.65-43.96,18.33-28.18,8.15-55.17,6.11-83.05,2.24.91,1.19,1.83,2.37,2.76,3.54,12.61,1.67,25.37,2.93,38.24,2.93,14.18,0,28.51-1.52,42.92-5.69,16.45-4.76,30.7-11.76,44.47-18.53,24.37-11.97,47.39-23.28,79.5-20.91,25.28,1.88,51.09,7,76.04,11.96,12.45,2.47,25.33,5.03,37.91,7.14,28.26,4.72,56.7,6.66,83.86,7.57.69-1.02,1.36-2.05,2.04-3.08-27.64-.88-56.63-2.78-85.38-7.59"/><path class="cls-3" d="m375.94,367.95c-12.83-2.38-26.02-5.32-38.78-8.16-25.98-5.78-52.84-11.76-79.28-13.72-34.6-2.57-58.89,9.9-84.59,23.1-13.08,6.72-26.6,13.66-41.96,18.79-30.59,10.21-58.73,7.4-87.9,2.96.81,1.19,1.63,2.38,2.46,3.55,13.65,2.03,27.11,3.62,40.76,3.62,14.85,0,29.92-1.89,45.68-7.15,15.59-5.21,29.22-12.21,42.4-18.98,25.3-12.99,49.18-25.26,82.92-22.76,26.21,1.94,52.96,7.9,78.83,13.66,12.78,2.85,26,5.79,38.88,8.18,29.59,5.49,59.39,7.85,88.37,8.84.62-1.02,1.22-2.05,1.83-3.08-29.39-.95-59.64-3.28-89.62-8.85"/><path class="cls-3" d="m364.21,350.7c-34.73-5.81-70.65-11.82-106.8-14.78-38.61-3.16-68.26,9.42-99.66,22.74-10.53,4.47-21.42,9.08-32.92,13.22-31.95,11.5-60.47,8.75-90.29,5.06.67,1.14,1.35,2.28,2.04,3.41,13.03,1.59,25.84,2.94,38.83,2.94,16.26,0,32.82-2.1,50.48-8.46,11.58-4.17,22.51-8.8,33.08-13.28,31.04-13.16,60.34-25.6,98.18-22.5,36.02,2.95,71.87,8.95,106.54,14.75,34.72,5.81,70.3,11.75,106.55,14.73.54-1,1.07-2.01,1.59-3.02-36.59-2.93-72.55-8.94-107.62-14.81"/><path class="cls-3" d="m360.6,340.51c-33.61-5.07-68.35-10.32-103-13.49-50.46-4.61-92.3,9.52-137.87,27.05-28.09,10.81-47.33,15.71-74.51,12.52-4.98-.58-9.9-1.22-14.79-1.86-.95-.12-1.89-.25-2.83-.37.59,1.14,1.19,2.27,1.79,3.4.21.03.42.05.63.08,4.9.64,9.83,1.28,14.83,1.86,5.6.66,10.88.96,15.93.96,22.43,0,40.15-6.01,60.08-13.67,45.2-17.39,86.66-31.41,136.46-26.86,34.55,3.16,69.26,8.4,102.81,13.47,37.68,5.69,76.33,11.52,115.41,14.51.49-1.01.95-2.03,1.42-3.05-39.38-2.95-78.36-8.83-116.36-14.56"/><path class="cls-3" d="m363.95,330.77c-35.88-4.94-72.98-10.06-109.73-13.05-53.75-4.38-96.27,1.52-137.86,19.12-32.63,13.81-61.84,12.93-92.76,11.99-1.12-.03-2.25-.07-3.38-.1.46,1.07.92,2.13,1.39,3.19.63.02,1.26.04,1.89.06,31.27.95,60.81,1.85,94.08-12.24,41.09-17.39,83.15-23.22,136.38-18.88,36.66,2.99,73.72,8.09,109.56,13.03,38.22,5.27,77.43,10.66,116.83,13.59.43-1.01.84-2.04,1.25-3.06-39.65-2.91-79.15-8.34-117.65-13.64"/><path class="cls-3" d="m349.03,319.62c-30.54-3.78-62.12-7.69-93.21-10.69-3.19-.31-6.37-.63-9.55-.94-44.16-4.39-89.82-8.92-132.66,10.52l-2.07.94c-23.32,10.59-41.81,18.99-67.46,18.99-.4,0-.8,0-1.2,0-8.08-.08-15.95-.47-23.56-.85-1.22-.06-2.43-.12-3.64-.18.4,1.07.8,2.14,1.22,3.21.76.04,1.51.07,2.27.11,7.64.38,15.55.77,23.68.86,27.02.24,46.91-8.78,69.99-19.27l2.07-.94c42.07-19.09,85.29-14.79,131.05-10.25,3.18.32,6.37.63,9.56.94,31.05,3,62.61,6.91,93.13,10.69,44.5,5.51,90.2,11.15,135.87,14.21.38-1.02.74-2.05,1.11-3.07-45.89-3.04-91.85-8.72-136.6-14.26"/><path class="cls-3" d="m315.21,306.58c-18.79-2.12-38.22-4.31-57.27-6.36-11.13-1.2-22.7-3.08-33.9-4.9-38.21-6.21-77.72-12.64-113.57,4.72-3.45,1.67-6.79,3.34-10.06,4.97-19.57,9.77-36.48,18.2-59.88,19.09-8.47.32-16.7.24-24.66.16-1.58-.02-3.14-.03-4.71-.04.33,1.06.68,2.1,1.02,3.15,1.21.01,2.43.02,3.65.04,8,.08,16.27.16,24.82-.16,24.07-.92,41.26-9.49,61.16-19.42,3.26-1.63,6.58-3.28,10.02-4.95,34.96-16.93,73.97-10.59,111.7-4.45,11.24,1.83,22.86,3.72,34.07,4.92,19.04,2.04,38.47,4.24,57.25,6.36,56.84,6.41,115.28,13,173.29,16.7.33-1.03.66-2.05.97-3.09-58.19-3.69-116.86-10.3-173.91-16.73"/><path class="cls-3" d="m312.44,296.87c-17.28-1.68-34.54-3.37-51.77-5-15.49-1.47-31.89-5.51-47.74-9.42-35.44-8.74-72.08-17.78-105.16-.89-5.32,2.72-10.36,5.5-15.23,8.19-17.69,9.78-32.96,18.23-54.63,20.1-8.7.75-17.15,1-25.32,1.25-1.69.05-3.38.1-5.06.16.26,1.04.53,2.08.81,3.12,1.44-.05,2.89-.09,4.34-.13,8.21-.25,16.7-.5,25.49-1.26,22.34-1.93,38.63-10.94,55.88-20.48,4.85-2.68,9.86-5.45,15.13-8.15,32.04-16.36,68.1-7.46,102.98,1.14,15.97,3.94,32.48,8.01,48.2,9.5,17.22,1.63,34.48,3.31,51.76,5,58.81,5.73,119.29,11.6,179.22,15.54.28-1.03.57-2.06.83-3.09-60.09-3.94-120.76-9.82-179.75-15.57"/><path class="cls-3" d="m479.37,298.81c-24.04-2.85-48.9-5.8-73.93-6.09-43.55-.51-91.05-3.49-141.17-8.85-26.55-2.84-51.79-8.97-77.14-18.73-24.82-9.55-51.79-16.32-80.82-1.3-6.8,3.52-13.08,7.27-19.16,10.89-15.63,9.33-30.4,18.15-50.56,20.83-8.79,1.17-17.31,1.79-25.56,2.4-2.14.16-4.26.31-6.37.48.2,1.04.41,2.07.62,3.1,1.98-.15,3.97-.3,5.98-.44,8.29-.61,16.86-1.23,25.74-2.42,20.8-2.77,35.84-11.74,51.76-21.24,6.03-3.6,12.27-7.33,18.99-10.8,27.93-14.45,54.11-7.85,78.24,1.44,25.61,9.86,51.1,16.05,77.93,18.92,50.22,5.38,97.82,8.36,141.47,8.87,24.86.29,49.63,3.23,73.59,6.07,5.03.6,10.13,1.19,15.25,1.77.23-1.03.46-2.05.67-3.09-5.22-.59-10.42-1.2-15.55-1.81"/><path class="cls-3" d="m496.49,288.98c-27.1-3.63-55.13-7.38-83.51-6.83-50.09.95-95.83-.87-139.83-5.57-27.95-2.99-53.36-9.36-84.98-21.31-23.43-8.86-53.94-17.5-82.06-5.59-9.77,4.14-18.41,9.06-26.77,13.82-15.32,8.73-29.8,16.98-49.73,19.83-6.31.91-12.6,1.57-18.69,2.22-2.79.3-5.56.59-8.31.91.15,1.04.31,2.08.47,3.11,2.7-.31,5.42-.6,8.17-.89,6.11-.65,12.43-1.32,18.8-2.23,20.52-2.94,35.25-11.33,50.83-20.21,8.28-4.71,16.84-9.59,26.44-13.66,27.09-11.48,56.84-3.02,79.72,5.64,31.88,12.05,57.53,18.48,85.76,21.5,44.13,4.72,90,6.54,140.22,5.59,28.14-.52,56.06,3.2,83.04,6.8.14.02.28.04.42.06.18-1.03.35-2.06.51-3.1-.17-.02-.35-.05-.52-.07"/><path class="cls-3" d="m29.95,273.83c17.75-3.34,32.33-11.41,46.43-19.22,9.93-5.49,20.19-11.18,31.44-15.12,26.16-9.16,53.91.04,82.41,11.13,30.1,11.71,56.99,18.32,87.18,21.43,41.89,4.31,85.84,5.1,138.33,2.49,28.15-1.4,54.82,2.01,82.41,6.3.13-1.04.24-2.08.36-3.12-27.7-4.31-54.51-7.73-82.92-6.32-52.33,2.61-96.14,1.82-137.85-2.47-29.9-3.08-56.54-9.63-86.37-21.23-21.97-8.55-55.17-21.47-84.59-11.16-11.5,4.03-21.88,9.78-31.92,15.33-13.88,7.68-28.23,15.63-45.49,18.88-6.83,1.29-13.65,2.26-20.24,3.19-2.66.38-5.3.76-7.92,1.15.1,1.05.23,2.08.34,3.13,2.65-.4,5.32-.78,8.01-1.16,6.62-.94,13.48-1.92,20.38-3.22"/><path class="cls-3" d="m417.49,260.6c-36.03,3.04-83.91,5.89-134.81.87-32.16-3.18-59.32-9.71-88.04-21.18-2.33-.93-4.7-1.89-7.09-2.87-24.68-10.04-52.67-21.42-79.53-13.86-13.12,3.69-25.31,10.3-37.1,16.7-13.12,7.12-26.69,14.48-41.73,17.95-7.28,1.68-14.55,2.97-21.59,4.22-2.44.43-4.86.86-7.26,1.3.06,1.06.13,2.11.2,3.16,2.52-.46,5.05-.91,7.61-1.37,7.07-1.25,14.39-2.55,21.75-4.25,15.45-3.57,29.21-11.04,42.52-18.25,11.64-6.31,23.67-12.84,36.45-16.43,25.84-7.27,53.28,3.9,77.49,13.75,2.4.98,4.77,1.94,7.11,2.87,29.01,11.59,56.43,18.19,88.9,21.39,51.15,5.06,99.22,2.2,135.38-.86,27.96-2.37,54.51.89,81.54,5.76.08-1.05.14-2.1.21-3.15-27.12-4.87-53.8-8.12-82.01-5.74"/><path class="cls-3" d="m418.94,249.84c-46.96,5.92-87.19,8.97-130.95,4.6-34.58-3.45-62.47-10.12-90.44-21.61-4.62-1.9-9.27-3.97-14.19-6.15-22.68-10.08-48.37-21.51-73.72-16.02-14.73,3.19-28.78,10.73-42.37,18.01-12.29,6.59-25.01,13.41-38.2,17.01-7.59,2.07-15.18,3.68-22.52,5.24-2.2.47-4.38.93-6.55,1.4,0,1.07.02,2.14.04,3.21,2.37-.52,4.76-1.03,7.17-1.54,7.39-1.57,15.02-3.19,22.7-5.28,13.53-3.69,26.41-10.59,38.86-17.27,13.4-7.18,27.25-14.61,41.55-17.71,24.33-5.27,49.54,5.93,71.78,15.82,4.94,2.2,9.62,4.27,14.27,6.19,28.26,11.62,56.43,18.35,91.32,21.83,44.05,4.4,84.49,1.34,131.65-4.61,27.35-3.45,53.95-.39,80.58,4.97.03-1.06.06-2.13.08-3.19-26.72-5.35-53.45-8.37-81.05-4.9"/><path class="cls-3" d="m29.91,236.11c12-3.74,23.94-10.14,35.49-16.33,15.09-8.09,30.7-16.46,46.55-18.93,23.74-3.71,46.87,7.79,69.23,18.9,5.98,2.97,11.64,5.78,17.24,8.26,33.24,14.73,67.63,19.5,93.87,22.01,47.42,4.54,89.36-1.42,128.27-7.91,26.35-4.4,51.82-2.03,79.44,4.13-.02-1.08-.03-2.16-.05-3.23-27.7-6.13-53.32-8.44-79.9-4-38.7,6.45-80.42,12.38-127.45,7.88-26.01-2.49-60.07-7.21-92.9-21.76-5.54-2.45-11.16-5.25-17.11-8.2-21.74-10.8-46.4-23.05-71.11-19.19-16.38,2.55-32.22,11.05-47.55,19.27-11.42,6.12-23.23,12.45-34.94,16.1-7.96,2.48-15.94,4.41-23.66,6.27-1.72.42-3.44.83-5.14,1.25-.04,1.09-.09,2.17-.12,3.26,1.99-.49,3.98-.97,6-1.46,7.77-1.88,15.8-3.82,23.86-6.33"/><path class="cls-3" d="m423.9,227.84c-40.34,7.81-78.45,15.19-122.39,11.76-39.71-3.1-68.9-9.31-94.63-20.14-8.61-3.62-17.25-8.29-25.61-12.8-21.07-11.37-42.84-23.13-67.71-20.68-18.41,1.82-35.65,10.95-52.33,19.78-9.68,5.12-19.68,10.42-29.56,14.04-9.42,3.45-18.72,6.06-27.71,8.57-1.04.29-2.08.58-3.11.87-.09,1.11-.17,2.22-.25,3.34,1.4-.39,2.8-.79,4.21-1.18,9.05-2.53,18.41-5.15,27.95-8.65,10.08-3.7,20.19-9.04,29.95-14.22,16.41-8.69,33.38-17.67,51.17-19.43,23.89-2.36,45.26,9.17,65.91,20.32,8.42,4.55,17.14,9.25,25.88,12.93,26.06,10.96,55.55,17.25,95.61,20.37,44.38,3.46,82.68-3.95,123.24-11.8,26.17-5.07,51.66-2.07,75.06,3.7-.07-1.1-.13-2.19-.21-3.28-23.51-5.71-49.1-8.61-75.45-3.5"/><path class="cls-3" d="m423.54,218.67c-44.94,9.99-77.47,16.22-118.48,11.99-34.24-3.53-67.45-7.67-97.44-19.43-9.99-3.92-19.73-9.38-29.14-14.66-19.54-10.96-39.77-22.3-63.63-20.68-19.5,1.33-37.45,10.99-54.8,20.34-9.04,4.87-18.39,9.9-27.62,13.52-10.14,3.97-20.23,6.93-29.99,9.79-.21.06-.43.13-.64.19-.14,1.13-.27,2.26-.39,3.39.64-.19,1.27-.37,1.91-.56,9.82-2.88,19.98-5.86,30.25-9.88,9.41-3.68,18.84-8.76,27.96-13.68,17.06-9.19,34.7-18.69,53.52-19.97,22.94-1.55,41.86,9.05,61.88,20.28,9.5,5.33,19.33,10.85,29.53,14.84,30.36,11.9,63.8,16.07,98.26,19.62,41.49,4.28,74.24-1.99,119.49-12.05,25.91-5.76,51.28-2.81,74.57,3.11-.11-1.12-.25-2.23-.37-3.34-23.36-5.83-48.8-8.64-74.88-2.84"/><path class="cls-3" d="m421.9,211.45c-44,10.31-75.25,14.78-114.32,8.9-9.4-1.42-19.21-2.55-28.69-3.64-23.5-2.71-47.8-5.5-69.86-12.95-11.45-3.86-22.19-9.88-32.59-15.7-18.39-10.3-37.41-20.96-60.55-19.63-20.05,1.14-38.25,10.91-55.86,20.35-8.78,4.71-17.87,9.58-26.88,13.17-10.17,4.05-20.38,7.15-30.31,10.1-.17,1.14-.32,2.28-.48,3.42,10.42-3.1,21.18-6.32,31.95-10.61,9.18-3.66,18.34-8.57,27.2-13.32,17.31-9.28,35.2-18.88,54.56-19.98,22.21-1.28,40.01,8.69,58.84,19.23,10.52,5.89,21.39,11.98,33.11,15.94,22.37,7.55,46.84,10.37,70.5,13.1,9.46,1.09,19.24,2.22,28.59,3.62,43.54,6.55,78.07-.18,115.51-8.95,24.82-5.81,48.94-3.91,75.23,2.23-.15-1.11-.3-2.22-.47-3.33-26.26-6.03-50.47-7.82-75.48-1.96"/><path class="cls-3" d="m417.02,205.04c-41.92,10.63-72.56,11.52-113.06,3.29-13.85-2.82-28.53-3.82-42.72-4.8-19.98-1.37-40.64-2.79-59.3-9.27-10.59-3.68-20.5-9.62-30.09-15.37-16.58-9.94-33.71-20.23-55.07-19.29-20.04.88-38.61,11.17-56.57,21.13-9.73,5.39-18.92,10.48-28.28,14.15-9.18,3.6-18.56,6.47-27.72,9.19-.21,1.15-.42,2.3-.62,3.46,9.71-2.87,19.68-5.88,29.49-9.72,9.56-3.74,19.27-9.13,28.66-14.33,17.64-9.78,35.88-19.89,55.18-20.74,20.38-.9,36.39,8.69,53.32,18.84,9.72,5.83,19.78,11.86,30.67,15.64,19.06,6.62,39.93,8.05,60.12,9.43,14.09.97,28.67,1.97,42.31,4.74,41.01,8.34,72.04,7.44,114.46-3.32,26.97-6.84,53.43-4.45,78.87.82-.18-1.11-.36-2.22-.56-3.33-25.45-5.18-51.95-7.42-79.09-.54"/><path class="cls-3" d="m414.41,198.27c-37.58,9.61-67.18,9.31-109.24-1.12-16.2-4.02-33.23-4.34-49.71-4.66-18.09-.35-36.79-.71-54-6.04-11.39-3.53-21.66-9.8-31.59-15.86-15.61-9.53-31.8-19.37-52.49-18.71-20.81.68-39.96,11.32-58.48,21.62-9.09,5.05-17.68,9.83-26.41,13.46-8.79,3.66-17.82,6.65-26.73,9.42-.26,1.17-.52,2.35-.76,3.53,9.53-2.95,19.23-6.1,28.7-10.05,8.89-3.7,17.96-8.74,26.72-13.62,18.19-10.11,37.01-20.57,57.06-21.22,19.83-.66,34.83,8.53,50.75,18.25,10.1,6.16,20.53,12.54,32.3,16.18,17.63,5.46,36.56,5.83,54.87,6.18,16.3.31,33.16.64,49.01,4.57,42.62,10.57,72.64,10.87,110.78,1.11,26.98-6.9,52.91-4.84,80.16.3-.22-1.11-.44-2.22-.67-3.33-27.17-5.04-53.12-6.96-80.26-.02"/><path class="cls-3" d="m411.6,191.56c-38.47,9.89-65.58,5.85-105.11-5.68-18.19-5.31-36.75-4.64-54.7-3.99-16.79.61-34.16,1.24-50.68-3.21-12.17-3.27-22.83-9.8-33.13-16.12-15.01-9.2-30.49-18.72-50.83-18.22-21.28.51-40.42,11.19-58.93,21.52-8.83,4.93-17.16,9.58-25.73,13.22-8.12,3.45-16.47,6.35-24.77,9.04-.3,1.19-.59,2.39-.88,3.59,8.97-2.88,18.04-5.99,26.87-9.74,8.72-3.7,17.53-8.61,26.04-13.36,18.18-10.14,36.97-20.63,57.47-21.12,19.32-.48,33.82,8.39,49.12,17.76,10.5,6.43,21.35,13.08,33.96,16.47,16.98,4.56,34.58,3.93,51.61,3.32,17.71-.64,36.01-1.3,53.71,3.86,40.07,11.7,67.59,15.79,106.77,5.71,27.9-7.18,54.32-5.22,81.28-.97-.26-1.11-.54-2.21-.81-3.31-26.85-4.17-53.24-5.97-81.26,1.24"/><path class="cls-3" d="m408.64,184.86c-37.79,9.82-63.41,2.75-101.12-10.08-19.85-6.75-39.21-4.9-57.94-3.1-15.78,1.51-32.11,3.08-48.27-.73-12.87-3.03-24.06-9.66-34.88-16.08-15.11-8.95-30.7-18.19-51.05-17.79-21.7.45-40.66,11.08-59,21.36-8.14,4.56-16.55,9.28-24.94,12.92-7,3.04-14.19,5.69-21.38,8.16-.36,1.22-.71,2.45-1.05,3.68,7.94-2.69,15.91-5.6,23.69-8.97,8.54-3.7,17.02-8.46,25.23-13.06,18-10.09,36.61-20.53,57.52-20.96,19.43-.38,33.98,8.22,49.38,17.35,11.03,6.53,22.43,13.29,35.76,16.43,16.66,3.93,33.25,2.34,49.29.8,18.4-1.76,37.42-3.58,56.62,2.95,38.26,13.01,64.28,20.19,102.92,10.14,28.09-7.3,54.79-5.6,82.27-2.1-.29-1.1-.58-2.19-.89-3.28-27.34-3.43-53.99-4.98-82.17,2.34"/><path class="cls-3" d="m405.67,177.99c-36.49,9.42-60.96-.19-94.81-13.48l-2.71-1.06c-21.48-8.42-41.18-5.23-60.24-2.14-14.62,2.37-29.73,4.82-45.52,1.95-13.97-2.54-26.2-9.29-38.02-15.82-15.75-8.69-32.03-17.66-52.71-17.02-22.12.71-40.68,11.06-58.62,21.06-7.75,4.32-15.76,8.79-23.97,12.43-5.3,2.35-10.72,4.49-16.16,6.51-.42,1.26-.83,2.53-1.23,3.8,6.28-2.29,12.54-4.73,18.67-7.44,8.34-3.7,16.41-8.2,24.22-12.56,18.43-10.27,35.83-19.98,57.19-20.67,19.83-.65,35,7.75,51.09,16.63,12.05,6.65,24.5,13.53,38.98,16.16,16.32,2.98,31.71.48,46.58-1.94,19.49-3.16,37.91-6.15,58.59,1.96l2.71,1.06c34.41,13.51,59.27,23.27,96.75,13.6,28.46-7.35,55.26-5.81,83.04-3.03-.33-1.09-.65-2.17-.99-3.25-27.6-2.73-54.31-4.12-82.83,3.24"/><path class="cls-3" d="m402.03,170.46c-32.73,7.73-54.86-1.54-82.88-13.28-3.74-1.57-7.59-3.18-11.59-4.8-21.95-8.92-41.38-4.34-60.17.1-14.23,3.36-28.95,6.84-44.77,4.42-14.71-2.25-27.68-9.04-40.22-15.62-16.3-8.55-33.1-17.4-54.2-16.61-22.16.81-41.02,10.89-59.27,20.64-7.35,3.93-14.95,7.99-22.67,11.39-3.26,1.44-6.57,2.81-9.9,4.14-.5,1.31-1,2.62-1.48,3.95,4.25-1.65,8.48-3.37,12.65-5.21,7.83-3.46,15.48-7.54,22.89-11.5,18.76-10.02,36.47-19.48,57.9-20.27,20.25-.74,35.96,7.52,52.62,16.26,12.77,6.7,25.97,13.62,41.2,15.94,16.42,2.5,31.44-1.04,45.96-4.47,19.15-4.52,37.24-8.79,58.27-.25,3.98,1.62,7.82,3.23,11.55,4.79,28.54,11.96,51.08,21.4,84.81,13.44,28.8-6.8,56.04-5.65,84.27-3.35-.37-1.09-.75-2.16-1.13-3.24-27.99-2.24-55.08-3.26-83.86,3.54"/><path class="cls-3" d="m399.28,162.75c-30.07,6.23-49.68-2.62-74.52-13.82-5.62-2.54-11.43-5.16-17.66-7.72-22.22-9.16-41.24-3.17-59.63,2.63-13.96,4.4-28.39,8.96-44.32,6.93-15.35-1.95-28.98-8.77-42.17-15.37-16.8-8.4-34.2-17.09-55.55-16.22-22.12.91-41.39,10.67-60.02,20.11-6.84,3.46-13.91,7.05-21.02,10.14-1.35.59-2.72,1.12-4.08,1.69-.59,1.38-1.17,2.77-1.74,4.16,2.37-.97,4.74-1.95,7.08-2.96,7.19-3.13,14.31-6.73,21.19-10.22,18.33-9.29,37.29-18.89,58.73-19.77,20.58-.84,37.57,7.66,54.02,15.89,13.42,6.71,27.3,13.65,43.18,15.68,16.59,2.11,31.38-2.54,45.66-7.05,18.67-5.89,36.31-11.45,57.48-2.72,6.18,2.55,11.97,5.16,17.57,7.68,24.36,10.98,45.39,20.46,76.45,14.03,28.73-5.95,56.08-5.42,84.25-3.65-.4-1.08-.81-2.16-1.23-3.23-27.89-1.71-55.03-2.13-83.66,3.8"/><path class="cls-3" d="m396.84,155.15c-27.93,4.92-46.5-4.26-68-14.9-6.92-3.42-14.08-6.97-21.98-10.27-22.49-9.4-41.07-1.98-59.04,5.18-13.71,5.47-27.88,11.12-43.96,9.46-15.9-1.64-30.15-8.46-43.92-15.06-17.2-8.23-35-16.74-56.56-15.8-22.24.98-42.04,10.43-61.2,19.58-5.7,2.72-11.57,5.51-17.44,8.06-.68,1.41-1.34,2.83-1.99,4.25.57-.24,1.15-.46,1.72-.7,6.43-2.74,12.85-5.81,19.06-8.77,18.87-9.01,38.38-18.33,59.98-19.28,20.81-.92,38.22,7.43,55.07,15.49,14.02,6.71,28.51,13.65,44.95,15.35,16.82,1.74,31.38-4.06,45.45-9.67,18.19-7.25,35.37-14.11,56.67-5.2,7.81,3.26,14.92,6.78,21.8,10.18,21.99,10.88,40.98,20.28,69.93,15.17,28.6-5.03,55.4-5.28,83.58-4.15-.44-1.07-.9-2.13-1.36-3.19-27.83-1.07-54.39-.75-82.77,4.25"/><path class="cls-3" d="m394.45,147.43c-26.63,3.19-43.44-5.84-62.88-16.31-7.68-4.14-15.63-8.41-24.78-12.28-22.76-9.64-40.92-.85-58.47,7.66-13.49,6.54-27.45,13.29-43.71,11.95-16.35-1.35-31.14-8.17-45.43-14.78-17.5-8.08-35.59-16.44-57.29-15.46-22.17,1.01-42.29,10.01-61.74,18.71-3.4,1.52-6.86,3.06-10.34,4.57-.78,1.45-1.56,2.91-2.31,4.38,4.69-1.98,9.38-4.05,13.94-6.09,19.18-8.58,39.02-17.46,60.6-18.44,20.93-.96,38.67,7.25,55.83,15.17,14.54,6.72,29.58,13.66,46.49,15.05,17.11,1.41,31.47-5.54,45.33-12.26,17.7-8.58,34.42-16.68,55.88-7.59,9.01,3.82,16.89,8.06,24.51,12.16,19.91,10.72,37.13,19.98,64.74,16.66,27.62-3.31,54.36-4.74,82.65-4.46-.48-1.06-.98-2.11-1.48-3.16-27.88-.22-54.28,1.23-81.55,4.5"/><path class="cls-3" d="m333.34,121.99c-8.16-4.82-16.59-9.8-26.54-14.07-23.08-9.91-40.8.2-57.94,9.97-13.3,7.58-27.06,15.42-43.58,14.33-16.69-1.1-31.22-7.68-46.6-14.65-17.71-8.02-36.03-16.31-57.75-15.34-20.17.91-41.05,6.35-62.05,13.78-.9,1.42-1.8,2.84-2.67,4.28,22.02-8.02,43.88-13.98,64.86-14.92,21-.95,38.94,7.19,56.31,15.06,14.96,6.78,30.43,13.79,47.69,14.92,17.45,1.15,31.64-6.93,45.34-14.74,17.23-9.83,33.51-19.1,55.14-9.82,9.76,4.19,18.11,9.12,26.18,13.89,17.82,10.53,34.65,20.47,61.15,17.94,23.67-2.27,51.05-4.49,80.62-4.79-.53-1.05-1.06-2.09-1.6-3.12-29.08.36-56.01,2.54-79.33,4.78-25.45,2.45-41.12-6.8-59.24-17.51"/><path class="cls-3" d="m398.16,130.8l-7.08.57c-25.17,2.02-40.25-7.51-57.74-18.55-8.3-5.24-16.88-10.66-27.15-15.19-23.29-10.27-40.52,1-57.18,11.9-13.03,8.53-26.48,17.36-43.24,16.47-16.9-.89-31.72-7.52-47.42-14.54-17.8-7.96-36.22-16.2-57.84-15.27-18.41.79-37.13,5.12-55.86,11.19-.99,1.41-1.96,2.84-2.91,4.28,19.8-6.66,39.56-11.49,58.91-12.32,20.86-.89,38.96,7.18,56.42,15,15.27,6.83,31.06,13.9,48.54,14.81,17.77.94,31.67-8.17,45.12-16.98,16.69-10.92,32.45-21.24,54.19-11.66,10.06,4.44,18.54,9.79,26.74,14.97,17.22,10.87,33.49,21.15,59.67,19.03l7.09-.57c24.06-1.95,47.13-3.82,70.69-4.46-.57-1.03-1.14-2.06-1.73-3.09-23.06.68-45.67,2.5-69.21,4.41"/><path class="cls-3" d="m389.67,122.67c-24.2,1.28-39.24-8.91-55.16-19.68-8.61-5.83-17.52-11.85-28.4-16.6-23.61-10.31-40.26,2.2-56.36,14.31-12.74,9.57-25.92,19.46-42.88,18.86-17.11-.61-32.34-7.29-48.47-14.37-17.89-7.85-36.37-15.96-57.77-15.15-16.55.62-33.17,3.95-49.73,8.77-1.07,1.4-2.12,2.81-3.15,4.24,17.69-5.39,35.42-9.2,53-9.86,20.65-.76,38.83,7.19,56.38,14.89,15.69,6.88,31.91,14,49.62,14.63,18.1.65,31.71-9.59,44.88-19.49,16.09-12.09,31.3-23.51,53.22-13.94,10.62,4.64,19.41,10.58,27.9,16.32,16.37,11.08,31.85,21.55,57.09,20.22,11.4-.59,22.9-1.41,34.01-2.21,13.26-.95,26.79-1.91,40.42-2.51-.62-1.02-1.25-2.04-1.88-3.05-13.08.6-26.05,1.51-38.77,2.42-11.1.79-22.58,1.61-33.95,2.2"/><path class="cls-3" d="m386.21,112.65c-22.1.54-36.02-8.94-50.73-18.97-10.32-7.04-21-14.32-34.94-18.26-20.72-5.85-36.25,5.61-51.28,16.69-11.51,8.49-23.42,17.27-37.73,18.44-17.63,1.44-35.45-5.44-54.31-12.73-17.38-6.71-35.34-13.65-53.56-13.76-.35,0-.71,0-1.06,0-14.47,0-29.08,1.8-43.75,4.81-1.08,1.28-2.16,2.58-3.21,3.89,16.14-3.54,32.19-5.66,48-5.55,17.64.11,35.33,6.94,52.44,13.55,19.21,7.42,37.36,14.43,55.7,12.93,15.2-1.24,27.47-10.29,39.34-19.04,15.08-11.12,29.32-21.63,48.57-16.19,13.45,3.8,23.91,10.93,34.02,17.83,14.47,9.87,29.51,20.07,52.58,19.52,14.37-.34,28.93-1.14,43.02-1.92,9.7-.53,19.56-1.07,29.47-1.47-.68-1.02-1.35-2.05-2.04-3.06-9.29.39-18.52.89-27.6,1.39-14.06.77-28.61,1.57-42.92,1.91"/><path class="cls-3" d="m384.98,102.63c-21.79.17-36.07-8.78-51.14-18.29-10.47-6.61-21.3-13.44-35.06-17.25-20.84-5.77-35.87,5.83-50.42,17.05-10.98,8.47-22.34,17.23-36.26,18.71-17.38,1.85-35.9-4.89-55.51-12.04-16.83-6.13-34.23-12.47-50.99-12.91-13.11-.34-26.33.75-39.6,2.85-1.14,1.24-2.26,2.49-3.37,3.74,14.39-2.49,28.72-3.83,42.89-3.45,16.24.43,33.4,6.68,49.99,12.72,19.08,6.95,38.81,14.13,56.92,12.21,14.81-1.58,26.52-10.61,37.85-19.35,14.58-11.24,28.35-21.86,47.66-16.51,13.31,3.69,23.94,10.39,34.22,16.88,14.79,9.33,30.09,18.94,52.85,18.78,15.41-.14,31.09-.73,46.25-1.31,7.09-.27,14.28-.53,21.5-.76-.74-1.03-1.48-2.05-2.24-3.07-6.51.21-12.99.44-19.38.68-15.14.57-30.8,1.17-46.16,1.31"/><path class="cls-3" d="m383.84,92.7c-21.66-.14-36.36-8.68-51.93-17.72-10.64-6.18-21.65-12.57-35.22-16.29-20.96-5.75-35.51,5.96-49.57,17.29-10.44,8.4-21.23,17.09-34.75,18.9-17.06,2.28-37.15-4.59-56.58-11.23-16.07-5.5-32.69-11.18-47.91-11.87-11.44-.52-22.96,0-34.52,1.31-1.19,1.18-2.35,2.39-3.52,3.6,12.71-1.62,25.36-2.33,37.89-1.76,14.77.67,31.17,6.28,47.04,11.7,19.77,6.76,40.22,13.75,58.01,11.38,14.39-1.92,25.53-10.89,36.31-19.57,14.07-11.33,27.36-22.03,46.77-16.71,13.18,3.62,24.01,9.9,34.48,15.98,15.24,8.85,30.99,17.99,53.49,18.14,17.48.12,35.34-.27,52.61-.65,3.23-.07,6.49-.14,9.75-.21-.82-1.04-1.65-2.07-2.49-3.09-2.45.05-4.91.1-7.33.16-17.25.37-35.08.77-52.52.65"/><path class="cls-3" d="m330.68,65.67c-11.05-5.86-22.48-11.93-36.14-15.42-21.54-5.51-35.84,6.44-49.65,18-10.17,8.51-20.69,17.31-34.23,19.4-16.46,2.55-36.78-4.28-56.42-10.89-14.98-5.04-30.47-10.25-44.11-11.19-9.61-.67-19.26-.61-28.93.01-1.23,1.13-2.46,2.26-3.67,3.42,10.84-.87,21.65-1.04,32.38-.3,13.24.92,28.53,6.06,43.33,11.04,20,6.72,40.67,13.68,57.9,11.01,14.4-2.23,25.26-11.31,35.76-20.1,13.82-11.56,26.87-22.48,46.86-17.37,13.3,3.4,24.56,9.37,35.44,15.15,15.61,8.29,31.76,16.85,53.6,17.39,18.5.45,37.41.37,55.96.22-.91-1.05-1.84-2.09-2.77-3.12-17.64.14-35.57.19-53.12-.24-21.1-.52-36.21-8.53-52.2-17.02"/><path class="cls-3" d="m110.96,62.17c13.09.98,28.25,6.24,42.9,11.32,20.35,7.06,41.38,14.35,58.95,11.3,15.78-2.75,25.84-12.07,35.57-21.09,12.83-11.89,24.95-23.12,49.05-16.48,11.41,3.14,21.7,8.05,31.65,12.79,15.17,7.23,30.86,14.7,50.26,15.65,16.83.82,34,1.16,51.11,1.3-1.03-1.07-2.06-2.13-3.1-3.18-16.04-.15-32.1-.49-47.86-1.26-18.78-.92-33.49-7.93-49.06-15.35-10.08-4.8-20.5-9.77-32.17-12.98-25.79-7.11-38.53,4.7-52.02,17.2-9.39,8.71-19.11,17.71-33.97,20.3-16.77,2.92-37.41-4.25-57.38-11.17-14.85-5.15-30.2-10.48-43.7-11.48-7.29-.54-14.61-.69-21.94-.51-1.28,1.08-2.56,2.16-3.82,3.27,8.54-.34,17.05-.25,25.52.38"/><path class="cls-3" d="m329.64,47.68c-10.39-4.59-21.14-9.33-32.94-12.36-26.15-6.72-38.59,5.2-51.75,17.83-9.11,8.74-18.52,17.77-33.23,20.61-16.49,3.2-37.56-3.88-57.92-10.71-14.53-4.88-28.25-9.48-40.52-10.66-5.07-.49-10.15-.78-15.24-.92-1.32,1.01-2.62,2.03-3.92,3.06,6.29.07,12.58.39,18.85.99,11.9,1.14,25.46,5.69,39.82,10.51,20.75,6.96,42.22,14.16,59.52,10.82,15.61-3.02,25.37-12.38,34.81-21.43,12.51-12,24.33-23.34,48.79-17.06,11.55,2.97,22.18,7.66,32.45,12.19,15.2,6.71,30.91,13.64,49.63,14.93,13.41.92,27.59,1.63,42.99,2.13-1.17-1.1-2.35-2.19-3.54-3.26-13.97-.49-26.93-1.16-39.24-2.01-18.16-1.25-32.93-7.77-48.57-14.67"/><path class="cls-3" d="m329.73,38.7c-10.73-4.39-21.83-8.93-33.83-11.79-25.95-6.2-38.57,5.43-51.91,17.74-9.06,8.36-18.44,17.01-32.71,20.15-16.57,3.65-38.27-3.07-59.24-9.58-13.19-4.09-25.66-7.95-36.58-9.21-2.94-.34-5.87-.61-8.81-.84-1.35.94-2.68,1.9-4.01,2.87,4.15.26,8.31.61,12.46,1.09,10.63,1.22,22.96,5.04,36.01,9.09,21.36,6.62,43.46,13.47,60.85,9.64,15.1-3.32,24.79-12.26,34.16-20.91,12.71-11.72,24.71-22.8,49.05-16.99,11.76,2.81,22.75,7.3,33.37,11.65,14.9,6.1,30.3,12.4,48.02,14.11,11.09,1.07,22.48,1.97,34.1,2.73-1.38-1.16-2.78-2.3-4.19-3.44-10.07-.69-19.96-1.49-29.61-2.42-17.26-1.66-32.45-7.88-47.13-13.89"/><path class="cls-3" d="m242.58,35.03c-10.57,9.14-21.5,18.59-38.74,20.31-16.42,1.63-35.72-3.57-54.38-8.6-11.06-2.98-21.51-5.8-31.14-7.17-.93-.13-1.85-.25-2.78-.37-1.36.87-2.71,1.76-4.06,2.66,2.13.25,4.26.51,6.39.82,9.44,1.35,19.8,4.14,30.77,7.1,18.94,5.11,38.53,10.39,55.51,8.69,18.23-1.82,29.54-11.6,40.48-21.06,14.79-12.79,27.56-23.84,54.87-13.96,30.84,11.16,62.34,18.99,97.09,24.01-1.88-1.37-3.79-2.71-5.71-4.02-32.13-5.01-61.51-12.52-90.32-22.94-29.04-10.5-43.1,1.66-57.99,14.54"/><path class="cls-3" d="m240.4,26.46c-10.54,8.15-21.44,16.58-37.44,19.12-17.05,2.7-38.56-2.43-57.53-6.96-7.5-1.79-14.61-3.47-21.27-4.68-1.39.81-2.77,1.62-4.14,2.46,7.54,1.18,15.87,3.17,24.68,5.27,19.26,4.6,41.09,9.81,58.76,7.01,16.78-2.66,28.01-11.34,38.86-19.74,15.53-12,28.94-22.37,55.56-13.53,26.7,8.87,53.98,15.84,82.19,21.02-2.68-1.63-5.39-3.2-8.13-4.74-24.99-4.96-49.26-11.36-73.07-19.27-28.21-9.37-42.91,2-58.47,14.03"/><path class="cls-3" d="m277.83,1.54c-16.66.26-28.35,8.42-40.54,16.95-10.58,7.4-21.52,15.05-36.59,18.07-17.89,3.59-40.07-1.33-59.64-5.67-2.8-.62-5.52-1.22-8.19-1.79-1.43.76-2.85,1.53-4.27,2.32,3.78.77,7.69,1.63,11.77,2.54,19.87,4.41,42.4,9.4,60.94,5.69,15.72-3.15,26.93-10.99,37.78-18.58,16.42-11.48,30.59-21.39,56.97-13.68,19.7,5.76,38.84,10.76,57.51,15.01-6.43-2.93-13.01-5.59-19.71-7.97-11.95-3.01-24.09-6.31-36.46-9.92-6.44-1.24-12.97-2.22-19.57-2.96"/><path class="cls-3" d="m202.66,28.57c12.03-3.58,22.07-9.77,31.78-15.75,7.9-4.86,15.59-9.58,23.98-12.68-2.57-.09-5.16-.14-7.75-.15-6.1,2.91-11.94,6.49-17.88,10.15-9.54,5.87-19.4,11.95-31.03,15.41-18.47,5.51-39.69,2.39-59.24-1.34-1.57.75-3.13,1.52-4.68,2.3,21.01,4.11,44.33,8.16,64.82,2.05"/><path class="cls-3" d="m154.41,18.93c-1.89.78-3.77,1.59-5.64,2.42,17.87,2.59,36.52,3.35,54.06-2.72,10.45-3.62,19.68-8.83,28.61-13.86,2.74-1.55,5.46-3.08,8.19-4.55-2.41.1-4.82.23-7.22.39-.84.47-1.67.94-2.51,1.42-8.81,4.97-17.92,10.11-28.1,13.63-15.25,5.28-31.52,5.19-47.4,3.27"/><path class="cls-3" d="m203.95,8.78c5.24-2.07,10.24-4.44,15.12-6.89-3.53.44-7.04.95-10.52,1.54-1.89.84-3.81,1.66-5.75,2.43-9.9,3.9-19.76,5.8-29.94,6.28-3.14,1.02-6.25,2.08-9.33,3.22,13.91.44,27.1-1.32,40.42-6.58"/></g></g></g></g></svg>