<?xml version="1.0" encoding="UTF-8"?><svg id="Layer_1" xmlns="http://www.w3.org/2000/svg" width="52.34" height="48.81" viewBox="0 0 52.34 48.81"><defs><style>.cls-1,.cls-2,.cls-3{fill:#ff7c66;}.cls-2{opacity:.5;}.cls-3{opacity:.25;}</style></defs><g id="Macro_Atom"><g><path class="cls-3" d="m26.24,44.53c11.32,0,20.5-9.18,20.5-20.5,0-11.32-9.18-20.5-20.5-20.5-11.32,0-20.5,9.18-20.5,20.5,0,11.32,9.18,20.5,20.5,20.5"/><path class="cls-2" d="m26.24,40.53c9.11,0,16.5-7.39,16.5-16.5S35.35,7.53,26.24,7.53c-9.11,0-16.5,7.39-16.5,16.5,0,9.11,7.39,16.5,16.5,16.5"/><path class="cls-1" d="m26.24,11.53c-6.89,0-12.5,5.61-12.5,12.5,0,6.89,5.61,12.5,12.5,12.5,6.89,0,12.5-5.61,12.5-12.5,0-6.89-5.61-12.5-12.5-12.5"/></g></g></svg>