<?xml version="1.0" encoding="UTF-8"?><svg id="Layer_2" xmlns="http://www.w3.org/2000/svg" width="500" height="496.85" xmlns:xlink="http://www.w3.org/1999/xlink" viewBox="0 0 500 496.85"><defs><style>.cls-1{fill:none;}.cls-2{clip-path:url(#clippath);}.cls-3{fill:#003d58;}.cls-4{clip-path:url(#clippath-1);}</style><clipPath id="clippath"><rect class="cls-1" y="0" width="500" height="496.85"/></clipPath><clipPath id="clippath-1"><rect class="cls-1" y="0" width="500" height="496.85"/></clipPath></defs><g id="Layer_1-2"><g id="Navy_Circle_2"><g class="cls-2"><g class="cls-4"><path class="cls-3" d="m288.81,486.75c-25.72,4.16-52.32,8.47-79.03,6.43-17.1-1.3-31.5-6.63-46.74-12.26-6.73-2.49-13.7-5.06-20.98-7.3-1.47-.45-2.94-.86-4.4-1.25,24.12,12.16,50.48,20.52,78.3,24.3,2.65.11,5.3.17,7.94.17,22.18,0,44.09-3.55,65.41-6.99,15.49-2.51,31.3-5.06,47.33-6.28,3.16-1.17,6.29-2.4,9.38-3.69-19.45.78-38.57,3.86-57.21,6.87"/><path class="cls-3" d="m284.35,475.04c-23.42,4.6-47.64,9.36-72.66,7.63-17.8-1.22-31.65-7.25-46.31-13.64-5.34-2.33-10.87-4.74-16.77-7-13.57-5.21-27.07-7.11-40.3-7.05,1.53,1.06,3.08,2.1,4.64,3.12,11.34.38,22.85,2.38,34.53,6.87,5.84,2.24,11.33,4.63,16.64,6.95,14.92,6.5,29,12.63,47.35,13.89,3.67.25,7.32.37,10.95.37,21.52,0,42.32-4.08,62.52-8.05,25.38-4.98,51.62-10.13,79.18-7.15.27.03.54.05.82.08,1.67-.87,3.33-1.75,4.98-2.65-1.82-.18-3.64-.36-5.46-.56-28.03-3.03-54.51,2.17-80.12,7.19"/><path class="cls-3" d="m281.4,462.77c-21.86,5.19-44.46,10.56-68.43,9.32-18.92-.97-31.88-7.23-46.88-14.49-4.02-1.95-8.18-3.96-12.66-5.97-20.08-9.03-40.21-10.41-60.5-8.16,1.13.91,2.26,1.83,3.41,2.72,18.81-1.77,37.16-.07,55.8,8.3,4.44,2,8.58,4,12.58,5.94,15.31,7.41,28.53,13.8,48.09,14.8,2.41.12,4.8.18,7.17.18,21.73,0,42.25-4.87,62.15-9.59,25.42-6.03,51.7-12.26,80.1-8.05,7.03,1.04,14.08,1.93,21.13,2.71,1.4-.89,2.8-1.79,4.18-2.71-8.3-.87-16.59-1.89-24.85-3.11-28.99-4.31-55.58,2-81.29,8.1"/><path class="cls-3" d="m280.04,450.58c-20.79,5.89-42.3,11.97-65.55,11.02-19.6-.81-31.17-7.33-45.82-15.6-3.46-1.96-7.05-3.98-10.97-6.06-25.44-13.51-51.91-12.99-77.88-7.84.96.89,1.92,1.78,2.89,2.65,24.66-4.61,49.66-4.72,73.52,7.96,3.89,2.07,7.45,4.08,10.9,6.02,15.02,8.47,26.87,15.16,47.23,16,1.69.07,3.37.1,5.05.1,21.82,0,41.97-5.71,61.49-11.24,26.3-7.45,51.15-14.49,79.98-8.98,12.47,2.38,24.98,4.19,37.5,5.6,1.23-.91,2.46-1.84,3.67-2.77-13.55-1.44-27.1-3.34-40.58-5.92-29.57-5.65-55.93,1.82-81.43,9.05"/><path class="cls-3" d="m355.77,426.86c-28.3-5.23-52.83,3.74-76.56,12.41-20.12,7.36-40.93,14.96-64.02,13.89-19-.88-27.54-7.26-39.37-16.08-3.91-2.92-8.35-6.23-13.55-9.56-30.49-19.57-60.43-15.28-92.83-5.62.81.85,1.64,1.69,2.47,2.53,31.8-9.39,59.58-12.94,88.66,5.73,5.1,3.28,9.3,6.41,13.37,9.44,11.81,8.81,21.14,15.77,41.1,16.7,1.54.07,3.06.11,4.57.11,21.88,0,41.58-7.21,60.67-14.19,24.4-8.92,47.45-17.36,74.9-12.27,19.72,3.65,39.04,6.25,58.26,8.22,1.08-.93,2.14-1.88,3.2-2.83-20.09-1.99-40.28-4.66-60.89-8.47"/><path class="cls-3" d="m161.35,417.75c5.32,4.06,9.57,8.05,13.67,11.9,11.13,10.45,19.92,18.69,40.76,19.59,1.21.05,2.41.08,3.6.08,22.4,0,41.56-8.96,60.11-17.64,23.45-10.97,45.61-21.34,73.85-15.19,5.76,1.25,11.39,2.52,16.94,3.77,17.34,3.9,34.08,7.64,51.63,10.25.96-.91,1.91-1.84,2.86-2.77-18.33-2.6-35.74-6.48-53.81-10.54-5.56-1.25-11.2-2.52-16.97-3.77-29.28-6.38-52.96,4.71-75.85,15.42-19.2,8.98-39.04,18.26-62.24,17.27-19.67-.85-28.09-8.74-38.75-18.74-3.97-3.72-8.47-7.94-13.91-12.1-33.22-25.37-66.54-17.14-103.34-3.88.73.85,1.47,1.7,2.21,2.55,35.47-12.69,67.6-20.32,99.22,3.83"/><path class="cls-3" d="m356.07,400.36c-31-10.5-56.06,2.02-80.3,14.14-18.33,9.16-37.27,18.63-59.11,18.63-.21,0-.42,0-.64,0-20.9-.17-29.97-8.99-41.45-20.16-4.89-4.75-9.94-9.66-16.47-14.54-34.08-25.42-73.78-9.89-106.03,3.26.67.86,1.33,1.72,2.01,2.57,32.85-13.38,69.72-27.5,102.14-3.32,6.37,4.75,11.35,9.59,16.16,14.27,11.52,11.19,21.46,20.86,43.62,21.05.22,0,.44,0,.67,0,22.57,0,41.86-9.64,60.51-18.96,24.75-12.37,48.13-24.05,77.89-13.97,26.13,8.85,51.81,13.57,77.65,16.28.9-.96,1.8-1.92,2.68-2.9-26.45-2.64-52.68-7.33-79.32-16.36"/><path class="cls-3" d="m354.15,384.87c-32.48-11.32-57.65,1.59-81.99,14.07-17.32,8.89-35.23,18.07-56.18,19.18-20.55,1.08-30.11-7.48-42.18-18.31-4.92-4.42-10.01-8.98-16.38-13.41-33.93-23.59-70.08-11.47-107.22,4.21-1.66.7-3.27,1.37-4.84,2.01.62.88,1.25,1.75,1.88,2.63,1.37-.56,2.75-1.13,4.18-1.74,37.69-15.91,71.54-27.23,104.21-4.52,6.21,4.32,11.23,8.82,16.07,13.17,11.43,10.27,21.39,19.21,40.88,19.21,1.15,0,2.34-.03,3.57-.1,21.62-1.14,39.84-10.48,57.45-19.52,24.84-12.74,48.31-24.78,79.52-13.9,31.01,10.81,60.27,16.78,89.69,20.33.79-.95,1.56-1.92,2.33-2.88-29.89-3.5-59.55-9.45-90.98-20.41"/><path class="cls-3" d="m352.36,369.45c-34.69-12.32-58.9.48-84.53,14.02-16.29,8.61-33.15,17.51-53.31,19.81-20.34,2.33-30.47-6.06-43.29-16.69-4.96-4.11-10.09-8.36-16.3-12.39-35.65-23.12-70.16-11.04-105.31,4.55-3.76,1.67-7.25,3.16-10.55,4.49.57.9,1.16,1.79,1.74,2.68,3.18-1.28,6.51-2.71,10.08-4.29,34.33-15.23,67.99-27.05,102.32-4.79,6.06,3.93,11.11,8.12,16.01,12.17,11.43,9.47,21.48,17.8,38.79,17.8,2.17,0,4.45-.13,6.87-.41,20.75-2.37,37.87-11.41,54.42-20.15,25.01-13.21,48.64-25.68,82.01-13.84l6.98,2.48c29.97,10.68,58.36,20.77,89.89,26.5.72-.93,1.45-1.86,2.16-2.81-31.91-5.63-60.64-15.84-90.99-26.65l-6.98-2.48Z"/><path class="cls-3" d="m444.2,386.28c-20.43-5.18-40.27-12.58-59.46-19.75-12.38-4.62-25.18-9.4-38.07-13.56-36.36-11.73-59.7,1.2-84.4,14.89-14.99,8.31-30.48,16.89-49.78,20.39-19.88,3.6-30.83-4.44-44.69-14.62-4.34-3.19-8.84-6.49-13.96-9.69-29.34-18.33-60.11-18.45-99.78-.4-8.3,3.77-15.19,6.86-21.29,9.26.52.92,1.06,1.83,1.6,2.74,6.08-2.4,12.89-5.45,20.99-9.13,38.61-17.57,68.47-17.51,96.82.2,5.02,3.13,9.46,6.4,13.76,9.55,13.9,10.21,25.92,19.03,47.11,15.18,19.81-3.59,35.53-12.31,50.74-20.73,24.09-13.35,46.84-25.96,81.91-14.65,12.82,4.14,25.59,8.9,37.94,13.51,19.27,7.19,39.19,14.63,59.79,19.85,3.95,1,7.85,1.82,11.74,2.53.66-.94,1.32-1.88,1.96-2.83-4.28-.76-8.59-1.65-12.93-2.75"/><path class="cls-3" d="m444.38,375.34c-18.96-5.58-37.55-13.09-55.53-20.35-14.68-5.93-29.86-12.07-45.19-17.13-24.19-7.99-45.76-8.61-65.93-1.91-12.14,4.03-22.51,11.34-32.54,18.4-10.86,7.65-22.09,15.55-35.36,19.02-20.1,5.25-31.97-2.45-47.01-12.2-4.25-2.75-8.64-5.6-13.53-8.36-31.01-17.5-60.73-17.73-96.35-.73-10.28,4.9-18.38,8.59-25.39,11.12.49.95,1,1.9,1.5,2.84,7.05-2.58,15.11-6.29,25.24-11.12,35.07-16.73,63.02-16.54,93.45.64,4.81,2.71,9.16,5.53,13.36,8.26,15.07,9.77,28.09,18.2,49.51,12.6,13.82-3.61,25.28-11.68,36.37-19.49,9.85-6.93,20.03-14.1,31.72-17.99,19.51-6.48,40.43-5.86,63.95,1.91,15.24,5.03,30.37,11.15,45,17.06,18.05,7.29,36.71,14.84,55.82,20.46,6.03,1.77,11.98,3.15,17.87,4.21.61-.96,1.21-1.92,1.8-2.89-6.2-1.07-12.45-2.47-18.79-4.34"/><path class="cls-3" d="m444.66,364.59c-18.48-6.02-36.66-13.78-54.24-21.29-16.41-7-33.37-14.24-50.59-20.09-16.6-5.63-41.59-12.23-66.79-4.61-13.36,4.04-24.18,12.43-34.65,20.55-9.57,7.42-19.48,15.1-31.12,19.17-20.16,7.04-33.01-.32-49.28-9.64-4.09-2.34-8.32-4.77-12.94-7.12-33.5-17.05-60.48-17.34-93.12-1.01-12.13,6.07-21.23,10.31-29.13,12.84.44.95.88,1.9,1.33,2.84,8.01-2.6,17.19-6.85,29.21-12.87,31.64-15.83,57.79-15.53,90.29,1,4.54,2.31,8.74,4.72,12.8,7.04,16.29,9.33,30.36,17.4,51.88,9.88,12.13-4.24,22.24-12.07,32.02-19.65,10.24-7.94,20.83-16.15,33.63-20.02,24.33-7.36,48.68-.91,64.87,4.58,17.11,5.8,34.01,13.02,50.37,20,17.65,7.53,35.9,15.32,54.5,21.38,7.9,2.57,15.63,4.42,23.27,5.73.55-.97,1.09-1.94,1.63-2.92-7.86-1.29-15.82-3.16-23.93-5.8"/><path class="cls-3" d="m445.29,353.89c-17.24-6.27-34.19-14.08-50.57-21.62-18.86-8.69-38.36-17.67-58.51-24.41-20.7-6.93-45.07-13.1-68.81-6.36-14.45,4.11-25.34,13.53-35.87,22.64-8.16,7.06-16.6,14.37-26.55,18.96-21.03,9.72-36.23,2.62-55.48-6.36-3.52-1.64-7.16-3.35-10.98-5-33.55-14.58-56.42-18.94-88.26-2.29-13.69,7.16-23.38,11.66-31.86,13.85.4.98.79,1.97,1.2,2.94,8.65-2.3,18.47-6.88,32.11-14.01,30.9-16.15,52.2-12.1,85.55,2.39,3.77,1.64,7.4,3.33,10.9,4.97,19.19,8.96,35.77,16.71,58.13,6.37,10.35-4.78,18.96-12.24,27.28-19.44,10.27-8.89,20.89-18.08,34.67-21.99,22.92-6.51,46.71-.46,66.95,6.31,19.99,6.69,39.41,15.64,58.19,24.29,16.44,7.57,33.44,15.4,50.81,21.72,9.46,3.44,18.67,5.77,27.74,7.29.51-.98,1.02-1.97,1.51-2.97-9.22-1.49-18.58-3.79-28.18-7.28"/><path class="cls-3" d="m450.55,346.05c-12.7-5.12-25.52-10.61-37.92-15.93-26.57-11.4-54.04-23.18-82.16-31.95-21.31-6.65-44.05-12.68-67.22-7.13-15.76,3.77-27.72,13.14-39.29,22.2-7.83,6.13-15.92,12.47-25.16,17.07-22.56,11.22-40.06,4.04-62.21-5.06l-3.95-1.62c-34.17-13.91-52.99-21.57-89.21-.43-1.69.98-3.35,1.98-4.99,2.97-7.38,4.43-14.48,8.69-22.47,10.88.37.99.74,1.98,1.12,2.96,8.21-2.31,15.46-6.64,22.97-11.15,1.64-.98,3.29-1.97,4.96-2.95,34.87-20.36,52.11-13.35,86.44.63l3.94,1.61c21.98,9.02,40.96,16.82,64.8,4.96,9.53-4.74,17.75-11.18,25.7-17.4,11.82-9.26,22.99-18.01,38.08-21.62,22.38-5.36,44.66.56,65.55,7.08,27.97,8.72,55.36,20.48,81.86,31.84,12.41,5.32,25.25,10.83,37.99,15.96,8.97,3.61,17.72,6.05,26.35,7.64.47-.98.92-1.97,1.38-2.95-8.7-1.55-17.53-3.97-26.55-7.6"/><path class="cls-3" d="m452.43,337.2c-36.7-16.98-77.01-31.93-123.25-45.71l-2.89-.86c-21.24-6.35-43.2-12.91-65.88-9.58-18.15,2.67-32.32,12.26-46.03,21.54-6.59,4.46-13.4,9.07-20.64,12.93-24.24,12.93-43.28,7.43-67.54-1.76l-4.47-1.7c-32.07-12.21-46.71-17.78-81.05,2.1-12.02,6.96-20.83,10.51-28.62,11.68.33,1.01.64,2.02.98,3.02,8.01-1.31,17.1-4.97,29.22-11.98,33.05-19.13,46.32-14.08,78.36-1.88l4.47,1.7c25.04,9.49,44.73,15.15,70.13,1.6,7.39-3.95,14.27-8.6,20.92-13.11,14.03-9.5,27.29-18.47,44.73-21.03,21.99-3.23,43.61,3.23,64.52,9.48l2.9.86c46.09,13.73,86.27,28.63,122.83,45.55,9.66,4.47,18.9,7.44,27.93,9.28.43-.99.88-1.98,1.3-2.97-9.04-1.79-18.27-4.7-27.91-9.16"/><path class="cls-3" d="m454.46,328.4c-35.33-18.7-71.94-28.73-110.7-39.35-4.97-1.36-9.94-2.72-14.92-4.11-3.81-1.06-7.63-2.18-11.46-3.3-19.32-5.65-39.28-11.48-59.91-10.33-21.36,1.2-37.25,10.94-54.08,21.26-4.14,2.54-8.42,5.16-12.8,7.66-24.75,14.12-44.13,11.75-69.22,2.89-4.28-1.51-8.54-3.51-13.06-5.63-8.89-4.17-18.09-8.48-27.73-9-13.34-.71-21.1,4.17-30.08,9.84-3.32,2.09-6.75,4.26-10.68,6.26-13.65,6.95-22.77,10.28-30.83,11.02.28,1.02.57,2.04.86,3.06,8.26-.89,17.69-4.31,31.4-11.28,4.07-2.07,7.56-4.27,10.93-6.4,8.53-5.38,15.87-10.03,28.24-9.36,9.03.49,17.95,4.67,26.56,8.71,4.39,2.06,8.92,4.18,13.35,5.75,25.95,9.17,46.03,11.59,71.82-3.12,4.42-2.52,8.72-5.16,12.88-7.71,16.48-10.1,32.04-19.64,52.61-20.8,20.09-1.13,39.79,4.63,58.85,10.21,3.84,1.12,7.68,2.25,11.5,3.31,4.99,1.39,9.97,2.75,14.93,4.11,38.59,10.57,75.04,20.56,110.06,39.1,10.11,5.35,19.73,8.83,29.09,10.93.4-.99.79-1.99,1.17-2.98-9.28-2.03-18.8-5.43-28.8-10.72"/><path class="cls-3" d="m51.14,290.48c7.64-5.36,14.24-9.98,26.1-9.65,8.91.26,17.44,4.26,25.67,8.13,4.54,2.13,9.23,4.33,13.93,5.89,28.88,9.53,48.79,7.5,73.43-7.51,47.57-28.97,81.11-20.34,131.89-7.27l6.65,1.71c9.64,2.47,19.41,4.7,28.85,6.87,34.42,7.88,66.93,15.33,97.47,33.74,11.09,6.69,19.96,11.54,29,14.44.37-.97.73-1.95,1.08-2.92-8.75-2.79-17.38-7.53-28.46-14.21-30.97-18.66-63.72-26.17-98.39-34.11-9.42-2.16-19.17-4.39-28.77-6.85l-6.64-1.71c-51.55-13.27-85.6-22.04-134.31,7.62-23.74,14.46-42.94,16.42-70.82,7.21-4.53-1.49-8.92-3.56-13.58-5.75-8.53-4-17.35-8.15-26.92-8.43-12.92-.37-20.24,4.77-28,10.22-3.29,2.31-6.69,4.7-10.74,6.88-14.34,7.7-23.59,10.89-32.09,11.06.24,1.05.51,2.09.77,3.14,8.71-.35,18.36-3.66,32.81-11.43,4.22-2.27,7.7-4.71,11.06-7.07"/><path class="cls-3" d="m458.65,311.21c-28.94-18.95-60.04-24.28-92.96-29.94-12.44-2.13-25.3-4.34-37.91-7.34-10.2-2.43-20.05-5.31-29.57-8.1-39.31-11.51-73.25-21.45-112.43,4.04-25.51,16.6-44.14,19.42-71.18,10.77-4.69-1.5-9.29-3.69-13.73-5.82-8.25-3.94-16.78-8.01-26.52-8.02h-.06c-12.58,0-19.28,5.2-26.37,10.71-3.23,2.51-6.57,5.1-10.69,7.44-14.5,8.2-23.97,11.15-32.84,10.87.2,1.06.39,2.12.61,3.17,9.12.12,19.05-2.98,33.77-11.31,4.32-2.44,7.76-5.11,11.08-7.69,6.94-5.39,12.94-10.05,24.44-10.05h.05c9.03.01,16.87,3.75,25.17,7.72,4.54,2.17,9.23,4.41,14.12,5.97,27.73,8.87,47.74,5.86,73.85-11.13,37.96-24.7,71.27-14.95,109.83-3.65,9.56,2.8,19.44,5.69,29.72,8.14,12.71,3.03,25.62,5.24,38.11,7.39,32.59,5.59,63.38,10.88,91.77,29.47,11.22,7.34,19.95,13.06,29.61,16.29.34-.98.66-1.97.99-2.96-9.22-3.09-17.68-8.63-28.88-15.96"/><path class="cls-3" d="m40.35,275.08c25.98-18.06,36.12-15.62,64.25-5.19,34.37,12.74,49.04,6.44,76.67-12.13,34.66-23.3,75.52-9.62,115.03,3.61,13.34,4.47,25.95,8.69,38.29,11.52,13.88,3.19,27.55,5.01,40.77,6.78,30.76,4.11,59.82,7.99,87.09,28.17,10.11,7.48,17.98,12.75,26.25,15.72.31-.99.6-1.99.9-2.99-7.84-2.84-15.39-7.94-25.27-15.25-27.93-20.66-57.37-24.59-88.55-28.76-13.15-1.76-26.74-3.57-40.49-6.73-12.19-2.8-24.72-7-37.99-11.44-40.23-13.47-81.82-27.41-117.78-3.24-27.25,18.32-40.68,24.08-73.83,11.79-28.66-10.62-39.95-13.33-67.14,5.56-14.84,10.32-24.89,14.16-35.82,13.56.16,1.06.33,2.12.5,3.18,11.26.46,21.86-3.56,37.11-14.16"/><path class="cls-3" d="m37.78,266.12c25.57-18.14,34.78-14.92,62.14-5.36,33.52,11.72,46.74,2.53,70.74-14.14,1.54-1.07,3.13-2.17,4.77-3.3,20.06-13.83,36.93-12.77,61.03-5.97,11.8,3.33,23.63,7.11,35.07,10.76,20.85,6.65,42.41,13.54,64.6,17.98,14.02,2.81,27.88,4.08,41.29,5.31,31.4,2.89,61.06,5.61,88.02,27.29,9.92,7.97,17.45,13.75,25.56,17,.28-1.02.56-2.04.83-3.06-7.51-3.1-14.72-8.6-24.42-16.39-27.7-22.27-57.82-25.03-89.7-27.96-13.33-1.22-27.11-2.49-40.96-5.26-22.02-4.41-43.5-11.26-64.26-17.89-11.47-3.66-23.32-7.44-35.17-10.79-24.43-6.9-42.69-8.06-63.67,6.4-1.65,1.14-3.24,2.24-4.78,3.31-23.91,16.6-35.9,24.94-67.91,13.75-29.57-10.33-39.24-12.5-65,5.76-14.05,9.97-24.04,13.49-34.44,13,.12,1.06.23,2.11.36,3.17,10.76.39,21.36-3.29,35.9-13.6"/><path class="cls-3" d="m35.04,258.27c23.43-16.94,34.17-14.06,60.13-7.1l2.19.59c28.21,7.54,39.81-.06,57.37-11.57,4.35-2.86,8.86-5.81,14.15-8.89,20.78-12.12,42.47-7.5,64.72-1.24,9.67,2.72,19.39,5.63,28.79,8.45,24.73,7.41,50.31,15.08,76.71,19.75,13.39,2.37,27.11,3.43,40.37,4.46,32.02,2.48,62.25,4.82,88.93,23.99l1.88,1.35c9.13,6.57,16.28,11.71,23.87,14.93.23-1.04.46-2.08.68-3.12-7.05-3.1-13.86-7.99-22.72-14.36l-1.88-1.35c-27.39-19.68-59.49-22.16-90.53-24.57-13.19-1.02-26.83-2.08-40.07-4.42-26.23-4.64-51.71-12.28-76.36-19.66-9.41-2.82-19.15-5.74-28.84-8.46-22.92-6.45-45.31-11.19-67.15,1.55-5.36,3.13-10.1,6.24-14.29,8.98-16.85,11.05-27.98,18.34-54.84,11.16l-2.19-.59c-26.19-7.02-38.14-10.22-62.78,7.59-13.26,9.59-22.66,13.4-32.38,13.46.08,1.05.18,2.1.28,3.15,10.15-.13,20.15-4.08,33.95-14.06"/><path class="cls-3" d="m32.84,250.16c20.98-15.66,33.24-13.35,55.49-9.15,2.12.4,4.32.81,6.62,1.23,24.24,4.4,35.22-2.91,49.12-12.17,5.5-3.66,11.19-7.46,18.41-11.04,20.64-10.23,46.52-2.76,67.32,3.25l1.2.35c8.66,2.5,17.39,5.13,25.82,7.67,27.8,8.37,56.55,17.03,86.32,22.08,13.97,2.37,28.79,3.11,43.12,3.83,29.43,1.47,59.85,2.98,85.08,18.66,2.72,1.69,5.25,3.31,7.64,4.85,6.46,4.15,11.97,7.67,17.66,10.26.18-1.08.37-2.16.53-3.25-5.29-2.48-10.46-5.78-16.49-9.65-2.41-1.54-4.95-3.17-7.68-4.87-25.92-16.1-56.76-17.64-86.58-19.12-14.24-.71-28.96-1.44-42.75-3.79-29.57-5.03-58.23-13.65-85.94-22-8.44-2.54-17.18-5.17-25.86-7.68l-1.2-.35c-21.32-6.16-47.85-13.83-69.58-3.05-7.4,3.67-13.43,7.69-18.76,11.24-13.31,8.87-23.82,15.87-46.81,11.7-2.3-.42-4.49-.83-6.6-1.23-22.36-4.23-35.87-6.77-57.96,9.71-12.55,9.36-21.45,13.48-30.64,14.12.05,1.05.13,2.1.2,3.15,9.67-.68,19.17-4.94,32.32-14.75"/><path class="cls-3" d="m31.04,241.95c18.48-14.2,31.24-12.75,50.54-10.56,3.64.41,7.4.84,11.5,1.2,20.84,1.83,31.72-5.84,43.24-13.95,6.08-4.28,12.37-8.71,20.59-12.21,18.24-7.77,43.27,0,63.38,6.26,2.88.9,5.63,1.75,8.23,2.52,3.8,1.12,7.6,2.24,11.38,3.37,35.63,10.56,69.28,20.54,105.83,26.16,14.19,2.18,29.72,2.62,44.74,3.05,29.08.82,59.15,1.67,83.63,14.71,4.64,2.47,8.65,4.87,12.53,7.19,4.1,2.46,7.96,4.75,11.91,6.71.12-1.11.24-2.22.34-3.34-3.46-1.78-6.91-3.84-10.64-6.07-3.91-2.34-7.96-4.76-12.67-7.27-25.13-13.38-55.57-14.24-85.01-15.08-15.61-.44-30.35-.86-44.35-3.01-36.34-5.59-69.89-15.53-105.41-26.06-3.79-1.12-7.58-2.25-11.38-3.37-2.58-.76-5.32-1.61-8.18-2.5-20.61-6.41-46.25-14.38-65.55-6.15-8.53,3.63-14.95,8.16-21.16,12.54-11.51,8.11-21.46,15.12-41.15,13.39-4.06-.36-7.8-.78-11.42-1.19-19.34-2.19-33.31-3.78-52.8,11.19-11.89,9.13-20.37,13.55-29.05,14.8.02,1.06.06,2.12.09,3.17,9.23-1.25,18.32-5.83,30.88-15.48"/><path class="cls-3" d="m75.84,222.38c5.09.25,10.35.51,16.16.43,17.67-.21,28.2-8.16,38.38-15.85,6.49-4.9,13.19-9.96,21.84-13.17,16.25-6.02,41.81,2.99,60.48,9.58,4.77,1.68,9.27,3.27,13.15,4.45,38.94,11.87,80.64,23.99,124.68,30.3,14.82,2.13,30.77,2.17,47.65,2.21,28.1.07,57.16.15,80.49,10.6,6.12,2.74,11.2,5.71,16.11,8.59,1.65.97,3.27,1.91,4.88,2.82.06-1.17.1-2.35.15-3.53-1.13-.65-2.27-1.31-3.44-2-4.98-2.92-10.14-5.93-16.41-8.75-23.94-10.72-53.34-10.8-81.77-10.87-16.77-.04-32.61-.08-47.21-2.18-43.82-6.29-85.39-18.37-124.21-30.2-3.81-1.16-8.29-2.74-13.02-4.41-20.18-7.12-45.31-15.98-62.62-9.56-9.08,3.37-15.97,8.57-22.64,13.6-10.23,7.72-19.88,15.01-36.53,15.21-5.72.06-10.92-.18-15.96-.43-17.43-.85-31.2-1.52-48.44,11.94-11.16,8.71-19.37,13.36-27.53,15.25,0,.85-.03,1.7-.03,2.55,0,.22,0,.45,0,.67,8.76-1.89,17.6-6.72,29.48-16,16.32-12.74,29.57-12.09,46.35-11.27"/><path class="cls-3" d="m404.19,228.77c-17.85.35-34.7.68-49.95-1.27-42.09-5.4-84.77-15.16-130.48-29.83-4.55-1.46-10.48-3.93-16.77-6.54-19.56-8.13-43.92-18.24-59.35-13.22-9.38,3.05-16.72,9.16-23.82,15.07-9.03,7.51-18.36,15.28-32.11,16.96-7.26.88-13.98.91-20.47.94-15.24.06-29.63.12-45.06,12.11-3.33,2.59-6.02,5.15-8.62,7.62-5.39,5.12-9.84,9.32-17.44,11.39-.03,1.09-.04,2.18-.05,3.27,8.91-2.17,13.95-6.95,19.66-12.37,2.55-2.42,5.18-4.92,8.39-7.41,14.58-11.33,27.82-11.39,43.14-11.45,6.59-.03,13.4-.05,20.84-.96,14.67-1.79,24.37-9.86,33.74-17.66,7.19-5.98,13.98-11.64,22.78-14.5,14.35-4.66,39.1,5.62,57.17,13.13,6.62,2.75,12.34,5.13,17.02,6.63,45.89,14.73,88.76,24.53,131.04,29.95,15.48,1.99,32.45,1.65,50.41,1.3,27.51-.54,55.94-1.1,78.58,7.31,6.54,2.43,11.97,5.55,17.17,8.63,0-1.23-.02-2.45-.05-3.67-4.83-2.83-9.93-5.64-16.03-7.91-23.2-8.62-51.94-8.06-79.73-7.51"/><path class="cls-3" d="m486.9,223.75c-12.8-3.82-28.41-2.62-43.5-1.47-6.79.52-13.15.98-19.04,1.01-23.72-.02-45.65-1.18-67.03-3.54-54.87-6.05-98.41-15.26-137.03-28.97-4.9-1.74-11.59-5.2-19.33-9.22-18.02-9.33-40.44-20.95-54.05-17.3-9.83,2.64-17.5,9.82-25.62,17.42-8.37,7.83-17.03,15.93-28.26,18.63-8.66,2.08-17.03,2.44-25.12,2.79-14.84.64-28.85,1.25-42.98,11.92-3.77,2.85-6.7,5.65-9.55,8.37-4.74,4.53-8.75,8.35-14.93,10.71-.07,1.13-.13,2.26-.18,3.39,7.53-2.53,12.13-6.91,17.28-11.83,2.78-2.65,5.65-5.4,9.27-8.13,13.35-10.09,26.89-10.67,41.22-11.29,8.25-.36,16.77-.73,25.72-2.88,12.04-2.9,21-11.28,29.67-19.39,7.83-7.32,15.22-14.24,24.29-16.68,12.41-3.33,34.24,7.97,51.78,17.06,7.85,4.06,14.62,7.57,19.73,9.39,38.85,13.8,82.62,23.05,137.74,29.13,21.5,2.37,43.53,3.53,67.37,3.56h.09c5.93,0,12.38-.49,19.2-1.02,14.81-1.14,30.11-2.31,42.36,1.35,4.96,1.48,9.35,3.63,13.48,5.98-.08-1.25-.16-2.49-.26-3.73-3.77-2.05-7.79-3.9-12.32-5.26"/><path class="cls-3" d="m488.96,213.05c-12.1-2.76-26.5-1.29-40.42.14-7.63.78-14.84,1.52-21.42,1.55-20.78.08-42.04-1.22-67.01-4.09l-5.33-.61c-46.22-5.31-94.01-10.79-137.34-26.67-5.71-2.09-13.39-6.68-21.53-11.53-16.86-10.06-35.97-21.46-49.61-18.74-9.98,2-18.07,10.4-26.64,19.3-7.72,8.02-15.7,16.31-25.03,19.31-9.74,3.13-19.37,3.6-28.67,4.05-14.88.73-28.93,1.41-43,12.04-4,3.02-7.1,5.98-10.1,8.83-3.91,3.73-7.35,6.99-11.79,9.43-.11,1.23-.23,2.46-.33,3.69,5.76-2.73,9.83-6.59,14.29-10.85,2.94-2.8,5.97-5.69,9.82-8.6,13.3-10.05,26.88-10.71,41.26-11.41,9.51-.46,19.35-.94,29.48-4.2,10.08-3.24,18.34-11.82,26.33-20.12,8.22-8.54,15.98-16.6,24.99-18.4,12.45-2.48,31.01,8.58,47.39,18.35,8.26,4.93,16.07,9.59,22.05,11.78,43.69,16.01,91.67,21.52,138.07,26.85l5.33.61c25.09,2.89,46.54,4.2,67.38,4.12,6.73-.03,14.01-.77,21.72-1.56,13.66-1.4,27.8-2.85,39.4-.2,3.54.81,6.85,2.03,10.03,3.46-.14-1.21-.29-2.43-.45-3.63-2.81-1.17-5.75-2.17-8.88-2.89"/><path class="cls-3" d="m452.76,204.76c-8.39.75-16.32,1.46-23.91,1.33-23.63-.38-46.85-3.25-66.45-6-12.75-1.79-26.17-3.28-39.14-4.72-36.51-4.06-74.27-8.25-107.97-19.86-6.37-2.19-14.38-7.21-22.87-12.52-15.91-9.96-33.95-21.26-48.15-18.23-10.03,2.14-18.11,11.18-25.92,19.93-7.05,7.89-14.33,16.05-22.96,19.16-10.63,3.84-20.97,4.11-30.97,4.37-14.48.38-29.45.77-44.36,12.37-3.97,3.08-7.21,6.18-10.07,8.91-2.69,2.57-5.17,4.93-7.88,6.98-.18,1.39-.34,2.78-.5,4.18,3.87-2.53,7.1-5.59,10.55-8.88,2.95-2.81,5.99-5.72,9.83-8.71,14.1-10.97,27.9-11.33,42.52-11.71,10.25-.27,20.85-.55,31.95-4.55,9.37-3.38,16.92-11.84,24.23-20.02,7.82-8.75,15.21-17.02,24.23-18.95,12.95-2.76,30.42,8.18,45.82,17.83,8.64,5.41,16.8,10.52,23.51,12.83,34.04,11.72,71.97,15.94,108.65,20.01,12.96,1.44,26.35,2.93,39.05,4.71,19.69,2.77,43.04,5.65,66.84,6.03,7.78.13,16.14-.62,24.24-1.34,12.18-1.09,24.79-2.21,36.01-.49,2.67.41,5.26,1.04,7.81,1.8-.18-1.15-.37-2.29-.57-3.44-2.2-.61-4.45-1.12-6.76-1.47-11.6-1.78-24.39-.64-36.76.47"/><path class="cls-3" d="m439.67,194.04c-24.39-.16-49.61-.32-75.36-4.62-17.98-3-37.21-4.75-55.8-6.45-31.96-2.91-65.02-5.93-94.55-15.34-7.15-2.28-15.38-7.62-24.09-13.28-15.64-10.15-31.81-20.64-46.65-17.42-10.3,2.23-18.12,11.36-25.69,20.19-6.6,7.7-13.43,15.66-21.69,18.76-11.4,4.27-22.32,4.37-32.87,4.46-15.23.13-30.97.27-47.01,13.49-3.68,3.03-6.65,5.91-9.53,8.68-.87.84-1.71,1.65-2.55,2.44-.3,1.67-.57,3.35-.83,5.03,1.84-1.62,3.66-3.37,5.57-5.21,2.83-2.74,5.76-5.56,9.35-8.52,15.18-12.51,29.68-12.64,45.03-12.77,10.83-.1,22.03-.19,33.95-4.66,9.02-3.38,16.11-11.65,22.97-19.65,7.57-8.82,14.71-17.15,23.98-19.16,13.57-2.94,29.18,7.19,44.27,16.99,8.9,5.77,17.3,11.23,24.85,13.63,29.86,9.51,63.09,12.54,95.22,15.47,18.53,1.69,37.7,3.44,55.56,6.42,26,4.34,51.35,4.5,75.86,4.66,15.89.1,32.33.21,48.88,1.45,2.21.17,4.4.46,6.57.84-.22-1.1-.46-2.2-.69-3.29-1.86-.29-3.74-.53-5.64-.68-16.66-1.24-33.15-1.35-49.09-1.45"/><path class="cls-3" d="m366.01,178.66c-21.6-4.23-44.63-5.79-66.9-7.3-28.7-1.95-58.38-3.96-85.36-11.7-8.07-2.32-16.49-7.86-25.4-13.73-14.67-9.67-29.85-19.66-45.44-16.31-10.78,2.32-18.7,11.47-26.37,20.31-6.36,7.35-12.94,14.95-20.89,18.11-7.51,2.99-16.46,2.14-25.11,1.31-3.84-.37-7.46-.71-10.96-.74-23.14-.13-32.45,5.63-48.13,18.92-1.76,1.49-3.38,2.96-4.9,4.4-.43,1.84-.83,3.68-1.22,5.54,2.48-2.43,5.07-4.93,8.15-7.54,15.15-12.85,23.6-18.18,45.02-18.18.35,0,.7,0,1.06,0,3.37.03,6.92.37,10.69.72,9.02.86,18.36,1.75,26.57-1.52,8.66-3.45,15.5-11.34,22.11-18.97,7.66-8.84,14.89-17.2,24.65-19.3,14.33-3.08,28.92,6.55,43.05,15.86,9.12,6.01,17.73,11.68,26.27,14.13,27.29,7.84,57.14,9.86,86.01,11.81,22.17,1.5,45.1,3.06,66.51,7.25,43.64,8.55,81.48,8.38,121.55,8.2,2.02-.01,4.03,0,6.04.03-.25-1.05-.5-2.1-.77-3.15-1.76-.02-3.51-.03-5.28-.02-39.9.17-77.6.35-120.93-8.14"/><path class="cls-3" d="m367.82,167.15c-24.43-5.73-50.11-6.6-74.95-7.45-25.98-.89-52.85-1.8-77.83-8.35-8.7-2.28-17.25-8.13-26.31-14.32-14.23-9.72-28.94-19.78-45.1-15.75-11.7,2.92-20,12.22-28.02,21.22-6.61,7.42-12.86,14.42-20.79,18.03-7.92,3.62-17.52,2.49-26.8,1.4-3.77-.44-7.33-.86-10.76-.97-23.7-.74-31.73,4.7-47.35,18.16-.53,1.84-1.04,3.68-1.54,5.54.65-.59,1.29-1.17,1.98-1.77,16.76-14.53,23.7-19.52,46.81-18.79,3.3.1,6.79.51,10.49.95,9.71,1.14,19.74,2.32,28.47-1.66,8.52-3.89,15.29-11.47,21.83-18.8,7.71-8.64,15.68-17.58,26.44-20.26,14.79-3.68,28.91,5.96,42.56,15.3,8.88,6.07,18.06,12.34,27.29,14.76,25.32,6.64,52.36,7.56,78.52,8.45,24.69.84,50.21,1.71,74.34,7.37,40.69,9.54,82.52,13.03,124.4,13.92-.28-1.05-.56-2.11-.86-3.16-41.39-.92-82.7-4.41-122.82-13.82"/><path class="cls-3" d="m54.78,156.69c3.23.22,6.59.7,10.13,1.21,10.41,1.5,21.17,3.04,30.78-1.79,8.43-4.24,15.24-11.75,21.82-19.01,8.47-9.34,17.22-19,29.5-21.85,15.86-3.68,28.4,5.78,41.7,15.8,9.06,6.82,18.42,13.88,29.02,16.54,24.02,6.03,49.36,5.41,73.86,4.81,25.68-.63,52.25-1.28,77.53,5.67l4.57,1.26c37.68,10.38,67.45,18.57,108.28,12.88,1.93-.27,3.86-.49,5.8-.7-.33-1.02-.66-2.04-1-3.05-1.75.19-3.49.4-5.23.65-40.19,5.6-69.67-2.52-107.01-12.8l-4.57-1.26c-25.73-7.07-52.52-6.41-78.44-5.78-24.3.59-49.42,1.21-73.02-4.72-9.98-2.5-19.09-9.37-27.89-16-13.29-10.01-27.03-20.36-44.3-16.35-13.24,3.07-22.33,13.1-31.12,22.8-6.68,7.37-13,14.34-20.9,18.31-8.73,4.38-18.99,2.91-28.92,1.48-3.61-.52-7.02-1.01-10.37-1.23-21.69-1.46-28.79,1.9-40.69,11.95-.69,1.95-1.35,3.9-2,5.87,14.23-12.45,19.68-16.21,42.48-14.68"/><path class="cls-3" d="m478.17,160.32c-34.45,7-57.8-.97-87.37-11.05-6-2.05-12.21-4.16-18.81-6.26-26.62-8.45-54.01-6.05-80.5-3.73-22.73,1.99-46.24,4.05-68.65-.98-11.51-2.58-21.1-10.08-30.38-17.34-13.15-10.28-26.74-20.92-45.4-16.6-14.55,3.36-24,13.71-33.14,23.71-6.52,7.13-12.67,13.87-20.48,18.14-9.34,5.12-20.12,3.2-30.56,1.34-3.34-.59-6.8-1.21-10.08-1.55-17.81-1.88-25.02-.68-32.76,4.78-.84,1.96-1.65,3.93-2.44,5.92,9.35-7.93,15.02-9.66,34.88-7.57,3.17.33,6.42.91,9.86,1.52,10.97,1.95,22.31,3.97,32.62-1.68,8.27-4.53,14.89-11.77,21.29-18.78,8.82-9.65,17.93-19.62,31.53-22.77,17.19-3.97,29.61,5.73,42.76,16.01,9.55,7.47,19.43,15.19,31.62,17.93,22.88,5.13,46.63,3.05,69.61,1.04,26.18-2.29,53.26-4.67,79.28,3.59,6.57,2.09,12.76,4.2,18.75,6.24,30.02,10.24,53.73,18.33,89.01,11.16,1.94-.39,3.86-.74,5.79-1.06-.37-1.01-.76-2-1.14-3-1.75.3-3.51.62-5.27.98"/><path class="cls-3" d="m475,152.49c-31.23,6.22-52.75-1.96-77.66-11.43-7.74-2.94-15.74-5.99-24.57-8.84-26.34-8.51-53.25-4.95-79.28-1.52-21.78,2.88-44.3,5.85-65.98,1.53-12.5-2.49-22.29-10.32-31.76-17.9-12.76-10.21-25.95-20.76-45.17-16.82-14.64,3-25.07,12.78-35.16,22.25-7.37,6.91-14.33,13.45-22.79,17.51-9.36,4.5-19.99,3.15-30.26,1.84-3.86-.49-7.85-1-11.66-1.18-12.26-.56-19.75.32-26.16,2.88-.7,1.46-1.39,2.94-2.06,4.42,6.9-3.59,14.23-4.78,28.07-4.15,3.69.17,7.44.65,11.41,1.15,10.73,1.37,21.82,2.78,32.02-2.12,8.89-4.27,16.36-11.28,23.58-18.05,9.77-9.17,19.87-18.64,33.64-21.46,17.78-3.63,29.82,6,42.58,16.2,9.76,7.81,19.85,15.88,33.11,18.52,22.18,4.42,44.97,1.42,67.01-1.49,25.68-3.39,52.23-6.9,77.9,1.39,8.75,2.83,16.72,5.85,24.42,8.78,25.37,9.64,47.27,17.97,79.39,11.58,1.98-.39,3.94-.74,5.91-1.07-.41-1-.8-2-1.22-2.99-1.76.3-3.52.62-5.29.97"/><path class="cls-3" d="m471.97,144.85c-28.59,5.12-47.8-2.97-70.04-12.33-8.87-3.73-18.05-7.6-28.48-10.92-25.67-8.17-51.7-3.48-76.88,1.07-20.98,3.79-42.68,7.7-63.74,3.94-13.34-2.38-23.18-10.63-32.7-18.6-12.28-10.29-24.97-20.93-44.58-17.5-14.64,2.56-26.05,11.84-37.08,20.8-8.45,6.87-16.43,13.35-25.76,17.1-9.03,3.64-19.01,2.9-28.66,2.2-4.52-.33-9.21-.67-13.71-.56-9.27.24-16.15,1.46-22.14,3.55-.72,1.38-1.43,2.78-2.12,4.18,6.52-2.76,13.75-4.31,24.35-4.58,4.35-.12,8.96.23,13.41.55,10.01.73,20.35,1.49,30.06-2.41,9.77-3.93,18.31-10.87,26.57-17.58,10.72-8.71,21.81-17.72,35.65-20.15,18.16-3.19,29.75,6.53,42.02,16.81,9.83,8.24,20,16.76,34.16,19.29,21.61,3.86,43.59-.11,64.85-3.94,24.8-4.48,50.44-9.1,75.37-1.16,10.3,3.28,19.41,7.11,28.22,10.82,22.7,9.55,42.31,17.8,71.82,12.52,1.94-.35,3.87-.66,5.79-.96-.44-.99-.9-1.98-1.36-2.96-1.66.26-3.32.53-4.99.83"/><path class="cls-3" d="m469.13,137.11c-26.52,4.14-43.87-4.01-63.97-13.46-9.55-4.49-19.43-9.13-31.01-12.74-25.14-7.84-50.57-2-75.16,3.66-19.97,4.59-40.62,9.34-60.82,6.61-14.53-1.96-24.78-10.88-34.7-19.5-12.3-10.69-25.02-21.75-45.38-18.36-14.27,2.37-25.91,11.16-37.18,19.66-8.75,6.6-17.8,13.43-27.79,16.89-8.26,2.86-17.28,2.58-26.02,2.29-5.2-.17-10.57-.34-15.75.15-7.5.71-13.76,2.29-19.47,4.43-.81,1.44-1.61,2.89-2.39,4.35,6.44-2.8,13.36-4.82,22.16-5.65,4.98-.47,10.25-.3,15.35-.14,9.01.29,18.34.59,27.15-2.47,10.46-3.63,19.71-10.6,28.65-17.35,10.96-8.27,22.29-16.82,35.8-19.07,18.91-3.15,30.51,6.95,42.8,17.63,10.26,8.93,20.88,18.15,36.34,20.24,20.77,2.8,41.7-2.01,61.94-6.66,24.18-5.56,49.18-11.31,73.52-3.72,11.37,3.55,21.15,8.14,30.61,12.59,19.71,9.26,38.32,18.01,65.79,13.72,1.73-.27,3.45-.51,5.18-.75-.48-.99-.98-1.98-1.47-2.96-1.4.2-2.79.39-4.19.61"/><path class="cls-3" d="m466.72,129.31c-25.07,2.71-41.6-5.81-59.09-14.83-9.94-5.13-20.21-10.43-32.78-14.26-24.3-7.41-48.77-.38-72.43,6.41-19.17,5.51-39,11.2-58.53,9.12-15.49-1.65-25.73-11.15-35.64-20.33-11.89-11.02-24.18-22.41-45.08-19.36-14.32,2.09-26.55,10.49-38.37,18.61-9.67,6.65-19.67,13.52-30.56,16.64-7.28,2.09-15.14,2.15-22.75,2.21-6.01.05-12.22.09-18.18,1.13-6.37,1.1-12.07,3.03-17.51,5.39-.95,1.57-1.88,3.15-2.8,4.75,6.5-3.13,13.21-5.72,20.85-7.04,5.71-.99,11.79-1.04,17.67-1.08,7.82-.06,15.9-.12,23.59-2.33,11.39-3.27,21.6-10.29,31.48-17.08,11.52-7.92,23.44-16.11,37.04-18.09,19.41-2.83,30.63,7.56,42.49,18.56,10.28,9.53,20.92,19.39,37.44,21.15,20.15,2.15,40.27-3.63,59.73-9.22,24.29-6.98,47.23-13.56,70.65-6.43,12.29,3.75,22.44,8.98,32.25,14.04,17.92,9.24,34.84,17.97,60.86,15.17,1.32-.14,2.63-.27,3.95-.41-.53-1-1.06-2-1.6-2.99-.89.09-1.79.18-2.68.28"/><path class="cls-3" d="m409.17,105.26c-10.1-5.8-20.54-11.8-33.66-15.7-23.44-6.98-46.94,1.19-69.66,9.09-18.45,6.41-37.52,13.05-56.45,11.54-16.43-1.31-26.66-11.37-36.54-21.11-11.57-11.39-23.54-23.17-45.05-20.39-14.56,1.88-27.58,10-40.17,17.85-10.28,6.41-20.91,13.04-32.16,16.05-6.08,1.63-12.72,1.93-19.14,2.23-6.77.31-13.76.63-20.32,2.47-4.83,1.35-9.4,3.33-13.82,5.58-.58.39-1.15.79-1.73,1.18-.55.38-1.11.76-1.67,1.14-.99,1.56-1.97,3.14-2.93,4.73,6.68-3.84,13.59-7.52,21-9.59,6.21-1.74,13.03-2.05,19.62-2.36,6.59-.3,13.41-.61,19.81-2.33,11.69-3.14,22.53-9.89,33-16.42,12.31-7.67,25.03-15.6,38.91-17.4,20-2.58,30.9,8.15,42.44,19.51,10.29,10.13,20.93,20.6,38.5,22,19.6,1.57,38.98-5.19,57.73-11.7,23.28-8.09,45.26-15.74,67.73-9.04,12.76,3.8,23.04,9.71,32.99,15.42,16.71,9.6,32.49,18.66,57.4,16.47.59-.05,1.16-.1,1.75-.15-.58-1.01-1.18-2-1.77-3-.08,0-.17.01-.25.02-23.93,2.1-39.29-6.72-55.56-16.07"/><path class="cls-3" d="m42.99,111.64c5.46-3.71,10.36-6.2,16.89-8.85,6.73-2.72,14.29-3.32,21.59-3.9,5.3-.42,10.77-.85,15.95-2.09,12.45-2.97,24.04-9.52,35.24-15.86,12.6-7.12,25.62-14.49,39.6-16.48,20.51-2.91,31.26,8.33,42.64,20.24,10.29,10.77,20.94,21.9,39.27,22.86,19.13,1,37.87-6.68,56-14.12,22.32-9.16,43.41-17.8,64.99-11.54,13.07,3.8,23.36,10.29,33.31,16.57,15.47,9.76,30.11,18.96,53.39,17.76-.64-1.02-1.29-2.05-1.95-3.06-21.27.59-35.14-8.13-49.77-17.36-10.14-6.39-20.62-13.01-34.11-16.93-22.64-6.57-45.22,2.69-67.06,11.65-17.81,7.3-36.2,14.85-54.64,13.89-17.09-.9-27.29-11.57-37.16-21.9-11.43-11.96-23.27-24.32-45.35-21.18-14.57,2.07-27.86,9.58-40.71,16.85-11.01,6.23-22.4,12.67-34.42,15.54-4.94,1.18-10.3,1.6-15.47,2.01-7.54.6-15.38,1.49-22.56,4.4-1.12.45-2.24.88-3.28,1.45-3.39,1.85-5.54,2.7-8.55,4.83-1.44,1.02-2.87,2.03-4.31,3.02-.99,1.49-1.97,2.99-2.93,4.5.56-.38,1.12-.76,1.67-1.14.57-.39,1.15-.78,1.73-1.18"/><path class="cls-3" d="m56.64,99.48c1.49-.84,3.01-1.65,4.61-2.4,9.17-4.29,16.89-4.99,26.09-6.19,5.39-.75,10.97-1.53,17.41-3.19,11.17-2.88,21.66-8.61,31.81-14.14,12.59-6.87,25.6-13.96,39.62-15.32,20.31-1.97,31.44,8.88,43.22,20.36,11.24,10.95,22.87,22.27,42.99,22.69,18.53.41,36.09-7.75,52.81-15.9,18.54-9.04,35.8-17.9,54.64-15.22,15.3,2.17,26.52,10,38.4,18.28,13.62,9.5,27.74,19.3,48.15,19.45-.74-1.07-1.47-2.15-2.22-3.21-18.24-.8-30.84-9.55-44.13-18.82-11.66-8.13-23.72-16.54-39.76-18.82-19.79-2.81-38.31,6.65-56.46,15.51-16.38,7.99-33.62,15.95-51.36,15.58-18.88-.39-30.06-11.27-40.86-21.8-11.78-11.48-23.98-23.34-45.72-21.23-14.66,1.42-27.96,8.68-40.82,15.69-9.98,5.44-20.3,11.07-31.09,13.86-6.27,1.62-11.76,2.38-17.06,3.12-9.11,1.2-17.47,1.98-27.08,6.46-4.08,1.9-7.73,4.14-11.25,6.45-1.68,2.34-3.36,4.77-5.03,7.29,1.42-.96,2.81-1.92,4.2-2.87,2.89-1.96,5.82-3.89,8.9-5.62"/><path class="cls-3" d="m89.09,82.84c5.15-.83,10.48-1.7,16.36-3.22,10.61-2.74,20.84-7.74,30.73-12.58,13.38-6.54,27.22-13.31,41.84-14.29,20.33-1.34,32.53,9.27,45.49,20.51,12.16,10.56,24.74,21.47,44.48,22.07.58.02,1.17.03,1.75.03,17.83,0,33.98-8.46,49.62-16.45,17.12-8.75,33.28-16.82,51.28-14.97,14.82,1.52,26.41,8.67,38.68,16.24,11.8,7.28,23.93,14.74,39.21,16.82-.94-1.22-1.89-2.44-2.85-3.65-13.17-2.56-24.09-9.28-34.71-15.84-12.03-7.42-24.47-15.1-40.01-16.69-18.92-1.94-36.26,6.72-53.03,15.3-15.79,8.07-32.14,16.61-49.84,16.08-18.62-.57-30.76-11.11-42.51-21.3-12.87-11.17-26.14-22.72-47.76-21.28-15.24,1.02-29.36,7.92-43.01,14.6-9.75,4.77-19.83,9.7-30.14,12.36-5.73,1.48-10.99,2.33-16.07,3.16-9.12,1.48-17.74,2.87-27.42,7.64-1.16.57-1.83.92-2.93,1.53-1.92,1.95-4.24,4.89-6.08,7.27,3.27-2.08,6.68-4.14,10.4-5.97,9.26-4.56,17.65-5.92,26.54-7.36"/><path class="cls-3" d="m91.57,74.37c4.89-.91,9.95-1.85,15.28-3.22,9.85-2.54,19.54-6.76,28.92-10.83,14.14-6.14,28.77-12.49,43.96-13.09,20.04-.79,33.34,9.43,47.36,20.24,13.01,10.04,26.47,20.42,45.76,21.17,18.24.72,34.21-7.73,49.66-15.89,15.77-8.33,30.68-16.2,47.68-15.07,14.53.97,26.69,7.5,39.56,14.41,9.16,4.92,18.53,9.93,28.92,12.87-1.36-1.56-2.73-3.1-4.12-4.62-8.19-2.91-15.82-6.99-23.31-11.02-12.6-6.77-25.63-13.77-40.84-14.78-17.94-1.2-33.9,7.26-49.36,15.43-15.08,7.97-30.74,16.21-48.07,15.53-18.29-.71-30.76-10.33-43.96-20.52-13.85-10.68-28.16-21.72-49.4-20.89-15.78.62-30.68,7.09-45.09,13.35-9.27,4.02-18.85,8.19-28.46,10.67-5.22,1.35-10.23,2.28-15.07,3.18-7.55,1.4-14.75,2.76-22.24,5.52-1.74,1.83-3.45,3.7-5.13,5.58.61-.29,1.21-.59,1.84-.87,8.84-3.94,17.23-5.5,26.11-7.14"/><path class="cls-3" d="m411.48,61.13c-13.35-6.19-27.16-12.58-42.28-13.06-16.91-.55-31.68,7.4-45.97,15.07-14.4,7.74-29.3,15.74-46.29,14.93-17.9-.85-31.15-9.89-45.17-19.47-14.69-10.03-29.82-20.41-50.61-20.12-16.4.22-32.17,6.24-47.41,12.07-8.49,3.24-17.27,6.6-25.95,8.84-4.81,1.24-9.62,2.22-14.26,3.17-4.54.93-8.95,1.83-13.33,2.94-1.64,1.52-3.27,3.07-4.87,4.63,6.17-1.91,12.37-3.18,18.83-4.5,4.68-.96,9.53-1.94,14.42-3.21,8.84-2.29,17.71-5.67,26.28-8.95,14.99-5.73,30.49-11.65,46.33-11.86.27,0,.53,0,.79,0,19.33,0,33.26,9.51,48,19.58,13.77,9.4,28.01,19.12,46.8,20.01,17.89.86,33.15-7.36,47.93-15.3,14.56-7.82,28.31-15.24,44.38-14.7,14.48.46,27.39,6.44,41.06,12.77,4.92,2.28,9.9,4.58,15,6.63-2.15-2.11-4.32-4.18-6.54-6.21-2.4-1.07-4.77-2.17-7.14-3.27"/><path class="cls-3" d="m325.52,57.37c-13.7,7.14-27.93,14.52-43.98,14.24-18.29-.32-32.78-9.57-48.13-19.37-15.62-9.97-31.77-20.28-52.28-20.37h-.28c-16.52,0-32.95,5.95-48.85,11.7-8.4,3.04-16.34,5.91-24.3,7.97-5.85,1.52-11.88,3.52-18.14,5.73-2.21,1.85-4.38,3.73-6.52,5.65.35-.13.71-.25,1.06-.38,8.58-3.07,16.67-5.96,24.39-7.96,8.1-2.1,16.48-5.13,24.58-8.06,15.64-5.66,31.82-11.51,47.79-11.51.09,0,.18,0,.27,0,19.6.08,35.36,10.14,50.61,19.87,15.04,9.6,30.59,19.53,49.76,19.86.32,0,.64,0,.95,0,16.51,0,30.76-7.42,44.53-14.6,14.89-7.76,28.95-15.09,45.73-13.95,12.56.85,24.12,5.13,36.24,9.79-2.64-2.18-5.33-4.29-8.06-6.36-9.01-3.22-18.29-5.91-27.97-6.57-17.66-1.21-32.77,6.68-47.39,14.3"/><path class="cls-3" d="m371.7,36.06c-16.64-.36-31.35,7.07-45.55,14.22-14.73,7.42-28.63,14.41-44.79,13.78-17.51-.7-32.31-9.32-47.98-18.44-15.84-9.22-32.21-18.75-51.7-19.45-24.09-.85-48.19,7.98-71.47,16.54-1.04.38-2.08.76-3.12,1.14-3.05,2.13-6.06,4.33-9.01,6.59,4.43-1.56,8.84-3.18,13.21-4.79,22.99-8.45,46.76-17.19,70.27-16.35,18.7.67,34.73,10,50.23,19.02,15.31,8.91,31.14,18.13,49.43,18.86,16.96.69,31.89-6.84,46.33-14.11,13.85-6.98,28.16-14.19,44.08-13.88,6.05.12,12.07,1.04,18.02,2.4-2.31-1.56-4.66-3.07-7.03-4.55-3.62-.56-7.26-.92-10.94-.99"/><path class="cls-3" d="m327.45,41.84c-17.06,8-33.18,15.55-52.3,11.98-14.62-2.73-27.67-9.14-40.3-15.35-16.01-7.86-32.56-15.99-52.74-17.06-17.38-.91-35.04,3.22-52.43,8.4-4.01,2.2-7.94,4.52-11.81,6.94,21.18-6.7,43-13.32,64.08-12.19,19.54,1.03,35.8,9.02,51.52,16.74,12.82,6.3,26.07,12.81,41.11,15.62,20.13,3.76,37.45-4.37,54.21-12.22,14.05-6.58,28.54-13.38,44.69-13.13-1.78-1.01-3.57-2-5.38-2.97-14.63,1.09-27.83,7.25-40.64,13.25"/><path class="cls-3" d="m180.08,17.87c18.48,1.43,35.86,8.48,52.67,15.3,14.57,5.91,29.64,12.02,45.33,14.42,18.54,2.84,35.02-4.44,50.96-11.47,10.26-4.53,20.8-9.16,31.98-11.18-1.54-.77-3.1-1.52-4.66-2.25-9.98,2.35-19.39,6.5-28.59,10.56-16.25,7.16-31.59,13.93-49.22,11.23-15.32-2.34-30.22-8.38-44.62-14.22-17.03-6.9-34.64-14.05-53.61-15.52-6.15-.48-12.3-.33-18.44.24-3.97,1.5-7.89,3.09-11.76,4.78,9.98-1.77,20-2.66,29.96-1.89"/><path class="cls-3" d="m327.29,24.14c-16.45,6.36-31.99,12.36-49.4,10.28-15.93-1.9-31.73-7.31-47.01-12.53-16.29-5.57-33.12-11.32-50.53-13.06-2.86.83-5.69,1.71-8.51,2.63,2.58.06,5.17.2,7.74.44,17.2,1.65,34.01,7.4,50.27,12.96,15.43,5.28,31.39,10.73,47.65,12.68,18.19,2.18,34.82-4.25,50.9-10.47,6.91-2.67,13.96-5.39,21.18-7.45-1.51-.65-3.02-1.29-4.54-1.92-6.04,1.91-11.95,4.19-17.77,6.44"/><path class="cls-3" d="m326.98,15.76c-15.68,5.08-31.87,10.35-48.58,9.67-17.31-.69-34.92-5.97-51.94-11.08-10.95-3.29-22.18-6.64-33.44-8.84-2.53.59-5.05,1.23-7.55,1.9,13.42,1.97,26.96,6.01,40.09,9.95,17.21,5.16,35.01,10.5,52.72,11.21,17.24.69,33.73-4.66,49.67-9.83,3.62-1.18,7.28-2.36,10.96-3.48-1.61-.61-3.22-1.21-4.84-1.79-2.38.75-4.74,1.52-7.09,2.28"/><path class="cls-3" d="m277.35,15.03c-18.67-.28-37.89-4.86-56.47-9.28-4.45-1.06-8.94-2.13-13.46-3.14-2.67.46-5.32.94-7.96,1.49,6.93,1.44,13.87,3.09,20.69,4.71,18.75,4.46,38.13,9.08,57.15,9.37,16.17.23,31.94-3.78,47.22-7.89-1.91-.6-3.83-1.17-5.76-1.72-13.51,3.55-27.37,6.68-41.42,6.47"/><path class="cls-3" d="m274.09,7.95c.54,0,1.09,0,1.63,0,9.64-.09,19.21-1.33,28.66-3.01-2.89-.64-5.79-1.23-8.72-1.77-6.63.95-13.29,1.58-19.97,1.65-15.97.13-32.18-2.05-48.2-4.8-3.7.33-7.38.74-11.03,1.23,19,3.49,38.46,6.72,57.63,6.72"/></g></g></g></g></svg>