<?xml version="1.0" encoding="UTF-8"?><svg id="Layer_2" xmlns="http://www.w3.org/2000/svg" width="500" height="498.98" xmlns:xlink="http://www.w3.org/1999/xlink" viewBox="0 0 500 498.98"><defs><style>.cls-1{fill:none;}.cls-2{clip-path:url(#clippath);}.cls-3{fill:#003d58;}.cls-4{clip-path:url(#clippath-1);}</style><clipPath id="clippath"><rect class="cls-1" y="0" width="500" height="498.98"/></clipPath><clipPath id="clippath-1"><rect class="cls-1" y="0" width="500" height="498.99"/></clipPath></defs><g id="Layer_1-2"><g id="Navy_Circle_4"><g class="cls-2"><g class="cls-4"><path class="cls-3" d="m211.71,496.07c12.48,1.92,25.27,2.92,38.29,2.92s25.63-.98,38.04-2.88c-23.75-.03-47.65-.04-72.55-.04h-3.78Z"/><path class="cls-3" d="m280.36,486.55c-26.36-.15-53.16-.23-79.64-.23-10.45,0-20.24,0-29.4.02,3.21,1.06,6.44,2.07,9.7,3,6.54,0,13.08-.02,19.59-.02,26.52,0,53.34.08,79.73.23,8.89.05,17.77.11,26.66.18h0c3.51,0,7.05-.01,10.61-.02,3.35-.94,6.67-1.96,9.96-3.03-6.59.01-13.44.02-20.57.04-8.88-.07-17.77-.13-26.66-.18"/><path class="cls-3" d="m253.67,476.18c-8.58-.11-17.56-.2-26.68-.26-8.48-.05-17.12-.08-25.67-.08-18.47,0-37.1.14-55.65.39,2.18,1,4.38,1.99,6.6,2.93,16.31-.2,32.68-.31,48.93-.31,8.61,0,17.28.03,25.77.08,9.05.06,18.01.15,26.63.26,28.95.9,58.34,1.02,83.27,1.02,2.78,0,5.54,0,8.31,0,2.37-.98,4.72-1.98,7.05-3.02-5.11,0-10.21.02-15.36.02-24.91,0-54.27-.12-83.21-1.02"/><path class="cls-3" d="m327.72,467.14c-3.29.06-6.76.09-10.32.09-13.29,0-26.54-.42-39.35-.83h-.08c-8.66-.28-16.48-.53-24.47-.69-9.82-.25-18.56-.43-26.71-.56-11.84-.19-23.51-.28-34.69-.28-23.19,0-45,.4-66.17,1.2,1.68.96,3.37,1.91,5.07,2.83,19.59-.68,39.75-1.02,61.1-1.02,11.18,0,22.84.1,34.64.29,8.18.13,16.91.31,26.69.56,7.95.16,15.77.4,24.44.68,12.87.41,26.17.84,39.54.84,3.58,0,7.06-.03,10.36-.09,7.01-.08,14.21-.11,22.03-.11,5.72,0,11.4.02,16.95.05,1.83-.97,3.65-1.96,5.46-2.97-7.39-.05-14.92-.09-22.49-.09s-15.02.04-22,.11"/><path class="cls-3" d="m240.62,454.38h-.12c-11.37-.58-23.12-1.17-34.71-1.58-4.3-.12-8.82-.18-13.41-.18-.76,0-1.53,0-2.29,0-4.93.03-10.03.12-15.6.29-16.42.48-32.8,1.61-48.65,2.71h-.07c-4.94.35-9.96.69-15.02,1.02,1.38.93,2.77,1.84,4.17,2.74,3.69-.25,7.36-.5,10.97-.75h.1c15.83-1.1,32.19-2.24,48.59-2.72,5.38-.16,10.46-.26,15.53-.29.85,0,1.7,0,2.54,0,4.45,0,8.84.06,13.05.18,11.59.42,23.36,1.01,34.77,1.59,21.09,1.07,42.9,2.17,64.74,2.17,31.32,0,56.68.09,79.17.27,1.52-.97,3.03-1.97,4.53-2.97-23.63-.21-50.33-.31-83.71-.31-21.75,0-43.51-1.1-64.58-2.17"/><path class="cls-3" d="m379.66,445.28c-6.61.1-13.21.15-20.19.15-12.5,0-26.03-.16-41.35-.49-8.98-.19-18.76-.45-30.79-.8-27.11-.86-51.61-1.61-76.95-2.1-4.86-.09-9.93-.18-15.44-.27-7.65-.32-15.57-.48-23.54-.48-27.65,0-54.22,1.92-76.23,3.98,1.16.91,2.33,1.81,3.5,2.7,21.17-1.93,46.41-3.67,72.74-3.67,7.93,0,15.81.16,23.45.47,5.55.09,10.61.17,15.46.27,25.29.49,49.8,1.24,76.92,2.09,11.99.35,21.79.61,30.81.8,15.29.33,28.8.49,41.32.49,7.05,0,13.7-.05,20.34-.15,2.09-.02,4.24-.04,6.4-.04,4.66,0,9.5.06,14.65.18,1.27-.96,2.54-1.93,3.79-2.91-6.63-.18-12.69-.27-18.41-.27-2.19,0-4.37.01-6.47.04"/><path class="cls-3" d="m340.46,433.4c-6.45.21-13.29.31-20.31.31-24.95,0-49.85-1.29-73.93-2.53l-1.12-.06c-7.15-.37-15.25-.79-23.21-1.16-5.59-.25-11.36-.55-16.28-.82h-.11c-14.2-.75-28.89-1.52-43.72-1.52-11.57,0-22,.47-31.88,1.43-11.98,1.19-23.66,3.06-34.96,4.86h-.09c-3.65.6-7.37,1.19-11.11,1.76.97.87,1.95,1.74,2.93,2.59,2.92-.45,5.83-.91,8.7-1.37h.09c11.21-1.8,22.8-3.65,34.74-4.84,9.77-.95,20.1-1.41,31.57-1.41,14.79,0,29.46.77,43.68,1.52l1.06.05c4.73.25,10.1.53,15.24.76,7.99.37,16.12.79,23.29,1.16l1.03.05c24.14,1.25,49.1,2.53,74.05,2.53,7.06,0,13.93-.11,20.38-.31,9.88.04,19.94.15,29.89.34,14.43.27,28.71.7,43.22,1.28,1.1-.95,2.17-1.92,3.25-2.89-15.62-.65-30.93-1.11-46.41-1.4-9.98-.18-20.07-.3-29.99-.34"/><path class="cls-3" d="m373.09,422.03c-6.52,0-12.77-.02-19.13-.06-31.13-.4-62.6-1.61-93.02-2.78l-5.78-.22c-5.6-.21-11.2-.43-16.81-.63l-1.84-.07c-5.55-.2-11.49-.42-17.42-.67-8.23-.46-16.6-1.14-24.7-1.8h-.11c-14.54-1.2-29.57-2.42-44.65-2.42-12.94,0-24.44.91-35.16,2.78-8.82,1.56-17.6,3.46-26.1,5.29l-.19.04c-5.21,1.12-10.53,2.26-15.9,3.34.85.86,1.71,1.71,2.58,2.56,4.8-.98,9.53-1.99,14.19-3,8.42-1.82,17.13-3.7,25.96-5.27,10.54-1.84,21.86-2.73,34.62-2.73,14.96,0,29.94,1.22,44.43,2.4h.12c8.1.67,16.47,1.35,24.76,1.82,5.21.22,10.52.41,15.68.61l3.62.13c7.53.28,15.06.56,22.58.85,30.44,1.17,61.93,2.38,93.11,2.78,6.45.04,12.72.06,19.16.06,3.98,0,8.05,0,12.24-.02,13.8,0,27.54.82,40.34,1.84.94-.92,1.86-1.86,2.78-2.8-13.69-1.13-28.45-2.06-43.13-2.06-4.19.02-8.25.02-12.23.02"/><path class="cls-3" d="m391.62,410.31c-6.71-.24-13.38-.36-19.82-.36-1.67,0-3.32,0-4.95.02-6.66-.03-13.55-.13-21.07-.32-6.77-.16-13.63-.39-20.97-.67-8.06-.38-16.09-.76-24.12-1.15-19.48-.94-39.63-1.91-59.87-2.75-5.54-.2-10.81-.3-15.33-.38-.89.03-1.83.04-2.79.04-3.57,0-7.22-.19-10.43-.37-8.94-.52-18.1-1.39-26.96-2.23l-.21-.02c-14.37-1.37-29.24-2.78-43.95-2.78s-26.73,1.35-38.04,4.13c-8.01,1.9-15.91,4.21-23.56,6.45l-.22.06c-5.4,1.58-10.94,3.18-16.56,4.67.75.84,1.49,1.69,2.24,2.52,5.2-1.4,10.31-2.88,15.3-4.34,7.62-2.23,15.5-4.54,23.52-6.44,11.07-2.72,23.28-4.04,37.33-4.04s29.35,1.4,43.68,2.76l.23.02c8.87.84,18.03,1.71,27.06,2.24,3.26.17,6.96.37,10.57.37.98,0,1.93-.02,2.81-.04,4.47.08,9.71.19,15.2.38,20.09.84,40.17,1.8,59.59,2.74h.25c8.03.4,16.07.79,24.14,1.17,7.68.3,14.55.52,21.02.68,7.54.18,14.46.29,21.15.32,1.63-.02,3.28-.02,4.94-.02,6.41,0,13.04.12,19.7.36,7.81.28,15.9.72,24.71,1.35,6.52.46,13.05,1.07,19.47,1.72.83-.92,1.65-1.85,2.47-2.78-6.95-.72-14.3-1.41-21.72-1.94-8.92-.63-17.04-1.08-24.82-1.35"/><path class="cls-3" d="m382.68,398.89c-1.3-.11-2.7-.16-4.4-.16-.99,0-1.98.02-2.99.04h-.1c-1,.02-2.02.04-3.03.04s-1.98-.02-2.82-.06c-46.39-3.7-85.36-6.18-124.78-6.23h-1.38c-2.59,0-5.19,0-7.78.02h-.89c-2.65.02-5.36.03-8.07.03-.87,0-1.74,0-2.63,0-.7,0-1.4.01-2.11.01-14.7,0-29.06-1.72-42.96-3.38h-.08c-10.5-1.26-21.35-2.56-32.43-3.15-2.23-.12-4.51-.18-6.76-.18-24.16,0-45.57,6.74-66.3,13.26l-.09.03c-6.09,1.92-12.36,3.88-18.61,5.64.68.85,1.36,1.71,2.06,2.55,5.92-1.7,11.82-3.55,17.58-5.36,20.48-6.45,41.66-13.11,65.34-13.11,2.21,0,4.44.06,6.62.18,11,.58,21.82,1.87,32.31,3.12,14,1.67,28.47,3.4,43.33,3.4.71,0,1.42,0,2.11-.01.87,0,1.74,0,2.62,0,2.76,0,5.52-.01,8.21-.02h.29c2.75-.01,5.5-.02,8.24-.02h1.38c39.28.05,78.21,2.52,124.58,6.22.91.05,1.91.07,3.05.07,1.03,0,2.06-.02,3.06-.04h.11c.97-.02,1.95-.04,2.94-.04,1.61,0,2.93.05,4.15.15h.1c8.85.09,17.9.45,26.89,1.07,11.66.81,23.17,2.05,34.77,3.45.75-.92,1.5-1.84,2.23-2.77-12.47-1.53-24.38-2.83-36.78-3.69-9.1-.63-18.19-.99-26.98-1.07"/><path class="cls-3" d="m411.4,389.39c-26.28-1.13-51.51-3.52-78.22-6.05l-.51-.05c-12.98-1.23-26.4-2.5-39.83-3.6-9.99-.74-20.11-1.11-30.96-1.11-8.02,0-16.51.21-25.24.62-.97.04-1.95.09-2.93.14l-.58.03c-4.88.23-9.92.47-14.93.54-1.23,0-2.46,0-3.69,0-3.62,0-8.38-.03-13.09-.22-7.32-.48-14.64-1.14-21.76-1.79-13.31-1.21-27.07-2.46-40.85-2.46-.78,0-1.55,0-2.32.01-27.46.19-51.35,8.06-74.47,15.68-5.13,1.69-9.76,3.21-14.38,4.66.62.86,1.24,1.72,1.87,2.56,4.35-1.37,8.71-2.8,12.94-4.19l.53-.17c22.88-7.54,46.55-15.33,73.54-15.52.79,0,1.57-.01,2.36-.01,13.58,0,27.26,1.24,40.51,2.44,6.34.58,14.24,1.3,21.87,1.79,4.72.2,9.44.23,13.44.23,1.17,0,2.34,0,3.53,0,5.18-.07,10.34-.32,15.37-.56,1.02-.05,2.03-.09,3.05-.14h.15c8.69-.41,17.13-.62,25.08-.62,10.77,0,20.82.36,30.74,1.1,13.75,1.13,27.75,2.45,40.12,3.63,26.82,2.54,52.15,4.94,78.49,6.07,8.43.67,17.56,1.63,28.74,3.01,3.87.48,7.85,1,11.62,1.49.68-.92,1.36-1.84,2.02-2.77-4.31-.57-8.81-1.15-13.26-1.71-11.19-1.39-20.38-2.35-28.93-3.03"/><path class="cls-3" d="m422.19,380.16c-.88-.12-1.78-.26-2.68-.39-4.11-.61-8.37-1.24-12.38-1.24-25.19-.97-48.41-4.24-73.02-7.71-10.79-1.52-21.95-3.1-33.56-4.5-10.51-1.26-21.04-1.87-32.2-1.87-10.57,0-21.61.55-33.75,1.68-1.71.16-3.41.32-5.12.48l-.17.02c-5.24.5-10.66,1.02-15.99,1.34-5.08.24-10.49.36-16.54.36-8.8,0-17.62-.25-26.16-.49h-.17c-8.51-.25-17.31-.5-26.04-.5-19.69,0-34.65,1.29-48.49,4.18-11.54,2.44-22.52,5.81-33.15,9.07-6.98,2.14-14.14,4.33-21.37,6.24.58.88,1.16,1.76,1.76,2.63,7-1.86,13.84-3.94,20.51-5.99l.13-.04c10.54-3.23,21.43-6.57,32.75-8.96,13.62-2.85,28.38-4.11,47.86-4.11,8.72,0,17.52.25,26.03.49h.25c8.52.25,17.33.5,26.13.5,6.1,0,11.56-.12,16.68-.37,5.48-.33,10.97-.86,16.29-1.37l1.6-.15c1.17-.11,2.34-.22,3.51-.33,12.05-1.12,22.99-1.66,33.46-1.66,11.04,0,21.45.6,31.83,1.85,11.52,1.39,22.67,2.96,33.5,4.49,24.67,3.48,47.97,6.76,73.38,7.74,3.81,0,7.93.61,11.91,1.2l.06-.38.02.39c.91.14,1.81.27,2.75.4,7.12.76,14.54,1.67,23.36,2.87,4.2.57,8.36,1.17,12.78,1.8.62-.92,1.22-1.85,1.83-2.78-4.79-.69-9.52-1.36-14.19-2-8.81-1.2-16.25-2.12-23.39-2.87"/><path class="cls-3" d="m442.18,372.86c-3.69-.44-7.49-.91-11.05-1.36-9.65-1.21-19.62-2.45-30.01-3.32-7.85-.44-14.93-1.48-22.42-2.57l-1.59-.23c-10.15-1.56-20.04-3.34-29.61-5.07l-.3-.05c-18.38-3.32-35.75-6.45-55.15-8.29-6.18-.56-12.33-.84-18.81-.84-11.55,0-23.96.9-37.94,2.74-6.38.84-12.56,1.8-18.27,2.71-6.88.95-12.99,1.53-18.18,1.73-10.4.42-21.25.53-30.84.63-24.27.26-49.37.53-73.67,5.04-11.55,2.22-22.7,5.28-33.48,8.24-8.42,2.31-16.49,4.53-24.69,6.38.55.9,1.12,1.79,1.68,2.69,8.15-1.86,16.09-4.04,23.83-6.16,10.71-2.94,21.79-5.98,33.24-8.19,24.03-4.46,49.01-4.72,73.16-4.98,9.58-.1,20.45-.21,30.91-.64,5.29-.21,11.52-.8,18.52-1.76,5.39-.86,11.77-1.85,18.22-2.7,13.83-1.82,26.1-2.71,37.52-2.71,6.39,0,12.46.27,18.55.83,19.18,1.81,36.48,4.93,54.8,8.23l.44.08c9.58,1.73,19.49,3.51,29.64,5.08l1.6.24c7.57,1.11,14.71,2.15,22.65,2.59,10.31.86,20.24,2.1,29.84,3.31l.29.04c3.53.44,7.18.89,10.77,1.32,7.08.93,14.35,1.99,21.38,3.02l.45.07c.57-.93,1.11-1.87,1.67-2.8l-1.44-.21c-7.11-1.04-14.46-2.11-21.68-3.06"/><path class="cls-3" d="m452.2,365.1c-44-4.38-86.3-11.52-129.33-21.8-13.14-3.13-26.8-4.65-41.76-4.65-21.02,0-41.02,3.13-56.09,5.86-3.1.56-6.24,1.15-9.28,1.71l-.44.08c-3.1.58-6.29,1.17-9.38,1.73-1.26.18-2.55.39-3.76.59-3.14.51-6.39,1.05-9.75,1.21-46.82,1.46-101.65,4.87-153.37,19.09-2.41.67-4.89,1.27-7.44,1.81.51.91,1.01,1.83,1.54,2.74,2.29-.5,4.54-1.05,6.72-1.65,51.42-14.14,106.03-17.53,152.67-18.99,3.59-.18,6.94-.72,10.18-1.26l.56-.09c1.02-.17,2.07-.34,3.14-.5,3.54-.64,7.15-1.31,9.89-1.82l1.25-.23c2.64-.49,5.34-1,8-1.48,14.95-2.7,34.78-5.81,55.55-5.81,14.72,0,28.15,1.49,41.05,4.56,43.16,10.32,85.58,17.47,129.69,21.86,5,.65,10.22,1.36,14.84,1.98l1.94.26c.52-.94,1.05-1.88,1.56-2.83l-3.33-.45c-4.27-.58-9.58-1.29-14.66-1.95"/><path class="cls-3" d="m461.24,357.53c-3.99-.49-7.97-.97-11.9-1.45-7.65-1.27-15.66-2.09-22.74-2.8h-.11c-8.57-.89-17.43-1.8-25.98-3.42-13.63-2.65-26.56-6.17-39.1-9.58l-.15-.04c-13.15-3.58-26.75-7.28-41.04-9.91-5.98-1.1-11.63-1.95-17.27-2.58-6.87-.83-14.12-1.25-21.55-1.25-18.23,0-38.04,2.43-60.55,7.43-5.7,1.24-11.41,2.58-16.94,3.88l-2.44.57c-11.29,2.73-22.36,4.45-32.88,5.11-51.93,3.08-98.86,11.13-137.91,18.59-1.11.22-2.26.41-3.43.6.48.94.99,1.88,1.48,2.81.86-.15,1.7-.3,2.53-.46,38.96-7.45,85.77-15.48,137.51-18.55,10.7-.67,21.94-2.41,33.41-5.18l2.94-.69c5.35-1.26,10.89-2.55,16.39-3.75,22.29-4.95,41.88-7.36,59.89-7.36,7.3,0,14.43.41,21.2,1.23,5.63.64,11.21,1.47,17.07,2.55,14.25,2.63,27.81,6.32,40.94,9.89l.24.06c12.49,3.4,25.4,6.91,39.08,9.57,8.74,1.66,17.69,2.57,26.37,3.46,7.4.75,15.05,1.54,22.6,2.79,3.57.43,7.14.87,10.7,1.3l10.81,1.32c.84.1,1.73.21,2.64.32.48-.95.95-1.91,1.42-2.86-1.23-.15-2.48-.3-3.68-.45l-9.56-1.17Z"/><path class="cls-3" d="m469.17,349.94c-5.36-.58-10.9-1.18-16.38-1.75-40.84-4.85-77.76-12.74-112.9-24.13-6.27-2.04-12.86-3.7-19.57-4.94-10.52-2.06-21.89-3.11-33.8-3.11-19.64,0-41.02,2.71-65.34,8.3-6.87,1.5-14.27,3.22-23.32,5.41-7.13,2.01-14.47,3.46-24.54,4.87-31.21,4.44-59.91,8.1-90.3,11.97l-.72.09c-17.55,2.23-37.43,4.76-57.58,7.45-.5.08-1.01.14-1.53.21.44.95.88,1.91,1.33,2.86.21-.03.43-.06.63-.09,19.94-2.66,39.93-5.2,57.6-7.45,30.49-3.88,59.29-7.54,90.99-12.06,10.23-1.42,17.67-2.9,24.89-4.93,8.99-2.17,16.36-3.89,23.22-5.39,24.11-5.53,45.27-8.22,64.67-8.22,11.71,0,22.89,1.03,33.23,3.06,6.57,1.22,13.03,2.85,19.2,4.85,35.33,11.46,72.46,19.4,113.5,24.27,5.18.54,10.34,1.09,16.55,1.77l2.78.3c1.75.19,3.5.37,5.25.56.44-.96.89-1.92,1.32-2.89-2.34-.25-4.68-.5-7.02-.75l-2.16-.23Z"/><path class="cls-3" d="m471.57,341.81c-3.92-.37-7.83-.73-11.68-1.07-4.73-.66-9.58-1.27-14.26-1.86l-.59-.07c-15.71-1.98-31.95-4.04-47.24-7.96-8.62-2.3-17.01-4.92-25.12-7.46l-.13-.04c-9.5-2.97-19.32-6.04-29.41-8.56-5.06-1.26-9.76-2.29-14.38-3.15-13.78-2.98-28.53-4.5-43.84-4.5-26.5,0-55.1,4.33-87.43,13.22-7.19,1.77-14.9,3.53-22.89,5.22-47.79,10.09-100.06,16.67-155.44,19.6.41.99.83,1.97,1.26,2.95,55.12-2.97,107.18-9.55,154.82-19.6,7.97-1.69,15.72-3.45,23.03-5.25,32.09-8.83,60.43-13.12,86.65-13.12,15.1,0,29.64,1.49,43.23,4.43,4.61.86,9.27,1.88,14.24,3.12,9.98,2.5,19.74,5.55,29.19,8.5l.07.02c8.17,2.55,16.61,5.2,25.36,7.53,15.48,3.98,31.82,6.04,47.63,8.04l.21.03c4.78.6,9.71,1.23,14.68,1.92,3.92.35,7.83.71,11.75,1.08h.07c2.93.28,6.07.57,9.27.86.41-.97.8-1.94,1.19-2.91-2.99-.27-5.92-.54-8.66-.8l-1.59-.15Z"/><path class="cls-3" d="m384.14,318.4c-5.96-1.71-11.5-3.65-16.61-5.49-1.17-.42-2.33-.84-3.49-1.26l-1.43-.52c-3.73-1.36-7.58-2.76-11.42-4.05-17.74-6.81-37.09-10.12-59.15-10.12-9.28,0-19.18.61-29.42,1.81-29.94,3.51-59.97,11.64-86.47,18.82l-2.41.65c-6.59,1.46-13.4,2.87-20.25,4.18-44.38,8.51-90.71,13.19-137.81,13.94.37,1,.75,2,1.14,2.99,46.89-.81,93.03-5.51,137.26-13.98,6.81-1.31,13.67-2.72,20.4-4.22l2.48-.67c35.43-9.59,75.59-20.46,115.21-20.46,21.7,0,40.67,3.23,57.99,9.88,3.87,1.31,7.78,2.73,11.79,4.19,1.52.55,3.03,1.1,4.55,1.65,5.17,1.86,10.78,3.82,16.8,5.55,23.31,6.6,49.88,11.43,81.23,14.77,5.88.44,12.55.94,19.37,1.39.37-.98.75-1.96,1.11-2.95-6.87-.46-13.73-.96-20.2-1.45-31.13-3.32-57.52-8.12-80.67-14.67"/><path class="cls-3" d="m370.39,302.61c-6.28-1.94-12.81-3.64-19.44-5.05-23.45-4.8-48.59-9.25-73.56-9.25-13.34,0-25.42,1.22-36.94,3.73-14.5,3.11-28.35,6.9-41.73,10.57l-.52.14c-8.97,2.45-18.25,4.99-27.6,7.29-5.81,1.55-11.84,3.02-17.92,4.38-37.83,8.43-78.51,12.7-120.89,12.7-3.98,0-8.04-.04-12.07-.11-2.6,0-5.04,0-7.32,0,.33,1.01.66,2.01,1,3.01,1.99,0,4.07,0,6.29,0,4.08.08,8.15.11,12.08.11,42.62,0,83.52-4.3,121.57-12.77,6.09-1.36,12.15-2.84,18.01-4.39,9.52-2.34,18.92-4.91,28-7.4l.17-.05c13.36-3.66,27.17-7.45,41.57-10.53,11.3-2.47,23.17-3.66,36.29-3.66,24.71,0,49.66,4.42,72.93,9.19,6.48,1.38,12.93,3.06,19.16,4.98,6.41,1.98,12.76,4.27,18.87,6.81,28.83,12.11,63.04,14.9,98.62,16.61.33-.98.64-1.98.96-2.97-35.58-1.68-69.8-4.39-98.4-16.41-6.22-2.59-12.66-4.91-19.15-6.91"/><path class="cls-3" d="m481.77,316.79c-39.39,0-74.69-10.1-108.84-19.87l-.73-.21c-6.73-1.92-13.69-3.91-20.65-5.81-26.75-8.08-51.78-12.17-74.41-12.17-14.63,0-28.48,1.72-41.17,5.11-10.49,2.71-20.75,5.8-30.67,8.8l-.23.07c-13.24,4-26.92,8.13-41.28,11.38-6.58,1.5-13.25,2.91-19.82,4.19-31.71,6.06-65.27,9.26-97.06,9.26-.53,0-1.07,0-1.61,0-8.79.04-17.57.06-25.74.08-3.67,0-6.99,0-10.03,0,.29,1.01.6,2.01.9,3.01,2.79,0,5.83,0,9.14,0,8.17-.02,16.95-.04,25.73-.08.5,0,1,0,1.49,0,32.06,0,65.86-3.22,97.77-9.32,6.65-1.3,13.35-2.72,19.91-4.21,14.41-3.26,28.19-7.42,41.51-11.44l.05-.02c9.94-3,20.22-6.1,30.72-8.82,12.44-3.32,26.02-5,40.39-5,22.33,0,47.08,4.05,73.57,12.05,7.17,1.95,14.23,3.97,21.05,5.93l.38.11c34.34,9.82,69.84,19.98,109.61,19.98h.64c2.5.08,4.95.16,7.39.23.29-.99.6-1.98.88-2.98-2.67-.08-5.4-.16-8.23-.26-.22,0-.44,0-.65,0"/><path class="cls-3" d="m462.18,306.25h-.11c-15.32-.82-31.16-1.65-45.78-5.03-11.59-2.74-22.73-6.21-33.51-9.56l-.45-.14c-4.82-1.5-9.79-3.05-14.73-4.5-5.23-1.55-10.74-3.1-16.35-4.58-20.93-6.09-45.9-12.31-72.4-12.31-8.9,0-17.6.73-25.85,2.16-5.94,1.03-12.05,2.36-18.7,4.07-5.98,1.69-12.02,3.46-17.86,5.18l-.97.29c-25.34,7.46-51.54,15.17-78.32,17.7-5.42.8-10.96,1.68-16.48,2.61-20.75,4.36-42.5,5.5-59.13,6-2.24.05-4.49.07-6.68.07-2.67,0-5.33-.04-7.89-.11-10.39.03-19.4.07-27.55.13H7.05c.24,1,.48,2.01.73,3.01h11.64c8.16-.05,17.16-.09,27.5-.12,2.62.07,5.3.11,7.98.11,2.21,0,4.47-.02,6.72-.07,16.75-.51,38.66-1.65,59.62-6.06,5.51-.92,10.99-1.79,16.27-2.58,26.96-2.54,53.29-10.29,78.74-17.78l.08-.02c6.67-1.97,12.69-3.74,18.76-5.45,6.53-1.68,12.55-2.99,18.42-4,8.08-1.4,16.6-2.12,25.33-2.12,26.12,0,50.84,6.17,71.57,12.2,5.65,1.5,11.14,3.03,16.3,4.57,5.12,1.51,10.21,3.09,15.13,4.62l.11.03c10.82,3.36,22,6.84,33.62,9.58,14.88,3.44,30.86,4.29,46.32,5.11,6.49.34,13.84.72,20.91,1.34,3.12.08,6.28.15,9.5.22.25-.99.49-2,.73-3-3.47-.07-6.81-.15-10.06-.23-6.86-.6-13.95-.97-20.8-1.34"/><path class="cls-3" d="m388.49,284.99l-.93-.24c-6.48-1.7-12.33-3.23-18.36-4.72-6.39-1.55-13.16-3.32-18.61-4.75l-.07-.02c-23.75-6.22-48.32-12.66-75.29-12.66-4.3,0-8.62.17-12.85.5-5.75.45-11.47,1.15-17.5,2.13-16.3,2.57-32.14,7.23-47.45,11.75l-.09.03c-13.95,4.11-28.39,8.37-43.43,11.15-2.86.52-5.8,1.09-8.39,1.59l-.37.07c-9.75,1.87-18.95,3.64-28.5,4.37-5.6.72-10.82,1.32-15.95,1.82-9.98.94-18.82,1.62-27.04,2.07-8.57.47-16.51.7-24.26.7-1.05,0-2.1,0-3.15-.01-10.54,0-19.1.03-26.96.07H4.94c.2,1.01.43,2.01.64,3.01h13.71c7.85-.04,16.41-.06,26.94-.07,1.05,0,2.11.01,3.17.01,7.81,0,15.8-.23,24.42-.7,8.18-.45,17.06-1.13,27.17-2.08,5.21-.51,10.44-1.11,15.97-1.82,9.69-.74,18.99-2.54,28.84-4.43,2.75-.53,5.69-1.1,8.68-1.64,15.24-2.82,29.74-7.1,43.76-11.23l.09-.03c15.21-4.48,30.94-9.11,47.04-11.65,5.95-.97,11.6-1.66,17.25-2.1,4.13-.32,8.36-.49,12.59-.49,26.6,0,50.97,6.38,74.54,12.56,5.76,1.51,12.3,3.23,18.71,4.78,6,1.49,12.09,3.08,18.31,4.71l1.76.46c5.13,1.35,10.95,2.87,16.53,4.27,30.96,7.96,64.87,9.37,89.32,9.52.22-1,.44-2,.64-3.01-24.3-.13-58.27-1.48-89.21-9.43-5.59-1.4-11.16-2.86-17.34-4.48"/><path class="cls-3" d="m462.22,288.1h-.2c-18.29-.74-37.21-1.5-54.55-6.14-6.04-1.63-12.89-3.49-19.63-5.23-7.33-1.9-13.83-3.49-19.87-4.87-3.77-.92-7.65-1.89-11.41-2.83-24.55-6.13-49.93-12.46-76.11-13.72-3.06-.15-6.14-.22-9.16-.22-4.67,0-9.27.18-13.64.52h-.14c-3.68,0-7.66.75-11.41,1.57-15.53,3.29-30.78,7.16-45.56,10.9l-.13.03c-33.5,8.48-65.13,16.49-99.3,18.21-9.33.95-17.07,1.62-24.35,2.11-8.86.6-16.9.91-24.56.96-9.55.03-18.32.03-25.86.03H3.24c.16,1,.32,2.01.5,3.01h18.8c8.22,0,18.45,0,29.67-.03,7.76-.05,15.86-.36,24.75-.97,7.23-.49,14.98-1.16,24.38-2.11,34.43-1.74,66.23-9.79,99.9-18.32l.26-.07c14.66-3.71,29.82-7.55,45.25-10.82,3.59-.78,7.38-1.5,10.7-1.5h.34c4.37-.35,8.91-.52,13.49-.52,2.97,0,6.01.07,9.03.22,25.9,1.24,51.13,7.54,75.56,13.64,3.75.94,7.62,1.9,11.41,2.83,5.98,1.36,12.46,2.95,19.8,4.85,6.62,1.72,13.05,3.45,19.6,5.23,17.66,4.74,36.73,5.5,55.17,6.24h.29c7.28.3,14.8.6,22.06,1.15h.07s.06,0,.06,0c4.17.04,8.22.08,11.95.1.18-1,.34-2,.5-3.01-3.46-.02-7.59-.06-12.34-.1-7.37-.56-14.91-.86-22.21-1.15"/><path class="cls-3" d="m412.17,273.7c-6.71-1.2-13.48-2.47-20.02-3.7l-2.75-.51c-7.27-1.37-15.01-2.82-22.56-4.14-6.25-1.32-12.65-2.75-18.83-4.13l-.51-.11c-16.35-3.67-33.26-7.46-50.33-9.82-8.54-1.18-16.38-1.91-23.98-2.23-4.56-.18-9.28-.36-14.17-.36-10.8,0-19.53.95-27.47,3-48.98,12.3-99.63,25.02-152.2,27.39-9.67.61-18.51.9-27.04.9h-.29c-12.51.04-23.71.04-32.7.04H1.89c.12,1.01.26,2.01.4,3.01h17.03c8.99,0,20.19,0,32.7-.04h.29c8.6,0,17.5-.3,27.2-.91,52.85-2.38,103.66-15.14,152.79-27.48,7.69-1.98,16.19-2.91,26.73-2.91,4.84,0,9.52.18,14.07.36,7.47.31,15.2,1.03,23.64,2.2,16.94,2.35,33.79,6.12,50.09,9.77,6.01,1.35,12.82,2.88,19.42,4.26,7.41,1.3,14.91,2.7,22.57,4.14l1.85.35,1.35.25c6.41,1.2,13.03,2.44,19.6,3.62,32.55,5.79,64.66,6.48,86.06,6.49.14-1,.28-2.01.4-3.01h-.07c-21.32,0-53.42-.67-85.86-6.44"/><path class="cls-3" d="m372.95,259.31l-4.05-.87c-24.55-5.26-49.93-10.7-75.76-13.33-7.07-.72-13.97-1.2-20.5-1.42l-1.28-.05c-6.12-.25-12.44-.52-18.79-.52-11.24,0-20.47.85-29.03,2.68-5.23,1.13-10.41,2.26-15.58,3.38-43.46,9.47-84.51,18.41-127.95,20.55-9.02.59-17.42.88-25.67.88-.76,0-1.53,0-2.3,0-9.52.03-18.38.03-25.51.03H.91c.09,1,.17,2.01.27,3.01h25.36c7.13,0,16,0,25.5-.03.77,0,1.54,0,2.31,0,8.32,0,16.77-.29,25.85-.88,43.66-2.15,84.84-11.13,128.44-20.63l.11-.03c5.12-1.11,10.27-2.23,15.44-3.35,8.35-1.78,17.37-2.61,28.41-2.61,6.3,0,12.57.26,18.65.52l1.28.05c6.52.23,13.35.7,20.31,1.41,25.62,2.6,50.92,8.02,75.43,13.27l4.13.88c6.66,1.04,13.37,2.04,19.93,2.96,39.94,5.6,73.9,8.31,106.5,8.5.1-1,.18-2.01.27-3.01-32.54-.18-66.44-2.88-106.34-8.47-6.38-.89-13.05-1.88-19.79-2.93"/><path class="cls-3" d="m357.14,249.91c-7.48-1.22-15.23-2.63-21.47-3.76l-.13-.02c-12.76-2.31-25.95-4.7-39.31-6.33-7.44-.91-14.36-1.51-21.15-1.86-9.08-.43-16.54-.62-23.48-.62-20.18,0-37.03,1.7-53.03,5.35-41.74,9.18-91.54,18.56-144.42,18.56-.69,0-1.38,0-2.08,0-6.27,0-12.17.01-17.64.02H.27c.05,1.01.12,2.01.18,3.01h33.99s13.46-.01,17.64-.02c.73,0,1.45,0,2.18,0,53.11,0,103.1-9.42,144.99-18.64,15.76-3.6,32.4-5.28,52.34-5.28,6.89,0,14.31.2,23.35.62,6.73.34,13.57.94,20.93,1.83,13.39,1.63,26.54,4.02,39.3,6.34,7.02,1.27,14.27,2.59,21.52,3.77,7.46,1.04,15.15,1.91,22.39,2.7,38.9,4.3,79.11,8.74,120.48,8.8.06-1,.13-2,.18-3.01-41.23-.04-81.44-4.48-120.34-8.78-7.53-.83-14.9-1.66-22.25-2.68"/><path class="cls-3" d="m391.51,245.88l-5.35-.47c-4.39-.39-8.79-.78-13.2-1.16-11.04-.94-21.02-1.85-31.27-3.46-16.35-2.74-28.93-4.54-40.8-5.83-7.21-.79-13.91-1.36-20.47-1.74-13.35-1.18-25.87-1.75-38.26-1.75-27.94,0-54.45,3.02-81.05,9.24-33.05,7.53-66.86,11.2-103.36,11.2-2.9,0-5.84-.02-8.77-.07-5.12,0-9.98,0-14.54,0H0c.01,1,.01,2.01.04,3.01h34.41c4.57,0,9.42,0,14.51,0,2.96.05,5.93.07,8.81.07,36.73,0,70.76-3.69,104.03-11.28,26.37-6.16,52.65-9.16,80.36-9.16,12.14,0,24.93.59,38.03,1.74,6.52.38,13.18.95,20.36,1.73,11.9,1.3,24.43,3.09,40.64,5.81,10.3,1.62,20.36,2.54,31.5,3.49,4.11.36,8.21.72,12.31,1.08l6.24.55c32.77,2.89,62.39,5.33,93.06,5.84,5.37.03,10.6.06,15.66.09.02-1,.03-2.01.04-3.01-5.07-.02-10.3-.05-15.67-.09-30.61-.51-60.14-2.95-92.82-5.83"/><path class="cls-3" d="m470.33,242.16c-17.55-.23-35.69-.47-53.85-2.33-8.03-.81-16.3-1.54-24.58-2.18-7.87-.61-16.08-1.15-24.39-1.62-19.02-1.01-37.27-2.92-57.45-5.13l-3.69-.4c-5.18-.57-10.54-1.15-15.98-1.73-8.33-.57-16.78-1.44-25-2.28l-.25-.03c-14.57-1.49-29.64-3.04-44.85-3.04-9.84,0-18.76.64-27.27,1.95-11.77,1.78-23.47,3.79-34.78,5.73h-.06c-34.31,5.89-66.72,11.43-100.63,11.43-2.86,0-5.74-.04-8.55-.12-5.13.02-9.98.02-14.55.02H.05c-.03,1-.03,2.01-.04,3.01h34.45c4.57,0,9.43,0,14.51-.02,2.81.08,5.69.12,8.57.12,34.2,0,66.74-5.58,101.2-11.48l.59-.1c11.14-1.9,22.65-3.87,34.17-5.62,8.35-1.29,17.11-1.92,26.79-1.92,15.03,0,30.01,1.53,44.49,3.01h.1c8.26.86,16.79,1.74,25.26,2.32,5.38.57,10.73,1.16,15.91,1.73l3.69.4c20.2,2.21,38.47,4.12,57.61,5.14,8.2.45,16.38,1,24.32,1.61,8.21.63,16.45,1.36,24.5,2.17,18.32,1.88,36.52,2.12,54.12,2.35,4.72.06,9.34.12,13.91.21,6.16.02,11.46.04,15.79.05-.01-1-.01-2.01-.04-3.01-4.31-.01-9.59-.03-15.71-.05-4.56-.09-9.18-.15-13.91-.21"/><path class="cls-3" d="m483.51,233.02c-24.03-.25-46.73-.49-70.33-1.65-6.4-.31-13.22-.67-22.1-1.18-4.09-.24-8.17-.48-12.25-.72l-9.83-.58c-8.06-.38-15.19-.88-21.79-1.52-6.24-.53-12.54-1.1-18.66-1.67l-.67-.06c-9.91-.91-20.16-1.85-30.21-2.56-5.33-.38-10.85-.72-16.42-1.01-10.79-.67-21.65-1.97-32.16-3.24-15.14-1.82-30.8-3.7-46.74-3.7-9.52,0-18.24.66-26.64,2.03-9.2,1.51-18.34,3.14-27.18,4.72l-1.24.22c-31.97,5.73-62.17,11.14-93.85,11.14-3.49,0-6.99-.07-10.43-.2h-21.64s-20.88.01-20.88.01c-.06,1-.14,2-.19,3.01h42.65c3.51.12,7.04.19,10.49.19,31.97,0,62.31-5.44,94.43-11.2l.4-.07c9.08-1.62,18.46-3.3,27.94-4.86,8.23-1.34,16.78-1.99,26.14-1.99,15.74,0,31.29,1.87,46.32,3.67l.38.05c10.45,1.26,21.24,2.55,32.03,3.22,5.51.28,11.02.62,16.37,1.01,10.04.72,20.24,1.65,30.1,2.56l.63.06c6.12.56,12.45,1.14,18.75,1.67,6.67.65,13.84,1.15,21.91,1.53l.46.03c3.08.18,6.17.36,9.29.54l.38.02c3.98.24,7.96.47,11.95.7,8.88.51,15.7.88,22.13,1.18,23.66,1.17,46.39,1.41,70.45,1.66h.64c6.07.01,11.3.02,15.58.03-.05-1.01-.13-2.01-.19-3.01-4.24,0-9.4-.01-15.37-.02h-.63Z"/><path class="cls-3" d="m480.94,223.64c-16.04-.04-32.62-.08-49.24-.74-15.81-.76-31.49-1.4-46.6-1.88-7.71-.25-15.55-.47-23.3-.65-10.56-.06-18.92-.37-27.12-.99-5.98-.34-12-.72-17.81-1.08l-2.54-.16c-4.24-.27-8.58-.54-12.85-.8-1.92-.11-3.84-.22-5.75-.33l-3.06-.18c-2.56-.14-5.12-.29-7.76-.44-3.43-.02-6.74-.34-10.25-.68-2.09-.2-3.98-.38-5.89-.51-9.42-1.25-18.85-3.06-28-4.82l-.15-.03c-17.23-3.31-33.5-6.44-50.36-6.44-9.55,0-18.42,1.01-27.12,3.08-35.62,8.25-72.46,16.78-111.37,16.78-2.88,0-5.81-.05-8.7-.14-7.14.03-13.66.03-19.51.04H1.23c-.1,1-.18,2.01-.27,3.01h22.66c5.83,0,12.32-.02,19.38-.04,2.86.1,5.8.15,8.75.15,39.22,0,76.25-8.57,112.06-16.86,8.47-2.02,17.11-3,26.43-3,16.59,0,32.71,3.1,49.79,6.38l.16.03c9.16,1.76,18.64,3.58,28.25,4.85,1.91.13,3.81.32,5.66.49l.24.02c3.57.35,6.94.67,10.44.7,2.56.15,5.12.29,7.68.44,0,0,6.77.39,8.81.51,4.04.24,8.15.5,12.16.75l2.84.18c5.96.38,12.12.77,18.18,1.11,8.23.63,16.65.94,27.28,1,7.59.18,15.41.4,23.24.65,15.17.49,30.84,1.12,46.57,1.88,16.69.66,33.29.7,49.35.74h3.17c5.77.01,10.79.01,14.95.01-.09-1-.17-2.01-.27-3.01-4.1,0-9.02,0-14.67,0h-3.16Z"/><path class="cls-3" d="m476.92,214.25c-18.97-.26-37.57-.57-58.17-.93l-4.01-.07c-16.83-.29-34.24-.58-51.54-.82l-5.65-.07c-5.68-.08-11.37-.16-16.97-.24-7.5-.52-15.21-.96-22.92-1.29-7.43-.32-15.15-.57-22.96-.72-.75,0-1.49.02-2.23.02-25.61,0-49.51-6.21-75.89-13.72-11.19-2.84-23.22-5.47-35.41-5.47-7.73,0-14.72,1.03-21.37,3.14l-1.84.54c-34.86,10.26-67.79,19.95-103.01,19.95-3.94,0-7.89-.12-11.77-.37h-.09c-7.72.04-14.79.06-20.81.07H2.37c-.14,1.01-.29,2.01-.42,3.01h20.35c5.99-.02,13.03-.03,20.74-.08,3.91.25,7.92.37,11.92.37,35.66,0,68.8-9.75,103.88-20.08l1.87-.55c6.36-2.02,13.05-3,20.47-3,11.85,0,23.64,2.58,34.61,5.37,26.57,7.57,50.68,13.83,76.76,13.83.72,0,1.45,0,2.14-.01,7.76.16,15.44.4,22.83.72,7.8.34,15.51.77,22.93,1.29,5.68.09,11.37.16,17.05.24l5.65.07c17.04.23,34.42.53,51.23.82l4.31.07c20.68.36,39.34.67,58.19.93,7.54,0,14.08,0,19.43,0h1.72c-.13-1.01-.28-2.01-.42-3.01h-1.3c-5.35,0-11.89,0-19.4,0"/><path class="cls-3" d="m404.49,204.35l-3.3-.03c-13.98-.12-29.83-.26-45.03-.36-2.94-.02-5.89-.04-8.83-.06l-15.24-.09c-6.8-.26-13.76-.46-20.68-.61-3.06-.07-6.13-.13-9.2-.18-3.76-.07-7.65-.15-11.48-.24-12.53-.16-25.01-1.78-37.07-4.82-8.13-2.2-16.34-5.02-24.28-7.76-17.28-5.94-35.14-12.09-53.01-12.09-8.55,0-16.37,1.38-23.91,4.21-40.7,15.53-75.19,22.77-108.53,22.77-3.79,0-7.64-.1-11.46-.29-8.51.05-15.79.06-22.51.06H3.84c-.18,1-.33,2.01-.5,3.01h6.61c6.77,0,14.08,0,22.44-.06,3.84.19,7.72.29,11.53.29,33.73,0,68.56-7.3,109.62-22.97,7.17-2.69,14.63-4,22.81-4,17.39,0,35.01,6.06,52.05,11.92,8.01,2.75,16.28,5.6,24.48,7.81,12.3,3.09,25.01,4.75,37.78,4.92,3.82.09,7.71.16,11.48.24,3.06.05,6.13.11,9.19.18,6.91.15,13.86.36,20.68.61l15.63.09c2.83.02,5.65.03,8.48.06,15.29.1,31.06.24,44.97.36l3.5.03c23.67.21,48.15.42,72.29.51h19.76c-.17-1-.32-2.01-.5-3.01h-19.25c-24.25-.09-48.74-.3-72.42-.51"/><path class="cls-3" d="m374.34,197.72c-4.15,0-8.34,0-12.59-.02-13.08-.01-26.15-.02-39.22-.03h-4.14c-6.05,0-12.09,0-18.14,0-.07,0-.29,0-.29,0-2.22.15-4.49.22-6.75.22-24.48,0-47.85-8.55-70.45-16.83l-.6-.22c-5.48-2-11.14-4.07-16.74-5.98-10.05-3.26-21.9-6.6-33.6-6.6-6.95,0-13.16,1.14-18.97,3.49-3.87,1.5-7.87,3.08-11.61,4.56-27.1,10.72-55.11,21.81-85.05,21.81-3.95,0-7.91-.2-11.79-.59h-.07s-.06,0-.06,0c-7.69.11-14.57.15-20.64.19h-1.43s-16.96,0-16.96,0c-.21,1-.4,2.01-.6,3.01h18.82c6.11-.04,13.04-.09,20.74-.2,3.94.39,7.98.59,12.01.59,30.5,0,58.79-11.2,86.16-22.02,3.72-1.47,7.68-3.04,11.61-4.56,5.45-2.2,11.29-3.27,17.84-3.27,11.28,0,22.83,3.25,32.62,6.44,5.69,1.94,11.46,4.05,17.05,6.1l.25.09c22.84,8.36,46.46,17.01,71.46,17,2.33,0,4.66-.08,6.88-.22,6.03,0,12.06,0,18.1,0h2.44c13.71,0,27.41.02,41.13.03,4.54,0,9.03.01,13.46.02h11.62s108.55.01,108.55.01c-.2-1-.39-2.01-.6-3.01h-120.44Z"/><path class="cls-3" d="m317.19,187.92h-.93c-7.34,0-14.93-.02-22.38-.18-8.89-.02-18.64-1.29-29.79-3.9-12.1-2.95-24.26-7.91-36.04-12.71l-.07-.03c-13.59-5.54-27.65-11.27-41.62-13.89-5.3-.99-10.47-1.5-15.38-1.5-9.79,0-18.78,1.92-27.49,5.87l-3.4,1.57c-28.32,13.13-55.07,25.53-85.27,25.53-3.46,0-6.96-.17-10.44-.5h-.11c-8.22.09-15.4.12-21.74.14H7.38c-.25,1.01-.5,2.01-.73,3.02h15.55s.13,0,.13,0c5.68-.02,13.46-.05,21.87-.15,3.52.33,7.11.5,10.65.5,30.85,0,57.9-12.54,86.54-25.81l3.38-1.57c8.39-3.81,16.97-5.66,26.22-5.66,18.49,0,36.66,7.41,55.9,15.25,11.87,4.84,24.15,9.85,36.48,12.85,11.38,2.66,21.35,3.97,30.47,3.98,7.47.16,15.09.17,22.46.18h.88c30.83.03,62.21.17,93.28.42h82.88c-.24-1.01-.49-2.01-.73-3.01h-82.14c-31.04-.24-62.43-.38-93.29-.42"/><path class="cls-3" d="m410.54,178.87c-29.4-.79-59.31-1.26-88.89-1.4-5.66-.03-11.68-.04-17.88-.04h-4.33c-13.88-.27-27.91-2.59-44.15-7.29-9.57-2.8-19.12-6.58-28.36-10.24l-.09-.04c-18.74-7.43-38.13-15.1-59.08-15.1-3.4,0-6.81.21-10.12.61-14.94,1.76-27.41,8.92-39.46,15.85-7.08,4.07-14.39,8.27-22.14,11.32-15.18,6.13-32.04,6.19-48.36,6.24h-.38c-1.02,0-2.04,0-3.06.02-8.31.09-15.55.12-21.93.14h-12.41c-.29,1-.58,2.01-.86,3.01h13.29c6.39-.02,13.64-.05,21.94-.14.96,0,1.91-.01,2.87-.01h.55c16.6-.06,33.77-.11,49.48-6.46,7.95-3.13,15.37-7.39,22.54-11.51,11.78-6.77,23.97-13.77,38.29-15.45,3.18-.39,6.46-.59,9.74-.59,20.39,0,39.49,7.57,57.98,14.89l.12.05c9.29,3.68,18.89,7.48,28.59,10.31,16.53,4.78,30.82,7.14,44.98,7.42h4.33c6.19,0,12.21.01,17.89.04,29.55.14,59.44.61,88.85,1.4,14.79.06,28.68.06,41.64.06h38.81c-.28-1.01-.57-2.01-.86-3.01h-37.95c-13,0-26.91,0-41.59-.06"/><path class="cls-3" d="m410.78,169.25c-28.35-1.7-57.44-2.61-88.95-2.77-3.16-.02-6.38-.02-9.63-.02-4.2,0-8.42.01-12.56.04-26.85-.24-52-9.52-76.35-18.5-10.51-3.88-21.38-7.89-32.38-11.19-6.84-2.16-13.92-3.26-21.03-3.26-23.99,0-46.64,12.49-66,24.2-15.83,9.72-33.05,11.72-54.04,11.72-1.91,0-3.83-.02-5.77-.04-10.85.11-20.4.11-28.07.11h-3.15c-.33,1-.66,2.01-.98,3.01h4.13c7.68,0,17.24,0,28.07-.11,1.83.02,3.66.04,5.51.04,18.75,0,38.5-1.47,55.9-12.16,18.99-11.49,41.19-23.75,64.42-23.75,6.8,0,13.57,1.05,20.11,3.12,10.95,3.28,21.77,7.27,32.25,11.14,24.56,9.06,49.95,18.43,77.37,18.68,4.18-.03,8.41-.04,12.56-.04,3.25,0,6.46,0,9.62.02,31.42.16,60.48,1.06,88.85,2.76,14.35.26,27.91.29,41.69.3h35.79c-.32-1.01-.64-2.01-.98-3.01h-34.81c-13.72,0-27.22-.04-41.57-.3"/><path class="cls-3" d="m446.68,160.18c-2.8,0-5.78-.02-9.11-.07-19.78-.17-39.76-1.55-59.08-2.88h-.08c-15.86-1.1-32.26-2.24-48.72-2.72-5.55-.17-10.65-.26-15.61-.29-.88,0-1.76,0-2.63,0-4.38,0-8.78.06-13.07.17-1,.03-2.02.05-3.04.05-11.48,0-22.2-2.08-32.08-4.32-12.52-2.83-24.76-7.3-36.6-11.62-19.97-7.29-38.84-14.17-59.21-14.17-7.3,0-14.26.87-21.28,2.67-11.92,3.11-22.29,8.98-32.32,14.66-9.09,5.14-18.48,10.45-28.92,13.59-12.86,3.73-26.4,3.98-39.49,4.21-5.92.11-12.04.21-17.95.64-3.6.03-7.24.04-11.28.05-.38,1-.77,2-1.14,3.01,4.04,0,8.15-.03,12.54-.06,5.85-.42,11.88-.53,17.72-.63h.21c13.28-.24,27-.49,40.26-4.34,10.82-3.26,20.37-8.67,29.6-13.89,9.84-5.57,20.01-11.32,31.54-14.33,6.75-1.73,13.46-2.56,20.49-2.56,19.86,0,38.47,6.79,58.19,13.99l.11.04c11.89,4.34,24.18,8.82,36.85,11.68,10.05,2.29,20.97,4.4,32.75,4.4,1.05,0,2.1-.02,3.14-.05,4.26-.11,8.63-.17,12.98-.17.87,0,1.75,0,2.62,0,4.93.02,10.01.12,15.53.29,16.4.48,32.77,1.61,48.6,2.7h.06c19.37,1.34,39.4,2.72,59.27,2.9,3.29.05,6.26.07,9.09.07,1.97,0,3.89-.01,5.71-.03,12.5,0,23.48,0,32.59,0-.37-1.01-.76-2.01-1.14-3.01-8.89,0-19.47,0-31.47,0-1.8.02-3.67.03-5.64.03"/><path class="cls-3" d="m452.24,150.74h-.14c-1.12.18-2.21.26-3.25.26-1.23,0-2.4-.11-3.59-.34h-.09c-35.12-3.94-72.72-7.77-112.36-7.77-7.98,0-15.9.16-23.53.48h-.49c-3.75.07-8.01.14-12.2.14-.91,0-1.83,0-2.7,0-22.53-1.12-43.25-7.87-65.21-15.03-9.92-3.23-20.19-6.57-30.57-9.32-10.37-2.87-20.71-4.32-30.73-4.32-17.62,0-34.1,4.41-48.98,13.1-24.78,14.65-46.53,21.48-68.45,21.48-.93,0-1.88-.01-2.76-.03h-.13s-.05,0-.05,0c-6.83.38-13.2.68-19.48.91-2.38.08-4.85.15-7.42.22-.43,1.01-.86,2.03-1.28,3.04,2.81-.07,5.75-.15,8.81-.25,6.32-.23,12.69-.53,19.44-.91.97.03,1.95.04,2.92.04,22.46,0,44.69-6.96,69.95-21.9,14.4-8.42,30.36-12.68,47.43-12.68,9.74,0,19.8,1.42,29.91,4.21,10.37,2.74,20.58,6.07,30.46,9.29,22.14,7.21,43.04,14.02,66.04,15.16.92,0,1.84.01,2.77.01,4.23,0,8.5-.07,12.27-.13h.52c7.6-.32,15.49-.48,23.44-.48,39.47,0,76.95,3.82,111.92,7.72,1.35.26,2.7.39,4.13.39,1.17,0,2.34-.09,3.58-.26,6.24.01,12.11.02,17.56.02h11.27c-.41-1.01-.83-2.01-1.26-3.01h-10.02c-5.47,0-11.38,0-17.75-.01"/><path class="cls-3" d="m465.03,141.36c-19.1,0-36.93-2.84-55.8-5.85h-.07c-11.27-1.81-22.92-3.66-34.88-4.85-9.91-.97-20.37-1.43-31.95-1.43-10.96,0-21.6.43-29.65.81-3.67.17-7.34.36-11.01.55l-4.11.21c-.55,0-1.11.01-1.66.01-22.82,0-43.88-5.9-66.18-12.15l-.2-.06c-13.3-3.72-27.04-7.58-41.25-10.08-5.62-.93-14.16-2.18-23.37-2.18s-18.01,1.25-26.1,3.81c-9.35,3.2-18.4,7.45-27.15,11.55-17.35,8.14-35.29,16.55-55.47,16.55-.65,0-1.31,0-2.06-.03h-.06c-3.17.22-6.32.43-9.46.65l-10.76.72c-2.99.2-6.03.4-9.07.61-.5,1.03-.98,2.08-1.47,3.12,3.6-.25,7.19-.49,10.74-.72,2.83-.19,5.66-.38,8.49-.57l.47-.03c3.73-.25,7.47-.5,11.15-.76.69.02,1.37.03,2.06.03,20.83,0,39.08-8.56,56.76-16.85,8.66-4.06,17.62-8.27,26.79-11.41,7.77-2.46,15.99-3.66,25.14-3.66s17.35,1.22,22.86,2.14c14.08,2.48,27.77,6.32,41.01,10.03l.18.05c22.48,6.3,43.71,12.25,66.97,12.25.56,0,1.13,0,1.73-.01l3.97-.2c3.74-.19,7.46-.38,11.19-.56,8-.38,18.59-.81,29.51-.81,11.48,0,21.83.46,31.64,1.42,11.88,1.18,23.49,3.03,34.72,4.82h.08c18.99,3.04,36.93,5.9,56.24,5.9,1.61,0,3.25-.02,4.99-.07,2.29.02,4.64.04,7.16.05-.47-1.01-.93-2.02-1.41-3.02-1.81,0-3.76-.02-5.78-.04-1.62.04-3.28.06-4.93.06"/><path class="cls-3" d="m415.67,123.01c-8.45-1.82-17.2-3.71-25.97-5.27-10.79-1.88-22.3-2.8-35.19-2.8-11.96,0-23.81.79-34.83,1.65-3.27.25-6.54.52-9.81.78l-2.03.17c-1.83.15-3.66.3-5.51.44-3.77.35-7.65.52-11.55.52-21.48,0-41.91-5.23-63.54-10.76-10.9-2.79-22.18-5.68-33.7-7.85-6.64-1.2-13.47-1.8-20.29-1.8-29.55,0-56.42,11.13-82.41,21.88-15.13,5.89-31.14,7.51-43.42,8.26-5.49.52-11.38,1.06-17.29,1.55-.57,1.05-1.11,2.11-1.67,3.16l1.41-.12c6.32-.52,12.54-1.1,17.79-1.59,12.47-.76,28.77-2.41,44.32-8.47,25.72-10.65,52.32-21.66,81.29-21.66,6.63,0,13.26.59,19.7,1.75,11.4,2.15,22.64,5.03,33.51,7.81,21.81,5.59,42.41,10.86,64.27,10.86,3.99,0,7.97-.18,11.83-.54,2.45-.19,4.89-.39,7.33-.59l.18-.02c3.27-.27,6.53-.53,9.8-.78,10.97-.85,22.76-1.64,34.61-1.64,12.7,0,24.03.9,34.64,2.75,8.64,1.53,17.29,3.4,25.66,5.2l.39.08c18.34,3.96,37.28,8,57.32,8.84-.53-1.04-1.08-2.06-1.63-3.09-19.18-.99-37.43-4.89-55.11-8.71l-.13-.03Z"/><path class="cls-3" d="m401.07,105.07c-11.32-2.78-23.77-4.13-38.06-4.13s-29.58,1.41-43.97,2.78l-.31.03c-2.9.28-5.81.55-8.7.82-4.99.45-11.56,1.02-18.17,1.39-1.57.13-3.18.2-4.91.2-4.9,0-9.82-.53-15.03-1.09l-.74-.08c-13.34-1.73-26.35-4.25-38.94-6.68-16.07-3.09-32.68-6.3-49.71-7.84-3.02-.25-6.13-.37-9.23-.37-24.64,0-47.87,7.78-70.35,15.3-4.55,1.53-10.21,3.42-15.65,5.14-9.38,3.04-19.58,4.89-32.13,5.82l-6.31.72c-3.22.37-6.44.74-9.66,1.1l-2.5.28c-.66,1.07-1.3,2.16-1.95,3.24l4.78-.53c2.96-.33,5.91-.67,8.87-1.01l.8-.09c2.1-.24,4.21-.48,6.25-.71,12.76-.94,23.18-2.84,32.79-5.95,5.27-1.67,10.53-3.43,15.62-5.13l.09-.03c22.23-7.44,45.22-15.14,69.35-15.14,3.02,0,6.03.12,8.95.36,16.86,1.54,33.4,4.72,49.4,7.81,12.66,2.44,25.76,4.96,39.15,6.7l.76.08c5.31.57,10.33,1.11,15.39,1.11,1.81,0,3.48-.07,5.11-.21,6.8-.38,13.66-.98,18.23-1.4,3.01-.27,6.02-.56,9.04-.85,14.3-1.36,29.08-2.76,43.65-2.76s26.26,1.32,37.35,4.04c7.88,1.87,15.72,4.16,23.32,6.39l.2.06c13.68,4,27.8,8.1,43.01,9.99-.63-1.1-1.29-2.19-1.94-3.28-14.12-1.97-27.37-5.84-40.22-9.6-7.66-2.24-15.58-4.56-23.65-6.48"/><path class="cls-3" d="m430.99,100.71c-20.71-6.52-42.12-13.25-66.27-13.25-2.26,0-4.54.06-6.78.18-11.1.59-21.98,1.89-32.51,3.15h-.09c-8.34,1.01-16.96,2.04-25.51,2.68-5.19.39-9.81.58-14.11.58-1.82,0-3.63-.03-5.38-.1-14.41-1.17-29-3.59-43.12-5.93-19.74-3.28-40.16-6.67-60.7-6.67-14.68,0-27.91,1.72-40.45,5.25-4.38,1.26-8.7,2.52-11.97,3.48-23.44,6.86-45.58,13.34-69.56,15.53l-10.34,1.33c-.76,1.1-1.52,2.21-2.27,3.33l12.94-1.67c24.24-2.22,46.51-8.74,70.1-15.64l.56-.16c3.73-1.09,7.57-2.21,11.38-3.31,12.26-3.45,25.22-5.13,39.62-5.13,20.31,0,40.59,3.37,60.21,6.62,14.14,2.35,28.77,4.78,43.42,5.96,1.83.07,3.72.11,5.62.11,4.39,0,9.06-.19,14.29-.59,8.62-.65,17.29-1.68,25.67-2.68h.07c10.44-1.26,21.24-2.55,32.31-3.14,2.17-.12,4.4-.17,6.6-.17,23.7,0,44.88,6.67,65.37,13.12l.06.02c7.34,2.31,14.93,4.7,22.54,6.74,1.95.48,4.16,1.02,6.46,1.55-.81-1.23-1.62-2.46-2.45-3.67-1.14-.28-2.24-.54-3.25-.79-7.62-2.05-15.49-4.53-22.46-6.72"/><path class="cls-3" d="m442.15,92.73c-23.11-7.61-47-15.48-74.45-15.67-.78,0-1.56-.01-2.34-.01-13.79,0-27.54,1.25-40.85,2.46l-.18.02c-7.06.64-14.36,1.3-21.55,1.77-4.73.2-9.45.22-13.43.22-1.11,0-2.22,0-3.29,0-14.15-.82-28.44-2.58-42.27-4.28-18.92-2.32-38.49-4.73-58.18-4.73-16.32,0-30.93,1.65-44.68,5.06l-.29.08c-29.89,7.56-58.14,14.7-88.09,17.91-.85,1.09-1.7,2.19-2.53,3.3l.89-.09c30.88-3.12,59.84-10.45,90.5-18.2l.29-.07c13.49-3.34,27.86-4.96,43.94-4.96,19.51,0,38.97,2.39,57.79,4.7l.38.05c13.75,1.69,27.96,3.43,42.17,4.25,1.24,0,2.47,0,3.7,0,3.66,0,8.47-.03,13.28-.22,7.24-.47,14.54-1.13,21.63-1.78l.44-.04c13.14-1.19,26.73-2.43,40.23-2.43.8,0,1.6,0,2.41.01,26.99.19,50.65,7.99,73.53,15.52l1.98.65c2.09.69,4.24,1.39,6.39,2.09-1.08-1.42-2.16-2.84-3.27-4.24-.87-.29-1.76-.57-2.62-.86l-1.54-.51Z"/><path class="cls-3" d="m359.75,68.91c-8.77,0-17.58.25-26.11.5-8.54.24-17.37.5-26.25.5-6.04,0-11.45-.12-16.52-.36-6.18-.37-12.4-1-18.4-1.61l-2.89-.29c-18.13-2.41-39.57-4.93-61.13-5.34-2.05-.04-4.1-.06-6.09-.06-20.14,0-38.51,1.93-56.15,5.89-28.53,6.38-55.49,12.41-84.27,16.05-.98,1.12-1.95,2.26-2.92,3.4l1.42-.17c29.65-3.63,58.49-10.08,86.38-16.32l.08-.02c17.51-3.94,35.71-5.85,55.63-5.85,21.61,0,42.28,2.16,66.7,5.41l3.17.32c5.98.6,12.17,1.22,18.31,1.59,5.13.25,10.6.37,16.71.37,8.84,0,17.69-.25,26.26-.5h.07c8.49-.24,17.27-.49,25.99-.49,19.5,0,34.27,1.27,47.89,4.12,10.57,2.23,20.71,5.28,30.55,8.29-1.27-1.46-2.57-2.9-3.87-4.32-8.85-2.67-17.22-5.05-26.05-6.91-13.84-2.89-28.8-4.18-48.51-4.18"/><path class="cls-3" d="m336.13,60.53c-10.09-.11-20.51-.22-30.8-.63-5.19-.2-11.3-.78-18.15-1.73-5.42-.86-11.74-1.85-18.25-2.71-15.79-2.7-31.67-4.01-48.56-4.01-10.53,0-21.59.53-32.87,1.59-23.63,2.21-49.43,6.76-81.19,14.32-11.67,3.07-23.35,4.68-34.25,5.95-1.11,1.13-2.22,2.26-3.32,3.41l1.98-.23c11.67-1.33,24.16-3.01,36.34-6.22,32.75-7.8,71.84-15.77,113.46-15.77,16.6,0,32.73,1.32,47.96,3.92,6.56.86,12.86,1.85,18.26,2.71,7.02.96,13.23,1.56,18.48,1.76,10.51.42,21.35.53,30.94.63,24.14.26,49.1.53,73.12,4.98,5.45,1.05,11.21,2.36,17.99,4.1-1.4-1.4-2.81-2.79-4.24-4.16-4.74-1.15-9.09-2.1-13.18-2.89-24.34-4.51-49.42-4.78-73.71-5.03"/><path class="cls-3" d="m93.69,64.02c12.96-2.43,25.83-5.37,38.28-8.21l.19-.04c29.96-6.84,58.25-13.3,87.53-13.3,9.29,0,18.07.64,26.86,1.96,5.28.54,10.7,1.21,16.1,2,5,.73,10.22,1.59,15.98,2.63,3.08.56,6.21,1.14,9.24,1.71l.7.13c3.03.56,6.14,1.14,9.26,1.7,1.15.17,2.32.36,3.47.55l.19.03c3.23.53,6.57,1.08,10.2,1.26,29.33.91,67.81,2.76,105.9,8.94-1.38-1.25-2.77-2.48-4.18-3.7-36.74-5.63-73.47-7.38-101.61-8.25-3.46-.17-6.84-.73-9.83-1.22l-.59-.1c-1.03-.17-2.08-.34-3.06-.48-3.3-.59-6.65-1.22-9.89-1.83-3.03-.57-6.17-1.15-9.26-1.71-5.73-1.04-10.99-1.91-16.08-2.65-5.52-.81-10.96-1.48-16.16-2.01-8.9-1.34-17.82-1.99-27.27-1.99-29.59,0-58.06,6.5-88.2,13.39-11.81,2.7-25.19,5.76-38.39,8.24-4.18.96-7.37,1.61-10.34,2.11l-.1.02c-1.33,1.2-2.64,2.42-3.95,3.64l2.69-.4c3.53-.53,7.21-1.25,12.32-2.42"/><path class="cls-3" d="m302.67,39.98l-2.25-.53c-5.6-1.31-11.38-2.67-17.11-3.92-14.51-3.22-27.7-5.34-40.33-6.48-7.07-.63-14.13-.97-20.98-.99-1.03-.02-2.05-.03-3.07-.03-29.31,0-56.2,7.3-84.68,15.04l-.37.1c-11.29,3.07-22.95,6.23-34.7,8.87-1.35.23-2.53.43-3.62.59l-.23.04-.19.14c-.64.49-1.28.99-1.92,1.49l-2.72,2.13,3.42-.5c2-.29,3.96-.61,5.86-.93,12.03-2.7,23.83-5.91,35.25-9.01l.08-.02c28.24-7.67,54.91-14.92,83.8-14.92,1.01,0,2.03,0,3.06.03,6.8.02,13.78.35,20.73.98,12.49,1.13,25.56,3.22,39.94,6.42,5.76,1.25,11.53,2.61,17.12,3.92l2.2.52c11.47,2.77,22.72,4.52,33.42,5.19,23.47,1.39,47.44,3.88,73.26,7.59-1.51-1.24-3.04-2.47-4.58-3.68-23.95-3.33-46.4-5.6-68.49-6.92-10.51-.66-21.57-2.37-32.89-5.11"/><path class="cls-3" d="m306.26,31.29c-8.96-2.17-16.35-3.88-23.25-5.4-17.77-4.08-33.76-6.59-48.89-7.68-5.58-.41-11.02-.61-16.15-.61h-.68c-.51,0-1.02,0-1.53,0-13.44,0-25.44,1.36-37.77,4.27-11,2.71-22.12,5.79-31.93,8.51-9.87,2.73-20.07,5.56-30.11,8.05l-.14.03-.12.08c-1.05.65-2.09,1.32-3.14,1.99l-2.55,1.76.31.68c10.84-2.61,24.57-6.37,36.58-9.69l.37-.1c10.21-2.82,20.77-5.74,31.46-8.38,12.08-2.85,23.85-4.18,37.04-4.18.5,0,1,0,1.52,0h.43c5.21,0,10.66.2,16.19.6,14.99,1.08,30.84,3.58,48.44,7.62,6.91,1.51,14.27,3.22,23.15,5.37,7.26,2.04,14.72,3.52,24.94,4.95,25.11,3.58,48.81,6.66,68.66,9.21l.27.05c-1.68-1.26-3.39-2.49-5.1-3.7-18.41-2.37-40.06-5.21-63.4-8.53-10.06-1.4-17.41-2.86-24.59-4.88"/><path class="cls-3" d="m306.72,21.96c-31.94-8.79-60.29-13.11-86.67-13.2h-.63c-7.5,0-14.83.34-21.8,1.02-12.43,1.38-25.24,3.84-40.35,7.75l-.07.03c-1.62.64-4.2,1.92-6.69,3.16-1.8.9-3.51,1.74-4.63,2.23l.25.72,3.44-.95c19.06-5.27,33.98-8.34,48.37-9.94,6.87-.67,14.1-1,21.48-1h.62c26.11.09,54.21,4.38,85.9,13.1,7.39,1.82,14.91,3.53,22.99,5.24,18.65,3.94,38.21,7.38,58.11,10.23l1.23.26c-2.09-1.39-4.2-2.74-6.32-4.07-17.96-2.69-35.57-5.83-52.38-9.37-8.1-1.71-15.58-3.42-22.85-5.21"/><path class="cls-3" d="m330.5,19.84l-2.48-.67c-22.98-6.22-49.02-13.27-75.07-17.27-4.96-.76-9.86-1.4-14.62-1.9h-.1c-1.39.07-4.63.41-7.48.7-1.97.2-3.83.4-4.81.47v.76s5.12.36,5.12.36c32.83,2.64,66.44,11.73,96.1,19.76l2.61.71c6.61,1.47,13.45,2.88,20.33,4.2,6.54,1.25,13.17,2.43,19.73,3.51l2.39.32c-2.65-1.49-5.32-2.94-8.03-4.33-4.54-.78-9.08-1.6-13.5-2.45-6.63-1.27-13.43-2.67-20.18-4.16"/><path class="cls-3" d="m303.33,4.88l-.42,1.76,1.82.5c8.09,2.21,17.25,4.72,26.22,6.96l.36.09.45-1.58c-3.06-1.06-6.14-2.05-9.25-2.99-6.21-1.78-12.5-3.35-18.82-4.65l-.36-.07Z"/></g></g></g></g></svg>