<?xml version="1.0" encoding="UTF-8"?><svg id="Layer_2" xmlns="http://www.w3.org/2000/svg" width="500" height="500.04" xmlns:xlink="http://www.w3.org/1999/xlink" viewBox="0 0 500 500.04"><defs><style>.cls-1{fill:none;}.cls-2{clip-path:url(#clippath);}.cls-3{fill:#003d58;}.cls-4{clip-path:url(#clippath-1);}</style><clipPath id="clippath"><rect class="cls-1" y="0" width="500" height="500.04"/></clipPath><clipPath id="clippath-1"><rect class="cls-1" y="0" width="500" height="500.04"/></clipPath></defs><g id="Layer_1-2"><g id="Navy_Circle_1"><g class="cls-2"><g class="cls-4"><path class="cls-3" d="m248.22.02c15.74,4.22,31.89,7.82,48.4,8.2,5.03.11,9.73-.17,14.19-.75-3.3-.83-6.63-1.59-9.98-2.29-1.36.03-2.73.04-4.14,0-11.82-.27-23.51-2.24-35.02-4.91C257.79.1,253.9,0,249.98,0c-.59,0-1.17.02-1.76.02"/><path class="cls-3" d="m235.63,3.99c19.16,5.88,38.97,11.97,59.55,13.12,12.74.71,23.5-1.11,33.44-4.49-1.67-.55-3.35-1.1-5.04-1.62-8.51,2.44-17.69,3.67-28.23,3.08-20.21-1.14-39.84-7.16-58.83-12.99-.66-.2-1.33-.4-1.99-.61-2.78.17-5.54.38-8.3.64,3.16.95,6.31,1.91,9.4,2.86"/><path class="cls-3" d="m294.1,23.03c-19.73-1.74-38.74-8.1-57.12-14.24-6.66-2.22-13.52-4.51-20.38-6.57-2.42.32-4.82.68-7.21,1.07,1.46.4,2.92.81,4.4,1.24,7.45,2.19,14.96,4.7,22.23,7.13,18.55,6.2,37.73,12.61,57.81,14.38,18.77,1.66,33.35-2.36,47.03-9.01-1.29-.5-2.59-1-3.89-1.48-12.58,5.76-25.82,8.97-42.87,7.47"/><path class="cls-3" d="m235.92,19.39c18.16,6.59,36.94,13.4,56.73,15.78,24.18,2.91,40.93-3.67,57.97-14.08-1.14-.5-2.27-1.01-3.42-1.49-15.93,9.44-31.83,15.24-54.19,12.56-19.44-2.34-38.05-9.09-56.05-15.62-8.13-2.95-16.53-6-24.93-8.62-3.76-1.17-7.44-2.2-11.07-3.11-2.34.47-4.67.95-6.98,1.48,5.56,1.19,11.26,2.68,17.14,4.52,8.34,2.6,16.7,5.63,24.8,8.57"/><path class="cls-3" d="m208.84,17.29c9.04,2.96,18.08,6.48,26.83,9.89,17.9,6.97,36.41,14.17,56.02,17.08,28.76,4.26,47.24-5.3,67.34-19.28-1.05-.51-2.11-1-3.17-1.5-19.01,13.04-36.79,21.78-63.72,17.78-19.27-2.86-37.62-10-55.36-16.9-8.78-3.42-17.86-6.95-26.98-9.94-8.26-2.71-16.08-4.75-23.61-6.18-2.32.61-4.62,1.26-6.91,1.93,9.35,1.36,19.11,3.69,29.58,7.13"/><path class="cls-3" d="m291.49,50.15c-19.17-3.29-37.37-10.77-54.97-18-9.28-3.81-18.88-7.76-28.54-11.06-13.27-4.54-25.36-7.26-36.83-8.39-2.46.82-4.9,1.66-7.32,2.55,13.35.53,27.42,3.32,43.17,8.71,9.58,3.28,19.13,7.2,28.37,11,17.75,7.29,36.11,14.84,55.61,18.19,32.78,5.63,52.66-6.98,75.69-24.27-.99-.52-1.97-1.05-2.97-1.56-22.63,16.93-41.09,28.19-72.21,22.85"/><path class="cls-3" d="m205.16,31.34c9.9,3.4,19.8,7.45,29.38,11.37,18.03,7.38,36.67,15.01,56.31,18.71,37.14,7,57.87-8.44,84.1-28-.96-.55-1.92-1.09-2.89-1.63-25.13,18.73-45.32,33.31-80.66,26.65-19.34-3.65-37.84-11.22-55.72-18.54-9.61-3.93-19.56-8-29.54-11.43-20.77-7.13-38.28-9.51-54.36-8.44-2.86,1.22-5.69,2.5-8.5,3.83,18.85-2.96,37.89-.75,61.87,7.48"/><path class="cls-3" d="m204.95,39.51c10.16,3.39,20.36,7.38,30.22,11.25,18.17,7.12,36.95,14.48,56.45,18.46,35.19,7.18,55.98-4.58,83.68-23.34,3.31-2.24,6.55-4.34,9.74-6.27-.95-.61-1.91-1.2-2.87-1.8-2.81,1.74-5.67,3.59-8.57,5.56-27.87,18.88-47.26,29.84-81.38,22.89-19.25-3.93-37.91-11.24-55.96-18.31-9.9-3.88-20.14-7.89-30.37-11.3-37.61-12.55-62.12-9.65-90.2,2.46-5.31,3.39-10.49,6.97-15.51,10.73,35.95-18.51,60.7-25.01,104.76-10.32"/><path class="cls-3" d="m83.82,70.56c6.48-3.52,12.67-7.74,18.66-11.81,10.07-6.85,20.47-13.93,32.29-17.7,23.83-7.6,48.56-.86,71.85,6.7,10.54,3.42,21.14,7.45,31.4,11.35,17.71,6.73,36.03,13.69,54.84,17.85,32.61,7.22,52.78-.27,83.1-18.67,7.11-4.31,13.79-8.02,20.29-11.02-.94-.68-1.89-1.36-2.85-2.03-6.1,2.92-12.38,6.43-19.02,10.46-29.62,17.97-49.27,25.3-80.88,18.31-18.6-4.11-36.81-11.03-54.42-17.73-10.29-3.91-20.93-7.95-31.54-11.4-23.76-7.71-49.01-14.58-73.71-6.71-12.23,3.9-22.83,11.11-33.07,18.08-5.93,4.04-12.06,8.21-18.4,11.66-2.45,1.33-4.95,2.55-7.49,3.68-1.84,1.81-3.66,3.64-5.45,5.5,4.94-1.85,9.75-4,14.39-6.52"/><path class="cls-3" d="m86.87,80.95c7.13-3.8,13.85-8.61,20.34-13.25,9.37-6.71,19.06-13.64,29.97-17.46,23.47-8.23,48.35-1.68,71.82,5.74,9.97,3.15,19.66,6.56,29.04,9.86,47.6,16.74,88.71,31.2,138.8,4.77,11-5.81,21.17-10.82,31.45-14.08-.94-.77-1.89-1.53-2.84-2.29-9.8,3.34-19.54,8.16-30.02,13.69-48.92,25.81-89.45,11.56-136.38-4.95-9.4-3.31-19.12-6.72-29.13-9.89-23.96-7.57-49.39-14.24-73.74-5.71-11.31,3.97-21.18,11.03-30.73,17.86-6.42,4.59-13.05,9.34-20.01,13.04-8.5,4.53-17.06,7.55-25.69,9.52-1.07,1.25-2.13,2.51-3.17,3.78,10.16-1.95,20.25-5.28,30.28-10.62"/><path class="cls-3" d="m89.67,91.38c7.82-4.04,15.03-9.44,22-14.66,8.81-6.6,17.91-13.42,28.12-17.33,22.99-8.8,47.79-2.52,71.23,4.68,10.61,3.26,21.03,6.89,31.1,10.41,44.86,15.65,87.23,30.44,135.81,8.29,15.97-7.28,29.27-13.01,42.69-15.47-.89-.83-1.77-1.67-2.67-2.48-12.94,2.7-25.97,8.21-41.28,15.2-47.47,21.64-89.29,7.05-133.55-8.4-10.1-3.53-20.55-7.17-31.21-10.45-23.94-7.35-49.31-13.76-73.2-4.61-10.6,4.06-19.88,11.01-28.85,17.73-6.87,5.15-13.98,10.47-21.57,14.39-12.5,6.46-25.08,9.64-37.99,10.88-.82,1.08-1.62,2.18-2.42,3.27,14.19-1.07,28.01-4.33,41.8-11.46"/><path class="cls-3" d="m92.01,101.84c8.58-4.28,16.25-10.28,23.66-16.09,8.39-6.57,17.07-13.36,26.87-17.4,23.48-9.68,49.64-3.25,72.31,3.52,11.64,3.48,23.12,7.53,34.22,11.44,42.98,15.14,83.57,29.45,130.06,11.59l3.72-1.43c18.39-7.09,33.59-12.95,50.14-13.76-.9-.97-1.81-1.94-2.73-2.9-15.92,1.28-30.75,6.99-48.5,13.83l-3.72,1.43c-45.45,17.46-85.53,3.34-127.96-11.62-11.14-3.92-22.65-7.98-34.36-11.48-23.17-6.93-49.93-13.48-74.33-3.42-10.19,4.2-19.03,11.12-27.59,17.82-7.3,5.71-14.84,11.62-23.15,15.76-15.65,7.81-31.75,10.35-47.54,10.44-.68,1.01-1.35,2.02-2.02,3.04,16.81.12,34.05-2.36,50.92-10.77"/><path class="cls-3" d="m94.14,112.42c9.35-4.5,17.42-11.07,25.23-17.41,8.46-6.88,16.45-13.38,26.01-17.58,22.86-10.05,48.9-4.81,73.64,2.35,12.79,3.7,25.54,8.28,37.88,12.7,41.09,14.74,79.9,28.67,123.63,14.66,3.28-1.05,6.47-2.1,9.57-3.12,19.42-6.4,35.82-11.78,54.86-10.49-.86-1.06-1.71-2.13-2.59-3.18-18.34-.66-34.39,4.59-53.22,10.79-3.09,1.02-6.27,2.06-9.54,3.11-42.75,13.7-81.09-.06-121.68-14.62-12.38-4.44-25.17-9.03-38.06-12.76-25.28-7.32-51.95-12.65-75.7-2.21-9.93,4.36-18.46,11.3-26.7,18-7.67,6.24-15.6,12.69-24.63,17.03-18.5,8.91-37.24,10.53-55.83,9.34-.6.97-1.19,1.95-1.78,2.93,19.52,1.42,39.27-.08,58.92-9.54"/><path class="cls-3" d="m95.86,122.54c9.78-4.37,18.36-10.76,26.65-16.94,8.36-6.23,17.01-12.67,26.7-16.81,19.99-8.54,45.03-8.71,76.55-.52,14.99,3.9,29.67,9.27,43.87,14.47,37.17,13.61,72.29,26.47,112.93,15.22,4.24-1.17,8.32-2.36,12.26-3.51,21.11-6.16,38.5-11.19,59.95-7.87-.81-1.15-1.63-2.29-2.46-3.43-20.7-2.57-37.79,2.4-58.34,8.39-3.94,1.15-8,2.33-12.22,3.5-39.71,10.99-74.37-1.71-111.08-15.15-14.27-5.22-29.02-10.63-44.15-14.56-32.19-8.37-57.87-8.15-78.51.66-10.02,4.28-18.81,10.83-27.32,17.17-8.16,6.08-16.6,12.37-26.08,16.6-20.93,9.35-41.56,10.01-62.64,7.77-.54.96-1.08,1.92-1.61,2.88,21.96,2.46,43.47,1.95,65.49-7.88"/><path class="cls-3" d="m96.54,132.34c10.34-4.14,19.71-10.19,28.77-16.03,8.95-5.78,18.21-11.75,28.24-15.73,27.87-11.06,58.23-7.8,78.8-3.12,16.59,3.78,32.61,9.73,48.1,15.48,33.92,12.6,65.96,24.5,103.58,15.54,4.74-1.13,9.27-2.29,13.65-3.41,23.03-5.88,41.53-10.6,65.75-5.28-.72-1.18-1.45-2.35-2.19-3.51-23.66-4.49-42.67.33-64.31,5.86-4.37,1.12-8.89,2.27-13.61,3.39-36.73,8.74-68.35-3-101.83-15.44-15.58-5.79-31.69-11.77-48.48-15.59-20.98-4.78-52-8.09-80.59,3.26-10.31,4.09-19.69,10.15-28.77,16-8.94,5.77-18.19,11.73-28.25,15.76-22.96,9.2-45.14,8.99-67.77,6.05-.49.95-.97,1.91-1.44,2.87,23.4,3.13,46.36,3.5,70.34-6.1"/><path class="cls-3" d="m399.31,132.83c-4.78,1.04-9.72,2.12-14.9,3.15-33.75,6.71-62.75-4.14-93.46-15.63-16.71-6.25-33.98-12.71-52.18-16.16-43.07-8.17-72.4,4.77-106.37,19.75-11.73,5.17-23.86,10.53-37.16,15.2-24.89,8.76-48.04,7.83-71.51,4.39-.45.95-.9,1.91-1.34,2.87,24.17,3.61,48,4.71,73.86-4.39,13.4-4.72,25.59-10.09,37.37-15.29,33.5-14.77,62.44-27.54,104.58-19.55,17.94,3.4,35.09,9.82,51.68,16.03,31.13,11.65,60.53,22.65,95.11,15.77,5.2-1.03,10.16-2.12,14.95-3.16,23.4-5.1,43.61-9.51,69.76-2.96.45.11.89.23,1.34.34-.64-1.2-1.28-2.4-1.93-3.58-26.19-6.25-46.44-1.86-69.81,3.24"/><path class="cls-3" d="m401.77,143.52c-5.27.95-10.73,1.94-16.44,2.85-31.11,4.96-58.18-5.14-86.84-15.82-17.48-6.51-35.55-13.25-54.63-16.26-41.73-6.58-74.53,6.23-109.25,19.8-12.9,5.04-26.24,10.25-40.34,14.56-25.45,7.79-48.08,6.86-74.13,2.83-.41.96-.81,1.92-1.21,2.88,26.77,4.19,49.95,5.22,76.23-2.82,14.21-4.35,27.6-9.58,40.55-14.64,34.33-13.41,66.75-26.09,107.67-19.63,18.78,2.96,36.7,9.64,54.04,16.1,27.77,10.35,56.47,21.05,88.38,15.97,5.75-.92,11.22-1.9,16.51-2.86,23.05-4.16,42.95-7.76,68.29-1.85,2.34.55,4.62,1.09,6.92,1.63-.53-1.17-1.08-2.34-1.63-3.5-1.54-.36-3.04-.72-4.6-1.08-25.95-6.05-46.14-2.4-69.52,1.82"/><path class="cls-3" d="m404.68,154.22c-5.86.85-11.92,1.73-18.28,2.49-28.83,3.45-54.14-5.88-80.94-15.76-18.26-6.73-37.14-13.69-57.15-16.17-40.58-5.03-75.15,6.87-111.75,19.48-14.21,4.89-28.89,9.95-43.94,13.92-25.3,6.67-51.06,5.99-76.51,3.3-.37.98-.75,1.95-1.11,2.93,25.99,2.79,52.36,3.56,78.39-3.31,15.15-4,29.9-9.08,44.15-13.99,36.26-12.49,70.5-24.29,110.39-19.34,19.66,2.44,38.38,9.34,56.47,16.01,25.97,9.57,52.81,19.47,82.35,15.93,6.4-.77,12.48-1.65,18.35-2.5,22.46-3.26,41.86-6.07,66.12-.73,3.88.85,7.77,1.71,11.69,2.56-.45-1.14-.91-2.27-1.37-3.4-3.23-.7-6.46-1.41-9.67-2.12-24.8-5.46-44.46-2.61-67.21.69"/><path class="cls-3" d="m408.44,165.21c-6.75.75-13.72,1.52-21.05,2.09-27.03,2.13-51.01-6.65-76.41-15.94-18.67-6.83-37.98-13.89-58.47-16.1-38.81-4.2-76.24,7.41-112.45,18.64-16.17,5.01-32.89,10.2-49.41,13.85-25.89,5.73-51.84,4.42-77.33,1.44-.33.97-.65,1.96-.97,2.94,25.94,3.07,52.4,4.46,78.95-1.41,16.64-3.68,33.42-8.89,49.65-13.92,35.91-11.14,73.05-22.65,111.23-18.52,20.12,2.17,39.25,9.17,57.75,15.93,24.59,8.99,50.01,18.28,77.69,16.11,7.37-.58,14.37-1.35,21.14-2.1,20.76-2.29,40.37-4.46,63.26.22,5.04,1.03,10.17,2.05,15.37,3.03-.36-1.1-.74-2.2-1.12-3.3-4.61-.88-9.16-1.79-13.64-2.71-23.36-4.77-43.2-2.58-64.2-.26"/><path class="cls-3" d="m410.95,175.91c-7.36.64-14.97,1.31-22.92,1.72-25.56,1.35-48.26-6.76-72.3-15.34-19.17-6.84-38.99-13.9-60.2-15.59-40.21-3.21-80.98,7.84-120.42,18.53-15.4,4.17-31.32,8.48-46.68,11.77-26.11,5.58-52.25,4.04-77.89.92-.29.98-.59,1.96-.88,2.95,26.06,3.19,52.67,4.81,79.4-.9,15.44-3.3,31.4-7.62,46.84-11.8,39.19-10.62,79.7-21.59,119.39-18.43,20.8,1.66,40.43,8.66,59.42,15.43,23.27,8.3,47.32,16.88,73.48,15.51,8-.42,15.64-1.08,23.02-1.73,20.47-1.79,39.81-3.47,61.95.65,6.05,1.13,11.91,2.15,17.66,3.09-.3-1.08-.61-2.15-.93-3.22-5.27-.88-10.65-1.82-16.17-2.85-22.54-4.2-42.08-2.49-62.76-.69"/><path class="cls-3" d="m407.26,185.04c-5.9.61-12.01,1.23-18.32,1.76-26.09,2.18-49.74-5.22-74.77-13.05-18.43-5.77-37.49-11.73-57.44-13.39-46.9-3.9-95.4,7.1-142.3,17.74-9.44,2.14-19.19,4.35-28.62,6.36-25.93,5.53-52.1,4.78-77.83,2.53-.26.99-.5,1.98-.74,2.98,26.11,2.3,52.7,3.1,79.2-2.55,9.44-2.01,19.21-4.23,28.65-6.37,46.67-10.59,94.94-21.53,141.38-17.68,19.61,1.63,38.51,7.54,56.79,13.26,24.21,7.58,49.25,15.41,75.93,13.18,6.34-.53,12.46-1.16,18.38-1.77,22.14-2.28,43.05-4.43,67.06-.18,6.02,1.07,12.14,2.12,18.35,3.12-.26-1.07-.51-2.14-.78-3.2-5.77-.94-11.45-1.92-17.04-2.91-24.42-4.33-45.54-2.15-67.9.14"/><path class="cls-3" d="m402.12,194.33c-4.07.49-8.21,1-12.46,1.48-26.9,3.07-52.99-3.96-78.22-10.77-17.77-4.79-36.15-9.75-54.99-11.32-55.78-4.65-116.52,6.07-173.86,18.35-25.49,5.46-51.33,5.58-76.83,4.25-.22,1-.45,2-.65,3,25.86,1.37,52.11,1.28,78.12-4.29,57.11-12.23,117.59-22.91,172.97-18.29,18.56,1.55,36.81,6.47,54.45,11.22,25.51,6.88,51.89,13.99,79.35,10.85,4.26-.49,8.41-.99,12.49-1.49,25.42-3.09,47.37-5.77,73.76-1.38,6.33,1.05,12.49,2.06,18.53,3.02-.22-1.06-.46-2.12-.69-3.18-5.66-.9-11.42-1.85-17.34-2.83-26.82-4.45-48.97-1.76-74.62,1.37"/><path class="cls-3" d="m478.55,200.81c-29.91-4.58-54.76-.97-83.53,3.21l-4.74.69c-27.94,4.03-55.77-2.29-82.67-8.4-17.01-3.87-34.6-7.86-52.26-9.31-55.11-4.51-119.31-.04-176.14,12.28-24.98,5.42-50.27,6.54-75.29,6.22-.18,1-.34,2.02-.51,3.03,25.36.35,51.01-.77,76.44-6.28,56.54-12.26,120.41-16.71,175.25-12.22,17.45,1.43,34.93,5.4,51.84,9.24,27.17,6.17,55.27,12.56,83.77,8.45l4.74-.69c28.53-4.14,53.17-7.72,82.64-3.22,4.97.76,9.92,1.54,14.84,2.31,1.11.17,2.21.35,3.31.52-.19-1.06-.38-2.11-.58-3.16-.75-.12-1.5-.23-2.26-.35-4.93-.77-9.87-1.55-14.85-2.31"/><path class="cls-3" d="m390.9,213.61c-29.4,5.15-59.46-.46-88.53-5.88-15.82-2.95-32.18-6.01-48.32-7.32-73.33-5.97-131.72-3.93-178.49,6.26-24.67,5.37-48.79,7.48-73.11,8.15-.14,1.02-.3,2.03-.43,3.05,24.64-.65,49.11-2.78,74.18-8.23,46.47-10.12,104.56-12.15,177.6-6.2,15.99,1.3,32.27,4.34,48.01,7.28,29.34,5.48,59.67,11.14,89.61,5.89,37.13-6.51,71.23-4.08,106.32-.21-.14-1.03-.28-2.07-.43-3.1-35.05-3.85-69.15-6.21-106.41.32"/><path class="cls-3" d="m391.59,222.63c-31.49,6.55-64.47,1.63-96.36-3.12-13.83-2.06-28.14-4.2-42.09-5.35-5.64-.47-11.37-.96-17.17-1.46-52.58-4.55-112.19-9.7-163.38,1.54-24.18,5.31-47.93,8.34-71.3,9.98-.1,1.02-.19,2.04-.28,3.06,23.66-1.64,47.71-4.69,72.23-10.08,50.75-11.14,110.1-6.01,162.47-1.48,5.8.5,11.54,1,17.18,1.46,13.85,1.15,28.1,3.27,41.89,5.33,32.16,4.8,65.41,9.76,97.43,3.09,37.31-7.77,71.48-5.69,106.44-1.75-.11-1.03-.23-2.06-.35-3.09-34.97-3.92-69.19-5.93-106.7,1.87"/><path class="cls-3" d="m392.6,231.64c-34.4,8.11-71.52,3.8-107.42-.38-11.02-1.28-22.41-2.61-33.4-3.52-13.7-1.14-27.65-2.75-42.42-4.47-47-5.44-95.6-11.07-139.27-1.38-24.52,5.44-47.39,9.41-69.58,11.99-.07,1.03-.14,2.05-.2,3.08,22.46-2.59,45.61-6.6,70.44-12.11,43.17-9.58,91.51-3.98,138.26,1.43,14.8,1.71,28.77,3.33,42.52,4.48,10.95.91,22.31,2.23,33.31,3.51,36.16,4.21,73.55,8.56,108.47.32,37.33-8.8,71.39-7.22,106.01-3.34-.08-1.03-.17-2.05-.26-3.08-34.68-3.86-68.86-5.4-106.44,3.47"/><path class="cls-3" d="m399.07,239.41c-39.57,10.22-78.28,6.7-119.26,2.96-9.74-.89-19.8-1.81-29.78-2.51-17.69-1.25-35.88-3.86-55.13-6.63-44.54-6.4-90.59-13.03-131.86-2.15-21.95,5.79-42.76,10.08-63,13.01-.02,1.03-.03,2.06-.04,3.09,20.5-2.94,41.58-7.31,63.81-13.17,40.68-10.72,86.42-4.14,130.66,2.22,19.31,2.78,37.54,5.4,55.35,6.66,9.95.7,20,1.62,29.72,2.51,41.26,3.76,80.22,7.31,120.3-3.04,34.91-9.02,67.23-8.12,99.87-4.5-.05-1.03-.12-2.05-.18-3.07-32.76-3.61-65.24-4.46-100.45,4.64"/><path class="cls-3" d="m401.57,248.21c-47.8,12.39-94.55,8.97-144.05,5.36l-8.19-.6c-19.88-1.43-40.88-5.22-61.18-8.88-42.19-7.61-85.83-15.47-126.45-4.4-22.12,6.03-42.4,10.6-61.7,13.81.01,1.02.01,2.05.04,3.06,19.53-3.23,40.06-7.84,62.46-13.94,39.96-10.89,83.25-3.09,125.11,4.46,20.38,3.67,41.46,7.47,61.5,8.92l8.19.59c49.75,3.64,96.75,7.07,145.03-5.44,34.18-8.86,65.91-9.02,97.6-6.15-.02-1.02-.05-2.04-.08-3.06-31.85-2.87-63.78-2.67-98.28,6.27"/><path class="cls-3" d="m404.05,256.78c-55.26,14.56-109.8,13.09-155.87,9.73-21.84-1.59-44.2-6.59-65.82-11.42-39.85-8.91-81.06-18.11-121.55-6.82-21.46,5.99-41.24,10.91-60.53,14.57.05,1.03.13,2.05.19,3.07,19.49-3.68,39.47-8.67,61.15-14.71,39.77-11.09,80.59-1.97,120.07,6.86,21.73,4.86,44.2,9.88,66.26,11.49,46.32,3.38,101.17,4.85,156.86-9.82,33.24-8.76,64.36-9.9,95.16-7.74,0-.65.02-1.3.02-1.95,0-.37-.01-.73-.01-1.09-31-2.17-62.36-1-95.94,7.85"/><path class="cls-3" d="m177.24,268.99c22.53,6.14,45.83,12.48,69.7,14.24,12.4.91,24.66,1.37,36.82,1.37,41.98,0,82.72-5.47,123.61-16.54,32.4-8.77,62.49-10.84,92.46-9.32.03-1.01.07-2.02.1-3.04-30.21-1.53-60.58.57-93.35,9.44-52.4,14.19-104.54,19.11-159.42,15.07-23.58-1.74-46.73-8.04-69.13-14.14-37.73-10.27-76.75-20.9-117.71-9.24-20.89,5.94-40.26,11.21-59.38,15.27.09,1.02.17,2.03.27,3.05,19.31-4.08,38.85-9.4,59.94-15.4,40.15-11.42,77.04-1.38,116.08,9.25"/><path class="cls-3" d="m409.37,273.85c-63.46,17.42-113.57,23.57-162.48,19.93-25.1-1.87-48.65-9.47-71.42-16.83-37.68-12.18-73.28-23.68-115.27-11.44-10.22,2.98-20.02,6.67-29.5,10.24-9.5,3.58-18.7,7.02-28.22,9.8.14,1.01.28,2.01.43,3.01,9.97-2.9,19.51-6.46,28.85-9.98,9.42-3.55,19.17-7.22,29.28-10.16,41.09-11.98,76.26-.61,113.49,11.42,22.94,7.41,46.66,15.08,72.13,16.97,9.04.67,18.12,1.01,27.32,1.01,40.91,0,84.1-6.74,136.19-21.04,31.52-8.65,60.78-11.46,89.3-10.71.06-1.01.14-2.02.19-3.04-28.8-.77-58.39,2.07-90.3,10.82"/><path class="cls-3" d="m412.19,282.46c-56.67,15.88-108.14,28.69-164.24,24.52-26.5-1.97-50.3-10.83-73.33-19.4-36.48-13.58-70.94-26.4-114.23-13.41-10.79,3.24-21.09,7.37-31.05,11.36-8.53,3.42-16.82,6.73-25.32,9.52.18,1,.38,1.99.57,2.98,8.9-2.91,17.48-6.32,25.88-9.69,9.9-3.97,20.14-8.07,30.8-11.27,42.3-12.7,76.3-.05,112.3,13.35,23.22,8.64,47.24,17.58,74.16,19.58,7.36.55,14.63.81,21.84.8,48.27,0,93.89-11.54,143.43-25.42,28.96-8.11,56.93-12.23,85.93-12.32.09-1.01.19-2.02.27-3.04-29.36.07-57.68,4.22-87.02,12.44"/><path class="cls-3" d="m400.16,295.32c-49.62,14.45-96.49,28.09-149.24,24.24-27.81-2.04-52.02-12.04-75.43-21.71-36.03-14.88-70.06-28.94-114.63-15.04-11.16,3.48-21.8,7.97-32.08,12.31-7.46,3.15-15.06,6.34-22.89,9.17.22,1,.44,1.99.67,2.98,8.02-2.88,15.77-6.14,23.4-9.36,10.22-4.31,20.79-8.77,31.81-12.21,43.51-13.57,77.06.28,112.57,14.95,23.63,9.76,48.07,19.86,76.37,21.93,6.25.46,12.4.67,18.5.67,45.88,0,87.77-12.2,131.81-25.03,4.95-1.44,9.92-2.89,14.92-4.33,28.32-8.14,55.51-12.67,82.24-13.62.12-1.02.24-2.03.35-3.05-27.12.92-54.7,5.5-83.43,13.76-5.01,1.44-9.98,2.89-14.93,4.33"/><path class="cls-3" d="m393.77,307.14c-44.33,13.85-90.18,28.18-138.33,23.33-27.75-2.8-51.57-13.23-74.6-23.32-35.22-15.43-68.49-30-113.03-17.97-13.51,3.65-26.45,9.27-38.97,14.71-6.86,2.98-13.84,6.01-20.96,8.74.25.98.53,1.96.8,2.94,7.28-2.78,14.39-5.86,21.38-8.9,12.42-5.4,25.26-10.98,38.55-14.57,43.51-11.75,76.31,2.62,111.03,17.82,23.25,10.18,47.29,20.71,75.51,23.56,6.67.67,13.28.98,19.86.98,41.5,0,81.16-12.4,119.69-24.44,6.42-2.01,12.85-4.01,19.28-5.97,28.81-8.75,56.42-13.88,83.07-15.41.16-1.02.3-2.04.44-3.06-27.08,1.5-55.13,6.69-84.39,15.57-6.44,1.96-12.88,3.97-19.31,5.98"/><path class="cls-3" d="m387.55,318.76c-41.41,13.41-84.22,27.28-128.7,20.75-26.56-3.9-49.66-14.22-72-24.21-36.72-16.42-71.41-31.93-117.79-18.81-13.79,3.9-27.01,9.82-39.79,15.55-6.31,2.83-12.72,5.69-19.25,8.34.29.98.57,1.95.87,2.92,6.66-2.7,13.2-5.62,19.62-8.49,12.68-5.69,25.8-11.56,39.38-15.4,45.32-12.82,79.52,2.47,115.73,18.66,22.53,10.07,45.82,20.49,72.8,24.45,7.99,1.17,15.91,1.7,23.78,1.7,36.61,0,71.94-11.44,106.3-22.57,9.15-2.96,18.61-6.03,27.88-8.8,27.89-8.34,54.2-13.5,79.14-15.5.2-1.03.41-2.06.59-3.09-25.39,1.97-52.19,7.19-80.6,15.69-9.31,2.78-18.78,5.85-27.95,8.82"/><path class="cls-3" d="m384.76,329.25c-39.66,13.44-80.68,27.33-122.74,19.05-25.13-4.95-47.21-15.08-68.56-24.88-38.25-17.55-74.38-34.14-123.02-19.66-13.98,4.16-27.4,10.33-40.38,16.29-5.81,2.67-11.7,5.37-17.69,7.91.32.96.63,1.93.96,2.89,6.1-2.59,12.1-5.33,18-8.05,12.88-5.92,26.2-12.04,39.98-16.14,47.54-14.15,83.17,2.2,120.89,19.51,21.51,9.87,43.76,20.08,69.24,25.1,9.02,1.78,17.98,2.56,26.87,2.56,33.36,0,65.82-11,97.43-21.71,10.76-3.65,21.89-7.42,32.72-10.62,21.39-6.32,47.27-12.84,75.28-15.68.24-1.04.46-2.08.68-3.12-28.61,2.81-55.03,9.45-76.82,15.89-10.89,3.22-22.05,7-32.83,10.65"/><path class="cls-3" d="m383.45,339.28c-38.62,13.77-78.55,28.01-118.74,17.93-23.58-5.91-44.4-15.84-64.54-25.44-39.65-18.9-77.1-36.75-128.48-20.71-14.12,4.41-27.69,10.77-40.81,16.93-5.25,2.46-10.57,4.95-15.97,7.34.35.95.71,1.9,1.06,2.84,5.48-2.42,10.87-4.95,16.19-7.44,13.03-6.11,26.5-12.43,40.42-16.78,50.26-15.69,87.18,1.91,126.27,20.55,20.28,9.67,41.24,19.66,65.11,25.64,9.75,2.44,19.45,3.5,29.11,3.5,31.05,0,61.61-10.89,91.39-21.51,11.82-4.21,24.04-8.57,35.81-12.02,21.79-6.39,46.06-12.49,71.31-15.62.28-1.05.56-2.11.82-3.16-25.87,3.12-50.72,9.35-72.99,15.88-11.86,3.48-24.12,7.85-35.98,12.08"/><path class="cls-3" d="m73.44,321.37c53.44-17.39,91.34,1.7,131.47,21.91,18.95,9.54,38.55,19.41,60.88,26.27,10.12,3.11,20.26,4.43,30.42,4.43,29.46,0,58.94-11.11,87.7-21.94,13.19-4.97,25.66-9.67,37.99-13.27,21.53-6.28,44.22-12.03,67.16-15.38.33-1.06.64-2.13.95-3.2-23.57,3.34-46.88,9.22-68.96,15.67-12.44,3.63-24.96,8.35-38.21,13.34-38.19,14.39-77.69,29.27-116.16,17.46-22.09-6.78-41.57-16.59-60.41-26.08-40.7-20.5-79.15-39.86-133.77-22.08-14.31,4.66-28.06,11.29-41.35,17.7-4.44,2.14-8.93,4.3-13.48,6.41.38.94.76,1.87,1.15,2.81,4.6-2.13,9.15-4.32,13.65-6.49,13.2-6.37,26.85-12.95,40.97-17.55"/><path class="cls-3" d="m422.52,344.61c-12.73,3.7-25.78,8.86-39.6,14.33-38.3,15.14-77.92,30.8-115.19,17.15-20.38-7.47-38.36-17.03-55.74-26.29-41.7-22.19-81.09-43.15-139.25-23.7-14.6,4.88-28.57,11.83-42.08,18.55-3.32,1.65-6.66,3.31-10.04,4.96.4.93.8,1.86,1.22,2.78,3.42-1.66,6.81-3.35,10.17-5.02,13.42-6.67,27.3-13.57,41.7-18.39,56.93-19.04,93.97.67,136.87,23.5,17.48,9.3,35.55,18.92,56.13,26.46,10.46,3.83,21.04,5.44,31.7,5.44,28.45,0,57.4-11.45,85.65-22.61,13.75-5.44,26.74-10.57,39.34-14.24,20.75-6.04,41.79-11.44,62.64-14.89.36-1.03.72-2.05,1.07-3.09-21.94,3.45-43.75,9.01-64.56,15.07"/><path class="cls-3" d="m382.28,368.79c-36.86,14.97-78.65,31.95-114.72,17.02-19.52-8.08-36.36-17.88-52.64-27.35-42.21-24.56-78.66-45.77-140.76-24.71-14.99,5.08-29.28,12.36-43.11,19.41-2.38,1.21-4.78,2.43-7.19,3.64.43.91.87,1.83,1.31,2.73,2.43-1.22,4.85-2.45,7.25-3.68,13.73-6.99,27.92-14.22,42.71-19.24,60.8-20.63,96.7.27,138.27,24.46,16.37,9.53,33.29,19.37,53.01,27.53,10.3,4.26,20.99,6.02,31.87,6.02,28.43,0,58.09-12.05,85.14-23.04,14.16-5.75,27.54-11.19,40.19-14.81,19.48-5.58,39.17-10.62,58.62-14.06.44-1.1.86-2.2,1.29-3.3-20.16,3.47-40.56,8.67-60.74,14.45-12.8,3.67-26.25,9.13-40.5,14.92"/><path class="cls-3" d="m422.26,364.49c-12.64,3.51-25.86,8.6-39.87,13.99-39.04,15.03-79.41,30.58-115.84,16.09-16.52-6.57-32.11-16.83-47.18-26.74-14-9.21-28.48-18.74-43.76-25.37-29.39-12.75-63-12.78-99.89-.07-15.02,5.17-29.32,12.57-43.14,19.72-1.61.83-3.23,1.67-4.85,2.51.46.9.94,1.79,1.41,2.68,1.62-.83,3.23-1.67,4.83-2.5,13.73-7.1,27.92-14.45,42.73-19.55,36.15-12.45,69.02-12.45,97.69-.01,15.04,6.53,29.41,15.98,43.31,25.12,15.2,10,30.92,20.34,47.72,27.03,10.48,4.17,21.36,5.89,32.43,5.89,28.59,0,58.42-11.49,85.62-21.96,13.93-5.37,27.1-10.43,39.59-13.9,17.93-4.98,36.11-9.69,54.21-13.13.49-1.07.98-2.15,1.45-3.23-19.2,3.48-38.22,8.38-56.47,13.44"/><path class="cls-3" d="m421.02,375.51c-12.4,3.3-25.32,7.96-39,12.89-39.51,14.25-80.37,28.99-117.26,14.72-16.4-6.34-31.16-16.98-45.44-27.27-12.91-9.3-26.26-18.92-40.87-25.43-35.21-15.69-74.06-8.2-100.47.85-15.17,5.2-29.58,12.7-43.51,19.96-.82.43-1.65.86-2.48,1.29.5.88.99,1.76,1.5,2.64.79-.41,1.59-.83,2.38-1.24,13.83-7.2,28.13-14.65,43.09-19.78,25.88-8.87,63.94-16.23,98.25-.95,14.32,6.38,27.54,15.91,40.33,25.12,14.43,10.4,29.36,21.15,46.12,27.64,10.84,4.19,22.11,5.91,33.57,5.91,28.67,0,58.54-10.77,85.81-20.61,13.62-4.91,26.48-9.55,38.75-12.81,16.62-4.42,33.11-8.55,49.34-11.74.6-1.14,1.21-2.28,1.79-3.43-17.08,3.26-34.42,7.59-51.91,12.24"/><path class="cls-3" d="m419.06,386.78c-12.08,3.06-24.56,7.23-37.78,11.65-39.94,13.36-81.25,27.16-118.79,13.07-16.26-6.11-30.49-16.88-44.25-27.3-12.09-9.16-24.58-18.63-38.49-24.98-33.89-15.48-72.83-7.88-99.53,1.22-15.22,5.19-29.65,12.69-43.61,19.94.53.86,1.07,1.72,1.61,2.58,13.79-7.17,28.05-14.56,42.98-19.65,26.18-8.92,64.31-16.4,97.29-1.33,13.6,6.21,25.97,15.58,37.92,24.64,13.93,10.55,28.34,21.47,45.01,27.73,11.37,4.27,23.18,6.01,35.18,6.01,28.7,0,58.45-9.95,85.64-19.04,13.16-4.4,25.59-8.55,37.56-11.59,14.01-3.55,28.87-7.31,44.21-10.42.7-1.16,1.39-2.33,2.07-3.5-16.34,3.22-32.17,7.22-47.03,10.98"/><path class="cls-3" d="m422.01,396.01c-12.34,3.01-24.79,6.89-37.96,10.99-41.56,12.95-84.54,26.34-124.68,11.74-16.51-6.01-30.45-16.53-43.93-26.71-9.29-7.01-18.89-14.26-29.35-20.09-41.12-22.89-90.71-7.81-110.12-.26-11.98,4.66-23.43,10.51-34.52,16.28.56.85,1.12,1.7,1.69,2.54,10.93-5.68,22.2-11.44,33.92-16,19.01-7.39,67.55-22.18,107.55.09,10.27,5.72,19.79,12.91,29,19.86,13.66,10.31,27.78,20.97,44.72,27.14,12.81,4.66,25.84,6.55,39,6.55,29.05,0,58.67-9.23,87.61-18.25,13.13-4.09,25.53-7.96,37.78-10.94,11.5-2.81,22.67-5.42,33.56-7.7.84-1.23,1.68-2.47,2.5-3.72-12.74,2.62-25.07,5.62-36.78,8.48"/><path class="cls-3" d="m419.26,406.71c-11.51,2.76-22.99,6.1-35.15,9.65-42.15,12.29-85.74,24.99-127.16,10.73-16.82-5.8-30.63-16.31-43.98-26.47-8.97-6.83-18.25-13.89-28.5-19.62-39.76-22.23-88.77-7.2-107.99.29-10.4,4.05-20.38,8.97-30.07,13.92.59.83,1.2,1.65,1.81,2.48,9.48-4.85,19.24-9.63,29.36-13.58,18.82-7.34,66.78-22.07,105.41-.47,10.06,5.62,19.25,12.62,28.14,19.39,13.54,10.31,27.54,20.97,44.83,26.92,13.41,4.62,26.99,6.49,40.65,6.49,29.45,0,59.24-8.68,88.35-17.17,12.12-3.53,23.56-6.87,35-9.61,9.37-2.24,18.51-4.36,27.48-6.28.96-1.23,1.91-2.46,2.84-3.7-10.09,2.11-20.42,4.5-31.02,7.04"/><path class="cls-3" d="m416.17,417.66c-10.39,2.42-21.12,5.32-31.5,8.12-42.81,11.56-87.07,23.51-129.76,9.62-17.1-5.56-30.09-15.53-43.84-26.08-8.66-6.64-17.61-13.51-27.64-19.14-38.92-21.84-87.62-6.92-106.75.51-8.67,3.36-16.99,7.34-25.09,11.45.63.82,1.25,1.64,1.88,2.44,7.87-3.98,15.94-7.82,24.3-11.07,18.73-7.27,66.38-21.89,104.17-.69,9.85,5.52,18.71,12.32,27.28,18.9,13.35,10.24,27.16,20.84,44.75,26.56,14.06,4.58,28.24,6.42,42.46,6.42,29.81,0,59.76-8.09,89.03-15.99,10.36-2.8,21.06-5.69,31.4-8.1,6.78-1.58,13.43-3.09,20-4.51,1.12-1.26,2.23-2.53,3.33-3.82-7.86,1.67-15.85,3.48-24.02,5.38"/><path class="cls-3" d="m412.75,429.06c-9.27,2.03-18.79,4.36-27.99,6.62-43.26,10.6-87.99,21.55-131.56,8.28-16.96-5.17-30.08-14.5-43.97-24.39-8.47-6.03-17.23-12.27-26.93-17.45-38.61-20.64-87.01-6.53-106.03.5-6.22,2.3-12.26,4.91-18.18,7.66.67.81,1.35,1.61,2.03,2.4,5.61-2.59,11.33-5.05,17.2-7.22,18.64-6.89,66.03-20.73,103.55-.67,9.53,5.09,18.21,11.27,26.6,17.25,13.47,9.59,27.41,19.51,44.84,24.82,14.66,4.46,29.4,6.25,44.15,6.25,29.89,0,59.78-7.32,89.01-14.49,9.18-2.25,18.68-4.58,27.92-6.6,3.47-.76,6.9-1.5,10.31-2.22,1.34-1.3,2.67-2.61,3.99-3.94-4.93,1.03-9.9,2.1-14.94,3.2"/><path class="cls-3" d="m409.26,440.69c-8.25,1.64-16.66,3.46-24.8,5.22-43.64,9.43-88.77,19.19-133,6.8-16.59-4.64-30.17-12.89-44.55-21.62-8.48-5.15-17.25-10.47-26.64-14.94-35.79-17.04-76.61-9.33-104.56.13-3.14,1.07-6.25,2.21-9.33,3.41.74.8,1.48,1.61,2.23,2.4,2.67-1.03,5.36-2.01,8.07-2.93,27.41-9.28,67.41-16.87,102.28-.27,9.25,4.41,17.96,9.69,26.37,14.79,13.92,8.45,28.32,17.18,45.31,21.94,15.24,4.27,30.53,5.96,45.81,5.96,29.8,0,59.55-6.43,88.64-12.72,7.37-1.59,14.97-3.23,22.45-4.74,1.64-1.33,3.27-2.69,4.87-4.06-1.05.21-2.11.41-3.16.62"/><path class="cls-3" d="m380.47,456.85c-42.81,7.91-87.07,16.1-130.27,5.24-16.01-4.02-30.65-11.53-44.81-18.79-9.68-4.96-19.68-10.09-30.11-14.12-27.73-10.72-58.82-10.98-95.04-.82-1.4.39-2.8.82-4.19,1.24.84.81,1.68,1.62,2.52,2.41.83-.24,1.65-.5,2.49-.74,35.56-9.98,66.03-9.74,93.13.73,10.28,3.97,20.21,9.07,29.82,13.99,14.31,7.34,29.11,14.93,45.46,19.04,15.22,3.82,30.52,5.33,45.82,5.33,28.79,0,57.58-5.32,85.73-10.53,2.3-.42,4.59-.84,6.88-1.27,2.07-1.37,4.12-2.76,6.15-4.19-4.52.81-9.04,1.64-13.57,2.48"/><path class="cls-3" d="m248.31,470.86c-16.35-3.63-31.96-10.17-47.06-16.49-9.39-3.93-19.1-8-28.93-11.35-26.52-9.04-52.98-9.99-84.77-2.95.97.83,1.94,1.66,2.93,2.47,30.22-6.37,55.54-5.29,80.87,3.34,9.73,3.32,19.39,7.36,28.73,11.27,15.22,6.37,30.96,12.96,47.57,16.66,16.06,3.57,32.22,4.96,48.38,4.96,22.61,0,45.21-2.72,67.5-5.96,2.66-1.36,5.29-2.78,7.9-4.23-40.6,6.1-82.31,11.35-123.12,2.28"/><path class="cls-3" d="m245.76,482.56c29.1,5.63,58.56,5.43,87.75,3.17,3.49-1.24,6.94-2.55,10.36-3.93-32.43,3.02-65.26,4.03-97.53-2.21-17.32-3.35-33.64-8.06-49.43-12.61-31.02-8.95-60.65-17.49-94.25-14.95,1.29.94,2.59,1.88,3.9,2.8,31.62-1.63,59.92,6.54,89.51,15.07,15.85,4.57,32.24,9.3,49.69,12.68"/><path class="cls-3" d="m243.72,491.28c17.52,2.88,35.18,4.14,52.84,4.41,4.67-.88,9.3-1.89,13.87-3.03-22.14.28-44.3-.78-66.22-4.38-15.79-2.59-31.25-6.16-46.2-9.6-24.87-5.73-48.88-11.27-73.72-12.51,2.01,1.17,4.04,2.32,6.09,3.44,22.43,1.76,44.34,6.8,66.96,12.02,15,3.46,30.5,7.03,46.39,9.64"/><path class="cls-3" d="m265.68,499.53c-7.91-.68-15.84-1.51-23.78-2.58-13.77-1.85-27.7-4.27-41.16-6.62-12.84-2.24-25.81-4.49-38.89-6.29,5.39,2.03,10.87,3.88,16.42,5.54,7.36,1.19,14.67,2.47,21.95,3.74,13.24,2.31,26.92,4.69,40.49,6.53,3.08.11,6.16.19,9.27.19,5.28,0,10.51-.18,15.7-.5"/></g></g></g></g></svg>