<?xml version="1.0" encoding="UTF-8"?><svg id="Layer_2" xmlns="http://www.w3.org/2000/svg" width="1051.26" height="1050.8" xmlns:xlink="http://www.w3.org/1999/xlink" viewBox="0 0 1051.26 1050.8"><defs><style>.cls-1{fill:none;}.cls-2{clip-path:url(#clippath);}.cls-3{fill:#ff7c66;}.cls-4{clip-path:url(#clippath-1);}</style><clipPath id="clippath"><rect class="cls-1" width="1051.26" height="1050.8"/></clipPath><clipPath id="clippath-1"><rect class="cls-1" y="-.03" width="1051.29" height="1050.83"/></clipPath></defs><g id="Layer_1-2"><g id="Partner_and_plus_sign"><g class="cls-2"><g class="cls-4"><path class="cls-3" d="m1028.07,425.65h-396.31V23.07c0-17.71-19.37-28.78-34.96-19.93l-171.22,97.79c-3.78,2.21-6.09,6.18-6.09,10.52v314.21H23.18C10.45,425.65.03,435.8.03,448.62v164.11c0,12.64,10.24,22.97,23.15,22.97h396.31v392.16c0,12.55,10.24,22.97,23.15,22.97h165.96c12.73,0,23.15-10.24,23.15-22.97v-392.16h396.31c12.73,0,23.15-10.15,23.15-22.97v-164.11c0-12.64-10.24-22.97-23.15-22.97"/></g></g></g></g></svg>