<?xml version="1.0" encoding="utf-8"?>
<!-- Generator: Adobe Illustrator 27.7.0, SVG Export Plug-In . SVG Version: 6.00 Build 0)  -->
<svg version="1.1" id="Layer_2_00000057854782830302010440000008034378679942063537_"
	 xmlns="http://www.w3.org/2000/svg" xmlns:xlink="http://www.w3.org/1999/xlink" x="0px" y="0px" viewBox="0 0 500 496.9"
	 style="enable-background:new 0 0 500 496.9;" xml:space="preserve">
<style type="text/css">
	.st0{fill:url(#SVGID_1_);}
	.st1{fill:url(#SVGID_00000046313408830182763240000016118384138533683115_);}
	.st2{fill:url(#SVGID_00000134928606189208535240000017262893076577793932_);}
	.st3{fill:url(#SVGID_00000004509019341502859010000012812167524179009695_);}
	.st4{fill:url(#SVGID_00000085944020260297639220000007081739934517680042_);}
	.st5{fill:url(#SVGID_00000070813341613201764320000001021827735527144351_);}
	.st6{fill:url(#SVGID_00000062888928029282539470000014449032717336955069_);}
	.st7{fill:url(#SVGID_00000165231742711704670830000013448099344290184579_);}
	.st8{fill:url(#SVGID_00000115493949014777955880000006870362761161710484_);}
	.st9{fill:url(#SVGID_00000181807058501795702790000016411179803028648346_);}
	.st10{fill:url(#SVGID_00000150807829801774420840000011603307435463653026_);}
	.st11{fill:url(#SVGID_00000005973670537189238710000014867473010176178571_);}
	.st12{fill:url(#SVGID_00000158721545573917692570000014949711625860342668_);}
	.st13{fill:url(#SVGID_00000151533519105205830760000008828234396602590389_);}
	.st14{fill:url(#SVGID_00000075141006737034756060000008087439005822473610_);}
	.st15{fill:url(#SVGID_00000124875274809548076260000015128547225161330820_);}
	.st16{fill:url(#SVGID_00000109029047552077810620000010309244254840565921_);}
	.st17{fill:url(#SVGID_00000129205919615703537150000016341201887762716330_);}
	.st18{fill:url(#SVGID_00000121277565146414651650000013168247403729538720_);}
	.st19{fill:url(#SVGID_00000088106613092694669680000008715075284197782664_);}
	.st20{fill:url(#SVGID_00000115479499929844594180000005695613657578626215_);}
	.st21{fill:url(#SVGID_00000093865379902890547450000002680191526159875506_);}
	.st22{fill:url(#SVGID_00000139273023243216967890000004639400018066862269_);}
	.st23{fill:url(#SVGID_00000039118097433067995870000009292753592530754734_);}
	.st24{fill:url(#SVGID_00000055666257819693491630000004835071968472204200_);}
	.st25{fill:url(#SVGID_00000019652410068158934430000013983784078688869821_);}
	.st26{fill:url(#SVGID_00000150102831480202227160000008482823045238207383_);}
	.st27{fill:url(#SVGID_00000165217415211175601550000003165704382667341954_);}
	.st28{fill:url(#SVGID_00000134942173593029655860000004639702562123341960_);}
	.st29{fill:url(#SVGID_00000116951345894613649000000013405820153597517748_);}
	.st30{fill:url(#SVGID_00000111880783897449393840000018022985867997964728_);}
	.st31{fill:url(#SVGID_00000070835050409009614930000001215189010735688620_);}
	.st32{fill:url(#SVGID_00000138569094405298803230000000204985872336609408_);}
	.st33{fill:url(#SVGID_00000034059214381077922480000013138115683465106309_);}
	.st34{fill:url(#SVGID_00000000922517882601419400000010759404279201423776_);}
	.st35{fill:url(#SVGID_00000094580088838221952780000011752237095511959963_);}
	.st36{fill:url(#SVGID_00000061464113582316350440000006826092500619357095_);}
	.st37{fill:url(#SVGID_00000181058420794813397000000015993669182115494799_);}
	.st38{fill:url(#SVGID_00000122699990679048726120000009364891530969483198_);}
	.st39{fill:url(#SVGID_00000037687109074340335040000013534290078159293058_);}
	.st40{fill:url(#SVGID_00000023243419207956378420000005335489013895495350_);}
	.st41{fill:url(#SVGID_00000060726429028590057280000005054528948159757197_);}
	.st42{fill:url(#SVGID_00000008109963852182130660000010533388777389198736_);}
	.st43{fill:url(#SVGID_00000120550371020540067020000010269041223886915457_);}
	.st44{fill:url(#SVGID_00000072972186689436738890000017848716855587705999_);}
	.st45{fill:url(#SVGID_00000114064085093145792390000011405199623059059618_);}
	.st46{fill:url(#SVGID_00000028305136584100184230000012599739811227304882_);}
	.st47{fill:url(#SVGID_00000124128772890723656370000010746674412697084579_);}
	.st48{fill:url(#SVGID_00000169522695691466817490000005688494559843562644_);}
	.st49{fill:url(#SVGID_00000114785248675720944550000003017041743527595699_);}
	.st50{fill:url(#SVGID_00000048486080103310196070000011905467317695476622_);}
</style>
<g id="Layer_1-2">
	<g id="Coral_Circle_2">
		<g>
			<g>
				<g>
					<g>
						<linearGradient id="SVGID_1_" gradientUnits="userSpaceOnUse" x1="501.9489" y1="71.4474" x2="224.9489" y2="502.4474">
							<stop  offset="0.1496" style="stop-color:#A03291"/>
							<stop  offset="1" style="stop-color:#4B4FE2"/>
						</linearGradient>
						<path class="st0" d="M288.8,486.8c-25.7,4.2-52.3,8.5-79,6.4c-17.1-1.3-31.5-6.6-46.7-12.3c-6.7-2.5-13.7-5.1-21-7.3
							c-1.5-0.5-2.9-0.9-4.4-1.2c24.1,12.2,50.5,20.5,78.3,24.3c2.6,0.1,5.3,0.2,7.9,0.2c22.2,0,44.1-3.5,65.4-7
							c15.5-2.5,31.3-5.1,47.3-6.3c3.2-1.2,6.3-2.4,9.4-3.7C326.6,480.7,307.5,483.7,288.8,486.8"/>
						
							<linearGradient id="SVGID_00000044890834663726141120000005029388603742865544_" gradientUnits="userSpaceOnUse" x1="493.4633" y1="65.9938" x2="216.4633" y2="496.9938">
							<stop  offset="0.1496" style="stop-color:#A03291"/>
							<stop  offset="1" style="stop-color:#4B4FE2"/>
						</linearGradient>
						<path style="fill:url(#SVGID_00000044890834663726141120000005029388603742865544_);" d="M284.4,475
							c-23.4,4.6-47.6,9.4-72.7,7.6c-17.8-1.2-31.6-7.2-46.3-13.6c-5.3-2.3-10.9-4.7-16.8-7c-13.6-5.2-27.1-7.1-40.3-7
							c1.5,1.1,3.1,2.1,4.6,3.1c11.3,0.4,22.9,2.4,34.5,6.9c5.8,2.2,11.3,4.6,16.6,7c14.9,6.5,29,12.6,47.4,13.9
							c3.7,0.2,7.3,0.4,10.9,0.4c21.5,0,42.3-4.1,62.5-8c25.4-5,51.6-10.1,79.2-7.1c0.3,0,0.5,0,0.8,0.1c1.7-0.9,3.3-1.8,5-2.6
							c-1.8-0.2-3.6-0.4-5.5-0.6C336.4,464.8,310,470,284.4,475"/>
						
							<linearGradient id="SVGID_00000072265959876081180370000002548583426862092967_" gradientUnits="userSpaceOnUse" x1="489.1731" y1="63.2365" x2="212.173" y2="494.2365">
							<stop  offset="0.1496" style="stop-color:#A03291"/>
							<stop  offset="1" style="stop-color:#4B4FE2"/>
						</linearGradient>
						<path style="fill:url(#SVGID_00000072265959876081180370000002548583426862092967_);" d="M281.4,462.8
							c-21.9,5.2-44.5,10.6-68.4,9.3c-18.9-1-31.9-7.2-46.9-14.5c-4-2-8.2-4-12.7-6c-20.1-9-40.2-10.4-60.5-8.2
							c1.1,0.9,2.3,1.8,3.4,2.7c18.8-1.8,37.2-0.1,55.8,8.3c4.4,2,8.6,4,12.6,5.9c15.3,7.4,28.5,13.8,48.1,14.8
							c2.4,0.1,4.8,0.2,7.2,0.2c21.7,0,42.2-4.9,62.2-9.6c25.4-6,51.7-12.3,80.1-8c7,1,14.1,1.9,21.1,2.7c1.4-0.9,2.8-1.8,4.2-2.7
							c-8.3-0.9-16.6-1.9-24.9-3.1C333.7,450.4,307.1,456.7,281.4,462.8"/>
						
							<linearGradient id="SVGID_00000039115622204208387350000004528849765786196148_" gradientUnits="userSpaceOnUse" x1="484.6855" y1="60.3524" x2="207.6856" y2="491.3524">
							<stop  offset="0.1496" style="stop-color:#A03291"/>
							<stop  offset="1" style="stop-color:#4B4FE2"/>
						</linearGradient>
						<path style="fill:url(#SVGID_00000039115622204208387350000004528849765786196148_);" d="M280,450.6
							c-20.8,5.9-42.3,12-65.6,11c-19.6-0.8-31.2-7.3-45.8-15.6c-3.5-2-7.1-4-11-6.1c-25.4-13.5-51.9-13-77.9-7.8
							c1,0.9,1.9,1.8,2.9,2.6c24.7-4.6,49.7-4.7,73.5,8c3.9,2.1,7.4,4.1,10.9,6c15,8.5,26.9,15.2,47.2,16c1.7,0.1,3.4,0.1,5.1,0.1
							c21.8,0,42-5.7,61.5-11.2c26.3-7.5,51.1-14.5,80-9c12.5,2.4,25,4.2,37.5,5.6c1.2-0.9,2.5-1.8,3.7-2.8
							c-13.5-1.4-27.1-3.3-40.6-5.9C331.9,435.9,305.5,443.3,280,450.6"/>
						
							<linearGradient id="SVGID_00000021824655874514246180000012644761111971163022_" gradientUnits="userSpaceOnUse" x1="481.1838" y1="58.1019" x2="204.1838" y2="489.1019">
							<stop  offset="0.1496" style="stop-color:#A03291"/>
							<stop  offset="1" style="stop-color:#4B4FE2"/>
						</linearGradient>
						<path style="fill:url(#SVGID_00000021824655874514246180000012644761111971163022_);" d="M355.8,426.9
							c-28.3-5.2-52.8,3.7-76.6,12.4c-20.1,7.4-40.9,15-64,13.9c-19-0.9-27.5-7.3-39.4-16.1c-3.9-2.9-8.4-6.2-13.6-9.6
							c-30.5-19.6-60.4-15.3-92.8-5.6c0.8,0.9,1.6,1.7,2.5,2.5c31.8-9.4,59.6-12.9,88.7,5.7c5.1,3.3,9.3,6.4,13.4,9.4
							c11.8,8.8,21.1,15.8,41.1,16.7c1.5,0.1,3.1,0.1,4.6,0.1c21.9,0,41.6-7.2,60.7-14.2c24.4-8.9,47.5-17.4,74.9-12.3
							c19.7,3.6,39,6.2,58.3,8.2c1.1-0.9,2.1-1.9,3.2-2.8C396.6,433.4,376.4,430.7,355.8,426.9"/>
						
							<linearGradient id="SVGID_00000083809450801993820940000010032523249044686269_" gradientUnits="userSpaceOnUse" x1="476.6759" y1="55.2047" x2="199.6759" y2="486.2047">
							<stop  offset="0.1496" style="stop-color:#A03291"/>
							<stop  offset="1" style="stop-color:#4B4FE2"/>
						</linearGradient>
						<path style="fill:url(#SVGID_00000083809450801993820940000010032523249044686269_);" d="M161.4,417.8
							c5.3,4.1,9.6,8,13.7,11.9c11.1,10.5,19.9,18.7,40.8,19.6c1.2,0,2.4,0.1,3.6,0.1c22.4,0,41.6-9,60.1-17.6
							c23.5-11,45.6-21.3,73.9-15.2c5.8,1.2,11.4,2.5,16.9,3.8c17.3,3.9,34.1,7.6,51.6,10.2c1-0.9,1.9-1.8,2.9-2.8
							c-18.3-2.6-35.7-6.5-53.8-10.5c-5.6-1.2-11.2-2.5-17-3.8c-29.3-6.4-53,4.7-75.9,15.4c-19.2,9-39,18.3-62.2,17.3
							c-19.7-0.9-28.1-8.7-38.8-18.7c-4-3.7-8.5-7.9-13.9-12.1C130.1,390,96.8,398.3,60,411.5c0.7,0.9,1.5,1.7,2.2,2.5
							C97.6,401.3,129.7,393.6,161.4,417.8"/>
						
							<linearGradient id="SVGID_00000076580500242545511230000010438111908141960112_" gradientUnits="userSpaceOnUse" x1="472.9137" y1="52.7868" x2="195.9137" y2="483.7868">
							<stop  offset="0.1496" style="stop-color:#A03291"/>
							<stop  offset="1" style="stop-color:#4B4FE2"/>
						</linearGradient>
						<path style="fill:url(#SVGID_00000076580500242545511230000010438111908141960112_);" d="M356.1,400.4
							c-31-10.5-56.1,2-80.3,14.1c-18.3,9.2-37.3,18.6-59.1,18.6c-0.2,0-0.4,0-0.6,0c-20.9-0.2-30-9-41.4-20.2
							c-4.9-4.8-9.9-9.7-16.5-14.5c-34.1-25.4-73.8-9.9-106,3.3c0.7,0.9,1.3,1.7,2,2.6c32.9-13.4,69.7-27.5,102.1-3.3
							c6.4,4.8,11.4,9.6,16.2,14.3c11.5,11.2,21.5,20.9,43.6,21c0.2,0,0.4,0,0.7,0c22.6,0,41.9-9.6,60.5-19
							c24.8-12.4,48.1-24,77.9-14c26.1,8.9,51.8,13.6,77.6,16.3c0.9-1,1.8-1.9,2.7-2.9C408.9,414.1,382.7,409.4,356.1,400.4"/>
						
							<linearGradient id="SVGID_00000183230195314668815400000002897063930429145012_" gradientUnits="userSpaceOnUse" x1="469.2881" y1="50.4566" x2="192.288" y2="481.4566">
							<stop  offset="0.1496" style="stop-color:#A03291"/>
							<stop  offset="1" style="stop-color:#4B4FE2"/>
						</linearGradient>
						<path style="fill:url(#SVGID_00000183230195314668815400000002897063930429145012_);" d="M354.1,384.9
							c-32.5-11.3-57.6,1.6-82,14.1c-17.3,8.9-35.2,18.1-56.2,19.2c-20.6,1.1-30.1-7.5-42.2-18.3c-4.9-4.4-10-9-16.4-13.4
							c-33.9-23.6-70.1-11.5-107.2,4.2c-1.7,0.7-3.3,1.4-4.8,2c0.6,0.9,1.2,1.8,1.9,2.6c1.4-0.6,2.8-1.1,4.2-1.7
							c37.7-15.9,71.5-27.2,104.2-4.5c6.2,4.3,11.2,8.8,16.1,13.2c11.4,10.3,21.4,19.2,40.9,19.2c1.1,0,2.3,0,3.6-0.1
							c21.6-1.1,39.8-10.5,57.5-19.5c24.8-12.7,48.3-24.8,79.5-13.9c31,10.8,60.3,16.8,89.7,20.3c0.8-1,1.6-1.9,2.3-2.9
							C415.2,401.8,385.6,395.9,354.1,384.9"/>
						
							<linearGradient id="SVGID_00000176007345827167138860000008014932739089501609_" gradientUnits="userSpaceOnUse" x1="465.3209" y1="47.9069" x2="188.3208" y2="478.9069">
							<stop  offset="0.1496" style="stop-color:#A03291"/>
							<stop  offset="1" style="stop-color:#4B4FE2"/>
						</linearGradient>
						<path style="fill:url(#SVGID_00000176007345827167138860000008014932739089501609_);" d="M352.4,369.5
							c-34.7-12.3-58.9,0.5-84.5,14c-16.3,8.6-33.1,17.5-53.3,19.8c-20.3,2.3-30.5-6.1-43.3-16.7c-5-4.1-10.1-8.4-16.3-12.4
							c-35.7-23.1-70.2-11-105.3,4.5c-3.8,1.7-7.2,3.2-10.5,4.5c0.6,0.9,1.2,1.8,1.7,2.7c3.2-1.3,6.5-2.7,10.1-4.3
							c34.3-15.2,68-27,102.3-4.8c6.1,3.9,11.1,8.1,16,12.2c11.4,9.5,21.5,17.8,38.8,17.8c2.2,0,4.4-0.1,6.9-0.4
							c20.8-2.4,37.9-11.4,54.4-20.1c25-13.2,48.6-25.7,82-13.8l7,2.5c30,10.7,58.4,20.8,89.9,26.5c0.7-0.9,1.5-1.9,2.2-2.8
							c-31.9-5.6-60.6-15.8-91-26.6L352.4,369.5L352.4,369.5z"/>
						
							<linearGradient id="SVGID_00000126284335706604082360000004527135640445099395_" gradientUnits="userSpaceOnUse" x1="460.7018" y1="44.9383" x2="183.7018" y2="475.9383">
							<stop  offset="0.1496" style="stop-color:#A03291"/>
							<stop  offset="1" style="stop-color:#4B4FE2"/>
						</linearGradient>
						<path style="fill:url(#SVGID_00000126284335706604082360000004527135640445099395_);" d="M444.2,386.3
							c-20.4-5.2-40.3-12.6-59.5-19.8c-12.4-4.6-25.2-9.4-38.1-13.6c-36.4-11.7-59.7,1.2-84.4,14.9c-15,8.3-30.5,16.9-49.8,20.4
							c-19.9,3.6-30.8-4.4-44.7-14.6c-4.3-3.2-8.8-6.5-14-9.7c-29.3-18.3-60.1-18.5-99.8-0.4c-8.3,3.8-15.2,6.9-21.3,9.3
							c0.5,0.9,1.1,1.8,1.6,2.7c6.1-2.4,12.9-5.5,21-9.1c38.6-17.6,68.5-17.5,96.8,0.2c5,3.1,9.5,6.4,13.8,9.5
							c13.9,10.2,25.9,19,47.1,15.2c19.8-3.6,35.5-12.3,50.7-20.7c24.1-13.4,46.8-26,81.9-14.6c12.8,4.1,25.6,8.9,37.9,13.5
							c19.3,7.2,39.2,14.6,59.8,19.9c4,1,7.9,1.8,11.7,2.5c0.7-0.9,1.3-1.9,2-2.8C452.9,388.3,448.5,387.4,444.2,386.3"/>
						
							<linearGradient id="SVGID_00000062894950288039430980000018132010172102391998_" gradientUnits="userSpaceOnUse" x1="456.8888" y1="42.4877" x2="179.8888" y2="473.4877">
							<stop  offset="0.1496" style="stop-color:#A03291"/>
							<stop  offset="1" style="stop-color:#4B4FE2"/>
						</linearGradient>
						<path style="fill:url(#SVGID_00000062894950288039430980000018132010172102391998_);" d="M444.4,375.3
							c-19-5.6-37.5-13.1-55.5-20.4c-14.7-5.9-29.9-12.1-45.2-17.1c-24.2-8-45.8-8.6-65.9-1.9c-12.1,4-22.5,11.3-32.5,18.4
							c-10.9,7.6-22.1,15.5-35.4,19c-20.1,5.2-32-2.5-47-12.2c-4.2-2.8-8.6-5.6-13.5-8.4c-31-17.5-60.7-17.7-96.3-0.7
							c-10.3,4.9-18.4,8.6-25.4,11.1c0.5,1,1,1.9,1.5,2.8c7-2.6,15.1-6.3,25.2-11.1c35.1-16.7,63-16.5,93.4,0.6
							c4.8,2.7,9.2,5.5,13.4,8.3c15.1,9.8,28.1,18.2,49.5,12.6c13.8-3.6,25.3-11.7,36.4-19.5c9.8-6.9,20-14.1,31.7-18
							c19.5-6.5,40.4-5.9,64,1.9c15.2,5,30.4,11.1,45,17.1c18,7.3,36.7,14.8,55.8,20.5c6,1.8,12,3.1,17.9,4.2c0.6-1,1.2-1.9,1.8-2.9
							C456.9,378.6,450.7,377.2,444.4,375.3"/>
						
							<linearGradient id="SVGID_00000117643074877481504240000001824766573575185538_" gradientUnits="userSpaceOnUse" x1="452.9446" y1="39.9528" x2="175.9446" y2="470.9528">
							<stop  offset="0.1496" style="stop-color:#A03291"/>
							<stop  offset="1" style="stop-color:#4B4FE2"/>
						</linearGradient>
						<path style="fill:url(#SVGID_00000117643074877481504240000001824766573575185538_);" d="M444.7,364.6
							c-18.5-6-36.7-13.8-54.2-21.3c-16.4-7-33.4-14.2-50.6-20.1c-16.6-5.6-41.6-12.2-66.8-4.6c-13.4,4-24.2,12.4-34.6,20.5
							c-9.6,7.4-19.5,15.1-31.1,19.2c-20.2,7-33-0.3-49.3-9.6c-4.1-2.3-8.3-4.8-12.9-7.1c-33.5-17-60.5-17.3-93.1-1
							C40,346.7,30.9,350.9,23,353.4c0.4,1,0.9,1.9,1.3,2.8c8-2.6,17.2-6.9,29.2-12.9c31.6-15.8,57.8-15.5,90.3,1
							c4.5,2.3,8.7,4.7,12.8,7c16.3,9.3,30.4,17.4,51.9,9.9c12.1-4.2,22.2-12.1,32-19.6c10.2-7.9,20.8-16.1,33.6-20
							c24.3-7.4,48.7-0.9,64.9,4.6c17.1,5.8,34,13,50.4,20c17.6,7.5,35.9,15.3,54.5,21.4c7.9,2.6,15.6,4.4,23.3,5.7
							c0.5-1,1.1-1.9,1.6-2.9C460.7,369.1,452.8,367.2,444.7,364.6"/>
						
							<linearGradient id="SVGID_00000032615523948907493850000002449371056451664012_" gradientUnits="userSpaceOnUse" x1="448.5075" y1="37.1011" x2="171.5075" y2="468.1011">
							<stop  offset="0.1496" style="stop-color:#A03291"/>
							<stop  offset="1" style="stop-color:#4B4FE2"/>
						</linearGradient>
						<path style="fill:url(#SVGID_00000032615523948907493850000002449371056451664012_);" d="M445.3,353.9
							c-17.2-6.3-34.2-14.1-50.6-21.6c-18.9-8.7-38.4-17.7-58.5-24.4c-20.7-6.9-45.1-13.1-68.8-6.4c-14.4,4.1-25.3,13.5-35.9,22.6
							c-8.2,7.1-16.6,14.4-26.6,19c-21,9.7-36.2,2.6-55.5-6.4c-3.5-1.6-7.2-3.4-11-5c-33.6-14.6-56.4-18.9-88.3-2.3
							c-13.7,7.2-23.4,11.7-31.9,13.9c0.4,1,0.8,2,1.2,2.9c8.6-2.3,18.5-6.9,32.1-14c30.9-16.1,52.2-12.1,85.6,2.4
							c3.8,1.6,7.4,3.3,10.9,5c19.2,9,35.8,16.7,58.1,6.4c10.4-4.8,19-12.2,27.3-19.4c10.3-8.9,20.9-18.1,34.7-22
							c22.9-6.5,46.7-0.5,67,6.3c20,6.7,39.4,15.6,58.2,24.3c16.4,7.6,33.4,15.4,50.8,21.7c9.5,3.4,18.7,5.8,27.7,7.3
							c0.5-1,1-2,1.5-3C464.2,359.7,454.9,357.4,445.3,353.9"/>
						
							<linearGradient id="SVGID_00000025422212991832677660000003271122743307382190_" gradientUnits="userSpaceOnUse" x1="445.9935" y1="35.4854" x2="168.9935" y2="466.4854">
							<stop  offset="0.1496" style="stop-color:#A03291"/>
							<stop  offset="1" style="stop-color:#4B4FE2"/>
						</linearGradient>
						<path style="fill:url(#SVGID_00000025422212991832677660000003271122743307382190_);" d="M450.5,346
							c-12.7-5.1-25.5-10.6-37.9-15.9c-26.6-11.4-54-23.2-82.2-32c-21.3-6.6-44-12.7-67.2-7.1c-15.8,3.8-27.7,13.1-39.3,22.2
							c-7.8,6.1-15.9,12.5-25.2,17.1c-22.6,11.2-40.1,4-62.2-5.1l-3.9-1.6c-34.2-13.9-53-21.6-89.2-0.4c-1.7,1-3.3,2-5,3
							c-7.4,4.4-14.5,8.7-22.5,10.9c0.4,1,0.7,2,1.1,3c8.2-2.3,15.5-6.6,23-11.1c1.6-1,3.3-2,5-3c34.9-20.4,52.1-13.4,86.4,0.6
							l3.9,1.6c22,9,41,16.8,64.8,5c9.5-4.7,17.8-11.2,25.7-17.4c11.8-9.3,23-18,38.1-21.6c22.4-5.4,44.7,0.6,65.6,7.1
							c28,8.7,55.4,20.5,81.9,31.8c12.4,5.3,25.2,10.8,38,16c9,3.6,17.7,6,26.4,7.6c0.5-1,0.9-2,1.4-3
							C468.4,352.1,459.6,349.7,450.5,346"/>
						
							<linearGradient id="SVGID_00000081623501503768175410000001678397796929739430_" gradientUnits="userSpaceOnUse" x1="441.4831" y1="32.5866" x2="164.4831" y2="463.5866">
							<stop  offset="0.1496" style="stop-color:#A03291"/>
							<stop  offset="1" style="stop-color:#4B4FE2"/>
						</linearGradient>
						<path style="fill:url(#SVGID_00000081623501503768175410000001678397796929739430_);" d="M452.4,337.2
							c-36.7-17-77-31.9-123.2-45.7l-2.9-0.9c-21.2-6.4-43.2-12.9-65.9-9.6c-18.1,2.7-32.3,12.3-46,21.5
							c-6.6,4.5-13.4,9.1-20.6,12.9c-24.2,12.9-43.3,7.4-67.5-1.8l-4.5-1.7c-32.1-12.2-46.7-17.8-81.1,2.1
							c-12,7-20.8,10.5-28.6,11.7c0.3,1,0.6,2,1,3c8-1.3,17.1-5,29.2-12c33-19.1,46.3-14.1,78.4-1.9l4.5,1.7
							c25,9.5,44.7,15.1,70.1,1.6c7.4-4,14.3-8.6,20.9-13.1c14-9.5,27.3-18.5,44.7-21c22-3.2,43.6,3.2,64.5,9.5l2.9,0.9
							c46.1,13.7,86.3,28.6,122.8,45.5c9.7,4.5,18.9,7.4,27.9,9.3c0.4-1,0.9-2,1.3-3C471.3,344.6,462.1,341.7,452.4,337.2"/>
						
							<linearGradient id="SVGID_00000114050968563303422230000015020105031270058399_" gradientUnits="userSpaceOnUse" x1="437.6171" y1="30.1019" x2="160.6171" y2="461.1019">
							<stop  offset="0.1496" style="stop-color:#A03291"/>
							<stop  offset="1" style="stop-color:#4B4FE2"/>
						</linearGradient>
						<path style="fill:url(#SVGID_00000114050968563303422230000015020105031270058399_);" d="M454.5,328.4
							c-35.3-18.7-71.9-28.7-110.7-39.4c-5-1.4-9.9-2.7-14.9-4.1c-3.8-1.1-7.6-2.2-11.5-3.3c-19.3-5.6-39.3-11.5-59.9-10.3
							c-21.4,1.2-37.2,10.9-54.1,21.3c-4.1,2.5-8.4,5.2-12.8,7.7c-24.8,14.1-44.1,11.8-69.2,2.9c-4.3-1.5-8.5-3.5-13.1-5.6
							c-8.9-4.2-18.1-8.5-27.7-9c-13.3-0.7-21.1,4.2-30.1,9.8c-3.3,2.1-6.8,4.3-10.7,6.3c-13.6,7-22.8,10.3-30.8,11
							c0.3,1,0.6,2,0.9,3.1c8.3-0.9,17.7-4.3,31.4-11.3c4.1-2.1,7.6-4.3,10.9-6.4c8.5-5.4,15.9-10,28.2-9.4c9,0.5,17.9,4.7,26.6,8.7
							c4.4,2.1,8.9,4.2,13.3,5.8c26,9.2,46,11.6,71.8-3.1c4.4-2.5,8.7-5.2,12.9-7.7c16.5-10.1,32-19.6,52.6-20.8
							c20.1-1.1,39.8,4.6,58.9,10.2c3.8,1.1,7.7,2.2,11.5,3.3c5,1.4,10,2.8,14.9,4.1c38.6,10.6,75,20.6,110.1,39.1
							c10.1,5.4,19.7,8.8,29.1,10.9c0.4-1,0.8-2,1.2-3C474,337.1,464.4,333.7,454.5,328.4"/>
						
							<linearGradient id="SVGID_00000070838441383515831130000000870773577496279195_" gradientUnits="userSpaceOnUse" x1="433.9608" y1="27.752" x2="156.9608" y2="458.752">
							<stop  offset="0.1496" style="stop-color:#A03291"/>
							<stop  offset="1" style="stop-color:#4B4FE2"/>
						</linearGradient>
						<path style="fill:url(#SVGID_00000070838441383515831130000000870773577496279195_);" d="M51.1,290.5
							c7.6-5.4,14.2-10,26.1-9.6c8.9,0.3,17.4,4.3,25.7,8.1c4.5,2.1,9.2,4.3,13.9,5.9c28.9,9.5,48.8,7.5,73.4-7.5
							c47.6-29,81.1-20.3,131.9-7.3l6.6,1.7c9.6,2.5,19.4,4.7,28.9,6.9c34.4,7.9,66.9,15.3,97.5,33.7c11.1,6.7,20,11.5,29,14.4
							c0.4-1,0.7-2,1.1-2.9c-8.8-2.8-17.4-7.5-28.5-14.2c-31-18.7-63.7-26.2-98.4-34.1c-9.4-2.2-19.2-4.4-28.8-6.9l-6.6-1.7
							c-51.5-13.3-85.6-22-134.3,7.6c-23.7,14.5-42.9,16.4-70.8,7.2c-4.5-1.5-8.9-3.6-13.6-5.8c-8.5-4-17.3-8.1-26.9-8.4
							c-12.9-0.4-20.2,4.8-28,10.2c-3.3,2.3-6.7,4.7-10.7,6.9c-14.3,7.7-23.6,10.9-32.1,11.1c0.2,1,0.5,2.1,0.8,3.1
							c8.7-0.4,18.4-3.7,32.8-11.4C44.3,295.3,47.8,292.8,51.1,290.5"/>
						
							<linearGradient id="SVGID_00000132055127363088811000000017758638844264694155_" gradientUnits="userSpaceOnUse" x1="430.2894" y1="25.3925" x2="153.2894" y2="456.3925">
							<stop  offset="0.1496" style="stop-color:#A03291"/>
							<stop  offset="1" style="stop-color:#4B4FE2"/>
						</linearGradient>
						<path style="fill:url(#SVGID_00000132055127363088811000000017758638844264694155_);" d="M458.6,311.2
							c-28.9-19-60-24.3-93-29.9c-12.4-2.1-25.3-4.3-37.9-7.3c-10.2-2.4-20-5.3-29.6-8.1c-39.3-11.5-73.2-21.4-112.4,4
							c-25.5,16.6-44.1,19.4-71.2,10.8c-4.7-1.5-9.3-3.7-13.7-5.8c-8.2-3.9-16.8-8-26.5-8h-0.1c-12.6,0-19.3,5.2-26.4,10.7
							c-3.2,2.5-6.6,5.1-10.7,7.4c-14.5,8.2-24,11.1-32.8,10.9c0.2,1.1,0.4,2.1,0.6,3.2c9.1,0.1,19-3,33.8-11.3
							c4.3-2.4,7.8-5.1,11.1-7.7c6.9-5.4,12.9-10,24.4-10h0.1c9,0,16.9,3.8,25.2,7.7c4.5,2.2,9.2,4.4,14.1,6
							c27.7,8.9,47.7,5.9,73.8-11.1c38-24.7,71.3-15,109.8-3.6c9.6,2.8,19.4,5.7,29.7,8.1c12.7,3,25.6,5.2,38.1,7.4
							c32.6,5.6,63.4,10.9,91.8,29.5c11.2,7.3,20,13.1,29.6,16.3c0.3-1,0.7-2,1-3C478.3,324.1,469.8,318.6,458.6,311.2"/>
						
							<linearGradient id="SVGID_00000121238639242537955150000002057803512500314249_" gradientUnits="userSpaceOnUse" x1="426.7367" y1="23.1092" x2="149.7367" y2="454.1092">
							<stop  offset="0.1496" style="stop-color:#A03291"/>
							<stop  offset="1" style="stop-color:#4B4FE2"/>
						</linearGradient>
						<path style="fill:url(#SVGID_00000121238639242537955150000002057803512500314249_);" d="M40.3,275.1
							c26-18.1,36.1-15.6,64.2-5.2c34.4,12.7,49,6.4,76.7-12.1c34.7-23.3,75.5-9.6,115,3.6c13.3,4.5,26,8.7,38.3,11.5
							c13.9,3.2,27.5,5,40.8,6.8c30.8,4.1,59.8,8,87.1,28.2c10.1,7.5,18,12.8,26.2,15.7c0.3-1,0.6-2,0.9-3
							c-7.8-2.8-15.4-7.9-25.3-15.2c-27.9-20.7-57.4-24.6-88.6-28.8c-13.1-1.8-26.7-3.6-40.5-6.7c-12.2-2.8-24.7-7-38-11.4
							c-40.2-13.5-81.8-27.4-117.8-3.2c-27.2,18.3-40.7,24.1-73.8,11.8c-28.7-10.6-39.9-13.3-67.1,5.6
							C23.6,283,13.5,286.9,2.6,286.3c0.2,1.1,0.3,2.1,0.5,3.2C14.5,289.7,25.1,285.7,40.3,275.1"/>
						
							<linearGradient id="SVGID_00000009583643655927204990000005486735378359434426_" gradientUnits="userSpaceOnUse" x1="423.2296" y1="20.8552" x2="146.2296" y2="451.8552">
							<stop  offset="0.1496" style="stop-color:#A03291"/>
							<stop  offset="1" style="stop-color:#4B4FE2"/>
						</linearGradient>
						<path style="fill:url(#SVGID_00000009583643655927204990000005486735378359434426_);" d="M37.8,266.1
							c25.6-18.1,34.8-14.9,62.1-5.4c33.5,11.7,46.7,2.5,70.7-14.1c1.5-1.1,3.1-2.2,4.8-3.3c20.1-13.8,36.9-12.8,61-6
							c11.8,3.3,23.6,7.1,35.1,10.8c20.9,6.6,42.4,13.5,64.6,18c14,2.8,27.9,4.1,41.3,5.3c31.4,2.9,61.1,5.6,88,27.3
							c9.9,8,17.5,13.8,25.6,17c0.3-1,0.6-2,0.8-3.1c-7.5-3.1-14.7-8.6-24.4-16.4c-27.7-22.3-57.8-25-89.7-28
							c-13.3-1.2-27.1-2.5-41-5.3c-22-4.4-43.5-11.3-64.3-17.9c-11.5-3.7-23.3-7.4-35.2-10.8c-24.4-6.9-42.7-8.1-63.7,6.4
							c-1.6,1.1-3.2,2.2-4.8,3.3C145,260.6,133,269,101,257.8c-29.6-10.3-39.2-12.5-65,5.8c-14,10-24,13.5-34.4,13
							c0.1,1.1,0.2,2.1,0.4,3.2C12.6,280.1,23.2,276.4,37.8,266.1"/>
						
							<linearGradient id="SVGID_00000145760156969974101220000001271773655486650274_" gradientUnits="userSpaceOnUse" x1="419.4724" y1="18.4405" x2="142.4724" y2="449.4405">
							<stop  offset="0.1496" style="stop-color:#A03291"/>
							<stop  offset="1" style="stop-color:#4B4FE2"/>
						</linearGradient>
						<path style="fill:url(#SVGID_00000145760156969974101220000001271773655486650274_);" d="M35,258.3
							c23.4-16.9,34.2-14.1,60.1-7.1l2.2,0.6c28.2,7.5,39.8-0.1,57.4-11.6c4.4-2.9,8.9-5.8,14.1-8.9c20.8-12.1,42.5-7.5,64.7-1.2
							c9.7,2.7,19.4,5.6,28.8,8.4c24.7,7.4,50.3,15.1,76.7,19.7c13.4,2.4,27.1,3.4,40.4,4.5c32,2.5,62.2,4.8,88.9,24l1.9,1.4
							c9.1,6.6,16.3,11.7,23.9,14.9c0.2-1,0.5-2.1,0.7-3.1c-7-3.1-13.9-8-22.7-14.4l-1.9-1.4c-27.4-19.7-59.5-22.2-90.5-24.6
							c-13.2-1-26.8-2.1-40.1-4.4c-26.2-4.6-51.7-12.3-76.4-19.7c-9.4-2.8-19.1-5.7-28.8-8.5c-22.9-6.4-45.3-11.2-67.1,1.6
							c-5.4,3.1-10.1,6.2-14.3,9c-16.9,11.1-28,18.3-54.8,11.2l-2.2-0.6c-26.2-7-38.1-10.2-62.8,7.6c-13.3,9.6-22.7,13.4-32.4,13.5
							c0.1,1,0.2,2.1,0.3,3.1C11.2,272.2,21.2,268.3,35,258.3"/>
						
							<linearGradient id="SVGID_00000144320976699171765050000017994347647711473585_" gradientUnits="userSpaceOnUse" x1="415.551" y1="15.9203" x2="138.551" y2="446.9203">
							<stop  offset="0.1496" style="stop-color:#A03291"/>
							<stop  offset="1" style="stop-color:#4B4FE2"/>
						</linearGradient>
						<path style="fill:url(#SVGID_00000144320976699171765050000017994347647711473585_);" d="M32.8,250.2
							c21-15.7,33.2-13.4,55.5-9.1c2.1,0.4,4.3,0.8,6.6,1.2c24.2,4.4,35.2-2.9,49.1-12.2c5.5-3.7,11.2-7.5,18.4-11
							c20.6-10.2,46.5-2.8,67.3,3.2l1.2,0.4c8.7,2.5,17.4,5.1,25.8,7.7c27.8,8.4,56.5,17,86.3,22.1c14,2.4,28.8,3.1,43.1,3.8
							c29.4,1.5,59.9,3,85.1,18.7c2.7,1.7,5.2,3.3,7.6,4.9c6.5,4.1,12,7.7,17.7,10.3c0.2-1.1,0.4-2.2,0.5-3.2
							c-5.3-2.5-10.5-5.8-16.5-9.6c-2.4-1.5-5-3.2-7.7-4.9c-25.9-16.1-56.8-17.6-86.6-19.1c-14.2-0.7-29-1.4-42.8-3.8
							c-29.6-5-58.2-13.6-85.9-22c-8.4-2.5-17.2-5.2-25.9-7.7l-1.2-0.4c-21.3-6.2-47.9-13.8-69.6-3.1c-7.4,3.7-13.4,7.7-18.8,11.2
							c-13.3,8.9-23.8,15.9-46.8,11.7c-2.3-0.4-4.5-0.8-6.6-1.2c-22.4-4.2-35.9-6.8-58,9.7c-12.2,9.2-21.1,13.3-30.3,14
							c0.1,1,0.1,2.1,0.2,3.1C10.2,264.2,19.7,260,32.8,250.2"/>
						
							<linearGradient id="SVGID_00000037675766876555801330000008494035712820028583_" gradientUnits="userSpaceOnUse" x1="411.1545" y1="13.0947" x2="134.1545" y2="444.0947">
							<stop  offset="0.1496" style="stop-color:#A03291"/>
							<stop  offset="1" style="stop-color:#4B4FE2"/>
						</linearGradient>
						<path style="fill:url(#SVGID_00000037675766876555801330000008494035712820028583_);" d="M31,241.9
							c18.5-14.2,31.2-12.8,50.5-10.6c3.6,0.4,7.4,0.8,11.5,1.2c20.8,1.8,31.7-5.8,43.2-13.9c6.1-4.3,12.4-8.7,20.6-12.2
							c18.2-7.8,43.3,0,63.4,6.3c2.9,0.9,5.6,1.8,8.2,2.5c3.8,1.1,7.6,2.2,11.4,3.4c35.6,10.6,69.3,20.5,105.8,26.2
							c14.2,2.2,29.7,2.6,44.7,3.1c29.1,0.8,59.1,1.7,83.6,14.7c4.6,2.5,8.6,4.9,12.5,7.2c4.1,2.5,8,4.8,11.9,6.7
							c0.1-1.1,0.2-2.2,0.3-3.3c-3.5-1.8-6.9-3.8-10.6-6.1c-3.9-2.3-8-4.8-12.7-7.3c-25.1-13.4-55.6-14.2-85-15.1
							c-15.6-0.4-30.4-0.9-44.4-3c-36.3-5.6-69.9-15.5-105.4-26.1c-3.8-1.1-7.6-2.2-11.4-3.4c-2.6-0.8-5.3-1.6-8.2-2.5
							c-20.6-6.4-46.2-14.4-65.6-6.1c-8.5,3.6-14.9,8.2-21.2,12.5c-11.5,8.1-21.5,15.1-41.2,13.4c-4.1-0.4-7.8-0.8-11.4-1.2
							c-19.3-2.2-33.3-3.8-52.8,11.2c-11.9,9.1-20.4,13.6-29,14.8c0,1.1,0.1,2.1,0.1,3.2C9.4,256.2,18.5,251.6,31,241.9"/>
						
							<linearGradient id="SVGID_00000004548148892661416720000003302981346429553793_" gradientUnits="userSpaceOnUse" x1="406.6721" y1="10.2138" x2="129.6721" y2="441.2138">
							<stop  offset="0.1496" style="stop-color:#A03291"/>
							<stop  offset="1" style="stop-color:#4B4FE2"/>
						</linearGradient>
						<path style="fill:url(#SVGID_00000004548148892661416720000003302981346429553793_);" d="M75.8,222.4
							c5.1,0.2,10.3,0.5,16.2,0.4c17.7-0.2,28.2-8.2,38.4-15.9c6.5-4.9,13.2-10,21.8-13.2c16.2-6,41.8,3,60.5,9.6
							c4.8,1.7,9.3,3.3,13.1,4.4c38.9,11.9,80.6,24,124.7,30.3c14.8,2.1,30.8,2.2,47.6,2.2c28.1,0.1,57.2,0.1,80.5,10.6
							c6.1,2.7,11.2,5.7,16.1,8.6c1.6,1,3.3,1.9,4.9,2.8c0.1-1.2,0.1-2.4,0.1-3.5c-1.1-0.6-2.3-1.3-3.4-2c-5-2.9-10.1-5.9-16.4-8.8
							c-23.9-10.7-53.3-10.8-81.8-10.9c-16.8,0-32.6-0.1-47.2-2.2c-43.8-6.3-85.4-18.4-124.2-30.2c-3.8-1.2-8.3-2.7-13-4.4
							c-20.2-7.1-45.3-16-62.6-9.6c-9.1,3.4-16,8.6-22.6,13.6c-10.2,7.7-19.9,15-36.5,15.2c-5.7,0.1-10.9-0.2-16-0.4
							c-17.4-0.9-31.2-1.5-48.4,11.9c-11.2,9-19.4,13.6-27.6,15.5c0,0.9,0,1.7,0,2.6c0,0.2,0,0.4,0,0.7c8.8-1.9,17.6-6.7,29.5-16
							C45.8,220.9,59,221.5,75.8,222.4"/>
						
							<linearGradient id="SVGID_00000001666175738242261570000000233398122081301931_" gradientUnits="userSpaceOnUse" x1="402.6217" y1="7.6107" x2="125.6217" y2="438.6107">
							<stop  offset="0.1496" style="stop-color:#A03291"/>
							<stop  offset="1" style="stop-color:#4B4FE2"/>
						</linearGradient>
						<path style="fill:url(#SVGID_00000001666175738242261570000000233398122081301931_);" d="M404.2,228.8
							c-17.9,0.4-34.7,0.7-50-1.3c-42.1-5.4-84.8-15.2-130.5-29.8c-4.6-1.5-10.5-3.9-16.8-6.5c-19.6-8.1-43.9-18.2-59.4-13.2
							c-9.4,3.1-16.7,9.2-23.8,15.1c-9,7.5-18.4,15.3-32.1,17c-7.3,0.9-14,0.9-20.5,0.9c-15.1-0.1-29.5,0-44.9,12
							c-3.3,2.6-6,5.1-8.6,7.6c-5.4,5.1-9.8,9.3-17.4,11.4c0,1.1,0,2.2,0,3.3c8.9-2.2,13.9-6.9,19.7-12.4c2.5-2.4,5.2-4.9,8.4-7.4
							c14.6-11.3,27.8-11.4,43.1-11.4c6.6,0,13.4-0.1,20.8-1c14.7-1.8,24.4-9.9,33.7-17.7c7.2-6,14-11.6,22.8-14.5
							c14.4-4.7,39.1,5.6,57.2,13.1c6.6,2.8,12.3,5.1,17,6.6c45.9,14.7,88.8,24.5,131,29.9c15.5,2,32.5,1.6,50.4,1.3
							c27.5-0.5,55.9-1.1,78.6,7.3c6.5,2.4,12,5.6,17.2,8.6c0-1.2,0-2.4,0-3.7c-4.8-2.8-9.9-5.6-16-7.9
							C460.7,227.7,432,228.2,404.2,228.8"/>
						
							<linearGradient id="SVGID_00000011750439382929138460000014882693311367668354_" gradientUnits="userSpaceOnUse" x1="397.3886" y1="4.2475" x2="120.3886" y2="435.2475">
							<stop  offset="0.1496" style="stop-color:#A03291"/>
							<stop  offset="1" style="stop-color:#4B4FE2"/>
						</linearGradient>
						<path style="fill:url(#SVGID_00000011750439382929138460000014882693311367668354_);" d="M486.9,223.8
							c-12.8-3.8-28.4-2.6-43.5-1.5c-6.8,0.5-13.1,1-19,1c-23.7,0-45.6-1.2-67-3.5c-54.9-6.1-98.4-15.3-137-29
							c-4.9-1.7-11.6-5.2-19.3-9.2c-18-9.3-40.4-20.9-54.1-17.3c-9.8,2.6-17.5,9.8-25.6,17.4c-8.4,7.8-17,15.9-28.3,18.6
							c-8.7,2.1-17,2.4-25.1,2.8c-14.8,0.6-28.8,1.2-43,11.9c-3.8,2.9-6.7,5.6-9.6,8.4c-4.7,4.5-8.8,8.4-14.9,10.7
							c-0.1,1.1-0.1,2.3-0.2,3.4c7.5-2.5,12.1-6.9,17.3-11.8c2.8-2.6,5.6-5.4,9.3-8.1c13.4-10.1,26.9-10.7,41.2-11.3
							c8.2-0.4,16.8-0.7,25.7-2.9c12-2.9,21-11.3,29.7-19.4c7.8-7.3,15.2-14.2,24.3-16.7c12.4-3.3,34.2,8,51.8,17.1
							c7.9,4.1,14.6,7.6,19.7,9.4c38.8,13.8,82.6,23.1,137.7,29.1c21.5,2.4,43.5,3.5,67.4,3.6h0.1c5.9,0,12.4-0.5,19.2-1
							c14.8-1.1,30.1-2.3,42.4,1.4c5,1.5,9.4,3.6,13.5,6c-0.1-1.2-0.2-2.5-0.3-3.7C495.5,227,491.4,225.1,486.9,223.8"/>
						
							<linearGradient id="SVGID_00000106826090834479117540000001652328334520981414_" gradientUnits="userSpaceOnUse" x1="392.4968" y1="1.1035" x2="115.4968" y2="432.1035">
							<stop  offset="0.1496" style="stop-color:#A03291"/>
							<stop  offset="1" style="stop-color:#4B4FE2"/>
						</linearGradient>
						<path style="fill:url(#SVGID_00000106826090834479117540000001652328334520981414_);" d="M489,213.1
							c-12.1-2.8-26.5-1.3-40.4,0.1c-7.6,0.8-14.8,1.5-21.4,1.6c-20.8,0.1-42-1.2-67-4.1l-5.3-0.6c-46.2-5.3-94-10.8-137.3-26.7
							c-5.7-2.1-13.4-6.7-21.5-11.5c-16.9-10.1-36-21.5-49.6-18.7c-10,2-18.1,10.4-26.6,19.3c-7.7,8-15.7,16.3-25,19.3
							c-9.7,3.1-19.4,3.6-28.7,4.1c-14.9,0.7-28.9,1.4-43,12c-4,3-7.1,6-10.1,8.8c-3.9,3.7-7.3,7-11.8,9.4c-0.1,1.2-0.2,2.5-0.3,3.7
							c5.8-2.7,9.8-6.6,14.3-10.9c2.9-2.8,6-5.7,9.8-8.6c13.3-10.1,26.9-10.7,41.3-11.4c9.5-0.5,19.3-0.9,29.5-4.2
							c10.1-3.2,18.3-11.8,26.3-20.1c8.2-8.5,16-16.6,25-18.4c12.4-2.5,31,8.6,47.4,18.4c8.3,4.9,16.1,9.6,22.1,11.8
							c43.7,16,91.7,21.5,138.1,26.9l5.3,0.6c25.1,2.9,46.5,4.2,67.4,4.1c6.7,0,14-0.8,21.7-1.6c13.7-1.4,27.8-2.9,39.4-0.2
							c3.5,0.8,6.9,2,10,3.5c-0.1-1.2-0.3-2.4-0.5-3.6C495,214.8,492.1,213.8,489,213.1"/>
						
							<linearGradient id="SVGID_00000057846960626938245380000003896436703768784781_" gradientUnits="userSpaceOnUse" x1="387.5466" y1="-2.0779" x2="110.5466" y2="428.9221">
							<stop  offset="0.1496" style="stop-color:#A03291"/>
							<stop  offset="1" style="stop-color:#4B4FE2"/>
						</linearGradient>
						<path style="fill:url(#SVGID_00000057846960626938245380000003896436703768784781_);" d="M452.8,204.8
							c-8.4,0.8-16.3,1.5-23.9,1.3c-23.6-0.4-46.9-3.2-66.4-6c-12.8-1.8-26.2-3.3-39.1-4.7c-36.5-4.1-74.3-8.2-108-19.9
							c-6.4-2.2-14.4-7.2-22.9-12.5c-15.9-10-33.9-21.3-48.1-18.2c-10,2.1-18.1,11.2-25.9,19.9c-7.1,7.9-14.3,16.1-23,19.2
							c-10.6,3.8-21,4.1-31,4.4c-14.5,0.4-29.5,0.8-44.4,12.4c-4,3.1-7.2,6.2-10.1,8.9c-2.7,2.6-5.2,4.9-7.9,7
							c-0.2,1.4-0.3,2.8-0.5,4.2c3.9-2.5,7.1-5.6,10.6-8.9c2.9-2.8,6-5.7,9.8-8.7c14.1-11,27.9-11.3,42.5-11.7
							c10.2-0.3,20.8-0.6,31.9-4.6c9.4-3.4,16.9-11.8,24.2-20c7.8-8.8,15.2-17,24.2-18.9c12.9-2.8,30.4,8.2,45.8,17.8
							c8.6,5.4,16.8,10.5,23.5,12.8c34,11.7,72,15.9,108.7,20c13,1.4,26.4,2.9,39,4.7c19.7,2.8,43,5.6,66.8,6
							c7.8,0.1,16.1-0.6,24.2-1.3c12.2-1.1,24.8-2.2,36-0.5c2.7,0.4,5.3,1,7.8,1.8c-0.2-1.1-0.4-2.3-0.6-3.4
							c-2.2-0.6-4.5-1.1-6.8-1.5C477.9,202.5,465.1,203.7,452.8,204.8"/>
						
							<linearGradient id="SVGID_00000093162662536083584790000001187494432872628873_" gradientUnits="userSpaceOnUse" x1="382.8443" y1="-5.1001" x2="105.8443" y2="425.8999">
							<stop  offset="0.1496" style="stop-color:#A03291"/>
							<stop  offset="1" style="stop-color:#4B4FE2"/>
						</linearGradient>
						<path style="fill:url(#SVGID_00000093162662536083584790000001187494432872628873_);" d="M439.7,194
							c-24.4-0.2-49.6-0.3-75.4-4.6c-18-3-37.2-4.8-55.8-6.4c-32-2.9-65-5.9-94.6-15.3c-7.1-2.3-15.4-7.6-24.1-13.3
							c-15.6-10.1-31.8-20.6-46.7-17.4c-10.3,2.2-18.1,11.4-25.7,20.2c-6.6,7.7-13.4,15.7-21.7,18.8c-11.4,4.3-22.3,4.4-32.9,4.5
							c-15.2,0.1-31,0.3-47,13.5c-3.7,3-6.6,5.9-9.5,8.7c-0.9,0.8-1.7,1.6-2.5,2.4c-0.3,1.7-0.6,3.4-0.8,5c1.8-1.6,3.7-3.4,5.6-5.2
							c2.8-2.7,5.8-5.6,9.4-8.5c15.2-12.5,29.7-12.6,45-12.8c10.8-0.1,22-0.2,33.9-4.7c9-3.4,16.1-11.6,23-19.6
							c7.6-8.8,14.7-17.1,24-19.2c13.6-2.9,29.2,7.2,44.3,17c8.9,5.8,17.3,11.2,24.9,13.6c29.9,9.5,63.1,12.5,95.2,15.5
							c18.5,1.7,37.7,3.4,55.6,6.4c26,4.3,51.4,4.5,75.9,4.7c15.9,0.1,32.3,0.2,48.9,1.4c2.2,0.2,4.4,0.5,6.6,0.8
							c-0.2-1.1-0.5-2.2-0.7-3.3c-1.9-0.3-3.7-0.5-5.6-0.7C472.1,194.3,455.6,194.2,439.7,194"/>
						
							<linearGradient id="SVGID_00000111184537812587984820000008483492006820955789_" gradientUnits="userSpaceOnUse" x1="377.8235" y1="-8.3269" x2="100.8235" y2="422.6731">
							<stop  offset="0.1496" style="stop-color:#A03291"/>
							<stop  offset="1" style="stop-color:#4B4FE2"/>
						</linearGradient>
						<path style="fill:url(#SVGID_00000111184537812587984820000008483492006820955789_);" d="M366,178.7
							c-21.6-4.2-44.6-5.8-66.9-7.3c-28.7-1.9-58.4-4-85.4-11.7c-8.1-2.3-16.5-7.9-25.4-13.7c-14.7-9.7-29.9-19.7-45.4-16.3
							c-10.8,2.3-18.7,11.5-26.4,20.3c-6.4,7.4-12.9,14.9-20.9,18.1c-7.5,3-16.5,2.1-25.1,1.3c-3.8-0.4-7.5-0.7-11-0.7
							c-23.1-0.1-32.5,5.6-48.1,18.9c-1.8,1.5-3.4,3-4.9,4.4c-0.4,1.8-0.8,3.7-1.2,5.5c2.5-2.4,5.1-4.9,8.1-7.5
							c15.2-12.9,23.6-18.2,45-18.2c0.3,0,0.7,0,1.1,0c3.4,0,6.9,0.4,10.7,0.7c9,0.9,18.4,1.8,26.6-1.5c8.7-3.4,15.5-11.3,22.1-19
							c7.7-8.8,14.9-17.2,24.7-19.3c14.3-3.1,28.9,6.6,43.1,15.9c9.1,6,17.7,11.7,26.3,14.1c27.3,7.8,57.1,9.9,86,11.8
							c22.2,1.5,45.1,3.1,66.5,7.2c43.6,8.6,81.5,8.4,121.5,8.2c2,0,4,0,6,0c-0.2-1.1-0.5-2.1-0.8-3.1c-1.8,0-3.5,0-5.3,0
							C447.1,187,409.4,187.1,366,178.7"/>
						
							<linearGradient id="SVGID_00000013168390883568525650000000241105856464594356_" gradientUnits="userSpaceOnUse" x1="374.1522" y1="-10.6864" x2="97.1522" y2="420.3136">
							<stop  offset="0.1496" style="stop-color:#A03291"/>
							<stop  offset="1" style="stop-color:#4B4FE2"/>
						</linearGradient>
						<path style="fill:url(#SVGID_00000013168390883568525650000000241105856464594356_);" d="M367.8,167.1
							c-24.4-5.7-50.1-6.6-75-7.4c-26-0.9-52.9-1.8-77.8-8.4c-8.7-2.3-17.2-8.1-26.3-14.3c-14.2-9.7-28.9-19.8-45.1-15.8
							c-11.7,2.9-20,12.2-28,21.2c-6.6,7.4-12.9,14.4-20.8,18s-17.5,2.5-26.8,1.4c-3.8-0.4-7.3-0.9-10.8-1
							c-23.7-0.7-31.7,4.7-47.3,18.2c-0.5,1.8-1,3.7-1.5,5.5c0.6-0.6,1.3-1.2,2-1.8c16.8-14.5,23.7-19.5,46.8-18.8
							c3.3,0.1,6.8,0.5,10.5,0.9c9.7,1.1,19.7,2.3,28.5-1.7c8.5-3.9,15.3-11.5,21.8-18.8c7.7-8.6,15.7-17.6,26.4-20.3
							c14.8-3.7,28.9,6,42.6,15.3c8.9,6.1,18.1,12.3,27.3,14.8c25.3,6.6,52.4,7.6,78.5,8.4c24.7,0.8,50.2,1.7,74.3,7.4
							c40.7,9.5,82.5,13,124.4,13.9c-0.3-1.1-0.6-2.1-0.9-3.2C449.2,180,407.9,176.6,367.8,167.1"/>
						
							<linearGradient id="SVGID_00000144338659469779430730000001304086577352187064_" gradientUnits="userSpaceOnUse" x1="368.5908" y1="-14.2607" x2="91.5908" y2="416.7393">
							<stop  offset="0.1496" style="stop-color:#A03291"/>
							<stop  offset="1" style="stop-color:#4B4FE2"/>
						</linearGradient>
						<path style="fill:url(#SVGID_00000144338659469779430730000001304086577352187064_);" d="M54.8,156.7
							c3.2,0.2,6.6,0.7,10.1,1.2c10.4,1.5,21.2,3,30.8-1.8c8.4-4.2,15.2-11.8,21.8-19c8.5-9.3,17.2-19,29.5-21.8
							c15.9-3.7,28.4,5.8,41.7,15.8c9.1,6.8,18.4,13.9,29,16.5c24,6,49.4,5.4,73.9,4.8c25.7-0.6,52.2-1.3,77.5,5.7l4.6,1.3
							c37.7,10.4,67.5,18.6,108.3,12.9c1.9-0.3,3.9-0.5,5.8-0.7c-0.3-1-0.7-2-1-3.1c-1.8,0.2-3.5,0.4-5.2,0.6
							c-40.2,5.6-69.7-2.5-107-12.8L370,155c-25.7-7.1-52.5-6.4-78.4-5.8c-24.3,0.6-49.4,1.2-73-4.7c-10-2.5-19.1-9.4-27.9-16
							c-13.3-10-27-20.4-44.3-16.3c-13.2,3.1-22.3,13.1-31.1,22.8c-6.7,7.4-13,14.3-20.9,18.3c-8.7,4.4-19,2.9-28.9,1.5
							c-3.6-0.5-7-1-10.4-1.2c-21.7-1.5-28.8,1.9-40.7,11.9c-0.7,1.9-1.4,3.9-2,5.9C26.5,158.9,32,155.2,54.8,156.7"/>
						
							<linearGradient id="SVGID_00000005987049463107823210000014170839431369855368_" gradientUnits="userSpaceOnUse" x1="363.8811" y1="-17.2875" x2="86.8811" y2="413.7125">
							<stop  offset="0.1496" style="stop-color:#A03291"/>
							<stop  offset="1" style="stop-color:#4B4FE2"/>
						</linearGradient>
						<path style="fill:url(#SVGID_00000005987049463107823210000014170839431369855368_);" d="M478.2,160.3
							c-34.5,7-57.8-1-87.4-11.1c-6-2.1-12.2-4.2-18.8-6.3c-26.6-8.4-54-6.1-80.5-3.7c-22.7,2-46.2,4.1-68.6-1
							c-11.5-2.6-21.1-10.1-30.4-17.3c-13.1-10.3-26.7-20.9-45.4-16.6c-14.6,3.4-24,13.7-33.1,23.7c-6.5,7.1-12.7,13.9-20.5,18.1
							c-9.3,5.1-20.1,3.2-30.6,1.3c-3.3-0.6-6.8-1.2-10.1-1.6c-17.8-1.9-25-0.7-32.8,4.8c-0.8,2-1.6,3.9-2.4,5.9
							c9.4-7.9,15-9.7,34.9-7.6c3.2,0.3,6.4,0.9,9.9,1.5c11,1.9,22.3,4,32.6-1.7c8.3-4.5,14.9-11.8,21.3-18.8
							c8.8-9.7,17.9-19.6,31.5-22.8c17.2-4,29.6,5.7,42.8,16c9.6,7.5,19.4,15.2,31.6,17.9c22.9,5.1,46.6,3.1,69.6,1
							c26.2-2.3,53.3-4.7,79.3,3.6c6.6,2.1,12.8,4.2,18.8,6.2c30,10.2,53.7,18.3,89,11.2c1.9-0.4,3.9-0.7,5.8-1.1
							c-0.4-1-0.8-2-1.1-3C481.7,159.6,480,160,478.2,160.3"/>
						
							<linearGradient id="SVGID_00000129197814472590909090000015922171955940851378_" gradientUnits="userSpaceOnUse" x1="360.1591" y1="-19.6796" x2="83.1591" y2="411.3204">
							<stop  offset="0.1496" style="stop-color:#A03291"/>
							<stop  offset="1" style="stop-color:#4B4FE2"/>
						</linearGradient>
						<path style="fill:url(#SVGID_00000129197814472590909090000015922171955940851378_);" d="M475,152.5
							c-31.2,6.2-52.8-2-77.7-11.4c-7.7-2.9-15.7-6-24.6-8.8c-26.3-8.5-53.2-4.9-79.3-1.5c-21.8,2.9-44.3,5.9-66,1.5
							c-12.5-2.5-22.3-10.3-31.8-17.9c-12.8-10.2-25.9-20.8-45.2-16.8c-14.6,3-25.1,12.8-35.2,22.2c-7.4,6.9-14.3,13.4-22.8,17.5
							c-9.4,4.5-20,3.1-30.3,1.8c-3.9-0.5-7.8-1-11.7-1.2c-12.3-0.6-19.8,0.3-26.2,2.9c-0.7,1.5-1.4,2.9-2.1,4.4
							c6.9-3.6,14.2-4.8,28.1-4.1c3.7,0.2,7.4,0.6,11.4,1.1c10.7,1.4,21.8,2.8,32-2.1c8.9-4.3,16.4-11.3,23.6-18.1
							c9.8-9.2,19.9-18.6,33.6-21.5c17.8-3.6,29.8,6,42.6,16.2c9.8,7.8,19.9,15.9,33.1,18.5c22.2,4.4,45,1.4,67-1.5
							c25.7-3.4,52.2-6.9,77.9,1.4c8.8,2.8,16.7,5.9,24.4,8.8c25.4,9.6,47.3,18,79.4,11.6c2-0.4,3.9-0.7,5.9-1.1c-0.4-1-0.8-2-1.2-3
							C478.5,151.8,476.8,152.1,475,152.5"/>
						
							<linearGradient id="SVGID_00000135678182379205526810000003948128030102739106_" gradientUnits="userSpaceOnUse" x1="357.3925" y1="-21.4577" x2="80.3925" y2="409.5423">
							<stop  offset="0.1496" style="stop-color:#A03291"/>
							<stop  offset="1" style="stop-color:#4B4FE2"/>
						</linearGradient>
						<path style="fill:url(#SVGID_00000135678182379205526810000003948128030102739106_);" d="M472,144.9c-28.6,5.1-47.8-3-70-12.3
							c-8.9-3.7-18-7.6-28.5-10.9c-25.7-8.2-51.7-3.5-76.9,1.1c-21,3.8-42.7,7.7-63.7,3.9c-13.3-2.4-23.2-10.6-32.7-18.6
							c-12.3-10.3-25-20.9-44.6-17.5c-14.6,2.6-26.1,11.8-37.1,20.8c-8.4,6.9-16.4,13.3-25.8,17.1c-9,3.6-19,2.9-28.7,2.2
							c-4.5-0.3-9.2-0.7-13.7-0.6c-9.3,0.2-16.2,1.5-22.1,3.6c-0.7,1.4-1.4,2.8-2.1,4.2c6.5-2.8,13.8-4.3,24.4-4.6
							c4.3-0.1,9,0.2,13.4,0.6c10,0.7,20.4,1.5,30.1-2.4c9.8-3.9,18.3-10.9,26.6-17.6c10.7-8.7,21.8-17.7,35.7-20.2
							c18.2-3.2,29.8,6.5,42,16.8c9.8,8.2,20,16.8,34.2,19.3c21.6,3.9,43.6-0.1,64.9-3.9c24.8-4.5,50.4-9.1,75.4-1.2
							c10.3,3.3,19.4,7.1,28.2,10.8c22.7,9.6,42.3,17.8,71.8,12.5c1.9-0.4,3.9-0.7,5.8-1c-0.4-1-0.9-2-1.4-3
							C475.3,144.3,473.7,144.6,472,144.9"/>
						
							<linearGradient id="SVGID_00000029008560893140443540000008230705377601121436_" gradientUnits="userSpaceOnUse" x1="353.8953" y1="-23.7053" x2="76.8953" y2="407.2947">
							<stop  offset="0.1496" style="stop-color:#A03291"/>
							<stop  offset="1" style="stop-color:#4B4FE2"/>
						</linearGradient>
						<path style="fill:url(#SVGID_00000029008560893140443540000008230705377601121436_);" d="M469.1,137.1
							c-26.5,4.1-43.9-4-64-13.5c-9.5-4.5-19.4-9.1-31-12.7c-25.1-7.8-50.6-2-75.2,3.7c-20,4.6-40.6,9.3-60.8,6.6
							c-14.5-2-24.8-10.9-34.7-19.5c-12.3-10.7-25-21.8-45.4-18.4c-14.3,2.4-25.9,11.2-37.2,19.7c-8.8,6.6-17.8,13.4-27.8,16.9
							c-8.3,2.9-17.3,2.6-26,2.3c-5.2-0.2-10.6-0.3-15.8,0.2c-7.5,0.7-13.8,2.3-19.5,4.4c-0.8,1.4-1.6,2.9-2.4,4.3
							c6.4-2.8,13.4-4.8,22.2-5.7c5-0.5,10.2-0.3,15.3-0.1c9,0.3,18.3,0.6,27.2-2.5c10.5-3.6,19.7-10.6,28.7-17.3
							c11-8.3,22.3-16.8,35.8-19.1c18.9-3.2,30.5,6.9,42.8,17.6c10.3,8.9,20.9,18.2,36.3,20.2c20.8,2.8,41.7-2,61.9-6.7
							c24.2-5.6,49.2-11.3,73.5-3.7c11.4,3.6,21.1,8.1,30.6,12.6c19.7,9.3,38.3,18,65.8,13.7c1.7-0.3,3.5-0.5,5.2-0.8
							c-0.5-1-1-2-1.5-3C471.9,136.7,470.5,136.9,469.1,137.1"/>
						
							<linearGradient id="SVGID_00000057852788892025585540000003678094471619399308_" gradientUnits="userSpaceOnUse" x1="350.795" y1="-25.6979" x2="73.795" y2="405.3021">
							<stop  offset="0.1496" style="stop-color:#A03291"/>
							<stop  offset="1" style="stop-color:#4B4FE2"/>
						</linearGradient>
						<path style="fill:url(#SVGID_00000057852788892025585540000003678094471619399308_);" d="M466.7,129.3
							c-25.1,2.7-41.6-5.8-59.1-14.8c-9.9-5.1-20.2-10.4-32.8-14.3c-24.3-7.4-48.8-0.4-72.4,6.4c-19.2,5.5-39,11.2-58.5,9.1
							c-15.5-1.7-25.7-11.2-35.6-20.3c-11.9-11-24.2-22.4-45.1-19.4c-14.3,2.1-26.6,10.5-38.4,18.6c-9.7,6.7-19.7,13.5-30.6,16.6
							c-7.3,2.1-15.1,2.2-22.8,2.2c-6,0.1-12.2,0.1-18.2,1.1c-6.4,1.1-12.1,3-17.5,5.4c-1,1.6-1.9,3.2-2.8,4.8
							c6.5-3.1,13.2-5.7,20.9-7c5.7-1,11.8-1,17.7-1.1c7.8-0.1,15.9-0.1,23.6-2.3c11.4-3.3,21.6-10.3,31.5-17.1
							c11.5-7.9,23.4-16.1,37-18.1c19.4-2.8,30.6,7.6,42.5,18.6c10.3,9.5,20.9,19.4,37.4,21.2c20.2,2.2,40.3-3.6,59.7-9.2
							c24.3-7,47.2-13.6,70.6-6.4c12.3,3.8,22.4,9,32.2,14c17.9,9.2,34.8,18,60.9,15.2c1.3-0.1,2.6-0.3,4-0.4c-0.5-1-1.1-2-1.6-3
							C468.5,129.1,467.6,129.2,466.7,129.3"/>
						
							<linearGradient id="SVGID_00000120560959970751805430000006933160415970770084_" gradientUnits="userSpaceOnUse" x1="347.563" y1="-27.775" x2="70.563" y2="403.225">
							<stop  offset="0.1496" style="stop-color:#A03291"/>
							<stop  offset="1" style="stop-color:#4B4FE2"/>
						</linearGradient>
						<path style="fill:url(#SVGID_00000120560959970751805430000006933160415970770084_);" d="M409.2,105.3
							c-10.1-5.8-20.5-11.8-33.7-15.7c-23.4-7-46.9,1.2-69.7,9.1c-18.5,6.4-37.5,13.1-56.4,11.5c-16.4-1.3-26.7-11.4-36.5-21.1
							c-11.6-11.4-23.5-23.2-45.1-20.4c-14.6,1.9-27.6,10-40.2,17.8c-10.3,6.4-20.9,13-32.2,16.1c-6.1,1.6-12.7,1.9-19.1,2.2
							c-6.8,0.3-13.8,0.6-20.3,2.5c-4.8,1.3-9.4,3.3-13.8,5.6c-0.6,0.4-1.2,0.8-1.7,1.2c-0.5,0.4-1.1,0.8-1.7,1.1
							c-1,1.6-2,3.1-2.9,4.7c6.7-3.8,13.6-7.5,21-9.6c6.2-1.7,13-2.1,19.6-2.4s13.4-0.6,19.8-2.3c11.7-3.1,22.5-9.9,33-16.4
							c12.3-7.7,25-15.6,38.9-17.4c20-2.6,30.9,8.2,42.4,19.5c10.3,10.1,20.9,20.6,38.5,22c19.6,1.6,39-5.2,57.7-11.7
							c23.3-8.1,45.3-15.7,67.7-9c12.8,3.8,23,9.7,33,15.4c16.7,9.6,32.5,18.7,57.4,16.5c0.6-0.1,1.2-0.1,1.8-0.2
							c-0.6-1-1.2-2-1.8-3c-0.1,0-0.2,0-0.2,0C440.8,123.5,425.4,114.6,409.2,105.3"/>
						
							<linearGradient id="SVGID_00000048493915609926644730000010589782051701116086_" gradientUnits="userSpaceOnUse" x1="343.9268" y1="-30.112" x2="66.9268" y2="400.888">
							<stop  offset="0.1496" style="stop-color:#A03291"/>
							<stop  offset="1" style="stop-color:#4B4FE2"/>
						</linearGradient>
						<path style="fill:url(#SVGID_00000048493915609926644730000010589782051701116086_);" d="M43,111.6c5.5-3.7,10.4-6.2,16.9-8.8
							c6.7-2.7,14.3-3.3,21.6-3.9c5.3-0.4,10.8-0.8,15.9-2.1c12.4-3,24-9.5,35.2-15.9c12.6-7.1,25.6-14.5,39.6-16.5
							c20.5-2.9,31.3,8.3,42.6,20.2c10.3,10.8,20.9,21.9,39.3,22.9c19.1,1,37.9-6.7,56-14.1c22.3-9.2,43.4-17.8,65-11.5
							c13.1,3.8,23.4,10.3,33.3,16.6c15.5,9.8,30.1,19,53.4,17.8c-0.6-1-1.3-2.1-2-3.1c-21.3,0.6-35.1-8.1-49.8-17.4
							c-10.1-6.4-20.6-13-34.1-16.9c-22.6-6.6-45.2,2.7-67.1,11.7c-17.8,7.3-36.2,14.8-54.6,13.9c-17.1-0.9-27.3-11.6-37.2-21.9
							c-11.4-12-23.3-24.3-45.3-21.2c-14.6,2.1-27.9,9.6-40.7,16.8c-11,6.2-22.4,12.7-34.4,15.5c-4.9,1.2-10.3,1.6-15.5,2
							c-7.5,0.6-15.4,1.5-22.6,4.4c-1.1,0.4-2.2,0.9-3.3,1.4c-3.4,1.8-5.5,2.7-8.5,4.8c-1.4,1-2.9,2-4.3,3c-1,1.5-2,3-2.9,4.5
							c0.6-0.4,1.1-0.8,1.7-1.1C41.8,112.4,42.4,112,43,111.6"/>
						
							<linearGradient id="SVGID_00000107565935369444938960000004274282855663842739_" gradientUnits="userSpaceOnUse" x1="340.1412" y1="-32.545" x2="63.1412" y2="398.455">
							<stop  offset="0.1496" style="stop-color:#A03291"/>
							<stop  offset="1" style="stop-color:#4B4FE2"/>
						</linearGradient>
						<path style="fill:url(#SVGID_00000107565935369444938960000004274282855663842739_);" d="M56.6,99.5c1.5-0.8,3-1.7,4.6-2.4
							c9.2-4.3,16.9-5,26.1-6.2c5.4-0.8,11-1.5,17.4-3.2c11.2-2.9,21.7-8.6,31.8-14.1c12.6-6.9,25.6-14,39.6-15.3
							c20.3-2,31.4,8.9,43.2,20.4c11.2,10.9,22.9,22.3,43,22.7c18.5,0.4,36.1-7.8,52.8-15.9c18.5-9,35.8-17.9,54.6-15.2
							c15.3,2.2,26.5,10,38.4,18.3c13.6,9.5,27.7,19.3,48.1,19.4c-0.7-1.1-1.5-2.2-2.2-3.2c-18.2-0.8-30.8-9.6-44.1-18.8
							c-11.7-8.1-23.7-16.5-39.8-18.8c-19.8-2.8-38.3,6.7-56.5,15.5c-16.4,8-33.6,15.9-51.4,15.6c-18.9-0.4-30.1-11.3-40.9-21.8
							c-11.8-11.5-24-23.3-45.7-21.2c-14.7,1.4-28,8.7-40.8,15.7c-10,5.4-20.3,11.1-31.1,13.9c-6.3,1.6-11.8,2.4-17.1,3.1
							c-9.1,1.2-17.5,2-27.1,6.5c-4.1,1.9-7.7,4.1-11.2,6.4c-1.7,2.3-3.4,4.8-5,7.3c1.4-1,2.8-1.9,4.2-2.9
							C50.6,103.1,53.6,101.2,56.6,99.5"/>
						
							<linearGradient id="SVGID_00000150791015278962948290000000009904933416109736_" gradientUnits="userSpaceOnUse" x1="335.3152" y1="-35.6466" x2="58.3152" y2="395.3534">
							<stop  offset="0.1496" style="stop-color:#A03291"/>
							<stop  offset="1" style="stop-color:#4B4FE2"/>
						</linearGradient>
						<path style="fill:url(#SVGID_00000150791015278962948290000000009904933416109736_);" d="M89.1,82.8
							c5.2-0.8,10.5-1.7,16.4-3.2c10.6-2.7,20.8-7.7,30.7-12.6c13.4-6.5,27.2-13.3,41.8-14.3c20.3-1.3,32.5,9.3,45.5,20.5
							c12.2,10.6,24.7,21.5,44.5,22.1c0.6,0,1.2,0,1.8,0c17.8,0,34-8.5,49.6-16.5c17.1-8.8,33.3-16.8,51.3-15
							c14.8,1.5,26.4,8.7,38.7,16.2c11.8,7.3,23.9,14.7,39.2,16.8c-0.9-1.2-1.9-2.4-2.9-3.7c-13.2-2.6-24.1-9.3-34.7-15.8
							c-12-7.4-24.5-15.1-40-16.7c-18.9-1.9-36.3,6.7-53,15.3C302.2,84,285.9,92.5,268.2,92c-18.6-0.6-30.8-11.1-42.5-21.3
							c-12.9-11.2-26.1-22.7-47.8-21.3c-15.2,1-29.4,7.9-43,14.6c-9.8,4.8-19.8,9.7-30.1,12.4c-5.7,1.5-11,2.3-16.1,3.2
							c-9.1,1.5-17.7,2.9-27.4,7.6c-1.2,0.6-1.8,0.9-2.9,1.5c-1.9,1.9-4.2,4.9-6.1,7.3c3.3-2.1,6.7-4.1,10.4-6
							C71.8,85.6,80.2,84.3,89.1,82.8"/>
						
							<linearGradient id="SVGID_00000096037693555394948220000013209726614443679909_" gradientUnits="userSpaceOnUse" x1="330.1759" y1="-38.9496" x2="53.1759" y2="392.0504">
							<stop  offset="0.1496" style="stop-color:#A03291"/>
							<stop  offset="1" style="stop-color:#4B4FE2"/>
						</linearGradient>
						<path style="fill:url(#SVGID_00000096037693555394948220000013209726614443679909_);" d="M91.6,74.4c4.9-0.9,9.9-1.8,15.3-3.2
							c9.8-2.5,19.5-6.8,28.9-10.8c14.1-6.1,28.8-12.5,44-13.1c20-0.8,33.3,9.4,47.4,20.2c13,10,26.5,20.4,45.8,21.2
							c18.2,0.7,34.2-7.7,49.7-15.9c15.8-8.3,30.7-16.2,47.7-15.1c14.5,1,26.7,7.5,39.6,14.4c9.2,4.9,18.5,9.9,28.9,12.9
							c-1.4-1.6-2.7-3.1-4.1-4.6c-8.2-2.9-15.8-7-23.3-11c-12.6-6.8-25.6-13.8-40.8-14.8c-17.9-1.2-33.9,7.3-49.4,15.4
							c-15.1,8-30.7,16.2-48.1,15.5c-18.3-0.7-30.8-10.3-44-20.5c-13.9-10.7-28.2-21.7-49.4-20.9c-15.8,0.6-30.7,7.1-45.1,13.3
							c-9.3,4-18.8,8.2-28.5,10.7c-5.2,1.3-10.2,2.3-15.1,3.2c-7.6,1.4-14.8,2.8-22.2,5.5c-1.7,1.8-3.4,3.7-5.1,5.6
							c0.6-0.3,1.2-0.6,1.8-0.9C74.3,77.6,82.7,76,91.6,74.4"/>
						
							<linearGradient id="SVGID_00000043417890755091343100000015012598816510589840_" gradientUnits="userSpaceOnUse" x1="323.2219" y1="-43.4189" x2="46.2219" y2="387.5811">
							<stop  offset="0.1496" style="stop-color:#A03291"/>
							<stop  offset="1" style="stop-color:#4B4FE2"/>
						</linearGradient>
						<path style="fill:url(#SVGID_00000043417890755091343100000015012598816510589840_);" d="M411.5,61.1
							c-13.4-6.2-27.2-12.6-42.3-13.1c-16.9-0.5-31.7,7.4-46,15.1c-14.4,7.7-29.3,15.7-46.3,14.9c-17.9-0.8-31.1-9.9-45.2-19.5
							c-14.7-10-29.8-20.4-50.6-20.1c-16.4,0.2-32.2,6.2-47.4,12.1c-8.5,3.2-17.3,6.6-25.9,8.8c-4.8,1.2-9.6,2.2-14.3,3.2
							c-4.5,0.9-8.9,1.8-13.3,2.9c-1.6,1.5-3.3,3.1-4.9,4.6c6.2-1.9,12.4-3.2,18.8-4.5c4.7-1,9.5-1.9,14.4-3.2
							c8.8-2.3,17.7-5.7,26.3-9c15-5.7,30.5-11.6,46.3-11.9c0.3,0,0.5,0,0.8,0c19.3,0,33.3,9.5,48,19.6c13.8,9.4,28,19.1,46.8,20
							c17.9,0.9,33.1-7.4,47.9-15.3c14.6-7.8,28.3-15.2,44.4-14.7c14.5,0.5,27.4,6.4,41.1,12.8c4.9,2.3,9.9,4.6,15,6.6
							c-2.1-2.1-4.3-4.2-6.5-6.2C416.2,63.3,413.8,62.2,411.5,61.1"/>
						
							<linearGradient id="SVGID_00000180329021001338169180000008524762484414920112_" gradientUnits="userSpaceOnUse" x1="315.3375" y1="-48.4861" x2="38.3375" y2="382.5139">
							<stop  offset="0.1496" style="stop-color:#A03291"/>
							<stop  offset="1" style="stop-color:#4B4FE2"/>
						</linearGradient>
						<path style="fill:url(#SVGID_00000180329021001338169180000008524762484414920112_);" d="M325.5,57.4
							c-13.7,7.1-27.9,14.5-44,14.2c-18.3-0.3-32.8-9.6-48.1-19.4c-15.6-10-31.8-20.3-52.3-20.4h-0.3c-16.5,0-32.9,5.9-48.9,11.7
							c-8.4,3-16.3,5.9-24.3,8c-5.8,1.5-11.9,3.5-18.1,5.7c-2.2,1.8-4.4,3.7-6.5,5.7c0.3-0.1,0.7-0.2,1.1-0.4c8.6-3.1,16.7-6,24.4-8
							c8.1-2.1,16.5-5.1,24.6-8.1c15.6-5.7,31.8-11.5,47.8-11.5c0.1,0,0.2,0,0.3,0c19.6,0.1,35.4,10.1,50.6,19.9
							c15,9.6,30.6,19.5,49.8,19.9c0.3,0,0.6,0,1,0c16.5,0,30.8-7.4,44.5-14.6c14.9-7.8,29-15.1,45.7-14c12.6,0.8,24.1,5.1,36.2,9.8
							c-2.6-2.2-5.3-4.3-8.1-6.4c-9-3.2-18.3-5.9-28-6.6C355.3,41.8,340.1,49.7,325.5,57.4"/>
						
							<linearGradient id="SVGID_00000000194683236290509480000003212763935037149571_" gradientUnits="userSpaceOnUse" x1="307.6986" y1="-53.3956" x2="30.6986" y2="377.6044">
							<stop  offset="0.1496" style="stop-color:#A03291"/>
							<stop  offset="1" style="stop-color:#4B4FE2"/>
						</linearGradient>
						<path style="fill:url(#SVGID_00000000194683236290509480000003212763935037149571_);" d="M371.7,36.1
							c-16.6-0.4-31.4,7.1-45.5,14.2c-14.7,7.4-28.6,14.4-44.8,13.8c-17.5-0.7-32.3-9.3-48-18.4c-15.8-9.2-32.2-18.8-51.7-19.5
							c-24.1-0.9-48.2,8-71.5,16.5c-1,0.4-2.1,0.8-3.1,1.1c-3.1,2.1-6.1,4.3-9,6.6c4.4-1.6,8.8-3.2,13.2-4.8
							c23-8.5,46.8-17.2,70.3-16.4c18.7,0.7,34.7,10,50.2,19c15.3,8.9,31.1,18.1,49.4,18.9c17,0.7,31.9-6.8,46.3-14.1
							c13.9-7,28.2-14.2,44.1-13.9c6,0.1,12.1,1,18,2.4c-2.3-1.6-4.7-3.1-7-4.5C379,36.5,375.4,36.1,371.7,36.1"/>
						
							<linearGradient id="SVGID_00000069375927098395416710000015893844506156885933_" gradientUnits="userSpaceOnUse" x1="303.6889" y1="-55.9726" x2="26.6889" y2="375.0274">
							<stop  offset="0.1496" style="stop-color:#A03291"/>
							<stop  offset="1" style="stop-color:#4B4FE2"/>
						</linearGradient>
						<path style="fill:url(#SVGID_00000069375927098395416710000015893844506156885933_);" d="M327.5,41.8
							c-17.1,8-33.2,15.5-52.3,12c-14.6-2.7-27.7-9.1-40.3-15.3c-16-7.9-32.6-16-52.7-17.1c-17.4-0.9-35,3.2-52.4,8.4
							c-4,2.2-7.9,4.5-11.8,6.9c21.2-6.7,43-13.3,64.1-12.2c19.5,1,35.8,9,51.5,16.7c12.8,6.3,26.1,12.8,41.1,15.6
							c20.1,3.8,37.5-4.4,54.2-12.2c14-6.6,28.5-13.4,44.7-13.1c-1.8-1-3.6-2-5.4-3C353.5,29.7,340.3,35.8,327.5,41.8"/>
						
							<linearGradient id="SVGID_00000124884193754170769150000000205250000880694164_" gradientUnits="userSpaceOnUse" x1="305.3154" y1="-54.9272" x2="28.3154" y2="376.0728">
							<stop  offset="0.1496" style="stop-color:#A03291"/>
							<stop  offset="1" style="stop-color:#4B4FE2"/>
						</linearGradient>
						<path style="fill:url(#SVGID_00000124884193754170769150000000205250000880694164_);" d="M180.1,17.9
							c18.5,1.4,35.9,8.5,52.7,15.3c14.6,5.9,29.6,12,45.3,14.4c18.5,2.8,35-4.4,51-11.5c10.3-4.5,20.8-9.2,32-11.2
							c-1.5-0.8-3.1-1.5-4.7-2.2c-10,2.4-19.4,6.5-28.6,10.6c-16.2,7.2-31.6,13.9-49.2,11.2c-15.3-2.3-30.2-8.4-44.6-14.2
							c-17-6.9-34.6-14-53.6-15.5c-6.1-0.5-12.3-0.3-18.4,0.2c-4,1.5-7.9,3.1-11.8,4.8C160.1,18,170.1,17.1,180.1,17.9"/>
						
							<linearGradient id="SVGID_00000119833246678176730740000010119807204926763960_" gradientUnits="userSpaceOnUse" x1="305.7863" y1="-54.6246" x2="28.7863" y2="376.3754">
							<stop  offset="0.1496" style="stop-color:#A03291"/>
							<stop  offset="1" style="stop-color:#4B4FE2"/>
						</linearGradient>
						<path style="fill:url(#SVGID_00000119833246678176730740000010119807204926763960_);" d="M327.3,24.1
							c-16.5,6.4-32,12.4-49.4,10.3c-15.9-1.9-31.7-7.3-47-12.5c-16.3-5.6-33.1-11.3-50.5-13.1c-2.9,0.8-5.7,1.7-8.5,2.6
							c2.6,0.1,5.2,0.2,7.7,0.4c17.2,1.6,34,7.4,50.3,13c15.4,5.3,31.4,10.7,47.6,12.7c18.2,2.2,34.8-4.2,50.9-10.5
							c6.9-2.7,14-5.4,21.2-7.5c-1.5-0.6-3-1.3-4.5-1.9C339,19.6,333.1,21.9,327.3,24.1"/>
						
							<linearGradient id="SVGID_00000060015528113082984480000010394180929497380776_" gradientUnits="userSpaceOnUse" x1="305.0286" y1="-55.1116" x2="28.0286" y2="375.8884">
							<stop  offset="0.1496" style="stop-color:#A03291"/>
							<stop  offset="1" style="stop-color:#4B4FE2"/>
						</linearGradient>
						<path style="fill:url(#SVGID_00000060015528113082984480000010394180929497380776_);" d="M327,15.8
							c-15.7,5.1-31.9,10.4-48.6,9.7c-17.3-0.7-34.9-6-51.9-11.1c-10.9-3.3-22.2-6.6-33.4-8.8c-2.5,0.6-5.1,1.2-7.6,1.9
							c13.4,2,27,6,40.1,10c17.2,5.2,35,10.5,52.7,11.2c17.2,0.7,33.7-4.7,49.7-9.8c3.6-1.2,7.3-2.4,11-3.5
							c-1.6-0.6-3.2-1.2-4.8-1.8C331.7,14.2,329.3,15,327,15.8"/>
						
							<linearGradient id="SVGID_00000176731351821193773470000003579338390031958461_" gradientUnits="userSpaceOnUse" x1="302.8478" y1="-56.5131" x2="25.8479" y2="374.4869">
							<stop  offset="0.1496" style="stop-color:#A03291"/>
							<stop  offset="1" style="stop-color:#4B4FE2"/>
						</linearGradient>
						<path style="fill:url(#SVGID_00000176731351821193773470000003579338390031958461_);" d="M277.4,15
							c-18.7-0.3-37.9-4.9-56.5-9.3c-4.4-1.1-8.9-2.1-13.5-3.1c-2.7,0.5-5.3,0.9-8,1.5c6.9,1.4,13.9,3.1,20.7,4.7
							c18.8,4.5,38.1,9.1,57.1,9.4c16.2,0.2,31.9-3.8,47.2-7.9c-1.9-0.6-3.8-1.2-5.8-1.7C305.2,12.1,291.4,15.2,277.4,15"/>
						
							<linearGradient id="SVGID_00000135674462607964711690000005860201137520871603_" gradientUnits="userSpaceOnUse" x1="299.9342" y1="-58.3857" x2="22.9342" y2="372.6143">
							<stop  offset="0.1496" style="stop-color:#A03291"/>
							<stop  offset="1" style="stop-color:#4B4FE2"/>
						</linearGradient>
						<path style="fill:url(#SVGID_00000135674462607964711690000005860201137520871603_);" d="M274.1,7.9c0.5,0,1.1,0,1.6,0
							c9.6-0.1,19.2-1.3,28.7-3c-2.9-0.6-5.8-1.2-8.7-1.8c-6.6,0.9-13.3,1.6-20,1.7c-16,0.1-32.2-2-48.2-4.8
							c-3.7,0.3-7.4,0.7-11,1.2C235.5,4.7,254.9,8,274.1,7.9"/>
					</g>
				</g>
			</g>
		</g>
	</g>
</g>
</svg>
