<?xml version="1.0" encoding="UTF-8"?><svg id="Layer_1" xmlns="http://www.w3.org/2000/svg" width="454.68" height="371.42" viewBox="0 0 454.68 371.42"><defs><style>.cls-1{fill:#ff7c66;}</style></defs><path class="cls-1" d="m114.73,165.04c-2.46,0-4.9.08-7.31.23,3.07-40.86,36-76.61,98.84-107.26L174.83,0C58.28,59.09,0,140.99,0,245.73c0,34.92,10.88,64.59,32.64,89.03,21.75,24.45,47.65,36.66,77.74,36.66.51,0,1.01-.03,1.52-.03.94.02,1.88.03,2.83.03,60.26,0,105.25-45.2,105.25-103.19s-44.99-103.19-105.25-103.19Z"/><path class="cls-1" d="m349.43,165.04c-2.53,0-5.03.09-7.51.24,3.04-40.86,35.69-76.62,98.04-107.28L409.34,0c-117.1,59.09-175.64,140.99-175.64,245.73,0,34.92,11,64.59,33.03,89.03,22.02,24.45,48.06,36.66,78.15,36.66.55,0,1.09-.03,1.64-.04.96.02,1.93.04,2.91.04,60.26,0,105.25-45.2,105.25-103.19s-44.99-103.19-105.25-103.19Z"/></svg>