<svg id="Layer_1" data-name="Layer 1" xmlns="http://www.w3.org/2000/svg" viewBox="0 0 90 90"><defs><style>.cls-1{fill:#fff;}.cls-2{fill:#063d58;}.cls-3{fill:#f97c67;}</style></defs><g id="Boomi_Icon_Logo_2-Color_Reversed_RGB" data-name="Boomi Icon Logo 2-Color Reversed RGB"><path class="cls-1" d="M68.76,45A23.76,23.76,0,1,1,45,21.24,23.76,23.76,0,0,1,68.76,45"/><path class="cls-2" d="M47,39.63a11,11,0,0,0-7.56,2.88V28.37a.46.46,0,0,0-.69-.4l-3.41,2a.24.24,0,0,0-.12.21V60.08a.47.47,0,0,0,.46.46h3.3a.46.46,0,0,0,.46-.46v-2A11,11,0,0,0,47,61a10.67,10.67,0,1,0,0-21.34M47,57a6.7,6.7,0,1,1,6.66-6.7A6.53,6.53,0,0,1,47,57"/><path class="cls-3" d="M60.21,37.12a2.62,2.62,0,1,1-2.62-2.62,2.62,2.62,0,0,1,2.62,2.62"/></g></svg>