<?xml version="1.0" encoding="UTF-8" standalone="no"?>
<svg
   viewBox="0 0 256 256"
   version="1.1"
   id="svg1"
   sodipodi:docname="airplane in flight purple_blue.svg"
   xmlns:inkscape="http://www.inkscape.org/namespaces/inkscape"
   xmlns:sodipodi="http://sodipodi.sourceforge.net/DTD/sodipodi-0.dtd"
   xmlns:xlink="http://www.w3.org/1999/xlink"
   xmlns="http://www.w3.org/2000/svg"
   xmlns:svg="http://www.w3.org/2000/svg">
  <defs
     id="defs3">
    <linearGradient
       id="linearGradient1"
       inkscape:collect="always">
      <stop
         style="stop-color:#4b4fe2ff;stop-opacity:1;"
         offset="0"
         id="stop1" />
      <stop
         style="stop-color:#a03291;stop-opacity:1;"
         offset="0.76340693"
         id="stop2" />
    </linearGradient>
    <linearGradient
       inkscape:collect="always"
       xlink:href="#linearGradient1"
       id="linearGradient2"
       x1="232.4884"
       y1="23.847498"
       x2="23.977745"
       y2="232.35815"
       gradientUnits="userSpaceOnUse" />
  </defs>
  <defs
     id="defs1" />
  <sodipodi:namedview
     id="namedview1"
     pagecolor="#ffffff"
     bordercolor="#000000"
     borderopacity="0.25"
     inkscape:showpageshadow="2"
     inkscape:pageopacity="0.0"
     inkscape:pagecheckerboard="0"
     inkscape:deskcolor="#d1d1d1" />
  <path
     id="line1"
     style="baseline-shift:baseline;display:inline;overflow:visible;vector-effect:none;fill:url(#linearGradient2);stroke-linecap:round;stroke-linejoin:round;enable-background:accumulate;stop-color:#000000;stop-opacity:1;opacity:1;fill-opacity:1"
     d="M 87.990234 48 C 77.311807 48.012554 69.453016 58.930176 72.830078 69.060547 L 81.810547 96 L 59.314453 96 L 37.65625 74.34375 A 8.0008 8.0008 0 0 0 32 72 L 24 72 A 8.0008 8.0008 0 0 0 23.998047 72 C 13.498697 72.002946 5.6591571 82.54349 8.6777344 92.599609 L 22.748047 139.49805 A 8.0008 8.0008 0 0 0 22.748047 139.5 C 27.816081 156.3837 43.432603 168.00056 61.060547 168 L 240 168 A 8.0008 8.0008 0 0 0 248 160 L 248 136 C 248 114.00337 229.99663 96 208 96 L 147.3125 96 L 101.65625 50.34375 A 8.0008 8.0008 0 0 0 96 48 L 88 48 A 8.0008 8.0008 0 0 0 87.990234 48 z M 88.009766 64 L 92.685547 64 L 138.34375 109.65625 A 8.0008 8.0008 0 0 0 144 112 L 208 112 C 221.34959 112 232 122.65041 232 136 L 232 152 L 61.060547 152 C 50.42857 152.00034 41.128959 145.08349 38.072266 134.90039 L 24.001953 88.001953 A 8.0008 8.0008 0 0 0 24.001953 88 L 28.685547 88 L 50.34375 109.65625 A 8.0008 8.0008 0 0 0 56 112 L 92.910156 112 A 8.0008 8.0008 0 0 0 100.5 101.4707 L 88.009766 64 z M 72 208 A 8 8 0 0 0 64 216 A 8 8 0 0 0 72 224 L 216 224 A 8 8 0 0 0 224 216 A 8 8 0 0 0 216 208 L 72 208 z " />
</svg>
