<?xml version="1.0" encoding="UTF-8" standalone="no"?>
<svg
   viewBox="0 0 256 256"
   version="1.1"
   id="svg3"
   sodipodi:docname="apple podcasts logo purple_blue.svg"
   xmlns:inkscape="http://www.inkscape.org/namespaces/inkscape"
   xmlns:sodipodi="http://sodipodi.sourceforge.net/DTD/sodipodi-0.dtd"
   xmlns:xlink="http://www.w3.org/1999/xlink"
   xmlns="http://www.w3.org/2000/svg"
   xmlns:svg="http://www.w3.org/2000/svg">
  <defs
     id="defs3">
    <linearGradient
       id="linearGradient1"
       inkscape:collect="always">
      <stop
         style="stop-color:#4b4fe2ff;stop-opacity:1;"
         offset="0"
         id="stop1" />
      <stop
         style="stop-color:#a03291;stop-opacity:1;"
         offset="0.76340693"
         id="stop2" />
    </linearGradient>
    <linearGradient
       inkscape:collect="always"
       xlink:href="#linearGradient1"
       id="linearGradient2"
       x1="232.4884"
       y1="23.847498"
       x2="23.977745"
       y2="232.35815"
       gradientUnits="userSpaceOnUse" />
  </defs>
  <defs
     id="defs1" />
  <sodipodi:namedview
     id="namedview3"
     pagecolor="#ffffff"
     bordercolor="#000000"
     borderopacity="0.25"
     inkscape:showpageshadow="2"
     inkscape:pageopacity="0.0"
     inkscape:pagecheckerboard="0"
     inkscape:deskcolor="#d1d1d1" />
  <path
     id="circle1"
     style="baseline-shift:baseline;display:inline;overflow:visible;vector-effect:none;fill:url(#linearGradient2);stroke-linecap:round;stroke-linejoin:round;enable-background:accumulate;stop-color:#000000;stop-opacity:1;opacity:1;fill-opacity:1"
     d="M 128 24.025391 C 82.234741 24.025391 41.779871 54.01226 28.484375 97.802734 C 15.188817 141.59342 32.139273 189.01557 70.181641 214.45898 A 8 8 0 0 0 81.279297 212.25781 A 8 8 0 0 0 79.078125 201.16016 C 46.836215 179.59619 32.526861 139.56402 43.794922 102.45117 C 55.062913 65.338554 89.211117 40.025391 128 40.025391 C 166.78888 40.025391 200.93709 65.338554 212.20508 102.45117 C 223.47314 139.56402 209.1638 179.59619 176.92188 201.16016 A 8 8 0 0 0 174.7207 212.25781 A 8 8 0 0 0 185.81836 214.45898 C 223.86073 189.01557 240.81118 141.59342 227.51562 97.802734 C 214.22013 54.01226 173.76526 24.025391 128 24.025391 z M 128 56.068359 C 80.599444 56.068359 45.947513 101.64326 58.621094 147.31836 A 8 8 0 0 0 68.46875 152.88867 A 8 8 0 0 0 74.039062 143.04102 C 64.083861 107.16284 90.766484 72.068359 128 72.068359 C 165.23352 72.068359 191.91614 107.16284 181.96094 143.04102 A 8 8 0 0 0 187.53125 152.88867 A 8 8 0 0 0 197.37891 147.31836 C 210.05249 101.64326 175.40056 56.068359 128 56.068359 z M 128 88 C 110.42165 88 96 102.42165 96 120 C 96 126.8063 98.16171 133.13985 101.83203 138.3457 C 91.99606 143.09939 85.927248 154.38658 88.71875 165.7832 A 8.0008 8.0008 0 0 0 88.736328 165.84961 L 100.92578 213.84961 A 8.0008 8.0008 0 0 0 100.9375 213.89453 C 103.71359 224.5625 113.45735 232.05589 124.48047 232 L 131.51953 232 C 142.54265 232.0559 152.28641 224.5625 155.0625 213.89453 A 8.0008 8.0008 0 0 0 155.07422 213.84961 L 167.26367 165.84961 A 8.0008 8.0008 0 0 0 167.28125 165.7832 C 170.07277 154.38658 164.00394 143.09939 154.16797 138.3457 C 157.83829 133.13985 160 126.8063 160 120 C 160 102.42165 145.57835 88 128 88 z M 128 104 C 136.93131 104 144 111.06869 144 120 C 144 128.93131 136.93131 136 128 136 C 119.06869 136 112 128.93131 112 120 C 112 111.06869 119.06869 104 128 104 z M 112.16992 152 A 8.0008 8.0008 0 0 0 112.25 152 L 143.75 152 A 8.0008 8.0008 0 0 0 143.83008 152 C 149.28402 151.9453 153.03395 156.67353 151.74023 161.9707 L 139.57812 209.86719 C 138.62323 213.53342 135.38829 216.01921 131.59961 216 A 8.0008 8.0008 0 0 0 131.56055 216 L 124.43945 216 A 8.0008 8.0008 0 0 0 124.40039 216 C 120.61171 216.0192 117.37675 213.53342 116.42188 209.86719 L 116.42188 209.86523 L 104.25977 161.9707 C 102.96605 156.67353 106.71598 151.94528 112.16992 152 z " />
</svg>
