<?xml version="1.0" encoding="UTF-8" standalone="no"?>
<svg
   viewBox="0 0 256 256"
   version="1.1"
   id="svg2"
   sodipodi:docname="arrows counter clockwise purple_blue.svg"
   xmlns:inkscape="http://www.inkscape.org/namespaces/inkscape"
   xmlns:sodipodi="http://sodipodi.sourceforge.net/DTD/sodipodi-0.dtd"
   xmlns:xlink="http://www.w3.org/1999/xlink"
   xmlns="http://www.w3.org/2000/svg"
   xmlns:svg="http://www.w3.org/2000/svg">
  <defs
     id="defs3">
    <linearGradient
       id="linearGradient1"
       inkscape:collect="always">
      <stop
         style="stop-color:#4b4fe2ff;stop-opacity:1;"
         offset="0"
         id="stop1" />
      <stop
         style="stop-color:#a03291;stop-opacity:1;"
         offset="0.76340693"
         id="stop2" />
    </linearGradient>
    <linearGradient
       inkscape:collect="always"
       xlink:href="#linearGradient1"
       id="linearGradient2"
       x1="232.4884"
       y1="23.847498"
       x2="23.977745"
       y2="232.35815"
       gradientUnits="userSpaceOnUse" />
  </defs>
  <defs
     id="defs2" />
  <sodipodi:namedview
     id="namedview2"
     pagecolor="#ffffff"
     bordercolor="#000000"
     borderopacity="0.25"
     inkscape:showpageshadow="2"
     inkscape:pageopacity="0.0"
     inkscape:pagecheckerboard="0"
     inkscape:deskcolor="#d1d1d1" />
  <path
     id="polyline1"
     style="baseline-shift:baseline;display:inline;overflow:visible;vector-effect:none;fill:url(#linearGradient2);stroke-linecap:round;stroke-linejoin:round;enable-background:accumulate;stop-color:#000000;stop-opacity:1;opacity:1;fill-opacity:1"
     d="M 129.94531 33.996094 C 105.53649 34.138143 81.181678 43.504566 62.623047 62.0625 L 48 76.6875 L 48 48 A 8 8 0 0 0 40 40 A 8 8 0 0 0 32 48 L 32 96 A 8.0008 8.0008 0 0 0 40 104 L 88 104 A 8 8 0 0 0 96 96 A 8 8 0 0 0 88 88 L 59.3125 88 L 73.9375 73.376953 C 104.98698 42.328638 155.00141 42.037823 186.41016 72.722656 A 8 8 0 0 0 197.72266 72.589844 A 8 8 0 0 0 197.58984 61.277344 C 178.81648 42.936666 154.35413 33.854044 129.94531 33.996094 z M 168 152 A 8 8 0 0 0 160 160 A 8 8 0 0 0 168 168 L 196.6875 168 L 182.0625 182.62305 C 151.01302 213.67136 100.99859 213.96218 69.589844 183.27734 A 8 8 0 0 0 58.277344 183.41016 A 8 8 0 0 0 58.410156 194.72266 C 95.956889 231.40401 156.25969 231.05337 193.37695 193.9375 L 208 179.3125 L 208 208 A 8 8 0 0 0 216 216 A 8 8 0 0 0 224 208 L 224 160 A 8.0008 8.0008 0 0 0 223.72656 157.92969 A 8.0008 8.0008 0 0 0 216 152 L 168 152 z " />
</svg>
