<?xml version="1.0" encoding="UTF-8" standalone="no"?>
<svg
   viewBox="0 0 256 256"
   version="1.1"
   id="svg2"
   sodipodi:docname="arrow elbow left up purple_blue.svg"
   xmlns:inkscape="http://www.inkscape.org/namespaces/inkscape"
   xmlns:sodipodi="http://sodipodi.sourceforge.net/DTD/sodipodi-0.dtd"
   xmlns:xlink="http://www.w3.org/1999/xlink"
   xmlns="http://www.w3.org/2000/svg"
   xmlns:svg="http://www.w3.org/2000/svg">
  <defs
     id="defs3">
    <linearGradient
       id="linearGradient1"
       inkscape:collect="always">
      <stop
         style="stop-color:#4b4fe2ff;stop-opacity:1;"
         offset="0"
         id="stop1" />
      <stop
         style="stop-color:#a03291;stop-opacity:1;"
         offset="0.76340693"
         id="stop2" />
    </linearGradient>
    <linearGradient
       inkscape:collect="always"
       xlink:href="#linearGradient1"
       id="linearGradient2"
       x1="232.4884"
       y1="23.847498"
       x2="23.977745"
       y2="232.35815"
       gradientUnits="userSpaceOnUse" />
  </defs>
  <defs
     id="defs2" />
  <sodipodi:namedview
     id="namedview2"
     pagecolor="#ffffff"
     bordercolor="#000000"
     borderopacity="0.25"
     inkscape:showpageshadow="2"
     inkscape:pageopacity="0.0"
     inkscape:pagecheckerboard="0"
     inkscape:deskcolor="#d1d1d1" />
  <path
     id="polyline1"
     style="baseline-shift:baseline;display:inline;overflow:visible;vector-effect:none;fill:url(#linearGradient2);stroke-linecap:round;stroke-linejoin:round;enable-background:accumulate;stop-color:#000000;stop-opacity:1;opacity:1;fill-opacity:1"
     d="M 88 40 A 8.0008 8.0008 0 0 0 86.949219 40.070312 A 8 8 0 0 0 86.460938 40.167969 A 8.0008 8.0008 0 0 0 85.914062 40.279297 A 8 8 0 0 0 85.398438 40.453125 A 8.0008 8.0008 0 0 0 84.921875 40.617188 A 8 8 0 0 0 84.445312 40.853516 A 8.0008 8.0008 0 0 0 83.966797 41.095703 A 8 8 0 0 0 83.525391 41.390625 A 8.0008 8.0008 0 0 0 83.103516 41.677734 A 8 8 0 0 0 82.664062 42.0625 A 8.0008 8.0008 0 0 0 82.34375 42.34375 L 82.261719 42.425781 L 34.34375 90.34375 A 8 8 0 0 0 34.34375 101.65625 A 8 8 0 0 0 45.65625 101.65625 L 80 67.3125 L 80 192 A 8.0008 8.0008 0 0 0 88 200 L 232 200 A 8 8 0 0 0 240 192 A 8 8 0 0 0 232 184 L 96 184 L 96 67.3125 L 130.34375 101.65625 A 8 8 0 0 0 141.65625 101.65625 A 8 8 0 0 0 141.65625 90.34375 L 93.738281 42.425781 L 93.65625 42.34375 A 8.0008 8.0008 0 0 0 93.335938 42.0625 A 8 8 0 0 0 92.896484 41.677734 A 8.0008 8.0008 0 0 0 92.474609 41.390625 A 8 8 0 0 0 92.033203 41.095703 A 8.0008 8.0008 0 0 0 91.554688 40.853516 A 8 8 0 0 0 91.078125 40.617188 A 8.0008 8.0008 0 0 0 90.601562 40.453125 A 8 8 0 0 0 90.085938 40.279297 A 8.0008 8.0008 0 0 0 89.539062 40.167969 A 8 8 0 0 0 89.050781 40.070312 A 8 8 0 0 0 88 40 z " />
</svg>
