<?xml version="1.0" encoding="UTF-8" standalone="no"?>
<svg
   viewBox="0 0 256 256"
   version="1.1"
   id="svg1"
   sodipodi:docname="arrow square out purple_blue.svg"
   xmlns:inkscape="http://www.inkscape.org/namespaces/inkscape"
   xmlns:sodipodi="http://sodipodi.sourceforge.net/DTD/sodipodi-0.dtd"
   xmlns:xlink="http://www.w3.org/1999/xlink"
   xmlns="http://www.w3.org/2000/svg"
   xmlns:svg="http://www.w3.org/2000/svg">
  <defs
     id="defs3">
    <linearGradient
       id="linearGradient1"
       inkscape:collect="always">
      <stop
         style="stop-color:#4b4fe2ff;stop-opacity:1;"
         offset="0"
         id="stop1" />
      <stop
         style="stop-color:#a03291;stop-opacity:1;"
         offset="0.76340693"
         id="stop2" />
    </linearGradient>
    <linearGradient
       inkscape:collect="always"
       xlink:href="#linearGradient1"
       id="linearGradient2"
       x1="232.4884"
       y1="23.847498"
       x2="23.977745"
       y2="232.35815"
       gradientUnits="userSpaceOnUse" />
  </defs>
  <defs
     id="defs1" />
  <sodipodi:namedview
     id="namedview1"
     pagecolor="#ffffff"
     bordercolor="#000000"
     borderopacity="0.25"
     inkscape:showpageshadow="2"
     inkscape:pageopacity="0.0"
     inkscape:pagecheckerboard="0"
     inkscape:deskcolor="#d1d1d1" />
  <path
     id="polyline1"
     style="baseline-shift:baseline;display:inline;overflow:visible;vector-effect:none;fill:url(#linearGradient2);stroke-linecap:round;stroke-linejoin:round;enable-background:accumulate;stop-color:#000000;stop-opacity:1;opacity:1;fill-opacity:1"
     d="M 152.00195 32 A 8 8 0 0 0 144 39.998047 A 8 8 0 0 0 151.99805 48 L 196.68164 48.005859 L 130.34375 114.34375 A 8 8 0 0 0 130.34375 125.65625 A 8 8 0 0 0 141.65625 125.65625 L 207.99414 59.318359 L 208 104.00195 A 8 8 0 0 0 216.00195 112 A 8 8 0 0 0 224 103.99805 L 223.99023 40.007812 A 8.0008 8.0008 0 0 0 223.97656 39.810547 A 8 8 0 0 0 223.92578 39.025391 A 8.0008 8.0008 0 0 0 223.89062 38.806641 A 8 8 0 0 0 223.7207 37.958984 A 8.0008 8.0008 0 0 0 223.68945 37.857422 A 8 8 0 0 0 221.65625 34.34375 A 8 8 0 0 0 216 32 A 8 8 0 0 0 215.60938 32.009766 L 152.00195 32 z M 48 64 C 39.258201 64 32 71.258201 32 80 L 32 208 C 32 216.7418 39.258201 224 48 224 L 176 224 C 184.7418 224 192 216.7418 192 208 L 192 136 A 8 8 0 0 0 184 128 A 8 8 0 0 0 176 136 L 176 208 L 48 208 L 48 80 L 120 80 A 8 8 0 0 0 128 72 A 8 8 0 0 0 120 64 L 48 64 z " />
</svg>
