<?xml version="1.0" encoding="UTF-8" standalone="no"?>
<svg
   viewBox="0 0 256 256"
   version="1.1"
   id="svg2"
   sodipodi:docname="arrow line down left purple_blue.svg"
   xmlns:inkscape="http://www.inkscape.org/namespaces/inkscape"
   xmlns:sodipodi="http://sodipodi.sourceforge.net/DTD/sodipodi-0.dtd"
   xmlns:xlink="http://www.w3.org/1999/xlink"
   xmlns="http://www.w3.org/2000/svg"
   xmlns:svg="http://www.w3.org/2000/svg">
  <defs
     id="defs3">
    <linearGradient
       id="linearGradient1"
       inkscape:collect="always">
      <stop
         style="stop-color:#4b4fe2ff;stop-opacity:1;"
         offset="0"
         id="stop1" />
      <stop
         style="stop-color:#a03291;stop-opacity:1;"
         offset="0.76340693"
         id="stop2" />
    </linearGradient>
    <linearGradient
       inkscape:collect="always"
       xlink:href="#linearGradient1"
       id="linearGradient2"
       x1="232.4884"
       y1="23.847498"
       x2="23.977745"
       y2="232.35815"
       gradientUnits="userSpaceOnUse" />
  </defs>
  <defs
     id="defs2" />
  <sodipodi:namedview
     id="namedview2"
     pagecolor="#ffffff"
     bordercolor="#000000"
     borderopacity="0.25"
     inkscape:showpageshadow="2"
     inkscape:pageopacity="0.0"
     inkscape:pagecheckerboard="0"
     inkscape:deskcolor="#d1d1d1" />
  <path
     id="line1"
     style="baseline-shift:baseline;display:inline;overflow:visible;vector-effect:none;fill:url(#linearGradient2);stroke-linecap:round;stroke-linejoin:round;enable-background:accumulate;stop-color:#000000;stop-opacity:1;opacity:1;fill-opacity:1"
     d="M 48 40 A 8 8 0 0 0 40 48 A 8 8 0 0 0 48 56 L 224 56 A 8 8 0 0 0 232 48 A 8 8 0 0 0 224 40 L 48 40 z M 184 88 A 8 8 0 0 0 178.34375 90.34375 L 80 188.6875 L 80 112 A 8 8 0 0 0 72 104 A 8 8 0 0 0 64 112 L 64 208 A 8.0008 8.0008 0 0 0 64.273438 210.07031 A 8 8 0 0 0 66.34375 213.65625 A 8 8 0 0 0 69.929688 215.72656 A 8.0008 8.0008 0 0 0 72 216 L 168 216 A 8 8 0 0 0 176 208 A 8 8 0 0 0 168 200 L 91.3125 200 L 189.65625 101.65625 A 8 8 0 0 0 189.65625 90.34375 A 8 8 0 0 0 184 88 z " />
</svg>
