<?xml version="1.0" encoding="UTF-8" standalone="no"?>
<svg
   viewBox="0 0 256 256"
   version="1.1"
   id="svg2"
   sodipodi:docname="arrow line up purple_blue.svg"
   xmlns:inkscape="http://www.inkscape.org/namespaces/inkscape"
   xmlns:sodipodi="http://sodipodi.sourceforge.net/DTD/sodipodi-0.dtd"
   xmlns:xlink="http://www.w3.org/1999/xlink"
   xmlns="http://www.w3.org/2000/svg"
   xmlns:svg="http://www.w3.org/2000/svg">
  <defs
     id="defs3">
    <linearGradient
       id="linearGradient1"
       inkscape:collect="always">
      <stop
         style="stop-color:#4b4fe2ff;stop-opacity:1;"
         offset="0"
         id="stop1" />
      <stop
         style="stop-color:#a03291;stop-opacity:1;"
         offset="0.76340693"
         id="stop2" />
    </linearGradient>
    <linearGradient
       inkscape:collect="always"
       xlink:href="#linearGradient1"
       id="linearGradient2"
       x1="232.4884"
       y1="23.847498"
       x2="23.977745"
       y2="232.35815"
       gradientUnits="userSpaceOnUse" />
  </defs>
  <defs
     id="defs2" />
  <sodipodi:namedview
     id="namedview2"
     pagecolor="#ffffff"
     bordercolor="#000000"
     borderopacity="0.25"
     inkscape:showpageshadow="2"
     inkscape:pageopacity="0.0"
     inkscape:pagecheckerboard="0"
     inkscape:deskcolor="#d1d1d1" />
  <path
     id="line1"
     style="baseline-shift:baseline;display:inline;overflow:visible;vector-effect:none;fill:url(#linearGradient2);stroke-linecap:round;stroke-linejoin:round;enable-background:accumulate;stop-color:#000000;stop-opacity:1;opacity:1;fill-opacity:1"
     d="M 40 32 A 8 8 0 0 0 32 40 A 8 8 0 0 0 40 48 L 216 48 A 8 8 0 0 0 224 40 A 8 8 0 0 0 216 32 L 40 32 z M 128 64 A 8.0008 8.0008 0 0 0 126.94922 64.070312 A 8 8 0 0 0 126.46094 64.167969 A 8.0008 8.0008 0 0 0 125.91406 64.279297 A 8 8 0 0 0 125.39844 64.453125 A 8.0008 8.0008 0 0 0 124.92188 64.617188 A 8 8 0 0 0 124.44531 64.853516 A 8.0008 8.0008 0 0 0 123.9668 65.095703 A 8 8 0 0 0 123.52539 65.390625 A 8.0008 8.0008 0 0 0 123.10352 65.677734 A 8 8 0 0 0 122.66406 66.0625 A 8.0008 8.0008 0 0 0 122.34375 66.34375 L 50.34375 138.34375 A 8 8 0 0 0 50.34375 149.65625 A 8 8 0 0 0 61.65625 149.65625 L 120 91.3125 L 120 224 A 8 8 0 0 0 128 232 A 8 8 0 0 0 136 224 L 136 91.3125 L 194.34375 149.65625 A 8 8 0 0 0 205.65625 149.65625 A 8 8 0 0 0 205.65625 138.34375 L 133.65625 66.34375 A 8.0008 8.0008 0 0 0 133.33594 66.0625 A 8 8 0 0 0 132.89648 65.677734 A 8.0008 8.0008 0 0 0 132.47461 65.390625 A 8 8 0 0 0 132.0332 65.095703 A 8.0008 8.0008 0 0 0 131.55469 64.853516 A 8 8 0 0 0 131.07812 64.617188 A 8.0008 8.0008 0 0 0 130.60156 64.453125 A 8 8 0 0 0 130.08594 64.279297 A 8.0008 8.0008 0 0 0 129.53906 64.167969 A 8 8 0 0 0 128 64 z " />
</svg>
