<?xml version="1.0" encoding="UTF-8" standalone="no"?>
<svg
   viewBox="0 0 256 256"
   version="1.1"
   id="svg5"
   sodipodi:docname="arrows out cardinal purple_blue.svg"
   xmlns:inkscape="http://www.inkscape.org/namespaces/inkscape"
   xmlns:sodipodi="http://sodipodi.sourceforge.net/DTD/sodipodi-0.dtd"
   xmlns:xlink="http://www.w3.org/1999/xlink"
   xmlns="http://www.w3.org/2000/svg"
   xmlns:svg="http://www.w3.org/2000/svg">
  <defs
     id="defs3">
    <linearGradient
       id="linearGradient1"
       inkscape:collect="always">
      <stop
         style="stop-color:#4b4fe2ff;stop-opacity:1;"
         offset="0"
         id="stop1" />
      <stop
         style="stop-color:#a03291;stop-opacity:1;"
         offset="0.76340693"
         id="stop2" />
    </linearGradient>
    <linearGradient
       inkscape:collect="always"
       xlink:href="#linearGradient1"
       id="linearGradient2"
       x1="232.4884"
       y1="23.847498"
       x2="23.977745"
       y2="232.35815"
       gradientUnits="userSpaceOnUse" />
  </defs>
  <defs
     id="defs5" />
  <sodipodi:namedview
     id="namedview5"
     pagecolor="#ffffff"
     bordercolor="#000000"
     borderopacity="0.25"
     inkscape:showpageshadow="2"
     inkscape:pageopacity="0.0"
     inkscape:pagecheckerboard="0"
     inkscape:deskcolor="#d1d1d1" />
  <path
     id="line1"
     style="baseline-shift:baseline;display:inline;overflow:visible;vector-effect:none;fill:url(#linearGradient2);stroke-linecap:round;stroke-linejoin:round;enable-background:accumulate;stop-color:#000000;stop-opacity:1;opacity:1;fill-opacity:1"
     d="M 128 16 A 8.0008 8.0008 0 0 0 126.94922 16.070312 A 8 8 0 0 0 126.46094 16.167969 A 8.0008 8.0008 0 0 0 125.91406 16.279297 A 8 8 0 0 0 125.39844 16.453125 A 8.0008 8.0008 0 0 0 124.92188 16.617188 A 8 8 0 0 0 124.44531 16.853516 A 8.0008 8.0008 0 0 0 123.9668 17.095703 A 8 8 0 0 0 123.52539 17.390625 A 8.0008 8.0008 0 0 0 123.10352 17.677734 A 8 8 0 0 0 122.66406 18.0625 A 8.0008 8.0008 0 0 0 122.34375 18.34375 L 90.34375 50.34375 A 8 8 0 0 0 90.34375 61.65625 A 8 8 0 0 0 101.65625 61.65625 L 120 43.3125 L 120 96 A 8 8 0 0 0 128 104 A 8 8 0 0 0 136 96 L 136 43.3125 L 154.34375 61.65625 A 8 8 0 0 0 165.65625 61.65625 A 8 8 0 0 0 165.65625 50.34375 L 133.65625 18.34375 A 8.0008 8.0008 0 0 0 133.33594 18.0625 A 8 8 0 0 0 132.89648 17.677734 A 8.0008 8.0008 0 0 0 132.47461 17.390625 A 8 8 0 0 0 132.0332 17.095703 A 8.0008 8.0008 0 0 0 131.55469 16.853516 A 8 8 0 0 0 131.07812 16.617188 A 8.0008 8.0008 0 0 0 130.60156 16.453125 A 8 8 0 0 0 130.08594 16.279297 A 8.0008 8.0008 0 0 0 129.53906 16.167969 A 8 8 0 0 0 128 16 z M 56 88 A 8 8 0 0 0 50.34375 90.34375 L 18.425781 122.26172 L 18.34375 122.34375 A 8.0008 8.0008 0 0 0 18.0625 122.66406 A 8 8 0 0 0 17.677734 123.10352 A 8.0008 8.0008 0 0 0 17.390625 123.52539 A 8 8 0 0 0 17.095703 123.9668 A 8.0008 8.0008 0 0 0 16.853516 124.44531 A 8 8 0 0 0 16.617188 124.92188 A 8.0008 8.0008 0 0 0 16.453125 125.39844 A 8 8 0 0 0 16.279297 125.91406 A 8.0008 8.0008 0 0 0 16.201172 126.29297 A 8 8 0 0 0 16 128 A 8 8 0 0 0 16.201172 129.70703 A 8.0008 8.0008 0 0 0 16.279297 130.08594 A 8 8 0 0 0 16.453125 130.60156 A 8.0008 8.0008 0 0 0 16.617188 131.07812 A 8 8 0 0 0 16.853516 131.55469 A 8.0008 8.0008 0 0 0 17.095703 132.0332 A 8 8 0 0 0 17.390625 132.47461 A 8.0008 8.0008 0 0 0 17.677734 132.89648 A 8 8 0 0 0 18.0625 133.33594 A 8.0008 8.0008 0 0 0 18.34375 133.65625 L 18.425781 133.73828 L 50.34375 165.65625 A 8 8 0 0 0 61.65625 165.65625 A 8 8 0 0 0 61.65625 154.34375 L 43.3125 136 L 96 136 A 8 8 0 0 0 104 128 A 8 8 0 0 0 96 120 L 43.3125 120 L 61.65625 101.65625 A 8 8 0 0 0 61.65625 90.34375 A 8 8 0 0 0 56 88 z M 200 88 A 8 8 0 0 0 194.34375 90.34375 A 8 8 0 0 0 194.34375 101.65625 L 212.6875 120 L 160 120 A 8 8 0 0 0 152 128 A 8 8 0 0 0 160 136 L 212.6875 136 L 194.34375 154.34375 A 8 8 0 0 0 194.34375 165.65625 A 8 8 0 0 0 205.65625 165.65625 L 237.65625 133.65625 A 8.0008 8.0008 0 0 0 237.9375 133.33594 A 8 8 0 0 0 238.32227 132.89648 A 8.0008 8.0008 0 0 0 238.60938 132.47461 A 8 8 0 0 0 238.9043 132.0332 A 8.0008 8.0008 0 0 0 239.14648 131.55469 A 8 8 0 0 0 239.38281 131.07812 A 8.0008 8.0008 0 0 0 239.54688 130.60156 A 8 8 0 0 0 239.7207 130.08594 A 8.0008 8.0008 0 0 0 239.79883 129.70703 A 8 8 0 0 0 240 128 A 8 8 0 0 0 239.79883 126.29297 A 8.0008 8.0008 0 0 0 239.7207 125.91406 A 8 8 0 0 0 239.54688 125.39844 A 8.0008 8.0008 0 0 0 239.38281 124.92188 A 8 8 0 0 0 239.14648 124.44531 A 8.0008 8.0008 0 0 0 238.9043 123.9668 A 8 8 0 0 0 238.60938 123.52539 A 8.0008 8.0008 0 0 0 238.32227 123.10352 A 8 8 0 0 0 237.9375 122.66406 A 8.0008 8.0008 0 0 0 237.65625 122.34375 L 205.65625 90.34375 A 8 8 0 0 0 200 88 z M 128 152 A 8 8 0 0 0 120 160 L 120 212.6875 L 101.65625 194.34375 A 8 8 0 0 0 96 192 A 8 8 0 0 0 90.34375 194.34375 A 8 8 0 0 0 90.34375 205.65625 L 122.34375 237.65625 A 8.0008 8.0008 0 0 0 122.66406 237.9375 A 8 8 0 0 0 123.10352 238.32227 A 8.0008 8.0008 0 0 0 123.52539 238.60938 A 8 8 0 0 0 123.9668 238.9043 A 8.0008 8.0008 0 0 0 124.44531 239.14648 A 8 8 0 0 0 124.92188 239.38281 A 8.0008 8.0008 0 0 0 125.39844 239.54688 A 8 8 0 0 0 125.91406 239.7207 A 8.0008 8.0008 0 0 0 126.29297 239.79883 A 8 8 0 0 0 128 240 A 8 8 0 0 0 129.70703 239.79883 A 8.0008 8.0008 0 0 0 130.08594 239.7207 A 8 8 0 0 0 130.60156 239.54688 A 8.0008 8.0008 0 0 0 131.07812 239.38281 A 8 8 0 0 0 131.55469 239.14648 A 8.0008 8.0008 0 0 0 132.0332 238.9043 A 8 8 0 0 0 132.47461 238.60938 A 8.0008 8.0008 0 0 0 132.89648 238.32227 A 8 8 0 0 0 133.33594 237.9375 A 8.0008 8.0008 0 0 0 133.65625 237.65625 L 165.65625 205.65625 A 8 8 0 0 0 165.65625 194.34375 A 8 8 0 0 0 154.34375 194.34375 L 136 212.6875 L 136 160 A 8 8 0 0 0 128 152 z " />
</svg>
