<?xml version="1.0" encoding="UTF-8" standalone="no"?>
<svg
   viewBox="0 0 256 256"
   version="1.1"
   id="svg2"
   sodipodi:docname="arrow elbow up right purple_blue.svg"
   xmlns:inkscape="http://www.inkscape.org/namespaces/inkscape"
   xmlns:sodipodi="http://sodipodi.sourceforge.net/DTD/sodipodi-0.dtd"
   xmlns:xlink="http://www.w3.org/1999/xlink"
   xmlns="http://www.w3.org/2000/svg"
   xmlns:svg="http://www.w3.org/2000/svg">
  <defs
     id="defs3">
    <linearGradient
       id="linearGradient1"
       inkscape:collect="always">
      <stop
         style="stop-color:#4b4fe2ff;stop-opacity:1;"
         offset="0"
         id="stop1" />
      <stop
         style="stop-color:#a03291;stop-opacity:1;"
         offset="0.76340693"
         id="stop2" />
    </linearGradient>
    <linearGradient
       inkscape:collect="always"
       xlink:href="#linearGradient1"
       id="linearGradient2"
       x1="232.4884"
       y1="23.847498"
       x2="23.977745"
       y2="232.35815"
       gradientUnits="userSpaceOnUse" />
  </defs>
  <defs
     id="defs2" />
  <sodipodi:namedview
     id="namedview2"
     pagecolor="#ffffff"
     bordercolor="#000000"
     borderopacity="0.25"
     inkscape:showpageshadow="2"
     inkscape:pageopacity="0.0"
     inkscape:pagecheckerboard="0"
     inkscape:deskcolor="#d1d1d1" />
  <path
     id="polyline1"
     style="baseline-shift:baseline;display:inline;overflow:visible;vector-effect:none;fill:url(#linearGradient2);stroke-linecap:round;stroke-linejoin:round;enable-background:accumulate;stop-color:#000000;stop-opacity:1;opacity:1;fill-opacity:1"
     d="M 168 24 A 8 8 0 0 0 162.34375 26.34375 A 8 8 0 0 0 162.34375 37.65625 L 196.6875 72 L 72 72 A 8.0008 8.0008 0 0 0 64 80 L 64 224 A 8 8 0 0 0 72 232 A 8 8 0 0 0 80 224 L 80 88 L 196.6875 88 L 162.34375 122.34375 A 8 8 0 0 0 162.34375 133.65625 A 8 8 0 0 0 173.65625 133.65625 L 221.57422 85.738281 L 221.65625 85.65625 A 8.0008 8.0008 0 0 0 221.9375 85.335938 A 8 8 0 0 0 222.32227 84.896484 A 8.0008 8.0008 0 0 0 222.60938 84.474609 A 8 8 0 0 0 222.9043 84.033203 A 8.0008 8.0008 0 0 0 223.14648 83.554688 A 8 8 0 0 0 223.38281 83.078125 A 8.0008 8.0008 0 0 0 223.54688 82.601562 A 8 8 0 0 0 223.7207 82.085938 A 8.0008 8.0008 0 0 0 223.79883 81.707031 A 8 8 0 0 0 224 80 A 8 8 0 0 0 223.79883 78.292969 A 8.0008 8.0008 0 0 0 223.7207 77.914062 A 8 8 0 0 0 223.54688 77.398438 A 8.0008 8.0008 0 0 0 223.38281 76.921875 A 8 8 0 0 0 223.14648 76.445312 A 8.0008 8.0008 0 0 0 222.9043 75.966797 A 8 8 0 0 0 222.60938 75.525391 A 8.0008 8.0008 0 0 0 222.32227 75.103516 A 8 8 0 0 0 221.9375 74.664062 A 8.0008 8.0008 0 0 0 221.65625 74.34375 L 221.57422 74.261719 L 173.65625 26.34375 A 8 8 0 0 0 168 24 z " />
</svg>
