<?xml version="1.0" encoding="UTF-8" standalone="no"?>
<svg
   viewBox="0 0 256 256"
   version="1.1"
   id="svg1"
   sodipodi:docname="arrow u down right purple_blue.svg"
   xmlns:inkscape="http://www.inkscape.org/namespaces/inkscape"
   xmlns:sodipodi="http://sodipodi.sourceforge.net/DTD/sodipodi-0.dtd"
   xmlns:xlink="http://www.w3.org/1999/xlink"
   xmlns="http://www.w3.org/2000/svg"
   xmlns:svg="http://www.w3.org/2000/svg">
  <defs
     id="defs3">
    <linearGradient
       id="linearGradient1"
       inkscape:collect="always">
      <stop
         style="stop-color:#4b4fe2ff;stop-opacity:1;"
         offset="0"
         id="stop1" />
      <stop
         style="stop-color:#a03291;stop-opacity:1;"
         offset="0.76340693"
         id="stop2" />
    </linearGradient>
    <linearGradient
       inkscape:collect="always"
       xlink:href="#linearGradient1"
       id="linearGradient2"
       x1="232.4884"
       y1="23.847498"
       x2="23.977745"
       y2="232.35815"
       gradientUnits="userSpaceOnUse" />
  </defs>
  <defs
     id="defs1" />
  <sodipodi:namedview
     id="namedview1"
     pagecolor="#ffffff"
     bordercolor="#000000"
     borderopacity="0.25"
     inkscape:showpageshadow="2"
     inkscape:pageopacity="0.0"
     inkscape:pagecheckerboard="0"
     inkscape:deskcolor="#d1d1d1" />
  <path
     id="polyline1"
     style="baseline-shift:baseline;display:inline;overflow:visible;vector-effect:none;fill:url(#linearGradient2);stroke-linecap:round;stroke-linejoin:round;enable-background:accumulate;stop-color:#000000;stop-opacity:1;opacity:1;fill-opacity:1"
     d="M 88 48 C 52.748533 48 24 76.748533 24 112 C 24 147.25147 52.748533 176 88 176 L 204.6875 176 L 170.34375 210.34375 A 8 8 0 0 0 170.34375 221.65625 A 8 8 0 0 0 181.65625 221.65625 L 229.57422 173.73828 L 229.65625 173.65625 A 8.0008 8.0008 0 0 0 229.9375 173.33594 A 8 8 0 0 0 230.32227 172.89648 A 8.0008 8.0008 0 0 0 230.60938 172.47461 A 8 8 0 0 0 230.9043 172.0332 A 8.0008 8.0008 0 0 0 231.14648 171.55469 A 8 8 0 0 0 231.38281 171.07812 A 8.0008 8.0008 0 0 0 231.54688 170.60156 A 8 8 0 0 0 231.7207 170.08594 A 8.0008 8.0008 0 0 0 231.79883 169.70703 A 8 8 0 0 0 232 168 A 8 8 0 0 0 231.79883 166.29297 A 8.0008 8.0008 0 0 0 231.7207 165.91406 A 8 8 0 0 0 231.54688 165.39844 A 8.0008 8.0008 0 0 0 231.38281 164.92188 A 8 8 0 0 0 231.14648 164.44531 A 8.0008 8.0008 0 0 0 230.9043 163.9668 A 8 8 0 0 0 230.60938 163.52539 A 8.0008 8.0008 0 0 0 230.32227 163.10352 A 8 8 0 0 0 229.9375 162.66406 A 8.0008 8.0008 0 0 0 229.65625 162.34375 L 229.57422 162.26172 L 181.65625 114.34375 A 8 8 0 0 0 176 112 A 8 8 0 0 0 170.34375 114.34375 A 8 8 0 0 0 170.34375 125.65625 L 204.6875 160 L 88 160 C 61.395575 160 40 138.60443 40 112 C 40 85.395575 61.395575 64 88 64 L 176 64 A 8 8 0 0 0 184 56 A 8 8 0 0 0 176 48 L 88 48 z " />
</svg>
