<?xml version="1.0" encoding="UTF-8" standalone="no"?>
<svg
   viewBox="0 0 256 256"
   version="1.1"
   id="svg3"
   sodipodi:docname="asclepius purple_blue.svg"
   xmlns:inkscape="http://www.inkscape.org/namespaces/inkscape"
   xmlns:sodipodi="http://sodipodi.sourceforge.net/DTD/sodipodi-0.dtd"
   xmlns:xlink="http://www.w3.org/1999/xlink"
   xmlns="http://www.w3.org/2000/svg"
   xmlns:svg="http://www.w3.org/2000/svg">
  <defs
     id="defs3">
    <linearGradient
       id="linearGradient1"
       inkscape:collect="always">
      <stop
         style="stop-color:#4b4fe2ff;stop-opacity:1;"
         offset="0"
         id="stop1" />
      <stop
         style="stop-color:#a03291;stop-opacity:1;"
         offset="0.76340693"
         id="stop2" />
    </linearGradient>
    <linearGradient
       inkscape:collect="always"
       xlink:href="#linearGradient1"
       id="linearGradient2"
       x1="232.4884"
       y1="23.847498"
       x2="23.977745"
       y2="232.35815"
       gradientUnits="userSpaceOnUse" />
  </defs>
  <defs
     id="defs1" />
  <sodipodi:namedview
     id="namedview3"
     pagecolor="#ffffff"
     bordercolor="#000000"
     borderopacity="0.25"
     inkscape:showpageshadow="2"
     inkscape:pageopacity="0.0"
     inkscape:pagecheckerboard="0"
     inkscape:deskcolor="#d1d1d1" />
  <path
     id="line1"
     style="baseline-shift:baseline;display:inline;overflow:visible;vector-effect:none;fill:url(#linearGradient2);stroke-linecap:round;stroke-linejoin:round;enable-background:accumulate;stop-color:#000000;stop-opacity:1;opacity:1;fill-opacity:1"
     d="M 128 16 A 8 8 0 0 0 120 24 L 120 104 L 96 104 C 78.421645 104 64 118.42165 64 136 C 64 153.57835 78.421645 168 96 168 A 8 8 0 0 0 104 160 A 8 8 0 0 0 96 152 C 87.068687 152 80 144.93131 80 136 C 80 127.06869 87.068687 120 96 120 L 120 120 L 120 200 L 96 200 A 8 8 0 0 0 88 208 A 8 8 0 0 0 96 216 L 120 216 L 120 232 A 8 8 0 0 0 128 240 A 8 8 0 0 0 136 232 L 136 216 L 144 216 C 161.57835 216 176 201.57835 176 184 C 176.00055 174.89765 172.11848 166.21472 165.33398 160.14648 A 8 8 0 0 0 159.55469 158.12305 A 8 8 0 0 0 154.03711 160.77734 A 8 8 0 0 0 154.66602 172.07227 C 158.06309 175.1107 160.00028 179.44234 160 184 C 160 192.93131 152.93131 200 144 200 L 136 200 L 136 120 L 176 120 C 197.99663 120 216 101.99663 216 80 L 216 79 C 216 57.555652 198.44435 40 177 40 L 160 40 A 8 8 0 0 0 152 48 A 8 8 0 0 0 160 56 L 177 56 C 189.79731 56 200 66.202694 200 79 L 200 80 C 200 93.349591 189.34959 104 176 104 L 136 104 L 136 24 A 8 8 0 0 0 128 16 z M 64 40 C 42.003367 40 24 58.003367 24 80 L 24 88 A 8.0008 8.0008 0 0 0 32 96 L 56 96 C 77.996633 96 96 77.996633 96 56 A 8 8 0 0 0 104 48 A 8 8 0 0 0 96 40 L 88 40 L 64 40 z M 64 56 L 80 56 C 80 69.349591 69.349591 80 56 80 L 40 80 C 40 66.650409 50.650409 56 64 56 z " />
</svg>
