<?xml version="1.0" encoding="UTF-8" standalone="no"?>
<svg
   viewBox="0 0 256 256"
   version="1.1"
   id="svg1"
   sodipodi:docname="avocado purple_blue.svg"
   xmlns:inkscape="http://www.inkscape.org/namespaces/inkscape"
   xmlns:sodipodi="http://sodipodi.sourceforge.net/DTD/sodipodi-0.dtd"
   xmlns:xlink="http://www.w3.org/1999/xlink"
   xmlns="http://www.w3.org/2000/svg"
   xmlns:svg="http://www.w3.org/2000/svg">
  <defs
     id="defs3">
    <linearGradient
       id="linearGradient1"
       inkscape:collect="always">
      <stop
         style="stop-color:#4b4fe2ff;stop-opacity:1;"
         offset="0"
         id="stop1" />
      <stop
         style="stop-color:#a03291;stop-opacity:1;"
         offset="0.76340693"
         id="stop2" />
    </linearGradient>
    <linearGradient
       inkscape:collect="always"
       xlink:href="#linearGradient1"
       id="linearGradient2"
       x1="232.4884"
       y1="23.847498"
       x2="23.977745"
       y2="232.35815"
       gradientUnits="userSpaceOnUse" />
  </defs>
  <defs
     id="defs1" />
  <sodipodi:namedview
     id="namedview1"
     pagecolor="#ffffff"
     bordercolor="#000000"
     borderopacity="0.25"
     inkscape:showpageshadow="2"
     inkscape:pageopacity="0.0"
     inkscape:pagecheckerboard="0"
     inkscape:deskcolor="#d1d1d1" />
  <path
     id="circle1"
     style="baseline-shift:baseline;display:inline;overflow:visible;vector-effect:none;fill:url(#linearGradient2);stroke-linecap:round;stroke-linejoin:round;enable-background:accumulate;stop-color:#000000;stop-opacity:1;opacity:1;fill-opacity:1"
     d="M 128.62695 7.9316406 C 104.66746 7.6680599 83.13456 22.74241 75.183594 45.345703 L 45.708984 128.70508 C 24.1413 185.63854 66.10528 247.17005 126.98242 247.875 C 187.85957 248.57995 231.23765 188.03677 210.99414 130.61914 A 8.0008 8.0008 0 0 0 210.99219 130.61133 L 181.19336 46.390625 C 173.70617 23.68428 152.54382 8.1947526 128.62695 7.9316406 z M 128.45117 23.929688 C 145.61654 24.118526 160.68864 35.17314 166.02734 51.488281 A 8.0008 8.0008 0 0 0 166.08789 51.667969 L 195.9082 135.94922 C 212.61577 183.35874 177.4337 232.45707 127.16797 231.875 C 76.898686 231.29289 42.862352 181.38783 60.671875 134.375 A 8.0008 8.0008 0 0 0 60.732422 134.20703 L 90.271484 50.667969 A 8.0008 8.0008 0 0 0 90.277344 50.654297 C 95.973638 34.460551 111.2858 23.74085 128.45117 23.929688 z M 128 112 C 101.58509 112 80 133.58509 80 160 C 80 186.41491 101.58509 208 128 208 C 154.41491 208 176 186.41491 176 160 C 176 133.58509 154.41491 112 128 112 z M 128 128 C 145.76787 128 160 142.23213 160 160 C 160 177.76787 145.76787 192 128 192 C 110.23213 192 96 177.76787 96 160 C 96 142.23213 110.23213 128 128 128 z " />
</svg>
