<?xml version="1.0" encoding="UTF-8" standalone="no"?>
<svg
   viewBox="0 0 256 256"
   version="1.1"
   id="svg5"
   sodipodi:docname="backpack purple_blue.svg"
   xmlns:inkscape="http://www.inkscape.org/namespaces/inkscape"
   xmlns:sodipodi="http://sodipodi.sourceforge.net/DTD/sodipodi-0.dtd"
   xmlns:xlink="http://www.w3.org/1999/xlink"
   xmlns="http://www.w3.org/2000/svg"
   xmlns:svg="http://www.w3.org/2000/svg">
  <defs
     id="defs3">
    <linearGradient
       id="linearGradient1"
       inkscape:collect="always">
      <stop
         style="stop-color:#4b4fe2ff;stop-opacity:1;"
         offset="0"
         id="stop1" />
      <stop
         style="stop-color:#a03291;stop-opacity:1;"
         offset="0.76340693"
         id="stop2" />
    </linearGradient>
    <linearGradient
       inkscape:collect="always"
       xlink:href="#linearGradient1"
       id="linearGradient2"
       x1="232.4884"
       y1="23.847498"
       x2="23.977745"
       y2="232.35815"
       gradientUnits="userSpaceOnUse" />
  </defs>
  <defs
     id="defs5" />
  <sodipodi:namedview
     id="namedview5"
     pagecolor="#ffffff"
     bordercolor="#000000"
     borderopacity="0.25"
     inkscape:showpageshadow="2"
     inkscape:pageopacity="0.0"
     inkscape:pagecheckerboard="0"
     inkscape:deskcolor="#d1d1d1" />
  <path
     id="path1"
     style="baseline-shift:baseline;display:inline;overflow:visible;vector-effect:none;fill:url(#linearGradient2);stroke-linecap:round;stroke-linejoin:round;enable-background:accumulate;stop-color:#000000;stop-opacity:1;opacity:1;fill-opacity:1"
     d="M 112 8 C 98.839923 8 88 18.839923 88 32 L 88 40.572266 C 60.929783 44.476266 40 67.881852 40 96 L 40 216 C 40 224.7418 47.258201 232 56 232 L 200 232 C 208.7418 232 216 224.7418 216 216 L 216 96 C 216 67.881852 195.07022 44.476266 168 40.572266 L 168 32 C 168 18.839923 157.16008 8 144 8 L 112 8 z M 112 24 L 144 24 C 148.51304 24 152 27.486965 152 32 L 152 40 L 104 40 L 104 32 C 104 27.486965 107.48696 24 112 24 z M 96 56 L 160 56 C 182.18615 56 200 73.813853 200 96 L 200 216 L 184 216 L 184 152 C 184 138.83992 173.16008 128 160 128 L 96 128 C 82.839923 128 72 138.83992 72 152 L 72 216 L 56 216 L 56 96 C 56 73.813853 73.813853 56 96 56 z M 112 80 A 8 8 0 0 0 104 88 A 8 8 0 0 0 112 96 L 144 96 A 8 8 0 0 0 152 88 A 8 8 0 0 0 144 80 L 112 80 z M 96 144 L 160 144 C 164.51304 144 168 147.48696 168 152 L 168 160 L 144 160 L 88 160 L 88 152 C 88 147.48696 91.486965 144 96 144 z M 88 176 L 136 176 L 136 184 A 8 8 0 0 0 144 192 A 8 8 0 0 0 152 184 L 152 176 L 168 176 L 168 216 L 88 216 L 88 176 z " />
</svg>
