<?xml version="1.0" encoding="UTF-8" standalone="no"?>
<svg
   viewBox="0 0 256 256"
   version="1.1"
   id="svg3"
   sodipodi:docname="beach ball purple_blue.svg"
   xmlns:inkscape="http://www.inkscape.org/namespaces/inkscape"
   xmlns:sodipodi="http://sodipodi.sourceforge.net/DTD/sodipodi-0.dtd"
   xmlns:xlink="http://www.w3.org/1999/xlink"
   xmlns="http://www.w3.org/2000/svg"
   xmlns:svg="http://www.w3.org/2000/svg">
  <defs
     id="defs3">
    <linearGradient
       id="linearGradient1"
       inkscape:collect="always">
      <stop
         style="stop-color:#4b4fe2ff;stop-opacity:1;"
         offset="0"
         id="stop1" />
      <stop
         style="stop-color:#a03291;stop-opacity:1;"
         offset="0.76340693"
         id="stop2" />
    </linearGradient>
    <linearGradient
       inkscape:collect="always"
       xlink:href="#linearGradient1"
       id="linearGradient2"
       x1="232.4884"
       y1="23.847498"
       x2="23.977745"
       y2="232.35815"
       gradientUnits="userSpaceOnUse" />
  </defs>
  <defs
     id="defs1" />
  <sodipodi:namedview
     id="namedview3"
     pagecolor="#ffffff"
     bordercolor="#000000"
     borderopacity="0.25"
     inkscape:showpageshadow="2"
     inkscape:pageopacity="0.0"
     inkscape:pagecheckerboard="0"
     inkscape:deskcolor="#d1d1d1" />
  <path
     id="circle1"
     style="baseline-shift:baseline;display:inline;overflow:visible;vector-effect:none;fill:url(#linearGradient2);stroke-linecap:round;stroke-linejoin:round;enable-background:accumulate;stop-color:#000000;stop-opacity:1;opacity:1;fill-opacity:1"
     d="M 128 24 C 109.06506 24 91.295895 29.087317 75.986328 37.966797 A 8 8 0 0 0 74.419922 38.892578 C 44.22999 57.114878 24 90.241181 24 128 C 24 130.14204 24.191979 132.23536 24.320312 134.3457 A 8 8 0 0 0 24.443359 136.76367 C 28.674791 187.11539 68.884615 227.32521 119.23633 231.55664 A 8 8 0 0 0 121.6543 231.67969 C 123.76464 231.80802 125.85796 232 128 232 C 165.7589 232 198.88515 211.77012 217.10742 181.58008 A 8 8 0 0 0 218.0332 180.01367 C 226.91277 164.70405 232 146.93504 232 128 C 232 120.70486 231.22723 113.59002 229.79102 106.71484 A 8 8 0 0 0 229.48047 105.50586 C 220.77016 66.20494 189.79506 35.229844 150.49414 26.519531 A 8 8 0 0 0 149.28516 26.208984 C 142.40998 24.772774 135.29514 24 128 24 z M 128 40 C 132.78978 40 137.48877 40.381218 142.06836 41.113281 C 146.00382 51.68987 148.92169 62.496334 150.8418 73.400391 C 135.69338 61.302794 118.85652 51.478719 100.86328 44.244141 C 109.40667 41.488515 118.52518 40 128 40 z M 160.71094 46.251953 C 183.04473 55.167633 200.83239 72.955253 209.74805 95.289062 C 196.30172 91.134551 182.57872 88.449518 168.80273 87.199219 C 167.55238 73.422952 164.86566 59.69852 160.71094 46.251953 z M 80.361328 53.945312 C 102.75124 60.824216 123.56586 71.919746 141.70508 86.582031 C 105.98983 88.189027 70.912813 99.34476 40.404297 119.48828 C 43.033855 91.937941 58.299603 68.14233 80.361328 53.945312 z M 153.60547 102.39453 C 154.24022 142.47446 141.7798 182.28474 117.15039 215.3418 C 77.150715 210.45037 45.549633 178.84929 40.658203 138.84961 C 73.715257 114.2202 113.52553 101.75978 153.60547 102.39453 z M 182.60156 105.1582 C 193.50498 107.07831 204.31074 109.9964 214.88672 113.93164 C 215.61878 118.51123 216 123.21022 216 128 C 216 137.47476 214.51145 146.59338 211.75586 155.13672 C 204.52168 137.14383 194.69848 120.30654 182.60156 105.1582 z M 169.41797 114.29492 C 184.07999 132.43399 195.17587 153.24902 202.05469 175.63867 C 187.85767 197.70038 164.06205 212.96615 136.51172 215.5957 C 156.65505 185.08757 167.81082 150.00999 169.41797 114.29492 z " />
</svg>
