<?xml version="1.0" encoding="UTF-8" standalone="no"?>
<svg
   viewBox="0 0 256 256"
   version="1.1"
   id="svg3"
   sodipodi:docname="beer bottle purple_blue.svg"
   xmlns:inkscape="http://www.inkscape.org/namespaces/inkscape"
   xmlns:sodipodi="http://sodipodi.sourceforge.net/DTD/sodipodi-0.dtd"
   xmlns:xlink="http://www.w3.org/1999/xlink"
   xmlns="http://www.w3.org/2000/svg"
   xmlns:svg="http://www.w3.org/2000/svg">
  <defs
     id="defs3">
    <linearGradient
       id="linearGradient1"
       inkscape:collect="always">
      <stop
         style="stop-color:#4b4fe2ff;stop-opacity:1;"
         offset="0"
         id="stop1" />
      <stop
         style="stop-color:#a03291;stop-opacity:1;"
         offset="0.76340693"
         id="stop2" />
    </linearGradient>
    <linearGradient
       inkscape:collect="always"
       xlink:href="#linearGradient1"
       id="linearGradient2"
       x1="232.4884"
       y1="23.847498"
       x2="23.977745"
       y2="232.35815"
       gradientUnits="userSpaceOnUse" />
  </defs>
  <defs
     id="defs1" />
  <sodipodi:namedview
     id="namedview3"
     pagecolor="#ffffff"
     bordercolor="#000000"
     borderopacity="0.25"
     inkscape:showpageshadow="2"
     inkscape:pageopacity="0.0"
     inkscape:pagecheckerboard="0"
     inkscape:deskcolor="#d1d1d1" />
  <path
     id="line1"
     style="baseline-shift:baseline;display:inline;overflow:visible;vector-effect:none;fill:url(#linearGradient2);stroke-linecap:round;stroke-linejoin:round;enable-background:accumulate;stop-color:#000000;stop-opacity:1;opacity:1;fill-opacity:1"
     d="M 208 8 A 8 8 0 0 0 202.34375 10.34375 A 8 8 0 0 0 202.34375 21.65625 L 203.82031 23.132812 L 148.65234 64.511719 L 110.43164 72.15625 A 8.0008 8.0008 0 0 0 106.34375 74.34375 L 34.34375 146.34375 L 23.033203 157.65234 C 13.725096 166.95833 13.725096 182.29167 23.033203 191.59766 L 64.402344 232.9668 C 73.708326 242.2749 89.041674 242.2749 98.347656 232.9668 L 109.65625 221.65625 L 181.65625 149.65625 A 8.0008 8.0008 0 0 0 183.84375 145.56836 L 191.48828 107.34766 L 232.86719 52.179688 L 234.34375 53.65625 A 8 8 0 0 0 245.65625 53.65625 A 8 8 0 0 0 245.65625 42.34375 L 237.77539 34.462891 A 8 8 0 0 0 237.53906 34.226562 L 221.76953 18.457031 A 8 8 0 0 0 221.54492 18.232422 L 213.65625 10.34375 A 8 8 0 0 0 208 8 z M 215.25 34.5625 L 221.4375 40.75 L 177.59961 99.199219 A 8.0008 8.0008 0 0 0 176.15625 102.43164 L 168.63086 140.05664 L 160 148.6875 L 107.3125 96 L 115.94336 87.369141 L 153.56836 79.84375 A 8.0008 8.0008 0 0 0 156.80078 78.400391 L 215.25 34.5625 z M 96 107.3125 L 148.6875 160 L 104 204.6875 L 51.3125 152 L 96 107.3125 z M 40 163.3125 L 92.6875 216 L 87.033203 221.65234 A 8.0008 8.0008 0 0 0 87.033203 221.6543 C 83.841818 224.84641 78.908182 224.84641 75.716797 221.6543 A 8.0008 8.0008 0 0 0 75.716797 221.65234 L 34.347656 180.2832 A 8.0008 8.0008 0 0 0 34.345703 180.2832 C 31.153589 177.09182 31.153589 172.15818 34.345703 168.9668 A 8.0008 8.0008 0 0 0 34.347656 168.9668 L 40 163.3125 z " />
</svg>
