<?xml version="1.0" encoding="UTF-8" standalone="no"?>
<svg
   viewBox="0 0 256 256"
   version="1.1"
   id="svg2"
   sodipodi:docname="box arrow up purple_blue.svg"
   xmlns:inkscape="http://www.inkscape.org/namespaces/inkscape"
   xmlns:sodipodi="http://sodipodi.sourceforge.net/DTD/sodipodi-0.dtd"
   xmlns:xlink="http://www.w3.org/1999/xlink"
   xmlns="http://www.w3.org/2000/svg"
   xmlns:svg="http://www.w3.org/2000/svg">
  <defs
     id="defs3">
    <linearGradient
       id="linearGradient1"
       inkscape:collect="always">
      <stop
         style="stop-color:#4b4fe2ff;stop-opacity:1;"
         offset="0"
         id="stop1" />
      <stop
         style="stop-color:#a03291;stop-opacity:1;"
         offset="0.76340693"
         id="stop2" />
    </linearGradient>
    <linearGradient
       inkscape:collect="always"
       xlink:href="#linearGradient1"
       id="linearGradient2"
       x1="232.4884"
       y1="23.847498"
       x2="23.977745"
       y2="232.35815"
       gradientUnits="userSpaceOnUse" />
  </defs>
  <defs
     id="defs2" />
  <sodipodi:namedview
     id="namedview2"
     pagecolor="#ffffff"
     bordercolor="#000000"
     borderopacity="0.25"
     inkscape:showpageshadow="2"
     inkscape:pageopacity="0.0"
     inkscape:pagecheckerboard="0"
     inkscape:deskcolor="#d1d1d1" />
  <path
     id="path1"
     style="baseline-shift:baseline;display:inline;overflow:visible;vector-effect:none;fill:url(#linearGradient2);stroke-linecap:round;stroke-linejoin:round;enable-background:accumulate;stop-color:#000000;stop-opacity:1;opacity:1;fill-opacity:1"
     d="M 56 32 A 8.0008 8.0008 0 0 0 48.84375 36.421875 L 32.84375 68.421875 A 8.0008 8.0008 0 0 0 32.705078 68.746094 A 8 8 0 0 0 32.5625 69.078125 A 8.0008 8.0008 0 0 0 32.347656 69.708984 A 8 8 0 0 0 32.255859 70.019531 A 8.0008 8.0008 0 0 0 32.111328 70.738281 A 8 8 0 0 0 32.064453 71.003906 A 8.0008 8.0008 0 0 0 32 72 L 32 208 C 32 216.7418 39.258201 224 48 224 L 208 224 C 216.7418 224 224 216.7418 224 208 L 224 72 A 8.0008 8.0008 0 0 0 223.93555 71.003906 A 8 8 0 0 0 223.88867 70.738281 A 8.0008 8.0008 0 0 0 223.74414 70.019531 A 8 8 0 0 0 223.65234 69.708984 A 8.0008 8.0008 0 0 0 223.4375 69.078125 A 8 8 0 0 0 223.29492 68.746094 A 8.0008 8.0008 0 0 0 223.15625 68.421875 L 207.15625 36.421875 A 8.0008 8.0008 0 0 0 200 32 L 56 32 z M 60.943359 48 L 195.05664 48 L 203.05664 64 L 52.943359 64 L 60.943359 48 z M 48 80 L 208 80 L 208 208 L 48 208 L 48 80 z M 128 96 A 8.0008 8.0008 0 0 0 126.94922 96.070312 A 8 8 0 0 0 126.46094 96.167969 A 8.0008 8.0008 0 0 0 125.91406 96.279297 A 8 8 0 0 0 125.39844 96.453125 A 8.0008 8.0008 0 0 0 124.92188 96.617188 A 8 8 0 0 0 124.44531 96.853516 A 8.0008 8.0008 0 0 0 123.9668 97.095703 A 8 8 0 0 0 123.52539 97.390625 A 8.0008 8.0008 0 0 0 123.10352 97.677734 A 8 8 0 0 0 122.66406 98.0625 A 8.0008 8.0008 0 0 0 122.34375 98.34375 L 122.26172 98.425781 L 90.34375 130.34375 A 8 8 0 0 0 90.34375 141.65625 A 8 8 0 0 0 101.65625 141.65625 L 120 123.3125 L 120 184 A 8 8 0 0 0 128 192 A 8 8 0 0 0 136 184 L 136 123.3125 L 154.34375 141.65625 A 8 8 0 0 0 165.65625 141.65625 A 8 8 0 0 0 165.65625 130.34375 L 133.73828 98.425781 L 133.65625 98.34375 A 8.0008 8.0008 0 0 0 133.33594 98.0625 A 8 8 0 0 0 132.89648 97.677734 A 8.0008 8.0008 0 0 0 132.47461 97.390625 A 8 8 0 0 0 132.0332 97.095703 A 8.0008 8.0008 0 0 0 131.55469 96.853516 A 8 8 0 0 0 131.07812 96.617188 A 8.0008 8.0008 0 0 0 130.60156 96.453125 A 8 8 0 0 0 130.08594 96.279297 A 8.0008 8.0008 0 0 0 129.53906 96.167969 A 8 8 0 0 0 129.05078 96.070312 A 8 8 0 0 0 128 96 z " />
</svg>
