<?xml version="1.0" encoding="UTF-8" standalone="no"?>
<svg
   viewBox="0 0 256 256"
   version="1.1"
   id="svg2"
   sodipodi:docname="brackets round purple_blue.svg"
   xmlns:inkscape="http://www.inkscape.org/namespaces/inkscape"
   xmlns:sodipodi="http://sodipodi.sourceforge.net/DTD/sodipodi-0.dtd"
   xmlns:xlink="http://www.w3.org/1999/xlink"
   xmlns="http://www.w3.org/2000/svg"
   xmlns:svg="http://www.w3.org/2000/svg">
  <defs
     id="defs3">
    <linearGradient
       id="linearGradient1"
       inkscape:collect="always">
      <stop
         style="stop-color:#4b4fe2ff;stop-opacity:1;"
         offset="0"
         id="stop1" />
      <stop
         style="stop-color:#a03291;stop-opacity:1;"
         offset="0.76340693"
         id="stop2" />
    </linearGradient>
    <linearGradient
       inkscape:collect="always"
       xlink:href="#linearGradient1"
       id="linearGradient2"
       x1="232.4884"
       y1="23.847498"
       x2="23.977745"
       y2="232.35815"
       gradientUnits="userSpaceOnUse" />
  </defs>
  <defs
     id="defs2" />
  <sodipodi:namedview
     id="namedview2"
     pagecolor="#ffffff"
     bordercolor="#000000"
     borderopacity="0.25"
     inkscape:showpageshadow="2"
     inkscape:pageopacity="0.0"
     inkscape:pagecheckerboard="0"
     inkscape:deskcolor="#d1d1d1" />
  <path
     id="path1"
     style="baseline-shift:baseline;display:inline;overflow:visible;vector-effect:none;fill:url(#linearGradient2);stroke-linecap:round;stroke-linejoin:round;enable-background:accumulate;stop-color:#000000;stop-opacity:1;opacity:1;fill-opacity:1"
     d="M 71.865234 32.001953 A 8 8 0 0 0 67.884766 33.140625 C 67.884766 33.140625 56.328055 40.17666 45.490234 55.349609 C 34.652414 70.522559 24 94.333333 24 128 C 24 161.66667 34.652414 185.47744 45.490234 200.65039 C 56.328055 215.82334 67.884766 222.85939 67.884766 222.85938 A 8 8 0 0 0 78.859375 220.11523 A 8 8 0 0 0 76.115234 209.14062 C 76.115234 209.14062 67.671945 204.17666 58.509766 191.34961 C 49.347586 178.52256 40 158.33333 40 128 C 40 97.666667 49.347586 77.477441 58.509766 64.650391 C 67.671945 51.82334 76.115234 46.859375 76.115234 46.859375 A 8 8 0 0 0 78.859375 35.884766 A 8 8 0 0 0 73.939453 32.238281 A 8 8 0 0 0 71.865234 32.001953 z M 184.13477 32.001953 A 8 8 0 0 0 182.06055 32.238281 A 8 8 0 0 0 177.14062 35.884766 A 8 8 0 0 0 179.88477 46.859375 C 179.88477 46.859375 188.32806 51.82334 197.49023 64.650391 C 206.65241 77.477441 216 97.666667 216 128 C 216 158.33333 206.65241 178.52256 197.49023 191.34961 C 188.32806 204.17666 179.88477 209.14064 179.88477 209.14062 A 8 8 0 0 0 177.14062 220.11523 A 8 8 0 0 0 188.11523 222.85938 C 188.11523 222.85938 199.67194 215.82334 210.50977 200.65039 C 221.34759 185.47744 232 161.66667 232 128 C 232 94.333333 221.34759 70.522559 210.50977 55.349609 C 199.67194 40.17666 188.11523 33.140625 188.11523 33.140625 A 8 8 0 0 0 184.13477 32.001953 z " />
</svg>
