<?xml version="1.0" encoding="UTF-8" standalone="no"?>
<svg
   viewBox="0 0 256 256"
   version="1.1"
   id="svg6"
   sodipodi:docname="brain purple_blue.svg"
   xmlns:inkscape="http://www.inkscape.org/namespaces/inkscape"
   xmlns:sodipodi="http://sodipodi.sourceforge.net/DTD/sodipodi-0.dtd"
   xmlns:xlink="http://www.w3.org/1999/xlink"
   xmlns="http://www.w3.org/2000/svg"
   xmlns:svg="http://www.w3.org/2000/svg">
  <defs
     id="defs3">
    <linearGradient
       id="linearGradient1"
       inkscape:collect="always">
      <stop
         style="stop-color:#4b4fe2ff;stop-opacity:1;"
         offset="0"
         id="stop1" />
      <stop
         style="stop-color:#a03291;stop-opacity:1;"
         offset="0.76340693"
         id="stop2" />
    </linearGradient>
    <linearGradient
       inkscape:collect="always"
       xlink:href="#linearGradient1"
       id="linearGradient2"
       x1="232.4884"
       y1="23.847498"
       x2="23.977745"
       y2="232.35815"
       gradientUnits="userSpaceOnUse" />
  </defs>
  <defs
     id="defs6" />
  <sodipodi:namedview
     id="namedview6"
     pagecolor="#ffffff"
     bordercolor="#000000"
     borderopacity="0.25"
     inkscape:showpageshadow="2"
     inkscape:pageopacity="0.0"
     inkscape:pagecheckerboard="0"
     inkscape:deskcolor="#d1d1d1" />
  <path
     id="path1"
     style="baseline-shift:baseline;display:inline;overflow:visible;vector-effect:none;fill:url(#linearGradient2);stroke-linecap:round;stroke-linejoin:round;enable-background:accumulate;stop-color:#000000;stop-opacity:1;opacity:1;fill-opacity:1"
     d="M 88 24 C 61.585097 24 40 45.585077 40 72 L 40 73.625 C 17.616731 84.28191 4.4946205 108.58285 8.7636719 133.46875 C 11.92652 151.90618 23.953108 166.97702 40 174.60156 L 40 176 C 40 195.39122 51.715827 212.92534 69.630859 220.3457 C 87.545867 227.76606 108.22812 223.65078 121.93945 209.93945 C 124.23059 207.64831 126.25379 205.16233 128 202.52734 C 129.74621 205.16233 131.76941 207.64831 134.06055 209.93945 C 147.77188 223.65078 168.45413 227.76606 186.36914 220.3457 C 204.28417 212.92534 216 195.39122 216 176 L 216 174.60156 C 232.0469 166.97702 244.07347 151.90621 247.23633 133.46875 C 251.50538 108.58285 238.38327 84.28191 216 73.625 L 216 72 C 216 45.585077 194.4149 24 168 24 C 151.34812 24 136.61561 32.578786 128 45.537109 C 119.38439 32.578783 104.65188 24 88 24 z M 88 40 C 105.76788 40 120 54.232113 120 72 L 120 140.23242 C 111.36773 132.51735 100.04195 128 88 128 A 8 8 0 0 0 80 136 A 8 8 0 0 0 88 144 C 100.96573 144 112.60305 151.77556 117.56445 163.75391 C 119.11172 167.48947 119.91089 171.39497 120 175.2793 L 120 176 A 8 8 0 0 0 120.00586 176.33008 C 119.92397 184.53921 116.67813 192.57578 110.62695 198.62695 C 101.45857 207.79534 87.732221 210.52584 75.753906 205.56445 C 64.851897 201.04887 57.431107 191.00307 56.185547 179.45898 C 58.744924 179.81771 61.354447 180.002 64 180 L 72 180 A 8 8 0 0 0 80 172 A 8 8 0 0 0 72 164 L 64 164 A 8.0008 8.0008 0 0 0 63.992188 164 C 59.508018 164.00402 55.178191 163.27048 51.128906 161.90625 A 8 8 0 0 0 50.162109 161.56836 C 37.031466 156.76483 27.019707 145.25844 24.533203 130.76367 C 21.227853 111.49555 32.222449 92.774398 50.660156 86.275391 A 8.0008 8.0008 0 0 0 56 78.730469 L 56 72 C 56 54.232113 70.232124 40 88 40 z M 168 40 C 185.76788 40 200 54.232113 200 72 L 200 78.730469 A 8.0008 8.0008 0 0 0 205.33984 86.275391 C 223.77755 92.774398 234.77215 111.49555 231.4668 130.76367 C 228.98029 145.25843 218.96852 156.76482 205.83789 161.56836 A 8 8 0 0 0 204.87109 161.90625 C 200.82182 163.27047 196.49197 164.00402 192.00781 164 A 8.0008 8.0008 0 0 0 192 164 L 184 164 A 8 8 0 0 0 176 172 A 8 8 0 0 0 184 180 L 191.99219 180 C 194.64042 180.00237 197.25256 179.81806 199.81445 179.45898 C 198.56889 191.00306 191.1481 201.04887 180.24609 205.56445 C 168.26778 210.52584 154.54143 207.79534 145.37305 198.62695 C 139.32187 192.57578 136.07603 184.53921 135.99414 176.33008 A 8 8 0 0 0 136 176 L 136 175.2793 C 136.08911 171.39497 136.88828 167.48947 138.43555 163.75391 C 143.39695 151.77556 155.03427 144 168 144 A 8 8 0 0 0 176 136 A 8 8 0 0 0 168 128 C 155.95805 128 144.63227 132.51735 136 140.23242 L 136 72 C 136 54.232113 150.23212 40 168 40 z M 88 72 A 8 8 0 0 0 80 80 L 80 84 C 80 95.140452 71.140452 104 60 104 L 56 104 A 8 8 0 0 0 48 112 A 8 8 0 0 0 56 120 L 60 120 C 79.787494 120 96 103.78749 96 84 L 96 80 A 8 8 0 0 0 88 72 z M 168 72 A 8 8 0 0 0 160 80 L 160 84 C 160 103.78749 176.21251 120 196 120 L 200 120 A 8 8 0 0 0 208 112 A 8 8 0 0 0 200 104 L 196 104 C 184.85955 104 176 95.140452 176 84 L 176 80 A 8 8 0 0 0 168 72 z " />
</svg>
