<?xml version="1.0" encoding="UTF-8" standalone="no"?>
<svg
   viewBox="0 0 256 256"
   version="1.1"
   id="svg4"
   sodipodi:docname="bread purple_blue.svg"
   xmlns:inkscape="http://www.inkscape.org/namespaces/inkscape"
   xmlns:sodipodi="http://sodipodi.sourceforge.net/DTD/sodipodi-0.dtd"
   xmlns:xlink="http://www.w3.org/1999/xlink"
   xmlns="http://www.w3.org/2000/svg"
   xmlns:svg="http://www.w3.org/2000/svg">
  <defs
     id="defs3">
    <linearGradient
       id="linearGradient1"
       inkscape:collect="always">
      <stop
         style="stop-color:#4b4fe2ff;stop-opacity:1;"
         offset="0"
         id="stop1" />
      <stop
         style="stop-color:#a03291;stop-opacity:1;"
         offset="0.76340693"
         id="stop2" />
    </linearGradient>
    <linearGradient
       inkscape:collect="always"
       xlink:href="#linearGradient1"
       id="linearGradient2"
       x1="232.4884"
       y1="23.847498"
       x2="23.977745"
       y2="232.35815"
       gradientUnits="userSpaceOnUse" />
  </defs>
  <defs
     id="defs4" />
  <sodipodi:namedview
     id="namedview4"
     pagecolor="#ffffff"
     bordercolor="#000000"
     borderopacity="0.25"
     inkscape:showpageshadow="2"
     inkscape:pageopacity="0.0"
     inkscape:pagecheckerboard="0"
     inkscape:deskcolor="#d1d1d1" />
  <path
     id="path1"
     style="baseline-shift:baseline;display:inline;overflow:visible;vector-effect:none;fill:url(#linearGradient2);stroke-linecap:round;stroke-linejoin:round;enable-background:accumulate;stop-color:#000000;stop-opacity:1;opacity:1;fill-opacity:1"
     d="M 48 40 C 26.003358 40 8 58.003375 8 80 C 8 96.316619 17.906083 110.43674 32 116.64062 L 32 200 C 32 208.7418 39.258201 216 48 216 L 144 216 L 200 216 C 208.7418 216 216 208.7418 216 200 L 216 116.64062 C 230.09392 110.43673 240 96.316619 240 80 C 240 58.003375 221.99664 40 200 40 L 144 40 L 48 40 z M 48 56 L 144 56 C 157.34961 56 168 66.650402 168 80 C 168 91.190437 160.51659 100.48366 150.23242 103.19727 A 8 8 0 0 0 149.82422 103.30273 C 147.96251 103.75914 146.01148 104 144 104 A 8 8 0 0 0 136 112 A 8 8 0 0 0 144 120 L 144 200 L 48 200 L 48 120 A 8 8 0 0 0 56 112 A 8 8 0 0 0 48 104 C 34.650394 104 24 93.349598 24 80 C 24 66.650402 34.650394 56 48 56 z M 175.94336 56 L 200 56 C 213.34961 56 224 66.650402 224 80 C 224 91.190437 216.51659 100.48366 206.23242 103.19727 C 206.0967 103.23308 205.96091 103.26922 205.82422 103.30273 C 203.96251 103.75914 202.01148 104 200 104 A 8 8 0 0 0 192 112 A 8 8 0 0 0 200 120 L 200 200 L 160 200 L 160 116.64062 C 174.09392 110.43673 184 96.316619 184 80 C 184 71.015606 180.9956 62.697392 175.94336 56 z " />
</svg>
