<?xml version="1.0" encoding="UTF-8" standalone="no"?>
<svg
   viewBox="0 0 256 256"
   version="1.1"
   id="svg3"
   sodipodi:docname="bug droid purple_blue.svg"
   xmlns:inkscape="http://www.inkscape.org/namespaces/inkscape"
   xmlns:sodipodi="http://sodipodi.sourceforge.net/DTD/sodipodi-0.dtd"
   xmlns:xlink="http://www.w3.org/1999/xlink"
   xmlns="http://www.w3.org/2000/svg"
   xmlns:svg="http://www.w3.org/2000/svg">
  <defs
     id="defs3">
    <linearGradient
       id="linearGradient1"
       inkscape:collect="always">
      <stop
         style="stop-color:#4b4fe2ff;stop-opacity:1;"
         offset="0"
         id="stop1" />
      <stop
         style="stop-color:#a03291;stop-opacity:1;"
         offset="0.76340693"
         id="stop2" />
    </linearGradient>
    <linearGradient
       inkscape:collect="always"
       xlink:href="#linearGradient1"
       id="linearGradient2"
       x1="232.4884"
       y1="23.847498"
       x2="23.977745"
       y2="232.35815"
       gradientUnits="userSpaceOnUse" />
  </defs>
  <defs
     id="defs1" />
  <sodipodi:namedview
     id="namedview3"
     pagecolor="#ffffff"
     bordercolor="#000000"
     borderopacity="0.25"
     inkscape:showpageshadow="2"
     inkscape:pageopacity="0.0"
     inkscape:pagecheckerboard="0"
     inkscape:deskcolor="#d1d1d1" />
  <path
     id="path1"
     style="baseline-shift:baseline;display:inline;overflow:visible;vector-effect:none;fill:url(#linearGradient2);stroke-linecap:round;stroke-linejoin:round;enable-background:accumulate;stop-color:#000000;stop-opacity:1;opacity:1;fill-opacity:1"
     d="M 56 24 A 8 8 0 0 0 50.34375 26.34375 A 8 8 0 0 0 50.34375 37.65625 L 64.175781 51.488281 C 49.201199 67.274015 40 88.587104 40 112 L 40 152 C 40 200.50633 79.493708 240 128 240 C 176.50629 240 216 200.50633 216 152 L 216 112 C 216 88.587104 206.7988 67.274015 191.82422 51.488281 L 205.65625 37.65625 A 8 8 0 0 0 205.65625 26.34375 A 8 8 0 0 0 200 24 A 8 8 0 0 0 194.34375 26.34375 L 179.78711 40.900391 C 165.24513 30.277071 147.33864 24 128 24 C 108.66136 24 90.754874 30.277072 76.212891 40.900391 L 61.65625 26.34375 A 8 8 0 0 0 56 24 z M 128 40 C 145.79745 40 162.05583 46.407174 174.60156 57.048828 A 8 8 0 0 0 174.77344 57.226562 A 8 8 0 0 0 175.82617 58.111328 C 190.66884 71.286055 200 90.522613 200 112 L 200 120 L 56 120 L 56 112 C 56 90.522614 65.33116 71.286055 80.173828 58.111328 A 8 8 0 0 0 81.226562 57.226562 A 8 8 0 0 0 81.398438 57.048828 C 93.944165 46.407175 110.20255 40 128 40 z M 100 80 A 12 12 0 0 0 88 92 A 12 12 0 0 0 100 104 A 12 12 0 0 0 112 92 A 12 12 0 0 0 100 80 z M 156 80 A 12 12 0 0 0 144 92 A 12 12 0 0 0 156 104 A 12 12 0 0 0 168 92 A 12 12 0 0 0 156 80 z M 56 136 L 200 136 L 200 152 C 200 191.85929 167.85927 224 128 224 C 88.140734 224 56 191.85929 56 152 L 56 136 z " />
</svg>
