<?xml version="1.0" encoding="UTF-8" standalone="no"?>
<svg
   viewBox="0 0 256 256"
   version="1.1"
   id="svg2"
   sodipodi:docname="butterfly purple_blue.svg"
   xmlns:inkscape="http://www.inkscape.org/namespaces/inkscape"
   xmlns:sodipodi="http://sodipodi.sourceforge.net/DTD/sodipodi-0.dtd"
   xmlns:xlink="http://www.w3.org/1999/xlink"
   xmlns="http://www.w3.org/2000/svg"
   xmlns:svg="http://www.w3.org/2000/svg">
  <defs
     id="defs3">
    <linearGradient
       id="linearGradient1"
       inkscape:collect="always">
      <stop
         style="stop-color:#4b4fe2ff;stop-opacity:1;"
         offset="0"
         id="stop1" />
      <stop
         style="stop-color:#a03291;stop-opacity:1;"
         offset="0.76340693"
         id="stop2" />
    </linearGradient>
    <linearGradient
       inkscape:collect="always"
       xlink:href="#linearGradient1"
       id="linearGradient2"
       x1="232.4884"
       y1="23.847498"
       x2="23.977745"
       y2="232.35815"
       gradientUnits="userSpaceOnUse" />
  </defs>
  <defs
     id="defs2" />
  <sodipodi:namedview
     id="namedview2"
     pagecolor="#ffffff"
     bordercolor="#000000"
     borderopacity="0.25"
     inkscape:showpageshadow="2"
     inkscape:pageopacity="0.0"
     inkscape:pagecheckerboard="0"
     inkscape:deskcolor="#d1d1d1" />
  <path
     id="line1"
     style="baseline-shift:baseline;display:inline;overflow:visible;vector-effect:none;fill:url(#linearGradient2);stroke-linecap:round;stroke-linejoin:round;enable-background:accumulate;stop-color:#000000;stop-opacity:1;opacity:1;fill-opacity:1"
     d="M 47.070312 40 C 37.550146 40 29.297554 43.464369 24.119141 49.525391 C 18.940727 55.586412 16.889925 63.282187 16.234375 71.248047 C 14.923275 87.179767 19.019983 105.5063 23.125 121.67773 A 8.0008 8.0008 0 0 0 23.126953 121.67969 C 27.475589 138.7976 36.277802 149.21058 45.484375 154.5332 C 48.22611 156.11829 50.949472 157.26426 53.554688 158.08398 C 52.079614 160.67365 50.854634 163.4359 49.916016 166.3418 C 44.574945 182.87736 49.466914 201.06124 62.382812 212.68555 C 75.298711 224.30986 93.895752 227.26609 109.7793 220.21875 C 117.31678 216.87446 123.53558 211.52283 128.05664 205.00977 C 132.57102 211.44175 138.74735 216.72397 146.22266 220.02539 C 162.05373 227.01707 180.5701 224.05761 193.43359 212.48047 C 206.29709 200.90333 211.18381 182.80176 205.89258 166.32422 C 204.96697 163.44177 203.75972 160.70101 202.30469 158.12891 C 204.95272 157.30632 207.72423 156.14699 210.51562 154.5332 C 219.72221 149.21058 228.52441 138.7976 232.87305 121.67969 A 8.0008 8.0008 0 0 0 232.875 121.67773 C 236.98002 105.5063 241.07674 87.179767 239.76562 71.248047 C 239.11008 63.282187 237.05927 55.586412 231.88086 49.525391 C 226.7024 43.464409 218.44985 40 208.92969 40 C 189.21097 40 168.3979 53.314514 151.14258 70.160156 C 145.61477 75.556721 140.46478 81.341619 136 87.369141 L 136 56 A 8 8 0 0 0 128 48 A 8 8 0 0 0 120 56 L 120 87.369141 C 115.53522 81.341619 110.38523 75.556721 104.85742 70.160156 C 87.602107 53.314514 66.789033 40 47.070312 40 z M 47.070312 56 C 58.641594 56 78.292507 66.585564 93.679688 81.607422 C 109.06687 96.629279 120 115.88846 120 127.66992 L 120 179.97852 C 119.9692 191.08568 113.44342 201.08925 103.29102 205.59375 C 93.13863 210.09824 81.342057 208.22348 73.085938 200.79297 C 64.829819 193.36246 61.726741 181.8289 65.140625 171.25977 C 68.554518 160.69061 77.81876 153.14971 88.861328 151.95312 A 8 8 0 0 0 95.953125 143.13867 A 8 8 0 0 0 87.138672 136.04688 C 79.466175 136.87826 72.32084 139.68593 66.279297 143.99805 C 63.072495 143.99399 58.187431 143.39608 53.492188 140.68164 C 47.996572 137.50443 42.146206 131.56234 38.634766 117.74219 C 34.649783 102.04362 31.195787 84.516327 32.179688 72.560547 C 32.671639 66.582657 34.230445 62.324838 36.285156 59.919922 C 38.339868 57.515006 40.945479 56 47.070312 56 z M 208.92969 56 C 215.05452 56 217.66013 57.515006 219.71484 59.919922 C 221.76956 62.324838 223.32836 66.582657 223.82031 72.560547 C 224.80421 84.516327 221.35022 102.04362 217.36523 117.74219 C 213.85379 131.56234 208.00338 137.50447 202.50781 140.68164 C 197.75033 143.4321 192.79766 144.00765 189.59375 143.99609 C 183.5974 139.70412 176.50695 136.90072 168.88867 136.04883 A 8 8 0 0 0 160.04883 143.11133 A 8 8 0 0 0 167.11133 151.95117 C 178.08922 153.17875 187.28101 160.69783 190.6582 171.21484 C 194.03539 181.73183 190.93937 193.19812 182.72852 200.58789 C 174.51766 207.97766 162.79187 209.85316 152.6875 205.39062 C 142.5831 200.92809 136.06842 190.99728 136 179.95117 L 136 127.66992 C 136 115.88846 146.93313 96.629279 162.32031 81.607422 C 177.70749 66.585564 197.35841 56 208.92969 56 z " />
</svg>
