<?xml version="1.0" encoding="UTF-8" standalone="no"?>
<svg
   viewBox="0 0 256 256"
   version="1.1"
   id="svg5"
   sodipodi:docname="cable car purple_blue.svg"
   xmlns:inkscape="http://www.inkscape.org/namespaces/inkscape"
   xmlns:sodipodi="http://sodipodi.sourceforge.net/DTD/sodipodi-0.dtd"
   xmlns:xlink="http://www.w3.org/1999/xlink"
   xmlns="http://www.w3.org/2000/svg"
   xmlns:svg="http://www.w3.org/2000/svg">
  <defs
     id="defs3">
    <linearGradient
       id="linearGradient1"
       inkscape:collect="always">
      <stop
         style="stop-color:#4b4fe2ff;stop-opacity:1;"
         offset="0"
         id="stop1" />
      <stop
         style="stop-color:#a03291;stop-opacity:1;"
         offset="0.76340693"
         id="stop2" />
    </linearGradient>
    <linearGradient
       inkscape:collect="always"
       xlink:href="#linearGradient1"
       id="linearGradient2"
       x1="232.4884"
       y1="23.847498"
       x2="23.977745"
       y2="232.35815"
       gradientUnits="userSpaceOnUse" />
  </defs>
  <defs
     id="defs5" />
  <sodipodi:namedview
     id="namedview5"
     pagecolor="#ffffff"
     bordercolor="#000000"
     borderopacity="0.25"
     inkscape:showpageshadow="2"
     inkscape:pageopacity="0.0"
     inkscape:pagecheckerboard="0"
     inkscape:deskcolor="#d1d1d1" />
  <path
     id="line1"
     style="baseline-shift:baseline;display:inline;overflow:visible;vector-effect:none;fill:url(#linearGradient2);stroke-linecap:round;stroke-linejoin:round;enable-background:accumulate;stop-color:#000000;stop-opacity:1;opacity:1;fill-opacity:1"
     d="M 239.63281 24.009766 A 8 8 0 0 0 238.59375 24.125 L 126.59375 44.125 A 8 8 0 0 0 126.5 44.142578 L 14.59375 64.125 A 8 8 0 0 0 8.125 73.40625 A 8 8 0 0 0 17.40625 79.875 L 120 61.554688 L 120 96 L 96 96 L 64 96 C 46.410378 96 32 110.41038 32 128 L 32 192 C 32 209.58962 46.410378 224 64 224 L 192 224 C 209.58962 224 224 209.58962 224 192 L 224 128 C 224 110.41038 209.58962 96 192 96 L 136 96 L 136 58.697266 L 241.40625 39.875 A 8 8 0 0 0 247.875 30.59375 A 8 8 0 0 0 239.63281 24.009766 z M 64 112 L 88 112 L 88 160 L 48 160 L 48 128 C 48 118.99762 54.997622 112 64 112 z M 104 112 L 152 112 L 152 160 L 104 160 L 104 112 z M 168 112 L 192 112 C 201.00238 112 208 118.99762 208 128 L 208 160 L 168 160 L 168 112 z M 48 176 L 96 176 L 208 176 L 208 192 C 208 201.00238 201.00238 208 192 208 L 64 208 C 54.997622 208 48 201.00238 48 192 L 48 176 z " />
</svg>
