<?xml version="1.0" encoding="UTF-8" standalone="no"?>
<svg
   viewBox="0 0 256 256"
   version="1.1"
   id="svg3"
   sodipodi:docname="camera rotate purple_blue.svg"
   xmlns:inkscape="http://www.inkscape.org/namespaces/inkscape"
   xmlns:sodipodi="http://sodipodi.sourceforge.net/DTD/sodipodi-0.dtd"
   xmlns:xlink="http://www.w3.org/1999/xlink"
   xmlns="http://www.w3.org/2000/svg"
   xmlns:svg="http://www.w3.org/2000/svg">
  <defs
     id="defs3">
    <linearGradient
       id="linearGradient1"
       inkscape:collect="always">
      <stop
         style="stop-color:#4b4fe2ff;stop-opacity:1;"
         offset="0"
         id="stop1" />
      <stop
         style="stop-color:#a03291;stop-opacity:1;"
         offset="0.76340693"
         id="stop2" />
    </linearGradient>
    <linearGradient
       inkscape:collect="always"
       xlink:href="#linearGradient1"
       id="linearGradient2"
       x1="232.4884"
       y1="23.847498"
       x2="23.977745"
       y2="232.35815"
       gradientUnits="userSpaceOnUse" />
  </defs>
  <defs
     id="defs1" />
  <sodipodi:namedview
     id="namedview3"
     pagecolor="#ffffff"
     bordercolor="#000000"
     borderopacity="0.25"
     inkscape:showpageshadow="2"
     inkscape:pageopacity="0.0"
     inkscape:pagecheckerboard="0"
     inkscape:deskcolor="#d1d1d1" />
  <path
     id="path1"
     style="baseline-shift:baseline;display:inline;overflow:visible;vector-effect:none;fill:url(#linearGradient2);stroke-linecap:round;stroke-linejoin:round;enable-background:accumulate;stop-color:#000000;stop-opacity:1;opacity:1;fill-opacity:1"
     d="M 96 32 A 8.0008 8.0008 0 0 0 89.34375 35.5625 L 75.71875 56 L 48 56 C 34.839923 56 24 66.839923 24 80 L 24 192 C 24 205.16008 34.839923 216 48 216 L 208 216 C 221.16008 216 232 205.16008 232 192 L 232 80 C 232 66.839923 221.16008 56 208 56 L 180.28125 56 L 166.65625 35.5625 A 8.0008 8.0008 0 0 0 160 32 L 96 32 z M 100.28125 48 L 155.71875 48 L 169.34375 68.4375 A 8.0008 8.0008 0 0 0 176 72 L 208 72 C 212.51304 72 216 75.486965 216 80 L 216 192 C 216 196.51304 212.51304 200 208 200 L 48 200 C 43.486965 200 40 196.51304 40 192 L 40 80 C 40 75.486965 43.486965 72 48 72 L 80 72 A 8.0008 8.0008 0 0 0 86.65625 68.4375 L 100.28125 48 z M 168 88 A 8 8 0 0 0 160 96 L 160 100.22852 C 151.87394 92.95634 141.75564 88.891128 131.40039 88.154297 C 120.20503 87.357688 108.7324 90.453462 99.201172 97.599609 A 8 8 0 0 0 97.599609 108.79883 A 8 8 0 0 0 108.79883 110.40039 C 121.04634 101.21767 137.83127 101.98915 149.15625 112 L 144 112 A 8 8 0 0 0 136 120 A 8 8 0 0 0 144 128 L 168 128 A 8.0008 8.0008 0 0 0 168.44336 127.9707 A 8 8 0 0 0 168.94531 127.9375 A 8.0008 8.0008 0 0 0 169.4668 127.84766 A 8 8 0 0 0 169.98828 127.74219 A 8.0008 8.0008 0 0 0 170.42969 127.60547 A 8 8 0 0 0 170.98438 127.41602 A 8.0008 8.0008 0 0 0 171.4082 127.21875 A 8 8 0 0 0 171.92188 126.9668 A 8.0008 8.0008 0 0 0 172.32031 126.71289 A 8 8 0 0 0 172.80273 126.38867 A 8.0008 8.0008 0 0 0 173.15039 126.09961 A 8 8 0 0 0 173.52344 125.78711 A 8 8 0 0 0 173.59375 125.71094 A 8.0008 8.0008 0 0 0 173.89258 125.38672 A 8 8 0 0 0 174.29883 124.92188 A 8.0008 8.0008 0 0 0 174.53711 124.58203 A 8 8 0 0 0 174.88086 124.06836 A 8.0008 8.0008 0 0 0 175.09766 123.6543 A 8 8 0 0 0 175.35352 123.13477 A 8.0008 8.0008 0 0 0 175.50977 122.70703 A 8 8 0 0 0 175.70117 122.14648 A 8.0008 8.0008 0 0 0 175.80859 121.6582 A 8 8 0 0 0 175.91211 121.14258 A 8.0008 8.0008 0 0 0 175.96094 120.60156 A 8 8 0 0 0 175.99414 120.0918 A 8.0008 8.0008 0 0 0 176 120 L 176 96 A 8 8 0 0 0 168 88 z M 88 136 A 8.0008 8.0008 0 0 0 87.652344 136.02344 A 8 8 0 0 0 86.986328 136.06641 A 8.0008 8.0008 0 0 0 86.636719 136.13281 A 8 8 0 0 0 85.960938 136.26758 A 8.0008 8.0008 0 0 0 85.654297 136.36719 A 8 8 0 0 0 84.984375 136.59375 A 8.0008 8.0008 0 0 0 84.603516 136.77539 A 8 8 0 0 0 84.0625 137.04102 A 8.0008 8.0008 0 0 0 83.666016 137.29688 A 8 8 0 0 0 83.193359 137.61328 A 8.0008 8.0008 0 0 0 82.853516 137.89648 A 8 8 0 0 0 82.474609 138.21484 A 8 8 0 0 0 82.408203 138.28711 A 8.0008 8.0008 0 0 0 82.068359 138.6582 A 8 8 0 0 0 81.712891 139.0625 A 8.0008 8.0008 0 0 0 81.421875 139.47852 A 8 8 0 0 0 81.123047 139.92383 A 8.0008 8.0008 0 0 0 80.884766 140.37891 A 8 8 0 0 0 80.648438 140.85938 A 8.0008 8.0008 0 0 0 80.480469 141.32031 A 8 8 0 0 0 80.300781 141.85156 A 8.0008 8.0008 0 0 0 80.197266 142.3125 A 8 8 0 0 0 80.085938 142.87109 A 8.0008 8.0008 0 0 0 80.041016 143.37109 A 8 8 0 0 0 80.005859 143.91016 A 8.0008 8.0008 0 0 0 80 144 L 80 168 A 8 8 0 0 0 88 176 A 8 8 0 0 0 96 168 L 96 163.75977 C 112.90865 178.89784 138.44895 180.15527 156.79883 166.40234 A 8 8 0 0 0 158.40234 155.20117 A 8 8 0 0 0 147.20117 153.59766 C 134.95528 162.77574 118.17829 162.0051 106.85547 152 L 112 152 A 8 8 0 0 0 120 144 A 8 8 0 0 0 112 136 L 88.048828 136 L 88 136 z " />
</svg>
