<?xml version="1.0" encoding="UTF-8" standalone="no"?>
<svg
   viewBox="0 0 256 256"
   version="1.1"
   id="svg2"
   sodipodi:docname="chat text purple_blue.svg"
   xmlns:inkscape="http://www.inkscape.org/namespaces/inkscape"
   xmlns:sodipodi="http://sodipodi.sourceforge.net/DTD/sodipodi-0.dtd"
   xmlns:xlink="http://www.w3.org/1999/xlink"
   xmlns="http://www.w3.org/2000/svg"
   xmlns:svg="http://www.w3.org/2000/svg">
  <defs
     id="defs3">
    <linearGradient
       id="linearGradient1"
       inkscape:collect="always">
      <stop
         style="stop-color:#4b4fe2ff;stop-opacity:1;"
         offset="0"
         id="stop1" />
      <stop
         style="stop-color:#a03291;stop-opacity:1;"
         offset="0.76340693"
         id="stop2" />
    </linearGradient>
    <linearGradient
       inkscape:collect="always"
       xlink:href="#linearGradient1"
       id="linearGradient2"
       x1="232.4884"
       y1="23.847498"
       x2="23.977745"
       y2="232.35815"
       gradientUnits="userSpaceOnUse" />
  </defs>
  <defs
     id="defs2" />
  <sodipodi:namedview
     id="namedview2"
     pagecolor="#ffffff"
     bordercolor="#000000"
     borderopacity="0.25"
     inkscape:showpageshadow="2"
     inkscape:pageopacity="0.0"
     inkscape:pagecheckerboard="0"
     inkscape:deskcolor="#d1d1d1" />
  <path
     id="path1"
     style="baseline-shift:baseline;display:inline;overflow:visible;vector-effect:none;fill:url(#linearGradient2);stroke-linecap:round;stroke-linejoin:round;enable-background:accumulate;stop-color:#000000;stop-opacity:1;opacity:1;fill-opacity:1"
     d="M 40 48 C 31.258201 48 24 55.258201 24 64 L 24 224 A 8.0008 8.0008 0 0 0 24 224.01172 C 24.01934 237.03476 40.335081 244.61603 50.300781 236.23242 A 8.0008 8.0008 0 0 0 50.380859 236.16406 L 82.976562 208 L 216 208 C 224.7418 208 232 200.7418 232 192 L 232 64 C 232 55.258201 224.7418 48 216 48 L 40 48 z M 40 64 L 216 64 L 216 192 L 80 192 A 8.0008 8.0008 0 0 0 74.769531 193.94727 L 40 223.98828 L 40 64 z M 96 104 A 8 8 0 0 0 88 112 A 8 8 0 0 0 96 120 L 160 120 A 8 8 0 0 0 168 112 A 8 8 0 0 0 160 104 L 96 104 z M 96 136 A 8 8 0 0 0 88 144 A 8 8 0 0 0 96 152 L 160 152 A 8 8 0 0 0 168 144 A 8 8 0 0 0 160 136 L 96 136 z " />
</svg>
