<?xml version="1.0" encoding="UTF-8" standalone="no"?>
<svg
   viewBox="0 0 256 256"
   version="1.1"
   id="svg2"
   sodipodi:docname="chat teardrop slash purple_blue.svg"
   xmlns:inkscape="http://www.inkscape.org/namespaces/inkscape"
   xmlns:sodipodi="http://sodipodi.sourceforge.net/DTD/sodipodi-0.dtd"
   xmlns:xlink="http://www.w3.org/1999/xlink"
   xmlns="http://www.w3.org/2000/svg"
   xmlns:svg="http://www.w3.org/2000/svg">
  <defs
     id="defs3">
    <linearGradient
       id="linearGradient1"
       inkscape:collect="always">
      <stop
         style="stop-color:#4b4fe2ff;stop-opacity:1;"
         offset="0"
         id="stop1" />
      <stop
         style="stop-color:#a03291;stop-opacity:1;"
         offset="0.76340693"
         id="stop2" />
    </linearGradient>
    <linearGradient
       inkscape:collect="always"
       xlink:href="#linearGradient1"
       id="linearGradient2"
       x1="232.4884"
       y1="23.847498"
       x2="23.977745"
       y2="232.35815"
       gradientUnits="userSpaceOnUse" />
  </defs>
  <defs
     id="defs2" />
  <sodipodi:namedview
     id="namedview2"
     pagecolor="#ffffff"
     bordercolor="#000000"
     borderopacity="0.25"
     inkscape:showpageshadow="2"
     inkscape:pageopacity="0.0"
     inkscape:pagecheckerboard="0"
     inkscape:deskcolor="#d1d1d1" />
  <path
     id="line1"
     style="baseline-shift:baseline;display:inline;overflow:visible;vector-effect:none;fill:url(#linearGradient2);stroke-linecap:round;stroke-linejoin:round;enable-background:accumulate;stop-color:#000000;stop-opacity:1;opacity:1;fill-opacity:1"
     d="M 132.00977 24 C 117.03078 23.96386 102.23666 27.309721 88.730469 33.787109 A 8 8 0 0 0 84.976562 44.458984 A 8 8 0 0 0 95.650391 48.212891 C 106.98817 42.775443 119.40628 39.968423 131.98047 40 A 8.0008 8.0008 0 0 0 132 40 C 178.48668 40 216 77.513324 216 124 A 8.0008 8.0008 0 0 0 216 124.01172 C 216.0241 139.29505 211.85772 154.2926 203.95312 167.37305 A 8 8 0 0 0 206.66211 178.35742 A 8 8 0 0 0 217.64648 175.64844 C 227.06271 160.06659 232.02765 142.20008 232 123.99414 C 231.99679 68.869708 187.14225 24.0107 132.01953 24 L 132.00977 24 z M 48.380859 32.009766 A 8 8 0 0 0 42.619141 34.080078 A 8 8 0 0 0 42.080078 45.380859 L 55.253906 59.873047 C 40.255676 77.789308 31.96958 100.48568 32 124.00977 L 32 208 C 32 216.7418 39.258201 224 48 224 L 131.98633 224 C 152.23443 224.03236 171.95231 217.89145 188.54492 206.49219 L 202.08008 221.38086 A 8 8 0 0 0 213.38086 221.91992 A 8 8 0 0 0 213.91992 210.61914 L 195.56641 190.43164 A 8 8 0 0 0 195.45312 190.30664 L 72.109375 54.626953 A 8 8 0 0 0 71.824219 54.314453 L 53.919922 34.619141 A 8 8 0 0 0 48.380859 32.009766 z M 66.136719 71.84375 L 177.66406 194.52344 C 164.12599 203.31199 148.27702 208.02601 132.01367 208 A 8.0008 8.0008 0 0 0 132 208 L 48 208 L 48 124 A 8.0008 8.0008 0 0 0 48 123.99023 C 47.975409 104.97249 54.419297 86.609114 66.136719 71.84375 z " />
</svg>
