<?xml version="1.0" encoding="UTF-8" standalone="no"?>
<svg
   viewBox="0 0 256 256"
   version="1.1"
   id="svg1"
   sodipodi:docname="check fat purple_blue.svg"
   xmlns:inkscape="http://www.inkscape.org/namespaces/inkscape"
   xmlns:sodipodi="http://sodipodi.sourceforge.net/DTD/sodipodi-0.dtd"
   xmlns:xlink="http://www.w3.org/1999/xlink"
   xmlns="http://www.w3.org/2000/svg"
   xmlns:svg="http://www.w3.org/2000/svg">
  <defs
     id="defs3">
    <linearGradient
       id="linearGradient1"
       inkscape:collect="always">
      <stop
         style="stop-color:#4b4fe2ff;stop-opacity:1;"
         offset="0"
         id="stop1" />
      <stop
         style="stop-color:#a03291;stop-opacity:1;"
         offset="0.76340693"
         id="stop2" />
    </linearGradient>
    <linearGradient
       inkscape:collect="always"
       xlink:href="#linearGradient1"
       id="linearGradient2"
       x1="232.4884"
       y1="23.847498"
       x2="23.977745"
       y2="232.35815"
       gradientUnits="userSpaceOnUse" />
  </defs>
  <defs
     id="defs1" />
  <sodipodi:namedview
     id="namedview1"
     pagecolor="#ffffff"
     bordercolor="#000000"
     borderopacity="0.25"
     inkscape:showpageshadow="2"
     inkscape:pageopacity="0.0"
     inkscape:pagecheckerboard="0"
     inkscape:deskcolor="#d1d1d1" />
  <path
     id="path1"
     style="baseline-shift:baseline;display:inline;overflow:visible;vector-effect:none;fill:url(#linearGradient2);stroke-linecap:round;stroke-linejoin:round;enable-background:accumulate;stop-color:#000000;stop-opacity:1;opacity:1;fill-opacity:1"
     d="M 208 40.044922 C 203.88566 40.044922 199.771 41.590793 196.67969 44.685547 L 103.95117 136.23438 L 67.230469 100.60742 L 67.302734 100.67969 C 61.118244 94.507577 50.856516 94.513554 44.679688 100.69727 L 20.683594 124.69336 A 8.0008 8.0008 0 0 0 20.681641 124.69531 C 14.505039 130.87596 14.505039 141.1338 20.681641 147.31445 L 92.267578 219.30078 A 8.0008 8.0008 0 0 0 92.279297 219.31445 C 98.460899 225.50294 108.73306 225.5028 114.91602 219.31641 L 114.91992 219.31445 L 243.31445 90.919922 L 243.31641 90.916016 C 249.50284 84.733058 249.50298 74.460899 243.31445 68.279297 A 8.0008 8.0008 0 0 0 243.26953 68.236328 L 219.31445 44.679688 C 216.22381 41.588898 212.11171 40.044922 208 40.044922 z M 208 55.994141 A 8.0008 8.0008 0 0 0 208.05078 56.044922 L 232.00586 79.599609 A 8.0008 8.0008 0 0 0 232.00391 79.603516 L 103.60352 208.00391 A 8.0008 8.0008 0 0 0 103.59961 208.00586 L 32.011719 136.01953 A 8.0008 8.0008 0 0 0 31.998047 136.00586 L 55.996094 112.00781 A 8.0008 8.0008 0 0 0 56 112.00391 A 8.0008 8.0008 0 0 0 56.089844 112.0918 L 98.429688 153.17188 A 8.0008 8.0008 0 0 0 109.62109 153.12305 L 207.96094 56.033203 A 8.0008 8.0008 0 0 0 208 55.994141 z " />
</svg>
