<?xml version="1.0" encoding="UTF-8" standalone="no"?>
<svg
   viewBox="0 0 256 256"
   version="1.1"
   id="svg4"
   sodipodi:docname="circles four purple_blue.svg"
   xmlns:inkscape="http://www.inkscape.org/namespaces/inkscape"
   xmlns:sodipodi="http://sodipodi.sourceforge.net/DTD/sodipodi-0.dtd"
   xmlns:xlink="http://www.w3.org/1999/xlink"
   xmlns="http://www.w3.org/2000/svg"
   xmlns:svg="http://www.w3.org/2000/svg">
  <defs
     id="defs3">
    <linearGradient
       id="linearGradient1"
       inkscape:collect="always">
      <stop
         style="stop-color:#4b4fe2ff;stop-opacity:1;"
         offset="0"
         id="stop1" />
      <stop
         style="stop-color:#a03291;stop-opacity:1;"
         offset="0.76340693"
         id="stop2" />
    </linearGradient>
    <linearGradient
       inkscape:collect="always"
       xlink:href="#linearGradient1"
       id="linearGradient2"
       x1="232.4884"
       y1="23.847498"
       x2="23.977745"
       y2="232.35815"
       gradientUnits="userSpaceOnUse" />
  </defs>
  <defs
     id="defs4" />
  <sodipodi:namedview
     id="namedview4"
     pagecolor="#ffffff"
     bordercolor="#000000"
     borderopacity="0.25"
     inkscape:showpageshadow="2"
     inkscape:pageopacity="0.0"
     inkscape:pagecheckerboard="0"
     inkscape:deskcolor="#d1d1d1" />
  <path
     id="circle1"
     style="baseline-shift:baseline;display:inline;overflow:visible;vector-effect:none;fill:url(#linearGradient2);stroke-linecap:round;stroke-linejoin:round;enable-background:accumulate;stop-color:#000000;stop-opacity:1;opacity:1;fill-opacity:1"
     d="M 80 40 C 58.003367 40 40 58.003367 40 80 C 40 101.99663 58.003367 120 80 120 C 101.99663 120 120 101.99663 120 80 C 120 58.003367 101.99663 40 80 40 z M 176 40 C 154.00337 40 136 58.003367 136 80 C 136 101.99663 154.00337 120 176 120 C 197.99663 120 216 101.99663 216 80 C 216 58.003367 197.99663 40 176 40 z M 80 56 C 93.349591 56 104 66.650409 104 80 C 104 93.349591 93.349591 104 80 104 C 66.650409 104 56 93.349591 56 80 C 56 66.650409 66.650409 56 80 56 z M 176 56 C 189.34959 56 200 66.650409 200 80 C 200 93.349591 189.34959 104 176 104 C 162.65041 104 152 93.349591 152 80 C 152 66.650409 162.65041 56 176 56 z M 80 136 C 58.003367 136 40 154.00337 40 176 C 40 197.99663 58.003367 216 80 216 C 101.99663 216 120 197.99663 120 176 C 120 154.00337 101.99663 136 80 136 z M 176 136 C 154.00337 136 136 154.00337 136 176 C 136 197.99663 154.00337 216 176 216 C 197.99663 216 216 197.99663 216 176 C 216 154.00337 197.99663 136 176 136 z M 80 152 C 93.349591 152 104 162.65041 104 176 C 104 189.34959 93.349591 200 80 200 C 66.650409 200 56 189.34959 56 176 C 56 162.65041 66.650409 152 80 152 z M 176 152 C 189.34959 152 200 162.65041 200 176 C 200 189.34959 189.34959 200 176 200 C 162.65041 200 152 189.34959 152 176 C 152 162.65041 162.65041 152 176 152 z " />
</svg>
