<?xml version="1.0" encoding="UTF-8" standalone="no"?>
<svg
   viewBox="0 0 256 256"
   version="1.1"
   id="svg3"
   sodipodi:docname="clock countdown purple_blue.svg"
   xmlns:inkscape="http://www.inkscape.org/namespaces/inkscape"
   xmlns:sodipodi="http://sodipodi.sourceforge.net/DTD/sodipodi-0.dtd"
   xmlns:xlink="http://www.w3.org/1999/xlink"
   xmlns="http://www.w3.org/2000/svg"
   xmlns:svg="http://www.w3.org/2000/svg">
  <defs
     id="defs3">
    <linearGradient
       id="linearGradient1"
       inkscape:collect="always">
      <stop
         style="stop-color:#4b4fe2ff;stop-opacity:1;"
         offset="0"
         id="stop1" />
      <stop
         style="stop-color:#a03291;stop-opacity:1;"
         offset="0.76340693"
         id="stop2" />
    </linearGradient>
    <linearGradient
       inkscape:collect="always"
       xlink:href="#linearGradient1"
       id="linearGradient2"
       x1="232.4884"
       y1="23.847498"
       x2="23.977745"
       y2="232.35815"
       gradientUnits="userSpaceOnUse" />
  </defs>
  <defs
     id="defs1" />
  <sodipodi:namedview
     id="namedview3"
     pagecolor="#ffffff"
     bordercolor="#000000"
     borderopacity="0.25"
     inkscape:showpageshadow="2"
     inkscape:pageopacity="0.0"
     inkscape:pagecheckerboard="0"
     inkscape:deskcolor="#d1d1d1" />
  <path
     id="path1"
     style="baseline-shift:baseline;display:inline;overflow:visible;vector-effect:none;fill:url(#linearGradient2);stroke-linecap:round;stroke-linejoin:round;enable-background:accumulate;stop-color:#000000;stop-opacity:1;opacity:1;fill-opacity:1"
     d="M 160 24 A 12 12 0 0 0 148 36 A 12 12 0 0 0 160 48 A 12 12 0 0 0 172 36 A 12 12 0 0 0 160 24 z M 120.38867 24.009766 A 8 8 0 0 0 119.3418 24.027344 C 65.947878 28.437109 24 73.566947 24 128 C 24 185.34286 70.657143 232 128 232 C 182.43305 232 227.56289 190.05212 231.97266 136.6582 A 8 8 0 0 0 224.6582 128.02734 A 8 8 0 0 0 216.02734 135.3418 C 212.29711 180.50788 174.22695 216 128 216 C 79.304185 216 40 176.69582 40 128 C 40 81.773053 75.492122 43.702891 120.6582 39.972656 A 8 8 0 0 0 127.97266 31.341797 A 8 8 0 0 0 120.38867 24.009766 z M 196 48 A 12 12 0 0 0 184 60 A 12 12 0 0 0 196 72 A 12 12 0 0 0 208 60 A 12 12 0 0 0 196 48 z M 128 64 A 8 8 0 0 0 120 72 L 120 128 A 8.0008 8.0008 0 0 0 128 136 L 184 136 A 8 8 0 0 0 192 128 A 8 8 0 0 0 184 120 L 136 120 L 136 72 A 8 8 0 0 0 128 64 z M 220 84 A 12 12 0 0 0 208 96 A 12 12 0 0 0 220 108 A 12 12 0 0 0 232 96 A 12 12 0 0 0 220 84 z " />
</svg>
