<?xml version="1.0" encoding="UTF-8" standalone="no"?>
<svg
   viewBox="0 0 256 256"
   version="1.1"
   id="svg2"
   sodipodi:docname="cloud arrow down purple_blue.svg"
   xmlns:inkscape="http://www.inkscape.org/namespaces/inkscape"
   xmlns:sodipodi="http://sodipodi.sourceforge.net/DTD/sodipodi-0.dtd"
   xmlns:xlink="http://www.w3.org/1999/xlink"
   xmlns="http://www.w3.org/2000/svg"
   xmlns:svg="http://www.w3.org/2000/svg">
  <defs
     id="defs3">
    <linearGradient
       id="linearGradient1"
       inkscape:collect="always">
      <stop
         style="stop-color:#4b4fe2ff;stop-opacity:1;"
         offset="0"
         id="stop1" />
      <stop
         style="stop-color:#a03291;stop-opacity:1;"
         offset="0.76340693"
         id="stop2" />
    </linearGradient>
    <linearGradient
       inkscape:collect="always"
       xlink:href="#linearGradient1"
       id="linearGradient2"
       x1="232.4884"
       y1="23.847498"
       x2="23.977745"
       y2="232.35815"
       gradientUnits="userSpaceOnUse" />
  </defs>
  <defs
     id="defs2" />
  <sodipodi:namedview
     id="namedview2"
     pagecolor="#ffffff"
     bordercolor="#000000"
     borderopacity="0.25"
     inkscape:showpageshadow="2"
     inkscape:pageopacity="0.0"
     inkscape:pagecheckerboard="0"
     inkscape:deskcolor="#d1d1d1" />
  <path
     id="path1"
     style="baseline-shift:baseline;display:inline;overflow:visible;vector-effect:none;fill:url(#linearGradient2);stroke-linecap:round;stroke-linejoin:round;enable-background:accumulate;stop-color:#000000;stop-opacity:1;opacity:1;fill-opacity:1"
     d="M 163.91602 40.060547 C 161.28192 39.943481 158.66254 39.947184 156.0625 40.068359 C 124.2519 41.550899 95.467332 60.531413 81.285156 88.664062 C 78.851547 88.308205 76.42471 88.096106 74.015625 88.023438 C 41.901456 87.054733 12.776169 110.68534 8.5722656 143.98438 C 3.7678049 182.0404 33.632095 215.95268 71.990234 216 A 8.0008 8.0008 0 0 0 72 216 L 96 216 A 8 8 0 0 0 104 208 A 8 8 0 0 0 96 200 L 72.009766 200 L 72 200 C 42.995429 199.9585 20.81417 174.76595 24.447266 145.98828 C 27.706057 120.17547 50.366284 102.3182 75.283203 104.08594 C 73.150356 111.64121 72 119.6528 72 128 A 8 8 0 0 0 80 136 A 8 8 0 0 0 88 128 C 88 118.65084 89.717197 109.83268 92.820312 101.78711 A 8 8 0 0 0 93.671875 99.71875 A 8 8 0 0 0 93.693359 99.630859 C 107.73597 66.498421 145.59094 47.303101 182.76758 59.695312 C 229.61312 75.310496 247.22755 131.6953 217.59961 171.19922 A 8 8 0 0 0 219.19922 182.40039 A 8 8 0 0 0 230.40039 180.80078 C 266.29833 132.93686 244.58738 63.435373 187.82812 44.515625 C 179.84636 41.855035 171.81832 40.411745 163.91602 40.060547 z M 152 120 A 8 8 0 0 0 144 128 L 144 188.6875 L 125.65625 170.34375 A 8 8 0 0 0 120 168 A 8 8 0 0 0 114.34375 170.34375 A 8 8 0 0 0 114.34375 181.65625 L 146.26172 213.57422 L 146.34375 213.65625 A 8.0008 8.0008 0 0 0 146.66406 213.9375 A 8 8 0 0 0 147.10352 214.32227 A 8.0008 8.0008 0 0 0 147.52539 214.60938 A 8 8 0 0 0 147.9668 214.9043 A 8.0008 8.0008 0 0 0 148.44531 215.14648 A 8 8 0 0 0 148.92188 215.38281 A 8.0008 8.0008 0 0 0 149.39844 215.54688 A 8 8 0 0 0 149.91406 215.7207 A 8.0008 8.0008 0 0 0 150.29297 215.79883 A 8 8 0 0 0 152 216 A 8 8 0 0 0 153.70703 215.79883 A 8.0008 8.0008 0 0 0 154.08594 215.7207 A 8 8 0 0 0 154.60156 215.54688 A 8.0008 8.0008 0 0 0 155.07812 215.38281 A 8 8 0 0 0 155.55469 215.14648 A 8.0008 8.0008 0 0 0 156.0332 214.9043 A 8 8 0 0 0 156.47461 214.60938 A 8.0008 8.0008 0 0 0 156.89648 214.32227 A 8 8 0 0 0 157.33594 213.9375 A 8.0008 8.0008 0 0 0 157.65625 213.65625 L 157.73828 213.57422 L 189.65625 181.65625 A 8 8 0 0 0 189.65625 170.34375 A 8 8 0 0 0 178.34375 170.34375 L 160 188.6875 L 160 128 A 8 8 0 0 0 152 120 z " />
</svg>
