<?xml version="1.0" encoding="UTF-8" standalone="no"?>
<svg
   viewBox="0 0 256 256"
   version="1.1"
   id="svg2"
   sodipodi:docname="code purple_blue.svg"
   xmlns:inkscape="http://www.inkscape.org/namespaces/inkscape"
   xmlns:sodipodi="http://sodipodi.sourceforge.net/DTD/sodipodi-0.dtd"
   xmlns:xlink="http://www.w3.org/1999/xlink"
   xmlns="http://www.w3.org/2000/svg"
   xmlns:svg="http://www.w3.org/2000/svg">
  <defs
     id="defs3">
    <linearGradient
       id="linearGradient1"
       inkscape:collect="always">
      <stop
         style="stop-color:#4b4fe2ff;stop-opacity:1;"
         offset="0"
         id="stop1" />
      <stop
         style="stop-color:#a03291;stop-opacity:1;"
         offset="0.76340693"
         id="stop2" />
    </linearGradient>
    <linearGradient
       inkscape:collect="always"
       xlink:href="#linearGradient1"
       id="linearGradient2"
       x1="232.4884"
       y1="23.847498"
       x2="23.977745"
       y2="232.35815"
       gradientUnits="userSpaceOnUse" />
  </defs>
  <defs
     id="defs2" />
  <sodipodi:namedview
     id="namedview2"
     pagecolor="#ffffff"
     bordercolor="#000000"
     borderopacity="0.25"
     inkscape:showpageshadow="2"
     inkscape:pageopacity="0.0"
     inkscape:pagecheckerboard="0"
     inkscape:deskcolor="#d1d1d1" />
  <path
     id="polyline1"
     style="baseline-shift:baseline;display:inline;overflow:visible;vector-effect:none;fill:url(#linearGradient2);stroke-linecap:round;stroke-linejoin:round;enable-background:accumulate;stop-color:#000000;stop-opacity:1;opacity:1;fill-opacity:1"
     d="M 159.64844 32.007812 A 8 8 0 0 0 152.48242 37.265625 L 88.482422 213.26562 A 8 8 0 0 0 93.265625 223.51758 A 8 8 0 0 0 103.51758 218.73438 L 167.51758 42.734375 A 8 8 0 0 0 162.73438 32.482422 A 8 8 0 0 0 159.64844 32.007812 z M 63.677734 80.005859 A 8 8 0 0 0 58.878906 81.853516 L 10.878906 121.85352 A 8.0008 8.0008 0 0 0 10.878906 134.14648 L 58.878906 174.14648 A 8 8 0 0 0 70.146484 173.12109 A 8 8 0 0 0 69.121094 161.85352 L 28.496094 128 L 69.121094 94.146484 A 8 8 0 0 0 70.146484 82.878906 A 8 8 0 0 0 64.724609 80.033203 A 8 8 0 0 0 63.677734 80.005859 z M 192.32227 80.005859 A 8 8 0 0 0 191.27539 80.033203 A 8 8 0 0 0 185.85352 82.878906 A 8 8 0 0 0 186.87891 94.146484 L 227.50391 128 L 186.87891 161.85352 A 8 8 0 0 0 185.85352 173.12109 A 8 8 0 0 0 197.12109 174.14648 L 245.12109 134.14648 A 8.0008 8.0008 0 0 0 245.12109 121.85352 L 197.12109 81.853516 A 8 8 0 0 0 192.32227 80.005859 z " />
</svg>
