<?xml version="1.0" encoding="UTF-8" standalone="no"?>
<svg
   viewBox="0 0 256 256"
   version="1.1"
   id="svg4"
   sodipodi:docname="codesandbox logo purple_blue.svg"
   xmlns:inkscape="http://www.inkscape.org/namespaces/inkscape"
   xmlns:sodipodi="http://sodipodi.sourceforge.net/DTD/sodipodi-0.dtd"
   xmlns:xlink="http://www.w3.org/1999/xlink"
   xmlns="http://www.w3.org/2000/svg"
   xmlns:svg="http://www.w3.org/2000/svg">
  <defs
     id="defs3">
    <linearGradient
       id="linearGradient1"
       inkscape:collect="always">
      <stop
         style="stop-color:#4b4fe2ff;stop-opacity:1;"
         offset="0"
         id="stop1" />
      <stop
         style="stop-color:#a03291;stop-opacity:1;"
         offset="0.76340693"
         id="stop2" />
    </linearGradient>
    <linearGradient
       inkscape:collect="always"
       xlink:href="#linearGradient1"
       id="linearGradient2"
       x1="232.4884"
       y1="23.847498"
       x2="23.977745"
       y2="232.35815"
       gradientUnits="userSpaceOnUse" />
  </defs>
  <defs
     id="defs4" />
  <sodipodi:namedview
     id="namedview4"
     pagecolor="#ffffff"
     bordercolor="#000000"
     borderopacity="0.25"
     inkscape:showpageshadow="2"
     inkscape:pageopacity="0.0"
     inkscape:pagecheckerboard="0"
     inkscape:deskcolor="#d1d1d1" />
  <path
     id="path1"
     style="baseline-shift:baseline;display:inline;overflow:visible;vector-effect:none;fill:url(#linearGradient2);stroke-linecap:round;stroke-linejoin:round;enable-background:accumulate;stop-color:#000000;stop-opacity:1;opacity:1;fill-opacity:1"
     d="M 128 16.021484 C 125.35406 16.021484 122.70844 16.675751 120.32031 17.982422 A 8.0008 8.0008 0 0 0 120.31836 17.982422 L 79.744141 40.197266 A 8 8 0 0 0 78.867188 40.677734 L 32.318359 66.162109 C 30.015132 67.422619 28.099399 69.210676 26.689453 71.328125 A 8 8 0 0 0 26.123047 72.21875 A 8 8 0 0 0 25.947266 72.558594 C 24.697834 74.856017 24.006128 77.46263 24 80.162109 A 8.0008 8.0008 0 0 0 24 80.179688 L 24 175.82031 A 8.0008 8.0008 0 0 0 24 175.83789 C 24.01321 181.65782 27.213044 187.04386 32.318359 189.83789 L 76.189453 213.85742 A 8 8 0 0 0 76.595703 214.08008 L 120.31836 238.01758 A 8.0008 8.0008 0 0 0 120.32031 238.01758 C 122.45481 239.18547 124.79602 239.83104 127.1582 239.95508 A 8 8 0 0 0 128 240 A 8 8 0 0 0 128.8418 239.95508 C 131.20405 239.83107 133.54513 239.1855 135.67969 238.01758 A 8.0008 8.0008 0 0 0 135.68164 238.01758 L 179.40039 214.08008 A 8 8 0 0 0 180.26758 213.60547 L 223.67969 189.83789 C 228.78582 187.04408 231.98679 181.65836 232 175.83789 A 8.0008 8.0008 0 0 0 232 175.82031 L 232 80.179688 A 8.0008 8.0008 0 0 0 232 80.162109 C 231.99388 77.46188 231.30282 74.854531 230.05273 72.556641 A 8 8 0 0 0 229.87695 72.21875 A 8 8 0 0 0 229.3125 71.332031 C 227.90226 69.212527 225.98657 67.423552 223.68164 66.162109 L 223.67969 66.162109 L 177.14844 40.685547 A 8 8 0 0 0 176.23828 40.1875 L 135.68164 17.982422 A 8.0008 8.0008 0 0 0 135.67969 17.982422 C 133.29161 16.675751 130.64594 16.021484 128 16.021484 z M 128 32.019531 L 156.18164 47.449219 L 128 62.878906 L 99.818359 47.449219 L 128 32.019531 z M 83.158203 56.570312 L 124.1582 79.017578 A 8.0008 8.0008 0 0 0 131.8418 79.017578 L 172.8418 56.570312 L 207.32227 75.447266 L 128 118.87891 L 48.677734 75.447266 L 83.158203 56.570312 z M 40 88.935547 L 120 132.74023 L 120 219.59961 L 88 202.08008 L 88 152 A 8.0008 8.0008 0 0 0 83.841797 144.98242 L 40 120.97266 L 40 88.935547 z M 216 88.935547 L 216 120.98047 L 172.1582 144.98242 A 8.0008 8.0008 0 0 0 168 152 L 168 202.08008 L 136 219.59961 L 136 132.74023 L 216 88.935547 z M 40 139.21484 L 72 156.74023 L 72 193.32031 L 40.001953 175.80273 A 8.0008 8.0008 0 0 0 40 175.80273 L 40 139.21484 z M 216 139.2207 L 216 175.80273 A 8.0008 8.0008 0 0 0 215.99805 175.80273 L 184 193.32031 L 184 156.74023 L 216 139.2207 z " />
</svg>
