<?xml version="1.0" encoding="UTF-8" standalone="no"?>
<svg
   viewBox="0 0 256 256"
   version="1.1"
   id="svg5"
   sodipodi:docname="cooking pot purple_blue.svg"
   xmlns:inkscape="http://www.inkscape.org/namespaces/inkscape"
   xmlns:sodipodi="http://sodipodi.sourceforge.net/DTD/sodipodi-0.dtd"
   xmlns:xlink="http://www.w3.org/1999/xlink"
   xmlns="http://www.w3.org/2000/svg"
   xmlns:svg="http://www.w3.org/2000/svg">
  <defs
     id="defs3">
    <linearGradient
       id="linearGradient1"
       inkscape:collect="always">
      <stop
         style="stop-color:#4b4fe2ff;stop-opacity:1;"
         offset="0"
         id="stop1" />
      <stop
         style="stop-color:#a03291;stop-opacity:1;"
         offset="0.76340693"
         id="stop2" />
    </linearGradient>
    <linearGradient
       inkscape:collect="always"
       xlink:href="#linearGradient1"
       id="linearGradient2"
       x1="232.4884"
       y1="23.847498"
       x2="23.977745"
       y2="232.35815"
       gradientUnits="userSpaceOnUse" />
  </defs>
  <defs
     id="defs5" />
  <sodipodi:namedview
     id="namedview5"
     pagecolor="#ffffff"
     bordercolor="#000000"
     borderopacity="0.25"
     inkscape:showpageshadow="2"
     inkscape:pageopacity="0.0"
     inkscape:pagecheckerboard="0"
     inkscape:deskcolor="#d1d1d1" />
  <path
     id="line1"
     style="baseline-shift:baseline;display:inline;overflow:visible;vector-effect:none;fill:url(#linearGradient2);stroke-linecap:round;stroke-linejoin:round;enable-background:accumulate;stop-color:#000000;stop-opacity:1;opacity:1;fill-opacity:1"
     d="M 96 8 A 8 8 0 0 0 88 16 L 88 48 A 8 8 0 0 0 96 56 A 8 8 0 0 0 104 48 L 104 16 A 8 8 0 0 0 96 8 z M 128 8 A 8 8 0 0 0 120 16 L 120 48 A 8 8 0 0 0 128 56 A 8 8 0 0 0 136 48 L 136 16 A 8 8 0 0 0 128 8 z M 160 8 A 8 8 0 0 0 152 16 L 152 48 A 8 8 0 0 0 160 56 A 8 8 0 0 0 168 48 L 168 16 A 8 8 0 0 0 160 8 z M 40 72 A 8.0008 8.0008 0 0 0 32 80 L 32 104 L 12.800781 89.599609 A 8 8 0 0 0 6.8691406 88.080078 A 8 8 0 0 0 1.5996094 91.199219 A 8 8 0 0 0 3.1992188 102.40039 L 32 124 L 32 184 C 32 201.57835 46.421645 216 64 216 L 192 216 C 209.57835 216 224 201.57835 224 184 L 224 124 L 252.80078 102.40039 A 8 8 0 0 0 254.40039 91.199219 A 8 8 0 0 0 249.13086 88.080078 A 8 8 0 0 0 243.19922 89.599609 L 224 104 L 224 80 A 8.0008 8.0008 0 0 0 216 72 L 40 72 z M 48 88 L 208 88 L 208 119.86719 A 8 8 0 0 0 208 120.13281 L 208 184 C 208 192.93131 200.93131 200 192 200 L 64 200 C 55.068687 200 48 192.93131 48 184 L 48 120.13281 A 8 8 0 0 0 48 119.86719 L 48 88 z " />
</svg>
