<?xml version="1.0" encoding="UTF-8" standalone="no"?>
<svg
   viewBox="0 0 256 256"
   version="1.1"
   id="svg4"
   sodipodi:docname="credit card purple_blue.svg"
   xmlns:inkscape="http://www.inkscape.org/namespaces/inkscape"
   xmlns:sodipodi="http://sodipodi.sourceforge.net/DTD/sodipodi-0.dtd"
   xmlns:xlink="http://www.w3.org/1999/xlink"
   xmlns="http://www.w3.org/2000/svg"
   xmlns:svg="http://www.w3.org/2000/svg">
  <defs
     id="defs3">
    <linearGradient
       id="linearGradient1"
       inkscape:collect="always">
      <stop
         style="stop-color:#4b4fe2ff;stop-opacity:1;"
         offset="0"
         id="stop1" />
      <stop
         style="stop-color:#a03291;stop-opacity:1;"
         offset="0.76340693"
         id="stop2" />
    </linearGradient>
    <linearGradient
       inkscape:collect="always"
       xlink:href="#linearGradient1"
       id="linearGradient2"
       x1="232.4884"
       y1="23.847498"
       x2="23.977745"
       y2="232.35815"
       gradientUnits="userSpaceOnUse" />
  </defs>
  <defs
     id="defs4" />
  <sodipodi:namedview
     id="namedview4"
     pagecolor="#ffffff"
     bordercolor="#000000"
     borderopacity="0.25"
     inkscape:showpageshadow="2"
     inkscape:pageopacity="0.0"
     inkscape:pagecheckerboard="0"
     inkscape:deskcolor="#d1d1d1" />
  <path
     id="rect2"
     style="baseline-shift:baseline;display:inline;overflow:visible;vector-effect:none;fill:url(#linearGradient2);stroke-linecap:round;stroke-linejoin:round;enable-background:accumulate;stop-color:#000000;stop-opacity:1;opacity:1;fill-opacity:1"
     d="M 32 48 C 23.274378 48 16 55.274378 16 64 L 16 96 L 16 192 C 16 200.72562 23.274378 208 32 208 L 224 208 C 232.72562 208 240 200.72562 240 192 L 240 96 L 240 64 C 240 55.274378 232.72562 48 224 48 L 32 48 z M 32 64 L 224 64 L 224 88 L 32 88 L 32 64 z M 32 104 L 224 104 L 224 192 L 32 192 L 32 104 z M 120 160 A 8 8 0 0 0 112 168 A 8 8 0 0 0 120 176 L 136 176 A 8 8 0 0 0 144 168 A 8 8 0 0 0 136 160 L 120 160 z M 168 160 A 8 8 0 0 0 160 168 A 8 8 0 0 0 168 176 L 200 176 A 8 8 0 0 0 208 168 A 8 8 0 0 0 200 160 L 168 160 z " />
</svg>
