<?xml version="1.0" encoding="UTF-8" standalone="no"?>
<svg
   viewBox="0 0 256 256"
   version="1.1"
   id="svg2"
   sodipodi:docname="currency inr purple_blue.svg"
   xmlns:inkscape="http://www.inkscape.org/namespaces/inkscape"
   xmlns:sodipodi="http://sodipodi.sourceforge.net/DTD/sodipodi-0.dtd"
   xmlns:xlink="http://www.w3.org/1999/xlink"
   xmlns="http://www.w3.org/2000/svg"
   xmlns:svg="http://www.w3.org/2000/svg">
  <defs
     id="defs3">
    <linearGradient
       id="linearGradient1"
       inkscape:collect="always">
      <stop
         style="stop-color:#4b4fe2ff;stop-opacity:1;"
         offset="0"
         id="stop1" />
      <stop
         style="stop-color:#a03291;stop-opacity:1;"
         offset="0.76340693"
         id="stop2" />
    </linearGradient>
    <linearGradient
       inkscape:collect="always"
       xlink:href="#linearGradient1"
       id="linearGradient2"
       x1="232.4884"
       y1="23.847498"
       x2="23.977745"
       y2="232.35815"
       gradientUnits="userSpaceOnUse" />
  </defs>
  <defs
     id="defs2" />
  <sodipodi:namedview
     id="namedview2"
     pagecolor="#ffffff"
     bordercolor="#000000"
     borderopacity="0.25"
     inkscape:showpageshadow="2"
     inkscape:pageopacity="0.0"
     inkscape:pagecheckerboard="0"
     inkscape:deskcolor="#d1d1d1" />
  <path
     id="line1"
     style="baseline-shift:baseline;display:inline;overflow:visible;vector-effect:none;fill:url(#linearGradient2);stroke-linecap:round;stroke-linejoin:round;enable-background:accumulate;stop-color:#000000;stop-opacity:1;opacity:1;fill-opacity:1"
     d="M 72 32 A 8 8 0 0 0 64 40 A 8 8 0 0 0 72 48 L 108 48 C 125.18218 48 139.98698 57.725322 147.24023 72 L 72 72 A 8 8 0 0 0 64 80 A 8 8 0 0 0 72 88 L 151.82227 88 C 151.93962 89.317019 152 90.651187 152 92 C 152 116.39529 132.39531 136 108 136 L 72 136 A 8.0008 8.0008 0 0 0 66.619141 149.91992 L 154.61914 229.91992 A 8 8 0 0 0 165.91992 229.38086 A 8 8 0 0 0 165.38086 218.08008 L 92.693359 152 L 108 152 C 141.04234 152 168 125.04232 168 92 C 168 90.656134 167.95497 89.322332 167.86719 88 L 200 88 A 8 8 0 0 0 208 80 A 8 8 0 0 0 200 72 L 164.5625 72 C 161.27668 62.755972 155.78173 54.542395 148.71875 48 L 200 48 A 8 8 0 0 0 208 40 A 8 8 0 0 0 200 32 L 108 32 L 72 32 z " />
</svg>
