<?xml version="1.0" encoding="UTF-8" standalone="no"?>
<svg
   viewBox="0 0 256 256"
   version="1.1"
   id="svg2"
   sodipodi:docname="database purple_blue.svg"
   xmlns:inkscape="http://www.inkscape.org/namespaces/inkscape"
   xmlns:sodipodi="http://sodipodi.sourceforge.net/DTD/sodipodi-0.dtd"
   xmlns:xlink="http://www.w3.org/1999/xlink"
   xmlns="http://www.w3.org/2000/svg"
   xmlns:svg="http://www.w3.org/2000/svg">
  <defs
     id="defs3">
    <linearGradient
       id="linearGradient1"
       inkscape:collect="always">
      <stop
         style="stop-color:#4b4fe2ff;stop-opacity:1;"
         offset="0"
         id="stop1" />
      <stop
         style="stop-color:#a03291;stop-opacity:1;"
         offset="0.76340693"
         id="stop2" />
    </linearGradient>
    <linearGradient
       inkscape:collect="always"
       xlink:href="#linearGradient1"
       id="linearGradient2"
       x1="232.4884"
       y1="23.847498"
       x2="23.977745"
       y2="232.35815"
       gradientUnits="userSpaceOnUse" />
  </defs>
  <defs
     id="defs2" />
  <sodipodi:namedview
     id="namedview2"
     pagecolor="#ffffff"
     bordercolor="#000000"
     borderopacity="0.25"
     inkscape:showpageshadow="2"
     inkscape:pageopacity="0.0"
     inkscape:pagecheckerboard="0"
     inkscape:deskcolor="#d1d1d1" />
  <path
     id="ellipse1"
     style="baseline-shift:baseline;display:inline;overflow:visible;vector-effect:none;fill:url(#linearGradient2);stroke-linecap:round;stroke-linejoin:round;enable-background:accumulate;stop-color:#000000;stop-opacity:1;opacity:1;fill-opacity:1"
     d="M 128 24 C 102.52033 24 79.369971 29.529732 61.943359 39.035156 C 44.516748 48.540581 32 62.781938 32 80 L 32 128 L 32 176 C 32 193.21828 44.516632 207.45948 61.943359 216.96484 C 79.370087 226.47021 102.52085 232 128 232 C 153.47915 232 176.62991 226.47021 194.05664 216.96484 C 211.48337 207.45948 224 193.21828 224 176 L 224 128 L 224 80 C 224 62.781938 211.48325 48.540581 194.05664 39.035156 C 176.63003 29.529732 153.47967 24 128 24 z M 128 40 C 151.12139 40 171.97141 45.214873 186.39453 53.082031 C 200.81766 60.94919 208 70.708394 208 80 C 208 89.291606 200.81766 99.050808 186.39453 106.91797 C 171.97141 114.78513 151.12139 120 128 120 C 104.87861 120 84.028593 114.78513 69.605469 106.91797 C 55.182345 99.050808 48 89.291606 48 80 C 48 70.708394 55.182345 60.94919 69.605469 53.082031 C 84.028593 45.214873 104.87861 40 128 40 z M 48 111.36328 C 52.090524 114.94578 56.803373 118.16122 61.943359 120.96484 C 79.369971 130.47027 102.52033 136 128 136 C 153.47967 136 176.63003 130.47027 194.05664 120.96484 C 199.19663 118.16122 203.90948 114.94578 208 111.36328 L 208 128 C 208 137.29172 200.8178 147.05083 186.39453 154.91797 C 171.97126 162.78511 151.12085 168 128 168 C 104.87915 168 84.028741 162.78511 69.605469 154.91797 C 55.182212 147.05084 48.000015 137.29171 48 128 L 48 111.36328 z M 48 159.36328 C 52.090514 162.94574 56.80336 166.16125 61.943359 168.96484 C 79.370087 178.47021 102.52085 184 128 184 C 153.47915 184 176.62991 178.47021 194.05664 168.96484 C 199.19664 166.16125 203.90949 162.94574 208 159.36328 L 208 176 C 208 185.29172 200.8178 195.05083 186.39453 202.91797 C 171.97126 210.78511 151.12085 216 128 216 C 104.87915 216 84.028741 210.78511 69.605469 202.91797 C 55.182197 195.05083 48 185.29172 48 176 L 48 159.36328 z " />
</svg>
