<?xml version="1.0" encoding="UTF-8" standalone="no"?>
<svg
   viewBox="0 0 256 256"
   version="1.1"
   id="svg3"
   sodipodi:docname="device rotate purple_blue.svg"
   xmlns:inkscape="http://www.inkscape.org/namespaces/inkscape"
   xmlns:sodipodi="http://sodipodi.sourceforge.net/DTD/sodipodi-0.dtd"
   xmlns:xlink="http://www.w3.org/1999/xlink"
   xmlns="http://www.w3.org/2000/svg"
   xmlns:svg="http://www.w3.org/2000/svg">
  <defs
     id="defs3">
    <linearGradient
       id="linearGradient1"
       inkscape:collect="always">
      <stop
         style="stop-color:#4b4fe2ff;stop-opacity:1;"
         offset="0"
         id="stop1" />
      <stop
         style="stop-color:#a03291;stop-opacity:1;"
         offset="0.76340693"
         id="stop2" />
    </linearGradient>
    <linearGradient
       inkscape:collect="always"
       xlink:href="#linearGradient1"
       id="linearGradient2"
       x1="232.4884"
       y1="23.847498"
       x2="23.977745"
       y2="232.35815"
       gradientUnits="userSpaceOnUse" />
  </defs>
  <defs
     id="defs1" />
  <sodipodi:namedview
     id="namedview3"
     pagecolor="#ffffff"
     bordercolor="#000000"
     borderopacity="0.25"
     inkscape:showpageshadow="2"
     inkscape:pageopacity="0.0"
     inkscape:pagecheckerboard="0"
     inkscape:deskcolor="#d1d1d1" />
  <path
     id="path1"
     style="baseline-shift:baseline;display:inline;overflow:visible;vector-effect:none;fill:url(#linearGradient2);stroke-linecap:round;stroke-linejoin:round;enable-background:accumulate;stop-color:#000000;stop-opacity:1;opacity:1;fill-opacity:1"
     d="M 80 8 A 8 8 0 0 0 74.34375 10.34375 L 50.425781 34.261719 L 50.34375 34.34375 A 8.0008 8.0008 0 0 0 50.0625 34.664062 A 8 8 0 0 0 49.677734 35.103516 A 8.0008 8.0008 0 0 0 49.390625 35.525391 A 8 8 0 0 0 49.095703 35.966797 A 8.0008 8.0008 0 0 0 48.853516 36.445312 A 8 8 0 0 0 48.617188 36.921875 A 8.0008 8.0008 0 0 0 48.453125 37.398438 A 8 8 0 0 0 48.279297 37.914062 A 8.0008 8.0008 0 0 0 48.201172 38.292969 A 8 8 0 0 0 48 40 A 8 8 0 0 0 48.201172 41.707031 A 8.0008 8.0008 0 0 0 48.279297 42.085938 A 8 8 0 0 0 48.453125 42.601562 A 8.0008 8.0008 0 0 0 48.617188 43.078125 A 8 8 0 0 0 48.853516 43.554688 A 8.0008 8.0008 0 0 0 49.095703 44.033203 A 8 8 0 0 0 49.390625 44.474609 A 8.0008 8.0008 0 0 0 49.677734 44.896484 A 8 8 0 0 0 50.0625 45.335938 A 8.0008 8.0008 0 0 0 50.34375 45.65625 L 50.425781 45.738281 L 74.34375 69.65625 A 8 8 0 0 0 85.65625 69.65625 A 8 8 0 0 0 85.65625 58.34375 L 75.3125 48 L 176 48 C 180.51304 48 184 51.486965 184 56 L 184 152 A 8 8 0 0 0 192 160 A 8 8 0 0 0 200 152 L 200 56 C 200 42.839923 189.16008 32 176 32 L 75.3125 32 L 85.65625 21.65625 A 8 8 0 0 0 85.65625 10.34375 A 8 8 0 0 0 80 8 z M 64 96 A 8 8 0 0 0 56 104 L 56 200 C 56 213.16008 66.839923 224 80 224 L 180.6875 224 L 170.34375 234.34375 A 8 8 0 0 0 170.34375 245.65625 A 8 8 0 0 0 181.65625 245.65625 L 205.65625 221.65625 A 8.0008 8.0008 0 0 0 205.9375 221.33594 A 8 8 0 0 0 206.32227 220.89648 A 8.0008 8.0008 0 0 0 206.60938 220.47461 A 8 8 0 0 0 206.9043 220.0332 A 8.0008 8.0008 0 0 0 207.14648 219.55469 A 8 8 0 0 0 207.38281 219.07812 A 8.0008 8.0008 0 0 0 207.54688 218.60156 A 8 8 0 0 0 207.7207 218.08594 A 8.0008 8.0008 0 0 0 207.79883 217.70703 A 8 8 0 0 0 208 216 A 8 8 0 0 0 207.79883 214.29297 A 8.0008 8.0008 0 0 0 207.7207 213.91406 A 8 8 0 0 0 207.54688 213.39844 A 8.0008 8.0008 0 0 0 207.38281 212.92188 A 8 8 0 0 0 207.14648 212.44531 A 8.0008 8.0008 0 0 0 206.9043 211.9668 A 8 8 0 0 0 206.60938 211.52539 A 8.0008 8.0008 0 0 0 206.32227 211.10352 A 8 8 0 0 0 205.9375 210.66406 A 8.0008 8.0008 0 0 0 205.65625 210.34375 L 181.65625 186.34375 A 8 8 0 0 0 176 184 A 8 8 0 0 0 170.34375 186.34375 A 8 8 0 0 0 170.34375 197.65625 L 180.6875 208 L 80 208 C 75.486965 208 72 204.51304 72 200 L 72 104 A 8 8 0 0 0 64 96 z " />
</svg>
