<?xml version="1.0" encoding="UTF-8" standalone="no"?>
<svg
   viewBox="0 0 256 256"
   version="1.1"
   id="svg1"
   sodipodi:docname="envelope simple purple_blue.svg"
   xmlns:inkscape="http://www.inkscape.org/namespaces/inkscape"
   xmlns:sodipodi="http://sodipodi.sourceforge.net/DTD/sodipodi-0.dtd"
   xmlns:xlink="http://www.w3.org/1999/xlink"
   xmlns="http://www.w3.org/2000/svg"
   xmlns:svg="http://www.w3.org/2000/svg">
  <defs
     id="defs3">
    <linearGradient
       id="linearGradient1"
       inkscape:collect="always">
      <stop
         style="stop-color:#4b4fe2ff;stop-opacity:1;"
         offset="0"
         id="stop1" />
      <stop
         style="stop-color:#a03291;stop-opacity:1;"
         offset="0.76340693"
         id="stop2" />
    </linearGradient>
    <linearGradient
       inkscape:collect="always"
       xlink:href="#linearGradient1"
       id="linearGradient2"
       x1="232.4884"
       y1="23.847498"
       x2="23.977745"
       y2="232.35815"
       gradientUnits="userSpaceOnUse" />
  </defs>
  <defs
     id="defs1" />
  <sodipodi:namedview
     id="namedview1"
     pagecolor="#ffffff"
     bordercolor="#000000"
     borderopacity="0.25"
     inkscape:showpageshadow="2"
     inkscape:pageopacity="0.0"
     inkscape:pagecheckerboard="0"
     inkscape:deskcolor="#d1d1d1" />
  <path
     id="path1"
     style="baseline-shift:baseline;display:inline;overflow:visible;vector-effect:none;fill:url(#linearGradient2);stroke-linecap:round;stroke-linejoin:round;enable-background:accumulate;stop-color:#000000;stop-opacity:1;opacity:1;fill-opacity:1"
     d="M 32 48 A 8.0008 8.0008 0 0 0 31.822266 48.011719 A 8 8 0 0 0 31.652344 48.007812 A 8 8 0 0 0 31.308594 48.044922 A 8.0008 8.0008 0 0 0 30.787109 48.101562 A 8 8 0 0 0 30.25 48.208984 A 8.0008 8.0008 0 0 0 29.78125 48.324219 A 8 8 0 0 0 29.253906 48.501953 A 8.0008 8.0008 0 0 0 28.78125 48.6875 A 8 8 0 0 0 28.320312 48.914062 A 8.0008 8.0008 0 0 0 27.859375 49.166016 A 8 8 0 0 0 27.404297 49.470703 A 8.0008 8.0008 0 0 0 27.007812 49.761719 A 8 8 0 0 0 26.597656 50.121094 A 8.0008 8.0008 0 0 0 26.234375 50.46875 A 8 8 0 0 0 26.103516 50.59375 A 8 8 0 0 0 25.875 50.878906 A 8.0008 8.0008 0 0 0 25.558594 51.273438 A 8 8 0 0 0 25.267578 51.708984 A 8.0008 8.0008 0 0 0 24.998047 52.152344 A 8 8 0 0 0 24.759766 52.634766 A 8.0008 8.0008 0 0 0 24.552734 53.103516 A 8 8 0 0 0 24.388672 53.591797 A 8.0008 8.0008 0 0 0 24.238281 54.103516 A 8 8 0 0 0 24.140625 54.59375 A 8.0008 8.0008 0 0 0 24.056641 55.138672 A 8 8 0 0 0 24.023438 55.638672 A 8.0008 8.0008 0 0 0 24 56 L 24 192 C 24 200.7418 31.258201 208 40 208 L 216 208 C 224.7418 208 232 200.7418 232 192 L 232 56 A 8.0008 8.0008 0 0 0 231.97656 55.638672 A 8 8 0 0 0 231.94336 55.138672 A 8.0008 8.0008 0 0 0 231.85938 54.59375 A 8 8 0 0 0 231.76172 54.103516 A 8.0008 8.0008 0 0 0 231.61133 53.591797 A 8 8 0 0 0 231.44727 53.103516 A 8.0008 8.0008 0 0 0 231.24023 52.634766 A 8 8 0 0 0 231.00195 52.152344 A 8.0008 8.0008 0 0 0 230.73242 51.708984 A 8 8 0 0 0 230.44141 51.273438 A 8.0008 8.0008 0 0 0 230.125 50.878906 A 8 8 0 0 0 229.89648 50.59375 A 8 8 0 0 0 229.76562 50.46875 A 8.0008 8.0008 0 0 0 229.40234 50.121094 A 8 8 0 0 0 228.99219 49.761719 A 8.0008 8.0008 0 0 0 228.5957 49.470703 A 8 8 0 0 0 228.13867 49.164062 A 8.0008 8.0008 0 0 0 227.70312 48.925781 A 8 8 0 0 0 227.20312 48.679688 A 8.0008 8.0008 0 0 0 226.75977 48.507812 A 8 8 0 0 0 226.2207 48.324219 A 8.0008 8.0008 0 0 0 225.74414 48.208984 A 8 8 0 0 0 225.21484 48.101562 A 8.0008 8.0008 0 0 0 224.6875 48.044922 A 8 8 0 0 0 224.17773 48.011719 A 8.0008 8.0008 0 0 0 224 48 L 32 48 z M 52.566406 64 L 203.43359 64 L 128 133.14648 L 52.566406 64 z M 40 74.185547 L 122.59375 149.89648 A 8.0008 8.0008 0 0 0 133.40625 149.89648 L 216 74.185547 L 216 192 L 40 192 L 40 74.185547 z " />
</svg>
