<?xml version="1.0" encoding="UTF-8" standalone="no"?>
<svg
   viewBox="0 0 256 256"
   version="1.1"
   id="svg1"
   sodipodi:docname="eye purple_blue.svg"
   xmlns:inkscape="http://www.inkscape.org/namespaces/inkscape"
   xmlns:sodipodi="http://sodipodi.sourceforge.net/DTD/sodipodi-0.dtd"
   xmlns:xlink="http://www.w3.org/1999/xlink"
   xmlns="http://www.w3.org/2000/svg"
   xmlns:svg="http://www.w3.org/2000/svg">
  <defs
     id="defs3">
    <linearGradient
       id="linearGradient1"
       inkscape:collect="always">
      <stop
         style="stop-color:#4b4fe2ff;stop-opacity:1;"
         offset="0"
         id="stop1" />
      <stop
         style="stop-color:#a03291;stop-opacity:1;"
         offset="0.76340693"
         id="stop2" />
    </linearGradient>
    <linearGradient
       inkscape:collect="always"
       xlink:href="#linearGradient1"
       id="linearGradient2"
       x1="232.4884"
       y1="23.847498"
       x2="23.977745"
       y2="232.35815"
       gradientUnits="userSpaceOnUse" />
  </defs>
  <defs
     id="defs1" />
  <sodipodi:namedview
     id="namedview1"
     pagecolor="#ffffff"
     bordercolor="#000000"
     borderopacity="0.25"
     inkscape:showpageshadow="2"
     inkscape:pageopacity="0.0"
     inkscape:pagecheckerboard="0"
     inkscape:deskcolor="#d1d1d1" />
  <path
     id="path1"
     style="baseline-shift:baseline;display:inline;overflow:visible;vector-effect:none;fill:url(#linearGradient2);stroke-linecap:round;stroke-linejoin:round;enable-background:accumulate;stop-color:#000000;stop-opacity:1;opacity:1;fill-opacity:1"
     d="M 128 48 C 43.2 48 8.6894531 124.75 8.6894531 124.75 A 8.0008 8.0008 0 0 0 8.6894531 131.25 C 8.6894531 131.25 43.2 208 128 208 C 212.8 208 247.31055 131.25 247.31055 131.25 A 8.0008 8.0008 0 0 0 247.31055 124.75 C 247.31055 124.75 212.8 48 128 48 z M 128 64 C 193.35603 64 224.11686 114.70144 231.06836 128 C 224.11686 141.29856 193.35603 192 128 192 C 62.643965 192 31.883138 141.29856 24.931641 128 C 31.883138 114.70144 62.643965 64 128 64 z M 128 80 C 101.58509 80 80 101.58509 80 128 C 80 154.41491 101.58509 176 128 176 C 154.41491 176 176 154.41491 176 128 C 176 101.58509 154.41491 80 128 80 z M 128 96 C 145.76787 96 160 110.23213 160 128 C 160 145.76787 145.76787 160 128 160 C 110.23213 160 96 145.76787 96 128 C 96 110.23213 110.23213 96 128 96 z " />
</svg>
