<?xml version="1.0" encoding="UTF-8" standalone="no"?>
<svg
   viewBox="0 0 256 256"
   version="1.1"
   id="svg4"
   sodipodi:docname="eye slash purple_blue.svg"
   xmlns:inkscape="http://www.inkscape.org/namespaces/inkscape"
   xmlns:sodipodi="http://sodipodi.sourceforge.net/DTD/sodipodi-0.dtd"
   xmlns:xlink="http://www.w3.org/1999/xlink"
   xmlns="http://www.w3.org/2000/svg"
   xmlns:svg="http://www.w3.org/2000/svg">
  <defs
     id="defs3">
    <linearGradient
       id="linearGradient1"
       inkscape:collect="always">
      <stop
         style="stop-color:#4b4fe2ff;stop-opacity:1;"
         offset="0"
         id="stop1" />
      <stop
         style="stop-color:#a03291;stop-opacity:1;"
         offset="0.76340693"
         id="stop2" />
    </linearGradient>
    <linearGradient
       inkscape:collect="always"
       xlink:href="#linearGradient1"
       id="linearGradient2"
       x1="232.4884"
       y1="23.847498"
       x2="23.977745"
       y2="232.35815"
       gradientUnits="userSpaceOnUse" />
  </defs>
  <defs
     id="defs4" />
  <sodipodi:namedview
     id="namedview4"
     pagecolor="#ffffff"
     bordercolor="#000000"
     borderopacity="0.25"
     inkscape:showpageshadow="2"
     inkscape:pageopacity="0.0"
     inkscape:pagecheckerboard="0"
     inkscape:deskcolor="#d1d1d1" />
  <path
     id="line1"
     style="baseline-shift:baseline;display:inline;overflow:visible;vector-effect:none;fill:url(#linearGradient2);stroke-linecap:round;stroke-linejoin:round;enable-background:accumulate;stop-color:#000000;stop-opacity:1;opacity:1;fill-opacity:1"
     d="M 48.380859 32.009766 A 8 8 0 0 0 42.619141 34.080078 A 8 8 0 0 0 42.080078 45.380859 L 61.3125 66.537109 C 24.29188 89.276085 8.6894531 124.75 8.6894531 124.75 A 8.0008 8.0008 0 0 0 8.6894531 131.25 C 8.6894531 131.25 43.192885 207.97969 127.9707 207.99805 C 145.93103 208.13415 163.69041 204.43165 180.06445 197.16406 L 202.08008 221.38086 A 8 8 0 0 0 213.38086 221.91992 A 8 8 0 0 0 213.91992 210.61914 L 188.00391 182.11133 A 8 8 0 0 0 187.98438 182.08984 L 187.83594 181.92578 A 8 8 0 0 0 187.83203 181.92188 L 160.91602 152.31445 A 8 8 0 0 0 160.83008 152.21875 A 8 8 0 0 0 160.73828 152.11914 L 107.05469 93.066406 A 8 8 0 0 0 107.00977 93.017578 A 8 8 0 0 0 106.95312 92.957031 L 79.964844 63.269531 L 79.958984 63.261719 A 8 8 0 0 0 79.951172 63.253906 L 53.919922 34.619141 A 8 8 0 0 0 48.380859 32.009766 z M 128 48 C 120.63626 47.9906 113.28314 48.588586 106.01758 49.787109 A 8 8 0 0 0 99.425781 58.982422 A 8 8 0 0 0 108.62305 65.574219 C 115.02448 64.518243 121.50034 63.991129 127.98828 64 A 8.0008 8.0008 0 0 0 128 64 C 193.3467 64 224.10713 114.68482 231.06445 127.99219 C 227.7224 134.30962 218.90441 149.14445 203.27344 163.14062 A 8 8 0 0 0 202.65039 174.4375 A 8 8 0 0 0 213.94727 175.06055 C 237.0616 154.36368 247.31055 131.24805 247.31055 131.24805 A 8.0008 8.0008 0 0 0 247.31055 124.75 C 247.31055 124.75 212.80288 48.007317 128.01172 48 L 128 48 z M 72.291016 78.613281 L 90.240234 98.357422 C 76.066693 116.42299 76.542517 142.75986 92.480469 160.29102 C 108.41823 177.82197 134.58978 180.79702 153.91992 168.4043 L 168.63281 184.58984 C 155.72672 189.58314 141.96466 192.10904 128.0625 192 A 8.0008 8.0008 0 0 0 128 192 C 62.746915 192 31.994197 141.47932 24.978516 128.08398 C 28.601532 120.96943 42.948237 95.473747 72.291016 78.613281 z M 135.99609 80.724609 A 8 8 0 0 0 127.67188 87.205078 A 8 8 0 0 0 134.02539 96.566406 C 148.03512 99.249254 158.52577 110.79092 159.86523 124.99219 A 8 8 0 0 0 168.58203 132.20508 A 8 8 0 0 0 175.79492 123.48828 C 173.79409 102.27506 157.96227 84.861034 137.03516 80.853516 A 8 8 0 0 0 135.99609 80.724609 z M 101.2207 110.43555 L 142.93945 156.32617 C 130.31782 163.04002 114.41306 160.63093 104.32031 149.5293 C 94.226789 138.42679 93.33705 122.36269 101.2207 110.43555 z " />
</svg>
