<?xml version="1.0" encoding="UTF-8" standalone="no"?>
<svg
   viewBox="0 0 256 256"
   version="1.1"
   id="svg2"
   sodipodi:docname="fast forward circle purple_blue.svg"
   xmlns:inkscape="http://www.inkscape.org/namespaces/inkscape"
   xmlns:sodipodi="http://sodipodi.sourceforge.net/DTD/sodipodi-0.dtd"
   xmlns:xlink="http://www.w3.org/1999/xlink"
   xmlns="http://www.w3.org/2000/svg"
   xmlns:svg="http://www.w3.org/2000/svg">
  <defs
     id="defs3">
    <linearGradient
       id="linearGradient1"
       inkscape:collect="always">
      <stop
         style="stop-color:#4b4fe2ff;stop-opacity:1;"
         offset="0"
         id="stop1" />
      <stop
         style="stop-color:#a03291;stop-opacity:1;"
         offset="0.76340693"
         id="stop2" />
    </linearGradient>
    <linearGradient
       inkscape:collect="always"
       xlink:href="#linearGradient1"
       id="linearGradient2"
       x1="232.4884"
       y1="23.847498"
       x2="23.977745"
       y2="232.35815"
       gradientUnits="userSpaceOnUse" />
  </defs>
  <defs
     id="defs2" />
  <sodipodi:namedview
     id="namedview2"
     pagecolor="#ffffff"
     bordercolor="#000000"
     borderopacity="0.25"
     inkscape:showpageshadow="2"
     inkscape:pageopacity="0.0"
     inkscape:pagecheckerboard="0"
     inkscape:deskcolor="#d1d1d1" />
  <path
     id="circle1"
     style="baseline-shift:baseline;display:inline;overflow:visible;vector-effect:none;fill:url(#linearGradient2);stroke-linecap:round;stroke-linejoin:round;enable-background:accumulate;stop-color:#000000;stop-opacity:1;opacity:1;fill-opacity:1"
     d="M 128 24 C 70.657143 24 24 70.657143 24 128 C 24 185.34286 70.657143 232 128 232 C 185.34286 232 232 185.34286 232 128 C 232 70.657143 185.34286 24 128 24 z M 128 40 C 176.69582 40 216 79.304185 216 128 C 216 176.69582 176.69582 216 128 216 C 79.304185 216 40 176.69582 40 128 C 40 79.304185 79.304185 40 128 40 z M 80.226562 84.003906 A 8.0008 8.0008 0 0 0 79.244141 84.037109 A 8.0008 8.0008 0 0 0 72 92 L 72 164 A 8.0008 8.0008 0 0 0 84.800781 170.40039 L 132.80078 134.40039 A 8.0008 8.0008 0 0 0 136 128.11133 L 136 164 A 8.0008 8.0008 0 0 0 148.80078 170.40039 L 196.80078 134.40039 A 8.0008 8.0008 0 0 0 196.80078 121.59961 L 148.80078 85.599609 A 8.0008 8.0008 0 0 0 143.24414 84.037109 A 8.0008 8.0008 0 0 0 136 92 L 136 127.88867 A 8.0008 8.0008 0 0 0 132.80078 121.59961 L 84.800781 85.599609 A 8.0008 8.0008 0 0 0 80.226562 84.003906 z M 88 108 L 114.66602 128 L 88 148 L 88 108 z M 152 108 L 178.66602 128 L 152 148 L 152 108 z " />
</svg>
