<?xml version="1.0" encoding="UTF-8" standalone="no"?>
<svg
   viewBox="0 0 256 256"
   version="1.1"
   id="svg4"
   sodipodi:docname="figma logo purple_blue.svg"
   xmlns:inkscape="http://www.inkscape.org/namespaces/inkscape"
   xmlns:sodipodi="http://sodipodi.sourceforge.net/DTD/sodipodi-0.dtd"
   xmlns:xlink="http://www.w3.org/1999/xlink"
   xmlns="http://www.w3.org/2000/svg"
   xmlns:svg="http://www.w3.org/2000/svg">
  <defs
     id="defs3">
    <linearGradient
       id="linearGradient1"
       inkscape:collect="always">
      <stop
         style="stop-color:#4b4fe2ff;stop-opacity:1;"
         offset="0"
         id="stop1" />
      <stop
         style="stop-color:#a03291;stop-opacity:1;"
         offset="0.76340693"
         id="stop2" />
    </linearGradient>
    <linearGradient
       inkscape:collect="always"
       xlink:href="#linearGradient1"
       id="linearGradient2"
       x1="232.4884"
       y1="23.847498"
       x2="23.977745"
       y2="232.35815"
       gradientUnits="userSpaceOnUse" />
  </defs>
  <defs
     id="defs4" />
  <sodipodi:namedview
     id="namedview4"
     pagecolor="#ffffff"
     bordercolor="#000000"
     borderopacity="0.25"
     inkscape:showpageshadow="2"
     inkscape:pageopacity="0.0"
     inkscape:pagecheckerboard="0"
     inkscape:deskcolor="#d1d1d1" />
  <path
     id="circle1"
     style="baseline-shift:baseline;display:inline;overflow:visible;vector-effect:none;fill:url(#linearGradient2);stroke-linecap:round;stroke-linejoin:round;enable-background:accumulate;stop-color:#000000;stop-opacity:1;opacity:1;fill-opacity:1"
     d="M 96 24 C 74.003358 24 56 42.003375 56 64 C 56 77.045291 62.332343 88.68608 72.074219 96 C 62.332344 103.31392 56 114.95471 56 128 C 56 141.63069 62.913603 153.72876 73.40625 160.95898 C 67.312017 165.58157 62.398632 171.80083 59.349609 179.16211 C 52.548344 195.58245 56.321327 214.54398 68.888672 227.11133 C 81.456017 239.67867 100.41755 243.45166 116.83789 236.65039 C 133.25825 229.84912 144 213.77337 144 196 L 144 160 L 144 159.94336 C 150.69739 164.9956 159.0156 168 168 168 C 189.99663 168 208 149.99663 208 128 C 208 114.95471 201.66766 103.31392 191.92578 96 C 201.66766 88.68608 208 77.045291 208 64 C 208 42.003375 189.99664 24 168 24 L 136 24 L 96 24 z M 96 40 L 128 40 L 128 88 L 96 88 C 82.650394 88 72 77.349598 72 64 C 72 50.650402 82.650394 40 96 40 z M 144 40 L 168 40 C 181.34961 40 192 50.650402 192 64 C 192 77.349598 181.34961 88 168 88 L 144 88 L 144 40 z M 96 104 L 128 104 L 128 152 L 100 152 L 96 152 C 82.650394 152 72 141.3496 72 128 C 72 114.6504 82.650394 104 96 104 z M 168 104 C 181.34959 104 192 114.65041 192 128 C 192 141.34959 181.34959 152 168 152 C 154.65041 152 144 141.34959 144 128 C 144 114.65041 154.65041 104 168 104 z M 100 168 L 128 168 L 128 196 C 128 207.34788 121.19853 217.52683 110.71484 221.86914 C 100.2312 226.21144 88.227525 223.82127 80.203125 215.79688 C 72.178725 207.77248 69.788558 195.7688 74.130859 185.28516 C 78.473175 174.80147 88.652119 168 100 168 z " />
</svg>
