<?xml version="1.0" encoding="UTF-8" standalone="no"?>
<svg
   viewBox="0 0 256 256"
   version="1.1"
   id="svg3"
   sodipodi:docname="file xls purple_blue.svg"
   xmlns:inkscape="http://www.inkscape.org/namespaces/inkscape"
   xmlns:sodipodi="http://sodipodi.sourceforge.net/DTD/sodipodi-0.dtd"
   xmlns:xlink="http://www.w3.org/1999/xlink"
   xmlns="http://www.w3.org/2000/svg"
   xmlns:svg="http://www.w3.org/2000/svg">
  <defs
     id="defs3">
    <linearGradient
       id="linearGradient1"
       inkscape:collect="always">
      <stop
         style="stop-color:#4b4fe2ff;stop-opacity:1;"
         offset="0"
         id="stop1" />
      <stop
         style="stop-color:#a03291;stop-opacity:1;"
         offset="0.76340693"
         id="stop2" />
    </linearGradient>
    <linearGradient
       inkscape:collect="always"
       xlink:href="#linearGradient1"
       id="linearGradient2"
       x1="232.4884"
       y1="23.847498"
       x2="23.977745"
       y2="232.35815"
       gradientUnits="userSpaceOnUse" />
  </defs>
  <defs
     id="defs1" />
  <sodipodi:namedview
     id="namedview3"
     pagecolor="#ffffff"
     bordercolor="#000000"
     borderopacity="0.25"
     inkscape:showpageshadow="2"
     inkscape:pageopacity="0.0"
     inkscape:pagecheckerboard="0"
     inkscape:deskcolor="#d1d1d1" />
  <path
     id="polyline1"
     style="baseline-shift:baseline;display:inline;overflow:visible;vector-effect:none;fill:url(#linearGradient2);stroke-linecap:round;stroke-linejoin:round;enable-background:accumulate;stop-color:#000000;stop-opacity:1;opacity:1;fill-opacity:1"
     d="M 56 24 C 47.258201 24 40 31.258201 40 40 L 40 112 A 8 8 0 0 0 48 120 A 8 8 0 0 0 56 112 L 56 40 L 144 40 L 144 88 A 8.0008 8.0008 0 0 0 152 96 L 200 96 L 200 112 A 8 8 0 0 0 208 120 A 8 8 0 0 0 216 112 L 216 88 A 8.0008 8.0008 0 0 0 215.92969 86.949219 A 8 8 0 0 0 215.83203 86.460938 A 8.0008 8.0008 0 0 0 215.7207 85.914062 A 8 8 0 0 0 215.54688 85.398438 A 8.0008 8.0008 0 0 0 215.38281 84.921875 A 8 8 0 0 0 215.14648 84.445312 A 8.0008 8.0008 0 0 0 214.9043 83.966797 A 8 8 0 0 0 214.60938 83.525391 A 8.0008 8.0008 0 0 0 214.32227 83.103516 A 8 8 0 0 0 213.9375 82.664062 A 8.0008 8.0008 0 0 0 213.65625 82.34375 L 157.65625 26.34375 A 8.0008 8.0008 0 0 0 157.33594 26.0625 A 8 8 0 0 0 156.89648 25.677734 A 8.0008 8.0008 0 0 0 156.47461 25.390625 A 8 8 0 0 0 156.0332 25.095703 A 8.0008 8.0008 0 0 0 155.55469 24.853516 A 8 8 0 0 0 155.07812 24.617188 A 8.0008 8.0008 0 0 0 154.60156 24.453125 A 8 8 0 0 0 154.08594 24.279297 A 8.0008 8.0008 0 0 0 153.53906 24.167969 A 8 8 0 0 0 152 24 L 56 24 z M 160 51.314453 L 188.68555 80 L 160 80 L 160 51.314453 z M 120 144 A 8 8 0 0 0 112 152 L 112 208 A 8.0008 8.0008 0 0 0 120 216 L 148 216 A 8 8 0 0 0 156 208 A 8 8 0 0 0 148 200 L 128 200 L 128 152 A 8 8 0 0 0 120 144 z M 48.273438 144.00586 A 8 8 0 0 0 43.349609 145.49023 A 8 8 0 0 0 41.490234 156.65039 L 58.167969 180 L 41.490234 203.34961 A 8 8 0 0 0 43.349609 214.50977 A 8 8 0 0 0 54.509766 212.65039 L 68 193.76367 L 81.490234 212.65039 A 8 8 0 0 0 92.650391 214.50977 A 8 8 0 0 0 94.509766 203.34961 L 77.832031 180 L 94.509766 156.65039 A 8 8 0 0 0 92.650391 145.49023 A 8 8 0 0 0 86.685547 144.10938 A 8 8 0 0 0 81.490234 147.34961 L 68 166.23633 L 54.509766 147.34961 A 8 8 0 0 0 49.314453 144.10938 A 8 8 0 0 0 48.273438 144.00586 z M 188.46875 144.06836 C 183.83276 144.31216 178.67667 145.17765 173.86133 148.1543 C 169.04599 151.13095 165.02071 156.79406 164.16211 163.59766 C 163.22218 171.04573 167.8067 178.08204 172.83203 181.21484 C 177.85736 184.34765 183.15333 185.60301 187.88086 186.96484 C 192.60838 188.32668 196.71887 189.79341 198.50195 191.03516 C 200.28503 192.2769 200.28541 191.65503 199.94531 194.29883 C 199.59349 197.02515 198.99573 197.48732 197.64062 198.33203 C 196.28508 199.17702 193.68087 199.8747 190.69141 200.01367 C 184.71248 200.29162 178.24609 198.61328 178.24609 198.61328 A 8 8 0 0 0 168.39258 204.17383 A 8 8 0 0 0 173.95508 214.02734 C 173.95508 214.02734 182.14197 216.42814 191.43555 215.99609 C 196.08233 215.78007 201.26876 214.92392 206.10352 211.91016 C 210.93827 208.89639 214.93123 203.19502 215.81445 196.34375 A 8.0008 8.0008 0 0 0 215.81445 196.33984 C 216.79935 188.68364 212.69403 181.42138 207.64648 177.90625 C 202.59894 174.39112 197.15357 172.98551 192.30859 171.58984 C 187.46362 170.19418 183.17022 168.80579 181.29492 167.63672 C 179.41963 166.46765 179.79204 167.54352 180.03711 165.60156 C 180.36351 163.01515 180.90604 162.61015 182.27539 161.76367 C 183.64474 160.9172 186.29083 160.20557 189.30859 160.04688 C 195.34412 159.72949 201.85547 161.33398 201.85547 161.33398 A 8 8 0 0 0 211.63477 155.64453 A 8 8 0 0 0 205.94531 145.86523 C 205.94531 145.86523 197.74073 143.58076 188.46875 144.06836 z " />
</svg>
