<?xml version="1.0" encoding="UTF-8" standalone="no"?>
<svg
   viewBox="0 0 256 256"
   version="1.1"
   id="svg6"
   sodipodi:docname="file html purple_blue.svg"
   xmlns:inkscape="http://www.inkscape.org/namespaces/inkscape"
   xmlns:sodipodi="http://sodipodi.sourceforge.net/DTD/sodipodi-0.dtd"
   xmlns:xlink="http://www.w3.org/1999/xlink"
   xmlns="http://www.w3.org/2000/svg"
   xmlns:svg="http://www.w3.org/2000/svg">
  <defs
     id="defs3">
    <linearGradient
       id="linearGradient1"
       inkscape:collect="always">
      <stop
         style="stop-color:#4b4fe2ff;stop-opacity:1;"
         offset="0"
         id="stop1" />
      <stop
         style="stop-color:#a03291;stop-opacity:1;"
         offset="0.76340693"
         id="stop2" />
    </linearGradient>
    <linearGradient
       inkscape:collect="always"
       xlink:href="#linearGradient1"
       id="linearGradient2"
       x1="232.4884"
       y1="23.847498"
       x2="23.977745"
       y2="232.35815"
       gradientUnits="userSpaceOnUse" />
  </defs>
  <defs
     id="defs6" />
  <sodipodi:namedview
     id="namedview6"
     pagecolor="#ffffff"
     bordercolor="#000000"
     borderopacity="0.25"
     inkscape:showpageshadow="2"
     inkscape:pageopacity="0.0"
     inkscape:pagecheckerboard="0"
     inkscape:deskcolor="#d1d1d1" />
  <path
     id="path1"
     style="baseline-shift:baseline;display:inline;overflow:visible;vector-effect:none;fill:url(#linearGradient2);stroke-linecap:round;stroke-linejoin:round;enable-background:accumulate;stop-color:#000000;stop-opacity:1;opacity:1;fill-opacity:1"
     d="M 56 24 C 47.258201 24 40 31.258201 40 40 L 40 120 A 8 8 0 0 0 48 128 A 8 8 0 0 0 56 120 L 56 40 L 144 40 L 144 88 A 8.0008 8.0008 0 0 0 152 96 L 200 96 L 200 120 A 8 8 0 0 0 208 128 A 8 8 0 0 0 216 120 L 216 88 A 8.0008 8.0008 0 0 0 215.92969 86.949219 A 8 8 0 0 0 215.83203 86.460938 A 8.0008 8.0008 0 0 0 215.7207 85.914062 A 8 8 0 0 0 215.54688 85.398438 A 8.0008 8.0008 0 0 0 215.38281 84.921875 A 8 8 0 0 0 215.14648 84.445312 A 8.0008 8.0008 0 0 0 214.9043 83.966797 A 8 8 0 0 0 214.60938 83.525391 A 8.0008 8.0008 0 0 0 214.32227 83.103516 A 8 8 0 0 0 213.9375 82.664062 A 8.0008 8.0008 0 0 0 213.65625 82.34375 L 157.65625 26.34375 A 8.0008 8.0008 0 0 0 157.33594 26.0625 A 8 8 0 0 0 156.89648 25.677734 A 8.0008 8.0008 0 0 0 156.47461 25.390625 A 8 8 0 0 0 156.0332 25.095703 A 8.0008 8.0008 0 0 0 155.55469 24.853516 A 8 8 0 0 0 155.07812 24.617188 A 8.0008 8.0008 0 0 0 154.60156 24.453125 A 8 8 0 0 0 154.08594 24.279297 A 8.0008 8.0008 0 0 0 153.53906 24.167969 A 8 8 0 0 0 152 24 L 56 24 z M 160 51.314453 L 188.68555 80 L 160 80 L 160 51.314453 z M 24 152 A 8 8 0 0 0 16 160 L 16 208 A 8 8 0 0 0 24 216 A 8 8 0 0 0 32 208 L 32 192 L 52 192 L 52 208 A 8 8 0 0 0 60 216 A 8 8 0 0 0 68 208 L 68 160 A 8 8 0 0 0 60 152 A 8 8 0 0 0 52 160 L 52 176 L 32 176 L 32 160 A 8 8 0 0 0 24 152 z M 84 152 A 8 8 0 0 0 76 160 A 8 8 0 0 0 84 168 L 92 168 L 92 208 A 8 8 0 0 0 100 216 A 8 8 0 0 0 108 208 L 108 168 L 116 168 A 8 8 0 0 0 124 160 A 8 8 0 0 0 116 152 L 84 152 z M 216 152 A 8 8 0 0 0 208 160 L 208 208 A 8.0008 8.0008 0 0 0 216 216 L 244 216 A 8 8 0 0 0 252 208 A 8 8 0 0 0 244 200 L 224 200 L 224 160 A 8 8 0 0 0 216 152 z M 188.35352 152.00781 A 8.0008 8.0008 0 0 0 181.59961 155.19922 L 164 178.66602 L 146.40039 155.19922 A 8.0008 8.0008 0 0 0 140.75586 152.03711 A 8.0008 8.0008 0 0 0 132 160 L 132 208 A 8 8 0 0 0 140 216 A 8 8 0 0 0 148 208 L 148 184.00195 L 157.59961 196.80078 A 8.0008 8.0008 0 0 0 170.40039 196.80078 L 180 184.00195 L 180 208 A 8 8 0 0 0 188 216 A 8 8 0 0 0 196 208 L 196 160 A 8.0008 8.0008 0 0 0 188.35352 152.00781 z " />
</svg>
