<?xml version="1.0" encoding="UTF-8" standalone="no"?>
<svg
   viewBox="0 0 256 256"
   version="1.1"
   id="svg3"
   sodipodi:docname="file js purple_blue.svg"
   xmlns:inkscape="http://www.inkscape.org/namespaces/inkscape"
   xmlns:sodipodi="http://sodipodi.sourceforge.net/DTD/sodipodi-0.dtd"
   xmlns:xlink="http://www.w3.org/1999/xlink"
   xmlns="http://www.w3.org/2000/svg"
   xmlns:svg="http://www.w3.org/2000/svg">
  <defs
     id="defs3">
    <linearGradient
       id="linearGradient1"
       inkscape:collect="always">
      <stop
         style="stop-color:#4b4fe2ff;stop-opacity:1;"
         offset="0"
         id="stop1" />
      <stop
         style="stop-color:#a03291;stop-opacity:1;"
         offset="0.76340693"
         id="stop2" />
    </linearGradient>
    <linearGradient
       inkscape:collect="always"
       xlink:href="#linearGradient1"
       id="linearGradient2"
       x1="232.4884"
       y1="23.847498"
       x2="23.977745"
       y2="232.35815"
       gradientUnits="userSpaceOnUse" />
  </defs>
  <defs
     id="defs1" />
  <sodipodi:namedview
     id="namedview3"
     pagecolor="#ffffff"
     bordercolor="#000000"
     borderopacity="0.25"
     inkscape:showpageshadow="2"
     inkscape:pageopacity="0.0"
     inkscape:pagecheckerboard="0"
     inkscape:deskcolor="#d1d1d1" />
  <path
     id="path1"
     style="baseline-shift:baseline;display:inline;overflow:visible;vector-effect:none;fill:url(#linearGradient2);stroke-linecap:round;stroke-linejoin:round;enable-background:accumulate;stop-color:#000000;stop-opacity:1;opacity:1;fill-opacity:1"
     d="M 56 24 C 47.258201 24 40 31.258201 40 40 L 40 112 A 8 8 0 0 0 48 120 A 8 8 0 0 0 56 112 L 56 40 L 144 40 L 144 88 A 8.0008 8.0008 0 0 0 152 96 L 200 96 L 200 216 L 176 216 A 8 8 0 0 0 168 224 A 8 8 0 0 0 176 232 L 200 232 C 208.7418 232 216 224.7418 216 216 L 216 88 A 8.0008 8.0008 0 0 0 215.92969 86.949219 A 8 8 0 0 0 215.83203 86.460938 A 8.0008 8.0008 0 0 0 215.7207 85.914062 A 8 8 0 0 0 215.54688 85.398438 A 8.0008 8.0008 0 0 0 215.38281 84.921875 A 8 8 0 0 0 215.14648 84.445312 A 8.0008 8.0008 0 0 0 214.9043 83.966797 A 8 8 0 0 0 214.60938 83.525391 A 8.0008 8.0008 0 0 0 214.32227 83.103516 A 8 8 0 0 0 213.9375 82.664062 A 8.0008 8.0008 0 0 0 213.65625 82.34375 L 157.65625 26.34375 A 8.0008 8.0008 0 0 0 157.33594 26.0625 A 8 8 0 0 0 156.89648 25.677734 A 8.0008 8.0008 0 0 0 156.47461 25.390625 A 8 8 0 0 0 156.0332 25.095703 A 8.0008 8.0008 0 0 0 155.55469 24.853516 A 8 8 0 0 0 155.07812 24.617188 A 8.0008 8.0008 0 0 0 154.60156 24.453125 A 8 8 0 0 0 154.08594 24.279297 A 8.0008 8.0008 0 0 0 153.53906 24.167969 A 8 8 0 0 0 152 24 L 56 24 z M 160 51.314453 L 188.68555 80 L 160 80 L 160 51.314453 z M 72 144 A 8 8 0 0 0 64 152 L 64 190 C 64 195.61761 59.617612 200 54 200 C 48.382388 200 44 195.61761 44 190 A 8 8 0 0 0 36 182 A 8 8 0 0 0 28 190 C 28 204.26465 39.735362 216 54 216 C 68.264638 216 80 204.26465 80 190 L 80 152 A 8 8 0 0 0 72 144 z M 120.46875 144.06836 C 115.83276 144.31216 110.67667 145.17765 105.86133 148.1543 C 101.04599 151.13095 97.02071 156.79406 96.162109 163.59766 C 95.222176 171.04573 99.806704 178.08204 104.83203 181.21484 C 109.85736 184.34765 115.15333 185.60301 119.88086 186.96484 C 124.60838 188.32668 128.71887 189.79341 130.50195 191.03516 C 132.28503 192.2769 132.28541 191.65503 131.94531 194.29883 C 131.59349 197.02515 130.99573 197.48732 129.64062 198.33203 C 128.28508 199.17702 125.68087 199.8747 122.69141 200.01367 C 116.71248 200.29162 110.24609 198.61328 110.24609 198.61328 A 8 8 0 0 0 100.39258 204.17383 A 8 8 0 0 0 105.95508 214.02734 C 105.95508 214.02734 114.14197 216.42814 123.43555 215.99609 C 128.08233 215.78007 133.26876 214.92392 138.10352 211.91016 C 142.93827 208.89639 146.93123 203.19502 147.81445 196.34375 A 8.0008 8.0008 0 0 0 147.81445 196.33984 C 148.79935 188.68364 144.69403 181.42138 139.64648 177.90625 C 134.59894 174.39112 129.15357 172.98551 124.30859 171.58984 C 119.46362 170.19418 115.17022 168.80579 113.29492 167.63672 C 111.41963 166.46765 111.79204 167.54352 112.03711 165.60156 C 112.36351 163.01515 112.90604 162.61015 114.27539 161.76367 C 115.64474 160.9172 118.29083 160.20557 121.30859 160.04688 C 127.34412 159.72949 133.85547 161.33398 133.85547 161.33398 A 8 8 0 0 0 143.63477 155.64453 A 8 8 0 0 0 137.94531 145.86523 C 137.94531 145.86523 129.74073 143.58076 120.46875 144.06836 z " />
</svg>
