<?xml version="1.0" encoding="UTF-8" standalone="no"?>
<svg
   viewBox="0 0 256 256"
   version="1.1"
   id="svg7"
   sodipodi:docname="fingerprint purple_blue.svg"
   xmlns:inkscape="http://www.inkscape.org/namespaces/inkscape"
   xmlns:sodipodi="http://sodipodi.sourceforge.net/DTD/sodipodi-0.dtd"
   xmlns:xlink="http://www.w3.org/1999/xlink"
   xmlns="http://www.w3.org/2000/svg"
   xmlns:svg="http://www.w3.org/2000/svg">
  <defs
     id="defs3">
    <linearGradient
       id="linearGradient1"
       inkscape:collect="always">
      <stop
         style="stop-color:#4b4fe2ff;stop-opacity:1;"
         offset="0"
         id="stop1" />
      <stop
         style="stop-color:#a03291;stop-opacity:1;"
         offset="0.76340693"
         id="stop2" />
    </linearGradient>
    <linearGradient
       inkscape:collect="always"
       xlink:href="#linearGradient1"
       id="linearGradient2"
       x1="232.4884"
       y1="23.847498"
       x2="23.977745"
       y2="232.35815"
       gradientUnits="userSpaceOnUse" />
  </defs>
  <defs
     id="defs7" />
  <sodipodi:namedview
     id="namedview7"
     pagecolor="#ffffff"
     bordercolor="#000000"
     borderopacity="0.25"
     inkscape:showpageshadow="2"
     inkscape:pageopacity="0.0"
     inkscape:pagecheckerboard="0"
     inkscape:deskcolor="#d1d1d1" />
  <path
     id="path1"
     style="baseline-shift:baseline;display:inline;overflow:visible;vector-effect:none;fill:url(#linearGradient2);stroke-linecap:round;stroke-linejoin:round;enable-background:accumulate;stop-color:#000000;stop-opacity:1;opacity:1;fill-opacity:1"
     d="M 128 24 C 70.657152 24 24 70.65711 24 128 A 8.0008 8.0008 0 0 0 24 128.00781 C 24.0096 137.9978 22.313713 147.91636 18.986328 157.33594 A 8 8 0 0 0 23.865234 167.54297 A 8 8 0 0 0 34.072266 162.66406 C 38.005973 151.52785 40.011306 139.80257 40 127.99219 C 40.004247 79.299975 79.30681 40 128 40 C 176.69582 40 216 79.304146 216 128 A 8.0008 8.0008 0 0 0 216 128.00391 C 216.009 146.28336 214.23824 164.52112 210.71094 182.45703 A 8 8 0 0 0 217.01562 191.84961 A 8 8 0 0 0 226.41016 185.54297 C 230.13785 166.58799 232.00963 147.316 232 127.99805 C 231.99893 70.656054 185.34219 24 128 24 z M 127.99609 56.009766 C 124.99783 56.010966 122.00335 56.193918 119.02734 56.558594 A 8 8 0 0 0 112.05859 65.472656 A 8 8 0 0 0 120.97266 72.441406 C 123.30391 72.155738 125.65131 72.010902 128 72.009766 C 159.0227 72.009766 184 96.987055 184 128.00977 C 183.993 138.37614 183.34618 148.73294 182.0625 159.01953 A 8 8 0 0 0 189.00977 167.94922 A 8 8 0 0 0 197.9375 161 C 199.30299 150.05787 199.99242 139.04263 200 128.01562 A 8.0008 8.0008 0 0 0 200 128.00977 C 200 88.340163 167.66974 56.009766 128 56.009766 A 8.0008 8.0008 0 0 0 127.99609 56.009766 z M 87.84375 70.001953 A 8 8 0 0 0 83.007812 71.75 C 65.909404 85.408005 55.961597 106.13 56 128.01367 C 56.02834 146.52232 51.758311 164.78452 43.525391 181.36133 A 8 8 0 0 0 47.130859 192.08594 A 8 8 0 0 0 57.855469 188.47852 C 67.190641 169.68235 72.032476 148.97495 72 127.98828 A 8.0008 8.0008 0 0 0 72 127.98633 C 71.97013 110.96523 79.693026 94.873212 92.992188 84.25 A 8 8 0 0 0 94.25 73.007812 A 8 8 0 0 0 88.888672 70.048828 A 8 8 0 0 0 87.84375 70.001953 z M 128 88 C 106.00338 88 88 106.00336 88 128 A 8 8 0 0 0 96 136 A 8 8 0 0 0 104 128 C 104 114.65039 114.6504 104 128 104 C 141.3496 104 152 114.65039 152 128 A 8.0008 8.0008 0 0 0 152 128.01172 C 152.0448 159.81453 145.03711 191.23037 131.48242 220 A 8 8 0 0 0 135.31055 230.64648 A 8 8 0 0 0 145.95703 226.82031 C 160.51833 195.91418 168.04664 162.16256 168 127.99805 C 167.99892 106.00231 149.99596 88 128 88 z M 127.98828 120 A 8 8 0 0 0 120 128.01172 C 120.0454 159.18763 112.12971 189.85837 97.003906 217.11914 A 8 8 0 0 0 100.11914 227.99609 A 8 8 0 0 0 110.99609 224.88086 C 127.44322 195.2387 136.04933 161.88759 136 127.98828 A 8 8 0 0 0 127.98828 120 z M 92.318359 152.01562 A 8 8 0 0 0 84.970703 158.4082 C 81.725804 174.38205 75.913467 189.72453 67.761719 203.83984 A 8 8 0 0 0 70.689453 214.76758 A 8 8 0 0 0 81.617188 211.8418 C 90.633116 196.23009 97.061497 179.25906 100.65039 161.5918 A 8 8 0 0 0 94.402344 152.16016 A 8 8 0 0 0 92.318359 152.01562 z M 183.85742 184 A 8 8 0 0 0 176.19141 190.00977 C 174.71952 195.74237 173.04838 201.3889 171.17773 206.94922 A 8 8 0 0 0 176.20898 217.08203 A 8 8 0 0 0 186.3418 212.05078 C 188.33782 206.11777 190.12134 200.09763 191.68945 193.99023 A 8 8 0 0 0 185.92969 184.25195 A 8 8 0 0 0 183.85742 184 z " />
</svg>
