<?xml version="1.0" encoding="UTF-8" standalone="no"?>
<svg
   viewBox="0 0 256 256"
   version="1.1"
   id="svg12"
   sodipodi:docname="gear fine purple_blue.svg"
   xmlns:inkscape="http://www.inkscape.org/namespaces/inkscape"
   xmlns:sodipodi="http://sodipodi.sourceforge.net/DTD/sodipodi-0.dtd"
   xmlns:xlink="http://www.w3.org/1999/xlink"
   xmlns="http://www.w3.org/2000/svg"
   xmlns:svg="http://www.w3.org/2000/svg">
  <defs
     id="defs3">
    <linearGradient
       id="linearGradient1"
       inkscape:collect="always">
      <stop
         style="stop-color:#4b4fe2ff;stop-opacity:1;"
         offset="0"
         id="stop1" />
      <stop
         style="stop-color:#a03291;stop-opacity:1;"
         offset="0.76340693"
         id="stop2" />
    </linearGradient>
    <linearGradient
       inkscape:collect="always"
       xlink:href="#linearGradient1"
       id="linearGradient2"
       x1="232.4884"
       y1="23.847498"
       x2="23.977745"
       y2="232.35815"
       gradientUnits="userSpaceOnUse" />
  </defs>
  <defs
     id="defs12" />
  <sodipodi:namedview
     id="namedview12"
     pagecolor="#ffffff"
     bordercolor="#000000"
     borderopacity="0.25"
     inkscape:showpageshadow="2"
     inkscape:pageopacity="0.0"
     inkscape:pagecheckerboard="0"
     inkscape:deskcolor="#d1d1d1" />
  <path
     id="circle1"
     style="baseline-shift:baseline;display:inline;overflow:visible;vector-effect:none;fill:url(#linearGradient2);stroke-linecap:round;stroke-linejoin:round;enable-background:accumulate;stop-color:#000000;stop-opacity:1;opacity:1;fill-opacity:1"
     d="M 128 16 A 8 8 0 0 0 120 24 L 120 40.361328 C 109.77177 41.288228 100.04268 43.973825 91.117188 48.113281 L 82.927734 33.929688 A 8 8 0 0 0 78.070312 30.203125 A 8 8 0 0 0 72 31.001953 A 8 8 0 0 0 69.072266 41.929688 L 77.275391 56.136719 C 69.090954 61.932249 61.934314 69.089085 56.138672 77.273438 L 41.929688 69.072266 A 8 8 0 0 0 35.859375 68.273438 A 8 8 0 0 0 31.001953 72 A 8 8 0 0 0 33.931641 82.927734 L 48.115234 91.115234 C 43.97525 100.04128 41.288298 109.771 40.361328 120 L 24 120 A 8 8 0 0 0 16 128 A 8 8 0 0 0 24 136 L 40.361328 136 C 41.288298 146.229 43.975249 155.95872 48.115234 164.88477 L 33.931641 173.07227 A 8 8 0 0 0 31.001953 184 A 8 8 0 0 0 41.929688 186.92773 L 56.138672 178.72656 C 61.934314 186.91091 69.090954 194.06775 77.275391 199.86328 L 69.072266 214.07031 A 8 8 0 0 0 72 224.99805 A 8 8 0 0 0 82.927734 222.07031 L 91.117188 207.88672 C 100.04268 212.02618 109.77177 214.71177 120 215.63867 L 120 232 A 8 8 0 0 0 128 240 A 8 8 0 0 0 136 232 L 136 215.63867 C 146.229 214.7117 155.95872 212.02475 164.88477 207.88477 L 173.07227 222.06836 A 8 8 0 0 0 184 224.99805 A 8 8 0 0 0 186.92773 214.07031 L 178.72656 199.86133 C 186.91058 194.06592 194.06592 186.91058 199.86133 178.72656 L 214.07031 186.92773 A 8 8 0 0 0 224.99805 184 A 8 8 0 0 0 222.06836 173.07227 L 207.88477 164.88477 C 212.02475 155.95872 214.7117 146.229 215.63867 136 L 232 136 A 8 8 0 0 0 240 128 A 8 8 0 0 0 232 120 L 215.63867 120 C 214.7117 109.771 212.02475 100.04128 207.88477 91.115234 L 222.06836 82.927734 A 8 8 0 0 0 224.99805 72 A 8 8 0 0 0 220.14062 68.273438 A 8 8 0 0 0 214.07031 69.072266 L 199.86133 77.273438 C 194.06592 69.089422 186.91058 61.934075 178.72656 56.138672 L 186.92773 41.929688 A 8 8 0 0 0 184 31.001953 A 8 8 0 0 0 177.92773 30.203125 A 8 8 0 0 0 173.07227 33.931641 L 164.88477 48.115234 C 155.95872 43.975249 146.229 41.288298 136 40.361328 L 136 24 A 8 8 0 0 0 128 16 z M 128 56 C 140.82742 56 152.85486 59.328439 163.26953 65.171875 A 8 8 0 0 0 164 65.648438 A 8 8 0 0 0 164.7793 66.042969 C 175.13769 72.19019 183.80981 80.862307 189.95703 91.220703 A 8 8 0 0 0 190.35156 92 A 8 8 0 0 0 190.82812 92.730469 C 195.43942 100.94913 198.48524 110.17193 199.56445 120 L 132.61914 120 L 99.128906 61.990234 C 107.96077 58.135901 117.72348 56 128 56 z M 85.269531 69.986328 L 118.76367 128 L 85.269531 186.01367 C 77.525059 180.30835 70.972527 173.08587 66.042969 164.7793 A 8 8 0 0 0 65.648438 164 A 8 8 0 0 0 65.171875 163.26953 C 59.328323 152.85478 56 140.82755 56 128 C 56 115.17258 59.32844 103.14514 65.171875 92.730469 A 8 8 0 0 0 65.648438 92 A 8 8 0 0 0 66.042969 91.220703 C 70.972528 82.914132 77.525059 75.691651 85.269531 69.986328 z M 132.61914 136 L 199.56445 136 C 198.48523 145.8282 195.43954 155.05079 190.82812 163.26953 A 8 8 0 0 0 190.35156 164 A 8 8 0 0 0 189.95703 164.7793 C 183.81001 175.13736 175.13725 183.80985 164.7793 189.95703 A 8 8 0 0 0 164 190.35156 A 8 8 0 0 0 163.26953 190.82812 C 152.85486 196.67155 140.82741 200 128 200 C 117.72348 200 107.96077 197.8641 99.128906 194.00977 L 132.61914 136 z " />
</svg>
