<?xml version="1.0" encoding="UTF-8" standalone="no"?>
<svg
   viewBox="0 0 256 256"
   version="1.1"
   id="svg1"
   sodipodi:docname="gender male purple_blue.svg"
   xmlns:inkscape="http://www.inkscape.org/namespaces/inkscape"
   xmlns:sodipodi="http://sodipodi.sourceforge.net/DTD/sodipodi-0.dtd"
   xmlns:xlink="http://www.w3.org/1999/xlink"
   xmlns="http://www.w3.org/2000/svg"
   xmlns:svg="http://www.w3.org/2000/svg">
  <defs
     id="defs3">
    <linearGradient
       id="linearGradient1"
       inkscape:collect="always">
      <stop
         style="stop-color:#4b4fe2ff;stop-opacity:1;"
         offset="0"
         id="stop1" />
      <stop
         style="stop-color:#a03291;stop-opacity:1;"
         offset="0.76340693"
         id="stop2" />
    </linearGradient>
    <linearGradient
       inkscape:collect="always"
       xlink:href="#linearGradient1"
       id="linearGradient2"
       x1="232.4884"
       y1="23.847498"
       x2="23.977745"
       y2="232.35815"
       gradientUnits="userSpaceOnUse" />
  </defs>
  <defs
     id="defs1" />
  <sodipodi:namedview
     id="namedview1"
     pagecolor="#ffffff"
     bordercolor="#000000"
     borderopacity="0.25"
     inkscape:showpageshadow="2"
     inkscape:pageopacity="0.0"
     inkscape:pagecheckerboard="0"
     inkscape:deskcolor="#d1d1d1" />
  <path
     id="circle1"
     style="baseline-shift:baseline;display:inline;overflow:visible;vector-effect:none;fill:url(#linearGradient2);stroke-linecap:round;stroke-linejoin:round;enable-background:accumulate;stop-color:#000000;stop-opacity:1;opacity:1;fill-opacity:1"
     d="M 168 32 A 8 8 0 0 0 160 40 A 8 8 0 0 0 168 48 L 196.6875 48 L 154.5957 90.091797 C 140.79681 78.791035 123.17159 72 104 72 C 59.911977 72 24 107.91198 24 152 C 24 196.08802 59.911977 232 104 232 C 148.08802 232 184 196.08802 184 152 C 184 132.82841 177.20896 115.20319 165.9082 101.4043 L 208 59.3125 L 208 88 A 8 8 0 0 0 216 96 A 8 8 0 0 0 224 88 L 224 40 A 8.0008 8.0008 0 0 0 223.72656 37.929688 A 8 8 0 0 0 221.65625 34.34375 A 8.0008 8.0008 0 0 0 216 32 L 168 32 z M 104 88 C 121.41199 88 137.16243 94.893283 148.68164 106.10938 A 8 8 0 0 0 149.25391 106.74609 A 8 8 0 0 0 149.89062 107.31836 C 161.10671 118.83757 168 134.58801 168 152 C 168 187.44098 139.44098 216 104 216 C 68.559019 216 40 187.44098 40 152 C 40 116.55902 68.559019 88 104 88 z " />
</svg>
