<?xml version="1.0" encoding="UTF-8" standalone="no"?>
<svg
   viewBox="0 0 256 256"
   version="1.1"
   id="svg2"
   sodipodi:docname="gif purple_blue.svg"
   xmlns:inkscape="http://www.inkscape.org/namespaces/inkscape"
   xmlns:sodipodi="http://sodipodi.sourceforge.net/DTD/sodipodi-0.dtd"
   xmlns:xlink="http://www.w3.org/1999/xlink"
   xmlns="http://www.w3.org/2000/svg"
   xmlns:svg="http://www.w3.org/2000/svg">
  <defs
     id="defs3">
    <linearGradient
       id="linearGradient1"
       inkscape:collect="always">
      <stop
         style="stop-color:#4b4fe2ff;stop-opacity:1;"
         offset="0"
         id="stop1" />
      <stop
         style="stop-color:#a03291;stop-opacity:1;"
         offset="0.76340693"
         id="stop2" />
    </linearGradient>
    <linearGradient
       inkscape:collect="always"
       xlink:href="#linearGradient1"
       id="linearGradient2"
       x1="232.4884"
       y1="23.847498"
       x2="23.977745"
       y2="232.35815"
       gradientUnits="userSpaceOnUse" />
  </defs>
  <defs
     id="defs2" />
  <sodipodi:namedview
     id="namedview2"
     pagecolor="#ffffff"
     bordercolor="#000000"
     borderopacity="0.25"
     inkscape:showpageshadow="2"
     inkscape:pageopacity="0.0"
     inkscape:pagecheckerboard="0"
     inkscape:deskcolor="#d1d1d1" />
  <path
     id="line1"
     style="baseline-shift:baseline;display:inline;overflow:visible;vector-effect:none;fill:url(#linearGradient2);stroke-linecap:round;stroke-linejoin:round;enable-background:accumulate;stop-color:#000000;stop-opacity:1;opacity:1;fill-opacity:1"
     d="M 64 64 C 42.003367 64 24 82.003367 24 104 L 24 152 C 24 173.99664 42.003375 192 64 192 C 85.996625 192 104 173.99664 104 152 L 104 128 A 8.0008 8.0008 0 0 0 96 120 L 72 120 A 8 8 0 0 0 64 128 A 8 8 0 0 0 72 136 L 88 136 L 88 152 C 88 165.34961 77.349598 176 64 176 C 50.650402 176 40 165.34961 40 152 L 40 104 C 40 90.650409 50.650409 80 64 80 C 75.261442 80 85.687762 88.024345 88.251953 97.992188 A 8 8 0 0 0 97.992188 103.74805 A 8 8 0 0 0 103.74805 94.007812 C 99.212232 76.375654 82.558558 64 64 64 z M 136 64 A 8 8 0 0 0 128 72 L 128 184 A 8 8 0 0 0 136 192 A 8 8 0 0 0 144 184 L 144 72 A 8 8 0 0 0 136 64 z M 176 64 A 8.0008 8.0008 0 0 0 168 72 L 168 184 A 8 8 0 0 0 176 192 A 8 8 0 0 0 184 184 L 184 136 L 224 136 A 8 8 0 0 0 232 128 A 8 8 0 0 0 224 120 L 184 120 L 184 80 L 232 80 A 8 8 0 0 0 240 72 A 8 8 0 0 0 232 64 L 176 64 z " />
</svg>
