<?xml version="1.0" encoding="UTF-8" standalone="no"?>
<svg
   viewBox="0 0 256 256"
   version="1.1"
   id="svg5"
   sodipodi:docname="globe x purple_blue.svg"
   xmlns:inkscape="http://www.inkscape.org/namespaces/inkscape"
   xmlns:sodipodi="http://sodipodi.sourceforge.net/DTD/sodipodi-0.dtd"
   xmlns:xlink="http://www.w3.org/1999/xlink"
   xmlns="http://www.w3.org/2000/svg"
   xmlns:svg="http://www.w3.org/2000/svg">
  <defs
     id="defs3">
    <linearGradient
       id="linearGradient1"
       inkscape:collect="always">
      <stop
         style="stop-color:#4b4fe2ff;stop-opacity:1;"
         offset="0"
         id="stop1" />
      <stop
         style="stop-color:#a03291;stop-opacity:1;"
         offset="0.76340693"
         id="stop2" />
    </linearGradient>
    <linearGradient
       inkscape:collect="always"
       xlink:href="#linearGradient1"
       id="linearGradient2"
       x1="232.4884"
       y1="23.847498"
       x2="23.977745"
       y2="232.35815"
       gradientUnits="userSpaceOnUse" />
  </defs>
  <defs
     id="defs5" />
  <sodipodi:namedview
     id="namedview5"
     pagecolor="#ffffff"
     bordercolor="#000000"
     borderopacity="0.25"
     inkscape:showpageshadow="2"
     inkscape:pageopacity="0.0"
     inkscape:pagecheckerboard="0"
     inkscape:deskcolor="#d1d1d1" />
  <path
     id="path1"
     style="baseline-shift:baseline;display:inline;overflow:visible;vector-effect:none;fill:url(#linearGradient2);stroke-linecap:round;stroke-linejoin:round;enable-background:accumulate;stop-color:#000000;stop-opacity:1;opacity:1;fill-opacity:1"
     d="M 128 24 A 8.0008 8.0008 0 0 0 127.64648 24.007812 C 100.71119 24.111945 74.254895 34.674792 54.464844 54.464844 C 43.464668 65.465019 35.315501 78.523565 30.228516 92.580078 A 8 8 0 0 0 29.685547 94.119141 C 22.232817 115.76706 21.98776 139.66587 29.712891 161.99219 A 8 8 0 0 0 30.183594 163.32031 C 30.725635 164.82082 31.303147 166.31446 31.917969 167.79883 C 47.86553 206.30114 85.314723 231.48119 126.91797 231.91797 A 8 8 0 0 0 127.92383 231.99414 C 127.94959 231.99416 127.97424 232 128 232 A 8 8 0 0 0 128.44922 231.9707 A 8 8 0 0 0 128.96094 231.9375 A 8 8 0 0 0 129.47852 231.8457 A 8 8 0 0 0 129.99219 231.74219 A 8 8 0 0 0 130.48242 231.58789 A 8 8 0 0 0 130.98438 231.41602 A 8 8 0 0 0 131.45898 231.19336 A 8 8 0 0 0 131.92383 230.96484 A 8 8 0 0 0 132.39453 230.66406 A 8 8 0 0 0 132.79688 230.39648 A 8 8 0 0 0 133.18555 230.07031 A 8 8 0 0 0 133.60547 229.70117 A 8 8 0 0 0 133.92578 229.34961 A 8 8 0 0 0 134.24609 228.99805 A 8 8 0 0 0 134.29102 228.93359 A 8 8 0 0 0 134.58594 228.51172 A 8 8 0 0 0 134.88672 228.0625 A 8 8 0 0 0 135.11914 227.61133 A 8 8 0 0 0 135.35352 227.13672 A 8 8 0 0 0 135.53125 226.64844 A 8 8 0 0 0 135.70117 226.14258 A 8 8 0 0 0 135.8125 225.63672 A 8 8 0 0 0 135.91406 225.12891 A 8 8 0 0 0 135.96289 224.58008 A 8 8 0 0 0 135.99414 224.08398 A 8 8 0 0 0 136 224 A 8 8 0 0 0 135.96875 223.52539 A 8 8 0 0 0 135.93945 223.04688 A 8 8 0 0 0 135.83398 222.45703 A 8 8 0 0 0 135.75 222.03125 A 8 8 0 0 0 135.56641 221.45117 A 8 8 0 0 0 135.42773 221.03711 A 8 8 0 0 0 135.17969 220.51172 A 8 8 0 0 0 134.97852 220.0957 A 8 8 0 0 0 134.66406 219.60352 A 8 8 0 0 0 134.41211 219.22266 A 8 8 0 0 0 134.05469 218.79492 A 8 8 0 0 0 133.73828 218.42773 A 8 8 0 0 0 133.28125 218.01172 A 8 8 0 0 0 132.99805 217.75391 C 132.99805 217.75391 112.34273 201.51578 101.89844 168 L 128 168 A 8 8 0 0 0 136 160 A 8 8 0 0 0 128 152 L 98.037109 152 C 96.750613 144.6354 96 136.63779 96 128 C 96 119.34005 96.735872 111.34507 97.998047 104 L 158.00195 104 C 159.26413 111.34507 160 119.34005 160 128 A 8 8 0 0 0 168 136 A 8 8 0 0 0 176 128 C 176 119.47912 175.31042 111.47744 174.10742 104 L 212.67383 104 C 214.8503 111.68558 216 119.74724 216 128 A 8 8 0 0 0 224 136 A 8 8 0 0 0 232 128 C 232 116.22282 230.01023 104.76626 226.29102 94.021484 A 8 8 0 0 0 225.80859 92.662109 C 216.04006 65.659765 195.29831 43.308184 167.79883 31.917969 C 155.66122 26.890603 142.94642 24.304173 130.29102 24.03125 C 129.64231 24.01726 128.994 24.009662 128.3457 24.007812 A 8.0008 8.0008 0 0 0 128 24 z M 107.88867 42.322266 C 100.07811 52.733894 91.030116 68.004541 85.410156 88 L 49.609375 88 C 53.729306 79.929305 59.139951 72.414736 65.777344 65.777344 C 77.627376 53.927312 92.273722 45.988093 107.88867 42.322266 z M 148.11328 42.324219 C 152.69541 43.402008 157.2316 44.85764 161.67773 46.699219 C 181.44838 54.888173 197.07192 69.730289 206.39453 88 L 170.58984 88 C 164.97037 68.006258 155.92339 52.735787 148.11328 42.324219 z M 128 42.996094 C 134.64224 49.719591 146.92588 64.463895 154.18945 88 L 101.81055 88 C 109.07412 64.463895 121.35776 49.719591 128 42.996094 z M 43.328125 104 L 81.892578 104 C 80.689578 111.47744 80 119.47912 80 128 C 80 136.52088 80.689578 144.52256 81.892578 152 L 43.332031 152 C 38.817409 136.10077 38.93845 119.48633 43.328125 104 z M 168 160 A 8 8 0 0 0 162.34375 162.34375 A 8 8 0 0 0 162.34375 173.65625 L 180.6875 192 L 162.34375 210.34375 A 8 8 0 0 0 162.34375 221.65625 A 8 8 0 0 0 173.65625 221.65625 L 192 203.3125 L 210.34375 221.65625 A 8 8 0 0 0 221.65625 221.65625 A 8 8 0 0 0 221.65625 210.34375 L 203.3125 192 L 221.65625 173.65625 A 8 8 0 0 0 221.65625 162.34375 A 8 8 0 0 0 216 160 A 8 8 0 0 0 210.34375 162.34375 L 192 180.6875 L 173.65625 162.34375 A 8 8 0 0 0 168 160 z M 49.613281 168 L 85.410156 168 C 91.030324 187.9962 100.07791 203.26803 107.88867 213.67969 C 82.909106 207.82552 61.463357 191.24891 49.613281 168 z " />
</svg>
