<?xml version="1.0" encoding="UTF-8" standalone="no"?>
<svg
   viewBox="0 0 256 256"
   version="1.1"
   id="svg3"
   sodipodi:docname="globe hemisphere west purple_blue.svg"
   xmlns:inkscape="http://www.inkscape.org/namespaces/inkscape"
   xmlns:sodipodi="http://sodipodi.sourceforge.net/DTD/sodipodi-0.dtd"
   xmlns:xlink="http://www.w3.org/1999/xlink"
   xmlns="http://www.w3.org/2000/svg"
   xmlns:svg="http://www.w3.org/2000/svg">
  <defs
     id="defs3">
    <linearGradient
       id="linearGradient1"
       inkscape:collect="always">
      <stop
         style="stop-color:#4b4fe2ff;stop-opacity:1;"
         offset="0"
         id="stop1" />
      <stop
         style="stop-color:#a03291;stop-opacity:1;"
         offset="0.76340693"
         id="stop2" />
    </linearGradient>
    <linearGradient
       inkscape:collect="always"
       xlink:href="#linearGradient1"
       id="linearGradient2"
       x1="232.4884"
       y1="23.847498"
       x2="23.977745"
       y2="232.35815"
       gradientUnits="userSpaceOnUse" />
  </defs>
  <defs
     id="defs1" />
  <sodipodi:namedview
     id="namedview3"
     pagecolor="#ffffff"
     bordercolor="#000000"
     borderopacity="0.25"
     inkscape:showpageshadow="2"
     inkscape:pageopacity="0.0"
     inkscape:pagecheckerboard="0"
     inkscape:deskcolor="#d1d1d1" />
  <path
     id="circle1"
     style="baseline-shift:baseline;display:inline;overflow:visible;vector-effect:none;fill:url(#linearGradient2);stroke-linecap:round;stroke-linejoin:round;enable-background:accumulate;stop-color:#000000;stop-opacity:1;opacity:1;fill-opacity:1"
     d="M 128 24 C 103.66225 24 81.24951 32.403746 63.511719 46.462891 A 8 8 0 0 0 62.066406 47.628906 C 38.839126 66.718649 24 95.660347 24 128 C 24 185.34286 70.657143 232 128 232 C 129.61533 232 131.22275 231.96388 132.82031 231.89062 C 132.99769 231.88249 133.17442 231.87231 133.35156 231.86328 C 170.80413 229.9554 203.09187 208.13936 219.81445 176.81445 A 8 8 0 0 0 219.9043 176.67188 A 8 8 0 0 0 220.47656 175.55469 C 227.84 161.29453 232 145.12389 232 128 C 232 70.657143 185.34286 24 128 24 z M 128 40 C 133.22572 40 138.34591 40.452009 143.31836 41.320312 L 152.01367 56.898438 A 8.0008 8.0008 0 0 0 152.02734 56.919922 A 8.0008 8.0008 0 0 0 152.02734 56.921875 L 125.125 81.234375 A 8.0008 8.0008 0 0 0 125.10742 81.25 L 112.85352 87.990234 A 8.0008 8.0008 0 0 0 112.83594 88 L 96.152344 88 C 90.440582 87.9916 85.127362 91.05346 82.271484 96 A 8.0008 8.0008 0 0 0 82.257812 96.025391 L 73.525391 111.27344 L 63.371094 84.191406 L 63.367188 84.197266 L 74.382812 58.154297 C 89.215546 46.762752 107.79987 40 128 40 z M 165.57617 48.367188 C 195.41201 62.43175 216 92.756527 216 128 C 216 139.66544 213.74446 150.79246 209.64453 160.96875 L 164.90234 133.44531 A 8.0008 8.0008 0 0 0 164.87305 133.42969 C 162.9809 132.27632 160.87122 131.52548 158.67578 131.22461 A 8.0008 8.0008 0 0 0 158.66016 131.22266 L 135.84375 128.14258 L 135.83984 128.14258 C 129.39368 127.27149 123.05798 130.44654 119.8457 135.99023 L 111.14062 135.99023 A 8.0008 8.0008 0 0 0 111.13867 135.99023 L 107.34375 128.13086 A 8.0008 8.0008 0 0 0 107.33789 128.11719 C 105.19105 123.69237 101.11089 120.49213 96.302734 119.45898 L 88.265625 117.73047 L 96.128906 104 A 8.0008 8.0008 0 0 0 96.140625 104 L 112.83789 104 C 115.55665 104.004 118.23086 103.31225 120.60547 101.98828 L 132.79102 95.285156 C 133.93929 94.667352 135.00276 93.904348 135.95508 93.013672 L 162.77344 68.775391 A 8.0008 8.0008 0 0 0 162.79297 68.757812 C 168.27681 63.770117 169.60656 55.539118 165.97266 49.078125 L 165.57617 48.367188 z M 48.507812 90.126953 L 59.888672 120.47852 A 8.0008 8.0008 0 0 0 59.894531 120.49219 C 61.811281 125.57545 66.201525 129.35437 71.513672 130.49219 L 73.767578 130.97656 A 8 8 0 0 0 74.628906 131.16211 L 92.9375 135.10156 A 8.0008 8.0008 0 0 0 92.941406 135.10156 L 92.943359 135.10156 L 96.736328 142.95898 A 8.0008 8.0008 0 0 0 96.742188 142.9707 C 99.409423 148.47224 105.02663 151.9913 111.14062 151.99023 L 112.61719 151.99023 L 105.38281 168.22266 A 8.0008 8.0008 0 0 0 105.38086 168.22656 C 102.78676 174.05448 103.92643 180.92776 108.26172 185.60742 A 8.0008 8.0008 0 0 0 108.39062 185.74219 L 128.01172 205.94922 L 128.01562 205.93555 L 128.01367 205.95117 L 126.07812 215.98047 C 78.274231 214.96244 40 176.05352 40 128 C 40 114.43089 43.051375 101.59042 48.507812 90.126953 z M 133.69727 143.99805 A 8.0008 8.0008 0 0 0 133.69922 143.99805 L 156.50391 147.07617 C 156.51841 147.07817 156.53232 147.0842 156.54492 147.0918 L 156.54688 147.0918 L 202.30859 175.24023 C 189.1906 195.86746 167.7132 210.62881 142.59961 214.80078 L 143.72461 208.96484 A 8.0008 8.0008 0 0 0 143.72852 208.95117 C 144.68369 203.95251 143.1945 198.77717 139.72852 195.05078 A 8.0008 8.0008 0 0 0 139.60938 194.92773 L 120 174.73242 L 133.69727 143.99805 z " />
</svg>
