<?xml version="1.0" encoding="UTF-8" standalone="no"?>
<svg
   viewBox="0 0 256 256"
   version="1.1"
   id="svg2"
   sodipodi:docname="google cardboard logo purple_blue.svg"
   xmlns:inkscape="http://www.inkscape.org/namespaces/inkscape"
   xmlns:sodipodi="http://sodipodi.sourceforge.net/DTD/sodipodi-0.dtd"
   xmlns:xlink="http://www.w3.org/1999/xlink"
   xmlns="http://www.w3.org/2000/svg"
   xmlns:svg="http://www.w3.org/2000/svg">
  <defs
     id="defs3">
    <linearGradient
       id="linearGradient1"
       inkscape:collect="always">
      <stop
         style="stop-color:#4b4fe2ff;stop-opacity:1;"
         offset="0"
         id="stop1" />
      <stop
         style="stop-color:#a03291;stop-opacity:1;"
         offset="0.76340693"
         id="stop2" />
    </linearGradient>
    <linearGradient
       inkscape:collect="always"
       xlink:href="#linearGradient1"
       id="linearGradient2"
       x1="232.4884"
       y1="23.847498"
       x2="23.977745"
       y2="232.35815"
       gradientUnits="userSpaceOnUse" />
  </defs>
  <defs
     id="defs2" />
  <sodipodi:namedview
     id="namedview2"
     pagecolor="#ffffff"
     bordercolor="#000000"
     borderopacity="0.25"
     inkscape:showpageshadow="2"
     inkscape:pageopacity="0.0"
     inkscape:pagecheckerboard="0"
     inkscape:deskcolor="#d1d1d1" />
  <path
     id="path1"
     style="baseline-shift:baseline;display:inline;overflow:visible;vector-effect:none;fill:url(#linearGradient2);stroke-linecap:round;stroke-linejoin:round;enable-background:accumulate;stop-color:#000000;stop-opacity:1;opacity:1;fill-opacity:1"
     d="M 32 48 C 23.258201 48 16 55.258201 16 64 L 16 192 C 16 200.7418 23.258201 208 32 208 L 96 208 A 8.0008 8.0008 0 0 0 101.65625 205.65625 L 127.99609 179.31641 A 8.0008 8.0008 0 0 0 128 179.31445 A 8.0008 8.0008 0 0 0 128.00391 179.31641 L 154.34375 205.65625 A 8.0008 8.0008 0 0 0 160 208 L 224 208 C 232.7418 208 240 200.7418 240 192 L 240 64 C 240 55.258201 232.7418 48 224 48 L 32 48 z M 32 64 L 224 64 L 224 192 L 163.31445 192 L 139.31641 168.00391 C 133.13345 161.81747 122.86129 161.81733 116.67969 168.00586 L 92.685547 192 L 32 192 L 32 64 z M 80 96 C 62.421645 96 48 110.42165 48 128 C 48 145.57835 62.421645 160 80 160 C 97.578355 160 112 145.57835 112 128 C 112 110.42165 97.578355 96 80 96 z M 176 96 C 158.42165 96 144 110.42165 144 128 C 144 145.57835 158.42165 160 176 160 C 193.57835 160 208 145.57835 208 128 C 208 110.42165 193.57835 96 176 96 z M 80 112 C 88.931313 112 96 119.06869 96 128 C 96 136.93131 88.931313 144 80 144 C 71.068687 144 64 136.93131 64 128 C 64 119.06869 71.068687 112 80 112 z M 176 112 C 184.93131 112 192 119.06869 192 128 C 192 136.93131 184.93131 144 176 144 C 167.06869 144 160 136.93131 160 128 C 160 119.06869 167.06869 112 176 112 z " />
</svg>
