<?xml version="1.0" encoding="UTF-8" standalone="no"?>
<svg
   viewBox="0 0 256 256"
   version="1.1"
   id="svg6"
   sodipodi:docname="grains slash purple_blue.svg"
   xmlns:inkscape="http://www.inkscape.org/namespaces/inkscape"
   xmlns:sodipodi="http://sodipodi.sourceforge.net/DTD/sodipodi-0.dtd"
   xmlns:xlink="http://www.w3.org/1999/xlink"
   xmlns="http://www.w3.org/2000/svg"
   xmlns:svg="http://www.w3.org/2000/svg">
  <defs
     id="defs3">
    <linearGradient
       id="linearGradient1"
       inkscape:collect="always">
      <stop
         style="stop-color:#4b4fe2ff;stop-opacity:1;"
         offset="0"
         id="stop1" />
      <stop
         style="stop-color:#a03291;stop-opacity:1;"
         offset="0.76340693"
         id="stop2" />
    </linearGradient>
    <linearGradient
       inkscape:collect="always"
       xlink:href="#linearGradient1"
       id="linearGradient2"
       x1="232.4884"
       y1="23.847498"
       x2="23.977745"
       y2="232.35815"
       gradientUnits="userSpaceOnUse" />
  </defs>
  <defs
     id="defs6" />
  <sodipodi:namedview
     id="namedview6"
     pagecolor="#ffffff"
     bordercolor="#000000"
     borderopacity="0.25"
     inkscape:showpageshadow="2"
     inkscape:pageopacity="0.0"
     inkscape:pagecheckerboard="0"
     inkscape:deskcolor="#d1d1d1" />
  <path
     id="path1"
     style="baseline-shift:baseline;display:inline;overflow:visible;vector-effect:none;fill:url(#linearGradient2);stroke-linecap:round;stroke-linejoin:round;enable-background:accumulate;stop-color:#000000;stop-opacity:1;opacity:1;fill-opacity:1"
     d="M 128.40234 16.009766 A 8.0008 8.0008 0 0 0 124.16211 16.980469 C 112.08964 23.581394 101.32729 32.337501 92.408203 42.814453 A 8 8 0 0 0 93.314453 54.091797 A 8 8 0 0 0 104.5918 53.185547 C 111.28784 45.319938 119.24947 38.669592 128.06055 33.314453 C 135.04391 37.542421 152.45638 49.463133 161.86133 69.048828 C 152.13924 75.033184 143.548 82.931441 136.68359 92.4375 A 8 8 0 0 0 138.48633 103.60547 A 8 8 0 0 0 149.65625 101.80273 C 156.39531 92.470255 165.16029 85.046842 175.11719 79.947266 C 175.42915 79.787489 175.74237 79.629812 176.05664 79.474609 C 183.50861 75.794513 191.60411 73.404635 200 72.472656 L 200 112.35352 C 188.93899 113.35126 178.1429 116.44555 168.19727 121.49609 A 8 8 0 0 0 164.6875 132.25195 A 8 8 0 0 0 175.44141 135.76367 C 183.13893 131.85475 191.46259 129.40554 200 128.46094 L 200 144 A 8.0008 8.0008 0 0 0 200 144.00391 C 200.003 150.47705 199.13798 156.92147 197.42578 163.16406 A 8 8 0 0 0 203.02344 172.99414 A 8 8 0 0 0 212.85547 167.39648 C 214.94657 159.77244 216.00394 151.90171 216 143.99609 L 216 120 L 216 64 A 8.0008 8.0008 0 0 0 208.00586 56 C 196.98079 55.991536 186.21347 58.053871 176.19922 61.933594 C 161.45082 31.335394 131.57617 16.84375 131.57617 16.84375 A 8.0008 8.0008 0 0 0 128.40234 16.009766 z M 48.380859 32.009766 A 8 8 0 0 0 42.619141 34.080078 A 8 8 0 0 0 42.080078 45.380859 L 51.804688 56.078125 C 50.534757 56.02444 49.263264 55.998532 47.990234 56 A 8.0008 8.0008 0 0 0 40 64 L 40 120 L 40 144 C 40 192.5063 79.493699 232 128 232 C 150.96042 232.01781 172.89522 223.04775 189.21484 207.23047 L 202.08008 221.38086 A 8 8 0 0 0 213.38086 221.91992 A 8 8 0 0 0 213.91992 210.61914 L 152.71289 143.29102 A 8 8 0 0 0 152.54492 143.10742 L 79.669922 62.943359 A 8 8 0 0 0 79.425781 62.675781 L 53.919922 34.619141 A 8 8 0 0 0 48.380859 32.009766 z M 56 72.644531 C 60.448633 73.138073 64.863704 73.890971 69.15625 75.164062 L 136.27539 148.99414 C 133.05246 153.51681 130.27886 158.31695 127.98242 163.32422 C 115.10623 135.36882 87.990886 115.2604 56 112.36133 L 56 72.644531 z M 56 128.46484 C 92.068765 132.4302 120 162.84867 120 200 C 120.00001 200.00389 119.99999 200.00783 120 200.01172 L 120 215.53516 C 83.931235 211.5698 56 181.15133 56 144 L 56 128.46484 z M 147.34766 161.17578 L 178.44727 195.38477 C 166.95537 206.68465 151.99863 213.78373 136 215.55859 L 136 200 A 8.0008 8.0008 0 0 0 136 199.98828 C 136 199.95183 136.00005 199.91535 136 199.87891 C 136.00018 186.09336 139.9726 172.67132 147.34766 161.17578 z " />
</svg>
