<?xml version="1.0" encoding="UTF-8" standalone="no"?>
<svg
   viewBox="0 0 256 256"
   version="1.1"
   id="svg5"
   sodipodi:docname="hand peace purple_blue.svg"
   xmlns:inkscape="http://www.inkscape.org/namespaces/inkscape"
   xmlns:sodipodi="http://sodipodi.sourceforge.net/DTD/sodipodi-0.dtd"
   xmlns:xlink="http://www.w3.org/1999/xlink"
   xmlns="http://www.w3.org/2000/svg"
   xmlns:svg="http://www.w3.org/2000/svg">
  <defs
     id="defs3">
    <linearGradient
       id="linearGradient1"
       inkscape:collect="always">
      <stop
         style="stop-color:#4b4fe2ff;stop-opacity:1;"
         offset="0"
         id="stop1" />
      <stop
         style="stop-color:#a03291;stop-opacity:1;"
         offset="0.76340693"
         id="stop2" />
    </linearGradient>
    <linearGradient
       inkscape:collect="always"
       xlink:href="#linearGradient1"
       id="linearGradient2"
       x1="232.4884"
       y1="23.847498"
       x2="23.977745"
       y2="232.35815"
       gradientUnits="userSpaceOnUse" />
  </defs>
  <defs
     id="defs5" />
  <sodipodi:namedview
     id="namedview5"
     pagecolor="#ffffff"
     bordercolor="#000000"
     borderopacity="0.25"
     inkscape:showpageshadow="2"
     inkscape:pageopacity="0.0"
     inkscape:pagecheckerboard="0"
     inkscape:deskcolor="#d1d1d1" />
  <path
     id="path1"
     style="baseline-shift:baseline;display:inline;overflow:visible;vector-effect:none;fill:url(#linearGradient2);stroke-linecap:round;stroke-linejoin:round;enable-background:accumulate;stop-color:#000000;stop-opacity:1;opacity:1;fill-opacity:1"
     d="M 108.75391 15.652344 C 107.94145 15.625078 107.12497 15.634316 106.30469 15.679688 C 104.42977 15.78339 102.53883 16.080115 100.6582 16.583984 C 85.613217 20.614936 76.682216 36.436306 81.003906 51.400391 L 90.335938 86.25 L 81.525391 84.556641 C 81.520091 84.555641 81.515026 84.555751 81.509766 84.554688 C 79.641524 84.192847 77.777491 84.027378 75.939453 84.046875 C 63.036989 84.183738 51.42404 93.353472 48.751953 106.44336 C 46.754577 116.22801 50.212619 125.95378 57.021484 132.40625 C 52.932432 136.23488 49.94734 141.30621 48.751953 147.16211 C 48.512034 148.33741 48.351778 149.51162 48.265625 150.67969 A 8 8 0 0 0 48 152.7207 L 48 160 C 47.9987 204.32549 84.287126 240.3386 128.61133 240 C 172.69854 239.66685 208 203.06493 208 159.09961 L 208 155.75977 C 208.00037 142.96734 203.64682 131.00564 196.22852 121.44727 L 215.03711 51.25 A 8.0008 8.0008 0 0 0 215.07617 51.099609 C 218.71592 36.379554 209.7874 21.25824 195.14062 17.333984 C 193.30979 16.843452 191.46875 16.548543 189.64062 16.4375 C 176.84376 15.660199 164.67553 23.862381 160.99414 36.609375 A 8.0008 8.0008 0 0 0 160.95312 36.759766 L 147.99805 85.091797 L 135.08594 36.910156 C 132.01903 24.506802 120.9408 16.061337 108.75391 15.652344 z M 108.4668 31.621094 C 113.66365 31.818197 118.22478 35.371512 119.55469 40.75 A 8.0008 8.0008 0 0 0 119.5918 40.900391 L 134.38672 96.107422 C 129.35228 96.444592 124.56612 98.150118 120.49414 100.91211 C 117.5151 96.288775 113.1985 92.531034 107.98242 90.292969 L 96.417969 47.111328 A 8.0008 8.0008 0 0 0 96.375 46.960938 C 94.482959 40.409643 98.212104 33.803821 104.79883 32.039062 C 106.03384 31.708171 107.26752 31.575608 108.4668 31.621094 z M 187.43359 32.369141 C 188.60237 32.333492 189.8009 32.467791 191 32.789062 C 197.39825 34.503324 201.12966 40.823707 199.54297 47.253906 L 199.54297 47.255859 L 199.54297 47.257812 L 199.54297 47.259766 L 182.96875 109.11133 C 177.0433 105.16699 170.29461 102.30835 162.97852 100.8457 L 160.47461 100.3457 L 176.37109 41.035156 C 177.86947 35.870493 182.36888 32.523619 187.43359 32.369141 z M 76.044922 100.0332 C 76.843043 100.02983 77.655546 100.10455 78.474609 100.26367 A 8.0008 8.0008 0 0 0 78.490234 100.26562 L 99.285156 104.26367 C 105.86996 105.54293 110.03121 111.69652 108.78906 118.26172 C 108.77636 118.32194 108.76428 118.38297 108.75195 118.44336 C 108.74189 118.49263 108.73049 118.54252 108.7207 118.5918 C 108.71845 118.60218 108.71712 118.61268 108.71484 118.62305 L 108.71484 118.625 C 107.28359 125.15056 101.04304 129.18111 94.484375 127.77734 A 8.0008 8.0008 0 0 0 94.320312 127.74414 L 82.533203 125.47852 L 81.568359 125.28516 A 8.0008 8.0008 0 0 0 81.525391 125.27734 C 81.294744 125.23254 81.06446 125.1892 80.833984 125.15039 L 73.666016 123.77344 C 67.144077 122.37267 63.093283 116.17972 64.427734 109.64258 C 65.595914 103.91996 70.458074 100.05684 76.044922 100.0332 z M 136.06641 112.0332 C 136.85745 112.03129 137.66308 112.10601 138.47461 112.26367 L 159.8418 116.53516 C 168.28661 118.22345 175.64812 122.47118 181.18945 128.37695 C 181.42486 128.62784 181.65794 128.88187 181.88672 129.13867 C 188.22759 136.25637 192.0003 145.61972 192 155.75977 L 192 159.09961 C 192 194.53429 163.80303 223.73315 128.49023 224 A 8.0008 8.0008 0 0 0 128.48828 224 C 99.541353 224.22113 75.067828 205.36514 66.902344 179.17773 C 68.008841 179.56766 69.151197 179.8911 70.326172 180.14258 A 8.0008 8.0008 0 0 0 70.423828 180.16406 L 80.400391 182.16797 C 95.46138 185.24164 110.36383 175.39105 113.4375 160.33008 C 114.85889 153.36529 113.5173 146.43474 110.17383 140.69141 C 111.03626 140.22852 111.87379 139.72072 112.68359 139.17188 C 116.58646 145.23275 122.78943 149.80877 130.32617 151.42188 A 8.0008 8.0008 0 0 0 130.43359 151.44531 L 136.8125 152.71875 C 134.4421 164.24252 137.75701 176.50023 146.28711 185.20117 A 8 8 0 0 0 157.59961 185.3125 A 8 8 0 0 0 157.71289 174 C 151.54646 167.71006 150.21336 158.22499 154.40625 150.47852 A 8.0008 8.0008 0 0 0 148.9375 138.82422 L 133.67383 135.77734 C 127.20661 134.39316 123.16765 128.2957 124.39258 121.82227 C 124.40523 121.7623 124.41741 121.70271 124.42969 121.64258 C 124.44193 121.58262 124.45301 121.52284 124.46484 121.46289 C 125.6989 115.83185 130.52907 112.04662 136.06641 112.0332 z M 75.630859 140.76172 C 76.40774 140.73192 77.199961 140.77613 78 140.90039 L 79.648438 141.2168 L 88.400391 142.96875 C 94.988978 144.31336 99.106328 150.54227 97.761719 157.13086 C 96.41711 163.71944 90.188197 167.8368 83.599609 166.49219 A 8.0008 8.0008 0 0 0 83.576172 166.48633 L 73.666016 164.49414 C 67.144077 163.09337 63.093283 156.90043 64.427734 150.36328 C 65.566984 144.78239 70.219144 140.96931 75.630859 140.76172 z " />
</svg>
