<?xml version="1.0" encoding="UTF-8" standalone="no"?>
<svg
   viewBox="0 0 256 256"
   version="1.1"
   id="svg4"
   sodipodi:docname="handshake purple_blue.svg"
   xmlns:inkscape="http://www.inkscape.org/namespaces/inkscape"
   xmlns:sodipodi="http://sodipodi.sourceforge.net/DTD/sodipodi-0.dtd"
   xmlns:xlink="http://www.w3.org/1999/xlink"
   xmlns="http://www.w3.org/2000/svg"
   xmlns:svg="http://www.w3.org/2000/svg">
  <defs
     id="defs3">
    <linearGradient
       id="linearGradient1"
       inkscape:collect="always">
      <stop
         style="stop-color:#4b4fe2ff;stop-opacity:1;"
         offset="0"
         id="stop1" />
      <stop
         style="stop-color:#a03291;stop-opacity:1;"
         offset="0.76340693"
         id="stop2" />
    </linearGradient>
    <linearGradient
       inkscape:collect="always"
       xlink:href="#linearGradient1"
       id="linearGradient2"
       x1="232.4884"
       y1="23.847498"
       x2="23.977745"
       y2="232.35815"
       gradientUnits="userSpaceOnUse" />
  </defs>
  <defs
     id="defs4" />
  <sodipodi:namedview
     id="namedview4"
     pagecolor="#ffffff"
     bordercolor="#000000"
     borderopacity="0.25"
     inkscape:showpageshadow="2"
     inkscape:pageopacity="0.0"
     inkscape:pagecheckerboard="0"
     inkscape:deskcolor="#d1d1d1" />
  <path
     id="polyline1"
     style="baseline-shift:baseline;display:inline;overflow:visible;vector-effect:none;fill:url(#linearGradient2);stroke-linecap:round;stroke-linejoin:round;enable-background:accumulate;stop-color:#000000;stop-opacity:1;opacity:1;fill-opacity:1"
     d="M 128 48 A 8.0008 8.0008 0 0 0 125.95508 48.265625 L 73.554688 62.125 L 48.697266 49.699219 C 46.742752 48.71903 44.66615 48.185964 42.591797 48.060547 C 36.368736 47.684296 30.153126 50.974181 27.216797 56.839844 A 8.0008 8.0008 0 0 0 27.214844 56.84375 L 1.6933594 107.9043 C -2.2124076 115.71741 1.024984 125.4467 8.8339844 129.36133 A 8.0008 8.0008 0 0 0 8.8417969 129.36523 L 35.865234 142.87695 L 91.349609 182.50977 A 8.0008 8.0008 0 0 0 94.060547 183.76172 L 158.06055 199.76172 A 8.0008 8.0008 0 0 0 165.65625 197.65625 L 205.64453 157.66797 A 8.0008 8.0008 0 0 0 205.65625 157.65625 L 220.73438 142.57812 L 247.1582 129.36523 A 8.0008 8.0008 0 0 0 247.16602 129.36133 C 254.97502 125.4467 258.21241 115.71741 254.30664 107.9043 L 254.30469 107.90234 L 228.78516 56.84375 A 8.0008 8.0008 0 0 0 228.7832 56.839844 C 225.84687 50.974181 219.63126 47.684296 213.4082 48.060547 C 211.33385 48.185964 209.25725 48.71903 207.30273 49.699219 L 182.44531 62.125 L 130.04492 48.265625 A 8.0008 8.0008 0 0 0 128 48 z M 41.523438 64.001953 A 8.0008 8.0008 0 0 0 41.533203 64.005859 L 61.947266 74.208984 L 36.421875 125.26562 L 16.005859 115.05859 A 8.0008 8.0008 0 0 0 16.005859 115.05664 L 41.523438 64.001953 z M 214.47656 64.001953 L 239.99414 115.05664 A 8.0008 8.0008 0 0 0 239.99414 115.05859 L 219.57812 125.26562 L 194.05273 74.208984 L 214.4668 64.005859 A 8.0008 8.0008 0 0 0 214.47656 64.001953 z M 128 64.275391 L 137.80078 66.867188 L 92.769531 110.54688 A 8.0008 8.0008 0 0 0 92.685547 110.63086 C 85.563376 117.74942 86.929298 130.07092 95.431641 135.46094 C 114.149 147.41162 139.64335 146.98736 160.15625 130.36914 L 188.02344 152.66406 L 157.54688 183.14062 L 99.414062 168.60742 L 50.212891 133.46289 L 78.220703 77.439453 L 128 64.275391 z M 147.24219 80 L 179.05859 80 L 206.26562 134.42188 L 199.40625 141.2793 L 164.99805 113.75391 A 8.0008 8.0008 0 0 0 154.32422 114.36328 C 137.59948 131.20245 118.62884 131.30003 104.02734 121.96875 A 8.0008 8.0008 0 0 0 103.99609 121.94922 L 147.24219 80 z M 55.726562 178.75586 A 8 8 0 0 0 54.685547 178.85938 A 8 8 0 0 0 49.490234 182.09961 A 8 8 0 0 0 51.349609 193.25977 L 77.689453 212.08008 A 8.0008 8.0008 0 0 0 80.400391 213.33203 L 122.11914 223.76172 A 8 8 0 0 0 131.82031 217.93945 A 8 8 0 0 0 126 208.23828 L 85.753906 198.17773 L 60.650391 180.24023 A 8 8 0 0 0 55.726562 178.75586 z " />
</svg>
