<?xml version="1.0" encoding="UTF-8" standalone="no"?>
<svg
   viewBox="0 0 256 256"
   version="1.1"
   id="svg2"
   sodipodi:docname="hand arrow down purple_blue.svg"
   xmlns:inkscape="http://www.inkscape.org/namespaces/inkscape"
   xmlns:sodipodi="http://sodipodi.sourceforge.net/DTD/sodipodi-0.dtd"
   xmlns:xlink="http://www.w3.org/1999/xlink"
   xmlns="http://www.w3.org/2000/svg"
   xmlns:svg="http://www.w3.org/2000/svg">
  <defs
     id="defs3">
    <linearGradient
       id="linearGradient1"
       inkscape:collect="always">
      <stop
         style="stop-color:#4b4fe2ff;stop-opacity:1;"
         offset="0"
         id="stop1" />
      <stop
         style="stop-color:#a03291;stop-opacity:1;"
         offset="0.76340693"
         id="stop2" />
    </linearGradient>
    <linearGradient
       inkscape:collect="always"
       xlink:href="#linearGradient1"
       id="linearGradient2"
       x1="232.4884"
       y1="23.847498"
       x2="23.977745"
       y2="232.35815"
       gradientUnits="userSpaceOnUse" />
  </defs>
  <defs
     id="defs2" />
  <sodipodi:namedview
     id="namedview2"
     pagecolor="#ffffff"
     bordercolor="#000000"
     borderopacity="0.25"
     inkscape:showpageshadow="2"
     inkscape:pageopacity="0.0"
     inkscape:pagecheckerboard="0"
     inkscape:deskcolor="#d1d1d1" />
  <path
     id="path1"
     style="baseline-shift:baseline;display:inline;overflow:visible;vector-effect:none;fill:url(#linearGradient2);stroke-linecap:round;stroke-linejoin:round;enable-background:accumulate;stop-color:#000000;stop-opacity:1;opacity:1;fill-opacity:1"
     d="M 192 16 A 8 8 0 0 0 184 24 L 184 84.6875 L 165.65625 66.34375 A 8 8 0 0 0 160 64 A 8 8 0 0 0 154.34375 66.34375 A 8 8 0 0 0 154.34375 77.65625 L 186.26172 109.57422 L 186.34375 109.65625 A 8.0008 8.0008 0 0 0 186.66406 109.9375 A 8 8 0 0 0 187.10352 110.32227 A 8.0008 8.0008 0 0 0 187.52539 110.60938 A 8 8 0 0 0 187.9668 110.9043 A 8.0008 8.0008 0 0 0 188.44531 111.14648 A 8 8 0 0 0 188.92188 111.38281 A 8.0008 8.0008 0 0 0 189.39844 111.54688 A 8 8 0 0 0 189.91406 111.7207 A 8.0008 8.0008 0 0 0 190.29297 111.79883 A 8 8 0 0 0 192 112 A 8 8 0 0 0 193.70703 111.79883 A 8.0008 8.0008 0 0 0 194.08594 111.7207 A 8 8 0 0 0 194.60156 111.54688 A 8.0008 8.0008 0 0 0 195.07812 111.38281 A 8 8 0 0 0 195.55469 111.14648 A 8.0008 8.0008 0 0 0 196.0332 110.9043 A 8 8 0 0 0 196.47461 110.60938 A 8.0008 8.0008 0 0 0 196.89648 110.32227 A 8 8 0 0 0 197.33594 109.9375 A 8.0008 8.0008 0 0 0 197.65625 109.65625 L 197.73828 109.57422 L 229.65625 77.65625 A 8 8 0 0 0 229.65625 66.34375 A 8 8 0 0 0 218.34375 66.34375 L 200 84.6875 L 200 24 A 8 8 0 0 0 192 16 z M 90.019531 112 C 81.527728 111.9792 73.368535 115.33976 67.353516 121.33398 A 8.0008 8.0008 0 0 0 67.34375 121.34375 L 44.6875 144 L 16 144 C 7.2582011 144 0 151.2582 0 160 L 0 200 C 0 208.7418 7.2582011 216 16 216 L 48 216 L 120 216 A 8.0008 8.0008 0 0 0 121.93945 215.76172 L 185.93945 199.76172 A 8.0008 8.0008 0 0 0 187.13867 199.35938 L 225.95898 182.79883 A 8.0008 8.0008 0 0 0 226.39258 182.59766 C 234.7189 178.441 240.00383 169.89214 240 160.58594 A 8.0008 8.0008 0 0 0 240 160.58008 C 239.98141 144.65062 224.52288 132.7837 209.1582 136.80469 L 209.11719 136.81445 C 209.099 136.81925 209.08069 136.82133 209.0625 136.82617 L 167.16211 146.46289 C 167.66447 144.37704 168 142.23173 168 140 C 168 124.63078 155.36922 112 140 112 L 90.019531 112 z M 89.980469 128 A 8.0008 8.0008 0 0 0 90 128 L 140 128 C 146.72217 128 152 133.27783 152 140 C 152 146.72217 146.72217 152 140 152 L 112 152 A 8.0008 8.0008 0 0 0 106.41602 154.38281 A 8.0008 8.0008 0 0 0 104.11328 160 A 8.0008 8.0008 0 0 0 112 168 L 140 168 L 144 168 A 8.0008 8.0008 0 0 0 145.79297 167.79688 L 212.79297 152.38672 A 8.0008 8.0008 0 0 0 213.11523 152.30469 C 218.78658 150.75049 223.99194 154.71765 224 160.59766 L 224 160.59961 C 223.99914 163.84669 222.19387 166.76973 219.30469 168.24219 L 181.44531 184.39258 L 119.01562 200 L 56 200 L 56 155.31445 L 78.646484 132.66602 C 81.657275 129.66564 85.729936 127.98958 89.980469 128 z M 16 160 L 40 160 L 40 200 L 16 200 L 16 160 z " />
</svg>
