<?xml version="1.0" encoding="UTF-8" standalone="no"?>
<svg
   viewBox="0 0 256 256"
   version="1.1"
   id="svg3"
   sodipodi:docname="hockey purple_blue.svg"
   xmlns:inkscape="http://www.inkscape.org/namespaces/inkscape"
   xmlns:sodipodi="http://sodipodi.sourceforge.net/DTD/sodipodi-0.dtd"
   xmlns:xlink="http://www.w3.org/1999/xlink"
   xmlns="http://www.w3.org/2000/svg"
   xmlns:svg="http://www.w3.org/2000/svg">
  <defs
     id="defs3">
    <linearGradient
       id="linearGradient1"
       inkscape:collect="always">
      <stop
         style="stop-color:#4b4fe2ff;stop-opacity:1;"
         offset="0"
         id="stop1" />
      <stop
         style="stop-color:#a03291;stop-opacity:1;"
         offset="0.76340693"
         id="stop2" />
    </linearGradient>
    <linearGradient
       inkscape:collect="always"
       xlink:href="#linearGradient1"
       id="linearGradient2"
       x1="232.4884"
       y1="23.847498"
       x2="23.977745"
       y2="232.35815"
       gradientUnits="userSpaceOnUse" />
  </defs>
  <defs
     id="defs1" />
  <sodipodi:namedview
     id="namedview3"
     pagecolor="#ffffff"
     bordercolor="#000000"
     borderopacity="0.25"
     inkscape:showpageshadow="2"
     inkscape:pageopacity="0.0"
     inkscape:pagecheckerboard="0"
     inkscape:deskcolor="#d1d1d1" />
  <path
     id="path1"
     style="baseline-shift:baseline;display:inline;overflow:visible;vector-effect:none;fill:url(#linearGradient2);stroke-linecap:round;stroke-linejoin:round;enable-background:accumulate;stop-color:#000000;stop-opacity:1;opacity:1;fill-opacity:1"
     d="M 31.599609 40.009766 A 8 8 0 0 0 26.818359 41.904297 A 8 8 0 0 0 25.904297 53.181641 L 159.50391 210.35938 C 162.54138 213.93429 167.00826 216.00088 171.69922 216 L 224 216 C 232.7418 216 240 208.7418 240 200 L 240 168 C 240 159.2582 232.7418 152 224 152 L 130.89844 152 L 38.095703 42.818359 A 8 8 0 0 0 32.646484 40.025391 A 8 8 0 0 0 31.599609 40.009766 z M 224.40039 40.009766 A 8 8 0 0 0 223.35352 40.025391 A 8 8 0 0 0 217.9043 42.818359 L 149.9043 122.81836 A 8 8 0 0 0 150.81836 134.0957 A 8 8 0 0 0 162.0957 133.18164 L 230.0957 53.181641 A 8 8 0 0 0 229.18164 41.904297 A 8 8 0 0 0 224.40039 40.009766 z M 32 152 C 23.258201 152 16 159.2582 16 168 L 16 200 C 16 208.7418 23.258201 216 32 216 L 84.296875 216 C 88.98927 216.002 93.457768 213.93529 96.496094 210.35938 L 113.0957 190.83203 A 8 8 0 0 0 112.18164 179.55469 A 8 8 0 0 0 100.9043 180.46875 L 84.304688 199.99805 A 8.0008 8.0008 0 0 0 84.302734 200 A 8.0008 8.0008 0 0 0 84.300781 200 L 64 200 L 64 168 L 85.199219 168 A 8 8 0 0 0 93.199219 160 A 8 8 0 0 0 85.199219 152 L 32 152 z M 32 168 L 48 168 L 48 200 L 32 200 L 32 168 z M 144.49805 168 L 192 168 L 192 200 L 171.69922 200 A 8.0008 8.0008 0 0 0 171.69727 200 A 8.0008 8.0008 0 0 0 171.69531 199.99805 L 144.49805 168 z M 208 168 L 224 168 L 224 200 L 208 200 L 208 168 z " />
</svg>
