<?xml version="1.0" encoding="UTF-8" standalone="no"?>
<svg
   viewBox="0 0 256 256"
   version="1.1"
   id="svg3"
   sodipodi:docname="hoodie purple_blue.svg"
   xmlns:inkscape="http://www.inkscape.org/namespaces/inkscape"
   xmlns:sodipodi="http://sodipodi.sourceforge.net/DTD/sodipodi-0.dtd"
   xmlns:xlink="http://www.w3.org/1999/xlink"
   xmlns="http://www.w3.org/2000/svg"
   xmlns:svg="http://www.w3.org/2000/svg">
  <defs
     id="defs3">
    <linearGradient
       id="linearGradient1"
       inkscape:collect="always">
      <stop
         style="stop-color:#4b4fe2ff;stop-opacity:1;"
         offset="0"
         id="stop1" />
      <stop
         style="stop-color:#a03291;stop-opacity:1;"
         offset="0.76340693"
         id="stop2" />
    </linearGradient>
    <linearGradient
       inkscape:collect="always"
       xlink:href="#linearGradient1"
       id="linearGradient2"
       x1="232.4884"
       y1="23.847498"
       x2="23.977745"
       y2="232.35815"
       gradientUnits="userSpaceOnUse" />
  </defs>
  <defs
     id="defs1" />
  <sodipodi:namedview
     id="namedview3"
     pagecolor="#ffffff"
     bordercolor="#000000"
     borderopacity="0.25"
     inkscape:showpageshadow="2"
     inkscape:pageopacity="0.0"
     inkscape:pagecheckerboard="0"
     inkscape:deskcolor="#d1d1d1" />
  <path
     id="path1"
     style="baseline-shift:baseline;display:inline;overflow:visible;vector-effect:none;fill:url(#linearGradient2);stroke-linecap:round;stroke-linejoin:round;enable-background:accumulate;stop-color:#000000;stop-opacity:1;opacity:1;fill-opacity:1"
     d="M 86.265625 32 C 80.930737 32.0032 75.925706 34.681311 72.964844 39.119141 A 8.0008 8.0008 0 0 0 72.962891 39.123047 L 18.683594 120.5625 A 8.0008 8.0008 0 0 0 18.681641 120.56445 C 16.12052 124.40933 15.346944 129.18753 16.5625 133.64453 A 8.0008 8.0008 0 0 0 16.5625 133.64648 L 38 212.19922 C 39.883187 219.12171 46.245862 223.99152 53.419922 224 A 8.0008 8.0008 0 0 0 53.429688 224 L 80 224 C 88.741799 224 96 216.7418 96 208 L 96 192 L 160 192 L 160 208 C 160 216.7418 167.2582 224 176 224 L 202.57031 224 A 8.0008 8.0008 0 0 0 202.58008 224 C 209.75204 223.992 216.11279 219.12434 217.99805 212.20508 L 218 212.20117 L 239.4375 133.61523 C 240.65306 129.15823 239.87948 124.38004 237.31836 120.53516 A 8.0008 8.0008 0 0 0 237.31641 120.53125 L 183.03711 39.121094 A 8.0008 8.0008 0 0 0 183.03516 39.119141 C 180.07411 34.681398 175.06927 32.003203 169.73438 32 A 8.0008 8.0008 0 0 0 169.73047 32 L 86.269531 32 A 8.0008 8.0008 0 0 0 86.265625 32 z M 86.275391 48 L 169.72461 48 L 169.72656 48 L 172.6582 52.396484 L 128 78.712891 L 116 71.642578 L 83.34375 52.398438 L 86.275391 48 z M 80 69 L 104 83.142578 L 104 136 A 8 8 0 0 0 112 144 A 8 8 0 0 0 120 136 L 120 92.572266 L 123.9375 94.892578 A 8.0008 8.0008 0 0 0 132.0625 94.892578 L 136 92.572266 L 136 128 A 8 8 0 0 0 144 136 A 8 8 0 0 0 152 128 L 152 83.142578 L 176 69 L 176 176 L 80 176 L 80 69 z M 192 81.40625 L 224.00195 129.4043 L 202.5625 207.99414 A 8.0008 8.0008 0 0 0 202.56055 208 L 176 208 L 176 192 C 184.7418 192 192 184.7418 192 176 L 192 81.40625 z M 64 81.419922 L 64 176 C 64 184.7418 71.258201 192 80 192 L 80 208 L 53.439453 208 A 8.0008 8.0008 0 0 0 53.4375 207.99414 L 31.998047 129.43555 L 31.998047 129.43359 L 64 81.419922 z " />
</svg>
