<?xml version="1.0" encoding="UTF-8" standalone="no"?>
<svg
   viewBox="0 0 256 256"
   version="1.1"
   id="svg2"
   sodipodi:docname="hourglass simple high purple_blue.svg"
   xmlns:inkscape="http://www.inkscape.org/namespaces/inkscape"
   xmlns:sodipodi="http://sodipodi.sourceforge.net/DTD/sodipodi-0.dtd"
   xmlns:xlink="http://www.w3.org/1999/xlink"
   xmlns="http://www.w3.org/2000/svg"
   xmlns:svg="http://www.w3.org/2000/svg">
  <defs
     id="defs3">
    <linearGradient
       id="linearGradient1"
       inkscape:collect="always">
      <stop
         style="stop-color:#4b4fe2ff;stop-opacity:1;"
         offset="0"
         id="stop1" />
      <stop
         style="stop-color:#a03291;stop-opacity:1;"
         offset="0.76340693"
         id="stop2" />
    </linearGradient>
    <linearGradient
       inkscape:collect="always"
       xlink:href="#linearGradient1"
       id="linearGradient2"
       x1="232.4884"
       y1="23.847498"
       x2="23.977745"
       y2="232.35815"
       gradientUnits="userSpaceOnUse" />
  </defs>
  <defs
     id="defs2" />
  <sodipodi:namedview
     id="namedview2"
     pagecolor="#ffffff"
     bordercolor="#000000"
     borderopacity="0.25"
     inkscape:showpageshadow="2"
     inkscape:pageopacity="0.0"
     inkscape:pagecheckerboard="0"
     inkscape:deskcolor="#d1d1d1" />
  <path
     id="path1"
     style="baseline-shift:baseline;display:inline;overflow:visible;vector-effect:none;fill:url(#linearGradient2);stroke-linecap:round;stroke-linejoin:round;enable-background:accumulate;stop-color:#000000;stop-opacity:1;opacity:1;fill-opacity:1"
     d="M 55.986328 32 C 49.202256 32.01161 43.485553 36.418557 41.224609 41.894531 C 38.963665 47.370506 39.907283 54.525921 44.707031 59.320312 A 8.0008 8.0008 0 0 0 44.828125 59.4375 L 116.43164 128 L 44.828125 196.5625 A 8.0008 8.0008 0 0 0 44.707031 196.67969 C 39.907283 201.47408 38.963665 208.62949 41.224609 214.10547 C 43.485553 219.58144 49.202256 223.98839 55.986328 224 A 8.0008 8.0008 0 0 0 56 224 L 199.99414 224 C 206.78612 224.005 212.5172 219.60327 214.78711 214.125 C 217.05702 208.64673 216.11979 201.47967 211.31445 196.67969 A 8.0008 8.0008 0 0 0 211.19141 196.56055 L 139.56836 128 L 211.19141 59.439453 A 8.0008 8.0008 0 0 0 211.31445 59.320312 C 216.11979 54.520328 217.05702 47.353266 214.78711 41.875 C 212.51787 36.398345 206.78936 31.997249 200 32 L 56 32 A 8.0008 8.0008 0 0 0 55.986328 32 z M 56.017578 48 L 200 48 A 8.0008 8.0008 0 0 0 200.00391 48 L 183.28906 64 L 72.728516 64 L 56.017578 48 z M 89.4375 80 L 166.57422 80 L 128 116.92383 L 89.4375 80 z M 128 139.07617 L 200.00391 208 A 8.0008 8.0008 0 0 0 200 208 L 56.017578 208 L 128 139.07617 z " />
</svg>
