<?xml version="1.0" encoding="UTF-8" standalone="no"?>
<svg
   viewBox="0 0 256 256"
   version="1.1"
   id="svg3"
   sodipodi:docname="images purple_blue.svg"
   xmlns:inkscape="http://www.inkscape.org/namespaces/inkscape"
   xmlns:sodipodi="http://sodipodi.sourceforge.net/DTD/sodipodi-0.dtd"
   xmlns:xlink="http://www.w3.org/1999/xlink"
   xmlns="http://www.w3.org/2000/svg"
   xmlns:svg="http://www.w3.org/2000/svg">
  <defs
     id="defs3">
    <linearGradient
       id="linearGradient1"
       inkscape:collect="always">
      <stop
         style="stop-color:#4b4fe2ff;stop-opacity:1;"
         offset="0"
         id="stop1" />
      <stop
         style="stop-color:#a03291;stop-opacity:1;"
         offset="0.76340693"
         id="stop2" />
    </linearGradient>
    <linearGradient
       inkscape:collect="always"
       xlink:href="#linearGradient1"
       id="linearGradient2"
       x1="232.4884"
       y1="23.847498"
       x2="23.977745"
       y2="232.35815"
       gradientUnits="userSpaceOnUse" />
  </defs>
  <defs
     id="defs1" />
  <sodipodi:namedview
     id="namedview3"
     pagecolor="#ffffff"
     bordercolor="#000000"
     borderopacity="0.25"
     inkscape:showpageshadow="2"
     inkscape:pageopacity="0.0"
     inkscape:pagecheckerboard="0"
     inkscape:deskcolor="#d1d1d1" />
  <path
     id="rect2"
     style="baseline-shift:baseline;display:inline;overflow:visible;vector-effect:none;fill:url(#linearGradient2);stroke-linecap:round;stroke-linejoin:round;enable-background:accumulate;stop-color:#000000;stop-opacity:1;opacity:1;fill-opacity:1"
     d="M 72 40 C 63.274378 40 56 47.274378 56 56 L 56 72 L 40 72 C 31.258201 72 24 79.258201 24 88 L 24 200 C 24 208.7418 31.258201 216 40 216 L 184 216 C 192.7418 216 200 208.7418 200 200 L 200 184 L 216 184 C 224.72562 184 232 176.72562 232 168 L 232 56 C 232 47.274378 224.72562 40 216 40 L 72 40 z M 72 56 L 216 56 L 216 118.72852 L 205.9707 108.6875 A 8.0008 8.0008 0 0 0 205.96484 108.68164 C 199.78419 102.50504 189.52635 102.50504 183.3457 108.68164 L 163.31445 128.68945 L 119.32031 84.685547 C 116.229 81.590793 112.11434 80.044922 108 80.044922 C 103.88654 80.044922 99.77273 81.590162 96.681641 84.683594 L 72 109.37109 L 72 80 L 72 56 z M 172 72 A 12 12 0 0 0 160 84 A 12 12 0 0 0 172 96 A 12 12 0 0 0 184 84 A 12 12 0 0 0 172 72 z M 40 88 L 56 88 L 56 128.58203 A 8 8 0 0 0 56 128.79688 L 56 168 C 56 176.72562 63.274378 184 72 184 L 184 184 L 184 200 L 40 200 L 40 88 z M 108 95.994141 A 8.0008 8.0008 0 0 0 108.00195 95.996094 L 157.65234 145.65625 A 8.0008 8.0008 0 0 0 168.96289 145.66016 L 194.6543 120 L 216 141.37109 L 216 168 L 192 168 L 72 168 L 72 132.00391 L 107.99805 95.996094 A 8.0008 8.0008 0 0 0 108 95.994141 z " />
</svg>
