<?xml version="1.0" encoding="UTF-8" standalone="no"?>
<svg
   viewBox="0 0 256 256"
   version="1.1"
   id="svg1"
   sodipodi:docname="infinity purple_blue.svg"
   xmlns:inkscape="http://www.inkscape.org/namespaces/inkscape"
   xmlns:sodipodi="http://sodipodi.sourceforge.net/DTD/sodipodi-0.dtd"
   xmlns:xlink="http://www.w3.org/1999/xlink"
   xmlns="http://www.w3.org/2000/svg"
   xmlns:svg="http://www.w3.org/2000/svg">
  <defs
     id="defs3">
    <linearGradient
       id="linearGradient1"
       inkscape:collect="always">
      <stop
         style="stop-color:#4b4fe2ff;stop-opacity:1;"
         offset="0"
         id="stop1" />
      <stop
         style="stop-color:#a03291;stop-opacity:1;"
         offset="0.76340693"
         id="stop2" />
    </linearGradient>
    <linearGradient
       inkscape:collect="always"
       xlink:href="#linearGradient1"
       id="linearGradient2"
       x1="232.4884"
       y1="23.847498"
       x2="23.977745"
       y2="232.35815"
       gradientUnits="userSpaceOnUse" />
  </defs>
  <defs
     id="defs1" />
  <sodipodi:namedview
     id="namedview1"
     pagecolor="#ffffff"
     bordercolor="#000000"
     borderopacity="0.25"
     inkscape:showpageshadow="2"
     inkscape:pageopacity="0.0"
     inkscape:pagecheckerboard="0"
     inkscape:deskcolor="#d1d1d1" />
  <path
     id="path1"
     style="baseline-shift:baseline;display:inline;overflow:visible;vector-effect:none;fill:url(#linearGradient2);stroke-linecap:round;stroke-linejoin:round;enable-background:accumulate;stop-color:#000000;stop-opacity:1;opacity:1;fill-opacity:1"
     d="M 66.845703 72.080078 C 58.699168 71.661064 50.40758 73.014634 42.568359 76.261719 C 21.663802 84.920599 8 105.37323 8 128 C 8 150.62677 21.663802 171.0794 42.568359 179.73828 C 63.472947 188.39717 87.598299 183.59611 103.59766 167.5957 A 8.0008 8.0008 0 0 0 103.92773 167.24414 L 112.61914 157.43555 A 8 8 0 0 0 111.93555 146.14258 A 8 8 0 0 0 100.64258 146.82617 L 92.197266 156.35742 C 80.741523 167.74907 63.623858 171.14025 48.691406 164.95508 C 33.723602 158.75526 24 144.20198 24 128 C 24 111.79802 33.723602 97.244738 48.691406 91.044922 C 63.626434 84.858682 80.747361 88.252066 92.203125 99.648438 L 152.07031 167.24414 A 8.0008 8.0008 0 0 0 152.40234 167.5957 C 168.40169 183.59611 192.52705 188.39717 213.43164 179.73828 C 234.3362 171.0794 248 150.62677 248 128 C 248 105.37323 234.3362 84.920599 213.43164 76.261719 C 192.52705 67.602826 168.40169 72.403887 152.40234 88.404297 A 8.0008 8.0008 0 0 0 152.07227 88.755859 L 143.38086 98.564453 A 8 8 0 0 0 144.06445 109.85742 A 8 8 0 0 0 155.35742 109.17383 L 163.80273 99.642578 C 175.25848 88.250933 192.37614 84.859749 207.30859 91.044922 C 222.2764 97.244738 232 111.79802 232 128 C 232 144.20198 222.2764 158.75526 207.30859 164.95508 C 192.37357 171.14132 175.25265 167.74794 163.79688 156.35156 L 103.92969 88.755859 A 8.0008 8.0008 0 0 0 103.59766 88.404297 C 93.598055 78.40404 80.423262 72.778434 66.845703 72.080078 z " />
</svg>
