<?xml version="1.0" encoding="UTF-8" standalone="no"?>
<svg
   viewBox="0 0 256 256"
   version="1.1"
   id="svg5"
   sodipodi:docname="invoice purple_blue.svg"
   xmlns:inkscape="http://www.inkscape.org/namespaces/inkscape"
   xmlns:sodipodi="http://sodipodi.sourceforge.net/DTD/sodipodi-0.dtd"
   xmlns:xlink="http://www.w3.org/1999/xlink"
   xmlns="http://www.w3.org/2000/svg"
   xmlns:svg="http://www.w3.org/2000/svg">
  <defs
     id="defs3">
    <linearGradient
       id="linearGradient1"
       inkscape:collect="always">
      <stop
         style="stop-color:#4b4fe2ff;stop-opacity:1;"
         offset="0"
         id="stop1" />
      <stop
         style="stop-color:#a03291;stop-opacity:1;"
         offset="0.76340693"
         id="stop2" />
    </linearGradient>
    <linearGradient
       inkscape:collect="always"
       xlink:href="#linearGradient1"
       id="linearGradient2"
       x1="232.4884"
       y1="23.847498"
       x2="23.977745"
       y2="232.35815"
       gradientUnits="userSpaceOnUse" />
  </defs>
  <defs
     id="defs5" />
  <sodipodi:namedview
     id="namedview5"
     pagecolor="#ffffff"
     bordercolor="#000000"
     borderopacity="0.25"
     inkscape:showpageshadow="2"
     inkscape:pageopacity="0.0"
     inkscape:pagecheckerboard="0"
     inkscape:deskcolor="#d1d1d1" />
  <path
     id="path1"
     style="baseline-shift:baseline;display:inline;overflow:visible;vector-effect:none;fill:url(#linearGradient2);stroke-linecap:round;stroke-linejoin:round;enable-background:accumulate;stop-color:#000000;stop-opacity:1;opacity:1;fill-opacity:1"
     d="M 48 40 A 8 8 0 0 0 40 48 C 26.839923 48 16 58.839923 16 72 C 16 85.160077 26.839923 96 40 96 L 56 96 C 60.513035 96 64 99.486965 64 104 C 64 108.51304 60.513035 112 56 112 L 28 112 A 8 8 0 0 0 20 120 A 8 8 0 0 0 28 128 L 40 128 A 8 8 0 0 0 48 136 A 8 8 0 0 0 56 128 C 69.160077 128 80 117.16008 80 104 C 80 90.839923 69.160077 80 56 80 L 40 80 C 35.486965 80 32 76.513035 32 72 C 32 67.486965 35.486965 64 40 64 L 64 64 A 8 8 0 0 0 72 56 A 8 8 0 0 0 64 48 L 56 48 A 8 8 0 0 0 48 40 z M 96 48 A 8 8 0 0 0 88 56 A 8 8 0 0 0 96 64 L 216 64 L 216 96 L 168 96 L 104 96 A 8 8 0 0 0 96 104 A 8 8 0 0 0 104 112 L 160 112 L 160 144 L 80 144 A 8 8 0 0 0 72 152 A 8 8 0 0 0 80 160 L 160 160 L 160 192 L 40 192 L 40 152 A 8 8 0 0 0 32 144 A 8 8 0 0 0 24 152 L 24 192 C 24 200.7418 31.258201 208 40 208 L 168 208 L 216 208 C 224.7418 208 232 200.7418 232 192 L 232 56 A 8.0008 8.0008 0 0 0 224 48 L 96 48 z M 176 112 L 216 112 L 216 144 L 176 144 L 176 112 z M 176 160 L 216 160 L 216 192 L 176 192 L 176 160 z " />
</svg>
