<?xml version="1.0" encoding="UTF-8" standalone="no"?>
<svg
   viewBox="0 0 256 256"
   version="1.1"
   id="svg3"
   sodipodi:docname="lamp purple_blue.svg"
   xmlns:inkscape="http://www.inkscape.org/namespaces/inkscape"
   xmlns:sodipodi="http://sodipodi.sourceforge.net/DTD/sodipodi-0.dtd"
   xmlns:xlink="http://www.w3.org/1999/xlink"
   xmlns="http://www.w3.org/2000/svg"
   xmlns:svg="http://www.w3.org/2000/svg">
  <defs
     id="defs3">
    <linearGradient
       id="linearGradient1"
       inkscape:collect="always">
      <stop
         style="stop-color:#4b4fe2ff;stop-opacity:1;"
         offset="0"
         id="stop1" />
      <stop
         style="stop-color:#a03291;stop-opacity:1;"
         offset="0.76340693"
         id="stop2" />
    </linearGradient>
    <linearGradient
       inkscape:collect="always"
       xlink:href="#linearGradient1"
       id="linearGradient2"
       x1="232.4884"
       y1="23.847498"
       x2="23.977745"
       y2="232.35815"
       gradientUnits="userSpaceOnUse" />
  </defs>
  <defs
     id="defs1" />
  <sodipodi:namedview
     id="namedview3"
     pagecolor="#ffffff"
     bordercolor="#000000"
     borderopacity="0.25"
     inkscape:showpageshadow="2"
     inkscape:pageopacity="0.0"
     inkscape:pagecheckerboard="0"
     inkscape:deskcolor="#d1d1d1" />
  <path
     id="polygon1"
     style="baseline-shift:baseline;display:inline;overflow:visible;vector-effect:none;fill:url(#linearGradient2);stroke-linecap:round;stroke-linejoin:round;enable-background:accumulate;stop-color:#000000;stop-opacity:1;opacity:1;fill-opacity:1"
     d="M 64 32 A 8.0008 8.0008 0 0 0 56.646484 36.849609 L 8.6464844 148.84961 A 8.0008 8.0008 0 0 0 16 160 L 120 160 L 120 208 L 96 208 A 8 8 0 0 0 88 216 A 8 8 0 0 0 96 224 L 160 224 A 8 8 0 0 0 168 216 A 8 8 0 0 0 160 208 L 136 208 L 136 160 L 192 160 L 192 192 A 8 8 0 0 0 200 200 A 8 8 0 0 0 208 192 L 208 160 L 240 160 A 8.0008 8.0008 0 0 0 247.35352 148.84961 L 199.35352 36.849609 A 8.0008 8.0008 0 0 0 192 32 L 64 32 z M 69.275391 48 L 186.72461 48 L 227.86719 144 L 200 144 L 28.132812 144 L 69.275391 48 z " />
</svg>
