<?xml version="1.0" encoding="UTF-8" standalone="no"?>
<svg
   viewBox="0 0 256 256"
   version="1.1"
   id="svg1"
   sodipodi:docname="lightning purple_blue.svg"
   xmlns:inkscape="http://www.inkscape.org/namespaces/inkscape"
   xmlns:sodipodi="http://sodipodi.sourceforge.net/DTD/sodipodi-0.dtd"
   xmlns:xlink="http://www.w3.org/1999/xlink"
   xmlns="http://www.w3.org/2000/svg"
   xmlns:svg="http://www.w3.org/2000/svg">
  <defs
     id="defs3">
    <linearGradient
       id="linearGradient1"
       inkscape:collect="always">
      <stop
         style="stop-color:#4b4fe2ff;stop-opacity:1;"
         offset="0"
         id="stop1" />
      <stop
         style="stop-color:#a03291;stop-opacity:1;"
         offset="0.76340693"
         id="stop2" />
    </linearGradient>
    <linearGradient
       inkscape:collect="always"
       xlink:href="#linearGradient1"
       id="linearGradient2"
       x1="232.4884"
       y1="23.847498"
       x2="23.977745"
       y2="232.35815"
       gradientUnits="userSpaceOnUse" />
  </defs>
  <defs
     id="defs1" />
  <sodipodi:namedview
     id="namedview1"
     pagecolor="#ffffff"
     bordercolor="#000000"
     borderopacity="0.25"
     inkscape:showpageshadow="2"
     inkscape:pageopacity="0.0"
     inkscape:pagecheckerboard="0"
     inkscape:deskcolor="#d1d1d1" />
  <path
     id="polygon1"
     style="baseline-shift:baseline;display:inline;overflow:visible;vector-effect:none;fill:url(#linearGradient2);stroke-linecap:round;stroke-linejoin:round;enable-background:accumulate;stop-color:#000000;stop-opacity:1;opacity:1;fill-opacity:1"
     d="M 160.3418 8.0097656 A 8.0008 8.0008 0 0 0 154.15234 10.541016 L 42.152344 130.54102 A 8.0008 8.0008 0 0 0 45.191406 143.49023 L 102.82031 165.10156 L 88.15625 238.43164 A 8.0008 8.0008 0 0 0 101.84766 245.45898 L 213.84766 125.45898 A 8.0008 8.0008 0 0 0 210.80859 112.50977 L 153.17969 90.898438 L 167.84375 17.568359 A 8.0008 8.0008 0 0 0 160.3418 8.0097656 z M 146.63281 42.044922 L 136.15625 94.431641 A 8.0008 8.0008 0 0 0 141.19141 103.49023 L 193.98828 123.28906 L 109.36719 213.95508 L 119.84375 161.56836 A 8.0008 8.0008 0 0 0 114.80859 152.50977 L 62.011719 132.71094 L 146.63281 42.044922 z " />
</svg>
