<?xml version="1.0" encoding="UTF-8" standalone="no"?>
<svg
   viewBox="0 0 256 256"
   version="1.1"
   id="svg6"
   sodipodi:docname="line segments purple_blue.svg"
   xmlns:inkscape="http://www.inkscape.org/namespaces/inkscape"
   xmlns:sodipodi="http://sodipodi.sourceforge.net/DTD/sodipodi-0.dtd"
   xmlns:xlink="http://www.w3.org/1999/xlink"
   xmlns="http://www.w3.org/2000/svg"
   xmlns:svg="http://www.w3.org/2000/svg">
  <defs
     id="defs3">
    <linearGradient
       id="linearGradient1"
       inkscape:collect="always">
      <stop
         style="stop-color:#4b4fe2ff;stop-opacity:1;"
         offset="0"
         id="stop1" />
      <stop
         style="stop-color:#a03291;stop-opacity:1;"
         offset="0.76340693"
         id="stop2" />
    </linearGradient>
    <linearGradient
       inkscape:collect="always"
       xlink:href="#linearGradient1"
       id="linearGradient2"
       x1="232.4884"
       y1="23.847498"
       x2="23.977745"
       y2="232.35815"
       gradientUnits="userSpaceOnUse" />
  </defs>
  <defs
     id="defs6" />
  <sodipodi:namedview
     id="namedview6"
     pagecolor="#ffffff"
     bordercolor="#000000"
     borderopacity="0.25"
     inkscape:showpageshadow="2"
     inkscape:pageopacity="0.0"
     inkscape:pagecheckerboard="0"
     inkscape:deskcolor="#d1d1d1" />
  <path
     id="circle1"
     style="baseline-shift:baseline;display:inline;overflow:visible;vector-effect:none;fill:url(#linearGradient2);stroke-linecap:round;stroke-linejoin:round;enable-background:accumulate;stop-color:#000000;stop-opacity:1;opacity:1;fill-opacity:1"
     d="M 216 24 C 198.42165 24 184 38.421645 184 56 C 184 65.226364 187.97386 73.583189 194.29102 79.441406 L 167.64453 128.93164 C 165.19216 128.32296 162.63168 128 160 128 C 154.09215 128 148.54052 129.62865 143.77344 132.45898 L 123.54102 112.22656 C 126.37135 107.45948 128 101.90785 128 96 C 128 78.421645 113.57835 64 96 64 C 78.421645 64 64 78.421645 64 96 C 64 105.22636 67.973864 113.58319 74.291016 119.44141 L 47.644531 168.93164 C 45.192157 168.32296 42.63168 168 40 168 C 22.421645 168 8 182.42165 8 200 C 8 217.57835 22.421645 232 40 232 C 57.578355 232 72 217.57835 72 200 C 72 190.77364 68.026136 182.41681 61.708984 176.55859 L 88.355469 127.06836 C 90.807843 127.67704 93.36832 128 96 128 C 101.90785 128 107.45948 126.37135 112.22656 123.54102 L 132.45898 143.77344 C 129.62865 148.54052 128 154.09215 128 160 C 128 177.57835 142.42165 192 160 192 C 177.57835 192 192 177.57835 192 160 C 192 150.77364 188.02614 142.41681 181.70898 136.55859 L 208.35547 87.068359 C 210.80784 87.677039 213.36832 88 216 88 C 233.57835 88 248 73.578355 248 56 C 248 38.421645 233.57835 24 216 24 z M 216 40 C 224.93131 40 232 47.068687 232 56 C 232 64.931313 224.93131 72 216 72 C 213.46081 72 211.07159 71.42931 208.95312 70.40625 A 8 8 0 0 0 208.41211 70.085938 A 8 8 0 0 0 207.80469 69.791016 C 203.10717 67.02438 200 61.921755 200 56 C 200 47.068687 207.06869 40 216 40 z M 96 80 C 104.93131 80 112 87.068687 112 96 C 112 100.19509 110.44087 103.97878 107.86133 106.8125 A 8 8 0 0 0 107.3125 107.3125 A 8 8 0 0 0 106.8125 107.86133 C 103.97891 110.44022 100.1945 112 96 112 C 93.4608 112 91.071586 111.42932 88.953125 110.40625 A 8 8 0 0 0 88.412109 110.08594 A 8 8 0 0 0 87.804688 109.79102 C 83.107155 107.02438 80 101.92176 80 96 C 80 87.068687 87.068687 80 96 80 z M 160 144 C 162.5392 144 164.92841 144.57068 167.04688 145.59375 A 8 8 0 0 0 167.58789 145.91406 A 8 8 0 0 0 168.19336 146.20898 C 172.89139 148.9755 176 154.07786 176 160 C 176 168.93131 168.93131 176 160 176 C 151.06869 176 144 168.93131 144 160 C 144 155.8055 145.55978 152.02109 148.13867 149.1875 A 8 8 0 0 0 148.6875 148.6875 A 8 8 0 0 0 149.1875 148.13867 C 152.02109 145.55978 155.8055 144 160 144 z M 40 184 C 42.5392 184 44.928414 184.57068 47.046875 185.59375 A 8 8 0 0 0 47.587891 185.91406 A 8 8 0 0 0 48.193359 186.20898 C 52.891393 188.9755 56 194.07786 56 200 C 56 208.93131 48.931313 216 40 216 C 31.068687 216 24 208.93131 24 200 C 24 191.06869 31.068687 184 40 184 z " />
</svg>
