<?xml version="1.0" encoding="UTF-8" standalone="no"?>
<svg
   viewBox="0 0 256 256"
   version="1.1"
   id="svg5"
   sodipodi:docname="list plus purple_blue.svg"
   xmlns:inkscape="http://www.inkscape.org/namespaces/inkscape"
   xmlns:sodipodi="http://sodipodi.sourceforge.net/DTD/sodipodi-0.dtd"
   xmlns:xlink="http://www.w3.org/1999/xlink"
   xmlns="http://www.w3.org/2000/svg"
   xmlns:svg="http://www.w3.org/2000/svg">
  <defs
     id="defs3">
    <linearGradient
       id="linearGradient1"
       inkscape:collect="always">
      <stop
         style="stop-color:#4b4fe2ff;stop-opacity:1;"
         offset="0"
         id="stop1" />
      <stop
         style="stop-color:#a03291;stop-opacity:1;"
         offset="0.76340693"
         id="stop2" />
    </linearGradient>
    <linearGradient
       inkscape:collect="always"
       xlink:href="#linearGradient1"
       id="linearGradient2"
       x1="232.4884"
       y1="23.847498"
       x2="23.977745"
       y2="232.35815"
       gradientUnits="userSpaceOnUse" />
  </defs>
  <defs
     id="defs5" />
  <sodipodi:namedview
     id="namedview5"
     pagecolor="#ffffff"
     bordercolor="#000000"
     borderopacity="0.25"
     inkscape:showpageshadow="2"
     inkscape:pageopacity="0.0"
     inkscape:pagecheckerboard="0"
     inkscape:deskcolor="#d1d1d1" />
  <path
     id="line1"
     style="baseline-shift:baseline;display:inline;overflow:visible;vector-effect:none;fill:url(#linearGradient2);stroke-linecap:round;stroke-linejoin:round;enable-background:accumulate;stop-color:#000000;stop-opacity:1;opacity:1;fill-opacity:1"
     d="M 40 56 A 8 8 0 0 0 32 64 A 8 8 0 0 0 40 72 L 216 72 A 8 8 0 0 0 224 64 A 8 8 0 0 0 216 56 L 40 56 z M 40 120 A 8 8 0 0 0 32 128 A 8 8 0 0 0 40 136 L 216 136 A 8 8 0 0 0 224 128 A 8 8 0 0 0 216 120 L 40 120 z M 208 160 A 8 8 0 0 0 200 168 L 200 184 L 184 184 A 8 8 0 0 0 176 192 A 8 8 0 0 0 184 200 L 200 200 L 200 216 A 8 8 0 0 0 208 224 A 8 8 0 0 0 216 216 L 216 200 L 232 200 A 8 8 0 0 0 240 192 A 8 8 0 0 0 232 184 L 216 184 L 216 168 A 8 8 0 0 0 208 160 z M 40 184 A 8 8 0 0 0 32 192 A 8 8 0 0 0 40 200 L 144 200 A 8 8 0 0 0 152 192 A 8 8 0 0 0 144 184 L 40 184 z " />
</svg>
