<?xml version="1.0" encoding="UTF-8" standalone="no"?>
<svg
   viewBox="0 0 256 256"
   version="1.1"
   id="svg5"
   sodipodi:docname="list checks purple_blue.svg"
   xmlns:inkscape="http://www.inkscape.org/namespaces/inkscape"
   xmlns:sodipodi="http://sodipodi.sourceforge.net/DTD/sodipodi-0.dtd"
   xmlns:xlink="http://www.w3.org/1999/xlink"
   xmlns="http://www.w3.org/2000/svg"
   xmlns:svg="http://www.w3.org/2000/svg">
  <defs
     id="defs3">
    <linearGradient
       id="linearGradient1"
       inkscape:collect="always">
      <stop
         style="stop-color:#4b4fe2ff;stop-opacity:1;"
         offset="0"
         id="stop1" />
      <stop
         style="stop-color:#a03291;stop-opacity:1;"
         offset="0.76340693"
         id="stop2" />
    </linearGradient>
    <linearGradient
       inkscape:collect="always"
       xlink:href="#linearGradient1"
       id="linearGradient2"
       x1="232.4884"
       y1="23.847498"
       x2="23.977745"
       y2="232.35815"
       gradientUnits="userSpaceOnUse" />
  </defs>
  <defs
     id="defs5" />
  <sodipodi:namedview
     id="namedview5"
     pagecolor="#ffffff"
     bordercolor="#000000"
     borderopacity="0.25"
     inkscape:showpageshadow="2"
     inkscape:pageopacity="0.0"
     inkscape:pagecheckerboard="0"
     inkscape:deskcolor="#d1d1d1" />
  <path
     id="line1"
     style="baseline-shift:baseline;display:inline;overflow:visible;vector-effect:none;fill:url(#linearGradient2);stroke-linecap:round;stroke-linejoin:round;enable-background:accumulate;stop-color:#000000;stop-opacity:1;opacity:1;fill-opacity:1"
     d="M 88 40 A 8 8 0 0 0 82.34375 42.34375 L 56 68.6875 L 45.65625 58.34375 A 8 8 0 0 0 34.34375 58.34375 A 8 8 0 0 0 34.34375 69.65625 L 50.34375 85.65625 A 8.0008 8.0008 0 0 0 61.65625 85.65625 L 93.65625 53.65625 A 8 8 0 0 0 93.65625 42.34375 A 8 8 0 0 0 88 40 z M 128 56 A 8 8 0 0 0 120 64 A 8 8 0 0 0 128 72 L 216 72 A 8 8 0 0 0 224 64 A 8 8 0 0 0 216 56 L 128 56 z M 88 104 A 8 8 0 0 0 82.34375 106.34375 L 56 132.6875 L 45.65625 122.34375 A 8 8 0 0 0 34.34375 122.34375 A 8 8 0 0 0 34.34375 133.65625 L 50.34375 149.65625 A 8.0008 8.0008 0 0 0 61.65625 149.65625 L 93.65625 117.65625 A 8 8 0 0 0 93.65625 106.34375 A 8 8 0 0 0 88 104 z M 128 120 A 8 8 0 0 0 120 128 A 8 8 0 0 0 128 136 L 216 136 A 8 8 0 0 0 224 128 A 8 8 0 0 0 216 120 L 128 120 z M 88 168 A 8 8 0 0 0 82.34375 170.34375 L 56 196.6875 L 45.65625 186.34375 A 8 8 0 0 0 34.34375 186.34375 A 8 8 0 0 0 34.34375 197.65625 L 50.34375 213.65625 A 8.0008 8.0008 0 0 0 61.65625 213.65625 L 93.65625 181.65625 A 8 8 0 0 0 93.65625 170.34375 A 8 8 0 0 0 88 168 z M 128 184 A 8 8 0 0 0 120 192 A 8 8 0 0 0 128 200 L 216 200 A 8 8 0 0 0 224 192 A 8 8 0 0 0 216 184 L 128 184 z " />
</svg>
