<?xml version="1.0" encoding="UTF-8" standalone="no"?>
<svg
   viewBox="0 0 256 256"
   version="1.1"
   id="svg3"
   sodipodi:docname="lock laminated open purple_blue.svg"
   xmlns:inkscape="http://www.inkscape.org/namespaces/inkscape"
   xmlns:sodipodi="http://sodipodi.sourceforge.net/DTD/sodipodi-0.dtd"
   xmlns:xlink="http://www.w3.org/1999/xlink"
   xmlns="http://www.w3.org/2000/svg"
   xmlns:svg="http://www.w3.org/2000/svg">
  <defs
     id="defs3">
    <linearGradient
       id="linearGradient1"
       inkscape:collect="always">
      <stop
         style="stop-color:#4b4fe2ff;stop-opacity:1;"
         offset="0"
         id="stop1" />
      <stop
         style="stop-color:#a03291;stop-opacity:1;"
         offset="0.76340693"
         id="stop2" />
    </linearGradient>
    <linearGradient
       inkscape:collect="always"
       xlink:href="#linearGradient1"
       id="linearGradient2"
       x1="232.4884"
       y1="23.847498"
       x2="23.977745"
       y2="232.35815"
       gradientUnits="userSpaceOnUse" />
  </defs>
  <defs
     id="defs1" />
  <sodipodi:namedview
     id="namedview3"
     pagecolor="#ffffff"
     bordercolor="#000000"
     borderopacity="0.25"
     inkscape:showpageshadow="2"
     inkscape:pageopacity="0.0"
     inkscape:pagecheckerboard="0"
     inkscape:deskcolor="#d1d1d1" />
  <path
     id="line1"
     style="baseline-shift:baseline;display:inline;overflow:visible;vector-effect:none;fill:url(#linearGradient2);stroke-linecap:round;stroke-linejoin:round;enable-background:accumulate;stop-color:#000000;stop-opacity:1;opacity:1;fill-opacity:1"
     d="M 128 8 C 101.58509 8 80 29.585089 80 56 L 80 80 L 48 80 C 39.274378 80 32 87.274378 32 96 L 32 208 C 32 216.72562 39.274378 224 48 224 L 208 224 C 216.72562 224 224 216.72562 224 208 L 224 96 C 224 87.274378 216.72562 80 208 80 L 96 80 L 96 56 C 96 38.232131 110.23213 24 128 24 C 143.56292 24 157.24034 35.222878 160.16016 49.59375 A 8 8 0 0 0 169.59375 55.839844 A 8 8 0 0 0 175.83984 46.40625 C 171.33966 24.257122 151.13708 8 128 8 z M 48 96 L 88 96 L 208 96 L 208 112 L 48 112 L 48 96 z M 48 128 L 208 128 L 208 144 L 48 144 L 48 128 z M 48 160 L 208 160 L 208 176 L 48 176 L 48 160 z M 48 192 L 208 192 L 208 208 L 48 208 L 48 192 z " />
</svg>
