<?xml version="1.0" encoding="UTF-8" standalone="no"?>
<svg
   viewBox="0 0 256 256"
   version="1.1"
   id="svg2"
   sodipodi:docname="map pin plus purple_blue.svg"
   xmlns:inkscape="http://www.inkscape.org/namespaces/inkscape"
   xmlns:sodipodi="http://sodipodi.sourceforge.net/DTD/sodipodi-0.dtd"
   xmlns:xlink="http://www.w3.org/1999/xlink"
   xmlns="http://www.w3.org/2000/svg"
   xmlns:svg="http://www.w3.org/2000/svg">
  <defs
     id="defs3">
    <linearGradient
       id="linearGradient1"
       inkscape:collect="always">
      <stop
         style="stop-color:#4b4fe2ff;stop-opacity:1;"
         offset="0"
         id="stop1" />
      <stop
         style="stop-color:#a03291;stop-opacity:1;"
         offset="0.76340693"
         id="stop2" />
    </linearGradient>
    <linearGradient
       inkscape:collect="always"
       xlink:href="#linearGradient1"
       id="linearGradient2"
       x1="232.4884"
       y1="23.847498"
       x2="23.977745"
       y2="232.35815"
       gradientUnits="userSpaceOnUse" />
  </defs>
  <defs
     id="defs2" />
  <sodipodi:namedview
     id="namedview2"
     pagecolor="#ffffff"
     bordercolor="#000000"
     borderopacity="0.25"
     inkscape:showpageshadow="2"
     inkscape:pageopacity="0.0"
     inkscape:pagecheckerboard="0"
     inkscape:deskcolor="#d1d1d1" />
  <path
     id="path1"
     style="baseline-shift:baseline;display:inline;overflow:visible;vector-effect:none;fill:url(#linearGradient2);stroke-linecap:round;stroke-linejoin:round;enable-background:accumulate;stop-color:#000000;stop-opacity:1;opacity:1;fill-opacity:1"
     d="M 128 16 C 79.493708 16 40 55.493672 40 104 C 40 181.92593 123.41211 238.55469 123.41211 238.55469 A 8.0008 8.0008 0 0 0 132.58789 238.55469 C 132.58789 238.55469 216 181.92593 216 104 C 216 55.493672 176.50629 16 128 16 z M 128 32 C 167.85927 32 200 64.140708 200 104 C 200 163.74089 140.00221 212.5061 128 221.73242 C 115.99779 212.5061 56 163.74089 56 104 C 56 64.140708 88.140734 32 128 32 z M 128 64 A 8 8 0 0 0 120 72 L 120 96 L 96 96 A 8 8 0 0 0 88 104 A 8 8 0 0 0 96 112 L 120 112 L 120 136 A 8 8 0 0 0 128 144 A 8 8 0 0 0 136 136 L 136 112 L 160 112 A 8 8 0 0 0 168 104 A 8 8 0 0 0 160 96 L 136 96 L 136 72 A 8 8 0 0 0 128 64 z " />
</svg>
