<?xml version="1.0" encoding="UTF-8" standalone="no"?>
<svg
   viewBox="0 0 256 256"
   version="1.1"
   id="svg2"
   sodipodi:docname="medal military purple_blue.svg"
   xmlns:inkscape="http://www.inkscape.org/namespaces/inkscape"
   xmlns:sodipodi="http://sodipodi.sourceforge.net/DTD/sodipodi-0.dtd"
   xmlns:xlink="http://www.w3.org/1999/xlink"
   xmlns="http://www.w3.org/2000/svg"
   xmlns:svg="http://www.w3.org/2000/svg">
  <defs
     id="defs3">
    <linearGradient
       id="linearGradient1"
       inkscape:collect="always">
      <stop
         style="stop-color:#4b4fe2ff;stop-opacity:1;"
         offset="0"
         id="stop1" />
      <stop
         style="stop-color:#a03291;stop-opacity:1;"
         offset="0.76340693"
         id="stop2" />
    </linearGradient>
    <linearGradient
       inkscape:collect="always"
       xlink:href="#linearGradient1"
       id="linearGradient2"
       x1="232.4884"
       y1="23.847498"
       x2="23.977745"
       y2="232.35815"
       gradientUnits="userSpaceOnUse" />
  </defs>
  <defs
     id="defs2" />
  <sodipodi:namedview
     id="namedview2"
     pagecolor="#ffffff"
     bordercolor="#000000"
     borderopacity="0.25"
     inkscape:showpageshadow="2"
     inkscape:pageopacity="0.0"
     inkscape:pagecheckerboard="0"
     inkscape:deskcolor="#d1d1d1" />
  <path
     id="circle1"
     style="baseline-shift:baseline;display:inline;overflow:visible;vector-effect:none;fill:url(#linearGradient2);stroke-linecap:round;stroke-linejoin:round;enable-background:accumulate;stop-color:#000000;stop-opacity:1;opacity:1;fill-opacity:1"
     d="M 49 40 C 39.705916 40 32 47.705916 32 57 L 32 106.19922 C 31.998 112.84912 35.914232 118.9334 41.96875 121.68359 L 84.556641 141.04102 A 8 8 0 0 0 84.826172 141.16406 L 104.57227 150.13867 C 89.934646 158.3814 80 174.0795 80 192 C 80 218.41491 101.58509 240 128 240 C 154.41491 240 176 218.41491 176 192 C 176 174.07951 166.06533 158.3814 151.42773 150.13867 L 171.18164 141.16016 A 8 8 0 0 0 171.44141 141.04297 L 214.02734 121.68555 C 220.08535 118.93568 224.00353 112.84822 224 106.19531 L 224 57 C 224 47.705916 216.29408 40 207 40 L 88 40 L 49 40 z M 49 56 L 80 56 L 80 121.39453 L 48.589844 107.11719 A 8.0008 8.0008 0 0 0 48.585938 107.11523 C 48.21032 106.94478 47.999781 106.61757 48 106.20508 A 8.0008 8.0008 0 0 0 48 106.19922 L 48 57 C 48 56.352958 48.352958 56 49 56 z M 96 56 L 160 56 L 160 128.66797 L 128 143.21289 L 96 128.66797 L 96 56 z M 176 56 L 207 56 C 207.64704 56 208 56.352958 208 57 L 208 106.19922 A 8.0008 8.0008 0 0 0 208 106.20508 C 208.00022 106.61757 207.78967 106.94474 207.41406 107.11523 A 8.0008 8.0008 0 0 0 207.41016 107.11719 L 176 121.39453 L 176 56 z M 127.94336 160 C 127.96217 159.99997 127.98118 160 128 160 A 8.0008 8.0008 0 0 0 128.05664 160 C 145.7982 160.0301 160 174.25095 160 192 C 160 209.76787 145.76787 224 128 224 C 110.23213 224 96 209.76787 96 192 C 96 174.25095 110.2018 160.0301 127.94336 160 z " />
</svg>
