<?xml version="1.0" encoding="UTF-8" standalone="no"?>
<svg
   viewBox="0 0 256 256"
   version="1.1"
   id="svg4"
   sodipodi:docname="microsoft powerpoint logo purple_blue.svg"
   xmlns:inkscape="http://www.inkscape.org/namespaces/inkscape"
   xmlns:sodipodi="http://sodipodi.sourceforge.net/DTD/sodipodi-0.dtd"
   xmlns:xlink="http://www.w3.org/1999/xlink"
   xmlns="http://www.w3.org/2000/svg"
   xmlns:svg="http://www.w3.org/2000/svg">
  <defs
     id="defs3">
    <linearGradient
       id="linearGradient1"
       inkscape:collect="always">
      <stop
         style="stop-color:#4b4fe2ff;stop-opacity:1;"
         offset="0"
         id="stop1" />
      <stop
         style="stop-color:#a03291;stop-opacity:1;"
         offset="0.76340693"
         id="stop2" />
    </linearGradient>
    <linearGradient
       inkscape:collect="always"
       xlink:href="#linearGradient1"
       id="linearGradient2"
       x1="232.4884"
       y1="23.847498"
       x2="23.977745"
       y2="232.35815"
       gradientUnits="userSpaceOnUse" />
  </defs>
  <defs
     id="defs4" />
  <sodipodi:namedview
     id="namedview4"
     pagecolor="#ffffff"
     bordercolor="#000000"
     borderopacity="0.25"
     inkscape:showpageshadow="2"
     inkscape:pageopacity="0.0"
     inkscape:pagecheckerboard="0"
     inkscape:deskcolor="#d1d1d1" />
  <path
     id="line1"
     style="baseline-shift:baseline;display:inline;overflow:visible;vector-effect:none;fill:url(#linearGradient2);stroke-linecap:round;stroke-linejoin:round;enable-background:accumulate;stop-color:#000000;stop-opacity:1;opacity:1;fill-opacity:1"
     d="M 136 24 A 8 8 0 0 0 135.86914 24.001953 C 135.65978 24.00226 135.4495 24.002334 135.24023 24.003906 C 103.99127 24.238751 73.832595 38.584941 53.998047 64 L 40 64 C 31.274378 64 24 71.274378 24 80 L 24 176 C 24 184.72562 31.274378 192 40 192 L 53.998047 192 C 73.988109 217.61436 104.46416 231.98618 135.97461 232 A 8 8 0 0 0 136 232 L 136.02148 232 A 8 8 0 0 0 137.14648 231.91211 C 147.38908 231.80122 157.72564 230.2533 167.83789 226.99805 C 210.53966 213.25182 239.6163 173.60074 239.95898 128.80078 A 8 8 0 0 0 240 128 A 8 8 0 0 0 239.95898 127.19922 C 239.6163 82.399261 210.53966 42.748181 167.83789 29.001953 C 157.39143 25.639107 146.70312 24.012965 136.12891 24.001953 A 8 8 0 0 0 136 24 z M 128 40.347656 L 128 64 L 75.5625 64 C 90.007314 50.347903 108.54013 42.117217 128 40.347656 z M 144 40.355469 C 150.33982 40.939645 156.68663 42.220819 162.93555 44.232422 C 196.77707 55.126429 220.43955 85.107647 223.60156 120 L 160 120 L 160 80 C 160 71.274378 152.72562 64 144 64 L 144 40.355469 z M 40 80 L 144 80 L 144 176 L 40 176 L 40 80 z M 80 96 A 8.0008 8.0008 0 0 0 72 104 L 72 136 L 72 152 A 8 8 0 0 0 80 160 A 8 8 0 0 0 88 152 L 88 144 L 96 144 C 109.16008 144 120 133.16007 120 120 C 120 106.83993 109.16008 96 96 96 L 80 96 z M 88 112 L 96 112 C 100.51304 112 104 115.48696 104 120 C 104 124.51304 100.51304 128 96 128 L 88 128 L 88 112 z M 160 136 L 223.60156 136 C 220.43955 170.89235 196.77707 200.87357 162.93555 211.76758 C 156.68663 213.77918 150.33982 215.06036 144 215.64453 L 144 192 C 152.72562 192 160 184.72562 160 176 L 160 136 z M 75.5625 192 L 128 192 L 128 215.65234 C 108.54014 213.88278 90.007313 205.6521 75.5625 192 z " />
</svg>
