<?xml version="1.0" encoding="UTF-8" standalone="no"?>
<svg
   viewBox="0 0 256 256"
   version="1.1"
   id="svg1"
   sodipodi:docname="navigation arrow purple_blue.svg"
   xmlns:inkscape="http://www.inkscape.org/namespaces/inkscape"
   xmlns:sodipodi="http://sodipodi.sourceforge.net/DTD/sodipodi-0.dtd"
   xmlns:xlink="http://www.w3.org/1999/xlink"
   xmlns="http://www.w3.org/2000/svg"
   xmlns:svg="http://www.w3.org/2000/svg">
  <defs
     id="defs3">
    <linearGradient
       id="linearGradient1"
       inkscape:collect="always">
      <stop
         style="stop-color:#4b4fe2ff;stop-opacity:1;"
         offset="0"
         id="stop1" />
      <stop
         style="stop-color:#a03291;stop-opacity:1;"
         offset="0.76340693"
         id="stop2" />
    </linearGradient>
    <linearGradient
       inkscape:collect="always"
       xlink:href="#linearGradient1"
       id="linearGradient2"
       x1="232.4884"
       y1="23.847498"
       x2="23.977745"
       y2="232.35815"
       gradientUnits="userSpaceOnUse" />
  </defs>
  <defs
     id="defs1" />
  <sodipodi:namedview
     id="namedview1"
     pagecolor="#ffffff"
     bordercolor="#000000"
     borderopacity="0.25"
     inkscape:showpageshadow="2"
     inkscape:pageopacity="0.0"
     inkscape:pagecheckerboard="0"
     inkscape:deskcolor="#d1d1d1" />
  <path
     id="path1"
     style="baseline-shift:baseline;display:inline;overflow:visible;vector-effect:none;fill:url(#linearGradient2);stroke-linecap:round;stroke-linejoin:round;enable-background:accumulate;stop-color:#000000;stop-opacity:1;opacity:1;fill-opacity:1"
     d="M 56.695312 40.132812 C 46.317378 39.899631 37.329225 50.613919 40.875 61.175781 A 8.0008 8.0008 0 0 0 40.958984 61.412109 L 106.20898 237.32617 C 106.20967 237.32813 106.21025 237.33007 106.21094 237.33203 C 108.61664 244.16044 115.34613 248.12444 121.58594 248.01367 C 127.85228 247.90244 134.46644 243.66511 136.59961 236.70312 A 8.0008 8.0008 0 0 0 136.6543 236.51562 L 158.48828 158.49414 L 236.50195 136.70508 A 8.0008 8.0008 0 0 0 236.69336 136.64844 C 243.65533 134.51527 247.89267 127.90111 248.00391 121.63477 C 248.11467 115.39494 244.1507 108.66545 237.32227 106.25977 L 237.31641 106.25781 L 61.402344 41.009766 A 8.0008 8.0008 0 0 0 61.195312 40.935547 C 59.688485 40.42306 58.177875 40.166123 56.695312 40.132812 z M 56.050781 56.087891 L 231.83789 121.29102 A 8.0008 8.0008 0 0 0 232 121.34961 L 149.84766 144.29492 A 8.0008 8.0008 0 0 0 144.29688 149.84375 L 121.29883 232.01172 A 8.0008 8.0008 0 0 0 121.24023 231.84766 L 56.050781 56.087891 z " />
</svg>
