<?xml version="1.0" encoding="UTF-8" standalone="no"?>
<svg
   viewBox="0 0 256 256"
   version="1.1"
   id="svg2"
   sodipodi:docname="not member of purple_blue.svg"
   xmlns:inkscape="http://www.inkscape.org/namespaces/inkscape"
   xmlns:sodipodi="http://sodipodi.sourceforge.net/DTD/sodipodi-0.dtd"
   xmlns:xlink="http://www.w3.org/1999/xlink"
   xmlns="http://www.w3.org/2000/svg"
   xmlns:svg="http://www.w3.org/2000/svg">
  <defs
     id="defs3">
    <linearGradient
       id="linearGradient1"
       inkscape:collect="always">
      <stop
         style="stop-color:#4b4fe2ff;stop-opacity:1;"
         offset="0"
         id="stop1" />
      <stop
         style="stop-color:#a03291;stop-opacity:1;"
         offset="0.76340693"
         id="stop2" />
    </linearGradient>
    <linearGradient
       inkscape:collect="always"
       xlink:href="#linearGradient1"
       id="linearGradient2"
       x1="232.4884"
       y1="23.847498"
       x2="23.977745"
       y2="232.35815"
       gradientUnits="userSpaceOnUse" />
  </defs>
  <defs
     id="defs2" />
  <sodipodi:namedview
     id="namedview2"
     pagecolor="#ffffff"
     bordercolor="#000000"
     borderopacity="0.25"
     inkscape:showpageshadow="2"
     inkscape:pageopacity="0.0"
     inkscape:pagecheckerboard="0"
     inkscape:deskcolor="#d1d1d1" />
  <path
     id="line1"
     style="baseline-shift:baseline;display:inline;overflow:visible;vector-effect:none;fill:url(#linearGradient2);stroke-linecap:round;stroke-linejoin:round;enable-background:accumulate;stop-color:#000000;stop-opacity:1;opacity:1;fill-opacity:1"
     d="M 207.61914 32.009766 A 8 8 0 0 0 202.08008 34.619141 L 197.1875 40 L 128 40 C 79.493699 40 40 79.493699 40 128 C 40 150.88082 48.787954 171.75695 63.164062 187.42773 L 42.080078 210.61914 A 8 8 0 0 0 42.619141 221.91992 A 8 8 0 0 0 53.919922 221.38086 L 74.998047 198.19531 C 89.75231 209.36559 108.11901 216 128 216 L 200 216 A 8 8 0 0 0 208 208 A 8 8 0 0 0 200 200 L 128 200 C 112.19679 200 97.606507 194.94774 85.751953 186.36523 L 131.53906 136 L 200 136 A 8 8 0 0 0 208 128 A 8 8 0 0 0 200 120 L 146.08398 120 L 213.91992 45.380859 A 8 8 0 0 0 213.38086 34.080078 A 8 8 0 0 0 207.61914 32.009766 z M 128 56 L 182.64258 56 L 124.46094 120 L 56.435547 120 C 60.396712 83.926754 90.845492 56 128 56 z M 56.435547 136 L 109.91602 136 L 73.914062 175.60156 C 64.407505 164.80176 58.09546 151.11637 56.435547 136 z " />
</svg>
