<?xml version="1.0" encoding="UTF-8" standalone="no"?>
<svg
   viewBox="0 0 256 256"
   version="1.1"
   id="svg1"
   sodipodi:docname="note pencil purple_blue.svg"
   xmlns:inkscape="http://www.inkscape.org/namespaces/inkscape"
   xmlns:sodipodi="http://sodipodi.sourceforge.net/DTD/sodipodi-0.dtd"
   xmlns:xlink="http://www.w3.org/1999/xlink"
   xmlns="http://www.w3.org/2000/svg"
   xmlns:svg="http://www.w3.org/2000/svg">
  <defs
     id="defs3">
    <linearGradient
       id="linearGradient1"
       inkscape:collect="always">
      <stop
         style="stop-color:#4b4fe2ff;stop-opacity:1;"
         offset="0"
         id="stop1" />
      <stop
         style="stop-color:#a03291;stop-opacity:1;"
         offset="0.76340693"
         id="stop2" />
    </linearGradient>
    <linearGradient
       inkscape:collect="always"
       xlink:href="#linearGradient1"
       id="linearGradient2"
       x1="232.4884"
       y1="23.847498"
       x2="23.977745"
       y2="232.35815"
       gradientUnits="userSpaceOnUse" />
  </defs>
  <defs
     id="defs1" />
  <sodipodi:namedview
     id="namedview1"
     pagecolor="#ffffff"
     bordercolor="#000000"
     borderopacity="0.25"
     inkscape:showpageshadow="2"
     inkscape:pageopacity="0.0"
     inkscape:pagecheckerboard="0"
     inkscape:deskcolor="#d1d1d1" />
  <path
     id="polygon1"
     style="baseline-shift:baseline;display:inline;overflow:visible;vector-effect:none;fill:url(#linearGradient2);stroke-linecap:round;stroke-linejoin:round;enable-background:accumulate;stop-color:#000000;stop-opacity:1;opacity:1;fill-opacity:1"
     d="M 192 24 A 8.0008 8.0008 0 0 0 186.34375 26.34375 L 162.3457 50.341797 A 8 8 0 0 0 162.34375 50.34375 L 90.34375 122.34375 A 8.0008 8.0008 0 0 0 88 128 L 88 160 A 8.0008 8.0008 0 0 0 96 168 L 128 168 A 8.0008 8.0008 0 0 0 133.65625 165.65625 L 229.65625 69.65625 A 8.0008 8.0008 0 0 0 229.65625 58.34375 L 197.65625 26.34375 A 8.0008 8.0008 0 0 0 192 24 z M 48 32 C 39.258201 32 32 39.258201 32 48 L 32 208 C 32 216.7418 39.258201 224 48 224 L 208 224 C 216.7418 224 224 216.7418 224 208 L 224 128 A 8 8 0 0 0 216 120 A 8 8 0 0 0 208 128 L 208 208 L 48 208 L 48 48 L 128 48 A 8 8 0 0 0 136 40 A 8 8 0 0 0 128 32 L 48 32 z M 192 43.3125 L 212.6875 64 L 200 76.6875 L 179.3125 56 L 192 43.3125 z M 168 67.3125 L 188.6875 88 L 124.6875 152 L 104 152 L 104 131.31445 L 168 67.3125 z " />
</svg>
