<?xml version="1.0" encoding="UTF-8" standalone="no"?>
<svg
   viewBox="0 0 256 256"
   version="1.1"
   id="svg2"
   sodipodi:docname="ny times logo purple_blue.svg"
   xmlns:inkscape="http://www.inkscape.org/namespaces/inkscape"
   xmlns:sodipodi="http://sodipodi.sourceforge.net/DTD/sodipodi-0.dtd"
   xmlns:xlink="http://www.w3.org/1999/xlink"
   xmlns="http://www.w3.org/2000/svg"
   xmlns:svg="http://www.w3.org/2000/svg">
  <defs
     id="defs3">
    <linearGradient
       id="linearGradient1"
       inkscape:collect="always">
      <stop
         style="stop-color:#4b4fe2ff;stop-opacity:1;"
         offset="0"
         id="stop1" />
      <stop
         style="stop-color:#a03291;stop-opacity:1;"
         offset="0.76340693"
         id="stop2" />
    </linearGradient>
    <linearGradient
       inkscape:collect="always"
       xlink:href="#linearGradient1"
       id="linearGradient2"
       x1="232.4884"
       y1="23.847498"
       x2="23.977745"
       y2="232.35815"
       gradientUnits="userSpaceOnUse" />
  </defs>
  <defs
     id="defs2" />
  <sodipodi:namedview
     id="namedview2"
     pagecolor="#ffffff"
     bordercolor="#000000"
     borderopacity="0.25"
     inkscape:showpageshadow="2"
     inkscape:pageopacity="0.0"
     inkscape:pagecheckerboard="0"
     inkscape:deskcolor="#d1d1d1" />
  <path
     id="circle1"
     style="baseline-shift:baseline;display:inline;overflow:visible;vector-effect:none;fill:url(#linearGradient2);stroke-linecap:round;stroke-linejoin:round;enable-background:accumulate;stop-color:#000000;stop-opacity:1;opacity:1;fill-opacity:1"
     d="M 68 32 C 49.145264 31.997904 33.365856 46.734087 32.080078 65.544922 C 31.073564 80.27014 39.205631 93.731183 51.746094 100.11328 C 49.912698 103.30103 48.267748 106.62382 46.828125 110.07031 C 40.863867 124.34891 38.879877 139.65204 40.662109 154.48242 A 8 8 0 0 0 40.884766 156.19336 C 43.068337 171.78257 49.425765 186.78282 59.703125 199.44531 C 68.535869 210.32793 79.655265 218.73193 92.005859 224.27148 A 8 8 0 0 0 93.632812 224.98242 C 104.29015 229.50684 115.81633 231.92089 127.54883 231.98633 A 8 8 0 0 0 128 232 A 8 8 0 0 0 128.44336 231.98828 C 133.78263 231.96364 139.1616 231.45127 144.51758 230.42969 C 176.3226 224.36327 202.25268 201.2862 211.9707 170.40039 A 8 8 0 0 0 206.74023 160.36914 A 8 8 0 0 0 196.70898 165.59961 C 188.74982 190.89542 167.56803 209.74446 141.51953 214.71289 C 139.68137 215.0635 137.8403 215.3413 136 215.54688 L 136 112 A 8.0008 8.0008 0 0 0 129.56641 104.15625 A 8.0008 8.0008 0 0 0 124.23633 104.94141 L 56.074219 141.29102 C 56.392216 132.81296 58.211784 124.32817 61.591797 116.23633 C 71.536603 92.428182 93.394768 75.832654 118.87891 72.572266 L 184.61719 103.25 A 8.0008 8.0008 0 0 0 188 104 C 207.7875 104 224 87.787486 224 68 C 224 48.212514 207.7875 32 188 32 A 8 8 0 0 0 180 40 A 8 8 0 0 0 188 48 C 199.14047 48 208 56.859541 208 68 C 208 78.637875 199.89342 87.104947 189.46484 87.855469 L 123.82031 57.220703 L 123.81641 57.21875 A 8 8 0 0 0 123.40234 57.025391 L 71.382812 32.75 A 8.0008 8.0008 0 0 0 68 32 z M 66.523438 48.140625 L 96.150391 61.966797 C 82.604958 67.234962 70.571908 75.782836 61.144531 86.802734 C 52.889712 83.833898 47.419608 75.756433 48.042969 66.636719 C 48.730932 56.571875 56.625437 48.860294 66.523438 48.140625 z M 120 125.33203 L 120 215.54492 C 114.52597 214.93127 109.15827 213.6913 104 211.86523 L 104 133.86523 L 120 125.33203 z M 172 136 A 12 12 0 0 0 160 148 A 12 12 0 0 0 172 160 A 12 12 0 0 0 184 148 A 12 12 0 0 0 172 136 z M 88 142.39648 L 88 203.8418 C 82.100296 199.89528 76.735095 195.04132 72.125 189.36133 C 64.741131 180.26383 59.831001 169.70579 57.53125 158.64453 L 88 142.39648 z " />
</svg>
