<?xml version="1.0" encoding="UTF-8" standalone="no"?>
<svg
   viewBox="0 0 256 256"
   version="1.1"
   id="svg3"
   sodipodi:docname="paint brush purple_blue.svg"
   xmlns:inkscape="http://www.inkscape.org/namespaces/inkscape"
   xmlns:sodipodi="http://sodipodi.sourceforge.net/DTD/sodipodi-0.dtd"
   xmlns:xlink="http://www.w3.org/1999/xlink"
   xmlns="http://www.w3.org/2000/svg"
   xmlns:svg="http://www.w3.org/2000/svg">
  <defs
     id="defs3">
    <linearGradient
       id="linearGradient1"
       inkscape:collect="always">
      <stop
         style="stop-color:#4b4fe2ff;stop-opacity:1;"
         offset="0"
         id="stop1" />
      <stop
         style="stop-color:#a03291;stop-opacity:1;"
         offset="0.76340693"
         id="stop2" />
    </linearGradient>
    <linearGradient
       inkscape:collect="always"
       xlink:href="#linearGradient1"
       id="linearGradient2"
       x1="232.4884"
       y1="23.847498"
       x2="23.977745"
       y2="232.35815"
       gradientUnits="userSpaceOnUse" />
  </defs>
  <defs
     id="defs1" />
  <sodipodi:namedview
     id="namedview3"
     pagecolor="#ffffff"
     bordercolor="#000000"
     borderopacity="0.25"
     inkscape:showpageshadow="2"
     inkscape:pageopacity="0.0"
     inkscape:pagecheckerboard="0"
     inkscape:deskcolor="#d1d1d1" />
  <path
     id="path1"
     style="baseline-shift:baseline;display:inline;overflow:visible;vector-effect:none;fill:url(#linearGradient2);stroke-linecap:round;stroke-linejoin:round;enable-background:accumulate;stop-color:#000000;stop-opacity:1;opacity:1;fill-opacity:1"
     d="M 224 24 C 198.2401 24 173.97343 40.004581 153.36914 58.412109 C 143.68876 67.060401 134.99389 76.245639 127.2793 85.050781 A 8 8 0 0 0 126.48242 86.019531 C 120.01588 93.455688 114.0919 100.70194 109.5625 106.63867 C 104.85187 105.19787 99.976076 104.33927 95.050781 104.08594 C 86.322843 103.63701 77.43869 105.08925 69.039062 108.56836 C 46.640023 117.84599 32 139.75524 32 164 C 32 196.44444 11.5625 209.34375 11.5625 209.34375 A 8.0008 8.0008 0 0 0 16 224 L 92 224 C 116.24476 224 138.15401 209.35998 147.43164 186.96094 C 152.87405 173.82129 153.35493 159.49588 149.36133 146.4375 C 155.41304 141.82039 162.61145 136.07858 170.20703 129.45312 A 8 8 0 0 0 171.11914 128.6543 C 179.83769 120.9995 189.0353 112.20411 197.58789 102.63086 C 215.99542 82.026573 232 57.759897 232 32 A 8.0008 8.0008 0 0 0 224 24 z M 214.97266 41.027344 C 211.69609 57.585429 200.17411 75.720274 185.65625 91.970703 C 179.72075 98.614547 173.37136 104.93296 167.07812 110.74609 C 161.07587 102.30259 153.69456 94.927475 145.24609 88.931641 C 151.06149 82.635501 157.38233 76.282042 164.0293 70.34375 C 180.27973 55.825885 198.41457 44.303909 214.97266 41.027344 z M 134.5918 101.01367 C 142.62688 106.45171 149.55268 113.37079 154.99805 121.40039 C 150.55932 125.1461 146.3171 128.5536 142.46289 131.55078 C 140.17691 127.99362 137.49302 124.64536 134.42383 121.57617 C 131.35464 118.50698 128.00631 115.82319 124.44922 113.53711 C 127.44402 109.68597 130.8496 105.44855 134.5918 101.01367 z M 94.244141 120.04883 C 104.90391 120.59248 115.23611 125.01346 123.11133 132.88867 C 135.71167 145.48901 139.46904 164.37558 132.65039 180.83789 C 125.83172 197.30025 109.81927 208 92 208 L 34.318359 208 C 41.17484 198.27975 48 183.68032 48 164 C 48 146.18073 58.699751 130.16828 75.162109 123.34961 C 81.335477 120.79262 87.84828 119.72264 94.244141 120.04883 z " />
</svg>
