<?xml version="1.0" encoding="UTF-8" standalone="no"?>
<svg
   viewBox="0 0 256 256"
   version="1.1"
   id="svg2"
   sodipodi:docname="paint roller purple_blue.svg"
   xmlns:inkscape="http://www.inkscape.org/namespaces/inkscape"
   xmlns:sodipodi="http://sodipodi.sourceforge.net/DTD/sodipodi-0.dtd"
   xmlns:xlink="http://www.w3.org/1999/xlink"
   xmlns="http://www.w3.org/2000/svg"
   xmlns:svg="http://www.w3.org/2000/svg">
  <defs
     id="defs3">
    <linearGradient
       id="linearGradient1"
       inkscape:collect="always">
      <stop
         style="stop-color:#4b4fe2ff;stop-opacity:1;"
         offset="0"
         id="stop1" />
      <stop
         style="stop-color:#a03291;stop-opacity:1;"
         offset="0.76340693"
         id="stop2" />
    </linearGradient>
    <linearGradient
       inkscape:collect="always"
       xlink:href="#linearGradient1"
       id="linearGradient2"
       x1="232.4884"
       y1="23.847498"
       x2="23.977745"
       y2="232.35815"
       gradientUnits="userSpaceOnUse" />
  </defs>
  <defs
     id="defs2" />
  <sodipodi:namedview
     id="namedview2"
     pagecolor="#ffffff"
     bordercolor="#000000"
     borderopacity="0.25"
     inkscape:showpageshadow="2"
     inkscape:pageopacity="0.0"
     inkscape:pagecheckerboard="0"
     inkscape:deskcolor="#d1d1d1" />
  <path
     id="rect2"
     style="baseline-shift:baseline;display:inline;overflow:visible;vector-effect:none;fill:url(#linearGradient2);stroke-linecap:round;stroke-linejoin:round;enable-background:accumulate;stop-color:#000000;stop-opacity:1;opacity:1;fill-opacity:1"
     d="M 48 48 C 39.274378 48 32 55.274378 32 64 L 32 88 L 16 88 A 8 8 0 0 0 8 96 A 8 8 0 0 0 16 104 L 32 104 L 32 128 C 32 136.72562 39.274378 144 48 144 L 200 144 C 208.72562 144 216 136.72562 216 128 L 216 104 L 232 104 L 232 153.99805 L 232 154 L 131.60547 182.64648 A 8.0008 8.0008 0 0 0 131.59961 182.64844 C 124.78993 184.59614 120.02795 190.88592 120 197.96875 A 8.0008 8.0008 0 0 0 120 198 L 120 232 A 8 8 0 0 0 128 240 A 8 8 0 0 0 136 232 L 136 198.03125 L 236.39453 169.38281 A 8.0008 8.0008 0 0 0 236.40039 169.38086 C 243.2309 167.42715 247.99862 161.10652 248 154.00195 A 8.0008 8.0008 0 0 0 248 154 L 248 104 C 248 95.258201 240.7418 88 232 88 L 216 88 L 216 64 C 216 55.274378 208.72562 48 200 48 L 48 48 z M 48 64 L 200 64 L 200 128 L 48 128 L 48 96 L 48 64 z " />
</svg>
