<?xml version="1.0" encoding="UTF-8" standalone="no"?>
<svg
   viewBox="0 0 256 256"
   version="1.1"
   id="svg11"
   sodipodi:docname="password purple_blue.svg"
   xmlns:inkscape="http://www.inkscape.org/namespaces/inkscape"
   xmlns:sodipodi="http://sodipodi.sourceforge.net/DTD/sodipodi-0.dtd"
   xmlns:xlink="http://www.w3.org/1999/xlink"
   xmlns="http://www.w3.org/2000/svg"
   xmlns:svg="http://www.w3.org/2000/svg">
  <defs
     id="defs3">
    <linearGradient
       id="linearGradient1"
       inkscape:collect="always">
      <stop
         style="stop-color:#4b4fe2ff;stop-opacity:1;"
         offset="0"
         id="stop1" />
      <stop
         style="stop-color:#a03291;stop-opacity:1;"
         offset="0.76340693"
         id="stop2" />
    </linearGradient>
    <linearGradient
       inkscape:collect="always"
       xlink:href="#linearGradient1"
       id="linearGradient2"
       x1="232.4884"
       y1="23.847498"
       x2="23.977745"
       y2="232.35815"
       gradientUnits="userSpaceOnUse" />
  </defs>
  <defs
     id="defs11" />
  <sodipodi:namedview
     id="namedview11"
     pagecolor="#ffffff"
     bordercolor="#000000"
     borderopacity="0.25"
     inkscape:showpageshadow="2"
     inkscape:pageopacity="0.0"
     inkscape:pagecheckerboard="0"
     inkscape:deskcolor="#d1d1d1" />
  <path
     id="line1"
     style="baseline-shift:baseline;display:inline;overflow:visible;vector-effect:none;fill:url(#linearGradient2);stroke-linecap:round;stroke-linejoin:round;enable-background:accumulate;stop-color:#000000;stop-opacity:1;opacity:1;fill-opacity:1"
     d="M 40 48 A 8 8 0 0 0 32 56 L 32 200 A 8 8 0 0 0 40 208 A 8 8 0 0 0 48 200 L 48 56 A 8 8 0 0 0 40 48 z M 112 88 A 8 8 0 0 0 104 96 L 104 116.98828 L 84.042969 110.50195 A 8 8 0 0 0 73.960938 115.63672 A 8 8 0 0 0 79.097656 125.71875 L 99.056641 132.20508 L 86.71875 149.1875 A 8 8 0 0 0 88.488281 160.36133 A 8 8 0 0 0 99.662109 158.5918 L 112 141.61133 L 124.33789 158.5918 A 8 8 0 0 0 135.51172 160.36133 A 8 8 0 0 0 137.28125 149.1875 L 124.94336 132.20508 L 144.90234 125.71875 A 8 8 0 0 0 150.03906 115.63672 A 8 8 0 0 0 139.95703 110.50195 L 120 116.98828 L 120 96 A 8 8 0 0 0 112 88 z M 208 88 A 8 8 0 0 0 200 96 L 200 116.98828 L 180.04297 110.50195 A 8 8 0 0 0 169.96094 115.63672 A 8 8 0 0 0 175.09766 125.71875 L 195.05664 132.20508 L 182.71875 149.1875 A 8 8 0 0 0 184.48828 160.36133 A 8 8 0 0 0 195.66211 158.5918 L 208 141.61133 L 220.33789 158.5918 A 8 8 0 0 0 231.51172 160.36133 A 8 8 0 0 0 233.28125 149.1875 L 220.94336 132.20508 L 240.90234 125.71875 A 8 8 0 0 0 246.03906 115.63672 A 8 8 0 0 0 235.95703 110.50195 L 216 116.98828 L 216 96 A 8 8 0 0 0 208 88 z " />
</svg>
