<?xml version="1.0" encoding="UTF-8" standalone="no"?>
<svg
   viewBox="0 0 256 256"
   version="1.1"
   id="svg7"
   sodipodi:docname="pencil ruler purple_blue.svg"
   xmlns:inkscape="http://www.inkscape.org/namespaces/inkscape"
   xmlns:sodipodi="http://sodipodi.sourceforge.net/DTD/sodipodi-0.dtd"
   xmlns:xlink="http://www.w3.org/1999/xlink"
   xmlns="http://www.w3.org/2000/svg"
   xmlns:svg="http://www.w3.org/2000/svg">
  <defs
     id="defs3">
    <linearGradient
       id="linearGradient1"
       inkscape:collect="always">
      <stop
         style="stop-color:#4b4fe2ff;stop-opacity:1;"
         offset="0"
         id="stop1" />
      <stop
         style="stop-color:#a03291;stop-opacity:1;"
         offset="0.76340693"
         id="stop2" />
    </linearGradient>
    <linearGradient
       inkscape:collect="always"
       xlink:href="#linearGradient1"
       id="linearGradient2"
       x1="232.4884"
       y1="23.847498"
       x2="23.977745"
       y2="232.35815"
       gradientUnits="userSpaceOnUse" />
  </defs>
  <defs
     id="defs7" />
  <sodipodi:namedview
     id="namedview7"
     pagecolor="#ffffff"
     bordercolor="#000000"
     borderopacity="0.25"
     inkscape:showpageshadow="2"
     inkscape:pageopacity="0.0"
     inkscape:pagecheckerboard="0"
     inkscape:deskcolor="#d1d1d1" />
  <path
     id="rect2"
     style="baseline-shift:baseline;display:inline;overflow:visible;vector-effect:none;fill:url(#linearGradient2);stroke-linecap:round;stroke-linejoin:round;enable-background:accumulate;stop-color:#000000;stop-opacity:1;opacity:1;fill-opacity:1"
     d="M 72 24 A 8.0008 8.0008 0 0 0 66.34375 26.34375 L 34.34375 58.34375 A 8.0008 8.0008 0 0 0 32 64 L 32 184 L 32 208 C 32 216.7418 39.258201 224 48 224 L 96 224 C 104.7418 224 112 216.7418 112 208 L 112 184 L 112 64 A 8.0008 8.0008 0 0 0 109.65625 58.34375 L 77.65625 26.34375 A 8.0008 8.0008 0 0 0 72 24 z M 160 32 C 151.27438 32 144 39.274378 144 48 L 144 208 C 144 216.72562 151.27438 224 160 224 L 208 224 C 216.72562 224 224 216.72562 224 208 L 224 48 C 224 39.274378 216.72562 32 208 32 L 160 32 z M 72 43.3125 L 92.685547 64 L 51.3125 64 L 72 43.3125 z M 160 48 L 208 48 L 208 208 L 160 208 L 160 176 L 184 176 A 8 8 0 0 0 192 168 A 8 8 0 0 0 184 160 L 160 160 L 160 136 L 184 136 A 8 8 0 0 0 192 128 A 8 8 0 0 0 184 120 L 160 120 L 160 96 L 184 96 A 8 8 0 0 0 192 88 A 8 8 0 0 0 184 80 L 160 80 L 160 48 z M 48 80 L 64 80 L 64 176 L 48 176 L 48 80 z M 80 80 L 96 80 L 96 176 L 80 176 L 80 80 z M 48 192 L 72 192 L 96 192 L 96 208 L 48 208 L 48 192 z " />
</svg>
