<?xml version="1.0" encoding="UTF-8" standalone="no"?>
<svg
   viewBox="0 0 256 256"
   version="1.1"
   id="svg1"
   sodipodi:docname="person purple_blue.svg"
   xmlns:inkscape="http://www.inkscape.org/namespaces/inkscape"
   xmlns:sodipodi="http://sodipodi.sourceforge.net/DTD/sodipodi-0.dtd"
   xmlns:xlink="http://www.w3.org/1999/xlink"
   xmlns="http://www.w3.org/2000/svg"
   xmlns:svg="http://www.w3.org/2000/svg">
  <defs
     id="defs3">
    <linearGradient
       id="linearGradient1"
       inkscape:collect="always">
      <stop
         style="stop-color:#4b4fe2ff;stop-opacity:1;"
         offset="0"
         id="stop1" />
      <stop
         style="stop-color:#a03291;stop-opacity:1;"
         offset="0.76340693"
         id="stop2" />
    </linearGradient>
    <linearGradient
       inkscape:collect="always"
       xlink:href="#linearGradient1"
       id="linearGradient2"
       x1="232.4884"
       y1="23.847498"
       x2="23.977745"
       y2="232.35815"
       gradientUnits="userSpaceOnUse" />
  </defs>
  <defs
     id="defs1" />
  <sodipodi:namedview
     id="namedview1"
     pagecolor="#ffffff"
     bordercolor="#000000"
     borderopacity="0.25"
     inkscape:showpageshadow="2"
     inkscape:pageopacity="0.0"
     inkscape:pagecheckerboard="0"
     inkscape:deskcolor="#d1d1d1" />
  <path
     id="circle1"
     style="baseline-shift:baseline;display:inline;overflow:visible;vector-effect:none;fill:url(#linearGradient2);stroke-linecap:round;stroke-linejoin:round;enable-background:accumulate;stop-color:#000000;stop-opacity:1;opacity:1;fill-opacity:1"
     d="M 128 8 C 110.42165 8 96 22.421645 96 40 C 96 57.578355 110.42165 72 128 72 C 145.57835 72 160 57.578355 160 40 C 160 22.421645 145.57835 8 128 8 z M 128 72 L 106.83008 72 A 8.0008 8.0008 0 0 0 106.82812 72 C 97.649524 72.0015 88.902466 75.951656 82.832031 82.835938 L 82.830078 82.837891 L 82.828125 82.839844 L 37.613281 134.05859 C 37.576668 134.09639 37.54602 134.13776 37.509766 134.17578 L 37.492188 134.19531 C 30.09129 141.97829 30.200484 154.51299 37.833984 162.14648 C 45.468723 169.78123 58.010284 169.89673 65.792969 162.49219 L 82.09375 149.41406 L 65.535156 212.35547 C 61.603288 222.0999 66.030113 233.49659 75.626953 237.9707 C 85.3614 242.50897 97.133714 238.39616 101.94531 228.83203 L 128 183.93945 L 154.05469 228.83203 C 158.86629 238.39616 170.63859 242.50897 180.37305 237.9707 C 189.97235 233.49544 194.40007 222.09374 190.46289 212.34766 L 173.91211 149.43555 L 190.20508 162.52344 C 197.98887 169.9137 210.51661 169.79589 218.14648 162.16602 C 225.77892 154.53358 225.88799 142.00196 218.49023 134.21875 L 218.4668 134.19336 C 218.42636 134.15096 218.39245 134.10461 218.35156 134.0625 L 173.16992 82.837891 C 167.09941 75.952317 158.35141 72.00152 149.17188 72 A 8.0008 8.0008 0 0 0 149.16992 72 L 128 72 z M 128 24 C 136.93131 24 144 31.068687 144 40 C 144 48.931313 136.93131 56 128 56 C 119.06869 56 112 48.931313 112 40 C 112 31.068687 119.06869 24 128 24 z M 106.83008 88 L 149.16992 88 C 153.76619 88.0013 158.12864 89.971912 161.16797 93.419922 A 8.0008 8.0008 0 0 0 161.16992 93.421875 L 206.49023 144.80273 A 8.0008 8.0008 0 0 0 206.83398 145.16602 C 208.47122 146.80325 208.47122 149.21628 206.83398 150.85352 C 205.19675 152.49075 202.78372 152.49075 201.14648 150.85352 A 8.0008 8.0008 0 0 0 200.5 150.27344 L 165.00977 121.76367 A 8.0008 8.0008 0 0 0 152.26367 130.03516 L 175.13281 216.96484 A 8.0008 8.0008 0 0 0 175.57227 218.20703 C 176.50495 220.28472 175.67741 222.50839 173.61328 223.4707 C 171.54915 224.43302 169.31401 223.63609 168.32227 221.58594 A 8.0008 8.0008 0 0 0 168.03906 221.05469 L 134.91992 163.98438 A 8.0008 8.0008 0 0 0 121.08008 163.98438 L 87.960938 221.05469 A 8.0008 8.0008 0 0 0 87.677734 221.58594 C 86.68599 223.63609 84.45085 224.43302 82.386719 223.4707 C 80.322588 222.50839 79.495052 220.28472 80.427734 218.20703 A 8.0008 8.0008 0 0 0 80.867188 216.96484 L 103.73633 130.03516 A 8.0008 8.0008 0 0 0 90.994141 121.75977 L 55.484375 150.25 A 8.0008 8.0008 0 0 0 54.833984 150.83398 C 53.19675 152.47122 50.783719 152.47122 49.146484 150.83398 C 47.50925 149.19675 47.50925 146.78372 49.146484 145.14648 A 8.0008 8.0008 0 0 0 49.488281 144.78516 L 94.828125 93.423828 A 8.0008 8.0008 0 0 0 94.832031 93.419922 C 97.871361 89.971906 102.23381 88.001323 106.83008 88 z " />
</svg>
