<?xml version="1.0" encoding="UTF-8" standalone="no"?>
<svg
   viewBox="0 0 256 256"
   version="1.1"
   id="svg2"
   sodipodi:docname="person simple hike purple_blue.svg"
   xmlns:inkscape="http://www.inkscape.org/namespaces/inkscape"
   xmlns:sodipodi="http://sodipodi.sourceforge.net/DTD/sodipodi-0.dtd"
   xmlns:xlink="http://www.w3.org/1999/xlink"
   xmlns="http://www.w3.org/2000/svg"
   xmlns:svg="http://www.w3.org/2000/svg">
  <defs
     id="defs3">
    <linearGradient
       id="linearGradient1"
       inkscape:collect="always">
      <stop
         style="stop-color:#4b4fe2ff;stop-opacity:1;"
         offset="0"
         id="stop1" />
      <stop
         style="stop-color:#a03291;stop-opacity:1;"
         offset="0.76340693"
         id="stop2" />
    </linearGradient>
    <linearGradient
       inkscape:collect="always"
       xlink:href="#linearGradient1"
       id="linearGradient2"
       x1="232.4884"
       y1="23.847498"
       x2="23.977745"
       y2="232.35815"
       gradientUnits="userSpaceOnUse" />
  </defs>
  <defs
     id="defs2" />
  <sodipodi:namedview
     id="namedview2"
     pagecolor="#ffffff"
     bordercolor="#000000"
     borderopacity="0.25"
     inkscape:showpageshadow="2"
     inkscape:pageopacity="0.0"
     inkscape:pagecheckerboard="0"
     inkscape:deskcolor="#d1d1d1" />
  <path
     id="circle1"
     style="baseline-shift:baseline;display:inline;overflow:visible;vector-effect:none;fill:url(#linearGradient2);stroke-linecap:round;stroke-linejoin:round;enable-background:accumulate;stop-color:#000000;stop-opacity:1;opacity:1;fill-opacity:1"
     d="M 152 16 C 134.42165 16 120 30.421645 120 48 C 120 65.578355 134.42165 80 152 80 C 169.57835 80 184 65.578355 184 48 C 184 30.421645 169.57835 16 152 16 z M 152 32 C 160.93131 32 168 39.068687 168 48 C 168 56.931313 160.93131 64 152 64 C 143.06869 64 136 56.931313 136 48 C 136 39.068687 143.06869 32 152 32 z M 68.103516 67.998047 A 8.0008 8.0008 0 0 0 60.652344 72.845703 L 36.648438 128.84961 A 8.0008 8.0008 0 0 0 40.849609 139.35547 L 68.847656 151.35547 A 8.0008 8.0008 0 0 0 79.353516 147.15234 L 103.35742 91.148438 A 8.0008 8.0008 0 0 0 99.154297 80.644531 L 71.15625 68.644531 A 8.0008 8.0008 0 0 0 68.103516 67.998047 z M 72.207031 86.501953 L 85.498047 92.199219 L 67.798828 133.49805 L 54.505859 127.80078 L 72.207031 86.501953 z M 130.06641 91.707031 A 8.0008 8.0008 0 0 0 126.8457 92.154297 A 8.0008 8.0008 0 0 0 122.19336 96.5 L 64.664062 228.81055 A 8 8 0 0 0 68.810547 239.33594 A 8 8 0 0 0 79.335938 235.18945 L 112.93164 157.92383 L 144 180.11719 L 144 232 A 8 8 0 0 0 152 240 A 8 8 0 0 0 160 232 L 160 176 A 8.0008 8.0008 0 0 0 156.65039 169.49023 L 119.45508 142.92188 L 132.77539 112.28906 C 138.73812 118.48696 142.55605 126.65985 149.60742 135.03906 C 156.44182 143.16044 167.11446 149.97291 184 151.61328 L 184 232 A 8 8 0 0 0 192 240 A 8 8 0 0 0 200 232 L 200 144 A 8.0008 8.0008 0 0 0 192 136 C 173.622 136 167.5045 131.45841 161.84766 124.73633 C 156.19081 118.01424 151.88045 107.28619 141.24609 98.050781 C 138.79342 95.910669 136.09186 94.072952 133.19922 92.580078 A 8.0008 8.0008 0 0 0 130.06641 91.707031 z " />
</svg>
