<?xml version="1.0" encoding="UTF-8" standalone="no"?>
<svg
   viewBox="0 0 256 256"
   version="1.1"
   id="svg1"
   sodipodi:docname="phone purple_blue.svg"
   xmlns:inkscape="http://www.inkscape.org/namespaces/inkscape"
   xmlns:sodipodi="http://sodipodi.sourceforge.net/DTD/sodipodi-0.dtd"
   xmlns:xlink="http://www.w3.org/1999/xlink"
   xmlns="http://www.w3.org/2000/svg"
   xmlns:svg="http://www.w3.org/2000/svg">
  <defs
     id="defs3">
    <linearGradient
       id="linearGradient1"
       inkscape:collect="always">
      <stop
         style="stop-color:#4b4fe2ff;stop-opacity:1;"
         offset="0"
         id="stop1" />
      <stop
         style="stop-color:#a03291;stop-opacity:1;"
         offset="0.76340693"
         id="stop2" />
    </linearGradient>
    <linearGradient
       inkscape:collect="always"
       xlink:href="#linearGradient1"
       id="linearGradient2"
       x1="232.4884"
       y1="23.847498"
       x2="23.977745"
       y2="232.35815"
       gradientUnits="userSpaceOnUse" />
  </defs>
  <defs
     id="defs1" />
  <sodipodi:namedview
     id="namedview1"
     pagecolor="#ffffff"
     bordercolor="#000000"
     borderopacity="0.25"
     inkscape:showpageshadow="2"
     inkscape:pageopacity="0.0"
     inkscape:pagecheckerboard="0"
     inkscape:deskcolor="#d1d1d1" />
  <path
     id="path1"
     style="baseline-shift:baseline;display:inline;overflow:visible;vector-effect:none;fill:url(#linearGradient2);stroke-linecap:round;stroke-linejoin:round;enable-background:accumulate;stop-color:#000000;stop-opacity:1;opacity:1;fill-opacity:1"
     d="M 82.289062 24.013672 C 81.853157 24.029019 81.415025 24.063146 80.976562 24.115234 A 8.0008 8.0008 0 0 0 80.859375 24.130859 C 52.932728 27.867766 31.981398 51.825042 32 80 L 32 80.003906 L 32 80.005859 C 32.003207 159.43735 96.567726 224 176 224 C 204.17496 224.0186 228.13223 203.06727 231.86914 175.14062 A 8.0008 8.0008 0 0 0 231.88477 175.02344 C 232.71455 168.03857 228.81296 161.26026 222.36719 158.46094 L 222.41016 158.47852 L 175.25195 137.34961 A 8.0008 8.0008 0 0 0 175.13867 137.29883 C 170.17962 135.16808 164.45251 135.68962 159.95898 138.67969 A 8.0008 8.0008 0 0 0 159.20703 139.24609 L 134.87695 159.94336 C 120.00466 152.72195 103.3188 136.21833 96.044922 121.43359 L 116.8125 96.738281 A 8.0008 8.0008 0 0 0 117.38477 95.970703 C 120.313 91.496106 120.80829 85.825929 118.70312 80.910156 A 8.0008 8.0008 0 0 0 118.65234 80.791016 L 97.576172 33.716797 C 94.973151 27.626584 88.827645 23.783472 82.289062 24.013672 z M 82.869141 40.015625 A 8.0008 8.0008 0 0 0 82.917969 40.128906 L 103.9707 87.152344 L 83.197266 111.85156 A 8.0008 8.0008 0 0 0 82.652344 112.58008 C 79.561236 117.24433 79.146637 123.22425 81.566406 128.26953 A 8.0008 8.0008 0 0 0 81.591797 128.32227 C 90.872523 147.32138 109.0437 165.25617 128.05469 174.42578 A 8.0008 8.0008 0 0 0 128.09766 174.44531 C 133.17345 176.85635 139.17875 176.4042 143.83594 173.25977 A 8.0008 8.0008 0 0 0 144.54297 172.72461 L 168.875 152.02539 L 215.86914 173.08008 A 8.0008 8.0008 0 0 0 215.98438 173.13086 C 213.24508 193.17293 196.2466 208.01548 176.00586 208 A 8.0008 8.0008 0 0 0 176 208 C 105.21279 208 48 150.78721 48 80 A 8.0008 8.0008 0 0 0 48 79.994141 C 47.98452 59.75344 62.827118 42.754896 82.869141 40.015625 z " />
</svg>
