<?xml version="1.0" encoding="UTF-8" standalone="no"?>
<svg
   viewBox="0 0 256 256"
   version="1.1"
   id="svg3"
   sodipodi:docname="pix logo purple_blue.svg"
   xmlns:inkscape="http://www.inkscape.org/namespaces/inkscape"
   xmlns:sodipodi="http://sodipodi.sourceforge.net/DTD/sodipodi-0.dtd"
   xmlns:xlink="http://www.w3.org/1999/xlink"
   xmlns="http://www.w3.org/2000/svg"
   xmlns:svg="http://www.w3.org/2000/svg">
  <defs
     id="defs3">
    <linearGradient
       id="linearGradient1"
       inkscape:collect="always">
      <stop
         style="stop-color:#4b4fe2ff;stop-opacity:1;"
         offset="0"
         id="stop1" />
      <stop
         style="stop-color:#a03291;stop-opacity:1;"
         offset="0.76340693"
         id="stop2" />
    </linearGradient>
    <linearGradient
       inkscape:collect="always"
       xlink:href="#linearGradient1"
       id="linearGradient2"
       x1="232.4884"
       y1="23.847498"
       x2="23.977745"
       y2="232.35815"
       gradientUnits="userSpaceOnUse" />
  </defs>
  <defs
     id="defs1" />
  <sodipodi:namedview
     id="namedview3"
     pagecolor="#ffffff"
     bordercolor="#000000"
     borderopacity="0.25"
     inkscape:showpageshadow="2"
     inkscape:pageopacity="0.0"
     inkscape:pagecheckerboard="0"
     inkscape:deskcolor="#d1d1d1" />
  <path
     id="rect2"
     style="baseline-shift:baseline;display:inline;overflow:visible;vector-effect:none;fill:url(#linearGradient2);stroke-linecap:round;stroke-linejoin:round;enable-background:accumulate;stop-color:#000000;stop-opacity:1;opacity:1;fill-opacity:1"
     d="M 207.14671 48.84318 C 204.24665 45.943115 200.2593 44.130976 195.91034 44.130976 L 60.079549 44.130976 C 51.381627 44.130976 44.130976 51.381627 44.130976 60.079549 L 44.130976 195.91034 C 44.130976 204.60826 51.381627 211.85892 60.079549 211.85891 L 158.30248 211.8603 A 8 8 0 0 0 158.93087 211.85891 L 195.91034 211.85891 C 204.60826 211.85891 211.85891 204.60826 211.85891 195.91034 L 211.85891 158.93087 L 211.8603 158.91844 A 8 8 0 0 0 211.85891 158.29005 L 211.85891 60.079549 C 211.85891 55.730588 210.04677 51.743244 207.14671 48.84318 z M 195.85924 60.130648 L 195.85924 139.2907 L 178.91216 122.34362 A 8.0008 8.0008 0 0 0 173.2553 120.00132 L 135.99961 120.00132 L 135.99961 82.745636 A 8.0008 8.0008 0 0 0 133.65732 77.088781 L 116.69919 60.130648 L 195.85924 60.130648 z M 94.071774 60.130648 L 119.99994 86.058818 L 119.99994 119.99994 L 86.058818 119.99994 L 60.130648 94.071774 L 60.130648 60.130648 L 94.071774 60.130648 z M 169.94212 136.001 L 195.85924 161.91812 L 195.85924 195.85924 L 161.91812 195.85924 L 136.001 169.94212 L 136.001 136.001 L 169.94212 136.001 z M 120.00132 135.99961 L 120.00132 173.2553 A 8.0008 8.0008 0 0 0 122.34362 178.91216 L 139.2907 195.85924 L 60.130648 195.85924 L 60.130648 116.69919 L 77.088781 133.65732 A 8.0008 8.0008 0 0 0 82.745636 135.99961 L 120.00132 135.99961 z "
     transform="translate(-53.02 128) rotate(-45)" />
</svg>
