<?xml version="1.0" encoding="UTF-8" standalone="no"?>
<svg
   viewBox="0 0 256 256"
   version="1.1"
   id="svg4"
   sodipodi:docname="presentation purple_blue.svg"
   xmlns:inkscape="http://www.inkscape.org/namespaces/inkscape"
   xmlns:sodipodi="http://sodipodi.sourceforge.net/DTD/sodipodi-0.dtd"
   xmlns:xlink="http://www.w3.org/1999/xlink"
   xmlns="http://www.w3.org/2000/svg"
   xmlns:svg="http://www.w3.org/2000/svg">
  <defs
     id="defs3">
    <linearGradient
       id="linearGradient1"
       inkscape:collect="always">
      <stop
         style="stop-color:#4b4fe2ff;stop-opacity:1;"
         offset="0"
         id="stop1" />
      <stop
         style="stop-color:#a03291;stop-opacity:1;"
         offset="0.76340693"
         id="stop2" />
    </linearGradient>
    <linearGradient
       inkscape:collect="always"
       xlink:href="#linearGradient1"
       id="linearGradient2"
       x1="232.4884"
       y1="23.847498"
       x2="23.977745"
       y2="232.35815"
       gradientUnits="userSpaceOnUse" />
  </defs>
  <defs
     id="defs4" />
  <sodipodi:namedview
     id="namedview4"
     pagecolor="#ffffff"
     bordercolor="#000000"
     borderopacity="0.25"
     inkscape:showpageshadow="2"
     inkscape:pageopacity="0.0"
     inkscape:pagecheckerboard="0"
     inkscape:deskcolor="#d1d1d1" />
  <path
     id="rect2"
     style="baseline-shift:baseline;display:inline;overflow:visible;vector-effect:none;fill:url(#linearGradient2);stroke-linecap:round;stroke-linejoin:round;enable-background:accumulate;stop-color:#000000;stop-opacity:1;opacity:1;fill-opacity:1"
     d="M 128 16 A 8 8 0 0 0 120 24 L 120 40 L 40 40 C 31.274378 40 24 47.274378 24 56 L 24 176 C 24 184.72562 31.274378 192 40 192 L 79.355469 192 L 57.753906 219.00195 A 8 8 0 0 0 59.001953 230.24609 A 8 8 0 0 0 70.246094 228.99805 L 99.84375 192 L 156.15625 192 L 185.75391 228.99805 A 8 8 0 0 0 196.99805 230.24609 A 8 8 0 0 0 198.24609 219.00195 L 176.64453 192 L 216 192 C 224.72562 192 232 184.72562 232 176 L 232 56 C 232 47.274378 224.72562 40 216 40 L 136 40 L 136 24 A 8 8 0 0 0 128 16 z M 40 56 L 128 56 L 216 56 L 216 176 L 40 176 L 40 56 z " />
</svg>
