<?xml version="1.0" encoding="UTF-8" standalone="no"?>
<svg
   viewBox="0 0 256 256"
   version="1.1"
   id="svg1"
   sodipodi:docname="pulse purple_blue.svg"
   xmlns:inkscape="http://www.inkscape.org/namespaces/inkscape"
   xmlns:sodipodi="http://sodipodi.sourceforge.net/DTD/sodipodi-0.dtd"
   xmlns:xlink="http://www.w3.org/1999/xlink"
   xmlns="http://www.w3.org/2000/svg"
   xmlns:svg="http://www.w3.org/2000/svg">
  <defs
     id="defs3">
    <linearGradient
       id="linearGradient1"
       inkscape:collect="always">
      <stop
         style="stop-color:#4b4fe2ff;stop-opacity:1;"
         offset="0"
         id="stop1" />
      <stop
         style="stop-color:#a03291;stop-opacity:1;"
         offset="0.76340693"
         id="stop2" />
    </linearGradient>
    <linearGradient
       inkscape:collect="always"
       xlink:href="#linearGradient1"
       id="linearGradient2"
       x1="232.4884"
       y1="23.847498"
       x2="23.977745"
       y2="232.35815"
       gradientUnits="userSpaceOnUse" />
  </defs>
  <defs
     id="defs1" />
  <sodipodi:namedview
     id="namedview1"
     pagecolor="#ffffff"
     bordercolor="#000000"
     borderopacity="0.25"
     inkscape:showpageshadow="2"
     inkscape:pageopacity="0.0"
     inkscape:pagecheckerboard="0"
     inkscape:deskcolor="#d1d1d1" />
  <path
     id="polyline1"
     style="baseline-shift:baseline;display:inline;overflow:visible;vector-effect:none;fill:url(#linearGradient2);stroke-linecap:round;stroke-linejoin:round;enable-background:accumulate;stop-color:#000000;stop-opacity:1;opacity:1;fill-opacity:1"
     d="M 96.25 32.005859 A 8.0008 8.0008 0 0 0 93.177734 32.515625 A 8.0008 8.0008 0 0 0 88.716797 36.689453 L 50.849609 120 L 24 120 A 8 8 0 0 0 16 128 A 8 8 0 0 0 24 136 L 56 136 A 8.0008 8.0008 0 0 0 63.283203 131.31055 L 95.349609 60.765625 L 152.52344 210.84766 A 8.0008 8.0008 0 0 0 167.15625 211.57812 L 204.94336 136 L 232 136 A 8 8 0 0 0 240 128 A 8 8 0 0 0 232 120 L 200 120 A 8.0008 8.0008 0 0 0 192.84375 124.42188 L 160.99023 188.12695 L 103.47656 37.152344 A 8.0008 8.0008 0 0 0 96.25 32.005859 z " />
</svg>
