<?xml version="1.0" encoding="UTF-8" standalone="no"?>
<svg
   viewBox="0 0 256 256"
   version="1.1"
   id="svg6"
   sodipodi:docname="push pin simple slash purple_blue.svg"
   xmlns:inkscape="http://www.inkscape.org/namespaces/inkscape"
   xmlns:sodipodi="http://sodipodi.sourceforge.net/DTD/sodipodi-0.dtd"
   xmlns:xlink="http://www.w3.org/1999/xlink"
   xmlns="http://www.w3.org/2000/svg"
   xmlns:svg="http://www.w3.org/2000/svg">
  <defs
     id="defs3">
    <linearGradient
       id="linearGradient1"
       inkscape:collect="always">
      <stop
         style="stop-color:#4b4fe2ff;stop-opacity:1;"
         offset="0"
         id="stop1" />
      <stop
         style="stop-color:#a03291;stop-opacity:1;"
         offset="0.76340693"
         id="stop2" />
    </linearGradient>
    <linearGradient
       inkscape:collect="always"
       xlink:href="#linearGradient1"
       id="linearGradient2"
       x1="232.4884"
       y1="23.847498"
       x2="23.977745"
       y2="232.35815"
       gradientUnits="userSpaceOnUse" />
  </defs>
  <defs
     id="defs6" />
  <sodipodi:namedview
     id="namedview6"
     pagecolor="#ffffff"
     bordercolor="#000000"
     borderopacity="0.25"
     inkscape:showpageshadow="2"
     inkscape:pageopacity="0.0"
     inkscape:pagecheckerboard="0"
     inkscape:deskcolor="#d1d1d1" />
  <path
     id="line1"
     style="baseline-shift:baseline;display:inline;overflow:visible;vector-effect:none;fill:url(#linearGradient2);stroke-linecap:round;stroke-linejoin:round;enable-background:accumulate;stop-color:#000000;stop-opacity:1;opacity:1;fill-opacity:1"
     d="M 91.25 32 A 8 8 0 0 0 83.25 40 A 8 8 0 0 0 91.25 48 L 169.28711 48 L 188.54102 157.08008 A 8 8 0 0 0 197.81055 163.56836 A 8 8 0 0 0 204.29883 154.29883 L 185.53711 48 L 192 48 A 8 8 0 0 0 200 40 A 8 8 0 0 0 192 32 L 91.25 32 z M 48.380859 32.009766 A 8 8 0 0 0 42.619141 34.080078 A 8 8 0 0 0 42.080078 45.380859 L 66.240234 71.955078 L 49.287109 168 L 40 168 A 8 8 0 0 0 32 176 A 8 8 0 0 0 40 184 L 55.886719 184 L 56.113281 184 L 120 184 L 120 240 A 8 8 0 0 0 128 248 A 8 8 0 0 0 136 240 L 136 184 L 168.09766 184 L 202.08008 221.38086 A 8 8 0 0 0 213.38086 221.91992 A 8 8 0 0 0 213.91992 210.61914 L 177.71094 170.78906 A 8 8 0 0 0 177.40039 170.44922 L 80.746094 64.128906 A 8 8 0 0 0 80.691406 64.068359 L 53.919922 34.619141 A 8 8 0 0 0 48.380859 32.009766 z M 79.845703 86.921875 L 153.55273 168 L 65.537109 168 L 79.845703 86.921875 z " />
</svg>
