<?xml version="1.0" encoding="UTF-8" standalone="no"?>
<svg
   viewBox="0 0 256 256"
   version="1.1"
   id="svg6"
   sodipodi:docname="qr code purple_blue.svg"
   xmlns:inkscape="http://www.inkscape.org/namespaces/inkscape"
   xmlns:sodipodi="http://sodipodi.sourceforge.net/DTD/sodipodi-0.dtd"
   xmlns:xlink="http://www.w3.org/1999/xlink"
   xmlns="http://www.w3.org/2000/svg"
   xmlns:svg="http://www.w3.org/2000/svg">
  <defs
     id="defs3">
    <linearGradient
       id="linearGradient1"
       inkscape:collect="always">
      <stop
         style="stop-color:#4b4fe2ff;stop-opacity:1;"
         offset="0"
         id="stop1" />
      <stop
         style="stop-color:#a03291;stop-opacity:1;"
         offset="0.76340693"
         id="stop2" />
    </linearGradient>
    <linearGradient
       inkscape:collect="always"
       xlink:href="#linearGradient1"
       id="linearGradient2"
       x1="232.4884"
       y1="23.847498"
       x2="23.977745"
       y2="232.35815"
       gradientUnits="userSpaceOnUse" />
  </defs>
  <defs
     id="defs6" />
  <sodipodi:namedview
     id="namedview6"
     pagecolor="#ffffff"
     bordercolor="#000000"
     borderopacity="0.25"
     inkscape:showpageshadow="2"
     inkscape:pageopacity="0.0"
     inkscape:pagecheckerboard="0"
     inkscape:deskcolor="#d1d1d1" />
  <path
     id="rect2"
     style="baseline-shift:baseline;display:inline;overflow:visible;vector-effect:none;fill:url(#linearGradient2);stroke-linecap:round;stroke-linejoin:round;enable-background:accumulate;stop-color:#000000;stop-opacity:1;opacity:1;fill-opacity:1"
     d="M 56 40 C 47.274378 40 40 47.274378 40 56 L 40 104 C 40 112.72562 47.274378 120 56 120 L 104 120 C 112.72562 120 120 112.72562 120 104 L 120 56 C 120 47.274378 112.72562 40 104 40 L 56 40 z M 152 40 C 143.27438 40 136 47.274378 136 56 L 136 104 C 136 112.72562 143.27438 120 152 120 L 200 120 C 208.72562 120 216 112.72562 216 104 L 216 56 C 216 47.274378 208.72562 40 200 40 L 152 40 z M 56 56 L 104 56 L 104 104 L 56 104 L 56 56 z M 152 56 L 200 56 L 200 104 L 152 104 L 152 56 z M 56 136 C 47.274378 136 40 143.27438 40 152 L 40 200 C 40 208.72562 47.274378 216 56 216 L 104 216 C 112.72562 216 120 208.72562 120 200 L 120 152 C 120 143.27438 112.72562 136 104 136 L 56 136 z M 144 136 A 8 8 0 0 0 136 144 L 136 176 A 8 8 0 0 0 144 184 A 8 8 0 0 0 152 176 L 152 144 A 8 8 0 0 0 144 136 z M 176 136 A 8 8 0 0 0 168 144 L 168 200 L 144 200 A 8 8 0 0 0 136 208 A 8 8 0 0 0 144 216 L 176 216 A 8.0008 8.0008 0 0 0 184 208 L 184 168 L 208 168 A 8 8 0 0 0 216 160 A 8 8 0 0 0 208 152 L 184 152 L 184 144 A 8 8 0 0 0 176 136 z M 56 152 L 104 152 L 104 200 L 56 200 L 56 152 z M 208 184 A 8 8 0 0 0 200 192 L 200 208 A 8 8 0 0 0 208 216 A 8 8 0 0 0 216 208 L 216 192 A 8 8 0 0 0 208 184 z " />
</svg>
