<?xml version="1.0" encoding="UTF-8" standalone="no"?>
<svg
   viewBox="0 0 256 256"
   version="1.1"
   id="svg4"
   sodipodi:docname="radio purple_blue.svg"
   xmlns:inkscape="http://www.inkscape.org/namespaces/inkscape"
   xmlns:sodipodi="http://sodipodi.sourceforge.net/DTD/sodipodi-0.dtd"
   xmlns:xlink="http://www.w3.org/1999/xlink"
   xmlns="http://www.w3.org/2000/svg"
   xmlns:svg="http://www.w3.org/2000/svg">
  <defs
     id="defs3">
    <linearGradient
       id="linearGradient1"
       inkscape:collect="always">
      <stop
         style="stop-color:#4b4fe2ff;stop-opacity:1;"
         offset="0"
         id="stop1" />
      <stop
         style="stop-color:#a03291;stop-opacity:1;"
         offset="0.76340693"
         id="stop2" />
    </linearGradient>
    <linearGradient
       inkscape:collect="always"
       xlink:href="#linearGradient1"
       id="linearGradient2"
       x1="232.4884"
       y1="23.847498"
       x2="23.977745"
       y2="232.35815"
       gradientUnits="userSpaceOnUse" />
  </defs>
  <defs
     id="defs4" />
  <sodipodi:namedview
     id="namedview4"
     pagecolor="#ffffff"
     bordercolor="#000000"
     borderopacity="0.25"
     inkscape:showpageshadow="2"
     inkscape:pageopacity="0.0"
     inkscape:pagecheckerboard="0"
     inkscape:deskcolor="#d1d1d1" />
  <path
     id="path1"
     style="baseline-shift:baseline;display:inline;overflow:visible;vector-effect:none;fill:url(#linearGradient2);stroke-linecap:round;stroke-linejoin:round;enable-background:accumulate;stop-color:#000000;stop-opacity:1;opacity:1;fill-opacity:1"
     d="M 191.76172 16.003906 A 8 8 0 0 0 189.70117 16.337891 L 29.765625 64.318359 A 8.0008 8.0008 0 0 0 29.761719 64.320312 L 29.701172 64.337891 A 8 8 0 0 0 29.298828 64.488281 A 8.0008 8.0008 0 0 0 28.763672 64.6875 A 8 8 0 0 0 28.337891 64.90625 A 8.0008 8.0008 0 0 0 27.837891 65.171875 A 8 8 0 0 0 27.470703 65.425781 A 8.0008 8.0008 0 0 0 26.988281 65.767578 A 8 8 0 0 0 26.636719 66.085938 A 8.0008 8.0008 0 0 0 26.226562 66.466797 A 8 8 0 0 0 25.917969 66.828125 A 8.0008 8.0008 0 0 0 25.556641 67.265625 A 8 8 0 0 0 25.296875 67.666016 A 8.0008 8.0008 0 0 0 25.001953 68.134766 A 8 8 0 0 0 24.787109 68.580078 A 8.0008 8.0008 0 0 0 24.560547 69.076172 A 8 8 0 0 0 24.40625 69.537109 A 8.0008 8.0008 0 0 0 24.244141 70.068359 A 8 8 0 0 0 24.150391 70.544922 A 8.0008 8.0008 0 0 0 24.058594 71.083984 A 8 8 0 0 0 24.027344 71.576172 A 8.0008 8.0008 0 0 0 24 72 L 24 192 C 24 200.7418 31.258201 208 40 208 L 216 208 C 224.7418 208 232 200.7418 232 192 L 232 80 C 232 71.258201 224.7418 64 216 64 L 86.505859 64 L 194.29883 31.662109 A 8 8 0 0 0 199.66211 21.701172 A 8 8 0 0 0 191.76172 16.003906 z M 40 80 L 216 80 L 216 192 L 40 192 L 40 80 z M 64 96 A 8 8 0 0 0 56 104 A 8 8 0 0 0 64 112 L 96 112 A 8 8 0 0 0 104 104 A 8 8 0 0 0 96 96 L 64 96 z M 160 96 C 138.00337 96 120 114.00337 120 136 C 120 157.99663 138.00337 176 160 176 C 181.99663 176 200 157.99663 200 136 C 200 114.00337 181.99663 96 160 96 z M 160 112 C 173.34959 112 184 122.65041 184 136 C 184 149.34959 173.34959 160 160 160 C 146.65041 160 136 149.34959 136 136 C 136 122.65041 146.65041 112 160 112 z M 64 128 A 8 8 0 0 0 56 136 A 8 8 0 0 0 64 144 L 96 144 A 8 8 0 0 0 104 136 A 8 8 0 0 0 96 128 L 64 128 z M 64 160 A 8 8 0 0 0 56 168 A 8 8 0 0 0 64 176 L 96 176 A 8 8 0 0 0 104 168 A 8 8 0 0 0 96 160 L 64 160 z " />
</svg>
