<?xml version="1.0" encoding="UTF-8" standalone="no"?>
<svg
   viewBox="0 0 256 256"
   version="1.1"
   id="svg3"
   sodipodi:docname="reddit logo purple_blue.svg"
   xmlns:inkscape="http://www.inkscape.org/namespaces/inkscape"
   xmlns:sodipodi="http://sodipodi.sourceforge.net/DTD/sodipodi-0.dtd"
   xmlns:xlink="http://www.w3.org/1999/xlink"
   xmlns="http://www.w3.org/2000/svg"
   xmlns:svg="http://www.w3.org/2000/svg">
  <defs
     id="defs3">
    <linearGradient
       id="linearGradient1"
       inkscape:collect="always">
      <stop
         style="stop-color:#4b4fe2ff;stop-opacity:1;"
         offset="0"
         id="stop1" />
      <stop
         style="stop-color:#a03291;stop-opacity:1;"
         offset="0.76340693"
         id="stop2" />
    </linearGradient>
    <linearGradient
       inkscape:collect="always"
       xlink:href="#linearGradient1"
       id="linearGradient2"
       x1="232.4884"
       y1="23.847498"
       x2="23.977745"
       y2="232.35815"
       gradientUnits="userSpaceOnUse" />
  </defs>
  <defs
     id="defs1" />
  <sodipodi:namedview
     id="namedview3"
     pagecolor="#ffffff"
     bordercolor="#000000"
     borderopacity="0.25"
     inkscape:showpageshadow="2"
     inkscape:pageopacity="0.0"
     inkscape:pagecheckerboard="0"
     inkscape:deskcolor="#d1d1d1" />
  <path
     id="circle1"
     style="baseline-shift:baseline;display:inline;overflow:visible;vector-effect:none;fill:url(#linearGradient2);stroke-linecap:round;stroke-linejoin:round;enable-background:accumulate;stop-color:#000000;stop-opacity:1;opacity:1;fill-opacity:1"
     d="M 184 8 C 175.15958 8 167.36686 12.891183 163.20312 20.091797 L 137.2168 16.09375 A 8.0008 8.0008 0 0 0 128.10938 22.685547 L 121.19922 64.144531 C 98.752735 65.098801 78.080304 70.751205 60.976562 79.859375 C 48.235793 68.860523 28.188769 69.453028 16.335938 82.494141 C 4.3640704 95.666223 5.8705171 115.91572 18.375 127.49609 C 16.82419 132.8476 16.008731 138.39636 16 143.98828 A 8.0008 8.0008 0 0 0 16 144 C 16 167.00274 29.520555 187.37427 49.90625 201.48828 C 70.291945 215.60229 97.78325 224 128 224 C 158.21675 224 185.70806 215.60229 206.09375 201.48828 C 226.47944 187.37427 240 167.00274 240 144 A 8.0008 8.0008 0 0 0 240 143.98828 C 239.991 138.39636 239.17581 132.8476 237.625 127.49609 C 250.12948 115.91572 251.63593 95.666223 239.66406 82.494141 C 227.81123 69.453008 207.76421 68.860523 195.02344 79.859375 C 178.5813 71.103527 158.8402 65.540398 137.39648 64.275391 L 142.5918 33.109375 L 160.31055 35.835938 C 162.17097 47.201912 172.14428 56 184 56 C 197.16008 56 208 45.160077 208 32 C 208 18.839923 197.16008 8 184 8 z M 184 24 C 188.51304 24 192 27.486965 192 32 C 192 36.513035 188.51304 40 184 40 C 179.48696 40 176 36.513035 176 32 C 176 31.373564 176.06948 30.767816 176.19727 30.1875 A 8 8 0 0 0 176.20312 30.152344 C 177.00827 26.569886 180.12583 24 184 24 z M 128 80 C 152.91014 80 175.55022 86.452804 192.43555 96.716797 A 8.0008 8.0008 0 0 0 203.05469 94.591797 C 209.12584 86.263207 220.8922 85.628885 227.82422 93.255859 C 234.75624 100.88283 233.00377 112.53491 224.13477 117.78516 A 8.0008 8.0008 0 0 0 220.79688 127.67969 C 222.90257 132.86617 223.99051 138.40827 224 144.00586 C 223.998 160.7609 214.23861 176.38744 196.98633 188.33203 C 179.73202 200.27802 155.22325 208 128 208 C 100.77675 208 76.267977 200.27802 59.013672 188.33203 C 41.763404 176.38883 32.004567 160.76453 32 144.01172 L 32 144.00586 C 32.0095 138.40827 33.097442 132.86617 35.203125 127.67969 A 8.0008 8.0008 0 0 0 31.865234 117.78516 C 22.996231 112.53505 21.243763 100.88283 28.175781 93.255859 C 35.1078 85.628885 46.874159 86.263207 52.945312 94.591797 A 8.0008 8.0008 0 0 0 63.564453 96.716797 C 80.449783 86.452804 103.08986 80 128 80 z M 88 112 A 16 16 0 0 0 72 128 A 16 16 0 0 0 88 144 A 16 16 0 0 0 104 128 A 16 16 0 0 0 88 112 z M 168 112 A 16 16 0 0 0 152 128 A 16 16 0 0 0 168 144 A 16 16 0 0 0 184 128 A 16 16 0 0 0 168 112 z M 95.730469 168.00391 A 8 8 0 0 0 93.669922 168.3457 A 8 8 0 0 0 88.941406 172.23438 A 8 8 0 0 0 92.234375 183.05859 C 114.57917 194.97582 141.42083 194.97582 163.76562 183.05859 A 8 8 0 0 0 167.05859 172.23438 A 8 8 0 0 0 156.23438 168.94141 C 138.57917 178.35751 117.42083 178.35751 99.765625 168.94141 A 8 8 0 0 0 95.730469 168.00391 z " />
</svg>
