<?xml version="1.0" encoding="UTF-8" standalone="no"?>
<svg
   viewBox="0 0 256 256"
   version="1.1"
   id="svg6"
   sodipodi:docname="road horizon purple_blue.svg"
   xmlns:inkscape="http://www.inkscape.org/namespaces/inkscape"
   xmlns:sodipodi="http://sodipodi.sourceforge.net/DTD/sodipodi-0.dtd"
   xmlns:xlink="http://www.w3.org/1999/xlink"
   xmlns="http://www.w3.org/2000/svg"
   xmlns:svg="http://www.w3.org/2000/svg">
  <defs
     id="defs3">
    <linearGradient
       id="linearGradient1"
       inkscape:collect="always">
      <stop
         style="stop-color:#4b4fe2ff;stop-opacity:1;"
         offset="0"
         id="stop1" />
      <stop
         style="stop-color:#a03291;stop-opacity:1;"
         offset="0.76340693"
         id="stop2" />
    </linearGradient>
    <linearGradient
       inkscape:collect="always"
       xlink:href="#linearGradient1"
       id="linearGradient2"
       x1="232.4884"
       y1="23.847498"
       x2="23.977745"
       y2="232.35815"
       gradientUnits="userSpaceOnUse" />
  </defs>
  <defs
     id="defs6" />
  <sodipodi:namedview
     id="namedview6"
     pagecolor="#ffffff"
     bordercolor="#000000"
     borderopacity="0.25"
     inkscape:showpageshadow="2"
     inkscape:pageopacity="0.0"
     inkscape:pagecheckerboard="0"
     inkscape:deskcolor="#d1d1d1" />
  <path
     id="line1"
     style="baseline-shift:baseline;display:inline;overflow:visible;vector-effect:none;fill:url(#linearGradient2);stroke-linecap:round;stroke-linejoin:round;enable-background:accumulate;stop-color:#000000;stop-opacity:1;opacity:1;fill-opacity:1"
     d="M 24 56 A 8 8 0 0 0 16 64 A 8 8 0 0 0 24 72 L 82.320312 72 L 17.027344 188.07812 A 8 8 0 0 0 20.078125 198.97266 A 8 8 0 0 0 30.972656 195.92188 L 100.67969 72 L 120 72 L 120 80 A 8 8 0 0 0 128 88 A 8 8 0 0 0 136 80 L 136 72 L 155.32031 72 L 225.02734 195.92188 A 8 8 0 0 0 235.92188 198.97266 A 8 8 0 0 0 238.97266 188.07812 L 173.67969 72 L 232 72 A 8 8 0 0 0 240 64 A 8 8 0 0 0 232 56 L 128 56 L 24 56 z M 128 112 A 8 8 0 0 0 120 120 L 120 136 A 8 8 0 0 0 128 144 A 8 8 0 0 0 136 136 L 136 120 A 8 8 0 0 0 128 112 z M 128 168 A 8 8 0 0 0 120 176 L 120 192 A 8 8 0 0 0 128 200 A 8 8 0 0 0 136 192 L 136 176 A 8 8 0 0 0 128 168 z " />
</svg>
