<?xml version="1.0" encoding="UTF-8" standalone="no"?>
<svg
   viewBox="0 0 256 256"
   version="1.1"
   id="svg4"
   sodipodi:docname="rows plus top purple_blue.svg"
   xmlns:inkscape="http://www.inkscape.org/namespaces/inkscape"
   xmlns:sodipodi="http://sodipodi.sourceforge.net/DTD/sodipodi-0.dtd"
   xmlns:xlink="http://www.w3.org/1999/xlink"
   xmlns="http://www.w3.org/2000/svg"
   xmlns:svg="http://www.w3.org/2000/svg">
  <defs
     id="defs3">
    <linearGradient
       id="linearGradient1"
       inkscape:collect="always">
      <stop
         style="stop-color:#4b4fe2ff;stop-opacity:1;"
         offset="0"
         id="stop1" />
      <stop
         style="stop-color:#a03291;stop-opacity:1;"
         offset="0.76340693"
         id="stop2" />
    </linearGradient>
    <linearGradient
       inkscape:collect="always"
       xlink:href="#linearGradient1"
       id="linearGradient2"
       x1="232.4884"
       y1="23.847498"
       x2="23.977745"
       y2="232.35815"
       gradientUnits="userSpaceOnUse" />
  </defs>
  <defs
     id="defs4" />
  <sodipodi:namedview
     id="namedview4"
     pagecolor="#ffffff"
     bordercolor="#000000"
     borderopacity="0.25"
     inkscape:showpageshadow="2"
     inkscape:pageopacity="0.0"
     inkscape:pagecheckerboard="0"
     inkscape:deskcolor="#d1d1d1" />
  <path
     id="rect2"
     style="baseline-shift:baseline;display:inline;overflow:visible;vector-effect:none;fill:url(#linearGradient2);stroke-linecap:round;stroke-linejoin:round;enable-background:accumulate;stop-color:#000000;stop-opacity:1;opacity:1;fill-opacity:1"
     d="M 128 8 A 8 8 0 0 0 120 16 L 120 32 L 104 32 A 8 8 0 0 0 96 40 A 8 8 0 0 0 104 48 L 120 48 L 120 64 A 8 8 0 0 0 128 72 A 8 8 0 0 0 136 64 L 136 48 L 152 48 A 8 8 0 0 0 160 40 A 8 8 0 0 0 152 32 L 136 32 L 136 16 A 8 8 0 0 0 128 8 z M 48 88 C 39.274378 88 32 95.274378 32 104 L 32 128 C 32 136.72562 39.274378 144 48 144 L 208 144 C 216.72562 144 224 136.72562 224 128 L 224 104 C 224 95.274378 216.72562 88 208 88 L 48 88 z M 48 104 L 208 104 L 208 128 L 48 128 L 48 104 z M 48 160 C 39.274378 160 32 167.27438 32 176 L 32 200 C 32 208.72562 39.274378 216 48 216 L 208 216 C 216.72562 216 224 208.72562 224 200 L 224 176 C 224 167.27438 216.72562 160 208 160 L 48 160 z M 48 176 L 208 176 L 208 200 L 48 200 L 48 176 z " />
</svg>
