<?xml version="1.0" encoding="UTF-8" standalone="no"?>
<svg
   viewBox="0 0 256 256"
   version="1.1"
   id="svg3"
   sodipodi:docname="rss purple_blue.svg"
   xmlns:inkscape="http://www.inkscape.org/namespaces/inkscape"
   xmlns:sodipodi="http://sodipodi.sourceforge.net/DTD/sodipodi-0.dtd"
   xmlns:xlink="http://www.w3.org/1999/xlink"
   xmlns="http://www.w3.org/2000/svg"
   xmlns:svg="http://www.w3.org/2000/svg">
  <defs
     id="defs3">
    <linearGradient
       id="linearGradient1"
       inkscape:collect="always">
      <stop
         style="stop-color:#4b4fe2ff;stop-opacity:1;"
         offset="0"
         id="stop1" />
      <stop
         style="stop-color:#a03291;stop-opacity:1;"
         offset="0.76340693"
         id="stop2" />
    </linearGradient>
    <linearGradient
       inkscape:collect="always"
       xlink:href="#linearGradient1"
       id="linearGradient2"
       x1="232.4884"
       y1="23.847498"
       x2="23.977745"
       y2="232.35815"
       gradientUnits="userSpaceOnUse" />
  </defs>
  <defs
     id="defs1" />
  <sodipodi:namedview
     id="namedview3"
     pagecolor="#ffffff"
     bordercolor="#000000"
     borderopacity="0.25"
     inkscape:showpageshadow="2"
     inkscape:pageopacity="0.0"
     inkscape:pagecheckerboard="0"
     inkscape:deskcolor="#d1d1d1" />
  <path
     id="path1"
     style="baseline-shift:baseline;display:inline;overflow:visible;vector-effect:none;fill:url(#linearGradient2);stroke-linecap:round;stroke-linejoin:round;enable-background:accumulate;stop-color:#000000;stop-opacity:1;opacity:1;fill-opacity:1"
     d="M 56 32 A 8 8 0 0 0 48 40 A 8 8 0 0 0 56 48 C 140.04204 48 208 115.95796 208 200 A 8 8 0 0 0 216 208 A 8 8 0 0 0 224 200 C 224 107.31092 148.68908 32 56 32 z M 56 80 A 8 8 0 0 0 48 88 A 8 8 0 0 0 56 96 C 113.53237 96 160 142.46763 160 200 A 8 8 0 0 0 168 208 A 8 8 0 0 0 176 200 C 176 133.82059 122.17941 80 56 80 z M 56 128 A 8 8 0 0 0 48 136 A 8 8 0 0 0 56 144 C 87.022703 144 112 168.9773 112 200 A 8 8 0 0 0 120 208 A 8 8 0 0 0 128 200 C 128 160.33026 95.669745 128 56 128 z M 60 184 A 12 12 0 0 0 48 196 A 12 12 0 0 0 60 208 A 12 12 0 0 0 72 196 A 12 12 0 0 0 60 184 z " />
</svg>
