<?xml version="1.0" encoding="UTF-8" standalone="no"?>
<svg
   viewBox="0 0 256 256"
   version="1.1"
   id="svg3"
   sodipodi:docname="scooter purple_blue.svg"
   xmlns:inkscape="http://www.inkscape.org/namespaces/inkscape"
   xmlns:sodipodi="http://sodipodi.sourceforge.net/DTD/sodipodi-0.dtd"
   xmlns:xlink="http://www.w3.org/1999/xlink"
   xmlns="http://www.w3.org/2000/svg"
   xmlns:svg="http://www.w3.org/2000/svg">
  <defs
     id="defs3">
    <linearGradient
       id="linearGradient1"
       inkscape:collect="always">
      <stop
         style="stop-color:#4b4fe2ff;stop-opacity:1;"
         offset="0"
         id="stop1" />
      <stop
         style="stop-color:#a03291;stop-opacity:1;"
         offset="0.76340693"
         id="stop2" />
    </linearGradient>
    <linearGradient
       inkscape:collect="always"
       xlink:href="#linearGradient1"
       id="linearGradient2"
       x1="232.4884"
       y1="23.847498"
       x2="23.977745"
       y2="232.35815"
       gradientUnits="userSpaceOnUse" />
  </defs>
  <defs
     id="defs1" />
  <sodipodi:namedview
     id="namedview3"
     pagecolor="#ffffff"
     bordercolor="#000000"
     borderopacity="0.25"
     inkscape:showpageshadow="2"
     inkscape:pageopacity="0.0"
     inkscape:pagecheckerboard="0"
     inkscape:deskcolor="#d1d1d1" />
  <path
     id="circle1"
     style="baseline-shift:baseline;display:inline;overflow:visible;vector-effect:none;fill:url(#linearGradient2);stroke-linecap:round;stroke-linejoin:round;enable-background:accumulate;stop-color:#000000;stop-opacity:1;opacity:1;fill-opacity:1"
     d="M 136 32 A 8 8 0 0 0 128 40 A 8 8 0 0 0 136 48 L 162.23438 48 L 179.67188 100.31836 L 124.21289 168 L 79.777344 168 C 77.769084 150.07372 62.436145 136 44 136 C 24.212506 136 8 152.21251 8 172 C 8 191.78749 24.212506 208 44 208 C 59.585991 208 72.953538 197.9414 77.927734 184 L 128 184 A 8.0008 8.0008 0 0 0 134.1875 181.07031 L 185.65234 118.26172 L 193.32031 141.26758 C 182.95772 147.60897 176 159.03713 176 172 C 176 191.78749 192.21251 208 212 208 C 231.78749 208 248 191.78749 248 172 C 248 152.21251 231.78749 136 212 136 C 210.81552 136 209.64443 136.0584 208.48828 136.17188 L 196.33789 99.716797 L 196.33594 99.710938 A 8 8 0 0 0 196.1543 99.167969 L 175.58984 37.470703 A 8.0008 8.0008 0 0 0 168 32 L 136 32 z M 44 152 C 55.140452 152 64 160.85955 64 172 C 64 183.14045 55.140452 192 44 192 C 32.859548 192 24 183.14045 24 172 C 24 160.85955 32.859548 152 44 152 z M 212 152 C 223.14045 152 232 160.85955 232 172 C 232 183.14045 223.14045 192 212 192 C 200.85955 192 192 183.14045 192 172 C 192 163.24663 197.46877 155.9021 205.2168 153.15625 A 8 8 0 0 0 205.66992 153.01953 A 8 8 0 0 0 206.0625 152.87695 C 207.93457 152.30621 209.92775 152 212 152 z " />
</svg>
