<?xml version="1.0" encoding="UTF-8" standalone="no"?>
<svg
   viewBox="0 0 256 256"
   version="1.1"
   id="svg4"
   sodipodi:docname="selection background purple_blue.svg"
   xmlns:inkscape="http://www.inkscape.org/namespaces/inkscape"
   xmlns:sodipodi="http://sodipodi.sourceforge.net/DTD/sodipodi-0.dtd"
   xmlns:xlink="http://www.w3.org/1999/xlink"
   xmlns="http://www.w3.org/2000/svg"
   xmlns:svg="http://www.w3.org/2000/svg">
  <defs
     id="defs3">
    <linearGradient
       id="linearGradient1"
       inkscape:collect="always">
      <stop
         style="stop-color:#4b4fe2ff;stop-opacity:1;"
         offset="0"
         id="stop1" />
      <stop
         style="stop-color:#a03291;stop-opacity:1;"
         offset="0.76340693"
         id="stop2" />
    </linearGradient>
    <linearGradient
       inkscape:collect="always"
       xlink:href="#linearGradient1"
       id="linearGradient2"
       x1="232.4884"
       y1="23.847498"
       x2="23.977745"
       y2="232.35815"
       gradientUnits="userSpaceOnUse" />
  </defs>
  <defs
     id="defs4" />
  <sodipodi:namedview
     id="namedview4"
     pagecolor="#ffffff"
     bordercolor="#000000"
     borderopacity="0.25"
     inkscape:showpageshadow="2"
     inkscape:pageopacity="0.0"
     inkscape:pagecheckerboard="0"
     inkscape:deskcolor="#d1d1d1" />
  <path
     id="rect2"
     style="baseline-shift:baseline;display:inline;overflow:visible;vector-effect:none;fill:url(#linearGradient2);stroke-linecap:round;stroke-linejoin:round;enable-background:accumulate;stop-color:#000000;stop-opacity:1;opacity:1;fill-opacity:1"
     d="M 96 32 C 87.258201 32 80 39.258201 80 48 L 80 56 A 8 8 0 0 0 88 64 A 8 8 0 0 0 96 56 L 96 48 L 104 48 A 8 8 0 0 0 112 40 A 8 8 0 0 0 104 32 L 96 32 z M 144 32 A 8 8 0 0 0 136 40 A 8 8 0 0 0 144 48 L 160 48 A 8 8 0 0 0 168 40 A 8 8 0 0 0 160 32 L 144 32 z M 200 32 A 8 8 0 0 0 192 40 A 8 8 0 0 0 200 48 L 208 48 L 208 56 A 8 8 0 0 0 216 64 A 8 8 0 0 0 224 56 L 224 48 C 224 39.258201 216.7418 32 208 32 L 200 32 z M 48 80 C 39.274378 80 32 87.274378 32 96 L 32 208 C 32 216.72562 39.274378 224 48 224 L 160 224 C 168.72562 224 176 216.72562 176 208 L 176 96 C 176 87.274378 168.72562 80 160 80 L 48 80 z M 216 88 A 8 8 0 0 0 208 96 L 208 112 A 8 8 0 0 0 216 120 A 8 8 0 0 0 224 112 L 224 96 A 8 8 0 0 0 216 88 z M 48 96 L 160 96 L 160 208 L 48 208 L 48 96 z M 216 144 A 8 8 0 0 0 208 152 L 208 160 L 200 160 A 8 8 0 0 0 192 168 A 8 8 0 0 0 200 176 L 208 176 C 216.7418 176 224 168.7418 224 160 L 224 152 A 8 8 0 0 0 216 144 z " />
</svg>
