<?xml version="1.0" encoding="UTF-8" standalone="no"?>
<svg
   viewBox="0 0 256 256"
   version="1.1"
   id="svg2"
   sodipodi:docname="shield slash purple_blue.svg"
   xmlns:inkscape="http://www.inkscape.org/namespaces/inkscape"
   xmlns:sodipodi="http://sodipodi.sourceforge.net/DTD/sodipodi-0.dtd"
   xmlns:xlink="http://www.w3.org/1999/xlink"
   xmlns="http://www.w3.org/2000/svg"
   xmlns:svg="http://www.w3.org/2000/svg">
  <defs
     id="defs3">
    <linearGradient
       id="linearGradient1"
       inkscape:collect="always">
      <stop
         style="stop-color:#4b4fe2ff;stop-opacity:1;"
         offset="0"
         id="stop1" />
      <stop
         style="stop-color:#a03291;stop-opacity:1;"
         offset="0.76340693"
         id="stop2" />
    </linearGradient>
    <linearGradient
       inkscape:collect="always"
       xlink:href="#linearGradient1"
       id="linearGradient2"
       x1="232.4884"
       y1="23.847498"
       x2="23.977745"
       y2="232.35815"
       gradientUnits="userSpaceOnUse" />
  </defs>
  <defs
     id="defs2" />
  <sodipodi:namedview
     id="namedview2"
     pagecolor="#ffffff"
     bordercolor="#000000"
     borderopacity="0.25"
     inkscape:showpageshadow="2"
     inkscape:pageopacity="0.0"
     inkscape:pagecheckerboard="0"
     inkscape:deskcolor="#d1d1d1" />
  <path
     id="line1"
     style="baseline-shift:baseline;display:inline;overflow:visible;vector-effect:none;fill:url(#linearGradient2);stroke-linecap:round;stroke-linejoin:round;enable-background:accumulate;stop-color:#000000;stop-opacity:1;opacity:1;fill-opacity:1"
     d="M 48.380859 32.009766 A 8 8 0 0 0 42.619141 34.080078 A 8 8 0 0 0 40.263672 42.035156 C 35.361416 44.79025 32 50.051411 32 56 L 32 112 C 32 162.44444 55.584916 195.08794 78.933594 214.19141 C 102.28227 233.29487 125.89453 239.71875 125.89453 239.71875 A 8.0008 8.0008 0 0 0 130.10547 239.71875 C 130.10547 239.71875 160.8732 231.42749 187.19727 205.00977 L 202.08008 221.38086 A 8 8 0 0 0 213.38086 221.91992 A 8 8 0 0 0 213.91992 210.61914 L 193.37891 188.02344 L 193.37695 188.02148 A 8 8 0 0 0 192.98633 187.5918 L 53.919922 34.619141 A 8 8 0 0 0 48.380859 32.009766 z M 98.519531 40 A 8 8 0 0 0 90.519531 48 A 8 8 0 0 0 98.519531 56 L 208 56 L 208 112 C 208 131.98624 204.00784 148.39006 197.85938 162.00781 A 8 8 0 0 0 201.85742 172.5918 A 8 8 0 0 0 212.44141 168.5918 C 219.51295 152.92955 224 134.13376 224 112 L 224 56 C 224 47.258201 216.7418 40 208 40 L 98.519531 40 z M 48 56 L 51.734375 56 L 176.42773 193.16211 C 155.85793 214.19555 132.75901 222.08786 127.95117 223.58398 C 123.05328 222.01973 106.54686 216.11078 89.066406 201.80859 C 68.415084 184.91206 48 157.55556 48 112 L 48 56 z " />
</svg>
