<?xml version="1.0" encoding="UTF-8" standalone="no"?>
<svg
   viewBox="0 0 256 256"
   version="1.1"
   id="svg3"
   sodipodi:docname="sim card purple_blue.svg"
   xmlns:inkscape="http://www.inkscape.org/namespaces/inkscape"
   xmlns:sodipodi="http://sodipodi.sourceforge.net/DTD/sodipodi-0.dtd"
   xmlns:xlink="http://www.w3.org/1999/xlink"
   xmlns="http://www.w3.org/2000/svg"
   xmlns:svg="http://www.w3.org/2000/svg">
  <defs
     id="defs3">
    <linearGradient
       id="linearGradient1"
       inkscape:collect="always">
      <stop
         style="stop-color:#4b4fe2ff;stop-opacity:1;"
         offset="0"
         id="stop1" />
      <stop
         style="stop-color:#a03291;stop-opacity:1;"
         offset="0.76340693"
         id="stop2" />
    </linearGradient>
    <linearGradient
       inkscape:collect="always"
       xlink:href="#linearGradient1"
       id="linearGradient2"
       x1="232.4884"
       y1="23.847498"
       x2="23.977745"
       y2="232.35815"
       gradientUnits="userSpaceOnUse" />
  </defs>
  <defs
     id="defs1" />
  <sodipodi:namedview
     id="namedview3"
     pagecolor="#ffffff"
     bordercolor="#000000"
     borderopacity="0.25"
     inkscape:showpageshadow="2"
     inkscape:pageopacity="0.0"
     inkscape:pagecheckerboard="0"
     inkscape:deskcolor="#d1d1d1" />
  <path
     id="path1"
     style="baseline-shift:baseline;display:inline;overflow:visible;vector-effect:none;fill:url(#linearGradient2);stroke-linecap:round;stroke-linejoin:round;enable-background:accumulate;stop-color:#000000;stop-opacity:1;opacity:1;fill-opacity:1"
     d="M 56 24 C 47.258201 24 40 31.258201 40 40 L 40 216 C 40 224.7418 47.258201 232 56 232 L 200 232 C 208.7418 232 216 224.7418 216 216 L 216 88 A 8.0008 8.0008 0 0 0 213.65625 82.34375 L 157.65625 26.34375 A 8.0008 8.0008 0 0 0 152 24 L 56 24 z M 56 40 L 148.68555 40 L 200 91.314453 L 200 216 L 56 216 L 56 40 z M 80 112 A 8.0008 8.0008 0 0 0 72 120 L 72 192 A 8.0008 8.0008 0 0 0 80 200 L 144 200 L 176 200 A 8.0008 8.0008 0 0 0 184 192 L 184 120 A 8.0008 8.0008 0 0 0 176 112 L 80 112 z M 88 128 L 168 128 L 168 184 L 152 184 L 152 152 A 8 8 0 0 0 144 144 A 8 8 0 0 0 136 152 L 136 184 L 120 184 L 120 152 A 8 8 0 0 0 112 144 A 8 8 0 0 0 104 152 L 104 184 L 88 184 L 88 128 z " />
</svg>
