<?xml version="1.0" encoding="UTF-8" standalone="no"?>
<svg
   viewBox="0 0 256 256"
   version="1.1"
   id="svg3"
   sodipodi:docname="skull purple_blue.svg"
   xmlns:inkscape="http://www.inkscape.org/namespaces/inkscape"
   xmlns:sodipodi="http://sodipodi.sourceforge.net/DTD/sodipodi-0.dtd"
   xmlns:xlink="http://www.w3.org/1999/xlink"
   xmlns="http://www.w3.org/2000/svg"
   xmlns:svg="http://www.w3.org/2000/svg">
  <defs
     id="defs3">
    <linearGradient
       id="linearGradient1"
       inkscape:collect="always">
      <stop
         style="stop-color:#4b4fe2ff;stop-opacity:1;"
         offset="0"
         id="stop1" />
      <stop
         style="stop-color:#a03291;stop-opacity:1;"
         offset="0.76340693"
         id="stop2" />
    </linearGradient>
    <linearGradient
       inkscape:collect="always"
       xlink:href="#linearGradient1"
       id="linearGradient2"
       x1="232.4884"
       y1="23.847498"
       x2="23.977745"
       y2="232.35815"
       gradientUnits="userSpaceOnUse" />
  </defs>
  <defs
     id="defs1" />
  <sodipodi:namedview
     id="namedview3"
     pagecolor="#ffffff"
     bordercolor="#000000"
     borderopacity="0.25"
     inkscape:showpageshadow="2"
     inkscape:pageopacity="0.0"
     inkscape:pagecheckerboard="0"
     inkscape:deskcolor="#d1d1d1" />
  <path
     id="circle1"
     style="baseline-shift:baseline;display:inline;overflow:visible;vector-effect:none;fill:url(#linearGradient2);stroke-linecap:round;stroke-linejoin:round;enable-background:accumulate;stop-color:#000000;stop-opacity:1;opacity:1;fill-opacity:1"
     d="M 128 16 C 70.855094 16 24 60.676453 24 116 C 24 151.36266 43.281385 182.30377 72 200.04492 L 72 216 C 72 224.7418 79.258201 232 88 232 L 112 232 L 144 232 L 168 232 C 176.7418 232 184 224.7418 184 216 L 184 200.04492 C 212.71861 182.30377 232 151.36266 232 116 C 232 60.676453 185.14491 16 128 16 z M 128 32 C 176.85509 32 216 69.703547 216 116 C 216 147.02543 198.44603 174.0949 172.12109 188.69336 A 8.0008 8.0008 0 0 0 168 195.68945 L 168 216 L 152 216 L 152 192 A 8 8 0 0 0 144 184 A 8 8 0 0 0 136 192 L 136 216 L 120 216 L 120 192 A 8 8 0 0 0 112 184 A 8 8 0 0 0 104 192 L 104 216 L 88 216 L 88 195.68945 A 8.0008 8.0008 0 0 0 83.878906 188.69336 C 57.553966 174.0949 40 147.02543 40 116 C 40 69.703547 79.144906 32 128 32 z M 92 104 C 76.630784 104 64 116.63078 64 132 C 64 147.36922 76.630784 160 92 160 C 107.36922 160 120 147.36922 120 132 C 120 116.63078 107.36922 104 92 104 z M 164 104 C 148.63078 104 136 116.63078 136 132 C 136 147.36922 148.63078 160 164 160 C 179.36922 160 192 147.36922 192 132 C 192 116.63078 179.36922 104 164 104 z M 92 120 C 98.722174 120 104 125.27783 104 132 C 104 138.72217 98.722174 144 92 144 C 85.277826 144 80 138.72217 80 132 C 80 125.27783 85.277826 120 92 120 z M 164 120 C 170.72217 120 176 125.27783 176 132 C 176 138.72217 170.72217 144 164 144 C 157.27783 144 152 138.72217 152 132 C 152 125.27783 157.27783 120 164 120 z " />
</svg>
