<?xml version="1.0" encoding="UTF-8" standalone="no"?>
<svg
   viewBox="0 0 256 256"
   version="1.1"
   id="svg3"
   sodipodi:docname="smiley melting purple_blue.svg"
   xmlns:inkscape="http://www.inkscape.org/namespaces/inkscape"
   xmlns:sodipodi="http://sodipodi.sourceforge.net/DTD/sodipodi-0.dtd"
   xmlns:xlink="http://www.w3.org/1999/xlink"
   xmlns="http://www.w3.org/2000/svg"
   xmlns:svg="http://www.w3.org/2000/svg">
  <defs
     id="defs3">
    <linearGradient
       id="linearGradient1"
       inkscape:collect="always">
      <stop
         style="stop-color:#4b4fe2ff;stop-opacity:1;"
         offset="0"
         id="stop1" />
      <stop
         style="stop-color:#a03291;stop-opacity:1;"
         offset="0.76340693"
         id="stop2" />
    </linearGradient>
    <linearGradient
       inkscape:collect="always"
       xlink:href="#linearGradient1"
       id="linearGradient2"
       x1="232.4884"
       y1="23.847498"
       x2="23.977745"
       y2="232.35815"
       gradientUnits="userSpaceOnUse" />
  </defs>
  <defs
     id="defs1" />
  <sodipodi:namedview
     id="namedview3"
     pagecolor="#ffffff"
     bordercolor="#000000"
     borderopacity="0.25"
     inkscape:showpageshadow="2"
     inkscape:pageopacity="0.0"
     inkscape:pagecheckerboard="0"
     inkscape:deskcolor="#d1d1d1" />
  <path
     id="circle1"
     style="baseline-shift:baseline;display:inline;overflow:visible;vector-effect:none;fill:url(#linearGradient2);stroke-linecap:round;stroke-linejoin:round;enable-background:accumulate;stop-color:#000000;stop-opacity:1;opacity:1;fill-opacity:1"
     d="M 126.51367 24 C 70.763427 24.791606 25.087155 70.14275 24.001953 125.90039 C 24.001928 125.90139 24.001979 125.9033 24.001953 125.9043 C 23.442561 152.21273 32.912405 177.75547 50.486328 197.3418 A 8 8 0 0 0 61.783203 197.95508 A 8 8 0 0 0 62.394531 186.6582 C 47.526875 170.08795 39.521424 148.48783 39.998047 126.23047 A 8.0008 8.0008 0 0 0 39.998047 126.21484 C 40.914906 79.014923 79.536597 40.669415 126.74414 40 A 8.0008 8.0008 0 0 0 126.74609 40 C 161.69885 39.495769 193.58944 59.684258 208.08789 91.492188 C 222.58634 123.30012 216.90556 160.61431 193.59766 186.66602 A 8 8 0 0 0 194.22656 197.96289 A 8 8 0 0 0 205.52148 197.33398 C 233.0365 166.57985 239.76391 122.40485 222.64844 84.855469 C 205.53323 47.306686 167.77672 23.40554 126.51562 24 L 126.51367 24 z M 116 80 A 12 12 0 0 0 104 92 A 12 12 0 0 0 116 104 A 12 12 0 0 0 128 92 A 12 12 0 0 0 116 80 z M 80.927734 112.00391 A 8 8 0 0 0 72.767578 118.69141 C 72.257575 121.76723 72.000972 124.88023 72 127.99805 A 8.0008 8.0008 0 0 0 72 128 C 72 144.22143 80.92651 158.32346 93.013672 168.14844 C 105.10083 177.97341 120.5833 184 136 184 L 152 184 C 156.51304 184 160 187.48696 160 192 C 160 196.51304 156.51304 200 152 200 L 96 200 C 82.83992 200 72 210.83993 72 224 C 72 237.16007 82.83992 248 96 248 A 8 8 0 0 0 104 240 A 8 8 0 0 0 96 232 C 91.486956 232 88 228.51304 88 224 C 88 219.48696 91.486956 216 96 216 L 152 216 C 165.16008 216 176 205.16007 176 192 C 176 178.83993 165.16008 168 152 168 L 136 168 C 124.9067 168 112.39081 163.27995 103.10547 155.73242 C 93.820129 148.18489 88 138.28857 88 128 C 88.000806 125.75801 88.185996 123.52039 88.552734 121.30859 A 8 8 0 0 0 81.96875 112.10742 A 8 8 0 0 0 80.927734 112.00391 z M 164 128 A 12 12 0 0 0 152 140 A 12 12 0 0 0 164 152 A 12 12 0 0 0 176 140 A 12 12 0 0 0 164 128 z " />
</svg>
