<?xml version="1.0" encoding="UTF-8" standalone="no"?>
<svg
   viewBox="0 0 256 256"
   version="1.1"
   id="svg3"
   sodipodi:docname="smiley sad purple_blue.svg"
   xmlns:inkscape="http://www.inkscape.org/namespaces/inkscape"
   xmlns:sodipodi="http://sodipodi.sourceforge.net/DTD/sodipodi-0.dtd"
   xmlns:xlink="http://www.w3.org/1999/xlink"
   xmlns="http://www.w3.org/2000/svg"
   xmlns:svg="http://www.w3.org/2000/svg">
  <defs
     id="defs3">
    <linearGradient
       id="linearGradient1"
       inkscape:collect="always">
      <stop
         style="stop-color:#4b4fe2ff;stop-opacity:1;"
         offset="0"
         id="stop1" />
      <stop
         style="stop-color:#a03291;stop-opacity:1;"
         offset="0.76340693"
         id="stop2" />
    </linearGradient>
    <linearGradient
       inkscape:collect="always"
       xlink:href="#linearGradient1"
       id="linearGradient2"
       x1="232.4884"
       y1="23.847498"
       x2="23.977745"
       y2="232.35815"
       gradientUnits="userSpaceOnUse" />
  </defs>
  <defs
     id="defs1" />
  <sodipodi:namedview
     id="namedview3"
     pagecolor="#ffffff"
     bordercolor="#000000"
     borderopacity="0.25"
     inkscape:showpageshadow="2"
     inkscape:pageopacity="0.0"
     inkscape:pagecheckerboard="0"
     inkscape:deskcolor="#d1d1d1" />
  <path
     id="circle1"
     style="baseline-shift:baseline;display:inline;overflow:visible;vector-effect:none;fill:url(#linearGradient2);stroke-linecap:round;stroke-linejoin:round;enable-background:accumulate;stop-color:#000000;stop-opacity:1;opacity:1;fill-opacity:1"
     d="M 128 24 C 70.657143 24 24 70.657143 24 128 C 24 185.34286 70.657143 232 128 232 C 185.34286 232 232 185.34286 232 128 C 232 70.657143 185.34286 24 128 24 z M 128 40 C 176.69582 40 216 79.304185 216 128 C 216 176.69582 176.69582 216 128 216 C 79.304185 216 40 176.69582 40 128 C 40 79.304185 79.304185 40 128 40 z M 92 96 A 12 12 0 0 0 80 108 A 12 12 0 0 0 92 120 A 12 12 0 0 0 104 108 A 12 12 0 0 0 92 96 z M 164 96 A 12 12 0 0 0 152 108 A 12 12 0 0 0 164 120 A 12 12 0 0 0 176 108 A 12 12 0 0 0 164 96 z M 128 144 C 107.33373 144 90.538293 155.63155 81.074219 171.99414 A 8 8 0 0 0 83.994141 182.92578 A 8 8 0 0 0 94.925781 180.00586 C 102.06171 167.66845 113.12627 160 128 160 C 142.87373 160 153.93829 167.66845 161.07422 180.00586 A 8 8 0 0 0 172.00586 182.92578 A 8 8 0 0 0 174.92578 171.99414 C 165.46171 155.63155 148.66627 144 128 144 z " />
</svg>
