<?xml version="1.0" encoding="UTF-8" standalone="no"?>
<svg
   viewBox="0 0 256 256"
   version="1.1"
   id="svg2"
   sodipodi:docname="snapchat logo purple_blue.svg"
   xmlns:inkscape="http://www.inkscape.org/namespaces/inkscape"
   xmlns:sodipodi="http://sodipodi.sourceforge.net/DTD/sodipodi-0.dtd"
   xmlns:xlink="http://www.w3.org/1999/xlink"
   xmlns="http://www.w3.org/2000/svg"
   xmlns:svg="http://www.w3.org/2000/svg">
  <defs
     id="defs3">
    <linearGradient
       id="linearGradient1"
       inkscape:collect="always">
      <stop
         style="stop-color:#4b4fe2ff;stop-opacity:1;"
         offset="0"
         id="stop1" />
      <stop
         style="stop-color:#a03291;stop-opacity:1;"
         offset="0.76340693"
         id="stop2" />
    </linearGradient>
    <linearGradient
       inkscape:collect="always"
       xlink:href="#linearGradient1"
       id="linearGradient2"
       x1="232.4884"
       y1="23.847498"
       x2="23.977745"
       y2="232.35815"
       gradientUnits="userSpaceOnUse" />
  </defs>
  <defs
     id="defs2" />
  <sodipodi:namedview
     id="namedview2"
     pagecolor="#ffffff"
     bordercolor="#000000"
     borderopacity="0.25"
     inkscape:showpageshadow="2"
     inkscape:pageopacity="0.0"
     inkscape:pagecheckerboard="0"
     inkscape:deskcolor="#d1d1d1" />
  <path
     id="path1"
     style="baseline-shift:baseline;display:inline;overflow:visible;vector-effect:none;fill:url(#linearGradient2);stroke-linecap:round;stroke-linejoin:round;enable-background:accumulate;stop-color:#000000;stop-opacity:1;opacity:1;fill-opacity:1"
     d="M 128 15.970703 C 92.748541 15.970703 64 44.719218 64 79.970703 C 64 91.960175 62.830801 102.48576 60.849609 111.72852 L 42.972656 104.57227 A 8 8 0 0 0 32.572266 109.02734 A 8 8 0 0 0 37.027344 119.42773 L 56.421875 127.18945 C 51.47671 140.7145 44.723921 150.6761 38.064453 158.04492 C 25.269167 172.20313 13.308594 176.36523 13.308594 176.36523 A 8.0008 8.0008 0 0 0 10.525391 189.73438 C 17.936106 196.68893 27.450814 197.3331 35.777344 198.19336 C 44.103874 199.05362 51.803813 200.03884 54.802734 201.68945 A 8.0008 8.0008 0 0 0 54.804688 201.68945 C 57.695836 203.27906 61.858916 208.64943 66.460938 214.88672 C 71.062961 221.12401 76.515271 228.69836 86.246094 231.18945 A 8.0008 8.0008 0 0 0 86.248047 231.19141 C 95.177532 233.47552 103.25861 230.75791 110.29102 228.4043 C 117.32342 226.05068 123.65125 223.88086 128 223.88086 C 132.34875 223.88086 138.67658 226.05068 145.70898 228.4043 C 152.74139 230.75791 160.82247 233.47552 169.75195 231.19141 A 8.0008 8.0008 0 0 0 169.75391 231.18945 C 179.48473 228.69836 184.93704 221.12401 189.53906 214.88672 C 194.14108 208.64943 198.30416 203.27906 201.19531 201.68945 A 8.0008 8.0008 0 0 0 201.19727 201.68945 C 204.19619 200.03884 211.89613 199.05362 220.22266 198.19336 C 228.54919 197.3331 238.06389 196.68892 245.47461 189.73438 A 8.0008 8.0008 0 0 0 242.69531 176.36719 C 242.69531 176.36719 230.73205 172.19538 217.93555 158.03125 C 211.27777 150.66202 204.52657 140.70318 199.58203 127.1875 L 218.97266 119.42773 A 8 8 0 0 0 223.42773 109.02734 A 8 8 0 0 0 213.02734 104.57227 L 195.15234 111.72656 C 193.16967 102.4836 192 91.959254 192 79.970703 C 192 44.719218 163.25146 15.970703 128 15.970703 z M 128 31.970703 C 154.60443 31.970703 176 53.366254 176 79.970703 C 176 96.865652 178.21848 111.44653 181.81836 123.95117 A 8 8 0 0 0 182.26367 125.50195 A 8 8 0 0 0 182.30664 125.60742 C 188.05042 144.62528 196.99658 158.71886 206.06445 168.75586 C 211.21002 174.45136 216.22373 178.49813 220.90625 181.87695 C 220.05738 181.99024 219.47614 182.18477 218.58008 182.27734 C 210.69485 183.09201 201.69484 183.15179 193.48438 187.66992 L 193.48242 187.67188 C 185.33611 192.15249 180.9633 199.56245 176.66602 205.38672 C 172.36804 211.21193 168.55433 214.98054 165.78516 215.68945 C 162.63445 216.49454 157.35605 215.43092 150.78711 213.23242 C 144.21702 211.03354 136.70125 207.88086 128 207.88086 C 119.29875 207.88086 111.78298 211.03354 105.21289 213.23242 C 98.643957 215.43092 93.365553 216.49454 90.214844 215.68945 L 90.212891 215.68945 C 87.443833 214.9796 83.631209 211.21091 79.333984 205.38672 C 75.036702 199.56245 70.663891 192.15248 62.517578 187.67188 L 62.513672 187.66992 C 54.303655 183.15268 45.30463 183.09196 37.419922 182.27734 C 36.527639 182.18514 35.949023 181.99164 35.103516 181.87891 C 39.783241 178.50343 44.794446 174.46216 49.935547 168.77344 C 59.013939 158.72809 67.970052 144.61578 73.712891 125.5625 A 8 8 0 0 0 73.736328 125.50195 A 8 8 0 0 0 74.173828 123.99805 C 77.778669 111.48369 80 96.886626 80 79.970703 C 80 53.366254 101.39557 31.970703 128 31.970703 z " />
</svg>
