<?xml version="1.0" encoding="UTF-8" standalone="no"?>
<svg
   viewBox="0 0 256 256"
   version="1.1"
   id="svg4"
   sodipodi:docname="sneaker purple_blue.svg"
   xmlns:inkscape="http://www.inkscape.org/namespaces/inkscape"
   xmlns:sodipodi="http://sodipodi.sourceforge.net/DTD/sodipodi-0.dtd"
   xmlns:xlink="http://www.w3.org/1999/xlink"
   xmlns="http://www.w3.org/2000/svg"
   xmlns:svg="http://www.w3.org/2000/svg">
  <defs
     id="defs3">
    <linearGradient
       id="linearGradient1"
       inkscape:collect="always">
      <stop
         style="stop-color:#4b4fe2ff;stop-opacity:1;"
         offset="0"
         id="stop1" />
      <stop
         style="stop-color:#a03291;stop-opacity:1;"
         offset="0.76340693"
         id="stop2" />
    </linearGradient>
    <linearGradient
       inkscape:collect="always"
       xlink:href="#linearGradient1"
       id="linearGradient2"
       x1="232.4884"
       y1="23.847498"
       x2="23.977745"
       y2="232.35815"
       gradientUnits="userSpaceOnUse" />
  </defs>
  <defs
     id="defs4" />
  <sodipodi:namedview
     id="namedview4"
     pagecolor="#ffffff"
     bordercolor="#000000"
     borderopacity="0.25"
     inkscape:showpageshadow="2"
     inkscape:pageopacity="0.0"
     inkscape:pagecheckerboard="0"
     inkscape:deskcolor="#d1d1d1" />
  <path
     id="path1"
     style="baseline-shift:baseline;display:inline;overflow:visible;vector-effect:none;fill:url(#linearGradient2);stroke-linecap:round;stroke-linejoin:round;enable-background:accumulate;stop-color:#000000;stop-opacity:1;opacity:1;fill-opacity:1"
     d="M 116.24609 32.039062 C 114.26934 31.960622 112.25573 32.249098 110.30469 32.947266 A 8.0008 8.0008 0 0 0 110.26758 32.960938 L 34.537109 60.480469 C 28.223139 62.77347 23.98303 68.843008 24 75.560547 L 24 192 C 24 200.7418 31.258201 208 40 208 L 240 208 C 248.7418 208 256 200.7418 256 192 L 256 167.06055 A 8.0008 8.0008 0 0 0 256 167.05859 C 255.996 149.87587 244.95122 134.55513 228.65039 129.12109 L 167.91992 108.87109 C 161.52517 106.73895 156.33221 102.02433 153.58984 95.867188 L 151.99805 92.148438 A 8 8 0 0 0 151.80273 91.693359 L 141.01953 66.513672 A 8 8 0 0 0 140.79688 65.992188 L 140.68945 65.738281 A 8 8 0 0 0 140.6875 65.734375 L 130.35352 41.601562 A 8.0008 8.0008 0 0 0 130.30469 41.488281 C 127.76966 35.812036 122.17636 32.274391 116.24609 32.039062 z M 115.69531 48.011719 L 122.81641 64.646484 L 101.26562 72.482422 A 8 8 0 0 0 96.482422 82.734375 A 8 8 0 0 0 106.73438 87.517578 L 129.125 79.376953 L 133.86328 90.445312 L 117.26562 96.482422 A 8 8 0 0 0 112.48242 106.73438 A 8 8 0 0 0 122.73438 111.51758 L 140.32031 105.12109 C 142.34477 108.86678 144.9419 112.23891 147.99023 115.12891 L 133.26562 120.48242 A 8 8 0 0 0 128.48242 130.73438 A 8 8 0 0 0 138.73438 135.51758 L 166.72852 125.33984 L 223.58984 144.29883 C 231.09947 146.80223 236.71413 152.72373 238.94531 160 L 40 160 L 40 75.539062 A 8.0008 8.0008 0 0 0 40 75.519531 A 8.0008 8.0008 0 0 0 40.001953 75.519531 L 115.69531 48.011719 z M 40 176 L 240 176 L 240 192 L 40 192 L 40 176 z " />
</svg>
