<?xml version="1.0" encoding="UTF-8" standalone="no"?>
<svg
   viewBox="0 0 256 256"
   version="1.1"
   id="svg9"
   sodipodi:docname="soccer ball purple_blue.svg"
   xmlns:inkscape="http://www.inkscape.org/namespaces/inkscape"
   xmlns:sodipodi="http://sodipodi.sourceforge.net/DTD/sodipodi-0.dtd"
   xmlns:xlink="http://www.w3.org/1999/xlink"
   xmlns="http://www.w3.org/2000/svg"
   xmlns:svg="http://www.w3.org/2000/svg">
  <defs
     id="defs3">
    <linearGradient
       id="linearGradient1"
       inkscape:collect="always">
      <stop
         style="stop-color:#4b4fe2ff;stop-opacity:1;"
         offset="0"
         id="stop1" />
      <stop
         style="stop-color:#a03291;stop-opacity:1;"
         offset="0.76340693"
         id="stop2" />
    </linearGradient>
    <linearGradient
       inkscape:collect="always"
       xlink:href="#linearGradient1"
       id="linearGradient2"
       x1="232.4884"
       y1="23.847498"
       x2="23.977745"
       y2="232.35815"
       gradientUnits="userSpaceOnUse" />
  </defs>
  <defs
     id="defs9" />
  <sodipodi:namedview
     id="namedview9"
     pagecolor="#ffffff"
     bordercolor="#000000"
     borderopacity="0.25"
     inkscape:showpageshadow="2"
     inkscape:pageopacity="0.0"
     inkscape:pagecheckerboard="0"
     inkscape:deskcolor="#d1d1d1" />
  <path
     id="circle1"
     style="baseline-shift:baseline;display:inline;overflow:visible;vector-effect:none;fill:url(#linearGradient2);stroke-linecap:round;stroke-linejoin:round;enable-background:accumulate;stop-color:#000000;stop-opacity:1;opacity:1;fill-opacity:1"
     d="M 128 24 C 114.34474 24 101.29547 26.645299 89.337891 31.451172 A 8 8 0 0 0 88.126953 31.947266 C 72.269626 38.55505 58.385122 48.980439 47.628906 62.068359 A 8 8 0 0 0 46.466797 63.507812 C 32.406287 81.246055 24 103.66094 24 128 C 24 148.17841 29.778201 167.0334 39.765625 182.99805 A 8 8 0 0 0 40.650391 184.38867 C 54.550263 205.84558 76.133992 221.88307 101.47461 228.57227 C 101.73041 228.63979 101.98758 228.70587 102.24414 228.77148 C 110.48357 230.87869 119.11342 232 128 232 C 164.57558 232 196.80333 213.01811 215.34961 184.38867 A 8 8 0 0 0 216.23438 182.99805 C 226.22179 167.0334 232 148.17841 232 128 C 232 103.66355 223.59685 81.251016 209.53906 63.513672 A 8 8 0 0 0 208.36719 62.0625 C 197.60704 48.971567 183.71705 38.545896 167.85352 31.939453 A 8 8 0 0 0 166.6875 31.462891 C 154.72286 26.650424 141.66513 24 128 24 z M 128 40 C 134.20428 40 140.25625 40.639331 146.09375 41.853516 L 128 54.291016 L 109.90625 41.853516 C 115.74375 40.63933 121.79572 40 128 40 z M 90.849609 48.167969 L 120 68.207031 L 120 83.791016 L 86.71875 106.67188 L 71.646484 101.78125 L 62.111328 69.591797 C 70.068714 60.61743 79.835656 53.287671 90.849609 48.167969 z M 165.15039 48.167969 C 176.16382 53.287429 185.93149 60.618012 193.88867 69.591797 L 184.34375 101.7832 L 169.28125 106.67188 L 136 83.791016 L 136 68.207031 L 165.15039 48.167969 z M 205.59766 86.382812 C 210.56084 95.639105 213.91677 105.89221 215.29492 116.77344 L 200.05273 105.08008 L 205.59766 86.382812 z M 50.400391 86.388672 L 55.9375 105.08008 L 40.705078 116.76953 C 42.083185 105.89226 45.43972 95.642197 50.400391 86.388672 z M 128 97.708984 L 158.46094 118.65039 L 147.00781 152 L 108.99219 152 L 97.539062 118.65039 L 128 97.708984 z M 66.693359 116.99414 L 81.730469 121.87695 L 94.361328 158.66406 L 85.09375 171.41992 L 51.396484 171.41992 C 45.554559 161.11318 41.732898 149.50174 40.464844 137.12109 L 66.693359 116.99414 z M 189.30078 116.99805 L 215.53516 137.125 C 214.26685 149.50475 210.44506 161.11385 204.60352 171.41992 L 170.90625 171.41992 L 161.63867 158.66406 L 174.26953 121.87695 L 189.30078 116.99805 z M 107.35742 168 L 148.64258 168 L 157.88477 180.71875 L 146.04297 214.1582 C 140.2209 215.36564 134.18658 216 128 216 C 121.81342 216 115.7791 215.36564 109.95703 214.1582 L 98.115234 180.71875 L 107.35742 168 z M 63.021484 187.41992 L 83.515625 187.41992 L 90.720703 207.77148 C 80.176165 202.84906 70.777092 195.89934 63.021484 187.41992 z M 172.48438 187.41992 L 192.97852 187.41992 C 185.22291 195.89934 175.82384 202.84906 165.2793 207.77148 L 172.48438 187.41992 z " />
</svg>
