<?xml version="1.0" encoding="UTF-8" standalone="no"?>
<svg
   viewBox="0 0 256 256"
   version="1.1"
   id="svg4"
   sodipodi:docname="soundcloud logo purple_blue.svg"
   xmlns:inkscape="http://www.inkscape.org/namespaces/inkscape"
   xmlns:sodipodi="http://sodipodi.sourceforge.net/DTD/sodipodi-0.dtd"
   xmlns:xlink="http://www.w3.org/1999/xlink"
   xmlns="http://www.w3.org/2000/svg"
   xmlns:svg="http://www.w3.org/2000/svg">
  <defs
     id="defs3">
    <linearGradient
       id="linearGradient1"
       inkscape:collect="always">
      <stop
         style="stop-color:#4b4fe2ff;stop-opacity:1;"
         offset="0"
         id="stop1" />
      <stop
         style="stop-color:#a03291;stop-opacity:1;"
         offset="0.76340693"
         id="stop2" />
    </linearGradient>
    <linearGradient
       inkscape:collect="always"
       xlink:href="#linearGradient1"
       id="linearGradient2"
       x1="232.4884"
       y1="23.847498"
       x2="23.977745"
       y2="232.35815"
       gradientUnits="userSpaceOnUse" />
  </defs>
  <defs
     id="defs4" />
  <sodipodi:namedview
     id="namedview4"
     pagecolor="#ffffff"
     bordercolor="#000000"
     borderopacity="0.25"
     inkscape:showpageshadow="2"
     inkscape:pageopacity="0.0"
     inkscape:pagecheckerboard="0"
     inkscape:deskcolor="#d1d1d1" />
  <path
     id="line1"
     style="baseline-shift:baseline;display:inline;overflow:visible;vector-effect:none;fill:url(#linearGradient2);stroke-linecap:round;stroke-linejoin:round;enable-background:accumulate;stop-color:#000000;stop-opacity:1;opacity:1;fill-opacity:1"
     d="M 144 40 A 8 8 0 0 0 136 48 A 8 8 0 0 0 144 56 C 176.91502 55.9964 204.35814 80.790306 207.68164 113.53711 A 8.0008 8.0008 0 0 0 214.11914 120.58398 C 230.38068 123.734 241.47381 138.58289 239.88477 155.07031 C 238.29572 171.55774 224.56968 184.01368 208.00586 184 A 8.0008 8.0008 0 0 0 208 184 L 144 184 A 8 8 0 0 0 136 192 A 8 8 0 0 0 144 200 L 207.99414 200 C 232.6656 200.0204 253.44565 181.16314 255.8125 156.60547 C 257.98811 134.03208 243.88367 113.39392 222.79297 106.5332 C 216.29201 68.442053 183.15595 39.995663 144 40 z M 112 48 A 8 8 0 0 0 104 56 L 104 192 A 8 8 0 0 0 112 200 A 8 8 0 0 0 120 192 L 120 56 A 8 8 0 0 0 112 48 z M 80 80 A 8 8 0 0 0 72 88 L 72 192 A 8 8 0 0 0 80 200 A 8 8 0 0 0 88 192 L 88 88 A 8 8 0 0 0 80 80 z M 48 88 A 8 8 0 0 0 40 96 L 40 192 A 8 8 0 0 0 48 200 A 8 8 0 0 0 56 192 L 56 96 A 8 8 0 0 0 48 88 z M 16 112 A 8 8 0 0 0 8 120 L 8 168 A 8 8 0 0 0 16 176 A 8 8 0 0 0 24 168 L 24 120 A 8 8 0 0 0 16 112 z " />
</svg>
