<?xml version="1.0" encoding="UTF-8" standalone="no"?>
<svg
   viewBox="0 0 256 256"
   version="1.1"
   id="svg2"
   sodipodi:docname="speaker simple x purple_blue.svg"
   xmlns:inkscape="http://www.inkscape.org/namespaces/inkscape"
   xmlns:sodipodi="http://sodipodi.sourceforge.net/DTD/sodipodi-0.dtd"
   xmlns:xlink="http://www.w3.org/1999/xlink"
   xmlns="http://www.w3.org/2000/svg"
   xmlns:svg="http://www.w3.org/2000/svg">
  <defs
     id="defs3">
    <linearGradient
       id="linearGradient1"
       inkscape:collect="always">
      <stop
         style="stop-color:#4b4fe2ff;stop-opacity:1;"
         offset="0"
         id="stop1" />
      <stop
         style="stop-color:#a03291;stop-opacity:1;"
         offset="0.76340693"
         id="stop2" />
    </linearGradient>
    <linearGradient
       inkscape:collect="always"
       xlink:href="#linearGradient1"
       id="linearGradient2"
       x1="232.4884"
       y1="23.847498"
       x2="23.977745"
       y2="232.35815"
       gradientUnits="userSpaceOnUse" />
  </defs>
  <defs
     id="defs2" />
  <sodipodi:namedview
     id="namedview2"
     pagecolor="#ffffff"
     bordercolor="#000000"
     borderopacity="0.25"
     inkscape:showpageshadow="2"
     inkscape:pageopacity="0.0"
     inkscape:pagecheckerboard="0"
     inkscape:deskcolor="#d1d1d1" />
  <path
     id="path1"
     style="baseline-shift:baseline;display:inline;overflow:visible;vector-effect:none;fill:url(#linearGradient2);stroke-linecap:round;stroke-linejoin:round;enable-background:accumulate;stop-color:#000000;stop-opacity:1;opacity:1;fill-opacity:1"
     d="M 159.67188 24.007812 A 8.0008 8.0008 0 0 0 155.08789 25.685547 L 85.255859 80 L 40 80 C 31.258201 80 24 87.258201 24 96 L 24 160 C 24 168.7418 31.258201 176 40 176 L 85.255859 176 L 155.08789 230.31445 A 8.0008 8.0008 0 0 0 168 224 L 168 32 A 8.0008 8.0008 0 0 0 160.66211 24.029297 A 8.0008 8.0008 0 0 0 159.67188 24.007812 z M 152 48.357422 L 152 207.64258 L 92.912109 161.68555 A 8.0008 8.0008 0 0 0 88 160 L 40 160 L 40 96 L 88 96 A 8.0008 8.0008 0 0 0 92.912109 94.314453 L 152 48.357422 z M 200 96 A 8 8 0 0 0 194.34375 98.34375 A 8 8 0 0 0 194.34375 109.65625 L 212.6875 128 L 194.34375 146.34375 A 8 8 0 0 0 194.34375 157.65625 A 8 8 0 0 0 205.65625 157.65625 L 224 139.3125 L 242.34375 157.65625 A 8 8 0 0 0 253.65625 157.65625 A 8 8 0 0 0 253.65625 146.34375 L 235.3125 128 L 253.65625 109.65625 A 8 8 0 0 0 253.65625 98.34375 A 8 8 0 0 0 248 96 A 8 8 0 0 0 242.34375 98.34375 L 224 116.6875 L 205.65625 98.34375 A 8 8 0 0 0 200 96 z " />
</svg>
