<?xml version="1.0" encoding="UTF-8" standalone="no"?>
<svg
   viewBox="0 0 256 256"
   version="1.1"
   id="svg1"
   sodipodi:docname="spiral purple_blue.svg"
   xmlns:inkscape="http://www.inkscape.org/namespaces/inkscape"
   xmlns:sodipodi="http://sodipodi.sourceforge.net/DTD/sodipodi-0.dtd"
   xmlns:xlink="http://www.w3.org/1999/xlink"
   xmlns="http://www.w3.org/2000/svg"
   xmlns:svg="http://www.w3.org/2000/svg">
  <defs
     id="defs3">
    <linearGradient
       id="linearGradient1"
       inkscape:collect="always">
      <stop
         style="stop-color:#4b4fe2ff;stop-opacity:1;"
         offset="0"
         id="stop1" />
      <stop
         style="stop-color:#a03291;stop-opacity:1;"
         offset="0.76340693"
         id="stop2" />
    </linearGradient>
    <linearGradient
       inkscape:collect="always"
       xlink:href="#linearGradient1"
       id="linearGradient2"
       x1="232.4884"
       y1="23.847498"
       x2="23.977745"
       y2="232.35815"
       gradientUnits="userSpaceOnUse" />
  </defs>
  <defs
     id="defs1" />
  <sodipodi:namedview
     id="namedview1"
     pagecolor="#ffffff"
     bordercolor="#000000"
     borderopacity="0.25"
     inkscape:showpageshadow="2"
     inkscape:pageopacity="0.0"
     inkscape:pagecheckerboard="0"
     inkscape:deskcolor="#d1d1d1" />
  <path
     id="path1"
     style="baseline-shift:baseline;display:inline;overflow:visible;vector-effect:none;fill:url(#linearGradient2);stroke-linecap:round;stroke-linejoin:round;enable-background:accumulate;stop-color:#000000;stop-opacity:1;opacity:1;fill-opacity:1"
     d="M 136 32 C 78.657143 32 32 78.657143 32 136 C 32 188.92458 75.075421 232 128 232 C 176.5063 232 216 192.5063 216 144 C 216 99.911977 180.08802 64 136 64 C 96.330255 64 64 96.330255 64 136 C 64 171.25147 92.748533 200 128 200 C 158.83319 200 184 174.83319 184 144 C 184 117.58509 162.41491 96 136 96 C 114.00337 96 96 114.00337 96 136 C 96 153.57835 110.42165 168 128 168 C 141.16008 168 152 157.16008 152 144 C 152 135.2582 144.7418 128 136 128 A 8 8 0 0 0 128 136 A 8 8 0 0 0 136 144 C 136 148.51304 132.51304 152 128 152 C 119.06869 152 112 144.93131 112 136 C 112 122.65041 122.65041 112 136 112 C 153.76787 112 168 126.23213 168 144 C 168 166.18615 150.18615 184 128 184 C 101.39557 184 80 162.60443 80 136 C 80 104.9773 104.9773 80 136 80 C 171.44098 80 200 108.55902 200 144 C 200 183.85926 167.85926 216 128 216 C 83.722463 216 48 180.27754 48 136 C 48 87.304185 87.304185 48 136 48 C 189.11409 48 232 90.885907 232 144 A 8 8 0 0 0 240 152 A 8 8 0 0 0 248 144 C 248 82.238865 197.76113 32 136 32 z " />
</svg>
