<?xml version="1.0" encoding="UTF-8" standalone="no"?>
<svg
   viewBox="0 0 256 256"
   version="1.1"
   id="svg2"
   sodipodi:docname="stack plus purple_blue.svg"
   xmlns:inkscape="http://www.inkscape.org/namespaces/inkscape"
   xmlns:sodipodi="http://sodipodi.sourceforge.net/DTD/sodipodi-0.dtd"
   xmlns:xlink="http://www.w3.org/1999/xlink"
   xmlns="http://www.w3.org/2000/svg"
   xmlns:svg="http://www.w3.org/2000/svg">
  <defs
     id="defs3">
    <linearGradient
       id="linearGradient1"
       inkscape:collect="always">
      <stop
         style="stop-color:#4b4fe2ff;stop-opacity:1;"
         offset="0"
         id="stop1" />
      <stop
         style="stop-color:#a03291;stop-opacity:1;"
         offset="0.76340693"
         id="stop2" />
    </linearGradient>
    <linearGradient
       inkscape:collect="always"
       xlink:href="#linearGradient1"
       id="linearGradient2"
       x1="232.4884"
       y1="23.847498"
       x2="23.977745"
       y2="232.35815"
       gradientUnits="userSpaceOnUse" />
  </defs>
  <defs
     id="defs2" />
  <sodipodi:namedview
     id="namedview2"
     pagecolor="#ffffff"
     bordercolor="#000000"
     borderopacity="0.25"
     inkscape:showpageshadow="2"
     inkscape:pageopacity="0.0"
     inkscape:pagecheckerboard="0"
     inkscape:deskcolor="#d1d1d1" />
  <path
     id="polyline1"
     style="baseline-shift:baseline;display:inline;overflow:visible;vector-effect:none;fill:url(#linearGradient2);stroke-linecap:round;stroke-linejoin:round;enable-background:accumulate;stop-color:#000000;stop-opacity:1;opacity:1;fill-opacity:1"
     d="M 128 16 A 8.0008 8.0008 0 0 0 123.96875 17.089844 L 27.96875 73.089844 A 8.0008 8.0008 0 0 0 27.96875 86.910156 L 123.96875 142.91016 A 8.0008 8.0008 0 0 0 132.03125 142.91016 L 228.03125 86.910156 A 8.0008 8.0008 0 0 0 228.03125 73.089844 L 132.03125 17.089844 A 8.0008 8.0008 0 0 0 128 16 z M 128 33.261719 L 208.12305 80 L 128 126.73828 L 47.876953 80 L 128 33.261719 z M 32.037109 120 A 8 8 0 0 0 29.964844 120.26367 A 8 8 0 0 0 25.089844 123.96875 A 8 8 0 0 0 27.96875 134.91016 L 123.96875 190.91016 A 8.0008 8.0008 0 0 0 132.03125 190.91016 L 228.03125 134.91016 A 8 8 0 0 0 230.91016 123.96875 A 8 8 0 0 0 219.96875 121.08984 L 128 174.73828 L 36.03125 121.08984 A 8 8 0 0 0 32.037109 120 z M 32.037109 168 A 8 8 0 0 0 29.964844 168.26367 A 8 8 0 0 0 25.089844 171.96875 A 8 8 0 0 0 27.96875 182.91016 L 123.96875 238.91016 A 8.0008 8.0008 0 0 0 132.0293 238.91016 L 148.0293 229.58008 A 8 8 0 0 0 150.91016 218.64062 A 8 8 0 0 0 139.9707 215.75977 L 128 222.73828 L 36.03125 169.08984 A 8 8 0 0 0 32.037109 168 z M 208 168 A 8 8 0 0 0 200 176 L 200 192 L 184 192 A 8 8 0 0 0 176 200 A 8 8 0 0 0 184 208 L 200 208 L 200 224 A 8 8 0 0 0 208 232 A 8 8 0 0 0 216 224 L 216 208 L 232 208 A 8 8 0 0 0 240 200 A 8 8 0 0 0 232 192 L 216 192 L 216 176 A 8 8 0 0 0 208 168 z " />
</svg>
