<?xml version="1.0" encoding="UTF-8" standalone="no"?>
<svg
   viewBox="0 0 256 256"
   version="1.1"
   id="svg2"
   sodipodi:docname="sticker purple_blue.svg"
   xmlns:inkscape="http://www.inkscape.org/namespaces/inkscape"
   xmlns:sodipodi="http://sodipodi.sourceforge.net/DTD/sodipodi-0.dtd"
   xmlns:xlink="http://www.w3.org/1999/xlink"
   xmlns="http://www.w3.org/2000/svg"
   xmlns:svg="http://www.w3.org/2000/svg">
  <defs
     id="defs3">
    <linearGradient
       id="linearGradient1"
       inkscape:collect="always">
      <stop
         style="stop-color:#4b4fe2ff;stop-opacity:1;"
         offset="0"
         id="stop1" />
      <stop
         style="stop-color:#a03291;stop-opacity:1;"
         offset="0.76340693"
         id="stop2" />
    </linearGradient>
    <linearGradient
       inkscape:collect="always"
       xlink:href="#linearGradient1"
       id="linearGradient2"
       x1="232.4884"
       y1="23.847498"
       x2="23.977745"
       y2="232.35815"
       gradientUnits="userSpaceOnUse" />
  </defs>
  <defs
     id="defs2" />
  <sodipodi:namedview
     id="namedview2"
     pagecolor="#ffffff"
     bordercolor="#000000"
     borderopacity="0.25"
     inkscape:showpageshadow="2"
     inkscape:pageopacity="0.0"
     inkscape:pagecheckerboard="0"
     inkscape:deskcolor="#d1d1d1" />
  <path
     id="path1"
     style="baseline-shift:baseline;display:inline;overflow:visible;vector-effect:none;fill:url(#linearGradient2);stroke-linecap:round;stroke-linejoin:round;enable-background:accumulate;stop-color:#000000;stop-opacity:1;opacity:1;fill-opacity:1"
     d="M 88 32 C 57.166811 32 32 57.166811 32 88 L 32 168 C 32 198.83319 57.166811 224 88 224 L 136 224 A 8.0008 8.0008 0 0 0 136.96875 223.9375 A 8 8 0 0 0 137.25195 223.89062 A 8.0008 8.0008 0 0 0 137.92383 223.75586 A 8 8 0 0 0 138.23633 223.66992 A 8.0008 8.0008 0 0 0 138.5293 223.58984 C 138.6295 223.55644 138.7355 223.50103 138.83594 223.4668 A 8 8 0 0 0 139.21094 223.31641 C 154.0986 218.10483 171.42886 203.88364 187.65625 187.65625 C 203.88364 171.42886 218.10483 154.0986 223.31641 139.21094 A 8 8 0 0 0 223.4668 138.83594 C 223.50103 138.7355 223.55644 138.6295 223.58984 138.5293 A 8.0008 8.0008 0 0 0 223.66992 138.23633 A 8 8 0 0 0 223.75586 137.92383 A 8.0008 8.0008 0 0 0 223.89062 137.25195 A 8 8 0 0 0 223.9375 136.96875 A 8.0008 8.0008 0 0 0 224 136 L 224 88 C 224 57.166811 198.83319 32 168 32 L 88 32 z M 88 48 L 168 48 C 190.18615 48 208 65.813853 208 88 L 208 128 L 184 128 C 153.16681 128 128 153.16681 128 184 L 128 208 L 88 208 C 65.813853 208 48 190.18615 48 168 L 48 88 C 48 65.813853 65.813853 48 88 48 z M 184 144 L 202.88086 144 C 196.93361 153.3971 187.16097 165.52653 176.34375 176.34375 C 165.52653 187.16097 153.3971 196.93361 144 202.88086 L 144 184 C 144 161.81385 161.81385 144 184 144 z " />
</svg>
