<?xml version="1.0" encoding="UTF-8" standalone="no"?>
<svg
   viewBox="0 0 256 256"
   version="1.1"
   id="svg6"
   sodipodi:docname="subtitles slash purple_blue.svg"
   xmlns:inkscape="http://www.inkscape.org/namespaces/inkscape"
   xmlns:sodipodi="http://sodipodi.sourceforge.net/DTD/sodipodi-0.dtd"
   xmlns:xlink="http://www.w3.org/1999/xlink"
   xmlns="http://www.w3.org/2000/svg"
   xmlns:svg="http://www.w3.org/2000/svg">
  <defs
     id="defs3">
    <linearGradient
       id="linearGradient1"
       inkscape:collect="always">
      <stop
         style="stop-color:#4b4fe2ff;stop-opacity:1;"
         offset="0"
         id="stop1" />
      <stop
         style="stop-color:#a03291;stop-opacity:1;"
         offset="0.76340693"
         id="stop2" />
    </linearGradient>
    <linearGradient
       inkscape:collect="always"
       xlink:href="#linearGradient1"
       id="linearGradient2"
       x1="232.4884"
       y1="23.847498"
       x2="23.977745"
       y2="232.35815"
       gradientUnits="userSpaceOnUse" />
  </defs>
  <defs
     id="defs6" />
  <sodipodi:namedview
     id="namedview6"
     pagecolor="#ffffff"
     bordercolor="#000000"
     borderopacity="0.25"
     inkscape:showpageshadow="2"
     inkscape:pageopacity="0.0"
     inkscape:pagecheckerboard="0"
     inkscape:deskcolor="#d1d1d1" />
  <path
     id="line1"
     style="baseline-shift:baseline;display:inline;overflow:visible;vector-effect:none;fill:url(#linearGradient2);stroke-linecap:round;stroke-linejoin:round;enable-background:accumulate;stop-color:#000000;stop-opacity:1;opacity:1;fill-opacity:1"
     d="M 48.380859 32.009766 A 8 8 0 0 0 42.619141 34.080078 A 8 8 0 0 0 42.080078 45.380859 L 44.460938 48 L 32 48 C 23.258201 48 16 55.258201 16 64 L 16 192 C 16 200.7418 23.258201 208 32 208 L 189.91602 208 L 202.08008 221.38086 A 8 8 0 0 0 213.38086 221.91992 A 8 8 0 0 0 213.91992 210.61914 L 68.636719 50.808594 A 8 8 0 0 0 68.353516 50.496094 L 68.296875 50.433594 A 8 8 0 0 0 68.294922 50.433594 L 53.919922 34.619141 A 8 8 0 0 0 48.380859 32.009766 z M 105.78906 48 A 8 8 0 0 0 97.789062 56 A 8 8 0 0 0 105.78906 64 L 224 64 L 224 194.83008 A 8 8 0 0 0 232 202.83008 A 8 8 0 0 0 240 194.83008 L 240 64 C 240 55.258201 232.7418 48 224 48 L 105.78906 48 z M 32 64 L 59.005859 64 L 117.1875 128 L 104 128 A 8 8 0 0 0 96 136 A 8 8 0 0 0 104 144 L 131.73438 144 L 146.2793 160 L 56 160 A 8 8 0 0 0 48 168 A 8 8 0 0 0 56 176 L 160.82422 176 L 175.36914 192 L 32 192 L 32 64 z M 56 128 A 8 8 0 0 0 48 136 A 8 8 0 0 0 56 144 L 72 144 A 8 8 0 0 0 80 136 A 8 8 0 0 0 72 128 L 56 128 z M 178.51953 128 A 8 8 0 0 0 170.51953 136 A 8 8 0 0 0 178.51953 144 L 200 144 A 8 8 0 0 0 208 136 A 8 8 0 0 0 200 128 L 178.51953 128 z " />
</svg>
