<?xml version="1.0" encoding="UTF-8" standalone="no"?>
<svg
   viewBox="0 0 256 256"
   version="1.1"
   id="svg4"
   sodipodi:docname="taxi purple_blue.svg"
   xmlns:inkscape="http://www.inkscape.org/namespaces/inkscape"
   xmlns:sodipodi="http://sodipodi.sourceforge.net/DTD/sodipodi-0.dtd"
   xmlns:xlink="http://www.w3.org/1999/xlink"
   xmlns="http://www.w3.org/2000/svg"
   xmlns:svg="http://www.w3.org/2000/svg">
  <defs
     id="defs3">
    <linearGradient
       id="linearGradient1"
       inkscape:collect="always">
      <stop
         style="stop-color:#4b4fe2ff;stop-opacity:1;"
         offset="0"
         id="stop1" />
      <stop
         style="stop-color:#a03291;stop-opacity:1;"
         offset="0.76340693"
         id="stop2" />
    </linearGradient>
    <linearGradient
       inkscape:collect="always"
       xlink:href="#linearGradient1"
       id="linearGradient2"
       x1="232.4884"
       y1="23.847498"
       x2="23.977745"
       y2="232.35815"
       gradientUnits="userSpaceOnUse" />
  </defs>
  <defs
     id="defs4" />
  <sodipodi:namedview
     id="namedview4"
     pagecolor="#ffffff"
     bordercolor="#000000"
     borderopacity="0.25"
     inkscape:showpageshadow="2"
     inkscape:pageopacity="0.0"
     inkscape:pagecheckerboard="0"
     inkscape:deskcolor="#d1d1d1" />
  <path
     id="line1"
     style="baseline-shift:baseline;display:inline;overflow:visible;vector-effect:none;fill:url(#linearGradient2);stroke-linecap:round;stroke-linejoin:round;enable-background:accumulate;stop-color:#000000;stop-opacity:1;opacity:1;fill-opacity:1"
     d="M 117.41992 8 C 110.92276 7.99852 105.02051 11.976747 102.58398 18 A 8.0008 8.0008 0 0 0 102.57227 18.029297 L 90.583984 48 L 68.652344 48 C 62.940582 47.9916 57.627362 51.05346 54.771484 56 A 8.0008 8.0008 0 0 0 54.753906 56.033203 L 27.355469 104 L 16 104 A 8 8 0 0 0 8 112 A 8 8 0 0 0 16 120 L 24 120 L 24 176 L 24 200 C 24 208.7418 31.258201 216 40 216 L 64 216 C 72.741799 216 80 208.7418 80 200 L 80 184 L 176 184 L 176 200 C 176 208.7418 183.2582 216 192 216 L 216 216 C 224.7418 216 232 208.7418 232 200 L 232 176 L 232 120 L 240 120 A 8 8 0 0 0 248 112 A 8 8 0 0 0 240 104 L 228.64453 104 L 201.24609 56.033203 A 8.0008 8.0008 0 0 0 201.22852 56 C 198.37264 51.05346 193.05942 47.991581 187.34766 48 L 165.41602 48 L 153.42773 18.029297 A 8.0008 8.0008 0 0 0 153.41602 18 C 150.97632 11.968876 145.06252 7.98878 138.55664 8 L 117.42383 8 L 117.41992 8 z M 117.41602 24 A 8.0008 8.0008 0 0 0 117.41992 24 L 138.57031 24 A 8.0008 8.0008 0 0 0 138.58398 24 L 148.18359 48 L 107.81641 48 L 117.41602 24 z M 68.628906 64 A 8.0008 8.0008 0 0 0 68.640625 64 L 96.097656 64 L 159.90234 64 L 187.35938 64 A 8.0008 8.0008 0 0 0 187.37109 64 L 210.21875 104 L 45.78125 104 L 68.628906 64 z M 40 120 L 216 120 L 216 168 L 40 168 L 40 120 z M 64 136 A 8 8 0 0 0 56 144 A 8 8 0 0 0 64 152 L 80 152 A 8 8 0 0 0 88 144 A 8 8 0 0 0 80 136 L 64 136 z M 176 136 A 8 8 0 0 0 168 144 A 8 8 0 0 0 176 152 L 192 152 A 8 8 0 0 0 200 144 A 8 8 0 0 0 192 136 L 176 136 z M 40 184 L 64 184 L 64 200 L 40 200 L 40 184 z M 192 184 L 216 184 L 216 200 L 192 200 L 192 184 z " />
</svg>
