<?xml version="1.0" encoding="UTF-8" standalone="no"?>
<svg
   viewBox="0 0 256 256"
   version="1.1"
   id="svg2"
   sodipodi:docname="thumbs down purple_blue.svg"
   xmlns:inkscape="http://www.inkscape.org/namespaces/inkscape"
   xmlns:sodipodi="http://sodipodi.sourceforge.net/DTD/sodipodi-0.dtd"
   xmlns:xlink="http://www.w3.org/1999/xlink"
   xmlns="http://www.w3.org/2000/svg"
   xmlns:svg="http://www.w3.org/2000/svg">
  <defs
     id="defs3">
    <linearGradient
       id="linearGradient1"
       inkscape:collect="always">
      <stop
         style="stop-color:#4b4fe2ff;stop-opacity:1;"
         offset="0"
         id="stop1" />
      <stop
         style="stop-color:#a03291;stop-opacity:1;"
         offset="0.76340693"
         id="stop2" />
    </linearGradient>
    <linearGradient
       inkscape:collect="always"
       xlink:href="#linearGradient1"
       id="linearGradient2"
       x1="232.4884"
       y1="23.847498"
       x2="23.977745"
       y2="232.35815"
       gradientUnits="userSpaceOnUse" />
  </defs>
  <defs
     id="defs2" />
  <sodipodi:namedview
     id="namedview2"
     pagecolor="#ffffff"
     bordercolor="#000000"
     borderopacity="0.25"
     inkscape:showpageshadow="2"
     inkscape:pageopacity="0.0"
     inkscape:pagecheckerboard="0"
     inkscape:deskcolor="#d1d1d1" />
  <path
     id="path1"
     style="baseline-shift:baseline;display:inline;overflow:visible;vector-effect:none;fill:url(#linearGradient2);stroke-linecap:round;stroke-linejoin:round;enable-background:accumulate;stop-color:#000000;stop-opacity:1;opacity:1;fill-opacity:1"
     d="M 32 40 C 23.258201 40 16 47.258201 16 56 L 16 144 C 16 152.7418 23.258201 160 32 160 L 75.054688 160 L 112.84375 235.57812 A 8.0008 8.0008 0 0 0 120 240 C 141.99663 240 160 221.99663 160 200 L 160 184 L 216 184 A 8.0008 8.0008 0 0 0 216.00195 184 C 230.30669 183.996 241.59473 171.19254 239.80664 157 L 227.80859 61.007812 A 8.0008 8.0008 0 0 0 227.80664 61 C 226.30297 49.064995 216.03131 40.003389 204.00195 40 A 8.0008 8.0008 0 0 0 204 40 L 80 40 L 32 40 z M 32 56 L 72 56 L 72 144 L 32 144 L 32 56 z M 88 56 L 204 56 C 208.09278 56.0021 211.42197 58.939075 211.93359 63 L 223.93164 158.99219 A 8.0008 8.0008 0 0 0 223.93359 159 C 224.5526 163.91323 220.95012 167.9986 215.99805 168 L 152 168 A 8.0008 8.0008 0 0 0 144 176 L 144 200 C 144 211.73318 135.76715 221.36683 124.71094 223.53125 L 88 150.10938 L 88 56 z " />
</svg>
