<?xml version="1.0" encoding="UTF-8" standalone="no"?>
<svg
   viewBox="0 0 256 256"
   version="1.1"
   id="svg1"
   sodipodi:docname="ticket purple_blue.svg"
   xmlns:inkscape="http://www.inkscape.org/namespaces/inkscape"
   xmlns:sodipodi="http://sodipodi.sourceforge.net/DTD/sodipodi-0.dtd"
   xmlns:xlink="http://www.w3.org/1999/xlink"
   xmlns="http://www.w3.org/2000/svg"
   xmlns:svg="http://www.w3.org/2000/svg">
  <defs
     id="defs3">
    <linearGradient
       id="linearGradient1"
       inkscape:collect="always">
      <stop
         style="stop-color:#4b4fe2ff;stop-opacity:1;"
         offset="0"
         id="stop1" />
      <stop
         style="stop-color:#a03291;stop-opacity:1;"
         offset="0.76340693"
         id="stop2" />
    </linearGradient>
    <linearGradient
       inkscape:collect="always"
       xlink:href="#linearGradient1"
       id="linearGradient2"
       x1="232.4884"
       y1="23.847498"
       x2="23.977745"
       y2="232.35815"
       gradientUnits="userSpaceOnUse" />
  </defs>
  <defs
     id="defs1" />
  <sodipodi:namedview
     id="namedview1"
     pagecolor="#ffffff"
     bordercolor="#000000"
     borderopacity="0.25"
     inkscape:showpageshadow="2"
     inkscape:pageopacity="0.0"
     inkscape:pagecheckerboard="0"
     inkscape:deskcolor="#d1d1d1" />
  <path
     id="line1"
     style="baseline-shift:baseline;display:inline;overflow:visible;vector-effect:none;fill:url(#linearGradient2);stroke-linecap:round;stroke-linejoin:round;enable-background:accumulate;stop-color:#000000;stop-opacity:1;opacity:1;fill-opacity:1"
     d="M 32 48 C 23.258201 48 16 55.258201 16 64 L 16 96 A 8.0008 8.0008 0 0 0 24 104 C 37.349606 104 48 114.6504 48 128 C 48 141.3496 37.349606 152 24 152 A 8.0008 8.0008 0 0 0 16 160 L 16 192 C 16 200.7418 23.258201 208 32 208 L 96 208 L 224 208 C 232.7418 208 240 200.7418 240 192 L 240 160 A 8.0008 8.0008 0 0 0 232 152 C 218.65039 152 208 141.3496 208 128 C 208 114.6504 218.65039 104 232 104 A 8.0008 8.0008 0 0 0 240 96 L 240 64 C 240 55.258201 232.7418 48 224 48 L 96 48 L 32 48 z M 32 64 L 88 64 L 88 192 L 32 192 L 32 167.1875 C 50.198863 163.45405 64 147.25909 64 128 C 64 108.74091 50.198863 92.545955 32 88.8125 L 32 64 z M 104 64 L 224 64 L 224 88.8125 C 205.80114 92.545955 192 108.74091 192 128 C 192 147.25909 205.80114 163.45405 224 167.1875 L 224 192 L 104 192 L 104 64 z " />
</svg>
