<?xml version="1.0" encoding="UTF-8" standalone="no"?>
<svg
   viewBox="0 0 256 256"
   version="1.1"
   id="svg5"
   sodipodi:docname="tip jar purple_blue.svg"
   xmlns:inkscape="http://www.inkscape.org/namespaces/inkscape"
   xmlns:sodipodi="http://sodipodi.sourceforge.net/DTD/sodipodi-0.dtd"
   xmlns:xlink="http://www.w3.org/1999/xlink"
   xmlns="http://www.w3.org/2000/svg"
   xmlns:svg="http://www.w3.org/2000/svg">
  <defs
     id="defs3">
    <linearGradient
       id="linearGradient1"
       inkscape:collect="always">
      <stop
         style="stop-color:#4b4fe2ff;stop-opacity:1;"
         offset="0"
         id="stop1" />
      <stop
         style="stop-color:#a03291;stop-opacity:1;"
         offset="0.76340693"
         id="stop2" />
    </linearGradient>
    <linearGradient
       inkscape:collect="always"
       xlink:href="#linearGradient1"
       id="linearGradient2"
       x1="232.4884"
       y1="23.847498"
       x2="23.977745"
       y2="232.35815"
       gradientUnits="userSpaceOnUse" />
  </defs>
  <defs
     id="defs5" />
  <sodipodi:namedview
     id="namedview5"
     pagecolor="#ffffff"
     bordercolor="#000000"
     borderopacity="0.25"
     inkscape:showpageshadow="2"
     inkscape:pageopacity="0.0"
     inkscape:pagecheckerboard="0"
     inkscape:deskcolor="#d1d1d1" />
  <path
     id="rect2"
     style="baseline-shift:baseline;display:inline;overflow:visible;vector-effect:none;fill:url(#linearGradient2);stroke-linecap:round;stroke-linejoin:round;enable-background:accumulate;stop-color:#000000;stop-opacity:1;opacity:1;fill-opacity:1"
     d="M 88 16 C 79.258201 16 72 23.258201 72 32 L 72 48.806641 C 53.785563 52.532869 40 68.716481 40 88 L 40 200 C 40 222.02162 57.978378 240 80 240 L 176 240 C 198.02162 240 216 222.02162 216 200 L 216 88 C 216 68.716481 202.21444 52.53287 184 48.806641 L 184 32 C 184 23.258201 176.7418 16 168 16 L 88 16 z M 88 32 L 104 32 L 104 48 L 88 48 L 88 32 z M 120 32 L 136 32 L 136 48 L 120 48 L 120 32 z M 152 32 L 168 32 L 168 48 L 152 48 L 152 32 z M 80 64 L 176 64 C 189.43438 64 200 74.565622 200 88 L 200 200 C 200 213.43438 189.43438 224 176 224 L 80 224 C 66.565622 224 56 213.43438 56 200 L 56 88 C 56 74.565622 66.565622 64 80 64 z M 128 88 A 8 8 0 0 0 120 96 L 120 104 C 106.83992 104 96 114.83993 96 128 C 96 141.16007 106.83992 152 120 152 L 136 152 C 140.51304 152 144 155.48696 144 160 C 144 164.51304 140.51304 168 136 168 L 128 168 L 112 168 A 8 8 0 0 0 104 176 A 8 8 0 0 0 112 184 L 120 184 L 120 192 A 8 8 0 0 0 128 200 A 8 8 0 0 0 136 192 L 136 184 C 149.16008 184 160 173.16007 160 160 C 160 146.83993 149.16008 136 136 136 L 120 136 C 115.48696 136 112 132.51304 112 128 C 112 123.48696 115.48696 120 120 120 L 144 120 A 8 8 0 0 0 152 112 A 8 8 0 0 0 144 104 L 136 104 L 136 96 A 8 8 0 0 0 128 88 z " />
</svg>
