<?xml version="1.0" encoding="UTF-8" standalone="no"?>
<svg
   viewBox="0 0 256 256"
   version="1.1"
   id="svg2"
   sodipodi:docname="toggle left purple_blue.svg"
   xmlns:inkscape="http://www.inkscape.org/namespaces/inkscape"
   xmlns:sodipodi="http://sodipodi.sourceforge.net/DTD/sodipodi-0.dtd"
   xmlns:xlink="http://www.w3.org/1999/xlink"
   xmlns="http://www.w3.org/2000/svg"
   xmlns:svg="http://www.w3.org/2000/svg">
  <defs
     id="defs3">
    <linearGradient
       id="linearGradient1"
       inkscape:collect="always">
      <stop
         style="stop-color:#4b4fe2ff;stop-opacity:1;"
         offset="0"
         id="stop1" />
      <stop
         style="stop-color:#a03291;stop-opacity:1;"
         offset="0.76340693"
         id="stop2" />
    </linearGradient>
    <linearGradient
       inkscape:collect="always"
       xlink:href="#linearGradient1"
       id="linearGradient2"
       x1="232.4884"
       y1="23.847498"
       x2="23.977745"
       y2="232.35815"
       gradientUnits="userSpaceOnUse" />
  </defs>
  <defs
     id="defs2" />
  <sodipodi:namedview
     id="namedview2"
     pagecolor="#ffffff"
     bordercolor="#000000"
     borderopacity="0.25"
     inkscape:showpageshadow="2"
     inkscape:pageopacity="0.0"
     inkscape:pagecheckerboard="0"
     inkscape:deskcolor="#d1d1d1" />
  <path
     id="rect2"
     style="baseline-shift:baseline;display:inline;overflow:visible;vector-effect:none;fill:url(#linearGradient2);stroke-linecap:round;stroke-linejoin:round;enable-background:accumulate;stop-color:#000000;stop-opacity:1;opacity:1;fill-opacity:1"
     d="M 80 56 C 40.250378 56 8 88.250378 8 128 C 8 167.74962 40.250378 200 80 200 L 176 200 C 215.74962 200 248 167.74962 248 128 C 248 88.250378 215.74962 56 176 56 L 80 56 z M 80 72 L 176 72 C 207.16238 72 232 96.837622 232 128 C 232 159.16238 207.16238 184 176 184 L 80 184 C 48.837622 184 24 159.16238 24 128 C 24 96.837622 48.837622 72 80 72 z M 80 88 C 58.003367 88 40 106.00337 40 128 C 40 149.99663 58.003367 168 80 168 C 101.99663 168 120 149.99663 120 128 C 120 106.00337 101.99663 88 80 88 z M 80 104 C 93.349591 104 104 114.65041 104 128 C 104 141.34959 93.349591 152 80 152 C 66.650409 152 56 141.34959 56 128 C 56 114.65041 66.650409 104 80 104 z " />
</svg>
