<?xml version="1.0" encoding="UTF-8" standalone="no"?>
<svg
   viewBox="0 0 256 256"
   version="1.1"
   id="svg1"
   sodipodi:docname="trademark registered purple_blue.svg"
   xmlns:inkscape="http://www.inkscape.org/namespaces/inkscape"
   xmlns:sodipodi="http://sodipodi.sourceforge.net/DTD/sodipodi-0.dtd"
   xmlns:xlink="http://www.w3.org/1999/xlink"
   xmlns="http://www.w3.org/2000/svg"
   xmlns:svg="http://www.w3.org/2000/svg">
  <defs
     id="defs3">
    <linearGradient
       id="linearGradient1"
       inkscape:collect="always">
      <stop
         style="stop-color:#4b4fe2ff;stop-opacity:1;"
         offset="0"
         id="stop1" />
      <stop
         style="stop-color:#a03291;stop-opacity:1;"
         offset="0.76340693"
         id="stop2" />
    </linearGradient>
    <linearGradient
       inkscape:collect="always"
       xlink:href="#linearGradient1"
       id="linearGradient2"
       x1="232.4884"
       y1="23.847498"
       x2="23.977745"
       y2="232.35815"
       gradientUnits="userSpaceOnUse" />
  </defs>
  <defs
     id="defs1" />
  <sodipodi:namedview
     id="namedview1"
     pagecolor="#ffffff"
     bordercolor="#000000"
     borderopacity="0.25"
     inkscape:showpageshadow="2"
     inkscape:pageopacity="0.0"
     inkscape:pagecheckerboard="0"
     inkscape:deskcolor="#d1d1d1" />
  <path
     id="circle1"
     style="baseline-shift:baseline;display:inline;overflow:visible;vector-effect:none;fill:url(#linearGradient2);stroke-linecap:round;stroke-linejoin:round;enable-background:accumulate;stop-color:#000000;stop-opacity:1;opacity:1;fill-opacity:1"
     d="M 128 24 C 70.657143 24 24 70.657143 24 128 C 24 185.34286 70.657143 232 128 232 C 185.34286 232 232 185.34286 232 128 C 232 70.657143 185.34286 24 128 24 z M 128 40 C 176.69582 40 216 79.304185 216 128 C 216 176.69582 176.69582 216 128 216 C 79.304185 216 40 176.69582 40 128 C 40 79.304185 79.304185 40 128 40 z M 104 80 A 8.0008 8.0008 0 0 0 96 88 L 96 136 L 96 168 A 8 8 0 0 0 104 176 A 8 8 0 0 0 112 168 L 112 144 L 134.39258 144 L 153.34375 172.4375 A 8 8 0 0 0 164.4375 174.65625 A 8 8 0 0 0 166.65625 163.5625 L 151.07812 140.18945 C 161.12236 134.77068 168 124.13838 168 112 C 168 94.421653 153.57836 80 136 80 L 104 80 z M 112 96 L 136 96 C 144.93132 96 152 103.06868 152 112 C 152 120.25988 145.95413 126.9271 137.98047 127.88281 C 137.82308 127.90168 137.66472 127.91726 137.50586 127.93164 C 137.01049 127.97649 136.5084 128 136 128 L 112 128 L 112 96 z " />
</svg>
