<?xml version="1.0" encoding="UTF-8" standalone="no"?>
<svg
   viewBox="0 0 256 256"
   version="1.1"
   id="svg4"
   sodipodi:docname="train regional purple_blue.svg"
   xmlns:inkscape="http://www.inkscape.org/namespaces/inkscape"
   xmlns:sodipodi="http://sodipodi.sourceforge.net/DTD/sodipodi-0.dtd"
   xmlns:xlink="http://www.w3.org/1999/xlink"
   xmlns="http://www.w3.org/2000/svg"
   xmlns:svg="http://www.w3.org/2000/svg">
  <defs
     id="defs3">
    <linearGradient
       id="linearGradient1"
       inkscape:collect="always">
      <stop
         style="stop-color:#4b4fe2ff;stop-opacity:1;"
         offset="0"
         id="stop1" />
      <stop
         style="stop-color:#a03291;stop-opacity:1;"
         offset="0.76340693"
         id="stop2" />
    </linearGradient>
    <linearGradient
       inkscape:collect="always"
       xlink:href="#linearGradient1"
       id="linearGradient2"
       x1="232.4884"
       y1="23.847498"
       x2="23.977745"
       y2="232.35815"
       gradientUnits="userSpaceOnUse" />
  </defs>
  <defs
     id="defs4" />
  <sodipodi:namedview
     id="namedview4"
     pagecolor="#ffffff"
     bordercolor="#000000"
     borderopacity="0.25"
     inkscape:showpageshadow="2"
     inkscape:pageopacity="0.0"
     inkscape:pagecheckerboard="0"
     inkscape:deskcolor="#d1d1d1" />
  <path
     id="path1"
     style="baseline-shift:baseline;display:inline;overflow:visible;vector-effect:none;fill:url(#linearGradient2);stroke-linecap:round;stroke-linejoin:round;enable-background:accumulate;stop-color:#000000;stop-opacity:1;opacity:1;fill-opacity:1"
     d="M 70.109375 24 C 62.930969 24.000405 56.558868 28.869309 54.671875 35.794922 L 54.669922 35.798828 L 54.669922 35.800781 L 32.28125 117.89453 A 8.0008 8.0008 0 0 0 32.212891 118.23242 A 8 8 0 0 0 32.128906 118.56836 A 8 8 0 0 0 32.107422 118.75195 A 8.0008 8.0008 0 0 0 32.048828 119.27344 A 8 8 0 0 0 32.013672 119.80273 A 8.0008 8.0008 0 0 0 32.021484 120.33203 A 8 8 0 0 0 32.056641 120.85156 A 8.0008 8.0008 0 0 0 32.132812 121.37305 A 8 8 0 0 0 32.240234 121.89844 A 8.0008 8.0008 0 0 0 32.28125 122.10547 L 54.669922 204.19922 L 54.669922 204.20117 L 54.671875 204.20508 C 56.558868 211.13069 62.930969 215.99959 70.109375 216 L 80 216 L 65.599609 235.19922 A 8 8 0 0 0 67.199219 246.40039 A 8 8 0 0 0 78.400391 244.80078 L 100 216 L 156 216 L 177.59961 244.80078 A 8 8 0 0 0 188.80078 246.40039 A 8 8 0 0 0 190.40039 235.19922 L 176 216 L 185.89062 216 C 193.07053 215.99959 199.44456 211.12908 201.33008 204.20117 L 223.71875 122.10547 A 8.0008 8.0008 0 0 0 223.75977 121.89844 A 8 8 0 0 0 223.86719 121.37305 A 8.0008 8.0008 0 0 0 223.94336 120.85156 A 8 8 0 0 0 223.97852 120.33203 A 8.0008 8.0008 0 0 0 223.98633 119.80273 A 8 8 0 0 0 223.95117 119.27344 A 8.0008 8.0008 0 0 0 223.89258 118.75195 A 8 8 0 0 0 223.87109 118.56836 A 8 8 0 0 0 223.78711 118.23242 A 8.0008 8.0008 0 0 0 223.71875 117.89453 L 201.33008 35.798828 C 199.44456 28.870919 193.07053 24.000405 185.89062 24 L 70.111328 24 L 70.109375 24 z M 70.109375 40 L 185.89062 40 A 8.0008 8.0008 0 0 0 185.89258 40.003906 L 205.98633 113.68945 L 128 127.86914 L 50.013672 113.68945 L 70.107422 40.003906 A 8.0008 8.0008 0 0 0 70.109375 40 z M 96 80 A 8 8 0 0 0 88 88 A 8 8 0 0 0 96 96 L 160 96 A 8 8 0 0 0 168 88 A 8 8 0 0 0 160 80 L 96 80 z M 51.058594 130.14258 L 120 142.67773 L 120 200 L 70.109375 200 A 8.0008 8.0008 0 0 0 70.107422 199.99609 L 51.058594 130.14258 z M 204.94141 130.14258 L 185.89258 199.99609 A 8.0008 8.0008 0 0 0 185.89062 200 L 160.08398 200 L 159.91406 200 L 136 200 L 136 142.67773 L 204.94141 130.14258 z " />
</svg>
