<?xml version="1.0" encoding="UTF-8" standalone="no"?>
<svg
   viewBox="0 0 256 256"
   version="1.1"
   id="svg4"
   sodipodi:docname="tree palm purple_blue.svg"
   xmlns:inkscape="http://www.inkscape.org/namespaces/inkscape"
   xmlns:sodipodi="http://sodipodi.sourceforge.net/DTD/sodipodi-0.dtd"
   xmlns:xlink="http://www.w3.org/1999/xlink"
   xmlns="http://www.w3.org/2000/svg"
   xmlns:svg="http://www.w3.org/2000/svg">
  <defs
     id="defs3">
    <linearGradient
       id="linearGradient1"
       inkscape:collect="always">
      <stop
         style="stop-color:#4b4fe2ff;stop-opacity:1;"
         offset="0"
         id="stop1" />
      <stop
         style="stop-color:#a03291;stop-opacity:1;"
         offset="0.76340693"
         id="stop2" />
    </linearGradient>
    <linearGradient
       inkscape:collect="always"
       xlink:href="#linearGradient1"
       id="linearGradient2"
       x1="232.4884"
       y1="23.847498"
       x2="23.977745"
       y2="232.35815"
       gradientUnits="userSpaceOnUse" />
  </defs>
  <defs
     id="defs4" />
  <sodipodi:namedview
     id="namedview4"
     pagecolor="#ffffff"
     bordercolor="#000000"
     borderopacity="0.25"
     inkscape:showpageshadow="2"
     inkscape:pageopacity="0.0"
     inkscape:pagecheckerboard="0"
     inkscape:deskcolor="#d1d1d1" />
  <path
     id="path1"
     style="baseline-shift:baseline;display:inline;overflow:visible;vector-effect:none;fill:url(#linearGradient2);stroke-linecap:round;stroke-linejoin:round;enable-background:accumulate;stop-color:#000000;stop-opacity:1;opacity:1;fill-opacity:1"
     d="M 67.080078 32.066406 C 49.204024 32.066406 31.32863 39.142942 18.146484 53.296875 A 8.0008 8.0008 0 0 0 20.808594 66.085938 L 77.09375 90.576172 C 59.452932 95.367533 43.607156 106.78629 33.677734 123.73633 A 8.0008 8.0008 0 0 0 33.669922 123.74805 C 24.092933 140.16518 21.498346 159.74688 26.46875 178.0918 A 8.0008 8.0008 0 0 0 39.039062 182.36328 L 120 120.67188 L 120 224 A 8 8 0 0 0 128 232 A 8 8 0 0 0 136 224 L 136 120.67188 L 216.96094 182.36328 A 8.0008 8.0008 0 0 0 229.53125 178.0918 C 234.50165 159.74688 231.90707 140.16518 222.33008 123.74805 A 8.0008 8.0008 0 0 0 222.32227 123.73633 C 212.39286 106.78631 196.54703 95.367547 178.90625 90.576172 L 235.19141 66.085938 A 8.0008 8.0008 0 0 0 237.85352 53.296875 C 224.67137 39.142942 206.79598 32.066406 188.91992 32.066406 C 171.05162 32.066406 153.1844 39.137639 140.00391 53.279297 C 135.17123 58.406769 131.14403 64.155543 128 70.330078 C 124.85597 64.155542 120.82877 58.40677 115.99609 53.279297 C 102.8156 39.137639 84.948379 32.066406 67.080078 32.066406 z M 67.080078 47.9375 C 80.643617 47.9375 94.207975 53.359984 104.30664 64.203125 A 8.0008 8.0008 0 0 0 104.33984 64.238281 C 111.4909 71.820672 116.33163 81.152491 118.56641 91.169922 L 38.927734 56.521484 C 47.438702 50.826348 57.250214 47.9375 67.080078 47.9375 z M 188.91992 47.9375 C 198.74979 47.9375 208.5613 50.826348 217.07227 56.521484 L 137.43359 91.169922 C 139.66837 81.152491 144.5091 71.820672 151.66016 64.238281 A 8.0008 8.0008 0 0 0 151.69336 64.203125 C 161.79203 53.359988 175.35638 47.9375 188.91992 47.9375 z M 97.519531 103.97461 C 102.46471 104.10875 107.42673 104.95022 112.29102 106.43164 L 40.087891 161.44922 C 39.727104 151.15312 42.20744 140.8727 47.482422 131.82422 L 47.486328 131.81836 L 47.490234 131.81055 C 58.251738 113.45164 77.693933 103.43681 97.519531 103.97461 z M 158.48047 103.97461 C 178.311 103.43668 197.75772 113.45658 208.51758 131.82422 C 213.79256 140.8727 216.2729 151.15312 215.91211 161.44922 L 143.70898 106.43164 C 148.57327 104.95022 153.53529 104.10875 158.48047 103.97461 z " />
</svg>
