<?xml version="1.0" encoding="UTF-8" standalone="no"?>
<svg
   viewBox="0 0 256 256"
   version="1.1"
   id="svg1"
   sodipodi:docname="tree evergreen purple_blue.svg"
   xmlns:inkscape="http://www.inkscape.org/namespaces/inkscape"
   xmlns:sodipodi="http://sodipodi.sourceforge.net/DTD/sodipodi-0.dtd"
   xmlns:xlink="http://www.w3.org/1999/xlink"
   xmlns="http://www.w3.org/2000/svg"
   xmlns:svg="http://www.w3.org/2000/svg">
  <defs
     id="defs3">
    <linearGradient
       id="linearGradient1"
       inkscape:collect="always">
      <stop
         style="stop-color:#4b4fe2ff;stop-opacity:1;"
         offset="0"
         id="stop1" />
      <stop
         style="stop-color:#a03291;stop-opacity:1;"
         offset="0.76340693"
         id="stop2" />
    </linearGradient>
    <linearGradient
       inkscape:collect="always"
       xlink:href="#linearGradient1"
       id="linearGradient2"
       x1="232.4884"
       y1="23.847498"
       x2="23.977745"
       y2="232.35815"
       gradientUnits="userSpaceOnUse" />
  </defs>
  <defs
     id="defs1" />
  <sodipodi:namedview
     id="namedview1"
     pagecolor="#ffffff"
     bordercolor="#000000"
     borderopacity="0.25"
     inkscape:showpageshadow="2"
     inkscape:pageopacity="0.0"
     inkscape:pagecheckerboard="0"
     inkscape:deskcolor="#d1d1d1" />
  <path
     id="polygon1"
     style="baseline-shift:baseline;display:inline;overflow:visible;vector-effect:none;fill:url(#linearGradient2);stroke-linecap:round;stroke-linejoin:round;enable-background:accumulate;stop-color:#000000;stop-opacity:1;opacity:1;fill-opacity:1"
     d="M 128 8 A 8.0008 8.0008 0 0 0 121.6582 11.123047 L 41.658203 115.12305 A 8.0008 8.0008 0 0 0 48 128 L 71.642578 128 L 25.685547 187.08789 A 8.0008 8.0008 0 0 0 32 200 L 120 200 L 120 240 A 8 8 0 0 0 128 248 A 8 8 0 0 0 136 240 L 136 200 L 224 200 A 8.0008 8.0008 0 0 0 230.31445 187.08789 L 184.35742 128 L 208 128 A 8.0008 8.0008 0 0 0 214.3418 115.12305 L 134.3418 11.123047 A 8.0008 8.0008 0 0 0 128 8 z M 128 29.121094 L 191.75195 112 L 168 112 A 8.0008 8.0008 0 0 0 161.68555 124.91211 L 207.64258 184 L 128 184 L 48.357422 184 L 94.314453 124.91211 A 8.0008 8.0008 0 0 0 88 112 L 64.248047 112 L 128 29.121094 z " />
</svg>
