<?xml version="1.0" encoding="UTF-8" standalone="no"?>
<svg
   viewBox="0 0 256 256"
   version="1.1"
   id="svg1"
   sodipodi:docname="user purple_blue.svg"
   xmlns:inkscape="http://www.inkscape.org/namespaces/inkscape"
   xmlns:sodipodi="http://sodipodi.sourceforge.net/DTD/sodipodi-0.dtd"
   xmlns:xlink="http://www.w3.org/1999/xlink"
   xmlns="http://www.w3.org/2000/svg"
   xmlns:svg="http://www.w3.org/2000/svg">
  <defs
     id="defs3">
    <linearGradient
       id="linearGradient1"
       inkscape:collect="always">
      <stop
         style="stop-color:#4b4fe2ff;stop-opacity:1;"
         offset="0"
         id="stop1" />
      <stop
         style="stop-color:#a03291;stop-opacity:1;"
         offset="0.76340693"
         id="stop2" />
    </linearGradient>
    <linearGradient
       inkscape:collect="always"
       xlink:href="#linearGradient1"
       id="linearGradient2"
       x1="232.4884"
       y1="23.847498"
       x2="23.977745"
       y2="232.35815"
       gradientUnits="userSpaceOnUse" />
  </defs>
  <defs
     id="defs1" />
  <sodipodi:namedview
     id="namedview1"
     pagecolor="#ffffff"
     bordercolor="#000000"
     borderopacity="0.25"
     inkscape:showpageshadow="2"
     inkscape:pageopacity="0.0"
     inkscape:pagecheckerboard="0"
     inkscape:deskcolor="#d1d1d1" />
  <path
     id="circle1"
     style="baseline-shift:baseline;display:inline;overflow:visible;vector-effect:none;fill:url(#linearGradient2);stroke-linecap:round;stroke-linejoin:round;enable-background:accumulate;stop-color:#000000;stop-opacity:1;opacity:1;fill-opacity:1"
     d="M 128 24 C 88.330255 24 56 56.330255 56 96 C 56 122.23345 70.137802 145.25676 91.1875 157.84375 C 63.057708 167.08104 39.747662 186.64088 25.076172 211.99219 A 8 8 0 0 0 27.992188 222.92383 A 8 8 0 0 0 38.923828 220.00781 C 56.969992 188.82531 89.448914 168 128 168 C 166.55109 168 199.03001 188.82531 217.07617 220.00781 A 8 8 0 0 0 228.00781 222.92383 A 8 8 0 0 0 230.92383 211.99219 C 216.25234 186.64088 192.94229 167.08104 164.8125 157.84375 C 185.8622 145.25676 200 122.23345 200 96 C 200 56.330255 167.66974 24 128 24 z M 128 40 C 159.0227 40 184 64.977297 184 96 C 184 127.0227 159.0227 152 128 152 C 96.977297 152 72 127.0227 72 96 C 72 64.977297 96.977297 40 128 40 z " />
</svg>
