<?xml version="1.0" encoding="UTF-8" standalone="no"?>
<svg
   viewBox="0 0 256 256"
   version="1.1"
   id="svg3"
   sodipodi:docname="user sound purple_blue.svg"
   xmlns:inkscape="http://www.inkscape.org/namespaces/inkscape"
   xmlns:sodipodi="http://sodipodi.sourceforge.net/DTD/sodipodi-0.dtd"
   xmlns:xlink="http://www.w3.org/1999/xlink"
   xmlns="http://www.w3.org/2000/svg"
   xmlns:svg="http://www.w3.org/2000/svg">
  <defs
     id="defs3">
    <linearGradient
       id="linearGradient1"
       inkscape:collect="always">
      <stop
         style="stop-color:#4b4fe2ff;stop-opacity:1;"
         offset="0"
         id="stop1" />
      <stop
         style="stop-color:#a03291;stop-opacity:1;"
         offset="0.76340693"
         id="stop2" />
    </linearGradient>
    <linearGradient
       inkscape:collect="always"
       xlink:href="#linearGradient1"
       id="linearGradient2"
       x1="232.4884"
       y1="23.847498"
       x2="23.977745"
       y2="232.35815"
       gradientUnits="userSpaceOnUse" />
  </defs>
  <defs
     id="defs1" />
  <sodipodi:namedview
     id="namedview3"
     pagecolor="#ffffff"
     bordercolor="#000000"
     borderopacity="0.25"
     inkscape:showpageshadow="2"
     inkscape:pageopacity="0.0"
     inkscape:pagecheckerboard="0"
     inkscape:deskcolor="#d1d1d1" />
  <path
     id="circle1"
     style="baseline-shift:baseline;display:inline;overflow:visible;vector-effect:none;fill:url(#linearGradient2);stroke-linecap:round;stroke-linejoin:round;enable-background:accumulate;stop-color:#000000;stop-opacity:1;opacity:1;fill-opacity:1"
     d="M 108 40 C 70.539394 40 40 70.539394 40 108 C 40 132.27313 52.822011 153.63989 72.041016 165.67578 C 50.65227 172.68407 32.209623 185.79845 17.875 202.85352 A 8 8 0 0 0 18.853516 214.125 A 8 8 0 0 0 30.125 213.14648 C 49.363946 190.25635 75.968053 176 108 176 C 140.03195 176 166.63605 190.25635 185.875 213.14648 A 8 8 0 0 0 197.14648 214.125 A 8 8 0 0 0 198.125 202.85352 C 183.79038 185.79845 165.34773 172.68407 143.95898 165.67578 C 163.17799 153.63989 176 132.27314 176 108 C 176 70.539394 145.46061 40 108 40 z M 229.27148 48 A 8 8 0 0 0 226.2168 48.642578 A 8 8 0 0 0 222.00391 59.142578 C 235.33444 90.354017 235.33444 125.64598 222.00391 156.85742 A 8 8 0 0 0 226.2168 167.35742 A 8 8 0 0 0 236.7168 163.14258 C 251.75906 127.92338 251.75906 88.076617 236.7168 52.857422 A 8 8 0 0 0 232.33984 48.576172 A 8 8 0 0 0 229.27148 48 z M 108 56 C 136.81356 56 160 79.186436 160 108 C 160 136.81356 136.81356 160 108 160 C 79.186436 160 56 136.81356 56 108 C 56 79.186436 79.186436 56 108 56 z M 199.92578 60.740234 A 8 8 0 0 0 196.86914 61.376953 A 8 8 0 0 0 192.63867 71.871094 C 202.45661 94.96042 202.45661 121.03958 192.63867 144.12891 A 8 8 0 0 0 196.86914 154.62305 A 8 8 0 0 0 207.36133 150.39062 C 218.8777 123.30703 218.8777 92.692973 207.36133 65.609375 A 8 8 0 0 0 202.99219 61.320312 A 8 8 0 0 0 199.92578 60.740234 z " />
</svg>
