<?xml version="1.0" encoding="UTF-8" standalone="no"?>
<svg
   viewBox="0 0 256 256"
   version="1.1"
   id="svg3"
   sodipodi:docname="user switch purple_blue.svg"
   xmlns:inkscape="http://www.inkscape.org/namespaces/inkscape"
   xmlns:sodipodi="http://sodipodi.sourceforge.net/DTD/sodipodi-0.dtd"
   xmlns:xlink="http://www.w3.org/1999/xlink"
   xmlns="http://www.w3.org/2000/svg"
   xmlns:svg="http://www.w3.org/2000/svg">
  <defs
     id="defs3">
    <linearGradient
       id="linearGradient1"
       inkscape:collect="always">
      <stop
         style="stop-color:#4b4fe2ff;stop-opacity:1;"
         offset="0"
         id="stop1" />
      <stop
         style="stop-color:#a03291;stop-opacity:1;"
         offset="0.76340693"
         id="stop2" />
    </linearGradient>
    <linearGradient
       inkscape:collect="always"
       xlink:href="#linearGradient1"
       id="linearGradient2"
       x1="232.4884"
       y1="23.847498"
       x2="23.977745"
       y2="232.35815"
       gradientUnits="userSpaceOnUse" />
  </defs>
  <defs
     id="defs1" />
  <sodipodi:namedview
     id="namedview3"
     pagecolor="#ffffff"
     bordercolor="#000000"
     borderopacity="0.25"
     inkscape:showpageshadow="2"
     inkscape:pageopacity="0.0"
     inkscape:pagecheckerboard="0"
     inkscape:deskcolor="#d1d1d1" />
  <path
     id="circle1"
     style="baseline-shift:baseline;display:inline;overflow:visible;vector-effect:none;fill:url(#linearGradient2);stroke-linecap:round;stroke-linejoin:round;enable-background:accumulate;stop-color:#000000;stop-opacity:1;opacity:1;fill-opacity:1"
     d="M 127.25195 23.966797 C 94.650189 24.216851 63.238214 39.825868 43.5 67.335938 A 8 8 0 0 0 45.335938 78.5 A 8 8 0 0 0 56.5 76.664062 C 78.803192 45.579065 118.54215 32.474327 154.96094 44.195312 C 191.37972 55.9163 216.01424 89.737648 216 127.99609 A 8.0008 8.0008 0 0 0 216 128 L 216 132.6875 L 205.65625 122.34375 A 8 8 0 0 0 200 120 A 8 8 0 0 0 194.34375 122.34375 A 8 8 0 0 0 194.34375 133.65625 L 218.25781 157.57031 L 218.34375 157.65625 A 8.0008 8.0008 0 0 0 218.67578 157.94727 A 8 8 0 0 0 219.10156 158.32031 A 8.0008 8.0008 0 0 0 219.51953 158.60547 A 8 8 0 0 0 219.9668 158.9043 A 8.0008 8.0008 0 0 0 220.49023 159.16992 A 8 8 0 0 0 220.91406 159.37695 A 8.0008 8.0008 0 0 0 221.43555 159.55859 A 8 8 0 0 0 221.91602 159.72266 A 8.0008 8.0008 0 0 0 222.25 159.78906 A 8 8 0 0 0 224 160 A 8 8 0 0 0 225.75 159.78906 A 8.0008 8.0008 0 0 0 226.08398 159.72266 A 8 8 0 0 0 226.56445 159.55859 A 8.0008 8.0008 0 0 0 227.08594 159.37695 A 8 8 0 0 0 227.50977 159.16992 A 8.0008 8.0008 0 0 0 228.0332 158.9043 A 8 8 0 0 0 228.48047 158.60547 A 8.0008 8.0008 0 0 0 228.89844 158.32031 A 8 8 0 0 0 229.32422 157.94727 A 8.0008 8.0008 0 0 0 229.65625 157.65625 L 229.74219 157.57031 L 253.65625 133.65625 A 8 8 0 0 0 253.65625 122.34375 A 8 8 0 0 0 242.34375 122.34375 L 232 132.6875 L 232 128.00391 L 232 128 C 232.0151 82.856883 202.834 42.79513 159.86133 28.964844 C 149.11785 25.507172 138.11921 23.883446 127.25195 23.966797 z M 128 72 C 101.58509 72 80 93.585089 80 120 C 80 135.23636 87.182473 148.86486 98.330078 157.67188 C 83.844007 163.46302 71.208083 173.42707 62.1875 186.47852 C 48.214949 170.74172 39.99177 150.11331 40 128.00391 A 8.0008 8.0008 0 0 0 40 128 L 40 123.3125 L 50.34375 133.65625 A 8 8 0 0 0 61.65625 133.65625 A 8 8 0 0 0 61.65625 122.34375 L 37.65625 98.34375 A 8.0008 8.0008 0 0 0 37.335938 98.0625 A 8 8 0 0 0 36.896484 97.677734 A 8.0008 8.0008 0 0 0 36.474609 97.390625 A 8 8 0 0 0 36.033203 97.095703 A 8.0008 8.0008 0 0 0 35.554688 96.853516 A 8 8 0 0 0 35.078125 96.617188 A 8.0008 8.0008 0 0 0 34.601562 96.453125 A 8 8 0 0 0 34.085938 96.279297 A 8.0008 8.0008 0 0 0 33.539062 96.167969 A 8 8 0 0 0 32 96 A 8.0008 8.0008 0 0 0 30.949219 96.070312 A 8 8 0 0 0 30.460938 96.167969 A 8.0008 8.0008 0 0 0 29.914062 96.279297 A 8 8 0 0 0 29.398438 96.453125 A 8.0008 8.0008 0 0 0 28.921875 96.617188 A 8 8 0 0 0 28.445312 96.853516 A 8.0008 8.0008 0 0 0 27.966797 97.095703 A 8 8 0 0 0 27.525391 97.390625 A 8.0008 8.0008 0 0 0 27.103516 97.677734 A 8 8 0 0 0 26.664062 98.0625 A 8.0008 8.0008 0 0 0 26.34375 98.34375 L 2.34375 122.34375 A 8 8 0 0 0 2.34375 133.65625 A 8 8 0 0 0 13.65625 133.65625 L 24 123.3125 L 24 128 C 23.990122 157.51186 36.614169 184.6918 57.255859 203.95117 A 8 8 0 0 0 60.177734 206.50391 A 8 8 0 0 0 60.292969 206.55273 C 70.619887 215.47115 82.583962 222.67272 96.138672 227.03516 C 131.15165 238.3037 168.69516 229.82172 195.70703 206.55273 A 8 8 0 0 0 195.82227 206.50391 A 8 8 0 0 0 198.74219 203.95117 C 203.7173 199.3183 208.42691 194.34092 212.5 188.66406 A 8 8 0 0 0 210.66406 177.5 A 8 8 0 0 0 199.5 179.33594 C 197.71043 181.83014 195.80804 184.20765 193.80469 186.4668 C 184.78456 173.42023 172.15232 163.46156 157.66992 157.67188 C 168.81753 148.86486 176 135.23636 176 120 C 176 93.585089 154.41491 72 128 72 z M 128 88 C 145.76787 88 160 102.23213 160 120 C 160 137.32583 146.46813 151.29053 129.32031 151.97461 C 128.88107 151.96739 128.44035 151.96289 128 151.96289 C 127.55965 151.96289 127.11893 151.96739 126.67969 151.97461 C 109.53187 151.29053 96 137.32583 96 120 C 96 102.23213 110.23213 88 128 88 z M 126.56836 167.97852 C 127.04411 167.99261 127.52098 168 128 168 C 128.47903 168 128.95589 167.99261 129.43164 167.97852 C 150.89319 168.45566 170.55096 179.63367 181.96875 197.56055 C 159.42442 215.07248 129.23625 220.87964 101.03906 211.80469 C 91.064082 208.59435 81.973803 203.72581 74.03125 197.5625 C 85.448832 179.63439 105.10597 168.45568 126.56836 167.97852 z " />
</svg>
