<?xml version="1.0" encoding="UTF-8" standalone="no"?>
<svg
   viewBox="0 0 256 256"
   version="1.1"
   id="svg4"
   sodipodi:docname="vector three purple_blue.svg"
   xmlns:inkscape="http://www.inkscape.org/namespaces/inkscape"
   xmlns:sodipodi="http://sodipodi.sourceforge.net/DTD/sodipodi-0.dtd"
   xmlns:xlink="http://www.w3.org/1999/xlink"
   xmlns="http://www.w3.org/2000/svg"
   xmlns:svg="http://www.w3.org/2000/svg">
  <defs
     id="defs3">
    <linearGradient
       id="linearGradient1"
       inkscape:collect="always">
      <stop
         style="stop-color:#4b4fe2ff;stop-opacity:1;"
         offset="0"
         id="stop1" />
      <stop
         style="stop-color:#a03291;stop-opacity:1;"
         offset="0.76340693"
         id="stop2" />
    </linearGradient>
    <linearGradient
       inkscape:collect="always"
       xlink:href="#linearGradient1"
       id="linearGradient2"
       x1="232.4884"
       y1="23.847498"
       x2="23.977745"
       y2="232.35815"
       gradientUnits="userSpaceOnUse" />
  </defs>
  <defs
     id="defs4" />
  <sodipodi:namedview
     id="namedview4"
     pagecolor="#ffffff"
     bordercolor="#000000"
     borderopacity="0.25"
     inkscape:showpageshadow="2"
     inkscape:pageopacity="0.0"
     inkscape:pagecheckerboard="0"
     inkscape:deskcolor="#d1d1d1" />
  <path
     id="polyline1"
     style="baseline-shift:baseline;display:inline;overflow:visible;vector-effect:none;fill:url(#linearGradient2);stroke-linecap:round;stroke-linejoin:round;enable-background:accumulate;stop-color:#000000;stop-opacity:1;opacity:1;fill-opacity:1"
     d="M 120 16 A 8.0008 8.0008 0 0 0 118.94922 16.070312 A 8 8 0 0 0 118.46094 16.167969 A 8.0008 8.0008 0 0 0 117.91406 16.279297 A 8 8 0 0 0 117.39844 16.453125 A 8.0008 8.0008 0 0 0 116.92188 16.617188 A 8 8 0 0 0 116.44531 16.853516 A 8.0008 8.0008 0 0 0 115.9668 17.095703 A 8 8 0 0 0 115.52539 17.390625 A 8.0008 8.0008 0 0 0 115.10352 17.677734 A 8 8 0 0 0 114.66406 18.0625 A 8.0008 8.0008 0 0 0 114.34375 18.34375 L 82.34375 50.34375 A 8 8 0 0 0 82.34375 61.65625 A 8 8 0 0 0 93.65625 61.65625 L 112 43.3125 L 112 132.6875 L 56 188.6875 L 56 160 A 8 8 0 0 0 48 152 A 8 8 0 0 0 40 160 L 40 208 A 8.0008 8.0008 0 0 0 40.273438 210.07031 A 8 8 0 0 0 42.34375 213.65625 A 8 8 0 0 0 45.929688 215.72656 A 8.0008 8.0008 0 0 0 48 216 L 96 216 A 8 8 0 0 0 104 208 A 8 8 0 0 0 96 200 L 67.3125 200 L 123.3125 144 L 212.6875 144 L 194.34375 162.34375 A 8 8 0 0 0 194.34375 173.65625 A 8 8 0 0 0 205.65625 173.65625 L 237.65625 141.65625 A 8.0008 8.0008 0 0 0 237.9375 141.33594 A 8 8 0 0 0 238.32227 140.89648 A 8.0008 8.0008 0 0 0 238.60938 140.47461 A 8 8 0 0 0 238.9043 140.0332 A 8.0008 8.0008 0 0 0 239.14648 139.55469 A 8 8 0 0 0 239.38281 139.07812 A 8.0008 8.0008 0 0 0 239.54688 138.60156 A 8 8 0 0 0 239.7207 138.08594 A 8.0008 8.0008 0 0 0 239.79883 137.70703 A 8 8 0 0 0 240 136 A 8 8 0 0 0 239.79883 134.29297 A 8.0008 8.0008 0 0 0 239.7207 133.91406 A 8 8 0 0 0 239.54688 133.39844 A 8.0008 8.0008 0 0 0 239.38281 132.92188 A 8 8 0 0 0 239.14648 132.44531 A 8.0008 8.0008 0 0 0 238.9043 131.9668 A 8 8 0 0 0 238.60938 131.52539 A 8.0008 8.0008 0 0 0 238.32227 131.10352 A 8 8 0 0 0 237.9375 130.66406 A 8.0008 8.0008 0 0 0 237.65625 130.34375 L 205.65625 98.34375 A 8 8 0 0 0 200 96 A 8 8 0 0 0 194.34375 98.34375 A 8 8 0 0 0 194.34375 109.65625 L 212.6875 128 L 128 128 L 128 43.3125 L 146.34375 61.65625 A 8 8 0 0 0 157.65625 61.65625 A 8 8 0 0 0 157.65625 50.34375 L 125.65625 18.34375 A 8.0008 8.0008 0 0 0 125.33594 18.0625 A 8 8 0 0 0 124.89648 17.677734 A 8.0008 8.0008 0 0 0 124.47461 17.390625 A 8 8 0 0 0 124.0332 17.095703 A 8.0008 8.0008 0 0 0 123.55469 16.853516 A 8 8 0 0 0 123.07812 16.617188 A 8.0008 8.0008 0 0 0 122.60156 16.453125 A 8 8 0 0 0 122.08594 16.279297 A 8.0008 8.0008 0 0 0 121.53906 16.167969 A 8 8 0 0 0 120 16 z " />
</svg>
