<?xml version="1.0" encoding="UTF-8" standalone="no"?>
<svg
   viewBox="0 0 256 256"
   version="1.1"
   id="svg6"
   sodipodi:docname="wall purple_blue.svg"
   xmlns:inkscape="http://www.inkscape.org/namespaces/inkscape"
   xmlns:sodipodi="http://sodipodi.sourceforge.net/DTD/sodipodi-0.dtd"
   xmlns:xlink="http://www.w3.org/1999/xlink"
   xmlns="http://www.w3.org/2000/svg"
   xmlns:svg="http://www.w3.org/2000/svg">
  <defs
     id="defs3">
    <linearGradient
       id="linearGradient1"
       inkscape:collect="always">
      <stop
         style="stop-color:#4b4fe2ff;stop-opacity:1;"
         offset="0"
         id="stop1" />
      <stop
         style="stop-color:#a03291;stop-opacity:1;"
         offset="0.76340693"
         id="stop2" />
    </linearGradient>
    <linearGradient
       inkscape:collect="always"
       xlink:href="#linearGradient1"
       id="linearGradient2"
       x1="232.4884"
       y1="23.847498"
       x2="23.977745"
       y2="232.35815"
       gradientUnits="userSpaceOnUse" />
  </defs>
  <defs
     id="defs6" />
  <sodipodi:namedview
     id="namedview6"
     pagecolor="#ffffff"
     bordercolor="#000000"
     borderopacity="0.25"
     inkscape:showpageshadow="2"
     inkscape:pageopacity="0.0"
     inkscape:pagecheckerboard="0"
     inkscape:deskcolor="#d1d1d1" />
  <path
     id="line1"
     style="baseline-shift:baseline;display:inline;overflow:visible;vector-effect:none;fill:url(#linearGradient2);stroke-linecap:round;stroke-linejoin:round;enable-background:accumulate;stop-color:#000000;stop-opacity:1;opacity:1;fill-opacity:1"
     d="M 32 48 A 8.0008 8.0008 0 0 0 24 56 L 24 104 L 24 152 L 24 200 A 8.0008 8.0008 0 0 0 32 208 L 128 208 L 224 208 A 8.0008 8.0008 0 0 0 232 200 L 232 152 L 232 104 L 232 56 A 8.0008 8.0008 0 0 0 224 48 L 128 48 L 32 48 z M 40 64 L 120 64 L 120 96 L 40 96 L 40 64 z M 136 64 L 216 64 L 216 96 L 136 96 L 136 64 z M 40 112 L 72 112 L 72 144 L 40 144 L 40 112 z M 88 112 L 168 112 L 168 144 L 88 144 L 88 112 z M 184 112 L 216 112 L 216 144 L 184 144 L 184 112 z M 40 160 L 120 160 L 120 192 L 40 192 L 40 160 z M 136 160 L 216 160 L 216 192 L 136 192 L 136 160 z " />
</svg>
