<?xml version="1.0" encoding="UTF-8" standalone="no"?>
<svg
   viewBox="0 0 256 256"
   version="1.1"
   id="svg3"
   sodipodi:docname="address book blue_green.svg"
   xmlns:inkscape="http://www.inkscape.org/namespaces/inkscape"
   xmlns:sodipodi="http://sodipodi.sourceforge.net/DTD/sodipodi-0.dtd"
   xmlns:xlink="http://www.w3.org/1999/xlink"
   xmlns="http://www.w3.org/2000/svg"
   xmlns:svg="http://www.w3.org/2000/svg">
  <defs
     id="defs3">
    <linearGradient
       id="linearGradient1"
       inkscape:collect="always">
      <stop
         style="stop-color:#0ec38bff;stop-opacity:1;"
         offset="0"
         id="stop1" />
      <stop
         style="stop-color:#4b4fe2ff;stop-opacity:1;"
         offset="0.76340693"
         id="stop2" />
    </linearGradient>
    <linearGradient
       inkscape:collect="always"
       xlink:href="#linearGradient1"
       id="linearGradient2"
       x1="232.4884"
       y1="23.847498"
       x2="23.977745"
       y2="232.35815"
       gradientUnits="userSpaceOnUse" />
  </defs>
  <defs
     id="defs1" />
  <sodipodi:namedview
     id="namedview3"
     pagecolor="#ffffff"
     bordercolor="#000000"
     borderopacity="0.25"
     inkscape:showpageshadow="2"
     inkscape:pageopacity="0.0"
     inkscape:pagecheckerboard="0"
     inkscape:deskcolor="#d1d1d1" />
  <path
     id="circle1"
     style="baseline-shift:baseline;display:inline;overflow:visible;vector-effect:none;fill:url(#linearGradient2);stroke-linecap:round;stroke-linejoin:round;enable-background:accumulate;stop-color:#000000;stop-opacity:1;opacity:1;fill-opacity:1"
     d="M 64 24 C 55.27438 24 48 31.274378 48 40 L 48 64 L 32 64 A 8 8 0 0 0 24 72 A 8 8 0 0 0 32 80 L 48 80 L 48 120 L 32 120 A 8 8 0 0 0 24 128 A 8 8 0 0 0 32 136 L 48 136 L 48 176 L 32 176 A 8 8 0 0 0 24 184 A 8 8 0 0 0 32 192 L 48 192 L 48 216 C 48 224.72562 55.27438 232 64 232 L 208 232 C 216.72562 232 224 224.72562 224 216 L 224 40 C 224 31.274378 216.72562 24 208 24 L 64 24 z M 64 40 L 208 40 L 208 216 L 64 216 L 64 184 L 64 128 L 64 72 L 64 40 z M 136 72 C 114.00337 72 96 90.003367 96 112 C 96 123.68326 101.07817 134.23937 109.13672 141.57031 C 98.630729 146.03376 89.066307 153.24362 81.599609 163.19922 A 8 8 0 0 0 83.199219 174.40039 A 8 8 0 0 0 94.400391 172.80078 C 104.32615 159.56643 118.84342 152.60847 133.59766 151.92773 C 134.39237 151.9754 135.19387 152 136 152 C 136.80613 152 137.60763 151.9754 138.40234 151.92773 C 153.15658 152.60847 167.67385 159.56643 177.59961 172.80078 A 8 8 0 0 0 188.80078 174.40039 A 8 8 0 0 0 190.40039 163.19922 C 182.93369 153.24362 173.36927 146.03376 162.86328 141.57031 C 170.92183 134.23937 176 123.68326 176 112 C 176 90.003367 157.99663 72 136 72 z M 136 88 C 149.34959 88 160 98.650409 160 112 C 160 125.34959 149.34959 136 136 136 C 122.65041 136 112 125.34959 112 112 C 112 98.650409 122.65041 88 136 88 z " />
</svg>
