<?xml version="1.0" encoding="UTF-8" standalone="no"?>
<svg
   viewBox="0 0 256 256"
   version="1.1"
   id="svg2"
   sodipodi:docname="alarm blue_green.svg"
   xmlns:inkscape="http://www.inkscape.org/namespaces/inkscape"
   xmlns:sodipodi="http://sodipodi.sourceforge.net/DTD/sodipodi-0.dtd"
   xmlns:xlink="http://www.w3.org/1999/xlink"
   xmlns="http://www.w3.org/2000/svg"
   xmlns:svg="http://www.w3.org/2000/svg">
  <defs
     id="defs3">
    <linearGradient
       id="linearGradient1"
       inkscape:collect="always">
      <stop
         style="stop-color:#0ec38bff;stop-opacity:1;"
         offset="0"
         id="stop1" />
      <stop
         style="stop-color:#4b4fe2ff;stop-opacity:1;"
         offset="0.76340693"
         id="stop2" />
    </linearGradient>
    <linearGradient
       inkscape:collect="always"
       xlink:href="#linearGradient1"
       id="linearGradient2"
       x1="232.4884"
       y1="23.847498"
       x2="23.977745"
       y2="232.35815"
       gradientUnits="userSpaceOnUse" />
  </defs>
  <defs
     id="defs2" />
  <sodipodi:namedview
     id="namedview2"
     pagecolor="#ffffff"
     bordercolor="#000000"
     borderopacity="0.25"
     inkscape:showpageshadow="2"
     inkscape:pageopacity="0.0"
     inkscape:pagecheckerboard="0"
     inkscape:deskcolor="#d1d1d1" />
  <path
     id="circle1"
     style="baseline-shift:baseline;display:inline;overflow:visible;vector-effect:none;fill:url(#linearGradient2);stroke-linecap:round;stroke-linejoin:round;enable-background:accumulate;stop-color:#000000;stop-opacity:1;opacity:1;fill-opacity:1"
     d="M 56 24 A 8 8 0 0 0 50.34375 26.34375 L 18.34375 58.34375 A 8 8 0 0 0 18.34375 69.65625 A 8 8 0 0 0 29.65625 69.65625 L 61.65625 37.65625 A 8 8 0 0 0 61.65625 26.34375 A 8 8 0 0 0 56 24 z M 200 24 A 8 8 0 0 0 194.34375 26.34375 A 8 8 0 0 0 194.34375 37.65625 L 226.34375 69.65625 A 8 8 0 0 0 237.65625 69.65625 A 8 8 0 0 0 237.65625 58.34375 L 205.65625 26.34375 A 8 8 0 0 0 200 24 z M 128 40 C 75.075421 40 32 83.075421 32 136 C 32 188.92458 75.075421 232 128 232 C 180.92458 232 224 188.92458 224 136 C 224 83.075421 180.92458 40 128 40 z M 128 56 C 172.27754 56 208 91.722463 208 136 C 208 180.27754 172.27754 216 128 216 C 83.722463 216 48 180.27754 48 136 C 48 91.722463 83.722463 56 128 56 z M 128 72 A 8 8 0 0 0 120 80 L 120 136 A 8.0008 8.0008 0 0 0 128 144 L 184 144 A 8 8 0 0 0 192 136 A 8 8 0 0 0 184 128 L 136 128 L 136 80 A 8 8 0 0 0 128 72 z " />
</svg>
