<?xml version="1.0" encoding="UTF-8" standalone="no"?>
<svg
   viewBox="0 0 256 256"
   version="1.1"
   id="svg2"
   sodipodi:docname="approximate equals blue_green.svg"
   xmlns:inkscape="http://www.inkscape.org/namespaces/inkscape"
   xmlns:sodipodi="http://sodipodi.sourceforge.net/DTD/sodipodi-0.dtd"
   xmlns:xlink="http://www.w3.org/1999/xlink"
   xmlns="http://www.w3.org/2000/svg"
   xmlns:svg="http://www.w3.org/2000/svg">
  <defs
     id="defs3">
    <linearGradient
       id="linearGradient1"
       inkscape:collect="always">
      <stop
         style="stop-color:#0ec38bff;stop-opacity:1;"
         offset="0"
         id="stop1" />
      <stop
         style="stop-color:#4b4fe2ff;stop-opacity:1;"
         offset="0.76340693"
         id="stop2" />
    </linearGradient>
    <linearGradient
       inkscape:collect="always"
       xlink:href="#linearGradient1"
       id="linearGradient2"
       x1="232.4884"
       y1="23.847498"
       x2="23.977745"
       y2="232.35815"
       gradientUnits="userSpaceOnUse" />
  </defs>
  <defs
     id="defs2" />
  <sodipodi:namedview
     id="namedview2"
     pagecolor="#ffffff"
     bordercolor="#000000"
     borderopacity="0.25"
     inkscape:showpageshadow="2"
     inkscape:pageopacity="0.0"
     inkscape:pagecheckerboard="0"
     inkscape:deskcolor="#d1d1d1" />
  <path
     id="path1"
     style="baseline-shift:baseline;display:inline;overflow:visible;vector-effect:none;fill:url(#linearGradient2);stroke-linecap:round;stroke-linejoin:round;enable-background:accumulate;stop-color:#000000;stop-opacity:1;opacity:1;fill-opacity:1"
     d="M 82.416016 72.019531 C 67.735944 71.985689 51.699455 77.519423 34.894531 91.451172 A 8 8 0 0 0 33.841797 102.71484 A 8 8 0 0 0 45.105469 103.76953 C 61.899842 89.846532 74.697509 86.935218 86.876953 88.271484 C 99.056398 89.607751 111.18164 95.9725 124.18164 103.03125 C 137.18164 110.09 151.0564 117.8422 167.37695 119.63281 C 183.69751 121.42342 201.89984 116.47083 221.10547 100.54883 A 8 8 0 0 0 222.1582 89.285156 A 8 8 0 0 0 210.89453 88.230469 C 194.10016 102.15347 181.30249 105.06478 169.12305 103.72852 C 156.9436 102.39225 144.81836 96.0275 131.81836 88.96875 C 118.81836 81.91 104.9436 74.157797 88.623047 72.367188 C 86.582977 72.143361 84.513169 72.024366 82.416016 72.019531 z M 82.416016 136.01953 C 67.735944 135.98573 51.699455 141.51942 34.894531 155.45117 A 8 8 0 0 0 33.841797 166.71484 A 8 8 0 0 0 45.105469 167.76953 C 61.899842 153.84653 74.697509 150.93522 86.876953 152.27148 C 99.056398 153.60775 111.18164 159.9725 124.18164 167.03125 C 137.18164 174.09 151.0564 181.8422 167.37695 183.63281 C 183.69751 185.42342 201.89984 180.47083 221.10547 164.54883 A 8 8 0 0 0 222.1582 153.28516 A 8 8 0 0 0 210.89453 152.23047 C 194.10016 166.15347 181.30249 169.06478 169.12305 167.72852 C 156.9436 166.39225 144.81836 160.0275 131.81836 152.96875 C 118.81836 145.91 104.9436 138.1578 88.623047 136.36719 C 86.582977 136.14336 84.513169 136.02437 82.416016 136.01953 z " />
</svg>
