<?xml version="1.0" encoding="UTF-8" standalone="no"?>
<svg
   viewBox="0 0 256 256"
   version="1.1"
   id="svg1"
   sodipodi:docname="arrow clockwise blue_green.svg"
   xmlns:inkscape="http://www.inkscape.org/namespaces/inkscape"
   xmlns:sodipodi="http://sodipodi.sourceforge.net/DTD/sodipodi-0.dtd"
   xmlns:xlink="http://www.w3.org/1999/xlink"
   xmlns="http://www.w3.org/2000/svg"
   xmlns:svg="http://www.w3.org/2000/svg">
  <defs
     id="defs3">
    <linearGradient
       id="linearGradient1"
       inkscape:collect="always">
      <stop
         style="stop-color:#0ec38bff;stop-opacity:1;"
         offset="0"
         id="stop1" />
      <stop
         style="stop-color:#4b4fe2ff;stop-opacity:1;"
         offset="0.76340693"
         id="stop2" />
    </linearGradient>
    <linearGradient
       inkscape:collect="always"
       xlink:href="#linearGradient1"
       id="linearGradient2"
       x1="232.4884"
       y1="23.847498"
       x2="23.977745"
       y2="232.35815"
       gradientUnits="userSpaceOnUse" />
  </defs>
  <defs
     id="defs1" />
  <sodipodi:namedview
     id="namedview1"
     pagecolor="#ffffff"
     bordercolor="#000000"
     borderopacity="0.25"
     inkscape:showpageshadow="2"
     inkscape:pageopacity="0.0"
     inkscape:pagecheckerboard="0"
     inkscape:deskcolor="#d1d1d1" />
  <path
     id="polyline1"
     style="baseline-shift:baseline;display:inline;overflow:visible;vector-effect:none;fill:url(#linearGradient2);stroke-linecap:round;stroke-linejoin:round;enable-background:accumulate;stop-color:#000000;stop-opacity:1;opacity:1;fill-opacity:1"
     d="M 126.36523 32.013672 C 114.75267 32.207241 103.07561 34.51121 91.912109 39.041016 C 56.188977 53.536372 32.578377 88.057317 32.019531 126.60547 C 31.460685 165.15362 54.059737 200.34431 89.347656 215.86914 C 124.63563 231.39399 165.85061 224.27718 193.89062 197.81836 A 8 8 0 0 0 194.21875 186.50977 A 8 8 0 0 0 182.91016 186.18164 C 159.5138 208.25867 125.23467 214.17631 95.791016 201.22266 C 66.347431 188.26903 47.551272 159.00086 48.017578 126.83594 C 48.483884 94.671008 68.121016 65.95989 97.927734 53.865234 C 127.73452 41.770551 161.82572 48.681757 184.57227 71.427734 A 8.0008 8.0008 0 0 0 184.82812 71.671875 L 211.41016 96 L 184 96 A 8 8 0 0 0 176 104 A 8 8 0 0 0 184 112 L 231.94922 112 L 232 112 A 8.0008 8.0008 0 0 0 233.04492 111.93164 A 8.0008 8.0008 0 0 0 233.06055 111.92969 A 8 8 0 0 0 233.26562 111.88672 A 8.0008 8.0008 0 0 0 234.10547 111.71484 A 8 8 0 0 0 234.53906 111.56836 A 8.0008 8.0008 0 0 0 235.12305 111.35938 A 8 8 0 0 0 235.57031 111.14062 A 8.0008 8.0008 0 0 0 236.08398 110.87109 A 8 8 0 0 0 236.5293 110.57422 A 8.0008 8.0008 0 0 0 236.9668 110.25977 A 8 8 0 0 0 237.36914 109.9082 A 8.0008 8.0008 0 0 0 237.76953 109.52539 A 8 8 0 0 0 237.90234 109.40039 A 8 8 0 0 0 238.15625 109.08594 A 8.0008 8.0008 0 0 0 238.41992 108.75781 A 8 8 0 0 0 238.74805 108.26758 A 8.0008 8.0008 0 0 0 238.98047 107.89258 A 8 8 0 0 0 239.24609 107.35547 A 8.0008 8.0008 0 0 0 239.41797 106.97852 A 8 8 0 0 0 239.62891 106.35938 A 8.0008 8.0008 0 0 0 239.73828 106.00977 A 8 8 0 0 0 239.87305 105.33984 A 8.0008 8.0008 0 0 0 239.93359 105.00391 A 8 8 0 0 0 239.98242 104.26758 A 8.0008 8.0008 0 0 0 240 104 L 240 103.94922 L 240 56 A 8 8 0 0 0 232 48 A 8 8 0 0 0 224 56 L 224 85.833984 L 195.6543 59.890625 L 195.65039 59.886719 C 176.9324 41.29598 151.80753 31.589576 126.36523 32.013672 z " />
</svg>
