<?xml version="1.0" encoding="UTF-8" standalone="no"?>
<svg
   viewBox="0 0 256 256"
   version="1.1"
   id="svg2"
   sodipodi:docname="arrows left right blue_green.svg"
   xmlns:inkscape="http://www.inkscape.org/namespaces/inkscape"
   xmlns:sodipodi="http://sodipodi.sourceforge.net/DTD/sodipodi-0.dtd"
   xmlns:xlink="http://www.w3.org/1999/xlink"
   xmlns="http://www.w3.org/2000/svg"
   xmlns:svg="http://www.w3.org/2000/svg">
  <defs
     id="defs3">
    <linearGradient
       id="linearGradient1"
       inkscape:collect="always">
      <stop
         style="stop-color:#0ec38bff;stop-opacity:1;"
         offset="0"
         id="stop1" />
      <stop
         style="stop-color:#4b4fe2ff;stop-opacity:1;"
         offset="0.76340693"
         id="stop2" />
    </linearGradient>
    <linearGradient
       inkscape:collect="always"
       xlink:href="#linearGradient1"
       id="linearGradient2"
       x1="232.4884"
       y1="23.847498"
       x2="23.977745"
       y2="232.35815"
       gradientUnits="userSpaceOnUse" />
  </defs>
  <defs
     id="defs2" />
  <sodipodi:namedview
     id="namedview2"
     pagecolor="#ffffff"
     bordercolor="#000000"
     borderopacity="0.25"
     inkscape:showpageshadow="2"
     inkscape:pageopacity="0.0"
     inkscape:pagecheckerboard="0"
     inkscape:deskcolor="#d1d1d1" />
  <path
     id="polyline1"
     style="baseline-shift:baseline;display:inline;overflow:visible;vector-effect:none;fill:url(#linearGradient2);stroke-linecap:round;stroke-linejoin:round;enable-background:accumulate;stop-color:#000000;stop-opacity:1;opacity:1;fill-opacity:1"
     d="M 80 40 A 8 8 0 0 0 74.34375 42.34375 L 42.425781 74.261719 L 42.34375 74.34375 A 8.0008 8.0008 0 0 0 42.0625 74.664062 A 8 8 0 0 0 41.677734 75.103516 A 8.0008 8.0008 0 0 0 41.390625 75.525391 A 8 8 0 0 0 41.095703 75.966797 A 8.0008 8.0008 0 0 0 40.853516 76.445312 A 8 8 0 0 0 40.617188 76.921875 A 8.0008 8.0008 0 0 0 40.453125 77.398438 A 8 8 0 0 0 40.279297 77.914062 A 8.0008 8.0008 0 0 0 40.201172 78.292969 A 8 8 0 0 0 40 80 A 8 8 0 0 0 40.201172 81.707031 A 8.0008 8.0008 0 0 0 40.279297 82.085938 A 8 8 0 0 0 40.453125 82.601562 A 8.0008 8.0008 0 0 0 40.617188 83.078125 A 8 8 0 0 0 40.853516 83.554688 A 8.0008 8.0008 0 0 0 41.095703 84.033203 A 8 8 0 0 0 41.390625 84.474609 A 8.0008 8.0008 0 0 0 41.677734 84.896484 A 8 8 0 0 0 42.0625 85.335938 A 8.0008 8.0008 0 0 0 42.34375 85.65625 L 42.425781 85.738281 L 74.34375 117.65625 A 8 8 0 0 0 85.65625 117.65625 A 8 8 0 0 0 85.65625 106.34375 L 67.3125 88 L 208 88 A 8 8 0 0 0 216 80 A 8 8 0 0 0 208 72 L 67.3125 72 L 85.65625 53.65625 A 8 8 0 0 0 85.65625 42.34375 A 8 8 0 0 0 80 40 z M 176 136 A 8 8 0 0 0 170.34375 138.34375 A 8 8 0 0 0 170.34375 149.65625 L 188.6875 168 L 48 168 A 8 8 0 0 0 40 176 A 8 8 0 0 0 48 184 L 188.6875 184 L 170.34375 202.34375 A 8 8 0 0 0 170.34375 213.65625 A 8 8 0 0 0 181.65625 213.65625 L 213.65625 181.65625 A 8.0008 8.0008 0 0 0 213.9375 181.33594 A 8 8 0 0 0 214.32227 180.89648 A 8.0008 8.0008 0 0 0 214.60938 180.47461 A 8 8 0 0 0 214.9043 180.0332 A 8.0008 8.0008 0 0 0 215.14648 179.55469 A 8 8 0 0 0 215.38281 179.07812 A 8.0008 8.0008 0 0 0 215.54688 178.60156 A 8 8 0 0 0 215.7207 178.08594 A 8.0008 8.0008 0 0 0 215.79883 177.70703 A 8 8 0 0 0 216 176 A 8 8 0 0 0 215.79883 174.29297 A 8.0008 8.0008 0 0 0 215.7207 173.91406 A 8 8 0 0 0 215.54688 173.39844 A 8.0008 8.0008 0 0 0 215.38281 172.92188 A 8 8 0 0 0 215.14648 172.44531 A 8.0008 8.0008 0 0 0 214.9043 171.9668 A 8 8 0 0 0 214.60938 171.52539 A 8.0008 8.0008 0 0 0 214.32227 171.10352 A 8 8 0 0 0 213.9375 170.66406 A 8.0008 8.0008 0 0 0 213.65625 170.34375 L 181.65625 138.34375 A 8 8 0 0 0 176 136 z " />
</svg>
