<?xml version="1.0" encoding="UTF-8" standalone="no"?>
<svg
   viewBox="0 0 256 256"
   version="1.1"
   id="svg1"
   sodipodi:docname="arrow u up left blue_green.svg"
   xmlns:inkscape="http://www.inkscape.org/namespaces/inkscape"
   xmlns:sodipodi="http://sodipodi.sourceforge.net/DTD/sodipodi-0.dtd"
   xmlns:xlink="http://www.w3.org/1999/xlink"
   xmlns="http://www.w3.org/2000/svg"
   xmlns:svg="http://www.w3.org/2000/svg">
  <defs
     id="defs3">
    <linearGradient
       id="linearGradient1"
       inkscape:collect="always">
      <stop
         style="stop-color:#0ec38bff;stop-opacity:1;"
         offset="0"
         id="stop1" />
      <stop
         style="stop-color:#4b4fe2ff;stop-opacity:1;"
         offset="0.76340693"
         id="stop2" />
    </linearGradient>
    <linearGradient
       inkscape:collect="always"
       xlink:href="#linearGradient1"
       id="linearGradient2"
       x1="232.4884"
       y1="23.847498"
       x2="23.977745"
       y2="232.35815"
       gradientUnits="userSpaceOnUse" />
  </defs>
  <defs
     id="defs1" />
  <sodipodi:namedview
     id="namedview1"
     pagecolor="#ffffff"
     bordercolor="#000000"
     borderopacity="0.25"
     inkscape:showpageshadow="2"
     inkscape:pageopacity="0.0"
     inkscape:pagecheckerboard="0"
     inkscape:deskcolor="#d1d1d1" />
  <path
     id="polyline1"
     style="baseline-shift:baseline;display:inline;overflow:visible;vector-effect:none;fill:url(#linearGradient2);stroke-linecap:round;stroke-linejoin:round;enable-background:accumulate;stop-color:#000000;stop-opacity:1;opacity:1;fill-opacity:1"
     d="M 80 32 A 8 8 0 0 0 74.34375 34.34375 L 26.425781 82.261719 L 26.34375 82.34375 A 8.0008 8.0008 0 0 0 26.0625 82.664062 A 8 8 0 0 0 25.677734 83.103516 A 8.0008 8.0008 0 0 0 25.390625 83.525391 A 8 8 0 0 0 25.095703 83.966797 A 8.0008 8.0008 0 0 0 24.853516 84.445312 A 8 8 0 0 0 24.617188 84.921875 A 8.0008 8.0008 0 0 0 24.453125 85.398438 A 8 8 0 0 0 24.279297 85.914062 A 8.0008 8.0008 0 0 0 24.201172 86.292969 A 8 8 0 0 0 24 88 A 8 8 0 0 0 24.201172 89.707031 A 8.0008 8.0008 0 0 0 24.279297 90.085938 A 8 8 0 0 0 24.453125 90.601562 A 8.0008 8.0008 0 0 0 24.617188 91.078125 A 8 8 0 0 0 24.853516 91.554688 A 8.0008 8.0008 0 0 0 25.095703 92.033203 A 8 8 0 0 0 25.390625 92.474609 A 8.0008 8.0008 0 0 0 25.677734 92.896484 A 8 8 0 0 0 26.0625 93.335938 A 8.0008 8.0008 0 0 0 26.34375 93.65625 L 26.425781 93.738281 L 74.34375 141.65625 A 8 8 0 0 0 85.65625 141.65625 A 8 8 0 0 0 85.65625 130.34375 L 51.3125 96 L 168 96 C 194.60443 96 216 117.39557 216 144 C 216 170.60443 194.60443 192 168 192 L 80 192 A 8 8 0 0 0 72 200 A 8 8 0 0 0 80 208 L 168 208 C 203.25147 208 232 179.25147 232 144 C 232 108.74853 203.25147 80 168 80 L 51.3125 80 L 85.65625 45.65625 A 8 8 0 0 0 85.65625 34.34375 A 8 8 0 0 0 80 32 z " />
</svg>
