<?xml version="1.0" encoding="UTF-8" standalone="no"?>
<svg
   viewBox="0 0 256 256"
   version="1.1"
   id="svg1"
   sodipodi:docname="arrow u right up blue_green.svg"
   xmlns:inkscape="http://www.inkscape.org/namespaces/inkscape"
   xmlns:sodipodi="http://sodipodi.sourceforge.net/DTD/sodipodi-0.dtd"
   xmlns:xlink="http://www.w3.org/1999/xlink"
   xmlns="http://www.w3.org/2000/svg"
   xmlns:svg="http://www.w3.org/2000/svg">
  <defs
     id="defs3">
    <linearGradient
       id="linearGradient1"
       inkscape:collect="always">
      <stop
         style="stop-color:#0ec38bff;stop-opacity:1;"
         offset="0"
         id="stop1" />
      <stop
         style="stop-color:#4b4fe2ff;stop-opacity:1;"
         offset="0.76340693"
         id="stop2" />
    </linearGradient>
    <linearGradient
       inkscape:collect="always"
       xlink:href="#linearGradient1"
       id="linearGradient2"
       x1="232.4884"
       y1="23.847498"
       x2="23.977745"
       y2="232.35815"
       gradientUnits="userSpaceOnUse" />
  </defs>
  <defs
     id="defs1" />
  <sodipodi:namedview
     id="namedview1"
     pagecolor="#ffffff"
     bordercolor="#000000"
     borderopacity="0.25"
     inkscape:showpageshadow="2"
     inkscape:pageopacity="0.0"
     inkscape:pagecheckerboard="0"
     inkscape:deskcolor="#d1d1d1" />
  <path
     id="polyline1"
     style="baseline-shift:baseline;display:inline;overflow:visible;vector-effect:none;fill:url(#linearGradient2);stroke-linecap:round;stroke-linejoin:round;enable-background:accumulate;stop-color:#000000;stop-opacity:1;opacity:1;fill-opacity:1"
     d="M 168 24 A 8.0008 8.0008 0 0 0 166.94922 24.070312 A 8 8 0 0 0 166.46094 24.167969 A 8.0008 8.0008 0 0 0 165.91406 24.279297 A 8 8 0 0 0 165.39844 24.453125 A 8.0008 8.0008 0 0 0 164.92188 24.617188 A 8 8 0 0 0 164.44531 24.853516 A 8.0008 8.0008 0 0 0 163.9668 25.095703 A 8 8 0 0 0 163.52539 25.390625 A 8.0008 8.0008 0 0 0 163.10352 25.677734 A 8 8 0 0 0 162.66406 26.0625 A 8.0008 8.0008 0 0 0 162.34375 26.34375 L 162.26172 26.425781 L 114.34375 74.34375 A 8 8 0 0 0 114.34375 85.65625 A 8 8 0 0 0 125.65625 85.65625 L 160 51.3125 L 160 168 C 160 194.60443 138.60443 216 112 216 C 85.395575 216 64 194.60443 64 168 L 64 80 A 8 8 0 0 0 56 72 A 8 8 0 0 0 48 80 L 48 168 C 48 203.25147 76.748533 232 112 232 C 147.25147 232 176 203.25147 176 168 L 176 51.3125 L 210.34375 85.65625 A 8 8 0 0 0 221.65625 85.65625 A 8 8 0 0 0 221.65625 74.34375 L 173.73828 26.425781 L 173.65625 26.34375 A 8.0008 8.0008 0 0 0 173.33594 26.0625 A 8 8 0 0 0 172.89648 25.677734 A 8.0008 8.0008 0 0 0 172.47461 25.390625 A 8 8 0 0 0 172.0332 25.095703 A 8.0008 8.0008 0 0 0 171.55469 24.853516 A 8 8 0 0 0 171.07812 24.617188 A 8.0008 8.0008 0 0 0 170.60156 24.453125 A 8 8 0 0 0 170.08594 24.279297 A 8.0008 8.0008 0 0 0 169.53906 24.167969 A 8 8 0 0 0 169.05078 24.070312 A 8 8 0 0 0 168 24 z " />
</svg>
