<?xml version="1.0" encoding="UTF-8" standalone="no"?>
<svg
   viewBox="0 0 256 256"
   version="1.1"
   id="svg1"
   sodipodi:docname="arrow bend down left blue_green.svg"
   xmlns:inkscape="http://www.inkscape.org/namespaces/inkscape"
   xmlns:sodipodi="http://sodipodi.sourceforge.net/DTD/sodipodi-0.dtd"
   xmlns:xlink="http://www.w3.org/1999/xlink"
   xmlns="http://www.w3.org/2000/svg"
   xmlns:svg="http://www.w3.org/2000/svg">
  <defs
     id="defs3">
    <linearGradient
       id="linearGradient1"
       inkscape:collect="always">
      <stop
         style="stop-color:#0ec38bff;stop-opacity:1;"
         offset="0"
         id="stop1" />
      <stop
         style="stop-color:#4b4fe2ff;stop-opacity:1;"
         offset="0.76340693"
         id="stop2" />
    </linearGradient>
    <linearGradient
       inkscape:collect="always"
       xlink:href="#linearGradient1"
       id="linearGradient2"
       x1="232.4884"
       y1="23.847498"
       x2="23.977745"
       y2="232.35815"
       gradientUnits="userSpaceOnUse" />
  </defs>
  <defs
     id="defs1" />
  <sodipodi:namedview
     id="namedview1"
     pagecolor="#ffffff"
     bordercolor="#000000"
     borderopacity="0.25"
     inkscape:showpageshadow="2"
     inkscape:pageopacity="0.0"
     inkscape:pagecheckerboard="0"
     inkscape:deskcolor="#d1d1d1" />
  <path
     id="polyline1"
     style="baseline-shift:baseline;display:inline;overflow:visible;vector-effect:none;fill:url(#linearGradient2);stroke-linecap:round;stroke-linejoin:round;enable-background:accumulate;stop-color:#000000;stop-opacity:1;opacity:1;fill-opacity:1"
     d="M 224 48 A 8 8 0 0 0 216 56 C 216 104.69582 176.69582 144 128 144 L 51.3125 144 L 85.65625 109.65625 A 8 8 0 0 0 85.65625 98.34375 A 8 8 0 0 0 80 96 A 8 8 0 0 0 74.34375 98.34375 L 26.425781 146.26172 L 26.34375 146.34375 A 8.0008 8.0008 0 0 0 26.0625 146.66406 A 8 8 0 0 0 25.677734 147.10352 A 8.0008 8.0008 0 0 0 25.390625 147.52539 A 8 8 0 0 0 25.095703 147.9668 A 8.0008 8.0008 0 0 0 24.853516 148.44531 A 8 8 0 0 0 24.617188 148.92188 A 8.0008 8.0008 0 0 0 24.453125 149.39844 A 8 8 0 0 0 24.279297 149.91406 A 8.0008 8.0008 0 0 0 24.201172 150.29297 A 8 8 0 0 0 24 152 A 8 8 0 0 0 24.201172 153.70703 A 8.0008 8.0008 0 0 0 24.279297 154.08594 A 8 8 0 0 0 24.453125 154.60156 A 8.0008 8.0008 0 0 0 24.617188 155.07812 A 8 8 0 0 0 24.853516 155.55469 A 8.0008 8.0008 0 0 0 25.095703 156.0332 A 8 8 0 0 0 25.390625 156.47461 A 8.0008 8.0008 0 0 0 25.677734 156.89648 A 8 8 0 0 0 26.0625 157.33594 A 8.0008 8.0008 0 0 0 26.34375 157.65625 L 26.425781 157.73828 L 74.34375 205.65625 A 8 8 0 0 0 85.65625 205.65625 A 8 8 0 0 0 85.65625 194.34375 L 51.3125 160 L 128 160 C 185.34286 160 232 113.34286 232 56 A 8 8 0 0 0 224 48 z " />
</svg>
