<?xml version="1.0" encoding="UTF-8" standalone="no"?>
<svg
   viewBox="0 0 256 256"
   version="1.1"
   id="svg1"
   sodipodi:docname="arrow up blue_green.svg"
   xmlns:inkscape="http://www.inkscape.org/namespaces/inkscape"
   xmlns:sodipodi="http://sodipodi.sourceforge.net/DTD/sodipodi-0.dtd"
   xmlns:xlink="http://www.w3.org/1999/xlink"
   xmlns="http://www.w3.org/2000/svg"
   xmlns:svg="http://www.w3.org/2000/svg">
  <defs
     id="defs3">
    <linearGradient
       id="linearGradient1"
       inkscape:collect="always">
      <stop
         style="stop-color:#0ec38bff;stop-opacity:1;"
         offset="0"
         id="stop1" />
      <stop
         style="stop-color:#4b4fe2ff;stop-opacity:1;"
         offset="0.76340693"
         id="stop2" />
    </linearGradient>
    <linearGradient
       inkscape:collect="always"
       xlink:href="#linearGradient1"
       id="linearGradient2"
       x1="232.4884"
       y1="23.847498"
       x2="23.977745"
       y2="232.35815"
       gradientUnits="userSpaceOnUse" />
  </defs>
  <defs
     id="defs1" />
  <sodipodi:namedview
     id="namedview1"
     pagecolor="#ffffff"
     bordercolor="#000000"
     borderopacity="0.25"
     inkscape:showpageshadow="2"
     inkscape:pageopacity="0.0"
     inkscape:pagecheckerboard="0"
     inkscape:deskcolor="#d1d1d1" />
  <path
     id="line1"
     style="baseline-shift:baseline;display:inline;overflow:visible;vector-effect:none;fill:url(#linearGradient2);stroke-linecap:round;stroke-linejoin:round;enable-background:accumulate;stop-color:#000000;stop-opacity:1;opacity:1;fill-opacity:1"
     d="M 128 32 A 8.0008 8.0008 0 0 0 126.94922 32.070312 A 8 8 0 0 0 126.46094 32.167969 A 8.0008 8.0008 0 0 0 125.91406 32.279297 A 8 8 0 0 0 125.39844 32.453125 A 8.0008 8.0008 0 0 0 124.92188 32.617188 A 8 8 0 0 0 124.44531 32.853516 A 8.0008 8.0008 0 0 0 123.9668 33.095703 A 8 8 0 0 0 123.52539 33.390625 A 8.0008 8.0008 0 0 0 123.10352 33.677734 A 8 8 0 0 0 122.66406 34.0625 A 8.0008 8.0008 0 0 0 122.34375 34.34375 L 122.26172 34.425781 L 50.34375 106.34375 A 8 8 0 0 0 50.34375 117.65625 A 8 8 0 0 0 61.65625 117.65625 L 120 59.3125 L 120 216 A 8 8 0 0 0 128 224 A 8 8 0 0 0 136 216 L 136 59.3125 L 194.34375 117.65625 A 8 8 0 0 0 205.65625 117.65625 A 8 8 0 0 0 205.65625 106.34375 L 133.73828 34.425781 L 133.65625 34.34375 A 8.0008 8.0008 0 0 0 133.33594 34.0625 A 8 8 0 0 0 132.89648 33.677734 A 8.0008 8.0008 0 0 0 132.47461 33.390625 A 8 8 0 0 0 132.0332 33.095703 A 8.0008 8.0008 0 0 0 131.55469 32.853516 A 8 8 0 0 0 131.07812 32.617188 A 8.0008 8.0008 0 0 0 130.60156 32.453125 A 8 8 0 0 0 130.08594 32.279297 A 8.0008 8.0008 0 0 0 129.53906 32.167969 A 8 8 0 0 0 129.05078 32.070312 A 8 8 0 0 0 128 32 z " />
</svg>
