<?xml version="1.0" encoding="UTF-8" standalone="no"?>
<svg
   viewBox="0 0 256 256"
   version="1.1"
   id="svg1"
   sodipodi:docname="arrow bend left down blue_green.svg"
   xmlns:inkscape="http://www.inkscape.org/namespaces/inkscape"
   xmlns:sodipodi="http://sodipodi.sourceforge.net/DTD/sodipodi-0.dtd"
   xmlns:xlink="http://www.w3.org/1999/xlink"
   xmlns="http://www.w3.org/2000/svg"
   xmlns:svg="http://www.w3.org/2000/svg">
  <defs
     id="defs3">
    <linearGradient
       id="linearGradient1"
       inkscape:collect="always">
      <stop
         style="stop-color:#0ec38bff;stop-opacity:1;"
         offset="0"
         id="stop1" />
      <stop
         style="stop-color:#4b4fe2ff;stop-opacity:1;"
         offset="0.76340693"
         id="stop2" />
    </linearGradient>
    <linearGradient
       inkscape:collect="always"
       xlink:href="#linearGradient1"
       id="linearGradient2"
       x1="232.4884"
       y1="23.847498"
       x2="23.977745"
       y2="232.35815"
       gradientUnits="userSpaceOnUse" />
  </defs>
  <defs
     id="defs1" />
  <sodipodi:namedview
     id="namedview1"
     pagecolor="#ffffff"
     bordercolor="#000000"
     borderopacity="0.25"
     inkscape:showpageshadow="2"
     inkscape:pageopacity="0.0"
     inkscape:pagecheckerboard="0"
     inkscape:deskcolor="#d1d1d1" />
  <path
     id="polyline1"
     style="baseline-shift:baseline;display:inline;overflow:visible;vector-effect:none;fill:url(#linearGradient2);stroke-linecap:round;stroke-linejoin:round;enable-background:accumulate;stop-color:#000000;stop-opacity:1;opacity:1;fill-opacity:1"
     d="M 200 24 C 142.65714 24 96 70.657143 96 128 L 96 204.6875 L 61.65625 170.34375 A 8 8 0 0 0 56 168 A 8 8 0 0 0 50.34375 170.34375 A 8 8 0 0 0 50.34375 181.65625 L 98.261719 229.57422 L 98.34375 229.65625 A 8.0008 8.0008 0 0 0 98.664062 229.9375 A 8 8 0 0 0 99.103516 230.32227 A 8.0008 8.0008 0 0 0 99.525391 230.60938 A 8 8 0 0 0 99.966797 230.9043 A 8.0008 8.0008 0 0 0 100.44531 231.14648 A 8 8 0 0 0 100.92188 231.38281 A 8.0008 8.0008 0 0 0 101.39844 231.54688 A 8 8 0 0 0 101.91406 231.7207 A 8.0008 8.0008 0 0 0 102.29297 231.79883 A 8 8 0 0 0 104 232 A 8 8 0 0 0 105.70703 231.79883 A 8.0008 8.0008 0 0 0 106.08594 231.7207 A 8 8 0 0 0 106.60156 231.54688 A 8.0008 8.0008 0 0 0 107.07812 231.38281 A 8 8 0 0 0 107.55469 231.14648 A 8.0008 8.0008 0 0 0 108.0332 230.9043 A 8 8 0 0 0 108.47461 230.60938 A 8.0008 8.0008 0 0 0 108.89648 230.32227 A 8 8 0 0 0 109.33594 229.9375 A 8.0008 8.0008 0 0 0 109.65625 229.65625 L 109.73828 229.57422 L 157.65625 181.65625 A 8 8 0 0 0 157.65625 170.34375 A 8 8 0 0 0 146.34375 170.34375 L 112 204.6875 L 112 128 C 112 79.304185 151.30418 40 200 40 A 8 8 0 0 0 208 32 A 8 8 0 0 0 200 24 z " />
</svg>
