<?xml version="1.0" encoding="UTF-8" standalone="no"?>
<svg
   viewBox="0 0 256 256"
   version="1.1"
   id="svg2"
   sodipodi:docname="arrow line left blue_green.svg"
   xmlns:inkscape="http://www.inkscape.org/namespaces/inkscape"
   xmlns:sodipodi="http://sodipodi.sourceforge.net/DTD/sodipodi-0.dtd"
   xmlns:xlink="http://www.w3.org/1999/xlink"
   xmlns="http://www.w3.org/2000/svg"
   xmlns:svg="http://www.w3.org/2000/svg">
  <defs
     id="defs3">
    <linearGradient
       id="linearGradient1"
       inkscape:collect="always">
      <stop
         style="stop-color:#0ec38bff;stop-opacity:1;"
         offset="0"
         id="stop1" />
      <stop
         style="stop-color:#4b4fe2ff;stop-opacity:1;"
         offset="0.76340693"
         id="stop2" />
    </linearGradient>
    <linearGradient
       inkscape:collect="always"
       xlink:href="#linearGradient1"
       id="linearGradient2"
       x1="232.4884"
       y1="23.847498"
       x2="23.977745"
       y2="232.35815"
       gradientUnits="userSpaceOnUse" />
  </defs>
  <defs
     id="defs2" />
  <sodipodi:namedview
     id="namedview2"
     pagecolor="#ffffff"
     bordercolor="#000000"
     borderopacity="0.25"
     inkscape:showpageshadow="2"
     inkscape:pageopacity="0.0"
     inkscape:pagecheckerboard="0"
     inkscape:deskcolor="#d1d1d1" />
  <path
     id="line1"
     style="baseline-shift:baseline;display:inline;overflow:visible;vector-effect:none;fill:url(#linearGradient2);stroke-linecap:round;stroke-linejoin:round;enable-background:accumulate;stop-color:#000000;stop-opacity:1;opacity:1;fill-opacity:1"
     d="M 40 32 A 8 8 0 0 0 32 40 L 32 216 A 8 8 0 0 0 40 224 A 8 8 0 0 0 48 216 L 48 40 A 8 8 0 0 0 40 32 z M 144 48 A 8 8 0 0 0 138.34375 50.34375 L 66.34375 122.34375 A 8.0008 8.0008 0 0 0 66.0625 122.66406 A 8 8 0 0 0 65.677734 123.10352 A 8.0008 8.0008 0 0 0 65.390625 123.52539 A 8 8 0 0 0 65.095703 123.9668 A 8.0008 8.0008 0 0 0 64.853516 124.44531 A 8 8 0 0 0 64.617188 124.92188 A 8.0008 8.0008 0 0 0 64.453125 125.39844 A 8 8 0 0 0 64.279297 125.91406 A 8.0008 8.0008 0 0 0 64.201172 126.29297 A 8 8 0 0 0 64 128 A 8 8 0 0 0 64.201172 129.70703 A 8.0008 8.0008 0 0 0 64.279297 130.08594 A 8 8 0 0 0 64.453125 130.60156 A 8.0008 8.0008 0 0 0 64.617188 131.07812 A 8 8 0 0 0 64.853516 131.55469 A 8.0008 8.0008 0 0 0 65.095703 132.0332 A 8 8 0 0 0 65.390625 132.47461 A 8.0008 8.0008 0 0 0 65.677734 132.89648 A 8 8 0 0 0 66.0625 133.33594 A 8.0008 8.0008 0 0 0 66.34375 133.65625 L 138.34375 205.65625 A 8 8 0 0 0 149.65625 205.65625 A 8 8 0 0 0 149.65625 194.34375 L 91.3125 136 L 224 136 A 8 8 0 0 0 232 128 A 8 8 0 0 0 224 120 L 91.3125 120 L 149.65625 61.65625 A 8 8 0 0 0 149.65625 50.34375 A 8 8 0 0 0 144 48 z " />
</svg>
