<?xml version="1.0" encoding="UTF-8" standalone="no"?>
<svg
   viewBox="0 0 256 256"
   version="1.1"
   id="svg2"
   sodipodi:docname="arrow bend double up right blue_green.svg"
   xmlns:inkscape="http://www.inkscape.org/namespaces/inkscape"
   xmlns:sodipodi="http://sodipodi.sourceforge.net/DTD/sodipodi-0.dtd"
   xmlns:xlink="http://www.w3.org/1999/xlink"
   xmlns="http://www.w3.org/2000/svg"
   xmlns:svg="http://www.w3.org/2000/svg">
  <defs
     id="defs3">
    <linearGradient
       id="linearGradient1"
       inkscape:collect="always">
      <stop
         style="stop-color:#0ec38bff;stop-opacity:1;"
         offset="0"
         id="stop1" />
      <stop
         style="stop-color:#4b4fe2ff;stop-opacity:1;"
         offset="0.76340693"
         id="stop2" />
    </linearGradient>
    <linearGradient
       inkscape:collect="always"
       xlink:href="#linearGradient1"
       id="linearGradient2"
       x1="232.4884"
       y1="23.847498"
       x2="23.977745"
       y2="232.35815"
       gradientUnits="userSpaceOnUse" />
  </defs>
  <defs
     id="defs2" />
  <sodipodi:namedview
     id="namedview2"
     pagecolor="#ffffff"
     bordercolor="#000000"
     borderopacity="0.25"
     inkscape:showpageshadow="2"
     inkscape:pageopacity="0.0"
     inkscape:pagecheckerboard="0"
     inkscape:deskcolor="#d1d1d1" />
  <path
     id="polyline1"
     style="baseline-shift:baseline;display:inline;overflow:visible;vector-effect:none;fill:url(#linearGradient2);stroke-linecap:round;stroke-linejoin:round;enable-background:accumulate;stop-color:#000000;stop-opacity:1;opacity:1;fill-opacity:1"
     d="M 128 48 A 8 8 0 0 0 122.34375 50.34375 A 8 8 0 0 0 122.34375 61.65625 L 156.6875 96 L 128 96 C 70.657143 96 24 142.65714 24 200 A 8 8 0 0 0 32 208 A 8 8 0 0 0 40 200 C 40 151.30418 79.304185 112 128 112 L 156.6875 112 L 122.34375 146.34375 A 8 8 0 0 0 122.34375 157.65625 A 8 8 0 0 0 133.65625 157.65625 L 181.57422 109.73828 L 181.65625 109.65625 A 8.0008 8.0008 0 0 0 181.9375 109.33594 A 8 8 0 0 0 182.32227 108.89648 A 8.0008 8.0008 0 0 0 182.60938 108.47461 A 8 8 0 0 0 182.9043 108.0332 A 8.0008 8.0008 0 0 0 183.14648 107.55469 A 8 8 0 0 0 183.38281 107.07812 A 8.0008 8.0008 0 0 0 183.54688 106.60156 A 8 8 0 0 0 183.7207 106.08594 A 8.0008 8.0008 0 0 0 183.79883 105.70703 A 8 8 0 0 0 184 104 A 8 8 0 0 0 183.79883 102.29297 A 8.0008 8.0008 0 0 0 183.7207 101.91406 A 8 8 0 0 0 183.54688 101.39844 A 8.0008 8.0008 0 0 0 183.38281 100.92188 A 8 8 0 0 0 183.14648 100.44531 A 8.0008 8.0008 0 0 0 182.9043 99.966797 A 8 8 0 0 0 182.60938 99.525391 A 8.0008 8.0008 0 0 0 182.32227 99.103516 A 8 8 0 0 0 181.9375 98.664062 A 8.0008 8.0008 0 0 0 181.65625 98.34375 L 181.57422 98.261719 L 133.65625 50.34375 A 8 8 0 0 0 128 48 z M 176 48 A 8 8 0 0 0 170.34375 50.34375 A 8 8 0 0 0 170.34375 61.65625 L 212.6875 104 L 170.34375 146.34375 A 8 8 0 0 0 170.34375 157.65625 A 8 8 0 0 0 181.65625 157.65625 L 229.65625 109.65625 A 8.0008 8.0008 0 0 0 229.65625 98.34375 L 181.65625 50.34375 A 8 8 0 0 0 176 48 z " />
</svg>
