<?xml version="1.0" encoding="UTF-8" standalone="no"?>
<svg
   viewBox="0 0 256 256"
   version="1.1"
   id="svg1"
   sodipodi:docname="arrow bend right down blue_green.svg"
   xmlns:inkscape="http://www.inkscape.org/namespaces/inkscape"
   xmlns:sodipodi="http://sodipodi.sourceforge.net/DTD/sodipodi-0.dtd"
   xmlns:xlink="http://www.w3.org/1999/xlink"
   xmlns="http://www.w3.org/2000/svg"
   xmlns:svg="http://www.w3.org/2000/svg">
  <defs
     id="defs3">
    <linearGradient
       id="linearGradient1"
       inkscape:collect="always">
      <stop
         style="stop-color:#0ec38bff;stop-opacity:1;"
         offset="0"
         id="stop1" />
      <stop
         style="stop-color:#4b4fe2ff;stop-opacity:1;"
         offset="0.76340693"
         id="stop2" />
    </linearGradient>
    <linearGradient
       inkscape:collect="always"
       xlink:href="#linearGradient1"
       id="linearGradient2"
       x1="232.4884"
       y1="23.847498"
       x2="23.977745"
       y2="232.35815"
       gradientUnits="userSpaceOnUse" />
  </defs>
  <defs
     id="defs1" />
  <sodipodi:namedview
     id="namedview1"
     pagecolor="#ffffff"
     bordercolor="#000000"
     borderopacity="0.25"
     inkscape:showpageshadow="2"
     inkscape:pageopacity="0.0"
     inkscape:pagecheckerboard="0"
     inkscape:deskcolor="#d1d1d1" />
  <path
     id="polyline1"
     style="baseline-shift:baseline;display:inline;overflow:visible;vector-effect:none;fill:url(#linearGradient2);stroke-linecap:round;stroke-linejoin:round;enable-background:accumulate;stop-color:#000000;stop-opacity:1;opacity:1;fill-opacity:1"
     d="M 56 24 A 8 8 0 0 0 48 32 A 8 8 0 0 0 56 40 C 104.69582 40 144 79.304185 144 128 L 144 204.6875 L 109.65625 170.34375 A 8 8 0 0 0 104 168 A 8 8 0 0 0 98.34375 170.34375 A 8 8 0 0 0 98.34375 181.65625 L 146.26172 229.57422 L 146.34375 229.65625 A 8.0008 8.0008 0 0 0 146.66406 229.9375 A 8 8 0 0 0 147.10352 230.32227 A 8.0008 8.0008 0 0 0 147.52539 230.60938 A 8 8 0 0 0 147.9668 230.9043 A 8.0008 8.0008 0 0 0 148.44531 231.14648 A 8 8 0 0 0 148.92188 231.38281 A 8.0008 8.0008 0 0 0 149.39844 231.54688 A 8 8 0 0 0 149.91406 231.7207 A 8.0008 8.0008 0 0 0 150.29297 231.79883 A 8 8 0 0 0 152 232 A 8 8 0 0 0 153.70703 231.79883 A 8.0008 8.0008 0 0 0 154.08594 231.7207 A 8 8 0 0 0 154.60156 231.54688 A 8.0008 8.0008 0 0 0 155.07812 231.38281 A 8 8 0 0 0 155.55469 231.14648 A 8.0008 8.0008 0 0 0 156.0332 230.9043 A 8 8 0 0 0 156.47461 230.60938 A 8.0008 8.0008 0 0 0 156.89648 230.32227 A 8 8 0 0 0 157.33594 229.9375 A 8.0008 8.0008 0 0 0 157.65625 229.65625 L 157.73828 229.57422 L 205.65625 181.65625 A 8 8 0 0 0 205.65625 170.34375 A 8 8 0 0 0 194.34375 170.34375 L 160 204.6875 L 160 128 C 160 70.657143 113.34286 24 56 24 z " />
</svg>
