<?xml version="1.0" encoding="UTF-8" standalone="no"?>
<svg
   viewBox="0 0 256 256"
   version="1.1"
   id="svg3"
   sodipodi:docname="asterisk blue_green.svg"
   xmlns:inkscape="http://www.inkscape.org/namespaces/inkscape"
   xmlns:sodipodi="http://sodipodi.sourceforge.net/DTD/sodipodi-0.dtd"
   xmlns:xlink="http://www.w3.org/1999/xlink"
   xmlns="http://www.w3.org/2000/svg"
   xmlns:svg="http://www.w3.org/2000/svg">
  <defs
     id="defs3">
    <linearGradient
       id="linearGradient1"
       inkscape:collect="always">
      <stop
         style="stop-color:#0ec38bff;stop-opacity:1;"
         offset="0"
         id="stop1" />
      <stop
         style="stop-color:#4b4fe2ff;stop-opacity:1;"
         offset="0.76340693"
         id="stop2" />
    </linearGradient>
    <linearGradient
       inkscape:collect="always"
       xlink:href="#linearGradient1"
       id="linearGradient2"
       x1="232.4884"
       y1="23.847498"
       x2="23.977745"
       y2="232.35815"
       gradientUnits="userSpaceOnUse" />
  </defs>
  <defs
     id="defs1" />
  <sodipodi:namedview
     id="namedview3"
     pagecolor="#ffffff"
     bordercolor="#000000"
     borderopacity="0.25"
     inkscape:showpageshadow="2"
     inkscape:pageopacity="0.0"
     inkscape:pagecheckerboard="0"
     inkscape:deskcolor="#d1d1d1" />
  <path
     id="line1"
     style="baseline-shift:baseline;display:inline;overflow:visible;vector-effect:none;fill:url(#linearGradient2);stroke-linecap:round;stroke-linejoin:round;enable-background:accumulate;stop-color:#000000;stop-opacity:1;opacity:1;fill-opacity:1"
     d="M 128 32 A 8 8 0 0 0 120 40 L 120 113.87109 L 52.115234 73.140625 A 8 8 0 0 0 46.060547 72.238281 A 8 8 0 0 0 41.140625 75.884766 A 8 8 0 0 0 43.884766 86.859375 L 112.45117 128 L 43.884766 169.14062 A 8 8 0 0 0 41.140625 180.11523 A 8 8 0 0 0 52.115234 182.85938 L 120 142.12891 L 120 216 A 8 8 0 0 0 128 224 A 8 8 0 0 0 136 216 L 136 142.12891 L 203.88477 182.85938 A 8 8 0 0 0 214.85938 180.11523 A 8 8 0 0 0 212.11523 169.14062 L 143.54883 128 L 212.11523 86.859375 A 8 8 0 0 0 214.85938 75.884766 A 8 8 0 0 0 209.93945 72.238281 A 8 8 0 0 0 203.88477 73.140625 L 136 113.87109 L 136 40 A 8 8 0 0 0 128 32 z " />
</svg>
