<?xml version="1.0" encoding="UTF-8" standalone="no"?>
<svg
   viewBox="0 0 256 256"
   version="1.1"
   id="svg3"
   sodipodi:docname="axe blue_green.svg"
   xmlns:inkscape="http://www.inkscape.org/namespaces/inkscape"
   xmlns:sodipodi="http://sodipodi.sourceforge.net/DTD/sodipodi-0.dtd"
   xmlns:xlink="http://www.w3.org/1999/xlink"
   xmlns="http://www.w3.org/2000/svg"
   xmlns:svg="http://www.w3.org/2000/svg">
  <defs
     id="defs3">
    <linearGradient
       id="linearGradient1"
       inkscape:collect="always">
      <stop
         style="stop-color:#0ec38bff;stop-opacity:1;"
         offset="0"
         id="stop1" />
      <stop
         style="stop-color:#4b4fe2ff;stop-opacity:1;"
         offset="0.76340693"
         id="stop2" />
    </linearGradient>
    <linearGradient
       inkscape:collect="always"
       xlink:href="#linearGradient1"
       id="linearGradient2"
       x1="232.4884"
       y1="23.847498"
       x2="23.977745"
       y2="232.35815"
       gradientUnits="userSpaceOnUse" />
  </defs>
  <defs
     id="defs1" />
  <sodipodi:namedview
     id="namedview3"
     pagecolor="#ffffff"
     bordercolor="#000000"
     borderopacity="0.25"
     inkscape:showpageshadow="2"
     inkscape:pageopacity="0.0"
     inkscape:pagecheckerboard="0"
     inkscape:deskcolor="#d1d1d1" />
  <path
     id="path1"
     style="baseline-shift:baseline;display:inline;overflow:visible;vector-effect:none;fill:url(#linearGradient2);stroke-linecap:round;stroke-linejoin:round;enable-background:accumulate;stop-color:#000000;stop-opacity:1;opacity:1;fill-opacity:1"
     d="M 183 16.091797 C 176.59889 16.091797 170.19835 18.505887 165.35352 23.333984 A 8.0008 8.0008 0 0 0 165.34375 23.34375 L 152.1543 36.53125 C 150.41119 34.434773 148.9359 32.506035 147.73633 30.806641 L 147.75781 30.837891 C 144.95733 26.829416 140.59179 24.561265 136.05859 24.15625 C 131.52539 23.751235 126.82414 25.209667 123.35742 28.658203 A 8.0008 8.0008 0 0 0 123.34375 28.673828 L 84.673828 67.34375 A 8.0008 8.0008 0 0 0 84.664062 67.351562 C 77.75151 74.28612 78.812181 86.171005 86.84375 91.771484 C 88.535349 92.959527 90.453139 94.422248 92.537109 96.150391 L 7.34375 181.34375 A 8.0008 8.0008 0 0 0 7.3339844 181.35352 C -2.3222112 191.04318 -2.3222112 206.95682 7.3339844 216.64648 A 8.0008 8.0008 0 0 0 7.3535156 216.66602 C 17.043182 226.32221 32.956818 226.32221 42.646484 216.66602 A 8.0008 8.0008 0 0 0 42.65625 216.65625 L 124.83203 134.48242 C 133.2688 148.75912 140.27569 166.06225 142.93945 186.02734 L 142.92969 185.94336 C 144.48929 198.65564 161.07379 204.36507 170.12695 195.30664 L 251.29492 114.12891 L 251.29688 114.12695 C 260.35532 105.07379 254.64587 88.489289 241.93359 86.929688 L 242.01758 86.939453 C 222.05446 84.275955 204.75779 77.26663 190.48633 68.826172 L 200.65625 58.65625 A 8.0008 8.0008 0 0 0 200.66602 58.646484 C 210.32221 48.956818 210.32221 33.043182 200.66602 23.353516 A 8.0008 8.0008 0 0 0 200.64648 23.333984 C 195.80138 18.505919 189.40111 16.091797 183 16.091797 z M 182.99219 31.992188 C 185.27176 31.991107 187.55233 32.880313 189.3418 34.658203 C 192.89757 38.237129 192.8969 43.778433 189.33398 47.353516 L 176.91211 59.775391 C 171.74125 55.914547 167.13816 51.973487 163.13281 48.179688 L 176.64648 34.666016 C 178.43403 32.884649 180.71261 31.993268 182.99219 31.992188 z M 134.64258 40.001953 A 8.0008 8.0008 0 0 0 134.66406 40.033203 C 137.23414 43.674142 140.92921 48.103668 145.21484 52.763672 A 8 8 0 0 0 146.12305 53.876953 A 8 8 0 0 0 146.66211 54.347656 C 153.49471 61.565499 162.20121 69.351113 172.9043 76.695312 A 8 8 0 0 0 173.93164 77.341797 C 191.21618 89.019928 213.19308 99.235241 239.90234 102.79883 A 8.0008 8.0008 0 0 0 239.98633 102.81055 A 8.0008 8.0008 0 0 0 239.98242 102.81445 L 158.8125 183.99414 A 8.0008 8.0008 0 0 0 158.81055 183.99609 A 8.0008 8.0008 0 0 0 158.79883 183.91211 C 152.89892 139.69135 128.96353 107.9934 109.91016 90.099609 C 109.7806 89.977938 109.65058 89.854769 109.52148 89.734375 C 104.53297 85.082162 99.892844 81.383444 96.015625 78.662109 A 8.0008 8.0008 0 0 0 95.996094 78.648438 L 134.64258 40.001953 z M 104.19141 107.12109 C 107.9848 111.12522 111.92478 115.72707 115.78516 120.90039 L 31.353516 205.33398 C 27.778433 208.89672 22.237129 208.89739 18.658203 205.3418 C 15.102435 201.76287 15.103295 196.22157 18.666016 192.64648 L 104.19141 107.12109 z " />
</svg>
