<?xml version="1.0" encoding="UTF-8" standalone="no"?>
<svg
   viewBox="0 0 256 256"
   version="1.1"
   id="svg2"
   sodipodi:docname="backspace blue_green.svg"
   xmlns:inkscape="http://www.inkscape.org/namespaces/inkscape"
   xmlns:sodipodi="http://sodipodi.sourceforge.net/DTD/sodipodi-0.dtd"
   xmlns:xlink="http://www.w3.org/1999/xlink"
   xmlns="http://www.w3.org/2000/svg"
   xmlns:svg="http://www.w3.org/2000/svg">
  <defs
     id="defs3">
    <linearGradient
       id="linearGradient1"
       inkscape:collect="always">
      <stop
         style="stop-color:#0ec38bff;stop-opacity:1;"
         offset="0"
         id="stop1" />
      <stop
         style="stop-color:#4b4fe2ff;stop-opacity:1;"
         offset="0.76340693"
         id="stop2" />
    </linearGradient>
    <linearGradient
       inkscape:collect="always"
       xlink:href="#linearGradient1"
       id="linearGradient2"
       x1="232.4884"
       y1="23.847498"
       x2="23.977745"
       y2="232.35815"
       gradientUnits="userSpaceOnUse" />
  </defs>
  <defs
     id="defs2" />
  <sodipodi:namedview
     id="namedview2"
     pagecolor="#ffffff"
     bordercolor="#000000"
     borderopacity="0.25"
     inkscape:showpageshadow="2"
     inkscape:pageopacity="0.0"
     inkscape:pagecheckerboard="0"
     inkscape:deskcolor="#d1d1d1" />
  <path
     id="path1"
     style="baseline-shift:baseline;display:inline;overflow:visible;vector-effect:none;fill:url(#linearGradient2);stroke-linecap:round;stroke-linejoin:round;enable-background:accumulate;stop-color:#000000;stop-opacity:1;opacity:1;fill-opacity:1"
     d="M 68.529297 40 C 62.92399 39.999647 57.699325 42.954798 54.8125 47.759766 A 8.0008 8.0008 0 0 0 54.810547 47.763672 L 9.140625 123.88477 A 8.0008 8.0008 0 0 0 9.140625 132.11523 L 54.810547 208.23633 A 8.0008 8.0008 0 0 0 54.8125 208.24023 C 57.699325 213.0452 62.92399 216.00035 68.529297 216 L 216 216 C 224.7418 216 232 208.7418 232 200 L 232 56 C 232 47.258201 224.7418 40 216 40 L 68.533203 40 L 68.529297 40 z M 68.527344 56 A 8.0008 8.0008 0 0 0 68.529297 56 L 216 56 L 216 200 L 68.529297 200 A 8.0008 8.0008 0 0 0 68.527344 200 L 25.330078 128 L 68.527344 56 z M 112 96 A 8 8 0 0 0 106.34375 98.34375 A 8 8 0 0 0 106.34375 109.65625 L 124.6875 128 L 106.34375 146.34375 A 8 8 0 0 0 106.34375 157.65625 A 8 8 0 0 0 117.65625 157.65625 L 136 139.3125 L 154.34375 157.65625 A 8 8 0 0 0 165.65625 157.65625 A 8 8 0 0 0 165.65625 146.34375 L 147.3125 128 L 165.65625 109.65625 A 8 8 0 0 0 165.65625 98.34375 A 8 8 0 0 0 160 96 A 8 8 0 0 0 154.34375 98.34375 L 136 116.6875 L 117.65625 98.34375 A 8 8 0 0 0 112 96 z " />
</svg>
