<?xml version="1.0" encoding="UTF-8" standalone="no"?>
<svg
   viewBox="0 0 256 256"
   version="1.1"
   id="svg3"
   sodipodi:docname="bandaids blue_green.svg"
   xmlns:inkscape="http://www.inkscape.org/namespaces/inkscape"
   xmlns:sodipodi="http://sodipodi.sourceforge.net/DTD/sodipodi-0.dtd"
   xmlns:xlink="http://www.w3.org/1999/xlink"
   xmlns="http://www.w3.org/2000/svg"
   xmlns:svg="http://www.w3.org/2000/svg">
  <defs
     id="defs3">
    <linearGradient
       id="linearGradient1"
       inkscape:collect="always">
      <stop
         style="stop-color:#0ec38bff;stop-opacity:1;"
         offset="0"
         id="stop1" />
      <stop
         style="stop-color:#4b4fe2ff;stop-opacity:1;"
         offset="0.76340693"
         id="stop2" />
    </linearGradient>
    <linearGradient
       inkscape:collect="always"
       xlink:href="#linearGradient1"
       id="linearGradient2"
       x1="232.4884"
       y1="23.847498"
       x2="23.977745"
       y2="232.35815"
       gradientUnits="userSpaceOnUse" />
  </defs>
  <defs
     id="defs1" />
  <sodipodi:namedview
     id="namedview3"
     pagecolor="#ffffff"
     bordercolor="#000000"
     borderopacity="0.25"
     inkscape:showpageshadow="2"
     inkscape:pageopacity="0.0"
     inkscape:pagecheckerboard="0"
     inkscape:deskcolor="#d1d1d1" />
  <path
     id="path1"
     style="baseline-shift:baseline;display:inline;overflow:visible;vector-effect:none;fill:url(#linearGradient2);stroke-linecap:round;stroke-linejoin:round;enable-background:accumulate;stop-color:#000000;stop-opacity:1;opacity:1;fill-opacity:1"
     d="M 72 32.046875 C 61.745424 32.046879 51.490585 35.935196 43.712891 43.712891 C 28.157502 59.26828 28.15749 84.731705 43.712891 100.28711 L 71.425781 128 L 43.712891 155.71289 C 28.157489 171.26829 28.157502 196.73172 43.712891 212.28711 C 59.26828 227.8425 84.731705 227.84251 100.28711 212.28711 L 128 184.57422 L 155.71289 212.28711 C 171.26829 227.84251 196.73172 227.8425 212.28711 212.28711 C 227.8425 196.73172 227.84251 171.26829 212.28711 155.71289 L 184.57422 128 L 212.28711 100.28711 C 227.84251 84.731705 227.8425 59.26828 212.28711 43.712891 C 204.50941 35.935196 194.25458 32.046879 184 32.046875 C 173.74542 32.046871 163.49059 35.93519 155.71289 43.712891 L 128 71.425781 L 100.28711 43.712891 C 92.509406 35.93519 82.254576 32.046871 72 32.046875 z M 72 47.945312 C 78.126315 47.94531 84.252145 50.306832 88.972656 55.027344 L 116.68555 82.740234 L 82.740234 116.68555 L 55.027344 88.972656 C 45.586321 79.531633 45.586326 64.468362 55.027344 55.027344 C 59.747853 50.306835 65.873685 47.945317 72 47.945312 z M 184 47.945312 C 190.12632 47.945316 196.25215 50.306835 200.97266 55.027344 C 210.41367 64.468362 210.41368 79.531633 200.97266 88.972656 L 173.25977 116.68555 L 139.31445 82.740234 L 167.02734 55.027344 C 171.74786 50.306832 177.87368 47.94531 184 47.945312 z M 128 94.054688 L 161.94531 128 L 128 161.94531 L 94.054688 128 L 128 94.054688 z M 128 116 C 127.52552 116 127.05921 116.0358 126.59766 116.0918 A 12 12 0 0 0 126.06836 116.17578 C 125.81531 116.21839 125.56426 116.26555 125.31641 116.32422 A 12 12 0 0 0 124.55469 116.52344 C 124.45505 116.55419 124.35835 116.5917 124.25977 116.625 A 12 12 0 0 0 116.625 124.25977 C 116.59168 124.35839 116.55421 124.45501 116.52344 124.55469 A 12 12 0 0 0 116.32617 125.31055 C 116.26664 125.56153 116.21884 125.81595 116.17578 126.07227 A 12 12 0 0 0 116.0918 126.5957 C 116.03565 127.05777 116.00002 127.52497 116 128 C 116 128.47449 116.0358 128.94078 116.0918 129.40234 A 12 12 0 0 0 116.17578 129.93164 C 116.21839 130.1847 116.26555 130.43574 116.32422 130.68359 A 12 12 0 0 0 116.52344 131.44531 C 116.55419 131.54495 116.59169 131.64165 116.625 131.74023 A 12 12 0 0 0 124.25977 139.375 C 124.35839 139.40832 124.45501 139.4458 124.55469 139.47656 A 12 12 0 0 0 125.31055 139.67383 C 125.56152 139.73335 125.81596 139.78117 126.07227 139.82422 A 12 12 0 0 0 126.5957 139.9082 C 127.05776 139.96435 127.52499 139.99998 128 140 C 128.47449 140 128.94078 139.9642 129.40234 139.9082 A 12 12 0 0 0 129.93164 139.82422 C 130.1847 139.78161 130.43574 139.73445 130.68359 139.67578 A 12 12 0 0 0 131.44531 139.47656 C 131.54495 139.44581 131.64165 139.40831 131.74023 139.375 A 12 12 0 0 0 139.375 131.74023 C 139.40831 131.64165 139.44581 131.54495 139.47656 131.44531 A 12 12 0 0 0 139.67578 130.68359 C 139.73445 130.43574 139.78161 130.1847 139.82422 129.93164 A 12 12 0 0 0 139.9082 129.40234 C 139.9642 128.94078 140 128.47449 140 128 C 140 127.52551 139.9642 127.05922 139.9082 126.59766 A 12 12 0 0 0 139.82422 126.06836 C 139.78161 125.8153 139.73445 125.56426 139.67578 125.31641 A 12 12 0 0 0 139.47656 124.55469 C 139.44581 124.45505 139.40831 124.35835 139.375 124.25977 A 12 12 0 0 0 131.74023 116.625 C 131.64165 116.59169 131.54495 116.55419 131.44531 116.52344 A 12 12 0 0 0 130.68359 116.32422 C 130.43574 116.26555 130.1847 116.21839 129.93164 116.17578 A 12 12 0 0 0 129.40234 116.0918 C 128.94078 116.0358 128.47449 116 128 116 z M 82.740234 139.31445 L 116.68555 173.25977 L 88.972656 200.97266 C 79.531633 210.41368 64.468362 210.41367 55.027344 200.97266 C 45.586326 191.53164 45.58632 176.46837 55.027344 167.02734 L 82.740234 139.31445 z M 173.25977 139.31445 L 200.97266 167.02734 C 210.41368 176.46837 210.41367 191.53164 200.97266 200.97266 C 191.53164 210.41367 176.46837 210.41368 167.02734 200.97266 L 139.31445 173.25977 L 173.25977 139.31445 z " />
</svg>
