<?xml version="1.0" encoding="UTF-8" standalone="no"?>
<svg
   viewBox="0 0 256 256"
   version="1.1"
   id="svg7"
   sodipodi:docname="barcode blue_green.svg"
   xmlns:inkscape="http://www.inkscape.org/namespaces/inkscape"
   xmlns:sodipodi="http://sodipodi.sourceforge.net/DTD/sodipodi-0.dtd"
   xmlns:xlink="http://www.w3.org/1999/xlink"
   xmlns="http://www.w3.org/2000/svg"
   xmlns:svg="http://www.w3.org/2000/svg">
  <defs
     id="defs3">
    <linearGradient
       id="linearGradient1"
       inkscape:collect="always">
      <stop
         style="stop-color:#0ec38bff;stop-opacity:1;"
         offset="0"
         id="stop1" />
      <stop
         style="stop-color:#4b4fe2ff;stop-opacity:1;"
         offset="0.76340693"
         id="stop2" />
    </linearGradient>
    <linearGradient
       inkscape:collect="always"
       xlink:href="#linearGradient1"
       id="linearGradient2"
       x1="232.4884"
       y1="23.847498"
       x2="23.977745"
       y2="232.35815"
       gradientUnits="userSpaceOnUse" />
  </defs>
  <defs
     id="defs7" />
  <sodipodi:namedview
     id="namedview7"
     pagecolor="#ffffff"
     bordercolor="#000000"
     borderopacity="0.25"
     inkscape:showpageshadow="2"
     inkscape:pageopacity="0.0"
     inkscape:pagecheckerboard="0"
     inkscape:deskcolor="#d1d1d1" />
  <path
     id="polyline1"
     style="baseline-shift:baseline;display:inline;overflow:visible;vector-effect:none;fill:url(#linearGradient2);stroke-linecap:round;stroke-linejoin:round;enable-background:accumulate;stop-color:#000000;stop-opacity:1;opacity:1;fill-opacity:1"
     d="M 32 40 A 8.0008 8.0008 0 0 0 24 48 L 24 88 A 8 8 0 0 0 32 96 A 8 8 0 0 0 40 88 L 40 56 L 72 56 A 8 8 0 0 0 80 48 A 8 8 0 0 0 72 40 L 32 40 z M 184 40 A 8 8 0 0 0 176 48 A 8 8 0 0 0 184 56 L 216 56 L 216 88 A 8 8 0 0 0 224 96 A 8 8 0 0 0 232 88 L 232 48 A 8.0008 8.0008 0 0 0 224 40 L 184 40 z M 80 80 A 8 8 0 0 0 72 88 L 72 168 A 8 8 0 0 0 80 176 A 8 8 0 0 0 88 168 L 88 88 A 8 8 0 0 0 80 80 z M 112 80 A 8 8 0 0 0 104 88 L 104 168 A 8 8 0 0 0 112 176 A 8 8 0 0 0 120 168 L 120 88 A 8 8 0 0 0 112 80 z M 144 80 A 8 8 0 0 0 136 88 L 136 168 A 8 8 0 0 0 144 176 A 8 8 0 0 0 152 168 L 152 88 A 8 8 0 0 0 144 80 z M 176 80 A 8 8 0 0 0 168 88 L 168 168 A 8 8 0 0 0 176 176 A 8 8 0 0 0 184 168 L 184 88 A 8 8 0 0 0 176 80 z M 32 160 A 8 8 0 0 0 24 168 L 24 208 A 8.0008 8.0008 0 0 0 32 216 L 72 216 A 8 8 0 0 0 80 208 A 8 8 0 0 0 72 200 L 40 200 L 40 168 A 8 8 0 0 0 32 160 z M 224 160 A 8 8 0 0 0 216 168 L 216 200 L 184 200 A 8 8 0 0 0 176 208 A 8 8 0 0 0 184 216 L 224 216 A 8.0008 8.0008 0 0 0 232 208 L 232 168 A 8 8 0 0 0 224 160 z " />
</svg>
