<?xml version="1.0" encoding="UTF-8" standalone="no"?>
<svg
   viewBox="0 0 256 256"
   version="1.1"
   id="svg6"
   sodipodi:docname="barn blue_green.svg"
   xmlns:inkscape="http://www.inkscape.org/namespaces/inkscape"
   xmlns:sodipodi="http://sodipodi.sourceforge.net/DTD/sodipodi-0.dtd"
   xmlns:xlink="http://www.w3.org/1999/xlink"
   xmlns="http://www.w3.org/2000/svg"
   xmlns:svg="http://www.w3.org/2000/svg">
  <defs
     id="defs3">
    <linearGradient
       id="linearGradient1"
       inkscape:collect="always">
      <stop
         style="stop-color:#0ec38bff;stop-opacity:1;"
         offset="0"
         id="stop1" />
      <stop
         style="stop-color:#4b4fe2ff;stop-opacity:1;"
         offset="0.76340693"
         id="stop2" />
    </linearGradient>
    <linearGradient
       inkscape:collect="always"
       xlink:href="#linearGradient1"
       id="linearGradient2"
       x1="232.4884"
       y1="23.847498"
       x2="23.977745"
       y2="232.35815"
       gradientUnits="userSpaceOnUse" />
  </defs>
  <defs
     id="defs6" />
  <sodipodi:namedview
     id="namedview6"
     pagecolor="#ffffff"
     bordercolor="#000000"
     borderopacity="0.25"
     inkscape:showpageshadow="2"
     inkscape:pageopacity="0.0"
     inkscape:pagecheckerboard="0"
     inkscape:deskcolor="#d1d1d1" />
  <path
     id="path1"
     style="baseline-shift:baseline;display:inline;overflow:visible;vector-effect:none;fill:url(#linearGradient2);stroke-linecap:round;stroke-linejoin:round;enable-background:accumulate;stop-color:#000000;stop-opacity:1;opacity:1;fill-opacity:1"
     d="M 128 16.003906 C 124.8994 16.003906 121.79793 16.89829 119.11914 18.685547 A 8.0008 8.0008 0 0 0 119.01367 18.757812 L 51.453125 65.417969 A 8.0008 8.0008 0 0 0 49.490234 67.349609 L 25.509766 100.92188 A 8 8 0 0 0 25.478516 100.9668 L 9.4902344 123.34961 A 8 8 0 0 0 11.349609 134.50977 A 8 8 0 0 0 22.509766 132.65039 L 24 130.56445 L 24 192 L 16 192 A 8 8 0 0 0 8 200 A 8 8 0 0 0 16 208 L 72 208 A 8 8 0 0 0 72.066406 208 L 184 208 A 8 8 0 0 0 184.06641 208 L 224 208 L 240 208 A 8 8 0 0 0 248 200 A 8 8 0 0 0 240 192 L 232 192 L 232 130.56445 L 233.49023 132.65039 A 8 8 0 0 0 244.65039 134.50977 A 8 8 0 0 0 246.50977 123.34961 L 230.52148 100.9668 A 8 8 0 0 0 230.49805 100.93359 L 206.50977 67.349609 A 8.0008 8.0008 0 0 0 204.54688 65.417969 L 136.98633 18.757812 A 8.0008 8.0008 0 0 0 136.88086 18.685547 C 134.20207 16.898295 131.1006 16.003906 128 16.003906 z M 128 31.994141 L 194.30273 77.787109 L 216 108.16406 L 216 192 L 192 192 L 192 120 A 8.0008 8.0008 0 0 0 191.97852 119.66992 A 8 8 0 0 0 191.93555 119.00586 A 8.0008 8.0008 0 0 0 191.86719 118.63281 A 8 8 0 0 0 191.73828 117.98633 A 8.0008 8.0008 0 0 0 191.63281 117.65039 A 8 8 0 0 0 191.41602 117.01367 A 8.0008 8.0008 0 0 0 191.24219 116.64062 A 8 8 0 0 0 190.97852 116.10156 A 8.0008 8.0008 0 0 0 190.74219 115.7207 A 8 8 0 0 0 190.50977 115.34961 A 8 8 0 0 0 190.41211 115.23047 A 8.0008 8.0008 0 0 0 190.12891 114.88281 A 8 8 0 0 0 189.73438 114.43359 A 8.0008 8.0008 0 0 0 189.38867 114.10938 A 8 8 0 0 0 188.9668 113.74023 A 8.0008 8.0008 0 0 0 188.5625 113.44922 A 8 8 0 0 0 188.11133 113.14648 A 8.0008 8.0008 0 0 0 187.6543 112.90234 A 8 8 0 0 0 187.18164 112.66992 A 8.0008 8.0008 0 0 0 186.71484 112.49219 A 8 8 0 0 0 186.18945 112.31445 A 8.0008 8.0008 0 0 0 185.69727 112.19922 A 8 8 0 0 0 185.31445 112.10938 A 8 8 0 0 0 185.18555 112.0957 A 8.0008 8.0008 0 0 0 184.62695 112.04102 A 8 8 0 0 0 184.14648 112.00977 A 8.0008 8.0008 0 0 0 184 112 L 72 112 A 8.0008 8.0008 0 0 0 71.853516 112.00977 A 8 8 0 0 0 71.373047 112.04102 A 8.0008 8.0008 0 0 0 70.814453 112.0957 A 8 8 0 0 0 70.685547 112.10938 A 8 8 0 0 0 70.302734 112.19922 A 8.0008 8.0008 0 0 0 69.810547 112.31445 A 8 8 0 0 0 69.285156 112.49219 A 8.0008 8.0008 0 0 0 68.818359 112.66992 A 8 8 0 0 0 68.345703 112.90234 A 8.0008 8.0008 0 0 0 67.888672 113.14648 A 8 8 0 0 0 67.4375 113.44922 A 8.0008 8.0008 0 0 0 67.033203 113.74023 A 8 8 0 0 0 66.611328 114.10938 A 8.0008 8.0008 0 0 0 66.265625 114.43359 A 8 8 0 0 0 65.871094 114.88281 A 8.0008 8.0008 0 0 0 65.587891 115.23047 A 8 8 0 0 0 65.490234 115.34961 A 8 8 0 0 0 65.257812 115.7207 A 8.0008 8.0008 0 0 0 65.021484 116.10156 A 8 8 0 0 0 64.757812 116.64062 A 8.0008 8.0008 0 0 0 64.583984 117.01367 A 8 8 0 0 0 64.367188 117.65039 A 8.0008 8.0008 0 0 0 64.261719 117.98633 A 8 8 0 0 0 64.132812 118.63281 A 8.0008 8.0008 0 0 0 64.064453 119.00586 A 8 8 0 0 0 64.021484 119.66992 A 8.0008 8.0008 0 0 0 64 120 L 64 192 L 40 192 L 40 108.16406 L 61.697266 77.787109 L 128 31.994141 z M 112 80 A 8 8 0 0 0 104 88 A 8 8 0 0 0 112 96 L 144 96 A 8 8 0 0 0 152 88 A 8 8 0 0 0 144 80 L 112 80 z M 96.964844 128 L 159.03516 128 L 128 150.16797 L 96.964844 128 z M 80 135.54492 L 114.23633 160 L 80 184.45508 L 80 135.54492 z M 176 135.54492 L 176 184.45508 L 141.76367 160 L 176 135.54492 z M 128 169.83203 L 159.03516 192 L 96.964844 192 L 128 169.83203 z " />
</svg>
