<?xml version="1.0" encoding="UTF-8" standalone="no"?>
<svg
   viewBox="0 0 256 256"
   version="1.1"
   id="svg6"
   sodipodi:docname="barricade blue_green.svg"
   xmlns:inkscape="http://www.inkscape.org/namespaces/inkscape"
   xmlns:sodipodi="http://sodipodi.sourceforge.net/DTD/sodipodi-0.dtd"
   xmlns:xlink="http://www.w3.org/1999/xlink"
   xmlns="http://www.w3.org/2000/svg"
   xmlns:svg="http://www.w3.org/2000/svg">
  <defs
     id="defs3">
    <linearGradient
       id="linearGradient1"
       inkscape:collect="always">
      <stop
         style="stop-color:#0ec38bff;stop-opacity:1;"
         offset="0"
         id="stop1" />
      <stop
         style="stop-color:#4b4fe2ff;stop-opacity:1;"
         offset="0.76340693"
         id="stop2" />
    </linearGradient>
    <linearGradient
       inkscape:collect="always"
       xlink:href="#linearGradient1"
       id="linearGradient2"
       x1="232.4884"
       y1="23.847498"
       x2="23.977745"
       y2="232.35815"
       gradientUnits="userSpaceOnUse" />
  </defs>
  <defs
     id="defs6" />
  <sodipodi:namedview
     id="namedview6"
     pagecolor="#ffffff"
     bordercolor="#000000"
     borderopacity="0.25"
     inkscape:showpageshadow="2"
     inkscape:pageopacity="0.0"
     inkscape:pagecheckerboard="0"
     inkscape:deskcolor="#d1d1d1" />
  <path
     id="rect2"
     style="baseline-shift:baseline;display:inline;overflow:visible;vector-effect:none;fill:url(#linearGradient2);stroke-linecap:round;stroke-linejoin:round;enable-background:accumulate;stop-color:#000000;stop-opacity:1;opacity:1;fill-opacity:1"
     d="M 32 64 C 23.274378 64 16 71.274378 16 80 L 16 152 C 16 160.72562 23.274378 168 32 168 L 56 168 L 56 200 A 8 8 0 0 0 64 208 A 8 8 0 0 0 72 200 L 72 168 L 184 168 L 184 200 A 8 8 0 0 0 192 208 A 8 8 0 0 0 200 200 L 200 168 L 224 168 C 232.72562 168 240 160.72562 240 152 L 240 80 C 240 71.274378 232.72562 64 224 64 L 32 64 z M 32 80 L 80.6875 80 L 152.6875 152 L 103.3125 152 L 32 80.6875 L 32 80 z M 103.3125 80 L 152.6875 80 L 224 151.3125 L 224 152 L 175.3125 152 L 103.3125 80 z M 175.3125 80 L 224 80 L 224 128.6875 L 175.3125 80 z M 32 103.3125 L 80.6875 152 L 64 152 L 32 152 L 32 103.3125 z " />
</svg>
