<?xml version="1.0" encoding="UTF-8" standalone="no"?>
<svg
   viewBox="0 0 256 256"
   version="1.1"
   id="svg4"
   sodipodi:docname="beer stein blue_green.svg"
   xmlns:inkscape="http://www.inkscape.org/namespaces/inkscape"
   xmlns:sodipodi="http://sodipodi.sourceforge.net/DTD/sodipodi-0.dtd"
   xmlns:xlink="http://www.w3.org/1999/xlink"
   xmlns="http://www.w3.org/2000/svg"
   xmlns:svg="http://www.w3.org/2000/svg">
  <defs
     id="defs3">
    <linearGradient
       id="linearGradient1"
       inkscape:collect="always">
      <stop
         style="stop-color:#0ec38bff;stop-opacity:1;"
         offset="0"
         id="stop1" />
      <stop
         style="stop-color:#4b4fe2ff;stop-opacity:1;"
         offset="0.76340693"
         id="stop2" />
    </linearGradient>
    <linearGradient
       inkscape:collect="always"
       xlink:href="#linearGradient1"
       id="linearGradient2"
       x1="232.4884"
       y1="23.847498"
       x2="23.977745"
       y2="232.35815"
       gradientUnits="userSpaceOnUse" />
  </defs>
  <defs
     id="defs4" />
  <sodipodi:namedview
     id="namedview4"
     pagecolor="#ffffff"
     bordercolor="#000000"
     borderopacity="0.25"
     inkscape:showpageshadow="2"
     inkscape:pageopacity="0.0"
     inkscape:pagecheckerboard="0"
     inkscape:deskcolor="#d1d1d1" />
  <path
     id="line1"
     style="baseline-shift:baseline;display:inline;overflow:visible;vector-effect:none;fill:url(#linearGradient2);stroke-linecap:round;stroke-linejoin:round;enable-background:accumulate;stop-color:#000000;stop-opacity:1;opacity:1;fill-opacity:1"
     d="M 104 16 C 69.364428 16 40 40.446369 40 72 L 40 208 C 40 216.7418 47.258201 224 56 224 L 184 224 C 192.7418 224 200 216.7418 200 208 L 200 200 L 216 200 C 229.16008 200 240 189.16008 240 176 L 240 112 C 240 98.839923 229.16008 88 216 88 L 200 88 L 200 72 C 200 50.003367 181.99663 32 160 32 L 148.70508 32 C 137.05418 22.022622 121.29845 16 104 16 z M 104 32 C 118.60326 32 131.54093 37.47667 140.20508 45.777344 A 8.0008 8.0008 0 0 0 145.74023 48 L 160 48 C 170.53849 48 179.39562 54.637233 182.6582 64 L 56.974609 64 C 61.377494 46.12756 80.230936 32 104 32 z M 56 80 L 184 80 L 184 96 L 184 192 L 184 208 L 56 208 L 56 80 z M 96 96 A 8 8 0 0 0 88 104 L 88 184 A 8 8 0 0 0 96 192 A 8 8 0 0 0 104 184 L 104 104 A 8 8 0 0 0 96 96 z M 144 96 A 8 8 0 0 0 136 104 L 136 184 A 8 8 0 0 0 144 192 A 8 8 0 0 0 152 184 L 152 104 A 8 8 0 0 0 144 96 z M 200 104 L 216 104 C 220.51304 104 224 107.48696 224 112 L 224 176 C 224 180.51304 220.51304 184 216 184 L 200 184 L 200 104 z " />
</svg>
