<?xml version="1.0" encoding="UTF-8" standalone="no"?>
<svg
   viewBox="0 0 256 256"
   version="1.1"
   id="svg3"
   sodipodi:docname="bicycle blue_green.svg"
   xmlns:inkscape="http://www.inkscape.org/namespaces/inkscape"
   xmlns:sodipodi="http://sodipodi.sourceforge.net/DTD/sodipodi-0.dtd"
   xmlns:xlink="http://www.w3.org/1999/xlink"
   xmlns="http://www.w3.org/2000/svg"
   xmlns:svg="http://www.w3.org/2000/svg">
  <defs
     id="defs3">
    <linearGradient
       id="linearGradient1"
       inkscape:collect="always">
      <stop
         style="stop-color:#0ec38bff;stop-opacity:1;"
         offset="0"
         id="stop1" />
      <stop
         style="stop-color:#4b4fe2ff;stop-opacity:1;"
         offset="0.76340693"
         id="stop2" />
    </linearGradient>
    <linearGradient
       inkscape:collect="always"
       xlink:href="#linearGradient1"
       id="linearGradient2"
       x1="232.4884"
       y1="23.847498"
       x2="23.977745"
       y2="232.35815"
       gradientUnits="userSpaceOnUse" />
  </defs>
  <defs
     id="defs1" />
  <sodipodi:namedview
     id="namedview3"
     pagecolor="#ffffff"
     bordercolor="#000000"
     borderopacity="0.25"
     inkscape:showpageshadow="2"
     inkscape:pageopacity="0.0"
     inkscape:pagecheckerboard="0"
     inkscape:deskcolor="#d1d1d1" />
  <path
     id="path1"
     style="baseline-shift:baseline;display:inline;overflow:visible;vector-effect:none;fill:url(#linearGradient2);stroke-linecap:round;stroke-linejoin:round;enable-background:accumulate;stop-color:#000000;stop-opacity:1;opacity:1;fill-opacity:1"
     d="M 48 56 A 8 8 0 0 0 40 64 A 8 8 0 0 0 48 72 L 71.404297 72 L 85.123047 95.517578 L 69.408203 117.06445 C 62.955234 113.8253 55.682115 112 48 112 C 21.585089 112 0 133.58509 0 160 C 0 186.41491 21.585089 208 48 208 C 74.414911 208 96 186.41491 96 160 C 96 147.00375 90.774918 135.1761 82.320312 126.51367 L 93.923828 110.60352 L 125.08984 164.03125 A 8 8 0 0 0 136.03125 166.91016 A 8 8 0 0 0 138.91016 155.96875 L 108.5957 104 L 166.07031 104 L 177.26562 123.19141 C 166.72635 132.01218 160 145.25341 160 160 C 160 186.41491 181.58509 208 208 208 C 234.41491 208 256 186.41491 256 160 C 256 133.58509 234.41491 112 208 112 C 202.0468 112 196.33912 113.09672 191.06836 115.09766 L 177.69531 92.173828 L 177.69141 92.164062 A 8 8 0 0 0 177.45703 91.765625 L 165.92773 72 L 192 72 C 196.51304 72 200 75.486965 200 80 A 8 8 0 0 0 208 88 A 8 8 0 0 0 216 80 C 216 66.839923 205.16008 56 192 56 L 152 56 A 8.0008 8.0008 0 0 0 145.08984 68.03125 L 156.73828 88 L 99.261719 88 L 82.910156 59.96875 A 8.0008 8.0008 0 0 0 76 56 L 48 56 z M 48 128 C 52.179665 128 56.163383 128.78678 59.8125 130.22266 L 41.535156 155.28711 A 8 8 0 0 0 43.287109 166.46484 A 8 8 0 0 0 54.464844 164.71289 L 72.75 139.63867 C 77.28648 145.1582 80 152.24175 80 160 C 80 177.76787 65.767869 192 48 192 C 30.232131 192 16 177.76787 16 160 C 16 142.23213 30.232131 128 48 128 z M 208 128 C 225.76787 128 240 142.23213 240 160 C 240 177.76787 225.76787 192 208 192 C 190.23213 192 176 177.76787 176 160 C 176 151.05747 179.60461 143.01024 185.45117 137.22266 L 201.08984 164.03125 A 8 8 0 0 0 212.03125 166.91016 A 8 8 0 0 0 214.91016 155.96875 L 199.28711 129.18555 C 202.05363 128.41372 204.97589 128 208 128 z " />
</svg>
