<?xml version="1.0" encoding="UTF-8" standalone="no"?>
<svg
   viewBox="0 0 256 256"
   version="1.1"
   id="svg4"
   sodipodi:docname="blueprint blue_green.svg"
   xmlns:inkscape="http://www.inkscape.org/namespaces/inkscape"
   xmlns:sodipodi="http://sodipodi.sourceforge.net/DTD/sodipodi-0.dtd"
   xmlns:xlink="http://www.w3.org/1999/xlink"
   xmlns="http://www.w3.org/2000/svg"
   xmlns:svg="http://www.w3.org/2000/svg">
  <defs
     id="defs3">
    <linearGradient
       id="linearGradient1"
       inkscape:collect="always">
      <stop
         style="stop-color:#0ec38bff;stop-opacity:1;"
         offset="0"
         id="stop1" />
      <stop
         style="stop-color:#4b4fe2ff;stop-opacity:1;"
         offset="0.76340693"
         id="stop2" />
    </linearGradient>
    <linearGradient
       inkscape:collect="always"
       xlink:href="#linearGradient1"
       id="linearGradient2"
       x1="232.4884"
       y1="23.847498"
       x2="23.977745"
       y2="232.35815"
       gradientUnits="userSpaceOnUse" />
  </defs>
  <defs
     id="defs4" />
  <sodipodi:namedview
     id="namedview4"
     pagecolor="#ffffff"
     bordercolor="#000000"
     borderopacity="0.25"
     inkscape:showpageshadow="2"
     inkscape:pageopacity="0.0"
     inkscape:pagecheckerboard="0"
     inkscape:deskcolor="#d1d1d1" />
  <path
     id="path1"
     style="baseline-shift:baseline;display:inline;overflow:visible;vector-effect:none;fill:url(#linearGradient2);stroke-linecap:round;stroke-linejoin:round;enable-background:accumulate;stop-color:#000000;stop-opacity:1;opacity:1;fill-opacity:1"
     d="M 48 32 C 30.421645 32 16 46.421645 16 64 L 16 176 C 16 193.57835 30.421639 208 48 208 L 232 208 A 8.0008 8.0008 0 0 0 240 200 L 240 64 A 8.0008 8.0008 0 0 0 232 56 L 72 56 L 72 40 A 8.0008 8.0008 0 0 0 64 32 L 48 32 z M 48 48 L 56 48 L 56 64 L 56 144 L 48 144 C 42.15595 144 36.732301 145.70838 32 148.48242 L 32 64 C 32 55.068687 39.068687 48 48 48 z M 72 72 L 224 72 L 224 192 L 48 192 C 39.068675 192 32 184.93132 32 176 C 32 167.06868 39.068675 160 48 160 L 64 160 A 8.0008 8.0008 0 0 0 72 152 L 72 72 z M 128 88 A 8 8 0 0 0 120 96 L 120 104 L 104 104 A 8 8 0 0 0 96 112 A 8 8 0 0 0 104 120 L 120 120 L 120 136 L 104 136 A 8 8 0 0 0 96 144 A 8 8 0 0 0 104 152 L 120 152 L 120 160 A 8 8 0 0 0 128 168 A 8 8 0 0 0 136 160 L 136 152 L 160 152 L 160 160 A 8 8 0 0 0 168 168 A 8 8 0 0 0 176 160 L 176 152 L 192 152 A 8 8 0 0 0 200 144 A 8 8 0 0 0 192 136 L 176 136 L 176 120 L 192 120 A 8 8 0 0 0 200 112 A 8 8 0 0 0 192 104 L 176 104 L 176 96 A 8 8 0 0 0 168 88 A 8 8 0 0 0 160 96 L 160 104 L 136 104 L 136 96 A 8 8 0 0 0 128 88 z M 136 120 L 160 120 L 160 136 L 136 136 L 136 120 z " />
</svg>
