<?xml version="1.0" encoding="UTF-8" standalone="no"?>
<svg
   viewBox="0 0 256 256"
   version="1.1"
   id="svg1"
   sodipodi:docname="bone blue_green.svg"
   xmlns:inkscape="http://www.inkscape.org/namespaces/inkscape"
   xmlns:sodipodi="http://sodipodi.sourceforge.net/DTD/sodipodi-0.dtd"
   xmlns:xlink="http://www.w3.org/1999/xlink"
   xmlns="http://www.w3.org/2000/svg"
   xmlns:svg="http://www.w3.org/2000/svg">
  <defs
     id="defs3">
    <linearGradient
       id="linearGradient1"
       inkscape:collect="always">
      <stop
         style="stop-color:#0ec38bff;stop-opacity:1;"
         offset="0"
         id="stop1" />
      <stop
         style="stop-color:#4b4fe2ff;stop-opacity:1;"
         offset="0.76340693"
         id="stop2" />
    </linearGradient>
    <linearGradient
       inkscape:collect="always"
       xlink:href="#linearGradient1"
       id="linearGradient2"
       x1="232.4884"
       y1="23.847498"
       x2="23.977745"
       y2="232.35815"
       gradientUnits="userSpaceOnUse" />
  </defs>
  <defs
     id="defs1" />
  <sodipodi:namedview
     id="namedview1"
     pagecolor="#ffffff"
     bordercolor="#000000"
     borderopacity="0.25"
     inkscape:showpageshadow="2"
     inkscape:pageopacity="0.0"
     inkscape:pagecheckerboard="0"
     inkscape:deskcolor="#d1d1d1" />
  <path
     id="path1"
     style="baseline-shift:baseline;display:inline;overflow:visible;vector-effect:none;fill:url(#linearGradient2);stroke-linecap:round;stroke-linejoin:round;enable-background:accumulate;stop-color:#000000;stop-opacity:1;opacity:1;fill-opacity:1"
     d="M 173.80859 16.035156 C 170.87801 15.882311 167.86636 16.094996 164.82422 16.716797 C 140.4871 21.691186 128.34138 49.971104 141.49219 71.044922 A 8.0008 8.0008 0 0 0 141.55859 71.148438 A 8.0008 8.0008 0 0 0 141.55273 71.152344 L 71.173828 141.5332 A 8.0008 8.0008 0 0 0 71.167969 141.53906 A 8.0008 8.0008 0 0 0 71.064453 141.47266 C 49.990635 128.32185 21.710717 140.46757 16.736328 164.80469 C 12.408021 185.98086 27.936484 205.57317 48.210938 207.78906 C 50.426825 228.06352 70.019143 243.59198 91.195312 239.26367 C 115.53243 234.28928 127.67815 206.00937 114.52734 184.93555 A 8.0008 8.0008 0 0 0 114.46094 184.83203 A 8.0008 8.0008 0 0 0 114.4668 184.82617 L 184.84766 114.44727 A 8.0008 8.0008 0 0 0 184.85156 114.44141 A 8.0008 8.0008 0 0 0 184.95508 114.50781 C 206.0289 127.65862 234.30881 115.5129 239.2832 91.175781 C 243.61152 69.999568 228.08311 50.407227 207.80859 48.191406 C 205.91109 30.829494 191.27768 16.946261 173.80859 16.035156 z M 173.13477 31.974609 C 184.72993 32.460427 193.70907 42.791456 191.79492 55.068359 A 8.0008 8.0008 0 0 0 200.93164 64.205078 C 214.96239 62.017485 226.45106 74.058233 223.60742 87.970703 C 220.76662 101.86931 205.5024 108.43732 193.46094 100.95508 C 193.44893 100.94762 193.43778 100.94108 193.42578 100.93359 C 187.13858 96.942748 178.79512 97.861352 173.52734 103.13867 L 103.1582 173.50781 C 97.8726 178.78386 96.960089 187.14496 100.97266 193.43555 L 100.97461 193.4375 C 100.97556 193.43946 100.97756 193.4453 100.97852 193.44727 C 108.45515 205.48784 101.88665 220.74753 87.990234 223.58789 C 74.077764 226.43153 62.037016 214.94286 64.224609 200.91211 A 8.0008 8.0008 0 0 0 55.087891 191.77539 C 41.057143 193.96298 29.568468 181.92224 32.412109 168.00977 C 35.252017 154.11557 50.507194 147.54662 62.546875 155.01758 L 62.548828 155.01953 C 62.550797 155.02048 62.556624 155.02248 62.558594 155.02344 C 68.849811 159.04007 77.214601 158.12896 82.492188 152.8418 L 152.86133 82.472656 C 158.13829 77.205246 159.05632 68.861271 155.06641 62.574219 C 155.0587 62.56207 155.05267 62.549243 155.04492 62.537109 C 147.56275 50.49567 154.13073 35.233377 168.0293 32.392578 C 169.76836 32.037123 171.47831 31.905207 173.13477 31.974609 z " />
</svg>
