<?xml version="1.0" encoding="UTF-8" standalone="no"?>
<svg
   viewBox="0 0 256 256"
   version="1.1"
   id="svg3"
   sodipodi:docname="boules blue_green.svg"
   xmlns:inkscape="http://www.inkscape.org/namespaces/inkscape"
   xmlns:sodipodi="http://sodipodi.sourceforge.net/DTD/sodipodi-0.dtd"
   xmlns:xlink="http://www.w3.org/1999/xlink"
   xmlns="http://www.w3.org/2000/svg"
   xmlns:svg="http://www.w3.org/2000/svg">
  <defs
     id="defs3">
    <linearGradient
       id="linearGradient1"
       inkscape:collect="always">
      <stop
         style="stop-color:#0ec38bff;stop-opacity:1;"
         offset="0"
         id="stop1" />
      <stop
         style="stop-color:#4b4fe2ff;stop-opacity:1;"
         offset="0.76340693"
         id="stop2" />
    </linearGradient>
    <linearGradient
       inkscape:collect="always"
       xlink:href="#linearGradient1"
       id="linearGradient2"
       x1="232.4884"
       y1="23.847498"
       x2="23.977745"
       y2="232.35815"
       gradientUnits="userSpaceOnUse" />
  </defs>
  <defs
     id="defs1" />
  <sodipodi:namedview
     id="namedview3"
     pagecolor="#ffffff"
     bordercolor="#000000"
     borderopacity="0.25"
     inkscape:showpageshadow="2"
     inkscape:pageopacity="0.0"
     inkscape:pagecheckerboard="0"
     inkscape:deskcolor="#d1d1d1" />
  <path
     id="circle1"
     style="baseline-shift:baseline;display:inline;overflow:visible;vector-effect:none;fill:url(#linearGradient2);stroke-linecap:round;stroke-linejoin:round;enable-background:accumulate;stop-color:#000000;stop-opacity:1;opacity:1;fill-opacity:1"
     d="M 128 24 C 70.657143 24 24 70.657143 24 128 C 24 142.97567 27.18252 157.22231 32.90625 170.09961 A 8 8 0 0 0 33.548828 171.51758 C 38.607851 182.45308 45.512523 192.36922 53.859375 200.86133 A 8 8 0 0 0 54.462891 201.53711 A 8 8 0 0 0 55.138672 202.14062 C 63.630781 210.48748 73.546922 217.39215 84.482422 222.45117 A 8 8 0 0 0 85.900391 223.09375 C 98.777698 228.81748 113.02433 232 128 232 C 185.34286 232 232 185.34286 232 128 C 232 113.02433 228.81748 98.777698 223.09375 85.900391 A 8 8 0 0 0 222.45117 84.482422 C 217.39215 73.546922 210.48748 63.630781 202.14062 55.138672 A 8 8 0 0 0 201.53711 54.462891 A 8 8 0 0 0 200.86133 53.859375 C 192.36762 45.511003 182.44964 38.606115 171.51172 33.546875 A 8 8 0 0 0 170.11133 32.910156 C 157.23115 27.183359 142.97992 24 128 24 z M 128 40 C 136.7176 40 145.13412 41.259744 153.07812 43.607422 L 43.607422 153.07812 C 41.259744 145.13412 40 136.7176 40 128 C 40 79.304185 79.304185 40 128 40 z M 169.1582 50.15625 C 174.5842 53.024173 179.67193 56.442637 184.34766 60.337891 L 60.337891 184.34766 C 56.442637 179.67193 53.024173 174.5842 50.15625 169.1582 L 169.1582 50.15625 z M 195.66211 71.652344 C 199.55736 76.328066 202.97583 81.415805 205.84375 86.841797 L 86.841797 205.84375 C 81.415805 202.97583 76.328066 199.55736 71.652344 195.66211 L 195.66211 71.652344 z M 212.39258 102.92188 C 214.74026 110.86588 216 119.2824 216 128 C 216 176.69582 176.69582 216 128 216 C 119.2824 216 110.86588 214.74026 102.92188 212.39258 L 212.39258 102.92188 z " />
</svg>
