<?xml version="1.0" encoding="UTF-8" standalone="no"?>
<svg
   viewBox="0 0 256 256"
   version="1.1"
   id="svg5"
   sodipodi:docname="bridge blue_green.svg"
   xmlns:inkscape="http://www.inkscape.org/namespaces/inkscape"
   xmlns:sodipodi="http://sodipodi.sourceforge.net/DTD/sodipodi-0.dtd"
   xmlns:xlink="http://www.w3.org/1999/xlink"
   xmlns="http://www.w3.org/2000/svg"
   xmlns:svg="http://www.w3.org/2000/svg">
  <defs
     id="defs3">
    <linearGradient
       id="linearGradient1"
       inkscape:collect="always">
      <stop
         style="stop-color:#0ec38bff;stop-opacity:1;"
         offset="0"
         id="stop1" />
      <stop
         style="stop-color:#4b4fe2ff;stop-opacity:1;"
         offset="0.76340693"
         id="stop2" />
    </linearGradient>
    <linearGradient
       inkscape:collect="always"
       xlink:href="#linearGradient1"
       id="linearGradient2"
       x1="232.4884"
       y1="23.847498"
       x2="23.977745"
       y2="232.35815"
       gradientUnits="userSpaceOnUse" />
  </defs>
  <defs
     id="defs5" />
  <sodipodi:namedview
     id="namedview5"
     pagecolor="#ffffff"
     bordercolor="#000000"
     borderopacity="0.25"
     inkscape:showpageshadow="2"
     inkscape:pageopacity="0.0"
     inkscape:pagecheckerboard="0"
     inkscape:deskcolor="#d1d1d1" />
  <path
     id="line1"
     style="baseline-shift:baseline;display:inline;overflow:visible;vector-effect:none;fill:url(#linearGradient2);stroke-linecap:round;stroke-linejoin:round;enable-background:accumulate;stop-color:#000000;stop-opacity:1;opacity:1;fill-opacity:1"
     d="M 64 48 A 8 8 0 0 0 56 56 L 56 56.001953 C 56.0073 78.851511 42.182109 99.365022 21 107.93359 A 8 8 0 0 0 16.583984 118.34961 A 8 8 0 0 0 27 122.76562 C 38.625663 118.06283 48.489658 110.50515 56 101.11719 L 56 160 L 24 160 A 8 8 0 0 0 16 168 A 8 8 0 0 0 24 176 L 56 176 L 56 200 A 8 8 0 0 0 64 208 A 8 8 0 0 0 72 200 L 72 176 L 104 176 L 152 176 L 184 176 L 184 200 A 8 8 0 0 0 192 208 A 8 8 0 0 0 200 200 L 200 176 L 232 176 A 8 8 0 0 0 240 168 A 8 8 0 0 0 232 160 L 200 160 L 200 101.11719 C 207.51034 110.50515 217.37434 118.06283 229 122.76562 A 8 8 0 0 0 239.41602 118.34961 A 8 8 0 0 0 235 107.93359 C 213.81789 99.365022 199.99271 78.851511 200 56.001953 L 200 56 A 8 8 0 0 0 192 48 A 8 8 0 0 0 184 55.990234 A 8.0008 8.0008 0 0 0 184 55.998047 L 184 56 C 184 79.382561 169.80983 99.330969 149.53711 107.73828 A 8 8 0 0 0 148.49805 108.1582 C 142.15568 110.63973 135.24214 112 128 112 C 96.97729 112 72 87.02273 72 56 A 8 8 0 0 0 72 55.998047 A 8.0008 8.0008 0 0 0 72 55.988281 A 8 8 0 0 0 64 48 z M 72 101.09375 C 78.491301 109.15051 86.672373 115.7893 96 120.45703 L 96 160 L 72 160 L 72 101.09375 z M 184 101.09375 L 184 160 L 160 160 L 160 120.45703 C 169.32763 115.7893 177.5087 109.15051 184 101.09375 z M 112 126.19922 C 117.14642 127.3768 122.50166 128 128 128 C 133.49834 128 138.85358 127.3768 144 126.19922 L 144 160 L 112 160 L 112 126.19922 z " />
</svg>
