<?xml version="1.0" encoding="UTF-8" standalone="no"?>
<svg
   viewBox="0 0 256 256"
   version="1.1"
   id="svg2"
   sodipodi:docname="broom blue_green.svg"
   xmlns:inkscape="http://www.inkscape.org/namespaces/inkscape"
   xmlns:sodipodi="http://sodipodi.sourceforge.net/DTD/sodipodi-0.dtd"
   xmlns:xlink="http://www.w3.org/1999/xlink"
   xmlns="http://www.w3.org/2000/svg"
   xmlns:svg="http://www.w3.org/2000/svg">
  <defs
     id="defs3">
    <linearGradient
       id="linearGradient1"
       inkscape:collect="always">
      <stop
         style="stop-color:#0ec38bff;stop-opacity:1;"
         offset="0"
         id="stop1" />
      <stop
         style="stop-color:#4b4fe2ff;stop-opacity:1;"
         offset="0.76340693"
         id="stop2" />
    </linearGradient>
    <linearGradient
       inkscape:collect="always"
       xlink:href="#linearGradient1"
       id="linearGradient2"
       x1="232.4884"
       y1="23.847498"
       x2="23.977745"
       y2="232.35815"
       gradientUnits="userSpaceOnUse" />
  </defs>
  <defs
     id="defs2" />
  <sodipodi:namedview
     id="namedview2"
     pagecolor="#ffffff"
     bordercolor="#000000"
     borderopacity="0.25"
     inkscape:showpageshadow="2"
     inkscape:pageopacity="0.0"
     inkscape:pagecheckerboard="0"
     inkscape:deskcolor="#d1d1d1" />
  <path
     id="path1"
     style="baseline-shift:baseline;display:inline;overflow:visible;vector-effect:none;fill:url(#linearGradient2);stroke-linecap:round;stroke-linejoin:round;enable-background:accumulate;stop-color:#000000;stop-opacity:1;opacity:1;fill-opacity:1"
     d="M 154.95312 7.9960938 C 144.21713 8.4942647 134.2555 15.282414 129.95117 25.654297 A 8.0008 8.0008 0 0 0 129.90039 25.779297 L 108.90039 78.888672 A 8.0008 8.0008 0 0 0 108.89648 78.900391 C 107.23757 83.115243 102.69312 85.079636 98.486328 83.400391 L 73.142578 73.134766 A 8.0008 8.0008 0 0 0 73.113281 73.123047 C 67.152542 70.736583 60.281489 72.170199 55.773438 76.742188 A 8.0008 8.0008 0 0 0 55.736328 76.78125 C 48.592507 84.12482 42.397409 92.166009 37.423828 100.91602 A 8 8 0 0 0 36.548828 102.48438 C 28.593044 117.04411 24.001321 133.53054 24 151.99219 C 23.999999 151.99319 24.000001 151.99509 24 151.99609 L 24 152 C 23.97626 180.91709 35.176784 208.7242 55.238281 229.55078 A 8.0008 8.0008 0 0 0 61 232 L 232 232 A 8.0008 8.0008 0 0 0 235.50391 216.80859 C 215.38169 207.0076 203.80792 188.29039 200.79492 164.8125 A 8 8 0 0 0 200.63672 163.50781 C 200.21198 159.78267 200 155.94133 200 152 L 200 134.73438 C 200.0112 128.22851 196.03112 122.31275 190 119.87305 A 8.0008 8.0008 0 0 0 189.93555 119.84766 L 165.03125 110.02148 C 160.84877 108.34892 158.90429 103.82922 160.56641 99.642578 L 181.87109 46.650391 C 187.90125 32.090866 180.53442 15.189906 165.76562 9.6953125 C 162.19561 8.3635838 158.53179 7.8300368 154.95312 7.9960938 z M 156.72461 23.974609 C 157.88019 24.031025 159.04134 24.263094 160.17383 24.685547 A 8.0008 8.0008 0 0 0 160.18359 24.689453 C 166.6576 27.095706 169.73076 34.148223 167.08789 40.529297 A 8.0008 8.0008 0 0 0 167.05664 40.605469 L 145.70703 93.705078 A 8.0008 8.0008 0 0 0 145.69531 93.738281 C 140.84773 105.94865 146.89161 120.00087 159.08984 124.87891 A 8.0008 8.0008 0 0 0 159.12305 124.89258 L 184 134.70703 A 8.0008 8.0008 0 0 0 184 134.7207 L 184 152 C 184 152.32847 184.0011 152.65653 184.00391 152.98438 L 55.748047 101.68164 C 59.086867 96.913497 62.90846 92.360914 67.167969 87.978516 L 92.517578 98.244141 A 8.0008 8.0008 0 0 0 92.554688 98.259766 C 104.81771 103.15485 118.94739 97.046281 123.7832 84.759766 L 144.72852 31.787109 L 144.72852 31.785156 L 144.73047 31.783203 L 144.73242 31.783203 L 144.73242 31.78125 C 146.6545 27.157022 150.98145 24.210466 155.57227 23.976562 C 155.95502 23.95706 156.33942 23.955804 156.72461 23.974609 z M 47.675781 115.68555 L 185.61328 170.86133 C 188.66779 188.23022 196.05325 203.94529 207.71484 216 L 115.12695 216 C 103.21733 204.6204 94.759162 190.08458 90.761719 174.0625 A 8 8 0 0 0 81.0625 168.23828 A 8 8 0 0 0 75.238281 177.9375 C 78.703633 191.82691 85.003845 204.77412 93.666016 216 L 64.621094 216 C 48.827924 198.44495 39.978885 175.69888 40 152.00781 A 8.0008 8.0008 0 0 0 40 152 C 40 138.49873 42.697287 126.53215 47.675781 115.68555 z " />
</svg>
