<?xml version="1.0" encoding="UTF-8" standalone="no"?>
<svg
   viewBox="0 0 256 256"
   version="1.1"
   id="svg2"
   sodipodi:docname="camera plus blue_green.svg"
   xmlns:inkscape="http://www.inkscape.org/namespaces/inkscape"
   xmlns:sodipodi="http://sodipodi.sourceforge.net/DTD/sodipodi-0.dtd"
   xmlns:xlink="http://www.w3.org/1999/xlink"
   xmlns="http://www.w3.org/2000/svg"
   xmlns:svg="http://www.w3.org/2000/svg">
  <defs
     id="defs3">
    <linearGradient
       id="linearGradient1"
       inkscape:collect="always">
      <stop
         style="stop-color:#0ec38bff;stop-opacity:1;"
         offset="0"
         id="stop1" />
      <stop
         style="stop-color:#4b4fe2ff;stop-opacity:1;"
         offset="0.76340693"
         id="stop2" />
    </linearGradient>
    <linearGradient
       inkscape:collect="always"
       xlink:href="#linearGradient1"
       id="linearGradient2"
       x1="232.4884"
       y1="23.847498"
       x2="23.977745"
       y2="232.35815"
       gradientUnits="userSpaceOnUse" />
  </defs>
  <defs
     id="defs2" />
  <sodipodi:namedview
     id="namedview2"
     pagecolor="#ffffff"
     bordercolor="#000000"
     borderopacity="0.25"
     inkscape:showpageshadow="2"
     inkscape:pageopacity="0.0"
     inkscape:pagecheckerboard="0"
     inkscape:deskcolor="#d1d1d1" />
  <path
     id="line1"
     style="baseline-shift:baseline;display:inline;overflow:visible;vector-effect:none;fill:url(#linearGradient2);stroke-linecap:round;stroke-linejoin:round;enable-background:accumulate;stop-color:#000000;stop-opacity:1;opacity:1;fill-opacity:1"
     d="M 100.27539 32 C 94.940506 32.0032 89.935472 34.681311 86.974609 39.119141 A 8.0008 8.0008 0 0 0 86.974609 39.121094 L 75.71875 56 L 48 56 C 34.839923 56 24 66.839923 24 80 L 24 192 C 24 205.16008 34.839923 216 48 216 L 208 216 C 221.16008 216 232 205.16008 232 192 L 232 80 C 232 66.839923 221.16008 56 208 56 L 180.28125 56 L 169.02539 39.121094 A 8.0008 8.0008 0 0 0 169.02539 39.119141 C 166.06453 34.681358 161.0595 32.003203 155.72461 32 A 8.0008 8.0008 0 0 0 155.7207 32 L 100.2793 32 A 8.0008 8.0008 0 0 0 100.27539 32 z M 100.2832 48 L 100.28516 48 L 155.71484 48 L 155.7168 48 L 169.34375 68.4375 A 8.0008 8.0008 0 0 0 176 72 L 208 72 C 212.51304 72 216 75.486965 216 80 L 216 192 C 216 196.51304 212.51304 200 208 200 L 48 200 C 43.486965 200 40 196.51304 40 192 L 40 80 C 40 75.486965 43.486965 72 48 72 L 80 72 A 8.0008 8.0008 0 0 0 86.65625 68.4375 L 100.2832 48 z M 128 96 A 8 8 0 0 0 120 104 L 120 128 L 96 128 A 8 8 0 0 0 88 136 A 8 8 0 0 0 96 144 L 120 144 L 120 168 A 8 8 0 0 0 128 176 A 8 8 0 0 0 136 168 L 136 144 L 160 144 A 8 8 0 0 0 168 136 A 8 8 0 0 0 160 128 L 136 128 L 136 104 A 8 8 0 0 0 128 96 z " />
</svg>
