<?xml version="1.0" encoding="UTF-8" standalone="no"?>
<svg
   viewBox="0 0 256 256"
   version="1.1"
   id="svg7"
   sodipodi:docname="cash register blue_green.svg"
   xmlns:inkscape="http://www.inkscape.org/namespaces/inkscape"
   xmlns:sodipodi="http://sodipodi.sourceforge.net/DTD/sodipodi-0.dtd"
   xmlns:xlink="http://www.w3.org/1999/xlink"
   xmlns="http://www.w3.org/2000/svg"
   xmlns:svg="http://www.w3.org/2000/svg">
  <defs
     id="defs3">
    <linearGradient
       id="linearGradient1"
       inkscape:collect="always">
      <stop
         style="stop-color:#0ec38bff;stop-opacity:1;"
         offset="0"
         id="stop1" />
      <stop
         style="stop-color:#4b4fe2ff;stop-opacity:1;"
         offset="0.76340693"
         id="stop2" />
    </linearGradient>
    <linearGradient
       inkscape:collect="always"
       xlink:href="#linearGradient1"
       id="linearGradient2"
       x1="232.4884"
       y1="23.847498"
       x2="23.977745"
       y2="232.35815"
       gradientUnits="userSpaceOnUse" />
  </defs>
  <defs
     id="defs7" />
  <sodipodi:namedview
     id="namedview7"
     pagecolor="#ffffff"
     bordercolor="#000000"
     borderopacity="0.25"
     inkscape:showpageshadow="2"
     inkscape:pageopacity="0.0"
     inkscape:pagecheckerboard="0"
     inkscape:deskcolor="#d1d1d1" />
  <path
     id="line1"
     style="baseline-shift:baseline;display:inline;overflow:visible;vector-effect:none;fill:url(#linearGradient2);stroke-linecap:round;stroke-linejoin:round;enable-background:accumulate;stop-color:#000000;stop-opacity:1;opacity:1;fill-opacity:1"
     d="M 80 24 C 71.258201 24 64 31.258201 64 40 L 64 56 L 54.25 56 A 8.0008 8.0008 0 0 0 54.248047 56 C 46.947998 56.0011 40.498777 61.036988 38.728516 68.119141 L 16.238281 158.05859 A 8.0008 8.0008 0 0 0 16.126953 158.66602 A 8 8 0 0 0 16.066406 158.99219 A 8.0008 8.0008 0 0 0 16 160 L 16 192 C 16 200.7418 23.258201 208 32 208 L 224 208 C 232.7418 208 240 200.7418 240 192 L 240 160 A 8.0008 8.0008 0 0 0 239.93359 158.99219 A 8 8 0 0 0 239.87305 158.66602 A 8.0008 8.0008 0 0 0 239.76172 158.05859 L 217.27148 68.119141 C 215.50122 61.036988 209.052 56.001105 201.75195 56 A 8.0008 8.0008 0 0 0 201.75 56 L 136 56 L 136 40 C 136 31.258201 128.7418 24 120 24 L 80 24 z M 80 40 L 120 40 L 120 56 L 80 56 L 80 40 z M 54.251953 72 L 72 72 L 128 72 L 201.74805 72 L 221.75391 152 L 34.248047 152 L 54.251953 72 z M 72 88 A 8 8 0 0 0 64 96 A 8 8 0 0 0 72 104 L 88 104 A 8 8 0 0 0 96 96 A 8 8 0 0 0 88 88 L 72 88 z M 120 88 A 8 8 0 0 0 112 96 A 8 8 0 0 0 120 104 L 136 104 A 8 8 0 0 0 144 96 A 8 8 0 0 0 136 88 L 120 88 z M 168 88 A 8 8 0 0 0 160 96 A 8 8 0 0 0 168 104 L 184 104 A 8 8 0 0 0 192 96 A 8 8 0 0 0 184 88 L 168 88 z M 72 120 A 8 8 0 0 0 64 128 A 8 8 0 0 0 72 136 L 88 136 A 8 8 0 0 0 96 128 A 8 8 0 0 0 88 120 L 72 120 z M 120 120 A 8 8 0 0 0 112 128 A 8 8 0 0 0 120 136 L 136 136 A 8 8 0 0 0 144 128 A 8 8 0 0 0 136 120 L 120 120 z M 168 120 A 8 8 0 0 0 160 128 A 8 8 0 0 0 168 136 L 184 136 A 8 8 0 0 0 192 128 A 8 8 0 0 0 184 120 L 168 120 z M 32 168 L 224 168 L 224 192 L 32 192 L 32 168 z " />
</svg>
