<?xml version="1.0" encoding="UTF-8" standalone="no"?>
<svg
   viewBox="0 0 256 256"
   version="1.1"
   id="svg4"
   sodipodi:docname="cassette tape blue_green.svg"
   xmlns:inkscape="http://www.inkscape.org/namespaces/inkscape"
   xmlns:sodipodi="http://sodipodi.sourceforge.net/DTD/sodipodi-0.dtd"
   xmlns:xlink="http://www.w3.org/1999/xlink"
   xmlns="http://www.w3.org/2000/svg"
   xmlns:svg="http://www.w3.org/2000/svg">
  <defs
     id="defs3">
    <linearGradient
       id="linearGradient1"
       inkscape:collect="always">
      <stop
         style="stop-color:#0ec38bff;stop-opacity:1;"
         offset="0"
         id="stop1" />
      <stop
         style="stop-color:#4b4fe2ff;stop-opacity:1;"
         offset="0.76340693"
         id="stop2" />
    </linearGradient>
    <linearGradient
       inkscape:collect="always"
       xlink:href="#linearGradient1"
       id="linearGradient2"
       x1="232.4884"
       y1="23.847498"
       x2="23.977745"
       y2="232.35815"
       gradientUnits="userSpaceOnUse" />
  </defs>
  <defs
     id="defs4" />
  <sodipodi:namedview
     id="namedview4"
     pagecolor="#ffffff"
     bordercolor="#000000"
     borderopacity="0.25"
     inkscape:showpageshadow="2"
     inkscape:pageopacity="0.0"
     inkscape:pagecheckerboard="0"
     inkscape:deskcolor="#d1d1d1" />
  <path
     id="rect2"
     style="baseline-shift:baseline;display:inline;overflow:visible;vector-effect:none;fill:url(#linearGradient2);stroke-linecap:round;stroke-linejoin:round;enable-background:accumulate;stop-color:#000000;stop-opacity:1;opacity:1;fill-opacity:1"
     d="M 32 48 C 23.274378 48 16 55.274378 16 64 L 16 192 C 16 200.72562 23.274378 208 32 208 L 224 208 C 232.72562 208 240 200.72562 240 192 L 240 64 C 240 55.274378 232.72562 48 224 48 L 32 48 z M 32 64 L 224 64 L 224 192 L 196 192 L 174.40039 163.19922 A 8.0008 8.0008 0 0 0 168 160 L 88 160 A 8.0008 8.0008 0 0 0 81.599609 163.19922 L 60 192 L 32 192 L 32 64 z M 80 80 C 62.421645 80 48 94.421645 48 112 C 48 129.57835 62.421645 144 80 144 L 176 144 C 193.57835 144 208 129.57835 208 112 C 208 94.421645 193.57835 80 176 80 L 80 80 z M 80 96 C 88.931313 96 96 103.06869 96 112 C 96 120.93131 88.931313 128 80 128 C 71.068687 128 64 120.93131 64 112 C 64 103.06869 71.068687 96 80 96 z M 107.67383 96 L 148.32617 96 C 145.57791 100.71612 144 106.18536 144 112 C 144 117.81464 145.57791 123.28388 148.32617 128 L 107.67383 128 C 110.42209 123.28388 112 117.81464 112 112 C 112 106.18536 110.42209 100.71612 107.67383 96 z M 176 96 C 184.93131 96 192 103.06869 192 112 C 192 120.93131 184.93131 128 176 128 C 167.06869 128 160 120.93131 160 112 C 160 103.06869 167.06869 96 176 96 z M 92 176 L 164 176 L 176 192 L 80 192 L 92 176 z " />
</svg>
