<?xml version="1.0" encoding="UTF-8" standalone="no"?>
<svg
   viewBox="0 0 256 256"
   version="1.1"
   id="svg3"
   sodipodi:docname="circles three blue_green.svg"
   xmlns:inkscape="http://www.inkscape.org/namespaces/inkscape"
   xmlns:sodipodi="http://sodipodi.sourceforge.net/DTD/sodipodi-0.dtd"
   xmlns:xlink="http://www.w3.org/1999/xlink"
   xmlns="http://www.w3.org/2000/svg"
   xmlns:svg="http://www.w3.org/2000/svg">
  <defs
     id="defs3">
    <linearGradient
       id="linearGradient1"
       inkscape:collect="always">
      <stop
         style="stop-color:#0ec38bff;stop-opacity:1;"
         offset="0"
         id="stop1" />
      <stop
         style="stop-color:#4b4fe2ff;stop-opacity:1;"
         offset="0.76340693"
         id="stop2" />
    </linearGradient>
    <linearGradient
       inkscape:collect="always"
       xlink:href="#linearGradient1"
       id="linearGradient2"
       x1="232.4884"
       y1="23.847498"
       x2="23.977745"
       y2="232.35815"
       gradientUnits="userSpaceOnUse" />
  </defs>
  <defs
     id="defs1" />
  <sodipodi:namedview
     id="namedview3"
     pagecolor="#ffffff"
     bordercolor="#000000"
     borderopacity="0.25"
     inkscape:showpageshadow="2"
     inkscape:pageopacity="0.0"
     inkscape:pagecheckerboard="0"
     inkscape:deskcolor="#d1d1d1" />
  <path
     id="circle1"
     style="baseline-shift:baseline;display:inline;overflow:visible;vector-effect:none;fill:url(#linearGradient2);stroke-linecap:round;stroke-linejoin:round;enable-background:accumulate;stop-color:#000000;stop-opacity:1;opacity:1;fill-opacity:1"
     d="M 128 32 C 103.79423 32 84 51.794228 84 76 C 84 100.20577 103.79423 120 128 120 C 152.20577 120 172 100.20577 172 76 C 172 51.794228 152.20577 32 128 32 z M 128 48 C 143.55873 48 156 60.44127 156 76 C 156 91.55873 143.55873 104 128 104 C 112.44127 104 100 91.55873 100 76 C 100 60.44127 112.44127 48 128 48 z M 68 128 C 43.794228 128 24 147.79423 24 172 C 24 196.20577 43.794228 216 68 216 C 92.205772 216 112 196.20577 112 172 C 112 147.79423 92.205772 128 68 128 z M 188 128 C 163.79423 128 144 147.79423 144 172 C 144 196.20577 163.79423 216 188 216 C 212.20577 216 232 196.20577 232 172 C 232 147.79423 212.20577 128 188 128 z M 68 144 C 83.55873 144 96 156.44127 96 172 C 96 187.55873 83.55873 200 68 200 C 52.44127 200 40 187.55873 40 172 C 40 156.44127 52.44127 144 68 144 z M 188 144 C 203.55873 144 216 156.44127 216 172 C 216 187.55873 203.55873 200 188 200 C 172.44127 200 160 187.55873 160 172 C 160 156.44127 172.44127 144 188 144 z " />
</svg>
