<?xml version="1.0" encoding="UTF-8" standalone="no"?>
<svg
   viewBox="0 0 256 256"
   version="1.1"
   id="svg5"
   sodipodi:docname="cloud sun blue_green.svg"
   xmlns:inkscape="http://www.inkscape.org/namespaces/inkscape"
   xmlns:sodipodi="http://sodipodi.sourceforge.net/DTD/sodipodi-0.dtd"
   xmlns:xlink="http://www.w3.org/1999/xlink"
   xmlns="http://www.w3.org/2000/svg"
   xmlns:svg="http://www.w3.org/2000/svg">
  <defs
     id="defs3">
    <linearGradient
       id="linearGradient1"
       inkscape:collect="always">
      <stop
         style="stop-color:#0ec38bff;stop-opacity:1;"
         offset="0"
         id="stop1" />
      <stop
         style="stop-color:#4b4fe2ff;stop-opacity:1;"
         offset="0.76340693"
         id="stop2" />
    </linearGradient>
    <linearGradient
       inkscape:collect="always"
       xlink:href="#linearGradient1"
       id="linearGradient2"
       x1="232.4884"
       y1="23.847498"
       x2="23.977745"
       y2="232.35815"
       gradientUnits="userSpaceOnUse" />
  </defs>
  <defs
     id="defs5" />
  <sodipodi:namedview
     id="namedview5"
     pagecolor="#ffffff"
     bordercolor="#000000"
     borderopacity="0.25"
     inkscape:showpageshadow="2"
     inkscape:pageopacity="0.0"
     inkscape:pagecheckerboard="0"
     inkscape:deskcolor="#d1d1d1" />
  <path
     id="line1"
     style="baseline-shift:baseline;display:inline;overflow:visible;vector-effect:none;fill:url(#linearGradient2);stroke-linecap:round;stroke-linejoin:round;enable-background:accumulate;stop-color:#000000;stop-opacity:1;opacity:1;fill-opacity:1"
     d="M 83.154297 25.097656 A 8 8 0 0 0 82.113281 25.210938 A 8 8 0 0 0 75.621094 34.476562 L 78.505859 50.867188 C 74.213518 52.278257 70.018533 54.240391 66.015625 56.783203 C 61.968276 59.354247 58.373616 62.354075 55.248047 65.683594 L 41.619141 56.136719 A 8 8 0 0 0 35.642578 54.810547 A 8 8 0 0 0 30.476562 58.099609 A 8 8 0 0 0 32.441406 69.242188 L 46.101562 78.810547 C 41.922258 87.155406 39.886705 96.428254 40.134766 105.70312 L 23.701172 108.60156 A 8 8 0 0 0 17.210938 117.86914 A 8 8 0 0 0 26.480469 124.35742 L 42.835938 121.47266 C 44.238048 125.79791 46.188279 130.00097 48.703125 133.97656 C 40.559506 141.47256 34.71012 151.62475 32.742188 163.49609 C 27.518639 195.0066 52.051597 223.96935 83.992188 224 A 8.0008 8.0008 0 0 0 84 224 L 164 224 A 8.0008 8.0008 0 0 0 164.00586 224 C 194.34167 223.9759 221.80819 205.88206 233.80469 178.01953 C 245.80117 150.15705 240.06922 117.77101 219.24023 95.716797 C 203.61836 79.176134 181.70926 70.781744 159.70703 72 C 154.34378 72.296962 148.97571 73.16452 143.69141 74.625 C 141.04392 70.333652 137.88112 66.513308 134.32617 63.201172 L 143.83398 49.617188 A 8 8 0 0 0 141.86719 38.476562 A 8 8 0 0 0 135.88867 37.152344 A 8 8 0 0 0 130.72656 40.443359 L 121.17773 54.085938 C 113.01417 50.006985 103.91784 47.929831 94.742188 48.109375 C 94.584141 48.112468 94.425668 48.11666 94.267578 48.121094 L 91.378906 31.703125 A 8 8 0 0 0 83.154297 25.097656 z M 96.900391 63.986328 C 104.46913 64.137319 111.86695 66.448232 118.17969 70.646484 A 8 8 0 0 0 118.93359 71.244141 A 8 8 0 0 0 119.74805 71.744141 C 123.05474 74.181158 126.02239 77.162145 128.50781 80.642578 C 112.05602 89.319244 99.494296 103.71363 92.947266 120.8418 C 82.155685 118.96465 71.391561 120.62979 61.980469 125.05469 C 59.359828 120.84554 57.613428 116.31305 56.705078 111.68164 A 8 8 0 0 0 56.607422 110.91992 A 8 8 0 0 0 56.439453 110.17383 C 54.081661 95.092804 60.514104 79.234276 74.595703 70.289062 C 81.592787 65.844228 89.33165 63.835338 96.900391 63.986328 z M 167.11133 87.957031 C 182.22365 88.753701 196.79616 95.255905 207.60742 106.70312 C 224.08174 124.14652 228.5974 149.65691 219.10938 171.69336 C 209.62211 193.72805 187.99061 207.97858 164 208 L 84.007812 208 L 84 208 C 61.631054 207.9738 44.868919 188.18234 48.527344 166.11328 C 50.236332 155.80399 56.002491 147.43604 63.822266 142.17578 C 63.979364 142.0701 64.138136 141.96644 64.296875 141.86328 C 71.380384 137.25988 80.081276 135.17226 88.955078 136.43945 C 88.593536 138.79372 88.153405 141.1274 88.013672 143.53711 A 8 8 0 0 0 95.537109 151.98633 A 8 8 0 0 0 103.98633 144.46289 C 105.33584 121.19042 119.97065 100.90774 141.47656 92.240234 A 8 8 0 0 0 143.11328 91.708984 A 8 8 0 0 0 143.80664 91.355469 C 149.30841 89.397177 154.96636 88.282124 160.61133 87.966797 C 162.78289 87.845494 164.95242 87.843221 167.11133 87.957031 z " />
</svg>
