<?xml version="1.0" encoding="UTF-8" standalone="no"?>
<svg
   viewBox="0 0 256 256"
   version="1.1"
   id="svg5"
   sodipodi:docname="clover blue_green.svg"
   xmlns:inkscape="http://www.inkscape.org/namespaces/inkscape"
   xmlns:sodipodi="http://sodipodi.sourceforge.net/DTD/sodipodi-0.dtd"
   xmlns:xlink="http://www.w3.org/1999/xlink"
   xmlns="http://www.w3.org/2000/svg"
   xmlns:svg="http://www.w3.org/2000/svg">
  <defs
     id="defs3">
    <linearGradient
       id="linearGradient1"
       inkscape:collect="always">
      <stop
         style="stop-color:#0ec38bff;stop-opacity:1;"
         offset="0"
         id="stop1" />
      <stop
         style="stop-color:#4b4fe2ff;stop-opacity:1;"
         offset="0.76340693"
         id="stop2" />
    </linearGradient>
    <linearGradient
       inkscape:collect="always"
       xlink:href="#linearGradient1"
       id="linearGradient2"
       x1="232.4884"
       y1="23.847498"
       x2="23.977745"
       y2="232.35815"
       gradientUnits="userSpaceOnUse" />
  </defs>
  <defs
     id="defs5" />
  <sodipodi:namedview
     id="namedview5"
     pagecolor="#ffffff"
     bordercolor="#000000"
     borderopacity="0.25"
     inkscape:showpageshadow="2"
     inkscape:pageopacity="0.0"
     inkscape:pagecheckerboard="0"
     inkscape:deskcolor="#d1d1d1" />
  <path
     id="path1"
     style="baseline-shift:baseline;display:inline;overflow:visible;vector-effect:none;fill:url(#linearGradient2);stroke-linecap:round;stroke-linejoin:round;enable-background:accumulate;stop-color:#000000;stop-opacity:1;opacity:1;fill-opacity:1"
     d="M 128 16 C 116.03889 16 106.59036 17.538191 99.021484 20.767578 C 91.452608 23.996966 85.766421 29.249604 82.787109 35.605469 C 76.828486 48.317198 80.945891 62.466599 87.005859 75.394531 C 88.166691 77.870972 89.42845 80.333176 90.759766 82.759766 C 88.333176 81.42845 85.870972 80.166691 83.394531 79.005859 C 75.314574 75.218379 66.758623 72.190393 58.373047 71.90625 C 53.341701 71.735764 48.372367 72.552626 43.605469 74.787109 C 37.249604 77.766421 31.996966 83.452608 28.767578 91.021484 C 25.538191 98.590361 24 108.03889 24 120 C 24 131.96111 25.538191 141.40964 28.767578 148.97852 C 31.996966 156.54739 37.249604 162.23358 43.605469 165.21289 C 56.317198 171.17151 70.466599 167.05411 83.394531 160.99414 C 85.870973 159.83331 88.333176 158.57155 90.759766 157.24023 C 89.428449 159.66682 88.166691 162.12903 87.005859 164.60547 C 80.945891 177.5334 76.828486 191.6828 82.787109 204.39453 C 85.766421 210.7504 91.452608 216.00303 99.021484 219.23242 C 106.59036 222.46181 116.03889 224 128 224 C 139.96111 224 149.40964 222.46181 156.97852 219.23242 C 164.54739 216.00303 170.23358 210.7504 173.21289 204.39453 C 175.52177 199.46893 176.31787 194.32762 176.07422 189.125 C 186.48433 205.31008 195.60663 223.41284 200.23828 241.93945 A 8 8 0 0 0 209.93945 247.76172 A 8 8 0 0 0 215.76172 238.06055 C 208.79821 210.20652 193.63507 184.29677 178.18359 163.43555 C 189.5262 168.01986 201.48915 170.32478 212.39453 165.21289 C 218.7504 162.23358 224.00303 156.54739 227.23242 148.97852 C 230.46181 141.40964 232 131.96111 232 120 C 232 108.03889 230.46181 98.590361 227.23242 91.021484 C 224.00303 83.452608 218.7504 77.766421 212.39453 74.787109 C 207.62763 72.552626 202.6583 71.735764 197.62695 71.90625 C 189.24138 72.190393 180.68543 75.218379 172.60547 79.005859 C 170.12903 80.166691 167.66682 81.428449 165.24023 82.759766 C 166.57155 80.333176 167.83331 77.870973 168.99414 75.394531 C 175.05411 62.466599 179.17151 48.317198 173.21289 35.605469 C 170.23358 29.249604 164.54739 23.996966 156.97852 20.767578 C 149.40964 17.538191 139.96111 16 128 16 z M 128 32 C 138.53889 32 145.96536 33.461809 150.70117 35.482422 C 155.43698 37.503034 157.48517 39.750396 158.72461 42.394531 C 161.20349 47.682802 159.69589 57.533401 154.50586 68.605469 C 147.39058 83.784723 135.19548 99.202079 128 107.73242 C 120.80452 99.202079 108.60942 83.784723 101.49414 68.605469 C 96.304112 57.533401 94.796514 47.682802 97.275391 42.394531 C 98.514829 39.750396 100.56302 37.503034 105.29883 35.482422 C 110.03464 33.461809 117.46111 32 128 32 z M 57.330078 88.119141 C 62.599562 88.267528 69.339424 90.088182 76.605469 93.494141 C 91.784723 100.60942 107.20207 112.80452 115.73242 120 C 107.20207 127.19548 91.784723 139.39058 76.605469 146.50586 C 65.533401 151.69589 55.682802 153.20349 50.394531 150.72461 C 47.750396 149.48517 45.503034 147.43698 43.482422 142.70117 C 41.461809 137.96536 40 130.53889 40 120 C 40 109.46111 41.461809 102.03464 43.482422 97.298828 C 45.503034 92.563017 47.750396 90.514829 50.394531 89.275391 C 51.716599 88.655671 53.324081 88.284364 55.164062 88.158203 C 55.854056 88.110893 56.577295 88.097942 57.330078 88.119141 z M 198.66992 88.119141 C 199.42271 88.097942 200.14594 88.110893 200.83594 88.158203 C 202.67592 88.284364 204.2834 88.655671 205.60547 89.275391 C 208.2496 90.514829 210.49697 92.563017 212.51758 97.298828 C 214.53819 102.03464 216 109.46111 216 120 C 216 130.53889 214.53819 137.96536 212.51758 142.70117 C 210.49697 147.43698 208.2496 149.48517 205.60547 150.72461 C 200.3172 153.20349 190.4666 151.69589 179.39453 146.50586 C 164.21528 139.39058 148.79793 127.19548 140.26758 120 C 148.79793 112.80452 164.21528 100.60942 179.39453 93.494141 C 186.66057 90.088182 193.40043 88.267528 198.66992 88.119141 z M 128 132.26758 C 135.19548 140.79793 147.39058 156.21528 154.50586 171.39453 C 159.69589 182.4666 161.20349 192.3172 158.72461 197.60547 C 157.48517 200.2496 155.43698 202.49697 150.70117 204.51758 C 145.96536 206.53819 138.53889 208 128 208 C 117.46111 208 110.03464 206.53819 105.29883 204.51758 C 100.56302 202.49697 98.514829 200.2496 97.275391 197.60547 C 94.796514 192.3172 96.304112 182.4666 101.49414 171.39453 C 108.60942 156.21528 120.80452 140.79793 128 132.26758 z " />
</svg>
