<?xml version="1.0" encoding="UTF-8" standalone="no"?>
<svg
   viewBox="0 0 256 256"
   version="1.1"
   id="svg5"
   sodipodi:docname="codepen logo blue_green.svg"
   xmlns:inkscape="http://www.inkscape.org/namespaces/inkscape"
   xmlns:sodipodi="http://sodipodi.sourceforge.net/DTD/sodipodi-0.dtd"
   xmlns:xlink="http://www.w3.org/1999/xlink"
   xmlns="http://www.w3.org/2000/svg"
   xmlns:svg="http://www.w3.org/2000/svg">
  <defs
     id="defs3">
    <linearGradient
       id="linearGradient1"
       inkscape:collect="always">
      <stop
         style="stop-color:#0ec38bff;stop-opacity:1;"
         offset="0"
         id="stop1" />
      <stop
         style="stop-color:#4b4fe2ff;stop-opacity:1;"
         offset="0.76340693"
         id="stop2" />
    </linearGradient>
    <linearGradient
       inkscape:collect="always"
       xlink:href="#linearGradient1"
       id="linearGradient2"
       x1="232.4884"
       y1="23.847498"
       x2="23.977745"
       y2="232.35815"
       gradientUnits="userSpaceOnUse" />
  </defs>
  <defs
     id="defs5" />
  <sodipodi:namedview
     id="namedview5"
     pagecolor="#ffffff"
     bordercolor="#000000"
     borderopacity="0.25"
     inkscape:showpageshadow="2"
     inkscape:pageopacity="0.0"
     inkscape:pagecheckerboard="0"
     inkscape:deskcolor="#d1d1d1" />
  <path
     id="line1"
     style="baseline-shift:baseline;display:inline;overflow:visible;vector-effect:none;fill:url(#linearGradient2);stroke-linecap:round;stroke-linejoin:round;enable-background:accumulate;stop-color:#000000;stop-opacity:1;opacity:1;fill-opacity:1"
     d="M 128 32 A 8 8 0 0 0 127.66406 32.021484 A 8.0008 8.0008 0 0 0 127.24805 32.048828 A 8 8 0 0 0 126.5957 32.140625 A 8.0008 8.0008 0 0 0 126.17383 32.220703 A 8 8 0 0 0 125.50977 32.414062 A 8.0008 8.0008 0 0 0 125.15625 32.529297 A 8 8 0 0 0 124.41797 32.863281 A 8.0008 8.0008 0 0 0 124.20703 32.957031 L 124.12695 33 A 8 8 0 0 0 124.11523 33.005859 L 20.294922 88.910156 L 20.207031 88.957031 A 8.0008 8.0008 0 0 0 19.775391 89.228516 A 8 8 0 0 0 19.332031 89.505859 A 8.0008 8.0008 0 0 0 18.916016 89.847656 A 8 8 0 0 0 18.496094 90.199219 A 8.0008 8.0008 0 0 0 18.181641 90.537109 A 8 8 0 0 0 17.757812 91 A 8.0008 8.0008 0 0 0 17.517578 91.34375 A 8 8 0 0 0 17.144531 91.880859 A 8.0008 8.0008 0 0 0 16.931641 92.294922 A 8 8 0 0 0 16.648438 92.849609 A 8.0008 8.0008 0 0 0 16.576172 93.052734 A 8 8 0 0 0 16.074219 94.925781 A 8 8 0 0 0 16 96 L 16 160 A 8 8 0 0 0 16.576172 162.94727 A 8.0008 8.0008 0 0 0 16.648438 163.15039 A 8 8 0 0 0 16.931641 163.70508 A 8.0008 8.0008 0 0 0 17.144531 164.11914 A 8 8 0 0 0 17.517578 164.65625 A 8.0008 8.0008 0 0 0 17.757812 165 A 8 8 0 0 0 18.181641 165.46289 A 8.0008 8.0008 0 0 0 18.496094 165.80078 A 8 8 0 0 0 18.916016 166.15234 A 8.0008 8.0008 0 0 0 19.332031 166.49414 A 8 8 0 0 0 19.775391 166.77148 A 8.0008 8.0008 0 0 0 20.207031 167.04297 L 124.11523 222.99414 A 8 8 0 0 0 124.12695 223 L 124.20703 223.04297 A 8.0008 8.0008 0 0 0 124.41797 223.13672 A 8 8 0 0 0 125.15625 223.4707 A 8.0008 8.0008 0 0 0 125.50977 223.58594 A 8 8 0 0 0 126.17383 223.7793 A 8.0008 8.0008 0 0 0 126.5957 223.85938 A 8 8 0 0 0 127.24805 223.95117 A 8.0008 8.0008 0 0 0 127.66406 223.97852 A 8 8 0 0 0 128 224 A 8 8 0 0 0 128.33594 223.97852 A 8.0008 8.0008 0 0 0 128.75195 223.95117 A 8 8 0 0 0 129.4043 223.85938 A 8.0008 8.0008 0 0 0 129.82617 223.7793 A 8 8 0 0 0 130.49023 223.58594 A 8.0008 8.0008 0 0 0 130.84375 223.4707 A 8 8 0 0 0 131.58203 223.13672 A 8.0008 8.0008 0 0 0 131.79297 223.04297 L 235.79297 167.04297 A 8.0008 8.0008 0 0 0 236.22461 166.77148 A 8 8 0 0 0 236.66797 166.49414 A 8.0008 8.0008 0 0 0 237.08398 166.15234 A 8 8 0 0 0 237.50391 165.80078 A 8.0008 8.0008 0 0 0 237.81836 165.46289 A 8 8 0 0 0 238.24219 165 A 8.0008 8.0008 0 0 0 238.48242 164.65625 A 8 8 0 0 0 238.85547 164.11914 A 8.0008 8.0008 0 0 0 239.06836 163.70508 A 8 8 0 0 0 239.35547 163.14258 A 8.0008 8.0008 0 0 0 239.42383 162.94727 A 8 8 0 0 0 240 160 L 240 96 A 8 8 0 0 0 239.92578 94.925781 A 8 8 0 0 0 239.42383 93.052734 A 8 8 0 0 0 239.35547 92.857422 A 8.0008 8.0008 0 0 0 239.35156 92.849609 A 8 8 0 0 0 239.06836 92.294922 A 8.0008 8.0008 0 0 0 238.85547 91.880859 A 8 8 0 0 0 238.48242 91.34375 A 8.0008 8.0008 0 0 0 238.24219 91 A 8 8 0 0 0 237.81836 90.537109 A 8.0008 8.0008 0 0 0 237.50391 90.199219 A 8 8 0 0 0 237.08398 89.847656 A 8.0008 8.0008 0 0 0 236.66797 89.505859 A 8 8 0 0 0 236.22461 89.228516 A 8.0008 8.0008 0 0 0 235.79297 88.957031 L 235.70508 88.910156 L 131.88477 33.005859 L 131.87305 33 L 131.79297 32.957031 A 8.0008 8.0008 0 0 0 131.58203 32.863281 A 8 8 0 0 0 130.84375 32.529297 A 8.0008 8.0008 0 0 0 130.49023 32.414062 A 8 8 0 0 0 129.82617 32.220703 A 8.0008 8.0008 0 0 0 129.4043 32.140625 A 8 8 0 0 0 128.75195 32.048828 A 8.0008 8.0008 0 0 0 128.33594 32.021484 A 8 8 0 0 0 128 32 z M 120 53.394531 L 120 99.222656 L 83.429688 118.91406 L 40.873047 96 L 120 53.394531 z M 136 53.394531 L 215.12695 96 L 172.57031 118.91406 L 136 99.222656 L 136 53.394531 z M 32 109.39258 L 66.556641 128 L 32 146.60742 L 32 109.39258 z M 224 109.39258 L 224 146.60742 L 189.44336 128 L 224 109.39258 z M 128 113.08594 L 155.69727 128 L 128 142.91406 L 100.30273 128 L 128 113.08594 z M 83.429688 137.08594 L 120 156.77734 L 120 202.60547 L 40.873047 160 L 83.429688 137.08594 z M 172.57031 137.08594 L 215.12695 160 L 136 202.60547 L 136 156.77734 L 172.57031 137.08594 z " />
</svg>
