<?xml version="1.0" encoding="UTF-8" standalone="no"?>
<svg
   viewBox="0 0 256 256"
   version="1.1"
   id="svg2"
   sodipodi:docname="code block blue_green.svg"
   xmlns:inkscape="http://www.inkscape.org/namespaces/inkscape"
   xmlns:sodipodi="http://sodipodi.sourceforge.net/DTD/sodipodi-0.dtd"
   xmlns:xlink="http://www.w3.org/1999/xlink"
   xmlns="http://www.w3.org/2000/svg"
   xmlns:svg="http://www.w3.org/2000/svg">
  <defs
     id="defs3">
    <linearGradient
       id="linearGradient1"
       inkscape:collect="always">
      <stop
         style="stop-color:#0ec38bff;stop-opacity:1;"
         offset="0"
         id="stop1" />
      <stop
         style="stop-color:#4b4fe2ff;stop-opacity:1;"
         offset="0.76340693"
         id="stop2" />
    </linearGradient>
    <linearGradient
       inkscape:collect="always"
       xlink:href="#linearGradient1"
       id="linearGradient2"
       x1="232.4884"
       y1="23.847498"
       x2="23.977745"
       y2="232.35815"
       gradientUnits="userSpaceOnUse" />
  </defs>
  <defs
     id="defs2" />
  <sodipodi:namedview
     id="namedview2"
     pagecolor="#ffffff"
     bordercolor="#000000"
     borderopacity="0.25"
     inkscape:showpageshadow="2"
     inkscape:pageopacity="0.0"
     inkscape:pagecheckerboard="0"
     inkscape:deskcolor="#d1d1d1" />
  <path
     id="polyline1"
     style="baseline-shift:baseline;display:inline;overflow:visible;vector-effect:none;fill:url(#linearGradient2);stroke-linecap:round;stroke-linejoin:round;enable-background:accumulate;stop-color:#000000;stop-opacity:1;opacity:1;fill-opacity:1"
     d="M 64 24 A 8 8 0 0 0 58.34375 26.34375 L 26.34375 58.34375 A 8.0008 8.0008 0 0 0 26.34375 69.65625 L 58.34375 101.65625 A 8 8 0 0 0 69.65625 101.65625 A 8 8 0 0 0 69.65625 90.34375 L 43.3125 64 L 69.65625 37.65625 A 8 8 0 0 0 69.65625 26.34375 A 8 8 0 0 0 64 24 z M 104 24 A 8 8 0 0 0 98.34375 26.34375 A 8 8 0 0 0 98.34375 37.65625 L 124.6875 64 L 98.34375 90.34375 A 8 8 0 0 0 98.34375 101.65625 A 8 8 0 0 0 109.65625 101.65625 L 141.65625 69.65625 A 8.0008 8.0008 0 0 0 141.65625 58.34375 L 109.65625 26.34375 A 8 8 0 0 0 104 24 z M 176 40 A 8 8 0 0 0 168 48 A 8 8 0 0 0 176 56 L 200 56 L 200 200 L 56 200 L 56 136 A 8 8 0 0 0 48 128 A 8 8 0 0 0 40 136 L 40 200 C 40 208.7418 47.258201 216 56 216 L 200 216 C 208.7418 216 216 208.7418 216 200 L 216 56 C 216 47.258201 208.7418 40 200 40 L 176 40 z " />
</svg>
