<?xml version="1.0" encoding="UTF-8" standalone="no"?>
<svg
   viewBox="0 0 256 256"
   version="1.1"
   id="svg4"
   sodipodi:docname="coins blue_green.svg"
   xmlns:inkscape="http://www.inkscape.org/namespaces/inkscape"
   xmlns:sodipodi="http://sodipodi.sourceforge.net/DTD/sodipodi-0.dtd"
   xmlns:xlink="http://www.w3.org/1999/xlink"
   xmlns="http://www.w3.org/2000/svg"
   xmlns:svg="http://www.w3.org/2000/svg">
  <defs
     id="defs3">
    <linearGradient
       id="linearGradient1"
       inkscape:collect="always">
      <stop
         style="stop-color:#0ec38bff;stop-opacity:1;"
         offset="0"
         id="stop1" />
      <stop
         style="stop-color:#4b4fe2ff;stop-opacity:1;"
         offset="0.76340693"
         id="stop2" />
    </linearGradient>
    <linearGradient
       inkscape:collect="always"
       xlink:href="#linearGradient1"
       id="linearGradient2"
       x1="232.4884"
       y1="23.847498"
       x2="23.977745"
       y2="232.35815"
       gradientUnits="userSpaceOnUse" />
  </defs>
  <defs
     id="defs4" />
  <sodipodi:namedview
     id="namedview4"
     pagecolor="#ffffff"
     bordercolor="#000000"
     borderopacity="0.25"
     inkscape:showpageshadow="2"
     inkscape:pageopacity="0.0"
     inkscape:pagecheckerboard="0"
     inkscape:deskcolor="#d1d1d1" />
  <path
     id="ellipse1"
     style="baseline-shift:baseline;display:inline;overflow:visible;vector-effect:none;fill:url(#linearGradient2);stroke-linecap:round;stroke-linejoin:round;enable-background:accumulate;stop-color:#000000;stop-opacity:1;opacity:1;fill-opacity:1"
     d="M 96 40 C 72.935818 40 52.014243 44.108435 36.148438 51.248047 C 28.215535 54.817853 21.501373 59.141041 16.457031 64.507812 C 11.412689 69.874589 8 76.627481 8 84 L 8 124 C 8 131.37241 11.414473 138.1237 16.458984 143.49023 C 21.503496 148.85677 28.217392 153.18008 36.150391 156.75 C 43.237108 159.93909 51.603208 162.26451 60.447266 164.14844 A 8 8 0 0 0 64 165 A 8 8 0 0 0 64.552734 164.96289 C 67.070307 165.42579 69.378635 166.09283 72 166.44336 L 72 172 C 72 179.37241 75.414473 186.1237 80.458984 191.49023 C 85.503496 196.85677 92.217395 201.18008 100.15039 204.75 C 107.60277 208.10364 116.24796 210.72018 125.62891 212.625 A 8 8 0 0 0 126.56055 212.85352 C 136.88982 214.87967 148.14227 216 160 216 C 171.85773 216 183.11018 214.87967 193.43945 212.85352 A 8 8 0 0 0 194.37109 212.625 C 203.75204 210.72018 212.39723 208.10364 219.84961 204.75 C 227.78261 201.18008 234.4965 196.85677 239.54102 191.49023 C 244.58553 186.1237 248 179.37241 248 172 L 248 132 C 248 119.08334 238.29596 109.00798 225.51953 102.05273 C 214.38793 95.992909 200.13468 91.725583 184 89.570312 L 184 84 C 184 76.627481 180.58731 69.874589 175.54297 64.507812 C 170.49863 59.141039 163.78446 54.817853 155.85156 51.248047 C 139.98576 44.108435 119.06418 40 96 40 z M 96 56 C 117.1186 56 136.19666 59.950019 149.28516 65.839844 C 155.82941 68.784756 160.83267 72.21961 163.88477 75.466797 C 166.93686 78.713984 168 81.431393 168 84 C 168 86.568607 166.93686 89.286016 163.88477 92.533203 C 160.83267 95.78039 155.82941 99.215232 149.28516 102.16016 C 136.19666 108.04998 117.1186 112 96 112 C 74.881402 112 55.803344 108.04998 42.714844 102.16016 C 36.170594 99.215232 31.167333 95.78039 28.115234 92.533203 C 25.063136 89.286016 24 86.568607 24 84 C 24 81.431393 25.063136 78.713984 28.115234 75.466797 C 31.167333 72.21961 36.170594 68.784756 42.714844 65.839844 C 55.803344 59.950019 74.881402 56 96 56 z M 184 105.73828 C 197.69768 107.7967 209.50551 111.55247 217.86914 116.10547 C 227.96271 121.60022 232 127.49666 232 132 C 232 134.56759 230.93518 137.28599 227.88281 140.5332 C 224.83045 143.78042 219.82966 147.21507 213.28516 150.16016 C 200.19615 156.05032 181.11701 160 160 160 C 156.17112 160 152.40924 159.87118 148.73828 159.625 C 151.2064 158.73076 153.57985 157.77141 155.84961 156.75 C 163.78261 153.18008 170.4965 148.85677 175.54102 143.49023 C 180.58553 138.1237 184 131.37241 184 124 L 184 105.73828 z M 24 109.96289 C 27.610444 112.49896 31.686675 114.74416 36.148438 116.75195 C 42.104503 119.43219 48.773063 121.68619 56 123.45508 L 56 146.88086 C 51.103971 145.51769 46.640055 143.92653 42.714844 142.16016 C 36.170342 139.21507 31.16955 135.78042 28.117188 132.5332 C 25.064825 129.28599 24 126.56759 24 124 L 24 109.96289 z M 168 109.96289 L 168 124 C 168 126.56759 166.93518 129.28599 163.88281 132.5332 C 160.83045 135.78042 155.82966 139.21507 149.28516 142.16016 C 145.35994 143.92653 140.89603 145.51769 136 146.88086 L 136 123.45508 C 143.22694 121.68619 149.8955 119.43219 155.85156 116.75195 C 160.31332 114.74416 164.38955 112.49896 168 109.96289 z M 72 126.44531 C 79.629543 127.46513 87.675204 128 96 128 C 104.3248 128 112.37046 127.46513 120 126.44531 L 120 150.25 C 112.48912 151.37499 104.40602 152 96 152 C 87.593983 152 79.510883 151.37499 72 150.25 L 72 126.44531 z M 232 157.95898 L 232 172 C 232 174.56759 230.93518 177.28599 227.88281 180.5332 C 224.83045 183.78042 219.82966 187.21507 213.28516 190.16016 C 209.35994 191.92653 204.89603 193.51769 200 194.88086 L 200 171.45312 C 207.22607 169.68397 213.89395 167.4301 219.84961 164.75 C 224.31225 162.74177 228.3891 160.49563 232 157.95898 z M 107.37109 167.66016 C 111.34577 169.09226 115.56803 170.35845 120 171.44336 L 120 194.88086 C 115.10397 193.51769 110.64006 191.92653 106.71484 190.16016 C 100.17034 187.21507 95.16955 183.78042 92.117188 180.5332 C 89.064824 177.28599 88 174.56759 88 172 L 88 167.83398 C 90.634251 167.94471 93.302471 168 96 168 C 99.855032 168 103.64938 167.88479 107.37109 167.66016 z M 136 174.4375 C 143.63074 175.46051 151.67723 176 160 176 C 168.32479 176 176.37044 175.46358 184 174.44336 L 184 198.25 C 176.48912 199.37499 168.40602 200 160 200 C 151.59398 200 143.51088 199.37499 136 198.25 L 136 174.4375 z " />
</svg>
