<?xml version="1.0" encoding="UTF-8" standalone="no"?>
<svg
   viewBox="0 0 256 256"
   version="1.1"
   id="svg4"
   sodipodi:docname="command blue_green.svg"
   xmlns:inkscape="http://www.inkscape.org/namespaces/inkscape"
   xmlns:sodipodi="http://sodipodi.sourceforge.net/DTD/sodipodi-0.dtd"
   xmlns:xlink="http://www.w3.org/1999/xlink"
   xmlns="http://www.w3.org/2000/svg"
   xmlns:svg="http://www.w3.org/2000/svg">
  <defs
     id="defs3">
    <linearGradient
       id="linearGradient1"
       inkscape:collect="always">
      <stop
         style="stop-color:#0ec38bff;stop-opacity:1;"
         offset="0"
         id="stop1" />
      <stop
         style="stop-color:#4b4fe2ff;stop-opacity:1;"
         offset="0.76340693"
         id="stop2" />
    </linearGradient>
    <linearGradient
       inkscape:collect="always"
       xlink:href="#linearGradient1"
       id="linearGradient2"
       x1="232.4884"
       y1="23.847498"
       x2="23.977745"
       y2="232.35815"
       gradientUnits="userSpaceOnUse" />
  </defs>
  <defs
     id="defs4" />
  <sodipodi:namedview
     id="namedview4"
     pagecolor="#ffffff"
     bordercolor="#000000"
     borderopacity="0.25"
     inkscape:showpageshadow="2"
     inkscape:pageopacity="0.0"
     inkscape:pagecheckerboard="0"
     inkscape:deskcolor="#d1d1d1" />
  <path
     id="path1"
     style="baseline-shift:baseline;display:inline;overflow:visible;vector-effect:none;fill:url(#linearGradient2);stroke-linecap:round;stroke-linejoin:round;enable-background:accumulate;stop-color:#000000;stop-opacity:1;opacity:1;fill-opacity:1"
     d="M 76 40 C 56.212506 40 40 56.212506 40 76 C 40 95.787494 56.212506 112 76 112 L 96 112 L 96 144 L 76 144 C 56.212506 144 40 160.21251 40 180 C 40 199.78749 56.212506 216 76 216 C 95.787494 216 112 199.78749 112 180 L 112 160 L 144 160 L 144 180 C 144 199.78749 160.21251 216 180 216 C 199.78749 216 216 199.78749 216 180 C 216 160.21251 199.78749 144 180 144 L 160 144 L 160 112 L 180 112 C 199.78749 112 216 95.787494 216 76 C 216 56.212506 199.78749 40 180 40 C 160.21251 40 144 56.212506 144 76 L 144 96 L 112 96 L 112 76 C 112 56.212506 95.787494 40 76 40 z M 76 56 C 87.140452 56 96 64.859548 96 76 L 96 96 L 76 96 C 64.859548 96 56 87.140452 56 76 C 56 64.859548 64.859548 56 76 56 z M 180 56 C 191.14045 56 200 64.859548 200 76 C 200 87.140452 191.14045 96 180 96 L 160 96 L 160 76 C 160 64.859548 168.85955 56 180 56 z M 112 112 L 144 112 L 144 144 L 112 144 L 112 112 z M 76 160 L 96 160 L 96 180 C 96 191.14045 87.140452 200 76 200 C 64.859548 200 56 191.14045 56 180 C 56 168.85955 64.859548 160 76 160 z M 160 160 L 180 160 C 191.14045 160 200 168.85955 200 180 C 200 191.14045 191.14045 200 180 200 C 168.85955 200 160 191.14045 160 180 L 160 160 z " />
</svg>
