<?xml version="1.0" encoding="UTF-8" standalone="no"?>
<svg
   viewBox="0 0 256 256"
   version="1.1"
   id="svg1"
   sodipodi:docname="currency krw blue_green.svg"
   xmlns:inkscape="http://www.inkscape.org/namespaces/inkscape"
   xmlns:sodipodi="http://sodipodi.sourceforge.net/DTD/sodipodi-0.dtd"
   xmlns:xlink="http://www.w3.org/1999/xlink"
   xmlns="http://www.w3.org/2000/svg"
   xmlns:svg="http://www.w3.org/2000/svg">
  <defs
     id="defs3">
    <linearGradient
       id="linearGradient1"
       inkscape:collect="always">
      <stop
         style="stop-color:#0ec38bff;stop-opacity:1;"
         offset="0"
         id="stop1" />
      <stop
         style="stop-color:#4b4fe2ff;stop-opacity:1;"
         offset="0.76340693"
         id="stop2" />
    </linearGradient>
    <linearGradient
       inkscape:collect="always"
       xlink:href="#linearGradient1"
       id="linearGradient2"
       x1="232.4884"
       y1="23.847498"
       x2="23.977745"
       y2="232.35815"
       gradientUnits="userSpaceOnUse" />
  </defs>
  <defs
     id="defs1" />
  <sodipodi:namedview
     id="namedview1"
     pagecolor="#ffffff"
     bordercolor="#000000"
     borderopacity="0.25"
     inkscape:showpageshadow="2"
     inkscape:pageopacity="0.0"
     inkscape:pagecheckerboard="0"
     inkscape:deskcolor="#d1d1d1" />
  <path
     id="polyline1"
     style="baseline-shift:baseline;display:inline;overflow:visible;vector-effect:none;fill:url(#linearGradient2);stroke-linecap:round;stroke-linejoin:round;enable-background:accumulate;stop-color:#000000;stop-opacity:1;opacity:1;fill-opacity:1"
     d="M 24.054688 64 A 8 8 0 0 0 20.988281 64.587891 A 8 8 0 0 0 16.587891 75.011719 L 38.115234 128 L 16 128 A 8 8 0 0 0 8 136 A 8 8 0 0 0 16 144 L 44.615234 144 L 68.587891 203.01172 A 8.0008 8.0008 0 0 0 83.412109 203.01172 L 107.38672 144 L 148.61328 144 L 172.58789 203.01172 A 8.0008 8.0008 0 0 0 187.41211 203.01172 L 211.38477 144 L 240 144 A 8 8 0 0 0 248 136 A 8 8 0 0 0 240 128 L 217.88477 128 L 239.41211 75.011719 A 8 8 0 0 0 235.01172 64.587891 A 8 8 0 0 0 224.58789 68.988281 L 200.61328 128 L 159.38672 128 L 135.41211 68.988281 A 8.0008 8.0008 0 0 0 120.58789 68.988281 L 96.613281 128 L 55.386719 128 L 31.412109 68.988281 A 8 8 0 0 0 24.054688 64 z M 128 93.257812 L 142.11328 128 L 113.88672 128 L 128 93.257812 z M 61.886719 144 L 90.113281 144 L 76 178.74219 L 61.886719 144 z M 165.88672 144 L 194.11328 144 L 180 178.74219 L 165.88672 144 z " />
</svg>
