<?xml version="1.0" encoding="UTF-8" standalone="no"?>
<svg
   viewBox="0 0 256 256"
   version="1.1"
   id="svg2"
   sodipodi:docname="currency ngn blue_green.svg"
   xmlns:inkscape="http://www.inkscape.org/namespaces/inkscape"
   xmlns:sodipodi="http://sodipodi.sourceforge.net/DTD/sodipodi-0.dtd"
   xmlns:xlink="http://www.w3.org/1999/xlink"
   xmlns="http://www.w3.org/2000/svg"
   xmlns:svg="http://www.w3.org/2000/svg">
  <defs
     id="defs3">
    <linearGradient
       id="linearGradient1"
       inkscape:collect="always">
      <stop
         style="stop-color:#0ec38bff;stop-opacity:1;"
         offset="0"
         id="stop1" />
      <stop
         style="stop-color:#4b4fe2ff;stop-opacity:1;"
         offset="0.76340693"
         id="stop2" />
    </linearGradient>
    <linearGradient
       inkscape:collect="always"
       xlink:href="#linearGradient1"
       id="linearGradient2"
       x1="232.4884"
       y1="23.847498"
       x2="23.977745"
       y2="232.35815"
       gradientUnits="userSpaceOnUse" />
  </defs>
  <defs
     id="defs2" />
  <sodipodi:namedview
     id="namedview2"
     pagecolor="#ffffff"
     bordercolor="#000000"
     borderopacity="0.25"
     inkscape:showpageshadow="2"
     inkscape:pageopacity="0.0"
     inkscape:pagecheckerboard="0"
     inkscape:deskcolor="#d1d1d1" />
  <path
     id="line1"
     style="baseline-shift:baseline;display:inline;overflow:visible;vector-effect:none;fill:url(#linearGradient2);stroke-linecap:round;stroke-linejoin:round;enable-background:accumulate;stop-color:#000000;stop-opacity:1;opacity:1;fill-opacity:1"
     d="M 192 38 A 8 8 0 0 0 184 46 L 184 104 L 119.41602 104 L 70.306641 41.078125 A 8.0008 8.0008 0 0 0 56 46 L 56 104 L 40 104 A 8 8 0 0 0 32 112 A 8 8 0 0 0 40 120 L 56 120 L 56 136 L 40 136 A 8 8 0 0 0 32 144 A 8 8 0 0 0 40 152 L 56 152 L 56 210 A 8 8 0 0 0 64 218 A 8 8 0 0 0 72 210 L 72 152 L 136.58398 152 L 185.69336 214.92188 A 8.0008 8.0008 0 0 0 200 210 L 200 152 L 216 152 A 8 8 0 0 0 224 144 A 8 8 0 0 0 216 136 L 200 136 L 200 120 L 216 120 A 8 8 0 0 0 224 112 A 8 8 0 0 0 216 104 L 200 104 L 200 46 A 8 8 0 0 0 192 38 z M 72 69.251953 L 99.121094 104 L 72 104 L 72 69.251953 z M 72 120 L 111.60742 120 L 124.0957 136 L 72 136 L 72 120 z M 131.9043 120 L 184 120 L 184 136 L 144.39258 136 L 131.9043 120 z M 156.87891 152 L 184 152 L 184 186.74805 L 156.87891 152 z " />
</svg>
