<?xml version="1.0" encoding="UTF-8" standalone="no"?>
<svg
   viewBox="0 0 256 256"
   version="1.1"
   id="svg7"
   sodipodi:docname="desk blue_green.svg"
   xmlns:inkscape="http://www.inkscape.org/namespaces/inkscape"
   xmlns:sodipodi="http://sodipodi.sourceforge.net/DTD/sodipodi-0.dtd"
   xmlns:xlink="http://www.w3.org/1999/xlink"
   xmlns="http://www.w3.org/2000/svg"
   xmlns:svg="http://www.w3.org/2000/svg">
  <defs
     id="defs3">
    <linearGradient
       id="linearGradient1"
       inkscape:collect="always">
      <stop
         style="stop-color:#0ec38bff;stop-opacity:1;"
         offset="0"
         id="stop1" />
      <stop
         style="stop-color:#4b4fe2ff;stop-opacity:1;"
         offset="0.76340693"
         id="stop2" />
    </linearGradient>
    <linearGradient
       inkscape:collect="always"
       xlink:href="#linearGradient1"
       id="linearGradient2"
       x1="232.4884"
       y1="23.847498"
       x2="23.977745"
       y2="232.35815"
       gradientUnits="userSpaceOnUse" />
  </defs>
  <defs
     id="defs7" />
  <sodipodi:namedview
     id="namedview7"
     pagecolor="#ffffff"
     bordercolor="#000000"
     borderopacity="0.25"
     inkscape:showpageshadow="2"
     inkscape:pageopacity="0.0"
     inkscape:pagecheckerboard="0"
     inkscape:deskcolor="#d1d1d1" />
  <path
     id="line1"
     style="baseline-shift:baseline;display:inline;overflow:visible;vector-effect:none;fill:url(#linearGradient2);stroke-linecap:round;stroke-linejoin:round;enable-background:accumulate;stop-color:#000000;stop-opacity:1;opacity:1;fill-opacity:1"
     d="M 8 64 A 8 8 0 0 0 0 72 A 8 8 0 0 0 8 80 L 16 80 L 16 192 A 8 8 0 0 0 24 200 A 8 8 0 0 0 32 192 L 32 144 L 224 144 L 224 192 A 8 8 0 0 0 232 200 A 8 8 0 0 0 240 192 L 240 80 L 248 80 A 8 8 0 0 0 256 72 A 8 8 0 0 0 248 64 L 8 64 z M 32 80 L 120 80 L 120 128 L 32 128 L 32 80 z M 136 80 L 224 80 L 224 128 L 136 128 L 136 80 z M 64 96 A 8 8 0 0 0 56 104 A 8 8 0 0 0 64 112 L 88 112 A 8 8 0 0 0 96 104 A 8 8 0 0 0 88 96 L 64 96 z M 168 96 A 8 8 0 0 0 160 104 A 8 8 0 0 0 168 112 L 192 112 A 8 8 0 0 0 200 104 A 8 8 0 0 0 192 96 L 168 96 z " />
</svg>
