<?xml version="1.0" encoding="UTF-8" standalone="no"?>
<svg
   viewBox="0 0 256 256"
   version="1.1"
   id="svg2"
   sodipodi:docname="detective blue_green.svg"
   xmlns:inkscape="http://www.inkscape.org/namespaces/inkscape"
   xmlns:sodipodi="http://sodipodi.sourceforge.net/DTD/sodipodi-0.dtd"
   xmlns:xlink="http://www.w3.org/1999/xlink"
   xmlns="http://www.w3.org/2000/svg"
   xmlns:svg="http://www.w3.org/2000/svg">
  <defs
     id="defs3">
    <linearGradient
       id="linearGradient1"
       inkscape:collect="always">
      <stop
         style="stop-color:#0ec38bff;stop-opacity:1;"
         offset="0"
         id="stop1" />
      <stop
         style="stop-color:#4b4fe2ff;stop-opacity:1;"
         offset="0.76340693"
         id="stop2" />
    </linearGradient>
    <linearGradient
       inkscape:collect="always"
       xlink:href="#linearGradient1"
       id="linearGradient2"
       x1="232.4884"
       y1="23.847498"
       x2="23.977745"
       y2="232.35815"
       gradientUnits="userSpaceOnUse" />
  </defs>
  <defs
     id="defs2" />
  <sodipodi:namedview
     id="namedview2"
     pagecolor="#ffffff"
     bordercolor="#000000"
     borderopacity="0.25"
     inkscape:showpageshadow="2"
     inkscape:pageopacity="0.0"
     inkscape:pagecheckerboard="0"
     inkscape:deskcolor="#d1d1d1" />
  <path
     id="line1"
     style="baseline-shift:baseline;display:inline;overflow:visible;vector-effect:none;fill:url(#linearGradient2);stroke-linecap:round;stroke-linejoin:round;enable-background:accumulate;stop-color:#000000;stop-opacity:1;opacity:1;fill-opacity:1"
     d="M 95.988281 40.132812 C 91.208153 40.241965 86.475803 42.40036 83.429688 46.572266 A 8.0008 8.0008 0 0 0 83.416016 46.589844 L 35.921875 112 L 8 112 A 8 8 0 0 0 0 120 A 8 8 0 0 0 8 128 L 248 128 A 8 8 0 0 0 256 120 A 8 8 0 0 0 248 112 L 220.07812 112 L 172.58398 46.589844 A 8.0008 8.0008 0 0 0 172.57031 46.572266 C 166.52908 38.298296 153.85344 37.941978 147.33594 45.792969 L 134.41211 60.773438 A 8.0008 8.0008 0 0 0 134.23438 60.988281 C 130.9204 65.110545 125.07961 65.110545 121.76562 60.988281 A 8.0008 8.0008 0 0 0 121.58789 60.773438 L 108.67188 45.800781 C 105.44047 41.902618 100.69184 40.025411 95.988281 40.132812 z M 96.351562 56.007812 A 8.0008 8.0008 0 0 0 96.533203 56.226562 L 109.41211 71.15625 C 118.89448 82.764872 137.06855 82.772189 146.56445 71.181641 L 159.4668 56.226562 A 8.0008 8.0008 0 0 0 159.64844 56.007812 L 200.30469 112 L 55.695312 112 L 96.351562 56.007812 z M 76 144 C 56.212506 144 40 160.21251 40 180 C 40 199.78749 56.212506 216 76 216 C 91.585991 216 104.95354 205.9414 109.92773 192 L 146.07227 192 C 151.04646 205.9414 164.41401 216 180 216 C 199.78749 216 216 199.78749 216 180 C 216 160.21251 199.78749 144 180 144 C 161.56386 144 146.23092 158.07372 144.22266 176 L 111.77734 176 C 109.76908 158.07372 94.436145 144 76 144 z M 76 160 C 87.140452 160 96 168.85955 96 180 C 96 191.14045 87.140452 200 76 200 C 64.859548 200 56 191.14045 56 180 C 56 168.85955 64.859548 160 76 160 z M 180 160 C 191.14045 160 200 168.85955 200 180 C 200 191.14045 191.14045 200 180 200 C 168.85955 200 160 191.14045 160 180 C 160 168.85955 168.85955 160 180 160 z " />
</svg>
