<?xml version="1.0" encoding="UTF-8" standalone="no"?>
<svg
   viewBox="0 0 256 256"
   version="1.1"
   id="svg5"
   sodipodi:docname="dice four blue_green.svg"
   xmlns:inkscape="http://www.inkscape.org/namespaces/inkscape"
   xmlns:sodipodi="http://sodipodi.sourceforge.net/DTD/sodipodi-0.dtd"
   xmlns:xlink="http://www.w3.org/1999/xlink"
   xmlns="http://www.w3.org/2000/svg"
   xmlns:svg="http://www.w3.org/2000/svg">
  <defs
     id="defs3">
    <linearGradient
       id="linearGradient1"
       inkscape:collect="always">
      <stop
         style="stop-color:#0ec38bff;stop-opacity:1;"
         offset="0"
         id="stop1" />
      <stop
         style="stop-color:#4b4fe2ff;stop-opacity:1;"
         offset="0.76340693"
         id="stop2" />
    </linearGradient>
    <linearGradient
       inkscape:collect="always"
       xlink:href="#linearGradient1"
       id="linearGradient2"
       x1="232.4884"
       y1="23.847498"
       x2="23.977745"
       y2="232.35815"
       gradientUnits="userSpaceOnUse" />
  </defs>
  <defs
     id="defs5" />
  <sodipodi:namedview
     id="namedview5"
     pagecolor="#ffffff"
     bordercolor="#000000"
     borderopacity="0.25"
     inkscape:showpageshadow="2"
     inkscape:pageopacity="0.0"
     inkscape:pagecheckerboard="0"
     inkscape:deskcolor="#d1d1d1" />
  <path
     id="rect2"
     style="baseline-shift:baseline;display:inline;overflow:visible;vector-effect:none;fill:url(#linearGradient2);stroke-linecap:round;stroke-linejoin:round;enable-background:accumulate;stop-color:#000000;stop-opacity:1;opacity:1;fill-opacity:1"
     d="M 64 32 C 46.410378 32 32 46.410378 32 64 L 32 192 C 32 209.58962 46.410378 224 64 224 L 192 224 C 209.58962 224 224 209.58962 224 192 L 224 64 C 224 46.410378 209.58962 32 192 32 L 64 32 z M 64 48 L 192 48 C 201.00238 48 208 54.997622 208 64 L 208 192 C 208 201.00238 201.00238 208 192 208 L 64 208 C 54.997622 208 48 201.00238 48 192 L 48 64 C 48 54.997622 54.997622 48 64 48 z M 100 88 A 12 12 0 0 0 88 100 A 12 12 0 0 0 100 112 A 12 12 0 0 0 112 100 A 12 12 0 0 0 100 88 z M 156 88 A 12 12 0 0 0 144 100 A 12 12 0 0 0 156 112 A 12 12 0 0 0 168 100 A 12 12 0 0 0 156 88 z M 100 144 A 12 12 0 0 0 88 156 A 12 12 0 0 0 100 168 A 12 12 0 0 0 112 156 A 12 12 0 0 0 100 144 z M 156 144 A 12 12 0 0 0 144 156 A 12 12 0 0 0 156 168 A 12 12 0 0 0 168 156 A 12 12 0 0 0 156 144 z " />
</svg>
