<?xml version="1.0" encoding="UTF-8" standalone="no"?>
<svg
   viewBox="0 0 256 256"
   version="1.1"
   id="svg1"
   sodipodi:docname="download blue_green.svg"
   xmlns:inkscape="http://www.inkscape.org/namespaces/inkscape"
   xmlns:sodipodi="http://sodipodi.sourceforge.net/DTD/sodipodi-0.dtd"
   xmlns:xlink="http://www.w3.org/1999/xlink"
   xmlns="http://www.w3.org/2000/svg"
   xmlns:svg="http://www.w3.org/2000/svg">
  <defs
     id="defs3">
    <linearGradient
       id="linearGradient1"
       inkscape:collect="always">
      <stop
         style="stop-color:#0ec38bff;stop-opacity:1;"
         offset="0"
         id="stop1" />
      <stop
         style="stop-color:#4b4fe2ff;stop-opacity:1;"
         offset="0.76340693"
         id="stop2" />
    </linearGradient>
    <linearGradient
       inkscape:collect="always"
       xlink:href="#linearGradient1"
       id="linearGradient2"
       x1="232.4884"
       y1="23.847498"
       x2="23.977745"
       y2="232.35815"
       gradientUnits="userSpaceOnUse" />
  </defs>
  <defs
     id="defs1" />
  <sodipodi:namedview
     id="namedview1"
     pagecolor="#ffffff"
     bordercolor="#000000"
     borderopacity="0.25"
     inkscape:showpageshadow="2"
     inkscape:pageopacity="0.0"
     inkscape:pagecheckerboard="0"
     inkscape:deskcolor="#d1d1d1" />
  <path
     id="path1"
     style="baseline-shift:baseline;display:inline;overflow:visible;vector-effect:none;fill:url(#linearGradient2);stroke-linecap:round;stroke-linejoin:round;enable-background:accumulate;stop-color:#000000;stop-opacity:1;opacity:1;fill-opacity:1"
     d="M 128 16 A 8 8 0 0 0 120 24 L 120 108.6875 L 85.65625 74.34375 A 8 8 0 0 0 80 72 A 8 8 0 0 0 74.34375 74.34375 A 8 8 0 0 0 74.34375 85.65625 L 122.34375 133.65625 A 8.0008 8.0008 0 0 0 122.66406 133.9375 A 8 8 0 0 0 123.10352 134.32227 A 8.0008 8.0008 0 0 0 123.52539 134.60938 A 8 8 0 0 0 123.9668 134.9043 A 8.0008 8.0008 0 0 0 124.44531 135.14648 A 8 8 0 0 0 124.92188 135.38281 A 8.0008 8.0008 0 0 0 125.39844 135.54688 A 8 8 0 0 0 125.91406 135.7207 A 8.0008 8.0008 0 0 0 126.29297 135.79883 A 8 8 0 0 0 128 136 A 8 8 0 0 0 129.70703 135.79883 A 8.0008 8.0008 0 0 0 130.08594 135.7207 A 8 8 0 0 0 130.60156 135.54688 A 8.0008 8.0008 0 0 0 131.07812 135.38281 A 8 8 0 0 0 131.55469 135.14648 A 8.0008 8.0008 0 0 0 132.0332 134.9043 A 8 8 0 0 0 132.47461 134.60938 A 8.0008 8.0008 0 0 0 132.89648 134.32227 A 8 8 0 0 0 133.33594 133.9375 A 8.0008 8.0008 0 0 0 133.65625 133.65625 L 181.65625 85.65625 A 8 8 0 0 0 181.65625 74.34375 A 8 8 0 0 0 170.34375 74.34375 L 136 108.6875 L 136 24 A 8 8 0 0 0 128 16 z M 32 120 C 23.258201 120 16 127.2582 16 136 L 16 200 C 16 208.7418 23.258201 216 32 216 L 224 216 C 232.7418 216 240 208.7418 240 200 L 240 136 C 240 127.2582 232.7418 120 224 120 L 184 120 A 8 8 0 0 0 176 128 A 8 8 0 0 0 184 136 L 224 136 L 224 200 L 32 200 L 32 136 L 72 136 A 8 8 0 0 0 80 128 A 8 8 0 0 0 72 120 L 32 120 z M 188 156 A 12 12 0 0 0 176 168 A 12 12 0 0 0 188 180 A 12 12 0 0 0 200 168 A 12 12 0 0 0 188 156 z " />
</svg>
