<?xml version="1.0" encoding="UTF-8" standalone="no"?>
<svg
   viewBox="0 0 256 256"
   version="1.1"
   id="svg2"
   sodipodi:docname="download simple blue_green.svg"
   xmlns:inkscape="http://www.inkscape.org/namespaces/inkscape"
   xmlns:sodipodi="http://sodipodi.sourceforge.net/DTD/sodipodi-0.dtd"
   xmlns:xlink="http://www.w3.org/1999/xlink"
   xmlns="http://www.w3.org/2000/svg"
   xmlns:svg="http://www.w3.org/2000/svg">
  <defs
     id="defs3">
    <linearGradient
       id="linearGradient1"
       inkscape:collect="always">
      <stop
         style="stop-color:#0ec38bff;stop-opacity:1;"
         offset="0"
         id="stop1" />
      <stop
         style="stop-color:#4b4fe2ff;stop-opacity:1;"
         offset="0.76340693"
         id="stop2" />
    </linearGradient>
    <linearGradient
       inkscape:collect="always"
       xlink:href="#linearGradient1"
       id="linearGradient2"
       x1="232.4884"
       y1="23.847498"
       x2="23.977745"
       y2="232.35815"
       gradientUnits="userSpaceOnUse" />
  </defs>
  <defs
     id="defs2" />
  <sodipodi:namedview
     id="namedview2"
     pagecolor="#ffffff"
     bordercolor="#000000"
     borderopacity="0.25"
     inkscape:showpageshadow="2"
     inkscape:pageopacity="0.0"
     inkscape:pagecheckerboard="0"
     inkscape:deskcolor="#d1d1d1" />
  <path
     id="line1"
     style="baseline-shift:baseline;display:inline;overflow:visible;vector-effect:none;fill:url(#linearGradient2);stroke-linecap:round;stroke-linejoin:round;enable-background:accumulate;stop-color:#000000;stop-opacity:1;opacity:1;fill-opacity:1"
     d="M 128 24 A 8 8 0 0 0 120 32 L 120 124.6875 L 93.65625 98.34375 A 8 8 0 0 0 88 96 A 8 8 0 0 0 82.34375 98.34375 A 8 8 0 0 0 82.34375 109.65625 L 122.26172 149.57422 L 122.34375 149.65625 A 8.0008 8.0008 0 0 0 122.66406 149.9375 A 8 8 0 0 0 123.10352 150.32227 A 8.0008 8.0008 0 0 0 123.52539 150.60938 A 8 8 0 0 0 123.9668 150.9043 A 8.0008 8.0008 0 0 0 124.44531 151.14648 A 8 8 0 0 0 124.92188 151.38281 A 8.0008 8.0008 0 0 0 125.39844 151.54688 A 8 8 0 0 0 125.91406 151.7207 A 8.0008 8.0008 0 0 0 126.29297 151.79883 A 8 8 0 0 0 128 152 A 8 8 0 0 0 129.70703 151.79883 A 8.0008 8.0008 0 0 0 130.08594 151.7207 A 8 8 0 0 0 130.60156 151.54688 A 8.0008 8.0008 0 0 0 131.07812 151.38281 A 8 8 0 0 0 131.55469 151.14648 A 8.0008 8.0008 0 0 0 132.0332 150.9043 A 8 8 0 0 0 132.47461 150.60938 A 8.0008 8.0008 0 0 0 132.89648 150.32227 A 8 8 0 0 0 133.33594 149.9375 A 8.0008 8.0008 0 0 0 133.65625 149.65625 L 133.73828 149.57422 L 173.65625 109.65625 A 8 8 0 0 0 173.65625 98.34375 A 8 8 0 0 0 162.34375 98.34375 L 136 124.6875 L 136 32 A 8 8 0 0 0 128 24 z M 40 136 A 8 8 0 0 0 32 144 L 32 208 A 8.0008 8.0008 0 0 0 40 216 L 216 216 A 8.0008 8.0008 0 0 0 224 208 L 224 144 A 8 8 0 0 0 216 136 A 8 8 0 0 0 208 144 L 208 200 L 48 200 L 48 144 A 8 8 0 0 0 40 136 z " />
</svg>
