<?xml version="1.0" encoding="UTF-8" standalone="no"?>
<svg
   viewBox="0 0 256 256"
   version="1.1"
   id="svg3"
   sodipodi:docname="drop half bottom blue_green.svg"
   xmlns:inkscape="http://www.inkscape.org/namespaces/inkscape"
   xmlns:sodipodi="http://sodipodi.sourceforge.net/DTD/sodipodi-0.dtd"
   xmlns:xlink="http://www.w3.org/1999/xlink"
   xmlns="http://www.w3.org/2000/svg"
   xmlns:svg="http://www.w3.org/2000/svg">
  <defs
     id="defs3">
    <linearGradient
       id="linearGradient1"
       inkscape:collect="always">
      <stop
         style="stop-color:#0ec38bff;stop-opacity:1;"
         offset="0"
         id="stop1" />
      <stop
         style="stop-color:#4b4fe2ff;stop-opacity:1;"
         offset="0.76340693"
         id="stop2" />
    </linearGradient>
    <linearGradient
       inkscape:collect="always"
       xlink:href="#linearGradient1"
       id="linearGradient2"
       x1="232.4884"
       y1="23.847498"
       x2="23.977745"
       y2="232.35815"
       gradientUnits="userSpaceOnUse" />
  </defs>
  <defs
     id="defs1" />
  <sodipodi:namedview
     id="namedview3"
     pagecolor="#ffffff"
     bordercolor="#000000"
     borderopacity="0.25"
     inkscape:showpageshadow="2"
     inkscape:pageopacity="0.0"
     inkscape:pagecheckerboard="0"
     inkscape:deskcolor="#d1d1d1" />
  <path
     id="path1"
     style="baseline-shift:baseline;display:inline;overflow:visible;vector-effect:none;fill:url(#linearGradient2);stroke-linecap:round;stroke-linejoin:round;enable-background:accumulate;stop-color:#000000;stop-opacity:1;opacity:1;fill-opacity:1"
     d="M 128 8 A 8.0008 8.0008 0 0 0 123.41211 9.4453125 C 123.41211 9.4453125 53.239773 57.263131 41.75 125.41406 A 8 8 0 0 0 41.326172 127.62305 C 40.530804 132.97578 40 138.41551 40 144 C 40 163.4772 46.366858 181.50209 57.128906 196.09961 A 8 8 0 0 0 58.15625 197.46484 C 74.258075 218.44553 99.582891 232 128 232 C 156.41711 232 181.74192 218.44553 197.84375 197.46484 A 8 8 0 0 0 198.87109 196.09961 C 209.63314 181.50209 216 163.4772 216 144 C 216 138.41551 215.4692 132.97578 214.67383 127.62305 A 8 8 0 0 0 214.25 125.41406 C 202.76023 57.263131 132.58789 9.4453125 132.58789 9.4453125 A 8.0008 8.0008 0 0 0 128 8 z M 128 26.267578 C 138.34808 34.222341 184.37339 71.568621 196.86328 120 L 59.136719 120 C 71.626612 71.568621 117.65192 34.222341 128 26.267578 z M 56.355469 136 L 199.64453 136 C 199.87793 138.64268 200 141.31021 200 144 C 200 146.70475 199.85282 149.37396 199.56445 152 L 56.435547 152 C 56.147185 149.37396 56 146.70475 56 144 C 56 141.31021 56.122073 138.64268 56.355469 136 z M 60.074219 168 L 195.92578 168 C 193.92107 173.69871 191.22142 179.06569 187.92773 184 L 68.072266 184 C 64.77858 179.06569 62.078926 173.69871 60.074219 168 z M 82.664062 200 L 173.33594 200 C 160.97137 210.01203 145.20447 216 128 216 C 110.79553 216 95.028629 210.01203 82.664062 200 z " />
</svg>
