<?xml version="1.0" encoding="UTF-8" standalone="no"?>
<svg
   viewBox="0 0 256 256"
   version="1.1"
   id="svg1"
   sodipodi:docname="empty blue_green.svg"
   xmlns:inkscape="http://www.inkscape.org/namespaces/inkscape"
   xmlns:sodipodi="http://sodipodi.sourceforge.net/DTD/sodipodi-0.dtd"
   xmlns:xlink="http://www.w3.org/1999/xlink"
   xmlns="http://www.w3.org/2000/svg"
   xmlns:svg="http://www.w3.org/2000/svg">
  <defs
     id="defs3">
    <linearGradient
       id="linearGradient1"
       inkscape:collect="always">
      <stop
         style="stop-color:#0ec38bff;stop-opacity:1;"
         offset="0"
         id="stop1" />
      <stop
         style="stop-color:#4b4fe2ff;stop-opacity:1;"
         offset="0.76340693"
         id="stop2" />
    </linearGradient>
    <linearGradient
       inkscape:collect="always"
       xlink:href="#linearGradient1"
       id="linearGradient2"
       x1="232.4884"
       y1="23.847498"
       x2="23.977745"
       y2="232.35815"
       gradientUnits="userSpaceOnUse" />
  </defs>
  <defs
     id="defs1" />
  <sodipodi:namedview
     id="namedview1"
     pagecolor="#ffffff"
     bordercolor="#000000"
     borderopacity="0.25"
     inkscape:showpageshadow="2"
     inkscape:pageopacity="0.0"
     inkscape:pagecheckerboard="0"
     inkscape:deskcolor="#d1d1d1" />
  <path
     id="circle1"
     style="baseline-shift:baseline;display:inline;overflow:visible;vector-effect:none;fill:url(#linearGradient2);stroke-linecap:round;stroke-linejoin:round;enable-background:accumulate;stop-color:#000000;stop-opacity:1;opacity:1;fill-opacity:1"
     d="M 128 32 C 75.075421 32 32 75.075421 32 128 C 32 153.22683 41.786449 176.21609 57.761719 193.36914 L 42.080078 210.61914 A 8 8 0 0 0 42.619141 221.91992 A 8 8 0 0 0 53.919922 221.38086 L 69.595703 204.13672 C 85.788145 216.58828 106.04699 224 128 224 C 180.92458 224 224 180.92458 224 128 C 224 102.77317 214.21355 79.78391 198.23828 62.630859 L 213.91992 45.380859 A 8 8 0 0 0 213.38086 34.080078 A 8 8 0 0 0 207.61914 32.009766 A 8 8 0 0 0 202.08008 34.619141 L 186.4043 51.863281 C 170.21186 39.41172 149.95301 32 128 32 z M 128 48 C 145.87712 48 162.36034 53.823119 175.66016 63.681641 L 68.501953 181.55469 C 55.74866 167.38878 48 148.62228 48 128 C 48 83.722463 83.722463 48 128 48 z M 187.49805 74.445312 C 200.25134 88.611221 208 107.37772 208 128 C 208 172.27754 172.27754 208 128 208 C 110.12288 208 93.639657 202.17688 80.339844 192.31836 L 187.49805 74.445312 z " />
</svg>
