<?xml version="1.0" encoding="UTF-8" standalone="no"?>
<svg
   viewBox="0 0 256 256"
   version="1.1"
   id="svg1"
   sodipodi:docname="envelope simple open blue_green.svg"
   xmlns:inkscape="http://www.inkscape.org/namespaces/inkscape"
   xmlns:sodipodi="http://sodipodi.sourceforge.net/DTD/sodipodi-0.dtd"
   xmlns:xlink="http://www.w3.org/1999/xlink"
   xmlns="http://www.w3.org/2000/svg"
   xmlns:svg="http://www.w3.org/2000/svg">
  <defs
     id="defs3">
    <linearGradient
       id="linearGradient1"
       inkscape:collect="always">
      <stop
         style="stop-color:#0ec38bff;stop-opacity:1;"
         offset="0"
         id="stop1" />
      <stop
         style="stop-color:#4b4fe2ff;stop-opacity:1;"
         offset="0.76340693"
         id="stop2" />
    </linearGradient>
    <linearGradient
       inkscape:collect="always"
       xlink:href="#linearGradient1"
       id="linearGradient2"
       x1="232.4884"
       y1="23.847498"
       x2="23.977745"
       y2="232.35815"
       gradientUnits="userSpaceOnUse" />
  </defs>
  <defs
     id="defs1" />
  <sodipodi:namedview
     id="namedview1"
     pagecolor="#ffffff"
     bordercolor="#000000"
     borderopacity="0.25"
     inkscape:showpageshadow="2"
     inkscape:pageopacity="0.0"
     inkscape:pagecheckerboard="0"
     inkscape:deskcolor="#d1d1d1" />
  <path
     id="path1"
     style="baseline-shift:baseline;display:inline;overflow:visible;vector-effect:none;fill:url(#linearGradient2);stroke-linecap:round;stroke-linejoin:round;enable-background:accumulate;stop-color:#000000;stop-opacity:1;opacity:1;fill-opacity:1"
     d="M 128 24 A 8.0008 8.0008 0 0 0 123.5625 25.34375 L 27.636719 89.294922 L 27.5625 89.34375 A 8.0008 8.0008 0 0 0 27.355469 89.503906 A 8 8 0 0 0 26.753906 89.96875 A 8.0008 8.0008 0 0 0 26.462891 90.246094 A 8 8 0 0 0 25.994141 90.728516 A 8.0008 8.0008 0 0 0 25.736328 91.046875 A 8 8 0 0 0 25.486328 91.355469 A 8 8 0 0 0 25.355469 91.566406 A 8.0008 8.0008 0 0 0 25.099609 91.980469 A 8 8 0 0 0 24.818359 92.505859 A 8.0008 8.0008 0 0 0 24.617188 92.953125 A 8 8 0 0 0 24.412109 93.511719 A 8.0008 8.0008 0 0 0 24.267578 93.992188 A 8 8 0 0 0 24.146484 94.558594 A 8.0008 8.0008 0 0 0 24.066406 95.058594 A 8 8 0 0 0 24.025391 95.642578 A 8.0008 8.0008 0 0 0 24 96 L 24 200 C 24 208.7418 31.258201 216 40 216 L 216 216 C 224.7418 216 232 208.7418 232 200 L 232 96 A 8.0008 8.0008 0 0 0 231.97461 95.642578 A 8 8 0 0 0 231.93359 95.058594 A 8.0008 8.0008 0 0 0 231.85352 94.558594 A 8 8 0 0 0 231.73242 93.992188 A 8.0008 8.0008 0 0 0 231.58789 93.511719 A 8 8 0 0 0 231.38281 92.953125 A 8.0008 8.0008 0 0 0 231.18164 92.505859 A 8 8 0 0 0 230.90039 91.980469 A 8.0008 8.0008 0 0 0 230.64453 91.566406 A 8 8 0 0 0 230.51367 91.355469 A 8 8 0 0 0 230.25586 91.037109 A 8.0008 8.0008 0 0 0 230.01562 90.738281 A 8 8 0 0 0 229.53125 90.242188 A 8.0008 8.0008 0 0 0 229.25195 89.972656 A 8 8 0 0 0 228.59766 89.466797 A 8.0008 8.0008 0 0 0 228.4375 89.34375 L 228.39648 89.316406 L 132.4375 25.34375 A 8.0008 8.0008 0 0 0 128 24 z M 128 41.615234 L 209.91016 96.220703 L 142.90039 144 L 113.10938 144 L 46.089844 96.220703 L 128 41.615234 z M 40 111.52734 L 105.90625 158.51367 A 8.0008 8.0008 0 0 0 110.55078 160 L 145.46094 160 A 8.0008 8.0008 0 0 0 150.10352 158.51367 L 216 111.5293 L 216 200 L 40 200 L 40 111.52734 z " />
</svg>
