<?xml version="1.0" encoding="UTF-8" standalone="no"?>
<svg
   viewBox="0 0 256 256"
   version="1.1"
   id="svg2"
   sodipodi:docname="equals blue_green.svg"
   xmlns:inkscape="http://www.inkscape.org/namespaces/inkscape"
   xmlns:sodipodi="http://sodipodi.sourceforge.net/DTD/sodipodi-0.dtd"
   xmlns:xlink="http://www.w3.org/1999/xlink"
   xmlns="http://www.w3.org/2000/svg"
   xmlns:svg="http://www.w3.org/2000/svg">
  <defs
     id="defs3">
    <linearGradient
       id="linearGradient1"
       inkscape:collect="always">
      <stop
         style="stop-color:#0ec38bff;stop-opacity:1;"
         offset="0"
         id="stop1" />
      <stop
         style="stop-color:#4b4fe2ff;stop-opacity:1;"
         offset="0.76340693"
         id="stop2" />
    </linearGradient>
    <linearGradient
       inkscape:collect="always"
       xlink:href="#linearGradient1"
       id="linearGradient2"
       x1="232.4884"
       y1="23.847498"
       x2="23.977745"
       y2="232.35815"
       gradientUnits="userSpaceOnUse" />
  </defs>
  <defs
     id="defs2" />
  <sodipodi:namedview
     id="namedview2"
     pagecolor="#ffffff"
     bordercolor="#000000"
     borderopacity="0.25"
     inkscape:showpageshadow="2"
     inkscape:pageopacity="0.0"
     inkscape:pagecheckerboard="0"
     inkscape:deskcolor="#d1d1d1" />
  <g
     id="line1"
     style="opacity:1">
    <path
       style="baseline-shift:baseline;display:inline;overflow:visible;vector-effect:none;fill:url(#linearGradient2);stroke-linecap:round;stroke-linejoin:round;enable-background:accumulate;stop-color:#000000;stop-opacity:1;opacity:1;fill-opacity:1"
       d="M 40,160 H 216"
       id="path2" />
    <path
       style="baseline-shift:baseline;display:inline;overflow:visible;vector-effect:none;fill:url(#linearGradient2);stroke-linecap:round;stroke-linejoin:round;enable-background:accumulate;stop-color:#000000;stop-opacity:1;opacity:1;fill-opacity:1"
       d="m 40,152 a 8,8 0 0 0 -8,8 8,8 0 0 0 8,8 h 176 a 8,8 0 0 0 8,-8 8,8 0 0 0 -8,-8 z"
       id="path3" />
  </g>
  <g
     id="line2"
     style="opacity:1">
    <path
       style="baseline-shift:baseline;display:inline;overflow:visible;vector-effect:none;fill:url(#linearGradient2);stroke-linecap:round;stroke-linejoin:round;enable-background:accumulate;stop-color:#000000;stop-opacity:1;opacity:1;fill-opacity:1"
       d="M 40,96 H 216"
       id="path4" />
    <path
       style="baseline-shift:baseline;display:inline;overflow:visible;vector-effect:none;fill:url(#linearGradient2);stroke-linecap:round;stroke-linejoin:round;enable-background:accumulate;stop-color:#000000;stop-opacity:1;opacity:1;fill-opacity:1"
       d="m 40,88 a 8,8 0 0 0 -8,8 8,8 0 0 0 8,8 h 176 a 8,8 0 0 0 8,-8 8,8 0 0 0 -8,-8 z"
       id="path5" />
  </g>
</svg>
