<?xml version="1.0" encoding="UTF-8" standalone="no"?>
<svg
   viewBox="0 0 256 256"
   version="1.1"
   id="svg2"
   sodipodi:docname="eyedropper blue_green.svg"
   xmlns:inkscape="http://www.inkscape.org/namespaces/inkscape"
   xmlns:sodipodi="http://sodipodi.sourceforge.net/DTD/sodipodi-0.dtd"
   xmlns:xlink="http://www.w3.org/1999/xlink"
   xmlns="http://www.w3.org/2000/svg"
   xmlns:svg="http://www.w3.org/2000/svg">
  <defs
     id="defs3">
    <linearGradient
       id="linearGradient1"
       inkscape:collect="always">
      <stop
         style="stop-color:#0ec38bff;stop-opacity:1;"
         offset="0"
         id="stop1" />
      <stop
         style="stop-color:#4b4fe2ff;stop-opacity:1;"
         offset="0.76340693"
         id="stop2" />
    </linearGradient>
    <linearGradient
       inkscape:collect="always"
       xlink:href="#linearGradient1"
       id="linearGradient2"
       x1="232.4884"
       y1="23.847498"
       x2="23.977745"
       y2="232.35815"
       gradientUnits="userSpaceOnUse" />
  </defs>
  <defs
     id="defs2" />
  <sodipodi:namedview
     id="namedview2"
     pagecolor="#ffffff"
     bordercolor="#000000"
     borderopacity="0.25"
     inkscape:showpageshadow="2"
     inkscape:pageopacity="0.0"
     inkscape:pagecheckerboard="0"
     inkscape:deskcolor="#d1d1d1" />
  <path
     id="path1"
     style="baseline-shift:baseline;display:inline;overflow:visible;vector-effect:none;fill:url(#linearGradient2);stroke-linecap:round;stroke-linejoin:round;enable-background:accumulate;stop-color:#000000;stop-opacity:1;opacity:1;fill-opacity:1"
     d="M 187.30273 32.027344 C 178.15731 32.282578 169.07656 35.939064 162.20312 42.8125 A 8.0008 8.0008 0 0 0 162.19141 42.824219 L 142.76367 62.330078 C 133.39826 53.810507 118.7197 53.993085 109.68164 63.033203 L 100.68359 72.033203 A 8.0008 8.0008 0 0 0 100.68164 72.035156 C 94.505042 78.215807 94.505042 88.473646 100.68164 94.654297 A 8.0008 8.0008 0 0 0 100.68164 94.65625 L 102.76562 96.740234 L 51.746094 147.75195 C 41.798811 157.69206 37.952341 172.08419 41.273438 185.58789 L 33.181641 204.13281 C 30.924065 209.29214 32.070384 215.37544 36.052734 219.35742 A 8.0008 8.0008 0 0 0 36.056641 219.35938 C 40.696165 223.99446 47.766855 225.32727 53.775391 222.69922 L 71.369141 215.01172 C 84.632684 217.9328 98.595432 214.00431 108.28711 204.28711 L 108.29688 204.27734 L 159.28125 153.2832 L 161.3418 155.3457 A 8.0008 8.0008 0 0 0 161.3457 155.34961 C 167.52635 161.52621 177.78419 161.52621 183.96484 155.34961 A 8.0008 8.0008 0 0 0 183.9668 155.34766 L 192.9668 146.34766 C 202.01492 137.3016 202.19111 122.60443 193.64844 113.24023 L 213.52734 93.277344 L 213.53516 93.267578 C 227.79273 78.998069 227.45815 55.509137 212.79492 41.654297 A 8.0008 8.0008 0 0 0 212.79102 41.652344 C 205.65769 34.918532 196.44816 31.772109 187.30273 32.027344 z M 187.64844 47.982422 C 192.75802 47.822656 197.87192 49.570922 201.80859 53.287109 C 210.07146 61.09654 210.2521 73.922836 202.21289 81.962891 A 8.0008 8.0008 0 0 0 202.20117 81.974609 L 176.76172 107.52539 A 8.0008 8.0008 0 0 0 176.76758 118.82031 L 181.64648 123.71094 A 8.0008 8.0008 0 0 0 181.6543 123.7168 C 184.84641 126.90818 184.84641 131.84182 181.6543 135.0332 A 8.0008 8.0008 0 0 0 181.65234 135.0332 L 172.6543 144.03125 L 165.50586 136.88086 A 8 8 0 0 0 165.49219 136.86523 A 8 8 0 0 0 164.9668 136.2832 A 8 8 0 0 0 164.37305 135.74414 A 8 8 0 0 0 164.36719 135.74023 L 120.11328 91.464844 A 8 8 0 0 0 119.74805 91.074219 A 8 8 0 0 0 119.36328 90.714844 A 8 8 0 0 0 119.35742 90.708984 L 111.99805 83.345703 L 111.99805 83.34375 L 120.99609 74.347656 A 8.0008 8.0008 0 0 0 120.99805 74.345703 C 124.18943 71.153589 129.12111 71.153589 132.3125 74.345703 A 8.0008 8.0008 0 0 0 132.31836 74.353516 L 137.20898 79.232422 A 8.0008 8.0008 0 0 0 148.52734 79.214844 L 173.51758 54.126953 C 177.43414 50.21039 182.53886 48.142187 187.64844 47.982422 z M 114.07617 108.05664 L 147.96875 141.9668 L 96.972656 192.97461 A 8.0008 8.0008 0 0 0 96.962891 192.98242 C 90.669511 199.29676 81.440102 201.59981 72.917969 198.98242 A 8.0008 8.0008 0 0 0 67.367188 199.29883 L 49.302734 207.19336 L 57.033203 189.48047 A 8.0008 8.0008 0 0 0 57.279297 183.7207 C 54.354914 175.05728 56.586794 165.53158 63.054688 159.06836 A 8.0008 8.0008 0 0 0 63.056641 159.06641 L 114.07617 108.05664 z " />
</svg>
