<?xml version="1.0" encoding="UTF-8" standalone="no"?>
<svg
   viewBox="0 0 256 256"
   version="1.1"
   id="svg3"
   sodipodi:docname="eyes blue_green.svg"
   xmlns:inkscape="http://www.inkscape.org/namespaces/inkscape"
   xmlns:sodipodi="http://sodipodi.sourceforge.net/DTD/sodipodi-0.dtd"
   xmlns:xlink="http://www.w3.org/1999/xlink"
   xmlns="http://www.w3.org/2000/svg"
   xmlns:svg="http://www.w3.org/2000/svg">
  <defs
     id="defs3">
    <linearGradient
       id="linearGradient1"
       inkscape:collect="always">
      <stop
         style="stop-color:#0ec38bff;stop-opacity:1;"
         offset="0"
         id="stop1" />
      <stop
         style="stop-color:#4b4fe2ff;stop-opacity:1;"
         offset="0.76340693"
         id="stop2" />
    </linearGradient>
    <linearGradient
       inkscape:collect="always"
       xlink:href="#linearGradient1"
       id="linearGradient2"
       x1="232.4884"
       y1="23.847498"
       x2="23.977745"
       y2="232.35815"
       gradientUnits="userSpaceOnUse" />
  </defs>
  <defs
     id="defs1" />
  <sodipodi:namedview
     id="namedview3"
     pagecolor="#ffffff"
     bordercolor="#000000"
     borderopacity="0.25"
     inkscape:showpageshadow="2"
     inkscape:pageopacity="0.0"
     inkscape:pagecheckerboard="0"
     inkscape:deskcolor="#d1d1d1" />
  <path
     id="circle1"
     style="baseline-shift:baseline;display:inline;overflow:visible;vector-effect:none;fill:url(#linearGradient2);stroke-linecap:round;stroke-linejoin:round;enable-background:accumulate;stop-color:#000000;stop-opacity:1;opacity:1;fill-opacity:1"
     d="M 80 32 C 62.781938 32 48.540581 44.516748 39.035156 61.943359 C 29.529732 79.369971 24 102.52033 24 128 C 24 153.47967 29.529732 176.63003 39.035156 194.05664 C 48.540581 211.48325 62.781938 224 80 224 C 97.218062 224 111.45942 211.48325 120.96484 194.05664 C 123.63513 189.16111 125.99167 183.81353 128 178.08984 C 130.00833 183.81353 132.36487 189.16111 135.03516 194.05664 C 144.54058 211.48325 158.78194 224 176 224 C 193.21806 224 207.45942 211.48325 216.96484 194.05664 C 226.47027 176.63003 232 153.47967 232 128 C 232 102.52033 226.47027 79.369971 216.96484 61.943359 C 207.45942 44.516748 193.21806 32 176 32 C 158.78194 32 144.54058 44.516748 135.03516 61.943359 C 132.36487 66.838888 130.00833 72.186474 128 77.910156 C 125.99167 72.186474 123.63513 66.838888 120.96484 61.943359 C 111.45942 44.516748 97.218062 32 80 32 z M 80 48 C 89.291606 48 99.050807 55.182345 106.91797 69.605469 C 114.78513 84.028593 120 104.87861 120 128 C 120 151.12139 114.78513 171.97141 106.91797 186.39453 C 99.050807 200.81766 89.291606 208 80 208 C 70.708394 208 60.94919 200.81766 53.082031 186.39453 C 48.716798 178.3916 45.167346 168.41059 42.873047 157.16016 C 46.885121 158.98346 51.331639 160 56 160 C 73.578355 160 88 145.57835 88 128 C 88 110.42165 73.578355 96 56 96 C 51.331639 96 46.885121 97.016536 42.873047 98.839844 C 45.167346 87.589408 48.716798 77.608397 53.082031 69.605469 C 60.94919 55.182345 70.708394 48 80 48 z M 176 48 C 185.29161 48 195.05081 55.182345 202.91797 69.605469 C 210.78513 84.028593 216 104.87861 216 128 C 216 151.12139 210.78513 171.97141 202.91797 186.39453 C 195.05081 200.81766 185.29161 208 176 208 C 166.70839 208 156.94919 200.81766 149.08203 186.39453 C 144.7168 178.3916 141.16735 168.41059 138.87305 157.16016 C 142.88512 158.98347 147.33164 160 152 160 C 169.57835 160 184 145.57835 184 128 C 184 110.42165 169.57835 96 152 96 C 147.33164 96 142.88512 97.016535 138.87305 98.839844 C 141.16735 87.589407 144.7168 77.608398 149.08203 69.605469 C 156.94919 55.182345 166.70839 48 176 48 z M 56 112 C 64.931313 112 72 119.06869 72 128 C 72 136.93131 64.931313 144 56 144 C 47.626894 144 40.891328 137.78811 40.082031 129.65234 C 40.028078 129.10996 40 128.55821 40 128 C 40 127.43519 40.075845 126.9097 40.082031 126.34766 C 40.891328 118.21189 47.626894 112 56 112 z M 152 112 C 160.93131 112 168 119.06869 168 128 C 168 136.93131 160.93131 144 152 144 C 143.06869 144 136 136.93131 136 128 C 136 127.43519 136.07584 126.9097 136.08203 126.34766 C 136.89133 118.21189 143.6269 112 152 112 z " />
</svg>
