<?xml version="1.0" encoding="UTF-8" standalone="no"?>
<svg
   viewBox="0 0 256 256"
   version="1.1"
   id="svg7"
   sodipodi:docname="farm blue_green.svg"
   xmlns:inkscape="http://www.inkscape.org/namespaces/inkscape"
   xmlns:sodipodi="http://sodipodi.sourceforge.net/DTD/sodipodi-0.dtd"
   xmlns:xlink="http://www.w3.org/1999/xlink"
   xmlns="http://www.w3.org/2000/svg"
   xmlns:svg="http://www.w3.org/2000/svg">
  <defs
     id="defs3">
    <linearGradient
       id="linearGradient1"
       inkscape:collect="always">
      <stop
         style="stop-color:#0ec38bff;stop-opacity:1;"
         offset="0"
         id="stop1" />
      <stop
         style="stop-color:#4b4fe2ff;stop-opacity:1;"
         offset="0.76340693"
         id="stop2" />
    </linearGradient>
    <linearGradient
       inkscape:collect="always"
       xlink:href="#linearGradient1"
       id="linearGradient2"
       x1="232.4884"
       y1="23.847498"
       x2="23.977745"
       y2="232.35815"
       gradientUnits="userSpaceOnUse" />
  </defs>
  <defs
     id="defs7" />
  <sodipodi:namedview
     id="namedview7"
     pagecolor="#ffffff"
     bordercolor="#000000"
     borderopacity="0.25"
     inkscape:showpageshadow="2"
     inkscape:pageopacity="0.0"
     inkscape:pagecheckerboard="0"
     inkscape:deskcolor="#d1d1d1" />
  <path
     id="path1"
     style="baseline-shift:baseline;display:inline;overflow:visible;vector-effect:none;fill:url(#linearGradient2);stroke-linecap:round;stroke-linejoin:round;enable-background:accumulate;stop-color:#000000;stop-opacity:1;opacity:1;fill-opacity:1"
     d="M 144 24 A 8.0008 8.0008 0 0 0 139.19922 25.599609 L 75.199219 73.599609 A 8.0008 8.0008 0 0 0 72 80 L 72 116.36133 C 56.293355 113.46688 40.23121 111.98409 23.992188 112 A 8 8 0 0 0 16 120.00781 A 8 8 0 0 0 24.007812 128 C 72.849636 127.95215 119.97506 142.32444 159.89453 168.47852 A 8 8 0 0 0 161.11328 169.28125 C 171.58785 176.23254 181.55896 183.99937 190.92578 192.5332 A 8 8 0 0 0 192.0918 193.60352 C 201.20777 202.01622 209.74223 211.16134 217.59961 220.99414 A 8 8 0 0 0 228.84375 222.25 A 8 8 0 0 0 230.09961 211.00586 C 225.04806 204.6843 219.73302 198.62893 214.17773 192.85156 C 220.09748 192.28207 226.04481 191.99792 231.99805 192 A 8 8 0 0 0 240 184.00195 A 8 8 0 0 0 232.00195 176 C 221.08107 175.99644 210.18124 176.88036 199.4082 178.64258 C 194.23554 174.04015 188.89581 169.65477 183.40234 165.49219 C 199.32116 161.83026 215.62165 159.98338 231.99219 160 A 8 8 0 0 0 240 152.00781 A 8 8 0 0 0 232.00781 144 C 209.71152 143.9774 187.53546 147.17214 166.16406 153.48047 C 160.14695 149.63498 153.97936 146.03903 147.67969 142.69922 C 174.67043 132.94689 203.19968 127.95657 231.98828 128 A 8 8 0 0 0 240 120.01172 A 8 8 0 0 0 232.01172 112 C 226.66362 111.99194 221.32397 112.14626 216 112.46289 L 216 80 A 8.0008 8.0008 0 0 0 212.80078 73.599609 L 148.80078 25.599609 A 8.0008 8.0008 0 0 0 144 24 z M 144 42 L 200 84 L 200 113.90625 C 191.93811 114.8824 183.92957 116.2317 176 117.94727 L 176 96 A 8.0008 8.0008 0 0 0 168 88 L 120 88 A 8.0008 8.0008 0 0 0 112 96 L 112 127.04102 C 104.13265 124.26184 96.123985 121.85235 88 119.82617 L 88 84 L 144 42 z M 128 104 L 160 104 L 160 121.9375 C 149.1235 125.01543 138.43377 128.79713 128 133.26953 L 128 104 z M 23.990234 144 A 8 8 0 0 0 16 152.00977 A 8 8 0 0 0 24.009766 160 C 80.544747 159.9249 134.83403 182.08761 175.16406 221.70703 A 8 8 0 0 0 186.47656 221.60547 A 8 8 0 0 0 186.37695 210.29297 C 143.05385 167.73322 84.720922 143.91931 23.990234 144 z M 23.986328 176 A 8 8 0 0 0 16 184.01367 A 8 8 0 0 0 24.013672 192 C 60.207937 191.9408 95.605132 202.60968 125.73828 222.66016 A 8 8 0 0 0 136.83008 220.43164 A 8 8 0 0 0 134.60156 209.33984 C 101.83638 187.53803 63.342037 175.93567 23.986328 176 z " />
</svg>
