<?xml version="1.0" encoding="UTF-8" standalone="no"?>
<svg
   viewBox="0 0 256 256"
   version="1.1"
   id="svg2"
   sodipodi:docname="file sql blue_green.svg"
   xmlns:inkscape="http://www.inkscape.org/namespaces/inkscape"
   xmlns:sodipodi="http://sodipodi.sourceforge.net/DTD/sodipodi-0.dtd"
   xmlns:xlink="http://www.w3.org/1999/xlink"
   xmlns="http://www.w3.org/2000/svg"
   xmlns:svg="http://www.w3.org/2000/svg">
  <defs
     id="defs3">
    <linearGradient
       id="linearGradient1"
       inkscape:collect="always">
      <stop
         style="stop-color:#0ec38bff;stop-opacity:1;"
         offset="0"
         id="stop1" />
      <stop
         style="stop-color:#4b4fe2ff;stop-opacity:1;"
         offset="0.76340693"
         id="stop2" />
    </linearGradient>
    <linearGradient
       inkscape:collect="always"
       xlink:href="#linearGradient1"
       id="linearGradient2"
       x1="232.4884"
       y1="23.847498"
       x2="23.977745"
       y2="232.35815"
       gradientUnits="userSpaceOnUse" />
  </defs>
  <defs
     id="defs2" />
  <sodipodi:namedview
     id="namedview2"
     pagecolor="#ffffff"
     bordercolor="#000000"
     borderopacity="0.25"
     inkscape:showpageshadow="2"
     inkscape:pageopacity="0.0"
     inkscape:pagecheckerboard="0"
     inkscape:deskcolor="#d1d1d1" />
  <path
     id="polyline1"
     style="baseline-shift:baseline;display:inline;overflow:visible;vector-effect:none;fill:url(#linearGradient2);stroke-linecap:round;stroke-linejoin:round;enable-background:accumulate;stop-color:#000000;stop-opacity:1;opacity:1;fill-opacity:1"
     d="M 56 24 C 47.258201 24 40 31.258201 40 40 L 40 112 A 8 8 0 0 0 48 120 A 8 8 0 0 0 56 112 L 56 40 L 144 40 L 144 88 A 8.0008 8.0008 0 0 0 152 96 L 200 96 L 200 112 A 8 8 0 0 0 208 120 A 8 8 0 0 0 216 112 L 216 88 A 8.0008 8.0008 0 0 0 215.92969 86.949219 A 8 8 0 0 0 215.83203 86.460938 A 8.0008 8.0008 0 0 0 215.7207 85.914062 A 8 8 0 0 0 215.54688 85.398438 A 8.0008 8.0008 0 0 0 215.38281 84.921875 A 8 8 0 0 0 215.14648 84.445312 A 8.0008 8.0008 0 0 0 214.9043 83.966797 A 8 8 0 0 0 214.60938 83.525391 A 8.0008 8.0008 0 0 0 214.32227 83.103516 A 8 8 0 0 0 213.9375 82.664062 A 8.0008 8.0008 0 0 0 213.65625 82.34375 L 157.65625 26.34375 A 8.0008 8.0008 0 0 0 157.33594 26.0625 A 8 8 0 0 0 156.89648 25.677734 A 8.0008 8.0008 0 0 0 156.47461 25.390625 A 8 8 0 0 0 156.0332 25.095703 A 8.0008 8.0008 0 0 0 155.55469 24.853516 A 8 8 0 0 0 155.07812 24.617188 A 8.0008 8.0008 0 0 0 154.60156 24.453125 A 8 8 0 0 0 154.08594 24.279297 A 8.0008 8.0008 0 0 0 153.53906 24.167969 A 8 8 0 0 0 152 24 L 56 24 z M 160 51.314453 L 188.68555 80 L 160 80 L 160 51.314453 z M 136 144 C 117.70106 144 104 160.83015 104 180 C 104 199.16985 117.70106 216 136 216 C 141.8906 216 147.30543 214.25665 151.93945 211.25195 L 154.34375 213.65625 A 8 8 0 0 0 165.65625 213.65625 A 8 8 0 0 0 165.65625 202.34375 L 162.85742 199.54492 C 166.13363 193.83498 168 187.07656 168 180 C 168 160.83015 154.29894 144 136 144 z M 192 144 A 8 8 0 0 0 184 152 L 184 208 A 8.0008 8.0008 0 0 0 192 216 L 220 216 A 8 8 0 0 0 228 208 A 8 8 0 0 0 220 200 L 200 200 L 200 152 A 8 8 0 0 0 192 144 z M 64.46875 144.06836 C 59.832762 144.31216 54.676669 145.17765 49.861328 148.1543 C 45.045988 151.13095 41.02071 156.79406 40.162109 163.59766 C 39.222176 171.04573 43.806702 178.08204 48.832031 181.21484 C 53.85736 184.34765 59.153335 185.60301 63.880859 186.96484 C 68.608384 188.32668 72.718872 189.79341 74.501953 191.03516 C 76.285034 192.2769 76.285412 191.65503 75.945312 194.29883 C 75.593497 197.02515 74.995729 197.48732 73.640625 198.33203 C 72.285071 199.17702 69.68087 199.8747 66.691406 200.01367 C 60.712479 200.29162 54.246094 198.61328 54.246094 198.61328 A 8 8 0 0 0 44.392578 204.17383 A 8 8 0 0 0 49.955078 214.02734 C 49.955078 214.02734 58.141974 216.42814 67.435547 215.99609 C 72.082333 215.78007 77.268757 214.92392 82.103516 211.91016 C 86.938274 208.89639 90.931225 203.19502 91.814453 196.34375 A 8.0008 8.0008 0 0 0 91.814453 196.33984 C 92.799353 188.68364 88.694029 181.42138 83.646484 177.90625 C 78.59894 174.39112 73.153569 172.98551 68.308594 171.58984 C 63.463618 170.19418 59.170218 168.80579 57.294922 167.63672 C 55.419626 166.46765 55.792043 167.54352 56.037109 165.60156 C 56.363509 163.01515 56.906044 162.61015 58.275391 161.76367 C 59.644738 160.9172 62.290832 160.20557 65.308594 160.04688 C 71.344118 159.72949 77.855469 161.33398 77.855469 161.33398 A 8 8 0 0 0 87.634766 155.64453 A 8 8 0 0 0 81.945312 145.86523 C 81.945312 145.86523 73.740726 143.58076 64.46875 144.06836 z M 136 160 C 144.21073 160 152 168.2419 152 180 C 152 182.71737 151.58486 185.24781 150.84375 187.53125 L 149.65625 186.34375 A 8 8 0 0 0 144 184 A 8 8 0 0 0 138.34375 186.34375 A 8 8 0 0 0 138.34375 197.65625 L 140.02539 199.33789 C 138.71762 199.77169 137.36491 200 136 200 C 127.78927 200 120 191.7581 120 180 C 120 168.2419 127.78927 160 136 160 z " />
</svg>
