<?xml version="1.0" encoding="UTF-8" standalone="no"?>
<svg
   viewBox="0 0 256 256"
   version="1.1"
   id="svg3"
   sodipodi:docname="file svg blue_green.svg"
   xmlns:inkscape="http://www.inkscape.org/namespaces/inkscape"
   xmlns:sodipodi="http://sodipodi.sourceforge.net/DTD/sodipodi-0.dtd"
   xmlns:xlink="http://www.w3.org/1999/xlink"
   xmlns="http://www.w3.org/2000/svg"
   xmlns:svg="http://www.w3.org/2000/svg">
  <defs
     id="defs3">
    <linearGradient
       id="linearGradient1"
       inkscape:collect="always">
      <stop
         style="stop-color:#0ec38bff;stop-opacity:1;"
         offset="0"
         id="stop1" />
      <stop
         style="stop-color:#4b4fe2ff;stop-opacity:1;"
         offset="0.76340693"
         id="stop2" />
    </linearGradient>
    <linearGradient
       inkscape:collect="always"
       xlink:href="#linearGradient1"
       id="linearGradient2"
       x1="232.4884"
       y1="23.847498"
       x2="23.977745"
       y2="232.35815"
       gradientUnits="userSpaceOnUse" />
  </defs>
  <defs
     id="defs1" />
  <sodipodi:namedview
     id="namedview3"
     pagecolor="#ffffff"
     bordercolor="#000000"
     borderopacity="0.25"
     inkscape:showpageshadow="2"
     inkscape:pageopacity="0.0"
     inkscape:pagecheckerboard="0"
     inkscape:deskcolor="#d1d1d1" />
  <path
     id="path1"
     style="baseline-shift:baseline;display:inline;overflow:visible;vector-effect:none;fill:url(#linearGradient2);stroke-linecap:round;stroke-linejoin:round;enable-background:accumulate;stop-color:#000000;stop-opacity:1;opacity:1;fill-opacity:1"
     d="M 56 24 C 47.258201 24 40 31.258201 40 40 L 40 112 A 8 8 0 0 0 48 120 A 8 8 0 0 0 56 112 L 56 40 L 144 40 L 144 88 A 8.0008 8.0008 0 0 0 152 96 L 200 96 L 200 112 A 8 8 0 0 0 208 120 A 8 8 0 0 0 216 112 L 216 88 A 8.0008 8.0008 0 0 0 215.92969 86.949219 A 8 8 0 0 0 215.83203 86.460938 A 8.0008 8.0008 0 0 0 215.7207 85.914062 A 8 8 0 0 0 215.54688 85.398438 A 8.0008 8.0008 0 0 0 215.38281 84.921875 A 8 8 0 0 0 215.14648 84.445312 A 8.0008 8.0008 0 0 0 214.9043 83.966797 A 8 8 0 0 0 214.60938 83.525391 A 8.0008 8.0008 0 0 0 214.32227 83.103516 A 8 8 0 0 0 213.9375 82.664062 A 8.0008 8.0008 0 0 0 213.65625 82.34375 L 157.65625 26.34375 A 8.0008 8.0008 0 0 0 157.33594 26.0625 A 8 8 0 0 0 156.89648 25.677734 A 8.0008 8.0008 0 0 0 156.47461 25.390625 A 8 8 0 0 0 156.0332 25.095703 A 8.0008 8.0008 0 0 0 155.55469 24.853516 A 8 8 0 0 0 155.07812 24.617188 A 8.0008 8.0008 0 0 0 154.60156 24.453125 A 8 8 0 0 0 154.08594 24.279297 A 8.0008 8.0008 0 0 0 153.53906 24.167969 A 8 8 0 0 0 152 24 L 56 24 z M 160 51.314453 L 188.68555 80 L 160 80 L 160 51.314453 z M 192 144 C 173.70245 144 160 160.8315 160 180 C 160 199.1685 173.70245 216 192 216 A 8.0008 8.0008 0 0 0 192.09766 216 C 200.38275 215.89967 208.26847 212.38462 213.88281 206.29102 A 8.0008 8.0008 0 0 0 216 200.86914 L 216 184 A 8.0008 8.0008 0 0 0 208 176 L 200 176 A 8 8 0 0 0 192 184 A 8 8 0 0 0 200 192 L 200 197.32227 C 197.67268 199.00533 194.87166 199.94817 191.95312 199.99414 C 183.76805 199.96245 176 191.72887 176 180 C 176 168.25511 183.78895 160.01123 191.98633 160.00195 C 194.65857 160.01205 197.26337 160.8248 199.46484 162.33984 A 8 8 0 0 0 210.58984 160.28516 A 8 8 0 0 0 208.53516 149.16016 C 203.67733 145.81701 197.92045 144.01774 192.02344 144 A 8.0008 8.0008 0 0 0 192 144 z M 104.39648 144.00977 A 8 8 0 0 0 101.30859 144.4668 A 8 8 0 0 0 96.466797 154.69141 L 116.4668 210.69141 A 8.0008 8.0008 0 0 0 131.5332 210.69141 L 151.5332 154.69141 A 8 8 0 0 0 146.69141 144.4668 A 8 8 0 0 0 136.4668 149.30859 L 124 184.21484 L 111.5332 149.30859 A 8 8 0 0 0 104.39648 144.00977 z M 60.46875 144.06836 C 55.832762 144.31216 50.676669 145.17765 45.861328 148.1543 C 41.045988 151.13095 37.02071 156.79406 36.162109 163.59766 C 35.222176 171.04573 39.806702 178.08204 44.832031 181.21484 C 49.85736 184.34765 55.153335 185.60301 59.880859 186.96484 C 64.608384 188.32668 68.718872 189.79341 70.501953 191.03516 C 72.285034 192.2769 72.285412 191.65503 71.945312 194.29883 C 71.593497 197.02515 70.995729 197.48732 69.640625 198.33203 C 68.285071 199.17702 65.68087 199.8747 62.691406 200.01367 C 56.712479 200.29162 50.246094 198.61328 50.246094 198.61328 A 8 8 0 0 0 40.392578 204.17383 A 8 8 0 0 0 45.955078 214.02734 C 45.955078 214.02734 54.141974 216.42814 63.435547 215.99609 C 68.082333 215.78007 73.268757 214.92392 78.103516 211.91016 C 82.938274 208.89639 86.931225 203.19502 87.814453 196.34375 A 8.0008 8.0008 0 0 0 87.814453 196.33984 C 88.799353 188.68364 84.694029 181.42138 79.646484 177.90625 C 74.59894 174.39112 69.153569 172.98551 64.308594 171.58984 C 59.463618 170.19418 55.170218 168.80579 53.294922 167.63672 C 51.419626 166.46765 51.792043 167.54352 52.037109 165.60156 C 52.363509 163.01515 52.906044 162.61015 54.275391 161.76367 C 55.644738 160.9172 58.290832 160.20557 61.308594 160.04688 C 67.344118 159.72949 73.855469 161.33398 73.855469 161.33398 A 8 8 0 0 0 83.634766 155.64453 A 8 8 0 0 0 77.945312 145.86523 C 77.945312 145.86523 69.740726 143.58076 60.46875 144.06836 z " />
</svg>
