<?xml version="1.0" encoding="UTF-8" standalone="no"?>
<svg
   viewBox="0 0 256 256"
   version="1.1"
   id="svg2"
   sodipodi:docname="file md blue_green.svg"
   xmlns:inkscape="http://www.inkscape.org/namespaces/inkscape"
   xmlns:sodipodi="http://sodipodi.sourceforge.net/DTD/sodipodi-0.dtd"
   xmlns:xlink="http://www.w3.org/1999/xlink"
   xmlns="http://www.w3.org/2000/svg"
   xmlns:svg="http://www.w3.org/2000/svg">
  <defs
     id="defs3">
    <linearGradient
       id="linearGradient1"
       inkscape:collect="always">
      <stop
         style="stop-color:#0ec38bff;stop-opacity:1;"
         offset="0"
         id="stop1" />
      <stop
         style="stop-color:#4b4fe2ff;stop-opacity:1;"
         offset="0.76340693"
         id="stop2" />
    </linearGradient>
    <linearGradient
       inkscape:collect="always"
       xlink:href="#linearGradient1"
       id="linearGradient2"
       x1="232.4884"
       y1="23.847498"
       x2="23.977745"
       y2="232.35815"
       gradientUnits="userSpaceOnUse" />
  </defs>
  <defs
     id="defs2" />
  <sodipodi:namedview
     id="namedview2"
     pagecolor="#ffffff"
     bordercolor="#000000"
     borderopacity="0.25"
     inkscape:showpageshadow="2"
     inkscape:pageopacity="0.0"
     inkscape:pagecheckerboard="0"
     inkscape:deskcolor="#d1d1d1" />
  <path
     id="path1"
     style="baseline-shift:baseline;display:inline;overflow:visible;vector-effect:none;fill:url(#linearGradient2);stroke-linecap:round;stroke-linejoin:round;enable-background:accumulate;stop-color:#000000;stop-opacity:1;opacity:1;fill-opacity:1"
     d="M 56 24 C 47.258201 24 40 31.258201 40 40 L 40 112 A 8 8 0 0 0 48 120 A 8 8 0 0 0 56 112 L 56 40 L 144 40 L 144 88 A 8.0008 8.0008 0 0 0 152 96 L 200 96 L 200 224 A 8 8 0 0 0 208 232 A 8 8 0 0 0 216 224 L 216 88 A 8.0008 8.0008 0 0 0 215.92969 86.949219 A 8 8 0 0 0 215.83203 86.460938 A 8.0008 8.0008 0 0 0 215.7207 85.914062 A 8 8 0 0 0 215.54688 85.398438 A 8.0008 8.0008 0 0 0 215.38281 84.921875 A 8 8 0 0 0 215.14648 84.445312 A 8.0008 8.0008 0 0 0 214.9043 83.966797 A 8 8 0 0 0 214.60938 83.525391 A 8.0008 8.0008 0 0 0 214.32227 83.103516 A 8 8 0 0 0 213.9375 82.664062 A 8.0008 8.0008 0 0 0 213.65625 82.34375 L 157.65625 26.34375 A 8.0008 8.0008 0 0 0 157.33594 26.0625 A 8 8 0 0 0 156.89648 25.677734 A 8.0008 8.0008 0 0 0 156.47461 25.390625 A 8 8 0 0 0 156.0332 25.095703 A 8.0008 8.0008 0 0 0 155.55469 24.853516 A 8 8 0 0 0 155.07812 24.617188 A 8.0008 8.0008 0 0 0 154.60156 24.453125 A 8 8 0 0 0 154.08594 24.279297 A 8.0008 8.0008 0 0 0 153.53906 24.167969 A 8 8 0 0 0 152 24 L 56 24 z M 160 51.314453 L 188.68555 80 L 160 80 L 160 51.314453 z M 128 144 A 8.0008 8.0008 0 0 0 120 152 L 120 208 A 8.0008 8.0008 0 0 0 128 216 L 144 216 C 163.7875 216 180 199.78749 180 180 C 180 160.21251 163.7875 144 144 144 L 128 144 z M 96.193359 144.00195 A 8.0008 8.0008 0 0 0 89.445312 147.41211 L 68 178.04883 L 46.554688 147.41211 A 8.0008 8.0008 0 0 0 40.929688 144.05664 A 8.0008 8.0008 0 0 0 32 152 L 32 208 A 8 8 0 0 0 40 216 A 8 8 0 0 0 48 208 L 48 177.38086 L 61.445312 196.58789 A 8.0008 8.0008 0 0 0 74.554688 196.58789 L 88 177.38086 L 88 208 A 8 8 0 0 0 96 216 A 8 8 0 0 0 104 208 L 104 152 A 8.0008 8.0008 0 0 0 96.193359 144.00195 z M 136 160 L 144 160 C 155.14047 160 164 168.85954 164 180 C 164 191.14046 155.14047 200 144 200 L 136 200 L 136 160 z " />
</svg>
