<?xml version="1.0" encoding="UTF-8" standalone="no"?>
<svg
   viewBox="0 0 256 256"
   version="1.1"
   id="svg4"
   sodipodi:docname="file csv blue_green.svg"
   xmlns:inkscape="http://www.inkscape.org/namespaces/inkscape"
   xmlns:sodipodi="http://sodipodi.sourceforge.net/DTD/sodipodi-0.dtd"
   xmlns:xlink="http://www.w3.org/1999/xlink"
   xmlns="http://www.w3.org/2000/svg"
   xmlns:svg="http://www.w3.org/2000/svg">
  <defs
     id="defs3">
    <linearGradient
       id="linearGradient1"
       inkscape:collect="always">
      <stop
         style="stop-color:#0ec38bff;stop-opacity:1;"
         offset="0"
         id="stop1" />
      <stop
         style="stop-color:#4b4fe2ff;stop-opacity:1;"
         offset="0.76340693"
         id="stop2" />
    </linearGradient>
    <linearGradient
       inkscape:collect="always"
       xlink:href="#linearGradient1"
       id="linearGradient2"
       x1="232.4884"
       y1="23.847498"
       x2="23.977745"
       y2="232.35815"
       gradientUnits="userSpaceOnUse" />
  </defs>
  <defs
     id="defs4" />
  <sodipodi:namedview
     id="namedview4"
     pagecolor="#ffffff"
     bordercolor="#000000"
     borderopacity="0.25"
     inkscape:showpageshadow="2"
     inkscape:pageopacity="0.0"
     inkscape:pagecheckerboard="0"
     inkscape:deskcolor="#d1d1d1" />
  <path
     id="path1"
     style="baseline-shift:baseline;display:inline;overflow:visible;vector-effect:none;fill:url(#linearGradient2);stroke-linecap:round;stroke-linejoin:round;enable-background:accumulate;stop-color:#000000;stop-opacity:1;opacity:1;fill-opacity:1"
     d="M 56 24 C 47.258201 24 40 31.258201 40 40 L 40 112 A 8 8 0 0 0 48 120 A 8 8 0 0 0 56 112 L 56 40 L 144 40 L 144 88 A 8.0008 8.0008 0 0 0 152 96 L 200 96 L 200 112 A 8 8 0 0 0 208 120 A 8 8 0 0 0 216 112 L 216 88 A 8.0008 8.0008 0 0 0 215.92969 86.949219 A 8 8 0 0 0 215.83203 86.460938 A 8.0008 8.0008 0 0 0 215.7207 85.914062 A 8 8 0 0 0 215.54688 85.398438 A 8.0008 8.0008 0 0 0 215.38281 84.921875 A 8 8 0 0 0 215.14648 84.445312 A 8.0008 8.0008 0 0 0 214.9043 83.966797 A 8 8 0 0 0 214.60938 83.525391 A 8.0008 8.0008 0 0 0 214.32227 83.103516 A 8 8 0 0 0 213.9375 82.664062 A 8.0008 8.0008 0 0 0 213.65625 82.34375 L 157.65625 26.34375 A 8.0008 8.0008 0 0 0 157.33594 26.0625 A 8 8 0 0 0 156.89648 25.677734 A 8.0008 8.0008 0 0 0 156.47461 25.390625 A 8 8 0 0 0 156.0332 25.095703 A 8.0008 8.0008 0 0 0 155.55469 24.853516 A 8 8 0 0 0 155.07812 24.617188 A 8.0008 8.0008 0 0 0 154.60156 24.453125 A 8 8 0 0 0 154.08594 24.279297 A 8.0008 8.0008 0 0 0 153.53906 24.167969 A 8 8 0 0 0 152 24 L 56 24 z M 160 51.314453 L 188.68555 80 L 160 80 L 160 51.314453 z M 64 144 C 45.696259 144 32 160.83495 32 180 C 32 199.16505 45.696259 216 64 216 A 8.0008 8.0008 0 0 0 64.097656 216 C 72.382752 215.89967 80.26847 212.38462 85.882812 206.29102 A 8 8 0 0 0 85.419922 194.98633 A 8 8 0 0 0 74.117188 195.44922 C 71.493245 198.29715 67.823495 199.93318 63.953125 199.99414 C 55.754352 199.9625 48 191.73235 48 180 C 48 168.26765 55.754356 160.0375 63.953125 160.00586 C 67.823495 160.06686 71.493245 161.70285 74.117188 164.55078 A 8 8 0 0 0 85.419922 165.01367 A 8 8 0 0 0 85.882812 153.70898 C 80.26847 147.61538 72.382752 144.10033 64.097656 144 A 8.0008 8.0008 0 0 0 64 144 z M 168.39648 144.00977 A 8 8 0 0 0 165.30859 144.4668 A 8 8 0 0 0 160.4668 154.69141 L 180.4668 210.69141 A 8.0008 8.0008 0 0 0 195.5332 210.69141 L 215.5332 154.69141 A 8 8 0 0 0 210.69141 144.4668 A 8 8 0 0 0 200.4668 149.30859 L 188 184.21484 L 175.5332 149.30859 A 8 8 0 0 0 168.39648 144.00977 z M 124.46875 144.06836 C 119.83276 144.31216 114.67667 145.17765 109.86133 148.1543 C 105.04599 151.13095 101.02071 156.79406 100.16211 163.59766 C 99.222173 171.04573 103.8067 178.08204 108.83203 181.21484 C 113.85736 184.34765 119.15333 185.60301 123.88086 186.96484 C 128.60838 188.32668 132.71887 189.79341 134.50195 191.03516 C 136.28503 192.2769 136.28541 191.65503 135.94531 194.29883 C 135.59349 197.02515 134.99573 197.48732 133.64062 198.33203 C 132.28508 199.17702 129.68087 199.8747 126.69141 200.01367 C 120.71248 200.29162 114.24609 198.61328 114.24609 198.61328 A 8 8 0 0 0 104.39258 204.17383 A 8 8 0 0 0 109.95508 214.02734 C 109.95508 214.02734 118.14197 216.42814 127.43555 215.99609 C 132.08233 215.78007 137.26876 214.92392 142.10352 211.91016 C 146.93827 208.89639 150.93123 203.19502 151.81445 196.34375 A 8.0008 8.0008 0 0 0 151.81445 196.33984 C 152.79935 188.68364 148.69403 181.42138 143.64648 177.90625 C 138.59894 174.39112 133.15357 172.98551 128.30859 171.58984 C 123.46362 170.19418 119.17022 168.80579 117.29492 167.63672 C 115.41963 166.46765 115.79204 167.54352 116.03711 165.60156 C 116.36351 163.01515 116.90604 162.61015 118.27539 161.76367 C 119.64474 160.9172 122.29083 160.20557 125.30859 160.04688 C 131.34412 159.72949 137.85547 161.33398 137.85547 161.33398 A 8 8 0 0 0 147.63477 155.64453 A 8 8 0 0 0 141.94531 145.86523 C 141.94531 145.86523 133.74073 143.58076 124.46875 144.06836 z " />
</svg>
