<?xml version="1.0" encoding="UTF-8" standalone="no"?>
<svg
   viewBox="0 0 256 256"
   version="1.1"
   id="svg6"
   sodipodi:docname="fingerprint simple blue_green.svg"
   xmlns:inkscape="http://www.inkscape.org/namespaces/inkscape"
   xmlns:sodipodi="http://sodipodi.sourceforge.net/DTD/sodipodi-0.dtd"
   xmlns:xlink="http://www.w3.org/1999/xlink"
   xmlns="http://www.w3.org/2000/svg"
   xmlns:svg="http://www.w3.org/2000/svg">
  <defs
     id="defs3">
    <linearGradient
       id="linearGradient1"
       inkscape:collect="always">
      <stop
         style="stop-color:#0ec38bff;stop-opacity:1;"
         offset="0"
         id="stop1" />
      <stop
         style="stop-color:#4b4fe2ff;stop-opacity:1;"
         offset="0.76340693"
         id="stop2" />
    </linearGradient>
    <linearGradient
       inkscape:collect="always"
       xlink:href="#linearGradient1"
       id="linearGradient2"
       x1="232.4884"
       y1="23.847498"
       x2="23.977745"
       y2="232.35815"
       gradientUnits="userSpaceOnUse" />
  </defs>
  <defs
     id="defs6" />
  <sodipodi:namedview
     id="namedview6"
     pagecolor="#ffffff"
     bordercolor="#000000"
     borderopacity="0.25"
     inkscape:showpageshadow="2"
     inkscape:pageopacity="0.0"
     inkscape:pagecheckerboard="0"
     inkscape:deskcolor="#d1d1d1" />
  <path
     id="path1"
     style="baseline-shift:baseline;display:inline;overflow:visible;vector-effect:none;fill:url(#linearGradient2);stroke-linecap:round;stroke-linejoin:round;enable-background:accumulate;stop-color:#000000;stop-opacity:1;opacity:1;fill-opacity:1"
     d="M 131.17578 24.013672 C 118.76201 23.608156 105.98686 25.458004 93.341797 29.914062 A 8 8 0 0 0 88.455078 40.119141 A 8 8 0 0 0 98.658203 45.005859 C 156.15755 24.743373 215.95647 67.040774 216 128.00586 C 216.0118 148.94174 213.68412 169.8139 209.05859 190.23242 A 8 8 0 0 0 215.0918 199.80273 A 8 8 0 0 0 224.66211 193.76758 C 229.55122 172.18548 232.0126 150.12504 232 127.99609 A 8.0008 8.0008 0 0 0 232 127.99414 C 231.95851 69.896169 184.96881 25.770908 131.17578 24.013672 z M 64.453125 48.462891 A 8 8 0 0 0 58.671875 50.482422 C 36.588879 70.193253 23.970876 98.40757 24 128.00781 A 8.0008 8.0008 0 0 0 24 128.01172 C 24.01853 140.66227 21.298621 153.16599 16.027344 164.66602 A 8 8 0 0 0 19.966797 175.27148 A 8 8 0 0 0 30.572266 171.33398 C 36.80499 157.73634 40.021342 142.95009 40 127.99219 L 40 127.98828 C 39.976476 102.94502 50.64467 79.094439 69.328125 62.417969 A 8 8 0 0 0 69.96875 51.123047 A 8 8 0 0 0 64.453125 48.462891 z M 130.91016 72.080078 C 128.82367 71.970119 126.72683 71.976353 124.62891 72.101562 C 119.03446 72.435457 113.43643 73.614594 108.01953 75.683594 C 86.351936 83.959592 71.998426 104.80567 72 128 A 8.0008 8.0008 0 0 0 72 128.00977 C 72.02709 151.04521 66.177312 173.70545 55.003906 193.84961 A 8 8 0 0 0 58.119141 204.72656 A 8 8 0 0 0 68.996094 201.61133 C 81.489387 179.08735 88.030285 153.7468 88 127.99023 C 88.0029 111.38263 98.213409 96.554939 113.72852 90.628906 C 129.24668 84.7017 146.74313 88.949471 157.81641 101.33203 A 8 8 0 0 0 169.11328 101.96289 A 8 8 0 0 0 169.74414 90.667969 C 159.59766 79.321773 145.51558 72.849791 130.91016 72.080078 z M 127.98828 120 A 8 8 0 0 0 120 128.01172 C 120.0224 143.52837 118.08928 158.98584 114.24805 174.01953 A 8 8 0 0 0 120.01953 183.75195 A 8 8 0 0 0 129.75195 177.98047 C 133.92581 161.64497 136.02438 144.84856 136 127.98828 A 8 8 0 0 0 127.98828 120 z M 175.99023 120 A 8 8 0 0 0 168 128.00977 C 168.0361 158.24453 162.14543 188.19177 150.66016 216.16016 A 8 8 0 0 0 155.02148 226.59961 A 8 8 0 0 0 165.46094 222.23828 C 177.74052 192.33563 184.0386 160.316 184 127.99023 A 8 8 0 0 0 175.99023 120 z M 110.83789 200.00391 A 8 8 0 0 0 107.75781 200.51367 A 8 8 0 0 0 103.29102 204.70117 C 101.38428 208.91505 99.300681 213.04739 97.037109 217.09766 A 8 8 0 0 0 100.11719 227.98438 A 8 8 0 0 0 111.00391 224.90234 C 113.487 220.45928 115.77587 215.92495 117.86914 211.29883 A 8 8 0 0 0 113.87891 200.71094 A 8 8 0 0 0 110.83789 200.00391 z " />
</svg>
