<?xml version="1.0" encoding="UTF-8" standalone="no"?>
<svg
   viewBox="0 0 256 256"
   version="1.1"
   id="svg2"
   sodipodi:docname="fire extinguisher blue_green.svg"
   xmlns:inkscape="http://www.inkscape.org/namespaces/inkscape"
   xmlns:sodipodi="http://sodipodi.sourceforge.net/DTD/sodipodi-0.dtd"
   xmlns:xlink="http://www.w3.org/1999/xlink"
   xmlns="http://www.w3.org/2000/svg"
   xmlns:svg="http://www.w3.org/2000/svg">
  <defs
     id="defs3">
    <linearGradient
       id="linearGradient1"
       inkscape:collect="always">
      <stop
         style="stop-color:#0ec38bff;stop-opacity:1;"
         offset="0"
         id="stop1" />
      <stop
         style="stop-color:#4b4fe2ff;stop-opacity:1;"
         offset="0.76340693"
         id="stop2" />
    </linearGradient>
    <linearGradient
       inkscape:collect="always"
       xlink:href="#linearGradient1"
       id="linearGradient2"
       x1="232.4884"
       y1="23.847498"
       x2="23.977745"
       y2="232.35815"
       gradientUnits="userSpaceOnUse" />
  </defs>
  <defs
     id="defs2" />
  <sodipodi:namedview
     id="namedview2"
     pagecolor="#ffffff"
     bordercolor="#000000"
     borderopacity="0.25"
     inkscape:showpageshadow="2"
     inkscape:pageopacity="0.0"
     inkscape:pagecheckerboard="0"
     inkscape:deskcolor="#d1d1d1" />
  <path
     id="path1"
     style="baseline-shift:baseline;display:inline;overflow:visible;vector-effect:none;fill:url(#linearGradient2);stroke-linecap:round;stroke-linejoin:round;enable-background:accumulate;stop-color:#000000;stop-opacity:1;opacity:1;fill-opacity:1"
     d="M 184.47852 0.013671875 A 8 8 0 0 0 180.42188 0.84375 L 134.0625 24.023438 C 90.864407 25.05679 56 60.55941 56 104 L 56 168 L 56 208 A 8 8 0 0 0 64 216 A 8 8 0 0 0 72 208 L 72 176 L 88 176 L 88 232 C 88 240.7418 95.258201 248 104 248 L 168 248 C 176.7418 248 184 240.7418 184 232 L 184 104 C 184 80.309251 166.63746 60.503076 144 56.669922 L 144 42.751953 L 213.70117 63.662109 A 8 8 0 0 0 223.66211 58.298828 A 8 8 0 0 0 218.29883 48.337891 L 157.62109 30.134766 L 187.57812 15.15625 A 8 8 0 0 0 191.15625 4.421875 A 8 8 0 0 0 186.5293 0.41015625 A 8 8 0 0 0 184.47852 0.013671875 z M 128 40.492188 L 128 56.669922 C 105.36254 60.503076 88 80.309251 88 104 L 88 160 L 72 160 L 72 104 C 72 71.269159 96.358254 44.408888 128 40.492188 z M 136 72 C 153.76787 72 168 86.232131 168 104 L 168 160 L 104 160 L 104 104 C 104 86.232131 118.23213 72 136 72 z M 104 176 L 168 176 L 168 232 L 104 232 L 104 176 z " />
</svg>
