<?xml version="1.0" encoding="UTF-8" standalone="no"?>
<svg
   viewBox="0 0 256 256"
   version="1.1"
   id="svg3"
   sodipodi:docname="first aid kit blue_green.svg"
   xmlns:inkscape="http://www.inkscape.org/namespaces/inkscape"
   xmlns:sodipodi="http://sodipodi.sourceforge.net/DTD/sodipodi-0.dtd"
   xmlns:xlink="http://www.w3.org/1999/xlink"
   xmlns="http://www.w3.org/2000/svg"
   xmlns:svg="http://www.w3.org/2000/svg">
  <defs
     id="defs3">
    <linearGradient
       id="linearGradient1"
       inkscape:collect="always">
      <stop
         style="stop-color:#0ec38bff;stop-opacity:1;"
         offset="0"
         id="stop1" />
      <stop
         style="stop-color:#4b4fe2ff;stop-opacity:1;"
         offset="0.76340693"
         id="stop2" />
    </linearGradient>
    <linearGradient
       inkscape:collect="always"
       xlink:href="#linearGradient1"
       id="linearGradient2"
       x1="232.4884"
       y1="23.847498"
       x2="23.977745"
       y2="232.35815"
       gradientUnits="userSpaceOnUse" />
  </defs>
  <defs
     id="defs1" />
  <sodipodi:namedview
     id="namedview3"
     pagecolor="#ffffff"
     bordercolor="#000000"
     borderopacity="0.25"
     inkscape:showpageshadow="2"
     inkscape:pageopacity="0.0"
     inkscape:pagecheckerboard="0"
     inkscape:deskcolor="#d1d1d1" />
  <path
     id="rect2"
     style="baseline-shift:baseline;display:inline;overflow:visible;vector-effect:none;fill:url(#linearGradient2);stroke-linecap:round;stroke-linejoin:round;enable-background:accumulate;stop-color:#000000;stop-opacity:1;opacity:1;fill-opacity:1"
     d="M 104 24 C 90.839923 24 80 34.839923 80 48 L 80 56 L 40 56 C 31.274378 56 24 63.274378 24 72 L 24 200 C 24 208.72562 31.274378 216 40 216 L 216 216 C 224.72562 216 232 208.72562 232 200 L 232 72 C 232 63.274378 224.72562 56 216 56 L 176 56 L 176 48 C 176 34.839923 165.16008 24 152 24 L 104 24 z M 104 40 L 152 40 C 156.51304 40 160 43.486965 160 48 L 160 56 L 96 56 L 96 48 C 96 43.486965 99.486965 40 104 40 z M 40 72 L 216 72 L 216 200 L 40 200 L 40 72 z M 128 104 A 8 8 0 0 0 120 112 L 120 128 L 104 128 A 8 8 0 0 0 96 136 A 8 8 0 0 0 104 144 L 120 144 L 120 160 A 8 8 0 0 0 128 168 A 8 8 0 0 0 136 160 L 136 144 L 152 144 A 8 8 0 0 0 160 136 A 8 8 0 0 0 152 128 L 136 128 L 136 112 A 8 8 0 0 0 128 104 z " />
</svg>
