<?xml version="1.0" encoding="UTF-8" standalone="no"?>
<svg
   viewBox="0 0 256 256"
   version="1.1"
   id="svg2"
   sodipodi:docname="fish blue_green.svg"
   xmlns:inkscape="http://www.inkscape.org/namespaces/inkscape"
   xmlns:sodipodi="http://sodipodi.sourceforge.net/DTD/sodipodi-0.dtd"
   xmlns:xlink="http://www.w3.org/1999/xlink"
   xmlns="http://www.w3.org/2000/svg"
   xmlns:svg="http://www.w3.org/2000/svg">
  <defs
     id="defs3">
    <linearGradient
       id="linearGradient1"
       inkscape:collect="always">
      <stop
         style="stop-color:#0ec38bff;stop-opacity:1;"
         offset="0"
         id="stop1" />
      <stop
         style="stop-color:#4b4fe2ff;stop-opacity:1;"
         offset="0.76340693"
         id="stop2" />
    </linearGradient>
    <linearGradient
       inkscape:collect="always"
       xlink:href="#linearGradient1"
       id="linearGradient2"
       x1="232.4884"
       y1="23.847498"
       x2="23.977745"
       y2="232.35815"
       gradientUnits="userSpaceOnUse" />
  </defs>
  <defs
     id="defs2" />
  <sodipodi:namedview
     id="namedview2"
     pagecolor="#ffffff"
     bordercolor="#000000"
     borderopacity="0.25"
     inkscape:showpageshadow="2"
     inkscape:pageopacity="0.0"
     inkscape:pagecheckerboard="0"
     inkscape:deskcolor="#d1d1d1" />
  <path
     id="circle1"
     style="baseline-shift:baseline;display:inline;overflow:visible;vector-effect:none;fill:url(#linearGradient2);stroke-linecap:round;stroke-linejoin:round;enable-background:accumulate;stop-color:#000000;stop-opacity:1;opacity:1;fill-opacity:1"
     d="M 183.27344 24.113281 C 170.45121 23.729552 155.51288 24.615582 140.31055 28.431641 C 120.04077 33.519719 99.171601 44.002166 83.328125 63.666016 C 83.0263 64.04062 82.758786 64.470441 82.460938 64.851562 A 8 8 0 0 0 81.421875 66.271484 C 67.379027 84.913049 57.954409 111.0127 56.291016 146.49609 L 4.8515625 168.51562 A 8.0008 8.0008 0 0 0 5.796875 183.56055 L 57.595703 198.39648 L 72.376953 250.19531 A 8.0008 8.0008 0 0 0 87.423828 251.14844 L 109.4707 199.64062 C 145.23108 197.98356 171.55392 188.50261 190.22852 174.29492 A 8 8 0 0 0 191.14844 173.58594 C 191.54909 173.27356 191.94638 172.95935 192.33984 172.64258 C 212.01169 156.80538 222.49703 135.93596 227.58398 115.66602 C 232.67094 95.396062 232.54436 75.594877 231.14844 60.65625 C 230.45047 53.186936 229.42564 46.933435 228.5293 42.427734 C 228.08113 40.174884 227.66566 38.364109 227.32812 37.023438 C 227.15937 36.353102 227.01264 35.806078 226.87305 35.330078 C 226.80325 35.092078 226.73843 34.878263 226.64844 34.613281 C 226.55844 34.348299 226.83716 34.524631 225.875 32.908203 A 8.0008 8.0008 0 0 0 223.00391 30.074219 C 221.47744 29.191868 221.62577 29.433468 221.36523 29.345703 C 221.1047 29.257933 220.89146 29.19225 220.6543 29.123047 C 220.17996 28.984641 219.6336 28.838257 218.96289 28.669922 C 217.62148 28.333252 215.80878 27.920087 213.55469 27.472656 C 209.0465 26.577795 202.79071 25.555516 195.32031 24.859375 C 191.58512 24.511304 187.54751 24.241191 183.27344 24.113281 z M 182.80469 40.117188 C 186.70946 40.229805 190.41145 40.469946 193.83594 40.789062 C 200.68492 41.427296 206.42499 42.369158 210.43945 43.166016 C 211.29157 43.335158 211.71462 43.450119 212.4043 43.601562 C 212.55506 44.286907 212.66961 44.704881 212.83789 45.550781 C 213.63569 49.561135 214.57695 55.297126 215.2168 62.144531 C 216.4965 75.839342 216.53195 93.977688 212.06641 111.77148 C 207.63048 129.44727 198.93604 146.65367 182.63477 159.91211 C 160.41756 161.6082 141.9994 143.10137 144.16406 120.56445 A 8.0008 8.0008 0 0 0 135.43555 111.83594 C 112.8886 113.99946 94.373304 95.56177 96.09375 73.326172 C 109.35304 57.062713 126.54629 48.381889 144.20508 43.949219 C 157.5515 40.599028 171.09038 39.779334 182.80469 40.117188 z M 156 64 A 12 12 0 0 0 144 76 A 12 12 0 0 0 156 88 A 12 12 0 0 0 168 76 A 12 12 0 0 0 156 64 z M 83.367188 94.28125 C 90.407134 112.6882 107.7211 126.28157 128.2168 127.78125 C 129.71303 148.26002 143.28319 165.56184 161.66406 172.61523 C 146.90235 179.13442 128.06055 183.35705 103.88086 183.93164 A 8.0008 8.0008 0 0 0 96.714844 188.78125 L 81.580078 224.13867 L 71.763672 189.73438 A 8.0008 8.0008 0 0 0 66.273438 184.24023 L 31.826172 174.37305 L 67.148438 159.25391 A 8.0008 8.0008 0 0 0 71.998047 152.09375 C 72.585916 127.89548 76.827329 109.04513 83.367188 94.28125 z " />
</svg>
