<?xml version="1.0" encoding="UTF-8" standalone="no"?>
<svg
   viewBox="0 0 256 256"
   version="1.1"
   id="svg2"
   sodipodi:docname="flashlight blue_green.svg"
   xmlns:inkscape="http://www.inkscape.org/namespaces/inkscape"
   xmlns:sodipodi="http://sodipodi.sourceforge.net/DTD/sodipodi-0.dtd"
   xmlns:xlink="http://www.w3.org/1999/xlink"
   xmlns="http://www.w3.org/2000/svg"
   xmlns:svg="http://www.w3.org/2000/svg">
  <defs
     id="defs3">
    <linearGradient
       id="linearGradient1"
       inkscape:collect="always">
      <stop
         style="stop-color:#0ec38bff;stop-opacity:1;"
         offset="0"
         id="stop1" />
      <stop
         style="stop-color:#4b4fe2ff;stop-opacity:1;"
         offset="0.76340693"
         id="stop2" />
    </linearGradient>
    <linearGradient
       inkscape:collect="always"
       xlink:href="#linearGradient1"
       id="linearGradient2"
       x1="232.4884"
       y1="23.847498"
       x2="23.977745"
       y2="232.35815"
       gradientUnits="userSpaceOnUse" />
  </defs>
  <defs
     id="defs2" />
  <sodipodi:namedview
     id="namedview2"
     pagecolor="#ffffff"
     bordercolor="#000000"
     borderopacity="0.25"
     inkscape:showpageshadow="2"
     inkscape:pageopacity="0.0"
     inkscape:pagecheckerboard="0"
     inkscape:deskcolor="#d1d1d1" />
  <path
     id="path1"
     style="baseline-shift:baseline;display:inline;overflow:visible;vector-effect:none;fill:url(#linearGradient2);stroke-linecap:round;stroke-linejoin:round;enable-background:accumulate;stop-color:#000000;stop-opacity:1;opacity:1;fill-opacity:1"
     d="M 72 16 C 63.258201 16 56 23.258201 56 32 L 56 64 L 56 77.330078 C 56 80.790862 57.122748 84.161058 59.199219 86.929688 L 80 114.66992 L 80 224 C 80 232.7418 87.258201 240 96 240 L 160 240 C 168.7418 240 176 232.7418 176 224 L 176 114.66992 L 196.80078 86.929688 C 198.87725 84.161061 200 80.790862 200 77.330078 L 200 64 L 200 32 C 200 23.258201 192.7418 16 184 16 L 72 16 z M 72 32 L 184 32 L 184 56 L 72 56 L 72 32 z M 72 72 L 184 72 L 184 77.330078 L 163.19922 105.07031 C 161.12275 107.83894 160 111.20914 160 114.66992 L 160 224 L 96 224 L 96 114.66992 C 96 111.20914 94.877252 107.83894 92.800781 105.07031 L 72 77.330078 L 72 72 z M 128 112 A 8 8 0 0 0 120 120 L 120 152 A 8 8 0 0 0 128 160 A 8 8 0 0 0 136 152 L 136 120 A 8 8 0 0 0 128 112 z " />
</svg>
