<?xml version="1.0" encoding="UTF-8" standalone="no"?>
<svg
   viewBox="0 0 256 256"
   version="1.1"
   id="svg2"
   sodipodi:docname="folder simple plus blue_green.svg"
   xmlns:inkscape="http://www.inkscape.org/namespaces/inkscape"
   xmlns:sodipodi="http://sodipodi.sourceforge.net/DTD/sodipodi-0.dtd"
   xmlns:xlink="http://www.w3.org/1999/xlink"
   xmlns="http://www.w3.org/2000/svg"
   xmlns:svg="http://www.w3.org/2000/svg">
  <defs
     id="defs3">
    <linearGradient
       id="linearGradient1"
       inkscape:collect="always">
      <stop
         style="stop-color:#0ec38bff;stop-opacity:1;"
         offset="0"
         id="stop1" />
      <stop
         style="stop-color:#4b4fe2ff;stop-opacity:1;"
         offset="0.76340693"
         id="stop2" />
    </linearGradient>
    <linearGradient
       inkscape:collect="always"
       xlink:href="#linearGradient1"
       id="linearGradient2"
       x1="232.4884"
       y1="23.847498"
       x2="23.977745"
       y2="232.35815"
       gradientUnits="userSpaceOnUse" />
  </defs>
  <defs
     id="defs2" />
  <sodipodi:namedview
     id="namedview2"
     pagecolor="#ffffff"
     bordercolor="#000000"
     borderopacity="0.25"
     inkscape:showpageshadow="2"
     inkscape:pageopacity="0.0"
     inkscape:pagecheckerboard="0"
     inkscape:deskcolor="#d1d1d1" />
  <path
     id="path1"
     style="baseline-shift:baseline;display:inline;overflow:visible;vector-effect:none;fill:url(#linearGradient2);stroke-linecap:round;stroke-linejoin:round;enable-background:accumulate;stop-color:#000000;stop-opacity:1;opacity:1;fill-opacity:1"
     d="M 40 48 C 31.258201 48 24 55.258201 24 64 L 24 200 C 24 208.7418 31.258201 216 40 216 L 216.89062 216 C 225.1409 216 232 209.1409 232 200.89062 L 232 88 C 232 79.258201 224.7418 72 216 72 L 130.66602 72 L 102.92969 51.199219 C 100.16106 49.122748 96.790862 48 93.330078 48 L 40 48 z M 40 64 L 93.330078 64 L 123.20117 86.400391 A 8.0008 8.0008 0 0 0 128 88 L 216 88 L 216 200 L 40 200 L 40 64 z M 128 112 A 8 8 0 0 0 120 120 L 120 136 L 104 136 A 8 8 0 0 0 96 144 A 8 8 0 0 0 104 152 L 120 152 L 120 168 A 8 8 0 0 0 128 176 A 8 8 0 0 0 136 168 L 136 152 L 152 152 A 8 8 0 0 0 160 144 A 8 8 0 0 0 152 136 L 136 136 L 136 120 A 8 8 0 0 0 128 112 z " />
</svg>
