<?xml version="1.0" encoding="UTF-8" standalone="no"?>
<svg
   viewBox="0 0 256 256"
   version="1.1"
   id="svg2"
   sodipodi:docname="football helmet blue_green.svg"
   xmlns:inkscape="http://www.inkscape.org/namespaces/inkscape"
   xmlns:sodipodi="http://sodipodi.sourceforge.net/DTD/sodipodi-0.dtd"
   xmlns:xlink="http://www.w3.org/1999/xlink"
   xmlns="http://www.w3.org/2000/svg"
   xmlns:svg="http://www.w3.org/2000/svg">
  <defs
     id="defs3">
    <linearGradient
       id="linearGradient1"
       inkscape:collect="always">
      <stop
         style="stop-color:#0ec38bff;stop-opacity:1;"
         offset="0"
         id="stop1" />
      <stop
         style="stop-color:#4b4fe2ff;stop-opacity:1;"
         offset="0.76340693"
         id="stop2" />
    </linearGradient>
    <linearGradient
       inkscape:collect="always"
       xlink:href="#linearGradient1"
       id="linearGradient2"
       x1="232.4884"
       y1="23.847498"
       x2="23.977745"
       y2="232.35815"
       gradientUnits="userSpaceOnUse" />
  </defs>
  <defs
     id="defs2" />
  <sodipodi:namedview
     id="namedview2"
     pagecolor="#ffffff"
     bordercolor="#000000"
     borderopacity="0.25"
     inkscape:showpageshadow="2"
     inkscape:pageopacity="0.0"
     inkscape:pagecheckerboard="0"
     inkscape:deskcolor="#d1d1d1" />
  <path
     id="circle1"
     style="baseline-shift:baseline;display:inline;overflow:visible;vector-effect:none;fill:url(#linearGradient2);stroke-linecap:round;stroke-linejoin:round;enable-background:accumulate;stop-color:#000000;stop-opacity:1;opacity:1;fill-opacity:1"
     d="M 122.57617 24 C 68.208709 24.771401 24.003204 69.587737 24 123.99414 L 24 123.99609 L 24 124 C 23.98139 157.05054 40.325749 187.9929 67.634766 206.60938 A 8.0008 8.0008 0 0 0 72.140625 208 L 119.99805 208 C 130.05948 208.002 137.8075 198.34009 135.61914 188.51953 A 8.0008 8.0008 0 0 0 135.47852 187.97852 L 131.91602 176 L 153.8418 176 L 164.63867 212.53711 A 8.0008 8.0008 0 0 0 164.63867 212.53906 C 166.64379 219.31518 172.953 224.01661 180.01953 224 L 216 224 C 224.7418 224 232 216.7418 232 208 L 232 176 C 232 167.2582 224.7418 160 216 160 L 165.79688 160 L 158.70508 136 L 216 136 A 8.0008 8.0008 0 0 0 224 128 L 224 124 C 224.00565 68.309713 178.26081 23.207018 122.57617 24 z M 122.80273 40 A 8.0008 8.0008 0 0 0 122.80469 40 C 168.41136 39.350534 205.68816 74.929244 207.79688 120 L 120.00195 120 L 120 120 C 109.93954 119.99937 102.19264 129.66055 104.38086 139.48047 A 8.0008 8.0008 0 0 0 104.52148 140.02148 L 113.49414 170.18555 A 8 8 0 0 0 113.55078 170.38086 L 119.98242 192 L 74.853516 192 C 53.029437 176.23947 39.983204 151.01938 40 124.00586 A 8.0008 8.0008 0 0 0 40 124 C 40 78.249073 77.092186 40.648571 122.80273 40 z M 120.01758 136 L 142.02148 136 L 149.11328 160 L 127.15625 160 L 120.01758 136 z M 84 152 A 12 12 0 0 0 72 164 A 12 12 0 0 0 84 176 A 12 12 0 0 0 96 164 A 12 12 0 0 0 84 152 z M 170.52539 176 L 216 176 L 216 208 L 180 208 A 8.0008 8.0008 0 0 0 179.98047 208 L 170.52539 176 z " />
</svg>
