<?xml version="1.0" encoding="UTF-8" standalone="no"?>
<svg
   viewBox="0 0 256 256"
   version="1.1"
   id="svg1"
   sodipodi:docname="funnel blue_green.svg"
   xmlns:inkscape="http://www.inkscape.org/namespaces/inkscape"
   xmlns:sodipodi="http://sodipodi.sourceforge.net/DTD/sodipodi-0.dtd"
   xmlns:xlink="http://www.w3.org/1999/xlink"
   xmlns="http://www.w3.org/2000/svg"
   xmlns:svg="http://www.w3.org/2000/svg">
  <defs
     id="defs3">
    <linearGradient
       id="linearGradient1"
       inkscape:collect="always">
      <stop
         style="stop-color:#0ec38bff;stop-opacity:1;"
         offset="0"
         id="stop1" />
      <stop
         style="stop-color:#4b4fe2ff;stop-opacity:1;"
         offset="0.76340693"
         id="stop2" />
    </linearGradient>
    <linearGradient
       inkscape:collect="always"
       xlink:href="#linearGradient1"
       id="linearGradient2"
       x1="232.4884"
       y1="23.847498"
       x2="23.977745"
       y2="232.35815"
       gradientUnits="userSpaceOnUse" />
  </defs>
  <defs
     id="defs1" />
  <sodipodi:namedview
     id="namedview1"
     pagecolor="#ffffff"
     bordercolor="#000000"
     borderopacity="0.25"
     inkscape:showpageshadow="2"
     inkscape:pageopacity="0.0"
     inkscape:pagecheckerboard="0"
     inkscape:deskcolor="#d1d1d1" />
  <path
     id="path1"
     style="baseline-shift:baseline;display:inline;overflow:visible;vector-effect:none;fill:url(#linearGradient2);stroke-linecap:round;stroke-linejoin:round;enable-background:accumulate;stop-color:#000000;stop-opacity:1;opacity:1;fill-opacity:1"
     d="M 39.978516 40 C 33.350114 40.0172 27.726865 44.224658 25.380859 49.544922 C 23.034854 54.865185 23.722049 61.854108 28.179688 66.759766 A 8.0008 8.0008 0 0 0 28.261719 66.849609 L 96 139.16211 L 96 216 A 8.0008 8.0008 0 0 0 96 216.01562 C 96.02279 228.33837 110.62521 236.13243 120.87695 229.29688 L 152.87695 207.9668 A 8.0008 8.0008 0 0 0 152.88086 207.96484 C 157.32453 205.00008 160.00347 199.98645 160 194.64453 L 160 139.16211 L 227.75781 66.849609 A 8.0008 8.0008 0 0 0 227.83984 66.759766 C 232.30275 61.848267 232.98577 54.847817 230.63086 49.525391 C 228.27588 44.203021 222.63629 40.000645 216 40 L 40 40 A 8.0008 8.0008 0 0 0 39.978516 40 z M 40.023438 56 L 215.99805 56 L 146.16211 130.5293 A 8.0008 8.0008 0 0 0 144 136 L 144 194.65039 A 8.0008 8.0008 0 0 0 144 194.6543 L 112.00195 215.98242 A 8.0008 8.0008 0 0 0 112 215.98438 L 112 136 A 8.0008 8.0008 0 0 0 109.83789 130.53125 L 40.023438 56 z " />
</svg>
