<?xml version="1.0" encoding="UTF-8" standalone="no"?>
<svg
   viewBox="0 0 256 256"
   version="1.1"
   id="svg3"
   sodipodi:docname="garage blue_green.svg"
   xmlns:inkscape="http://www.inkscape.org/namespaces/inkscape"
   xmlns:sodipodi="http://sodipodi.sourceforge.net/DTD/sodipodi-0.dtd"
   xmlns:xlink="http://www.w3.org/1999/xlink"
   xmlns="http://www.w3.org/2000/svg"
   xmlns:svg="http://www.w3.org/2000/svg">
  <defs
     id="defs3">
    <linearGradient
       id="linearGradient1"
       inkscape:collect="always">
      <stop
         style="stop-color:#0ec38bff;stop-opacity:1;"
         offset="0"
         id="stop1" />
      <stop
         style="stop-color:#4b4fe2ff;stop-opacity:1;"
         offset="0.76340693"
         id="stop2" />
    </linearGradient>
    <linearGradient
       inkscape:collect="always"
       xlink:href="#linearGradient1"
       id="linearGradient2"
       x1="232.4884"
       y1="23.847498"
       x2="23.977745"
       y2="232.35815"
       gradientUnits="userSpaceOnUse" />
  </defs>
  <defs
     id="defs1" />
  <sodipodi:namedview
     id="namedview3"
     pagecolor="#ffffff"
     bordercolor="#000000"
     borderopacity="0.25"
     inkscape:showpageshadow="2"
     inkscape:pageopacity="0.0"
     inkscape:pagecheckerboard="0"
     inkscape:deskcolor="#d1d1d1" />
  <path
     id="line1"
     style="baseline-shift:baseline;display:inline;overflow:visible;vector-effect:none;fill:url(#linearGradient2);stroke-linecap:round;stroke-linejoin:round;enable-background:accumulate;stop-color:#000000;stop-opacity:1;opacity:1;fill-opacity:1"
     d="M 128 23.994141 C 124.8994 23.994141 121.79793 24.888524 119.11914 26.675781 L 31.123047 85.34375 A 8.0008 8.0008 0 0 0 31.119141 85.345703 C 26.669604 88.314312 23.989845 93.336609 24 98.685547 L 24 192 L 16 192 A 8 8 0 0 0 8 200 A 8 8 0 0 0 16 208 L 240 208 A 8 8 0 0 0 248 200 A 8 8 0 0 0 240 192 L 232 192 L 232 98.685547 C 232.0102 93.336609 229.33039 88.314359 224.88086 85.345703 A 8.0008 8.0008 0 0 0 224.87695 85.34375 L 136.87695 26.673828 C 134.1991 24.888267 131.09917 23.994141 128 23.994141 z M 128 39.984375 A 8.0008 8.0008 0 0 0 128.00195 39.986328 L 216 98.654297 A 8.0008 8.0008 0 0 0 216 98.669922 L 216 192 L 192 192 L 192 168 L 192 136 A 8.0008 8.0008 0 0 0 184 128 L 72 128 A 8.0008 8.0008 0 0 0 64 136 L 64 168 L 64 192 L 40 192 L 40 98.669922 A 8.0008 8.0008 0 0 0 40 98.654297 L 127.99805 39.986328 A 8.0008 8.0008 0 0 0 128 39.984375 z M 80 144 L 120 144 L 120 160 L 80 160 L 80 144 z M 136 144 L 176 144 L 176 160 L 136 160 L 136 144 z M 80 176 L 120 176 L 120 192 L 80 192 L 80 176 z M 136 176 L 176 176 L 176 192 L 136 192 L 136 176 z " />
</svg>
