<?xml version="1.0" encoding="UTF-8" standalone="no"?>
<svg
   viewBox="0 0 256 256"
   version="1.1"
   id="svg4"
   sodipodi:docname="gauge blue_green.svg"
   xmlns:inkscape="http://www.inkscape.org/namespaces/inkscape"
   xmlns:sodipodi="http://sodipodi.sourceforge.net/DTD/sodipodi-0.dtd"
   xmlns:xlink="http://www.w3.org/1999/xlink"
   xmlns="http://www.w3.org/2000/svg"
   xmlns:svg="http://www.w3.org/2000/svg">
  <defs
     id="defs3">
    <linearGradient
       id="linearGradient1"
       inkscape:collect="always">
      <stop
         style="stop-color:#0ec38bff;stop-opacity:1;"
         offset="0"
         id="stop1" />
      <stop
         style="stop-color:#4b4fe2ff;stop-opacity:1;"
         offset="0.76340693"
         id="stop2" />
    </linearGradient>
    <linearGradient
       inkscape:collect="always"
       xlink:href="#linearGradient1"
       id="linearGradient2"
       x1="232.4884"
       y1="23.847498"
       x2="23.977745"
       y2="232.35815"
       gradientUnits="userSpaceOnUse" />
  </defs>
  <defs
     id="defs4" />
  <sodipodi:namedview
     id="namedview4"
     pagecolor="#ffffff"
     bordercolor="#000000"
     borderopacity="0.25"
     inkscape:showpageshadow="2"
     inkscape:pageopacity="0.0"
     inkscape:pagecheckerboard="0"
     inkscape:deskcolor="#d1d1d1" />
  <path
     id="path1"
     style="baseline-shift:baseline;display:inline;overflow:visible;vector-effect:none;fill:url(#linearGradient2);stroke-linecap:round;stroke-linejoin:round;enable-background:accumulate;stop-color:#000000;stop-opacity:1;opacity:1;fill-opacity:1"
     d="M 127.60156 40 C 72.444864 40.191916 27.037294 80.904567 17.8125 133.49219 A 8 8 0 0 0 17.390625 136 A 8 8 0 0 0 17.404297 136.19922 C 16.569244 141.74332 16 147.36939 16 153.13086 L 16 176 C 16 184.7418 23.258201 192 32 192 L 224 192 C 232.7418 192 240 184.7418 240 176 L 240 152 C 240.00039 90.46517 190.12549 40.446725 128.73242 40.048828 A 8 8 0 0 0 128 40 A 8 8 0 0 0 127.84375 40.009766 C 127.76216 40.00988 127.68319 39.99971 127.60156 40 z M 136 56.326172 C 177.22572 59.707533 211.00045 89.023634 220.99023 128 L 200 128 A 8 8 0 0 0 192 136 A 8 8 0 0 0 200 144 L 223.67383 144 C 223.89023 146.63744 224.00002 149.30552 224 152 L 224 176 L 119.71094 176 L 174.4707 100.70508 A 8 8 0 0 0 172.70508 89.529297 A 8 8 0 0 0 166.75195 88.097656 A 8 8 0 0 0 161.5293 91.294922 L 99.925781 176 L 32 176 L 32 153.13086 C 32 150.05341 32.143184 147.00759 32.421875 144 L 56 144 A 8 8 0 0 0 64 136 A 8 8 0 0 0 56 128 L 35.259766 128 C 45.534819 89.209598 79.012715 59.750259 120 56.332031 L 120 80 A 8 8 0 0 0 128 88 A 8 8 0 0 0 136 80 L 136 56.326172 z " />
</svg>
