<?xml version="1.0" encoding="UTF-8" standalone="no"?>
<svg
   viewBox="0 0 256 256"
   version="1.1"
   id="svg1"
   sodipodi:docname="gear blue_green.svg"
   xmlns:inkscape="http://www.inkscape.org/namespaces/inkscape"
   xmlns:sodipodi="http://sodipodi.sourceforge.net/DTD/sodipodi-0.dtd"
   xmlns:xlink="http://www.w3.org/1999/xlink"
   xmlns="http://www.w3.org/2000/svg"
   xmlns:svg="http://www.w3.org/2000/svg">
  <defs
     id="defs3">
    <linearGradient
       id="linearGradient1"
       inkscape:collect="always">
      <stop
         style="stop-color:#0ec38bff;stop-opacity:1;"
         offset="0"
         id="stop1" />
      <stop
         style="stop-color:#4b4fe2ff;stop-opacity:1;"
         offset="0.76340693"
         id="stop2" />
    </linearGradient>
    <linearGradient
       inkscape:collect="always"
       xlink:href="#linearGradient1"
       id="linearGradient2"
       x1="232.4884"
       y1="23.847498"
       x2="23.977745"
       y2="232.35815"
       gradientUnits="userSpaceOnUse" />
  </defs>
  <defs
     id="defs1" />
  <sodipodi:namedview
     id="namedview1"
     pagecolor="#ffffff"
     bordercolor="#000000"
     borderopacity="0.25"
     inkscape:showpageshadow="2"
     inkscape:pageopacity="0.0"
     inkscape:pagecheckerboard="0"
     inkscape:deskcolor="#d1d1d1" />
  <path
     id="circle1"
     style="baseline-shift:baseline;display:inline;overflow:visible;vector-effect:none;fill:url(#linearGradient2);stroke-linecap:round;stroke-linejoin:round;enable-background:accumulate;stop-color:#000000;stop-opacity:1;opacity:1;fill-opacity:1"
     d="M 102.26758 23.361328 A 8.0008 8.0008 0 0 0 100.16016 23.625 C 90.981253 26.046338 82.163731 29.675632 73.941406 34.419922 A 8.0008 8.0008 0 0 0 69.990234 40.457031 L 67.300781 64.394531 C 66.337291 65.315676 65.395754 66.257213 64.474609 67.220703 L 40.527344 69.910156 A 8.0008 8.0008 0 0 0 34.496094 73.851562 C 29.73014 82.083929 26.079855 90.913583 23.638672 100.10742 A 8.0008 8.0008 0 0 0 25.119141 107.15234 L 40.154297 125.98047 C 40.124527 127.31339 40.124557 128.64559 40.154297 129.97852 L 25.109375 148.80664 A 8.0008 8.0008 0 0 0 23.628906 155.85742 C 26.074822 165.05181 29.734767 173.87942 34.511719 182.10742 A 8.0008 8.0008 0 0 0 40.5 186.03516 L 64.480469 188.8457 C 65.405417 189.8136 66.352645 190.75841 67.320312 191.68359 L 70.009766 215.63281 A 8.0008 8.0008 0 0 0 73.964844 221.66992 C 82.200008 226.41712 91.029552 230.05048 100.2207 232.47461 A 8.0008 8.0008 0 0 0 107.25195 230.99219 L 126.08008 215.95508 C 127.41235 215.98488 128.7439 215.98478 130.07617 215.95508 L 148.90625 231 A 8.0008 8.0008 0 0 0 155.95703 232.48047 C 165.15142 230.03455 173.97903 226.37461 182.20703 221.59766 A 8.0008 8.0008 0 0 0 186.14062 215.57422 L 188.83008 191.63281 C 189.79287 190.71227 190.73379 189.77142 191.6543 188.80859 L 215.60352 186.11914 A 8.0008 8.0008 0 0 0 221.64062 182.16602 C 226.38782 173.93085 230.02118 165.10132 232.44531 155.91016 A 8.0008 8.0008 0 0 0 230.96094 148.87695 L 215.92578 130.04883 C 215.95558 128.71631 215.95548 127.38525 215.92578 126.05273 L 230.9707 107.22461 A 8.0008 8.0008 0 0 0 232.45117 100.17383 C 230.00526 90.979435 226.34531 82.151828 221.56836 73.923828 A 8.0008 8.0008 0 0 0 215.54297 69.990234 L 191.60547 67.300781 C 190.68432 66.337291 189.74279 65.395754 188.7793 64.474609 L 186.08984 40.527344 A 8.0008 8.0008 0 0 0 182.14844 34.496094 C 173.91607 29.73014 165.08642 26.079855 155.89258 23.638672 A 8.0008 8.0008 0 0 0 148.84766 25.119141 L 130.01953 40.154297 C 128.68661 40.124527 127.35441 40.124557 126.02148 40.154297 L 107.19336 25.109375 A 8.0008 8.0008 0 0 0 102.26758 23.361328 z M 100.59961 40.320312 L 118.20703 54.390625 A 8.0008 8.0008 0 0 0 123.67188 56.126953 C 126.56758 55.955586 129.47146 55.955586 132.36719 56.126953 A 8.0008 8.0008 0 0 0 137.83203 54.390625 L 155.43359 40.333984 C 160.70058 41.973083 165.78958 44.078847 170.67578 46.638672 L 173.18945 69.023438 A 8.0008 8.0008 0 0 0 175.83008 74.113281 C 177.9958 76.035544 180.04453 78.084279 181.9668 80.25 A 8.0008 8.0008 0 0 0 187.05664 82.890625 L 209.43945 85.40625 C 212.00364 90.287251 214.11021 95.373273 215.75195 100.63672 L 201.68945 118.23633 A 8.0008 8.0008 0 0 0 199.95312 123.70312 C 200.12449 126.59884 200.12452 129.50076 199.95312 132.39648 A 8.0008 8.0008 0 0 0 201.68945 137.86133 L 215.75195 155.4707 C 214.12395 160.73459 212.02977 165.82138 209.48242 170.70703 L 187.10742 173.2207 A 8.0008 8.0008 0 0 0 182.01758 175.85938 C 180.09532 178.0251 178.04463 180.07383 175.87891 181.99609 A 8.0008 8.0008 0 0 0 173.24023 187.08594 L 170.72461 209.4668 C 165.84334 212.03122 160.7579 214.14134 155.49414 215.7832 L 137.89453 201.7207 A 8.0008 8.0008 0 0 0 132.42773 199.98438 C 129.53201 200.15574 126.62815 200.15572 123.73242 199.98438 A 8.0008 8.0008 0 0 0 118.26758 201.71875 L 100.6582 215.78125 C 95.395591 214.15355 90.3084 212.06028 85.423828 209.51367 L 82.910156 187.13672 A 8.0008 8.0008 0 0 0 80.271484 182.04688 C 78.105763 180.12462 76.055077 178.07588 74.132812 175.91016 A 8.0008 8.0008 0 0 0 69.080078 173.27344 L 46.652344 170.64648 C 44.082626 165.75821 41.970478 160.66463 40.326172 155.39258 L 54.390625 137.79297 A 8.0008 8.0008 0 0 0 56.126953 132.32812 C 55.955586 129.4324 55.955586 126.52854 56.126953 123.63281 A 8.0008 8.0008 0 0 0 54.390625 118.16797 L 40.333984 100.56641 C 41.973083 95.299412 44.078847 90.210422 46.638672 85.324219 L 69.023438 82.810547 A 8.0008 8.0008 0 0 0 74.113281 80.169922 C 76.035544 78.004201 78.084279 75.955466 80.25 74.033203 A 8.0008 8.0008 0 0 0 82.890625 68.943359 L 85.404297 46.576172 C 90.276249 44.034244 95.350022 41.944967 100.59961 40.320312 z M 128 80 C 101.58509 80 80 101.58509 80 128 C 80 154.41491 101.58509 176 128 176 C 154.41491 176 176 154.41491 176 128 C 176 101.58509 154.41491 80 128 80 z M 128 96 C 145.76787 96 160 110.23213 160 128 C 160 145.76787 145.76787 160 128 160 C 110.23213 160 96 145.76787 96 128 C 96 110.23213 110.23213 96 128 96 z " />
</svg>
