<?xml version="1.0" encoding="UTF-8" standalone="no"?>
<svg
   viewBox="0 0 256 256"
   version="1.1"
   id="svg3"
   sodipodi:docname="git branch blue_green.svg"
   xmlns:inkscape="http://www.inkscape.org/namespaces/inkscape"
   xmlns:sodipodi="http://sodipodi.sourceforge.net/DTD/sodipodi-0.dtd"
   xmlns:xlink="http://www.w3.org/1999/xlink"
   xmlns="http://www.w3.org/2000/svg"
   xmlns:svg="http://www.w3.org/2000/svg">
  <defs
     id="defs3">
    <linearGradient
       id="linearGradient1"
       inkscape:collect="always">
      <stop
         style="stop-color:#0ec38bff;stop-opacity:1;"
         offset="0"
         id="stop1" />
      <stop
         style="stop-color:#4b4fe2ff;stop-opacity:1;"
         offset="0.76340693"
         id="stop2" />
    </linearGradient>
    <linearGradient
       inkscape:collect="always"
       xlink:href="#linearGradient1"
       id="linearGradient2"
       x1="232.4884"
       y1="23.847498"
       x2="23.977745"
       y2="232.35815"
       gradientUnits="userSpaceOnUse" />
  </defs>
  <defs
     id="defs1" />
  <sodipodi:namedview
     id="namedview3"
     pagecolor="#ffffff"
     bordercolor="#000000"
     borderopacity="0.25"
     inkscape:showpageshadow="2"
     inkscape:pageopacity="0.0"
     inkscape:pagecheckerboard="0"
     inkscape:deskcolor="#d1d1d1" />
  <path
     id="path1"
     style="baseline-shift:baseline;display:inline;overflow:visible;vector-effect:none;fill:url(#linearGradient2);stroke-linecap:round;stroke-linejoin:round;enable-background:accumulate;stop-color:#000000;stop-opacity:1;opacity:1;fill-opacity:1"
     d="M 80 32 C 62.421645 32 48 46.421645 48 64 C 48 78.819409 58.249911 91.395984 72 94.978516 L 72 144 L 72 161.02148 C 58.249911 164.60402 48 177.1806 48 192 C 48 209.57835 62.421645 224 80 224 C 97.578355 224 112 209.57835 112 192 C 112 177.1806 101.75009 164.60402 88 161.02148 L 88 144 C 88 139.48696 91.486965 136 96 136 L 184 136 C 197.16008 136 208 125.16008 208 112 L 208 94.978516 C 221.75009 91.395984 232 78.819408 232 64 C 232 46.421645 217.57835 32 200 32 C 182.42165 32 168 46.421645 168 64 C 168 78.819408 178.24991 91.395984 192 94.978516 L 192 112 C 192 116.51304 188.51304 120 184 120 L 96 120 C 93.20106 120 90.507072 120.48996 88 121.38867 L 88 94.978516 C 101.75009 91.395984 112 78.819409 112 64 C 112 46.421645 97.578355 32 80 32 z M 80 48 C 88.931313 48 96 55.068687 96 64 C 96 72.931313 88.931313 80 80 80 C 71.068687 80 64 72.931313 64 64 C 64 55.068687 71.068687 48 80 48 z M 200 48 C 208.93131 48 216 55.068687 216 64 C 216 72.931296 208.93129 79.999973 200 80 C 191.06869 80 184 72.931313 184 64 C 184 55.068687 191.06869 48 200 48 z M 80 176 C 88.931313 176 96 183.06869 96 192 C 96 200.93131 88.931313 208 80 208 C 71.068687 208 64 200.93131 64 192 C 64 183.06869 71.068687 176 80 176 z " />
</svg>
