<?xml version="1.0" encoding="UTF-8" standalone="no"?>
<svg
   viewBox="0 0 256 256"
   version="1.1"
   id="svg5"
   sodipodi:docname="graphics card blue_green.svg"
   xmlns:inkscape="http://www.inkscape.org/namespaces/inkscape"
   xmlns:sodipodi="http://sodipodi.sourceforge.net/DTD/sodipodi-0.dtd"
   xmlns:xlink="http://www.w3.org/1999/xlink"
   xmlns="http://www.w3.org/2000/svg"
   xmlns:svg="http://www.w3.org/2000/svg">
  <defs
     id="defs3">
    <linearGradient
       id="linearGradient1"
       inkscape:collect="always">
      <stop
         style="stop-color:#0ec38bff;stop-opacity:1;"
         offset="0"
         id="stop1" />
      <stop
         style="stop-color:#4b4fe2ff;stop-opacity:1;"
         offset="0.76340693"
         id="stop2" />
    </linearGradient>
    <linearGradient
       inkscape:collect="always"
       xlink:href="#linearGradient1"
       id="linearGradient2"
       x1="232.4884"
       y1="23.847498"
       x2="23.977745"
       y2="232.35815"
       gradientUnits="userSpaceOnUse" />
  </defs>
  <defs
     id="defs5" />
  <sodipodi:namedview
     id="namedview5"
     pagecolor="#ffffff"
     bordercolor="#000000"
     borderopacity="0.25"
     inkscape:showpageshadow="2"
     inkscape:pageopacity="0.0"
     inkscape:pagecheckerboard="0"
     inkscape:deskcolor="#d1d1d1" />
  <path
     id="path1"
     style="baseline-shift:baseline;display:inline;overflow:visible;vector-effect:none;fill:url(#linearGradient2);stroke-linecap:round;stroke-linejoin:round;enable-background:accumulate;stop-color:#000000;stop-opacity:1;opacity:1;fill-opacity:1"
     d="M 16 48 A 8.0008 8.0008 0 0 0 8 56 L 8 184 L 8 208 A 8 8 0 0 0 16 216 A 8 8 0 0 0 24 208 L 24 192 L 40 192 L 40 208 A 8 8 0 0 0 48 216 A 8 8 0 0 0 56 208 L 56 192 L 72 192 L 72 208 A 8 8 0 0 0 80 216 A 8 8 0 0 0 88 208 L 88 192 L 104 192 L 104 208 A 8 8 0 0 0 112 216 A 8 8 0 0 0 120 208 L 120 192 L 232 192 C 240.7418 192 248 184.7418 248 176 L 248 64 C 248 55.258201 240.7418 48 232 48 L 16 48 z M 24 64 L 232 64 L 232 176 L 24 176 L 24 64 z M 80 80 C 69.372971 80 59.677246 84.202992 52.494141 91.027344 A 8 8 0 0 0 51.712891 91.712891 A 8 8 0 0 0 51.027344 92.494141 C 44.202825 99.677276 40 109.37282 40 120 C 40 141.99663 58.003367 160 80 160 C 90.627163 160 100.32273 155.79716 107.50586 148.97266 A 8 8 0 0 0 108.28711 148.28711 A 8 8 0 0 0 108.97266 147.50586 C 115.79716 140.32273 120 130.62716 120 120 C 120 98.003367 101.99663 80 80 80 z M 176 80 C 165.37298 80 155.67725 84.202997 148.49414 91.027344 A 8 8 0 0 0 147.71289 91.712891 A 8 8 0 0 0 147.02734 92.494141 C 140.20283 99.677275 136 109.37283 136 120 C 136 141.99663 154.00337 160 176 160 C 186.62716 160 196.32273 155.79716 203.50586 148.97266 A 8 8 0 0 0 204.28711 148.28711 A 8 8 0 0 0 204.97266 147.50586 C 211.79716 140.32273 216 130.62716 216 120 C 216 98.003367 197.99663 80 176 80 z M 80 96 C 93.349591 96 104 106.65041 104 120 C 104 123.72467 103.17105 127.23937 101.68555 130.37109 L 69.628906 98.314453 C 72.760633 96.828955 76.275327 96 80 96 z M 176 96 C 189.34959 96 200 106.65041 200 120 C 200 123.72467 199.17105 127.23937 197.68555 130.37109 L 165.62891 98.314453 C 168.76063 96.828954 172.27533 96 176 96 z M 58.314453 109.62891 L 90.371094 141.68555 C 87.239367 143.17104 83.724673 144 80 144 C 66.650409 144 56 133.34959 56 120 C 56 116.27533 56.828955 112.76063 58.314453 109.62891 z M 154.31445 109.62891 L 186.37109 141.68555 C 183.23937 143.17105 179.72467 144 176 144 C 162.65041 144 152 133.34959 152 120 C 152 116.27533 152.82895 112.76063 154.31445 109.62891 z " />
</svg>
