<?xml version="1.0" encoding="UTF-8" standalone="no"?>
<svg
   viewBox="0 0 256 256"
   version="1.1"
   id="svg5"
   sodipodi:docname="grid nine blue_green.svg"
   xmlns:inkscape="http://www.inkscape.org/namespaces/inkscape"
   xmlns:sodipodi="http://sodipodi.sourceforge.net/DTD/sodipodi-0.dtd"
   xmlns:xlink="http://www.w3.org/1999/xlink"
   xmlns="http://www.w3.org/2000/svg"
   xmlns:svg="http://www.w3.org/2000/svg">
  <defs
     id="defs3">
    <linearGradient
       id="linearGradient1"
       inkscape:collect="always">
      <stop
         style="stop-color:#0ec38bff;stop-opacity:1;"
         offset="0"
         id="stop1" />
      <stop
         style="stop-color:#4b4fe2ff;stop-opacity:1;"
         offset="0.76340693"
         id="stop2" />
    </linearGradient>
    <linearGradient
       inkscape:collect="always"
       xlink:href="#linearGradient1"
       id="linearGradient2"
       x1="232.4884"
       y1="23.847498"
       x2="23.977745"
       y2="232.35815"
       gradientUnits="userSpaceOnUse" />
  </defs>
  <defs
     id="defs5" />
  <sodipodi:namedview
     id="namedview5"
     pagecolor="#ffffff"
     bordercolor="#000000"
     borderopacity="0.25"
     inkscape:showpageshadow="2"
     inkscape:pageopacity="0.0"
     inkscape:pagecheckerboard="0"
     inkscape:deskcolor="#d1d1d1" />
  <path
     id="rect2"
     style="baseline-shift:baseline;display:inline;overflow:visible;vector-effect:none;fill:url(#linearGradient2);stroke-linecap:round;stroke-linejoin:round;enable-background:accumulate;stop-color:#000000;stop-opacity:1;opacity:1;fill-opacity:1"
     d="M 40 48 C 31.274378 48 24 55.274378 24 64 L 24 152 L 24 192 C 24 200.72562 31.274378 208 40 208 L 216 208 C 224.72562 208 232 200.72562 232 192 L 232 152 L 232 64 C 232 55.274378 224.72562 48 216 48 L 40 48 z M 40 64 L 88 64 L 88 96 L 40 96 L 40 64 z M 104 64 L 152 64 L 152 96 L 104 96 L 104 64 z M 168 64 L 216 64 L 216 96 L 168 96 L 168 64 z M 40 112 L 88 112 L 88 144 L 40 144 L 40 112 z M 104 112 L 152 112 L 152 144 L 104 144 L 104 112 z M 168 112 L 216 112 L 216 144 L 168 144 L 168 112 z M 40 160 L 88 160 L 88 192 L 40 192 L 40 160 z M 104 160 L 152 160 L 152 192 L 104 192 L 104 160 z M 168 160 L 216 160 L 216 192 L 168 192 L 168 160 z " />
</svg>
