<?xml version="1.0" encoding="UTF-8" standalone="no"?>
<svg
   viewBox="0 0 256 256"
   version="1.1"
   id="svg4"
   sodipodi:docname="hands praying blue_green.svg"
   xmlns:inkscape="http://www.inkscape.org/namespaces/inkscape"
   xmlns:sodipodi="http://sodipodi.sourceforge.net/DTD/sodipodi-0.dtd"
   xmlns:xlink="http://www.w3.org/1999/xlink"
   xmlns="http://www.w3.org/2000/svg"
   xmlns:svg="http://www.w3.org/2000/svg">
  <defs
     id="defs3">
    <linearGradient
       id="linearGradient1"
       inkscape:collect="always">
      <stop
         style="stop-color:#0ec38bff;stop-opacity:1;"
         offset="0"
         id="stop1" />
      <stop
         style="stop-color:#4b4fe2ff;stop-opacity:1;"
         offset="0.76340693"
         id="stop2" />
    </linearGradient>
    <linearGradient
       inkscape:collect="always"
       xlink:href="#linearGradient1"
       id="linearGradient2"
       x1="232.4884"
       y1="23.847498"
       x2="23.977745"
       y2="232.35815"
       gradientUnits="userSpaceOnUse" />
  </defs>
  <defs
     id="defs4" />
  <sodipodi:namedview
     id="namedview4"
     pagecolor="#ffffff"
     bordercolor="#000000"
     borderopacity="0.25"
     inkscape:showpageshadow="2"
     inkscape:pageopacity="0.0"
     inkscape:pagecheckerboard="0"
     inkscape:deskcolor="#d1d1d1" />
  <path
     id="path1"
     style="baseline-shift:baseline;display:inline;overflow:visible;vector-effect:none;fill:url(#linearGradient2);stroke-linecap:round;stroke-linejoin:round;enable-background:accumulate;stop-color:#000000;stop-opacity:1;opacity:1;fill-opacity:1"
     d="M 114.23047 8.0019531 C 104.65339 7.9797888 96.119072 14.295651 93.34375 23.462891 L 56.923828 143.76172 L 39.033203 161.65234 L 20.683594 180.00391 A 8.0008 8.0008 0 0 0 20.681641 180.00586 C 14.505039 186.18651 14.505039 196.44435 20.681641 202.625 L 53.339844 235.31445 A 8.0008 8.0008 0 0 0 53.345703 235.31836 C 59.526354 241.49496 69.784193 241.49496 75.964844 235.31836 A 8.0008 8.0008 0 0 0 75.966797 235.31641 L 93.912109 217.37109 A 8.0008 8.0008 0 0 0 94.347656 216.9668 L 124.28711 187.02734 A 8.0008 8.0008 0 0 0 124.28711 187.02539 C 125.63182 185.68038 126.8718 184.24849 128 182.74414 C 129.11437 184.2303 130.33625 185.6457 131.66211 186.97656 A 8.0008 8.0008 0 0 0 131.67383 186.98633 L 161.61328 216.92773 A 8.0008 8.0008 0 0 0 161.6543 216.96875 L 180.00391 235.31641 A 8.0008 8.0008 0 0 0 180.00586 235.31836 C 186.18651 241.49496 196.44435 241.49496 202.625 235.31836 L 235.31445 202.66016 A 8.0008 8.0008 0 0 0 235.31836 202.6543 C 241.49496 196.47365 241.49496 186.21581 235.31836 180.03516 A 8.0008 8.0008 0 0 0 235.31641 180.0332 L 218.33008 163.04688 A 8.0008 8.0008 0 0 0 217.92773 162.61328 L 199.07617 143.76172 L 162.65625 23.462891 C 159.88093 14.295651 151.34661 7.9797888 141.76953 8.0019531 C 136.56886 8.0043661 131.76477 9.8767339 128 12.976562 C 124.23558 9.8769403 119.43152 8.0043789 114.23047 8.0019531 z M 114.19727 24 A 8.0008 8.0008 0 0 0 114.2207 24 C 117.5077 24 120 26.492334 120 29.779297 L 120 158.75 A 8.0008 8.0008 0 0 0 120 158.75195 L 120 158.7793 C 119.991 165.1347 117.46625 171.21827 112.97266 175.71289 L 88.691406 199.99609 L 56.003906 167.30859 L 69.65625 153.65625 A 8.0008 8.0008 0 0 0 71.65625 150.31836 L 108.65625 28.097656 C 109.40487 25.624885 111.61367 23.992359 114.19727 24 z M 141.7793 24 A 8.0008 8.0008 0 0 0 141.80273 24 C 144.38633 23.9924 146.59513 25.624885 147.34375 28.097656 L 184.34375 150.31836 A 8.0008 8.0008 0 0 0 186.34375 153.65625 L 200.82617 168.14062 L 167.39648 200.08398 L 142.99805 175.68359 C 138.51594 171.18454 136.00146 165.10062 136 158.75 L 136 29.779297 L 136 29.767578 C 136.007 26.486172 138.49788 23.999992 141.7793 24 z M 44.689453 178.62305 L 77.361328 211.29492 L 64.65625 224 L 32 191.31641 A 8.0008 8.0008 0 0 0 31.998047 191.31445 L 44.689453 178.62305 z M 212.12891 179.47266 L 224 191.34375 L 191.31641 224 A 8.0008 8.0008 0 0 0 191.31445 224.00195 L 178.71484 211.40039 L 212.12891 179.47266 z " />
</svg>
