<?xml version="1.0" encoding="UTF-8" standalone="no"?>
<svg
   viewBox="0 0 256 256"
   version="1.1"
   id="svg2"
   sodipodi:docname="hand blue_green.svg"
   xmlns:inkscape="http://www.inkscape.org/namespaces/inkscape"
   xmlns:sodipodi="http://sodipodi.sourceforge.net/DTD/sodipodi-0.dtd"
   xmlns:xlink="http://www.w3.org/1999/xlink"
   xmlns="http://www.w3.org/2000/svg"
   xmlns:svg="http://www.w3.org/2000/svg">
  <defs
     id="defs3">
    <linearGradient
       id="linearGradient1"
       inkscape:collect="always">
      <stop
         style="stop-color:#0ec38bff;stop-opacity:1;"
         offset="0"
         id="stop1" />
      <stop
         style="stop-color:#4b4fe2ff;stop-opacity:1;"
         offset="0.76340693"
         id="stop2" />
    </linearGradient>
    <linearGradient
       inkscape:collect="always"
       xlink:href="#linearGradient1"
       id="linearGradient2"
       x1="232.4884"
       y1="23.847498"
       x2="23.977745"
       y2="232.35815"
       gradientUnits="userSpaceOnUse" />
  </defs>
  <defs
     id="defs2" />
  <sodipodi:namedview
     id="namedview2"
     pagecolor="#ffffff"
     bordercolor="#000000"
     borderopacity="0.25"
     inkscape:showpageshadow="2"
     inkscape:pageopacity="0.0"
     inkscape:pagecheckerboard="0"
     inkscape:deskcolor="#d1d1d1" />
  <path
     id="path1"
     style="baseline-shift:baseline;display:inline;overflow:visible;vector-effect:none;fill:url(#linearGradient2);stroke-linecap:round;stroke-linejoin:round;enable-background:accumulate;stop-color:#000000;stop-opacity:1;opacity:1;fill-opacity:1"
     d="M 148 16 C 135.61584 16 125.01018 24.201381 121.35742 35.427734 C 117.37884 33.24488 112.82406 32 108 32 C 92.630792 32 80 44.630779 80 60 L 80 124.01758 L 76.111328 117.77148 L 76.146484 117.83203 C 68.375024 104.72875 51.274205 100.24143 38.066406 107.86719 C 24.90654 115.46526 20.226586 132.42295 27.574219 145.68359 C 43.886477 180.08618 56.241396 203.14672 71.294922 218.39062 C 86.386133 233.67273 104.62556 240 128 240 C 176.5063 240 216 200.5063 216 152 L 216 76 C 216 60.630779 203.36921 48 188 48 C 183.71579 48 179.64437 48.981838 176 50.730469 L 176 44 C 176 28.630779 163.36921 16 148 16 z M 148 32 C 154.72218 32 160 37.277816 160 44 L 160 76 L 160 120 A 8 8 0 0 0 168 128 A 8 8 0 0 0 176 120 L 176 76 C 176 69.277816 181.27782 64 188 64 C 194.72218 64 200 69.277816 200 76 L 200 152 C 200 191.85926 167.85926 224 128 224 C 107.19444 224 95.059024 219.68634 82.677734 207.14844 C 70.296445 194.61054 58.105205 172.74855 41.908203 138.57422 A 8.0008 8.0008 0 0 0 41.634766 138.04688 C 38.328605 132.23186 40.273457 125.06732 46.066406 121.72266 C 51.859356 118.378 59.034956 120.27621 62.417969 126.04688 A 8.0008 8.0008 0 0 0 62.529297 126.22852 L 81.208984 156.22852 A 8.0008 8.0008 0 0 0 96 152 L 96 60 C 96 53.277816 101.27782 48 108 48 C 114.72218 48 120 53.277816 120 60 L 120 120 A 8 8 0 0 0 128 128 A 8 8 0 0 0 136 120 L 136 60 L 136 44 C 136 37.277816 141.27782 32 148 32 z " />
</svg>
