<?xml version="1.0" encoding="UTF-8" standalone="no"?>
<svg
   viewBox="0 0 256 256"
   version="1.1"
   id="svg1"
   sodipodi:docname="heartbeat blue_green.svg"
   xmlns:inkscape="http://www.inkscape.org/namespaces/inkscape"
   xmlns:sodipodi="http://sodipodi.sourceforge.net/DTD/sodipodi-0.dtd"
   xmlns:xlink="http://www.w3.org/1999/xlink"
   xmlns="http://www.w3.org/2000/svg"
   xmlns:svg="http://www.w3.org/2000/svg">
  <defs
     id="defs3">
    <linearGradient
       id="linearGradient1"
       inkscape:collect="always">
      <stop
         style="stop-color:#0ec38bff;stop-opacity:1;"
         offset="0"
         id="stop1" />
      <stop
         style="stop-color:#4b4fe2ff;stop-opacity:1;"
         offset="0.76340693"
         id="stop2" />
    </linearGradient>
    <linearGradient
       inkscape:collect="always"
       xlink:href="#linearGradient1"
       id="linearGradient2"
       x1="232.4884"
       y1="23.847498"
       x2="23.977745"
       y2="232.35815"
       gradientUnits="userSpaceOnUse" />
  </defs>
  <defs
     id="defs1" />
  <sodipodi:namedview
     id="namedview1"
     pagecolor="#ffffff"
     bordercolor="#000000"
     borderopacity="0.25"
     inkscape:showpageshadow="2"
     inkscape:pageopacity="0.0"
     inkscape:pagecheckerboard="0"
     inkscape:deskcolor="#d1d1d1" />
  <path
     id="polyline1"
     style="baseline-shift:baseline;display:inline;overflow:visible;vector-effect:none;fill:url(#linearGradient2);stroke-linecap:round;stroke-linejoin:round;enable-background:accumulate;stop-color:#000000;stop-opacity:1;opacity:1;fill-opacity:1"
     d="M 78 40 C 43.853103 40 16 67.853103 16 102 L 16 104 A 8 8 0 0 0 24 112 A 8 8 0 0 0 32 104 L 32 102 C 32 76.500144 52.500144 56 78 56 C 97.683699 56 113.79344 66.413817 120.5957 83.03125 A 8.0008 8.0008 0 0 0 135.4043 83.03125 C 142.20656 66.413817 158.3163 56 178 56 C 203.49986 56 224 76.500144 224 102 C 224 130.79798 200.05661 160.05704 174.79883 181.67188 C 155.09333 198.53524 135.76671 210.30834 128.03516 214.78125 C 119.19737 209.72714 86.652014 190.26537 61.320312 162.59766 A 8 8 0 0 0 50.017578 162.09961 A 8 8 0 0 0 49.519531 173.40234 C 81.349434 208.16751 124.20898 231.04492 124.20898 231.04492 A 8.0008 8.0008 0 0 0 131.79297 231.04297 C 131.79297 231.04297 158.45896 216.71332 185.20117 193.82812 C 211.94339 170.94302 240 139.20202 240 102 C 240 67.853103 212.1469 40 178 40 C 157.71112 40 139.38469 49.101297 128 64.246094 C 116.61531 49.101297 98.288876 40 78 40 z M 88 104 A 8.0008 8.0008 0 0 0 81.34375 107.5625 L 67.71875 128 L 32 128 A 8 8 0 0 0 24 136 A 8 8 0 0 0 32 144 L 72 144 A 8.0008 8.0008 0 0 0 78.65625 140.4375 L 88 126.42188 L 113.34375 164.4375 A 8.0008 8.0008 0 0 0 126.65625 164.4375 L 140.28125 144 L 160 144 A 8 8 0 0 0 168 136 A 8 8 0 0 0 160 128 L 136 128 A 8.0008 8.0008 0 0 0 129.34375 131.5625 L 120 145.57812 L 94.65625 107.5625 A 8.0008 8.0008 0 0 0 88 104 z " />
</svg>
