<?xml version="1.0" encoding="UTF-8" standalone="no"?>
<svg
   viewBox="0 0 256 256"
   version="1.1"
   id="svg3"
   sodipodi:docname="hourglass medium blue_green.svg"
   xmlns:inkscape="http://www.inkscape.org/namespaces/inkscape"
   xmlns:sodipodi="http://sodipodi.sourceforge.net/DTD/sodipodi-0.dtd"
   xmlns:xlink="http://www.w3.org/1999/xlink"
   xmlns="http://www.w3.org/2000/svg"
   xmlns:svg="http://www.w3.org/2000/svg">
  <defs
     id="defs3">
    <linearGradient
       id="linearGradient1"
       inkscape:collect="always">
      <stop
         style="stop-color:#0ec38bff;stop-opacity:1;"
         offset="0"
         id="stop1" />
      <stop
         style="stop-color:#4b4fe2ff;stop-opacity:1;"
         offset="0.76340693"
         id="stop2" />
    </linearGradient>
    <linearGradient
       inkscape:collect="always"
       xlink:href="#linearGradient1"
       id="linearGradient2"
       x1="232.4884"
       y1="23.847498"
       x2="23.977745"
       y2="232.35815"
       gradientUnits="userSpaceOnUse" />
  </defs>
  <defs
     id="defs1" />
  <sodipodi:namedview
     id="namedview3"
     pagecolor="#ffffff"
     bordercolor="#000000"
     borderopacity="0.25"
     inkscape:showpageshadow="2"
     inkscape:pageopacity="0.0"
     inkscape:pagecheckerboard="0"
     inkscape:deskcolor="#d1d1d1" />
  <path
     id="path1"
     style="baseline-shift:baseline;display:inline;overflow:visible;vector-effect:none;fill:url(#linearGradient2);stroke-linecap:round;stroke-linejoin:round;enable-background:accumulate;stop-color:#000000;stop-opacity:1;opacity:1;fill-opacity:1"
     d="M 72 24 C 63.258201 24 56 31.258201 56 40 L 56 76 C 56 81.029101 58.37711 85.783321 62.400391 88.800781 L 114.66602 128 L 62.400391 167.19922 C 58.37711 170.21668 56 174.9709 56 180 L 56 216 C 56 224.7418 63.258201 232 72 232 L 184 232 C 192.7418 232 200 224.7418 200 216 L 200 180.35938 A 8.0008 8.0008 0 0 0 200 180.35547 C 199.997 175.34873 197.63958 170.61518 193.64453 167.59766 L 193.64062 167.5957 L 141.26367 128 L 185.28516 94.703125 L 185.28711 94.703125 A 8 8 0 0 0 186.17969 94.027344 L 193.64062 88.384766 L 193.64648 88.380859 C 197.62892 85.371693 199.98441 80.655879 200 75.664062 A 8.0008 8.0008 0 0 0 200 75.640625 L 200 40 C 200 31.258201 192.7418 24 184 24 L 72 24 z M 72 40 L 184 40 L 184 75.615234 A 8.0008 8.0008 0 0 0 183.99414 75.619141 L 178.20117 80 L 77.333984 80 L 72 76 L 72 40 z M 98.667969 96 L 157.04688 96 L 127.98047 117.98438 L 98.667969 96 z M 120 144 L 120 168 A 8 8 0 0 0 128 176 A 8 8 0 0 0 136 168 L 136 144.07422 L 183.99609 180.36133 A 8.0008 8.0008 0 0 0 184 180.36523 L 184 216 L 72 216 L 72 180 L 120 144 z " />
</svg>
