<?xml version="1.0" encoding="UTF-8" standalone="no"?>
<svg
   viewBox="0 0 256 256"
   version="1.1"
   id="svg3"
   sodipodi:docname="image broken blue_green.svg"
   xmlns:inkscape="http://www.inkscape.org/namespaces/inkscape"
   xmlns:sodipodi="http://sodipodi.sourceforge.net/DTD/sodipodi-0.dtd"
   xmlns:xlink="http://www.w3.org/1999/xlink"
   xmlns="http://www.w3.org/2000/svg"
   xmlns:svg="http://www.w3.org/2000/svg">
  <defs
     id="defs3">
    <linearGradient
       id="linearGradient1"
       inkscape:collect="always">
      <stop
         style="stop-color:#0ec38bff;stop-opacity:1;"
         offset="0"
         id="stop1" />
      <stop
         style="stop-color:#4b4fe2ff;stop-opacity:1;"
         offset="0.76340693"
         id="stop2" />
    </linearGradient>
    <linearGradient
       inkscape:collect="always"
       xlink:href="#linearGradient1"
       id="linearGradient2"
       x1="232.4884"
       y1="23.847498"
       x2="23.977745"
       y2="232.35815"
       gradientUnits="userSpaceOnUse" />
  </defs>
  <defs
     id="defs1" />
  <sodipodi:namedview
     id="namedview3"
     pagecolor="#ffffff"
     bordercolor="#000000"
     borderopacity="0.25"
     inkscape:showpageshadow="2"
     inkscape:pageopacity="0.0"
     inkscape:pagecheckerboard="0"
     inkscape:deskcolor="#d1d1d1" />
  <path
     id="path1"
     style="baseline-shift:baseline;display:inline;overflow:visible;vector-effect:none;fill:url(#linearGradient2);stroke-linecap:round;stroke-linejoin:round;enable-background:accumulate;stop-color:#000000;stop-opacity:1;opacity:1;fill-opacity:1"
     d="M 40 40 C 31.258201 40 24 47.258201 24 56 L 24 168.58203 A 8 8 0 0 0 24 168.79688 L 24 200 C 24 208.7418 31.258201 216 40 216 L 104 216 A 8.0008 8.0008 0 0 0 111.58984 210.5293 L 126.41602 166.05078 L 139.45898 160.83398 L 139.46289 160.83203 A 8 8 0 0 0 139.79883 160.69727 L 162.9707 151.42773 A 8.0008 8.0008 0 0 0 167.42773 146.9707 L 182.05078 110.41602 L 226.5293 95.589844 A 8.0008 8.0008 0 0 0 232 88 L 232 56 C 232 47.258201 224.7418 40 216 40 L 40 40 z M 40 56 L 216 56 L 216 82.234375 L 173.4707 96.410156 A 8.0008 8.0008 0 0 0 168.57227 101.0293 L 153.8457 137.8457 L 138.58398 143.95117 L 103.31641 108.68359 C 100.22535 105.59093 96.11298 104.04492 92 104.04492 C 87.885657 104.04492 83.771002 105.59079 80.679688 108.68555 L 40 149.37305 L 40 56 z M 223.63672 113.69141 A 8.0008 8.0008 0 0 0 221.51758 114.0918 L 197.71875 122.03125 A 8.0008 8.0008 0 0 0 192.82031 126.65234 L 178.51367 162.46484 L 142.70312 176.77148 A 8.0008 8.0008 0 0 0 138.08203 181.66797 L 130.14062 205.46875 A 8.0008 8.0008 0 0 0 137.73047 216 L 216.05078 216 C 224.79258 216 232.05078 208.7418 232.05078 200 L 232.05078 121.67969 A 8.0008 8.0008 0 0 0 223.63672 113.69141 z M 92 119.99414 A 8.0008 8.0008 0 0 0 92.003906 119.99609 L 122.42188 150.41406 L 117.0293 152.57227 A 8.0008 8.0008 0 0 0 112.41016 157.4707 L 98.234375 200 L 40 200 L 40 172.00391 L 91.998047 119.99609 A 8.0008 8.0008 0 0 0 92 119.99414 z M 216.05078 132.7832 L 216.05078 200 L 148.83203 200 L 152.08398 190.25195 L 187.63867 176.04883 A 8.0008 8.0008 0 0 0 192.09961 171.58789 L 206.30273 136.03516 L 216.05078 132.7832 z " />
</svg>
