<?xml version="1.0" encoding="UTF-8" standalone="no"?>
<svg
   viewBox="0 0 256 256"
   version="1.1"
   id="svg3"
   sodipodi:docname="intersect three blue_green.svg"
   xmlns:inkscape="http://www.inkscape.org/namespaces/inkscape"
   xmlns:sodipodi="http://sodipodi.sourceforge.net/DTD/sodipodi-0.dtd"
   xmlns:xlink="http://www.w3.org/1999/xlink"
   xmlns="http://www.w3.org/2000/svg"
   xmlns:svg="http://www.w3.org/2000/svg">
  <defs
     id="defs3">
    <linearGradient
       id="linearGradient1"
       inkscape:collect="always">
      <stop
         style="stop-color:#0ec38bff;stop-opacity:1;"
         offset="0"
         id="stop1" />
      <stop
         style="stop-color:#4b4fe2ff;stop-opacity:1;"
         offset="0.76340693"
         id="stop2" />
    </linearGradient>
    <linearGradient
       inkscape:collect="always"
       xlink:href="#linearGradient1"
       id="linearGradient2"
       x1="232.4884"
       y1="23.847498"
       x2="23.977745"
       y2="232.35815"
       gradientUnits="userSpaceOnUse" />
  </defs>
  <defs
     id="defs1" />
  <sodipodi:namedview
     id="namedview3"
     pagecolor="#ffffff"
     bordercolor="#000000"
     borderopacity="0.25"
     inkscape:showpageshadow="2"
     inkscape:pageopacity="0.0"
     inkscape:pagecheckerboard="0"
     inkscape:deskcolor="#d1d1d1" />
  <path
     id="circle1"
     style="baseline-shift:baseline;display:inline;overflow:visible;vector-effect:none;fill:url(#linearGradient2);stroke-linecap:round;stroke-linejoin:round;enable-background:accumulate;stop-color:#000000;stop-opacity:1;opacity:1;fill-opacity:1"
     d="M 128 24 C 90.539394 24 60 54.539394 60 92 C 60 93.330637 60.039227 94.652731 60.115234 95.964844 C 38.65602 107.42097 24 130.0497 24 156 C 24 193.46061 54.539394 224 92 224 C 105.20482 224 117.54965 220.20529 128 213.65039 C 138.45035 220.20529 150.79518 224 164 224 C 201.46061 224 232 193.46061 232 156 C 232 130.0497 217.34398 107.42097 195.88477 95.964844 C 195.96077 94.652731 196 93.330637 196 92 C 196 54.539394 165.46061 24 128 24 z M 128 40 C 156.10864 40 178.86248 62.066693 179.95898 89.896484 C 174.83792 88.657577 169.49319 88 164 88 C 150.79518 88 138.45035 91.79471 128 98.349609 C 117.54965 91.794713 105.20482 88 92 88 C 86.506807 88 81.162082 88.657577 76.041016 89.896484 C 77.137515 62.066693 99.891357 40 128 40 z M 92 104 C 100.16749 104 107.88281 105.86335 114.74609 109.18945 C 107.74682 116.54975 102.37309 125.46889 99.208984 135.36133 C 88.925965 128.53819 81.235274 118.14712 77.871094 105.92578 C 82.360043 104.67056 87.099041 104 92 104 z M 164 104 C 168.90096 104 173.63996 104.67056 178.12891 105.92578 C 174.76473 118.14712 167.07403 128.53819 156.79102 135.36133 C 153.62691 125.46889 148.25318 116.54975 141.25391 109.18945 C 148.11719 105.86335 155.83251 104 164 104 z M 63.208984 112.63867 C 68.644379 129.6322 80.602016 143.75334 96.115234 152.03516 C 96.039227 153.34727 96 154.66936 96 156 C 96 174.1111 103.13836 190.60408 114.74609 202.81055 C 107.88281 206.13665 100.16749 208 92 208 C 63.186436 208 40 184.81356 40 156 C 40 137.85133 49.199282 121.93459 63.208984 112.63867 z M 192.79102 112.63867 C 206.80072 121.93459 216 137.85133 216 156 C 216 184.81356 192.81356 208 164 208 C 155.83251 208 148.11719 206.13665 141.25391 202.81055 C 152.86164 190.60408 160 174.1111 160 156 C 160 154.66936 159.96077 153.34727 159.88477 152.03516 C 175.39798 143.75334 187.35562 129.6322 192.79102 112.63867 z M 128 118.40625 C 134.6543 124.77844 139.60694 132.91249 142.12891 142.07422 C 137.63942 143.32976 132.90162 144 128 144 C 123.09838 144 118.36058 143.32976 113.87109 142.07422 C 116.39306 132.91248 121.3457 124.77844 128 118.40625 z M 112.04102 158.10352 C 117.16208 159.34242 122.50681 160 128 160 C 133.49319 160 138.83792 159.34242 143.95898 158.10352 C 143.40861 172.0724 137.40152 184.5908 128 193.59375 C 118.59847 184.5908 112.59139 172.0724 112.04102 158.10352 z " />
</svg>
