<?xml version="1.0" encoding="UTF-8" standalone="no"?>
<svg
   viewBox="0 0 256 256"
   version="1.1"
   id="svg2"
   sodipodi:docname="link simple blue_green.svg"
   xmlns:inkscape="http://www.inkscape.org/namespaces/inkscape"
   xmlns:sodipodi="http://sodipodi.sourceforge.net/DTD/sodipodi-0.dtd"
   xmlns:xlink="http://www.w3.org/1999/xlink"
   xmlns="http://www.w3.org/2000/svg"
   xmlns:svg="http://www.w3.org/2000/svg">
  <defs
     id="defs3">
    <linearGradient
       id="linearGradient1"
       inkscape:collect="always">
      <stop
         style="stop-color:#0ec38bff;stop-opacity:1;"
         offset="0"
         id="stop1" />
      <stop
         style="stop-color:#4b4fe2ff;stop-opacity:1;"
         offset="0.76340693"
         id="stop2" />
    </linearGradient>
    <linearGradient
       inkscape:collect="always"
       xlink:href="#linearGradient1"
       id="linearGradient2"
       x1="232.4884"
       y1="23.847498"
       x2="23.977745"
       y2="232.35815"
       gradientUnits="userSpaceOnUse" />
  </defs>
  <defs
     id="defs2" />
  <sodipodi:namedview
     id="namedview2"
     pagecolor="#ffffff"
     bordercolor="#000000"
     borderopacity="0.25"
     inkscape:showpageshadow="2"
     inkscape:pageopacity="0.0"
     inkscape:pagecheckerboard="0"
     inkscape:deskcolor="#d1d1d1" />
  <path
     id="line1"
     style="baseline-shift:baseline;display:inline;overflow:visible;vector-effect:none;fill:url(#linearGradient2);stroke-linecap:round;stroke-linejoin:round;enable-background:accumulate;stop-color:#000000;stop-opacity:1;opacity:1;fill-opacity:1"
     d="M 175.95117 24.375 C 161.67466 24.31686 147.37624 29.657721 136.44922 40.408203 A 8.0008 8.0008 0 0 0 136.4082 40.447266 L 106.34961 70.447266 A 8 8 0 0 0 106.33789 81.761719 A 8 8 0 0 0 117.65039 81.773438 L 147.66992 51.8125 L 147.67969 51.804688 C 163.40316 36.344805 188.41441 36.449569 204.00781 52.042969 C 219.60423 67.639385 219.70522 92.655974 204.23633 108.37891 L 174.22852 138.33789 A 8 8 0 0 0 174.21875 149.65234 A 8 8 0 0 0 185.53125 149.66211 L 215.5918 119.65234 A 8.0008 8.0008 0 0 0 215.64258 119.60156 C 237.14348 97.747302 237.00047 62.406724 215.32227 40.728516 C 204.48316 29.889411 190.22768 24.433138 175.95117 24.375 z M 160 88 A 8 8 0 0 0 154.34375 90.34375 L 90.34375 154.34375 A 8 8 0 0 0 90.34375 165.65625 A 8 8 0 0 0 101.65625 165.65625 L 165.65625 101.65625 A 8 8 0 0 0 165.65625 90.34375 A 8 8 0 0 0 160 88 z M 76.101562 104 A 8 8 0 0 0 70.447266 106.34961 L 40.447266 136.4082 A 8.0008 8.0008 0 0 0 40.408203 136.44922 C 18.907238 158.30326 19.050307 193.64406 40.728516 215.32227 C 62.406724 237.00047 97.747524 237.14354 119.60156 215.64258 A 8.0008 8.0008 0 0 0 119.65234 215.5918 L 149.66211 185.53125 A 8 8 0 0 0 149.65234 174.21875 A 8 8 0 0 0 138.33789 174.22852 L 108.37891 204.23633 C 92.655974 219.70522 67.639385 219.60423 52.042969 204.00781 C 36.449569 188.41441 36.344805 163.40316 51.804688 147.67969 L 51.806641 147.67773 L 51.808594 147.67578 C 51.809194 147.67491 51.811863 147.67077 51.8125 147.66992 L 81.773438 117.65039 A 8 8 0 0 0 81.761719 106.33789 A 8 8 0 0 0 76.101562 104 z " />
</svg>
