<?xml version="1.0" encoding="UTF-8" standalone="no"?>
<svg
   viewBox="0 0 256 256"
   version="1.1"
   id="svg2"
   sodipodi:docname="magnifying glass minus blue_green.svg"
   xmlns:inkscape="http://www.inkscape.org/namespaces/inkscape"
   xmlns:sodipodi="http://sodipodi.sourceforge.net/DTD/sodipodi-0.dtd"
   xmlns:xlink="http://www.w3.org/1999/xlink"
   xmlns="http://www.w3.org/2000/svg"
   xmlns:svg="http://www.w3.org/2000/svg">
  <defs
     id="defs3">
    <linearGradient
       id="linearGradient1"
       inkscape:collect="always">
      <stop
         style="stop-color:#0ec38bff;stop-opacity:1;"
         offset="0"
         id="stop1" />
      <stop
         style="stop-color:#4b4fe2ff;stop-opacity:1;"
         offset="0.76340693"
         id="stop2" />
    </linearGradient>
    <linearGradient
       inkscape:collect="always"
       xlink:href="#linearGradient1"
       id="linearGradient2"
       x1="232.4884"
       y1="23.847498"
       x2="23.977745"
       y2="232.35815"
       gradientUnits="userSpaceOnUse" />
  </defs>
  <defs
     id="defs2" />
  <sodipodi:namedview
     id="namedview2"
     pagecolor="#ffffff"
     bordercolor="#000000"
     borderopacity="0.25"
     inkscape:showpageshadow="2"
     inkscape:pageopacity="0.0"
     inkscape:pagecheckerboard="0"
     inkscape:deskcolor="#d1d1d1" />
  <path
     id="line1"
     style="baseline-shift:baseline;display:inline;overflow:visible;vector-effect:none;fill:url(#linearGradient2);stroke-linecap:round;stroke-linejoin:round;enable-background:accumulate;stop-color:#000000;stop-opacity:1;opacity:1;fill-opacity:1"
     d="M 112 24 C 63.493699 24 24 63.493699 24 112 C 24 160.5063 63.493699 200 112 200 C 133.38063 200 153.01108 192.32772 168.2793 179.5918 L 218.34375 229.65625 A 8 8 0 0 0 229.65625 229.65625 A 8 8 0 0 0 229.65625 218.34375 L 179.5918 168.2793 C 192.32772 153.01108 200 133.38063 200 112 C 200 63.493699 160.5063 24 112 24 z M 112 40 C 151.85926 40 184 72.140741 184 112 C 184 131.63312 176.2026 149.39398 163.52539 162.36328 A 8 8 0 0 0 162.91406 162.91406 A 8 8 0 0 0 162.36328 163.52344 C 149.39388 176.20128 131.63368 184 112 184 C 72.140741 184 40 151.85926 40 112 C 40 72.140741 72.140741 40 112 40 z M 80 104 A 8 8 0 0 0 72 112 A 8 8 0 0 0 80 120 L 144 120 A 8 8 0 0 0 152 112 A 8 8 0 0 0 144 104 L 80 104 z " />
</svg>
