<?xml version="1.0" encoding="UTF-8" standalone="no"?>
<svg
   viewBox="0 0 256 256"
   version="1.1"
   id="svg2"
   sodipodi:docname="magnet straight blue_green.svg"
   xmlns:inkscape="http://www.inkscape.org/namespaces/inkscape"
   xmlns:sodipodi="http://sodipodi.sourceforge.net/DTD/sodipodi-0.dtd"
   xmlns:xlink="http://www.w3.org/1999/xlink"
   xmlns="http://www.w3.org/2000/svg"
   xmlns:svg="http://www.w3.org/2000/svg">
  <defs
     id="defs3">
    <linearGradient
       id="linearGradient1"
       inkscape:collect="always">
      <stop
         style="stop-color:#0ec38bff;stop-opacity:1;"
         offset="0"
         id="stop1" />
      <stop
         style="stop-color:#4b4fe2ff;stop-opacity:1;"
         offset="0.76340693"
         id="stop2" />
    </linearGradient>
    <linearGradient
       inkscape:collect="always"
       xlink:href="#linearGradient1"
       id="linearGradient2"
       x1="232.4884"
       y1="23.847498"
       x2="23.977745"
       y2="232.35815"
       gradientUnits="userSpaceOnUse" />
  </defs>
  <defs
     id="defs2" />
  <sodipodi:namedview
     id="namedview2"
     pagecolor="#ffffff"
     bordercolor="#000000"
     borderopacity="0.25"
     inkscape:showpageshadow="2"
     inkscape:pageopacity="0.0"
     inkscape:pagecheckerboard="0"
     inkscape:deskcolor="#d1d1d1" />
  <path
     id="line1"
     style="baseline-shift:baseline;display:inline;overflow:visible;vector-effect:none;fill:url(#linearGradient2);stroke-linecap:round;stroke-linejoin:round;enable-background:accumulate;stop-color:#000000;stop-opacity:1;opacity:1;fill-opacity:1"
     d="M 56 40 C 47.258201 40 40 47.258201 40 56 L 40 96 L 40 144 C 39.9986 192.76727 79.90602 232.37185 128.67188 232 C 177.16914 231.63609 216 191.37504 216 143 L 216 96 L 216 56 C 216 47.258201 208.7418 40 200 40 L 160 40 C 151.2582 40 144 47.258201 144 56 L 144 96 L 144 144 C 144 152.93132 136.93132 160 128 160 C 119.06868 160 112 152.93132 112 144 L 112 96 L 112 56 C 112 47.258201 104.7418 40 96 40 L 56 40 z M 56 56 L 96 56 L 96 88 L 56 88 L 56 56 z M 160 56 L 200 56 L 200 88 L 160 88 L 160 56 z M 56 104 L 96 104 L 96 144 C 96 161.57836 110.42165 176 128 176 C 145.57835 176 160 161.57836 160 144 L 160 104 L 200 104 L 200 143 C 200 182.8443 168.2726 215.70283 128.55078 216 A 8.0008 8.0008 0 0 0 128.54883 216 C 88.473105 216.30559 55.998835 184.07693 56 144 L 56 104 z " />
</svg>
