<?xml version="1.0" encoding="UTF-8" standalone="no"?>
<svg
   viewBox="0 0 256 256"
   version="1.1"
   id="svg2"
   sodipodi:docname="magnet blue_green.svg"
   xmlns:inkscape="http://www.inkscape.org/namespaces/inkscape"
   xmlns:sodipodi="http://sodipodi.sourceforge.net/DTD/sodipodi-0.dtd"
   xmlns:xlink="http://www.w3.org/1999/xlink"
   xmlns="http://www.w3.org/2000/svg"
   xmlns:svg="http://www.w3.org/2000/svg">
  <defs
     id="defs3">
    <linearGradient
       id="linearGradient1"
       inkscape:collect="always">
      <stop
         style="stop-color:#0ec38bff;stop-opacity:1;"
         offset="0"
         id="stop1" />
      <stop
         style="stop-color:#4b4fe2ff;stop-opacity:1;"
         offset="0.76340693"
         id="stop2" />
    </linearGradient>
    <linearGradient
       inkscape:collect="always"
       xlink:href="#linearGradient1"
       id="linearGradient2"
       x1="232.4884"
       y1="23.847498"
       x2="23.977745"
       y2="232.35815"
       gradientUnits="userSpaceOnUse" />
  </defs>
  <defs
     id="defs2" />
  <sodipodi:namedview
     id="namedview2"
     pagecolor="#ffffff"
     bordercolor="#000000"
     borderopacity="0.25"
     inkscape:showpageshadow="2"
     inkscape:pageopacity="0.0"
     inkscape:pagecheckerboard="0"
     inkscape:deskcolor="#d1d1d1" />
  <path
     id="path1"
     style="baseline-shift:baseline;display:inline;overflow:visible;vector-effect:none;fill:url(#linearGradient2);stroke-linecap:round;stroke-linejoin:round;enable-background:accumulate;stop-color:#000000;stop-opacity:1;opacity:1;fill-opacity:1"
     d="M 144.59375 24.046875 C 121.94985 23.961145 99.274427 32.530321 82.033203 49.773438 A 8.0008 8.0008 0 0 0 81.998047 49.808594 L 20.617188 111.97852 C 14.499523 118.16986 14.528507 128.37818 20.681641 134.53516 A 8.0008 8.0008 0 0 0 20.683594 134.53711 L 49.34375 163.19727 A 8.0008 8.0008 0 0 0 49.34375 163.19922 C 55.568975 169.42102 65.92477 169.3653 72.083984 163.07812 A 8.0008 8.0008 0 0 0 72.097656 163.06445 L 100.96094 133.46289 L 100.96484 133.45898 A 8 8 0 0 0 101.2168 133.2168 A 8 8 0 0 0 101.58594 132.82031 A 8 8 0 0 0 101.59375 132.8125 L 132.94727 100.65625 C 139.17253 94.429035 149.00718 94.331757 155.35352 100.43555 C 161.7418 106.59988 161.61308 117.22825 155.20508 123.65039 L 92.978516 183.84961 A 8.0008 8.0008 0 0 0 92.966797 183.86133 C 86.629566 190.01494 86.556396 200.41821 92.806641 206.66016 L 121.46289 235.31641 A 8.0008 8.0008 0 0 0 121.46484 235.31836 C 127.60821 241.45822 137.78672 241.50304 143.98438 235.41797 L 143.97656 235.42773 L 205.7168 174.99805 A 8.0008 8.0008 0 0 0 205.77734 174.9375 C 239.98389 140.73082 240.99931 84.793346 206.95898 50.246094 C 189.84882 32.872916 167.23765 24.13261 144.59375 24.046875 z M 144.53516 39.943359 C 163.03091 40.013389 181.49942 47.195378 195.56055 61.472656 A 8.0008 8.0008 0 0 0 195.5625 61.474609 C 223.43752 89.763794 222.63522 135.43719 194.47266 163.61133 C 194.46966 163.61433 194.46533 163.62017 194.46289 163.62305 L 168.42383 189.10938 L 139.9668 160.6543 L 166.41211 135.07031 A 8.0008 8.0008 0 0 0 166.50781 134.97656 C 179.10499 122.37938 179.4324 101.42254 166.45117 88.910156 A 8.0008 8.0008 0 0 0 166.44531 88.904297 C 153.94603 76.882001 133.8942 77.078521 121.63281 89.34375 A 8.0008 8.0008 0 0 0 121.5625 89.416016 L 95.480469 116.16602 L 67.042969 87.728516 L 93.347656 61.085938 L 93.351562 61.082031 C 107.51995 46.914362 126.04112 39.873337 144.53516 39.943359 z M 55.800781 99.115234 L 84.308594 127.62305 L 60.65625 151.88086 L 60.654297 151.88086 L 31.998047 123.22461 A 8.0008 8.0008 0 0 0 32.001953 123.2207 L 55.800781 99.115234 z M 128.4668 171.7793 L 156.98828 200.30273 L 132.7832 223.99219 A 8.0008 8.0008 0 0 0 132.77539 224.00195 L 104.11719 195.34375 A 8.0008 8.0008 0 0 0 104.11328 195.33984 L 128.4668 171.7793 z " />
</svg>
