<?xml version="1.0" encoding="UTF-8" standalone="no"?>
<svg
   viewBox="0 0 256 256"
   version="1.1"
   id="svg1"
   sodipodi:docname="map pin simple area blue_green.svg"
   xmlns:inkscape="http://www.inkscape.org/namespaces/inkscape"
   xmlns:sodipodi="http://sodipodi.sourceforge.net/DTD/sodipodi-0.dtd"
   xmlns:xlink="http://www.w3.org/1999/xlink"
   xmlns="http://www.w3.org/2000/svg"
   xmlns:svg="http://www.w3.org/2000/svg">
  <defs
     id="defs3">
    <linearGradient
       id="linearGradient1"
       inkscape:collect="always">
      <stop
         style="stop-color:#0ec38bff;stop-opacity:1;"
         offset="0"
         id="stop1" />
      <stop
         style="stop-color:#4b4fe2ff;stop-opacity:1;"
         offset="0.76340693"
         id="stop2" />
    </linearGradient>
    <linearGradient
       inkscape:collect="always"
       xlink:href="#linearGradient1"
       id="linearGradient2"
       x1="232.4884"
       y1="23.847498"
       x2="23.977745"
       y2="232.35815"
       gradientUnits="userSpaceOnUse" />
  </defs>
  <defs
     id="defs1" />
  <sodipodi:namedview
     id="namedview1"
     pagecolor="#ffffff"
     bordercolor="#000000"
     borderopacity="0.25"
     inkscape:showpageshadow="2"
     inkscape:pageopacity="0.0"
     inkscape:pagecheckerboard="0"
     inkscape:deskcolor="#d1d1d1" />
  <path
     id="circle1"
     style="baseline-shift:baseline;display:inline;overflow:visible;vector-effect:none;fill:url(#linearGradient2);stroke-linecap:round;stroke-linejoin:round;enable-background:accumulate;stop-color:#000000;stop-opacity:1;opacity:1;fill-opacity:1"
     d="M 128 24 C 106.00337 24 88 42.003367 88 64 C 88 83.259116 101.80111 99.457967 120 103.19141 L 120 176 A 8 8 0 0 0 128 184 A 8 8 0 0 0 136 176 L 136 103.19141 C 154.19889 99.457967 168 83.259116 168 64 C 168 42.003367 149.99663 24 128 24 z M 128 40 C 141.34959 40 152 50.650409 152 64 C 152 77.349591 141.34959 88 128 88 C 114.65041 88 104 77.349591 104 64 C 104 50.650409 114.65041 40 128 40 z M 87.775391 131.07227 A 8 8 0 0 0 86.734375 131.16992 C 67.258663 134.28977 50.507123 139.48978 37.964844 146.5918 C 25.422564 153.69382 16 163.44603 16 176 C 16 184.33282 20.455259 191.72684 26.791016 197.48828 C 33.126773 203.24972 41.541627 207.8859 51.587891 211.75 C 71.680417 219.4782 98.448524 224 128 224 C 157.55148 224 184.31958 219.4782 204.41211 211.75 C 214.45837 207.8859 222.87323 203.24972 229.20898 197.48828 C 235.54474 191.72684 240 184.33282 240 176 C 240 163.44603 230.57818 153.6892 218.03516 146.58398 C 205.49213 139.47877 188.73993 134.2798 169.26172 131.16992 A 8 8 0 0 0 160.09961 137.80859 A 8 8 0 0 0 166.73828 146.9707 C 184.84007 149.86082 200.08842 154.80608 210.15039 160.50586 C 220.21236 166.20564 224 171.91397 224 176 C 224 178.71218 222.63456 181.84089 218.44531 185.65039 C 214.25607 189.45989 207.44171 193.44176 198.66797 196.81641 C 181.1205 203.5657 155.88852 208 128 208 C 100.11148 208 74.879504 203.5657 57.332031 196.81641 C 48.558295 193.44176 41.74393 189.45989 37.554688 185.65039 C 33.365445 181.84089 32 178.71218 32 176 C 32 171.91397 35.786889 166.21165 45.849609 160.51367 C 55.91233 154.81569 71.161337 149.8689 89.265625 146.96875 A 8 8 0 0 0 95.898438 137.80469 A 8 8 0 0 0 87.775391 131.07227 z " />
</svg>
