<?xml version="1.0" encoding="UTF-8" standalone="no"?>
<svg
   viewBox="0 0 256 256"
   version="1.1"
   id="svg5"
   sodipodi:docname="mouse right click blue_green.svg"
   xmlns:inkscape="http://www.inkscape.org/namespaces/inkscape"
   xmlns:sodipodi="http://sodipodi.sourceforge.net/DTD/sodipodi-0.dtd"
   xmlns:xlink="http://www.w3.org/1999/xlink"
   xmlns="http://www.w3.org/2000/svg"
   xmlns:svg="http://www.w3.org/2000/svg">
  <defs
     id="defs3">
    <linearGradient
       id="linearGradient1"
       inkscape:collect="always">
      <stop
         style="stop-color:#0ec38bff;stop-opacity:1;"
         offset="0"
         id="stop1" />
      <stop
         style="stop-color:#4b4fe2ff;stop-opacity:1;"
         offset="0.76340693"
         id="stop2" />
    </linearGradient>
    <linearGradient
       inkscape:collect="always"
       xlink:href="#linearGradient1"
       id="linearGradient2"
       x1="232.4884"
       y1="23.847498"
       x2="23.977745"
       y2="232.35815"
       gradientUnits="userSpaceOnUse" />
  </defs>
  <defs
     id="defs5" />
  <sodipodi:namedview
     id="namedview5"
     pagecolor="#ffffff"
     bordercolor="#000000"
     borderopacity="0.25"
     inkscape:showpageshadow="2"
     inkscape:pageopacity="0.0"
     inkscape:pagecheckerboard="0"
     inkscape:deskcolor="#d1d1d1" />
  <path
     id="rect2"
     style="baseline-shift:baseline;display:inline;overflow:visible;vector-effect:none;fill:url(#linearGradient2);stroke-linecap:round;stroke-linejoin:round;enable-background:accumulate;stop-color:#000000;stop-opacity:1;opacity:1;fill-opacity:1"
     d="M 112 16 C 76.682378 16 48 44.682378 48 80 L 48 176 C 48 211.31762 76.682378 240 112 240 L 144 240 C 179.31762 240 208 211.31762 208 176 L 208 80 C 208 71.902109 206.49225 64.153993 203.74219 57.019531 C 203.70543 56.924167 203.66806 56.827566 203.63086 56.732422 C 198.84919 44.50348 190.41179 34.099339 179.66602 26.867188 A 8 8 0 0 0 178.70898 26.236328 C 168.70706 19.761362 156.78877 16 144 16 L 112 16 z M 112 32 L 120 32 L 120 104 L 64 104 L 64 80 C 64 53.269622 85.269622 32 112 32 z M 136 32 L 144 32 C 150.18042 32 156.06955 33.136117 161.4707 35.214844 L 136 60.6875 L 136 32 z M 175.59961 43.714844 C 180.16146 47.681551 183.95381 52.504242 186.73828 57.947266 L 140.6875 104 L 136 104 L 136 83.3125 L 175.59961 43.714844 z M 191.79883 75.515625 C 191.93229 76.990979 192 78.486777 192 80 L 192 104 L 163.3125 104 L 191.79883 75.515625 z M 64 120 L 192 120 L 192 176 C 192 202.73038 170.73038 224 144 224 L 112 224 C 85.269622 224 64 202.73038 64 176 L 64 120 z " />
</svg>
