<?xml version="1.0" encoding="UTF-8" standalone="no"?>
<svg
   viewBox="0 0 256 256"
   version="1.1"
   id="svg1"
   sodipodi:docname="number two blue_green.svg"
   xmlns:inkscape="http://www.inkscape.org/namespaces/inkscape"
   xmlns:sodipodi="http://sodipodi.sourceforge.net/DTD/sodipodi-0.dtd"
   xmlns:xlink="http://www.w3.org/1999/xlink"
   xmlns="http://www.w3.org/2000/svg"
   xmlns:svg="http://www.w3.org/2000/svg">
  <defs
     id="defs3">
    <linearGradient
       id="linearGradient1"
       inkscape:collect="always">
      <stop
         style="stop-color:#0ec38bff;stop-opacity:1;"
         offset="0"
         id="stop1" />
      <stop
         style="stop-color:#4b4fe2ff;stop-opacity:1;"
         offset="0.76340693"
         id="stop2" />
    </linearGradient>
    <linearGradient
       inkscape:collect="always"
       xlink:href="#linearGradient1"
       id="linearGradient2"
       x1="232.4884"
       y1="23.847498"
       x2="23.977745"
       y2="232.35815"
       gradientUnits="userSpaceOnUse" />
  </defs>
  <defs
     id="defs1" />
  <sodipodi:namedview
     id="namedview1"
     pagecolor="#ffffff"
     bordercolor="#000000"
     borderopacity="0.25"
     inkscape:showpageshadow="2"
     inkscape:pageopacity="0.0"
     inkscape:pagecheckerboard="0"
     inkscape:deskcolor="#d1d1d1" />
  <path
     id="path1"
     style="baseline-shift:baseline;display:inline;overflow:visible;vector-effect:none;fill:url(#linearGradient2);stroke-linecap:round;stroke-linejoin:round;enable-background:accumulate;stop-color:#000000;stop-opacity:1;opacity:1;fill-opacity:1"
     d="M 127.74219 40.048828 C 109.47872 40.211333 91.86448 50.783092 83.998047 68.798828 A 8 8 0 0 0 88.128906 79.332031 A 8 8 0 0 0 98.662109 75.201172 C 106.37999 57.525661 127.47032 50.646288 144.125 60.373047 C 160.77968 70.099805 165.15173 91.851264 153.54883 107.25781 A 8.0008 8.0008 0 0 0 153.53906 107.26953 L 81.599609 203.20117 A 8.0008 8.0008 0 0 0 88 216 L 168 216 A 8 8 0 0 0 176 208 A 8 8 0 0 0 168 200 L 103.99805 200 L 166.33008 116.88281 L 166.33398 116.87695 C 183.53039 94.036277 176.88453 60.975778 152.19531 46.556641 C 144.47929 42.050285 136.04376 39.974962 127.74219 40.048828 z " />
</svg>
