<?xml version="1.0" encoding="UTF-8" standalone="no"?>
<svg
   viewBox="0 0 256 256"
   version="1.1"
   id="svg2"
   sodipodi:docname="paint brush broad blue_green.svg"
   xmlns:inkscape="http://www.inkscape.org/namespaces/inkscape"
   xmlns:sodipodi="http://sodipodi.sourceforge.net/DTD/sodipodi-0.dtd"
   xmlns:xlink="http://www.w3.org/1999/xlink"
   xmlns="http://www.w3.org/2000/svg"
   xmlns:svg="http://www.w3.org/2000/svg">
  <defs
     id="defs3">
    <linearGradient
       id="linearGradient1"
       inkscape:collect="always">
      <stop
         style="stop-color:#0ec38bff;stop-opacity:1;"
         offset="0"
         id="stop1" />
      <stop
         style="stop-color:#4b4fe2ff;stop-opacity:1;"
         offset="0.76340693"
         id="stop2" />
    </linearGradient>
    <linearGradient
       inkscape:collect="always"
       xlink:href="#linearGradient1"
       id="linearGradient2"
       x1="232.4884"
       y1="23.847498"
       x2="23.977745"
       y2="232.35815"
       gradientUnits="userSpaceOnUse" />
  </defs>
  <defs
     id="defs2" />
  <sodipodi:namedview
     id="namedview2"
     pagecolor="#ffffff"
     bordercolor="#000000"
     borderopacity="0.25"
     inkscape:showpageshadow="2"
     inkscape:pageopacity="0.0"
     inkscape:pagecheckerboard="0"
     inkscape:deskcolor="#d1d1d1" />
  <path
     id="line1"
     style="baseline-shift:baseline;display:inline;overflow:visible;vector-effect:none;fill:url(#linearGradient2);stroke-linecap:round;stroke-linejoin:round;enable-background:accumulate;stop-color:#000000;stop-opacity:1;opacity:1;fill-opacity:1"
     d="M 72 24 C 50.003367 24 32 42.003367 32 64 L 32 136 C 32 149.16008 42.839923 160 56 160 L 103.99609 160 L 96.111328 206.66797 A 8.0008 8.0008 0 0 0 96 208 C 96 225.57836 110.42165 240 128 240 C 145.57835 240 160 225.57836 160 208 A 8.0008 8.0008 0 0 0 159.88867 206.66797 L 152.00391 160 L 200 160 C 213.16008 160 224 149.16008 224 136 L 224 32 A 8.0008 8.0008 0 0 0 216 24 L 184 24 L 72 24 z M 72 40 L 176 40 L 176 80 A 8 8 0 0 0 184 88 A 8 8 0 0 0 192 80 L 192 40 L 208 40 L 208 104 L 48 104 L 48 64 C 48 50.650409 58.650409 40 72 40 z M 48 120 L 208 120 L 208 136 C 208 140.51304 204.51304 144 200 144 L 152 144 C 142.40879 143.99975 134.8054 152.76472 136.16016 162.25977 A 8.0008 8.0008 0 0 0 136.19141 162.46289 L 143.95898 208.42578 C 143.73286 217.14963 136.78518 224 128 224 C 119.21482 224 112.26719 217.14963 112.04102 208.42578 L 119.80859 162.46289 A 8.0008 8.0008 0 0 0 119.83984 162.25977 C 121.19465 152.76472 113.59121 143.99975 104 144 L 56 144 C 51.486965 144 48 140.51304 48 136 L 48 120 z " />
</svg>
