<?xml version="1.0" encoding="UTF-8" standalone="no"?>
<svg
   viewBox="0 0 256 256"
   version="1.1"
   id="svg1"
   sodipodi:docname="paper plane blue_green.svg"
   xmlns:inkscape="http://www.inkscape.org/namespaces/inkscape"
   xmlns:sodipodi="http://sodipodi.sourceforge.net/DTD/sodipodi-0.dtd"
   xmlns:xlink="http://www.w3.org/1999/xlink"
   xmlns="http://www.w3.org/2000/svg"
   xmlns:svg="http://www.w3.org/2000/svg">
  <defs
     id="defs3">
    <linearGradient
       id="linearGradient1"
       inkscape:collect="always">
      <stop
         style="stop-color:#0ec38bff;stop-opacity:1;"
         offset="0"
         id="stop1" />
      <stop
         style="stop-color:#4b4fe2ff;stop-opacity:1;"
         offset="0.76340693"
         id="stop2" />
    </linearGradient>
    <linearGradient
       inkscape:collect="always"
       xlink:href="#linearGradient1"
       id="linearGradient2"
       x1="232.4884"
       y1="23.847498"
       x2="23.977745"
       y2="232.35815"
       gradientUnits="userSpaceOnUse" />
  </defs>
  <defs
     id="defs1" />
  <sodipodi:namedview
     id="namedview1"
     pagecolor="#ffffff"
     bordercolor="#000000"
     borderopacity="0.25"
     inkscape:showpageshadow="2"
     inkscape:pageopacity="0.0"
     inkscape:pagecheckerboard="0"
     inkscape:deskcolor="#d1d1d1" />
  <path
     id="line1"
     style="baseline-shift:baseline;display:inline;overflow:visible;vector-effect:none;fill:url(#linearGradient2);stroke-linecap:round;stroke-linejoin:round;enable-background:accumulate;stop-color:#000000;stop-opacity:1;opacity:1;fill-opacity:1"
     d="M 127.91016 24.216797 C 122.38247 24.216797 116.85565 26.876997 113.91211 32.195312 L 113.96094 32.105469 L 18.111328 200.10547 A 8.0008 8.0008 0 0 0 18.078125 200.16406 C 14.660793 206.2742 15.900317 213.66486 19.822266 218.30469 C 23.728387 222.92578 30.766762 225.37634 37.337891 223.07227 L 37.291016 223.08984 L 128 192.44531 L 218.67188 223.07422 C 225.24016 225.40698 232.30294 222.9731 236.22461 218.35742 C 240.17481 213.70821 241.42401 206.27367 237.96875 200.14258 A 8.0008 8.0008 0 0 0 237.94531 200.09766 L 141.91016 32.197266 C 138.96689 26.87763 133.43852 24.216797 127.91016 24.216797 z M 127.91016 39.943359 A 8.0008 8.0008 0 0 0 127.96484 40.041016 L 224.0293 207.99805 A 8.0008 8.0008 0 0 0 223.83984 207.93164 L 136 178.25781 L 136 120 A 8 8 0 0 0 128 112 A 8 8 0 0 0 120 120 L 120 178.25781 L 32.169922 207.93164 A 8.0008 8.0008 0 0 0 32.042969 207.97461 L 127.85938 40.035156 A 8.0008 8.0008 0 0 0 127.91016 39.943359 z " />
</svg>
