<?xml version="1.0" encoding="UTF-8" standalone="no"?>
<svg
   viewBox="0 0 256 256"
   version="1.1"
   id="svg1"
   sodipodi:docname="paperclip blue_green.svg"
   xmlns:inkscape="http://www.inkscape.org/namespaces/inkscape"
   xmlns:sodipodi="http://sodipodi.sourceforge.net/DTD/sodipodi-0.dtd"
   xmlns:xlink="http://www.w3.org/1999/xlink"
   xmlns="http://www.w3.org/2000/svg"
   xmlns:svg="http://www.w3.org/2000/svg">
  <defs
     id="defs3">
    <linearGradient
       id="linearGradient1"
       inkscape:collect="always">
      <stop
         style="stop-color:#0ec38bff;stop-opacity:1;"
         offset="0"
         id="stop1" />
      <stop
         style="stop-color:#4b4fe2ff;stop-opacity:1;"
         offset="0.76340693"
         id="stop2" />
    </linearGradient>
    <linearGradient
       inkscape:collect="always"
       xlink:href="#linearGradient1"
       id="linearGradient2"
       x1="232.4884"
       y1="23.847498"
       x2="23.977745"
       y2="232.35815"
       gradientUnits="userSpaceOnUse" />
  </defs>
  <defs
     id="defs1" />
  <sodipodi:namedview
     id="namedview1"
     pagecolor="#ffffff"
     bordercolor="#000000"
     borderopacity="0.25"
     inkscape:showpageshadow="2"
     inkscape:pageopacity="0.0"
     inkscape:pagecheckerboard="0"
     inkscape:deskcolor="#d1d1d1" />
  <path
     id="path1"
     style="baseline-shift:baseline;display:inline;overflow:visible;vector-effect:none;fill:url(#linearGradient2);stroke-linecap:round;stroke-linejoin:round;enable-background:accumulate;stop-color:#000000;stop-opacity:1;opacity:1;fill-opacity:1"
     d="M 176 24.046875 C 165.74542 24.046871 155.49059 27.93519 147.71289 35.712891 A 8.0008 8.0008 0 0 0 147.67383 35.751953 L 48.363281 136.44141 A 8.0008 8.0008 0 0 0 48.357422 136.44922 C 26.856457 158.30326 26.999526 193.64406 48.677734 215.32227 C 70.355943 237.00047 105.69674 237.14354 127.55078 215.64258 A 8.0008 8.0008 0 0 0 127.5918 215.60156 L 209.65234 133.66016 A 8 8 0 0 0 209.66016 122.34766 A 8 8 0 0 0 198.34766 122.33984 L 116.33008 204.23633 C 100.60704 219.70519 75.588601 219.60423 59.992188 204.00781 C 44.398421 188.41405 44.294879 163.40114 59.755859 147.67773 L 59.763672 147.66992 L 159.02734 47.027344 L 159.0293 47.025391 C 168.47045 37.586358 183.5323 37.586942 192.97266 47.027344 C 202.41367 56.468362 202.41368 71.531633 192.97266 80.972656 A 8.0008 8.0008 0 0 0 192.93359 81.011719 L 93.736328 181.57812 C 90.535145 184.67995 85.669464 184.6446 82.515625 181.49219 C 79.36004 178.338 79.322139 173.46812 82.427734 170.26562 L 82.427734 170.26367 L 82.429688 170.26367 L 82.429688 170.26172 L 165.70312 85.609375 A 8 8 0 0 0 165.60938 74.296875 A 8 8 0 0 0 154.29688 74.390625 L 70.986328 159.08008 A 8.0008 8.0008 0 0 0 70.949219 159.11719 C 61.87502 168.46471 61.989225 183.59876 71.203125 192.80859 C 80.417025 202.01842 95.551028 202.12519 104.89453 193.04688 A 8.0008 8.0008 0 0 0 105.01562 192.92773 L 204.28711 92.287109 C 219.84251 76.731708 219.8425 51.26828 204.28711 35.712891 C 196.50941 27.935196 186.25458 24.046879 176 24.046875 z " />
</svg>
