<?xml version="1.0" encoding="UTF-8" standalone="no"?>
<svg
   viewBox="0 0 256 256"
   version="1.1"
   id="svg2"
   sodipodi:docname="pen nib blue_green.svg"
   xmlns:inkscape="http://www.inkscape.org/namespaces/inkscape"
   xmlns:sodipodi="http://sodipodi.sourceforge.net/DTD/sodipodi-0.dtd"
   xmlns:xlink="http://www.w3.org/1999/xlink"
   xmlns="http://www.w3.org/2000/svg"
   xmlns:svg="http://www.w3.org/2000/svg">
  <defs
     id="defs3">
    <linearGradient
       id="linearGradient1"
       inkscape:collect="always">
      <stop
         style="stop-color:#0ec38bff;stop-opacity:1;"
         offset="0"
         id="stop1" />
      <stop
         style="stop-color:#4b4fe2ff;stop-opacity:1;"
         offset="0.76340693"
         id="stop2" />
    </linearGradient>
    <linearGradient
       inkscape:collect="always"
       xlink:href="#linearGradient1"
       id="linearGradient2"
       x1="232.4884"
       y1="23.847498"
       x2="23.977745"
       y2="232.35815"
       gradientUnits="userSpaceOnUse" />
  </defs>
  <defs
     id="defs2" />
  <sodipodi:namedview
     id="namedview2"
     pagecolor="#ffffff"
     bordercolor="#000000"
     borderopacity="0.25"
     inkscape:showpageshadow="2"
     inkscape:pageopacity="0.0"
     inkscape:pagecheckerboard="0"
     inkscape:deskcolor="#d1d1d1" />
  <path
     id="circle1"
     style="baseline-shift:baseline;display:inline;overflow:visible;vector-effect:none;fill:url(#linearGradient2);stroke-linecap:round;stroke-linejoin:round;enable-background:accumulate;stop-color:#000000;stop-opacity:1;opacity:1;fill-opacity:1"
     d="M 163.3457 8.0488281 C 159.23587 8.0488281 155.12548 9.5933389 152.03516 12.681641 L 123.56836 41.119141 L 65.511719 62.888672 A 8.0008 8.0008 0 0 0 65.509766 62.890625 C 60.175846 64.891903 56.289718 69.61151 55.349609 75.230469 A 8.0008 8.0008 0 0 0 55.349609 75.234375 L 32.109375 214.68555 A 8.0008 8.0008 0 0 0 32.087891 214.91016 A 8 8 0 0 0 32.068359 215.10547 A 8.0008 8.0008 0 0 0 32.011719 215.9668 A 8 8 0 0 0 32.017578 216.13281 A 8.0008 8.0008 0 0 0 32.076172 217.01758 A 8 8 0 0 0 32.103516 217.16992 A 8.0008 8.0008 0 0 0 32.28125 218.06641 A 8 8 0 0 0 32.294922 218.10742 A 8.0008 8.0008 0 0 0 36.119141 222.98828 A 8 8 0 0 0 36.328125 223.08984 A 8.0008 8.0008 0 0 0 37.105469 223.45312 A 8 8 0 0 0 37.519531 223.58594 A 8.0008 8.0008 0 0 0 38.148438 223.77734 A 8 8 0 0 0 38.681641 223.87109 A 8.0008 8.0008 0 0 0 39.220703 223.95508 A 8 8 0 0 0 39.814453 223.97852 A 8.0008 8.0008 0 0 0 40.314453 223.98828 A 8 8 0 0 0 40.951172 223.92578 A 8.0008 8.0008 0 0 0 41.314453 223.89062 L 41.539062 223.85352 A 8 8 0 0 0 41.542969 223.85352 L 180.76562 200.65039 A 8.0008 8.0008 0 0 0 180.76953 200.65039 C 186.38849 199.71028 191.10803 195.8242 193.10938 190.49023 A 8.0008 8.0008 0 0 0 193.11133 190.48828 L 214.88281 132.42969 L 243.31641 103.99609 A 8.0008 8.0008 0 0 0 243.31836 103.99414 C 249.49496 97.813493 249.49496 87.555651 243.31836 81.375 L 174.6582 12.683594 A 8.0008 8.0008 0 0 0 174.6543 12.681641 C 171.56407 9.5933859 167.45554 8.0488281 163.3457 8.0488281 z M 163.34375 24 L 232.00195 92.685547 L 208 116.6875 L 139.31641 48.003906 L 163.34375 24 z M 125.98633 57.298828 L 198.70117 130.01367 L 178.12891 184.86914 L 178.12891 184.87109 L 63.318359 204.00391 L 110.70703 156.60742 C 114.67039 158.76852 119.20184 160 124 160 C 139.36922 160 152 147.36922 152 132 C 152 116.63078 139.36922 104 124 104 C 108.63078 104 96 116.63078 96 132 C 96 136.79901 97.230768 141.33106 99.392578 145.29492 L 51.992188 192.70117 L 71.128906 77.871094 L 71.130859 77.871094 L 125.98633 57.298828 z M 124 120 C 130.72217 120 136 125.27783 136 132 C 136 138.72217 130.72217 144 124 144 C 120.89939 144 118.10594 142.87736 115.99609 141.00781 A 8 8 0 0 0 115.51562 140.48242 A 8 8 0 0 0 114.99219 140.00391 C 113.12241 137.89401 112 135.10081 112 132 C 112 125.27783 117.27783 120 124 120 z " />
</svg>
