<?xml version="1.0" encoding="UTF-8" standalone="no"?>
<svg
   viewBox="0 0 256 256"
   version="1.1"
   id="svg3"
   sodipodi:docname="person simple swim blue_green.svg"
   xmlns:inkscape="http://www.inkscape.org/namespaces/inkscape"
   xmlns:sodipodi="http://sodipodi.sourceforge.net/DTD/sodipodi-0.dtd"
   xmlns:xlink="http://www.w3.org/1999/xlink"
   xmlns="http://www.w3.org/2000/svg"
   xmlns:svg="http://www.w3.org/2000/svg">
  <defs
     id="defs3">
    <linearGradient
       id="linearGradient1"
       inkscape:collect="always">
      <stop
         style="stop-color:#0ec38bff;stop-opacity:1;"
         offset="0"
         id="stop1" />
      <stop
         style="stop-color:#4b4fe2ff;stop-opacity:1;"
         offset="0.76340693"
         id="stop2" />
    </linearGradient>
    <linearGradient
       inkscape:collect="always"
       xlink:href="#linearGradient1"
       id="linearGradient2"
       x1="232.4884"
       y1="23.847498"
       x2="23.977745"
       y2="232.35815"
       gradientUnits="userSpaceOnUse" />
  </defs>
  <defs
     id="defs1" />
  <sodipodi:namedview
     id="namedview3"
     pagecolor="#ffffff"
     bordercolor="#000000"
     borderopacity="0.25"
     inkscape:showpageshadow="2"
     inkscape:pageopacity="0.0"
     inkscape:pagecheckerboard="0"
     inkscape:deskcolor="#d1d1d1" />
  <path
     id="circle1"
     style="baseline-shift:baseline;display:inline;overflow:visible;vector-effect:none;fill:url(#linearGradient2);stroke-linecap:round;stroke-linejoin:round;enable-background:accumulate;stop-color:#000000;stop-opacity:1;opacity:1;fill-opacity:1"
     d="M 176 40 C 158.42165 40 144 54.421645 144 72 C 144 89.578355 158.42165 104 176 104 C 193.57835 104 208 89.578355 208 72 C 208 54.421645 193.57835 40 176 40 z M 176 56 C 184.93131 56 192 63.068687 192 72 C 192 80.931313 184.93131 88 176 88 C 167.06869 88 160 80.931313 160 72 C 160 63.068687 167.06869 56 176 56 z M 40 72 A 8 8 0 0 0 32 80 A 8 8 0 0 0 40 88 L 64.240234 88 C 78.98979 88.000695 93.353058 91.701911 106.09375 98.591797 L 76.365234 128.32031 C 63.368765 129.64235 49.418588 135.41032 34.894531 147.45117 A 8 8 0 0 0 33.841797 158.71484 A 8 8 0 0 0 45.105469 159.76953 C 58.574006 148.60374 69.472831 144.51956 79.542969 144.0293 A 8 8 0 0 0 80.902344 143.98438 C 82.919651 143.94954 84.906326 144.05528 86.876953 144.27148 C 99.056398 145.60775 111.18164 151.9725 124.18164 159.03125 C 137.18164 166.09 151.0564 173.8422 167.37695 175.63281 C 174.79577 176.44677 182.60283 175.86778 190.7168 173.49805 A 8 8 0 0 0 193.16211 172.73242 C 202.15258 169.7277 211.50368 164.50898 221.10547 156.54883 A 8 8 0 0 0 222.1582 145.28516 A 8 8 0 0 0 210.89453 144.23047 C 203.88625 150.04053 197.57472 153.93392 191.71289 156.40039 L 137.77734 102.46289 C 133.65485 98.340121 129.16381 94.689932 124.47461 91.353516 A 8 8 0 0 0 122.77734 90.095703 C 105.63594 78.416068 85.276012 72.000986 64.240234 72 L 40 72 z M 119.66211 107.65039 L 119.66406 107.65039 C 122.02464 109.56493 124.29399 111.6083 126.46289 113.77734 L 172.67773 159.99023 C 171.4849 159.94659 170.30125 159.85778 169.12305 159.72852 C 156.9436 158.39225 144.81836 152.0275 131.81836 144.96875 C 121.21055 139.20891 110.02078 132.98746 97.394531 129.91992 L 119.66211 107.65039 z M 82.416016 168.01953 C 67.735944 167.98573 51.699455 173.51942 34.894531 187.45117 A 8 8 0 0 0 33.841797 198.71484 A 8 8 0 0 0 45.105469 199.76953 C 61.899842 185.84653 74.697509 182.93522 86.876953 184.27148 C 99.056398 185.60775 111.18164 191.9725 124.18164 199.03125 C 137.18164 206.09 151.0564 213.8422 167.37695 215.63281 C 183.69751 217.42342 201.89984 212.47083 221.10547 196.54883 A 8 8 0 0 0 222.1582 185.28516 A 8 8 0 0 0 210.89453 184.23047 C 194.10016 198.15347 181.30249 201.06478 169.12305 199.72852 C 156.9436 198.39225 144.81836 192.0275 131.81836 184.96875 C 118.81836 177.91 104.9436 170.1578 88.623047 168.36719 C 86.582977 168.14336 84.513169 168.02437 82.416016 168.01953 z " />
</svg>
