<?xml version="1.0" encoding="UTF-8" standalone="no"?>
<svg
   viewBox="0 0 256 256"
   version="1.1"
   id="svg3"
   sodipodi:docname="phosphor logo blue_green.svg"
   xmlns:inkscape="http://www.inkscape.org/namespaces/inkscape"
   xmlns:sodipodi="http://sodipodi.sourceforge.net/DTD/sodipodi-0.dtd"
   xmlns:xlink="http://www.w3.org/1999/xlink"
   xmlns="http://www.w3.org/2000/svg"
   xmlns:svg="http://www.w3.org/2000/svg">
  <defs
     id="defs3">
    <linearGradient
       id="linearGradient1"
       inkscape:collect="always">
      <stop
         style="stop-color:#0ec38bff;stop-opacity:1;"
         offset="0"
         id="stop1" />
      <stop
         style="stop-color:#4b4fe2ff;stop-opacity:1;"
         offset="0.76340693"
         id="stop2" />
    </linearGradient>
    <linearGradient
       inkscape:collect="always"
       xlink:href="#linearGradient1"
       id="linearGradient2"
       x1="232.4884"
       y1="23.847498"
       x2="23.977745"
       y2="232.35815"
       gradientUnits="userSpaceOnUse" />
  </defs>
  <defs
     id="defs1" />
  <sodipodi:namedview
     id="namedview3"
     pagecolor="#ffffff"
     bordercolor="#000000"
     borderopacity="0.25"
     inkscape:showpageshadow="2"
     inkscape:pageopacity="0.0"
     inkscape:pagecheckerboard="0"
     inkscape:deskcolor="#d1d1d1" />
  <path
     id="rect2"
     style="baseline-shift:baseline;display:inline;overflow:visible;vector-effect:none;fill:url(#linearGradient2);stroke-linecap:round;stroke-linejoin:round;enable-background:accumulate;stop-color:#000000;stop-opacity:1;opacity:1;fill-opacity:1"
     d="M 72 32 A 8.0008 8.0008 0 0 0 71.390625 32.039062 A 8 8 0 0 0 71.011719 32.064453 A 8.0008 8.0008 0 0 0 70.460938 32.167969 A 8 8 0 0 0 69.966797 32.265625 A 8.0008 8.0008 0 0 0 69.503906 32.417969 A 8 8 0 0 0 68.982422 32.59375 A 8.0008 8.0008 0 0 0 68.523438 32.814453 A 8 8 0 0 0 68.078125 33.027344 A 8 8 0 0 0 68.037109 33.052734 A 8.0008 8.0008 0 0 0 67.646484 33.308594 A 8 8 0 0 0 67.160156 33.634766 A 8.0008 8.0008 0 0 0 66.871094 33.882812 A 8 8 0 0 0 66.365234 34.324219 A 8.0008 8.0008 0 0 0 66.119141 34.601562 A 8 8 0 0 0 65.677734 35.103516 A 8.0008 8.0008 0 0 0 65.4375 35.455078 A 8 8 0 0 0 65.09375 35.966797 A 8.0008 8.0008 0 0 0 64.876953 36.396484 A 8 8 0 0 0 64.628906 36.900391 A 8.0008 8.0008 0 0 0 64.457031 37.386719 A 8 8 0 0 0 64.287109 37.888672 A 8.0008 8.0008 0 0 0 64.185547 38.371094 A 8 8 0 0 0 64.076172 38.914062 A 8.0008 8.0008 0 0 0 64.039062 39.392578 A 8 8 0 0 0 64.001953 39.958984 A 8.0008 8.0008 0 0 0 64 40 L 64 168 C 64 212.08802 99.911977 248 144 248 A 8.0008 8.0008 0 0 0 152 240 L 152 176 C 191.66977 176 224 143.66974 224 104 C 224 64.330264 191.66977 32 152 32 L 144 32 L 72 32 z M 85.679688 48 L 136 48 L 136 137.46094 L 85.679688 48 z M 152 48 C 183.02273 48 208 72.97729 208 104 C 208 135.02271 183.02273 160 152 160 L 152 48 z M 80 70.539062 L 130.32031 160 L 80 160 L 80 70.539062 z M 80.492188 176 L 136 176 L 136 231.45117 C 106.98732 227.8514 84.086824 205.00743 80.492188 176 z " />
</svg>
