<?xml version="1.0" encoding="UTF-8" standalone="no"?>
<svg
   viewBox="0 0 256 256"
   version="1.1"
   id="svg3"
   sodipodi:docname="piggy bank blue_green.svg"
   xmlns:inkscape="http://www.inkscape.org/namespaces/inkscape"
   xmlns:sodipodi="http://sodipodi.sourceforge.net/DTD/sodipodi-0.dtd"
   xmlns:xlink="http://www.w3.org/1999/xlink"
   xmlns="http://www.w3.org/2000/svg"
   xmlns:svg="http://www.w3.org/2000/svg">
  <defs
     id="defs3">
    <linearGradient
       id="linearGradient1"
       inkscape:collect="always">
      <stop
         style="stop-color:#0ec38bff;stop-opacity:1;"
         offset="0"
         id="stop1" />
      <stop
         style="stop-color:#4b4fe2ff;stop-opacity:1;"
         offset="0.76340693"
         id="stop2" />
    </linearGradient>
    <linearGradient
       inkscape:collect="always"
       xlink:href="#linearGradient1"
       id="linearGradient2"
       x1="232.4884"
       y1="23.847498"
       x2="23.977745"
       y2="232.35815"
       gradientUnits="userSpaceOnUse" />
  </defs>
  <defs
     id="defs1" />
  <sodipodi:namedview
     id="namedview3"
     pagecolor="#ffffff"
     bordercolor="#000000"
     borderopacity="0.25"
     inkscape:showpageshadow="2"
     inkscape:pageopacity="0.0"
     inkscape:pagecheckerboard="0"
     inkscape:deskcolor="#d1d1d1" />
  <path
     id="circle1"
     style="baseline-shift:baseline;display:inline;overflow:visible;vector-effect:none;fill:url(#linearGradient2);stroke-linecap:round;stroke-linejoin:round;enable-background:accumulate;stop-color:#000000;stop-opacity:1;opacity:1;fill-opacity:1"
     d="M 112 32 C 65.866262 32 27.884437 67.725323 24.279297 112.95117 C 10.388645 116.435 0 129.08022 0 144 A 8 8 0 0 0 8 152 A 8 8 0 0 0 16 144 C 16 137.77336 19.435666 132.45267 24.542969 129.80078 C 26.541921 147.61949 34.000508 164.45782 45.939453 178.01367 L 58.566406 213.38086 C 60.831513 219.72477 66.904633 224.00239 73.640625 224 L 86.359375 224 C 93.095367 224.002 99.168499 219.725 101.43359 213.38086 A 8.0008 8.0008 0 0 0 101.43555 213.375 L 103.35156 208 L 160.64844 208 L 162.56445 213.375 A 8.0008 8.0008 0 0 0 162.56641 213.38086 C 164.83218 219.72686 170.90813 224.0049 177.64648 224 L 190.35938 224 C 197.09537 224.002 203.16849 219.725 205.43359 213.38086 L 221.63867 168 L 224 168 C 237.16008 168 248 157.16008 248 144 L 248 112 C 248 99.509841 238.204 89.227657 225.95898 88.201172 C 225.55357 87.156 225.22938 86.080421 224.78516 85.050781 A 8.0008 8.0008 0 0 0 224.78125 85.042969 C 218.19594 69.829765 207.62475 57.145944 194.60352 48 L 216 48 A 8 8 0 0 0 224 40 A 8 8 0 0 0 216 32 L 144.04688 32 L 144 32 L 112 32 z M 112 48 L 144 48 L 144.04492 48 C 172.76448 48.008295 198.68774 65.039709 210.09766 91.398438 C 211.08627 93.690775 211.96017 96.031857 212.71289 98.412109 A 8 8 0 0 0 213.94922 99.882812 A 8 8 0 0 0 215.84375 102.13672 A 8 8 0 0 0 218.56641 103.26562 A 8 8 0 0 0 220.33984 104 L 224 104 C 228.51304 104 232 107.48696 232 112 L 232 144 C 232 148.51304 228.51304 152 224 152 L 216 152 A 8.0008 8.0008 0 0 0 208.4668 157.31055 L 190.36523 208 A 8.0008 8.0008 0 0 0 190.35938 208 L 177.64062 208 A 8.0008 8.0008 0 0 0 177.63477 208 L 177.63477 208.00391 L 173.82617 197.31445 A 8.0008 8.0008 0 0 0 166.28906 192 L 97.710938 192 A 8.0008 8.0008 0 0 0 90.173828 197.31445 L 86.365234 208.00391 L 86.365234 208 A 8.0008 8.0008 0 0 0 86.359375 208 L 73.640625 208 A 8.0008 8.0008 0 0 0 73.634766 208 L 60.533203 171.31055 A 8.0008 8.0008 0 0 0 58.892578 168.58789 C 46.722186 155.33642 39.979929 138.00198 40 120.00977 A 8.0008 8.0008 0 0 0 40 120 C 40 80.140741 72.140741 48 112 48 z M 112 64 A 8 8 0 0 0 104 72 A 8 8 0 0 0 112 80 L 152 80 A 8 8 0 0 0 160 72 A 8 8 0 0 0 152 64 L 112 64 z M 180 104 A 12 12 0 0 0 168 116 A 12 12 0 0 0 180 128 A 12 12 0 0 0 192 116 A 12 12 0 0 0 180 104 z " />
</svg>
