<?xml version="1.0" encoding="UTF-8" standalone="no"?>
<svg
   viewBox="0 0 256 256"
   version="1.1"
   id="svg3"
   sodipodi:docname="pipe wrench blue_green.svg"
   xmlns:inkscape="http://www.inkscape.org/namespaces/inkscape"
   xmlns:sodipodi="http://sodipodi.sourceforge.net/DTD/sodipodi-0.dtd"
   xmlns:xlink="http://www.w3.org/1999/xlink"
   xmlns="http://www.w3.org/2000/svg"
   xmlns:svg="http://www.w3.org/2000/svg">
  <defs
     id="defs3">
    <linearGradient
       id="linearGradient1"
       inkscape:collect="always">
      <stop
         style="stop-color:#0ec38bff;stop-opacity:1;"
         offset="0"
         id="stop1" />
      <stop
         style="stop-color:#4b4fe2ff;stop-opacity:1;"
         offset="0.76340693"
         id="stop2" />
    </linearGradient>
    <linearGradient
       inkscape:collect="always"
       xlink:href="#linearGradient1"
       id="linearGradient2"
       x1="232.4884"
       y1="23.847498"
       x2="23.977745"
       y2="232.35815"
       gradientUnits="userSpaceOnUse" />
  </defs>
  <defs
     id="defs1" />
  <sodipodi:namedview
     id="namedview3"
     pagecolor="#ffffff"
     bordercolor="#000000"
     borderopacity="0.25"
     inkscape:showpageshadow="2"
     inkscape:pageopacity="0.0"
     inkscape:pagecheckerboard="0"
     inkscape:deskcolor="#d1d1d1" />
  <path
     id="path1"
     style="baseline-shift:baseline;display:inline;overflow:visible;vector-effect:none;fill:url(#linearGradient2);stroke-linecap:round;stroke-linejoin:round;enable-background:accumulate;stop-color:#000000;stop-opacity:1;opacity:1;fill-opacity:1"
     d="M 163.9707 8.0449219 C 159.85636 8.0449219 155.7417 9.5907924 152.65039 12.685547 L 108.16797 56.867188 L 106.68359 55.369141 A 8.0008 8.0008 0 0 0 106.64648 55.333984 C 101.80164 50.50589 95.401113 48.091797 89 48.091797 C 82.598887 48.091797 76.198349 50.505887 71.353516 55.333984 A 8.0008 8.0008 0 0 0 71.333984 55.353516 C 61.677789 65.043182 61.677789 80.956818 71.333984 90.646484 L 72.722656 92.054688 L 52.697266 111.99023 A 8.0008 8.0008 0 0 0 52.681641 112.00586 C 46.505039 118.18651 46.505039 128.44435 52.681641 134.625 L 52.675781 134.62109 L 65.335938 147.31055 A 8.0008 8.0008 0 0 0 65.345703 147.31836 C 71.526354 153.49496 81.784193 153.49496 87.964844 147.31836 L 107.89648 127.7207 L 119.96484 139.95703 A 8.0008 8.0008 0 0 0 120.00586 140 A 8.0008 8.0008 0 0 0 119.97461 140.0332 L 55.333984 205.35352 C 45.677789 215.04318 45.677789 230.95682 55.333984 240.64648 A 8.0008 8.0008 0 0 0 55.353516 240.66602 C 65.043182 250.32221 80.956818 250.32221 90.646484 240.66602 A 8.0008 8.0008 0 0 0 90.675781 240.63672 L 179.34375 151.34961 C 185.53326 145.16698 185.53326 134.89356 179.34375 128.71094 L 143.62891 92.662109 L 156.49805 80.054688 A 8.0008 8.0008 0 0 0 156.55469 79.998047 A 8.0008 8.0008 0 0 0 156.65625 80.095703 L 194.03516 115.4082 C 200.22502 121.49498 210.41386 121.46492 216.56445 115.31836 A 8.0008 8.0008 0 0 0 216.56641 115.31641 L 220.28711 111.59766 A 8.0008 8.0008 0 0 0 220.28711 111.5957 C 235.8371 96.042398 235.8371 70.586518 220.28711 55.033203 A 8.0008 8.0008 0 0 0 220.11328 54.863281 L 175.1543 12.552734 C 172.07882 9.5464178 168.02592 8.0449219 163.9707 8.0449219 z M 163.9707 23.994141 A 8.0008 8.0008 0 0 0 164.14648 24.166016 L 208.99609 66.373047 C 218.40715 75.813821 218.40105 90.852771 208.97266 100.2832 L 205.25586 104.00195 A 8.0008 8.0008 0 0 0 205.09375 103.84375 L 167.64453 68.464844 L 167.74414 68.5625 C 161.54451 62.496989 151.38436 62.549057 145.24805 68.677734 L 145.24805 68.679688 L 145.24609 68.679688 L 145.24414 68.681641 L 132.36914 81.294922 L 119.42773 68.232422 L 163.94727 24.015625 A 8.0008 8.0008 0 0 0 163.9707 23.994141 z M 89 63.992188 C 91.279595 63.992188 93.559154 64.882484 95.347656 66.662109 L 102.29492 73.673828 A 8 8 0 0 0 102.44336 73.828125 A 8 8 0 0 0 102.59375 73.976562 L 126.38281 97.986328 A 8 8 0 0 0 126.56445 98.177734 A 8 8 0 0 0 126.8125 98.419922 L 168.00781 140 A 8.0008 8.0008 0 0 0 168.03711 140.0293 A 8.0008 8.0008 0 0 0 168.01367 140.05273 L 79.353516 229.33398 C 75.778433 232.89672 70.237129 232.89739 66.658203 229.3418 C 63.102435 225.76287 63.103295 220.22157 66.666016 216.64648 A 8.0008 8.0008 0 0 0 66.685547 216.62695 L 131.31445 151.32031 L 131.31641 151.31836 L 131.31836 151.31641 C 131.31898 151.31553 131.32161 151.31139 131.32227 151.31055 C 137.5004 145.1293 137.49981 134.86788 131.32031 128.6875 L 114.11719 111.24414 A 8 8 0 0 0 114.11523 111.24023 A 8 8 0 0 0 113.70508 110.79102 A 8 8 0 0 0 113.24023 110.35352 A 8 8 0 0 0 113.23633 110.34961 L 82.695312 79.382812 A 8.0008 8.0008 0 0 0 82.666016 79.353516 C 79.103286 75.778437 79.102435 70.237129 82.658203 66.658203 C 84.445915 64.882058 86.722635 63.992185 89 63.992188 z M 83.960938 103.44922 L 96.662109 116.32812 L 76.701172 135.95508 A 8.0008 8.0008 0 0 0 76.65625 136 L 64.003906 123.32031 A 8.0008 8.0008 0 0 0 64 123.31641 L 83.960938 103.44922 z " />
</svg>
