<?xml version="1.0" encoding="UTF-8" standalone="no"?>
<svg
   viewBox="0 0 256 256"
   version="1.1"
   id="svg7"
   sodipodi:docname="polygon blue_green.svg"
   xmlns:inkscape="http://www.inkscape.org/namespaces/inkscape"
   xmlns:sodipodi="http://sodipodi.sourceforge.net/DTD/sodipodi-0.dtd"
   xmlns:xlink="http://www.w3.org/1999/xlink"
   xmlns="http://www.w3.org/2000/svg"
   xmlns:svg="http://www.w3.org/2000/svg">
  <defs
     id="defs3">
    <linearGradient
       id="linearGradient1"
       inkscape:collect="always">
      <stop
         style="stop-color:#0ec38bff;stop-opacity:1;"
         offset="0"
         id="stop1" />
      <stop
         style="stop-color:#4b4fe2ff;stop-opacity:1;"
         offset="0.76340693"
         id="stop2" />
    </linearGradient>
    <linearGradient
       inkscape:collect="always"
       xlink:href="#linearGradient1"
       id="linearGradient2"
       x1="232.4884"
       y1="23.847498"
       x2="23.977745"
       y2="232.35815"
       gradientUnits="userSpaceOnUse" />
  </defs>
  <defs
     id="defs7" />
  <sodipodi:namedview
     id="namedview7"
     pagecolor="#ffffff"
     bordercolor="#000000"
     borderopacity="0.25"
     inkscape:showpageshadow="2"
     inkscape:pageopacity="0.0"
     inkscape:pagecheckerboard="0"
     inkscape:deskcolor="#d1d1d1" />
  <path
     id="circle1"
     style="baseline-shift:baseline;display:inline;overflow:visible;vector-effect:none;fill:url(#linearGradient2);stroke-linecap:round;stroke-linejoin:round;enable-background:accumulate;stop-color:#000000;stop-opacity:1;opacity:1;fill-opacity:1"
     d="M 120 16 C 102.42165 16 88 30.421645 88 48 C 88 53.312965 89.316767 58.338481 91.640625 62.763672 L 57.644531 93.351562 C 52.575457 89.973534 46.503976 88 40 88 C 22.421645 88 8 102.42165 8 120 C 8 137.57835 22.421645 152 40 152 C 47.646085 152 54.694233 149.27228 60.21875 144.74219 L 130.29688 196.14258 C 128.8165 199.81508 128 203.81867 128 208 C 128 225.57835 142.42165 240 160 240 C 177.57835 240 192 225.57835 192 208 C 192 197.00985 186.36326 187.2537 177.8418 181.48438 L 205.23242 103.88086 C 206.14474 103.96022 207.06827 104 208 104 C 225.57835 104 240 89.578355 240 72 C 240 54.421645 225.57835 40 208 40 C 196.17853 40 185.78415 46.522173 180.24414 56.140625 L 151.99805 48.431641 C 151.99998 48.287997 152 48.144074 152 48 C 152 30.421645 137.57835 16 120 16 z M 120 32 C 128.93131 32 136 39.068687 136 48 C 136 49.292408 135.85252 50.545513 135.57227 51.744141 A 8 8 0 0 0 135.43164 52.203125 A 8 8 0 0 0 135.30469 52.742188 C 133.31561 59.309719 127.27578 64 120 64 C 115.48472 64 111.44515 62.192595 108.55469 59.251953 A 8 8 0 0 0 108.10742 58.708984 A 8 8 0 0 0 107.61719 58.208984 C 105.35068 55.451535 104 51.904102 104 48 C 104 39.068687 111.06869 32 120 32 z M 208 56 C 216.93131 56 224 63.068687 224 72 C 224 80.931313 216.93131 88 208 88 C 206.26671 88 204.60376 87.734634 203.04883 87.240234 A 8 8 0 0 0 202.67188 87.095703 A 8 8 0 0 0 202.22656 86.953125 C 196.20475 84.669478 192 78.888886 192 72 C 192 70.707592 192.14748 69.454487 192.42773 68.255859 A 8 8 0 0 0 192.56836 67.796875 A 8 8 0 0 0 192.69531 67.257812 C 194.68439 60.690281 200.72422 56 208 56 z M 147.75586 63.859375 L 176.00195 71.568359 C 176.00002 71.712003 176 71.855926 176 72 C 176 82.990149 181.63674 92.746297 190.1582 98.515625 L 162.76758 176.11914 C 161.85526 176.03978 160.93173 176 160 176 C 152.35392 176 145.30577 178.72772 139.78125 183.25781 L 69.703125 131.85742 C 71.183505 128.18492 72 124.18133 72 120 C 72 114.68704 70.683233 109.66152 68.359375 105.23633 L 102.35547 74.648438 C 107.42454 78.026466 113.49603 80 120 80 C 131.82147 80 142.21585 73.477827 147.75586 63.859375 z M 40 104 C 44.515273 104 48.554854 105.80742 51.445312 108.74805 A 8 8 0 0 0 51.892578 109.29102 A 8 8 0 0 0 52.382812 109.78906 C 54.64951 112.54657 56 116.09572 56 120 C 56 123.33033 55.018035 126.40091 53.322266 128.94336 A 8 8 0 0 0 52.910156 129.45898 A 8 8 0 0 0 52.527344 130.0332 C 49.611874 133.68661 45.110482 136 40 136 C 31.068687 136 24 128.93131 24 120 C 24 111.06869 31.068687 104 40 104 z M 160 192 C 161.73326 192 163.39626 192.26538 164.95117 192.75977 A 8 8 0 0 0 165.32812 192.9043 A 8 8 0 0 0 165.77344 193.04688 C 171.79521 195.33054 176 201.11114 176 208 C 176 216.93131 168.93131 224 160 224 C 151.06869 224 144 216.93131 144 208 C 144 204.66936 144.98363 201.59728 146.67969 199.05469 A 8 8 0 0 0 147.08984 198.54102 A 8 8 0 0 0 147.47266 197.96875 C 150.38813 194.31533 154.88951 192 160 192 z " />
</svg>
