<?xml version="1.0" encoding="UTF-8" standalone="no"?>
<svg
   viewBox="0 0 256 256"
   version="1.1"
   id="svg4"
   sodipodi:docname="potted plant blue_green.svg"
   xmlns:inkscape="http://www.inkscape.org/namespaces/inkscape"
   xmlns:sodipodi="http://sodipodi.sourceforge.net/DTD/sodipodi-0.dtd"
   xmlns:xlink="http://www.w3.org/1999/xlink"
   xmlns="http://www.w3.org/2000/svg"
   xmlns:svg="http://www.w3.org/2000/svg">
  <defs
     id="defs3">
    <linearGradient
       id="linearGradient1"
       inkscape:collect="always">
      <stop
         style="stop-color:#0ec38bff;stop-opacity:1;"
         offset="0"
         id="stop1" />
      <stop
         style="stop-color:#4b4fe2ff;stop-opacity:1;"
         offset="0.76340693"
         id="stop2" />
    </linearGradient>
    <linearGradient
       inkscape:collect="always"
       xlink:href="#linearGradient1"
       id="linearGradient2"
       x1="232.4884"
       y1="23.847498"
       x2="23.977745"
       y2="232.35815"
       gradientUnits="userSpaceOnUse" />
  </defs>
  <defs
     id="defs4" />
  <sodipodi:namedview
     id="namedview4"
     pagecolor="#ffffff"
     bordercolor="#000000"
     borderopacity="0.25"
     inkscape:showpageshadow="2"
     inkscape:pageopacity="0.0"
     inkscape:pagecheckerboard="0"
     inkscape:deskcolor="#d1d1d1" />
  <path
     id="path1"
     style="baseline-shift:baseline;display:inline;overflow:visible;vector-effect:none;fill:url(#linearGradient2);stroke-linecap:round;stroke-linejoin:round;enable-background:accumulate;stop-color:#000000;stop-opacity:1;opacity:1;fill-opacity:1"
     d="M 210.65039 24.03125 C 180.05511 24.651665 156.38178 33.949841 142.08398 49.306641 C 127.03658 65.468567 123.91659 88.557799 134.41211 110.27344 L 120 124.6875 L 107.79102 112.47656 C 114.91123 96.398823 112.36618 79.119471 101.19336 67.119141 C 90.262081 55.378239 72.46465 48.495826 49.777344 48.041016 C 46.5363 47.976046 43.194594 48.042116 39.759766 48.244141 A 8.0008 8.0008 0 0 0 32.244141 55.757812 C 30.617333 83.227469 37.687361 104.68686 51.105469 117.17969 C 63.106507 128.35316 80.387263 130.89953 96.472656 123.78711 L 96.474609 123.78711 L 108.6875 136 L 100.6875 144 L 56 144 A 8 8 0 0 0 48 152 A 8 8 0 0 0 56 160 L 65.583984 160 L 78.800781 219.47461 A 8.0008 8.0008 0 0 0 78.800781 219.48047 C 80.421346 226.75297 86.96921 232.00048 94.419922 232 L 161.58008 232 C 169.03079 232.00048 175.57865 226.75297 177.19922 219.48047 A 8.0008 8.0008 0 0 0 177.19922 219.47461 L 190.41602 160 L 200 160 A 8 8 0 0 0 208 152 A 8 8 0 0 0 200 144 L 123.3125 144 L 125.65625 141.65625 L 145.72656 121.58789 C 167.4422 132.08341 190.53143 128.96342 206.69336 113.91602 C 224.24399 97.575664 233.8814 68.989035 231.69531 31.820312 A 8.0008 8.0008 0 0 0 224.17969 24.304688 C 219.5336 24.031427 215.02114 23.942619 210.65039 24.03125 z M 211.00977 40.037109 C 212.56519 40.003389 214.26247 40.113239 215.86914 40.130859 C 216.19712 70.044288 207.58489 91.224646 195.78906 102.20703 C 183.45292 113.69248 167.98069 115.7339 150.19922 105.80078 C 140.2661 88.019312 142.30752 72.547083 153.79297 60.210938 C 164.18548 49.048675 183.60598 40.631133 211.00977 40.037109 z M 49.417969 64.046875 C 68.913899 64.475302 82.458463 70.477152 89.484375 78.023438 C 97.129761 86.235079 98.606583 96.070467 92.085938 108.08398 C 80.064003 114.5962 70.218943 113.11366 62.007812 105.46875 C 54.295001 98.287796 48.247332 84.257253 48.070312 64.072266 C 48.506603 64.076266 48.987476 64.037416 49.417969 64.046875 z M 81.972656 160 L 174.02734 160 L 161.58203 216 L 161.58008 216 L 94.419922 216 L 94.417969 216 L 81.972656 160 z " />
</svg>
