<?xml version="1.0" encoding="UTF-8" standalone="no"?>
<svg
   viewBox="0 0 256 256"
   version="1.1"
   id="svg6"
   sodipodi:docname="racquet blue_green.svg"
   xmlns:inkscape="http://www.inkscape.org/namespaces/inkscape"
   xmlns:sodipodi="http://sodipodi.sourceforge.net/DTD/sodipodi-0.dtd"
   xmlns:xlink="http://www.w3.org/1999/xlink"
   xmlns="http://www.w3.org/2000/svg"
   xmlns:svg="http://www.w3.org/2000/svg">
  <defs
     id="defs3">
    <linearGradient
       id="linearGradient1"
       inkscape:collect="always">
      <stop
         style="stop-color:#0ec38bff;stop-opacity:1;"
         offset="0"
         id="stop1" />
      <stop
         style="stop-color:#4b4fe2ff;stop-opacity:1;"
         offset="0.76340693"
         id="stop2" />
    </linearGradient>
    <linearGradient
       inkscape:collect="always"
       xlink:href="#linearGradient1"
       id="linearGradient2"
       x1="232.4884"
       y1="23.847498"
       x2="23.977745"
       y2="232.35815"
       gradientUnits="userSpaceOnUse" />
  </defs>
  <defs
     id="defs6" />
  <sodipodi:namedview
     id="namedview6"
     pagecolor="#ffffff"
     bordercolor="#000000"
     borderopacity="0.25"
     inkscape:showpageshadow="2"
     inkscape:pageopacity="0.0"
     inkscape:pagecheckerboard="0"
     inkscape:deskcolor="#d1d1d1" />
  <path
     id="ellipse1"
     style="baseline-shift:baseline;display:inline;overflow:visible;vector-effect:none;fill:url(#linearGradient2);stroke-linecap:round;stroke-linejoin:round;enable-background:accumulate;stop-color:#000000;stop-opacity:1;opacity:1;fill-opacity:1"
     d="M 238.82957 45.814719 C 222.75781 27.801551 196.70695 16.389686 168.00012 16.389686 C 137.94196 16.389686 110.94047 28.993269 95.112878 48.493991 A 8 8 0 0 0 94.815948 48.755013 A 8 8 0 0 0 93.821579 49.997974 C 87.055296 58.823956 82.492959 68.954636 81.020461 79.998912 L 39.272158 79.997531 L 39.272158 79.028022 C 39.272158 70.302392 31.998109 63.02835 23.272486 63.02835 L -15.358746 63.02835 C -24.084368 63.02835 -31.358418 70.302392 -31.358418 79.028022 L -31.358418 96.970856 C -31.358418 105.69649 -24.084368 112.97053 -15.358746 112.97053 L 23.272486 112.97053 C 31.998109 112.97053 39.272159 105.69649 39.272158 96.970856 L 39.272158 96.001347 L 81.017699 95.999965 C 82.489915 107.04372 87.054662 117.17377 93.820198 125.99952 A 8 8 0 0 0 94.815948 127.24387 A 8 8 0 0 0 95.112878 127.50489 C 110.94039 147.00603 137.94158 159.60919 168.00012 159.60919 C 177.64852 159.60919 186.99757 158.32008 195.76787 155.9245 C 196.12088 155.82808 196.47189 155.72895 196.82301 155.62895 C 230.57773 146.01581 255.51011 119.94751 255.51011 88.00082 C 255.51011 72.029962 249.27891 57.526302 238.82957 45.814719 z M 224.54933 54.079029 L 201.94263 76.68573 L 179.31521 54.058313 L 196.41559 36.95793 C 207.62594 40.754425 217.25469 46.716911 224.54933 54.079029 z M 234.18504 67.070735 C 237.6271 73.594839 239.51044 80.680356 239.51044 87.999439 C 239.51044 95.318248 237.62686 102.40424 234.18504 108.92814 L 213.25633 87.999439 L 234.18504 67.070735 z M 177.83608 32.91002 L 168.0015 42.744605 L 158.16692 32.91002 C 161.37233 32.568289 164.65385 32.390739 168.00012 32.390739 C 171.34733 32.390739 174.62981 32.5681 177.83608 32.91002 z M 139.58741 36.95793 L 156.68779 54.058313 L 134.06037 76.68573 L 111.45229 54.077648 C 118.74724 46.715732 128.37687 40.754131 139.58741 36.95793 z M 168.0015 65.372022 L 190.62892 87.999439 L 168.0015 110.62686 L 145.37408 87.999439 L 168.0015 65.372022 z M 201.94263 99.313147 L 224.54933 121.91985 C 217.2548 129.28204 207.62587 135.24434 196.41559 139.04095 L 179.31521 121.94056 L 201.94263 99.313147 z M 101.81658 67.069354 L 122.74667 87.999439 L 101.8152 108.9309 C 98.413799 102.48431 96.534153 95.48851 96.489803 88.261842 A 8 8 0 0 0 96.495327 87.999439 A 8 8 0 0 0 96.491184 87.738417 C 96.535353 80.511086 98.414766 73.516479 101.81658 67.069354 z M 134.06037 99.313147 L 156.68779 121.94056 L 139.58603 139.04233 C 128.37556 135.24602 118.74713 129.28322 111.45229 121.92123 L 134.06037 99.313147 z M 168.0015 133.25427 L 177.83747 143.09024 C 174.63087 143.43223 171.34768 143.60814 168.00012 143.60814 C 164.6535 143.60814 161.37127 143.43204 158.16553 143.09024 L 168.0015 133.25427 z M 23.272486 79.029403 L 23.272486 87.553354 A 8 8 0 0 0 23.260057 87.999439 A 8 8 0 0 0 23.272486 88.445524 L 23.272486 96.969475 L -15.358746 96.969475 L -15.358746 79.029403 L 23.272486 79.029403 z "
     transform="translate(-13.02 144.57) rotate(-45)" />
</svg>
