<?xml version="1.0" encoding="UTF-8" standalone="no"?>
<svg
   viewBox="0 0 256 256"
   version="1.1"
   id="svg3"
   sodipodi:docname="ranking blue_green.svg"
   xmlns:inkscape="http://www.inkscape.org/namespaces/inkscape"
   xmlns:sodipodi="http://sodipodi.sourceforge.net/DTD/sodipodi-0.dtd"
   xmlns:xlink="http://www.w3.org/1999/xlink"
   xmlns="http://www.w3.org/2000/svg"
   xmlns:svg="http://www.w3.org/2000/svg">
  <defs
     id="defs3">
    <linearGradient
       id="linearGradient1"
       inkscape:collect="always">
      <stop
         style="stop-color:#0ec38bff;stop-opacity:1;"
         offset="0"
         id="stop1" />
      <stop
         style="stop-color:#4b4fe2ff;stop-opacity:1;"
         offset="0.76340693"
         id="stop2" />
    </linearGradient>
    <linearGradient
       inkscape:collect="always"
       xlink:href="#linearGradient1"
       id="linearGradient2"
       x1="232.4884"
       y1="23.847498"
       x2="23.977745"
       y2="232.35815"
       gradientUnits="userSpaceOnUse" />
  </defs>
  <defs
     id="defs1" />
  <sodipodi:namedview
     id="namedview3"
     pagecolor="#ffffff"
     bordercolor="#000000"
     borderopacity="0.25"
     inkscape:showpageshadow="2"
     inkscape:pageopacity="0.0"
     inkscape:pagecheckerboard="0"
     inkscape:deskcolor="#d1d1d1" />
  <path
     id="path1"
     style="baseline-shift:baseline;display:inline;overflow:visible;vector-effect:none;fill:url(#linearGradient2);stroke-linecap:round;stroke-linejoin:round;enable-background:accumulate;stop-color:#000000;stop-opacity:1;opacity:1;fill-opacity:1"
     d="M 96 40 C 87.258201 40 80 47.258201 80 56 L 80 88 L 40 88 C 31.258201 88 24 95.258201 24 104 L 24 200 L 16 200 A 8 8 0 0 0 8 208 A 8 8 0 0 0 16 216 L 32 216 L 88 216 L 168 216 L 224 216 L 240 216 A 8 8 0 0 0 248 208 A 8 8 0 0 0 240 200 L 232 200 L 232 144 C 232 135.2582 224.7418 128 216 128 L 176 128 L 176 56 C 176 47.258201 168.7418 40 160 40 L 96 40 z M 96 56 L 160 56 L 160 200 L 96 200 L 96 56 z M 131.58984 88.009766 A 8.0008 8.0008 0 0 0 129.4707 88.410156 L 117.4707 92.410156 A 8 8 0 0 0 112.41016 102.5293 A 8 8 0 0 0 122.5293 107.58984 L 124 107.09961 L 124 136 A 8 8 0 0 0 132 144 A 8 8 0 0 0 140 136 L 140 96 A 8.0008 8.0008 0 0 0 131.58984 88.009766 z M 40 104 L 80 104 L 80 200 L 40 200 L 40 104 z M 176 144 L 216 144 L 216 200 L 176 200 L 176 144 z " />
</svg>
