<?xml version="1.0" encoding="UTF-8" standalone="no"?>
<svg
   viewBox="0 0 256 256"
   version="1.1"
   id="svg2"
   sodipodi:docname="repeat blue_green.svg"
   xmlns:inkscape="http://www.inkscape.org/namespaces/inkscape"
   xmlns:sodipodi="http://sodipodi.sourceforge.net/DTD/sodipodi-0.dtd"
   xmlns:xlink="http://www.w3.org/1999/xlink"
   xmlns="http://www.w3.org/2000/svg"
   xmlns:svg="http://www.w3.org/2000/svg">
  <defs
     id="defs3">
    <linearGradient
       id="linearGradient1"
       inkscape:collect="always">
      <stop
         style="stop-color:#0ec38bff;stop-opacity:1;"
         offset="0"
         id="stop1" />
      <stop
         style="stop-color:#4b4fe2ff;stop-opacity:1;"
         offset="0.76340693"
         id="stop2" />
    </linearGradient>
    <linearGradient
       inkscape:collect="always"
       xlink:href="#linearGradient1"
       id="linearGradient2"
       x1="232.4884"
       y1="23.847498"
       x2="23.977745"
       y2="232.35815"
       gradientUnits="userSpaceOnUse" />
  </defs>
  <defs
     id="defs2" />
  <sodipodi:namedview
     id="namedview2"
     pagecolor="#ffffff"
     bordercolor="#000000"
     borderopacity="0.25"
     inkscape:showpageshadow="2"
     inkscape:pageopacity="0.0"
     inkscape:pagecheckerboard="0"
     inkscape:deskcolor="#d1d1d1" />
  <path
     id="polyline1"
     style="baseline-shift:baseline;display:inline;overflow:visible;vector-effect:none;fill:url(#linearGradient2);stroke-linecap:round;stroke-linejoin:round;enable-background:accumulate;stop-color:#000000;stop-opacity:1;opacity:1;fill-opacity:1"
     d="M 200 32 A 8 8 0 0 0 194.34375 34.34375 A 8 8 0 0 0 194.34375 45.65625 L 204.6875 56 L 96 56 C 56.330255 56 24 88.330255 24 128 A 8 8 0 0 0 32 136 A 8 8 0 0 0 40 128 C 40 96.977297 64.977297 72 96 72 L 204.6875 72 L 194.34375 82.34375 A 8 8 0 0 0 194.34375 93.65625 A 8 8 0 0 0 205.65625 93.65625 L 229.65625 69.65625 A 8.0008 8.0008 0 0 0 229.9375 69.335938 A 8 8 0 0 0 230.32227 68.896484 A 8.0008 8.0008 0 0 0 230.60938 68.474609 A 8 8 0 0 0 230.9043 68.033203 A 8.0008 8.0008 0 0 0 231.14648 67.554688 A 8 8 0 0 0 231.38281 67.078125 A 8.0008 8.0008 0 0 0 231.54688 66.601562 A 8 8 0 0 0 231.7207 66.085938 A 8.0008 8.0008 0 0 0 231.79883 65.707031 A 8 8 0 0 0 232 64 A 8 8 0 0 0 231.79883 62.292969 A 8.0008 8.0008 0 0 0 231.7207 61.914062 A 8 8 0 0 0 231.54688 61.398438 A 8.0008 8.0008 0 0 0 231.38281 60.921875 A 8 8 0 0 0 231.14648 60.445312 A 8.0008 8.0008 0 0 0 230.9043 59.966797 A 8 8 0 0 0 230.60938 59.525391 A 8.0008 8.0008 0 0 0 230.32227 59.103516 A 8 8 0 0 0 229.9375 58.664062 A 8.0008 8.0008 0 0 0 229.65625 58.34375 L 205.65625 34.34375 A 8 8 0 0 0 200 32 z M 224 120 A 8 8 0 0 0 216 128 C 216 159.0227 191.0227 184 160 184 L 51.3125 184 L 61.65625 173.65625 A 8 8 0 0 0 61.65625 162.34375 A 8 8 0 0 0 56 160 A 8 8 0 0 0 50.34375 162.34375 L 26.425781 186.26172 L 26.34375 186.34375 A 8.0008 8.0008 0 0 0 26.0625 186.66406 A 8 8 0 0 0 25.677734 187.10352 A 8.0008 8.0008 0 0 0 25.390625 187.52539 A 8 8 0 0 0 25.095703 187.9668 A 8.0008 8.0008 0 0 0 24.853516 188.44531 A 8 8 0 0 0 24.617188 188.92188 A 8.0008 8.0008 0 0 0 24.453125 189.39844 A 8 8 0 0 0 24.279297 189.91406 A 8.0008 8.0008 0 0 0 24.201172 190.29297 A 8 8 0 0 0 24 192 A 8 8 0 0 0 24.201172 193.70703 A 8.0008 8.0008 0 0 0 24.279297 194.08594 A 8 8 0 0 0 24.453125 194.60156 A 8.0008 8.0008 0 0 0 24.617188 195.07812 A 8 8 0 0 0 24.853516 195.55469 A 8.0008 8.0008 0 0 0 25.095703 196.0332 A 8 8 0 0 0 25.390625 196.47461 A 8.0008 8.0008 0 0 0 25.677734 196.89648 A 8 8 0 0 0 26.0625 197.33594 A 8.0008 8.0008 0 0 0 26.34375 197.65625 L 26.425781 197.73828 L 50.34375 221.65625 A 8 8 0 0 0 61.65625 221.65625 A 8 8 0 0 0 61.65625 210.34375 L 51.3125 200 L 160 200 C 199.66974 200 232 167.66974 232 128 A 8 8 0 0 0 224 120 z " />
</svg>
