<?xml version="1.0" encoding="UTF-8" standalone="no"?>
<svg
   viewBox="0 0 256 256"
   version="1.1"
   id="svg4"
   sodipodi:docname="resize blue_green.svg"
   xmlns:inkscape="http://www.inkscape.org/namespaces/inkscape"
   xmlns:sodipodi="http://sodipodi.sourceforge.net/DTD/sodipodi-0.dtd"
   xmlns:xlink="http://www.w3.org/1999/xlink"
   xmlns="http://www.w3.org/2000/svg"
   xmlns:svg="http://www.w3.org/2000/svg">
  <defs
     id="defs3">
    <linearGradient
       id="linearGradient1"
       inkscape:collect="always">
      <stop
         style="stop-color:#0ec38bff;stop-opacity:1;"
         offset="0"
         id="stop1" />
      <stop
         style="stop-color:#4b4fe2ff;stop-opacity:1;"
         offset="0.76340693"
         id="stop2" />
    </linearGradient>
    <linearGradient
       inkscape:collect="always"
       xlink:href="#linearGradient1"
       id="linearGradient2"
       x1="232.4884"
       y1="23.847498"
       x2="23.977745"
       y2="232.35815"
       gradientUnits="userSpaceOnUse" />
  </defs>
  <defs
     id="defs4" />
  <sodipodi:namedview
     id="namedview4"
     pagecolor="#ffffff"
     bordercolor="#000000"
     borderopacity="0.25"
     inkscape:showpageshadow="2"
     inkscape:pageopacity="0.0"
     inkscape:pagecheckerboard="0"
     inkscape:deskcolor="#d1d1d1" />
  <path
     id="rect2"
     style="baseline-shift:baseline;display:inline;overflow:visible;vector-effect:none;fill:url(#linearGradient2);stroke-linecap:round;stroke-linejoin:round;enable-background:accumulate;stop-color:#000000;stop-opacity:1;opacity:1;fill-opacity:1"
     d="M 56 40 C 47.258201 40 40 47.258201 40 56 L 40 80 A 8 8 0 0 0 48 88 A 8 8 0 0 0 56 80 L 56 56 L 72 56 A 8 8 0 0 0 80 48 A 8 8 0 0 0 72 40 L 56 40 z M 112 40 A 8 8 0 0 0 104 48 A 8 8 0 0 0 112 56 L 144 56 A 8 8 0 0 0 152 48 A 8 8 0 0 0 144 40 L 112 40 z M 184 40 A 8 8 0 0 0 176 48 A 8 8 0 0 0 184 56 L 200 56 L 200 72 A 8 8 0 0 0 208 80 A 8 8 0 0 0 216 72 L 216 56 C 216 47.258201 208.7418 40 200 40 L 184 40 z M 208 104 A 8 8 0 0 0 200 112 L 200 144 A 8 8 0 0 0 208 152 A 8 8 0 0 0 216 144 L 216 112 A 8 8 0 0 0 208 104 z M 48 112 A 8.0008 8.0008 0 0 0 40 120 L 40 208 A 8.0008 8.0008 0 0 0 48 216 L 136 216 A 8.0008 8.0008 0 0 0 144 208 L 144 120 A 8.0008 8.0008 0 0 0 136 112 L 48 112 z M 56 128 L 128 128 L 128 200 L 56 200 L 56 128 z M 208 176 A 8 8 0 0 0 200 184 L 200 200 L 176 200 A 8 8 0 0 0 168 208 A 8 8 0 0 0 176 216 L 200 216 C 208.7418 216 216 208.7418 216 200 L 216 184 A 8 8 0 0 0 208 176 z " />
</svg>
