<?xml version="1.0" encoding="UTF-8" standalone="no"?>
<svg
   viewBox="0 0 256 256"
   version="1.1"
   id="svg2"
   sodipodi:docname="rewind blue_green.svg"
   xmlns:inkscape="http://www.inkscape.org/namespaces/inkscape"
   xmlns:sodipodi="http://sodipodi.sourceforge.net/DTD/sodipodi-0.dtd"
   xmlns:xlink="http://www.w3.org/1999/xlink"
   xmlns="http://www.w3.org/2000/svg"
   xmlns:svg="http://www.w3.org/2000/svg">
  <defs
     id="defs3">
    <linearGradient
       id="linearGradient1"
       inkscape:collect="always">
      <stop
         style="stop-color:#0ec38bff;stop-opacity:1;"
         offset="0"
         id="stop1" />
      <stop
         style="stop-color:#4b4fe2ff;stop-opacity:1;"
         offset="0.76340693"
         id="stop2" />
    </linearGradient>
    <linearGradient
       inkscape:collect="always"
       xlink:href="#linearGradient1"
       id="linearGradient2"
       x1="232.4884"
       y1="23.847498"
       x2="23.977745"
       y2="232.35815"
       gradientUnits="userSpaceOnUse" />
  </defs>
  <defs
     id="defs2" />
  <sodipodi:namedview
     id="namedview2"
     pagecolor="#ffffff"
     bordercolor="#000000"
     borderopacity="0.25"
     inkscape:showpageshadow="2"
     inkscape:pageopacity="0.0"
     inkscape:pagecheckerboard="0"
     inkscape:deskcolor="#d1d1d1" />
  <path
     id="path1"
     style="baseline-shift:baseline;display:inline;overflow:visible;vector-effect:none;fill:url(#linearGradient2);stroke-linecap:round;stroke-linejoin:round;enable-background:accumulate;stop-color:#000000;stop-opacity:1;opacity:1;fill-opacity:1"
     d="M 111.61133 56.140625 C 108.84539 56.149225 106.04786 56.892568 103.50195 58.525391 L 15.341797 114.6582 L 15.333984 114.66211 C 5.8282238 120.69854 5.8282238 135.30146 15.333984 141.33789 L 15.341797 141.3418 L 103.50195 197.47461 C 113.68559 204.0059 127.89557 196.31641 128 184.21875 A 8.0008 8.0008 0 0 0 128 184.15039 L 128 146.85547 L 207.50195 197.47461 C 217.68559 204.0059 231.89557 196.31641 232 184.21875 A 8.0008 8.0008 0 0 0 232 184.15039 L 232 71.849609 A 8.0008 8.0008 0 0 0 232 71.78125 C 231.9217 62.708005 223.90915 56.114736 215.61133 56.140625 C 212.84539 56.149225 210.04786 56.892568 207.50195 58.525391 L 128 109.14453 L 128 71.849609 A 8.0008 8.0008 0 0 0 128 71.78125 C 127.9217 62.708005 119.90915 56.114736 111.61133 56.140625 z M 112 72.082031 L 112 183.91797 L 24.173828 128 L 112 72.082031 z M 216 72.082031 L 216 183.91797 L 128.17383 128 L 216 72.082031 z " />
</svg>
