<?xml version="1.0" encoding="UTF-8" standalone="no"?>
<svg
   viewBox="0 0 256 256"
   version="1.1"
   id="svg4"
   sodipodi:docname="rows plus bottom blue_green.svg"
   xmlns:inkscape="http://www.inkscape.org/namespaces/inkscape"
   xmlns:sodipodi="http://sodipodi.sourceforge.net/DTD/sodipodi-0.dtd"
   xmlns:xlink="http://www.w3.org/1999/xlink"
   xmlns="http://www.w3.org/2000/svg"
   xmlns:svg="http://www.w3.org/2000/svg">
  <defs
     id="defs3">
    <linearGradient
       id="linearGradient1"
       inkscape:collect="always">
      <stop
         style="stop-color:#0ec38bff;stop-opacity:1;"
         offset="0"
         id="stop1" />
      <stop
         style="stop-color:#4b4fe2ff;stop-opacity:1;"
         offset="0.76340693"
         id="stop2" />
    </linearGradient>
    <linearGradient
       inkscape:collect="always"
       xlink:href="#linearGradient1"
       id="linearGradient2"
       x1="232.4884"
       y1="23.847498"
       x2="23.977745"
       y2="232.35815"
       gradientUnits="userSpaceOnUse" />
  </defs>
  <defs
     id="defs4" />
  <sodipodi:namedview
     id="namedview4"
     pagecolor="#ffffff"
     bordercolor="#000000"
     borderopacity="0.25"
     inkscape:showpageshadow="2"
     inkscape:pageopacity="0.0"
     inkscape:pagecheckerboard="0"
     inkscape:deskcolor="#d1d1d1" />
  <path
     id="rect2"
     style="baseline-shift:baseline;display:inline;overflow:visible;vector-effect:none;fill:url(#linearGradient2);stroke-linecap:round;stroke-linejoin:round;enable-background:accumulate;stop-color:#000000;stop-opacity:1;opacity:1;fill-opacity:1"
     d="M 48 40 C 39.274378 40 32 47.274378 32 56 L 32 80 C 32 88.725622 39.274378 96 48 96 L 208 96 C 216.72562 96 224 88.725622 224 80 L 224 56 C 224 47.274378 216.72562 40 208 40 L 48 40 z M 48 56 L 208 56 L 208 80 L 48 80 L 48 56 z M 48 112 C 39.274378 112 32 119.27438 32 128 L 32 152 C 32 160.72562 39.274378 168 48 168 L 208 168 C 216.72562 168 224 160.72562 224 152 L 224 128 C 224 119.27438 216.72562 112 208 112 L 48 112 z M 48 128 L 208 128 L 208 152 L 48 152 L 48 128 z M 128 184 A 8 8 0 0 0 120 192 L 120 208 L 104 208 A 8 8 0 0 0 96 216 A 8 8 0 0 0 104 224 L 120 224 L 120 240 A 8 8 0 0 0 128 248 A 8 8 0 0 0 136 240 L 136 224 L 152 224 A 8 8 0 0 0 160 216 A 8 8 0 0 0 152 208 L 136 208 L 136 192 A 8 8 0 0 0 128 184 z " />
</svg>
