<?xml version="1.0" encoding="UTF-8" standalone="no"?>
<svg
   viewBox="0 0 256 256"
   version="1.1"
   id="svg2"
   sodipodi:docname="shopping cart simple blue_green.svg"
   xmlns:inkscape="http://www.inkscape.org/namespaces/inkscape"
   xmlns:sodipodi="http://sodipodi.sourceforge.net/DTD/sodipodi-0.dtd"
   xmlns:xlink="http://www.w3.org/1999/xlink"
   xmlns="http://www.w3.org/2000/svg"
   xmlns:svg="http://www.w3.org/2000/svg">
  <defs
     id="defs3">
    <linearGradient
       id="linearGradient1"
       inkscape:collect="always">
      <stop
         style="stop-color:#0ec38bff;stop-opacity:1;"
         offset="0"
         id="stop1" />
      <stop
         style="stop-color:#4b4fe2ff;stop-opacity:1;"
         offset="0.76340693"
         id="stop2" />
    </linearGradient>
    <linearGradient
       inkscape:collect="always"
       xlink:href="#linearGradient1"
       id="linearGradient2"
       x1="232.4884"
       y1="23.847498"
       x2="23.977745"
       y2="232.35815"
       gradientUnits="userSpaceOnUse" />
  </defs>
  <defs
     id="defs2" />
  <sodipodi:namedview
     id="namedview2"
     pagecolor="#ffffff"
     bordercolor="#000000"
     borderopacity="0.25"
     inkscape:showpageshadow="2"
     inkscape:pageopacity="0.0"
     inkscape:pagecheckerboard="0"
     inkscape:deskcolor="#d1d1d1" />
  <path
     id="circle1"
     style="baseline-shift:baseline;display:inline;overflow:visible;vector-effect:none;fill:url(#linearGradient2);stroke-linecap:round;stroke-linejoin:round;enable-background:accumulate;stop-color:#000000;stop-opacity:1;opacity:1;fill-opacity:1"
     d="M 16 24 A 8 8 0 0 0 8 32 A 8 8 0 0 0 16 40 L 33.919922 40 L 69.041016 166.42188 C 71.914873 176.77065 81.415709 183.99535 92.15625 184 A 8.0008 8.0008 0 0 0 92.160156 184 L 190.99805 184 C 201.74469 184.002 211.25418 176.77493 214.12891 166.41992 A 8.0008 8.0008 0 0 0 214.12891 166.41797 L 239.70898 74.136719 A 8.0008 8.0008 0 0 0 232 64 L 57.193359 64 L 47.708984 29.859375 A 8.0008 8.0008 0 0 0 40 24 L 16 24 z M 61.638672 80 L 221.48047 80 L 198.71094 162.14258 C 197.7388 165.64131 194.63341 168.0007 191.00195 168 A 8.0008 8.0008 0 0 0 191 168 L 92.164062 168 L 92.160156 168 C 88.531749 167.997 85.429686 165.63718 84.458984 162.14062 A 8.0008 8.0008 0 0 0 84.458984 162.13867 L 61.638672 80 z M 88 200 A 16 16 0 0 0 72 216 A 16 16 0 0 0 88 232 A 16 16 0 0 0 104 216 A 16 16 0 0 0 88 200 z M 192 200 A 16 16 0 0 0 176 216 A 16 16 0 0 0 192 232 A 16 16 0 0 0 208 216 A 16 16 0 0 0 192 200 z " />
</svg>
