<?xml version="1.0" encoding="UTF-8" standalone="no"?>
<svg
   viewBox="0 0 256 256"
   version="1.1"
   id="svg2"
   sodipodi:docname="signpost blue_green.svg"
   xmlns:inkscape="http://www.inkscape.org/namespaces/inkscape"
   xmlns:sodipodi="http://sodipodi.sourceforge.net/DTD/sodipodi-0.dtd"
   xmlns:xlink="http://www.w3.org/1999/xlink"
   xmlns="http://www.w3.org/2000/svg"
   xmlns:svg="http://www.w3.org/2000/svg">
  <defs
     id="defs3">
    <linearGradient
       id="linearGradient1"
       inkscape:collect="always">
      <stop
         style="stop-color:#0ec38bff;stop-opacity:1;"
         offset="0"
         id="stop1" />
      <stop
         style="stop-color:#4b4fe2ff;stop-opacity:1;"
         offset="0.76340693"
         id="stop2" />
    </linearGradient>
    <linearGradient
       inkscape:collect="always"
       xlink:href="#linearGradient1"
       id="linearGradient2"
       x1="232.4884"
       y1="23.847498"
       x2="23.977745"
       y2="232.35815"
       gradientUnits="userSpaceOnUse" />
  </defs>
  <defs
     id="defs2" />
  <sodipodi:namedview
     id="namedview2"
     pagecolor="#ffffff"
     bordercolor="#000000"
     borderopacity="0.25"
     inkscape:showpageshadow="2"
     inkscape:pageopacity="0.0"
     inkscape:pagecheckerboard="0"
     inkscape:deskcolor="#d1d1d1" />
  <path
     id="path1"
     style="baseline-shift:baseline;display:inline;overflow:visible;vector-effect:none;fill:url(#linearGradient2);stroke-linecap:round;stroke-linejoin:round;enable-background:accumulate;stop-color:#000000;stop-opacity:1;opacity:1;fill-opacity:1"
     d="M 128 24 A 8 8 0 0 0 120 32 L 120 64 L 40 64 C 31.258201 64 24 71.258201 24 80 L 24 144 C 24 152.7418 31.258201 160 40 160 L 120 160 L 120 224 A 8 8 0 0 0 128 232 A 8 8 0 0 0 136 224 L 136 160 L 200.43945 160 A 8.0008 8.0008 0 0 0 200.44727 160 C 204.97493 159.996 209.30026 158.06548 212.32812 154.69922 L 245.94531 117.35156 A 8.0008 8.0008 0 0 0 245.94531 106.64844 L 212.32812 69.300781 C 209.30025 65.934516 204.97493 64.004472 200.44727 64 A 8.0008 8.0008 0 0 0 200.43945 64 L 136 64 L 136 32 A 8 8 0 0 0 128 24 z M 40 80 L 200.43164 80 A 8.0008 8.0008 0 0 0 200.43359 80.001953 L 229.23633 112 L 200.43359 143.99805 A 8.0008 8.0008 0 0 0 200.43164 144 L 128.02734 144 L 127.97266 144 L 40 144 L 40 80 z " />
</svg>
