<?xml version="1.0" encoding="UTF-8" standalone="no"?>
<svg
   viewBox="0 0 256 256"
   version="1.1"
   id="svg5"
   sodipodi:docname="sliders horizontal blue_green.svg"
   xmlns:inkscape="http://www.inkscape.org/namespaces/inkscape"
   xmlns:sodipodi="http://sodipodi.sourceforge.net/DTD/sodipodi-0.dtd"
   xmlns:xlink="http://www.w3.org/1999/xlink"
   xmlns="http://www.w3.org/2000/svg"
   xmlns:svg="http://www.w3.org/2000/svg">
  <defs
     id="defs3">
    <linearGradient
       id="linearGradient1"
       inkscape:collect="always">
      <stop
         style="stop-color:#0ec38bff;stop-opacity:1;"
         offset="0"
         id="stop1" />
      <stop
         style="stop-color:#4b4fe2ff;stop-opacity:1;"
         offset="0.76340693"
         id="stop2" />
    </linearGradient>
    <linearGradient
       inkscape:collect="always"
       xlink:href="#linearGradient1"
       id="linearGradient2"
       x1="232.4884"
       y1="23.847498"
       x2="23.977745"
       y2="232.35815"
       gradientUnits="userSpaceOnUse" />
  </defs>
  <defs
     id="defs5" />
  <sodipodi:namedview
     id="namedview5"
     pagecolor="#ffffff"
     bordercolor="#000000"
     borderopacity="0.25"
     inkscape:showpageshadow="2"
     inkscape:pageopacity="0.0"
     inkscape:pagecheckerboard="0"
     inkscape:deskcolor="#d1d1d1" />
  <path
     id="circle1"
     style="baseline-shift:baseline;display:inline;overflow:visible;vector-effect:none;fill:url(#linearGradient2);stroke-linecap:round;stroke-linejoin:round;enable-background:accumulate;stop-color:#000000;stop-opacity:1;opacity:1;fill-opacity:1"
     d="M 104 48 C 89.180591 48 76.604016 58.249911 73.021484 72 L 40 72 A 8 8 0 0 0 32 80 A 8 8 0 0 0 40 88 L 73.021484 88 C 76.604016 101.75009 89.180591 112 104 112 C 118.8194 112 131.39598 101.75009 134.97852 88 L 216 88 A 8 8 0 0 0 224 80 A 8 8 0 0 0 216 72 L 134.97852 72 C 131.39598 58.249911 118.8194 48 104 48 z M 104 64 C 112.93131 64 120 71.068687 120 80 C 120 88.931313 112.93131 96 104 96 C 95.068687 96 88 88.931313 88 80 C 88 71.068687 95.068687 64 104 64 z M 168 144 C 153.1806 144 140.60402 154.24991 137.02148 168 L 40 168 A 8 8 0 0 0 32 176 A 8 8 0 0 0 40 184 L 137.02148 184 C 140.60402 197.75009 153.1806 208 168 208 C 182.8194 208 195.39598 197.75009 198.97852 184 L 216 184 A 8 8 0 0 0 224 176 A 8 8 0 0 0 216 168 L 198.97852 168 C 195.39598 154.24991 182.8194 144 168 144 z M 168 160 C 176.93131 160 184 167.06869 184 176 C 184 184.93131 176.93131 192 168 192 C 159.06869 192 152 184.93131 152 176 C 152 167.06869 159.06869 160 168 160 z " />
</svg>
