<?xml version="1.0" encoding="UTF-8" standalone="no"?>
<svg
   viewBox="0 0 256 256"
   version="1.1"
   id="svg2"
   sodipodi:docname="stamp blue_green.svg"
   xmlns:inkscape="http://www.inkscape.org/namespaces/inkscape"
   xmlns:sodipodi="http://sodipodi.sourceforge.net/DTD/sodipodi-0.dtd"
   xmlns:xlink="http://www.w3.org/1999/xlink"
   xmlns="http://www.w3.org/2000/svg"
   xmlns:svg="http://www.w3.org/2000/svg">
  <defs
     id="defs3">
    <linearGradient
       id="linearGradient1"
       inkscape:collect="always">
      <stop
         style="stop-color:#0ec38bff;stop-opacity:1;"
         offset="0"
         id="stop1" />
      <stop
         style="stop-color:#4b4fe2ff;stop-opacity:1;"
         offset="0.76340693"
         id="stop2" />
    </linearGradient>
    <linearGradient
       inkscape:collect="always"
       xlink:href="#linearGradient1"
       id="linearGradient2"
       x1="232.4884"
       y1="23.847498"
       x2="23.977745"
       y2="232.35815"
       gradientUnits="userSpaceOnUse" />
  </defs>
  <defs
     id="defs2" />
  <sodipodi:namedview
     id="namedview2"
     pagecolor="#ffffff"
     bordercolor="#000000"
     borderopacity="0.25"
     inkscape:showpageshadow="2"
     inkscape:pageopacity="0.0"
     inkscape:pagecheckerboard="0"
     inkscape:deskcolor="#d1d1d1" />
  <path
     id="line1"
     style="baseline-shift:baseline;display:inline;overflow:visible;vector-effect:none;fill:url(#linearGradient2);stroke-linecap:round;stroke-linejoin:round;enable-background:accumulate;stop-color:#000000;stop-opacity:1;opacity:1;fill-opacity:1"
     d="M 119.99609 16 C 99.821518 16.011254 84.511801 34.934099 88.714844 54.666016 A 8.0008 8.0008 0 0 0 88.716797 54.675781 L 104.42578 128 L 48 128 C 39.274378 128 32 135.27438 32 144 L 32 184 C 32 192.72562 39.274378 200 48 200 L 208 200 C 216.72562 200 224 192.72562 224 184 L 224 144 C 224 135.27438 216.72562 128 208 128 L 151.58398 128 L 167.29297 54.675781 A 8.0008 8.0008 0 0 0 167.29492 54.666016 C 171.49901 34.928994 156.1818 16.00285 136.00195 16 A 8.0008 8.0008 0 0 0 136 16 L 120 16 A 8.0008 8.0008 0 0 0 119.99609 16 z M 120 32 L 136 32 C 146.35057 32.0027 153.80169 41.208327 151.64648 51.332031 L 135.22266 128 L 120.78711 128 L 104.36523 51.333984 L 104.36523 51.332031 L 104.36328 51.324219 C 102.21453 41.207236 109.65615 32.008148 120 32 z M 48 144 L 208 144 L 208 184 L 48 184 L 48 144 z M 40 216 A 8 8 0 0 0 32 224 A 8 8 0 0 0 40 232 L 216 232 A 8 8 0 0 0 224 224 A 8 8 0 0 0 216 216 L 40 216 z " />
</svg>
