<?xml version="1.0" encoding="UTF-8" standalone="no"?>
<svg
   viewBox="0 0 256 256"
   version="1.1"
   id="svg1"
   sodipodi:docname="star blue_green.svg"
   xmlns:inkscape="http://www.inkscape.org/namespaces/inkscape"
   xmlns:sodipodi="http://sodipodi.sourceforge.net/DTD/sodipodi-0.dtd"
   xmlns:xlink="http://www.w3.org/1999/xlink"
   xmlns="http://www.w3.org/2000/svg"
   xmlns:svg="http://www.w3.org/2000/svg">
  <defs
     id="defs3">
    <linearGradient
       id="linearGradient1"
       inkscape:collect="always">
      <stop
         style="stop-color:#0ec38bff;stop-opacity:1;"
         offset="0"
         id="stop1" />
      <stop
         style="stop-color:#4b4fe2ff;stop-opacity:1;"
         offset="0.76340693"
         id="stop2" />
    </linearGradient>
    <linearGradient
       inkscape:collect="always"
       xlink:href="#linearGradient1"
       id="linearGradient2"
       x1="232.4884"
       y1="23.847498"
       x2="23.977745"
       y2="232.35815"
       gradientUnits="userSpaceOnUse" />
  </defs>
  <defs
     id="defs1" />
  <sodipodi:namedview
     id="namedview1"
     pagecolor="#ffffff"
     bordercolor="#000000"
     borderopacity="0.25"
     inkscape:showpageshadow="2"
     inkscape:pageopacity="0.0"
     inkscape:pagecheckerboard="0"
     inkscape:deskcolor="#d1d1d1" />
  <path
     id="path1"
     style="baseline-shift:baseline;display:inline;overflow:visible;vector-effect:none;fill:url(#linearGradient2);stroke-linecap:round;stroke-linejoin:round;enable-background:accumulate;stop-color:#000000;stop-opacity:1;opacity:1;fill-opacity:1"
     d="M 128 16 C 121.91404 16 115.49201 19.711963 112.85352 26.175781 L 90.113281 81.222656 L 31.082031 86.025391 A 8.0008 8.0008 0 0 0 31.029297 86.03125 C 24.111057 86.638695 18.671311 91.596058 16.806641 97.369141 C 14.94197 103.14222 16.455156 110.34518 21.710938 114.88477 A 8.0008 8.0008 0 0 0 21.714844 114.88867 L 66.734375 153.71289 L 52.988281 211.67578 C 51.338929 218.44134 54.328581 225.20074 59.230469 228.79102 C 64.132357 232.3813 71.478949 233.19181 77.431641 229.57812 A 8.0008 8.0008 0 0 0 77.470703 229.55469 L 128 198.48242 L 178.5293 229.55469 A 8.0008 8.0008 0 0 0 178.56836 229.57812 C 184.52105 233.1918 191.86764 232.3813 196.76953 228.79102 C 201.67142 225.20074 204.66107 218.44134 203.01172 211.67578 L 189.26562 153.66406 L 234.28516 114.83789 A 8.0008 8.0008 0 0 0 234.33789 114.79102 C 239.52131 110.23967 240.99695 103.08758 239.13672 97.347656 C 237.27649 91.60773 231.88726 86.680893 225.01953 86.035156 A 8.0008 8.0008 0 0 0 224.91797 86.025391 L 165.88672 81.222656 L 143.14648 26.175781 C 140.50799 19.711963 134.08596 16 128 16 z M 127.80469 31.935547 L 127.80664 31.935547 L 127.80859 31.935547 L 127.81055 31.935547 L 127.8125 31.935547 C 127.81342 31.935526 127.81743 31.935449 127.81836 31.935547 L 127.82031 31.935547 C 127.84908 31.944919 127.88806 32 128 32 C 128.11194 32 128.15287 31.944919 128.18164 31.935547 L 128.18359 31.935547 C 128.18452 31.935449 128.18854 31.935526 128.18945 31.935547 C 128.19037 31.935694 128.1944 31.93722 128.19531 31.9375 L 128.19727 31.9375 L 128.19922 31.939453 L 128.20117 31.939453 C 128.22571 31.958276 128.256 32.031607 128.33398 32.222656 A 8.0008 8.0008 0 0 0 128.3457 32.253906 L 152.9668 91.853516 A 8.0008 8.0008 0 0 0 159.71094 96.773438 L 223.52344 101.9668 C 224.03219 102.015 223.83461 102.0301 223.91602 102.28125 C 223.99782 102.53379 224.17325 102.42337 223.78125 102.76758 L 223.83594 102.72266 L 175.13477 144.72266 A 8.0008 8.0008 0 0 0 172.57617 152.625 L 187.45508 215.41406 A 8.0008 8.0008 0 0 0 187.4668 215.46484 C 187.51847 215.67681 187.53432 215.76083 187.52148 215.79492 C 187.52037 215.7972 187.51706 215.80286 187.51562 215.80469 L 187.51367 215.80469 L 187.51367 215.80664 L 187.51172 215.80664 L 187.51172 215.80859 L 187.50977 215.80859 L 187.50781 215.81055 C 187.47677 215.82767 187.40941 215.81326 187.31445 215.88281 C 187.21959 215.9523 187.21087 216.0223 187.18555 216.04688 L 187.18359 216.04883 L 187.18164 216.05078 L 187.17969 216.05078 C 187.17775 216.0515 187.1749 216.05232 187.17383 216.05273 L 187.17188 216.05469 C 187.17068 216.05512 187.16853 216.05459 187.16797 216.05469 C 187.13204 216.05736 187.05902 216.01636 186.87109 215.90234 L 132.19141 182.27539 A 8.0008 8.0008 0 0 0 123.80859 182.27539 L 69.128906 215.90234 C 68.941113 216.01635 68.864303 216.0554 68.828125 216.05273 L 68.826172 216.05273 L 68.824219 216.05273 L 68.822266 216.05078 C 68.819659 216.04931 68.815873 216.0478 68.814453 216.04688 L 68.8125 216.04492 C 68.787141 216.02035 68.780413 215.95228 68.685547 215.88281 C 68.590581 215.81326 68.519431 215.82387 68.488281 215.80664 L 68.486328 215.80469 L 68.486328 215.80273 L 68.484375 215.80273 L 68.482422 215.80273 C 68.480985 215.80091 68.477678 215.79524 68.476562 215.79297 C 68.463729 215.75888 68.481529 215.67682 68.533203 215.46484 A 8.0008 8.0008 0 0 0 68.544922 215.41602 L 83.423828 152.67578 A 8.0008 8.0008 0 0 0 80.865234 144.77148 L 32.169922 102.77539 C 31.76669 102.42711 31.950375 102.54355 32.033203 102.28711 C 32.115583 102.03205 31.907815 102.01671 32.427734 101.9707 L 96.289062 96.773438 A 8.0008 8.0008 0 0 0 103.0332 91.853516 L 127.6543 32.253906 A 8.0008 8.0008 0 0 0 127.66602 32.222656 C 127.74401 32.031607 127.77624 31.956323 127.80078 31.9375 L 127.80273 31.9375 L 127.80469 31.935547 z " />
</svg>
