<?xml version="1.0" encoding="UTF-8" standalone="no"?>
<svg
   viewBox="0 0 256 256"
   version="1.1"
   id="svg5"
   sodipodi:docname="steam logo blue_green.svg"
   xmlns:inkscape="http://www.inkscape.org/namespaces/inkscape"
   xmlns:sodipodi="http://sodipodi.sourceforge.net/DTD/sodipodi-0.dtd"
   xmlns:xlink="http://www.w3.org/1999/xlink"
   xmlns="http://www.w3.org/2000/svg"
   xmlns:svg="http://www.w3.org/2000/svg">
  <defs
     id="defs3">
    <linearGradient
       id="linearGradient1"
       inkscape:collect="always">
      <stop
         style="stop-color:#0ec38bff;stop-opacity:1;"
         offset="0"
         id="stop1" />
      <stop
         style="stop-color:#4b4fe2ff;stop-opacity:1;"
         offset="0.76340693"
         id="stop2" />
    </linearGradient>
    <linearGradient
       inkscape:collect="always"
       xlink:href="#linearGradient1"
       id="linearGradient2"
       x1="232.4884"
       y1="23.847498"
       x2="23.977745"
       y2="232.35815"
       gradientUnits="userSpaceOnUse" />
  </defs>
  <defs
     id="defs5" />
  <sodipodi:namedview
     id="namedview5"
     pagecolor="#ffffff"
     bordercolor="#000000"
     borderopacity="0.25"
     inkscape:showpageshadow="2"
     inkscape:pageopacity="0.0"
     inkscape:pagecheckerboard="0"
     inkscape:deskcolor="#d1d1d1" />
  <path
     id="circle1"
     style="baseline-shift:baseline;display:inline;overflow:visible;vector-effect:none;fill:url(#linearGradient2);stroke-linecap:round;stroke-linejoin:round;enable-background:accumulate;stop-color:#000000;stop-opacity:1;opacity:1;fill-opacity:1"
     d="M 128 24 C 81.364058 24 41.796712 54.859792 28.646484 97.230469 A 8 8 0 0 0 28.306641 98.345703 C 25.505026 107.7468 24 117.70114 24 128 C 24 185.34286 70.657143 232 128 232 C 185.34286 232 232 185.34286 232 128 C 232 70.657143 185.34286 24 128 24 z M 128 40 C 176.69582 40 216 79.304185 216 128 C 216 176.69582 176.69582 216 128 216 C 79.304185 216 40 176.69582 40 128 C 40 123.96547 40.270383 119.996 40.792969 116.10742 L 75.392578 150.70703 C 73.231343 154.67048 72 159.20168 72 164 C 72 179.36922 84.630784 192 100 192 C 106.383 192 112.29373 189.82043 117.02344 186.17188 A 8 8 0 0 0 117.77539 185.62891 L 178.86523 135.81055 A 8 8 0 0 0 179.6543 135.07227 C 187.2077 128.45857 192 118.75796 192 108 C 192 88.212506 175.78749 72 156 72 C 145.24247 72 135.54142 76.790875 128.92773 84.34375 A 8 8 0 0 0 128.18945 85.134766 L 85.183594 137.86914 L 45.246094 97.931641 C 57.499449 64.096862 89.870938 40 128 40 z M 156 88 C 167.14045 88 176 96.859548 176 108 C 176 114.00566 173.4254 119.34876 169.30664 122.99805 A 8 8 0 0 0 168.75391 123.41016 L 167.61914 124.33594 C 164.35552 126.64771 160.35191 128 156 128 C 144.85955 128 136 119.14045 136 108 C 136 103.6481 137.35231 99.644468 139.66406 96.380859 L 140.58984 95.246094 A 8 8 0 0 0 141.00195 94.693359 C 144.65126 90.574256 149.99406 88 156 88 z M 121.58789 118.54688 C 125.09585 129.89819 134.10181 138.90415 145.45312 142.41211 L 127.18359 157.3125 C 124.6889 147.27691 116.72309 139.3111 106.6875 136.81641 L 121.58789 118.54688 z M 100 152 C 106.72217 152 112 157.27783 112 164 C 112 167.39507 110.65375 170.42159 108.45508 172.58594 L 107.66406 173.23047 A 8 8 0 0 0 107.11719 173.7207 C 105.13774 175.15942 102.68393 176 100 176 C 93.277826 176 88 170.72217 88 164 C 88 161.31607 88.840586 158.86225 90.279297 156.88281 A 8 8 0 0 0 90.769531 156.33594 L 91.167969 155.84766 L 91.169922 155.8457 A 8 8 0 0 0 91.517578 155.51758 A 8 8 0 0 0 92.003906 154.98633 C 94.112939 153.12044 96.902768 152 100 152 z " />
</svg>
