<?xml version="1.0" encoding="UTF-8" standalone="no"?>
<svg
   viewBox="0 0 256 256"
   version="1.1"
   id="svg3"
   sodipodi:docname="stethoscope blue_green.svg"
   xmlns:inkscape="http://www.inkscape.org/namespaces/inkscape"
   xmlns:sodipodi="http://sodipodi.sourceforge.net/DTD/sodipodi-0.dtd"
   xmlns:xlink="http://www.w3.org/1999/xlink"
   xmlns="http://www.w3.org/2000/svg"
   xmlns:svg="http://www.w3.org/2000/svg">
  <defs
     id="defs3">
    <linearGradient
       id="linearGradient1"
       inkscape:collect="always">
      <stop
         style="stop-color:#0ec38bff;stop-opacity:1;"
         offset="0"
         id="stop1" />
      <stop
         style="stop-color:#4b4fe2ff;stop-opacity:1;"
         offset="0.76340693"
         id="stop2" />
    </linearGradient>
    <linearGradient
       inkscape:collect="always"
       xlink:href="#linearGradient1"
       id="linearGradient2"
       x1="232.4884"
       y1="23.847498"
       x2="23.977745"
       y2="232.35815"
       gradientUnits="userSpaceOnUse" />
  </defs>
  <defs
     id="defs1" />
  <sodipodi:namedview
     id="namedview3"
     pagecolor="#ffffff"
     bordercolor="#000000"
     borderopacity="0.25"
     inkscape:showpageshadow="2"
     inkscape:pageopacity="0.0"
     inkscape:pagecheckerboard="0"
     inkscape:deskcolor="#d1d1d1" />
  <path
     id="circle1"
     style="baseline-shift:baseline;display:inline;overflow:visible;vector-effect:none;fill:url(#linearGradient2);stroke-linecap:round;stroke-linejoin:round;enable-background:accumulate;stop-color:#000000;stop-opacity:1;opacity:1;fill-opacity:1"
     d="M 48 32 A 8.0008 8.0008 0 0 0 40 40 L 40 88 C 39.997161 120.58221 64.543152 147.55468 96 151.50781 L 96 192 C 96 218.41491 117.58509 240 144 240 L 168 240 C 191.93414 240 211.90368 222.27902 215.44336 199.30078 C 233.91704 195.78674 248 179.45521 248 160 C 248 138.00337 229.99663 120 208 120 C 186.00337 120 168 138.00337 168 160 C 168 178.98911 181.41598 195.00153 199.23633 199.02539 C 196.06262 213.375 183.35146 224 168 224 L 144 224 C 126.23213 224 112 209.76787 112 192 L 112 151.50195 C 143.73517 147.47269 168 119.77207 168 87.169922 L 168 40 A 8.0008 8.0008 0 0 0 160 32 L 136 32 A 8 8 0 0 0 128 40 A 8 8 0 0 0 136 48 L 152 48 L 152 87.169922 C 152 113.69683 131.02678 135.65705 104.63672 136 A 8.0008 8.0008 0 0 0 104.63477 136 C 104.5035 136.00173 104.37321 136.00321 104.24219 136.00391 A 8 8 0 0 0 104 136 A 8 8 0 0 0 103.75391 136.00391 C 77.304765 135.88285 55.997681 114.56357 56 88 L 56 48 L 72 48 A 8 8 0 0 0 80 40 A 8 8 0 0 0 72 32 L 48 32 z M 208 136 C 221.34959 136 232 146.65041 232 160 C 232 173.34959 221.34959 184 208 184 C 194.65041 184 184 173.34959 184 160 C 184 146.65041 194.65041 136 208 136 z M 208 148 A 12 12 0 0 0 196 160 A 12 12 0 0 0 208 172 A 12 12 0 0 0 220 160 A 12 12 0 0 0 208 148 z " />
</svg>
