<?xml version="1.0" encoding="UTF-8" standalone="no"?>
<svg
   viewBox="0 0 256 256"
   version="1.1"
   id="svg2"
   sodipodi:docname="student blue_green.svg"
   xmlns:inkscape="http://www.inkscape.org/namespaces/inkscape"
   xmlns:sodipodi="http://sodipodi.sourceforge.net/DTD/sodipodi-0.dtd"
   xmlns:xlink="http://www.w3.org/1999/xlink"
   xmlns="http://www.w3.org/2000/svg"
   xmlns:svg="http://www.w3.org/2000/svg">
  <defs
     id="defs3">
    <linearGradient
       id="linearGradient1"
       inkscape:collect="always">
      <stop
         style="stop-color:#0ec38bff;stop-opacity:1;"
         offset="0"
         id="stop1" />
      <stop
         style="stop-color:#4b4fe2ff;stop-opacity:1;"
         offset="0.76340693"
         id="stop2" />
    </linearGradient>
    <linearGradient
       inkscape:collect="always"
       xlink:href="#linearGradient1"
       id="linearGradient2"
       x1="232.4884"
       y1="23.847498"
       x2="23.977745"
       y2="232.35815"
       gradientUnits="userSpaceOnUse" />
  </defs>
  <defs
     id="defs2" />
  <sodipodi:namedview
     id="namedview2"
     pagecolor="#ffffff"
     bordercolor="#000000"
     borderopacity="0.25"
     inkscape:showpageshadow="2"
     inkscape:pageopacity="0.0"
     inkscape:pagecheckerboard="0"
     inkscape:deskcolor="#d1d1d1" />
  <path
     id="line1"
     style="baseline-shift:baseline;display:inline;overflow:visible;vector-effect:none;fill:url(#linearGradient2);stroke-linecap:round;stroke-linejoin:round;enable-background:accumulate;stop-color:#000000;stop-opacity:1;opacity:1;fill-opacity:1"
     d="M 127.48633 24.015625 A 8.0008 8.0008 0 0 0 125.4707 24.410156 L 29.470703 56.410156 A 8.0008 8.0008 0 0 0 29.214844 56.515625 A 8 8 0 0 0 28.683594 56.736328 A 8.0008 8.0008 0 0 0 28.242188 56.953125 A 8 8 0 0 0 27.724609 57.255859 A 8.0008 8.0008 0 0 0 27.330078 57.519531 A 8 8 0 0 0 26.859375 57.890625 A 8.0008 8.0008 0 0 0 26.488281 58.216797 A 8 8 0 0 0 26.082031 58.642578 A 8.0008 8.0008 0 0 0 25.765625 59 A 8 8 0 0 0 25.392578 59.521484 A 8.0008 8.0008 0 0 0 25.150391 59.882812 A 8 8 0 0 0 24.851562 60.449219 A 8.0008 8.0008 0 0 0 24.652344 60.853516 A 8 8 0 0 0 24.435547 61.453125 A 8.0008 8.0008 0 0 0 24.292969 61.869141 A 8 8 0 0 0 24.130859 62.640625 A 8.0008 8.0008 0 0 0 24.076172 62.914062 A 8 8 0 0 0 24 64 L 24 144 A 8 8 0 0 0 32 152 A 8 8 0 0 0 40 144 L 40 75.099609 L 73.589844 86.296875 C 62.6187 104.0172 60.83444 126.29792 69.4375 145.8125 C 74.745747 157.85336 83.498581 167.68565 94.236328 174.35547 C 75.660765 181.69196 60.192474 194.92264 49.298828 211.63086 A 8 8 0 0 0 51.630859 222.70117 A 8 8 0 0 0 62.701172 220.36914 C 77.125361 198.24593 99.858678 184 128 184 C 156.14132 184 178.87464 198.24593 193.29883 220.36914 A 8 8 0 0 0 204.36914 222.70117 A 8 8 0 0 0 206.70117 211.63086 C 195.80753 194.92264 180.33923 181.69196 161.76367 174.35547 C 172.50142 167.68565 181.25425 157.85336 186.5625 145.8125 C 195.16556 126.29792 193.3813 104.0172 182.41016 86.296875 L 226.5293 71.589844 A 8.0008 8.0008 0 0 0 226.5293 56.410156 L 130.5293 24.410156 A 8.0008 8.0008 0 0 0 127.48633 24.015625 z M 128 40.433594 L 198.70117 64 L 128 87.566406 L 57.298828 64 L 128 40.433594 z M 89.337891 91.544922 L 125.4707 103.58984 A 8.0008 8.0008 0 0 0 130.5293 103.58984 L 166.66211 91.544922 C 176.78783 105.28763 178.91374 123.49755 171.92188 139.35742 C 164.24057 156.78119 147.04264 167.99414 128 167.99414 C 108.95736 167.99414 91.759444 156.78119 84.078125 139.35742 C 77.086251 123.49755 79.212175 105.28763 89.337891 91.544922 z " />
</svg>
