<?xml version="1.0" encoding="UTF-8" standalone="no"?>
<svg
   viewBox="0 0 256 256"
   version="1.1"
   id="svg3"
   sodipodi:docname="text h three blue_green.svg"
   xmlns:inkscape="http://www.inkscape.org/namespaces/inkscape"
   xmlns:sodipodi="http://sodipodi.sourceforge.net/DTD/sodipodi-0.dtd"
   xmlns:xlink="http://www.w3.org/1999/xlink"
   xmlns="http://www.w3.org/2000/svg"
   xmlns:svg="http://www.w3.org/2000/svg">
  <defs
     id="defs3">
    <linearGradient
       id="linearGradient1"
       inkscape:collect="always">
      <stop
         style="stop-color:#0ec38bff;stop-opacity:1;"
         offset="0"
         id="stop1" />
      <stop
         style="stop-color:#4b4fe2ff;stop-opacity:1;"
         offset="0.76340693"
         id="stop2" />
    </linearGradient>
    <linearGradient
       inkscape:collect="always"
       xlink:href="#linearGradient1"
       id="linearGradient2"
       x1="232.4884"
       y1="23.847498"
       x2="23.977745"
       y2="232.35815"
       gradientUnits="userSpaceOnUse" />
  </defs>
  <defs
     id="defs1" />
  <sodipodi:namedview
     id="namedview3"
     pagecolor="#ffffff"
     bordercolor="#000000"
     borderopacity="0.25"
     inkscape:showpageshadow="2"
     inkscape:pageopacity="0.0"
     inkscape:pagecheckerboard="0"
     inkscape:deskcolor="#d1d1d1" />
  <path
     id="line1"
     style="baseline-shift:baseline;display:inline;overflow:visible;vector-effect:none;fill:url(#linearGradient2);stroke-linecap:round;stroke-linejoin:round;enable-background:accumulate;stop-color:#000000;stop-opacity:1;opacity:1;fill-opacity:1"
     d="M 40 48 A 8 8 0 0 0 32 56 L 32 176 A 8 8 0 0 0 40 184 A 8 8 0 0 0 48 176 L 48 124 L 136 124 L 136 176 A 8 8 0 0 0 144 184 A 8 8 0 0 0 152 176 L 152 56 A 8 8 0 0 0 144 48 A 8 8 0 0 0 136 56 L 136 108 L 48 108 L 48 56 A 8 8 0 0 0 40 48 z M 192 104 A 8 8 0 0 0 184 112 A 8 8 0 0 0 192 120 L 224.63281 120 L 205.44531 147.41211 A 8.0008 8.0008 0 0 0 211.99805 160 C 226.57914 160.002 236.08171 174.30554 230.43359 187.74805 C 224.78548 201.19056 207.91966 204.41298 197.71289 194 A 8 8 0 0 0 186.40039 193.88672 A 8 8 0 0 0 186.28711 205.19922 C 204.10055 223.37256 235.32809 217.40605 245.18555 193.94531 C 253.17277 174.93572 243.13126 153.95126 225.49805 146.66797 L 246.55469 116.58789 A 8.0008 8.0008 0 0 0 240 104 L 192 104 z " />
</svg>
