<?xml version="1.0" encoding="UTF-8" standalone="no"?>
<svg
   viewBox="0 0 256 256"
   version="1.1"
   id="svg4"
   sodipodi:docname="text h six blue_green.svg"
   xmlns:inkscape="http://www.inkscape.org/namespaces/inkscape"
   xmlns:sodipodi="http://sodipodi.sourceforge.net/DTD/sodipodi-0.dtd"
   xmlns:xlink="http://www.w3.org/1999/xlink"
   xmlns="http://www.w3.org/2000/svg"
   xmlns:svg="http://www.w3.org/2000/svg">
  <defs
     id="defs3">
    <linearGradient
       id="linearGradient1"
       inkscape:collect="always">
      <stop
         style="stop-color:#0ec38bff;stop-opacity:1;"
         offset="0"
         id="stop1" />
      <stop
         style="stop-color:#4b4fe2ff;stop-opacity:1;"
         offset="0.76340693"
         id="stop2" />
    </linearGradient>
    <linearGradient
       inkscape:collect="always"
       xlink:href="#linearGradient1"
       id="linearGradient2"
       x1="232.4884"
       y1="23.847498"
       x2="23.977745"
       y2="232.35815"
       gradientUnits="userSpaceOnUse" />
  </defs>
  <defs
     id="defs4" />
  <sodipodi:namedview
     id="namedview4"
     pagecolor="#ffffff"
     bordercolor="#000000"
     borderopacity="0.25"
     inkscape:showpageshadow="2"
     inkscape:pageopacity="0.0"
     inkscape:pagecheckerboard="0"
     inkscape:deskcolor="#d1d1d1" />
  <path
     id="line1"
     style="baseline-shift:baseline;display:inline;overflow:visible;vector-effect:none;fill:url(#linearGradient2);stroke-linecap:round;stroke-linejoin:round;enable-background:accumulate;stop-color:#000000;stop-opacity:1;opacity:1;fill-opacity:1"
     d="M 40 48 A 8 8 0 0 0 32 56 L 32 176 A 8 8 0 0 0 40 184 A 8 8 0 0 0 48 176 L 48 124 L 136 124 L 136 176 A 8 8 0 0 0 144 184 A 8 8 0 0 0 152 176 L 152 56 A 8 8 0 0 0 144 48 A 8 8 0 0 0 136 56 L 136 108 L 48 108 L 48 56 A 8 8 0 0 0 40 48 z M 220.11719 104 A 8 8 0 0 0 218.04297 104.24219 A 8 8 0 0 0 213.13086 107.89844 L 180.88086 161.89844 A 8 8 0 0 0 180.45117 162.72461 C 177.61643 167.86175 176 173.75227 176 180 C 176 199.78749 192.21251 216 212 216 C 231.78749 216 248 199.78749 248 180 C 248 160.21251 231.78749 144 212 144 C 211.39052 144 210.78396 144.01453 210.18164 144.04492 L 226.86914 116.10156 A 8 8 0 0 0 224.10156 105.13086 A 8 8 0 0 0 220.11719 104 z M 212 160 C 223.14045 160 232 168.85955 232 180 C 232 191.14045 223.14045 200 212 200 C 200.85955 200 192 191.14045 192 180 C 192 176.57688 192.83627 173.36993 194.31836 170.56836 A 8 8 0 0 0 194.61914 170.10156 L 195.50586 168.61523 L 195.55078 168.54297 C 199.14494 163.3598 205.1396 160 212 160 z " />
</svg>
