<?xml version="1.0" encoding="UTF-8" standalone="no"?>
<svg
   viewBox="0 0 256 256"
   version="1.1"
   id="svg2"
   sodipodi:docname="text superscript blue_green.svg"
   xmlns:inkscape="http://www.inkscape.org/namespaces/inkscape"
   xmlns:sodipodi="http://sodipodi.sourceforge.net/DTD/sodipodi-0.dtd"
   xmlns:xlink="http://www.w3.org/1999/xlink"
   xmlns="http://www.w3.org/2000/svg"
   xmlns:svg="http://www.w3.org/2000/svg">
  <defs
     id="defs3">
    <linearGradient
       id="linearGradient1"
       inkscape:collect="always">
      <stop
         style="stop-color:#0ec38bff;stop-opacity:1;"
         offset="0"
         id="stop1" />
      <stop
         style="stop-color:#4b4fe2ff;stop-opacity:1;"
         offset="0.76340693"
         id="stop2" />
    </linearGradient>
    <linearGradient
       inkscape:collect="always"
       xlink:href="#linearGradient1"
       id="linearGradient2"
       x1="232.4884"
       y1="23.847498"
       x2="23.977745"
       y2="232.35815"
       gradientUnits="userSpaceOnUse" />
  </defs>
  <defs
     id="defs2" />
  <sodipodi:namedview
     id="namedview2"
     pagecolor="#ffffff"
     bordercolor="#000000"
     borderopacity="0.25"
     inkscape:showpageshadow="2"
     inkscape:pageopacity="0.0"
     inkscape:pagecheckerboard="0"
     inkscape:deskcolor="#d1d1d1" />
  <path
     id="path1"
     style="baseline-shift:baseline;display:inline;overflow:visible;vector-effect:none;fill:url(#linearGradient2);stroke-linecap:round;stroke-linejoin:round;enable-background:accumulate;stop-color:#000000;stop-opacity:1;opacity:1;fill-opacity:1"
     d="M 215.17969 40.0625 C 202.45793 40.458645 190.39333 48.431774 185.82812 61.332031 A 8 8 0 0 0 190.70117 71.541016 A 8 8 0 0 0 200.91211 66.667969 C 204.23311 57.283522 214.79174 53.20164 223.5625 57.910156 C 232.33326 62.618672 234.76598 73.675512 228.7793 81.628906 A 8.0008 8.0008 0 0 0 228.76953 81.640625 L 185.59961 139.19922 A 8.0008 8.0008 0 0 0 192 152 L 240 152 A 8 8 0 0 0 248 144 A 8 8 0 0 0 240 136 L 208 136 L 241.5625 91.251953 L 241.56641 91.246094 C 253.26499 75.697037 248.276 53.016731 231.13086 43.8125 C 226.84405 41.511158 222.27412 40.308434 217.73047 40.085938 C 216.87853 40.044218 216.0278 40.03609 215.17969 40.0625 z M 39.523438 72.013672 A 8 8 0 0 0 34.759766 73.955078 A 8 8 0 0 0 33.955078 85.240234 L 81.414062 140 L 33.955078 194.75977 A 8 8 0 0 0 34.759766 206.04492 A 8 8 0 0 0 46.044922 205.24023 L 92 152.21484 L 137.95508 205.24023 A 8 8 0 0 0 149.24023 206.04492 A 8 8 0 0 0 150.04492 194.75977 L 102.58594 140 L 150.04492 85.240234 A 8 8 0 0 0 149.24023 73.955078 A 8 8 0 0 0 143.42969 72.019531 A 8 8 0 0 0 137.95508 74.759766 L 92 127.78516 L 46.044922 74.759766 A 8 8 0 0 0 40.570312 72.019531 A 8 8 0 0 0 39.523438 72.013672 z " />
</svg>
