<?xml version="1.0" encoding="UTF-8" standalone="no"?>
<svg
   viewBox="0 0 256 256"
   version="1.1"
   id="svg3"
   sodipodi:docname="text h five blue_green.svg"
   xmlns:inkscape="http://www.inkscape.org/namespaces/inkscape"
   xmlns:sodipodi="http://sodipodi.sourceforge.net/DTD/sodipodi-0.dtd"
   xmlns:xlink="http://www.w3.org/1999/xlink"
   xmlns="http://www.w3.org/2000/svg"
   xmlns:svg="http://www.w3.org/2000/svg">
  <defs
     id="defs3">
    <linearGradient
       id="linearGradient1"
       inkscape:collect="always">
      <stop
         style="stop-color:#0ec38bff;stop-opacity:1;"
         offset="0"
         id="stop1" />
      <stop
         style="stop-color:#4b4fe2ff;stop-opacity:1;"
         offset="0.76340693"
         id="stop2" />
    </linearGradient>
    <linearGradient
       inkscape:collect="always"
       xlink:href="#linearGradient1"
       id="linearGradient2"
       x1="232.4884"
       y1="23.847498"
       x2="23.977745"
       y2="232.35815"
       gradientUnits="userSpaceOnUse" />
  </defs>
  <defs
     id="defs1" />
  <sodipodi:namedview
     id="namedview3"
     pagecolor="#ffffff"
     bordercolor="#000000"
     borderopacity="0.25"
     inkscape:showpageshadow="2"
     inkscape:pageopacity="0.0"
     inkscape:pagecheckerboard="0"
     inkscape:deskcolor="#d1d1d1" />
  <path
     id="line1"
     style="baseline-shift:baseline;display:inline;overflow:visible;vector-effect:none;fill:url(#linearGradient2);stroke-linecap:round;stroke-linejoin:round;enable-background:accumulate;stop-color:#000000;stop-opacity:1;opacity:1;fill-opacity:1"
     d="M 40 48 A 8 8 0 0 0 32 56 L 32 176 A 8 8 0 0 0 40 184 A 8 8 0 0 0 48 176 L 48 124 L 136 124 L 136 176 A 8 8 0 0 0 144 184 A 8 8 0 0 0 152 176 L 152 56 A 8 8 0 0 0 144 48 A 8 8 0 0 0 136 56 L 136 108 L 48 108 L 48 56 A 8 8 0 0 0 40 48 z M 200 104 A 8.0008 8.0008 0 0 0 192.10938 110.68555 L 184.10938 158.68555 A 8.0008 8.0008 0 0 0 197.63672 165.67773 C 201.4055 161.93562 206.5241 159.8874 211.83398 159.99805 A 8.0008 8.0008 0 0 0 212 160 C 223.14047 160 232 168.85954 232 180 C 232 191.14046 223.14047 200 212 200 A 8.0008 8.0008 0 0 0 211.83398 200.00195 C 206.5241 200.1126 201.4055 198.06438 197.63672 194.32227 A 8 8 0 0 0 186.32227 194.36328 A 8 8 0 0 0 186.36328 205.67773 C 193.18683 212.45301 202.47206 216.17004 212.08398 215.99219 C 231.8324 215.94519 248 199.75877 248 180 C 248 160.24123 231.83239 144.05477 212.08398 144.00781 C 208.82942 143.94761 205.65922 144.48348 202.5625 145.28516 L 206.77734 120 L 240 120 A 8 8 0 0 0 248 112 A 8 8 0 0 0 240 104 L 200 104 z " />
</svg>
