<?xml version="1.0" encoding="UTF-8" standalone="no"?>
<svg
   viewBox="0 0 256 256"
   version="1.1"
   id="svg3"
   sodipodi:docname="toilet paper blue_green.svg"
   xmlns:inkscape="http://www.inkscape.org/namespaces/inkscape"
   xmlns:sodipodi="http://sodipodi.sourceforge.net/DTD/sodipodi-0.dtd"
   xmlns:xlink="http://www.w3.org/1999/xlink"
   xmlns="http://www.w3.org/2000/svg"
   xmlns:svg="http://www.w3.org/2000/svg">
  <defs
     id="defs3">
    <linearGradient
       id="linearGradient1"
       inkscape:collect="always">
      <stop
         style="stop-color:#0ec38bff;stop-opacity:1;"
         offset="0"
         id="stop1" />
      <stop
         style="stop-color:#4b4fe2ff;stop-opacity:1;"
         offset="0.76340693"
         id="stop2" />
    </linearGradient>
    <linearGradient
       inkscape:collect="always"
       xlink:href="#linearGradient1"
       id="linearGradient2"
       x1="232.4884"
       y1="23.847498"
       x2="23.977745"
       y2="232.35815"
       gradientUnits="userSpaceOnUse" />
  </defs>
  <defs
     id="defs1" />
  <sodipodi:namedview
     id="namedview3"
     pagecolor="#ffffff"
     bordercolor="#000000"
     borderopacity="0.25"
     inkscape:showpageshadow="2"
     inkscape:pageopacity="0.0"
     inkscape:pagecheckerboard="0"
     inkscape:deskcolor="#d1d1d1" />
  <path
     id="circle1"
     style="baseline-shift:baseline;display:inline;overflow:visible;vector-effect:none;fill:url(#linearGradient2);stroke-linecap:round;stroke-linejoin:round;enable-background:accumulate;stop-color:#000000;stop-opacity:1;opacity:1;fill-opacity:1"
     d="M 64 32 C 48.630784 32 36.527043 43.920523 28.560547 59.853516 C 20.594051 75.786508 16 96.82773 16 120 C 16 143.17227 20.594051 164.21349 28.560547 180.14648 C 36.527043 196.07948 48.630784 208 64 208 C 77.300609 208 88.155614 199.07159 96 186.3418 L 96 208 C 96 216.7418 103.2582 224 112 224 L 224 224 C 232.7418 224 240 216.7418 240 208 L 240 120 C 240 96.828968 235.40606 75.788682 227.43945 59.855469 C 219.47285 43.922255 207.36913 32 192 32 L 64 32 z M 64 48 C 70.722174 48 78.61825 53.988453 85.128906 67.009766 C 91.639563 80.031078 96 98.98949 96 120 C 96 141.01051 91.639563 159.96892 85.128906 172.99023 C 78.61825 186.01155 70.722174 192 64 192 C 57.277826 192 49.38175 186.01155 42.871094 172.99023 C 36.360437 159.96892 32 141.01051 32 120 C 32 98.98949 36.360437 80.031078 42.871094 67.009766 C 49.38175 53.988453 57.277826 48 64 48 z M 92.113281 48 L 192 48 C 198.72087 48 206.61801 53.987979 213.12891 67.009766 C 218.802 78.355952 222.84322 94.210063 223.78906 112 L 208 112 A 8 8 0 0 0 200 120 A 8 8 0 0 0 208 128 L 224 128 L 224 208 L 112 208 L 112 128 L 128 128 A 8 8 0 0 0 136 120 A 8 8 0 0 0 128 112 L 111.81445 112 C 110.88412 91.99881 106.4787 73.932011 99.439453 59.853516 C 97.292329 55.559267 94.844402 51.556487 92.113281 48 z M 64 108 A 12 12 0 0 0 52 120 A 12 12 0 0 0 64 132 A 12 12 0 0 0 76 120 A 12 12 0 0 0 64 108 z M 160 112 A 8 8 0 0 0 152 120 A 8 8 0 0 0 160 128 L 176 128 A 8 8 0 0 0 184 120 A 8 8 0 0 0 176 112 L 160 112 z " />
</svg>
