<?xml version="1.0" encoding="UTF-8" standalone="no"?>
<svg
   viewBox="0 0 256 256"
   version="1.1"
   id="svg2"
   sodipodi:docname="trademark blue_green.svg"
   xmlns:inkscape="http://www.inkscape.org/namespaces/inkscape"
   xmlns:sodipodi="http://sodipodi.sourceforge.net/DTD/sodipodi-0.dtd"
   xmlns:xlink="http://www.w3.org/1999/xlink"
   xmlns="http://www.w3.org/2000/svg"
   xmlns:svg="http://www.w3.org/2000/svg">
  <defs
     id="defs3">
    <linearGradient
       id="linearGradient1"
       inkscape:collect="always">
      <stop
         style="stop-color:#0ec38bff;stop-opacity:1;"
         offset="0"
         id="stop1" />
      <stop
         style="stop-color:#4b4fe2ff;stop-opacity:1;"
         offset="0.76340693"
         id="stop2" />
    </linearGradient>
    <linearGradient
       inkscape:collect="always"
       xlink:href="#linearGradient1"
       id="linearGradient2"
       x1="232.4884"
       y1="23.847498"
       x2="23.977745"
       y2="232.35815"
       gradientUnits="userSpaceOnUse" />
  </defs>
  <defs
     id="defs2" />
  <sodipodi:namedview
     id="namedview2"
     pagecolor="#ffffff"
     bordercolor="#000000"
     borderopacity="0.25"
     inkscape:showpageshadow="2"
     inkscape:pageopacity="0.0"
     inkscape:pagecheckerboard="0"
     inkscape:deskcolor="#d1d1d1" />
  <path
     id="circle1"
     style="baseline-shift:baseline;display:inline;overflow:visible;vector-effect:none;fill:url(#linearGradient2);stroke-linecap:round;stroke-linejoin:round;enable-background:accumulate;stop-color:#000000;stop-opacity:1;opacity:1;fill-opacity:1"
     d="M 128 24 C 70.657143 24 24 70.657143 24 128 C 24 185.34286 70.657143 232 128 232 C 185.34286 232 232 185.34286 232 128 C 232 70.657143 185.34286 24 128 24 z M 128 40 C 176.69582 40 216 79.304185 216 128 C 216 176.69582 176.69582 216 128 216 C 79.304185 216 40 176.69582 40 128 C 40 79.304185 79.304185 40 128 40 z M 72 96 A 8 8 0 0 0 64 104 A 8 8 0 0 0 72 112 L 80 112 L 80 152 A 8 8 0 0 0 88 160 A 8 8 0 0 0 96 152 L 96 112 L 104 112 A 8 8 0 0 0 112 104 A 8 8 0 0 0 104 96 L 72 96 z M 183.64453 96.007812 A 8.0008 8.0008 0 0 0 177.97852 98.732422 L 156 123.85156 L 134.02148 98.732422 A 8.0008 8.0008 0 0 0 128.35547 96.009766 A 8.0008 8.0008 0 0 0 120 104 L 120 152 A 8 8 0 0 0 128 160 A 8 8 0 0 0 136 152 L 136 125.29297 L 149.97852 141.26758 A 8.0008 8.0008 0 0 0 162.02148 141.26758 L 176 125.29297 L 176 152 A 8 8 0 0 0 184 160 A 8 8 0 0 0 192 152 L 192 104 A 8.0008 8.0008 0 0 0 183.64453 96.007812 z " />
</svg>
