<?xml version="1.0" encoding="UTF-8" standalone="no"?>
<svg
   viewBox="0 0 256 256"
   version="1.1"
   id="svg3"
   sodipodi:docname="tree blue_green.svg"
   xmlns:inkscape="http://www.inkscape.org/namespaces/inkscape"
   xmlns:sodipodi="http://sodipodi.sourceforge.net/DTD/sodipodi-0.dtd"
   xmlns:xlink="http://www.w3.org/1999/xlink"
   xmlns="http://www.w3.org/2000/svg"
   xmlns:svg="http://www.w3.org/2000/svg">
  <defs
     id="defs3">
    <linearGradient
       id="linearGradient1"
       inkscape:collect="always">
      <stop
         style="stop-color:#0ec38bff;stop-opacity:1;"
         offset="0"
         id="stop1" />
      <stop
         style="stop-color:#4b4fe2ff;stop-opacity:1;"
         offset="0.76340693"
         id="stop2" />
    </linearGradient>
    <linearGradient
       inkscape:collect="always"
       xlink:href="#linearGradient1"
       id="linearGradient2"
       x1="232.4884"
       y1="23.847498"
       x2="23.977745"
       y2="232.35815"
       gradientUnits="userSpaceOnUse" />
  </defs>
  <defs
     id="defs1" />
  <sodipodi:namedview
     id="namedview3"
     pagecolor="#ffffff"
     bordercolor="#000000"
     borderopacity="0.25"
     inkscape:showpageshadow="2"
     inkscape:pageopacity="0.0"
     inkscape:pagecheckerboard="0"
     inkscape:deskcolor="#d1d1d1" />
  <path
     id="line1"
     style="baseline-shift:baseline;display:inline;overflow:visible;vector-effect:none;fill:url(#linearGradient2);stroke-linecap:round;stroke-linejoin:round;enable-background:accumulate;stop-color:#000000;stop-opacity:1;opacity:1;fill-opacity:1"
     d="M 128 15.917969 C 97.281523 15.917969 69.82294 34.547461 58.054688 62.681641 C 32.657854 74.339802 16.064025 99.648549 16 127.79883 L 16 127.80078 L 16 127.80273 C 15.90027 166.23329 47.720726 199.00261 86.146484 199.97656 C 97.949688 200.29362 109.56544 197.68758 120 192.49805 L 120 232 A 8 8 0 0 0 128 240 A 8 8 0 0 0 136 232 L 136 192.48242 C 146.44103 197.66596 158.06126 200.26436 169.86719 199.9375 C 208.29254 198.96128 240.1019 166.18718 240 127.75781 C 239.91994 99.622156 223.32902 74.33351 197.94531 62.681641 C 186.17706 34.547461 158.71848 15.917969 128 15.917969 z M 128 31.917969 C 153.2238 31.917969 175.69882 47.634343 184.35547 71.326172 A 8.0008 8.0008 0 0 0 188.88672 76.001953 C 210.06912 84.516613 223.93504 104.97316 224 127.80273 C 224.077 157.25125 198.88927 183.19736 169.45703 183.94336 A 8.0008 8.0008 0 0 0 169.4375 183.94336 C 157.47433 184.27719 145.76036 180.75203 136 173.94141 L 136 152.14062 A 8 8 0 0 0 136 151.85938 L 136 132.94531 L 179.57812 111.15625 A 8 8 0 0 0 183.15625 100.42188 A 8 8 0 0 0 178.5293 96.410156 A 8 8 0 0 0 172.42188 96.84375 L 136 115.05469 L 136 88 A 8 8 0 0 0 128 80 A 8 8 0 0 0 120 88 L 120 127.85938 A 8 8 0 0 0 120 128.14062 L 120 139.05469 L 83.578125 120.84375 A 8 8 0 0 0 77.470703 120.41016 A 8 8 0 0 0 72.84375 124.42188 A 8 8 0 0 0 76.421875 135.15625 L 120 156.94531 L 120 173.94727 C 110.24514 180.76989 98.532189 184.30614 86.566406 183.98242 A 8.0008 8.0008 0 0 0 86.552734 183.98242 C 57.119773 183.23632 31.921912 157.28955 32 127.8418 A 8.0008 8.0008 0 0 0 32 127.83789 C 32.05071 104.99549 45.91902 84.521421 67.113281 76.001953 A 8.0008 8.0008 0 0 0 71.644531 71.326172 C 80.301178 47.634433 102.7762 31.917969 128 31.917969 z " />
</svg>
