<?xml version="1.0" encoding="UTF-8" standalone="no"?>
<svg
   viewBox="0 0 256 256"
   version="1.1"
   id="svg4"
   sodipodi:docname="truck trailer blue_green.svg"
   xmlns:inkscape="http://www.inkscape.org/namespaces/inkscape"
   xmlns:sodipodi="http://sodipodi.sourceforge.net/DTD/sodipodi-0.dtd"
   xmlns:xlink="http://www.w3.org/1999/xlink"
   xmlns="http://www.w3.org/2000/svg"
   xmlns:svg="http://www.w3.org/2000/svg">
  <defs
     id="defs3">
    <linearGradient
       id="linearGradient1"
       inkscape:collect="always">
      <stop
         style="stop-color:#0ec38bff;stop-opacity:1;"
         offset="0"
         id="stop1" />
      <stop
         style="stop-color:#4b4fe2ff;stop-opacity:1;"
         offset="0.76340693"
         id="stop2" />
    </linearGradient>
    <linearGradient
       inkscape:collect="always"
       xlink:href="#linearGradient1"
       id="linearGradient2"
       x1="232.4884"
       y1="23.847498"
       x2="23.977745"
       y2="232.35815"
       gradientUnits="userSpaceOnUse" />
  </defs>
  <defs
     id="defs4" />
  <sodipodi:namedview
     id="namedview4"
     pagecolor="#ffffff"
     bordercolor="#000000"
     borderopacity="0.25"
     inkscape:showpageshadow="2"
     inkscape:pageopacity="0.0"
     inkscape:pagecheckerboard="0"
     inkscape:deskcolor="#d1d1d1" />
  <path
     id="circle1"
     style="baseline-shift:baseline;display:inline;overflow:visible;vector-effect:none;fill:url(#linearGradient2);stroke-linecap:round;stroke-linejoin:round;enable-background:accumulate;stop-color:#000000;stop-opacity:1;opacity:1;fill-opacity:1"
     d="M 160 40 C 151.2582 40 144 47.258201 144 56 L 144 176 L 128 176 L 128 72 A 8.0008 8.0008 0 0 0 120 64 L 16 64 C 7.2582011 64 0 71.258201 0 80 L 0 184 C 0 201.57835 14.421645 216 32 216 C 41.523786 216 50.120961 211.76684 56 205.0918 C 61.879039 211.76685 70.476209 216 80 216 C 94.819408 216 107.39598 205.75009 110.97852 192 L 120 192 L 193.02148 192 C 196.60402 205.75009 209.1806 216 224 216 C 241.57835 216 256 201.57835 256 184 L 256 136 C 256 116.7409 242.19886 100.54595 224 96.8125 L 224 96 C 224 65.166811 198.83319 40 168 40 L 160 40 z M 160 56 L 168 56 C 190.18615 56 208 73.813853 208 96 L 208 104 A 8.0008 8.0008 0 0 0 216 112 C 229.34959 112 240 122.65041 240 136 L 240 156.32617 C 235.28388 153.57791 229.81464 152 224 152 C 209.1806 152 196.60402 162.24991 193.02148 176 L 160 176 L 160 56 z M 16 80 L 112 80 L 112 176 L 110.97852 176 C 107.39598 162.24991 94.819408 152 80 152 C 70.476209 152 61.879039 156.23315 56 162.9082 C 50.120961 156.23316 41.523786 152 32 152 C 26.185358 152 20.716118 153.57791 16 156.32617 L 16 80 z M 32 168 C 40.931313 168 48 175.06869 48 184 C 48 192.93131 40.931313 200 32 200 C 23.068687 200 16 192.93131 16 184 C 16 175.06869 23.068687 168 32 168 z M 80 168 C 88.931296 168 95.999973 175.06871 96 184 C 96 192.93131 88.931313 200 80 200 C 71.068687 200 64 192.93131 64 184 C 64 175.06869 71.068687 168 80 168 z M 224 168 C 232.93131 168 240 175.06869 240 184 C 240 192.93131 232.93131 200 224 200 C 215.06869 200 208 192.93131 208 184 C 208 175.06869 215.06869 168 224 168 z " />
</svg>
