<?xml version="1.0" encoding="UTF-8" standalone="no"?>
<svg
   viewBox="0 0 256 256"
   version="1.1"
   id="svg2"
   sodipodi:docname="umbrella simple blue_green.svg"
   xmlns:inkscape="http://www.inkscape.org/namespaces/inkscape"
   xmlns:sodipodi="http://sodipodi.sourceforge.net/DTD/sodipodi-0.dtd"
   xmlns:xlink="http://www.w3.org/1999/xlink"
   xmlns="http://www.w3.org/2000/svg"
   xmlns:svg="http://www.w3.org/2000/svg">
  <defs
     id="defs3">
    <linearGradient
       id="linearGradient1"
       inkscape:collect="always">
      <stop
         style="stop-color:#0ec38bff;stop-opacity:1;"
         offset="0"
         id="stop1" />
      <stop
         style="stop-color:#4b4fe2ff;stop-opacity:1;"
         offset="0.76340693"
         id="stop2" />
    </linearGradient>
    <linearGradient
       inkscape:collect="always"
       xlink:href="#linearGradient1"
       id="linearGradient2"
       x1="232.4884"
       y1="23.847498"
       x2="23.977745"
       y2="232.35815"
       gradientUnits="userSpaceOnUse" />
  </defs>
  <defs
     id="defs2" />
  <sodipodi:namedview
     id="namedview2"
     pagecolor="#ffffff"
     bordercolor="#000000"
     borderopacity="0.25"
     inkscape:showpageshadow="2"
     inkscape:pageopacity="0.0"
     inkscape:pagecheckerboard="0"
     inkscape:deskcolor="#d1d1d1" />
  <path
     id="path1"
     style="baseline-shift:baseline;display:inline;overflow:visible;vector-effect:none;fill:url(#linearGradient2);stroke-linecap:round;stroke-linejoin:round;enable-background:accumulate;stop-color:#000000;stop-opacity:1;opacity:1;fill-opacity:1"
     d="M 127.9707 24.048828 C 69.791908 24.048828 21.120912 68.632339 16.03125 126.58789 L 16.03125 126.58984 C 15.212365 135.84583 22.737899 144.03668 32.03125 144 L 120 144 L 120 200 C 120 217.57836 134.42165 232 152 232 C 169.57835 232 184 217.57836 184 200 A 8 8 0 0 0 176 192 A 8 8 0 0 0 168 200 C 168 208.93132 160.93132 216 152 216 C 143.06868 216 136 208.93132 136 200 L 136 144 L 223.9082 144 C 233.20488 144.0367 240.73336 135.84014 239.9082 126.58008 C 234.81474 68.628391 186.14681 24.048828 127.9707 24.048828 z M 127.9707 40.048828 C 177.99901 40.048828 219.59491 78.153659 223.9707 127.99023 A 8.0008 8.0008 0 0 0 223.9707 128 A 8.0008 8.0008 0 0 0 223.93945 128 L 128.06055 128 L 127.93945 128 L 32 128 A 8.0008 8.0008 0 0 0 31.96875 128 A 8.0008 8.0008 0 0 0 31.96875 127.99023 C 36.344541 78.153659 77.942406 40.048828 127.9707 40.048828 z " />
</svg>
