<?xml version="1.0" encoding="UTF-8" standalone="no"?>
<svg
   viewBox="0 0 256 256"
   version="1.1"
   id="svg8"
   sodipodi:docname="unite blue_green.svg"
   xmlns:inkscape="http://www.inkscape.org/namespaces/inkscape"
   xmlns:sodipodi="http://sodipodi.sourceforge.net/DTD/sodipodi-0.dtd"
   xmlns:xlink="http://www.w3.org/1999/xlink"
   xmlns="http://www.w3.org/2000/svg"
   xmlns:svg="http://www.w3.org/2000/svg">
  <defs
     id="defs3">
    <linearGradient
       id="linearGradient1"
       inkscape:collect="always">
      <stop
         style="stop-color:#0ec38bff;stop-opacity:1;"
         offset="0"
         id="stop1" />
      <stop
         style="stop-color:#4b4fe2ff;stop-opacity:1;"
         offset="0.76340693"
         id="stop2" />
    </linearGradient>
    <linearGradient
       inkscape:collect="always"
       xlink:href="#linearGradient1"
       id="linearGradient2"
       x1="232.4884"
       y1="23.847498"
       x2="23.977745"
       y2="232.35815"
       gradientUnits="userSpaceOnUse" />
  </defs>
  <defs
     id="defs8" />
  <sodipodi:namedview
     id="namedview8"
     pagecolor="#ffffff"
     bordercolor="#000000"
     borderopacity="0.25"
     inkscape:showpageshadow="2"
     inkscape:pageopacity="0.0"
     inkscape:pagecheckerboard="0"
     inkscape:deskcolor="#d1d1d1" />
  <path
     id="line1"
     style="baseline-shift:baseline;display:inline;overflow:visible;vector-effect:none;fill:url(#linearGradient2);stroke-linecap:round;stroke-linejoin:round;enable-background:accumulate;stop-color:#000000;stop-opacity:1;opacity:1;fill-opacity:1"
     d="M 96 16 C 74.284156 16 54.551372 24.713316 40.117188 38.824219 A 8 8 0 0 0 39.433594 39.433594 A 8 8 0 0 0 38.824219 40.117188 C 30.099307 49.041569 23.439199 59.989833 19.625 72.181641 A 8 8 0 0 0 19.275391 73.330078 C 17.144496 80.52129 16 88.129966 16 96 C 16 135.08485 44.224532 167.74326 81.347656 174.65234 C 88.25674 211.77547 120.91515 240 160 240 C 181.7165 240 201.44851 231.28743 215.88281 217.17578 A 8 8 0 0 0 216.56641 216.56641 A 8 8 0 0 0 217.17578 215.88281 C 231.28743 201.44851 240 181.7165 240 160 C 240 120.91515 211.77547 88.25674 174.65234 81.347656 C 167.74326 44.224532 135.08485 16 96 16 z M 96 32 C 125.92164 32 150.93786 52.35729 158.00391 80.025391 C 152.33175 80.165229 146.80271 80.89768 141.47852 82.166016 L 91.46875 32.15625 C 92.965178 32.052413 94.476413 32 96 32 z M 72.941406 36.253906 L 124.84375 88.15625 C 122.85346 89.134865 120.9092 90.193115 119.01562 91.328125 A 8 8 0 0 0 117.70703 92.128906 C 114.81025 93.941417 112.03811 95.934807 109.4043 98.091797 L 56.720703 45.408203 C 61.607801 41.613615 67.063341 38.51361 72.941406 36.253906 z M 45.408203 56.720703 L 98.091797 109.4043 C 95.934695 112.03825 93.941493 114.81204 92.128906 117.70898 A 8 8 0 0 0 91.328125 119.01367 C 90.192872 120.90757 89.13505 122.85309 88.15625 124.84375 L 36.253906 72.941406 C 38.51361 67.06334 41.613615 61.607801 45.408203 56.720703 z M 32.15625 91.46875 L 82.166016 141.47852 C 80.89768 146.80271 80.165229 152.33175 80.025391 158.00391 C 52.35729 150.93786 32 125.92164 32 96 C 32 94.476413 32.052413 92.965178 32.15625 91.46875 z M 160 96 C 160 104.51171 158.35364 112.62739 155.35938 120.04492 L 135.95508 100.64062 C 143.37261 97.646371 151.48828 96 160 96 z M 175.97461 97.996094 C 203.64271 105.06214 224 130.07836 224 160 C 224 161.52359 223.94759 163.03482 223.84375 164.53125 L 173.83398 114.52148 C 175.10232 109.19729 175.83477 103.66825 175.97461 97.996094 z M 121.49805 108.8125 L 147.1875 134.50195 C 145.55366 136.67403 143.78486 138.73813 141.89258 140.68164 A 8 8 0 0 0 141.25391 141.25391 A 8 8 0 0 0 140.68164 141.89062 C 138.73781 143.78331 136.67443 145.55336 134.50195 147.1875 L 108.8125 121.49805 C 110.44664 119.32557 112.21668 117.26219 114.10938 115.31836 A 8 8 0 0 0 114.74609 114.74609 A 8 8 0 0 0 115.31836 114.10938 C 117.26219 112.21667 119.32557 110.44664 121.49805 108.8125 z M 167.84375 131.15625 L 219.74609 183.05859 C 217.48639 188.93666 214.38638 194.3922 210.5918 199.2793 L 157.9082 146.5957 C 160.0653 143.96176 162.05851 141.18795 163.87109 138.29102 A 8 8 0 0 0 164.67188 136.98633 C 165.80713 135.09243 166.86495 133.14691 167.84375 131.15625 z M 100.64062 135.95508 L 120.04492 155.35938 C 112.62739 158.35364 104.51171 160 96 160 C 96 153.64248 96.918019 147.50629 98.630859 141.7168 C 98.695715 141.49758 98.762953 141.27876 98.830078 141.06055 C 99.363644 139.32599 99.967512 137.62257 100.64062 135.95508 z M 146.5957 157.9082 L 199.2793 210.5918 C 194.3922 214.38638 188.93666 217.48639 183.05859 219.74609 L 131.15625 167.84375 C 133.14691 166.86495 135.09243 165.80713 136.98633 164.67188 A 8 8 0 0 0 138.29102 163.87109 C 141.18795 162.05851 143.96176 160.0653 146.5957 157.9082 z M 114.52148 173.83398 L 164.53125 223.84375 C 163.03482 223.94759 161.52359 224 160 224 C 130.07836 224 105.06214 203.64271 97.996094 175.97461 C 103.66825 175.83477 109.19729 175.10232 114.52148 173.83398 z " />
</svg>
