<?xml version="1.0" encoding="UTF-8" standalone="no"?>
<svg
   viewBox="0 0 256 256"
   version="1.1"
   id="svg1"
   sodipodi:docname="user check blue_green.svg"
   xmlns:inkscape="http://www.inkscape.org/namespaces/inkscape"
   xmlns:sodipodi="http://sodipodi.sourceforge.net/DTD/sodipodi-0.dtd"
   xmlns:xlink="http://www.w3.org/1999/xlink"
   xmlns="http://www.w3.org/2000/svg"
   xmlns:svg="http://www.w3.org/2000/svg">
  <defs
     id="defs3">
    <linearGradient
       id="linearGradient1"
       inkscape:collect="always">
      <stop
         style="stop-color:#0ec38bff;stop-opacity:1;"
         offset="0"
         id="stop1" />
      <stop
         style="stop-color:#4b4fe2ff;stop-opacity:1;"
         offset="0.76340693"
         id="stop2" />
    </linearGradient>
    <linearGradient
       inkscape:collect="always"
       xlink:href="#linearGradient1"
       id="linearGradient2"
       x1="232.4884"
       y1="23.847498"
       x2="23.977745"
       y2="232.35815"
       gradientUnits="userSpaceOnUse" />
  </defs>
  <defs
     id="defs1" />
  <sodipodi:namedview
     id="namedview1"
     pagecolor="#ffffff"
     bordercolor="#000000"
     borderopacity="0.25"
     inkscape:showpageshadow="2"
     inkscape:pageopacity="0.0"
     inkscape:pagecheckerboard="0"
     inkscape:deskcolor="#d1d1d1" />
  <path
     id="circle1"
     style="baseline-shift:baseline;display:inline;overflow:visible;vector-effect:none;fill:url(#linearGradient2);stroke-linecap:round;stroke-linejoin:round;enable-background:accumulate;stop-color:#000000;stop-opacity:1;opacity:1;fill-opacity:1"
     d="M 108 32 C 70.539394 32 40 62.539394 40 100 C 40 124.27313 52.822011 145.63989 72.041016 157.67578 C 50.65227 164.68407 32.209623 177.79845 17.875 194.85352 A 8 8 0 0 0 18.853516 206.125 A 8 8 0 0 0 30.125 205.14648 C 49.363946 182.25635 75.968053 168 108 168 C 140.03195 168 166.63605 182.25635 185.875 205.14648 A 8 8 0 0 0 197.14648 206.125 A 8 8 0 0 0 198.125 194.85352 C 183.79038 177.79845 165.34773 164.68407 143.95898 157.67578 C 163.17799 145.63989 176 124.27314 176 100 C 176 62.539394 145.46061 32 108 32 z M 108 48 C 136.81356 48 160 71.186436 160 100 C 160 128.81356 136.81356 152 108 152 C 79.186436 152 56 128.81356 56 100 C 56 71.186436 79.186436 48 108 48 z M 248 120 A 8 8 0 0 0 242.34375 122.34375 L 216 148.6875 L 205.65625 138.34375 A 8 8 0 0 0 194.34375 138.34375 A 8 8 0 0 0 194.34375 149.65625 L 210.34375 165.65625 A 8.0008 8.0008 0 0 0 221.65625 165.65625 L 253.65625 133.65625 A 8 8 0 0 0 253.65625 122.34375 A 8 8 0 0 0 248 120 z " />
</svg>
