<?xml version="1.0" encoding="UTF-8" standalone="no"?>
<svg
   viewBox="0 0 256 256"
   version="1.1"
   id="svg2"
   sodipodi:docname="user circle plus blue_green.svg"
   xmlns:inkscape="http://www.inkscape.org/namespaces/inkscape"
   xmlns:sodipodi="http://sodipodi.sourceforge.net/DTD/sodipodi-0.dtd"
   xmlns:xlink="http://www.w3.org/1999/xlink"
   xmlns="http://www.w3.org/2000/svg"
   xmlns:svg="http://www.w3.org/2000/svg">
  <defs
     id="defs3">
    <linearGradient
       id="linearGradient1"
       inkscape:collect="always">
      <stop
         style="stop-color:#0ec38bff;stop-opacity:1;"
         offset="0"
         id="stop1" />
      <stop
         style="stop-color:#4b4fe2ff;stop-opacity:1;"
         offset="0.76340693"
         id="stop2" />
    </linearGradient>
    <linearGradient
       inkscape:collect="always"
       xlink:href="#linearGradient1"
       id="linearGradient2"
       x1="232.4884"
       y1="23.847498"
       x2="23.977745"
       y2="232.35815"
       gradientUnits="userSpaceOnUse" />
  </defs>
  <defs
     id="defs2" />
  <sodipodi:namedview
     id="namedview2"
     pagecolor="#ffffff"
     bordercolor="#000000"
     borderopacity="0.25"
     inkscape:showpageshadow="2"
     inkscape:pageopacity="0.0"
     inkscape:pagecheckerboard="0"
     inkscape:deskcolor="#d1d1d1" />
  <path
     id="circle1"
     style="baseline-shift:baseline;display:inline;overflow:visible;vector-effect:none;fill:url(#linearGradient2);stroke-linecap:round;stroke-linejoin:round;enable-background:accumulate;stop-color:#000000;stop-opacity:1;opacity:1;fill-opacity:1"
     d="M 128.67773 23.998047 C 90.060335 23.773568 53.830011 45.162244 35.716797 80.292969 C 15.016066 120.4422 22.663719 169.45278 54.605469 201.39453 C 55.463288 202.25235 56.332906 203.09332 57.214844 203.91602 A 8 8 0 0 0 59.96875 206.39453 C 91.856221 234.08517 137.74337 239.85707 175.70703 220.2832 C 183.35106 216.34199 190.34381 211.54346 196.60547 206.04883 A 8 8 0 0 0 198.36914 204.4668 C 223.82195 181.08003 236.49317 145.93316 230.55859 110.67188 A 8 8 0 0 0 221.3418 104.11133 A 8 8 0 0 0 214.78125 113.32812 C 219.30245 140.19167 211.11542 166.904 193.75586 186.39648 C 184.73907 173.3853 172.12565 163.45087 157.66992 157.67188 C 168.81753 148.86486 176 135.23636 176 120 C 176 93.585089 154.41491 72 128 72 C 101.58509 72 80 93.585089 80 120 C 80 135.23636 87.182473 148.86486 98.330078 157.67188 C 83.920059 163.43261 71.341003 173.32086 62.330078 186.27148 C 38.311781 159.23763 33.20067 120.08622 49.9375 87.625 C 67.477938 53.605179 104.92484 34.865826 142.67188 41.21875 A 8 8 0 0 0 151.88867 34.658203 A 8 8 0 0 0 145.32812 25.441406 C 139.75974 24.50423 134.19451 24.030115 128.67773 23.998047 z M 200 24 A 8 8 0 0 0 192 32 L 192 48 L 176 48 A 8 8 0 0 0 168 56 A 8 8 0 0 0 176 64 L 192 64 L 192 80 A 8 8 0 0 0 200 88 A 8 8 0 0 0 208 80 L 208 64 L 224 64 A 8 8 0 0 0 232 56 A 8 8 0 0 0 224 48 L 208 48 L 208 32 A 8 8 0 0 0 200 24 z M 128 88 C 145.76787 88 160 102.23213 160 120 C 160 137.32583 146.46813 151.29053 129.32031 151.97461 C 128.88107 151.96739 128.44035 151.96289 128 151.96289 C 127.55965 151.96289 127.11893 151.96739 126.67969 151.97461 C 109.53187 151.29053 96 137.32583 96 120 C 96 102.23213 110.23213 88 128 88 z M 126.56836 167.97852 C 127.04411 167.99261 127.52098 168 128 168 C 128.47903 168 128.95589 167.99261 129.43164 167.97852 C 150.85056 168.45472 170.47264 179.58863 181.90039 197.45312 C 177.71812 200.6858 173.20002 203.57475 168.375 206.0625 C 137.64823 221.90505 100.92649 218.17193 74.162109 197.35742 C 85.598713 179.54935 105.18804 168.45386 126.56836 167.97852 z " />
</svg>
