<?xml version="1.0" encoding="UTF-8" standalone="no"?>
<svg
   viewBox="0 0 256 256"
   version="1.1"
   id="svg2"
   sodipodi:docname="vignette blue_green.svg"
   xmlns:inkscape="http://www.inkscape.org/namespaces/inkscape"
   xmlns:sodipodi="http://sodipodi.sourceforge.net/DTD/sodipodi-0.dtd"
   xmlns:xlink="http://www.w3.org/1999/xlink"
   xmlns="http://www.w3.org/2000/svg"
   xmlns:svg="http://www.w3.org/2000/svg">
  <defs
     id="defs3">
    <linearGradient
       id="linearGradient1"
       inkscape:collect="always">
      <stop
         style="stop-color:#0ec38bff;stop-opacity:1;"
         offset="0"
         id="stop1" />
      <stop
         style="stop-color:#4b4fe2ff;stop-opacity:1;"
         offset="0.76340693"
         id="stop2" />
    </linearGradient>
    <linearGradient
       inkscape:collect="always"
       xlink:href="#linearGradient1"
       id="linearGradient2"
       x1="232.4884"
       y1="23.847498"
       x2="23.977745"
       y2="232.35815"
       gradientUnits="userSpaceOnUse" />
  </defs>
  <defs
     id="defs2" />
  <sodipodi:namedview
     id="namedview2"
     pagecolor="#ffffff"
     bordercolor="#000000"
     borderopacity="0.25"
     inkscape:showpageshadow="2"
     inkscape:pageopacity="0.0"
     inkscape:pagecheckerboard="0"
     inkscape:deskcolor="#d1d1d1" />
  <path
     id="rect2"
     style="baseline-shift:baseline;display:inline;overflow:visible;vector-effect:none;fill:url(#linearGradient2);stroke-linecap:round;stroke-linejoin:round;enable-background:accumulate;stop-color:#000000;stop-opacity:1;opacity:1;fill-opacity:1"
     d="M 40 40 C 31.274378 40 24 47.274378 24 56 L 24 200 C 24 208.72562 31.274378 216 40 216 L 216 216 C 224.72562 216 232 208.72562 232 200 L 232 56 C 232 47.274378 224.72562 40 216 40 L 40 40 z M 40 56 L 216 56 L 216 200 L 40 200 L 40 56 z M 128 72 C 108.70557 72 91.089607 77.799983 77.945312 87.658203 C 64.801019 97.516423 56 111.86282 56 128 C 56 144.13718 64.801019 158.48358 77.945312 168.3418 C 91.089607 178.20002 108.70557 184 128 184 C 147.29443 184 164.91039 178.20002 178.05469 168.3418 C 191.19898 158.48358 200 144.13718 200 128 C 200 111.86282 191.19898 97.516423 178.05469 87.658203 C 164.91039 77.799983 147.29443 72 128 72 z M 128 88 C 144.05179 88 158.43593 92.944633 168.45508 100.45898 C 178.47423 107.97335 184 117.62751 184 128 C 184 138.37249 178.47423 148.02665 168.45508 155.54102 C 158.43593 163.05538 144.05179 168 128 168 C 111.94821 168 97.564073 163.05538 87.544922 155.54102 C 77.525771 148.02665 72 138.37249 72 128 C 72 117.62751 77.525771 107.97335 87.544922 100.45898 C 97.564073 92.944633 111.94821 88 128 88 z " />
</svg>
