<?xml version="1.0" encoding="UTF-8" standalone="no"?>
<svg
   viewBox="0 0 256 256"
   version="1.1"
   id="svg4"
   sodipodi:docname="washing machine blue_green.svg"
   xmlns:inkscape="http://www.inkscape.org/namespaces/inkscape"
   xmlns:sodipodi="http://sodipodi.sourceforge.net/DTD/sodipodi-0.dtd"
   xmlns:xlink="http://www.w3.org/1999/xlink"
   xmlns="http://www.w3.org/2000/svg"
   xmlns:svg="http://www.w3.org/2000/svg">
  <defs
     id="defs3">
    <linearGradient
       id="linearGradient1"
       inkscape:collect="always">
      <stop
         style="stop-color:#0ec38bff;stop-opacity:1;"
         offset="0"
         id="stop1" />
      <stop
         style="stop-color:#4b4fe2ff;stop-opacity:1;"
         offset="0.76340693"
         id="stop2" />
    </linearGradient>
    <linearGradient
       inkscape:collect="always"
       xlink:href="#linearGradient1"
       id="linearGradient2"
       x1="232.4884"
       y1="23.847498"
       x2="23.977745"
       y2="232.35815"
       gradientUnits="userSpaceOnUse" />
  </defs>
  <defs
     id="defs4" />
  <sodipodi:namedview
     id="namedview4"
     pagecolor="#ffffff"
     bordercolor="#000000"
     borderopacity="0.25"
     inkscape:showpageshadow="2"
     inkscape:pageopacity="0.0"
     inkscape:pagecheckerboard="0"
     inkscape:deskcolor="#d1d1d1" />
  <path
     id="rect2"
     style="baseline-shift:baseline;display:inline;overflow:visible;vector-effect:none;fill:url(#linearGradient2);stroke-linecap:round;stroke-linejoin:round;enable-background:accumulate;stop-color:#000000;stop-opacity:1;opacity:1;fill-opacity:1"
     d="M 48 32 C 39.274378 32 32 39.274378 32 48 L 32 208 C 32 216.72562 39.274378 224 48 224 L 208 224 C 216.72562 224 224 216.72562 224 208 L 224 48 C 224 39.274378 216.72562 32 208 32 L 48 32 z M 48 48 L 208 48 L 208 208 L 48 208 L 48 48 z M 188 56 A 12 12 0 0 0 176 68 A 12 12 0 0 0 188 80 A 12 12 0 0 0 200 68 A 12 12 0 0 0 188 56 z M 128 64 C 92.748533 64 64 92.748533 64 128 C 64 163.25147 92.748533 192 128 192 C 163.25147 192 192 163.25147 192 128 C 192 92.748533 163.25147 64 128 64 z M 128 80 C 154.60443 80 176 101.39557 176 128 C 176 154.60443 154.60443 176 128 176 C 101.39557 176 80 154.60443 80 128 C 80 101.39557 101.39557 80 128 80 z M 120 104 A 8 8 0 0 0 114.34375 106.34375 L 98.34375 122.34375 A 8 8 0 0 0 98.34375 133.65625 A 8 8 0 0 0 109.65625 133.65625 L 125.65625 117.65625 A 8 8 0 0 0 125.65625 106.34375 A 8 8 0 0 0 120 104 z M 152 112 A 8 8 0 0 0 146.34375 114.34375 L 114.34375 146.34375 A 8 8 0 0 0 114.34375 157.65625 A 8 8 0 0 0 125.65625 157.65625 L 157.65625 125.65625 A 8 8 0 0 0 157.65625 114.34375 A 8 8 0 0 0 152 112 z " />
</svg>
