<?xml version="1.0" encoding="UTF-8" standalone="no"?>
<svg
   viewBox="0 0 256 256"
   version="1.1"
   id="svg3"
   sodipodi:docname="wechat logo blue_green.svg"
   xmlns:inkscape="http://www.inkscape.org/namespaces/inkscape"
   xmlns:sodipodi="http://sodipodi.sourceforge.net/DTD/sodipodi-0.dtd"
   xmlns:xlink="http://www.w3.org/1999/xlink"
   xmlns="http://www.w3.org/2000/svg"
   xmlns:svg="http://www.w3.org/2000/svg">
  <defs
     id="defs3">
    <linearGradient
       id="linearGradient1"
       inkscape:collect="always">
      <stop
         style="stop-color:#0ec38bff;stop-opacity:1;"
         offset="0"
         id="stop1" />
      <stop
         style="stop-color:#4b4fe2ff;stop-opacity:1;"
         offset="0.76340693"
         id="stop2" />
    </linearGradient>
    <linearGradient
       inkscape:collect="always"
       xlink:href="#linearGradient1"
       id="linearGradient2"
       x1="232.4884"
       y1="23.847498"
       x2="23.977745"
       y2="232.35815"
       gradientUnits="userSpaceOnUse" />
  </defs>
  <defs
     id="defs1" />
  <sodipodi:namedview
     id="namedview3"
     pagecolor="#ffffff"
     bordercolor="#000000"
     borderopacity="0.25"
     inkscape:showpageshadow="2"
     inkscape:pageopacity="0.0"
     inkscape:pagecheckerboard="0"
     inkscape:deskcolor="#d1d1d1" />
  <path
     id="circle1"
     style="baseline-shift:baseline;display:inline;overflow:visible;vector-effect:none;fill:url(#linearGradient2);stroke-linecap:round;stroke-linejoin:round;enable-background:accumulate;stop-color:#000000;stop-opacity:1;opacity:1;fill-opacity:1"
     d="M 96.392578 24.302734 C 85.533355 24.24375 74.479532 26.410394 63.876953 31.080078 C 22.531545 49.289799 4.7537858 98.227901 23.982422 138.61719 L 16.693359 163.47852 C 13.249454 175.21141 24.821778 186.78149 36.554688 183.33594 A 8.0008 8.0008 0 0 0 36.556641 183.33594 L 61.431641 176.02344 C 69.332983 179.82442 77.774395 182.36543 86.462891 183.42578 C 98.890283 212.53041 127.68507 231.98498 159.99609 232 C 172.00271 232.0195 183.79096 229.19915 194.58789 224.01562 L 219.46484 231.36328 A 8.0008 8.0008 0 0 0 219.47656 231.36523 C 231.21011 234.81098 242.78168 223.23941 239.33594 211.50586 A 8.0008 8.0008 0 0 0 239.33594 211.50391 L 232.04297 186.69336 C 247.03049 155.58966 240.41395 118.10894 215.24414 94.107422 C 202.41266 81.871516 186.30603 74.603033 169.57617 72.595703 C 156.70443 42.711489 127.33687 24.470816 96.392578 24.302734 z M 93.697266 40.285156 C 117.14346 39.356651 139.72778 51.485291 151.66797 72.457031 C 140.35356 73.639777 129.18207 77.245528 118.95898 83.363281 C 90.194894 100.57644 75.410453 133.80245 81.322266 166.30469 C 75.943712 165.0403 70.737674 163.07556 65.839844 160.44922 A 8.0008 8.0008 0 0 0 59.804688 159.82422 L 32.044922 167.98438 A 8.0008 8.0008 0 0 0 32.046875 167.98047 L 40.177734 140.25 A 8.0008 8.0008 0 0 0 39.568359 134.25391 C 22.113187 101.30617 36.203295 60.751364 70.326172 45.722656 C 77.970932 42.355682 85.881869 40.594658 93.697266 40.285156 z M 163.05859 88.060547 C 163.35814 88.074669 163.65777 88.091049 163.95703 88.109375 C 178.6438 89.008757 192.96421 94.968291 204.20312 105.68555 C 225.05284 125.56748 230.05313 156.8251 216.44727 182.22266 A 8.0008 8.0008 0 0 0 215.82422 188.25586 L 223.98438 216.01367 L 196.26562 207.82812 A 8.0008 8.0008 0 0 0 190.22266 208.44727 C 180.93178 213.42321 170.55313 216.01837 160.01367 216 A 8.0008 8.0008 0 0 0 160.00391 216 C 131.19149 215.9866 106.01067 196.806 98.34375 169.03516 C 90.676893 141.26454 102.45164 111.88735 127.17578 97.091797 C 136.44734 91.543465 146.66384 88.568652 156.91406 88.066406 C 158.96321 87.966001 161.01414 87.964163 163.05859 88.060547 z M 132 128 A 12 12 0 0 0 120 140 A 12 12 0 0 0 132 152 A 12 12 0 0 0 144 140 A 12 12 0 0 0 132 128 z M 188 128 A 12 12 0 0 0 176 140 A 12 12 0 0 0 188 152 A 12 12 0 0 0 200 140 A 12 12 0 0 0 188 128 z " />
</svg>
