<?xml version="1.0" encoding="UTF-8" standalone="no"?>
<svg
   viewBox="0 0 256 256"
   version="1.1"
   id="svg5"
   sodipodi:docname="wifi slash blue_green.svg"
   xmlns:inkscape="http://www.inkscape.org/namespaces/inkscape"
   xmlns:sodipodi="http://sodipodi.sourceforge.net/DTD/sodipodi-0.dtd"
   xmlns:xlink="http://www.w3.org/1999/xlink"
   xmlns="http://www.w3.org/2000/svg"
   xmlns:svg="http://www.w3.org/2000/svg">
  <defs
     id="defs3">
    <linearGradient
       id="linearGradient1"
       inkscape:collect="always">
      <stop
         style="stop-color:#0ec38bff;stop-opacity:1;"
         offset="0"
         id="stop1" />
      <stop
         style="stop-color:#4b4fe2ff;stop-opacity:1;"
         offset="0.76340693"
         id="stop2" />
    </linearGradient>
    <linearGradient
       inkscape:collect="always"
       xlink:href="#linearGradient1"
       id="linearGradient2"
       x1="232.4884"
       y1="23.847498"
       x2="23.977745"
       y2="232.35815"
       gradientUnits="userSpaceOnUse" />
  </defs>
  <defs
     id="defs5" />
  <sodipodi:namedview
     id="namedview5"
     pagecolor="#ffffff"
     bordercolor="#000000"
     borderopacity="0.25"
     inkscape:showpageshadow="2"
     inkscape:pageopacity="0.0"
     inkscape:pagecheckerboard="0"
     inkscape:deskcolor="#d1d1d1" />
  <path
     id="line1"
     style="baseline-shift:baseline;display:inline;overflow:visible;vector-effect:none;fill:url(#linearGradient2);stroke-linecap:round;stroke-linejoin:round;enable-background:accumulate;stop-color:#000000;stop-opacity:1;opacity:1;fill-opacity:1"
     d="M 48.380859 32.009766 A 8 8 0 0 0 42.619141 34.080078 A 8 8 0 0 0 42.080078 45.380859 L 57.992188 62.882812 C 43.963462 69.129137 30.820421 77.239217 18.923828 87.005859 A 8 8 0 0 0 17.816406 98.265625 A 8 8 0 0 0 29.076172 99.373047 C 41.234631 89.391423 54.82864 81.318154 69.390625 75.421875 L 92.724609 101.08984 C 77.611578 105.55654 63.449511 112.88798 51.03125 122.73047 A 8 8 0 0 0 49.730469 133.96875 A 8 8 0 0 0 60.96875 135.26953 C 73.845914 125.06333 88.877496 117.9598 104.89648 114.47852 L 131.82031 144.0957 C 130.95667 144.05274 130.09216 144.02524 129.22852 144.01172 C 113.00092 143.75762 96.839298 148.69241 83.298828 158.52734 A 8 8 0 0 0 81.527344 169.70117 A 8 8 0 0 0 92.701172 171.47266 C 109.37185 159.36414 131.01137 156.65962 150.09961 164.20312 L 150.10156 164.20312 L 202.08008 221.38086 A 8 8 0 0 0 213.38086 221.91992 A 8 8 0 0 0 213.91992 210.61914 L 160.79492 152.18164 L 160.78906 152.17383 A 8 8 0 0 0 160.66797 152.04297 L 53.919922 34.619141 A 8 8 0 0 0 48.380859 32.009766 z M 127.98828 48 C 120.63294 47.9979 113.28451 48.463854 105.98828 49.394531 A 8 8 0 0 0 99.064453 58.341797 A 8 8 0 0 0 108.01172 65.265625 C 114.63971 64.420186 121.3144 63.997508 127.99609 64 A 8.0008 8.0008 0 0 0 128.01172 64 C 164.08891 63.94465 199.05652 76.449583 226.91797 99.369141 A 8 8 0 0 0 238.17773 98.271484 A 8 8 0 0 0 237.08203 87.011719 C 206.35698 61.736466 167.78882 47.942601 128.00391 48 L 127.98828 48 z M 151.16211 98.382812 A 8 8 0 0 0 143.78711 104.74609 A 8 8 0 0 0 149.99609 114.20312 C 166.44544 117.61191 181.86741 124.82646 195.02734 135.26758 A 8 8 0 0 0 206.26758 133.97266 A 8 8 0 0 0 204.97266 122.73242 C 189.8557 110.7386 172.13968 102.45281 153.24414 98.537109 A 8 8 0 0 0 151.16211 98.382812 z M 128 192 A 12 12 0 0 0 116 204 A 12 12 0 0 0 128 216 A 12 12 0 0 0 140 204 A 12 12 0 0 0 128 192 z " />
</svg>
