<svg width="22" height="24" viewBox="0 0 22 24" fill="none" xmlns="http://www.w3.org/2000/svg">
<path fill-rule="evenodd" clip-rule="evenodd" d="M14.2926 2.33736C13.8224 1.87979 13.1923 1.62376 12.5362 1.62376C11.8801 1.62376 11.25 1.87979 10.7798 2.33736L1.4131 11.5231C1.25636 11.6754 1.04639 11.7607 0.827801 11.7607C0.609216 11.7607 0.399246 11.6754 0.242502 11.5231C0.165763 11.4485 0.104765 11.3592 0.0631125 11.2606C0.0214603 11.162 0 11.056 0 10.949C0 10.8419 0.0214603 10.736 0.0631125 10.6374C0.104765 10.5388 0.165763 10.4495 0.242502 10.3749L9.60922 1.18914C10.3927 0.426644 11.4429 0 12.5362 0C13.6295 0 14.6797 0.426644 15.4632 1.18914C15.9165 1.63004 16.2591 2.17203 16.4627 2.77075C16.6663 3.36947 16.7253 4.00791 16.6347 4.63379C17.2689 4.54359 17.9154 4.60021 18.5242 4.79928C19.1331 4.99836 19.6881 5.33457 20.1465 5.78201L20.1952 5.83066C20.5789 6.20381 20.8839 6.6501 21.0921 7.14314C21.3004 7.63619 21.4077 8.16598 21.4077 8.7012C21.4077 9.23643 21.3004 9.76622 21.0921 10.2593C20.8839 10.7523 20.5789 11.1986 20.1952 11.5717L11.7237 19.8788C11.6981 19.9036 11.6778 19.9334 11.6639 19.9662C11.65 19.9991 11.6429 20.0343 11.6429 20.07C11.6429 20.1057 11.65 20.1409 11.6639 20.1738C11.6778 20.2066 11.6981 20.2364 11.7237 20.2612L13.4635 21.968C13.5403 22.0426 13.6013 22.1319 13.6429 22.2305C13.6846 22.3291 13.706 22.435 13.706 22.5421C13.706 22.6491 13.6846 22.7551 13.6429 22.8537C13.6013 22.9523 13.5403 23.0415 13.4635 23.1162C13.3068 23.2685 13.0968 23.3538 12.8782 23.3538C12.6596 23.3538 12.4497 23.2685 12.2929 23.1162L10.5531 21.4104C10.3739 21.2363 10.2314 21.028 10.1342 20.7978C10.0369 20.5677 9.98678 20.3204 9.98678 20.0705C9.98678 19.8206 10.0369 19.5733 10.1342 19.3432C10.2314 19.113 10.3739 18.9047 10.5531 18.7306L19.0246 10.4226C19.2547 10.1986 19.4376 9.9308 19.5625 9.63498C19.6873 9.33917 19.7517 9.02133 19.7517 8.70023C19.7517 8.37913 19.6873 8.06129 19.5625 7.76548C19.4376 7.46966 19.2547 7.20186 19.0246 6.9779L18.9759 6.93023C18.5063 6.47313 17.877 6.21713 17.2216 6.21659C16.5663 6.21604 15.9365 6.471 15.4661 6.92731L8.48728 13.7718L8.48533 13.7738L8.38997 13.8682C8.23318 14.0208 8.02301 14.1062 7.80419 14.1062C7.58537 14.1062 7.37519 14.0208 7.2184 13.8682C7.14166 13.7935 7.08066 13.7043 7.03901 13.6057C6.99736 13.5071 6.9759 13.4011 6.9759 13.2941C6.9759 13.187 6.99736 13.0811 7.03901 12.9825C7.08066 12.8838 7.14166 12.7946 7.2184 12.72L14.2955 5.77909C14.525 5.55498 14.7072 5.28721 14.8316 4.99156C14.956 4.69591 15.0199 4.37835 15.0196 4.05761C15.0194 3.73687 14.9549 3.41942 14.83 3.12398C14.7052 2.82854 14.5224 2.56108 14.2926 2.33736Z" fill="url(#paint0_linear_221_42)"/>
<path fill-rule="evenodd" clip-rule="evenodd" d="M13.1219 4.63383C13.1986 4.5592 13.2596 4.46994 13.3013 4.37133C13.3429 4.27272 13.3644 4.16676 13.3644 4.05972C13.3644 3.95268 13.3429 3.84672 13.3013 3.74811C13.2596 3.6495 13.1986 3.56024 13.1219 3.48561C12.9651 3.33297 12.7549 3.24756 12.5361 3.24756C12.3173 3.24756 12.1071 3.33297 11.9503 3.48561L5.02306 10.2795C4.63936 10.6527 4.33437 11.099 4.12611 11.592C3.91785 12.0851 3.81055 12.6149 3.81055 13.1501C3.81055 13.6853 3.91785 14.2151 4.12611 14.7081C4.33437 15.2012 4.63936 15.6475 5.02306 16.0206C5.8067 16.7829 6.85681 17.2094 7.95004 17.2094C9.04327 17.2094 10.0934 16.7829 10.877 16.0206L17.8052 9.22669C17.882 9.15206 17.943 9.06281 17.9846 8.9642C18.0263 8.86559 18.0477 8.75963 18.0477 8.65259C18.0477 8.54554 18.0263 8.43958 17.9846 8.34097C17.943 8.24236 17.882 8.15311 17.8052 8.07848C17.6484 7.92584 17.4383 7.84042 17.2194 7.84042C17.0006 7.84042 16.7905 7.92584 16.6337 8.07848L9.70642 14.8724C9.23626 15.33 8.6061 15.586 7.95004 15.586C7.29398 15.586 6.66381 15.33 6.19366 14.8724C5.96356 14.6485 5.78067 14.3807 5.65579 14.0848C5.53091 13.789 5.46657 13.4712 5.46657 13.1501C5.46657 12.829 5.53091 12.5112 5.65579 12.2153C5.78067 11.9195 5.96356 11.6517 6.19366 11.4278L13.1219 4.63383Z" fill="url(#paint1_linear_221_42)"/>
<defs>
<linearGradient id="paint0_linear_221_42" x1="10.7039" y1="0" x2="10.7039" y2="23.3538" gradientUnits="userSpaceOnUse">
<stop stop-color="#FF7C66"/>
<stop offset="0.5" stop-color="#A03291"/>
<stop offset="1" stop-color="#4B4FE2"/>
</linearGradient>
<linearGradient id="paint1_linear_221_42" x1="10.9291" y1="3.24756" x2="10.9291" y2="17.2094" gradientUnits="userSpaceOnUse">
<stop stop-color="#FF7C66"/>
<stop offset="0.5" stop-color="#A03291"/>
<stop offset="1" stop-color="#4B4FE2"/>
</linearGradient>
</defs>
</svg>
