<?xml version="1.0" encoding="UTF-8" standalone="no"?>
<svg
   viewBox="0 0 256 256"
   version="1.1"
   id="svg3"
   sodipodi:docname="address book tabs purple_coral.svg"
   xmlns:inkscape="http://www.inkscape.org/namespaces/inkscape"
   xmlns:sodipodi="http://sodipodi.sourceforge.net/DTD/sodipodi-0.dtd"
   xmlns:xlink="http://www.w3.org/1999/xlink"
   xmlns="http://www.w3.org/2000/svg"
   xmlns:svg="http://www.w3.org/2000/svg">
  <defs
     id="defs3">
    <linearGradient
       id="linearGradient1"
       inkscape:collect="always">
      <stop
         style="stop-color:#ff7c66;stop-opacity:1;"
         offset="0"
         id="stop1" />
      <stop
         style="stop-color:#a03291;stop-opacity:1;"
         offset="0.76340693"
         id="stop2" />
    </linearGradient>
    <linearGradient
       inkscape:collect="always"
       xlink:href="#linearGradient1"
       id="linearGradient2"
       x1="232.4884"
       y1="23.847498"
       x2="23.977745"
       y2="232.35815"
       gradientUnits="userSpaceOnUse" />
  </defs>
  <defs
     id="defs1" />
  <sodipodi:namedview
     id="namedview3"
     pagecolor="#ffffff"
     bordercolor="#000000"
     borderopacity="0.25"
     inkscape:showpageshadow="2"
     inkscape:pageopacity="0.0"
     inkscape:pagecheckerboard="0"
     inkscape:deskcolor="#d1d1d1" />
  <path
     id="line1"
     style="baseline-shift:baseline;display:inline;overflow:visible;vector-effect:none;fill:url(#linearGradient2);stroke-linecap:round;stroke-linejoin:round;enable-background:accumulate;stop-color:#000000;stop-opacity:1;opacity:1;fill-opacity:1"
     d="M 48 32 C 39.274378 32 32 39.274378 32 48 L 32 208 C 32 216.72562 39.274378 224 48 224 L 184 224 L 208 224 C 216.72562 224 224 216.72562 224 208 L 224 48 C 224 39.274378 216.72562 32 208 32 L 184 32 L 48 32 z M 48 48 L 176 48 L 176 96 L 176 160 L 176 208 L 48 208 L 48 48 z M 192 48 L 208 48 L 208 88 L 192 88 L 192 48 z M 112 88 C 94.421645 88 80 102.42165 80 120 C 80 128.79989 83.614542 136.80887 89.429688 142.61328 C 81.107399 147.94108 74.786964 156.1534 72.251953 166.00781 A 8 8 0 0 0 78.007812 175.74805 A 8 8 0 0 0 87.748047 169.99219 C 90.312238 160.02435 100.73856 152 112 152 C 123.26502 152 133.69422 160.0159 136.25 169.98633 A 8 8 0 0 0 145.98633 175.75 A 8 8 0 0 0 151.75 166.01367 C 149.22148 156.14957 142.89929 147.93589 134.57422 142.60938 C 140.38749 136.80522 144 128.79827 144 120 C 144 102.42165 129.57835 88 112 88 z M 112 104 C 120.93131 104 128 111.06869 128 120 C 128 128.93131 120.93131 136 112 136 C 103.06869 136 96 128.93131 96 120 C 96 111.06869 103.06869 104 112 104 z M 192 104 L 208 104 L 208 152 L 192 152 L 192 104 z M 192 168 L 208 168 L 208 208 L 192 208 L 192 168 z " />
</svg>
