<?xml version="1.0" encoding="UTF-8" standalone="no"?>
<svg
   viewBox="0 0 256 256"
   version="1.1"
   id="svg1"
   sodipodi:docname="airplay purple_coral.svg"
   xmlns:inkscape="http://www.inkscape.org/namespaces/inkscape"
   xmlns:sodipodi="http://sodipodi.sourceforge.net/DTD/sodipodi-0.dtd"
   xmlns:xlink="http://www.w3.org/1999/xlink"
   xmlns="http://www.w3.org/2000/svg"
   xmlns:svg="http://www.w3.org/2000/svg">
  <defs
     id="defs3">
    <linearGradient
       id="linearGradient1"
       inkscape:collect="always">
      <stop
         style="stop-color:#ff7c66;stop-opacity:1;"
         offset="0"
         id="stop1" />
      <stop
         style="stop-color:#a03291;stop-opacity:1;"
         offset="0.76340693"
         id="stop2" />
    </linearGradient>
    <linearGradient
       inkscape:collect="always"
       xlink:href="#linearGradient1"
       id="linearGradient2"
       x1="232.4884"
       y1="23.847498"
       x2="23.977745"
       y2="232.35815"
       gradientUnits="userSpaceOnUse" />
  </defs>
  <defs
     id="defs1" />
  <sodipodi:namedview
     id="namedview1"
     pagecolor="#ffffff"
     bordercolor="#000000"
     borderopacity="0.25"
     inkscape:showpageshadow="2"
     inkscape:pageopacity="0.0"
     inkscape:pagecheckerboard="0"
     inkscape:deskcolor="#d1d1d1" />
  <path
     id="polygon1"
     style="baseline-shift:baseline;display:inline;overflow:visible;vector-effect:none;fill:url(#linearGradient2);stroke-linecap:round;stroke-linejoin:round;enable-background:accumulate;stop-color:#000000;stop-opacity:1;opacity:1;fill-opacity:1"
     d="M 48 40 C 34.839923 40 24 50.839923 24 64 L 24 176 C 24 189.16008 34.839923 200 48 200 L 56 200 A 8 8 0 0 0 64 192 A 8 8 0 0 0 56 184 L 48 184 C 43.486965 184 40 180.51304 40 176 L 40 64 C 40 59.486965 43.486965 56 48 56 L 208 56 C 212.51304 56 216 59.486965 216 64 L 216 176 C 216 180.51304 212.51304 184 208 184 L 200 184 A 8 8 0 0 0 192 192 A 8 8 0 0 0 200 200 L 208 200 C 221.16008 200 232 189.16008 232 176 L 232 64 C 232 50.839923 221.16008 40 208 40 L 48 40 z M 128 152 A 8.0008 8.0008 0 0 0 121.92578 154.79297 L 73.925781 210.79297 A 8.0008 8.0008 0 0 0 80 224 L 176 224 A 8.0008 8.0008 0 0 0 182.07422 210.79297 L 134.07422 154.79297 A 8.0008 8.0008 0 0 0 128 152 z M 128 172.29297 L 158.60547 208 L 97.394531 208 L 128 172.29297 z " />
</svg>
