<?xml version="1.0" encoding="UTF-8" standalone="no"?>
<svg
   viewBox="0 0 256 256"
   version="1.1"
   id="svg3"
   sodipodi:docname="align right purple_coral.svg"
   xmlns:inkscape="http://www.inkscape.org/namespaces/inkscape"
   xmlns:sodipodi="http://sodipodi.sourceforge.net/DTD/sodipodi-0.dtd"
   xmlns:xlink="http://www.w3.org/1999/xlink"
   xmlns="http://www.w3.org/2000/svg"
   xmlns:svg="http://www.w3.org/2000/svg">
  <defs
     id="defs3">
    <linearGradient
       id="linearGradient1"
       inkscape:collect="always">
      <stop
         style="stop-color:#ff7c66;stop-opacity:1;"
         offset="0"
         id="stop1" />
      <stop
         style="stop-color:#a03291;stop-opacity:1;"
         offset="0.76340693"
         id="stop2" />
    </linearGradient>
    <linearGradient
       inkscape:collect="always"
       xlink:href="#linearGradient1"
       id="linearGradient2"
       x1="232.4884"
       y1="23.847498"
       x2="23.977745"
       y2="232.35815"
       gradientUnits="userSpaceOnUse" />
  </defs>
  <defs
     id="defs1" />
  <sodipodi:namedview
     id="namedview3"
     pagecolor="#ffffff"
     bordercolor="#000000"
     borderopacity="0.25"
     inkscape:showpageshadow="2"
     inkscape:pageopacity="0.0"
     inkscape:pagecheckerboard="0"
     inkscape:deskcolor="#d1d1d1" />
  <path
     id="line1"
     style="baseline-shift:baseline;display:inline;overflow:visible;vector-effect:none;fill:url(#linearGradient2);stroke-linecap:round;stroke-linejoin:round;enable-background:accumulate;stop-color:#000000;stop-opacity:1;opacity:1;fill-opacity:1"
     d="M 216 32 A 8 8 0 0 0 208 40 L 208 216 A 8 8 0 0 0 216 224 A 8 8 0 0 0 224 216 L 224 40 A 8 8 0 0 0 216 32 z M 80 48 C 71.27438 48 64 55.27438 64 64 L 64 104 C 64 112.72562 71.27438 120 80 120 L 176 120 C 184.72562 120 192 112.72562 192 104 L 192 64 C 192 55.27438 184.72562 48 176 48 L 80 48 z M 80 64 L 176 64 L 176 104 L 80 104 L 80 64 z M 40 136 C 31.274378 136 24 143.27438 24 152 L 24 192 C 24 200.72562 31.274378 208 40 208 L 176 208 C 184.72562 208 192 200.72562 192 192 L 192 152 C 192 143.27438 184.72562 136 176 136 L 40 136 z M 40 152 L 176 152 L 176 192 L 40 192 L 40 152 z " />
</svg>
