<?xml version="1.0" encoding="UTF-8" standalone="no"?>
<svg
   viewBox="0 0 256 256"
   version="1.1"
   id="svg3"
   sodipodi:docname="android logo purple_coral.svg"
   xmlns:inkscape="http://www.inkscape.org/namespaces/inkscape"
   xmlns:sodipodi="http://sodipodi.sourceforge.net/DTD/sodipodi-0.dtd"
   xmlns:xlink="http://www.w3.org/1999/xlink"
   xmlns="http://www.w3.org/2000/svg"
   xmlns:svg="http://www.w3.org/2000/svg">
  <defs
     id="defs3">
    <linearGradient
       id="linearGradient1"
       inkscape:collect="always">
      <stop
         style="stop-color:#ff7c66;stop-opacity:1;"
         offset="0"
         id="stop1" />
      <stop
         style="stop-color:#a03291;stop-opacity:1;"
         offset="0.76340693"
         id="stop2" />
    </linearGradient>
    <linearGradient
       inkscape:collect="always"
       xlink:href="#linearGradient1"
       id="linearGradient2"
       x1="232.4884"
       y1="23.847498"
       x2="23.977745"
       y2="232.35815"
       gradientUnits="userSpaceOnUse" />
  </defs>
  <defs
     id="defs1" />
  <sodipodi:namedview
     id="namedview3"
     pagecolor="#ffffff"
     bordercolor="#000000"
     borderopacity="0.25"
     inkscape:showpageshadow="2"
     inkscape:pageopacity="0.0"
     inkscape:pagecheckerboard="0"
     inkscape:deskcolor="#d1d1d1" />
  <path
     id="circle1"
     style="baseline-shift:baseline;display:inline;overflow:visible;vector-effect:none;fill:url(#linearGradient2);stroke-linecap:round;stroke-linejoin:round;enable-background:accumulate;stop-color:#000000;stop-opacity:1;opacity:1;fill-opacity:1"
     d="M 32 40 A 8 8 0 0 0 26.34375 42.34375 A 8 8 0 0 0 26.34375 53.65625 L 51.410156 78.722656 C 29.594865 99.450172 16 128.84037 16 161.13086 L 16 184 C 16 192.7418 23.258201 200 32 200 L 224 200 C 232.7418 200 240 192.7418 240 184 L 240 160 C 240.0002 127.92378 226.45153 98.964154 204.7832 78.53125 L 229.65625 53.65625 A 8 8 0 0 0 229.65625 42.34375 A 8 8 0 0 0 224 40 A 8 8 0 0 0 218.34375 42.34375 L 192.32617 68.359375 C 174.00745 55.462739 151.66842 47.914377 127.60156 48 C 103.84019 48.082677 81.867952 55.678445 63.816406 68.503906 L 37.65625 42.34375 A 8 8 0 0 0 32 40 z M 127.6582 64 C 150.24124 63.919656 170.99869 71.596118 187.41602 84.527344 A 8 8 0 0 0 187.44336 84.556641 A 8 8 0 0 0 188.83203 85.666016 C 210.3117 103.25244 224.00019 129.98929 224 160 L 224 184 L 32 184 L 32 161.13086 C 32 130.81705 45.820472 103.57206 67.535156 85.707031 A 8 8 0 0 0 68.638672 84.8125 C 84.860659 71.861056 105.32866 64.077695 127.6582 64 z M 92 136 A 12 12 0 0 0 80 148 A 12 12 0 0 0 92 160 A 12 12 0 0 0 104 148 A 12 12 0 0 0 92 136 z M 164 136 A 12 12 0 0 0 152 148 A 12 12 0 0 0 164 160 A 12 12 0 0 0 176 148 A 12 12 0 0 0 164 136 z " />
</svg>
