<?xml version="1.0" encoding="UTF-8" standalone="no"?>
<svg
   viewBox="0 0 256 256"
   version="1.1"
   id="svg1"
   sodipodi:docname="angular logo purple_coral.svg"
   xmlns:inkscape="http://www.inkscape.org/namespaces/inkscape"
   xmlns:sodipodi="http://sodipodi.sourceforge.net/DTD/sodipodi-0.dtd"
   xmlns:xlink="http://www.w3.org/1999/xlink"
   xmlns="http://www.w3.org/2000/svg"
   xmlns:svg="http://www.w3.org/2000/svg">
  <defs
     id="defs3">
    <linearGradient
       id="linearGradient1"
       inkscape:collect="always">
      <stop
         style="stop-color:#ff7c66;stop-opacity:1;"
         offset="0"
         id="stop1" />
      <stop
         style="stop-color:#a03291;stop-opacity:1;"
         offset="0.76340693"
         id="stop2" />
    </linearGradient>
    <linearGradient
       inkscape:collect="always"
       xlink:href="#linearGradient1"
       id="linearGradient2"
       x1="232.4884"
       y1="23.847498"
       x2="23.977745"
       y2="232.35815"
       gradientUnits="userSpaceOnUse" />
  </defs>
  <defs
     id="defs1" />
  <sodipodi:namedview
     id="namedview1"
     pagecolor="#ffffff"
     bordercolor="#000000"
     borderopacity="0.25"
     inkscape:showpageshadow="2"
     inkscape:pageopacity="0.0"
     inkscape:pagecheckerboard="0"
     inkscape:deskcolor="#d1d1d1" />
  <path
     id="polygon1"
     style="baseline-shift:baseline;display:inline;overflow:visible;vector-effect:none;fill:url(#linearGradient2);stroke-linecap:round;stroke-linejoin:round;enable-background:accumulate;stop-color:#000000;stop-opacity:1;opacity:1;fill-opacity:1"
     d="M 128 24 A 8.0008 8.0008 0 0 0 124.92383 24.615234 L 28.923828 64.615234 A 8.0008 8.0008 0 0 0 24.070312 73.056641 L 40.070312 193.05664 A 8.0008 8.0008 0 0 0 44.421875 199.15625 L 124.42188 239.15625 A 8.0008 8.0008 0 0 0 131.57812 239.15625 L 211.57812 199.15625 A 8.0008 8.0008 0 0 0 215.92969 193.05664 L 231.92969 73.056641 A 8.0008 8.0008 0 0 0 227.07617 64.615234 L 131.07617 24.615234 A 8.0008 8.0008 0 0 0 128 24 z M 128 40.666016 L 215.25977 77.025391 L 200.63086 186.74023 L 128 223.05469 L 55.369141 186.74023 L 40.740234 77.025391 L 128 40.666016 z M 128.25781 80.003906 A 8.0008 8.0008 0 0 0 125.22266 80.498047 A 8.0008 8.0008 0 0 0 121.00586 84.115234 L 94.431641 131.94922 L 94.394531 132.01562 A 8 8 0 0 0 94.242188 132.28906 L 81.005859 156.11523 A 8 8 0 0 0 84.115234 166.99414 A 8 8 0 0 0 94.994141 163.88477 L 106.04102 144 L 149.95898 144 L 161.00586 163.88477 A 8 8 0 0 0 171.88477 166.99414 A 8 8 0 0 0 174.99414 156.11523 L 161.75781 132.28906 L 161.75391 132.28125 A 8 8 0 0 0 161.56836 131.94922 L 134.99414 84.115234 A 8.0008 8.0008 0 0 0 128.25781 80.003906 z M 128 104.47461 L 141.07031 128 L 114.92969 128 L 128 104.47461 z " />
</svg>
