<?xml version="1.0" encoding="UTF-8" standalone="no"?>
<svg
   viewBox="0 0 256 256"
   version="1.1"
   id="svg2"
   sodipodi:docname="arrows down up purple_coral.svg"
   xmlns:inkscape="http://www.inkscape.org/namespaces/inkscape"
   xmlns:sodipodi="http://sodipodi.sourceforge.net/DTD/sodipodi-0.dtd"
   xmlns:xlink="http://www.w3.org/1999/xlink"
   xmlns="http://www.w3.org/2000/svg"
   xmlns:svg="http://www.w3.org/2000/svg">
  <defs
     id="defs3">
    <linearGradient
       id="linearGradient1"
       inkscape:collect="always">
      <stop
         style="stop-color:#ff7c66;stop-opacity:1;"
         offset="0"
         id="stop1" />
      <stop
         style="stop-color:#a03291;stop-opacity:1;"
         offset="0.76340693"
         id="stop2" />
    </linearGradient>
    <linearGradient
       inkscape:collect="always"
       xlink:href="#linearGradient1"
       id="linearGradient2"
       x1="232.4884"
       y1="23.847498"
       x2="23.977745"
       y2="232.35815"
       gradientUnits="userSpaceOnUse" />
  </defs>
  <defs
     id="defs2" />
  <sodipodi:namedview
     id="namedview2"
     pagecolor="#ffffff"
     bordercolor="#000000"
     borderopacity="0.25"
     inkscape:showpageshadow="2"
     inkscape:pageopacity="0.0"
     inkscape:pagecheckerboard="0"
     inkscape:deskcolor="#d1d1d1" />
  <path
     id="polyline1"
     style="baseline-shift:baseline;display:inline;overflow:visible;vector-effect:none;fill:url(#linearGradient2);stroke-linecap:round;stroke-linejoin:round;enable-background:accumulate;stop-color:#000000;stop-opacity:1;opacity:1;fill-opacity:1"
     d="M 80 40 A 8 8 0 0 0 72 48 L 72 188.6875 L 53.65625 170.34375 A 8 8 0 0 0 48 168 A 8 8 0 0 0 42.34375 170.34375 A 8 8 0 0 0 42.34375 181.65625 L 74.34375 213.65625 A 8.0008 8.0008 0 0 0 74.664062 213.9375 A 8 8 0 0 0 75.103516 214.32227 A 8.0008 8.0008 0 0 0 75.525391 214.60938 A 8 8 0 0 0 75.966797 214.9043 A 8.0008 8.0008 0 0 0 76.445312 215.14648 A 8 8 0 0 0 76.921875 215.38281 A 8.0008 8.0008 0 0 0 77.398438 215.54688 A 8 8 0 0 0 77.914062 215.7207 A 8.0008 8.0008 0 0 0 78.292969 215.79883 A 8 8 0 0 0 80 216 A 8 8 0 0 0 81.707031 215.79883 A 8.0008 8.0008 0 0 0 82.085938 215.7207 A 8 8 0 0 0 82.601562 215.54688 A 8.0008 8.0008 0 0 0 83.078125 215.38281 A 8 8 0 0 0 83.554688 215.14648 A 8.0008 8.0008 0 0 0 84.033203 214.9043 A 8 8 0 0 0 84.474609 214.60938 A 8.0008 8.0008 0 0 0 84.896484 214.32227 A 8 8 0 0 0 85.335938 213.9375 A 8.0008 8.0008 0 0 0 85.65625 213.65625 L 117.65625 181.65625 A 8 8 0 0 0 117.65625 170.34375 A 8 8 0 0 0 106.34375 170.34375 L 88 188.6875 L 88 48 A 8 8 0 0 0 80 40 z M 176 40 A 8.0008 8.0008 0 0 0 174.94922 40.070312 A 8 8 0 0 0 174.46094 40.167969 A 8.0008 8.0008 0 0 0 173.91406 40.279297 A 8 8 0 0 0 173.39844 40.453125 A 8.0008 8.0008 0 0 0 172.92188 40.617188 A 8 8 0 0 0 172.44531 40.853516 A 8.0008 8.0008 0 0 0 171.9668 41.095703 A 8 8 0 0 0 171.52539 41.390625 A 8.0008 8.0008 0 0 0 171.10352 41.677734 A 8 8 0 0 0 170.66406 42.0625 A 8.0008 8.0008 0 0 0 170.34375 42.34375 L 170.26172 42.425781 L 138.34375 74.34375 A 8 8 0 0 0 138.34375 85.65625 A 8 8 0 0 0 149.65625 85.65625 L 168 67.3125 L 168 208 A 8 8 0 0 0 176 216 A 8 8 0 0 0 184 208 L 184 67.3125 L 202.34375 85.65625 A 8 8 0 0 0 213.65625 85.65625 A 8 8 0 0 0 213.65625 74.34375 L 181.73828 42.425781 L 181.65625 42.34375 A 8.0008 8.0008 0 0 0 181.33594 42.0625 A 8 8 0 0 0 180.89648 41.677734 A 8.0008 8.0008 0 0 0 180.47461 41.390625 A 8 8 0 0 0 180.0332 41.095703 A 8.0008 8.0008 0 0 0 179.55469 40.853516 A 8 8 0 0 0 179.07812 40.617188 A 8.0008 8.0008 0 0 0 178.60156 40.453125 A 8 8 0 0 0 178.08594 40.279297 A 8.0008 8.0008 0 0 0 177.53906 40.167969 A 8 8 0 0 0 177.05078 40.070312 A 8 8 0 0 0 176 40 z " />
</svg>
