<?xml version="1.0" encoding="UTF-8" standalone="no"?>
<svg
   viewBox="0 0 256 256"
   version="1.1"
   id="svg2"
   sodipodi:docname="arrow square right purple_coral.svg"
   xmlns:inkscape="http://www.inkscape.org/namespaces/inkscape"
   xmlns:sodipodi="http://sodipodi.sourceforge.net/DTD/sodipodi-0.dtd"
   xmlns:xlink="http://www.w3.org/1999/xlink"
   xmlns="http://www.w3.org/2000/svg"
   xmlns:svg="http://www.w3.org/2000/svg">
  <defs
     id="defs3">
    <linearGradient
       id="linearGradient1"
       inkscape:collect="always">
      <stop
         style="stop-color:#ff7c66;stop-opacity:1;"
         offset="0"
         id="stop1" />
      <stop
         style="stop-color:#a03291;stop-opacity:1;"
         offset="0.76340693"
         id="stop2" />
    </linearGradient>
    <linearGradient
       inkscape:collect="always"
       xlink:href="#linearGradient1"
       id="linearGradient2"
       x1="232.4884"
       y1="23.847498"
       x2="23.977745"
       y2="232.35815"
       gradientUnits="userSpaceOnUse" />
  </defs>
  <defs
     id="defs2" />
  <sodipodi:namedview
     id="namedview2"
     pagecolor="#ffffff"
     bordercolor="#000000"
     borderopacity="0.25"
     inkscape:showpageshadow="2"
     inkscape:pageopacity="0.0"
     inkscape:pagecheckerboard="0"
     inkscape:deskcolor="#d1d1d1" />
  <path
     id="rect2"
     style="baseline-shift:baseline;display:inline;overflow:visible;vector-effect:none;fill:url(#linearGradient2);stroke-linecap:round;stroke-linejoin:round;enable-background:accumulate;stop-color:#000000;stop-opacity:1;opacity:1;fill-opacity:1"
     d="M 32 208 C 32 216.72562 39.274378 224 48 224 L 208 224 C 216.72562 224 224 216.72562 224 208 L 224 48 C 224 39.274378 216.72562 32 208 32 L 48 32 C 39.274378 32 32 39.274378 32 48 L 32 208 z M 48 208 L 48 48 L 208 48 L 208 208 L 48 208 z M 88 120 A 8 8 0 0 0 90.34375 125.65625 A 8 8 0 0 0 101.65625 125.65625 L 120 107.3125 L 120 168 A 8 8 0 0 0 128 176 A 8 8 0 0 0 136 168 L 136 107.3125 L 154.34375 125.65625 A 8 8 0 0 0 165.65625 125.65625 A 8 8 0 0 0 165.65625 114.34375 L 133.73828 82.425781 L 133.65625 82.34375 A 8.0008 8.0008 0 0 0 133.33594 82.0625 A 8 8 0 0 0 132.89648 81.677734 A 8.0008 8.0008 0 0 0 132.47461 81.390625 A 8 8 0 0 0 132.0332 81.095703 A 8.0008 8.0008 0 0 0 131.55469 80.853516 A 8 8 0 0 0 131.07812 80.617188 A 8.0008 8.0008 0 0 0 130.60156 80.453125 A 8 8 0 0 0 130.08594 80.279297 A 8.0008 8.0008 0 0 0 129.70703 80.201172 A 8 8 0 0 0 128 80 A 8 8 0 0 0 126.29297 80.201172 A 8.0008 8.0008 0 0 0 125.91406 80.279297 A 8 8 0 0 0 125.39844 80.453125 A 8.0008 8.0008 0 0 0 124.92188 80.617188 A 8 8 0 0 0 124.44531 80.853516 A 8.0008 8.0008 0 0 0 123.9668 81.095703 A 8 8 0 0 0 123.52539 81.390625 A 8.0008 8.0008 0 0 0 123.10352 81.677734 A 8 8 0 0 0 122.66406 82.0625 A 8.0008 8.0008 0 0 0 122.34375 82.34375 L 122.26172 82.425781 L 90.34375 114.34375 A 8 8 0 0 0 88 120 z "
     transform="translate(256) rotate(90)" />
</svg>
