<?xml version="1.0" encoding="UTF-8" standalone="no"?>
<svg
   viewBox="0 0 256 256"
   version="1.1"
   id="svg2"
   sodipodi:docname="arrow elbow down left purple_coral.svg"
   xmlns:inkscape="http://www.inkscape.org/namespaces/inkscape"
   xmlns:sodipodi="http://sodipodi.sourceforge.net/DTD/sodipodi-0.dtd"
   xmlns:xlink="http://www.w3.org/1999/xlink"
   xmlns="http://www.w3.org/2000/svg"
   xmlns:svg="http://www.w3.org/2000/svg">
  <defs
     id="defs3">
    <linearGradient
       id="linearGradient1"
       inkscape:collect="always">
      <stop
         style="stop-color:#ff7c66;stop-opacity:1;"
         offset="0"
         id="stop1" />
      <stop
         style="stop-color:#a03291;stop-opacity:1;"
         offset="0.76340693"
         id="stop2" />
    </linearGradient>
    <linearGradient
       inkscape:collect="always"
       xlink:href="#linearGradient1"
       id="linearGradient2"
       x1="232.4884"
       y1="23.847498"
       x2="23.977745"
       y2="232.35815"
       gradientUnits="userSpaceOnUse" />
  </defs>
  <defs
     id="defs2" />
  <sodipodi:namedview
     id="namedview2"
     pagecolor="#ffffff"
     bordercolor="#000000"
     borderopacity="0.25"
     inkscape:showpageshadow="2"
     inkscape:pageopacity="0.0"
     inkscape:pagecheckerboard="0"
     inkscape:deskcolor="#d1d1d1" />
  <path
     id="polyline1"
     style="baseline-shift:baseline;display:inline;overflow:visible;vector-effect:none;fill:url(#linearGradient2);stroke-linecap:round;stroke-linejoin:round;enable-background:accumulate;stop-color:#000000;stop-opacity:1;opacity:1;fill-opacity:1"
     d="M 192 24 A 8 8 0 0 0 184 32 L 184 168 L 67.3125 168 L 101.65625 133.65625 A 8 8 0 0 0 101.65625 122.34375 A 8 8 0 0 0 96 120 A 8 8 0 0 0 90.34375 122.34375 L 42.425781 170.26172 L 42.34375 170.34375 A 8.0008 8.0008 0 0 0 42.0625 170.66406 A 8 8 0 0 0 41.677734 171.10352 A 8.0008 8.0008 0 0 0 41.390625 171.52539 A 8 8 0 0 0 41.095703 171.9668 A 8.0008 8.0008 0 0 0 40.853516 172.44531 A 8 8 0 0 0 40.617188 172.92188 A 8.0008 8.0008 0 0 0 40.453125 173.39844 A 8 8 0 0 0 40.279297 173.91406 A 8.0008 8.0008 0 0 0 40.201172 174.29297 A 8 8 0 0 0 40 176 A 8 8 0 0 0 40.201172 177.70703 A 8.0008 8.0008 0 0 0 40.279297 178.08594 A 8 8 0 0 0 40.453125 178.60156 A 8.0008 8.0008 0 0 0 40.617188 179.07812 A 8 8 0 0 0 40.853516 179.55469 A 8.0008 8.0008 0 0 0 41.095703 180.0332 A 8 8 0 0 0 41.390625 180.47461 A 8.0008 8.0008 0 0 0 41.677734 180.89648 A 8 8 0 0 0 42.0625 181.33594 A 8.0008 8.0008 0 0 0 42.34375 181.65625 L 42.425781 181.73828 L 90.34375 229.65625 A 8 8 0 0 0 101.65625 229.65625 A 8 8 0 0 0 101.65625 218.34375 L 67.3125 184 L 192 184 A 8.0008 8.0008 0 0 0 200 176 L 200 32 A 8 8 0 0 0 192 24 z " />
</svg>
