<?xml version="1.0" encoding="UTF-8" standalone="no"?>
<svg
   viewBox="0 0 256 256"
   version="1.1"
   id="svg4"
   sodipodi:docname="arrows split purple_coral.svg"
   xmlns:inkscape="http://www.inkscape.org/namespaces/inkscape"
   xmlns:sodipodi="http://sodipodi.sourceforge.net/DTD/sodipodi-0.dtd"
   xmlns:xlink="http://www.w3.org/1999/xlink"
   xmlns="http://www.w3.org/2000/svg"
   xmlns:svg="http://www.w3.org/2000/svg">
  <defs
     id="defs3">
    <linearGradient
       id="linearGradient1"
       inkscape:collect="always">
      <stop
         style="stop-color:#ff7c66;stop-opacity:1;"
         offset="0"
         id="stop1" />
      <stop
         style="stop-color:#a03291;stop-opacity:1;"
         offset="0.76340693"
         id="stop2" />
    </linearGradient>
    <linearGradient
       inkscape:collect="always"
       xlink:href="#linearGradient1"
       id="linearGradient2"
       x1="232.4884"
       y1="23.847498"
       x2="23.977745"
       y2="232.35815"
       gradientUnits="userSpaceOnUse" />
  </defs>
  <defs
     id="defs4" />
  <sodipodi:namedview
     id="namedview4"
     pagecolor="#ffffff"
     bordercolor="#000000"
     borderopacity="0.25"
     inkscape:showpageshadow="2"
     inkscape:pageopacity="0.0"
     inkscape:pagecheckerboard="0"
     inkscape:deskcolor="#d1d1d1" />
  <path
     id="polyline1"
     style="baseline-shift:baseline;display:inline;overflow:visible;vector-effect:none;fill:url(#linearGradient2);stroke-linecap:round;stroke-linejoin:round;enable-background:accumulate;stop-color:#000000;stop-opacity:1;opacity:1;fill-opacity:1"
     d="M 128 16 A 8 8 0 0 0 120 24 L 120 68.685547 L 58.34375 130.34375 A 8.0008 8.0008 0 0 0 56 136 L 56 196.6875 L 37.65625 178.34375 A 8 8 0 0 0 32 176 A 8 8 0 0 0 26.34375 178.34375 A 8 8 0 0 0 26.34375 189.65625 L 58.34375 221.65625 A 8.0008 8.0008 0 0 0 58.664062 221.9375 A 8 8 0 0 0 59.103516 222.32227 A 8.0008 8.0008 0 0 0 59.525391 222.60938 A 8 8 0 0 0 59.966797 222.9043 A 8.0008 8.0008 0 0 0 60.445312 223.14648 A 8 8 0 0 0 60.921875 223.38281 A 8.0008 8.0008 0 0 0 61.398438 223.54688 A 8 8 0 0 0 61.914062 223.7207 A 8.0008 8.0008 0 0 0 62.292969 223.79883 A 8 8 0 0 0 64 224 A 8 8 0 0 0 65.707031 223.79883 A 8.0008 8.0008 0 0 0 66.085938 223.7207 A 8 8 0 0 0 66.601562 223.54688 A 8.0008 8.0008 0 0 0 67.078125 223.38281 A 8 8 0 0 0 67.554688 223.14648 A 8.0008 8.0008 0 0 0 68.033203 222.9043 A 8 8 0 0 0 68.474609 222.60938 A 8.0008 8.0008 0 0 0 68.896484 222.32227 A 8 8 0 0 0 69.335938 221.9375 A 8.0008 8.0008 0 0 0 69.65625 221.65625 L 101.65625 189.65625 A 8 8 0 0 0 101.65625 178.34375 A 8 8 0 0 0 90.34375 178.34375 L 72 196.6875 L 72 139.31445 L 128 83.3125 L 184 139.31445 L 184 196.6875 L 165.65625 178.34375 A 8 8 0 0 0 160 176 A 8 8 0 0 0 154.34375 178.34375 A 8 8 0 0 0 154.34375 189.65625 L 186.26172 221.57422 L 186.34375 221.65625 A 8.0008 8.0008 0 0 0 186.66406 221.9375 A 8 8 0 0 0 187.10352 222.32227 A 8.0008 8.0008 0 0 0 187.52539 222.60938 A 8 8 0 0 0 187.9668 222.9043 A 8.0008 8.0008 0 0 0 188.44531 223.14648 A 8 8 0 0 0 188.92188 223.38281 A 8.0008 8.0008 0 0 0 189.39844 223.54688 A 8 8 0 0 0 189.91406 223.7207 A 8.0008 8.0008 0 0 0 190.29297 223.79883 A 8 8 0 0 0 192 224 A 8 8 0 0 0 193.70703 223.79883 A 8.0008 8.0008 0 0 0 194.08594 223.7207 A 8 8 0 0 0 194.60156 223.54688 A 8.0008 8.0008 0 0 0 195.07812 223.38281 A 8 8 0 0 0 195.55469 223.14648 A 8.0008 8.0008 0 0 0 196.0332 222.9043 A 8 8 0 0 0 196.47461 222.60938 A 8.0008 8.0008 0 0 0 196.89648 222.32227 A 8 8 0 0 0 197.33594 221.9375 A 8.0008 8.0008 0 0 0 197.65625 221.65625 L 197.73828 221.57422 L 229.65625 189.65625 A 8 8 0 0 0 229.65625 178.34375 A 8 8 0 0 0 218.34375 178.34375 L 200 196.6875 L 200 136 A 8.0008 8.0008 0 0 0 197.65625 130.34375 L 136 68.6875 L 136 24 A 8 8 0 0 0 128 16 z " />
</svg>
