<?xml version="1.0" encoding="UTF-8" standalone="no"?>
<svg
   viewBox="0 0 256 256"
   version="1.1"
   id="svg2"
   sodipodi:docname="arrow line down purple_coral.svg"
   xmlns:inkscape="http://www.inkscape.org/namespaces/inkscape"
   xmlns:sodipodi="http://sodipodi.sourceforge.net/DTD/sodipodi-0.dtd"
   xmlns:xlink="http://www.w3.org/1999/xlink"
   xmlns="http://www.w3.org/2000/svg"
   xmlns:svg="http://www.w3.org/2000/svg">
  <defs
     id="defs3">
    <linearGradient
       id="linearGradient1"
       inkscape:collect="always">
      <stop
         style="stop-color:#ff7c66;stop-opacity:1;"
         offset="0"
         id="stop1" />
      <stop
         style="stop-color:#a03291;stop-opacity:1;"
         offset="0.76340693"
         id="stop2" />
    </linearGradient>
    <linearGradient
       inkscape:collect="always"
       xlink:href="#linearGradient1"
       id="linearGradient2"
       x1="232.4884"
       y1="23.847498"
       x2="23.977745"
       y2="232.35815"
       gradientUnits="userSpaceOnUse" />
  </defs>
  <defs
     id="defs2" />
  <sodipodi:namedview
     id="namedview2"
     pagecolor="#ffffff"
     bordercolor="#000000"
     borderopacity="0.25"
     inkscape:showpageshadow="2"
     inkscape:pageopacity="0.0"
     inkscape:pagecheckerboard="0"
     inkscape:deskcolor="#d1d1d1" />
  <path
     id="line1"
     style="baseline-shift:baseline;display:inline;overflow:visible;vector-effect:none;fill:url(#linearGradient2);stroke-linecap:round;stroke-linejoin:round;enable-background:accumulate;stop-color:#000000;stop-opacity:1;opacity:1;fill-opacity:1"
     d="M 128 24 A 8 8 0 0 0 120 32 L 120 164.6875 L 61.65625 106.34375 A 8 8 0 0 0 56 104 A 8 8 0 0 0 50.34375 106.34375 A 8 8 0 0 0 50.34375 117.65625 L 122.34375 189.65625 A 8.0008 8.0008 0 0 0 122.66406 189.9375 A 8 8 0 0 0 123.10352 190.32227 A 8.0008 8.0008 0 0 0 123.52539 190.60938 A 8 8 0 0 0 123.9668 190.9043 A 8.0008 8.0008 0 0 0 124.44531 191.14648 A 8 8 0 0 0 124.92188 191.38281 A 8.0008 8.0008 0 0 0 125.39844 191.54688 A 8 8 0 0 0 125.91406 191.7207 A 8.0008 8.0008 0 0 0 126.29297 191.79883 A 8 8 0 0 0 128 192 A 8 8 0 0 0 129.70703 191.79883 A 8.0008 8.0008 0 0 0 130.08594 191.7207 A 8 8 0 0 0 130.60156 191.54688 A 8.0008 8.0008 0 0 0 131.07812 191.38281 A 8 8 0 0 0 131.55469 191.14648 A 8.0008 8.0008 0 0 0 132.0332 190.9043 A 8 8 0 0 0 132.47461 190.60938 A 8.0008 8.0008 0 0 0 132.89648 190.32227 A 8 8 0 0 0 133.33594 189.9375 A 8.0008 8.0008 0 0 0 133.65625 189.65625 L 205.65625 117.65625 A 8 8 0 0 0 205.65625 106.34375 A 8 8 0 0 0 194.34375 106.34375 L 136 164.6875 L 136 32 A 8 8 0 0 0 128 24 z M 40 208 A 8 8 0 0 0 32 216 A 8 8 0 0 0 40 224 L 216 224 A 8 8 0 0 0 224 216 A 8 8 0 0 0 216 208 L 40 208 z " />
</svg>
