<?xml version="1.0" encoding="UTF-8" standalone="no"?>
<svg
   viewBox="0 0 256 256"
   version="1.1"
   id="svg3"
   sodipodi:docname="arrows out line vertical purple_coral.svg"
   xmlns:inkscape="http://www.inkscape.org/namespaces/inkscape"
   xmlns:sodipodi="http://sodipodi.sourceforge.net/DTD/sodipodi-0.dtd"
   xmlns:xlink="http://www.w3.org/1999/xlink"
   xmlns="http://www.w3.org/2000/svg"
   xmlns:svg="http://www.w3.org/2000/svg">
  <defs
     id="defs3">
    <linearGradient
       id="linearGradient1"
       inkscape:collect="always">
      <stop
         style="stop-color:#ff7c66;stop-opacity:1;"
         offset="0"
         id="stop1" />
      <stop
         style="stop-color:#a03291;stop-opacity:1;"
         offset="0.76340693"
         id="stop2" />
    </linearGradient>
    <linearGradient
       inkscape:collect="always"
       xlink:href="#linearGradient1"
       id="linearGradient2"
       x1="232.4884"
       y1="23.847498"
       x2="23.977745"
       y2="232.35815"
       gradientUnits="userSpaceOnUse" />
  </defs>
  <defs
     id="defs1" />
  <sodipodi:namedview
     id="namedview3"
     pagecolor="#ffffff"
     bordercolor="#000000"
     borderopacity="0.25"
     inkscape:showpageshadow="2"
     inkscape:pageopacity="0.0"
     inkscape:pagecheckerboard="0"
     inkscape:deskcolor="#d1d1d1" />
  <path
     id="line1"
     style="baseline-shift:baseline;display:inline;overflow:visible;vector-effect:none;fill:url(#linearGradient2);stroke-linecap:round;stroke-linejoin:round;enable-background:accumulate;stop-color:#000000;stop-opacity:1;opacity:1;fill-opacity:1"
     d="M 128 8 A 8.0008 8.0008 0 0 0 126.94922 8.0703125 A 8 8 0 0 0 126.46094 8.1679688 A 8.0008 8.0008 0 0 0 125.91406 8.2792969 A 8 8 0 0 0 125.39844 8.453125 A 8.0008 8.0008 0 0 0 124.92188 8.6171875 A 8 8 0 0 0 124.44531 8.8535156 A 8.0008 8.0008 0 0 0 123.9668 9.0957031 A 8 8 0 0 0 123.52539 9.390625 A 8.0008 8.0008 0 0 0 123.10352 9.6777344 A 8 8 0 0 0 122.66406 10.0625 A 8.0008 8.0008 0 0 0 122.34375 10.34375 L 90.34375 42.34375 A 8 8 0 0 0 90.34375 53.65625 A 8 8 0 0 0 101.65625 53.65625 L 120 35.3125 L 120 96 A 8 8 0 0 0 128 104 A 8 8 0 0 0 136 96 L 136 35.3125 L 154.34375 53.65625 A 8 8 0 0 0 165.65625 53.65625 A 8 8 0 0 0 165.65625 42.34375 L 133.65625 10.34375 A 8.0008 8.0008 0 0 0 133.33594 10.0625 A 8 8 0 0 0 132.89648 9.6777344 A 8.0008 8.0008 0 0 0 132.47461 9.390625 A 8 8 0 0 0 132.0332 9.0957031 A 8.0008 8.0008 0 0 0 131.55469 8.8535156 A 8 8 0 0 0 131.07812 8.6171875 A 8.0008 8.0008 0 0 0 130.60156 8.453125 A 8 8 0 0 0 130.08594 8.2792969 A 8.0008 8.0008 0 0 0 129.53906 8.1679688 A 8 8 0 0 0 128 8 z M 40 120 A 8 8 0 0 0 32 128 A 8 8 0 0 0 40 136 L 216 136 A 8 8 0 0 0 224 128 A 8 8 0 0 0 216 120 L 40 120 z M 128 152 A 8 8 0 0 0 120 160 L 120 220.6875 L 101.65625 202.34375 A 8 8 0 0 0 96 200 A 8 8 0 0 0 90.34375 202.34375 A 8 8 0 0 0 90.34375 213.65625 L 122.26172 245.57422 L 122.34375 245.65625 A 8.0008 8.0008 0 0 0 122.66406 245.9375 A 8 8 0 0 0 123.10352 246.32227 A 8.0008 8.0008 0 0 0 123.52539 246.60938 A 8 8 0 0 0 123.9668 246.9043 A 8.0008 8.0008 0 0 0 124.44531 247.14648 A 8 8 0 0 0 124.92188 247.38281 A 8.0008 8.0008 0 0 0 125.39844 247.54688 A 8 8 0 0 0 125.91406 247.7207 A 8.0008 8.0008 0 0 0 126.29297 247.79883 A 8 8 0 0 0 128 248 A 8 8 0 0 0 129.70703 247.79883 A 8.0008 8.0008 0 0 0 130.08594 247.7207 A 8 8 0 0 0 130.60156 247.54688 A 8.0008 8.0008 0 0 0 131.07812 247.38281 A 8 8 0 0 0 131.55469 247.14648 A 8.0008 8.0008 0 0 0 132.0332 246.9043 A 8 8 0 0 0 132.47461 246.60938 A 8.0008 8.0008 0 0 0 132.89648 246.32227 A 8 8 0 0 0 133.33594 245.9375 A 8.0008 8.0008 0 0 0 133.65625 245.65625 L 133.73828 245.57422 L 165.65625 213.65625 A 8 8 0 0 0 165.65625 202.34375 A 8 8 0 0 0 154.34375 202.34375 L 136 220.6875 L 136 160 A 8 8 0 0 0 128 152 z " />
</svg>
