<?xml version="1.0" encoding="UTF-8" standalone="no"?>
<svg
   viewBox="0 0 256 256"
   version="1.1"
   id="svg2"
   sodipodi:docname="arrow elbow right down purple_coral.svg"
   xmlns:inkscape="http://www.inkscape.org/namespaces/inkscape"
   xmlns:sodipodi="http://sodipodi.sourceforge.net/DTD/sodipodi-0.dtd"
   xmlns:xlink="http://www.w3.org/1999/xlink"
   xmlns="http://www.w3.org/2000/svg"
   xmlns:svg="http://www.w3.org/2000/svg">
  <defs
     id="defs3">
    <linearGradient
       id="linearGradient1"
       inkscape:collect="always">
      <stop
         style="stop-color:#ff7c66;stop-opacity:1;"
         offset="0"
         id="stop1" />
      <stop
         style="stop-color:#a03291;stop-opacity:1;"
         offset="0.76340693"
         id="stop2" />
    </linearGradient>
    <linearGradient
       inkscape:collect="always"
       xlink:href="#linearGradient1"
       id="linearGradient2"
       x1="232.4884"
       y1="23.847498"
       x2="23.977745"
       y2="232.35815"
       gradientUnits="userSpaceOnUse" />
  </defs>
  <defs
     id="defs2" />
  <sodipodi:namedview
     id="namedview2"
     pagecolor="#ffffff"
     bordercolor="#000000"
     borderopacity="0.25"
     inkscape:showpageshadow="2"
     inkscape:pageopacity="0.0"
     inkscape:pagecheckerboard="0"
     inkscape:deskcolor="#d1d1d1" />
  <path
     id="polyline1"
     style="baseline-shift:baseline;display:inline;overflow:visible;vector-effect:none;fill:url(#linearGradient2);stroke-linecap:round;stroke-linejoin:round;enable-background:accumulate;stop-color:#000000;stop-opacity:1;opacity:1;fill-opacity:1"
     d="M 32 56 A 8 8 0 0 0 24 64 A 8 8 0 0 0 32 72 L 168 72 L 168 188.6875 L 133.65625 154.34375 A 8 8 0 0 0 128 152 A 8 8 0 0 0 122.34375 154.34375 A 8 8 0 0 0 122.34375 165.65625 L 170.26172 213.57422 L 170.34375 213.65625 A 8.0008 8.0008 0 0 0 170.66406 213.9375 A 8 8 0 0 0 171.10352 214.32227 A 8.0008 8.0008 0 0 0 171.52539 214.60938 A 8 8 0 0 0 171.9668 214.9043 A 8.0008 8.0008 0 0 0 172.44531 215.14648 A 8 8 0 0 0 172.92188 215.38281 A 8.0008 8.0008 0 0 0 173.39844 215.54688 A 8 8 0 0 0 173.91406 215.7207 A 8.0008 8.0008 0 0 0 174.29297 215.79883 A 8 8 0 0 0 176 216 A 8 8 0 0 0 177.70703 215.79883 A 8.0008 8.0008 0 0 0 178.08594 215.7207 A 8 8 0 0 0 178.60156 215.54688 A 8.0008 8.0008 0 0 0 179.07812 215.38281 A 8 8 0 0 0 179.55469 215.14648 A 8.0008 8.0008 0 0 0 180.0332 214.9043 A 8 8 0 0 0 180.47461 214.60938 A 8.0008 8.0008 0 0 0 180.89648 214.32227 A 8 8 0 0 0 181.33594 213.9375 A 8.0008 8.0008 0 0 0 181.65625 213.65625 L 181.73828 213.57422 L 229.65625 165.65625 A 8 8 0 0 0 229.65625 154.34375 A 8 8 0 0 0 218.34375 154.34375 L 184 188.6875 L 184 64 A 8.0008 8.0008 0 0 0 176 56 L 32 56 z " />
</svg>
