<?xml version="1.0" encoding="UTF-8" standalone="no"?>
<svg
   viewBox="0 0 256 256"
   version="1.1"
   id="svg3"
   sodipodi:docname="basket purple_coral.svg"
   xmlns:inkscape="http://www.inkscape.org/namespaces/inkscape"
   xmlns:sodipodi="http://sodipodi.sourceforge.net/DTD/sodipodi-0.dtd"
   xmlns:xlink="http://www.w3.org/1999/xlink"
   xmlns="http://www.w3.org/2000/svg"
   xmlns:svg="http://www.w3.org/2000/svg">
  <defs
     id="defs3">
    <linearGradient
       id="linearGradient1"
       inkscape:collect="always">
      <stop
         style="stop-color:#ff7c66;stop-opacity:1;"
         offset="0"
         id="stop1" />
      <stop
         style="stop-color:#a03291;stop-opacity:1;"
         offset="0.76340693"
         id="stop2" />
    </linearGradient>
    <linearGradient
       inkscape:collect="always"
       xlink:href="#linearGradient1"
       id="linearGradient2"
       x1="232.4884"
       y1="23.847498"
       x2="23.977745"
       y2="232.35815"
       gradientUnits="userSpaceOnUse" />
  </defs>
  <defs
     id="defs1" />
  <sodipodi:namedview
     id="namedview3"
     pagecolor="#ffffff"
     bordercolor="#000000"
     borderopacity="0.25"
     inkscape:showpageshadow="2"
     inkscape:pageopacity="0.0"
     inkscape:pagecheckerboard="0"
     inkscape:deskcolor="#d1d1d1" />
  <path
     id="line1"
     style="baseline-shift:baseline;display:inline;overflow:visible;vector-effect:none;fill:url(#linearGradient2);stroke-linecap:round;stroke-linejoin:round;enable-background:accumulate;stop-color:#000000;stop-opacity:1;opacity:1;fill-opacity:1"
     d="M 128 16 A 8.0008 8.0008 0 0 0 121.97852 18.732422 L 68.369141 80 L 24 80 A 8.0008 8.0008 0 0 0 16.070312 89.056641 L 31.140625 202.11719 A 8.0008 8.0008 0 0 0 31.140625 202.11914 C 32.194819 210.00512 39.043819 216.00053 47 216 L 209 216 C 216.95618 216.00053 223.80518 210.00517 224.85938 202.11914 A 8.0008 8.0008 0 0 0 224.85938 202.11719 L 239.92969 89.056641 A 8.0008 8.0008 0 0 0 232 80 L 187.63086 80 L 134.02148 18.732422 A 8.0008 8.0008 0 0 0 128 16 z M 128 36.148438 L 166.36914 80 L 89.630859 80 L 128 36.148438 z M 33.136719 96 L 71.910156 96 L 72.089844 96 L 183.91016 96 L 184.08984 96 L 222.86328 96 L 209 200 L 47 200 L 33.136719 96 z M 128 112 A 8 8 0 0 0 120 120 L 120 176 A 8 8 0 0 0 128 184 A 8 8 0 0 0 136 176 L 136 120 A 8 8 0 0 0 128 112 z M 75.449219 112.00391 A 8 8 0 0 0 74.404297 112.03906 A 8 8 0 0 0 67.240234 120.79688 L 72.839844 176.79688 A 8 8 0 0 0 81.595703 183.96094 A 8 8 0 0 0 88.759766 175.20312 L 83.160156 119.20312 A 8 8 0 0 0 75.449219 112.00391 z M 180.55078 112.00391 A 8 8 0 0 0 172.83984 119.20312 L 167.24023 175.20312 A 8 8 0 0 0 174.4043 183.96094 A 8 8 0 0 0 183.16016 176.79688 L 188.75977 120.79688 A 8 8 0 0 0 181.5957 112.03906 A 8 8 0 0 0 180.55078 112.00391 z " />
</svg>
