<?xml version="1.0" encoding="UTF-8" standalone="no"?>
<svg
   viewBox="0 0 256 256"
   version="1.1"
   id="svg3"
   sodipodi:docname="binoculars purple_coral.svg"
   xmlns:inkscape="http://www.inkscape.org/namespaces/inkscape"
   xmlns:sodipodi="http://sodipodi.sourceforge.net/DTD/sodipodi-0.dtd"
   xmlns:xlink="http://www.w3.org/1999/xlink"
   xmlns="http://www.w3.org/2000/svg"
   xmlns:svg="http://www.w3.org/2000/svg">
  <defs
     id="defs3">
    <linearGradient
       id="linearGradient1"
       inkscape:collect="always">
      <stop
         style="stop-color:#ff7c66;stop-opacity:1;"
         offset="0"
         id="stop1" />
      <stop
         style="stop-color:#a03291;stop-opacity:1;"
         offset="0.76340693"
         id="stop2" />
    </linearGradient>
    <linearGradient
       inkscape:collect="always"
       xlink:href="#linearGradient1"
       id="linearGradient2"
       x1="232.4884"
       y1="23.847498"
       x2="23.977745"
       y2="232.35815"
       gradientUnits="userSpaceOnUse" />
  </defs>
  <defs
     id="defs1" />
  <sodipodi:namedview
     id="namedview3"
     pagecolor="#ffffff"
     bordercolor="#000000"
     borderopacity="0.25"
     inkscape:showpageshadow="2"
     inkscape:pageopacity="0.0"
     inkscape:pagecheckerboard="0"
     inkscape:deskcolor="#d1d1d1" />
  <path
     id="line1"
     style="baseline-shift:baseline;display:inline;overflow:visible;vector-effect:none;fill:url(#linearGradient2);stroke-linecap:round;stroke-linejoin:round;enable-background:accumulate;stop-color:#000000;stop-opacity:1;opacity:1;fill-opacity:1"
     d="M 87.029297 40.021484 C 78.823367 40.021484 70.619104 43.129355 64.404297 49.34375 A 8.0008 8.0008 0 0 0 62.736328 51.78125 L 19.085938 151.10156 A 8 8 0 0 0 18.748047 152.01758 C 16.968806 157.02206 16 162.40227 16 168 C 16 194.41491 37.585089 216 64 216 C 90.414911 216 112 194.41491 112 168 L 112 96 L 144 96 L 144 168 C 144 194.41491 165.58509 216 192 216 C 218.41491 216 240 194.41491 240 168 C 240 162.40225 239.03121 157.02207 237.25195 152.01758 A 8 8 0 0 0 236.91406 151.10156 L 236.27539 149.64844 C 235.83835 148.60157 235.41588 147.54733 234.9082 146.53906 L 193.26367 51.78125 A 8.0008 8.0008 0 0 0 191.5957 49.34375 C 185.3809 43.129355 177.17663 40.021484 168.9707 40.021484 C 160.76477 40.021484 152.55856 43.129355 146.34375 49.34375 A 8.0008 8.0008 0 0 0 144 55 L 144 80 L 112 80 L 112 55 A 8.0008 8.0008 0 0 0 109.65625 49.34375 C 103.44144 43.129355 95.235227 40.021484 87.029297 40.021484 z M 87.466797 55.966797 C 90.44577 56.03757 93.408485 56.958179 96 58.736328 L 96 132.28906 C 87.494109 124.65585 76.267945 120 64 120 C 58.84225 120 53.867857 120.82257 49.203125 122.34375 L 76.650391 59.890625 C 79.779715 57.189535 83.636688 55.875803 87.466797 55.966797 z M 168.5332 55.966797 C 172.36331 55.875803 176.22028 57.189535 179.34961 59.890625 L 206.79688 122.34375 C 202.13214 120.82257 197.15775 120 192 120 C 179.73206 120 168.50589 124.65585 160 132.28906 L 160 58.736328 C 162.59151 56.958179 165.55423 56.03757 168.5332 55.966797 z M 64 136 C 81.767869 136 96 150.23213 96 168 C 96 185.76787 81.767869 200 64 200 C 46.232131 200 32 185.76787 32 168 C 32 164.35865 32.597729 160.86556 33.701172 157.61328 A 8 8 0 0 0 33.734375 157.53906 L 35.925781 152.55469 C 41.347364 142.65975 51.84622 136 64 136 z M 192 136 C 204.15376 136 214.65263 142.65978 220.07422 152.55469 C 220.07701 152.55978 220.07924 152.56522 220.08203 152.57031 L 222.26562 157.53906 A 8 8 0 0 0 222.29883 157.61328 C 223.40226 160.86554 224 164.35867 224 168 C 224 185.76787 209.76787 200 192 200 C 174.23213 200 160 185.76787 160 168 C 160 150.23213 174.23213 136 192 136 z " />
</svg>
