<?xml version="1.0" encoding="UTF-8" standalone="no"?>
<svg
   viewBox="0 0 256 256"
   version="1.1"
   id="svg3"
   sodipodi:docname="bluetooth purple_coral.svg"
   xmlns:inkscape="http://www.inkscape.org/namespaces/inkscape"
   xmlns:sodipodi="http://sodipodi.sourceforge.net/DTD/sodipodi-0.dtd"
   xmlns:xlink="http://www.w3.org/1999/xlink"
   xmlns="http://www.w3.org/2000/svg"
   xmlns:svg="http://www.w3.org/2000/svg">
  <defs
     id="defs3">
    <linearGradient
       id="linearGradient1"
       inkscape:collect="always">
      <stop
         style="stop-color:#ff7c66;stop-opacity:1;"
         offset="0"
         id="stop1" />
      <stop
         style="stop-color:#a03291;stop-opacity:1;"
         offset="0.76340693"
         id="stop2" />
    </linearGradient>
    <linearGradient
       inkscape:collect="always"
       xlink:href="#linearGradient1"
       id="linearGradient2"
       x1="232.4884"
       y1="23.847498"
       x2="23.977745"
       y2="232.35815"
       gradientUnits="userSpaceOnUse" />
  </defs>
  <defs
     id="defs1" />
  <sodipodi:namedview
     id="namedview3"
     pagecolor="#ffffff"
     bordercolor="#000000"
     borderopacity="0.25"
     inkscape:showpageshadow="2"
     inkscape:pageopacity="0.0"
     inkscape:pagecheckerboard="0"
     inkscape:deskcolor="#d1d1d1" />
  <path
     id="polygon1"
     style="baseline-shift:baseline;display:inline;overflow:visible;vector-effect:none;fill:url(#linearGradient2);stroke-linecap:round;stroke-linejoin:round;enable-background:accumulate;stop-color:#000000;stop-opacity:1;opacity:1;fill-opacity:1"
     d="M 128.22656 24.003906 A 8.0008 8.0008 0 0 0 127.24414 24.037109 A 8.0008 8.0008 0 0 0 120 32 L 120 112 L 68.800781 73.599609 A 8 8 0 0 0 62.869141 72.080078 A 8 8 0 0 0 57.599609 75.199219 A 8 8 0 0 0 59.199219 86.400391 L 114.66602 128 L 59.199219 169.59961 A 8 8 0 0 0 57.599609 180.80078 A 8 8 0 0 0 68.800781 182.40039 L 120 144 L 120 224 A 8.0008 8.0008 0 0 0 132.80078 230.40039 L 196.80078 182.40039 A 8.0008 8.0008 0 0 0 196.80078 169.59961 L 141.33398 128 L 196.80078 86.400391 A 8.0008 8.0008 0 0 0 196.80078 73.599609 L 132.80078 25.599609 A 8.0008 8.0008 0 0 0 128.22656 24.003906 z M 136 48 L 178.66602 80 L 136 112 L 136 48 z " />
</svg>
