<?xml version="1.0" encoding="UTF-8" standalone="no"?>
<svg
   viewBox="0 0 256 256"
   version="1.1"
   id="svg3"
   sodipodi:docname="book user purple_coral.svg"
   xmlns:inkscape="http://www.inkscape.org/namespaces/inkscape"
   xmlns:sodipodi="http://sodipodi.sourceforge.net/DTD/sodipodi-0.dtd"
   xmlns:xlink="http://www.w3.org/1999/xlink"
   xmlns="http://www.w3.org/2000/svg"
   xmlns:svg="http://www.w3.org/2000/svg">
  <defs
     id="defs3">
    <linearGradient
       id="linearGradient1"
       inkscape:collect="always">
      <stop
         style="stop-color:#ff7c66;stop-opacity:1;"
         offset="0"
         id="stop1" />
      <stop
         style="stop-color:#a03291;stop-opacity:1;"
         offset="0.76340693"
         id="stop2" />
    </linearGradient>
    <linearGradient
       inkscape:collect="always"
       xlink:href="#linearGradient1"
       id="linearGradient2"
       x1="232.4884"
       y1="23.847498"
       x2="23.977745"
       y2="232.35815"
       gradientUnits="userSpaceOnUse" />
  </defs>
  <defs
     id="defs1" />
  <sodipodi:namedview
     id="namedview3"
     pagecolor="#ffffff"
     bordercolor="#000000"
     borderopacity="0.25"
     inkscape:showpageshadow="2"
     inkscape:pageopacity="0.0"
     inkscape:pagecheckerboard="0"
     inkscape:deskcolor="#d1d1d1" />
  <path
     id="path1"
     style="baseline-shift:baseline;display:inline;overflow:visible;vector-effect:none;fill:url(#linearGradient2);stroke-linecap:round;stroke-linejoin:round;enable-background:accumulate;stop-color:#000000;stop-opacity:1;opacity:1;fill-opacity:1"
     d="M 128 24.128906 C 113.568 24.128906 99.135609 30.484552 89.599609 43.199219 A 8 8 0 0 0 91.199219 54.400391 A 8 8 0 0 0 102.40039 52.800781 C 115.32839 35.563448 140.67161 35.563448 153.59961 52.800781 A 8 8 0 0 0 164.80078 54.400391 A 8 8 0 0 0 166.40039 43.199219 C 156.86439 30.484552 142.432 24.128906 128 24.128906 z M 24 72 A 8.0008 8.0008 0 0 0 16 80 L 16 200 A 8.0008 8.0008 0 0 0 24 208 L 96 208 C 109.34959 208 120 218.65041 120 232 A 8 8 0 0 0 128 240 A 8 8 0 0 0 136 232 C 136 218.65041 146.65041 208 160 208 L 232 208 A 8.0008 8.0008 0 0 0 240 200 L 240 80 A 8.0008 8.0008 0 0 0 232 72 L 160 72 C 146.95471 72 135.31392 78.332344 128 88.074219 C 120.68608 78.332344 109.04529 72 96 72 L 24 72 z M 32 88 L 96 88 C 109.34959 88 120 98.650409 120 112 L 120 200.24219 C 113.2862 195.14618 105.0273 192 96 192 L 32 192 L 32 88 z M 160 88 L 224 88 L 224 192 L 160 192 C 151.0156 192 142.69739 195.0044 136 200.05664 L 136 112 C 136 98.650409 146.65041 88 160 88 z " />
</svg>
