<?xml version="1.0" encoding="UTF-8" standalone="no"?>
<svg
   viewBox="0 0 256 256"
   version="1.1"
   id="svg2"
   sodipodi:docname="boxing glove purple_coral.svg"
   xmlns:inkscape="http://www.inkscape.org/namespaces/inkscape"
   xmlns:sodipodi="http://sodipodi.sourceforge.net/DTD/sodipodi-0.dtd"
   xmlns:xlink="http://www.w3.org/1999/xlink"
   xmlns="http://www.w3.org/2000/svg"
   xmlns:svg="http://www.w3.org/2000/svg">
  <defs
     id="defs3">
    <linearGradient
       id="linearGradient1"
       inkscape:collect="always">
      <stop
         style="stop-color:#ff7c66;stop-opacity:1;"
         offset="0"
         id="stop1" />
      <stop
         style="stop-color:#a03291;stop-opacity:1;"
         offset="0.76340693"
         id="stop2" />
    </linearGradient>
    <linearGradient
       inkscape:collect="always"
       xlink:href="#linearGradient1"
       id="linearGradient2"
       x1="232.4884"
       y1="23.847498"
       x2="23.977745"
       y2="232.35815"
       gradientUnits="userSpaceOnUse" />
  </defs>
  <defs
     id="defs2" />
  <sodipodi:namedview
     id="namedview2"
     pagecolor="#ffffff"
     bordercolor="#000000"
     borderopacity="0.25"
     inkscape:showpageshadow="2"
     inkscape:pageopacity="0.0"
     inkscape:pagecheckerboard="0"
     inkscape:deskcolor="#d1d1d1" />
  <path
     id="path1"
     style="baseline-shift:baseline;display:inline;overflow:visible;vector-effect:none;fill:url(#linearGradient2);stroke-linecap:round;stroke-linejoin:round;enable-background:accumulate;stop-color:#000000;stop-opacity:1;opacity:1;fill-opacity:1"
     d="M 120 16 C 89.166811 16 64 41.166811 64 72 L 56 72 C 38.421645 72 24 86.421645 24 104 L 24 133.18945 C 23.9985 136.82003 25.233657 140.34712 27.5 143.18359 A 8.0008 8.0008 0 0 0 28.125 143.87891 L 64 179.3418 L 64 216 C 64 224.7418 71.258201 232 80 232 L 192 232 C 200.7418 232 208 224.7418 208 216 L 208 177.12109 L 223.375 123.30664 L 223.375 123.30273 C 223.79246 121.86039 224.003 120.36483 224 118.86328 L 224 72 C 224 41.166811 198.83319 16 168 16 L 120 16 z M 120 32 L 168 32 C 190.18615 32 208 49.813853 208 72 L 208 118.875 A 8.0008 8.0008 0 0 0 207.99805 118.88281 L 192.30859 173.80273 A 8.0008 8.0008 0 0 0 192 176 L 192 216 L 80 216 L 80 176 A 8.0008 8.0008 0 0 0 77.625 170.31055 L 40 133.11719 L 40 104 C 40 95.068687 47.068687 88 56 88 L 64 88 L 64 104 A 8 8 0 0 0 72 112 A 8 8 0 0 0 80 104 L 80 80 L 80 72 C 80 49.813853 97.813853 32 120 32 z M 103.52148 152.01367 A 8 8 0 0 0 101.4707 152.41016 A 8 8 0 0 0 96.84375 156.42188 A 8 8 0 0 0 100.42188 167.15625 L 118.10938 176 L 100.42188 184.84375 A 8 8 0 0 0 96.84375 195.57812 A 8 8 0 0 0 107.57812 199.15625 L 136 184.94531 L 164.42188 199.15625 A 8 8 0 0 0 175.15625 195.57812 A 8 8 0 0 0 171.57812 184.84375 L 153.89062 176 L 171.57812 167.15625 A 8 8 0 0 0 175.15625 156.42188 A 8 8 0 0 0 170.5293 152.41016 A 8 8 0 0 0 164.42188 152.84375 L 136 167.05469 L 107.57812 152.84375 A 8 8 0 0 0 103.52148 152.01367 z " />
</svg>
