<?xml version="1.0" encoding="UTF-8" standalone="no"?>
<svg
   viewBox="0 0 256 256"
   version="1.1"
   id="svg4"
   sodipodi:docname="broadcast purple_coral.svg"
   xmlns:inkscape="http://www.inkscape.org/namespaces/inkscape"
   xmlns:sodipodi="http://sodipodi.sourceforge.net/DTD/sodipodi-0.dtd"
   xmlns:xlink="http://www.w3.org/1999/xlink"
   xmlns="http://www.w3.org/2000/svg"
   xmlns:svg="http://www.w3.org/2000/svg">
  <defs
     id="defs3">
    <linearGradient
       id="linearGradient1"
       inkscape:collect="always">
      <stop
         style="stop-color:#ff7c66;stop-opacity:1;"
         offset="0"
         id="stop1" />
      <stop
         style="stop-color:#a03291;stop-opacity:1;"
         offset="0.76340693"
         id="stop2" />
    </linearGradient>
    <linearGradient
       inkscape:collect="always"
       xlink:href="#linearGradient1"
       id="linearGradient2"
       x1="232.4884"
       y1="23.847498"
       x2="23.977745"
       y2="232.35815"
       gradientUnits="userSpaceOnUse" />
  </defs>
  <defs
     id="defs4" />
  <sodipodi:namedview
     id="namedview4"
     pagecolor="#ffffff"
     bordercolor="#000000"
     borderopacity="0.25"
     inkscape:showpageshadow="2"
     inkscape:pageopacity="0.0"
     inkscape:pagecheckerboard="0"
     inkscape:deskcolor="#d1d1d1" />
  <path
     id="circle1"
     style="baseline-shift:baseline;display:inline;overflow:visible;vector-effect:none;fill:url(#linearGradient2);stroke-linecap:round;stroke-linejoin:round;enable-background:accumulate;stop-color:#000000;stop-opacity:1;opacity:1;fill-opacity:1"
     d="M 47.925781 41.621094 A 8 8 0 0 0 42.291016 44.015625 C -3.4274321 90.583065 -3.4274321 165.41694 42.291016 211.98438 A 8 8 0 0 0 53.605469 212.08789 A 8 8 0 0 0 53.708984 200.77539 C 13.97548 160.30403 13.97548 95.695965 53.708984 55.224609 A 8 8 0 0 0 53.605469 43.912109 A 8 8 0 0 0 47.925781 41.621094 z M 208.07422 41.621094 A 8 8 0 0 0 202.39453 43.912109 A 8 8 0 0 0 202.29102 55.224609 C 242.02452 95.695965 242.02452 160.30403 202.29102 200.77539 A 8 8 0 0 0 202.39453 212.08789 A 8 8 0 0 0 213.70898 211.98438 C 259.42743 165.41694 259.42743 90.583065 213.70898 44.015625 A 8 8 0 0 0 208.07422 41.621094 z M 73.890625 72.011719 A 8 8 0 0 0 68.371094 74.662109 C 41.220681 104.97165 41.220681 151.02835 68.371094 181.33789 A 8 8 0 0 0 79.667969 181.95898 A 8 8 0 0 0 80.289062 170.66211 C 58.493093 146.33004 58.493093 109.66996 80.289062 85.337891 A 8 8 0 0 0 79.667969 74.041016 A 8 8 0 0 0 73.890625 72.011719 z M 182.10938 72.011719 A 8 8 0 0 0 176.33203 74.041016 A 8 8 0 0 0 175.71094 85.337891 C 197.50691 109.66996 197.50691 146.33004 175.71094 170.66211 A 8 8 0 0 0 176.33203 181.95898 A 8 8 0 0 0 187.62891 181.33789 C 214.77932 151.02835 214.77932 104.97165 187.62891 74.662109 A 8 8 0 0 0 182.10938 72.011719 z M 128 88 C 106.00337 88 88 106.00337 88 128 C 88 149.99663 106.00337 168 128 168 C 149.99663 168 168 149.99663 168 128 C 168 106.00337 149.99663 88 128 88 z M 128 104 C 141.34959 104 152 114.65041 152 128 C 152 141.34959 141.34959 152 128 152 C 114.65041 152 104 141.34959 104 128 C 104 114.65041 114.65041 104 128 104 z " />
</svg>
