<?xml version="1.0" encoding="UTF-8" standalone="no"?>
<svg
   viewBox="0 0 256 256"
   version="1.1"
   id="svg3"
   sodipodi:docname="calendar star purple_coral.svg"
   xmlns:inkscape="http://www.inkscape.org/namespaces/inkscape"
   xmlns:sodipodi="http://sodipodi.sourceforge.net/DTD/sodipodi-0.dtd"
   xmlns:xlink="http://www.w3.org/1999/xlink"
   xmlns="http://www.w3.org/2000/svg"
   xmlns:svg="http://www.w3.org/2000/svg">
  <defs
     id="defs3">
    <linearGradient
       id="linearGradient1"
       inkscape:collect="always">
      <stop
         style="stop-color:#ff7c66;stop-opacity:1;"
         offset="0"
         id="stop1" />
      <stop
         style="stop-color:#a03291;stop-opacity:1;"
         offset="0.76340693"
         id="stop2" />
    </linearGradient>
    <linearGradient
       inkscape:collect="always"
       xlink:href="#linearGradient1"
       id="linearGradient2"
       x1="232.4884"
       y1="23.847498"
       x2="23.977745"
       y2="232.35815"
       gradientUnits="userSpaceOnUse" />
  </defs>
  <defs
     id="defs1" />
  <sodipodi:namedview
     id="namedview3"
     pagecolor="#ffffff"
     bordercolor="#000000"
     borderopacity="0.25"
     inkscape:showpageshadow="2"
     inkscape:pageopacity="0.0"
     inkscape:pagecheckerboard="0"
     inkscape:deskcolor="#d1d1d1" />
  <path
     id="rect2"
     style="baseline-shift:baseline;display:inline;overflow:visible;vector-effect:none;fill:url(#linearGradient2);stroke-linecap:round;stroke-linejoin:round;enable-background:accumulate;stop-color:#000000;stop-opacity:1;opacity:1;fill-opacity:1"
     d="M 80 16 A 8 8 0 0 0 72 24 L 72 32 L 48 32 C 39.274378 32 32 39.274378 32 48 L 32 208 C 32 216.72562 39.274378 224 48 224 L 208 224 C 216.72562 224 224 216.72562 224 208 L 224 48 C 224 39.274378 216.72562 32 208 32 L 184 32 L 184 24 A 8 8 0 0 0 176 16 A 8 8 0 0 0 168 24 L 168 32 L 88 32 L 88 24 A 8 8 0 0 0 80 16 z M 48 48 L 72 48 L 72 56 A 8 8 0 0 0 80 64 A 8 8 0 0 0 88 56 L 88 48 L 168 48 L 168 56 A 8 8 0 0 0 176 64 A 8 8 0 0 0 184 56 L 184 48 L 208 48 L 208 208 L 48 208 L 48 48 z M 128.28125 80.005859 A 8.0008 8.0008 0 0 0 124.97461 80.595703 A 8.0008 8.0008 0 0 0 120.6543 84.830078 L 109.21875 111.33398 L 79.384766 113.63281 A 8.0008 8.0008 0 0 0 74.90625 127.7793 L 97.423828 146.37305 L 90.564453 174.07617 A 8.0008 8.0008 0 0 0 102.38672 182.89453 L 128 167.82227 L 153.61328 182.89453 A 8.0008 8.0008 0 0 0 165.43555 174.07617 L 158.57617 146.37305 L 181.09375 127.7793 A 8.0008 8.0008 0 0 0 176.61523 113.63281 L 146.78125 111.33398 L 135.3457 84.830078 A 8.0008 8.0008 0 0 0 128.28125 80.005859 z M 128 108.19531 L 134.00391 122.10938 A 8.0008 8.0008 0 0 0 140.73633 126.91602 L 155.62109 128.0625 L 144.50586 137.24219 A 8.0008 8.0008 0 0 0 141.83398 145.33203 L 145.33203 159.45703 L 132.05664 151.64453 A 8.0008 8.0008 0 0 0 123.94336 151.64453 L 110.66797 159.45703 L 114.16602 145.33203 A 8.0008 8.0008 0 0 0 111.49414 137.24219 L 100.37891 128.0625 L 115.26367 126.91602 A 8.0008 8.0008 0 0 0 121.99609 122.10938 L 128 108.19531 z " />
</svg>
