<?xml version="1.0" encoding="UTF-8" standalone="no"?>
<svg
   viewBox="0 0 256 256"
   version="1.1"
   id="svg3"
   sodipodi:docname="calendar slash purple_coral.svg"
   xmlns:inkscape="http://www.inkscape.org/namespaces/inkscape"
   xmlns:sodipodi="http://sodipodi.sourceforge.net/DTD/sodipodi-0.dtd"
   xmlns:xlink="http://www.w3.org/1999/xlink"
   xmlns="http://www.w3.org/2000/svg"
   xmlns:svg="http://www.w3.org/2000/svg">
  <defs
     id="defs3">
    <linearGradient
       id="linearGradient1"
       inkscape:collect="always">
      <stop
         style="stop-color:#ff7c66;stop-opacity:1;"
         offset="0"
         id="stop1" />
      <stop
         style="stop-color:#a03291;stop-opacity:1;"
         offset="0.76340693"
         id="stop2" />
    </linearGradient>
    <linearGradient
       inkscape:collect="always"
       xlink:href="#linearGradient1"
       id="linearGradient2"
       x1="232.4884"
       y1="23.847498"
       x2="23.977745"
       y2="232.35815"
       gradientUnits="userSpaceOnUse" />
  </defs>
  <defs
     id="defs1" />
  <sodipodi:namedview
     id="namedview3"
     pagecolor="#ffffff"
     bordercolor="#000000"
     borderopacity="0.25"
     inkscape:showpageshadow="2"
     inkscape:pageopacity="0.0"
     inkscape:pagecheckerboard="0"
     inkscape:deskcolor="#d1d1d1" />
  <path
     id="line1"
     style="baseline-shift:baseline;display:inline;overflow:visible;vector-effect:none;fill:url(#linearGradient2);stroke-linecap:round;stroke-linejoin:round;enable-background:accumulate;stop-color:#000000;stop-opacity:1;opacity:1;fill-opacity:1"
     d="M 176 16 A 8 8 0 0 0 168 24 L 168 32 L 91.25 32 A 8 8 0 0 0 83.25 40 A 8 8 0 0 0 91.25 48 L 168 48 L 168 56 A 8 8 0 0 0 176 64 A 8 8 0 0 0 184 56 L 184 48 L 208 48 L 208 80 L 134.88086 80 A 8 8 0 0 0 126.88086 88 A 8 8 0 0 0 134.88086 96 L 208 96 L 208 177.23047 A 8 8 0 0 0 216 185.23047 A 8 8 0 0 0 224 177.23047 L 224 48 C 224 39.258201 216.7418 32 208 32 L 184 32 L 184 24 A 8 8 0 0 0 176 16 z M 48 32 C 39.258201 32 32 39.258201 32 48 L 32 88 L 32 208 C 32 216.7418 39.258201 224 48 224 L 208 224 A 8.0008 8.0008 0 0 0 213.91992 210.61914 L 97.710938 82.791016 L 97.710938 82.789062 A 8 8 0 0 0 97.400391 82.449219 L 53.919922 34.619141 A 8.0008 8.0008 0 0 0 48 32 z M 48 51.892578 L 73.552734 80 L 48 80 L 48 51.892578 z M 48 96 L 88.097656 96 L 189.91602 208 L 48 208 L 48 96 z " />
</svg>
