<?xml version="1.0" encoding="UTF-8" standalone="no"?>
<svg
   viewBox="0 0 256 256"
   version="1.1"
   id="svg2"
   sodipodi:docname="caret double up purple_coral.svg"
   xmlns:inkscape="http://www.inkscape.org/namespaces/inkscape"
   xmlns:sodipodi="http://sodipodi.sourceforge.net/DTD/sodipodi-0.dtd"
   xmlns:xlink="http://www.w3.org/1999/xlink"
   xmlns="http://www.w3.org/2000/svg"
   xmlns:svg="http://www.w3.org/2000/svg">
  <defs
     id="defs3">
    <linearGradient
       id="linearGradient1"
       inkscape:collect="always">
      <stop
         style="stop-color:#ff7c66;stop-opacity:1;"
         offset="0"
         id="stop1" />
      <stop
         style="stop-color:#a03291;stop-opacity:1;"
         offset="0.76340693"
         id="stop2" />
    </linearGradient>
    <linearGradient
       inkscape:collect="always"
       xlink:href="#linearGradient1"
       id="linearGradient2"
       x1="232.4884"
       y1="23.847498"
       x2="23.977745"
       y2="232.35815"
       gradientUnits="userSpaceOnUse" />
  </defs>
  <defs
     id="defs2" />
  <sodipodi:namedview
     id="namedview2"
     pagecolor="#ffffff"
     bordercolor="#000000"
     borderopacity="0.25"
     inkscape:showpageshadow="2"
     inkscape:pageopacity="0.0"
     inkscape:pagecheckerboard="0"
     inkscape:deskcolor="#d1d1d1" />
  <path
     id="polyline1"
     style="baseline-shift:baseline;display:inline;overflow:visible;vector-effect:none;fill:url(#linearGradient2);stroke-linecap:round;stroke-linejoin:round;enable-background:accumulate;stop-color:#000000;stop-opacity:1;opacity:1;fill-opacity:1"
     d="M 128 32 A 8.0008 8.0008 0 0 0 122.34375 34.34375 L 42.34375 114.34375 A 8 8 0 0 0 42.34375 125.65625 A 8 8 0 0 0 53.65625 125.65625 L 128 51.3125 L 202.34375 125.65625 A 8 8 0 0 0 213.65625 125.65625 A 8 8 0 0 0 213.65625 114.34375 L 133.65625 34.34375 A 8.0008 8.0008 0 0 0 128 32 z M 128 112 A 8.0008 8.0008 0 0 0 122.34375 114.34375 L 42.34375 194.34375 A 8 8 0 0 0 42.34375 205.65625 A 8 8 0 0 0 53.65625 205.65625 L 128 131.3125 L 202.34375 205.65625 A 8 8 0 0 0 213.65625 205.65625 A 8 8 0 0 0 213.65625 194.34375 L 133.65625 114.34375 A 8.0008 8.0008 0 0 0 128 112 z " />
</svg>
