<?xml version="1.0" encoding="UTF-8" standalone="no"?>
<svg
   viewBox="0 0 256 256"
   version="1.1"
   id="svg2"
   sodipodi:docname="chart pie purple_coral.svg"
   xmlns:inkscape="http://www.inkscape.org/namespaces/inkscape"
   xmlns:sodipodi="http://sodipodi.sourceforge.net/DTD/sodipodi-0.dtd"
   xmlns:xlink="http://www.w3.org/1999/xlink"
   xmlns="http://www.w3.org/2000/svg"
   xmlns:svg="http://www.w3.org/2000/svg">
  <defs
     id="defs3">
    <linearGradient
       id="linearGradient1"
       inkscape:collect="always">
      <stop
         style="stop-color:#ff7c66;stop-opacity:1;"
         offset="0"
         id="stop1" />
      <stop
         style="stop-color:#a03291;stop-opacity:1;"
         offset="0.76340693"
         id="stop2" />
    </linearGradient>
    <linearGradient
       inkscape:collect="always"
       xlink:href="#linearGradient1"
       id="linearGradient2"
       x1="232.4884"
       y1="23.847498"
       x2="23.977745"
       y2="232.35815"
       gradientUnits="userSpaceOnUse" />
  </defs>
  <defs
     id="defs2" />
  <sodipodi:namedview
     id="namedview2"
     pagecolor="#ffffff"
     bordercolor="#000000"
     borderopacity="0.25"
     inkscape:showpageshadow="2"
     inkscape:pageopacity="0.0"
     inkscape:pagecheckerboard="0"
     inkscape:deskcolor="#d1d1d1" />
  <path
     id="circle1"
     style="baseline-shift:baseline;display:inline;overflow:visible;vector-effect:none;fill:url(#linearGradient2);stroke-linecap:round;stroke-linejoin:round;enable-background:accumulate;stop-color:#000000;stop-opacity:1;opacity:1;fill-opacity:1"
     d="M 128 24 C 70.657143 24 24 70.657143 24 128 C 24 146.7035 28.963399 164.26952 37.642578 179.45117 A 8 8 0 0 0 37.931641 180 A 8 8 0 0 0 38.279297 180.54883 C 56.364885 211.30894 89.812464 232 128 232 C 185.34286 232 232 185.34286 232 128 C 232 109.29651 227.0366 91.730477 218.35742 76.548828 A 8 8 0 0 0 218.06836 76 A 8 8 0 0 0 217.72266 75.453125 C 199.80743 44.982469 166.79928 24.457382 129.06055 24.072266 A 8 8 0 0 0 128 24 z M 120 40.357422 L 120 123.38086 L 48.060547 164.91406 C 42.886152 153.69526 40 141.19204 40 128 C 40 82.001358 75.070789 44.383554 120 40.357422 z M 136 40.357422 C 162.44095 42.72681 185.46785 56.729407 199.94141 77.228516 L 136 114.14453 L 136 40.357422 z M 207.93945 91.085938 C 213.11385 102.30474 216 114.80796 216 128 C 216 176.69582 176.69582 216 128 216 C 98.232512 216 71.974232 201.31304 56.058594 178.77148 L 131.92578 134.9707 L 131.92969 134.96875 A 8 8 0 0 0 132.07031 134.88672 L 207.93945 91.085938 z " />
</svg>
