<?xml version="1.0" encoding="UTF-8" standalone="no"?>
<svg
   viewBox="0 0 256 256"
   version="1.1"
   id="svg2"
   sodipodi:docname="chats purple_coral.svg"
   xmlns:inkscape="http://www.inkscape.org/namespaces/inkscape"
   xmlns:sodipodi="http://sodipodi.sourceforge.net/DTD/sodipodi-0.dtd"
   xmlns:xlink="http://www.w3.org/1999/xlink"
   xmlns="http://www.w3.org/2000/svg"
   xmlns:svg="http://www.w3.org/2000/svg">
  <defs
     id="defs3">
    <linearGradient
       id="linearGradient1"
       inkscape:collect="always">
      <stop
         style="stop-color:#ff7c66;stop-opacity:1;"
         offset="0"
         id="stop1" />
      <stop
         style="stop-color:#a03291;stop-opacity:1;"
         offset="0.76340693"
         id="stop2" />
    </linearGradient>
    <linearGradient
       inkscape:collect="always"
       xlink:href="#linearGradient1"
       id="linearGradient2"
       x1="232.4884"
       y1="23.847498"
       x2="23.977745"
       y2="232.35815"
       gradientUnits="userSpaceOnUse" />
  </defs>
  <defs
     id="defs2" />
  <sodipodi:namedview
     id="namedview2"
     pagecolor="#ffffff"
     bordercolor="#000000"
     borderopacity="0.25"
     inkscape:showpageshadow="2"
     inkscape:pageopacity="0.0"
     inkscape:pagecheckerboard="0"
     inkscape:deskcolor="#d1d1d1" />
  <path
     id="path1"
     style="baseline-shift:baseline;display:inline;overflow:visible;vector-effect:none;fill:url(#linearGradient2);stroke-linecap:round;stroke-linejoin:round;enable-background:accumulate;stop-color:#000000;stop-opacity:1;opacity:1;fill-opacity:1"
     d="M 40 32 C 31.258201 32 24 39.258201 24 48 L 24 176 A 8.0008 8.0008 0 0 0 37.029297 182.2207 L 72 153.94727 L 72 184 C 72 192.7418 79.258201 200 88 200 L 181.58984 200 L 218.9707 230.2207 A 8.0008 8.0008 0 0 0 232 224 L 232 96 C 232 87.258201 224.7418 80 216 80 L 184 80 L 184 48 C 184 39.258201 176.7418 32 168 32 L 40 32 z M 40 48 L 168 48 L 168 88 L 168 136 L 80 136 L 71.580078 136 A 8.0008 8.0008 0 0 0 66.550781 137.7793 L 40 159.24609 L 40 48 z M 184 96 L 216 96 L 216 207.24609 L 189.44922 185.7793 A 8.0008 8.0008 0 0 0 184.41992 184 L 88 184 L 88 152 L 168 152 C 176.7418 152 184 144.7418 184 136 L 184 96 z " />
</svg>
