<?xml version="1.0" encoding="UTF-8" standalone="no"?>
<svg
   viewBox="0 0 256 256"
   version="1.1"
   id="svg2"
   sodipodi:docname="chat circle slash purple_coral.svg"
   xmlns:inkscape="http://www.inkscape.org/namespaces/inkscape"
   xmlns:sodipodi="http://sodipodi.sourceforge.net/DTD/sodipodi-0.dtd"
   xmlns:xlink="http://www.w3.org/1999/xlink"
   xmlns="http://www.w3.org/2000/svg"
   xmlns:svg="http://www.w3.org/2000/svg">
  <defs
     id="defs3">
    <linearGradient
       id="linearGradient1"
       inkscape:collect="always">
      <stop
         style="stop-color:#ff7c66;stop-opacity:1;"
         offset="0"
         id="stop1" />
      <stop
         style="stop-color:#a03291;stop-opacity:1;"
         offset="0.76340693"
         id="stop2" />
    </linearGradient>
    <linearGradient
       inkscape:collect="always"
       xlink:href="#linearGradient1"
       id="linearGradient2"
       x1="232.4884"
       y1="23.847498"
       x2="23.977745"
       y2="232.35815"
       gradientUnits="userSpaceOnUse" />
  </defs>
  <defs
     id="defs2" />
  <sodipodi:namedview
     id="namedview2"
     pagecolor="#ffffff"
     bordercolor="#000000"
     borderopacity="0.25"
     inkscape:showpageshadow="2"
     inkscape:pageopacity="0.0"
     inkscape:pagecheckerboard="0"
     inkscape:deskcolor="#d1d1d1" />
  <path
     id="line1"
     style="baseline-shift:baseline;display:inline;overflow:visible;vector-effect:none;fill:url(#linearGradient2);stroke-linecap:round;stroke-linejoin:round;enable-background:accumulate;stop-color:#000000;stop-opacity:1;opacity:1;fill-opacity:1"
     d="M 126.91797 23.939453 C 113.69223 24.077223 100.36782 26.739475 87.673828 32.087891 A 8 8 0 0 0 83.408203 42.566406 A 8 8 0 0 0 93.886719 46.832031 C 128.30687 32.329635 168.05424 41.10015 193.17578 68.740234 C 218.29732 96.380319 223.24238 136.78375 205.52734 169.66602 A 8 8 0 0 0 208.77539 180.50391 A 8 8 0 0 0 219.61328 177.25391 C 240.5196 138.44807 234.66268 90.597822 205.01562 57.978516 C 184.63329 35.552743 156.01459 23.636358 126.91797 23.939453 z M 48.380859 32.009766 A 8 8 0 0 0 42.619141 34.080078 A 8 8 0 0 0 42.080078 45.380859 L 52.34375 56.669922 C 21.898556 88.926837 15.273434 137.33169 36.228516 176.77734 L 24.832031 210.92773 A 8.0008 8.0008 0 0 0 24.830078 210.92969 C 20.817708 222.96116 33.038842 235.18229 45.070312 231.16992 L 79.234375 219.77539 C 115.48381 239.02652 159.63084 235.12946 191.81836 210.0918 L 202.08008 221.38086 A 8 8 0 0 0 213.38086 221.91992 A 8 8 0 0 0 213.91992 210.61914 L 198.9082 194.10742 A 8 8 0 0 0 198.89648 194.0918 A 8 8 0 0 0 198.49609 193.61523 A 8 8 0 0 0 198.05273 193.16406 A 8 8 0 0 0 198.04883 193.16016 L 53.919922 34.619141 A 8 8 0 0 0 48.380859 32.009766 z M 63.140625 68.548828 L 181.01758 198.21289 C 153.00842 219.40128 114.79329 222.02075 83.933594 204.18359 A 8.0008 8.0008 0 0 0 77.398438 203.52148 L 40.009766 215.99023 L 52.478516 178.63281 A 8.0008 8.0008 0 0 0 51.814453 172.0957 C 32.398713 138.52459 37.319446 96.647258 63.140625 68.548828 z " />
</svg>
