<?xml version="1.0" encoding="UTF-8" standalone="no"?>
<svg
   viewBox="0 0 256 256"
   version="1.1"
   id="svg3"
   sodipodi:docname="circuitry purple_coral.svg"
   xmlns:inkscape="http://www.inkscape.org/namespaces/inkscape"
   xmlns:sodipodi="http://sodipodi.sourceforge.net/DTD/sodipodi-0.dtd"
   xmlns:xlink="http://www.w3.org/1999/xlink"
   xmlns="http://www.w3.org/2000/svg"
   xmlns:svg="http://www.w3.org/2000/svg">
  <defs
     id="defs3">
    <linearGradient
       id="linearGradient1"
       inkscape:collect="always">
      <stop
         style="stop-color:#ff7c66;stop-opacity:1;"
         offset="0"
         id="stop1" />
      <stop
         style="stop-color:#a03291;stop-opacity:1;"
         offset="0.76340693"
         id="stop2" />
    </linearGradient>
    <linearGradient
       inkscape:collect="always"
       xlink:href="#linearGradient1"
       id="linearGradient2"
       x1="232.4884"
       y1="23.847498"
       x2="23.977745"
       y2="232.35815"
       gradientUnits="userSpaceOnUse" />
  </defs>
  <defs
     id="defs1" />
  <sodipodi:namedview
     id="namedview3"
     pagecolor="#ffffff"
     bordercolor="#000000"
     borderopacity="0.25"
     inkscape:showpageshadow="2"
     inkscape:pageopacity="0.0"
     inkscape:pagecheckerboard="0"
     inkscape:deskcolor="#d1d1d1" />
  <path
     id="circle1"
     style="baseline-shift:baseline;display:inline;overflow:visible;vector-effect:none;fill:url(#linearGradient2);stroke-linecap:round;stroke-linejoin:round;enable-background:accumulate;stop-color:#000000;stop-opacity:1;opacity:1;fill-opacity:1"
     d="M 48 32 C 39.274378 32 32 39.274378 32 48 L 32 208 C 32 216.72562 39.274378 224 48 224 L 208 224 C 216.72562 224 224 216.72562 224 208 L 224 48 C 224 39.274378 216.72562 32 208 32 L 136 32 L 48 32 z M 48 48 L 80 48 L 80 96 L 80 145.38867 C 70.719302 148.71553 64 157.63886 64 168 C 64 181.16008 74.839923 192 88 192 C 101.16008 192 112 181.16008 112 168 C 112 157.63886 105.2807 148.71553 96 145.38867 L 96 115.3125 L 144 163.31445 L 144 208 L 48 208 L 48 48 z M 96 48 L 128 48 L 128 72 A 8.0008 8.0008 0 0 0 130.34375 77.65625 L 146.36328 93.677734 C 144.85026 96.812026 144 100.31472 144 104 C 144 117.16008 154.83992 128 168 128 C 181.16008 128 192 117.16008 192 104 C 192 90.839923 181.16008 80 168 80 C 164.31484 80 160.81195 80.850347 157.67773 82.363281 L 144 68.685547 L 144 48 L 208 48 L 208 208 L 160 208 L 160 160 A 8.0008 8.0008 0 0 0 157.65625 154.34375 L 96 92.685547 L 96 48 z M 168 96 C 172.51304 96 176 99.486965 176 104 C 176 108.51304 172.51304 112 168 112 C 163.48696 112 160 108.51304 160 104 C 160 101.99094 160.69052 100.18606 161.85547 98.800781 A 8 8 0 0 0 162.34766 98.347656 A 8 8 0 0 0 162.80078 97.855469 C 164.18605 96.690519 165.99094 96 168 96 z M 88 160 C 92.513035 160 96 163.48696 96 168 C 96 172.51304 92.513035 176 88 176 C 83.486965 176 80 172.51304 80 168 C 80 163.48696 83.486965 160 88 160 z " />
</svg>
