<?xml version="1.0" encoding="UTF-8" standalone="no"?>
<svg
   viewBox="0 0 256 256"
   version="1.1"
   id="svg2"
   sodipodi:docname="clock clockwise purple_coral.svg"
   xmlns:inkscape="http://www.inkscape.org/namespaces/inkscape"
   xmlns:sodipodi="http://sodipodi.sourceforge.net/DTD/sodipodi-0.dtd"
   xmlns:xlink="http://www.w3.org/1999/xlink"
   xmlns="http://www.w3.org/2000/svg"
   xmlns:svg="http://www.w3.org/2000/svg">
  <defs
     id="defs3">
    <linearGradient
       id="linearGradient1"
       inkscape:collect="always">
      <stop
         style="stop-color:#ff7c66;stop-opacity:1;"
         offset="0"
         id="stop1" />
      <stop
         style="stop-color:#a03291;stop-opacity:1;"
         offset="0.76340693"
         id="stop2" />
    </linearGradient>
    <linearGradient
       inkscape:collect="always"
       xlink:href="#linearGradient1"
       id="linearGradient2"
       x1="232.4884"
       y1="23.847498"
       x2="23.977745"
       y2="232.35815"
       gradientUnits="userSpaceOnUse" />
  </defs>
  <defs
     id="defs2" />
  <sodipodi:namedview
     id="namedview2"
     pagecolor="#ffffff"
     bordercolor="#000000"
     borderopacity="0.25"
     inkscape:showpageshadow="2"
     inkscape:pageopacity="0.0"
     inkscape:pagecheckerboard="0"
     inkscape:deskcolor="#d1d1d1" />
  <path
     id="polyline1"
     style="baseline-shift:baseline;display:inline;overflow:visible;vector-effect:none;fill:url(#linearGradient2);stroke-linecap:round;stroke-linejoin:round;enable-background:accumulate;stop-color:#000000;stop-opacity:1;opacity:1;fill-opacity:1"
     d="M 126.36523 32.013672 C 114.75267 32.207241 103.07561 34.51121 91.912109 39.041016 C 56.188977 53.536372 32.578377 88.057318 32.019531 126.60547 C 31.460685 165.15362 54.059737 200.34431 89.347656 215.86914 C 124.63563 231.39399 165.85061 224.27718 193.89062 197.81836 A 8 8 0 0 0 194.21875 186.50977 A 8 8 0 0 0 182.91016 186.18164 C 159.5138 208.25867 125.23467 214.17631 95.791016 201.22266 C 66.347431 188.26903 47.551272 159.00086 48.017578 126.83594 C 48.483884 94.671011 68.121016 65.95989 97.927734 53.865234 C 127.7332 41.771088 161.82182 48.682219 184.56836 71.425781 L 184.57031 71.427734 L 184.57227 71.427734 C 192.48702 79.445345 199.44421 87.131369 206.9707 96 L 184 96 A 8 8 0 0 0 176 104 A 8 8 0 0 0 184 112 L 224 112 A 8.0008 8.0008 0 0 0 224.12305 111.99219 A 8 8 0 0 0 224.61133 111.96094 A 8.0008 8.0008 0 0 0 225.16992 111.90625 A 8 8 0 0 0 225.64062 111.8125 A 8.0008 8.0008 0 0 0 226.1875 111.6875 A 8 8 0 0 0 226.64844 111.53125 A 8.0008 8.0008 0 0 0 227.17383 111.33398 A 8 8 0 0 0 227.59375 111.12695 A 8.0008 8.0008 0 0 0 228.11133 110.85352 A 8 8 0 0 0 228.50977 110.58594 A 8.0008 8.0008 0 0 0 228.95508 110.27148 A 8 8 0 0 0 229.05273 110.20117 A 8 8 0 0 0 229.34766 109.92578 A 8.0008 8.0008 0 0 0 229.73633 109.56445 A 8 8 0 0 0 230.07812 109.17578 A 8.0008 8.0008 0 0 0 230.4082 108.77734 A 8 8 0 0 0 230.69922 108.33984 A 8.0008 8.0008 0 0 0 230.98242 107.88672 A 8 8 0 0 0 231.20117 107.44336 A 8.0008 8.0008 0 0 0 231.42969 106.94727 A 8 8 0 0 0 231.59375 106.46289 A 8.0008 8.0008 0 0 0 231.75 105.94922 A 8 8 0 0 0 231.84375 105.48438 A 8.0008 8.0008 0 0 0 231.93945 104.91211 A 8 8 0 0 0 231.9707 104.44922 A 8.0008 8.0008 0 0 0 232 104 L 232 64 A 8 8 0 0 0 224 56 A 8 8 0 0 0 216 64 L 216 81.947266 C 209.40807 74.310194 203.02563 67.342721 195.92188 60.148438 A 8.0008 8.0008 0 0 0 195.88672 60.113281 C 177.14459 41.371615 151.91288 31.58782 126.36523 32.013672 z M 128 72 A 8 8 0 0 0 120 80 L 120 128 A 8.0008 8.0008 0 0 0 123.88477 134.85938 L 163.88477 158.85938 A 8 8 0 0 0 174.85938 156.11523 A 8 8 0 0 0 172.11523 145.14062 L 136 123.4707 L 136 80 A 8 8 0 0 0 128 72 z " />
</svg>
