<?xml version="1.0" encoding="UTF-8" standalone="no"?>
<svg
   viewBox="0 0 256 256"
   version="1.1"
   id="svg2"
   sodipodi:docname="cloud rain purple_coral.svg"
   xmlns:inkscape="http://www.inkscape.org/namespaces/inkscape"
   xmlns:sodipodi="http://sodipodi.sourceforge.net/DTD/sodipodi-0.dtd"
   xmlns:xlink="http://www.w3.org/1999/xlink"
   xmlns="http://www.w3.org/2000/svg"
   xmlns:svg="http://www.w3.org/2000/svg">
  <defs
     id="defs3">
    <linearGradient
       id="linearGradient1"
       inkscape:collect="always">
      <stop
         style="stop-color:#ff7c66;stop-opacity:1;"
         offset="0"
         id="stop1" />
      <stop
         style="stop-color:#a03291;stop-opacity:1;"
         offset="0.76340693"
         id="stop2" />
    </linearGradient>
    <linearGradient
       inkscape:collect="always"
       xlink:href="#linearGradient1"
       id="linearGradient2"
       x1="232.4884"
       y1="23.847498"
       x2="23.977745"
       y2="232.35815"
       gradientUnits="userSpaceOnUse" />
  </defs>
  <defs
     id="defs2" />
  <sodipodi:namedview
     id="namedview2"
     pagecolor="#ffffff"
     bordercolor="#000000"
     borderopacity="0.25"
     inkscape:showpageshadow="2"
     inkscape:pageopacity="0.0"
     inkscape:pagecheckerboard="0"
     inkscape:deskcolor="#d1d1d1" />
  <path
     id="line1"
     style="baseline-shift:baseline;display:inline;overflow:visible;vector-effect:none;fill:url(#linearGradient2);stroke-linecap:round;stroke-linejoin:round;enable-background:accumulate;stop-color:#000000;stop-opacity:1;opacity:1;fill-opacity:1"
     d="M 159.94141 15.990234 C 157.20613 15.844985 154.45731 15.847718 151.70703 16 C 144.37296 16.406085 137.02979 17.880045 129.9043 20.476562 C 108.8487 28.149181 92.690707 44.583614 84.947266 64.841797 C 57.13892 60.004663 29.516907 78.693105 24.742188 107.49609 C 19.518639 139.0066 44.051597 167.96935 75.992188 168 A 8.0008 8.0008 0 0 0 76 168 L 113.05273 168 L 89.34375 203.5625 A 8 8 0 0 0 91.5625 214.65625 A 8 8 0 0 0 102.65625 212.4375 L 132.28125 168 L 156 168 A 8.0008 8.0008 0 0 0 156.00586 168 C 186.34167 167.9759 213.80819 149.88206 225.80469 122.01953 C 237.80103 94.157047 232.06922 61.771014 211.24023 39.716797 C 197.57122 25.243717 179.08833 17.006979 159.94141 15.990234 z M 159.11133 31.957031 C 174.22365 32.753701 188.79616 39.2559 199.60742 50.703125 C 216.08174 68.146516 220.5974 93.65691 211.10938 115.69336 C 201.62211 137.72805 179.99061 151.97858 156 152 L 76.007812 152 L 76 152 C 53.631054 151.9738 36.868919 132.18234 40.527344 110.11328 C 43.802744 90.354775 61.983948 77.730349 80.955078 80.439453 C 80.593536 82.793721 80.153405 85.127404 80.013672 87.537109 A 8 8 0 0 0 87.537109 95.986328 A 8 8 0 0 0 95.986328 88.462891 C 97.375292 64.510149 112.83858 43.724128 135.38086 35.509766 C 141.01642 33.45618 146.82049 32.290272 152.61133 31.966797 C 154.78289 31.845494 156.95242 31.843221 159.11133 31.957031 z M 152.51562 184.01562 A 8 8 0 0 0 151.46875 184.01758 A 8 8 0 0 0 150.43164 184.15625 A 8 8 0 0 0 145.34375 187.5625 L 113.34375 235.5625 A 8 8 0 0 0 115.5625 246.65625 A 8 8 0 0 0 126.65625 244.4375 L 158.65625 196.4375 A 8 8 0 0 0 156.4375 185.34375 A 8 8 0 0 0 152.51562 184.01562 z " />
</svg>
