<?xml version="1.0" encoding="UTF-8" standalone="no"?>
<svg
   viewBox="0 0 256 256"
   version="1.1"
   id="svg1"
   sodipodi:docname="coat hanger purple_coral.svg"
   xmlns:inkscape="http://www.inkscape.org/namespaces/inkscape"
   xmlns:sodipodi="http://sodipodi.sourceforge.net/DTD/sodipodi-0.dtd"
   xmlns:xlink="http://www.w3.org/1999/xlink"
   xmlns="http://www.w3.org/2000/svg"
   xmlns:svg="http://www.w3.org/2000/svg">
  <defs
     id="defs3">
    <linearGradient
       id="linearGradient1"
       inkscape:collect="always">
      <stop
         style="stop-color:#ff7c66;stop-opacity:1;"
         offset="0"
         id="stop1" />
      <stop
         style="stop-color:#a03291;stop-opacity:1;"
         offset="0.76340693"
         id="stop2" />
    </linearGradient>
    <linearGradient
       inkscape:collect="always"
       xlink:href="#linearGradient1"
       id="linearGradient2"
       x1="232.4884"
       y1="23.847498"
       x2="23.977745"
       y2="232.35815"
       gradientUnits="userSpaceOnUse" />
  </defs>
  <defs
     id="defs1" />
  <sodipodi:namedview
     id="namedview1"
     pagecolor="#ffffff"
     bordercolor="#000000"
     borderopacity="0.25"
     inkscape:showpageshadow="2"
     inkscape:pageopacity="0.0"
     inkscape:pagecheckerboard="0"
     inkscape:deskcolor="#d1d1d1" />
  <path
     id="path1"
     style="baseline-shift:baseline;display:inline;overflow:visible;vector-effect:none;fill:url(#linearGradient2);stroke-linecap:round;stroke-linejoin:round;enable-background:accumulate;stop-color:#000000;stop-opacity:1;opacity:1;fill-opacity:1"
     d="M 128 32 C 106.00338 32 88 50.003358 88 72 A 8 8 0 0 0 96 80 A 8 8 0 0 0 104 72 C 104 58.650394 114.6504 48 128 48 C 140.07226 48 149.85162 56.738024 151.62891 68.277344 L 14.419922 171.20117 C 8.6361714 175.53979 6.870473 183.12583 8.8339844 189.04102 C 10.797629 194.9566 16.749658 199.98195 23.980469 200 A 8.0008 8.0008 0 0 0 24 200 L 232 200 A 8.0008 8.0008 0 0 0 232.00977 200 C 239.24456 199.991 245.20368 194.96769 247.17188 189.05078 C 249.13995 183.13427 247.37675 175.54219 241.58984 171.20117 L 141.33594 96.001953 L 164.80078 78.400391 A 8.0008 8.0008 0 0 0 168 72 C 168 50.003358 149.99662 32 128 32 z M 128.00195 106.00195 L 231.99023 184 L 24.019531 184 L 128.00195 106.00195 z " />
</svg>
