<?xml version="1.0" encoding="UTF-8" standalone="no"?>
<svg
   viewBox="0 0 256 256"
   version="1.1"
   id="svg1"
   sodipodi:docname="currency eth purple_coral.svg"
   xmlns:inkscape="http://www.inkscape.org/namespaces/inkscape"
   xmlns:sodipodi="http://sodipodi.sourceforge.net/DTD/sodipodi-0.dtd"
   xmlns:xlink="http://www.w3.org/1999/xlink"
   xmlns="http://www.w3.org/2000/svg"
   xmlns:svg="http://www.w3.org/2000/svg">
  <defs
     id="defs3">
    <linearGradient
       id="linearGradient1"
       inkscape:collect="always">
      <stop
         style="stop-color:#ff7c66;stop-opacity:1;"
         offset="0"
         id="stop1" />
      <stop
         style="stop-color:#a03291;stop-opacity:1;"
         offset="0.76340693"
         id="stop2" />
    </linearGradient>
    <linearGradient
       inkscape:collect="always"
       xlink:href="#linearGradient1"
       id="linearGradient2"
       x1="232.4884"
       y1="23.847498"
       x2="23.977745"
       y2="232.35815"
       gradientUnits="userSpaceOnUse" />
  </defs>
  <defs
     id="defs1" />
  <sodipodi:namedview
     id="namedview1"
     pagecolor="#ffffff"
     bordercolor="#000000"
     borderopacity="0.25"
     inkscape:showpageshadow="2"
     inkscape:pageopacity="0.0"
     inkscape:pagecheckerboard="0"
     inkscape:deskcolor="#d1d1d1" />
  <path
     id="line1"
     style="baseline-shift:baseline;display:inline;overflow:visible;vector-effect:none;fill:url(#linearGradient2);stroke-linecap:round;stroke-linejoin:round;enable-background:accumulate;stop-color:#000000;stop-opacity:1;opacity:1;fill-opacity:1"
     d="M 128 8 A 8.0008 8.0008 0 0 0 126.96094 8.0683594 A 8.0008 8.0008 0 0 0 126.95508 8.0683594 A 8 8 0 0 0 126.74414 8.1113281 A 8.0008 8.0008 0 0 0 125.93555 8.2714844 A 8 8 0 0 0 125.78125 8.3242188 A 8.0008 8.0008 0 0 0 124.94922 8.6054688 A 8 8 0 0 0 124.74609 8.7050781 A 8.0008 8.0008 0 0 0 124.01367 9.0664062 A 8 8 0 0 0 123.75391 9.2363281 A 8.0008 8.0008 0 0 0 123.1543 9.6367188 A 8 8 0 0 0 122.875 9.8769531 A 8.0008 8.0008 0 0 0 122.36133 10.328125 A 8 8 0 0 0 122.14648 10.568359 A 8.0008 8.0008 0 0 0 121.70898 11.056641 L 121.65234 11.130859 L 33.708984 123.05664 A 8.0008 8.0008 0 0 0 33.445312 123.44141 A 8 8 0 0 0 33.169922 123.84375 A 8.0008 8.0008 0 0 0 32.902344 124.3457 A 8 8 0 0 0 32.716797 124.68945 A 8 8 0 0 0 32.683594 124.7793 A 8.0008 8.0008 0 0 0 32.484375 125.30469 A 8 8 0 0 0 32.322266 125.77539 A 8.0008 8.0008 0 0 0 32.203125 126.28516 A 8 8 0 0 0 32.09375 126.81836 A 8.0008 8.0008 0 0 0 32.046875 127.30664 A 8 8 0 0 0 32.007812 127.87305 A 8.0008 8.0008 0 0 0 32.023438 128.36328 A 8 8 0 0 0 32.060547 128.91992 A 8.0008 8.0008 0 0 0 32.146484 129.43945 A 8 8 0 0 0 32.248047 129.94531 A 8.0008 8.0008 0 0 0 32.410156 130.48047 A 8 8 0 0 0 32.570312 130.94141 A 8.0008 8.0008 0 0 0 32.798828 131.45117 A 8 8 0 0 0 33.027344 131.9043 A 8.0008 8.0008 0 0 0 33.316406 132.37109 A 8 8 0 0 0 33.601562 132.78516 A 8.0008 8.0008 0 0 0 33.708984 132.94336 L 121.65234 244.86914 L 121.70898 244.94336 A 8.0008 8.0008 0 0 0 121.99805 245.26172 A 8 8 0 0 0 122.39453 245.70117 A 8.0008 8.0008 0 0 0 122.77148 246.03125 A 8 8 0 0 0 123.22266 246.4082 A 8.0008 8.0008 0 0 0 123.64648 246.69141 A 8 8 0 0 0 124.11914 246.98633 A 8.0008 8.0008 0 0 0 124.60742 247.22656 A 8 8 0 0 0 125.0957 247.44336 A 8.0008 8.0008 0 0 0 125.60547 247.61719 A 8 8 0 0 0 126.13867 247.76758 A 8.0008 8.0008 0 0 0 126.63672 247.86719 A 8 8 0 0 0 127.19727 247.94727 A 8.0008 8.0008 0 0 0 127.73047 247.98242 A 8 8 0 0 0 128 248 A 8 8 0 0 0 128.26953 247.98242 A 8.0008 8.0008 0 0 0 128.80273 247.94727 A 8 8 0 0 0 129.36328 247.86719 A 8.0008 8.0008 0 0 0 129.86133 247.76758 A 8 8 0 0 0 130.39453 247.61719 A 8.0008 8.0008 0 0 0 130.9043 247.44336 A 8 8 0 0 0 131.39258 247.22656 A 8.0008 8.0008 0 0 0 131.88086 246.98633 A 8 8 0 0 0 132.35352 246.69141 A 8.0008 8.0008 0 0 0 132.77734 246.4082 A 8 8 0 0 0 133.22852 246.03125 A 8.0008 8.0008 0 0 0 133.60547 245.70117 A 8 8 0 0 0 134.00195 245.26172 A 8.0008 8.0008 0 0 0 134.29102 244.94336 L 134.34766 244.86914 L 222.29102 132.94336 A 8.0008 8.0008 0 0 0 222.39844 132.78516 A 8 8 0 0 0 222.68359 132.37109 A 8.0008 8.0008 0 0 0 222.97266 131.9043 A 8 8 0 0 0 223.20117 131.45117 A 8.0008 8.0008 0 0 0 223.42969 130.94141 A 8 8 0 0 0 223.58984 130.48047 A 8.0008 8.0008 0 0 0 223.75195 129.94531 A 8 8 0 0 0 223.85352 129.43945 A 8.0008 8.0008 0 0 0 223.93945 128.91992 A 8 8 0 0 0 223.97656 128.36328 A 8.0008 8.0008 0 0 0 223.99219 127.87305 A 8 8 0 0 0 223.95312 127.30664 A 8.0008 8.0008 0 0 0 223.90625 126.81836 A 8 8 0 0 0 223.79688 126.28516 A 8.0008 8.0008 0 0 0 223.67773 125.77539 A 8 8 0 0 0 223.51562 125.30469 A 8.0008 8.0008 0 0 0 223.31641 124.7793 A 8 8 0 0 0 223.2832 124.68945 A 8 8 0 0 0 223.09766 124.3457 A 8.0008 8.0008 0 0 0 222.83008 123.84375 A 8 8 0 0 0 222.55469 123.44141 A 8.0008 8.0008 0 0 0 222.29102 123.05664 L 134.34766 11.130859 L 134.29102 11.056641 A 8.0008 8.0008 0 0 0 133.85352 10.568359 A 8 8 0 0 0 133.63867 10.328125 A 8.0008 8.0008 0 0 0 133.125 9.8769531 A 8 8 0 0 0 132.8457 9.6367188 A 8.0008 8.0008 0 0 0 132.24609 9.2363281 A 8 8 0 0 0 131.98633 9.0664062 A 8.0008 8.0008 0 0 0 131.25391 8.7050781 A 8.0008 8.0008 0 0 0 131.05078 8.6054688 A 8.0008 8.0008 0 0 0 130.21875 8.3242188 A 8.0008 8.0008 0 0 0 130.06445 8.2714844 A 8.0008 8.0008 0 0 0 129.25586 8.1113281 A 8.0008 8.0008 0 0 0 129.04492 8.0683594 A 8 8 0 0 0 129.03906 8.0683594 A 8.0008 8.0008 0 0 0 128 8 z M 120 39.130859 L 120 155.57617 L 52.583984 124.93164 L 120 39.130859 z M 136 39.130859 L 203.41602 124.93164 L 136 155.57617 L 136 39.130859 z M 66.566406 148.86523 L 120 173.15234 L 120 216.86914 L 66.566406 148.86523 z M 189.43359 148.86523 L 136 216.86914 L 136 173.15234 L 189.43359 148.86523 z " />
</svg>
