<?xml version="1.0" encoding="UTF-8" standalone="no"?>
<svg
   viewBox="0 0 256 256"
   version="1.1"
   id="svg5"
   sodipodi:docname="diamonds four purple_coral.svg"
   xmlns:inkscape="http://www.inkscape.org/namespaces/inkscape"
   xmlns:sodipodi="http://sodipodi.sourceforge.net/DTD/sodipodi-0.dtd"
   xmlns:xlink="http://www.w3.org/1999/xlink"
   xmlns="http://www.w3.org/2000/svg"
   xmlns:svg="http://www.w3.org/2000/svg">
  <defs
     id="defs3">
    <linearGradient
       id="linearGradient1"
       inkscape:collect="always">
      <stop
         style="stop-color:#ff7c66;stop-opacity:1;"
         offset="0"
         id="stop1" />
      <stop
         style="stop-color:#a03291;stop-opacity:1;"
         offset="0.76340693"
         id="stop2" />
    </linearGradient>
    <linearGradient
       inkscape:collect="always"
       xlink:href="#linearGradient1"
       id="linearGradient2"
       x1="232.4884"
       y1="23.847498"
       x2="23.977745"
       y2="232.35815"
       gradientUnits="userSpaceOnUse" />
  </defs>
  <defs
     id="defs5" />
  <sodipodi:namedview
     id="namedview5"
     pagecolor="#ffffff"
     bordercolor="#000000"
     borderopacity="0.25"
     inkscape:showpageshadow="2"
     inkscape:pageopacity="0.0"
     inkscape:pagecheckerboard="0"
     inkscape:deskcolor="#d1d1d1" />
  <path
     id="rect2"
     style="baseline-shift:baseline;display:inline;overflow:visible;vector-effect:none;fill:url(#linearGradient2);stroke-linecap:round;stroke-linejoin:round;enable-background:accumulate;stop-color:#000000;stop-opacity:1;opacity:1;fill-opacity:1"
     d="M 161.94557 30.064634 A 8.0008 8.0008 0 0 0 156.2901 27.720961 L 99.721557 27.720961 A 8.0008 8.0008 0 0 0 91.72103 35.721488 L 91.72103 92.29003 A 8.0008 8.0008 0 0 0 99.720176 100.28918 L 156.28872 100.28918 A 8.0008 8.0008 0 0 0 164.28924 92.288649 L 164.28924 35.720107 A 8.0008 8.0008 0 0 0 161.94557 30.064634 z M 148.28957 43.720633 L 148.28819 84.289504 L 107.7207 84.289504 L 107.7207 43.722014 L 148.28957 43.720633 z M 161.94557 120.5743 A 8.0008 8.0008 0 0 0 156.28872 118.22925 L 99.720176 118.22925 A 8.0008 8.0008 0 0 0 91.719649 126.22977 L 91.719649 182.79832 A 8.0008 8.0008 0 0 0 99.720176 190.79884 L 156.28872 190.79884 A 8.0008 8.0008 0 0 0 164.28924 182.79832 L 164.28924 126.22977 A 8.0008 8.0008 0 0 0 161.94557 120.5743 z M 71.428999 30.071539 A 8.0008 8.0008 0 0 0 65.773526 27.727867 L 9.2049835 27.727867 A 8.0008 8.0008 0 0 0 1.204457 35.728393 L 1.204457 92.296936 A 8.0008 8.0008 0 0 0 9.2036024 100.29608 L 65.772145 100.29608 A 8.0008 8.0008 0 0 0 73.772671 92.295555 L 73.772671 35.727012 A 8.0008 8.0008 0 0 0 71.428999 30.071539 z M 148.28957 134.2303 L 148.28819 174.79917 L 107.7207 174.79917 L 107.71932 134.2303 L 148.28957 134.2303 z M 57.772999 43.727539 L 57.772999 84.295028 L 17.204129 84.296409 L 17.20551 43.727539 L 57.772999 43.727539 z M 71.428999 120.58121 A 8.0008 8.0008 0 0 0 65.772145 118.23615 L 9.2036024 118.23615 A 8.0008 8.0008 0 0 0 1.2030759 126.23668 L 1.2030759 182.80522 A 8.0008 8.0008 0 0 0 9.2036024 190.80575 L 65.772145 190.80575 A 8.0008 8.0008 0 0 0 73.772671 182.80522 L 73.772671 126.23668 A 8.0008 8.0008 0 0 0 71.428999 120.58121 z M 57.772999 134.23721 L 57.772999 174.8047 L 17.204129 174.80608 L 17.204129 134.23583 L 57.772999 134.23721 z "
     transform="translate(-7.76 109.25) rotate(-45)" />
</svg>
