<?xml version="1.0" encoding="UTF-8" standalone="no"?>
<svg
   viewBox="0 0 256 256"
   version="1.1"
   id="svg5"
   sodipodi:docname="discord logo purple_coral.svg"
   xmlns:inkscape="http://www.inkscape.org/namespaces/inkscape"
   xmlns:sodipodi="http://sodipodi.sourceforge.net/DTD/sodipodi-0.dtd"
   xmlns:xlink="http://www.w3.org/1999/xlink"
   xmlns="http://www.w3.org/2000/svg"
   xmlns:svg="http://www.w3.org/2000/svg">
  <defs
     id="defs3">
    <linearGradient
       id="linearGradient1"
       inkscape:collect="always">
      <stop
         style="stop-color:#ff7c66;stop-opacity:1;"
         offset="0"
         id="stop1" />
      <stop
         style="stop-color:#a03291;stop-opacity:1;"
         offset="0.76340693"
         id="stop2" />
    </linearGradient>
    <linearGradient
       inkscape:collect="always"
       xlink:href="#linearGradient1"
       id="linearGradient2"
       x1="232.4884"
       y1="23.847498"
       x2="23.977745"
       y2="232.35815"
       gradientUnits="userSpaceOnUse" />
  </defs>
  <defs
     id="defs5" />
  <sodipodi:namedview
     id="namedview5"
     pagecolor="#ffffff"
     bordercolor="#000000"
     borderopacity="0.25"
     inkscape:showpageshadow="2"
     inkscape:pageopacity="0.0"
     inkscape:pagecheckerboard="0"
     inkscape:deskcolor="#d1d1d1" />
  <path
     id="circle1"
     style="baseline-shift:baseline;display:inline;overflow:visible;vector-effect:none;fill:url(#linearGradient2);stroke-linecap:round;stroke-linejoin:round;enable-background:accumulate;stop-color:#000000;stop-opacity:1;opacity:1;fill-opacity:1"
     d="M 90.068359 39.955078 C 89.058645 39.929208 88.035515 39.999508 87.009766 40.173828 L 87.048828 40.166016 L 51.027344 46.103516 L 51.025391 46.103516 L 51.023438 46.105469 L 51.021484 46.105469 C 44.713859 47.132002 39.576288 51.847918 38.013672 58.044922 L 38.015625 58.03125 L 8.4863281 174.38281 A 8.0008 8.0008 0 0 0 8.4726562 174.43359 C 6.622846 181.9347 10.498744 189.80702 17.572266 192.91406 L 84.482422 222.57422 L 84.484375 222.57422 C 92.889724 226.3885 103.04072 222.18209 106.28125 213.53906 A 8.0008 8.0008 0 0 0 106.29492 213.5 L 114.38867 191.56836 C 118.91488 191.87678 123.45499 192.01975 128 191.99805 C 132.54471 192.01975 137.08542 191.87674 141.61133 191.56836 L 149.70312 213.51758 A 8.0008 8.0008 0 0 0 149.71875 213.55859 C 152.95928 222.20162 163.11028 226.40803 171.51562 222.59375 L 171.51758 222.59375 L 238.42773 192.93359 C 245.50126 189.82655 249.37715 181.95619 247.52734 174.45508 A 8.0008 8.0008 0 0 0 247.51367 174.40234 L 217.98633 58.044922 C 216.42371 51.847918 211.28614 47.132002 204.97852 46.105469 L 168.95117 40.166016 L 168.99023 40.173828 C 167.96449 39.999505 166.94135 39.929207 165.93164 39.955078 C 158.86831 40.136057 152.47769 45.032455 150.6875 52.085938 L 150.68555 52.095703 L 150.68555 52.097656 L 150.68359 52.097656 L 150.68359 52.099609 L 147.41797 64.919922 C 140.97259 64.278432 134.4915 63.970957 128 64.001953 C 121.50848 63.970956 115.02742 64.278429 108.58203 64.919922 L 105.31641 52.099609 L 105.31445 52.095703 C 103.52768 45.037024 97.134932 40.136141 90.068359 39.955078 z M 89.771484 55.929688 C 89.772554 55.929577 89.776415 55.92969 89.777344 55.929688 L 89.779297 55.929688 L 89.78125 55.929688 L 89.78125 55.931641 L 89.783203 55.931641 L 89.785156 55.933594 L 89.787109 55.935547 L 89.787109 55.9375 L 89.789062 55.939453 C 89.792591 55.952291 89.79374 55.978185 89.804688 56.021484 A 8.0008 8.0008 0 0 0 89.806641 56.035156 L 92.650391 67.201172 C 87.692659 68.130656 82.770313 69.261253 77.894531 70.591797 A 8 8 0 0 0 72.28125 80.416016 A 8 8 0 0 0 82.105469 86.027344 C 89.144208 84.106554 96.290022 82.639942 103.5 81.634766 A 8 8 0 0 0 103.8125 81.591797 C 111.80516 80.4925 119.87492 79.959696 127.96094 80 A 8.0008 8.0008 0 0 0 128.03906 80 C 136.1241 79.959703 144.19188 80.49277 152.18359 81.591797 A 8 8 0 0 0 152.50195 81.636719 C 159.71097 82.641883 166.85672 84.106806 173.89453 86.027344 A 8 8 0 0 0 183.71875 80.416016 A 8 8 0 0 0 178.10547 70.591797 C 173.22968 69.261249 168.30735 68.130657 163.34961 67.201172 L 166.19336 56.035156 A 8.0008 8.0008 0 0 0 166.19531 56.021484 C 166.20783 55.972 166.2099 55.944427 166.21484 55.933594 L 166.2168 55.931641 L 166.21875 55.931641 L 166.21875 55.929688 L 166.2207 55.929688 L 166.22266 55.929688 L 166.22461 55.929688 C 166.23667 55.929735 166.26007 55.938714 166.31055 55.947266 A 8.0008 8.0008 0 0 0 166.34961 55.953125 L 202.38867 61.892578 A 8.0008 8.0008 0 0 0 202.4082 61.896484 C 202.428 61.899709 202.44299 61.902576 202.45117 61.90625 L 202.45312 61.908203 L 202.45508 61.910156 L 202.45703 61.910156 L 202.45898 61.912109 C 202.45973 61.913047 202.46226 61.916856 202.46289 61.917969 C 202.46623 61.925798 202.46836 61.938085 202.47266 61.955078 A 8.0008 8.0008 0 0 0 202.47656 61.966797 L 231.99219 178.28516 A 8.0008 8.0008 0 0 0 231.96875 178.29688 L 164.96875 207.99609 A 8.0008 8.0008 0 0 0 164.90234 208.02539 C 164.82138 208.06214 164.78533 208.08739 164.76562 208.08789 L 164.76367 208.08789 L 164.76172 208.08789 L 164.75977 208.08594 L 164.75781 208.08594 L 164.75586 208.08398 L 164.75391 208.08398 L 164.75391 208.08203 C 164.75306 208.08112 164.75081 208.0773 164.75 208.07617 C 164.739 208.05712 164.72849 208.01426 164.70117 207.94141 L 157.98438 189.72461 C 164.75819 188.65789 171.47506 187.21757 178.10547 185.4082 A 8 8 0 0 0 183.71875 175.58398 A 8 8 0 0 0 173.89453 169.97266 C 164.99848 172.40028 155.9301 174.1018 146.7793 175.06445 A 8 8 0 0 0 145.60547 175.18359 C 139.77386 175.75644 133.91114 176.02927 128.03906 176 A 8.0008 8.0008 0 0 0 127.96094 176 C 122.09236 176.02925 116.23246 175.75574 110.4043 175.18359 A 8 8 0 0 0 109.20898 175.0625 C 100.06189 174.09964 90.997981 172.39931 82.105469 169.97266 A 8 8 0 0 0 72.28125 175.58398 A 8 8 0 0 0 77.894531 185.4082 C 84.524112 187.21734 91.240722 188.65793 98.013672 189.72461 L 91.298828 207.92188 C 91.267612 208.00514 91.259573 208.04995 91.246094 208.06445 L 91.244141 208.06445 L 91.242188 208.06641 L 91.240234 208.06641 L 91.238281 208.06836 L 91.236328 208.06836 L 91.234375 208.06836 L 91.232422 208.06836 C 91.212302 208.06647 91.176271 208.04154 91.097656 208.00586 A 8.0008 8.0008 0 0 0 91.03125 207.97656 L 24.03125 178.27539 A 8.0008 8.0008 0 0 0 24.007812 178.26562 L 53.523438 61.96875 A 8.0008 8.0008 0 0 0 53.527344 61.955078 C 53.533062 61.932403 53.537039 61.91766 53.542969 61.910156 L 53.544922 61.910156 L 53.546875 61.908203 L 53.548828 61.90625 L 53.550781 61.904297 C 53.558956 61.900626 53.572012 61.899694 53.591797 61.896484 A 8.0008 8.0008 0 0 0 53.611328 61.892578 L 89.650391 55.953125 A 8.0008 8.0008 0 0 0 89.689453 55.947266 C 89.735902 55.939372 89.758646 55.931013 89.771484 55.929688 z M 92 128 A 12 12 0 0 0 80 140 A 12 12 0 0 0 92 152 A 12 12 0 0 0 104 140 A 12 12 0 0 0 92 128 z M 164 128 A 12 12 0 0 0 152 140 A 12 12 0 0 0 164 152 A 12 12 0 0 0 176 140 A 12 12 0 0 0 164 128 z " />
</svg>
