<?xml version="1.0" encoding="UTF-8" standalone="no"?>
<svg
   viewBox="0 0 256 256"
   version="1.1"
   id="svg3"
   sodipodi:docname="dots three outline vertical purple_coral.svg"
   xmlns:inkscape="http://www.inkscape.org/namespaces/inkscape"
   xmlns:sodipodi="http://sodipodi.sourceforge.net/DTD/sodipodi-0.dtd"
   xmlns:xlink="http://www.w3.org/1999/xlink"
   xmlns="http://www.w3.org/2000/svg"
   xmlns:svg="http://www.w3.org/2000/svg">
  <defs
     id="defs3">
    <linearGradient
       id="linearGradient1"
       inkscape:collect="always">
      <stop
         style="stop-color:#ff7c66;stop-opacity:1;"
         offset="0"
         id="stop1" />
      <stop
         style="stop-color:#a03291;stop-opacity:1;"
         offset="0.76340693"
         id="stop2" />
    </linearGradient>
    <linearGradient
       inkscape:collect="always"
       xlink:href="#linearGradient1"
       id="linearGradient2"
       x1="232.4884"
       y1="23.847498"
       x2="23.977745"
       y2="232.35815"
       gradientUnits="userSpaceOnUse" />
  </defs>
  <defs
     id="defs1" />
  <sodipodi:namedview
     id="namedview3"
     pagecolor="#ffffff"
     bordercolor="#000000"
     borderopacity="0.25"
     inkscape:showpageshadow="2"
     inkscape:pageopacity="0.0"
     inkscape:pagecheckerboard="0"
     inkscape:deskcolor="#d1d1d1" />
  <path
     id="circle1"
     style="baseline-shift:baseline;display:inline;overflow:visible;vector-effect:none;fill:url(#linearGradient2);stroke-linecap:round;stroke-linejoin:round;enable-background:accumulate;stop-color:#000000;stop-opacity:1;opacity:1;fill-opacity:1"
     d="M 128 16 C 110.42165 16 96 30.421645 96 48 C 96 65.578355 110.42165 80 128 80 C 145.57835 80 160 65.578355 160 48 C 160 30.421645 145.57835 16 128 16 z M 128 32 C 136.93131 32 144 39.068687 144 48 C 144 56.931313 136.93131 64 128 64 C 119.06869 64 112 56.931313 112 48 C 112 39.068687 119.06869 32 128 32 z M 128 96 C 110.42165 96 96 110.42165 96 128 C 96 145.57835 110.42165 160 128 160 C 145.57835 160 160 145.57835 160 128 C 160 110.42165 145.57835 96 128 96 z M 128 112 C 136.93131 112 144 119.06869 144 128 C 144 136.93131 136.93131 144 128 144 C 119.06869 144 112 136.93131 112 128 C 112 119.06869 119.06869 112 128 112 z M 128 176 C 110.42165 176 96 190.42165 96 208 C 96 225.57835 110.42165 240 128 240 C 145.57835 240 160 225.57835 160 208 C 160 190.42165 145.57835 176 128 176 z M 128 192 C 136.93131 192 144 199.06869 144 208 C 144 216.93131 136.93131 224 128 224 C 119.06869 224 112 216.93131 112 208 C 112 199.06869 119.06869 192 128 192 z " />
</svg>
