<?xml version="1.0" encoding="UTF-8" standalone="no"?>
<svg
   viewBox="0 0 256 256"
   version="1.1"
   id="svg7"
   sodipodi:docname="drone purple_coral.svg"
   xmlns:inkscape="http://www.inkscape.org/namespaces/inkscape"
   xmlns:sodipodi="http://sodipodi.sourceforge.net/DTD/sodipodi-0.dtd"
   xmlns:xlink="http://www.w3.org/1999/xlink"
   xmlns="http://www.w3.org/2000/svg"
   xmlns:svg="http://www.w3.org/2000/svg">
  <defs
     id="defs3">
    <linearGradient
       id="linearGradient1"
       inkscape:collect="always">
      <stop
         style="stop-color:#ff7c66;stop-opacity:1;"
         offset="0"
         id="stop1" />
      <stop
         style="stop-color:#a03291;stop-opacity:1;"
         offset="0.76340693"
         id="stop2" />
    </linearGradient>
    <linearGradient
       inkscape:collect="always"
       xlink:href="#linearGradient1"
       id="linearGradient2"
       x1="232.4884"
       y1="23.847498"
       x2="23.977745"
       y2="232.35815"
       gradientUnits="userSpaceOnUse" />
  </defs>
  <defs
     id="defs7" />
  <sodipodi:namedview
     id="namedview7"
     pagecolor="#ffffff"
     bordercolor="#000000"
     borderopacity="0.25"
     inkscape:showpageshadow="2"
     inkscape:pageopacity="0.0"
     inkscape:pagecheckerboard="0"
     inkscape:deskcolor="#d1d1d1" />
  <path
     id="line1"
     style="baseline-shift:baseline;display:inline;overflow:visible;vector-effect:none;fill:url(#linearGradient2);stroke-linecap:round;stroke-linejoin:round;enable-background:accumulate;stop-color:#000000;stop-opacity:1;opacity:1;fill-opacity:1"
     d="M 181.01758 32.240234 C 163.05931 31.948688 145.22258 42.46819 138.51367 61.318359 A 8 8 0 0 0 143.36719 71.537109 A 8 8 0 0 0 153.58594 66.681641 C 160.59196 46.996667 185.00902 41.500764 199.77539 56.283203 C 214.54176 71.065642 209.01875 95.476326 189.32617 102.46094 A 8 8 0 0 0 184.46094 112.67383 A 8 8 0 0 0 194.67383 117.53906 C 224.84575 106.83762 233.72007 67.623591 211.0957 44.974609 C 202.61157 36.481241 191.79254 32.415162 181.01758 32.240234 z M 75.044922 32.259766 C 64.275779 32.433661 53.461702 36.495329 44.978516 44.978516 C 22.356686 67.600345 31.178459 106.78985 61.3125 117.53516 A 8 8 0 0 0 71.535156 112.6875 A 8 8 0 0 0 66.6875 102.46484 C 47.020677 95.451987 41.529025 71.056913 56.292969 56.292969 C 71.056913 41.529025 95.451987 47.020677 102.46484 66.6875 A 8 8 0 0 0 112.6875 71.535156 A 8 8 0 0 0 117.53516 61.3125 C 110.81934 42.478725 92.993493 31.96994 75.044922 32.259766 z M 72 64 A 8 8 0 0 0 66.34375 66.34375 A 8 8 0 0 0 66.34375 77.65625 L 96 107.3125 L 96 148.6875 L 66.34375 178.34375 A 8 8 0 0 0 66.34375 189.65625 A 8 8 0 0 0 77.65625 189.65625 L 107.3125 160 L 148.6875 160 L 178.34375 189.65625 A 8 8 0 0 0 189.65625 189.65625 A 8 8 0 0 0 189.65625 178.34375 L 160 148.6875 L 160 107.3125 L 189.65625 77.65625 A 8 8 0 0 0 189.65625 66.34375 A 8 8 0 0 0 184 64 A 8 8 0 0 0 178.34375 66.34375 L 148.6875 96 L 107.3125 96 L 77.65625 66.34375 A 8 8 0 0 0 72 64 z M 112 112 L 144 112 L 144 144 L 112 144 L 112 112 z M 64.40625 138.06055 A 8 8 0 0 0 61.318359 138.51367 C 31.158089 149.24792 22.325627 188.47134 44.974609 211.0957 C 67.623591 233.72007 106.83762 224.84575 117.53906 194.67383 A 8 8 0 0 0 112.67383 184.46094 A 8 8 0 0 0 102.46094 189.32617 C 95.476328 209.01875 71.065642 214.54176 56.283203 199.77539 C 41.500764 185.00902 46.996667 160.59196 66.681641 153.58594 A 8 8 0 0 0 71.537109 143.36719 A 8 8 0 0 0 64.40625 138.06055 z M 191.58008 138.06055 A 8 8 0 0 0 184.45898 143.38086 A 8 8 0 0 0 189.33008 153.5918 C 209.04077 160.56955 214.57001 185.0003 199.78516 199.78516 C 185.0003 214.57001 160.56955 209.04077 153.5918 189.33008 A 8 8 0 0 0 143.38086 184.45898 A 8 8 0 0 0 138.50781 194.66992 C 149.1982 224.86801 188.44811 233.75111 211.09961 211.09961 C 233.75111 188.44811 224.86801 149.1982 194.66992 138.50781 A 8 8 0 0 0 191.58008 138.06055 z " />
</svg>
