<?xml version="1.0" encoding="UTF-8" standalone="no"?>
<svg
   viewBox="0 0 256 256"
   version="1.1"
   id="svg2"
   sodipodi:docname="eject purple_coral.svg"
   xmlns:inkscape="http://www.inkscape.org/namespaces/inkscape"
   xmlns:sodipodi="http://sodipodi.sourceforge.net/DTD/sodipodi-0.dtd"
   xmlns:xlink="http://www.w3.org/1999/xlink"
   xmlns="http://www.w3.org/2000/svg"
   xmlns:svg="http://www.w3.org/2000/svg">
  <defs
     id="defs3">
    <linearGradient
       id="linearGradient1"
       inkscape:collect="always">
      <stop
         style="stop-color:#ff7c66;stop-opacity:1;"
         offset="0"
         id="stop1" />
      <stop
         style="stop-color:#a03291;stop-opacity:1;"
         offset="0.76340693"
         id="stop2" />
    </linearGradient>
    <linearGradient
       inkscape:collect="always"
       xlink:href="#linearGradient1"
       id="linearGradient2"
       x1="232.4884"
       y1="23.847498"
       x2="23.977745"
       y2="232.35815"
       gradientUnits="userSpaceOnUse" />
  </defs>
  <defs
     id="defs2" />
  <sodipodi:namedview
     id="namedview2"
     pagecolor="#ffffff"
     bordercolor="#000000"
     borderopacity="0.25"
     inkscape:showpageshadow="2"
     inkscape:pageopacity="0.0"
     inkscape:pagecheckerboard="0"
     inkscape:deskcolor="#d1d1d1" />
  <path
     id="rect2"
     style="baseline-shift:baseline;display:inline;overflow:visible;vector-effect:none;fill:url(#linearGradient2);stroke-linecap:round;stroke-linejoin:round;enable-background:accumulate;stop-color:#000000;stop-opacity:1;opacity:1;fill-opacity:1"
     d="M 283.94531 180 C 283.94531 173.50054 281.43597 167.00038 276.41992 162.16797 A 8.0008 8.0008 0 0 0 276.38477 162.13477 L 198.88477 88.394531 A 8.0008 8.0008 0 0 0 198.88281 88.392578 C 194.02591 83.773756 186.85607 82.987094 181.48047 85.414062 C 176.10491 87.841081 172 93.570393 172 100.23047 L 172 259.81055 C 172 266.46793 176.12028 272.18033 181.49219 274.5957 C 186.8641 277.01108 194.02591 276.22624 198.88281 271.60742 A 8.0008 8.0008 0 0 0 198.88477 271.60547 L 276.38477 197.86523 A 8.0008 8.0008 0 0 0 276.41992 197.83203 C 281.43597 192.99962 283.94531 186.49946 283.94531 180 z M 268.05859 180 C 268.05859 182.2723 267.14713 184.54384 265.32422 186.30273 L 188.01367 259.86328 C 188.01361 259.86216 188.01363 259.86041 188.01367 259.85938 L 188.01367 259.85742 L 188.01172 259.85742 L 188.00977 259.85742 L 188.00977 259.85938 L 188.00977 259.86133 C 188.00915 259.86401 188.00653 259.86834 188.00586 259.87109 L 188.00586 259.87305 L 188.00391 259.87305 L 188.00195 259.87109 L 188.00195 259.86914 L 188.00195 259.86719 C 188.00082 259.8591 188 259.84227 188 259.81055 L 188 100.23047 C 188 100.16834 188.00299 100.14145 188.00586 100.13281 L 188.00586 100.13086 L 188.00781 100.13086 L 188.00977 100.13086 L 188.00977 100.13281 L 188.01172 100.13281 C 188.01366 100.13615 188.01765 100.14471 188.01953 100.14844 L 188.01953 100.15039 L 188.02148 100.15039 L 188.02148 100.14844 L 188.02344 100.14844 L 188.02344 100.14648 L 265.32031 173.69141 L 265.32422 173.69727 C 267.14721 175.45601 268.05859 177.7277 268.05859 180 z M 156 100 C 156 91.274378 148.72562 84 140 84 L 116 84 C 107.27438 84 100 91.274378 100 100 L 100 260 C 100 268.72562 107.27438 276 116 276 L 140 276 C 148.72562 276 156 268.72562 156 260 L 156 100 z M 140 100 L 140 260 L 116 260 L 116 100 L 140 100 z "
     transform="translate(-52 308) rotate(-90)" />
</svg>
