<?xml version="1.0" encoding="UTF-8" standalone="no"?>
<svg
   viewBox="0 0 256 256"
   version="1.1"
   id="svg3"
   sodipodi:docname="file rs purple_coral.svg"
   xmlns:inkscape="http://www.inkscape.org/namespaces/inkscape"
   xmlns:sodipodi="http://sodipodi.sourceforge.net/DTD/sodipodi-0.dtd"
   xmlns:xlink="http://www.w3.org/1999/xlink"
   xmlns="http://www.w3.org/2000/svg"
   xmlns:svg="http://www.w3.org/2000/svg">
  <defs
     id="defs3">
    <linearGradient
       id="linearGradient1"
       inkscape:collect="always">
      <stop
         style="stop-color:#ff7c66;stop-opacity:1;"
         offset="0"
         id="stop1" />
      <stop
         style="stop-color:#a03291;stop-opacity:1;"
         offset="0.76340693"
         id="stop2" />
    </linearGradient>
    <linearGradient
       inkscape:collect="always"
       xlink:href="#linearGradient1"
       id="linearGradient2"
       x1="232.4884"
       y1="23.847498"
       x2="23.977745"
       y2="232.35815"
       gradientUnits="userSpaceOnUse" />
  </defs>
  <defs
     id="defs1" />
  <sodipodi:namedview
     id="namedview3"
     pagecolor="#ffffff"
     bordercolor="#000000"
     borderopacity="0.25"
     inkscape:showpageshadow="2"
     inkscape:pageopacity="0.0"
     inkscape:pagecheckerboard="0"
     inkscape:deskcolor="#d1d1d1" />
  <path
     id="path1"
     style="baseline-shift:baseline;display:inline;overflow:visible;vector-effect:none;fill:url(#linearGradient2);stroke-linecap:round;stroke-linejoin:round;enable-background:accumulate;stop-color:#000000;stop-opacity:1;opacity:1;fill-opacity:1"
     d="M 56 24 C 47.258201 24 40 31.258201 40 40 L 40 112 A 8 8 0 0 0 48 120 A 8 8 0 0 0 56 112 L 56 40 L 144 40 L 144 88 A 8.0008 8.0008 0 0 0 152 96 L 200 96 L 200 216 L 184 216 A 8 8 0 0 0 176 224 A 8 8 0 0 0 184 232 L 200 232 C 208.7418 232 216 224.7418 216 216 L 216 88 A 8.0008 8.0008 0 0 0 215.92969 86.949219 A 8 8 0 0 0 215.83203 86.460938 A 8.0008 8.0008 0 0 0 215.7207 85.914062 A 8 8 0 0 0 215.54688 85.398438 A 8.0008 8.0008 0 0 0 215.38281 84.921875 A 8 8 0 0 0 215.14648 84.445312 A 8.0008 8.0008 0 0 0 214.9043 83.966797 A 8 8 0 0 0 214.60938 83.525391 A 8.0008 8.0008 0 0 0 214.32227 83.103516 A 8 8 0 0 0 213.9375 82.664062 A 8.0008 8.0008 0 0 0 213.65625 82.34375 L 157.65625 26.34375 A 8.0008 8.0008 0 0 0 157.33594 26.0625 A 8 8 0 0 0 156.89648 25.677734 A 8.0008 8.0008 0 0 0 156.47461 25.390625 A 8 8 0 0 0 156.0332 25.095703 A 8.0008 8.0008 0 0 0 155.55469 24.853516 A 8 8 0 0 0 155.07812 24.617188 A 8.0008 8.0008 0 0 0 154.60156 24.453125 A 8 8 0 0 0 154.08594 24.279297 A 8.0008 8.0008 0 0 0 153.53906 24.167969 A 8 8 0 0 0 152 24 L 56 24 z M 160 51.314453 L 188.68555 80 L 160 80 L 160 51.314453 z M 48 144 A 8.0008 8.0008 0 0 0 40 152 L 40 192 L 40 208 A 8 8 0 0 0 48 216 A 8 8 0 0 0 56 208 L 56 200 L 64 200 C 65.958166 200 67.871902 199.79586 69.720703 199.40625 L 77.089844 212.0332 A 8 8 0 0 0 88.033203 214.91016 A 8 8 0 0 0 90.910156 203.9668 L 83.777344 191.74805 C 88.847617 186.67039 92 179.67722 92 172 C 92 156.63079 79.369221 144 64 144 L 48 144 z M 128.46875 144.06836 C 123.83276 144.31216 118.67667 145.17765 113.86133 148.1543 C 109.04599 151.13095 105.02071 156.79406 104.16211 163.59766 C 103.22218 171.04573 107.8067 178.08204 112.83203 181.21484 C 117.85736 184.34765 123.15333 185.60301 127.88086 186.96484 C 132.60838 188.32668 136.71887 189.79341 138.50195 191.03516 C 140.28503 192.2769 140.28541 191.65503 139.94531 194.29883 C 139.59349 197.02515 138.99573 197.48732 137.64062 198.33203 C 136.28508 199.17702 133.68087 199.8747 130.69141 200.01367 C 124.71248 200.29162 118.24609 198.61328 118.24609 198.61328 A 8 8 0 0 0 108.39258 204.17383 A 8 8 0 0 0 113.95508 214.02734 C 113.95508 214.02734 122.14197 216.42814 131.43555 215.99609 C 136.08233 215.78007 141.26876 214.92392 146.10352 211.91016 C 150.93827 208.89639 154.93123 203.19502 155.81445 196.34375 A 8.0008 8.0008 0 0 0 155.81445 196.33984 C 156.79935 188.68364 152.69403 181.42138 147.64648 177.90625 C 142.59894 174.39112 137.15357 172.98551 132.30859 171.58984 C 127.46362 170.19418 123.17022 168.80579 121.29492 167.63672 C 119.41963 166.46765 119.79204 167.54352 120.03711 165.60156 C 120.36351 163.01515 120.90604 162.61015 122.27539 161.76367 C 123.64474 160.9172 126.29083 160.20557 129.30859 160.04688 C 135.34412 159.72949 141.85547 161.33398 141.85547 161.33398 A 8 8 0 0 0 151.63477 155.64453 A 8 8 0 0 0 145.94531 145.86523 C 145.94531 145.86523 137.74073 143.58076 128.46875 144.06836 z M 56 160 L 64 160 C 70.722184 160 76 165.27782 76 172 C 76 176.46587 73.67151 180.29445 70.136719 182.36133 A 8 8 0 0 0 69.287109 182.79102 A 8 8 0 0 0 69.123047 182.88867 C 67.576487 183.60277 65.842529 184 64 184 L 56 184 L 56 160 z " />
</svg>
