<?xml version="1.0" encoding="UTF-8" standalone="no"?>
<svg
   viewBox="0 0 256 256"
   version="1.1"
   id="svg5"
   sodipodi:docname="film reel purple_coral.svg"
   xmlns:inkscape="http://www.inkscape.org/namespaces/inkscape"
   xmlns:sodipodi="http://sodipodi.sourceforge.net/DTD/sodipodi-0.dtd"
   xmlns:xlink="http://www.w3.org/1999/xlink"
   xmlns="http://www.w3.org/2000/svg"
   xmlns:svg="http://www.w3.org/2000/svg">
  <defs
     id="defs3">
    <linearGradient
       id="linearGradient1"
       inkscape:collect="always">
      <stop
         style="stop-color:#ff7c66;stop-opacity:1;"
         offset="0"
         id="stop1" />
      <stop
         style="stop-color:#a03291;stop-opacity:1;"
         offset="0.76340693"
         id="stop2" />
    </linearGradient>
    <linearGradient
       inkscape:collect="always"
       xlink:href="#linearGradient1"
       id="linearGradient2"
       x1="232.4884"
       y1="23.847498"
       x2="23.977745"
       y2="232.35815"
       gradientUnits="userSpaceOnUse" />
  </defs>
  <defs
     id="defs5" />
  <sodipodi:namedview
     id="namedview5"
     pagecolor="#ffffff"
     bordercolor="#000000"
     borderopacity="0.25"
     inkscape:showpageshadow="2"
     inkscape:pageopacity="0.0"
     inkscape:pagecheckerboard="0"
     inkscape:deskcolor="#d1d1d1" />
  <path
     id="circle1"
     style="baseline-shift:baseline;display:inline;overflow:visible;vector-effect:none;fill:url(#linearGradient2);stroke-linecap:round;stroke-linejoin:round;enable-background:accumulate;stop-color:#000000;stop-opacity:1;opacity:1;fill-opacity:1"
     d="M 128 24 C 70.657143 24 24 70.657143 24 128 C 24 185.34286 70.657143 232 128 232 L 232 232 A 8 8 0 0 0 240 224 A 8 8 0 0 0 232 216 L 183.37305 216 C 212.56861 197.56274 232 165.00659 232 128 C 232 70.657143 185.34286 24 128 24 z M 128 40 C 176.69582 40 216 79.304185 216 128 C 216 176.69582 176.69582 216 128 216 C 79.304185 216 40 176.69582 40 128 C 40 79.304185 79.304185 40 128 40 z M 128 56 C 114.83992 56 104 66.839923 104 80 C 104 93.160077 114.83992 104 128 104 C 141.16008 104 152 93.160077 152 80 C 152 66.839923 141.16008 56 128 56 z M 128 72 C 132.51304 72 136 75.486965 136 80 C 136 84.513035 132.51304 88 128 88 C 123.48696 88 120 84.513035 120 80 C 120 75.486965 123.48696 72 128 72 z M 80 104 C 66.839923 104 56 114.83992 56 128 C 56 141.16008 66.839923 152 80 152 C 93.160077 152 104 141.16008 104 128 C 104 114.83992 93.160077 104 80 104 z M 176 104 C 162.83992 104 152 114.83992 152 128 C 152 141.16008 162.83992 152 176 152 C 189.16008 152 200 141.16008 200 128 C 200 114.83992 189.16008 104 176 104 z M 80 120 C 84.513035 120 88 123.48696 88 128 C 88 132.51304 84.513035 136 80 136 C 75.486965 136 72 132.51304 72 128 C 72 123.48696 75.486965 120 80 120 z M 176 120 C 180.51304 120 184 123.48696 184 128 C 184 132.51304 180.51304 136 176 136 C 171.48696 136 168 132.51304 168 128 C 168 123.48696 171.48696 120 176 120 z M 128 152 C 114.83992 152 104 162.83992 104 176 C 104 189.16008 114.83992 200 128 200 C 141.16008 200 152 189.16008 152 176 C 152 162.83992 141.16008 152 128 152 z M 128 168 C 132.51304 168 136 171.48696 136 176 C 136 180.51304 132.51304 184 128 184 C 123.48696 184 120 180.51304 120 176 C 120 171.48696 123.48696 168 128 168 z " />
</svg>
