<?xml version="1.0" encoding="UTF-8" standalone="no"?>
<svg
   viewBox="0 0 256 256"
   version="1.1"
   id="svg2"
   sodipodi:docname="fish simple purple_coral.svg"
   xmlns:inkscape="http://www.inkscape.org/namespaces/inkscape"
   xmlns:sodipodi="http://sodipodi.sourceforge.net/DTD/sodipodi-0.dtd"
   xmlns:xlink="http://www.w3.org/1999/xlink"
   xmlns="http://www.w3.org/2000/svg"
   xmlns:svg="http://www.w3.org/2000/svg">
  <defs
     id="defs3">
    <linearGradient
       id="linearGradient1"
       inkscape:collect="always">
      <stop
         style="stop-color:#ff7c66;stop-opacity:1;"
         offset="0"
         id="stop1" />
      <stop
         style="stop-color:#a03291;stop-opacity:1;"
         offset="0.76340693"
         id="stop2" />
    </linearGradient>
    <linearGradient
       inkscape:collect="always"
       xlink:href="#linearGradient1"
       id="linearGradient2"
       x1="232.4884"
       y1="23.847498"
       x2="23.977745"
       y2="232.35815"
       gradientUnits="userSpaceOnUse" />
  </defs>
  <defs
     id="defs2" />
  <sodipodi:namedview
     id="namedview2"
     pagecolor="#ffffff"
     bordercolor="#000000"
     borderopacity="0.25"
     inkscape:showpageshadow="2"
     inkscape:pageopacity="0.0"
     inkscape:pagecheckerboard="0"
     inkscape:deskcolor="#d1d1d1" />
  <path
     id="circle1"
     style="baseline-shift:baseline;display:inline;overflow:visible;vector-effect:none;fill:url(#linearGradient2);stroke-linecap:round;stroke-linejoin:round;enable-background:accumulate;stop-color:#000000;stop-opacity:1;opacity:1;fill-opacity:1"
     d="M 172.65039 24.070312 C 156.5682 24.486252 138.26005 27.164445 120.6875 34.785156 C 113.61999 37.850133 106.68797 41.759508 100.13086 46.632812 A 8 8 0 0 0 98.574219 47.8125 C 84.051167 59.052089 71.499677 75.158759 63.603516 97.472656 C 55.822489 119.46119 52.545074 147.42474 55.300781 182.65039 C 43.578626 181.08764 31.187707 179.00915 17.712891 176.05469 A 8 8 0 0 0 8.1855469 182.15625 A 8 8 0 0 0 14.287109 191.68359 C 29.531324 195.02601 43.65711 197.40958 56.912109 199.06055 C 58.561575 212.3231 60.942302 226.45851 64.285156 241.71289 A 8 8 0 0 0 73.8125 247.81445 A 8 8 0 0 0 79.914062 238.28711 C 76.958916 224.80194 74.879948 212.40369 73.318359 200.67383 C 108.55795 203.43779 136.53254 200.16363 158.52734 192.38281 C 180.81924 184.4969 196.91626 171.96277 208.1543 157.45898 A 8 8 0 0 0 209.39062 155.83008 C 214.25318 149.28254 218.15468 142.3607 221.21484 135.30469 C 231.37588 111.87576 232.75112 87.138788 231.69141 68.113281 C 231.16155 58.600528 230.00334 50.502407 228.93359 44.660156 C 228.39872 41.739031 227.88692 39.386092 227.47656 37.677734 C 227.27138 36.823555 227.09381 36.135458 226.9375 35.576172 C 226.8593 35.296529 226.78817 35.056816 226.70117 34.785156 C 226.61417 34.513496 227.13643 35.054591 225.89453 32.943359 A 8.0008 8.0008 0 0 0 223.03906 30.09375 C 220.9524 28.87348 221.48383 29.383535 221.21289 29.296875 C 220.94195 29.210215 220.70142 29.140576 220.42188 29.0625 C 219.8628 28.906347 219.17461 28.72858 218.32031 28.523438 C 216.61172 28.11315 214.25738 27.601263 211.33594 27.066406 C 205.49306 25.996692 197.39406 24.83845 187.88086 24.308594 C 183.12426 24.043666 178.01112 23.931667 172.65039 24.070312 z M 173.09375 40.083984 C 177.96071 39.949681 182.63136 40.042274 186.99219 40.285156 C 195.71383 40.770925 203.18174 41.839244 208.45508 42.804688 C 210.14317 43.113743 211.17595 43.359831 212.37891 43.623047 C 212.6419 44.82492 212.88659 45.856933 213.19531 47.542969 C 214.16073 52.815444 215.22908 60.282753 215.71484 69.003906 C 216.68638 86.446212 215.24912 108.84518 206.53516 128.9375 C 204.35385 133.96706 201.74644 138.863 198.60742 143.53906 C 152.98447 139.0881 116.90933 103.01045 112.46094 57.386719 C 117.13485 54.250207 122.02776 51.644876 127.05469 49.464844 C 142.12495 42.929305 158.49287 40.486893 173.09375 40.083984 z M 156 64 A 12 12 0 0 0 144 76 A 12 12 0 0 0 156 88 A 12 12 0 0 0 168 76 A 12 12 0 0 0 156 64 z M 98.107422 69.638672 C 106.84602 114.11726 141.87425 149.15039 186.35156 157.89258 C 177.91112 165.70728 167.10637 172.37631 153.19141 177.29883 C 133.26459 184.34808 106.51206 187.4838 71.539062 184.43555 C 68.498902 149.47602 71.637832 122.73038 78.6875 102.80859 C 83.613344 88.888573 90.288255 78.0804 98.107422 69.638672 z " />
</svg>
