<?xml version="1.0" encoding="UTF-8" standalone="no"?>
<svg
   viewBox="0 0 256 256"
   version="1.1"
   id="svg5"
   sodipodi:docname="football purple_coral.svg"
   xmlns:inkscape="http://www.inkscape.org/namespaces/inkscape"
   xmlns:sodipodi="http://sodipodi.sourceforge.net/DTD/sodipodi-0.dtd"
   xmlns:xlink="http://www.w3.org/1999/xlink"
   xmlns="http://www.w3.org/2000/svg"
   xmlns:svg="http://www.w3.org/2000/svg">
  <defs
     id="defs3">
    <linearGradient
       id="linearGradient1"
       inkscape:collect="always">
      <stop
         style="stop-color:#ff7c66;stop-opacity:1;"
         offset="0"
         id="stop1" />
      <stop
         style="stop-color:#a03291;stop-opacity:1;"
         offset="0.76340693"
         id="stop2" />
    </linearGradient>
    <linearGradient
       inkscape:collect="always"
       xlink:href="#linearGradient1"
       id="linearGradient2"
       x1="232.4884"
       y1="23.847498"
       x2="23.977745"
       y2="232.35815"
       gradientUnits="userSpaceOnUse" />
  </defs>
  <defs
     id="defs5" />
  <sodipodi:namedview
     id="namedview5"
     pagecolor="#ffffff"
     bordercolor="#000000"
     borderopacity="0.25"
     inkscape:showpageshadow="2"
     inkscape:pageopacity="0.0"
     inkscape:pagecheckerboard="0"
     inkscape:deskcolor="#d1d1d1" />
  <path
     id="path1"
     style="baseline-shift:baseline;display:inline;overflow:visible;vector-effect:none;fill:url(#linearGradient2);stroke-linecap:round;stroke-linejoin:round;enable-background:accumulate;stop-color:#000000;stop-opacity:1;opacity:1;fill-opacity:1"
     d="M 174.35742 24.082031 C 165.42865 23.792519 155.58884 24.176977 145.35742 25.455078 A 8 8 0 0 0 143.21289 25.779297 C 116.89128 29.407152 88.00084 39.604628 63.802734 63.802734 C 39.649742 87.955729 29.485731 116.75269 25.839844 143.03516 A 8 8 0 0 0 25.496094 146.16797 C 22.835608 168.41767 24.601328 188.67821 26.882812 202.14648 C 29.213704 215.93073 40.069271 226.7863 53.853516 229.11719 C 67.32785 231.3997 87.600076 233.17091 109.86328 230.50586 A 8 8 0 0 0 112.9375 230.16992 C 139.22305 226.52931 168.02829 216.36624 192.19727 192.19727 C 216.35026 168.04427 226.51427 139.24731 230.16016 112.96484 A 8 8 0 0 0 230.50391 109.83203 C 233.16439 87.582332 231.39867 67.32179 229.11719 53.853516 C 226.7863 40.069271 215.93073 29.213704 202.14648 26.882812 C 194.67646 25.617413 185.15359 24.432093 174.35742 24.082031 z M 163.39453 40.080078 C 167.07731 39.978417 170.65527 39.998221 174.0957 40.109375 C 183.90173 40.426188 192.59964 41.493604 199.47461 42.658203 A 8.0008 8.0008 0 0 0 199.47656 42.658203 C 206.60654 43.86291 212.13709 49.393456 213.3418 56.523438 A 8.0008 8.0008 0 0 0 213.3418 56.525391 C 214.91502 65.812573 216.30938 78.423559 215.91797 92.603516 L 163.39453 40.080078 z M 142.65234 41.966797 L 214.0332 113.34766 C 210.42865 136.14158 201.16329 160.60233 180.88281 180.88281 C 160.59532 201.17031 136.14063 210.43573 113.35352 214.03906 L 41.966797 142.65234 C 45.571351 119.85842 54.836705 95.397672 75.117188 75.117188 C 95.397796 54.836582 119.85867 45.571476 142.65234 41.966797 z M 160 88 A 8 8 0 0 0 154.34375 90.34375 L 140 104.6875 L 133.65625 98.34375 A 8 8 0 0 0 128 96 A 8 8 0 0 0 122.34375 98.34375 A 8 8 0 0 0 122.34375 109.65625 L 128.6875 116 L 116 128.6875 L 109.65625 122.34375 A 8 8 0 0 0 104 120 A 8 8 0 0 0 98.34375 122.34375 A 8 8 0 0 0 98.34375 133.65625 L 104.6875 140 L 90.34375 154.34375 A 8 8 0 0 0 90.34375 165.65625 A 8 8 0 0 0 101.65625 165.65625 L 116 151.3125 L 122.34375 157.65625 A 8 8 0 0 0 133.65625 157.65625 A 8 8 0 0 0 133.65625 146.34375 L 127.3125 140 L 140 127.3125 L 146.34375 133.65625 A 8 8 0 0 0 157.65625 133.65625 A 8 8 0 0 0 157.65625 122.34375 L 151.3125 116 L 165.65625 101.65625 A 8 8 0 0 0 165.65625 90.34375 A 8 8 0 0 0 160 88 z M 40.082031 163.39648 L 92.609375 215.92383 C 78.428616 216.31358 65.815702 214.91555 56.525391 213.3418 A 8.0008 8.0008 0 0 0 56.523438 213.3418 C 49.393452 212.13704 43.86291 206.60654 42.658203 199.47656 A 8.0008 8.0008 0 0 0 42.658203 199.47461 C 41.084983 190.18745 39.690626 177.57643 40.082031 163.39648 z " />
</svg>
