<?xml version="1.0" encoding="UTF-8" standalone="no"?>
<svg
   viewBox="0 0 256 256"
   version="1.1"
   id="svg3"
   sodipodi:docname="fork knife purple_coral.svg"
   xmlns:inkscape="http://www.inkscape.org/namespaces/inkscape"
   xmlns:sodipodi="http://sodipodi.sourceforge.net/DTD/sodipodi-0.dtd"
   xmlns:xlink="http://www.w3.org/1999/xlink"
   xmlns="http://www.w3.org/2000/svg"
   xmlns:svg="http://www.w3.org/2000/svg">
  <defs
     id="defs3">
    <linearGradient
       id="linearGradient1"
       inkscape:collect="always">
      <stop
         style="stop-color:#ff7c66;stop-opacity:1;"
         offset="0"
         id="stop1" />
      <stop
         style="stop-color:#a03291;stop-opacity:1;"
         offset="0.76340693"
         id="stop2" />
    </linearGradient>
    <linearGradient
       inkscape:collect="always"
       xlink:href="#linearGradient1"
       id="linearGradient2"
       x1="232.4884"
       y1="23.847498"
       x2="23.977745"
       y2="232.35815"
       gradientUnits="userSpaceOnUse" />
  </defs>
  <defs
     id="defs1" />
  <sodipodi:namedview
     id="namedview3"
     pagecolor="#ffffff"
     bordercolor="#000000"
     borderopacity="0.25"
     inkscape:showpageshadow="2"
     inkscape:pageopacity="0.0"
     inkscape:pagecheckerboard="0"
     inkscape:deskcolor="#d1d1d1" />
  <path
     id="line1"
     style="baseline-shift:baseline;display:inline;overflow:visible;vector-effect:none;fill:url(#linearGradient2);stroke-linecap:round;stroke-linejoin:round;enable-background:accumulate;stop-color:#000000;stop-opacity:1;opacity:1;fill-opacity:1"
     d="M 80 32 A 8 8 0 0 0 72 40 L 72 88 A 8 8 0 0 0 80 96 A 8 8 0 0 0 88 88 L 88 40 A 8 8 0 0 0 80 32 z M 208.14844 32.001953 A 8.0008 8.0008 0 0 0 204.84961 32.646484 C 173.00399 46.294606 158.47856 81.062852 151.22266 111.12305 C 143.96675 141.18324 144 168 144 168 A 8.0008 8.0008 0 0 0 152 176 L 200 176 L 200 224 A 8 8 0 0 0 208 232 A 8 8 0 0 0 216 224 L 216 168 L 216 40 A 8.0008 8.0008 0 0 0 208.14844 32.001953 z M 48.273438 32.005859 A 8 8 0 0 0 40.109375 38.685547 L 32.109375 86.685547 A 8.0008 8.0008 0 0 0 32 88 C 32 111.69076 49.362541 131.49692 72 135.33008 L 72 224 A 8 8 0 0 0 80 232 A 8 8 0 0 0 88 224 L 88 135.33008 C 110.63746 131.49692 128 111.69076 128 88 A 8.0008 8.0008 0 0 0 127.89062 86.685547 L 119.89062 38.685547 A 8 8 0 0 0 110.68555 32.109375 A 8 8 0 0 0 104.10938 41.314453 L 111.95898 88.412109 C 111.73506 105.98221 97.626557 120 80 120 C 62.373443 120 48.264938 105.98221 48.041016 88.412109 L 55.890625 41.314453 A 8 8 0 0 0 49.314453 32.109375 A 8 8 0 0 0 48.273438 32.005859 z M 200 54.208984 L 200 160 L 160.42773 160 C 160.75026 151.6314 161.71047 135.86827 166.77734 114.87695 C 172.39189 91.616706 182.77683 67.62113 200 54.208984 z " />
</svg>
