<?xml version="1.0" encoding="UTF-8" standalone="no"?>
<svg
   viewBox="0 0 256 256"
   version="1.1"
   id="svg2"
   sodipodi:docname="gas pump purple_coral.svg"
   xmlns:inkscape="http://www.inkscape.org/namespaces/inkscape"
   xmlns:sodipodi="http://sodipodi.sourceforge.net/DTD/sodipodi-0.dtd"
   xmlns:xlink="http://www.w3.org/1999/xlink"
   xmlns="http://www.w3.org/2000/svg"
   xmlns:svg="http://www.w3.org/2000/svg">
  <defs
     id="defs3">
    <linearGradient
       id="linearGradient1"
       inkscape:collect="always">
      <stop
         style="stop-color:#ff7c66;stop-opacity:1;"
         offset="0"
         id="stop1" />
      <stop
         style="stop-color:#a03291;stop-opacity:1;"
         offset="0.76340693"
         id="stop2" />
    </linearGradient>
    <linearGradient
       inkscape:collect="always"
       xlink:href="#linearGradient1"
       id="linearGradient2"
       x1="232.4884"
       y1="23.847498"
       x2="23.977745"
       y2="232.35815"
       gradientUnits="userSpaceOnUse" />
  </defs>
  <defs
     id="defs2" />
  <sodipodi:namedview
     id="namedview2"
     pagecolor="#ffffff"
     bordercolor="#000000"
     borderopacity="0.25"
     inkscape:showpageshadow="2"
     inkscape:pageopacity="0.0"
     inkscape:pagecheckerboard="0"
     inkscape:deskcolor="#d1d1d1" />
  <path
     id="path1"
     style="baseline-shift:baseline;display:inline;overflow:visible;vector-effect:none;fill:url(#linearGradient2);stroke-linecap:round;stroke-linejoin:round;enable-background:accumulate;stop-color:#000000;stop-opacity:1;opacity:1;fill-opacity:1"
     d="M 72 32 C 58.839923 32 48 42.839923 48 56 L 48 208 L 32 208 A 8 8 0 0 0 24 216 A 8 8 0 0 0 32 224 L 192 224 A 8 8 0 0 0 200 216 A 8 8 0 0 0 192 208 L 176 208 L 176 120 L 192 120 C 196.51304 120 200 123.48696 200 128 L 200 168 C 200 181.16008 210.83992 192 224 192 C 237.16008 192 248 181.16008 248 168 L 248 86.630859 C 248.001 80.265602 245.46862 74.152253 240.9668 69.652344 L 240.96484 69.650391 L 221.65625 50.34375 A 8 8 0 0 0 216 48 A 8 8 0 0 0 210.34375 50.34375 A 8 8 0 0 0 210.34375 61.65625 L 229.65234 80.966797 A 8.0008 8.0008 0 0 0 229.6543 80.96875 C 231.15822 82.471687 232.00034 84.502735 232 86.628906 A 8.0008 8.0008 0 0 0 232 86.630859 L 232 168 C 232 172.51304 228.51304 176 224 176 C 219.48696 176 216 172.51304 216 168 L 216 128 C 216 114.83992 205.16008 104 192 104 L 176 104 L 176 56 C 176 42.839923 165.16008 32 152 32 L 72 32 z M 72 48 L 152 48 C 156.51304 48 160 51.486965 160 56 L 160 208 L 64 208 L 64 56 C 64 51.486965 67.486965 48 72 48 z M 88 104 A 8 8 0 0 0 80 112 A 8 8 0 0 0 88 120 L 136 120 A 8 8 0 0 0 144 112 A 8 8 0 0 0 136 104 L 88 104 z " />
</svg>
