<?xml version="1.0" encoding="UTF-8" standalone="no"?>
<svg
   viewBox="0 0 256 256"
   version="1.1"
   id="svg1"
   sodipodi:docname="gear six purple_coral.svg"
   xmlns:inkscape="http://www.inkscape.org/namespaces/inkscape"
   xmlns:sodipodi="http://sodipodi.sourceforge.net/DTD/sodipodi-0.dtd"
   xmlns:xlink="http://www.w3.org/1999/xlink"
   xmlns="http://www.w3.org/2000/svg"
   xmlns:svg="http://www.w3.org/2000/svg">
  <defs
     id="defs3">
    <linearGradient
       id="linearGradient1"
       inkscape:collect="always">
      <stop
         style="stop-color:#ff7c66;stop-opacity:1;"
         offset="0"
         id="stop1" />
      <stop
         style="stop-color:#a03291;stop-opacity:1;"
         offset="0.76340693"
         id="stop2" />
    </linearGradient>
    <linearGradient
       inkscape:collect="always"
       xlink:href="#linearGradient1"
       id="linearGradient2"
       x1="232.4884"
       y1="23.847498"
       x2="23.977745"
       y2="232.35815"
       gradientUnits="userSpaceOnUse" />
  </defs>
  <defs
     id="defs1" />
  <sodipodi:namedview
     id="namedview1"
     pagecolor="#ffffff"
     bordercolor="#000000"
     borderopacity="0.25"
     inkscape:showpageshadow="2"
     inkscape:pageopacity="0.0"
     inkscape:pagecheckerboard="0"
     inkscape:deskcolor="#d1d1d1" />
  <path
     id="circle1"
     style="baseline-shift:baseline;display:inline;overflow:visible;vector-effect:none;fill:url(#linearGradient2);stroke-linecap:round;stroke-linejoin:round;enable-background:accumulate;stop-color:#000000;stop-opacity:1;opacity:1;fill-opacity:1"
     d="M 93.621094 24.009766 A 8.0008 8.0008 0 0 0 91.4375 24.421875 C 78.004166 28.962994 65.550959 36.001235 54.730469 45.166016 A 8.0008 8.0008 0 0 0 51.900391 51.234375 L 51.75 84.882812 L 21.947266 101.82617 A 8.0008 8.0008 0 0 0 18.052734 107.22852 C 15.339957 120.95002 15.339957 135.06951 18.052734 148.79102 A 8.0008 8.0008 0 0 0 21.941406 154.19141 L 51.777344 171.18359 L 51.890625 204.82617 A 8.0008 8.0008 0 0 0 54.730469 210.91406 C 65.560498 220.05234 78.018387 227.06424 91.449219 231.58203 A 8.0008 8.0008 0 0 0 97.898438 230.98633 L 128.04688 214.15625 L 158.0918 230.98047 A 8.0008 8.0008 0 0 0 164.56641 231.57812 C 177.99295 227.03131 190.44071 219.98854 201.25391 210.82227 A 8.0008 8.0008 0 0 0 204.08008 204.75586 L 204.23047 171.10742 L 234.0332 154.16406 A 8.0008 8.0008 0 0 0 237.92773 148.76172 C 240.64051 135.04022 240.64051 120.92072 237.92773 107.19922 A 8.0008 8.0008 0 0 0 234.03906 101.79883 L 204.22266 84.816406 L 204.10938 51.173828 A 8.0008 8.0008 0 0 0 201.26953 45.085938 C 190.4395 35.94766 177.98161 28.93576 164.55078 24.417969 A 8.0008 8.0008 0 0 0 158.0957 25.017578 L 128 41.84375 L 97.904297 25.017578 A 8.0008 8.0008 0 0 0 93.621094 24.009766 z M 162.62109 40.818359 C 171.80769 44.273812 180.39366 49.100437 188.12305 55.148438 L 188.23047 87.226562 A 8.0008 8.0008 0 0 0 189.47266 91.482422 C 190.09838 92.469477 190.66514 93.429124 191.17383 94.380859 A 8.0008 8.0008 0 0 0 194.27148 97.5625 L 222.74414 113.77734 C 224.23069 123.19342 224.23021 132.7616 222.74414 142.17773 L 194.28711 158.35547 A 8.0008 8.0008 0 0 0 191.27539 161.37305 C 190.66976 162.44455 190.04236 163.51421 189.40234 164.56836 A 8.0008 8.0008 0 0 0 188.24023 168.68359 L 188.09766 200.7793 C 180.37881 206.84951 171.79923 211.69841 162.61523 215.17578 L 133.95898 199.12891 A 8.0008 8.0008 0 0 0 130.05078 198.10938 L 126.05078 198.10938 A 8.0008 8.0008 0 0 0 122.15039 199.125 L 93.382812 215.18164 C 84.194932 211.7261 75.607297 206.90031 67.876953 200.85156 L 67.769531 168.77344 A 8.0008 8.0008 0 0 0 66.527344 164.51758 C 65.901621 163.53052 65.334858 162.57088 64.826172 161.61914 A 8.0008 8.0008 0 0 0 61.728516 158.4375 L 33.236328 142.21094 C 31.749887 132.79512 31.748413 123.22836 33.234375 113.8125 L 61.693359 97.634766 A 8.0008 8.0008 0 0 0 64.705078 94.617188 C 65.310713 93.545681 65.938108 92.47602 66.578125 91.421875 A 8.0008 8.0008 0 0 0 67.740234 87.304688 L 67.882812 55.210938 C 75.607669 49.141635 84.19484 44.295801 93.384766 40.822266 L 122.0957 56.873047 A 8.0008 8.0008 0 0 0 126 57.890625 L 130 57.890625 A 8.0008 8.0008 0 0 0 133.9043 56.873047 L 162.62109 40.818359 z M 128 80 C 101.58509 80 80 101.58509 80 128 C 80 154.41491 101.58509 176 128 176 C 154.41491 176 176 154.41491 176 128 C 176 101.58509 154.41491 80 128 80 z M 128 96 C 145.76787 96 160 110.23213 160 128 C 160 145.76787 145.76787 160 128 160 C 110.23213 160 96 145.76787 96 128 C 96 110.23213 110.23213 96 128 96 z " />
</svg>
