<?xml version="1.0" encoding="UTF-8" standalone="no"?>
<svg
   viewBox="0 0 256 256"
   version="1.1"
   id="svg2"
   sodipodi:docname="gender female purple_coral.svg"
   xmlns:inkscape="http://www.inkscape.org/namespaces/inkscape"
   xmlns:sodipodi="http://sodipodi.sourceforge.net/DTD/sodipodi-0.dtd"
   xmlns:xlink="http://www.w3.org/1999/xlink"
   xmlns="http://www.w3.org/2000/svg"
   xmlns:svg="http://www.w3.org/2000/svg">
  <defs
     id="defs3">
    <linearGradient
       id="linearGradient1"
       inkscape:collect="always">
      <stop
         style="stop-color:#ff7c66;stop-opacity:1;"
         offset="0"
         id="stop1" />
      <stop
         style="stop-color:#a03291;stop-opacity:1;"
         offset="0.76340693"
         id="stop2" />
    </linearGradient>
    <linearGradient
       inkscape:collect="always"
       xlink:href="#linearGradient1"
       id="linearGradient2"
       x1="232.4884"
       y1="23.847498"
       x2="23.977745"
       y2="232.35815"
       gradientUnits="userSpaceOnUse" />
  </defs>
  <defs
     id="defs2" />
  <sodipodi:namedview
     id="namedview2"
     pagecolor="#ffffff"
     bordercolor="#000000"
     borderopacity="0.25"
     inkscape:showpageshadow="2"
     inkscape:pageopacity="0.0"
     inkscape:pagecheckerboard="0"
     inkscape:deskcolor="#d1d1d1" />
  <path
     id="circle1"
     style="baseline-shift:baseline;display:inline;overflow:visible;vector-effect:none;fill:url(#linearGradient2);stroke-linecap:round;stroke-linejoin:round;enable-background:accumulate;stop-color:#000000;stop-opacity:1;opacity:1;fill-opacity:1"
     d="M 128 16 C 83.911977 16 48 51.911977 48 96 C 48 137.38858 79.648941 171.57077 120 175.60156 L 120 200 L 88 200 A 8 8 0 0 0 80 208 A 8 8 0 0 0 88 216 L 120 216 L 120 240 A 8 8 0 0 0 128 248 A 8 8 0 0 0 136 240 L 136 216 L 168 216 A 8 8 0 0 0 176 208 A 8 8 0 0 0 168 200 L 136 200 L 136 175.60156 C 176.35106 171.57077 208 137.38858 208 96 C 208 51.911977 172.08802 16 128 16 z M 128 32 C 163.44098 32 192 60.559019 192 96 C 192 131.44098 163.44098 160 128 160 C 92.559019 160 64 131.44098 64 96 C 64 60.559019 92.559019 32 128 32 z " />
</svg>
