<?xml version="1.0" encoding="UTF-8" standalone="no"?>
<svg
   viewBox="0 0 256 256"
   version="1.1"
   id="svg2"
   sodipodi:docname="ghost purple_coral.svg"
   xmlns:inkscape="http://www.inkscape.org/namespaces/inkscape"
   xmlns:sodipodi="http://sodipodi.sourceforge.net/DTD/sodipodi-0.dtd"
   xmlns:xlink="http://www.w3.org/1999/xlink"
   xmlns="http://www.w3.org/2000/svg"
   xmlns:svg="http://www.w3.org/2000/svg">
  <defs
     id="defs3">
    <linearGradient
       id="linearGradient1"
       inkscape:collect="always">
      <stop
         style="stop-color:#ff7c66;stop-opacity:1;"
         offset="0"
         id="stop1" />
      <stop
         style="stop-color:#a03291;stop-opacity:1;"
         offset="0.76340693"
         id="stop2" />
    </linearGradient>
    <linearGradient
       inkscape:collect="always"
       xlink:href="#linearGradient1"
       id="linearGradient2"
       x1="232.4884"
       y1="23.847498"
       x2="23.977745"
       y2="232.35815"
       gradientUnits="userSpaceOnUse" />
  </defs>
  <defs
     id="defs2" />
  <sodipodi:namedview
     id="namedview2"
     pagecolor="#ffffff"
     bordercolor="#000000"
     borderopacity="0.25"
     inkscape:showpageshadow="2"
     inkscape:pageopacity="0.0"
     inkscape:pagecheckerboard="0"
     inkscape:deskcolor="#d1d1d1" />
  <path
     id="circle1"
     style="baseline-shift:baseline;display:inline;overflow:visible;vector-effect:none;fill:url(#linearGradient2);stroke-linecap:round;stroke-linejoin:round;enable-background:accumulate;stop-color:#000000;stop-opacity:1;opacity:1;fill-opacity:1"
     d="M 128 24 C 75.07543 24 32 67.075391 32 120 L 32 216 A 8.0008 8.0008 0 0 0 45.066406 222.19141 L 69.330078 202.33594 L 93.605469 222.19141 A 8.0008 8.0008 0 0 0 103.73633 222.19141 L 128 202.33789 L 152.26367 222.19141 A 8.0008 8.0008 0 0 0 162.39453 222.19141 L 186.66992 202.33594 L 210.93359 222.19141 A 8.0008 8.0008 0 0 0 224 216 L 224 120 C 224 67.075391 180.92457 24 128 24 z M 128 40 C 172.27754 40 208 75.722427 208 120 L 208 199.11719 L 191.73633 185.80859 A 8.0008 8.0008 0 0 0 181.60547 185.80859 L 157.33008 205.66406 L 133.06641 185.80859 A 8.0008 8.0008 0 0 0 122.93359 185.80859 L 98.669922 205.66406 L 74.394531 185.80859 A 8.0008 8.0008 0 0 0 64.263672 185.80859 L 48 199.11719 L 48 120 C 48 75.722427 83.722456 40 128 40 z M 100 104 A 12 12 0 0 0 88 116 A 12 12 0 0 0 100 128 A 12 12 0 0 0 112 116 A 12 12 0 0 0 100 104 z M 156 104 A 12 12 0 0 0 144 116 A 12 12 0 0 0 156 128 A 12 12 0 0 0 168 116 A 12 12 0 0 0 156 104 z " />
</svg>
