<?xml version="1.0" encoding="UTF-8" standalone="no"?>
<svg
   viewBox="0 0 256 256"
   version="1.1"
   id="svg2"
   sodipodi:docname="google play logo purple_coral.svg"
   xmlns:inkscape="http://www.inkscape.org/namespaces/inkscape"
   xmlns:sodipodi="http://sodipodi.sourceforge.net/DTD/sodipodi-0.dtd"
   xmlns:xlink="http://www.w3.org/1999/xlink"
   xmlns="http://www.w3.org/2000/svg"
   xmlns:svg="http://www.w3.org/2000/svg">
  <defs
     id="defs3">
    <linearGradient
       id="linearGradient1"
       inkscape:collect="always">
      <stop
         style="stop-color:#ff7c66;stop-opacity:1;"
         offset="0"
         id="stop1" />
      <stop
         style="stop-color:#a03291;stop-opacity:1;"
         offset="0.76340693"
         id="stop2" />
    </linearGradient>
    <linearGradient
       inkscape:collect="always"
       xlink:href="#linearGradient1"
       id="linearGradient2"
       x1="232.4884"
       y1="23.847498"
       x2="23.977745"
       y2="232.35815"
       gradientUnits="userSpaceOnUse" />
  </defs>
  <defs
     id="defs2" />
  <sodipodi:namedview
     id="namedview2"
     pagecolor="#ffffff"
     bordercolor="#000000"
     borderopacity="0.25"
     inkscape:showpageshadow="2"
     inkscape:pageopacity="0.0"
     inkscape:pagecheckerboard="0"
     inkscape:deskcolor="#d1d1d1" />
  <path
     id="path1"
     style="baseline-shift:baseline;display:inline;overflow:visible;vector-effect:none;fill:url(#linearGradient2);stroke-linecap:round;stroke-linejoin:round;enable-background:accumulate;stop-color:#000000;stop-opacity:1;opacity:1;fill-opacity:1"
     d="M 64.054688 16.09375 C 60.795903 16.16248 57.608735 17.244323 54.943359 19.083984 A 8 8 0 0 0 52.673828 20.673828 A 8 8 0 0 0 51.330078 22.458984 C 49.314922 25.007689 48.054489 28.1849 48 31.738281 A 8.0008 8.0008 0 0 0 48 31.859375 L 48 224.14062 A 8.0008 8.0008 0 0 0 48 224.26172 C 48.054477 227.81434 49.315556 230.99081 51.330078 233.53906 A 8 8 0 0 0 52.673828 235.32617 A 8 8 0 0 0 54.943359 236.91602 C 59.839586 240.29464 66.49944 241.11484 72.121094 237.80273 L 195.39648 167.24219 A 8 8 0 0 0 196.52539 166.5957 L 239.80469 141.82422 C 250.34225 136.06767 250.34522 119.94488 239.81445 114.18164 L 239.80469 114.17578 C 239.79807 114.17216 239.79178 114.16767 239.78516 114.16406 L 196.01367 89.111328 L 72.121094 18.197266 C 69.559742 16.688197 66.781948 16.03623 64.054688 16.09375 z M 64 43.3125 L 148.6875 128 L 64 212.6875 L 64 43.3125 z M 90.417969 47.105469 L 178.92188 97.763672 L 160 116.6875 L 90.417969 47.105469 z M 193.3125 106.00195 L 231.74414 128 L 193.31055 149.99805 L 171.3125 128 L 193.3125 106.00195 z M 160 139.3125 L 178.92188 158.23438 L 90.419922 208.89258 L 160 139.3125 z " />
</svg>
