<?xml version="1.0" encoding="UTF-8" standalone="no"?>
<svg
   viewBox="0 0 256 256"
   version="1.1"
   id="svg1"
   sodipodi:docname="graduation cap purple_coral.svg"
   xmlns:inkscape="http://www.inkscape.org/namespaces/inkscape"
   xmlns:sodipodi="http://sodipodi.sourceforge.net/DTD/sodipodi-0.dtd"
   xmlns:xlink="http://www.w3.org/1999/xlink"
   xmlns="http://www.w3.org/2000/svg"
   xmlns:svg="http://www.w3.org/2000/svg">
  <defs
     id="defs3">
    <linearGradient
       id="linearGradient1"
       inkscape:collect="always">
      <stop
         style="stop-color:#ff7c66;stop-opacity:1;"
         offset="0"
         id="stop1" />
      <stop
         style="stop-color:#a03291;stop-opacity:1;"
         offset="0.76340693"
         id="stop2" />
    </linearGradient>
    <linearGradient
       inkscape:collect="always"
       xlink:href="#linearGradient1"
       id="linearGradient2"
       x1="232.4884"
       y1="23.847498"
       x2="23.977745"
       y2="232.35815"
       gradientUnits="userSpaceOnUse" />
  </defs>
  <defs
     id="defs1" />
  <sodipodi:namedview
     id="namedview1"
     pagecolor="#ffffff"
     bordercolor="#000000"
     borderopacity="0.25"
     inkscape:showpageshadow="2"
     inkscape:pageopacity="0.0"
     inkscape:pagecheckerboard="0"
     inkscape:deskcolor="#d1d1d1" />
  <path
     id="polygon1"
     style="baseline-shift:baseline;display:inline;overflow:visible;vector-effect:none;fill:url(#linearGradient2);stroke-linecap:round;stroke-linejoin:round;enable-background:accumulate;stop-color:#000000;stop-opacity:1;opacity:1;fill-opacity:1"
     d="M 127.43945 24.019531 A 8.0008 8.0008 0 0 0 124.23438 24.941406 L 4.234375 88.941406 A 8.0008 8.0008 0 0 0 4.234375 103.05859 L 32 117.86719 L 32 166.27148 C 31.991 170.17924 33.415242 173.95982 36 176.89062 A 8.0008 8.0008 0 0 0 36.050781 176.94922 C 48.337398 190.61428 78.203892 216 128 216 C 146.79603 216 162.75461 212.38413 176 207.14648 L 176 240 A 8 8 0 0 0 184 248 A 8 8 0 0 0 192 240 L 192 199.41406 C 205.11618 191.83246 214.36109 183.17379 219.95312 176.94336 A 8.0008 8.0008 0 0 0 220 176.89062 C 222.58476 173.95981 224.00902 170.17924 224 166.27148 L 224 117.86719 L 251.76562 103.05859 A 8.0008 8.0008 0 0 0 251.76562 88.941406 L 131.76562 24.941406 A 8.0008 8.0008 0 0 0 127.43945 24.019531 z M 128 41.066406 L 231 96 L 187.99414 118.9375 A 8.0008 8.0008 0 0 0 187.76562 118.81055 L 131.76562 88.941406 A 8 8 0 0 0 125.67188 88.345703 A 8 8 0 0 0 120.94141 92.234375 A 8 8 0 0 0 124.23438 103.05859 L 170.99805 128.00195 L 128 150.93359 L 25 96 L 128 41.066406 z M 48 126.40039 L 124.23438 167.05859 A 8.0008 8.0008 0 0 0 131.76562 167.05859 L 176 143.4668 L 176 189.83398 C 163.48566 195.6651 147.60335 200 128 200 C 83.657588 200 58.380372 177.83326 48 166.30469 A 8.0008 8.0008 0 0 0 48 166.28906 L 48 126.40039 z M 208 126.40039 L 208 166.28906 A 8.0008 8.0008 0 0 0 208 166.30469 C 204.46545 170.23751 199.1864 175.41491 192 180.52734 L 192 134.93359 L 208 126.40039 z " />
</svg>
