<?xml version="1.0" encoding="UTF-8" standalone="no"?>
<svg
   viewBox="0 0 256 256"
   version="1.1"
   id="svg3"
   sodipodi:docname="hair dryer purple_coral.svg"
   xmlns:inkscape="http://www.inkscape.org/namespaces/inkscape"
   xmlns:sodipodi="http://sodipodi.sourceforge.net/DTD/sodipodi-0.dtd"
   xmlns:xlink="http://www.w3.org/1999/xlink"
   xmlns="http://www.w3.org/2000/svg"
   xmlns:svg="http://www.w3.org/2000/svg">
  <defs
     id="defs3">
    <linearGradient
       id="linearGradient1"
       inkscape:collect="always">
      <stop
         style="stop-color:#ff7c66;stop-opacity:1;"
         offset="0"
         id="stop1" />
      <stop
         style="stop-color:#a03291;stop-opacity:1;"
         offset="0.76340693"
         id="stop2" />
    </linearGradient>
    <linearGradient
       inkscape:collect="always"
       xlink:href="#linearGradient1"
       id="linearGradient2"
       x1="232.4884"
       y1="23.847498"
       x2="23.977745"
       y2="232.35815"
       gradientUnits="userSpaceOnUse" />
  </defs>
  <defs
     id="defs1" />
  <sodipodi:namedview
     id="namedview3"
     pagecolor="#ffffff"
     bordercolor="#000000"
     borderopacity="0.25"
     inkscape:showpageshadow="2"
     inkscape:pageopacity="0.0"
     inkscape:pagecheckerboard="0"
     inkscape:deskcolor="#d1d1d1" />
  <path
     id="circle1"
     style="baseline-shift:baseline;display:inline;overflow:visible;vector-effect:none;fill:url(#linearGradient2);stroke-linecap:round;stroke-linejoin:round;enable-background:accumulate;stop-color:#000000;stop-opacity:1;opacity:1;fill-opacity:1"
     d="M 168 24 A 8.0008 8.0008 0 0 0 166.68555 24.109375 L 29.365234 46.998047 A 8.0008 8.0008 0 0 0 29.359375 47 C 21.703078 48.280845 16.000338 55.016601 16 62.779297 L 16 113.2207 C 16.000338 120.9834 21.703078 127.71916 29.359375 129 A 8.0008 8.0008 0 0 0 29.365234 129.00195 L 128 145.44336 L 128 200 C 128 208.7418 135.2582 216 144 216 C 144 237.99663 162.00337 256 184 256 L 200 256 A 8 8 0 0 0 208 248 A 8 8 0 0 0 200 240 L 184 240 C 170.65041 240 160 229.34959 160 216 L 162.84961 216 A 8.0008 8.0008 0 0 0 162.85352 216 C 169.10511 215.998 174.82459 212.3119 177.41211 206.62109 L 177.41406 206.61914 L 209.03711 137.05078 C 223.0598 125.29499 232 107.65825 232 88 C 232 52.748541 203.25149 24 168 24 z M 168.41211 40.041016 C 194.81982 40.266566 216 61.536831 216 88 C 216 103.20611 209.00683 116.6974 198.04688 125.4668 A 8 8 0 0 0 197.11719 126.19141 C 189.15381 132.24802 179.22092 135.86667 168.41211 135.95898 L 32 113.21875 L 32 62.78125 L 168.41211 40.041016 z M 168 56 C 150.42165 56 136 70.421645 136 88 C 136 105.57835 150.42165 120 168 120 C 185.57835 120 200 105.57835 200 88 C 200 70.421645 185.57835 56 168 56 z M 168 72 C 176.93131 72 184 79.068687 184 88 C 184 96.931313 176.93131 104 168 104 C 159.06869 104 152 96.931313 152 88 C 152 79.068687 159.06869 72 168 72 z M 144 148.10938 L 166.68555 151.89062 A 8.0008 8.0008 0 0 0 168 152 C 174.17808 152 180.1556 151.11698 185.81445 149.4707 L 162.84766 200 L 152 200 L 144 200 L 144 148.10938 z " />
</svg>
