<?xml version="1.0" encoding="UTF-8" standalone="no"?>
<svg
   viewBox="0 0 256 256"
   version="1.1"
   id="svg2"
   sodipodi:docname="hamburger purple_coral.svg"
   xmlns:inkscape="http://www.inkscape.org/namespaces/inkscape"
   xmlns:sodipodi="http://sodipodi.sourceforge.net/DTD/sodipodi-0.dtd"
   xmlns:xlink="http://www.w3.org/1999/xlink"
   xmlns="http://www.w3.org/2000/svg"
   xmlns:svg="http://www.w3.org/2000/svg">
  <defs
     id="defs3">
    <linearGradient
       id="linearGradient1"
       inkscape:collect="always">
      <stop
         style="stop-color:#ff7c66;stop-opacity:1;"
         offset="0"
         id="stop1" />
      <stop
         style="stop-color:#a03291;stop-opacity:1;"
         offset="0.76340693"
         id="stop2" />
    </linearGradient>
    <linearGradient
       inkscape:collect="always"
       xlink:href="#linearGradient1"
       id="linearGradient2"
       x1="232.4884"
       y1="23.847498"
       x2="23.977745"
       y2="232.35815"
       gradientUnits="userSpaceOnUse" />
  </defs>
  <defs
     id="defs2" />
  <sodipodi:namedview
     id="namedview2"
     pagecolor="#ffffff"
     bordercolor="#000000"
     borderopacity="0.25"
     inkscape:showpageshadow="2"
     inkscape:pageopacity="0.0"
     inkscape:pagecheckerboard="0"
     inkscape:deskcolor="#d1d1d1" />
  <path
     id="path1"
     style="baseline-shift:baseline;display:inline;overflow:visible;vector-effect:none;fill:url(#linearGradient2);stroke-linecap:round;stroke-linejoin:round;enable-background:accumulate;stop-color:#000000;stop-opacity:1;opacity:1;fill-opacity:1"
     d="M 128 24 C 80.714689 24 39.983317 48.698817 32.365234 84.583984 C 30.210171 94.44303 38.051391 104.09738 48.146484 104 L 207.85352 104 C 217.94861 104.0974 225.78983 94.44303 223.63477 84.583984 C 216.01668 48.698817 175.28531 24 128 24 z M 128 40 C 169.65626 40 202.58936 62.383423 207.99414 87.935547 A 8.0008 8.0008 0 0 0 208.00781 88 A 8.0008 8.0008 0 0 0 207.92969 88 L 48.070312 88 A 8.0008 8.0008 0 0 0 47.992188 88 A 8.0008 8.0008 0 0 0 48.005859 87.935547 C 53.410644 62.383423 86.343741 40 128 40 z M 24 120 A 8 8 0 0 0 16 128 A 8 8 0 0 0 24 136 L 232 136 A 8 8 0 0 0 240 128 A 8 8 0 0 0 232 120 L 24 120 z M 148 152 A 8.0008 8.0008 0 0 0 145.0293 152.57227 L 108 167.38281 L 70.970703 152.57227 A 8.0008 8.0008 0 0 0 65.265625 152.48242 L 45.501953 159.66992 A 8 8 0 0 0 45.042969 159.83594 L 45.041016 159.83594 L 21.265625 168.48242 A 8 8 0 0 0 16.482422 178.73438 A 8 8 0 0 0 26.734375 183.51758 L 40 178.69336 L 40 184 C 40 205.99663 58.003367 224 80 224 L 176 224 C 197.99663 224 216 205.99663 216 184 L 216 174.33008 L 234.73438 167.51758 A 8 8 0 0 0 239.51758 157.26562 A 8 8 0 0 0 229.26562 152.48242 L 188.13672 167.4375 L 150.9707 152.57227 A 8.0008 8.0008 0 0 0 148 152 z M 67.863281 168.5625 L 105.0293 183.42773 A 8.0008 8.0008 0 0 0 110.9707 183.42773 L 148 168.61719 L 185.0293 183.42773 A 8.0008 8.0008 0 0 0 190.73438 183.51758 L 200 180.14844 L 200 184 C 200 197.34959 189.34959 208 176 208 L 80 208 C 66.650409 208 56 197.34959 56 184 L 56 172.87695 L 67.863281 168.5625 z " />
</svg>
