<?xml version="1.0" encoding="UTF-8" standalone="no"?>
<svg
   viewBox="0 0 256 256"
   version="1.1"
   id="svg2"
   sodipodi:docname="hammer purple_coral.svg"
   xmlns:inkscape="http://www.inkscape.org/namespaces/inkscape"
   xmlns:sodipodi="http://sodipodi.sourceforge.net/DTD/sodipodi-0.dtd"
   xmlns:xlink="http://www.w3.org/1999/xlink"
   xmlns="http://www.w3.org/2000/svg"
   xmlns:svg="http://www.w3.org/2000/svg">
  <defs
     id="defs3">
    <linearGradient
       id="linearGradient1"
       inkscape:collect="always">
      <stop
         style="stop-color:#ff7c66;stop-opacity:1;"
         offset="0"
         id="stop1" />
      <stop
         style="stop-color:#a03291;stop-opacity:1;"
         offset="0.76340693"
         id="stop2" />
    </linearGradient>
    <linearGradient
       inkscape:collect="always"
       xlink:href="#linearGradient1"
       id="linearGradient2"
       x1="232.4884"
       y1="23.847498"
       x2="23.977745"
       y2="232.35815"
       gradientUnits="userSpaceOnUse" />
  </defs>
  <defs
     id="defs2" />
  <sodipodi:namedview
     id="namedview2"
     pagecolor="#ffffff"
     bordercolor="#000000"
     borderopacity="0.25"
     inkscape:showpageshadow="2"
     inkscape:pageopacity="0.0"
     inkscape:pagecheckerboard="0"
     inkscape:deskcolor="#d1d1d1" />
  <path
     id="line1"
     style="baseline-shift:baseline;display:inline;overflow:visible;vector-effect:none;fill:url(#linearGradient2);stroke-linecap:round;stroke-linejoin:round;enable-background:accumulate;stop-color:#000000;stop-opacity:1;opacity:1;fill-opacity:1"
     d="M 116 16.041016 C 91.412476 16.041016 66.825507 25.398287 48.113281 44.113281 A 8.0008 8.0008 0 0 0 48.021484 44.207031 L 34.251953 58.4375 A 8 8 0 0 0 34.4375 69.748047 A 8 8 0 0 0 45.748047 69.5625 L 59.451172 55.404297 C 65.133549 49.725519 71.460406 45.10932 78.177734 41.492188 L 124.6875 88 L 102.53711 110.1582 L 102.5 110.19336 A 8 8 0 0 0 102.34375 110.34375 A 8 8 0 0 0 102.15625 110.53711 A 8 8 0 0 0 102.1543 110.54102 L 28.681641 184.0332 A 8.0008 8.0008 0 0 0 28.681641 184.03516 C 22.505039 190.21581 22.505039 200.47365 28.681641 206.6543 A 8.0008 8.0008 0 0 0 28.6875 206.66016 L 49.376953 227.32031 C 55.557815 233.49493 65.81415 233.49435 71.994141 227.31836 A 8.0008 8.0008 0 0 0 71.996094 227.31641 L 145.65625 153.65625 L 168.00195 131.31055 L 182.06055 145.35742 L 182.07031 145.36914 A 8 8 0 0 0 182.34375 145.65625 A 8 8 0 0 0 182.64453 145.94141 A 8 8 0 0 0 182.64648 145.94336 L 200.03516 163.31836 C 206.21581 169.49496 216.47365 169.49496 222.6543 163.31836 A 8.0008 8.0008 0 0 0 222.66016 163.31445 L 251.31836 134.625 L 251.32031 134.62305 C 257.49493 128.44218 257.49435 118.18585 251.31836 112.00586 L 251.33594 112.02148 L 233.7168 94.283203 L 183.90625 44.132812 A 8.0008 8.0008 0 0 0 183.88672 44.113281 C 165.17421 25.398366 140.58752 16.041016 116 16.041016 z M 116 31.941406 C 136.45888 31.941406 156.9173 39.7685 172.57227 55.425781 L 216.76562 99.919922 L 188.00586 128.68164 L 173.6543 114.3418 A 8.0008 8.0008 0 0 0 162.34375 114.34375 L 140 136.6875 L 119.31641 116.00391 L 141.6582 93.65625 A 8.0008 8.0008 0 0 0 141.65625 82.34375 L 94.298828 34.984375 C 101.38929 32.98574 108.69045 31.941406 116 31.941406 z M 228.04102 111.27344 L 239.98438 123.29688 A 8.0008 8.0008 0 0 0 240.00195 123.31445 A 8.0008 8.0008 0 0 0 240 123.31641 L 211.34375 152 L 199.32422 139.99023 L 228.04102 111.27344 z M 108.00586 127.31836 L 128.6875 148 L 60.685547 216.00195 A 8.0008 8.0008 0 0 0 60.683594 216 L 39.998047 195.3457 L 108.00586 127.31836 z " />
</svg>
