<?xml version="1.0" encoding="UTF-8" standalone="no"?>
<svg
   viewBox="0 0 256 256"
   version="1.1"
   id="svg5"
   sodipodi:docname="hand waving purple_coral.svg"
   xmlns:inkscape="http://www.inkscape.org/namespaces/inkscape"
   xmlns:sodipodi="http://sodipodi.sourceforge.net/DTD/sodipodi-0.dtd"
   xmlns:xlink="http://www.w3.org/1999/xlink"
   xmlns="http://www.w3.org/2000/svg"
   xmlns:svg="http://www.w3.org/2000/svg">
  <defs
     id="defs3">
    <linearGradient
       id="linearGradient1"
       inkscape:collect="always">
      <stop
         style="stop-color:#ff7c66;stop-opacity:1;"
         offset="0"
         id="stop1" />
      <stop
         style="stop-color:#a03291;stop-opacity:1;"
         offset="0.76340693"
         id="stop2" />
    </linearGradient>
    <linearGradient
       inkscape:collect="always"
       xlink:href="#linearGradient1"
       id="linearGradient2"
       x1="232.4884"
       y1="23.847498"
       x2="23.977745"
       y2="232.35815"
       gradientUnits="userSpaceOnUse" />
  </defs>
  <defs
     id="defs5" />
  <sodipodi:namedview
     id="namedview5"
     pagecolor="#ffffff"
     bordercolor="#000000"
     borderopacity="0.25"
     inkscape:showpageshadow="2"
     inkscape:pageopacity="0.0"
     inkscape:pagecheckerboard="0"
     inkscape:deskcolor="#d1d1d1" />
  <path
     id="path1"
     style="baseline-shift:baseline;display:inline;overflow:visible;vector-effect:none;fill:url(#linearGradient2);stroke-linecap:round;stroke-linejoin:round;enable-background:accumulate;stop-color:#000000;stop-opacity:1;opacity:1;fill-opacity:1"
     d="M 115.89062 24.216797 C 110.5238 23.843428 105.00351 24.998624 100.03516 27.867188 C 95.648187 30.400077 92.204586 33.973966 89.833984 38.103516 C 85.373567 34.580855 79.939128 32.508722 74.333984 32.103516 C 68.945388 31.713964 63.398568 32.864525 58.40625 35.746094 C 45.093402 43.430277 40.466201 60.687141 48.150391 74 A 8.0008 8.0008 0 0 0 48.152344 74 L 49.832031 76.912109 C 45.80446 77.221602 41.79215 78.407029 38.085938 80.546875 C 24.836998 88.196379 20.184636 105.33537 27.746094 118.63477 A 8.0008 8.0008 0 0 0 27.771484 118.67773 L 67.771484 187.99805 C 92.024111 230.01875 145.98323 244.48698 188.00391 220.23438 C 230.02458 195.98177 244.49091 142.02266 220.23828 100.00195 L 202.92969 70.003906 L 202.92969 70.001953 C 198.1278 61.676628 189.58402 56.744674 180.59961 56.091797 C 175.20866 55.700049 169.65979 56.849426 164.66406 59.730469 C 160.93671 61.880039 157.88923 64.779699 155.60156 68.132812 L 138.21875 38.001953 A 8.0008 8.0008 0 0 0 138.19141 37.953125 C 133.3556 29.704428 124.83531 24.839078 115.89062 24.216797 z M 191.9707 25.779297 A 8 8 0 0 0 184.26562 31.738281 A 8 8 0 0 0 189.95703 41.515625 C 201.26112 44.500562 210.89852 51.870534 216.74023 61.998047 A 8.0008 8.0008 0 0 0 216.74609 62.007812 L 217.07617 62.578125 A 8 8 0 0 0 228.00781 65.494141 A 8 8 0 0 0 230.92383 54.5625 L 230.59961 54.001953 L 230.59766 53.998047 C 222.62734 40.182723 209.46402 30.116977 194.04297 26.044922 A 8 8 0 0 0 191.9707 25.779297 z M 113.71484 40.082031 C 117.94415 39.943373 122.06285 42.079561 124.38867 46.046875 L 154.36133 97.998047 A 8 8 0 0 0 154.70117 98.535156 L 157.88086 104.04883 C 142.15795 120.0648 139.31346 145.37656 152.24414 164.48438 A 8 8 0 0 0 163.35352 166.625 A 8 8 0 0 0 165.49609 155.51562 C 155.88356 141.31107 159.0769 122.27022 172.79883 111.98047 A 8.0008 8.0008 0 0 0 174.92969 101.58203 L 168.25 90.003906 L 168.25 90.001953 C 164.88843 84.170951 166.82552 76.952435 172.65625 73.589844 C 178.48754 70.22693 185.7074 72.164798 189.07031 77.996094 A 8.0008 8.0008 0 0 0 189.07031 77.998047 L 206.38086 107.99805 C 226.31104 142.52958 214.53737 186.44678 180.00586 206.37695 C 145.47435 226.30712 101.55909 214.53349 81.628906 180.00195 L 41.654297 110.72656 L 41.654297 110.72461 C 38.349473 104.9099 40.293548 97.746679 46.085938 94.402344 C 51.72813 91.144727 58.686005 92.863861 62.169922 98.287109 L 62.390625 98.669922 A 8 8 0 0 0 62.638672 99.070312 L 81.640625 131.99805 A 8 8 0 0 0 92.568359 134.92969 A 8 8 0 0 0 95.498047 124.00195 L 76.269531 90.681641 A 8.0008 8.0008 0 0 0 76.242188 90.634766 C 76.127623 90.439345 76.011236 90.246299 75.892578 90.054688 L 62.007812 66 C 58.6463 60.176179 60.580479 52.965027 66.404297 49.603516 C 72.228115 46.242004 79.439269 48.17618 82.800781 54 L 89.544922 65.683594 C 89.594874 65.773754 89.644249 65.86331 89.695312 65.953125 A 8 8 0 0 0 89.861328 66.230469 L 113.9707 108 A 8 8 0 0 0 124.89844 110.92773 A 8 8 0 0 0 127.82812 100 L 103.45898 57.78125 C 100.35956 52.015301 102.33204 45.016577 108.03711 41.722656 C 109.84741 40.67745 111.79243 40.145058 113.71484 40.082031 z M 47.011719 192 A 8 8 0 0 0 43.011719 193.06641 A 8 8 0 0 0 40.066406 203.98828 C 47.66295 217.19433 57.706069 228.8324 69.660156 238.27734 A 8 8 0 0 0 80.896484 236.95898 A 8 8 0 0 0 79.580078 225.72266 C 69.221344 217.53821 60.516328 207.45533 53.933594 196.01172 A 8 8 0 0 0 49.082031 192.27539 A 8 8 0 0 0 47.011719 192 z " />
</svg>
