<?xml version="1.0" encoding="UTF-8" standalone="no"?>
<svg
   viewBox="0 0 256 256"
   version="1.1"
   id="svg2"
   sodipodi:docname="handbag purple_coral.svg"
   xmlns:inkscape="http://www.inkscape.org/namespaces/inkscape"
   xmlns:sodipodi="http://sodipodi.sourceforge.net/DTD/sodipodi-0.dtd"
   xmlns:xlink="http://www.w3.org/1999/xlink"
   xmlns="http://www.w3.org/2000/svg"
   xmlns:svg="http://www.w3.org/2000/svg">
  <defs
     id="defs3">
    <linearGradient
       id="linearGradient1"
       inkscape:collect="always">
      <stop
         style="stop-color:#ff7c66;stop-opacity:1;"
         offset="0"
         id="stop1" />
      <stop
         style="stop-color:#a03291;stop-opacity:1;"
         offset="0.76340693"
         id="stop2" />
    </linearGradient>
    <linearGradient
       inkscape:collect="always"
       xlink:href="#linearGradient1"
       id="linearGradient2"
       x1="232.4884"
       y1="23.847498"
       x2="23.977745"
       y2="232.35815"
       gradientUnits="userSpaceOnUse" />
  </defs>
  <defs
     id="defs2" />
  <sodipodi:namedview
     id="namedview2"
     pagecolor="#ffffff"
     bordercolor="#000000"
     borderopacity="0.25"
     inkscape:showpageshadow="2"
     inkscape:pageopacity="0.0"
     inkscape:pagecheckerboard="0"
     inkscape:deskcolor="#d1d1d1" />
  <path
     id="path1"
     style="baseline-shift:baseline;display:inline;overflow:visible;vector-effect:none;fill:url(#linearGradient2);stroke-linecap:round;stroke-linejoin:round;enable-background:accumulate;stop-color:#000000;stop-opacity:1;opacity:1;fill-opacity:1"
     d="M 128 16 C 101.5851 16 80 37.585077 80 64 L 46.330078 64 C 38.285918 63.999 31.378679 70.104642 30.390625 78.087891 A 8.0008 8.0008 0 0 0 30.386719 78.126953 L 16.136719 198.12695 A 8.0008 8.0008 0 0 0 16.134766 198.14062 C 15.032482 207.55647 22.654848 216.0643 32.134766 216 L 223.86523 216 C 233.34515 216.0643 240.96752 207.55647 239.86523 198.14062 A 8.0008 8.0008 0 0 0 239.86328 198.12695 L 225.61328 78.126953 A 8.0008 8.0008 0 0 0 225.60938 78.087891 C 224.62147 70.104642 217.71408 63.998971 209.66992 64 L 176 64 C 176 37.585077 154.4149 16 128 16 z M 128 32 C 145.76788 32 160 46.232113 160 64 L 96 64 C 96 46.232113 110.23212 32 128 32 z M 46.267578 79.992188 L 46.269531 79.992188 L 46.271484 79.992188 C 46.277618 79.99437 46.292957 79.999992 46.328125 80 A 8.0008 8.0008 0 0 0 46.330078 80 L 80 80 L 80 104 A 8 8 0 0 0 88 112 A 8 8 0 0 0 96 104 L 96 80 L 160 80 L 160 104 A 8 8 0 0 0 168 112 A 8 8 0 0 0 176 104 L 176 80 L 209.66992 80 A 8.0008 8.0008 0 0 0 209.67188 80 C 209.70705 79.999995 209.72433 79.99437 209.73047 79.992188 L 209.73242 79.992188 C 209.73181 79.996386 209.72544 80.012016 209.73047 80.052734 L 223.97461 200 A 8.0008 8.0008 0 0 0 223.91992 200 L 32.080078 200 A 8.0008 8.0008 0 0 0 32.025391 200 L 46.269531 80.052734 C 46.274571 80.012016 46.268188 79.996387 46.267578 79.992188 z " />
</svg>
