<?xml version="1.0" encoding="UTF-8" standalone="no"?>
<svg
   viewBox="0 0 256 256"
   version="1.1"
   id="svg4"
   sodipodi:docname="hand eye purple_coral.svg"
   xmlns:inkscape="http://www.inkscape.org/namespaces/inkscape"
   xmlns:sodipodi="http://sodipodi.sourceforge.net/DTD/sodipodi-0.dtd"
   xmlns:xlink="http://www.w3.org/1999/xlink"
   xmlns="http://www.w3.org/2000/svg"
   xmlns:svg="http://www.w3.org/2000/svg">
  <defs
     id="defs3">
    <linearGradient
       id="linearGradient1"
       inkscape:collect="always">
      <stop
         style="stop-color:#ff7c66;stop-opacity:1;"
         offset="0"
         id="stop1" />
      <stop
         style="stop-color:#a03291;stop-opacity:1;"
         offset="0.76340693"
         id="stop2" />
    </linearGradient>
    <linearGradient
       inkscape:collect="always"
       xlink:href="#linearGradient1"
       id="linearGradient2"
       x1="232.4884"
       y1="23.847498"
       x2="23.977745"
       y2="232.35815"
       gradientUnits="userSpaceOnUse" />
  </defs>
  <defs
     id="defs4" />
  <sodipodi:namedview
     id="namedview4"
     pagecolor="#ffffff"
     bordercolor="#000000"
     borderopacity="0.25"
     inkscape:showpageshadow="2"
     inkscape:pageopacity="0.0"
     inkscape:pagecheckerboard="0"
     inkscape:deskcolor="#d1d1d1" />
  <path
     id="path1"
     style="baseline-shift:baseline;display:inline;overflow:visible;vector-effect:none;fill:url(#linearGradient2);stroke-linecap:round;stroke-linejoin:round;enable-background:accumulate;stop-color:#000000;stop-opacity:1;opacity:1;fill-opacity:1"
     d="M 108 16 C 92.630792 16 80 28.630779 80 44 L 80 50.730469 C 76.355628 48.981838 72.284206 48 68 48 C 52.630792 48 40 60.630779 40 76 L 40 152 C 40 200.50633 79.493708 240 128 240 C 176.50629 240 216 200.50633 216 152 L 216 116 C 216 100.63078 203.36921 88 188 88 C 183.71579 88 179.64437 88.981838 176 90.730469 L 176 60 C 176 44.630779 163.36921 32 148 32 C 143.17594 32 138.62116 33.24488 134.64258 35.427734 C 130.98982 24.201381 120.38416 16 108 16 z M 108 32 C 114.72218 32 120 37.277816 120 44 L 120 104 A 8 8 0 0 0 128 112 A 8 8 0 0 0 136 104 L 136 60 C 136 53.277816 141.27782 48 148 48 C 154.72218 48 160 53.277816 160 60 L 160 120 A 8 8 0 0 0 168 128 A 8 8 0 0 0 176 120 L 176 116 C 176 109.27782 181.27782 104 188 104 C 194.72218 104 200 109.27782 200 116 L 200 152 C 200 191.85929 167.85927 224 128 224 C 88.140734 224 56 191.85929 56 152 L 56 76 C 56 69.277816 61.277818 64 68 64 C 74.722182 64 80 69.277816 80 76 L 80 112 A 8 8 0 0 0 88 120 A 8 8 0 0 0 96 112 L 96 76 L 96 44 C 96 37.277816 101.27782 32 108 32 z M 128 128 C 90.666667 128 72.84375 164.42188 72.84375 164.42188 A 8.0008 8.0008 0 0 0 72.84375 171.57812 C 72.84375 171.57812 90.666667 208 128 208 C 165.33333 208 183.15625 171.57813 183.15625 171.57812 A 8.0008 8.0008 0 0 0 183.15625 164.42188 C 183.15625 164.42188 165.33333 128 128 128 z M 128 144 C 149.12976 144 162.05074 160.80984 166.6582 168 C 162.05074 175.19016 149.12976 192 128 192 C 106.87024 192 93.949258 175.19016 89.341797 168 C 93.949258 160.80984 106.87024 144 128 144 z M 128 156 A 12 12 0 0 0 116 168 A 12 12 0 0 0 128 180 A 12 12 0 0 0 140 168 A 12 12 0 0 0 128 156 z " />
</svg>
