<?xml version="1.0" encoding="UTF-8" standalone="no"?>
<svg
   viewBox="0 0 256 256"
   version="1.1"
   id="svg3"
   sodipodi:docname="hand coins purple_coral.svg"
   xmlns:inkscape="http://www.inkscape.org/namespaces/inkscape"
   xmlns:sodipodi="http://sodipodi.sourceforge.net/DTD/sodipodi-0.dtd"
   xmlns:xlink="http://www.w3.org/1999/xlink"
   xmlns="http://www.w3.org/2000/svg"
   xmlns:svg="http://www.w3.org/2000/svg">
  <defs
     id="defs3">
    <linearGradient
       id="linearGradient1"
       inkscape:collect="always">
      <stop
         style="stop-color:#ff7c66;stop-opacity:1;"
         offset="0"
         id="stop1" />
      <stop
         style="stop-color:#a03291;stop-opacity:1;"
         offset="0.76340693"
         id="stop2" />
    </linearGradient>
    <linearGradient
       inkscape:collect="always"
       xlink:href="#linearGradient1"
       id="linearGradient2"
       x1="232.4884"
       y1="23.847498"
       x2="23.977745"
       y2="232.35815"
       gradientUnits="userSpaceOnUse" />
  </defs>
  <defs
     id="defs1" />
  <sodipodi:namedview
     id="namedview3"
     pagecolor="#ffffff"
     bordercolor="#000000"
     borderopacity="0.25"
     inkscape:showpageshadow="2"
     inkscape:pageopacity="0.0"
     inkscape:pagecheckerboard="0"
     inkscape:deskcolor="#d1d1d1" />
  <path
     id="circle1"
     style="baseline-shift:baseline;display:inline;overflow:visible;vector-effect:none;fill:url(#linearGradient2);stroke-linecap:round;stroke-linejoin:round;enable-background:accumulate;stop-color:#000000;stop-opacity:1;opacity:1;fill-opacity:1"
     d="M 164.21289 23.982422 C 163.25377 23.978569 162.29819 24.013724 161.34766 24.085938 C 149.94121 24.952483 139.3141 31.239494 133.18945 41.414062 C 125.02326 54.980156 126.70943 72.385583 137.33203 84.128906 C 145.67278 93.349637 158.03737 97.438349 169.89453 95.492188 C 174.72247 109.69636 188.2255 120 204 120 C 223.78749 120 240 103.78749 240 84 C 240 64.212506 223.78749 48 204 48 C 202.00588 48 200.04725 48.164094 198.13867 48.480469 C 194.29582 37.119003 184.90651 28.131745 172.875 25.082031 C 169.99696 24.352515 167.09025 23.99398 164.21289 23.982422 z M 164.11523 39.972656 C 165.71579 39.982425 167.33495 40.1841 168.94336 40.591797 C 176.0279 42.387567 181.41274 47.791706 183.29883 54.599609 C 175.21833 60.31885 169.56649 69.274279 168.2793 79.529297 C 161.38504 81.041983 154.09621 78.812295 149.19727 73.396484 C 143.26073 66.833622 142.33158 57.249463 146.89648 49.666016 C 150.60547 43.504464 157.17948 39.930325 164.11523 39.972656 z M 204 64 C 215.14045 64 224 72.859548 224 84 C 224 95.140452 215.14045 104 204 104 C 192.85955 104 184 95.140452 184 84 C 184 76.205297 188.33684 69.526898 194.75781 66.21875 A 8 8 0 0 0 196.0332 65.619141 C 198.46779 64.576568 201.15994 64 204 64 z M 90.019531 112 C 81.527728 111.9792 73.368535 115.33976 67.353516 121.33398 A 8.0008 8.0008 0 0 0 67.34375 121.34375 L 44.6875 144 L 16 144 C 7.2582011 144 0 151.2582 0 160 L 0 200 C 0 208.7418 7.2582011 216 16 216 L 48 216 L 120 216 A 8.0008 8.0008 0 0 0 121.93945 215.76172 L 185.93945 199.76172 A 8.0008 8.0008 0 0 0 187.13867 199.35938 L 225.95898 182.79883 A 8.0008 8.0008 0 0 0 226.39258 182.59766 C 234.7189 178.441 240.00383 169.89214 240 160.58594 A 8.0008 8.0008 0 0 0 240 160.58008 C 239.98141 144.65062 224.52288 132.7837 209.1582 136.80469 L 209.11719 136.81445 C 209.099 136.81925 209.08069 136.82133 209.0625 136.82617 L 167.16211 146.46289 C 167.66447 144.37704 168 142.23173 168 140 C 168 124.63078 155.36922 112 140 112 L 90.019531 112 z M 89.980469 128 A 8.0008 8.0008 0 0 0 90 128 L 140 128 C 146.72217 128 152 133.27783 152 140 C 152 146.72217 146.72217 152 140 152 L 112 152 A 8.0008 8.0008 0 0 0 106.41602 154.38281 A 8.0008 8.0008 0 0 0 104.11328 160 A 8.0008 8.0008 0 0 0 112 168 L 140 168 L 144 168 A 8.0008 8.0008 0 0 0 145.79297 167.79688 L 212.79297 152.38672 A 8.0008 8.0008 0 0 0 213.11523 152.30469 C 218.78658 150.75049 223.99194 154.71765 224 160.59766 L 224 160.59961 C 223.99914 163.84669 222.19387 166.76973 219.30469 168.24219 L 181.44531 184.39258 L 119.01562 200 L 56 200 L 56 155.31445 L 78.646484 132.66602 C 81.657275 129.66564 85.729936 127.98958 89.980469 128 z M 16 160 L 40 160 L 40 200 L 16 200 L 16 160 z " />
</svg>
