<?xml version="1.0" encoding="UTF-8" standalone="no"?>
<svg
   viewBox="0 0 256 256"
   version="1.1"
   id="svg2"
   sodipodi:docname="horse purple_coral.svg"
   xmlns:inkscape="http://www.inkscape.org/namespaces/inkscape"
   xmlns:sodipodi="http://sodipodi.sourceforge.net/DTD/sodipodi-0.dtd"
   xmlns:xlink="http://www.w3.org/1999/xlink"
   xmlns="http://www.w3.org/2000/svg"
   xmlns:svg="http://www.w3.org/2000/svg">
  <defs
     id="defs3">
    <linearGradient
       id="linearGradient1"
       inkscape:collect="always">
      <stop
         style="stop-color:#ff7c66;stop-opacity:1;"
         offset="0"
         id="stop1" />
      <stop
         style="stop-color:#a03291;stop-opacity:1;"
         offset="0.76340693"
         id="stop2" />
    </linearGradient>
    <linearGradient
       inkscape:collect="always"
       xlink:href="#linearGradient1"
       id="linearGradient2"
       x1="232.4884"
       y1="23.847498"
       x2="23.977745"
       y2="232.35815"
       gradientUnits="userSpaceOnUse" />
  </defs>
  <defs
     id="defs2" />
  <sodipodi:namedview
     id="namedview2"
     pagecolor="#ffffff"
     bordercolor="#000000"
     borderopacity="0.25"
     inkscape:showpageshadow="2"
     inkscape:pageopacity="0.0"
     inkscape:pagecheckerboard="0"
     inkscape:deskcolor="#d1d1d1" />
  <path
     id="path1"
     style="baseline-shift:baseline;display:inline;overflow:visible;vector-effect:none;fill:url(#linearGradient2);stroke-linecap:round;stroke-linejoin:round;enable-background:accumulate;stop-color:#000000;stop-opacity:1;opacity:1;fill-opacity:1"
     d="M 120 24 A 8.0008 8.0008 0 0 0 112 32 L 112 59.529297 L 11.806641 121.1875 A 8.0008 8.0008 0 0 0 9.2207031 132.24805 L 23.011719 154.24805 A 8.0008 8.0008 0 0 0 23.300781 154.67969 C 30.434872 164.57347 42.625129 169.56067 54.648438 167.50586 A 8.0008 8.0008 0 0 0 54.654297 167.50391 C 70.064979 164.85754 94.126574 161.5183 115.98633 170.88477 L 89.429688 207.42773 C 82.09787 203.9214 75.345163 199.41737 69.335938 194.03906 A 8 8 0 0 0 58.039062 194.66406 A 8 8 0 0 0 58.664062 205.96094 C 77.594009 222.9034 102.78234 232.51515 130.0918 231.99805 A 8.0008 8.0008 0 0 0 130.0957 231.99805 C 185.85242 230.91497 231.20643 185.25744 231.98828 129.50586 L 231.98828 129.50391 C 232.82579 71.583469 185.92684 23.999962 128 24 L 120 24 z M 128 40 C 177.19856 39.999967 216.70259 80.080032 215.99023 129.27344 A 8.0008 8.0008 0 0 0 215.99023 129.27734 C 215.33002 176.48267 176.98923 215.08298 129.78906 216.00195 C 121.19531 216.16468 112.91433 215.14677 105.07617 213.11328 L 132.15625 175.8457 L 132.1582 175.8457 C 161.06393 173.70461 184 149.43472 184 120 A 8 8 0 0 0 176 112 A 8 8 0 0 0 168 120 C 168 141.47205 151.31508 158.84896 130.12891 159.94531 C 101.10981 143.61805 69.209128 148.7712 51.953125 151.73438 C 45.941544 152.76178 39.920165 150.30241 36.332031 145.37695 L 27.0625 130.58594 L 124.19336 70.8125 A 8.0008 8.0008 0 0 0 128 64 L 128 40 z M 124 88 A 12 12 0 0 0 112 100 A 12 12 0 0 0 124 112 A 12 12 0 0 0 136 100 A 12 12 0 0 0 124 88 z " />
</svg>
