<?xml version="1.0" encoding="UTF-8" standalone="no"?>
<svg
   viewBox="0 0 256 256"
   version="1.1"
   id="svg1"
   sodipodi:docname="house simple purple_coral.svg"
   xmlns:inkscape="http://www.inkscape.org/namespaces/inkscape"
   xmlns:sodipodi="http://sodipodi.sourceforge.net/DTD/sodipodi-0.dtd"
   xmlns:xlink="http://www.w3.org/1999/xlink"
   xmlns="http://www.w3.org/2000/svg"
   xmlns:svg="http://www.w3.org/2000/svg">
  <defs
     id="defs3">
    <linearGradient
       id="linearGradient1"
       inkscape:collect="always">
      <stop
         style="stop-color:#ff7c66;stop-opacity:1;"
         offset="0"
         id="stop1" />
      <stop
         style="stop-color:#a03291;stop-opacity:1;"
         offset="0.76340693"
         id="stop2" />
    </linearGradient>
    <linearGradient
       inkscape:collect="always"
       xlink:href="#linearGradient1"
       id="linearGradient2"
       x1="232.4884"
       y1="23.847498"
       x2="23.977745"
       y2="232.35815"
       gradientUnits="userSpaceOnUse" />
  </defs>
  <defs
     id="defs1" />
  <sodipodi:namedview
     id="namedview1"
     pagecolor="#ffffff"
     bordercolor="#000000"
     borderopacity="0.25"
     inkscape:showpageshadow="2"
     inkscape:pageopacity="0.0"
     inkscape:pagecheckerboard="0"
     inkscape:deskcolor="#d1d1d1" />
  <path
     id="path1"
     style="baseline-shift:baseline;display:inline;overflow:visible;vector-effect:none;fill:url(#linearGradient2);stroke-linecap:round;stroke-linejoin:round;enable-background:accumulate;stop-color:#000000;stop-opacity:1;opacity:1;fill-opacity:1"
     d="M 128 24.044922 C 123.88566 24.044922 119.771 25.590793 116.67969 28.685547 L 36.683594 108.68359 A 8.0008 8.0008 0 0 0 36.679688 108.68555 C 33.68204 111.68648 31.996665 115.7642 32 120.00586 L 32 216 A 8.0008 8.0008 0 0 0 40 224 L 216 224 A 8.0008 8.0008 0 0 0 224 216 L 224 120.00586 L 224 120 C 224.002 115.76045 222.31657 111.68513 219.32031 108.68555 A 8.0008 8.0008 0 0 0 219.31641 108.68359 L 139.31641 28.683594 C 136.22554 25.590931 132.11298 24.044922 128 24.044922 z M 128 39.994141 A 8.0008 8.0008 0 0 0 128.00391 39.996094 L 208 119.99414 A 8.0008 8.0008 0 0 0 208 120 L 208 208 L 48 208 L 48 120 A 8.0008 8.0008 0 0 0 48 119.99414 L 127.99609 39.996094 A 8.0008 8.0008 0 0 0 128 39.994141 z " />
</svg>
