<?xml version="1.0" encoding="UTF-8" standalone="no"?>
<svg
   viewBox="0 0 256 256"
   version="1.1"
   id="svg2"
   sodipodi:docname="identification card purple_coral.svg"
   xmlns:inkscape="http://www.inkscape.org/namespaces/inkscape"
   xmlns:sodipodi="http://sodipodi.sourceforge.net/DTD/sodipodi-0.dtd"
   xmlns:xlink="http://www.w3.org/1999/xlink"
   xmlns="http://www.w3.org/2000/svg"
   xmlns:svg="http://www.w3.org/2000/svg">
  <defs
     id="defs3">
    <linearGradient
       id="linearGradient1"
       inkscape:collect="always">
      <stop
         style="stop-color:#ff7c66;stop-opacity:1;"
         offset="0"
         id="stop1" />
      <stop
         style="stop-color:#a03291;stop-opacity:1;"
         offset="0.76340693"
         id="stop2" />
    </linearGradient>
    <linearGradient
       inkscape:collect="always"
       xlink:href="#linearGradient1"
       id="linearGradient2"
       x1="232.4884"
       y1="23.847498"
       x2="23.977745"
       y2="232.35815"
       gradientUnits="userSpaceOnUse" />
  </defs>
  <defs
     id="defs2" />
  <sodipodi:namedview
     id="namedview2"
     pagecolor="#ffffff"
     bordercolor="#000000"
     borderopacity="0.25"
     inkscape:showpageshadow="2"
     inkscape:pageopacity="0.0"
     inkscape:pagecheckerboard="0"
     inkscape:deskcolor="#d1d1d1" />
  <path
     id="line1"
     style="baseline-shift:baseline;display:inline;overflow:visible;vector-effect:none;fill:url(#linearGradient2);stroke-linecap:round;stroke-linejoin:round;enable-background:accumulate;stop-color:#000000;stop-opacity:1;opacity:1;fill-opacity:1"
     d="M 40 40 C 31.274378 40 24 47.274378 24 56 L 24 200 C 24 208.72562 31.274378 216 40 216 L 216 216 C 224.72562 216 232 208.72562 232 200 L 232 56 C 232 47.274378 224.72562 40 216 40 L 40 40 z M 40 56 L 216 56 L 216 200 L 40 200 L 40 56 z M 96 88 C 78.421645 88 64 102.42165 64 120 C 64 128.79989 67.614542 136.80887 73.429688 142.61328 C 65.107399 147.94108 58.786964 156.1534 56.251953 166.00781 A 8 8 0 0 0 62.007812 175.74805 A 8 8 0 0 0 71.748047 169.99219 C 74.312238 160.02435 84.738558 152 96 152 C 107.26502 152 117.69422 160.0159 120.25 169.98633 A 8 8 0 0 0 129.98633 175.75 A 8 8 0 0 0 135.75 166.01367 C 133.22148 156.14957 126.89929 147.93589 118.57422 142.60938 C 124.38749 136.80522 128 128.79827 128 120 C 128 102.42165 113.57835 88 96 88 z M 96 104 C 104.93131 104 112 111.06869 112 120 C 112 128.93131 104.93131 136 96 136 C 87.068687 136 80 128.93131 80 120 C 80 111.06869 87.068687 104 96 104 z M 152 104 A 8 8 0 0 0 144 112 A 8 8 0 0 0 152 120 L 192 120 A 8 8 0 0 0 200 112 A 8 8 0 0 0 192 104 L 152 104 z M 152 136 A 8 8 0 0 0 144 144 A 8 8 0 0 0 152 152 L 192 152 A 8 8 0 0 0 200 144 A 8 8 0 0 0 192 136 L 152 136 z " />
</svg>
