<?xml version="1.0" encoding="UTF-8" standalone="no"?>
<svg
   viewBox="0 0 256 256"
   version="1.1"
   id="svg2"
   sodipodi:docname="key return purple_coral.svg"
   xmlns:inkscape="http://www.inkscape.org/namespaces/inkscape"
   xmlns:sodipodi="http://sodipodi.sourceforge.net/DTD/sodipodi-0.dtd"
   xmlns:xlink="http://www.w3.org/1999/xlink"
   xmlns="http://www.w3.org/2000/svg"
   xmlns:svg="http://www.w3.org/2000/svg">
  <defs
     id="defs3">
    <linearGradient
       id="linearGradient1"
       inkscape:collect="always">
      <stop
         style="stop-color:#ff7c66;stop-opacity:1;"
         offset="0"
         id="stop1" />
      <stop
         style="stop-color:#a03291;stop-opacity:1;"
         offset="0.76340693"
         id="stop2" />
    </linearGradient>
    <linearGradient
       inkscape:collect="always"
       xlink:href="#linearGradient1"
       id="linearGradient2"
       x1="232.4884"
       y1="23.847498"
       x2="23.977745"
       y2="232.35815"
       gradientUnits="userSpaceOnUse" />
  </defs>
  <defs
     id="defs2" />
  <sodipodi:namedview
     id="namedview2"
     pagecolor="#ffffff"
     bordercolor="#000000"
     borderopacity="0.25"
     inkscape:showpageshadow="2"
     inkscape:pageopacity="0.0"
     inkscape:pagecheckerboard="0"
     inkscape:deskcolor="#d1d1d1" />
  <path
     id="polyline1"
     style="baseline-shift:baseline;display:inline;overflow:visible;vector-effect:none;fill:url(#linearGradient2);stroke-linecap:round;stroke-linejoin:round;enable-background:accumulate;stop-color:#000000;stop-opacity:1;opacity:1;fill-opacity:1"
     d="M 40 40 C 31.274378 40 24 47.274378 24 56 L 24 200 C 24 208.72562 31.274378 216 40 216 L 216 216 C 224.72562 216 232 208.72562 232 200 L 232 56 C 232 47.274378 224.72562 40 216 40 L 40 40 z M 40 56 L 216 56 L 216 200 L 40 200 L 40 56 z M 176 96 A 8 8 0 0 0 168 104 L 168 128 L 99.3125 128 L 109.65625 117.65625 A 8 8 0 0 0 109.65625 106.34375 A 8 8 0 0 0 104 104 A 8 8 0 0 0 98.34375 106.34375 L 74.34375 130.34375 A 8.0008 8.0008 0 0 0 74.0625 130.66406 A 8 8 0 0 0 73.677734 131.10352 A 8.0008 8.0008 0 0 0 73.390625 131.52539 A 8 8 0 0 0 73.095703 131.9668 A 8.0008 8.0008 0 0 0 72.853516 132.44531 A 8 8 0 0 0 72.617188 132.92188 A 8.0008 8.0008 0 0 0 72.453125 133.39844 A 8 8 0 0 0 72.279297 133.91406 A 8.0008 8.0008 0 0 0 72.201172 134.29297 A 8 8 0 0 0 72 136 A 8 8 0 0 0 72.201172 137.70703 A 8.0008 8.0008 0 0 0 72.279297 138.08594 A 8 8 0 0 0 72.453125 138.60156 A 8.0008 8.0008 0 0 0 72.617188 139.07812 A 8 8 0 0 0 72.853516 139.55469 A 8.0008 8.0008 0 0 0 73.095703 140.0332 A 8 8 0 0 0 73.390625 140.47461 A 8.0008 8.0008 0 0 0 73.677734 140.89648 A 8 8 0 0 0 74.0625 141.33594 A 8.0008 8.0008 0 0 0 74.34375 141.65625 L 98.34375 165.65625 A 8 8 0 0 0 109.65625 165.65625 A 8 8 0 0 0 109.65625 154.34375 L 99.3125 144 L 176 144 A 8.0008 8.0008 0 0 0 184 136 L 184 104 A 8 8 0 0 0 176 96 z " />
</svg>
