<?xml version="1.0" encoding="UTF-8" standalone="no"?>
<svg
   viewBox="0 0 256 256"
   version="1.1"
   id="svg2"
   sodipodi:docname="lamp pendant purple_coral.svg"
   xmlns:inkscape="http://www.inkscape.org/namespaces/inkscape"
   xmlns:sodipodi="http://sodipodi.sourceforge.net/DTD/sodipodi-0.dtd"
   xmlns:xlink="http://www.w3.org/1999/xlink"
   xmlns="http://www.w3.org/2000/svg"
   xmlns:svg="http://www.w3.org/2000/svg">
  <defs
     id="defs3">
    <linearGradient
       id="linearGradient1"
       inkscape:collect="always">
      <stop
         style="stop-color:#ff7c66;stop-opacity:1;"
         offset="0"
         id="stop1" />
      <stop
         style="stop-color:#a03291;stop-opacity:1;"
         offset="0.76340693"
         id="stop2" />
    </linearGradient>
    <linearGradient
       inkscape:collect="always"
       xlink:href="#linearGradient1"
       id="linearGradient2"
       x1="232.4884"
       y1="23.847498"
       x2="23.977745"
       y2="232.35815"
       gradientUnits="userSpaceOnUse" />
  </defs>
  <defs
     id="defs2" />
  <sodipodi:namedview
     id="namedview2"
     pagecolor="#ffffff"
     bordercolor="#000000"
     borderopacity="0.25"
     inkscape:showpageshadow="2"
     inkscape:pageopacity="0.0"
     inkscape:pagecheckerboard="0"
     inkscape:deskcolor="#d1d1d1" />
  <path
     id="line1"
     style="baseline-shift:baseline;display:inline;overflow:visible;vector-effect:none;fill:url(#linearGradient2);stroke-linecap:round;stroke-linejoin:round;enable-background:accumulate;stop-color:#000000;stop-opacity:1;opacity:1;fill-opacity:1"
     d="M 128 8 A 8 8 0 0 0 120 16 L 120 56 L 96 56 C 87.258201 56 80 63.258201 80 72 L 80 74.886719 C 41.103105 93.348736 16 132.62651 16 176 A 8.0008 8.0008 0 0 0 24 184 L 88 184 C 88 205.99664 106.00338 224 128 224 C 149.99662 224 168 205.99664 168 184 L 232 184 A 8.0008 8.0008 0 0 0 240 176 C 240 132.62651 214.89689 93.348736 176 74.886719 L 176 72 C 176 63.258201 168.7418 56 160 56 L 136 56 L 136 16 A 8 8 0 0 0 128 8 z M 96 72 L 128 72 L 160 72 L 160 80 A 8.0008 8.0008 0 0 0 164.92383 87.384766 C 198.23707 101.26528 220.68608 132.48049 223.64258 168 L 160 168 L 96 168 L 32.357422 168 C 35.31392 132.48049 57.762933 101.26528 91.076172 87.384766 A 8.0008 8.0008 0 0 0 96 80 L 96 72 z M 104 184 L 152 184 C 152 197.34961 141.3496 208 128 208 C 114.6504 208 104 197.34961 104 184 z " />
</svg>
