<?xml version="1.0" encoding="UTF-8" standalone="no"?>
<svg
   viewBox="0 0 256 256"
   version="1.1"
   id="svg2"
   sodipodi:docname="laptop purple_coral.svg"
   xmlns:inkscape="http://www.inkscape.org/namespaces/inkscape"
   xmlns:sodipodi="http://sodipodi.sourceforge.net/DTD/sodipodi-0.dtd"
   xmlns:xlink="http://www.w3.org/1999/xlink"
   xmlns="http://www.w3.org/2000/svg"
   xmlns:svg="http://www.w3.org/2000/svg">
  <defs
     id="defs3">
    <linearGradient
       id="linearGradient1"
       inkscape:collect="always">
      <stop
         style="stop-color:#ff7c66;stop-opacity:1;"
         offset="0"
         id="stop1" />
      <stop
         style="stop-color:#a03291;stop-opacity:1;"
         offset="0.76340693"
         id="stop2" />
    </linearGradient>
    <linearGradient
       inkscape:collect="always"
       xlink:href="#linearGradient1"
       id="linearGradient2"
       x1="232.4884"
       y1="23.847498"
       x2="23.977745"
       y2="232.35815"
       gradientUnits="userSpaceOnUse" />
  </defs>
  <defs
     id="defs2" />
  <sodipodi:namedview
     id="namedview2"
     pagecolor="#ffffff"
     bordercolor="#000000"
     borderopacity="0.25"
     inkscape:showpageshadow="2"
     inkscape:pageopacity="0.0"
     inkscape:pagecheckerboard="0"
     inkscape:deskcolor="#d1d1d1" />
  <path
     id="path1"
     style="baseline-shift:baseline;display:inline;overflow:visible;vector-effect:none;fill:url(#linearGradient2);stroke-linecap:round;stroke-linejoin:round;enable-background:accumulate;stop-color:#000000;stop-opacity:1;opacity:1;fill-opacity:1"
     d="M 56 48 C 42.839923 48 32 58.839923 32 72 L 32 168 L 24 168 A 8.0008 8.0008 0 0 0 16 176 L 16 192 C 16 205.16008 26.839923 216 40 216 L 216 216 C 229.16008 216 240 205.16008 240 192 L 240 176 A 8.0008 8.0008 0 0 0 232 168 L 224 168 L 224 72 C 224 58.839923 213.16008 48 200 48 L 56 48 z M 56 64 L 200 64 C 204.51304 64 208 67.486965 208 72 L 208 168 L 48 168 L 48 72 C 48 67.486965 51.486965 64 56 64 z M 112 80 A 8 8 0 0 0 104 88 A 8 8 0 0 0 112 96 L 144 96 A 8 8 0 0 0 152 88 A 8 8 0 0 0 144 80 L 112 80 z M 32 184 L 224 184 L 224 192 C 224 196.51304 220.51304 200 216 200 L 40 200 C 35.486965 200 32 196.51304 32 192 L 32 184 z " />
</svg>
