<?xml version="1.0" encoding="UTF-8" standalone="no"?>
<svg
   viewBox="0 0 256 256"
   version="1.1"
   id="svg3"
   sodipodi:docname="lectern purple_coral.svg"
   xmlns:inkscape="http://www.inkscape.org/namespaces/inkscape"
   xmlns:sodipodi="http://sodipodi.sourceforge.net/DTD/sodipodi-0.dtd"
   xmlns:xlink="http://www.w3.org/1999/xlink"
   xmlns="http://www.w3.org/2000/svg"
   xmlns:svg="http://www.w3.org/2000/svg">
  <defs
     id="defs3">
    <linearGradient
       id="linearGradient1"
       inkscape:collect="always">
      <stop
         style="stop-color:#ff7c66;stop-opacity:1;"
         offset="0"
         id="stop1" />
      <stop
         style="stop-color:#a03291;stop-opacity:1;"
         offset="0.76340693"
         id="stop2" />
    </linearGradient>
    <linearGradient
       inkscape:collect="always"
       xlink:href="#linearGradient1"
       id="linearGradient2"
       x1="232.4884"
       y1="23.847498"
       x2="23.977745"
       y2="232.35815"
       gradientUnits="userSpaceOnUse" />
  </defs>
  <defs
     id="defs1" />
  <sodipodi:namedview
     id="namedview3"
     pagecolor="#ffffff"
     bordercolor="#000000"
     borderopacity="0.25"
     inkscape:showpageshadow="2"
     inkscape:pageopacity="0.0"
     inkscape:pagecheckerboard="0"
     inkscape:deskcolor="#d1d1d1" />
  <path
     id="path1"
     style="baseline-shift:baseline;display:inline;overflow:visible;vector-effect:none;fill:url(#linearGradient2);stroke-linecap:round;stroke-linejoin:round;enable-background:accumulate;stop-color:#000000;stop-opacity:1;opacity:1;fill-opacity:1"
     d="M 64 32 C 57.956574 31.9979 52.390118 35.435025 49.685547 40.839844 A 8.0008 8.0008 0 0 0 49.685547 40.841797 L 9.6855469 120.8418 C 4.5123368 131.1831 12.437791 144.00384 24 144 L 24.005859 144 L 120 144 L 120 208 L 96 208 A 8 8 0 0 0 88 216 A 8 8 0 0 0 96 224 L 128 224 L 160 224 A 8 8 0 0 0 168 216 A 8 8 0 0 0 160 208 L 136 208 L 136 144 L 232 144 C 243.56221 144.004 251.48766 131.1831 246.31445 120.8418 L 246.31445 120.83984 L 206.31445 40.841797 A 8.0008 8.0008 0 0 0 206.31445 40.839844 C 203.60988 35.435112 198.04343 31.997916 192 32 L 64.005859 32 L 64 32 z M 63.994141 48 L 63.996094 48 A 8.0008 8.0008 0 0 0 64 48 L 192 48 A 8.0008 8.0008 0 0 0 192.00391 48 L 232.00391 127.99805 A 8.0008 8.0008 0 0 0 232.00586 128 A 8.0008 8.0008 0 0 0 232 128 L 24 128 A 8.0008 8.0008 0 0 0 23.994141 128 A 8.0008 8.0008 0 0 0 23.996094 127.99805 L 63.994141 48 z M 72 96 A 8 8 0 0 0 64 104 A 8 8 0 0 0 72 112 L 184 112 A 8 8 0 0 0 192 104 A 8 8 0 0 0 184 96 L 72 96 z " />
</svg>
