<?xml version="1.0" encoding="UTF-8" standalone="no"?>
<svg
   viewBox="0 0 256 256"
   version="1.1"
   id="svg5"
   sodipodi:docname="lifebuoy purple_coral.svg"
   xmlns:inkscape="http://www.inkscape.org/namespaces/inkscape"
   xmlns:sodipodi="http://sodipodi.sourceforge.net/DTD/sodipodi-0.dtd"
   xmlns:xlink="http://www.w3.org/1999/xlink"
   xmlns="http://www.w3.org/2000/svg"
   xmlns:svg="http://www.w3.org/2000/svg">
  <defs
     id="defs3">
    <linearGradient
       id="linearGradient1"
       inkscape:collect="always">
      <stop
         style="stop-color:#ff7c66;stop-opacity:1;"
         offset="0"
         id="stop1" />
      <stop
         style="stop-color:#a03291;stop-opacity:1;"
         offset="0.76340693"
         id="stop2" />
    </linearGradient>
    <linearGradient
       inkscape:collect="always"
       xlink:href="#linearGradient1"
       id="linearGradient2"
       x1="232.4884"
       y1="23.847498"
       x2="23.977745"
       y2="232.35815"
       gradientUnits="userSpaceOnUse" />
  </defs>
  <defs
     id="defs5" />
  <sodipodi:namedview
     id="namedview5"
     pagecolor="#ffffff"
     bordercolor="#000000"
     borderopacity="0.25"
     inkscape:showpageshadow="2"
     inkscape:pageopacity="0.0"
     inkscape:pagecheckerboard="0"
     inkscape:deskcolor="#d1d1d1" />
  <path
     id="circle1"
     style="baseline-shift:baseline;display:inline;overflow:visible;vector-effect:none;fill:url(#linearGradient2);stroke-linecap:round;stroke-linejoin:round;enable-background:accumulate;stop-color:#000000;stop-opacity:1;opacity:1;fill-opacity:1"
     d="M 128 24 C 99.653589 24 73.91743 35.40195 55.138672 53.859375 A 8 8 0 0 0 54.462891 54.462891 A 8 8 0 0 0 53.859375 55.138672 C 35.401803 73.917452 24 99.653461 24 128 C 24 156.34654 35.401802 182.08255 53.859375 200.86133 A 8 8 0 0 0 54.462891 201.53711 A 8 8 0 0 0 55.138672 202.14062 C 73.917452 220.5982 99.653461 232 128 232 C 156.34654 232 182.08255 220.5982 200.86133 202.14062 A 8 8 0 0 0 201.53711 201.53711 A 8 8 0 0 0 202.14062 200.86133 C 220.5982 182.08255 232 156.34654 232 128 C 232 99.653461 220.5982 73.917452 202.14062 55.138672 A 8 8 0 0 0 201.53711 54.462891 A 8 8 0 0 0 200.86133 53.859375 C 182.08257 35.401949 156.34641 24 128 24 z M 128 40 C 149.45942 40 169.09593 47.631978 184.34766 60.337891 L 155.7793 88.90625 C 147.92732 83.303039 138.33317 80 128 80 C 117.66683 80 108.07268 83.303039 100.2207 88.90625 L 71.652344 60.337891 C 86.90407 47.631978 106.54058 40 128 40 z M 60.337891 71.652344 L 88.90625 100.2207 C 83.303039 108.07268 80 117.66683 80 128 C 80 138.33317 83.303039 147.92732 88.90625 155.7793 L 60.337891 184.34766 C 47.631978 169.09593 40 149.45942 40 128 C 40 106.54058 47.631978 86.90407 60.337891 71.652344 z M 195.66211 71.652344 C 208.36802 86.90407 216 106.54058 216 128 C 216 149.45942 208.36802 169.09593 195.66211 184.34766 L 167.09375 155.7793 C 172.69696 147.92732 176 138.33317 176 128 C 176 117.66683 172.69696 108.07268 167.09375 100.2207 L 195.66211 71.652344 z M 128 96 C 136.57626 96 144.32885 99.315324 150.05469 104.74414 A 8 8 0 0 0 150.62305 105.37695 A 8 8 0 0 0 151.25586 105.94531 C 156.68468 111.67115 160 119.42374 160 128 C 160 136.57617 156.68457 144.32887 151.25586 150.05469 A 8 8 0 0 0 150.62305 150.62305 A 8 8 0 0 0 150.05469 151.25586 C 144.32885 156.68468 136.57626 160 128 160 C 119.42374 160 111.67115 156.68468 105.94531 151.25586 A 8 8 0 0 0 105.37695 150.62305 A 8 8 0 0 0 104.74414 150.05469 C 99.315432 144.32887 96 136.57617 96 128 C 96 119.42374 99.315324 111.67115 104.74414 105.94531 A 8 8 0 0 0 105.37695 105.37695 A 8 8 0 0 0 105.94531 104.74414 C 111.67115 99.315324 119.42374 96 128 96 z M 100.2207 167.09375 C 108.07268 172.69696 117.66683 176 128 176 C 138.33317 176 147.92732 172.69696 155.7793 167.09375 L 184.34766 195.66211 C 169.09593 208.36802 149.45942 216 128 216 C 106.54058 216 86.90407 208.36802 71.652344 195.66211 L 100.2207 167.09375 z " />
</svg>
