<?xml version="1.0" encoding="UTF-8" standalone="no"?>
<svg
   viewBox="0 0 256 256"
   version="1.1"
   id="svg2"
   sodipodi:docname="line segment purple_coral.svg"
   xmlns:inkscape="http://www.inkscape.org/namespaces/inkscape"
   xmlns:sodipodi="http://sodipodi.sourceforge.net/DTD/sodipodi-0.dtd"
   xmlns:xlink="http://www.w3.org/1999/xlink"
   xmlns="http://www.w3.org/2000/svg"
   xmlns:svg="http://www.w3.org/2000/svg">
  <defs
     id="defs3">
    <linearGradient
       id="linearGradient1"
       inkscape:collect="always">
      <stop
         style="stop-color:#ff7c66;stop-opacity:1;"
         offset="0"
         id="stop1" />
      <stop
         style="stop-color:#a03291;stop-opacity:1;"
         offset="0.76340693"
         id="stop2" />
    </linearGradient>
    <linearGradient
       inkscape:collect="always"
       xlink:href="#linearGradient1"
       id="linearGradient2"
       x1="232.4884"
       y1="23.847498"
       x2="23.977745"
       y2="232.35815"
       gradientUnits="userSpaceOnUse" />
  </defs>
  <defs
     id="defs2" />
  <sodipodi:namedview
     id="namedview2"
     pagecolor="#ffffff"
     bordercolor="#000000"
     borderopacity="0.25"
     inkscape:showpageshadow="2"
     inkscape:pageopacity="0.0"
     inkscape:pagecheckerboard="0"
     inkscape:deskcolor="#d1d1d1" />
  <path
     id="circle1"
     style="baseline-shift:baseline;display:inline;overflow:visible;vector-effect:none;fill:url(#linearGradient2);stroke-linecap:round;stroke-linejoin:round;enable-background:accumulate;stop-color:#000000;stop-opacity:1;opacity:1;fill-opacity:1"
     d="M 192 32 C 174.42165 32 160 46.421645 160 64 C 160 69.907855 161.62865 75.459481 164.45898 80.226562 L 80.226562 164.45898 C 75.459481 161.62865 69.907855 160 64 160 C 46.421645 160 32 174.42165 32 192 C 32 209.57835 46.421645 224 64 224 C 81.578355 224 96 209.57835 96 192 C 96 186.09215 94.371348 180.54052 91.541016 175.77344 L 175.77344 91.541016 C 180.54052 94.371348 186.09215 96 192 96 C 209.57835 96 224 81.578355 224 64 C 224 46.421645 209.57835 32 192 32 z M 192 48 C 200.93131 48 208 55.068687 208 64 C 208 72.931313 200.93131 80 192 80 C 187.8055 80 184.02109 78.440218 181.1875 75.861328 A 8 8 0 0 0 180.6875 75.3125 A 8 8 0 0 0 180.13867 74.8125 C 177.55913 71.978784 176 68.195087 176 64 C 176 55.068687 183.06869 48 192 48 z M 64 176 C 68.194497 176 71.978915 177.55978 74.8125 180.13867 A 8 8 0 0 0 75.3125 180.6875 A 8 8 0 0 0 75.861328 181.1875 C 78.440218 184.02109 80 187.8055 80 192 C 80 200.93131 72.931313 208 64 208 C 55.068687 208 48 200.93131 48 192 C 48 183.06869 55.068687 176 64 176 z " />
</svg>
