<?xml version="1.0" encoding="UTF-8" standalone="no"?>
<svg
   viewBox="0 0 256 256"
   version="1.1"
   id="svg5"
   sodipodi:docname="linktree logo purple_coral.svg"
   xmlns:inkscape="http://www.inkscape.org/namespaces/inkscape"
   xmlns:sodipodi="http://sodipodi.sourceforge.net/DTD/sodipodi-0.dtd"
   xmlns:xlink="http://www.w3.org/1999/xlink"
   xmlns="http://www.w3.org/2000/svg"
   xmlns:svg="http://www.w3.org/2000/svg">
  <defs
     id="defs3">
    <linearGradient
       id="linearGradient1"
       inkscape:collect="always">
      <stop
         style="stop-color:#ff7c66;stop-opacity:1;"
         offset="0"
         id="stop1" />
      <stop
         style="stop-color:#a03291;stop-opacity:1;"
         offset="0.76340693"
         id="stop2" />
    </linearGradient>
    <linearGradient
       inkscape:collect="always"
       xlink:href="#linearGradient1"
       id="linearGradient2"
       x1="232.4884"
       y1="23.847498"
       x2="23.977745"
       y2="232.35815"
       gradientUnits="userSpaceOnUse" />
  </defs>
  <defs
     id="defs5" />
  <sodipodi:namedview
     id="namedview5"
     pagecolor="#ffffff"
     bordercolor="#000000"
     borderopacity="0.25"
     inkscape:showpageshadow="2"
     inkscape:pageopacity="0.0"
     inkscape:pagecheckerboard="0"
     inkscape:deskcolor="#d1d1d1" />
  <path
     id="line1"
     style="baseline-shift:baseline;display:inline;overflow:visible;vector-effect:none;fill:url(#linearGradient2);stroke-linecap:round;stroke-linejoin:round;enable-background:accumulate;stop-color:#000000;stop-opacity:1;opacity:1;fill-opacity:1"
     d="M 128 16 A 8 8 0 0 0 120 24 L 120 84.6875 L 77.65625 42.34375 A 8 8 0 0 0 72 40 A 8 8 0 0 0 66.34375 42.34375 A 8 8 0 0 0 66.34375 53.65625 L 108.6875 96 L 48 96 A 8 8 0 0 0 40 104 A 8 8 0 0 0 48 112 L 108.6875 112 L 66.34375 154.34375 A 8 8 0 0 0 66.34375 165.65625 A 8 8 0 0 0 77.65625 165.65625 L 128 115.3125 L 178.34375 165.65625 A 8 8 0 0 0 189.65625 165.65625 A 8 8 0 0 0 189.65625 154.34375 L 147.3125 112 L 208 112 A 8 8 0 0 0 216 104 A 8 8 0 0 0 208 96 L 147.3125 96 L 189.65625 53.65625 A 8 8 0 0 0 189.65625 42.34375 A 8 8 0 0 0 184 40 A 8 8 0 0 0 178.34375 42.34375 L 136 84.6875 L 136 24 A 8 8 0 0 0 128 16 z M 128 152 A 8 8 0 0 0 120 160 L 120 232 A 8 8 0 0 0 128 240 A 8 8 0 0 0 136 232 L 136 160 A 8 8 0 0 0 128 152 z " />
</svg>
