<?xml version="1.0" encoding="UTF-8" standalone="no"?>
<svg
   viewBox="0 0 256 256"
   version="1.1"
   id="svg7"
   sodipodi:docname="lockers purple_coral.svg"
   xmlns:inkscape="http://www.inkscape.org/namespaces/inkscape"
   xmlns:sodipodi="http://sodipodi.sourceforge.net/DTD/sodipodi-0.dtd"
   xmlns:xlink="http://www.w3.org/1999/xlink"
   xmlns="http://www.w3.org/2000/svg"
   xmlns:svg="http://www.w3.org/2000/svg">
  <defs
     id="defs3">
    <linearGradient
       id="linearGradient1"
       inkscape:collect="always">
      <stop
         style="stop-color:#ff7c66;stop-opacity:1;"
         offset="0"
         id="stop1" />
      <stop
         style="stop-color:#a03291;stop-opacity:1;"
         offset="0.76340693"
         id="stop2" />
    </linearGradient>
    <linearGradient
       inkscape:collect="always"
       xlink:href="#linearGradient1"
       id="linearGradient2"
       x1="232.4884"
       y1="23.847498"
       x2="23.977745"
       y2="232.35815"
       gradientUnits="userSpaceOnUse" />
  </defs>
  <defs
     id="defs7" />
  <sodipodi:namedview
     id="namedview7"
     pagecolor="#ffffff"
     bordercolor="#000000"
     borderopacity="0.25"
     inkscape:showpageshadow="2"
     inkscape:pageopacity="0.0"
     inkscape:pagecheckerboard="0"
     inkscape:deskcolor="#d1d1d1" />
  <path
     id="line1"
     style="baseline-shift:baseline;display:inline;overflow:visible;vector-effect:none;fill:url(#linearGradient2);stroke-linecap:round;stroke-linejoin:round;enable-background:accumulate;stop-color:#000000;stop-opacity:1;opacity:1;fill-opacity:1"
     d="M 48 32 C 39.258201 32 32 39.258201 32 48 L 32 200 L 32 224 A 8 8 0 0 0 40 232 A 8 8 0 0 0 48 224 L 48 208 L 120 208 L 120 224 A 8 8 0 0 0 128 232 A 8 8 0 0 0 136 224 L 136 208 L 208 208 L 208 224 A 8 8 0 0 0 216 232 A 8 8 0 0 0 224 224 L 224 200 L 224 48 C 224 39.258201 216.7418 32 208 32 L 48 32 z M 48 48 L 120 48 L 120 192 L 48 192 L 48 48 z M 136 48 L 208 48 L 208 192 L 136 192 L 136 48 z M 72 64 A 8 8 0 0 0 64 72 A 8 8 0 0 0 72 80 L 96 80 A 8 8 0 0 0 104 72 A 8 8 0 0 0 96 64 L 72 64 z M 160 64 A 8 8 0 0 0 152 72 A 8 8 0 0 0 160 80 L 184 80 A 8 8 0 0 0 192 72 A 8 8 0 0 0 184 64 L 160 64 z M 72 96 A 8 8 0 0 0 64 104 A 8 8 0 0 0 72 112 L 96 112 A 8 8 0 0 0 104 104 A 8 8 0 0 0 96 96 L 72 96 z M 160 96 A 8 8 0 0 0 152 104 A 8 8 0 0 0 160 112 L 184 112 A 8 8 0 0 0 192 104 A 8 8 0 0 0 184 96 L 160 96 z " />
</svg>
