<?xml version="1.0" encoding="UTF-8" standalone="no"?>
<svg
   viewBox="0 0 256 256"
   version="1.1"
   id="svg2"
   sodipodi:docname="log purple_coral.svg"
   xmlns:inkscape="http://www.inkscape.org/namespaces/inkscape"
   xmlns:sodipodi="http://sodipodi.sourceforge.net/DTD/sodipodi-0.dtd"
   xmlns:xlink="http://www.w3.org/1999/xlink"
   xmlns="http://www.w3.org/2000/svg"
   xmlns:svg="http://www.w3.org/2000/svg">
  <defs
     id="defs3">
    <linearGradient
       id="linearGradient1"
       inkscape:collect="always">
      <stop
         style="stop-color:#ff7c66;stop-opacity:1;"
         offset="0"
         id="stop1" />
      <stop
         style="stop-color:#a03291;stop-opacity:1;"
         offset="0.76340693"
         id="stop2" />
    </linearGradient>
    <linearGradient
       inkscape:collect="always"
       xlink:href="#linearGradient1"
       id="linearGradient2"
       x1="232.4884"
       y1="23.847498"
       x2="23.977745"
       y2="232.35815"
       gradientUnits="userSpaceOnUse" />
  </defs>
  <defs
     id="defs2" />
  <sodipodi:namedview
     id="namedview2"
     pagecolor="#ffffff"
     bordercolor="#000000"
     borderopacity="0.25"
     inkscape:showpageshadow="2"
     inkscape:pageopacity="0.0"
     inkscape:pagecheckerboard="0"
     inkscape:deskcolor="#d1d1d1" />
  <path
     id="circle1"
     style="baseline-shift:baseline;display:inline;overflow:visible;vector-effect:none;fill:url(#linearGradient2);stroke-linecap:round;stroke-linejoin:round;enable-background:accumulate;stop-color:#000000;stop-opacity:1;opacity:1;fill-opacity:1"
     d="M 136 24 A 8.0008 8.0008 0 0 0 130.34375 26.34375 L 92.6875 64 L 56 64 C 41.496421 64 29.139782 73.37173 20.931641 86.503906 C 15.577394 95.070146 11.896467 105.5417 9.8515625 116.98828 A 8 8 0 0 0 9.2597656 120 A 8 8 0 0 0 9.2617188 120.04102 C 8.5016337 125.19986 8 130.4979 8 136 C 8 155.02606 12.723499 172.36392 20.931641 185.49609 C 29.139782 198.62827 41.496421 208 56 208 L 200 208 C 214.50451 208 226.86049 198.62673 235.06836 185.49414 C 243.27623 172.36156 248 155.02421 248 136 C 248 116.97579 243.27623 99.638445 235.06836 86.505859 C 226.86049 73.373274 214.50451 64 200 64 L 115.3125 64 L 139.31445 40 L 168 40 A 8 8 0 0 0 176 32 A 8 8 0 0 0 168 24 L 136 24 z M 56 80 L 169.59961 80 C 167.92403 82.034062 166.3649 84.212646 164.93164 86.505859 C 156.72377 99.638445 152 116.97579 152 136 C 152 141.49425 152.39421 146.8478 153.15234 152 L 80 152 A 8 8 0 0 0 72 160 A 8 8 0 0 0 80 168 L 156.87305 168 C 158.95673 174.39025 161.66926 180.27434 164.93164 185.49414 C 166.3649 187.78735 167.92403 189.96594 169.59961 192 L 56 192 C 48.413579 192 40.769358 187.04595 34.5 177.01562 C 28.230642 166.9853 24 152.32394 24 136 C 24 133.2827 24.117451 130.61147 24.341797 128 L 104 128 A 8 8 0 0 0 112 120 A 8 8 0 0 0 104 112 L 27.207031 112 C 29.027975 105.50231 31.536352 99.725906 34.5 94.984375 C 40.769358 84.954051 48.413579 80 56 80 z M 200 80 C 207.58688 80 215.23071 84.953517 221.5 94.984375 C 227.76929 105.01523 232 119.67799 232 136 C 232 152.32201 227.76929 166.98477 221.5 177.01562 C 215.23072 187.04647 207.58687 191.99998 200 192 C 192.41312 192 184.76929 187.04648 178.5 177.01562 C 172.23071 166.98477 168 152.32201 168 136 C 168 119.67799 172.23071 105.01523 178.5 94.984375 C 184.76929 84.953517 192.41312 80 200 80 z M 200 124 A 12 12 0 0 0 188 136 A 12 12 0 0 0 200 148 A 12 12 0 0 0 212 136 A 12 12 0 0 0 200 124 z " />
</svg>
