<?xml version="1.0" encoding="UTF-8" standalone="no"?>
<svg
   viewBox="0 0 256 256"
   version="1.1"
   id="svg3"
   sodipodi:docname="martini purple_coral.svg"
   xmlns:inkscape="http://www.inkscape.org/namespaces/inkscape"
   xmlns:sodipodi="http://sodipodi.sourceforge.net/DTD/sodipodi-0.dtd"
   xmlns:xlink="http://www.w3.org/1999/xlink"
   xmlns="http://www.w3.org/2000/svg"
   xmlns:svg="http://www.w3.org/2000/svg">
  <defs
     id="defs3">
    <linearGradient
       id="linearGradient1"
       inkscape:collect="always">
      <stop
         style="stop-color:#ff7c66;stop-opacity:1;"
         offset="0"
         id="stop1" />
      <stop
         style="stop-color:#a03291;stop-opacity:1;"
         offset="0.76340693"
         id="stop2" />
    </linearGradient>
    <linearGradient
       inkscape:collect="always"
       xlink:href="#linearGradient1"
       id="linearGradient2"
       x1="232.4884"
       y1="23.847498"
       x2="23.977745"
       y2="232.35815"
       gradientUnits="userSpaceOnUse" />
  </defs>
  <defs
     id="defs1" />
  <sodipodi:namedview
     id="namedview3"
     pagecolor="#ffffff"
     bordercolor="#000000"
     borderopacity="0.25"
     inkscape:showpageshadow="2"
     inkscape:pageopacity="0.0"
     inkscape:pagecheckerboard="0"
     inkscape:deskcolor="#d1d1d1" />
  <path
     id="polygon1"
     style="baseline-shift:baseline;display:inline;overflow:visible;vector-effect:none;fill:url(#linearGradient2);stroke-linecap:round;stroke-linejoin:round;enable-background:accumulate;stop-color:#000000;stop-opacity:1;opacity:1;fill-opacity:1"
     d="M 24 32 A 8.0008 8.0008 0 0 0 18.34375 45.65625 L 50.261719 77.574219 A 8 8 0 0 0 50.425781 77.738281 L 120 147.3125 L 120 208 L 88 208 A 8 8 0 0 0 80 216 A 8 8 0 0 0 88 224 L 168 224 A 8 8 0 0 0 176 216 A 8 8 0 0 0 168 208 L 136 208 L 136 147.3125 L 205.57422 77.738281 A 8 8 0 0 0 205.73828 77.574219 L 237.65625 45.65625 A 8.0008 8.0008 0 0 0 232 32 L 24 32 z M 43.3125 48 L 212.6875 48 L 196.6875 64 L 59.3125 64 L 43.3125 48 z M 75.3125 80 L 180.6875 80 L 128 132.6875 L 75.3125 80 z " />
</svg>
