<?xml version="1.0" encoding="UTF-8" standalone="no"?>
<svg
   viewBox="0 0 256 256"
   version="1.1"
   id="svg2"
   sodipodi:docname="megaphone purple_coral.svg"
   xmlns:inkscape="http://www.inkscape.org/namespaces/inkscape"
   xmlns:sodipodi="http://sodipodi.sourceforge.net/DTD/sodipodi-0.dtd"
   xmlns:xlink="http://www.w3.org/1999/xlink"
   xmlns="http://www.w3.org/2000/svg"
   xmlns:svg="http://www.w3.org/2000/svg">
  <defs
     id="defs3">
    <linearGradient
       id="linearGradient1"
       inkscape:collect="always">
      <stop
         style="stop-color:#ff7c66;stop-opacity:1;"
         offset="0"
         id="stop1" />
      <stop
         style="stop-color:#a03291;stop-opacity:1;"
         offset="0.76340693"
         id="stop2" />
    </linearGradient>
    <linearGradient
       inkscape:collect="always"
       xlink:href="#linearGradient1"
       id="linearGradient2"
       x1="232.4884"
       y1="23.847498"
       x2="23.977745"
       y2="232.35815"
       gradientUnits="userSpaceOnUse" />
  </defs>
  <defs
     id="defs2" />
  <sodipodi:namedview
     id="namedview2"
     pagecolor="#ffffff"
     bordercolor="#000000"
     borderopacity="0.25"
     inkscape:showpageshadow="2"
     inkscape:pageopacity="0.0"
     inkscape:pagecheckerboard="0"
     inkscape:deskcolor="#d1d1d1" />
  <path
     id="path1"
     style="baseline-shift:baseline;display:inline;overflow:visible;vector-effect:none;fill:url(#linearGradient2);stroke-linecap:round;stroke-linejoin:round;enable-background:accumulate;stop-color:#000000;stop-opacity:1;opacity:1;fill-opacity:1"
     d="M 48.337891 24.246094 C 40.083449 24.364167 32.013597 30.831453 32 39.988281 A 8.0008 8.0008 0 0 0 32 40 L 32 200 A 8.0008 8.0008 0 0 0 32 200.00195 C 32.0031 213.02889 48.318461 220.62439 58.291016 212.24805 C 96.537715 180.16166 135.45005 171.29269 152 168.88086 L 152 200.66992 A 8.0008 8.0008 0 0 0 152 200.67383 C 152.003 206.00872 154.68131 211.01375 159.11914 213.97461 A 8.0008 8.0008 0 0 0 159.12305 213.97656 L 170.12305 221.30664 C 179.12507 227.30847 191.90288 222.36487 194.52148 211.86719 L 206.26367 167.5918 C 229.74371 164.50202 248 144.29305 248 120 C 248 93.585097 226.41492 72 200 72 L 160.26367 72 C 160.11024 71.9941 108.63079 69.976034 58.300781 27.767578 C 55.809356 25.671676 52.919538 24.573376 49.988281 24.308594 C 49.438671 24.258947 48.888187 24.238222 48.337891 24.246094 z M 48 40.011719 A 8.0008 8.0008 0 0 0 48.009766 40.019531 C 90.429677 75.598861 134.60761 84.860886 152 87.214844 L 152 152.78516 C 134.60724 155.1393 90.427888 164.4027 48.007812 199.99023 A 8.0008 8.0008 0 0 0 48 199.99805 L 48 40.011719 z M 168 88 L 200 88 C 217.76789 88 232 102.23212 232 120 C 232 137.76788 217.76789 152 200 152 L 199.98047 152 L 168 152 L 168 88 z M 168 168 L 189.60156 168 L 179.02734 207.87891 A 8.0008 8.0008 0 0 0 178.99805 207.99414 A 8.0008 8.0008 0 0 0 178.99609 207.99219 L 168 200.66602 L 168 200.66406 L 168 168 z " />
</svg>
