<?xml version="1.0" encoding="UTF-8" standalone="no"?>
<svg
   viewBox="0 0 256 256"
   version="1.1"
   id="svg2"
   sodipodi:docname="metronome purple_coral.svg"
   xmlns:inkscape="http://www.inkscape.org/namespaces/inkscape"
   xmlns:sodipodi="http://sodipodi.sourceforge.net/DTD/sodipodi-0.dtd"
   xmlns:xlink="http://www.w3.org/1999/xlink"
   xmlns="http://www.w3.org/2000/svg"
   xmlns:svg="http://www.w3.org/2000/svg">
  <defs
     id="defs3">
    <linearGradient
       id="linearGradient1"
       inkscape:collect="always">
      <stop
         style="stop-color:#ff7c66;stop-opacity:1;"
         offset="0"
         id="stop1" />
      <stop
         style="stop-color:#a03291;stop-opacity:1;"
         offset="0.76340693"
         id="stop2" />
    </linearGradient>
    <linearGradient
       inkscape:collect="always"
       xlink:href="#linearGradient1"
       id="linearGradient2"
       x1="232.4884"
       y1="23.847498"
       x2="23.977745"
       y2="232.35815"
       gradientUnits="userSpaceOnUse" />
  </defs>
  <defs
     id="defs2" />
  <sodipodi:namedview
     id="namedview2"
     pagecolor="#ffffff"
     bordercolor="#000000"
     borderopacity="0.25"
     inkscape:showpageshadow="2"
     inkscape:pageopacity="0.0"
     inkscape:pagecheckerboard="0"
     inkscape:deskcolor="#d1d1d1" />
  <path
     id="path1"
     style="baseline-shift:baseline;display:inline;overflow:visible;vector-effect:none;fill:url(#linearGradient2);stroke-linecap:round;stroke-linejoin:round;enable-background:accumulate;stop-color:#000000;stop-opacity:1;opacity:1;fill-opacity:1"
     d="M 106.91797 32 C 99.980239 31.9931 93.765536 36.530688 91.658203 43.140625 A 8.0008 8.0008 0 0 0 91.65625 43.144531 L 40.748047 203.14062 C 37.525684 213.24797 45.392796 224.00519 56 224 L 56.007812 224 L 200 224 A 8.0008 8.0008 0 0 0 200.00195 224 C 210.60554 223.997 218.46303 213.24323 215.24219 203.14062 L 187.14453 114.83398 L 213.91992 85.380859 A 8 8 0 0 0 213.38086 74.080078 A 8 8 0 0 0 207.61914 72.009766 A 8 8 0 0 0 202.08008 74.619141 L 181.53906 97.214844 L 164.33398 43.144531 A 8.0008 8.0008 0 0 0 164.33203 43.140625 C 162.22694 36.537563 156.02231 32.001745 149.0918 32 A 8.0008 8.0008 0 0 0 149.08984 32 L 106.91797 32 z M 106.90234 48 A 8.0008 8.0008 0 0 0 106.91016 48 L 149.08789 48 L 169.09961 110.89648 L 124.46094 160 L 71.265625 160 L 106.90234 48 z M 174.70703 128.51562 L 184.72461 160 L 146.08398 160 L 174.70703 128.51562 z M 66.173828 176 L 189.81641 176 L 199.99609 207.99609 A 8.0008 8.0008 0 0 0 199.99805 208 L 56 208 A 8.0008 8.0008 0 0 0 55.992188 208 A 8.0008 8.0008 0 0 0 55.994141 207.99609 L 66.173828 176 z " />
</svg>
