<?xml version="1.0" encoding="UTF-8" standalone="no"?>
<svg
   viewBox="0 0 256 256"
   version="1.1"
   id="svg2"
   sodipodi:docname="money wavy purple_coral.svg"
   xmlns:inkscape="http://www.inkscape.org/namespaces/inkscape"
   xmlns:sodipodi="http://sodipodi.sourceforge.net/DTD/sodipodi-0.dtd"
   xmlns:xlink="http://www.w3.org/1999/xlink"
   xmlns="http://www.w3.org/2000/svg"
   xmlns:svg="http://www.w3.org/2000/svg">
  <defs
     id="defs3">
    <linearGradient
       id="linearGradient1"
       inkscape:collect="always">
      <stop
         style="stop-color:#ff7c66;stop-opacity:1;"
         offset="0"
         id="stop1" />
      <stop
         style="stop-color:#a03291;stop-opacity:1;"
         offset="0.76340693"
         id="stop2" />
    </linearGradient>
    <linearGradient
       inkscape:collect="always"
       xlink:href="#linearGradient1"
       id="linearGradient2"
       x1="232.4884"
       y1="23.847498"
       x2="23.977745"
       y2="232.35815"
       gradientUnits="userSpaceOnUse" />
  </defs>
  <defs
     id="defs2" />
  <sodipodi:namedview
     id="namedview2"
     pagecolor="#ffffff"
     bordercolor="#000000"
     borderopacity="0.25"
     inkscape:showpageshadow="2"
     inkscape:pageopacity="0.0"
     inkscape:pagecheckerboard="0"
     inkscape:deskcolor="#d1d1d1" />
  <path
     id="path1"
     style="baseline-shift:baseline;display:inline;overflow:visible;vector-effect:none;fill:url(#linearGradient2);stroke-linecap:round;stroke-linejoin:round;enable-background:accumulate;stop-color:#000000;stop-opacity:1;opacity:1;fill-opacity:1"
     d="M 62.210938 48.388672 C 46.957791 49.291821 30.517849 53.213281 12.488281 62.021484 A 8.0008 8.0008 0 0 0 8 69.210938 L 8 189.21094 A 8.0008 8.0008 0 0 0 19.511719 196.39844 C 63.072872 175.11698 92.4725 185.03164 125.5625 195.61914 C 158.6525 206.20664 195.43287 217.46706 243.51172 193.97852 A 8.0008 8.0008 0 0 0 248 186.78906 L 248 66.789062 A 8.0008 8.0008 0 0 0 236.48828 59.601562 C 192.92713 80.883021 163.5275 70.968359 130.4375 60.380859 C 109.75625 53.763672 87.632851 46.883423 62.210938 48.388672 z M 71.664062 63.845703 C 90.472622 64.241191 107.46641 69.829101 125.5625 75.619141 C 155.95494 85.343529 189.4861 95.557016 232 78.970703 L 232 181.63867 C 190.9018 200.10089 162.36801 190.59737 130.4375 180.38086 C 100.04506 170.65647 66.513896 160.44298 24 177.0293 L 24 74.361328 C 38.479082 67.857004 51.432722 64.74769 63.484375 64.007812 C 66.253926 63.837784 68.977125 63.789205 71.664062 63.845703 z M 48 88 A 8 8 0 0 0 40 96 L 40 144 A 8 8 0 0 0 48 152 A 8 8 0 0 0 56 144 L 56 96 A 8 8 0 0 0 48 88 z M 128 96 C 110.42165 96 96 110.42165 96 128 C 96 145.57835 110.42165 160 128 160 C 145.57835 160 160 145.57835 160 128 C 160 110.42165 145.57835 96 128 96 z M 208 104 A 8 8 0 0 0 200 112 L 200 160 A 8 8 0 0 0 208 168 A 8 8 0 0 0 216 160 L 216 112 A 8 8 0 0 0 208 104 z M 128 112 C 136.93131 112 144 119.06869 144 128 C 144 136.93131 136.93131 144 128 144 C 119.06869 144 112 136.93131 112 128 C 112 119.06869 119.06869 112 128 112 z " />
</svg>
