<?xml version="1.0" encoding="UTF-8" standalone="no"?>
<svg
   viewBox="0 0 256 256"
   version="1.1"
   id="svg5"
   sodipodi:docname="money purple_coral.svg"
   xmlns:inkscape="http://www.inkscape.org/namespaces/inkscape"
   xmlns:sodipodi="http://sodipodi.sourceforge.net/DTD/sodipodi-0.dtd"
   xmlns:xlink="http://www.w3.org/1999/xlink"
   xmlns="http://www.w3.org/2000/svg"
   xmlns:svg="http://www.w3.org/2000/svg">
  <defs
     id="defs3">
    <linearGradient
       id="linearGradient1"
       inkscape:collect="always">
      <stop
         style="stop-color:#ff7c66;stop-opacity:1;"
         offset="0"
         id="stop1" />
      <stop
         style="stop-color:#a03291;stop-opacity:1;"
         offset="0.76340693"
         id="stop2" />
    </linearGradient>
    <linearGradient
       inkscape:collect="always"
       xlink:href="#linearGradient1"
       id="linearGradient2"
       x1="232.4884"
       y1="23.847498"
       x2="23.977745"
       y2="232.35815"
       gradientUnits="userSpaceOnUse" />
  </defs>
  <defs
     id="defs5" />
  <sodipodi:namedview
     id="namedview5"
     pagecolor="#ffffff"
     bordercolor="#000000"
     borderopacity="0.25"
     inkscape:showpageshadow="2"
     inkscape:pageopacity="0.0"
     inkscape:pagecheckerboard="0"
     inkscape:deskcolor="#d1d1d1" />
  <path
     id="circle1"
     style="baseline-shift:baseline;display:inline;overflow:visible;vector-effect:none;fill:url(#linearGradient2);stroke-linecap:round;stroke-linejoin:round;enable-background:accumulate;stop-color:#000000;stop-opacity:1;opacity:1;fill-opacity:1"
     d="M 16 56 A 8.0008 8.0008 0 0 0 8 64 L 8 192 A 8.0008 8.0008 0 0 0 16 200 L 240 200 A 8.0008 8.0008 0 0 0 248 192 L 248 64 A 8.0008 8.0008 0 0 0 240 56 L 16 56 z M 24 72 L 45.363281 72 C 41.242579 81.589435 33.589435 89.242579 24 93.363281 L 24 72 z M 62.339844 72 L 193.66016 72 C 199.12 90.409284 213.59072 104.88 232 110.33984 L 232 145.66016 C 213.59072 151.12 199.12 165.59072 193.66016 184 L 62.339844 184 C 56.879998 165.59072 42.409284 151.12 24 145.66016 L 24 110.33984 C 42.409283 104.88 56.879998 90.409284 62.339844 72 z M 210.63672 72 L 232 72 L 232 93.363281 C 222.41056 89.242579 214.75742 81.589434 210.63672 72 z M 128 88 C 106.00337 88 88 106.00337 88 128 C 88 149.99663 106.00337 168 128 168 C 149.99663 168 168 149.99663 168 128 C 168 106.00337 149.99663 88 128 88 z M 128 104 C 141.34959 104 152 114.65041 152 128 C 152 141.34959 141.34959 152 128 152 C 114.65041 152 104 141.34959 104 128 C 104 114.65041 114.65041 104 128 104 z M 24 162.63672 C 33.589434 166.75742 41.242579 174.41056 45.363281 184 L 24 184 L 24 162.63672 z M 232 162.63672 L 232 184 L 210.63672 184 C 214.75742 174.41057 222.41057 166.75742 232 162.63672 z " />
</svg>
