<?xml version="1.0" encoding="UTF-8" standalone="no"?>
<svg
   viewBox="0 0 256 256"
   version="1.1"
   id="svg3"
   sodipodi:docname="music notes minus purple_coral.svg"
   xmlns:inkscape="http://www.inkscape.org/namespaces/inkscape"
   xmlns:sodipodi="http://sodipodi.sourceforge.net/DTD/sodipodi-0.dtd"
   xmlns:xlink="http://www.w3.org/1999/xlink"
   xmlns="http://www.w3.org/2000/svg"
   xmlns:svg="http://www.w3.org/2000/svg">
  <defs
     id="defs3">
    <linearGradient
       id="linearGradient1"
       inkscape:collect="always">
      <stop
         style="stop-color:#ff7c66;stop-opacity:1;"
         offset="0"
         id="stop1" />
      <stop
         style="stop-color:#a03291;stop-opacity:1;"
         offset="0.76340693"
         id="stop2" />
    </linearGradient>
    <linearGradient
       inkscape:collect="always"
       xlink:href="#linearGradient1"
       id="linearGradient2"
       x1="232.4884"
       y1="23.847498"
       x2="23.977745"
       y2="232.35815"
       gradientUnits="userSpaceOnUse" />
  </defs>
  <defs
     id="defs1" />
  <sodipodi:namedview
     id="namedview3"
     pagecolor="#ffffff"
     bordercolor="#000000"
     borderopacity="0.25"
     inkscape:showpageshadow="2"
     inkscape:pageopacity="0.0"
     inkscape:pagecheckerboard="0"
     inkscape:deskcolor="#d1d1d1" />
  <path
     id="line1"
     style="baseline-shift:baseline;display:inline;overflow:visible;vector-effect:none;fill:url(#linearGradient2);stroke-linecap:round;stroke-linejoin:round;enable-background:accumulate;stop-color:#000000;stop-opacity:1;opacity:1;fill-opacity:1"
     d="M 136.13477 34 A 8 8 0 0 0 134.06055 34.238281 L 78.060547 48.238281 A 8.0008 8.0008 0 0 0 72 56 L 72 103.91602 A 8 8 0 0 0 72 104.08398 L 72 166.11523 C 66.26871 162.25743 59.383214 160 52 160 C 32.212506 160 16 176.21251 16 196 C 16 215.78749 32.212506 232 52 232 C 71.787494 232 88 215.78749 88 196 L 88 110.24609 L 161.93945 91.761719 A 8 8 0 0 0 167.76172 82.060547 A 8 8 0 0 0 158.06055 76.238281 L 88 93.753906 L 88 62.246094 L 137.93945 49.761719 A 8 8 0 0 0 143.76172 40.060547 A 8 8 0 0 0 136.13477 34 z M 176 40 A 8 8 0 0 0 168 48 A 8 8 0 0 0 176 56 L 224 56 A 8 8 0 0 0 232 48 A 8 8 0 0 0 224 40 L 176 40 z M 208 80 A 8 8 0 0 0 200 88 L 200 134.11523 C 194.26871 130.25743 187.38321 128 180 128 C 160.21251 128 144 144.21251 144 164 C 144 183.78749 160.21251 200 180 200 C 199.78749 200 216 183.78749 216 164 L 216 88 A 8 8 0 0 0 208 80 z M 180 144 C 191.14045 144 200 152.85955 200 164 C 200 175.14045 191.14045 184 180 184 C 168.85955 184 160 175.14045 160 164 C 160 152.85955 168.85955 144 180 144 z M 52 176 C 63.140452 176 72 184.85955 72 196 C 72 207.14045 63.140452 216 52 216 C 40.859548 216 32 207.14045 32 196 C 32 184.85955 40.859548 176 52 176 z " />
</svg>
