<?xml version="1.0" encoding="UTF-8" standalone="no"?>
<svg
   viewBox="0 0 256 256"
   version="1.1"
   id="svg3"
   sodipodi:docname="newspaper purple_coral.svg"
   xmlns:inkscape="http://www.inkscape.org/namespaces/inkscape"
   xmlns:sodipodi="http://sodipodi.sourceforge.net/DTD/sodipodi-0.dtd"
   xmlns:xlink="http://www.w3.org/1999/xlink"
   xmlns="http://www.w3.org/2000/svg"
   xmlns:svg="http://www.w3.org/2000/svg">
  <defs
     id="defs3">
    <linearGradient
       id="linearGradient1"
       inkscape:collect="always">
      <stop
         style="stop-color:#ff7c66;stop-opacity:1;"
         offset="0"
         id="stop1" />
      <stop
         style="stop-color:#a03291;stop-opacity:1;"
         offset="0.76340693"
         id="stop2" />
    </linearGradient>
    <linearGradient
       inkscape:collect="always"
       xlink:href="#linearGradient1"
       id="linearGradient2"
       x1="232.4884"
       y1="23.847498"
       x2="23.977745"
       y2="232.35815"
       gradientUnits="userSpaceOnUse" />
  </defs>
  <defs
     id="defs1" />
  <sodipodi:namedview
     id="namedview3"
     pagecolor="#ffffff"
     bordercolor="#000000"
     borderopacity="0.25"
     inkscape:showpageshadow="2"
     inkscape:pageopacity="0.0"
     inkscape:pagecheckerboard="0"
     inkscape:deskcolor="#d1d1d1" />
  <path
     id="line1"
     style="baseline-shift:baseline;display:inline;overflow:visible;vector-effect:none;fill:url(#linearGradient2);stroke-linecap:round;stroke-linejoin:round;enable-background:accumulate;stop-color:#000000;stop-opacity:1;opacity:1;fill-opacity:1"
     d="M 56 48 C 47.258201 48 40 55.258201 40 64 L 40 184 C 40 188.51304 36.513035 192 32 192 C 27.486965 192 24 188.51304 24 184 L 24 88 A 8 8 0 0 0 16 80 A 8 8 0 0 0 8 88 L 8 184 C 8 197.16008 18.839923 208 32 208 L 208 208 C 221.16008 208 232 197.16008 232 184 L 232 64 C 232 55.258201 224.7418 48 216 48 L 56 48 z M 56 64 L 216 64 L 216 184 C 216 188.51304 212.51304 192 208 192 L 54.509766 192 C 55.417068 189.48228 56 186.81293 56 184 L 56 64 z M 96 104 A 8 8 0 0 0 88 112 A 8 8 0 0 0 96 120 L 176 120 A 8 8 0 0 0 184 112 A 8 8 0 0 0 176 104 L 96 104 z M 96 136 A 8 8 0 0 0 88 144 A 8 8 0 0 0 96 152 L 176 152 A 8 8 0 0 0 184 144 A 8 8 0 0 0 176 136 L 96 136 z " />
</svg>
