<?xml version="1.0" encoding="UTF-8" standalone="no"?>
<svg
   viewBox="0 0 256 256"
   version="1.1"
   id="svg3"
   sodipodi:docname="number square eight purple_coral.svg"
   xmlns:inkscape="http://www.inkscape.org/namespaces/inkscape"
   xmlns:sodipodi="http://sodipodi.sourceforge.net/DTD/sodipodi-0.dtd"
   xmlns:xlink="http://www.w3.org/1999/xlink"
   xmlns="http://www.w3.org/2000/svg"
   xmlns:svg="http://www.w3.org/2000/svg">
  <defs
     id="defs3">
    <linearGradient
       id="linearGradient1"
       inkscape:collect="always">
      <stop
         style="stop-color:#ff7c66;stop-opacity:1;"
         offset="0"
         id="stop1" />
      <stop
         style="stop-color:#a03291;stop-opacity:1;"
         offset="0.76340693"
         id="stop2" />
    </linearGradient>
    <linearGradient
       inkscape:collect="always"
       xlink:href="#linearGradient1"
       id="linearGradient2"
       x1="232.4884"
       y1="23.847498"
       x2="23.977745"
       y2="232.35815"
       gradientUnits="userSpaceOnUse" />
  </defs>
  <defs
     id="defs1" />
  <sodipodi:namedview
     id="namedview3"
     pagecolor="#ffffff"
     bordercolor="#000000"
     borderopacity="0.25"
     inkscape:showpageshadow="2"
     inkscape:pageopacity="0.0"
     inkscape:pagecheckerboard="0"
     inkscape:deskcolor="#d1d1d1" />
  <path
     id="rect2"
     style="baseline-shift:baseline;display:inline;overflow:visible;vector-effect:none;fill:url(#linearGradient2);stroke-linecap:round;stroke-linejoin:round;enable-background:accumulate;stop-color:#000000;stop-opacity:1;opacity:1;fill-opacity:1"
     d="M 48 32 C 39.274378 32 32 39.274378 32 48 L 32 208 C 32 216.72562 39.274378 224 48 224 L 208 224 C 216.72562 224 224 216.72562 224 208 L 224 48 C 224 39.274378 216.72562 32 208 32 L 48 32 z M 48 48 L 208 48 L 208 208 L 48 208 L 48 48 z M 128 68 C 110.42165 68 96 82.421645 96 100 C 96 109.19695 99.948365 117.52936 106.23047 123.38477 C 97.598613 129.97924 92 140.37265 92 152 C 92 171.78749 108.21251 188 128 188 C 147.78749 188 164 171.78749 164 152 C 164 140.37265 158.40139 129.97924 149.76953 123.38477 C 156.05163 117.52936 160 109.19695 160 100 C 160 82.421645 145.57835 68 128 68 z M 128 84 C 136.93131 84 144 91.068687 144 100 C 144 108.9313 136.9313 115.99998 128 116 C 119.0687 115.99998 112 108.9313 112 100 C 112 91.068687 119.06869 84 128 84 z M 128 132 C 139.14045 132 148 140.85955 148 152 C 148 163.14045 139.14045 172 128 172 C 116.85955 172 108 163.14045 108 152 C 108 140.85955 116.85955 132 128 132 z " />
</svg>
