<?xml version="1.0" encoding="UTF-8" standalone="no"?>
<svg
   viewBox="0 0 256 256"
   version="1.1"
   id="svg2"
   sodipodi:docname="number circle six purple_coral.svg"
   xmlns:inkscape="http://www.inkscape.org/namespaces/inkscape"
   xmlns:sodipodi="http://sodipodi.sourceforge.net/DTD/sodipodi-0.dtd"
   xmlns:xlink="http://www.w3.org/1999/xlink"
   xmlns="http://www.w3.org/2000/svg"
   xmlns:svg="http://www.w3.org/2000/svg">
  <defs
     id="defs3">
    <linearGradient
       id="linearGradient1"
       inkscape:collect="always">
      <stop
         style="stop-color:#ff7c66;stop-opacity:1;"
         offset="0"
         id="stop1" />
      <stop
         style="stop-color:#a03291;stop-opacity:1;"
         offset="0.76340693"
         id="stop2" />
    </linearGradient>
    <linearGradient
       inkscape:collect="always"
       xlink:href="#linearGradient1"
       id="linearGradient2"
       x1="232.4884"
       y1="23.847498"
       x2="23.977745"
       y2="232.35815"
       gradientUnits="userSpaceOnUse" />
  </defs>
  <defs
     id="defs2" />
  <sodipodi:namedview
     id="namedview2"
     pagecolor="#ffffff"
     bordercolor="#000000"
     borderopacity="0.25"
     inkscape:showpageshadow="2"
     inkscape:pageopacity="0.0"
     inkscape:pagecheckerboard="0"
     inkscape:deskcolor="#d1d1d1" />
  <path
     id="circle1"
     style="baseline-shift:baseline;display:inline;overflow:visible;vector-effect:none;fill:url(#linearGradient2);stroke-linecap:round;stroke-linejoin:round;enable-background:accumulate;stop-color:#000000;stop-opacity:1;opacity:1;fill-opacity:1"
     d="M 128 24 C 70.657143 24 24 70.657143 24 128 C 24 185.34286 70.657143 232 128 232 C 185.34286 232 232 185.34286 232 128 C 232 70.657143 185.34286 24 128 24 z M 128 40 C 176.69582 40 216 79.304185 216 128 C 216 176.69582 176.69582 216 128 216 C 79.304185 216 40 176.69582 40 128 C 40 79.304185 79.304185 40 128 40 z M 136.11719 72 A 8 8 0 0 0 134.04297 72.242188 A 8 8 0 0 0 129.13086 75.898438 L 96.880859 129.89844 A 8 8 0 0 0 96.451172 130.72461 C 93.616436 135.86174 92 141.75228 92 148 C 92 167.78749 108.21251 184 128 184 C 147.78749 184 164 167.78749 164 148 C 164 128.21251 147.78749 112 128 112 C 127.39052 112 126.78396 112.01453 126.18164 112.04492 L 142.86914 84.101562 A 8 8 0 0 0 140.10156 73.130859 A 8 8 0 0 0 136.11719 72 z M 128 128 C 139.14045 128 148 136.85955 148 148 C 148 159.14045 139.14045 168 128 168 C 116.85955 168 108 159.14045 108 148 C 108 144.57688 108.83627 141.36993 110.31836 138.56836 A 8 8 0 0 0 110.61914 138.10156 L 111.50586 136.61523 L 111.55078 136.54297 C 115.14494 131.3598 121.1396 128 128 128 z " />
</svg>
