<?xml version="1.0" encoding="UTF-8" standalone="no"?>
<svg
   viewBox="0 0 256 256"
   version="1.1"
   id="svg10"
   sodipodi:docname="numpad purple_coral.svg"
   xmlns:inkscape="http://www.inkscape.org/namespaces/inkscape"
   xmlns:sodipodi="http://sodipodi.sourceforge.net/DTD/sodipodi-0.dtd"
   xmlns:xlink="http://www.w3.org/1999/xlink"
   xmlns="http://www.w3.org/2000/svg"
   xmlns:svg="http://www.w3.org/2000/svg">
  <defs
     id="defs3">
    <linearGradient
       id="linearGradient1"
       inkscape:collect="always">
      <stop
         style="stop-color:#ff7c66;stop-opacity:1;"
         offset="0"
         id="stop1" />
      <stop
         style="stop-color:#a03291;stop-opacity:1;"
         offset="0.76340693"
         id="stop2" />
    </linearGradient>
    <linearGradient
       inkscape:collect="always"
       xlink:href="#linearGradient1"
       id="linearGradient2"
       x1="232.4884"
       y1="23.847498"
       x2="23.977745"
       y2="232.35815"
       gradientUnits="userSpaceOnUse" />
  </defs>
  <defs
     id="defs10" />
  <sodipodi:namedview
     id="namedview10"
     pagecolor="#ffffff"
     bordercolor="#000000"
     borderopacity="0.25"
     inkscape:showpageshadow="2"
     inkscape:pageopacity="0.0"
     inkscape:pagecheckerboard="0"
     inkscape:deskcolor="#d1d1d1" />
  <path
     id="circle1"
     style="baseline-shift:baseline;display:inline;overflow:visible;vector-effect:none;fill:url(#linearGradient2);stroke-linecap:round;stroke-linejoin:round;enable-background:accumulate;stop-color:#000000;stop-opacity:1;opacity:1;fill-opacity:1"
     d="M 64 32 A 16 16 0 0 0 48 48 A 16 16 0 0 0 64 64 A 16 16 0 0 0 80 48 A 16 16 0 0 0 64 32 z M 128 32 A 16 16 0 0 0 112 48 A 16 16 0 0 0 128 64 A 16 16 0 0 0 144 48 A 16 16 0 0 0 128 32 z M 192 32 A 16 16 0 0 0 176 48 A 16 16 0 0 0 192 64 A 16 16 0 0 0 208 48 A 16 16 0 0 0 192 32 z M 64 88 A 16 16 0 0 0 48 104 A 16 16 0 0 0 64 120 A 16 16 0 0 0 80 104 A 16 16 0 0 0 64 88 z M 128 88 A 16 16 0 0 0 112 104 A 16 16 0 0 0 128 120 A 16 16 0 0 0 144 104 A 16 16 0 0 0 128 88 z M 192 88 A 16 16 0 0 0 176 104 A 16 16 0 0 0 192 120 A 16 16 0 0 0 208 104 A 16 16 0 0 0 192 88 z M 64 144 A 16 16 0 0 0 48 160 A 16 16 0 0 0 64 176 A 16 16 0 0 0 80 160 A 16 16 0 0 0 64 144 z M 128 144 A 16 16 0 0 0 112 160 A 16 16 0 0 0 128 176 A 16 16 0 0 0 144 160 A 16 16 0 0 0 128 144 z M 192 144 A 16 16 0 0 0 176 160 A 16 16 0 0 0 192 176 A 16 16 0 0 0 208 160 A 16 16 0 0 0 192 144 z M 128 200 A 16 16 0 0 0 112 216 A 16 16 0 0 0 128 232 A 16 16 0 0 0 144 216 A 16 16 0 0 0 128 200 z " />
</svg>
