<?xml version="1.0" encoding="UTF-8" standalone="no"?>
<svg
   viewBox="0 0 256 256"
   version="1.1"
   id="svg1"
   sodipodi:docname="octagon purple_coral.svg"
   xmlns:inkscape="http://www.inkscape.org/namespaces/inkscape"
   xmlns:sodipodi="http://sodipodi.sourceforge.net/DTD/sodipodi-0.dtd"
   xmlns:xlink="http://www.w3.org/1999/xlink"
   xmlns="http://www.w3.org/2000/svg"
   xmlns:svg="http://www.w3.org/2000/svg">
  <defs
     id="defs3">
    <linearGradient
       id="linearGradient1"
       inkscape:collect="always">
      <stop
         style="stop-color:#ff7c66;stop-opacity:1;"
         offset="0"
         id="stop1" />
      <stop
         style="stop-color:#a03291;stop-opacity:1;"
         offset="0.76340693"
         id="stop2" />
    </linearGradient>
    <linearGradient
       inkscape:collect="always"
       xlink:href="#linearGradient1"
       id="linearGradient2"
       x1="232.4884"
       y1="23.847498"
       x2="23.977745"
       y2="232.35815"
       gradientUnits="userSpaceOnUse" />
  </defs>
  <defs
     id="defs1" />
  <sodipodi:namedview
     id="namedview1"
     pagecolor="#ffffff"
     bordercolor="#000000"
     borderopacity="0.25"
     inkscape:showpageshadow="2"
     inkscape:pageopacity="0.0"
     inkscape:pagecheckerboard="0"
     inkscape:deskcolor="#d1d1d1" />
  <path
     id="path1"
     style="baseline-shift:baseline;display:inline;overflow:visible;vector-effect:none;fill:url(#linearGradient2);stroke-linecap:round;stroke-linejoin:round;enable-background:accumulate;stop-color:#000000;stop-opacity:1;opacity:1;fill-opacity:1"
     d="M 91.550781 24 C 87.311233 23.9982 83.235916 25.683433 80.236328 28.679688 L 80.234375 28.681641 L 28.681641 80.234375 L 28.679688 80.236328 C 25.682139 83.237211 23.996665 87.314978 24 91.556641 L 24 164.44922 C 23.9982 168.68877 25.683433 172.76408 28.679688 175.76367 L 28.681641 175.76562 L 80.234375 227.31836 L 80.236328 227.32031 C 83.235916 230.31657 87.311233 232.00177 91.550781 232 L 164.44922 232 C 168.68877 232.002 172.76408 230.31657 175.76367 227.32031 L 175.76562 227.31836 L 227.31836 175.76562 L 227.32031 175.76367 C 230.31657 172.76408 232.00177 168.68877 232 164.44922 L 232 164.44336 L 232 91.556641 L 232 91.550781 C 232.002 87.311233 230.31657 83.235916 227.32031 80.236328 L 227.31836 80.234375 L 175.76562 28.681641 L 175.76367 28.679688 C 172.76399 25.683705 168.68877 23.998228 164.44922 24 L 91.556641 24 L 91.550781 24 z M 91.542969 40 L 91.546875 40 L 164.45312 40 L 164.45703 40 L 216 91.542969 L 216 91.546875 L 216 164.45312 L 216 164.45703 L 164.45703 216 L 164.45312 216 L 91.546875 216 L 91.542969 216 L 40 164.45703 L 40 164.45312 L 40 91.546875 L 40 91.542969 L 91.542969 40 z " />
</svg>
