<?xml version="1.0" encoding="UTF-8" standalone="no"?>
<svg
   viewBox="0 0 256 256"
   version="1.1"
   id="svg4"
   sodipodi:docname="palette purple_coral.svg"
   xmlns:inkscape="http://www.inkscape.org/namespaces/inkscape"
   xmlns:sodipodi="http://sodipodi.sourceforge.net/DTD/sodipodi-0.dtd"
   xmlns:xlink="http://www.w3.org/1999/xlink"
   xmlns="http://www.w3.org/2000/svg"
   xmlns:svg="http://www.w3.org/2000/svg">
  <defs
     id="defs3">
    <linearGradient
       id="linearGradient1"
       inkscape:collect="always">
      <stop
         style="stop-color:#ff7c66;stop-opacity:1;"
         offset="0"
         id="stop1" />
      <stop
         style="stop-color:#a03291;stop-opacity:1;"
         offset="0.76340693"
         id="stop2" />
    </linearGradient>
    <linearGradient
       inkscape:collect="always"
       xlink:href="#linearGradient1"
       id="linearGradient2"
       x1="232.4884"
       y1="23.847498"
       x2="23.977745"
       y2="232.35815"
       gradientUnits="userSpaceOnUse" />
  </defs>
  <defs
     id="defs4" />
  <sodipodi:namedview
     id="namedview4"
     pagecolor="#ffffff"
     bordercolor="#000000"
     borderopacity="0.25"
     inkscape:showpageshadow="2"
     inkscape:pageopacity="0.0"
     inkscape:pagecheckerboard="0"
     inkscape:deskcolor="#d1d1d1" />
  <path
     id="path1"
     style="baseline-shift:baseline;display:inline;overflow:visible;vector-effect:none;fill:url(#linearGradient2);stroke-linecap:round;stroke-linejoin:round;enable-background:accumulate;stop-color:#000000;stop-opacity:1;opacity:1;fill-opacity:1"
     d="M 126.91602 24 C 69.993635 24.592973 23.996912 71.074539 24 128 C 24 173.21971 53.403038 208.04205 93.333984 222.15234 C 113.91546 229.429 135.98416 213.83581 136 192.00586 A 8.0008 8.0008 0 0 0 136 192 C 136 183.06869 143.06869 176 152 176 L 198.21094 176 C 213.09254 176.001 226.09081 165.64012 229.4082 151.13281 A 8.0008 8.0008 0 0 0 229.41211 151.12109 C 231.20058 143.24171 232.06892 135.18108 232 127.10156 C 231.51272 69.905451 184.13155 23.426151 126.91992 24 A 8.0008 8.0008 0 0 0 126.91602 24 z M 127.08008 40 C 175.54845 39.513849 215.58728 78.7944 216 127.23828 C 216.0583 134.07591 215.32315 140.89796 213.81055 147.56641 C 212.13694 154.88526 205.71871 160.00122 198.21094 160 L 152 160 C 134.42165 160 120 174.42165 120 192 C 119.988 203.28081 109.30293 210.82908 98.666016 207.06836 A 8.0008 8.0008 0 0 0 98.666016 207.06641 C 64.056962 194.83675 40 166.40029 40 128 C 39.997378 79.664267 78.747485 40.5056 127.08008 40 z M 128 64 A 12 12 0 0 0 116 76 A 12 12 0 0 0 128 88 A 12 12 0 0 0 140 76 A 12 12 0 0 0 128 64 z M 84 88 A 12 12 0 0 0 72 100 A 12 12 0 0 0 84 112 A 12 12 0 0 0 96 100 A 12 12 0 0 0 84 88 z M 172 88 A 12 12 0 0 0 160 100 A 12 12 0 0 0 172 112 A 12 12 0 0 0 184 100 A 12 12 0 0 0 172 88 z M 84 144 A 12 12 0 0 0 72 156 A 12 12 0 0 0 84 168 A 12 12 0 0 0 96 156 A 12 12 0 0 0 84 144 z " />
</svg>
