<?xml version="1.0" encoding="UTF-8" standalone="no"?>
<svg
   viewBox="0 0 256 256"
   version="1.1"
   id="svg1"
   sodipodi:docname="patreon logo purple_coral.svg"
   xmlns:inkscape="http://www.inkscape.org/namespaces/inkscape"
   xmlns:sodipodi="http://sodipodi.sourceforge.net/DTD/sodipodi-0.dtd"
   xmlns:xlink="http://www.w3.org/1999/xlink"
   xmlns="http://www.w3.org/2000/svg"
   xmlns:svg="http://www.w3.org/2000/svg">
  <defs
     id="defs3">
    <linearGradient
       id="linearGradient1"
       inkscape:collect="always">
      <stop
         style="stop-color:#ff7c66;stop-opacity:1;"
         offset="0"
         id="stop1" />
      <stop
         style="stop-color:#a03291;stop-opacity:1;"
         offset="0.76340693"
         id="stop2" />
    </linearGradient>
    <linearGradient
       inkscape:collect="always"
       xlink:href="#linearGradient1"
       id="linearGradient2"
       x1="232.4884"
       y1="23.847498"
       x2="23.977745"
       y2="232.35815"
       gradientUnits="userSpaceOnUse" />
  </defs>
  <defs
     id="defs1" />
  <sodipodi:namedview
     id="namedview1"
     pagecolor="#ffffff"
     bordercolor="#000000"
     borderopacity="0.25"
     inkscape:showpageshadow="2"
     inkscape:pageopacity="0.0"
     inkscape:pagecheckerboard="0"
     inkscape:deskcolor="#d1d1d1" />
  <path
     id="path1"
     style="baseline-shift:baseline;display:inline;overflow:visible;vector-effect:none;fill:url(#linearGradient2);stroke-linecap:round;stroke-linejoin:round;enable-background:accumulate;stop-color:#000000;stop-opacity:1;opacity:1;fill-opacity:1"
     d="M 140.57617 24.029297 C 113.35513 24.901479 85.581554 34.72349 65.765625 54.880859 A 8.0008 8.0008 0 0 0 65.763672 54.882812 C 39.802008 81.310412 36.47676 126.36511 42.414062 164.9043 C 45.382714 184.17389 50.803562 201.92688 57.96875 215.48047 C 61.551344 222.25726 65.552222 228.01686 70.304688 232.41211 C 75.057153 236.80736 80.910536 240 87.519531 240 C 97.757765 240 106.38476 235.33304 112.62109 228.95898 C 118.85742 222.58493 123.30497 214.67372 127.55859 206.56445 C 136.06584 190.34592 143.92214 173.47612 156.24023 165.12109 A 8.0008 8.0008 0 0 0 156.24219 165.11914 C 166.23126 158.34084 184.29305 154.02302 200.7207 145.10938 C 217.14832 136.19578 232 120.28165 232 93.160156 C 232 74.695578 224.35437 59.042926 212.43555 47.783203 C 200.51672 36.52348 184.56787 29.384166 167.29688 26.089844 C 158.66138 24.442682 149.64985 23.738569 140.57617 24.029297 z M 141.22266 40.101562 C 149.08276 39.817915 156.88065 40.391302 164.30078 41.806641 C 179.14104 44.637318 192.29328 50.766285 201.44727 59.414062 C 210.60125 68.061841 216 78.954735 216 93.160156 C 216 115.03866 206.76719 123.62553 193.08984 131.04688 C 179.4125 138.46822 161.34874 142.31916 147.25781 151.88086 C 129.7075 163.78601 121.50302 183.66507 113.39062 199.13086 C 109.33424 206.86409 105.33351 213.52796 101.18359 217.76953 C 97.033681 222.0111 93.336297 224 87.519531 224 C 86.101027 224 84.005424 223.28643 81.169922 220.66406 C 78.334419 218.04169 75.110062 213.67258 72.113281 208.00391 C 66.119719 196.66655 60.967913 180.26291 58.226562 162.46875 C 52.743866 126.88044 57.449445 86.178057 77.177734 66.095703 C 93.489281 49.504364 117.64326 40.952472 141.22266 40.101562 z " />
</svg>
