<?xml version="1.0" encoding="UTF-8" standalone="no"?>
<svg
   viewBox="0 0 256 256"
   version="1.1"
   id="svg5"
   sodipodi:docname="pencil slash purple_coral.svg"
   xmlns:inkscape="http://www.inkscape.org/namespaces/inkscape"
   xmlns:sodipodi="http://sodipodi.sourceforge.net/DTD/sodipodi-0.dtd"
   xmlns:xlink="http://www.w3.org/1999/xlink"
   xmlns="http://www.w3.org/2000/svg"
   xmlns:svg="http://www.w3.org/2000/svg">
  <defs
     id="defs3">
    <linearGradient
       id="linearGradient1"
       inkscape:collect="always">
      <stop
         style="stop-color:#ff7c66;stop-opacity:1;"
         offset="0"
         id="stop1" />
      <stop
         style="stop-color:#a03291;stop-opacity:1;"
         offset="0.76340693"
         id="stop2" />
    </linearGradient>
    <linearGradient
       inkscape:collect="always"
       xlink:href="#linearGradient1"
       id="linearGradient2"
       x1="232.4884"
       y1="23.847498"
       x2="23.977745"
       y2="232.35815"
       gradientUnits="userSpaceOnUse" />
  </defs>
  <defs
     id="defs5" />
  <sodipodi:namedview
     id="namedview5"
     pagecolor="#ffffff"
     bordercolor="#000000"
     borderopacity="0.25"
     inkscape:showpageshadow="2"
     inkscape:pageopacity="0.0"
     inkscape:pagecheckerboard="0"
     inkscape:deskcolor="#d1d1d1" />
  <path
     id="line1"
     style="baseline-shift:baseline;display:inline;overflow:visible;vector-effect:none;fill:url(#linearGradient2);stroke-linecap:round;stroke-linejoin:round;enable-background:accumulate;stop-color:#000000;stop-opacity:1;opacity:1;fill-opacity:1"
     d="M 171.32422 24.039062 C 167.21439 24.03907 163.10596 25.583579 160.01562 28.671875 A 8.0008 8.0008 0 0 0 160.01367 28.673828 L 118.34375 70.34375 A 8 8 0 0 0 118.34375 81.65625 A 8 8 0 0 0 129.65625 81.65625 L 136 75.3125 L 152.6875 92 L 144.99219 99.693359 A 8 8 0 0 0 144.99219 111.00781 A 8 8 0 0 0 156.30664 111.00781 L 164 103.3125 L 180.67188 119.98438 L 171.66406 128.99219 A 8 8 0 0 0 171.66406 140.30664 A 8 8 0 0 0 182.97656 140.30664 L 197.23438 126.04883 A 8 8 0 0 0 197.65625 125.65625 A 8 8 0 0 0 198.04883 125.23438 L 227.31641 95.966797 A 8.0008 8.0008 0 0 0 227.31836 95.964844 C 233.49496 89.784193 233.49496 79.526354 227.31836 73.345703 A 8.0008 8.0008 0 0 0 227.31641 73.341797 L 182.63672 28.671875 A 8.0008 8.0008 0 0 0 182.63477 28.671875 C 179.54444 25.583581 175.43405 24.03907 171.32422 24.039062 z M 48.380859 32.009766 A 8 8 0 0 0 42.619141 34.080078 A 8 8 0 0 0 42.080078 45.380859 L 90.283203 98.404297 L 36.683594 152.00391 A 8.0008 8.0008 0 0 0 36.679688 152.00586 C 35.131599 153.55564 33.94277 155.39588 33.146484 157.39453 A 8 8 0 0 0 32.984375 157.84961 C 32.352751 159.58533 32.000872 161.42636 32 163.30664 A 8.0008 8.0008 0 0 0 32 163.31055 L 32 208 C 32 216.7418 39.258201 224 48 224 L 92.689453 224 A 8.0008 8.0008 0 0 0 92.693359 224 C 94.573641 223.99911 96.414669 223.64725 98.150391 223.01562 A 8 8 0 0 0 98.605469 222.85352 C 100.60413 222.05723 102.44433 220.8684 103.99414 219.32031 A 8.0008 8.0008 0 0 0 103.99609 219.31641 L 154.39062 168.92188 L 202.08008 221.38086 A 8 8 0 0 0 213.38086 221.91992 A 8 8 0 0 0 213.91992 210.61914 L 160.75195 152.13477 A 8 8 0 0 0 160.41797 151.76758 L 107.49805 93.556641 A 8 8 0 0 0 106.99609 93.003906 L 53.919922 34.619141 A 8 8 0 0 0 48.380859 32.009766 z M 171.32422 39.988281 L 216.00195 84.654297 L 216 84.65625 L 191.98438 108.67188 L 169.65625 86.34375 A 8 8 0 0 0 169.6543 86.341797 L 147.3125 64 L 171.32422 39.988281 z M 101.05664 110.25586 L 116.94922 127.73828 L 68 176.6875 L 51.3125 160 L 101.05664 110.25586 z M 127.72461 139.58789 L 143.61719 157.07031 L 96 204.6875 L 79.3125 188 L 127.72461 139.58789 z M 48 179.3125 L 76.6875 208 L 48 208 L 48 179.3125 z " />
</svg>
