<?xml version="1.0" encoding="UTF-8" standalone="no"?>
<svg
   viewBox="0 0 256 256"
   version="1.1"
   id="svg1"
   sodipodi:docname="pencil simple purple_coral.svg"
   xmlns:inkscape="http://www.inkscape.org/namespaces/inkscape"
   xmlns:sodipodi="http://sodipodi.sourceforge.net/DTD/sodipodi-0.dtd"
   xmlns:xlink="http://www.w3.org/1999/xlink"
   xmlns="http://www.w3.org/2000/svg"
   xmlns:svg="http://www.w3.org/2000/svg">
  <defs
     id="defs3">
    <linearGradient
       id="linearGradient1"
       inkscape:collect="always">
      <stop
         style="stop-color:#ff7c66;stop-opacity:1;"
         offset="0"
         id="stop1" />
      <stop
         style="stop-color:#a03291;stop-opacity:1;"
         offset="0.76340693"
         id="stop2" />
    </linearGradient>
    <linearGradient
       inkscape:collect="always"
       xlink:href="#linearGradient1"
       id="linearGradient2"
       x1="232.4884"
       y1="23.847498"
       x2="23.977745"
       y2="232.35815"
       gradientUnits="userSpaceOnUse" />
  </defs>
  <defs
     id="defs1" />
  <sodipodi:namedview
     id="namedview1"
     pagecolor="#ffffff"
     bordercolor="#000000"
     borderopacity="0.25"
     inkscape:showpageshadow="2"
     inkscape:pageopacity="0.0"
     inkscape:pagecheckerboard="0"
     inkscape:deskcolor="#d1d1d1" />
  <path
     id="path1"
     style="baseline-shift:baseline;display:inline;overflow:visible;vector-effect:none;fill:url(#linearGradient2);stroke-linecap:round;stroke-linejoin:round;enable-background:accumulate;stop-color:#000000;stop-opacity:1;opacity:1;fill-opacity:1"
     d="M 171.31445 24.048828 C 167.20462 24.048828 163.09618 25.59334 160.00586 28.681641 A 8.0008 8.0008 0 0 0 160.00391 28.683594 L 130.34766 58.339844 A 8 8 0 0 0 130.34375 58.34375 A 8 8 0 0 0 130.3418 58.345703 L 36.683594 152.00391 A 8.0008 8.0008 0 0 0 36.679688 152.00586 C 33.68692 155.0019 32.001963 159.07188 32 163.30664 A 8.0008 8.0008 0 0 0 32 163.31055 L 32 208 C 32 216.7418 39.258201 224 48 224 L 92.689453 224 A 8.0008 8.0008 0 0 0 92.693359 224 C 96.928117 223.998 100.99805 222.31307 103.99414 219.32031 A 8.0008 8.0008 0 0 0 103.99805 219.31641 L 197.30469 125.98633 L 197.30859 125.98438 A 8 8 0 0 0 197.65625 125.65625 A 8 8 0 0 0 197.9668 125.32422 A 8 8 0 0 0 197.98438 125.30664 L 227.31836 95.966797 A 8.0008 8.0008 0 0 0 227.31836 95.964844 C 233.49496 89.784193 233.49496 79.526354 227.31836 73.345703 A 8.0008 8.0008 0 0 0 227.31445 73.341797 L 182.625 28.681641 C 179.53467 25.59334 175.42429 24.048828 171.31445 24.048828 z M 171.31445 39.998047 L 216.00195 84.654297 L 191.98633 108.67383 L 147.3125 64 L 171.31445 39.998047 z M 136 75.3125 L 180.67578 119.98828 L 92.685547 208 L 48 208 L 48 163.31445 L 48 163.3125 L 48 163.31055 L 136 75.3125 z " />
</svg>
