<?xml version="1.0" encoding="UTF-8" standalone="no"?>
<svg
   viewBox="0 0 256 256"
   version="1.1"
   id="svg1"
   sodipodi:docname="pentagram purple_coral.svg"
   xmlns:inkscape="http://www.inkscape.org/namespaces/inkscape"
   xmlns:sodipodi="http://sodipodi.sourceforge.net/DTD/sodipodi-0.dtd"
   xmlns:xlink="http://www.w3.org/1999/xlink"
   xmlns="http://www.w3.org/2000/svg"
   xmlns:svg="http://www.w3.org/2000/svg">
  <defs
     id="defs3">
    <linearGradient
       id="linearGradient1"
       inkscape:collect="always">
      <stop
         style="stop-color:#ff7c66;stop-opacity:1;"
         offset="0"
         id="stop1" />
      <stop
         style="stop-color:#a03291;stop-opacity:1;"
         offset="0.76340693"
         id="stop2" />
    </linearGradient>
    <linearGradient
       inkscape:collect="always"
       xlink:href="#linearGradient1"
       id="linearGradient2"
       x1="232.4884"
       y1="23.847498"
       x2="23.977745"
       y2="232.35815"
       gradientUnits="userSpaceOnUse" />
  </defs>
  <defs
     id="defs1" />
  <sodipodi:namedview
     id="namedview1"
     pagecolor="#ffffff"
     bordercolor="#000000"
     borderopacity="0.25"
     inkscape:showpageshadow="2"
     inkscape:pageopacity="0.0"
     inkscape:pagecheckerboard="0"
     inkscape:deskcolor="#d1d1d1" />
  <path
     id="path1"
     style="baseline-shift:baseline;display:inline;overflow:visible;vector-effect:none;fill:url(#linearGradient2);stroke-linecap:round;stroke-linejoin:round;enable-background:accumulate;stop-color:#000000;stop-opacity:1;opacity:1;fill-opacity:1"
     d="M 128 8.0058594 C 121.67975 8.0058594 114.91164 12.246176 112.75781 19.287109 C 112.75617 19.292484 112.75359 19.297356 112.75195 19.302734 L 93.056641 80 L 32.003906 80 L 32 80 C 24.714088 79.9975 18.722054 85.084362 16.78125 91.046875 C 14.84009 97.010481 16.69004 104.65316 22.583984 108.93945 A 8.0008 8.0008 0 0 0 22.617188 108.96289 L 72.103516 144.57617 L 53.144531 203.01172 C 50.885334 209.94371 53.872966 217.22088 58.947266 220.91016 C 64.021565 224.59943 71.86623 225.19696 77.763672 220.91016 L 127.96875 184.78125 L 178.2168 220.94141 C 184.11424 225.22821 191.9589 224.62877 197.0332 220.93945 C 202.1075 217.25018 205.09513 209.97301 202.83594 203.04102 L 183.86914 144.55273 L 233.36328 108.93359 A 8.0008 8.0008 0 0 0 233.43555 108.88086 C 239.26662 104.5838 241.09015 96.992865 239.16211 91.056641 C 237.23404 85.120467 231.29981 80.050643 224.05664 80 A 8.0008 8.0008 0 0 0 224 80 L 162.93359 80 L 143.22266 19.220703 C 141.04714 12.2188 134.30072 8.0058594 128 8.0058594 z M 128 24.148438 L 146.11328 80 L 109.87891 80 L 128 24.148438 z M 31.996094 96 A 8.0008 8.0008 0 0 0 32 96 L 87.865234 96 L 77.289062 128.5957 L 31.996094 96 z M 104.68555 96 L 151.30273 96 L 165.04883 138.38477 L 127.9707 165.06836 L 90.925781 138.41016 L 104.68555 96 z M 168.12305 96 L 223.94336 96 L 178.68555 128.57031 L 168.12305 96 z M 170.23047 154.36719 L 187.62109 207.98828 A 8.0008 8.0008 0 0 0 187.62305 207.99805 A 8.0008 8.0008 0 0 0 187.59375 207.97656 L 141.66602 174.92383 L 170.23047 154.36719 z M 85.740234 154.39062 L 114.27344 174.92383 L 68.386719 207.94727 A 8.0008 8.0008 0 0 0 68.355469 207.96875 A 8.0008 8.0008 0 0 0 68.359375 207.95898 L 85.740234 154.39062 z " />
</svg>
