<?xml version="1.0" encoding="UTF-8" standalone="no"?>
<svg
   viewBox="0 0 256 256"
   version="1.1"
   id="svg2"
   sodipodi:docname="person simple snowboard purple_coral.svg"
   xmlns:inkscape="http://www.inkscape.org/namespaces/inkscape"
   xmlns:sodipodi="http://sodipodi.sourceforge.net/DTD/sodipodi-0.dtd"
   xmlns:xlink="http://www.w3.org/1999/xlink"
   xmlns="http://www.w3.org/2000/svg"
   xmlns:svg="http://www.w3.org/2000/svg">
  <defs
     id="defs3">
    <linearGradient
       id="linearGradient1"
       inkscape:collect="always">
      <stop
         style="stop-color:#ff7c66;stop-opacity:1;"
         offset="0"
         id="stop1" />
      <stop
         style="stop-color:#a03291;stop-opacity:1;"
         offset="0.76340693"
         id="stop2" />
    </linearGradient>
    <linearGradient
       inkscape:collect="always"
       xlink:href="#linearGradient1"
       id="linearGradient2"
       x1="232.4884"
       y1="23.847498"
       x2="23.977745"
       y2="232.35815"
       gradientUnits="userSpaceOnUse" />
  </defs>
  <defs
     id="defs2" />
  <sodipodi:namedview
     id="namedview2"
     pagecolor="#ffffff"
     bordercolor="#000000"
     borderopacity="0.25"
     inkscape:showpageshadow="2"
     inkscape:pageopacity="0.0"
     inkscape:pagecheckerboard="0"
     inkscape:deskcolor="#d1d1d1" />
  <path
     id="circle1"
     style="baseline-shift:baseline;display:inline;overflow:visible;vector-effect:none;fill:url(#linearGradient2);stroke-linecap:round;stroke-linejoin:round;enable-background:accumulate;stop-color:#000000;stop-opacity:1;opacity:1;fill-opacity:1"
     d="M 164 24 C 148.63078 24 136 36.630784 136 52 C 136 67.369216 148.63078 80 164 80 C 179.36922 80 192 67.369216 192 52 C 192 36.630784 179.36922 24 164 24 z M 164 40 C 170.72217 40 176 45.277826 176 52 C 176 58.722174 170.72217 64 164 64 C 157.27783 64 152 58.722174 152 52 C 152 45.277826 157.27783 40 164 40 z M 80.193359 72.001953 A 8 8 0 0 0 72.324219 77.742188 A 8 8 0 0 0 77.742188 87.675781 L 118.5918 99.689453 L 85.064453 149.97656 L 40.378906 137.02539 C 38.387752 136.4394 36.388611 136.11761 34.416016 136.03516 C 20.607845 135.45796 8.0574775 146.6194 8 161.14844 A 8.0008 8.0008 0 0 0 8 161.19336 C 8.019961 172.36648 15.47808 182.25927 26.212891 185.35352 L 183.62109 230.97461 C 199.55033 235.66257 215.93431 223.45618 216 206.85156 A 8.0008 8.0008 0 0 0 216 206.80664 C 215.98 195.63352 208.52192 185.74073 197.78711 182.64648 L 146.89258 167.89648 L 166.64258 138.45703 A 8.0008 8.0008 0 0 0 162.22461 126.31641 L 126.89258 116.08203 L 134.66797 104.41797 L 213.74219 127.67578 A 8 8 0 0 0 223.67578 122.25781 A 8 8 0 0 0 218.25781 112.32422 L 133.70898 87.457031 A 8 8 0 0 0 133.62305 87.431641 L 133.36523 87.355469 A 8 8 0 0 0 133.36133 87.355469 L 82.257812 72.324219 A 8 8 0 0 0 80.193359 72.001953 z M 117.58398 130.04492 L 147.25586 138.63672 L 130.76172 163.2207 L 101.18164 154.64844 L 117.58398 130.04492 z M 32.636719 151.96875 C 32.953491 151.95505 33.273705 151.9577 33.597656 151.97656 C 34.3393 152.01976 35.097082 152.15008 35.861328 152.375 A 8.0008 8.0008 0 0 0 35.892578 152.38477 L 193.33398 198.01367 A 8.0008 8.0008 0 0 0 193.34961 198.01758 C 197.30956 199.15613 199.97988 202.69601 199.99609 206.81445 C 199.95499 213.17286 194.2441 217.42182 188.13867 215.625 A 8.0008 8.0008 0 0 0 188.10742 215.61523 L 30.666016 169.98633 A 8.0008 8.0008 0 0 0 30.650391 169.98242 C 26.690438 168.84387 24.020115 165.30399 24.003906 161.18555 C 24.037572 155.9707 27.885135 152.17423 32.636719 151.96875 z " />
</svg>
