<?xml version="1.0" encoding="UTF-8" standalone="no"?>
<svg
   viewBox="0 0 256 256"
   version="1.1"
   id="svg2"
   sodipodi:docname="person simple tai chi purple_coral.svg"
   xmlns:inkscape="http://www.inkscape.org/namespaces/inkscape"
   xmlns:sodipodi="http://sodipodi.sourceforge.net/DTD/sodipodi-0.dtd"
   xmlns:xlink="http://www.w3.org/1999/xlink"
   xmlns="http://www.w3.org/2000/svg"
   xmlns:svg="http://www.w3.org/2000/svg">
  <defs
     id="defs3">
    <linearGradient
       id="linearGradient1"
       inkscape:collect="always">
      <stop
         style="stop-color:#ff7c66;stop-opacity:1;"
         offset="0"
         id="stop1" />
      <stop
         style="stop-color:#a03291;stop-opacity:1;"
         offset="0.76340693"
         id="stop2" />
    </linearGradient>
    <linearGradient
       inkscape:collect="always"
       xlink:href="#linearGradient1"
       id="linearGradient2"
       x1="232.4884"
       y1="23.847498"
       x2="23.977745"
       y2="232.35815"
       gradientUnits="userSpaceOnUse" />
  </defs>
  <defs
     id="defs2" />
  <sodipodi:namedview
     id="namedview2"
     pagecolor="#ffffff"
     bordercolor="#000000"
     borderopacity="0.25"
     inkscape:showpageshadow="2"
     inkscape:pageopacity="0.0"
     inkscape:pagecheckerboard="0"
     inkscape:deskcolor="#d1d1d1" />
  <path
     id="circle1"
     style="baseline-shift:baseline;display:inline;overflow:visible;vector-effect:none;fill:url(#linearGradient2);stroke-linecap:round;stroke-linejoin:round;enable-background:accumulate;stop-color:#000000;stop-opacity:1;opacity:1;fill-opacity:1"
     d="M 128 16 C 110.42165 16 96 30.421645 96 48 C 96 65.578355 110.42165 80 128 80 C 145.57835 80 160 65.578355 160 48 C 160 30.421645 145.57835 16 128 16 z M 128 32 C 136.93131 32 144 39.068687 144 48 C 144 56.931313 136.93131 64 128 64 C 119.06869 64 112 56.931313 112 48 C 112 39.068687 119.06869 32 128 32 z M 40 96 A 8 8 0 0 0 32 104 A 8 8 0 0 0 40 112 L 120 112 L 120 140.4375 L 42.648438 210.05273 A 8 8 0 0 0 42.052734 221.35156 A 8 8 0 0 0 53.351562 221.94727 L 129.55078 153.36914 L 176 173.27539 L 176 216 A 8 8 0 0 0 184 224 A 8 8 0 0 0 192 216 L 192 168 A 8.0008 8.0008 0 0 0 187.15039 160.64648 L 136 138.72461 L 136 112 L 216 112 A 8 8 0 0 0 224 104 A 8 8 0 0 0 216 96 L 40 96 z " />
</svg>
