<?xml version="1.0" encoding="UTF-8" standalone="no"?>
<svg
   viewBox="0 0 256 256"
   version="1.1"
   id="svg4"
   sodipodi:docname="pinwheel purple_coral.svg"
   xmlns:inkscape="http://www.inkscape.org/namespaces/inkscape"
   xmlns:sodipodi="http://sodipodi.sourceforge.net/DTD/sodipodi-0.dtd"
   xmlns:xlink="http://www.w3.org/1999/xlink"
   xmlns="http://www.w3.org/2000/svg"
   xmlns:svg="http://www.w3.org/2000/svg">
  <defs
     id="defs3">
    <linearGradient
       id="linearGradient1"
       inkscape:collect="always">
      <stop
         style="stop-color:#ff7c66;stop-opacity:1;"
         offset="0"
         id="stop1" />
      <stop
         style="stop-color:#a03291;stop-opacity:1;"
         offset="0.76340693"
         id="stop2" />
    </linearGradient>
    <linearGradient
       inkscape:collect="always"
       xlink:href="#linearGradient1"
       id="linearGradient2"
       x1="232.4884"
       y1="23.847498"
       x2="23.977745"
       y2="232.35815"
       gradientUnits="userSpaceOnUse" />
  </defs>
  <defs
     id="defs4" />
  <sodipodi:namedview
     id="namedview4"
     pagecolor="#ffffff"
     bordercolor="#000000"
     borderopacity="0.25"
     inkscape:showpageshadow="2"
     inkscape:pageopacity="0.0"
     inkscape:pagecheckerboard="0"
     inkscape:deskcolor="#d1d1d1" />
  <path
     id="path1"
     style="baseline-shift:baseline;display:inline;overflow:visible;vector-effect:none;fill:url(#linearGradient2);stroke-linecap:round;stroke-linejoin:round;enable-background:accumulate;stop-color:#000000;stop-opacity:1;opacity:1;fill-opacity:1"
     d="M 114.375 16.054688 C 112.79062 16.001117 111.19921 16.009862 109.60352 16.083984 C 103.71171 16.357667 97.765272 17.513859 91.943359 19.632812 A 8.0008 8.0008 0 0 0 87.162109 29.886719 L 103.26758 74.136719 C 94.073776 69.449842 83.698342 67.115589 73.152344 67.605469 C 67.26054 67.879153 61.316049 69.033391 55.494141 71.152344 C 24.443963 82.453427 8.3317224 117.00644 19.632812 148.05664 A 8.0008 8.0008 0 0 0 29.886719 152.83789 L 74.134766 136.73242 C 66.829495 151.06222 65.240698 168.26337 71.152344 184.50586 C 82.453427 215.55604 117.00644 231.66828 148.05664 220.36719 A 8.0008 8.0008 0 0 0 152.83789 210.11328 L 136.73438 165.86523 C 144.24146 169.69203 152.53601 171.94997 161.06836 172.38281 L 218.34375 229.65625 A 8 8 0 0 0 229.65625 229.65625 A 8 8 0 0 0 229.65625 218.34375 L 181.24609 169.93164 C 182.33601 169.60375 183.42332 169.24166 184.50586 168.84766 C 215.55604 157.54657 231.66828 122.99356 220.36719 91.943359 A 8.0008 8.0008 0 0 0 210.11328 87.162109 L 165.86523 103.26758 C 173.17051 88.93778 174.7593 71.736625 168.84766 55.494141 C 160.23941 31.842637 138.14069 16.858239 114.375 16.054688 z M 114.72656 32.033203 C 131.85625 32.883384 147.55474 43.77334 153.8125 60.966797 C 161.21819 81.314234 152.76944 103.33277 134.75781 113.875 L 132.76758 108.4043 A 8.0008 8.0008 0 0 0 132.39844 107.01367 C 131.94247 105.76088 131.44984 104.53146 130.91992 103.32812 L 105.20703 32.683594 C 108.39598 32.140905 111.58445 31.877254 114.72656 32.033203 z M 73.96875 83.550781 C 75.411336 83.480018 76.847917 83.481887 78.275391 83.552734 C 92.837465 84.275471 106.30214 92.303797 113.875 105.24219 L 108.4043 107.23242 A 8.0008 8.0008 0 0 0 107.01367 107.60156 C 105.76084 108.05755 104.5315 108.55014 103.32812 109.08008 L 32.683594 134.79297 C 29.182354 114.21897 40.619535 93.593129 60.966797 86.1875 C 65.265161 84.623059 69.640993 83.76307 73.96875 83.550781 z M 207.31641 105.20703 C 210.81765 125.78103 199.38047 146.40687 179.0332 153.8125 C 174.31165 155.53096 169.50091 156.39664 164.76367 156.48633 A 8 8 0 0 0 164.48047 156.48047 A 8 8 0 0 0 164.02734 156.49219 C 148.62129 156.52362 134.09429 148.37352 126.125 134.75781 L 131.5957 132.76758 A 8.0008 8.0008 0 0 0 132.98633 132.39844 C 134.23916 131.94246 135.4685 131.44986 136.67188 130.91992 L 207.31641 105.20703 z M 105.24219 126.125 L 107.23242 131.5918 A 8.0008 8.0008 0 0 0 107.60156 132.98633 C 108.05754 134.23916 108.55014 135.4685 109.08008 136.67188 L 134.79297 207.31641 C 114.21897 210.81765 93.593129 199.38047 86.1875 179.0332 C 78.781807 158.68577 87.230558 136.66723 105.24219 126.125 z " />
</svg>
