<?xml version="1.0" encoding="UTF-8" standalone="no"?>
<svg
   viewBox="0 0 256 256"
   version="1.1"
   id="svg8"
   sodipodi:docname="plugs purple_coral.svg"
   xmlns:inkscape="http://www.inkscape.org/namespaces/inkscape"
   xmlns:sodipodi="http://sodipodi.sourceforge.net/DTD/sodipodi-0.dtd"
   xmlns:xlink="http://www.w3.org/1999/xlink"
   xmlns="http://www.w3.org/2000/svg"
   xmlns:svg="http://www.w3.org/2000/svg">
  <defs
     id="defs3">
    <linearGradient
       id="linearGradient1"
       inkscape:collect="always">
      <stop
         style="stop-color:#ff7c66;stop-opacity:1;"
         offset="0"
         id="stop1" />
      <stop
         style="stop-color:#a03291;stop-opacity:1;"
         offset="0.76340693"
         id="stop2" />
    </linearGradient>
    <linearGradient
       inkscape:collect="always"
       xlink:href="#linearGradient1"
       id="linearGradient2"
       x1="232.4884"
       y1="23.847498"
       x2="23.977745"
       y2="232.35815"
       gradientUnits="userSpaceOnUse" />
  </defs>
  <defs
     id="defs8" />
  <sodipodi:namedview
     id="namedview8"
     pagecolor="#ffffff"
     bordercolor="#000000"
     borderopacity="0.25"
     inkscape:showpageshadow="2"
     inkscape:pageopacity="0.0"
     inkscape:pagecheckerboard="0"
     inkscape:deskcolor="#d1d1d1" />
  <path
     id="line1"
     style="baseline-shift:baseline;display:inline;overflow:visible;vector-effect:none;fill:url(#linearGradient2);stroke-linecap:round;stroke-linejoin:round;enable-background:accumulate;stop-color:#000000;stop-opacity:1;opacity:1;fill-opacity:1"
     d="M 232 16 A 8 8 0 0 0 226.34375 18.34375 L 197.95898 46.728516 L 192.5625 41.339844 A 8.0008 8.0008 0 0 0 192.5625 41.337891 C 186.34983 35.136603 178.15208 32.035156 169.95508 32.035156 C 161.75808 32.035156 153.56032 35.136603 147.34766 41.337891 A 8.0008 8.0008 0 0 0 147.34375 41.34375 L 124 64.6875 L 117.65625 58.34375 A 8 8 0 0 0 112 56 A 8 8 0 0 0 106.34375 58.34375 A 8 8 0 0 0 106.34375 69.65625 L 118.31641 81.628906 A 8 8 0 0 0 118.34375 81.65625 A 8 8 0 0 0 118.37109 81.683594 L 174.30859 137.62109 A 8 8 0 0 0 174.34375 137.65625 A 8 8 0 0 0 174.37891 137.69141 L 186.34375 149.65625 A 8 8 0 0 0 197.65625 149.65625 A 8 8 0 0 0 197.65625 138.34375 L 191.3125 132 L 214.65625 108.65625 C 227.08504 96.226636 227.08504 75.833911 214.65625 63.404297 A 8.0008 8.0008 0 0 0 214.65234 63.398438 L 209.2793 58.033203 L 237.65625 29.65625 A 8 8 0 0 0 237.65625 18.34375 A 8 8 0 0 0 232 16 z M 169.95508 47.935547 C 174.02827 47.935547 178.10147 49.511546 181.25781 52.662109 L 191.80664 63.195312 L 191.81445 63.203125 A 8 8 0 0 0 192.2832 63.716797 A 8 8 0 0 0 192.8125 64.201172 A 8 8 0 0 0 192.81445 64.203125 L 203.34766 74.720703 C 209.65855 81.036217 209.65739 91.029784 203.34375 97.34375 L 180 120.6875 L 135.3125 76 L 158.65234 52.662109 C 161.80869 49.511546 165.88188 47.935547 169.95508 47.935547 z M 64 104 A 8 8 0 0 0 58.34375 106.34375 A 8 8 0 0 0 58.34375 117.65625 L 64.6875 124 L 41.34375 147.34375 A 8.0008 8.0008 0 0 0 41.337891 147.34766 C 28.935315 159.77299 28.935315 180.13717 41.337891 192.5625 A 8.0008 8.0008 0 0 0 41.339844 192.5625 L 46.728516 197.95898 L 18.34375 226.34375 A 8 8 0 0 0 18.34375 237.65625 A 8 8 0 0 0 29.65625 237.65625 L 58.033203 209.2793 L 63.398438 214.65234 A 8.0008 8.0008 0 0 0 63.404297 214.65625 C 75.833911 227.08504 96.226636 227.08504 108.65625 214.65625 L 132 191.3125 L 138.34375 197.65625 A 8 8 0 0 0 149.65625 197.65625 A 8 8 0 0 0 149.65625 186.34375 L 131.3125 168 L 149.65625 149.65625 A 8 8 0 0 0 149.65625 138.34375 A 8 8 0 0 0 144 136 A 8 8 0 0 0 138.34375 138.34375 L 120 156.6875 L 99.3125 136 L 117.65625 117.65625 A 8 8 0 0 0 117.65625 106.34375 A 8 8 0 0 0 112 104 A 8 8 0 0 0 106.34375 106.34375 L 88 124.6875 L 81.65625 118.34375 A 8 8 0 0 0 81.654297 118.3418 L 69.65625 106.34375 A 8 8 0 0 0 64 104 z M 76 135.3125 L 120.6875 180 L 97.34375 203.34375 C 91.029784 209.6573 81.036217 209.65846 74.720703 203.34766 L 74.716797 203.34375 L 64.203125 192.81445 A 8 8 0 0 0 63.716797 192.2832 A 8 8 0 0 0 63.193359 191.80469 L 52.662109 181.25781 C 46.360982 174.94512 46.360982 164.96503 52.662109 158.65234 L 76 135.3125 z " />
</svg>
