<?xml version="1.0" encoding="UTF-8" standalone="no"?>
<svg
   viewBox="0 0 256 256"
   version="1.1"
   id="svg1"
   sodipodi:docname="power purple_coral.svg"
   xmlns:inkscape="http://www.inkscape.org/namespaces/inkscape"
   xmlns:sodipodi="http://sodipodi.sourceforge.net/DTD/sodipodi-0.dtd"
   xmlns:xlink="http://www.w3.org/1999/xlink"
   xmlns="http://www.w3.org/2000/svg"
   xmlns:svg="http://www.w3.org/2000/svg">
  <defs
     id="defs3">
    <linearGradient
       id="linearGradient1"
       inkscape:collect="always">
      <stop
         style="stop-color:#ff7c66;stop-opacity:1;"
         offset="0"
         id="stop1" />
      <stop
         style="stop-color:#a03291;stop-opacity:1;"
         offset="0.76340693"
         id="stop2" />
    </linearGradient>
    <linearGradient
       inkscape:collect="always"
       xlink:href="#linearGradient1"
       id="linearGradient2"
       x1="232.4884"
       y1="23.847498"
       x2="23.977745"
       y2="232.35815"
       gradientUnits="userSpaceOnUse" />
  </defs>
  <defs
     id="defs1" />
  <sodipodi:namedview
     id="namedview1"
     pagecolor="#ffffff"
     bordercolor="#000000"
     borderopacity="0.25"
     inkscape:showpageshadow="2"
     inkscape:pageopacity="0.0"
     inkscape:pagecheckerboard="0"
     inkscape:deskcolor="#d1d1d1" />
  <path
     id="line1"
     style="baseline-shift:baseline;display:inline;overflow:visible;vector-effect:none;fill:url(#linearGradient2);stroke-linecap:round;stroke-linejoin:round;enable-background:accumulate;stop-color:#000000;stop-opacity:1;opacity:1;fill-opacity:1"
     d="M 128 40 A 8 8 0 0 0 120 48 L 120 128 A 8 8 0 0 0 128 136 A 8 8 0 0 0 136 128 L 136 48 A 8 8 0 0 0 128 40 z M 79.566406 48.011719 A 8 8 0 0 0 75.630859 49.298828 C 49.594075 66.274639 32 94.361322 32 128 C 32 180.92461 75.07543 224 128 224 C 180.92457 224 224 180.92461 224 128 C 224 94.361322 206.40593 66.274639 180.36914 49.298828 A 8 8 0 0 0 169.29883 51.630859 A 8 8 0 0 0 171.63086 62.701172 C 193.75407 77.125361 208 99.858678 208 128 C 208 172.27757 172.27754 208 128 208 C 83.722456 208 48 172.27757 48 128 C 48 99.858678 62.245925 77.125361 84.369141 62.701172 A 8 8 0 0 0 86.701172 51.630859 A 8 8 0 0 0 81.648438 48.171875 A 8 8 0 0 0 79.566406 48.011719 z " />
</svg>
