<?xml version="1.0" encoding="UTF-8" standalone="no"?>
<svg
   viewBox="0 0 256 256"
   version="1.1"
   id="svg3"
   sodipodi:docname="push pin slash purple_coral.svg"
   xmlns:inkscape="http://www.inkscape.org/namespaces/inkscape"
   xmlns:sodipodi="http://sodipodi.sourceforge.net/DTD/sodipodi-0.dtd"
   xmlns:xlink="http://www.w3.org/1999/xlink"
   xmlns="http://www.w3.org/2000/svg"
   xmlns:svg="http://www.w3.org/2000/svg">
  <defs
     id="defs3">
    <linearGradient
       id="linearGradient1"
       inkscape:collect="always">
      <stop
         style="stop-color:#ff7c66;stop-opacity:1;"
         offset="0"
         id="stop1" />
      <stop
         style="stop-color:#a03291;stop-opacity:1;"
         offset="0.76340693"
         id="stop2" />
    </linearGradient>
    <linearGradient
       inkscape:collect="always"
       xlink:href="#linearGradient1"
       id="linearGradient2"
       x1="232.4884"
       y1="23.847498"
       x2="23.977745"
       y2="232.35815"
       gradientUnits="userSpaceOnUse" />
  </defs>
  <defs
     id="defs1" />
  <sodipodi:namedview
     id="namedview3"
     pagecolor="#ffffff"
     bordercolor="#000000"
     borderopacity="0.25"
     inkscape:showpageshadow="2"
     inkscape:pageopacity="0.0"
     inkscape:pagecheckerboard="0"
     inkscape:deskcolor="#d1d1d1" />
  <path
     id="line1"
     style="baseline-shift:baseline;display:inline;overflow:visible;vector-effect:none;fill:url(#linearGradient2);stroke-linecap:round;stroke-linejoin:round;enable-background:accumulate;stop-color:#000000;stop-opacity:1;opacity:1;fill-opacity:1"
     d="M 163.3457 16.048828 C 159.23587 16.048828 155.12548 17.59334 152.03516 20.681641 A 8.0008 8.0008 0 0 0 152.02539 20.689453 L 110.76562 62.050781 A 8 8 0 0 0 110.7793 73.363281 A 8 8 0 0 0 122.09375 73.349609 L 163.3457 31.998047 L 223.99219 92.685547 A 8.0008 8.0008 0 0 0 223.98438 92.693359 L 179.33398 137.49219 A 8 8 0 0 0 179.35352 148.80664 A 8 8 0 0 0 190.66602 148.78711 L 235.31641 103.98828 L 235.30859 103.99414 C 241.48519 97.813492 241.48519 87.555651 235.30859 81.375 L 174.6582 20.685547 A 8.0008 8.0008 0 0 0 174.6543 20.681641 C 171.56397 17.59334 167.45554 16.048828 163.3457 16.048828 z M 48.380859 32.009766 A 8 8 0 0 0 42.619141 34.080078 A 8 8 0 0 0 42.080078 45.380859 L 67.402344 73.236328 C 58.217045 75.201216 48.057376 79.494364 37.990234 87.613281 C 30.654024 93.496361 30.041492 104.78196 36.701172 111.42383 L 84.984375 159.70117 L 42.34375 202.34375 A 8 8 0 0 0 42.34375 213.65625 A 8 8 0 0 0 53.65625 213.65625 L 96.298828 171.01562 L 144.59375 219.30664 A 8.0008 8.0008 0 0 0 144.61328 219.32812 C 151.37315 226.03843 162.84162 225.24504 168.61328 217.66797 A 8.0008 8.0008 0 0 0 168.64453 217.62695 C 172.31817 212.74051 176.89752 205.81369 180.25195 197.37109 L 202.08008 221.38086 A 8 8 0 0 0 213.38086 221.91992 A 8 8 0 0 0 213.91992 210.61914 L 53.919922 34.619141 A 8 8 0 0 0 48.380859 32.009766 z M 80.675781 87.835938 L 167.79297 183.66406 C 165.57058 193.36531 160.12134 202.3282 155.88477 207.9707 L 48.005859 100.10352 A 8.0008 8.0008 0 0 0 48 100.0957 A 8.0008 8.0008 0 0 0 48.023438 100.07617 C 60.466892 90.03645 71.863471 87.707605 80.675781 87.835938 z " />
</svg>
