<?xml version="1.0" encoding="UTF-8" standalone="no"?>
<svg
   viewBox="0 0 256 256"
   version="1.1"
   id="svg5"
   sodipodi:docname="recycle purple_coral.svg"
   xmlns:inkscape="http://www.inkscape.org/namespaces/inkscape"
   xmlns:sodipodi="http://sodipodi.sourceforge.net/DTD/sodipodi-0.dtd"
   xmlns:xlink="http://www.w3.org/1999/xlink"
   xmlns="http://www.w3.org/2000/svg"
   xmlns:svg="http://www.w3.org/2000/svg">
  <defs
     id="defs3">
    <linearGradient
       id="linearGradient1"
       inkscape:collect="always">
      <stop
         style="stop-color:#ff7c66;stop-opacity:1;"
         offset="0"
         id="stop1" />
      <stop
         style="stop-color:#a03291;stop-opacity:1;"
         offset="0.76340693"
         id="stop2" />
    </linearGradient>
    <linearGradient
       inkscape:collect="always"
       xlink:href="#linearGradient1"
       id="linearGradient2"
       x1="232.4884"
       y1="23.847498"
       x2="23.977745"
       y2="232.35815"
       gradientUnits="userSpaceOnUse" />
  </defs>
  <defs
     id="defs5" />
  <sodipodi:namedview
     id="namedview5"
     pagecolor="#ffffff"
     bordercolor="#000000"
     borderopacity="0.25"
     inkscape:showpageshadow="2"
     inkscape:pageopacity="0.0"
     inkscape:pagecheckerboard="0"
     inkscape:deskcolor="#d1d1d1" />
  <path
     id="polyline1"
     style="baseline-shift:baseline;display:inline;overflow:visible;vector-effect:none;fill:url(#linearGradient2);stroke-linecap:round;stroke-linejoin:round;enable-background:accumulate;stop-color:#000000;stop-opacity:1;opacity:1;fill-opacity:1"
     d="M 127.99023 16.259766 C 119.8652 16.259766 111.73977 20.171201 107.21484 27.994141 L 84.076172 67.994141 A 8 8 0 0 0 86.994141 78.923828 A 8 8 0 0 0 97.923828 76.005859 L 121.06445 36.005859 C 124.33708 30.347967 131.64144 30.347967 134.91406 36.005859 A 8.0008 8.0008 0 0 0 134.91602 36.007812 L 169.20703 95.238281 L 155.13281 91.462891 A 8 8 0 0 0 145.33203 97.117188 A 8 8 0 0 0 150.98828 106.91797 L 183.23242 115.5625 A 8 8 0 0 0 183.23438 115.56445 A 8 8 0 0 0 189.84766 114.92383 A 8 8 0 0 0 192.75391 112 A 8 8 0 0 0 192.76758 111.98047 A 8.0008 8.0008 0 0 0 192.76953 111.97656 A 8 8 0 0 0 193.16992 111.16406 A 8.0008 8.0008 0 0 0 193.24219 111.00391 A 8 8 0 0 0 193.49414 110.26562 A 8.0008 8.0008 0 0 0 193.56641 110.05078 L 193.64062 109.77539 L 193.64258 109.76758 A 8 8 0 0 0 193.64258 109.76562 L 202.35742 77.261719 A 8 8 0 0 0 196.70117 67.462891 A 8 8 0 0 0 186.90234 73.119141 L 183.09961 87.300781 L 148.76367 27.992188 C 144.23842 20.170848 136.11442 16.259766 127.99023 16.259766 z M 70.167969 100 A 8.0008 8.0008 0 0 0 69.125 100.06641 A 8.0008 8.0008 0 0 0 68.091797 100.27148 L 35.322266 109.04102 A 8 8 0 0 0 29.662109 118.83789 A 8 8 0 0 0 39.458984 124.49805 L 53.546875 120.72852 L 19.236328 179.99219 A 8.0008 8.0008 0 0 0 19.232422 180 C 10.192266 195.65799 21.911905 215.98147 39.992188 216 A 8.0008 8.0008 0 0 0 40 216 L 88 216 A 8 8 0 0 0 96 208 A 8 8 0 0 0 88 200 L 40.007812 200 L 40 200 C 33.469446 199.988 29.823977 193.66615 33.083984 188.00781 L 33.085938 188.00391 L 33.085938 188.00195 L 33.087891 188.00195 L 33.087891 188 L 67.429688 128.68164 L 71.234375 142.8457 A 8 8 0 0 0 81.035156 148.49609 A 8 8 0 0 0 86.685547 138.69531 L 77.886719 105.92578 A 8.0008 8.0008 0 0 0 77.736328 105.48438 A 8 8 0 0 0 77.556641 104.95312 A 8.0008 8.0008 0 0 0 77.105469 104.03125 A 8 8 0 0 0 77.101562 104.02344 A 8.0008 8.0008 0 0 0 76.697266 103.41406 A 8 8 0 0 0 76.517578 103.14258 A 8.0008 8.0008 0 0 0 75.359375 101.94141 A 8 8 0 0 0 75.03125 101.6543 A 8.0008 8.0008 0 0 0 74.167969 101.07617 A 8 8 0 0 0 74.164062 101.07422 A 8.0008 8.0008 0 0 0 74.15625 101.07031 A 8 8 0 0 0 72.236328 100.27344 A 8.0008 8.0008 0 0 0 71.214844 100.06836 A 8 8 0 0 0 71.210938 100.06836 A 8.0008 8.0008 0 0 0 70.167969 100 z M 206.69336 136 A 8 8 0 0 0 202.69336 137.07617 A 8 8 0 0 0 199.77539 148.00586 L 222.91211 188 C 226.18149 193.66272 222.53094 199.9933 215.99219 200 L 147.3125 200 L 157.65625 189.65625 A 8 8 0 0 0 157.65625 178.34375 A 8 8 0 0 0 152 176 A 8 8 0 0 0 146.34375 178.34375 L 122.34375 202.34375 A 8.0008 8.0008 0 0 0 122.0625 202.66406 A 8 8 0 0 0 121.67773 203.10352 A 8.0008 8.0008 0 0 0 121.39062 203.52539 A 8 8 0 0 0 121.0957 203.9668 A 8.0008 8.0008 0 0 0 120.85352 204.44531 A 8 8 0 0 0 120.61719 204.92188 A 8.0008 8.0008 0 0 0 120.45312 205.39844 A 8 8 0 0 0 120.2793 205.91406 A 8.0008 8.0008 0 0 0 120.20117 206.29297 A 8 8 0 0 0 120 208 A 8 8 0 0 0 120.20117 209.70703 A 8.0008 8.0008 0 0 0 120.2793 210.08594 A 8 8 0 0 0 120.45312 210.60156 A 8.0008 8.0008 0 0 0 120.61719 211.07812 A 8 8 0 0 0 120.85352 211.55469 A 8.0008 8.0008 0 0 0 121.0957 212.0332 A 8 8 0 0 0 121.39062 212.47461 A 8.0008 8.0008 0 0 0 121.67773 212.89648 A 8 8 0 0 0 122.0625 213.33594 A 8.0008 8.0008 0 0 0 122.34375 213.65625 L 146.34375 237.65625 A 8 8 0 0 0 157.65625 237.65625 A 8 8 0 0 0 157.65625 226.34375 L 147.3125 216 L 216 216 A 8.0008 8.0008 0 0 0 216.00781 216 C 234.08809 215.9815 245.80773 195.65799 236.76758 180 A 8.0008 8.0008 0 0 0 236.76562 179.99414 L 213.625 139.99414 A 8 8 0 0 0 208.76367 136.27148 A 8 8 0 0 0 206.69336 136 z " />
</svg>
