<?xml version="1.0" encoding="UTF-8" standalone="no"?>
<svg
   viewBox="0 0 256 256"
   version="1.1"
   id="svg9"
   sodipodi:docname="rug purple_coral.svg"
   xmlns:inkscape="http://www.inkscape.org/namespaces/inkscape"
   xmlns:sodipodi="http://sodipodi.sourceforge.net/DTD/sodipodi-0.dtd"
   xmlns:xlink="http://www.w3.org/1999/xlink"
   xmlns="http://www.w3.org/2000/svg"
   xmlns:svg="http://www.w3.org/2000/svg">
  <defs
     id="defs3">
    <linearGradient
       id="linearGradient1"
       inkscape:collect="always">
      <stop
         style="stop-color:#ff7c66;stop-opacity:1;"
         offset="0"
         id="stop1" />
      <stop
         style="stop-color:#a03291;stop-opacity:1;"
         offset="0.76340693"
         id="stop2" />
    </linearGradient>
    <linearGradient
       inkscape:collect="always"
       xlink:href="#linearGradient1"
       id="linearGradient2"
       x1="232.4884"
       y1="23.847498"
       x2="23.977745"
       y2="232.35815"
       gradientUnits="userSpaceOnUse" />
  </defs>
  <defs
     id="defs9" />
  <sodipodi:namedview
     id="namedview9"
     pagecolor="#ffffff"
     bordercolor="#000000"
     borderopacity="0.25"
     inkscape:showpageshadow="2"
     inkscape:pageopacity="0.0"
     inkscape:pagecheckerboard="0"
     inkscape:deskcolor="#d1d1d1" />
  <path
     id="rect2"
     style="baseline-shift:baseline;display:inline;overflow:visible;vector-effect:none;fill:url(#linearGradient2);stroke-linecap:round;stroke-linejoin:round;enable-background:accumulate;stop-color:#000000;stop-opacity:1;opacity:1;fill-opacity:1"
     d="M 56 16 A 8 8 0 0 0 48 24 L 48 48 L 48 208 L 48 232 A 8 8 0 0 0 56 240 A 8 8 0 0 0 64 232 L 64 216 L 96 216 L 96 232 A 8 8 0 0 0 104 240 A 8 8 0 0 0 112 232 L 112 216 L 144 216 L 144 232 A 8 8 0 0 0 152 240 A 8 8 0 0 0 160 232 L 160 216 L 192 216 L 192 232 A 8 8 0 0 0 200 240 A 8 8 0 0 0 208 232 L 208 208 L 208 48 L 208 24 A 8 8 0 0 0 200 16 A 8 8 0 0 0 192 24 L 192 40 L 160 40 L 160 24 A 8 8 0 0 0 152 16 A 8 8 0 0 0 144 24 L 144 40 L 112 40 L 112 24 A 8 8 0 0 0 104 16 A 8 8 0 0 0 96 24 L 96 40 L 64 40 L 64 24 A 8 8 0 0 0 56 16 z M 64 56 L 192 56 L 192 200 L 64 200 L 64 56 z M 127.45117 80.021484 A 8.0008 8.0008 0 0 0 125.30664 80.46875 A 8.0008 8.0008 0 0 0 121.14062 83.884766 L 97.140625 123.88477 A 8.0008 8.0008 0 0 0 97.140625 132.11523 L 121.14062 172.11523 A 8.0008 8.0008 0 0 0 134.85938 172.11523 L 158.85938 132.11523 A 8.0008 8.0008 0 0 0 158.85938 123.88477 L 134.85938 83.884766 A 8.0008 8.0008 0 0 0 127.45117 80.021484 z M 128 103.54883 L 142.66992 128 L 128 152.45117 L 113.33008 128 L 128 103.54883 z " />
</svg>
