<?xml version="1.0" encoding="UTF-8" standalone="no"?>
<svg
   viewBox="0 0 256 256"
   version="1.1"
   id="svg1"
   sodipodi:docname="seat purple_coral.svg"
   xmlns:inkscape="http://www.inkscape.org/namespaces/inkscape"
   xmlns:sodipodi="http://sodipodi.sourceforge.net/DTD/sodipodi-0.dtd"
   xmlns:xlink="http://www.w3.org/1999/xlink"
   xmlns="http://www.w3.org/2000/svg"
   xmlns:svg="http://www.w3.org/2000/svg">
  <defs
     id="defs3">
    <linearGradient
       id="linearGradient1"
       inkscape:collect="always">
      <stop
         style="stop-color:#ff7c66;stop-opacity:1;"
         offset="0"
         id="stop1" />
      <stop
         style="stop-color:#a03291;stop-opacity:1;"
         offset="0.76340693"
         id="stop2" />
    </linearGradient>
    <linearGradient
       inkscape:collect="always"
       xlink:href="#linearGradient1"
       id="linearGradient2"
       x1="232.4884"
       y1="23.847498"
       x2="23.977745"
       y2="232.35815"
       gradientUnits="userSpaceOnUse" />
  </defs>
  <defs
     id="defs1" />
  <sodipodi:namedview
     id="namedview1"
     pagecolor="#ffffff"
     bordercolor="#000000"
     borderopacity="0.25"
     inkscape:showpageshadow="2"
     inkscape:pageopacity="0.0"
     inkscape:pagecheckerboard="0"
     inkscape:deskcolor="#d1d1d1" />
  <path
     id="line1"
     style="baseline-shift:baseline;display:inline;overflow:visible;vector-effect:none;fill:url(#linearGradient2);stroke-linecap:round;stroke-linejoin:round;enable-background:accumulate;stop-color:#000000;stop-opacity:1;opacity:1;fill-opacity:1"
     d="M 79.208984 16.064453 C 72.996708 15.692937 66.794355 18.972976 63.855469 24.822266 L 41.695312 68.822266 A 8.0008 8.0008 0 0 0 41.685547 68.839844 C 39.433421 73.340491 39.433421 78.659509 41.685547 83.160156 A 8.0008 8.0008 0 0 0 41.6875 83.164062 L 99.806641 199.16406 L 99.806641 199.16016 C 102.50891 204.56038 108.06687 207.99678 114.10547 208 A 8.0008 8.0008 0 0 0 114.10938 208 L 208 208 C 216.7418 208 224 200.7418 224 192 L 224 160 C 224 151.2582 216.7418 144 208 144 L 143.7793 144 A 8.0008 8.0008 0 0 0 143.77539 144 L 143.77344 144 L 112.00586 80.021484 A 8.0008 8.0008 0 0 0 111.99609 80.005859 L 126.22656 53.695312 A 8.0008 8.0008 0 0 0 126.3457 53.46875 C 130.25325 45.65525 127.01484 35.922821 119.20508 32.007812 A 8.0008 8.0008 0 0 0 118.73242 31.791016 L 85.039062 17.564453 C 83.164667 16.671088 81.186573 16.18272 79.208984 16.064453 z M 78.152344 32.005859 A 8.0008 8.0008 0 0 0 78.617188 32.220703 L 112.02344 46.324219 L 97.802734 72.613281 A 8.0008 8.0008 0 0 0 97.685547 72.839844 C 95.433421 77.340491 95.433421 82.659509 97.685547 87.160156 L 129.45508 151.13867 A 8.0008 8.0008 0 0 0 129.46484 151.16016 C 132.16941 156.56497 137.73587 160.00208 143.7793 160 L 208 160 L 208 192 L 114.11523 192 A 8.0008 8.0008 0 0 0 114.11328 191.99609 L 55.994141 76 L 78.144531 32.017578 A 8.0008 8.0008 0 0 0 78.152344 32.005859 z M 112 224 A 8 8 0 0 0 104 232 A 8 8 0 0 0 112 240 L 216 240 A 8 8 0 0 0 224 232 A 8 8 0 0 0 216 224 L 112 224 z " />
</svg>
