<?xml version="1.0" encoding="UTF-8" standalone="no"?>
<svg
   viewBox="0 0 256 256"
   version="1.1"
   id="svg5"
   sodipodi:docname="selection slash purple_coral.svg"
   xmlns:inkscape="http://www.inkscape.org/namespaces/inkscape"
   xmlns:sodipodi="http://sodipodi.sourceforge.net/DTD/sodipodi-0.dtd"
   xmlns:xlink="http://www.w3.org/1999/xlink"
   xmlns="http://www.w3.org/2000/svg"
   xmlns:svg="http://www.w3.org/2000/svg">
  <defs
     id="defs3">
    <linearGradient
       id="linearGradient1"
       inkscape:collect="always">
      <stop
         style="stop-color:#ff7c66;stop-opacity:1;"
         offset="0"
         id="stop1" />
      <stop
         style="stop-color:#a03291;stop-opacity:1;"
         offset="0.76340693"
         id="stop2" />
    </linearGradient>
    <linearGradient
       inkscape:collect="always"
       xlink:href="#linearGradient1"
       id="linearGradient2"
       x1="232.4884"
       y1="23.847498"
       x2="23.977745"
       y2="232.35815"
       gradientUnits="userSpaceOnUse" />
  </defs>
  <defs
     id="defs5" />
  <sodipodi:namedview
     id="namedview5"
     pagecolor="#ffffff"
     bordercolor="#000000"
     borderopacity="0.25"
     inkscape:showpageshadow="2"
     inkscape:pageopacity="0.0"
     inkscape:pagecheckerboard="0"
     inkscape:deskcolor="#d1d1d1" />
  <path
     id="line1"
     style="baseline-shift:baseline;display:inline;overflow:visible;vector-effect:none;fill:url(#linearGradient2);stroke-linecap:round;stroke-linejoin:round;enable-background:accumulate;stop-color:#000000;stop-opacity:1;opacity:1;fill-opacity:1"
     d="M 112 32 A 8 8 0 0 0 104 40 A 8 8 0 0 0 112 48 L 144 48 A 8 8 0 0 0 152 40 A 8 8 0 0 0 144 32 L 112 32 z M 184 32 A 8 8 0 0 0 176 40 A 8 8 0 0 0 184 48 L 208 48 L 208 72 A 8 8 0 0 0 216 80 A 8 8 0 0 0 224 72 L 224 48 C 224 39.258201 216.7418 32 208 32 L 184 32 z M 48.380859 32.009766 A 8 8 0 0 0 42.619141 34.080078 A 8 8 0 0 0 42.080078 45.380859 L 202.08008 221.38086 A 8 8 0 0 0 213.38086 221.91992 A 8 8 0 0 0 213.91992 210.61914 L 53.919922 34.619141 A 8 8 0 0 0 48.380859 32.009766 z M 40 104 A 8 8 0 0 0 32 112 L 32 144 A 8 8 0 0 0 40 152 A 8 8 0 0 0 48 144 L 48 112 A 8 8 0 0 0 40 104 z M 216 104 A 8 8 0 0 0 208 112 L 208 144 A 8 8 0 0 0 216 152 A 8 8 0 0 0 224 144 L 224 112 A 8 8 0 0 0 216 104 z M 40 176 A 8 8 0 0 0 32 184 L 32 208 C 32 216.7418 39.258201 224 48 224 L 72 224 A 8 8 0 0 0 80 216 A 8 8 0 0 0 72 208 L 48 208 L 48 184 A 8 8 0 0 0 40 176 z M 112 208 A 8 8 0 0 0 104 216 A 8 8 0 0 0 112 224 L 144 224 A 8 8 0 0 0 152 216 A 8 8 0 0 0 144 208 L 112 208 z " />
</svg>
