<?xml version="1.0" encoding="UTF-8" standalone="no"?>
<svg
   viewBox="0 0 256 256"
   version="1.1"
   id="svg3"
   sodipodi:docname="shooting star purple_coral.svg"
   xmlns:inkscape="http://www.inkscape.org/namespaces/inkscape"
   xmlns:sodipodi="http://sodipodi.sourceforge.net/DTD/sodipodi-0.dtd"
   xmlns:xlink="http://www.w3.org/1999/xlink"
   xmlns="http://www.w3.org/2000/svg"
   xmlns:svg="http://www.w3.org/2000/svg">
  <defs
     id="defs3">
    <linearGradient
       id="linearGradient1"
       inkscape:collect="always">
      <stop
         style="stop-color:#ff7c66;stop-opacity:1;"
         offset="0"
         id="stop1" />
      <stop
         style="stop-color:#a03291;stop-opacity:1;"
         offset="0.76340693"
         id="stop2" />
    </linearGradient>
    <linearGradient
       inkscape:collect="always"
       xlink:href="#linearGradient1"
       id="linearGradient2"
       x1="232.4884"
       y1="23.847498"
       x2="23.977745"
       y2="232.35815"
       gradientUnits="userSpaceOnUse" />
  </defs>
  <defs
     id="defs1" />
  <sodipodi:namedview
     id="namedview3"
     pagecolor="#ffffff"
     bordercolor="#000000"
     borderopacity="0.25"
     inkscape:showpageshadow="2"
     inkscape:pageopacity="0.0"
     inkscape:pagecheckerboard="0"
     inkscape:deskcolor="#d1d1d1" />
  <path
     id="path1"
     style="baseline-shift:baseline;display:inline;overflow:visible;vector-effect:none;fill:url(#linearGradient2);stroke-linecap:round;stroke-linejoin:round;enable-background:accumulate;stop-color:#000000;stop-opacity:1;opacity:1;fill-opacity:1"
     d="M 164.05078 16 C 159.11449 16 153.86129 19.016437 151.64258 24.164062 A 8.0008 8.0008 0 0 0 151.61914 24.21875 L 137.41016 57.878906 L 100.46875 60.804688 L 100.59375 60.796875 C 94.931638 61.156158 90.295049 65.228182 88.734375 69.955078 C 87.173701 74.681974 88.473536 80.71301 92.808594 84.373047 L 120.86328 108.05664 L 112.22852 143.43359 A 8.0008 8.0008 0 0 0 112.19922 143.55273 C 110.9476 149.04608 113.46314 154.60742 117.49219 157.49023 C 121.52124 160.37305 127.59537 160.95589 132.39062 157.99805 L 132.3125 158.04688 L 163.99805 138.99609 L 195.58008 157.99805 C 200.37534 160.95589 206.44947 160.37305 210.47852 157.49023 C 214.50756 154.60742 217.02115 149.04608 215.76953 143.55273 A 8.0008 8.0008 0 0 0 215.74609 143.44727 L 207.17969 108.0625 L 235.23633 84.376953 L 235.23828 84.375 C 239.55996 80.731306 240.87145 74.731881 239.33789 70.011719 C 237.80408 65.290765 233.21547 61.207464 227.57617 60.800781 L 190.68945 57.878906 L 176.48047 24.21875 A 8.0008 8.0008 0 0 0 176.45703 24.164062 C 174.23828 19.01644 168.98708 16 164.05078 16 z M 164.05078 35.912109 L 177.83984 68.582031 A 8.0008 8.0008 0 0 0 184.57812 73.445312 L 220.05273 76.255859 L 193.08008 99.027344 A 8.0008 8.0008 0 0 0 190.46484 107.02148 L 198.74805 141.23242 L 168.125 122.80469 A 8.0008 8.0008 0 0 0 159.87695 122.80469 L 129.23633 141.22656 L 137.58203 107.03711 A 8.0008 8.0008 0 0 0 134.9707 99.027344 L 108.00195 76.259766 L 143.52148 73.445312 A 8.0008 8.0008 0 0 0 150.25977 68.582031 L 164.05078 35.912109 z M 82.449219 109.55078 A 8 8 0 0 0 76.792969 111.89258 L 18.34375 170.34375 A 8 8 0 0 0 18.34375 181.65625 A 8 8 0 0 0 29.65625 181.65625 L 88.107422 123.20703 A 8 8 0 0 0 88.107422 111.89258 A 8 8 0 0 0 82.449219 109.55078 z M 166.2793 169.7207 A 8 8 0 0 0 160.62305 172.0625 L 106.34375 226.34375 A 8 8 0 0 0 106.34375 237.65625 A 8 8 0 0 0 117.65625 237.65625 L 171.9375 183.37695 A 8 8 0 0 0 171.9375 172.0625 A 8 8 0 0 0 166.2793 169.7207 z M 93.259766 170.74023 A 8 8 0 0 0 87.603516 173.08398 L 34.34375 226.34375 A 8 8 0 0 0 34.34375 237.65625 A 8 8 0 0 0 45.65625 237.65625 L 98.916016 184.39648 A 8 8 0 0 0 98.916016 173.08398 A 8 8 0 0 0 93.259766 170.74023 z " />
</svg>
