<?xml version="1.0" encoding="UTF-8" standalone="no"?>
<svg
   viewBox="0 0 256 256"
   version="1.1"
   id="svg4"
   sodipodi:docname="shower purple_coral.svg"
   xmlns:inkscape="http://www.inkscape.org/namespaces/inkscape"
   xmlns:sodipodi="http://sodipodi.sourceforge.net/DTD/sodipodi-0.dtd"
   xmlns:xlink="http://www.w3.org/1999/xlink"
   xmlns="http://www.w3.org/2000/svg"
   xmlns:svg="http://www.w3.org/2000/svg">
  <defs
     id="defs3">
    <linearGradient
       id="linearGradient1"
       inkscape:collect="always">
      <stop
         style="stop-color:#ff7c66;stop-opacity:1;"
         offset="0"
         id="stop1" />
      <stop
         style="stop-color:#a03291;stop-opacity:1;"
         offset="0.76340693"
         id="stop2" />
    </linearGradient>
    <linearGradient
       inkscape:collect="always"
       xlink:href="#linearGradient1"
       id="linearGradient2"
       x1="232.4884"
       y1="23.847498"
       x2="23.977745"
       y2="232.35815"
       gradientUnits="userSpaceOnUse" />
  </defs>
  <defs
     id="defs4" />
  <sodipodi:namedview
     id="namedview4"
     pagecolor="#ffffff"
     bordercolor="#000000"
     borderopacity="0.25"
     inkscape:showpageshadow="2"
     inkscape:pageopacity="0.0"
     inkscape:pagecheckerboard="0"
     inkscape:deskcolor="#d1d1d1" />
  <path
     id="circle1"
     style="baseline-shift:baseline;display:inline;overflow:visible;vector-effect:none;fill:url(#linearGradient2);stroke-linecap:round;stroke-linejoin:round;enable-background:accumulate;stop-color:#000000;stop-opacity:1;opacity:1;fill-opacity:1"
     d="M 216 32 A 8.0008 8.0008 0 0 0 210.34375 34.34375 L 180.14258 64.544922 L 53.386719 86.220703 C 41.037807 88.29217 35.863397 104.43643 44.707031 113.30078 A 8.0008 8.0008 0 0 0 44.712891 113.30664 L 142.71289 211.30664 A 8.0008 8.0008 0 0 0 142.7207 211.3125 C 151.58505 220.15613 167.72736 214.98172 169.79883 202.63281 L 191.45703 75.857422 L 219.31445 48 L 248 48 A 8 8 0 0 0 256 40 A 8 8 0 0 0 248 32 L 216 32 z M 174.21094 81.789062 L 154.02344 199.96289 A 8.0008 8.0008 0 0 0 154.01953 199.98438 L 56.035156 102 A 8.0008 8.0008 0 0 0 56.058594 101.99609 L 174.21094 81.789062 z M 52 160 A 12 12 0 0 0 40 172 A 12 12 0 0 0 52 184 A 12 12 0 0 0 64 172 A 12 12 0 0 0 52 160 z M 20 192 A 12 12 0 0 0 8 204 A 12 12 0 0 0 20 216 A 12 12 0 0 0 32 204 A 12 12 0 0 0 20 192 z M 84 192 A 12 12 0 0 0 72 204 A 12 12 0 0 0 84 216 A 12 12 0 0 0 96 204 A 12 12 0 0 0 84 192 z M 52 224 A 12 12 0 0 0 40 236 A 12 12 0 0 0 52 248 A 12 12 0 0 0 64 236 A 12 12 0 0 0 52 224 z " />
</svg>
