<?xml version="1.0" encoding="UTF-8" standalone="no"?>
<svg
   viewBox="0 0 256 256"
   version="1.1"
   id="svg4"
   sodipodi:docname="siren purple_coral.svg"
   xmlns:inkscape="http://www.inkscape.org/namespaces/inkscape"
   xmlns:sodipodi="http://sodipodi.sourceforge.net/DTD/sodipodi-0.dtd"
   xmlns:xlink="http://www.w3.org/1999/xlink"
   xmlns="http://www.w3.org/2000/svg"
   xmlns:svg="http://www.w3.org/2000/svg">
  <defs
     id="defs3">
    <linearGradient
       id="linearGradient1"
       inkscape:collect="always">
      <stop
         style="stop-color:#ff7c66;stop-opacity:1;"
         offset="0"
         id="stop1" />
      <stop
         style="stop-color:#a03291;stop-opacity:1;"
         offset="0.76340693"
         id="stop2" />
    </linearGradient>
    <linearGradient
       inkscape:collect="always"
       xlink:href="#linearGradient1"
       id="linearGradient2"
       x1="232.4884"
       y1="23.847498"
       x2="23.977745"
       y2="232.35815"
       gradientUnits="userSpaceOnUse" />
  </defs>
  <defs
     id="defs4" />
  <sodipodi:namedview
     id="namedview4"
     pagecolor="#ffffff"
     bordercolor="#000000"
     borderopacity="0.25"
     inkscape:showpageshadow="2"
     inkscape:pageopacity="0.0"
     inkscape:pagecheckerboard="0"
     inkscape:deskcolor="#d1d1d1" />
  <path
     id="line1"
     style="baseline-shift:baseline;display:inline;overflow:visible;vector-effect:none;fill:url(#linearGradient2);stroke-linecap:round;stroke-linejoin:round;enable-background:accumulate;stop-color:#000000;stop-opacity:1;opacity:1;fill-opacity:1"
     d="M 128 0 A 8 8 0 0 0 120 8 L 120 16 A 8 8 0 0 0 128 24 A 8 8 0 0 0 136 16 L 136 8 A 8 8 0 0 0 128 0 z M 48 24 A 8 8 0 0 0 42.34375 26.34375 A 8 8 0 0 0 42.34375 37.65625 L 50.34375 45.65625 A 8 8 0 0 0 61.65625 45.65625 A 8 8 0 0 0 61.65625 34.34375 L 53.65625 26.34375 A 8 8 0 0 0 48 24 z M 208 24 A 8 8 0 0 0 202.34375 26.34375 L 194.34375 34.34375 A 8 8 0 0 0 194.34375 45.65625 A 8 8 0 0 0 205.65625 45.65625 L 213.65625 37.65625 A 8 8 0 0 0 213.65625 26.34375 A 8 8 0 0 0 208 24 z M 128.66992 40 C 79.904972 39.629233 39.998582 79.23339 40 128 L 40 160 C 31.274378 160 24 167.27438 24 176 L 24 200 C 24 208.72562 31.274378 216 40 216 L 216 216 C 224.72562 216 232 208.72562 232 200 L 232 176 C 232 167.27438 224.72562 160 216 160 L 216 129 C 216 80.624956 177.16914 40.363906 128.67188 40 L 128.66992 40 z M 128.54883 56 A 8.0008 8.0008 0 0 0 128.55078 56 C 168.27255 56.297171 200 89.155699 200 129 L 200 160 L 56 160 L 56 128 C 55.9988 87.923067 88.473057 55.694413 128.54883 56 z M 136.2832 72.005859 A 8 8 0 0 0 128.11133 78.675781 A 8 8 0 0 0 134.67578 87.888672 C 153.43057 91.036502 168 108.10001 168 128 A 8 8 0 0 0 176 136 A 8 8 0 0 0 184 128 C 184 100.33999 163.96943 76.583498 137.32422 72.111328 A 8 8 0 0 0 136.2832 72.005859 z M 40 176 L 48 176 L 208 176 L 216 176 L 216 200 L 40 200 L 40 176 z " />
</svg>
