<?xml version="1.0" encoding="UTF-8" standalone="no"?>
<svg
   viewBox="0 0 256 256"
   version="1.1"
   id="svg2"
   sodipodi:docname="sketch logo purple_coral.svg"
   xmlns:inkscape="http://www.inkscape.org/namespaces/inkscape"
   xmlns:sodipodi="http://sodipodi.sourceforge.net/DTD/sodipodi-0.dtd"
   xmlns:xlink="http://www.w3.org/1999/xlink"
   xmlns="http://www.w3.org/2000/svg"
   xmlns:svg="http://www.w3.org/2000/svg">
  <defs
     id="defs3">
    <linearGradient
       id="linearGradient1"
       inkscape:collect="always">
      <stop
         style="stop-color:#ff7c66;stop-opacity:1;"
         offset="0"
         id="stop1" />
      <stop
         style="stop-color:#a03291;stop-opacity:1;"
         offset="0.76340693"
         id="stop2" />
    </linearGradient>
    <linearGradient
       inkscape:collect="always"
       xlink:href="#linearGradient1"
       id="linearGradient2"
       x1="232.4884"
       y1="23.847498"
       x2="23.977745"
       y2="232.35815"
       gradientUnits="userSpaceOnUse" />
  </defs>
  <defs
     id="defs2" />
  <sodipodi:namedview
     id="namedview2"
     pagecolor="#ffffff"
     bordercolor="#000000"
     borderopacity="0.25"
     inkscape:showpageshadow="2"
     inkscape:pageopacity="0.0"
     inkscape:pagecheckerboard="0"
     inkscape:deskcolor="#d1d1d1" />
  <path
     id="polygon1"
     style="baseline-shift:baseline;display:inline;overflow:visible;vector-effect:none;fill:url(#linearGradient2);stroke-linecap:round;stroke-linejoin:round;enable-background:accumulate;stop-color:#000000;stop-opacity:1;opacity:1;fill-opacity:1"
     d="M 72 32 A 8.0008 8.0008 0 0 0 65.978516 34.732422 L 9.9785156 98.732422 A 8.0008 8.0008 0 0 0 9.8203125 98.939453 A 8 8 0 0 0 9.4980469 99.361328 A 8.0008 8.0008 0 0 0 9.2050781 99.800781 A 8 8 0 0 0 8.9492188 100.24805 A 8.0008 8.0008 0 0 0 8.7070312 100.74023 A 8 8 0 0 0 8.5175781 101.21094 A 8.0008 8.0008 0 0 0 8.3417969 101.72852 A 8 8 0 0 0 8.2148438 102.21875 A 8.0008 8.0008 0 0 0 8.109375 102.75195 A 8 8 0 0 0 8.046875 103.27539 A 8.0008 8.0008 0 0 0 8.0136719 103.79883 A 8 8 0 0 0 8 104 A 8 8 0 0 0 8.0214844 104.34766 A 8.0008 8.0008 0 0 0 8.0527344 104.83203 A 8 8 0 0 0 8.140625 105.41016 A 8.0008 8.0008 0 0 0 8.2226562 105.83789 A 8 8 0 0 0 8.3984375 106.44531 A 8.0008 8.0008 0 0 0 8.53125 106.84375 A 8 8 0 0 0 8.7695312 107.38477 A 8.0008 8.0008 0 0 0 8.9667969 107.79883 A 8 8 0 0 0 9.2773438 108.30469 A 8.0008 8.0008 0 0 0 9.515625 108.67969 A 8 8 0 0 0 9.9628906 109.22852 A 8.0008 8.0008 0 0 0 10.152344 109.45898 L 10.191406 109.50195 A 8 8 0 0 0 10.201172 109.51172 L 122.15234 229.45898 A 8.0008 8.0008 0 0 0 122.30664 229.60352 A 8.0008 8.0008 0 0 0 122.67383 229.94531 A 8.0008 8.0008 0 0 0 123.13672 230.33594 A 8.0008 8.0008 0 0 0 123.54688 230.625 A 8.0008 8.0008 0 0 0 124.05469 230.94531 A 8.0008 8.0008 0 0 0 124.51562 231.18359 A 8.0008 8.0008 0 0 0 125.03906 231.41797 A 8.0008 8.0008 0 0 0 125.53516 231.59375 A 8.0008 8.0008 0 0 0 126.10938 231.75781 A 8.0008 8.0008 0 0 0 126.60547 231.86133 A 8.0008 8.0008 0 0 0 127.19141 231.94336 A 8.0008 8.0008 0 0 0 127.69336 231.97852 A 8.0008 8.0008 0 0 0 128.30664 231.97852 A 8.0008 8.0008 0 0 0 128.80859 231.94336 A 8.0008 8.0008 0 0 0 129.39453 231.86133 A 8.0008 8.0008 0 0 0 129.89062 231.75781 A 8.0008 8.0008 0 0 0 130.46484 231.59375 A 8.0008 8.0008 0 0 0 130.96094 231.41797 A 8.0008 8.0008 0 0 0 131.48438 231.18359 A 8.0008 8.0008 0 0 0 131.94531 230.94531 A 8.0008 8.0008 0 0 0 132.45312 230.625 A 8.0008 8.0008 0 0 0 132.86328 230.33594 A 8.0008 8.0008 0 0 0 133.32617 229.94531 A 8.0008 8.0008 0 0 0 133.69336 229.60352 A 8.0008 8.0008 0 0 0 133.84766 229.45898 L 245.79883 109.51172 L 245.80273 109.50781 A 8 8 0 0 0 245.80859 109.50195 L 245.84766 109.45898 A 8.0008 8.0008 0 0 0 246.03711 109.22852 A 8 8 0 0 0 246.48438 108.67969 A 8.0008 8.0008 0 0 0 246.72266 108.30469 A 8 8 0 0 0 247.0332 107.79883 A 8.0008 8.0008 0 0 0 247.23047 107.38477 A 8 8 0 0 0 247.46875 106.84375 A 8.0008 8.0008 0 0 0 247.60156 106.44531 A 8 8 0 0 0 247.77734 105.83789 A 8.0008 8.0008 0 0 0 247.85938 105.41016 A 8 8 0 0 0 247.94727 104.83203 A 8.0008 8.0008 0 0 0 247.97852 104.34766 A 8 8 0 0 0 248 104 A 8 8 0 0 0 247.98633 103.79883 A 8.0008 8.0008 0 0 0 247.95312 103.27539 A 8 8 0 0 0 247.89062 102.75195 A 8.0008 8.0008 0 0 0 247.78516 102.21875 A 8 8 0 0 0 247.6582 101.72852 A 8.0008 8.0008 0 0 0 247.48242 101.21094 A 8 8 0 0 0 247.29297 100.74023 A 8.0008 8.0008 0 0 0 247.05078 100.24805 A 8 8 0 0 0 246.79492 99.800781 A 8.0008 8.0008 0 0 0 246.50195 99.361328 A 8 8 0 0 0 246.17969 98.939453 A 8.0008 8.0008 0 0 0 246.02148 98.732422 L 190.02148 34.732422 A 8.0008 8.0008 0 0 0 184 32 L 72 32 z M 75.630859 48 L 112 48 L 76 96 L 33.628906 96 L 75.630859 48 z M 144 48 L 180.36914 48 L 222.37109 96 L 180 96 L 144 48 z M 128 53.333984 L 159.99805 96 L 96 96 L 128 53.333984 z M 34.410156 112 L 74.583984 112 L 104.71484 187.32617 L 34.410156 112 z M 91.816406 112 L 164.18359 112 L 128 202.45898 L 91.816406 112 z M 181.41602 112 L 221.58984 112 L 151.28516 187.32617 L 181.41602 112 z " />
</svg>
