<?xml version="1.0" encoding="UTF-8" standalone="no"?>
<svg
   viewBox="0 0 256 256"
   version="1.1"
   id="svg8"
   sodipodi:docname="slack logo purple_coral.svg"
   xmlns:inkscape="http://www.inkscape.org/namespaces/inkscape"
   xmlns:sodipodi="http://sodipodi.sourceforge.net/DTD/sodipodi-0.dtd"
   xmlns:xlink="http://www.w3.org/1999/xlink"
   xmlns="http://www.w3.org/2000/svg"
   xmlns:svg="http://www.w3.org/2000/svg">
  <defs
     id="defs3">
    <linearGradient
       id="linearGradient1"
       inkscape:collect="always">
      <stop
         style="stop-color:#ff7c66;stop-opacity:1;"
         offset="0"
         id="stop1" />
      <stop
         style="stop-color:#a03291;stop-opacity:1;"
         offset="0.76340693"
         id="stop2" />
    </linearGradient>
    <linearGradient
       inkscape:collect="always"
       xlink:href="#linearGradient1"
       id="linearGradient2"
       x1="232.4884"
       y1="23.847498"
       x2="23.977745"
       y2="232.35815"
       gradientUnits="userSpaceOnUse" />
  </defs>
  <defs
     id="defs8" />
  <sodipodi:namedview
     id="namedview8"
     pagecolor="#ffffff"
     bordercolor="#000000"
     borderopacity="0.25"
     inkscape:showpageshadow="2"
     inkscape:pageopacity="0.0"
     inkscape:pagecheckerboard="0"
     inkscape:deskcolor="#d1d1d1" />
  <path
     id="path1"
     style="baseline-shift:baseline;display:inline;overflow:visible;vector-effect:none;fill:url(#linearGradient2);stroke-linecap:round;stroke-linejoin:round;enable-background:accumulate;stop-color:#000000;stop-opacity:1;opacity:1;fill-opacity:1"
     d="M 0 80 C 0 97.578355 14.421645 112 32 112 C 37.814642 112 43.283882 110.42209 48 107.67383 L 48 128 C 48 145.57835 62.421645 160 80 160 C 89.523786 160 98.120961 155.76684 104 149.0918 C 109.87904 155.76685 118.47621 160 128 160 C 145.57835 160 160 145.57835 160 128 C 160 122.18536 158.42209 116.71612 155.67383 112 L 176 112 C 193.57835 112 208 97.578355 208 80 C 208 70.476216 203.76685 61.87904 197.0918 56 C 203.76685 50.12096 208 41.523789 208 32 C 208 14.42165 193.57835 0 176 0 C 170.18536 0 164.71612 1.5779113 160 4.3261719 L 160 -16 C 160 -33.57835 145.57835 -48 128 -48 C 118.47622 -48 109.87904 -43.766845 104 -37.091797 C 98.12096 -43.766851 89.523789 -48 80 -48 C 62.421645 -48 48 -33.57835 48 -16 C 48 -10.185359 49.577912 -4.7161185 52.326172 0 L 32 0 C 14.42165 0 0 14.42165 0 32 C 0 41.523789 4.2331494 50.12096 10.908203 56 C 4.2331547 61.87904 0 70.476215 0 80 z M 16 80 C 16 71.06869 23.068687 64 32 64 L 48 64 L 48 80 C 48 88.931313 40.931313 96 32 96 C 23.068687 96 16 88.931313 16 80 z M 16 32 C 16 23.06869 23.06869 16 32 16 L 80 16 C 88.931313 16 96 23.06869 96 32 L 96 48 L 80 48 L 56 48 L 32 48 C 23.06869 48 16 40.93131 16 32 z M 64 128 L 64 80 C 64 71.068687 71.068687 64 80 64 L 96 64 L 96 104 L 96 128 C 96 136.93131 88.931313 144 80 144 C 71.068687 144 64 136.93131 64 128 z M 64 -16 C 64 -24.93131 71.068687 -32 80 -32 C 88.93131 -32 96 -24.93131 96 -16 L 96 0 L 80 0 C 71.068687 0 64 -7.06869 64 -16 z M 112 128 L 112 112 L 128 112 C 136.93131 112 144 119.06869 144 128 C 144 136.93131 136.93131 144 128 144 C 119.06869 144 112 136.93131 112 128 z M 112 80 L 112 64 L 128 64 L 176 64 C 184.93131 64 192 71.06869 192 80 C 192 88.931313 184.93131 96 176 96 L 128 96 C 119.06869 96 112 88.931313 112 80 z M 112 48 L 112 32 L 112 -16 C 112 -24.93131 119.06869 -32 128 -32 C 136.93131 -32 144 -24.93131 144 -16 L 144 32 C 144 40.93131 136.93131 48 128 48 L 112 48 z M 160 48 L 160 32 C 160 23.06869 167.06869 16 176 16 C 184.93131 16 192 23.06869 192 32 C 192 40.93131 184.93131 48 176 48 L 160 48 z "
     transform="translate(184 24) rotate(90)" />
</svg>
