<?xml version="1.0" encoding="UTF-8" standalone="no"?>
<svg
   viewBox="0 0 256 256"
   version="1.1"
   id="svg3"
   sodipodi:docname="spotify logo purple_coral.svg"
   xmlns:inkscape="http://www.inkscape.org/namespaces/inkscape"
   xmlns:sodipodi="http://sodipodi.sourceforge.net/DTD/sodipodi-0.dtd"
   xmlns:xlink="http://www.w3.org/1999/xlink"
   xmlns="http://www.w3.org/2000/svg"
   xmlns:svg="http://www.w3.org/2000/svg">
  <defs
     id="defs3">
    <linearGradient
       id="linearGradient1"
       inkscape:collect="always">
      <stop
         style="stop-color:#ff7c66;stop-opacity:1;"
         offset="0"
         id="stop1" />
      <stop
         style="stop-color:#a03291;stop-opacity:1;"
         offset="0.76340693"
         id="stop2" />
    </linearGradient>
    <linearGradient
       inkscape:collect="always"
       xlink:href="#linearGradient1"
       id="linearGradient2"
       x1="232.4884"
       y1="23.847498"
       x2="23.977745"
       y2="232.35815"
       gradientUnits="userSpaceOnUse" />
  </defs>
  <defs
     id="defs1" />
  <sodipodi:namedview
     id="namedview3"
     pagecolor="#ffffff"
     bordercolor="#000000"
     borderopacity="0.25"
     inkscape:showpageshadow="2"
     inkscape:pageopacity="0.0"
     inkscape:pagecheckerboard="0"
     inkscape:deskcolor="#d1d1d1" />
  <path
     id="circle1"
     style="baseline-shift:baseline;display:inline;overflow:visible;vector-effect:none;fill:url(#linearGradient2);stroke-linecap:round;stroke-linejoin:round;enable-background:accumulate;stop-color:#000000;stop-opacity:1;opacity:1;fill-opacity:1"
     d="M 128 24 C 70.657143 24 24 70.657143 24 128 C 24 185.34286 70.657143 232 128 232 C 185.34286 232 232 185.34286 232 128 C 232 70.657143 185.34286 24 128 24 z M 128 40 C 176.69582 40 216 79.304185 216 128 C 216 176.69582 176.69582 216 128 216 C 79.304185 216 40 176.69582 40 128 C 40 79.304185 79.304185 40 128 40 z M 128 88.003906 C 107.45385 88.003906 86.906775 92.982785 68.234375 102.94141 A 8 8 0 0 0 64.941406 113.76562 A 8 8 0 0 0 75.765625 117.05859 C 108.42083 99.642495 147.57917 99.642495 180.23438 117.05859 A 8 8 0 0 0 191.05859 113.76562 A 8 8 0 0 0 187.76562 102.94141 C 169.09323 92.982785 148.54615 88.003906 128 88.003906 z M 128 120.00391 C 112.95385 120.00391 97.906775 123.64946 84.234375 130.94141 A 8 8 0 0 0 80.941406 141.76562 A 8 8 0 0 0 91.765625 145.05859 C 114.42083 132.97582 141.57917 132.97582 164.23438 145.05859 A 8 8 0 0 0 175.05859 141.76562 A 8 8 0 0 0 171.76562 130.94141 C 158.09323 123.64946 143.04615 120.00391 128 120.00391 z M 128 152.00391 C 118.45385 152.00391 108.90676 154.31613 100.23438 158.94141 A 8 8 0 0 0 96.941406 169.76562 A 8 8 0 0 0 107.76562 173.05859 C 120.42083 166.30915 135.57918 166.30915 148.23438 173.05859 A 8 8 0 0 0 159.05859 169.76562 A 8 8 0 0 0 155.76562 158.94141 C 147.09323 154.31613 137.54615 152.00391 128 152.00391 z " />
</svg>
