<?xml version="1.0" encoding="UTF-8" standalone="no"?>
<svg
   viewBox="0 0 256 256"
   version="1.1"
   id="svg4"
   sodipodi:docname="stack overflow logo purple_coral.svg"
   xmlns:inkscape="http://www.inkscape.org/namespaces/inkscape"
   xmlns:sodipodi="http://sodipodi.sourceforge.net/DTD/sodipodi-0.dtd"
   xmlns:xlink="http://www.w3.org/1999/xlink"
   xmlns="http://www.w3.org/2000/svg"
   xmlns:svg="http://www.w3.org/2000/svg">
  <defs
     id="defs3">
    <linearGradient
       id="linearGradient1"
       inkscape:collect="always">
      <stop
         style="stop-color:#ff7c66;stop-opacity:1;"
         offset="0"
         id="stop1" />
      <stop
         style="stop-color:#a03291;stop-opacity:1;"
         offset="0.76340693"
         id="stop2" />
    </linearGradient>
    <linearGradient
       inkscape:collect="always"
       xlink:href="#linearGradient1"
       id="linearGradient2"
       x1="232.4884"
       y1="23.847498"
       x2="23.977745"
       y2="232.35815"
       gradientUnits="userSpaceOnUse" />
  </defs>
  <defs
     id="defs4" />
  <sodipodi:namedview
     id="namedview4"
     pagecolor="#ffffff"
     bordercolor="#000000"
     borderopacity="0.25"
     inkscape:showpageshadow="2"
     inkscape:pageopacity="0.0"
     inkscape:pagecheckerboard="0"
     inkscape:deskcolor="#d1d1d1" />
  <path
     id="polyline1"
     style="baseline-shift:baseline;display:inline;overflow:visible;vector-effect:none;fill:url(#linearGradient2);stroke-linecap:round;stroke-linejoin:round;enable-background:accumulate;stop-color:#000000;stop-opacity:1;opacity:1;fill-opacity:1"
     d="M 147.75 23.75 A 8 8 0 0 0 142.09375 26.09375 A 8 8 0 0 0 142.09375 37.40625 L 198.66406 93.976562 A 8 8 0 0 0 209.97656 93.976562 A 8 8 0 0 0 209.97656 82.664062 L 153.40625 26.09375 A 8 8 0 0 0 147.75 23.75 z M 115.33008 66 A 8 8 0 0 0 113.25977 66.273438 A 8 8 0 0 0 108.40234 70 A 8 8 0 0 0 111.33008 80.927734 L 180.60938 120.92773 A 8 8 0 0 0 191.53906 118 A 8 8 0 0 0 188.60938 107.07227 L 119.33008 67.072266 A 8 8 0 0 0 115.33008 66 z M 94.951172 115.19922 A 8 8 0 0 0 87.222656 121.12891 A 8 8 0 0 0 92.878906 130.92773 L 170.1582 151.63672 A 8 8 0 0 0 179.95703 145.98047 A 8 8 0 0 0 174.30078 136.18359 L 97.021484 115.47266 A 8 8 0 0 0 94.951172 115.19922 z M 48 144 A 8 8 0 0 0 40 152 L 40 216 A 8.0008 8.0008 0 0 0 48 224 L 208 224 A 8.0008 8.0008 0 0 0 216 216 L 216 152 A 8 8 0 0 0 208 144 A 8 8 0 0 0 200 152 L 200 208 L 56 208 L 56 152 A 8 8 0 0 0 48 144 z M 88 168 A 8 8 0 0 0 80 176 A 8 8 0 0 0 88 184 L 168 184 A 8 8 0 0 0 176 176 A 8 8 0 0 0 168 168 L 88 168 z " />
</svg>
