<?xml version="1.0" encoding="UTF-8" standalone="no"?>
<svg
   viewBox="0 0 256 256"
   version="1.1"
   id="svg2"
   sodipodi:docname="standard definition purple_coral.svg"
   xmlns:inkscape="http://www.inkscape.org/namespaces/inkscape"
   xmlns:sodipodi="http://sodipodi.sourceforge.net/DTD/sodipodi-0.dtd"
   xmlns:xlink="http://www.w3.org/1999/xlink"
   xmlns="http://www.w3.org/2000/svg"
   xmlns:svg="http://www.w3.org/2000/svg">
  <defs
     id="defs3">
    <linearGradient
       id="linearGradient1"
       inkscape:collect="always">
      <stop
         style="stop-color:#ff7c66;stop-opacity:1;"
         offset="0"
         id="stop1" />
      <stop
         style="stop-color:#a03291;stop-opacity:1;"
         offset="0.76340693"
         id="stop2" />
    </linearGradient>
    <linearGradient
       inkscape:collect="always"
       xlink:href="#linearGradient1"
       id="linearGradient2"
       x1="232.4884"
       y1="23.847498"
       x2="23.977745"
       y2="232.35815"
       gradientUnits="userSpaceOnUse" />
  </defs>
  <defs
     id="defs2" />
  <sodipodi:namedview
     id="namedview2"
     pagecolor="#ffffff"
     bordercolor="#000000"
     borderopacity="0.25"
     inkscape:showpageshadow="2"
     inkscape:pageopacity="0.0"
     inkscape:pagecheckerboard="0"
     inkscape:deskcolor="#d1d1d1" />
  <path
     id="path1"
     style="baseline-shift:baseline;display:inline;overflow:visible;vector-effect:none;fill:url(#linearGradient2);stroke-linecap:round;stroke-linejoin:round;enable-background:accumulate;stop-color:#000000;stop-opacity:1;opacity:1;fill-opacity:1"
     d="M 32 40 A 8 8 0 0 0 24 48 A 8 8 0 0 0 32 56 L 224 56 A 8 8 0 0 0 232 48 A 8 8 0 0 0 224 40 L 32 40 z M 80 72 C 59.085329 72 41.779297 85.698428 41.779297 104 C 41.779297 113.96286 48.33993 121.67465 55.550781 125.76953 C 62.761632 129.86441 70.964497 131.95753 78.666016 134.18555 C 86.367534 136.41357 93.51964 138.77153 97.900391 141.63477 C 102.28114 144.498 104 146.5925 104 152 C 104 155.74097 102.05544 159.39618 97.826172 162.56836 C 93.596901 165.74054 87.212665 168 80 168 C 72.787335 168 66.403099 165.74054 62.173828 162.56836 C 57.944557 159.39618 56 155.74097 56 152 A 8 8 0 0 0 48 144 A 8 8 0 0 0 40 152 C 40 161.50903 45.22099 169.85382 52.574219 175.36914 C 59.927447 180.88446 69.542665 184 80 184 C 90.457335 184 100.07255 180.88446 107.42578 175.36914 C 114.77901 169.85382 120 161.50903 120 152 C 120 141.4075 113.9398 133.002 106.6543 128.24023 C 99.368791 123.47847 90.966763 121.08643 83.113281 118.81445 C 75.259799 116.54247 67.908524 114.38559 63.453125 111.85547 C 58.997726 109.32535 57.779297 108.03714 57.779297 104 C 57.779297 95.801572 65.574671 88 80 88 C 90.834906 88 98.113304 92.825664 100.85742 98.263672 A 8 8 0 0 0 111.60352 101.80273 A 8 8 0 0 0 115.14258 91.056641 C 109.1467 79.174649 95.665094 72 80 72 z M 144 72 A 8.0008 8.0008 0 0 0 136 80 L 136 176 A 8.0008 8.0008 0 0 0 144 184 L 168 184 C 198.8332 184 224 158.83318 224 128 C 224 97.166819 198.8332 72 168 72 L 144 72 z M 152 88 L 168 88 C 190.18617 88 208 105.81385 208 128 C 208 150.18615 190.18617 168 168 168 L 152 168 L 152 88 z M 32 200 A 8 8 0 0 0 24 208 A 8 8 0 0 0 32 216 L 224 216 A 8 8 0 0 0 232 208 A 8 8 0 0 0 224 200 L 32 200 z " />
</svg>
