<?xml version="1.0" encoding="UTF-8" standalone="no"?>
<svg
   viewBox="0 0 256 256"
   version="1.1"
   id="svg2"
   sodipodi:docname="star of david purple_coral.svg"
   xmlns:inkscape="http://www.inkscape.org/namespaces/inkscape"
   xmlns:sodipodi="http://sodipodi.sourceforge.net/DTD/sodipodi-0.dtd"
   xmlns:xlink="http://www.w3.org/1999/xlink"
   xmlns="http://www.w3.org/2000/svg"
   xmlns:svg="http://www.w3.org/2000/svg">
  <defs
     id="defs3">
    <linearGradient
       id="linearGradient1"
       inkscape:collect="always">
      <stop
         style="stop-color:#ff7c66;stop-opacity:1;"
         offset="0"
         id="stop1" />
      <stop
         style="stop-color:#a03291;stop-opacity:1;"
         offset="0.76340693"
         id="stop2" />
    </linearGradient>
    <linearGradient
       inkscape:collect="always"
       xlink:href="#linearGradient1"
       id="linearGradient2"
       x1="232.4884"
       y1="23.847498"
       x2="23.977745"
       y2="232.35815"
       gradientUnits="userSpaceOnUse" />
  </defs>
  <defs
     id="defs2" />
  <sodipodi:namedview
     id="namedview2"
     pagecolor="#ffffff"
     bordercolor="#000000"
     borderopacity="0.25"
     inkscape:showpageshadow="2"
     inkscape:pageopacity="0.0"
     inkscape:pagecheckerboard="0"
     inkscape:deskcolor="#d1d1d1" />
  <path
     id="polygon1"
     style="baseline-shift:baseline;display:inline;overflow:visible;vector-effect:none;fill:url(#linearGradient2);stroke-linecap:round;stroke-linejoin:round;enable-background:accumulate;stop-color:#000000;stop-opacity:1;opacity:1;fill-opacity:1"
     d="M 127.44141 8.0195312 A 8.0008 8.0008 0 0 0 125.25391 8.4863281 A 8.0008 8.0008 0 0 0 121.05469 12.029297 L 91.333984 64.027344 L 31.998047 64.039062 A 8.0008 8.0008 0 0 0 25.054688 76.009766 L 54.769531 128 L 25.054688 179.99023 A 8.0008 8.0008 0 0 0 31.998047 191.96094 L 91.333984 191.97266 L 121.05469 243.9707 A 8.0008 8.0008 0 0 0 134.94531 243.96875 L 164.64844 191.98828 L 223.99805 192 A 8.0008 8.0008 0 0 0 230.94531 180.03125 L 201.21289 128 L 230.94531 75.96875 A 8.0008 8.0008 0 0 0 223.99805 64 L 164.64844 64.011719 L 134.94531 12.03125 A 8.0008 8.0008 0 0 0 127.44141 8.0195312 z M 128 32.123047 L 146.22461 64.015625 L 109.76758 64.023438 L 128 32.123047 z M 210.21289 80.001953 L 192 111.87695 L 173.79102 80.009766 L 210.21289 80.001953 z M 155.36523 80.013672 L 182.78516 128 L 155.36523 175.98633 L 100.62109 175.97461 L 73.199219 128 L 100.62109 80.025391 L 155.36523 80.013672 z M 82.189453 80.029297 L 63.984375 111.87891 L 45.785156 80.037109 L 82.189453 80.029297 z M 63.984375 144.12109 L 82.189453 175.9707 L 45.785156 175.96289 L 63.984375 144.12109 z M 192 144.12305 L 210.21289 175.99805 L 173.79102 175.99023 L 192 144.12305 z M 109.76758 191.97656 L 146.22461 191.98438 L 128 223.87695 L 109.76758 191.97656 z " />
</svg>
