<?xml version="1.0" encoding="UTF-8" standalone="no"?>
<svg
   viewBox="0 0 256 256"
   version="1.1"
   id="svg3"
   sodipodi:docname="subtract purple_coral.svg"
   xmlns:inkscape="http://www.inkscape.org/namespaces/inkscape"
   xmlns:sodipodi="http://sodipodi.sourceforge.net/DTD/sodipodi-0.dtd"
   xmlns:xlink="http://www.w3.org/1999/xlink"
   xmlns="http://www.w3.org/2000/svg"
   xmlns:svg="http://www.w3.org/2000/svg">
  <defs
     id="defs3">
    <linearGradient
       id="linearGradient1"
       inkscape:collect="always">
      <stop
         style="stop-color:#ff7c66;stop-opacity:1;"
         offset="0"
         id="stop1" />
      <stop
         style="stop-color:#a03291;stop-opacity:1;"
         offset="0.76340693"
         id="stop2" />
    </linearGradient>
    <linearGradient
       inkscape:collect="always"
       xlink:href="#linearGradient1"
       id="linearGradient2"
       x1="232.4884"
       y1="23.847498"
       x2="23.977745"
       y2="232.35815"
       gradientUnits="userSpaceOnUse" />
  </defs>
  <defs
     id="defs1" />
  <sodipodi:namedview
     id="namedview3"
     pagecolor="#ffffff"
     bordercolor="#000000"
     borderopacity="0.25"
     inkscape:showpageshadow="2"
     inkscape:pageopacity="0.0"
     inkscape:pagecheckerboard="0"
     inkscape:deskcolor="#d1d1d1" />
  <path
     id="circle1"
     style="baseline-shift:baseline;display:inline;overflow:visible;vector-effect:none;fill:url(#linearGradient2);stroke-linecap:round;stroke-linejoin:round;enable-background:accumulate;stop-color:#000000;stop-opacity:1;opacity:1;fill-opacity:1"
     d="M 96 16 C 51.911977 16 16 51.911977 16 96 C 16 135.08646 44.226167 167.74706 81.351562 174.6543 C 86.550189 202.56599 106.27459 225.85617 133.33398 235.42188 C 149.52163 241.14433 166.75412 241.39635 182.60938 236.72656 A 8 8 0 0 0 183.83984 236.35352 C 195.8963 232.59153 207.11212 225.96577 216.4082 216.7207 A 8 8 0 0 0 216.56641 216.56641 A 8 8 0 0 0 216.7207 216.4082 C 225.96577 207.11212 232.59153 195.8963 236.35352 183.83984 A 8 8 0 0 0 236.72656 182.60938 C 241.39635 166.75412 241.14432 149.52163 235.42188 133.33398 C 225.85618 106.27459 202.56599 86.550189 174.6543 81.351562 C 167.74706 44.226167 135.08646 16 96 16 z M 96 32 C 131.44098 32 160 60.559019 160 96 C 160 113.41144 153.10804 129.16252 141.89258 140.68164 A 8 8 0 0 0 141.25391 141.25391 A 8 8 0 0 0 140.68164 141.89062 C 133.57459 148.81067 124.85778 154.08598 115.13281 157.11133 C 114.78362 157.21996 114.43184 157.32493 114.08008 157.42773 C 108.35002 159.10235 102.28351 160 96 160 C 60.559019 160 32 131.44098 32 96 C 32 60.559019 60.559019 32 96 32 z M 175.97461 98.021484 C 196.4162 103.28111 213.16595 118.37806 220.33789 138.66602 C 223.32641 147.11993 224.45546 155.91846 223.84375 164.53125 L 173.83398 114.52148 C 175.10048 109.205 175.83325 103.68501 175.97461 98.021484 z M 167.84375 131.15625 L 219.71484 183.02734 C 217.49174 188.79017 214.42314 194.25916 210.55273 199.24023 L 157.9082 146.5957 C 161.7801 141.86789 165.12246 136.69076 167.84375 131.15625 z M 146.5957 157.9082 L 199.24023 210.55273 C 194.25916 214.42314 188.79017 217.49174 183.02734 219.71484 L 131.15625 167.84375 C 136.69076 165.12246 141.86789 161.7801 146.5957 157.9082 z M 114.52148 173.83398 L 164.53125 223.84375 C 155.91846 224.45546 147.11993 223.32641 138.66602 220.33789 C 118.37806 213.16595 103.28111 196.41621 98.021484 175.97461 C 103.68501 175.83325 109.205 175.10048 114.52148 173.83398 z " />
</svg>
