<?xml version="1.0" encoding="UTF-8" standalone="no"?>
<svg
   viewBox="0 0 256 256"
   version="1.1"
   id="svg2"
   sodipodi:docname="sword purple_coral.svg"
   xmlns:inkscape="http://www.inkscape.org/namespaces/inkscape"
   xmlns:sodipodi="http://sodipodi.sourceforge.net/DTD/sodipodi-0.dtd"
   xmlns:xlink="http://www.w3.org/1999/xlink"
   xmlns="http://www.w3.org/2000/svg"
   xmlns:svg="http://www.w3.org/2000/svg">
  <defs
     id="defs3">
    <linearGradient
       id="linearGradient1"
       inkscape:collect="always">
      <stop
         style="stop-color:#ff7c66;stop-opacity:1;"
         offset="0"
         id="stop1" />
      <stop
         style="stop-color:#a03291;stop-opacity:1;"
         offset="0.76340693"
         id="stop2" />
    </linearGradient>
    <linearGradient
       inkscape:collect="always"
       xlink:href="#linearGradient1"
       id="linearGradient2"
       x1="232.4884"
       y1="23.847498"
       x2="23.977745"
       y2="232.35815"
       gradientUnits="userSpaceOnUse" />
  </defs>
  <defs
     id="defs2" />
  <sodipodi:namedview
     id="namedview2"
     pagecolor="#ffffff"
     bordercolor="#000000"
     borderopacity="0.25"
     inkscape:showpageshadow="2"
     inkscape:pageopacity="0.0"
     inkscape:pagecheckerboard="0"
     inkscape:deskcolor="#d1d1d1" />
  <path
     id="rect2"
     style="baseline-shift:baseline;display:inline;overflow:visible;vector-effect:none;fill:url(#linearGradient2);stroke-linecap:round;stroke-linejoin:round;enable-background:accumulate;stop-color:#000000;stop-opacity:1;opacity:1;fill-opacity:1"
     d="M 227.76617 113.08759 A 8.0008 8.0008 0 0 0 221.07351 110.81159 L 116.98104 124.39163 L 116.98104 110.76049 C 116.98104 102.02932 109.70149 94.749768 100.97032 94.749768 L 83.030246 94.749768 C 74.299084 94.749768 67.019525 102.02932 67.019525 110.76049 L 67.020907 139.02957 L 27.428451 139.02957 A 8.0008 8.0008 0 0 0 27.425689 139.02957 C 18.687792 139.03243 11.434404 146.28582 11.431541 155.02372 L 11.43016 155.01681 L 11.409444 172.94169 A 8.0008 8.0008 0 0 0 11.409444 172.94721 C 11.40458 181.69325 18.666714 188.95601 27.411878 188.95517 L 27.418784 188.95655 L 67.019525 188.9676 L 67.019525 217.22978 C 67.019525 225.96094 74.299084 233.2405 83.030246 233.2405 L 100.97032 233.2405 C 109.70149 233.2405 116.98104 225.96094 116.98104 217.22978 L 116.98104 203.60692 L 221.07351 217.18696 A 8.0008 8.0008 0 0 0 227.76617 214.91096 L 273.021 169.65613 A 8.0008 8.0008 0 0 0 273.021 158.34242 L 227.76617 113.08759 z M 219.23807 127.18691 L 256.05044 163.99928 L 219.23807 200.81164 L 116.98242 187.47191 L 116.98242 171.99842 L 188.16819 171.99842 A 8 8 0 0 0 196.16733 163.99928 A 8 8 0 0 0 193.82504 158.34242 A 8 8 0 0 0 188.16819 156.00013 L 116.98242 156.00013 L 116.98242 140.52665 L 219.23807 127.18691 z M 100.97999 110.74944 C 100.97983 110.75269 100.97999 110.7569 100.97999 110.76049 L 100.98137 133.33681 A 8 8 0 0 0 100.97999 133.66964 L 100.97999 163.68025 A 8 8 0 0 0 100.97308 163.99928 A 8 8 0 0 0 100.98137 164.3473 L 100.98137 194.31924 A 8 8 0 0 0 100.98137 194.67003 L 100.98137 217.23116 L 100.98137 217.23392 L 100.98137 217.23668 L 100.97999 217.23806 L 100.97999 217.24083 C 100.97674 217.24067 100.97528 217.24083 100.9717 217.24083 L 83.028865 217.24083 L 83.026103 217.24083 L 83.023341 217.24083 L 83.02196 217.24221 L 83.019197 217.24221 C 83.019357 217.23896 83.019197 217.23474 83.019197 217.23116 L 83.019197 181.3814 A 8 8 0 0 0 83.030246 180.9726 A 8 8 0 0 0 83.019197 180.55828 L 83.019197 147.44303 A 8 8 0 0 0 83.030246 147.02871 A 8 8 0 0 0 83.019197 146.61439 L 83.019197 110.75911 C 83.019197 110.75553 83.019357 110.75406 83.019197 110.75082 L 83.02196 110.75082 L 83.023341 110.74944 L 83.026103 110.74944 L 83.028865 110.74944 L 100.97032 110.75082 L 100.97308 110.75082 L 100.97584 110.75082 L 100.97722 110.74944 L 100.97999 110.74944 z M 67.020907 155.02786 L 67.019525 172.96931 L 27.416021 172.9555 A 8.0008 8.0008 0 0 0 27.410497 172.9555 L 27.431213 155.03614 A 8.0008 8.0008 0 0 0 27.431213 155.02786 L 67.020907 155.02786 z "
     transform="translate(-89.02 113.09) rotate(-45)" />
</svg>
