<?xml version="1.0" encoding="UTF-8" standalone="no"?>
<svg
   viewBox="0 0 256 256"
   version="1.1"
   id="svg1"
   sodipodi:docname="tag chevron purple_coral.svg"
   xmlns:inkscape="http://www.inkscape.org/namespaces/inkscape"
   xmlns:sodipodi="http://sodipodi.sourceforge.net/DTD/sodipodi-0.dtd"
   xmlns:xlink="http://www.w3.org/1999/xlink"
   xmlns="http://www.w3.org/2000/svg"
   xmlns:svg="http://www.w3.org/2000/svg">
  <defs
     id="defs3">
    <linearGradient
       id="linearGradient1"
       inkscape:collect="always">
      <stop
         style="stop-color:#ff7c66;stop-opacity:1;"
         offset="0"
         id="stop1" />
      <stop
         style="stop-color:#a03291;stop-opacity:1;"
         offset="0.76340693"
         id="stop2" />
    </linearGradient>
    <linearGradient
       inkscape:collect="always"
       xlink:href="#linearGradient1"
       id="linearGradient2"
       x1="232.4884"
       y1="23.847498"
       x2="23.977745"
       y2="232.35815"
       gradientUnits="userSpaceOnUse" />
  </defs>
  <defs
     id="defs1" />
  <sodipodi:namedview
     id="namedview1"
     pagecolor="#ffffff"
     bordercolor="#000000"
     borderopacity="0.25"
     inkscape:showpageshadow="2"
     inkscape:pageopacity="0.0"
     inkscape:pagecheckerboard="0"
     inkscape:deskcolor="#d1d1d1" />
  <path
     id="path1"
     style="baseline-shift:baseline;display:inline;overflow:visible;vector-effect:none;fill:url(#linearGradient2);stroke-linecap:round;stroke-linejoin:round;enable-background:accumulate;stop-color:#000000;stop-opacity:1;opacity:1;fill-opacity:1"
     d="M 32 48 A 8.0008 8.0008 0 0 0 25.34375 60.4375 L 70.384766 128 L 25.34375 195.5625 A 8.0008 8.0008 0 0 0 32 208 L 187.7207 208 A 8.0008 8.0008 0 0 0 187.72461 208 C 193.0595 207.997 198.06453 205.31869 201.02539 200.88086 A 8.0008 8.0008 0 0 0 201.02539 200.87695 L 246.65625 132.4375 A 8.0008 8.0008 0 0 0 246.65625 123.5625 L 201.02539 55.123047 A 8.0008 8.0008 0 0 0 201.02539 55.119141 C 198.06453 50.681305 193.0595 48.003203 187.72461 48 A 8.0008 8.0008 0 0 0 187.7207 48 L 32 48 z M 46.947266 64 L 187.71484 64 L 230.38477 128 L 187.71484 192 L 46.947266 192 L 86.65625 132.4375 A 8.0008 8.0008 0 0 0 86.65625 123.5625 L 46.947266 64 z " />
</svg>
