<?xml version="1.0" encoding="UTF-8" standalone="no"?>
<svg
   viewBox="0 0 256 256"
   version="1.1"
   id="svg2"
   sodipodi:docname="terminal window purple_coral.svg"
   xmlns:inkscape="http://www.inkscape.org/namespaces/inkscape"
   xmlns:sodipodi="http://sodipodi.sourceforge.net/DTD/sodipodi-0.dtd"
   xmlns:xlink="http://www.w3.org/1999/xlink"
   xmlns="http://www.w3.org/2000/svg"
   xmlns:svg="http://www.w3.org/2000/svg">
  <defs
     id="defs3">
    <linearGradient
       id="linearGradient1"
       inkscape:collect="always">
      <stop
         style="stop-color:#ff7c66;stop-opacity:1;"
         offset="0"
         id="stop1" />
      <stop
         style="stop-color:#a03291;stop-opacity:1;"
         offset="0.76340693"
         id="stop2" />
    </linearGradient>
    <linearGradient
       inkscape:collect="always"
       xlink:href="#linearGradient1"
       id="linearGradient2"
       x1="232.4884"
       y1="23.847498"
       x2="23.977745"
       y2="232.35815"
       gradientUnits="userSpaceOnUse" />
  </defs>
  <defs
     id="defs2" />
  <sodipodi:namedview
     id="namedview2"
     pagecolor="#ffffff"
     bordercolor="#000000"
     borderopacity="0.25"
     inkscape:showpageshadow="2"
     inkscape:pageopacity="0.0"
     inkscape:pagecheckerboard="0"
     inkscape:deskcolor="#d1d1d1" />
  <path
     id="polyline1"
     style="baseline-shift:baseline;display:inline;overflow:visible;vector-effect:none;fill:url(#linearGradient2);stroke-linecap:round;stroke-linejoin:round;enable-background:accumulate;stop-color:#000000;stop-opacity:1;opacity:1;fill-opacity:1"
     d="M 40 40 C 31.274378 40 24 47.274378 24 56 L 24 200 C 24 208.72562 31.274378 216 40 216 L 216 216 C 224.72562 216 232 208.72562 232 200 L 232 56 C 232 47.274378 224.72562 40 216 40 L 40 40 z M 40 56 L 216 56 L 216 200 L 40 200 L 40 56 z M 80.162109 88.001953 A 8 8 0 0 0 79.117188 88.048828 A 8 8 0 0 0 73.753906 91.001953 A 8 8 0 0 0 75.001953 102.24609 L 107.19531 128 L 75.001953 153.75391 A 8 8 0 0 0 73.753906 164.99805 A 8 8 0 0 0 84.998047 166.24609 L 124.99805 134.24609 A 8.0008 8.0008 0 0 0 124.99805 121.75391 L 84.998047 89.753906 A 8 8 0 0 0 80.162109 88.001953 z M 136 152 A 8 8 0 0 0 128 160 A 8 8 0 0 0 136 168 L 176 168 A 8 8 0 0 0 184 160 A 8 8 0 0 0 176 152 L 136 152 z " />
</svg>
