<?xml version="1.0" encoding="UTF-8" standalone="no"?>
<svg
   viewBox="0 0 256 256"
   version="1.1"
   id="svg3"
   sodipodi:docname="thermometer hot purple_coral.svg"
   xmlns:inkscape="http://www.inkscape.org/namespaces/inkscape"
   xmlns:sodipodi="http://sodipodi.sourceforge.net/DTD/sodipodi-0.dtd"
   xmlns:xlink="http://www.w3.org/1999/xlink"
   xmlns="http://www.w3.org/2000/svg"
   xmlns:svg="http://www.w3.org/2000/svg">
  <defs
     id="defs3">
    <linearGradient
       id="linearGradient1"
       inkscape:collect="always">
      <stop
         style="stop-color:#ff7c66;stop-opacity:1;"
         offset="0"
         id="stop1" />
      <stop
         style="stop-color:#a03291;stop-opacity:1;"
         offset="0.76340693"
         id="stop2" />
    </linearGradient>
    <linearGradient
       inkscape:collect="always"
       xlink:href="#linearGradient1"
       id="linearGradient2"
       x1="232.4884"
       y1="23.847498"
       x2="23.977745"
       y2="232.35815"
       gradientUnits="userSpaceOnUse" />
  </defs>
  <defs
     id="defs1" />
  <sodipodi:namedview
     id="namedview3"
     pagecolor="#ffffff"
     bordercolor="#000000"
     borderopacity="0.25"
     inkscape:showpageshadow="2"
     inkscape:pageopacity="0.0"
     inkscape:pagecheckerboard="0"
     inkscape:deskcolor="#d1d1d1" />
  <path
     id="line1"
     style="baseline-shift:baseline;display:inline;overflow:visible;vector-effect:none;fill:url(#linearGradient2);stroke-linecap:round;stroke-linejoin:round;enable-background:accumulate;stop-color:#000000;stop-opacity:1;opacity:1;fill-opacity:1"
     d="M 120 8 C 98.003375 8 80 26.003358 80 48 L 80 134.25977 C 59.645682 150.65397 51.02264 177.90539 58.9375 203.12109 C 67.301794 229.76863 92.070584 247.94922 120 247.94922 C 147.92942 247.94922 172.69821 229.76863 181.0625 203.12109 C 188.97736 177.90539 180.35432 150.65397 160 134.25977 L 160 48 C 160 26.003358 141.99662 8 120 8 z M 120 24 C 133.3496 24 144 34.650394 144 48 L 144 138 A 8.0008 8.0008 0 0 0 147.42773 144.56445 C 164.66579 156.56749 172.08707 178.28843 165.79688 198.32812 C 159.50672 218.36773 141.0059 231.94922 120 231.94922 C 98.994096 231.94922 80.493277 218.36773 74.203125 198.32812 C 67.912934 178.28841 75.334212 156.56749 92.572266 144.56445 A 8.0008 8.0008 0 0 0 96 138 L 96 48 C 96 34.650394 106.6504 24 120 24 z M 120 40 A 8 8 0 0 0 112 48 L 112 153.02148 C 98.249914 156.60402 88 169.1806 88 184 C 88 201.57835 102.42165 216 120 216 C 137.57835 216 152 201.57835 152 184 C 152 169.1806 141.75009 156.60402 128 153.02148 L 128 48 A 8 8 0 0 0 120 40 z M 197.52344 64.009766 C 191.92987 64.020133 185.71514 65.735505 179.63477 69.695312 A 8 8 0 0 0 177.29688 80.765625 A 8 8 0 0 0 188.36523 83.103516 C 192.87123 80.16901 195.60976 79.79892 198.50586 80.048828 C 201.40196 80.298736 204.72313 81.592422 208.85938 83.357422 C 212.99562 85.122422 217.94711 87.359986 224.11914 87.892578 C 230.29117 88.42517 237.41623 86.830181 244.36523 82.304688 A 8 8 0 0 0 246.70312 71.234375 A 8 8 0 0 0 235.63477 68.896484 C 231.12877 71.83099 228.39024 72.20108 225.49414 71.951172 C 222.59804 71.701264 219.27688 70.407578 215.14062 68.642578 C 211.00438 66.877578 206.05289 64.640014 199.88086 64.107422 C 199.10936 64.040848 198.32252 64.008285 197.52344 64.009766 z M 197.52344 96.009766 C 191.92987 96.020133 185.71514 97.735509 179.63477 101.69531 A 8 8 0 0 0 177.29688 112.76562 A 8 8 0 0 0 188.36523 115.10352 C 192.87123 112.16901 195.60976 111.79892 198.50586 112.04883 C 201.40196 112.29874 204.72313 113.59242 208.85938 115.35742 C 212.99562 117.12242 217.94711 119.35999 224.11914 119.89258 C 230.29117 120.42517 237.41623 118.83018 244.36523 114.30469 A 8 8 0 0 0 246.70312 103.23438 A 8 8 0 0 0 235.63477 100.89648 C 231.12877 103.83099 228.39024 104.20108 225.49414 103.95117 C 222.59804 103.70126 219.27688 102.40758 215.14062 100.64258 C 211.00438 98.877574 206.05289 96.640014 199.88086 96.107422 C 199.10936 96.040848 198.32252 96.008285 197.52344 96.009766 z M 120 168 C 128.93131 168 136 175.06869 136 184 C 136 192.93131 128.93131 200 120 200 C 111.06869 200 104 192.93131 104 184 C 104 175.06869 111.06869 168 120 168 z " />
</svg>
