<?xml version="1.0" encoding="UTF-8" standalone="no"?>
<svg
   viewBox="0 0 256 256"
   version="1.1"
   id="svg3"
   sodipodi:docname="tire purple_coral.svg"
   xmlns:inkscape="http://www.inkscape.org/namespaces/inkscape"
   xmlns:sodipodi="http://sodipodi.sourceforge.net/DTD/sodipodi-0.dtd"
   xmlns:xlink="http://www.w3.org/1999/xlink"
   xmlns="http://www.w3.org/2000/svg"
   xmlns:svg="http://www.w3.org/2000/svg">
  <defs
     id="defs3">
    <linearGradient
       id="linearGradient1"
       inkscape:collect="always">
      <stop
         style="stop-color:#ff7c66;stop-opacity:1;"
         offset="0"
         id="stop1" />
      <stop
         style="stop-color:#a03291;stop-opacity:1;"
         offset="0.76340693"
         id="stop2" />
    </linearGradient>
    <linearGradient
       inkscape:collect="always"
       xlink:href="#linearGradient1"
       id="linearGradient2"
       x1="232.4884"
       y1="23.847498"
       x2="23.977745"
       y2="232.35815"
       gradientUnits="userSpaceOnUse" />
  </defs>
  <defs
     id="defs1" />
  <sodipodi:namedview
     id="namedview3"
     pagecolor="#ffffff"
     bordercolor="#000000"
     borderopacity="0.25"
     inkscape:showpageshadow="2"
     inkscape:pageopacity="0.0"
     inkscape:pagecheckerboard="0"
     inkscape:deskcolor="#d1d1d1" />
  <path
     id="ellipse1"
     style="baseline-shift:baseline;display:inline;overflow:visible;vector-effect:none;fill:url(#linearGradient2);stroke-linecap:round;stroke-linejoin:round;enable-background:accumulate;stop-color:#000000;stop-opacity:1;opacity:1;fill-opacity:1"
     d="M 92 24 C 73.647428 24 58.416624 37.441419 48.195312 56.314453 C 39.759249 71.891138 34.442543 91.858343 32.763672 113.87305 A 8 8 0 0 0 32.548828 117.86328 C 32.364563 121.24439 32 124.53205 32 128 C 32 145.37936 34.58582 161.53306 38.871094 175.99023 A 8 8 0 0 0 39.978516 179.74805 C 42.312384 186.88539 44.949627 193.69258 48.195312 199.68555 C 58.416622 218.55858 73.647428 232 92 232 L 232 232 A 8 8 0 0 0 240 224 A 8 8 0 0 0 232 216 L 196.40234 216 C 200.68256 211.31023 204.50505 205.78499 207.80469 199.69336 C 218.02649 180.82233 224 155.68062 224 128 C 224 100.31938 218.02649 75.177666 207.80469 56.306641 C 197.58288 37.435615 182.35035 24 164 24 L 92 24 z M 92 40 L 131.59766 40 C 127.31744 44.689767 123.49495 50.215013 120.19531 56.306641 C 113.93665 67.86111 109.27109 81.766457 106.59375 97.166016 L 84.650391 81.490234 A 8.0008 8.0008 0 0 0 80 80 A 8.0008 8.0008 0 0 0 75.349609 81.490234 L 50.517578 99.228516 C 52.971475 85.589332 57.085675 73.496406 62.263672 63.935547 C 70.862363 48.058581 81.632572 40 92 40 z M 164 40 C 174.36846 40 185.13589 48.053594 193.73438 63.927734 C 202.33288 79.801875 208 102.66129 208 128 C 208 153.33871 202.33286 176.19813 193.73438 192.07227 C 185.13587 207.94641 174.36846 216 164 216 C 153.63154 216 142.86413 207.94641 134.26562 192.07227 C 125.66713 176.19813 120 153.33871 120 128 C 120 102.66129 125.66713 79.801875 134.26562 63.927734 C 142.86413 48.053594 153.63154 40 164 40 z M 168 80 C 163.08866 80 158.87292 82.565255 155.95898 85.646484 C 153.04505 88.727714 150.96609 92.473447 149.25781 96.744141 C 145.84126 105.28553 144 116.0896 144 128 C 144 139.9104 145.84126 150.71447 149.25781 159.25586 C 150.96609 163.52655 153.04505 167.27229 155.95898 170.35352 C 158.87292 173.43474 163.08866 176 168 176 C 172.91134 176 177.12708 173.43474 180.04102 170.35352 C 182.95495 167.27229 185.03391 163.52655 186.74219 159.25586 C 190.15874 150.71447 192 139.9104 192 128 C 192 116.0896 190.15874 105.28553 186.74219 96.744141 C 185.03391 92.473447 182.95495 88.727714 180.04102 85.646484 C 177.12708 82.565255 172.91134 80 168 80 z M 168 96.253906 C 168.1212 96.357103 168.15752 96.367294 168.41602 96.640625 C 169.33051 97.607616 170.69957 99.719618 171.88672 102.6875 C 174.26102 108.62326 176 117.81901 176 128 C 176 138.18099 174.26102 147.37674 171.88672 153.3125 C 170.69957 156.28038 169.33051 158.39238 168.41602 159.35938 C 168.15752 159.63271 168.1212 159.6429 168 159.74609 C 167.8788 159.6429 167.84248 159.63272 167.58398 159.35938 C 166.66949 158.39238 165.30043 156.28038 164.11328 153.3125 C 161.73898 147.37674 160 138.18099 160 128 C 160 117.81901 161.73898 108.62326 164.11328 102.6875 C 165.30043 99.719618 166.66949 97.607616 167.58398 96.640625 C 167.84248 96.367294 167.8788 96.357103 168 96.253906 z M 80 97.832031 L 104.42773 115.2832 C 104.14521 119.45165 104 123.69468 104 128 C 104 139.71954 105.07141 150.98366 107.08203 161.50977 L 84.648438 145.49023 A 8.0008 8.0008 0 0 0 80 144 A 8.0008 8.0008 0 0 0 75.349609 145.49023 L 51.646484 162.42188 C 49.317038 151.86039 48 140.21705 48 128 C 48 125.49851 48.056185 123.02123 48.164062 120.57227 L 80 97.832031 z M 80 161.83008 L 113.98047 186.09766 L 113.98047 186.09961 C 115.82549 190.91816 117.90388 195.46301 120.19531 199.69336 C 123.49495 205.78499 127.31744 211.31023 131.59766 216 L 92 216 C 81.632572 216 70.862363 207.94142 62.263672 192.06445 C 60.086092 188.04368 58.096767 183.57545 56.339844 178.73242 L 80 161.83008 z " />
</svg>
