<?xml version="1.0" encoding="UTF-8" standalone="no"?>
<svg
   viewBox="0 0 256 256"
   version="1.1"
   id="svg2"
   sodipodi:docname="tote simple purple_coral.svg"
   xmlns:inkscape="http://www.inkscape.org/namespaces/inkscape"
   xmlns:sodipodi="http://sodipodi.sourceforge.net/DTD/sodipodi-0.dtd"
   xmlns:xlink="http://www.w3.org/1999/xlink"
   xmlns="http://www.w3.org/2000/svg"
   xmlns:svg="http://www.w3.org/2000/svg">
  <defs
     id="defs3">
    <linearGradient
       id="linearGradient1"
       inkscape:collect="always">
      <stop
         style="stop-color:#ff7c66;stop-opacity:1;"
         offset="0"
         id="stop1" />
      <stop
         style="stop-color:#a03291;stop-opacity:1;"
         offset="0.76340693"
         id="stop2" />
    </linearGradient>
    <linearGradient
       inkscape:collect="always"
       xlink:href="#linearGradient1"
       id="linearGradient2"
       x1="232.4884"
       y1="23.847498"
       x2="23.977745"
       y2="232.35815"
       gradientUnits="userSpaceOnUse" />
  </defs>
  <defs
     id="defs2" />
  <sodipodi:namedview
     id="namedview2"
     pagecolor="#ffffff"
     bordercolor="#000000"
     borderopacity="0.25"
     inkscape:showpageshadow="2"
     inkscape:pageopacity="0.0"
     inkscape:pagecheckerboard="0"
     inkscape:deskcolor="#d1d1d1" />
  <path
     id="path1"
     style="baseline-shift:baseline;display:inline;overflow:visible;vector-effect:none;fill:url(#linearGradient2);stroke-linecap:round;stroke-linejoin:round;enable-background:accumulate;stop-color:#000000;stop-opacity:1;opacity:1;fill-opacity:1"
     d="M 128 16 C 101.5851 16 80 37.585077 80 64 L 32.134766 64 C 22.654848 63.9357 15.032482 72.44354 16.134766 81.859375 A 8.0008 8.0008 0 0 0 16.136719 81.873047 L 30.386719 201.87305 A 8.0008 8.0008 0 0 0 30.390625 201.91211 C 31.378638 209.89532 38.285918 216.00103 46.330078 216 L 209.66992 216 C 217.71408 216.001 224.62132 209.89536 225.60938 201.91211 A 8.0008 8.0008 0 0 0 225.61328 201.87305 L 239.86328 81.873047 A 8.0008 8.0008 0 0 0 239.86523 81.859375 C 240.96738 72.443578 233.34515 63.935699 223.86523 64 L 176 64 C 176 37.585077 154.4149 16 128 16 z M 128 32 C 145.76788 32 160 46.232113 160 64 L 96 64 C 96 46.232113 110.23212 32 128 32 z M 32.025391 80 A 8.0008 8.0008 0 0 0 32.080078 80 L 88 80 L 168 80 L 223.91992 80 A 8.0008 8.0008 0 0 0 223.97461 80 L 209.73047 199.94727 C 209.72544 199.988 209.73181 200.00362 209.73242 200.00781 L 209.73047 200.00781 L 209.72852 200.00781 C 209.72238 200.00562 209.70705 200 209.67188 200 A 8.0008 8.0008 0 0 0 209.66992 200 L 46.330078 200 A 8.0008 8.0008 0 0 0 46.328125 200 C 46.292957 200 46.275665 200.00563 46.269531 200.00781 L 46.267578 200.00781 C 46.268188 200.00362 46.274571 199.98795 46.269531 199.94727 L 32.025391 80 z " />
</svg>
