<?xml version="1.0" encoding="UTF-8" standalone="no"?>
<svg
   viewBox="0 0 256 256"
   version="1.1"
   id="svg2"
   sodipodi:docname="traffic sign purple_coral.svg"
   xmlns:inkscape="http://www.inkscape.org/namespaces/inkscape"
   xmlns:sodipodi="http://sodipodi.sourceforge.net/DTD/sodipodi-0.dtd"
   xmlns:xlink="http://www.w3.org/1999/xlink"
   xmlns="http://www.w3.org/2000/svg"
   xmlns:svg="http://www.w3.org/2000/svg">
  <defs
     id="defs3">
    <linearGradient
       id="linearGradient1"
       inkscape:collect="always">
      <stop
         style="stop-color:#ff7c66;stop-opacity:1;"
         offset="0"
         id="stop1" />
      <stop
         style="stop-color:#a03291;stop-opacity:1;"
         offset="0.76340693"
         id="stop2" />
    </linearGradient>
    <linearGradient
       inkscape:collect="always"
       xlink:href="#linearGradient1"
       id="linearGradient2"
       x1="232.4884"
       y1="23.847498"
       x2="23.977745"
       y2="232.35815"
       gradientUnits="userSpaceOnUse" />
  </defs>
  <defs
     id="defs2" />
  <sodipodi:namedview
     id="namedview2"
     pagecolor="#ffffff"
     bordercolor="#000000"
     borderopacity="0.25"
     inkscape:showpageshadow="2"
     inkscape:pageopacity="0.0"
     inkscape:pagecheckerboard="0"
     inkscape:deskcolor="#d1d1d1" />
  <path
     id="path1"
     style="baseline-shift:baseline;display:inline;overflow:visible;vector-effect:none;fill:url(#linearGradient2);stroke-linecap:round;stroke-linejoin:round;enable-background:accumulate;stop-color:#000000;stop-opacity:1;opacity:1;fill-opacity:1"
     d="M 128.00781 8.0546875 C 123.75045 8.0550335 119.49152 9.6529975 116.29688 12.847656 L 12.853516 116.29102 C 6.4641959 122.68033 6.4641959 133.31967 12.853516 139.70898 L 116.29688 243.15234 C 122.68618 249.54166 133.32748 249.54362 139.7168 243.1543 L 243.16016 139.71094 C 249.54947 133.32162 249.54947 122.67838 243.16016 116.28906 L 139.7168 12.845703 C 136.52214 9.6510436 132.26518 8.0543415 128.00781 8.0546875 z M 128.00781 23.921875 C 128.12588 23.922159 128.24436 24.002166 128.40234 24.160156 L 231.8457 127.60352 C 232.16293 127.92074 232.16293 128.07926 231.8457 128.39648 L 128.40234 231.83984 C 128.08512 232.15706 127.92855 232.15511 127.61133 231.83789 L 24.167969 128.39453 C 23.850748 128.07731 23.850748 127.92269 24.167969 127.60547 L 127.61133 24.162109 C 127.76003 24.013411 127.87309 23.933444 127.98438 23.923828 C 127.99226 23.923147 127.99994 23.921856 128.00781 23.921875 z M 144 88 A 8 8 0 0 0 138.34375 90.34375 A 8 8 0 0 0 138.34375 101.65625 L 148.6875 112 L 112 112 C 94.421645 112 80 126.42165 80 144 L 80 152 A 8 8 0 0 0 88 160 A 8 8 0 0 0 96 152 L 96 144 C 96 135.06869 103.06869 128 112 128 L 148.6875 128 L 138.34375 138.34375 A 8 8 0 0 0 138.34375 149.65625 A 8 8 0 0 0 149.65625 149.65625 L 173.57422 125.73828 L 173.65625 125.65625 A 8.0008 8.0008 0 0 0 173.9375 125.33594 A 8 8 0 0 0 174.32227 124.89648 A 8.0008 8.0008 0 0 0 174.60938 124.47461 A 8 8 0 0 0 174.9043 124.0332 A 8.0008 8.0008 0 0 0 175.14648 123.55469 A 8 8 0 0 0 175.38281 123.07812 A 8.0008 8.0008 0 0 0 175.54688 122.60156 A 8 8 0 0 0 175.7207 122.08594 A 8.0008 8.0008 0 0 0 175.79883 121.70703 A 8 8 0 0 0 176 120 A 8 8 0 0 0 175.79883 118.29297 A 8.0008 8.0008 0 0 0 175.7207 117.91406 A 8 8 0 0 0 175.54688 117.39844 A 8.0008 8.0008 0 0 0 175.38281 116.92188 A 8 8 0 0 0 175.14648 116.44531 A 8.0008 8.0008 0 0 0 174.9043 115.9668 A 8 8 0 0 0 174.60938 115.52539 A 8.0008 8.0008 0 0 0 174.32227 115.10352 A 8 8 0 0 0 173.9375 114.66406 A 8.0008 8.0008 0 0 0 173.65625 114.34375 L 173.57422 114.26172 L 149.65625 90.34375 A 8 8 0 0 0 144 88 z " />
</svg>
