<?xml version="1.0" encoding="UTF-8" standalone="no"?>
<svg
   viewBox="0 0 256 256"
   version="1.1"
   id="svg2"
   sodipodi:docname="tray arrow down purple_coral.svg"
   xmlns:inkscape="http://www.inkscape.org/namespaces/inkscape"
   xmlns:sodipodi="http://sodipodi.sourceforge.net/DTD/sodipodi-0.dtd"
   xmlns:xlink="http://www.w3.org/1999/xlink"
   xmlns="http://www.w3.org/2000/svg"
   xmlns:svg="http://www.w3.org/2000/svg">
  <defs
     id="defs3">
    <linearGradient
       id="linearGradient1"
       inkscape:collect="always">
      <stop
         style="stop-color:#ff7c66;stop-opacity:1;"
         offset="0"
         id="stop1" />
      <stop
         style="stop-color:#a03291;stop-opacity:1;"
         offset="0.76340693"
         id="stop2" />
    </linearGradient>
    <linearGradient
       inkscape:collect="always"
       xlink:href="#linearGradient1"
       id="linearGradient2"
       x1="232.4884"
       y1="23.847498"
       x2="23.977745"
       y2="232.35815"
       gradientUnits="userSpaceOnUse" />
  </defs>
  <defs
     id="defs2" />
  <sodipodi:namedview
     id="namedview2"
     pagecolor="#ffffff"
     bordercolor="#000000"
     borderopacity="0.25"
     inkscape:showpageshadow="2"
     inkscape:pageopacity="0.0"
     inkscape:pagecheckerboard="0"
     inkscape:deskcolor="#d1d1d1" />
  <path
     id="rect2"
     style="baseline-shift:baseline;display:inline;overflow:visible;vector-effect:none;fill:url(#linearGradient2);stroke-linecap:round;stroke-linejoin:round;enable-background:accumulate;stop-color:#000000;stop-opacity:1;opacity:1;fill-opacity:1"
     d="M 48 32 C 39.274378 32 32 39.274378 32 48 L 32 208 C 32 216.72562 39.274378 224 48 224 L 208 224 C 216.72562 224 224 216.72562 224 208 L 224 48 C 224 39.274378 216.72562 32 208 32 L 48 32 z M 48 48 L 208 48 L 208 152 L 179.31055 152 A 8.0008 8.0008 0 0 0 179.30664 152 C 175.07188 152.002 171.00195 153.68693 168.00586 156.67969 A 8.0008 8.0008 0 0 0 168.00391 156.68359 L 148.68555 176 L 107.31445 176 L 107.31055 176 L 87.996094 156.68359 A 8.0008 8.0008 0 0 0 87.994141 156.67969 C 84.998097 153.68703 80.928117 152.00196 76.693359 152 A 8.0008 8.0008 0 0 0 76.689453 152 L 48 152 L 48 48 z M 128 64 A 8 8 0 0 0 120 72 L 120 132.6875 L 101.65625 114.34375 A 8 8 0 0 0 96 112 A 8 8 0 0 0 90.34375 114.34375 A 8 8 0 0 0 90.34375 125.65625 L 122.26172 157.57422 L 122.34375 157.65625 A 8.0008 8.0008 0 0 0 122.66406 157.9375 A 8 8 0 0 0 123.10352 158.32227 A 8.0008 8.0008 0 0 0 123.52539 158.60938 A 8 8 0 0 0 123.9668 158.9043 A 8.0008 8.0008 0 0 0 124.44531 159.14648 A 8 8 0 0 0 124.92188 159.38281 A 8.0008 8.0008 0 0 0 125.39844 159.54688 A 8 8 0 0 0 125.91406 159.7207 A 8.0008 8.0008 0 0 0 126.29297 159.79883 A 8 8 0 0 0 128 160 A 8 8 0 0 0 129.70703 159.79883 A 8.0008 8.0008 0 0 0 130.08594 159.7207 A 8 8 0 0 0 130.60156 159.54688 A 8.0008 8.0008 0 0 0 131.07812 159.38281 A 8 8 0 0 0 131.55469 159.14648 A 8.0008 8.0008 0 0 0 132.0332 158.9043 A 8 8 0 0 0 132.47461 158.60938 A 8.0008 8.0008 0 0 0 132.89648 158.32227 A 8 8 0 0 0 133.33594 157.9375 A 8.0008 8.0008 0 0 0 133.65625 157.65625 L 133.73828 157.57422 L 165.65625 125.65625 A 8 8 0 0 0 165.65625 114.34375 A 8 8 0 0 0 154.34375 114.34375 L 136 132.6875 L 136 72 A 8 8 0 0 0 128 64 z M 48 168 L 76.685547 168 L 76.689453 168 L 96.003906 187.31641 A 8.0008 8.0008 0 0 0 96.005859 187.32031 C 99.00195 190.31307 103.07188 191.99804 107.30664 192 A 8.0008 8.0008 0 0 0 107.31055 192 L 148.68945 192 A 8.0008 8.0008 0 0 0 148.69336 192 C 152.92812 191.998 156.99805 190.31307 159.99414 187.32031 A 8.0008 8.0008 0 0 0 159.99609 187.31641 L 179.31055 168 L 179.31445 168 L 208 168 L 208 208 L 48 208 L 48 168 z " />
</svg>
