<?xml version="1.0" encoding="UTF-8" standalone="no"?>
<svg
   viewBox="0 0 256 256"
   version="1.1"
   id="svg4"
   sodipodi:docname="treasure chest purple_coral.svg"
   xmlns:inkscape="http://www.inkscape.org/namespaces/inkscape"
   xmlns:sodipodi="http://sodipodi.sourceforge.net/DTD/sodipodi-0.dtd"
   xmlns:xlink="http://www.w3.org/1999/xlink"
   xmlns="http://www.w3.org/2000/svg"
   xmlns:svg="http://www.w3.org/2000/svg">
  <defs
     id="defs3">
    <linearGradient
       id="linearGradient1"
       inkscape:collect="always">
      <stop
         style="stop-color:#ff7c66;stop-opacity:1;"
         offset="0"
         id="stop1" />
      <stop
         style="stop-color:#a03291;stop-opacity:1;"
         offset="0.76340693"
         id="stop2" />
    </linearGradient>
    <linearGradient
       inkscape:collect="always"
       xlink:href="#linearGradient1"
       id="linearGradient2"
       x1="232.4884"
       y1="23.847498"
       x2="23.977745"
       y2="232.35815"
       gradientUnits="userSpaceOnUse" />
  </defs>
  <defs
     id="defs4" />
  <sodipodi:namedview
     id="namedview4"
     pagecolor="#ffffff"
     bordercolor="#000000"
     borderopacity="0.25"
     inkscape:showpageshadow="2"
     inkscape:pageopacity="0.0"
     inkscape:pagecheckerboard="0"
     inkscape:deskcolor="#d1d1d1" />
  <path
     id="path1"
     style="baseline-shift:baseline;display:inline;overflow:visible;vector-effect:none;fill:url(#linearGradient2);stroke-linecap:round;stroke-linejoin:round;enable-background:accumulate;stop-color:#000000;stop-opacity:1;opacity:1;fill-opacity:1"
     d="M 72 40 C 41.166811 40 16 65.166811 16 96 L 16 192 C 16 200.7418 23.258201 208 32 208 L 184 208 L 224 208 C 232.7418 208 240 200.7418 240 192 L 240 96 C 240 65.166811 214.83319 40 184 40 L 72 40 z M 80 56 L 176 56 L 176 104 L 152 104 L 152 96 A 8.0008 8.0008 0 0 0 144 88 L 112 88 A 8.0008 8.0008 0 0 0 104 96 L 104 104 L 80 104 L 80 56 z M 64 56.791016 L 64 104 L 32 104 L 32 96 C 32 76.555758 45.682837 60.470022 64 56.791016 z M 192 56.791016 C 210.31717 60.470022 224 76.555757 224 96 L 224 104 L 192 104 L 192 56.791016 z M 120 104 L 136 104 L 136 136 L 120 136 L 120 104 z M 32 120 L 64 120 L 64 192 L 32 192 L 32 120 z M 80 120 L 104 120 L 104 144 A 8.0008 8.0008 0 0 0 112 152 L 144 152 A 8.0008 8.0008 0 0 0 152 144 L 152 120 L 176 120 L 176 192 L 80 192 L 80 120 z M 192 120 L 224 120 L 224 192 L 192 192 L 192 120 z " />
</svg>
