<?xml version="1.0" encoding="UTF-8" standalone="no"?>
<svg
   viewBox="0 0 256 256"
   version="1.1"
   id="svg4"
   sodipodi:docname="tree structure purple_coral.svg"
   xmlns:inkscape="http://www.inkscape.org/namespaces/inkscape"
   xmlns:sodipodi="http://sodipodi.sourceforge.net/DTD/sodipodi-0.dtd"
   xmlns:xlink="http://www.w3.org/1999/xlink"
   xmlns="http://www.w3.org/2000/svg"
   xmlns:svg="http://www.w3.org/2000/svg">
  <defs
     id="defs3">
    <linearGradient
       id="linearGradient1"
       inkscape:collect="always">
      <stop
         style="stop-color:#ff7c66;stop-opacity:1;"
         offset="0"
         id="stop1" />
      <stop
         style="stop-color:#a03291;stop-opacity:1;"
         offset="0.76340693"
         id="stop2" />
    </linearGradient>
    <linearGradient
       inkscape:collect="always"
       xlink:href="#linearGradient1"
       id="linearGradient2"
       x1="232.4884"
       y1="23.847498"
       x2="23.977745"
       y2="232.35815"
       gradientUnits="userSpaceOnUse" />
  </defs>
  <defs
     id="defs4" />
  <sodipodi:namedview
     id="namedview4"
     pagecolor="#ffffff"
     bordercolor="#000000"
     borderopacity="0.25"
     inkscape:showpageshadow="2"
     inkscape:pageopacity="0.0"
     inkscape:pagecheckerboard="0"
     inkscape:deskcolor="#d1d1d1" />
  <path
     id="rect2"
     style="baseline-shift:baseline;display:inline;overflow:visible;vector-effect:none;fill:url(#linearGradient2);stroke-linecap:round;stroke-linejoin:round;enable-background:accumulate;stop-color:#000000;stop-opacity:1;opacity:1;fill-opacity:1"
     d="M 160 32 C 151.27438 32 144 39.274378 144 48 L 144 64 L 128 64 C 114.83992 64 104 74.839923 104 88 L 104 120 L 72 120 L 72 112 C 72 103.27438 64.725622 96 56 96 L 24 96 C 15.274378 96 8 103.27438 8 112 L 8 144 C 8 152.72562 15.274378 160 24 160 L 56 160 C 64.725622 160 72 152.72562 72 144 L 72 136 L 104 136 L 104 168 C 104 181.16008 114.83992 192 128 192 L 144 192 L 144 208 C 144 216.72562 151.27438 224 160 224 L 208 224 C 216.72562 224 224 216.72562 224 208 L 224 160 C 224 151.27438 216.72562 144 208 144 L 160 144 C 151.27438 144 144 151.27438 144 160 L 144 176 L 128 176 C 123.48696 176 120 172.51304 120 168 L 120 128 L 120 88 C 120 83.486965 123.48696 80 128 80 L 144 80 L 144 96 C 144 104.72562 151.27438 112 160 112 L 208 112 C 216.72562 112 224 104.72562 224 96 L 224 48 C 224 39.274378 216.72562 32 208 32 L 160 32 z M 160 48 L 208 48 L 208 96 L 160 96 L 160 72 L 160 48 z M 24 112 L 56 112 L 56 144 L 24 144 L 24 112 z M 160 160 L 208 160 L 208 208 L 160 208 L 160 184 L 160 160 z " />
</svg>
