<?xml version="1.0" encoding="UTF-8" standalone="no"?>
<svg
   viewBox="0 0 256 256"
   version="1.1"
   id="svg2"
   sodipodi:docname="twitch logo purple_coral.svg"
   xmlns:inkscape="http://www.inkscape.org/namespaces/inkscape"
   xmlns:sodipodi="http://sodipodi.sourceforge.net/DTD/sodipodi-0.dtd"
   xmlns:xlink="http://www.w3.org/1999/xlink"
   xmlns="http://www.w3.org/2000/svg"
   xmlns:svg="http://www.w3.org/2000/svg">
  <defs
     id="defs3">
    <linearGradient
       id="linearGradient1"
       inkscape:collect="always">
      <stop
         style="stop-color:#ff7c66;stop-opacity:1;"
         offset="0"
         id="stop1" />
      <stop
         style="stop-color:#a03291;stop-opacity:1;"
         offset="0.76340693"
         id="stop2" />
    </linearGradient>
    <linearGradient
       inkscape:collect="always"
       xlink:href="#linearGradient1"
       id="linearGradient2"
       x1="232.4884"
       y1="23.847498"
       x2="23.977745"
       y2="232.35815"
       gradientUnits="userSpaceOnUse" />
  </defs>
  <defs
     id="defs2" />
  <sodipodi:namedview
     id="namedview2"
     pagecolor="#ffffff"
     bordercolor="#000000"
     borderopacity="0.25"
     inkscape:showpageshadow="2"
     inkscape:pageopacity="0.0"
     inkscape:pagecheckerboard="0"
     inkscape:deskcolor="#d1d1d1" />
  <path
     id="path1"
     style="baseline-shift:baseline;display:inline;overflow:visible;vector-effect:none;fill:url(#linearGradient2);stroke-linecap:round;stroke-linejoin:round;enable-background:accumulate;stop-color:#000000;stop-opacity:1;opacity:1;fill-opacity:1"
     d="M 48 32 C 39.258201 32 32 39.258201 32 48 L 32 192 C 32 200.7418 39.258201 208 48 208 L 64 208 L 64 240 A 8.0008 8.0008 0 0 0 77.121094 246.14648 L 122.89648 208 L 165.09961 208 A 8.0008 8.0008 0 0 0 165.10352 208 C 168.83657 207.998 172.45688 206.69156 175.33203 204.31055 A 8.0008 8.0008 0 0 0 175.35156 204.29492 L 218.24023 168.54688 L 218.24219 168.54492 C 221.88805 165.50711 224.00178 160.99177 224 156.24609 L 224 48 C 224 39.258201 216.7418 32 208 32 L 48 32 z M 48 48 L 208 48 L 208 156.25 A 8.0008 8.0008 0 0 0 208 156.25391 A 8.0008 8.0008 0 0 0 207.99805 156.25391 L 165.12695 191.98828 L 165.125 191.98828 C 165.116 191.99528 165.1082 192 165.0957 192 L 120 192 A 8.0008 8.0008 0 0 0 114.87891 193.85352 L 80 222.91992 L 80 200 A 8.0008 8.0008 0 0 0 72 192 L 48 192 L 48 48 z M 120 80 A 8 8 0 0 0 112 88 L 112 136 A 8 8 0 0 0 120 144 A 8 8 0 0 0 128 136 L 128 88 A 8 8 0 0 0 120 80 z M 168 80 A 8 8 0 0 0 160 88 L 160 136 A 8 8 0 0 0 168 144 A 8 8 0 0 0 176 136 L 176 88 A 8 8 0 0 0 168 80 z " />
</svg>
