<?xml version="1.0" encoding="UTF-8" standalone="no"?>
<svg
   viewBox="0 0 256 256"
   version="1.1"
   id="svg2"
   sodipodi:docname="user square purple_coral.svg"
   xmlns:inkscape="http://www.inkscape.org/namespaces/inkscape"
   xmlns:sodipodi="http://sodipodi.sourceforge.net/DTD/sodipodi-0.dtd"
   xmlns:xlink="http://www.w3.org/1999/xlink"
   xmlns="http://www.w3.org/2000/svg"
   xmlns:svg="http://www.w3.org/2000/svg">
  <defs
     id="defs3">
    <linearGradient
       id="linearGradient1"
       inkscape:collect="always">
      <stop
         style="stop-color:#ff7c66;stop-opacity:1;"
         offset="0"
         id="stop1" />
      <stop
         style="stop-color:#a03291;stop-opacity:1;"
         offset="0.76340693"
         id="stop2" />
    </linearGradient>
    <linearGradient
       inkscape:collect="always"
       xlink:href="#linearGradient1"
       id="linearGradient2"
       x1="232.4884"
       y1="23.847498"
       x2="23.977745"
       y2="232.35815"
       gradientUnits="userSpaceOnUse" />
  </defs>
  <defs
     id="defs2" />
  <sodipodi:namedview
     id="namedview2"
     pagecolor="#ffffff"
     bordercolor="#000000"
     borderopacity="0.25"
     inkscape:showpageshadow="2"
     inkscape:pageopacity="0.0"
     inkscape:pagecheckerboard="0"
     inkscape:deskcolor="#d1d1d1" />
  <path
     id="circle1"
     style="baseline-shift:baseline;display:inline;overflow:visible;vector-effect:none;fill:url(#linearGradient2);stroke-linecap:round;stroke-linejoin:round;enable-background:accumulate;stop-color:#000000;stop-opacity:1;opacity:1;fill-opacity:1"
     d="M 48 32 C 39.274378 32 32 39.274378 32 48 L 32 208 C 32 216.72562 39.274378 224 48 224 L 57.689453 224 L 57.871094 224 L 198.12891 224 L 198.31055 224 L 208 224 C 216.72562 224 224 216.72562 224 208 L 224 48 C 224 39.274378 216.72562 32 208 32 L 48 32 z M 48 48 L 208 48 L 208 208 L 204.34375 208 C 197.05905 184.71883 179.64183 166.43451 157.71289 157.63867 C 168.83641 148.83062 176 135.21713 176 120 C 176 93.585089 154.41491 72 128 72 C 101.58509 72 80 93.585089 80 120 C 80 135.21713 87.163587 148.83062 98.287109 157.63867 C 76.358167 166.43451 58.940953 184.71883 51.65625 208 L 48 208 L 48 48 z M 128 88 C 145.76787 88 160 102.23213 160 120 C 160 137.07826 146.8517 150.88915 130.05273 151.93555 C 129.37039 151.91815 128.68576 151.91016 128 151.91016 C 127.31424 151.91016 126.62961 151.91815 125.94727 151.93555 C 109.1483 150.88915 96 137.07826 96 120 C 96 102.23213 110.23213 88 128 88 z M 125.76953 167.94922 C 126.50921 167.98344 127.2522 168 128 168 C 128.7478 168 129.49079 167.98344 130.23047 167.94922 C 155.78097 168.82786 178.03817 184.74021 187.375 208 L 68.625 208 C 77.961831 184.74022 100.21903 168.82786 125.76953 167.94922 z " />
</svg>
