<?xml version="1.0" encoding="UTF-8" standalone="no"?>
<svg
   viewBox="0 0 256 256"
   version="1.1"
   id="svg2"
   sodipodi:docname="video purple_coral.svg"
   xmlns:inkscape="http://www.inkscape.org/namespaces/inkscape"
   xmlns:sodipodi="http://sodipodi.sourceforge.net/DTD/sodipodi-0.dtd"
   xmlns:xlink="http://www.w3.org/1999/xlink"
   xmlns="http://www.w3.org/2000/svg"
   xmlns:svg="http://www.w3.org/2000/svg">
  <defs
     id="defs3">
    <linearGradient
       id="linearGradient1"
       inkscape:collect="always">
      <stop
         style="stop-color:#ff7c66;stop-opacity:1;"
         offset="0"
         id="stop1" />
      <stop
         style="stop-color:#a03291;stop-opacity:1;"
         offset="0.76340693"
         id="stop2" />
    </linearGradient>
    <linearGradient
       inkscape:collect="always"
       xlink:href="#linearGradient1"
       id="linearGradient2"
       x1="232.4884"
       y1="23.847498"
       x2="23.977745"
       y2="232.35815"
       gradientUnits="userSpaceOnUse" />
  </defs>
  <defs
     id="defs2" />
  <sodipodi:namedview
     id="namedview2"
     pagecolor="#ffffff"
     bordercolor="#000000"
     borderopacity="0.25"
     inkscape:showpageshadow="2"
     inkscape:pageopacity="0.0"
     inkscape:pagecheckerboard="0"
     inkscape:deskcolor="#d1d1d1" />
  <path
     id="polygon1"
     style="baseline-shift:baseline;display:inline;overflow:visible;vector-effect:none;fill:url(#linearGradient2);stroke-linecap:round;stroke-linejoin:round;enable-background:accumulate;stop-color:#000000;stop-opacity:1;opacity:1;fill-opacity:1"
     d="M 40 40 C 31.274378 40 24 47.274378 24 56 L 24 168 C 24 176.72562 31.274378 184 40 184 L 216 184 C 224.72562 184 232 176.72562 232 168 L 232 56 C 232 47.274378 224.72562 40 216 40 L 40 40 z M 40 56 L 216 56 L 216 168 L 40 168 L 40 56 z M 111.9082 72.001953 A 8.0008 8.0008 0 0 0 110.95117 72.070312 A 8.0008 8.0008 0 0 0 104 80 L 104 144 A 8.0008 8.0008 0 0 0 116.4375 150.65625 L 164.4375 118.65625 A 8.0008 8.0008 0 0 0 164.4375 105.34375 L 116.4375 73.34375 A 8.0008 8.0008 0 0 0 111.9082 72.001953 z M 120 94.947266 L 145.57812 112 L 120 129.05273 L 120 94.947266 z M 32 200 A 8 8 0 0 0 24 208 A 8 8 0 0 0 32 216 L 224 216 A 8 8 0 0 0 232 208 A 8 8 0 0 0 224 200 L 32 200 z " />
</svg>
