<?xml version="1.0" encoding="UTF-8" standalone="no"?>
<svg
   viewBox="0 0 256 256"
   version="1.1"
   id="svg1"
   sodipodi:docname="wallet purple_coral.svg"
   xmlns:inkscape="http://www.inkscape.org/namespaces/inkscape"
   xmlns:sodipodi="http://sodipodi.sourceforge.net/DTD/sodipodi-0.dtd"
   xmlns:xlink="http://www.w3.org/1999/xlink"
   xmlns="http://www.w3.org/2000/svg"
   xmlns:svg="http://www.w3.org/2000/svg">
  <defs
     id="defs3">
    <linearGradient
       id="linearGradient1"
       inkscape:collect="always">
      <stop
         style="stop-color:#ff7c66;stop-opacity:1;"
         offset="0"
         id="stop1" />
      <stop
         style="stop-color:#a03291;stop-opacity:1;"
         offset="0.76340693"
         id="stop2" />
    </linearGradient>
    <linearGradient
       inkscape:collect="always"
       xlink:href="#linearGradient1"
       id="linearGradient2"
       x1="232.4884"
       y1="23.847498"
       x2="23.977745"
       y2="232.35815"
       gradientUnits="userSpaceOnUse" />
  </defs>
  <defs
     id="defs1" />
  <sodipodi:namedview
     id="namedview1"
     pagecolor="#ffffff"
     bordercolor="#000000"
     borderopacity="0.25"
     inkscape:showpageshadow="2"
     inkscape:pageopacity="0.0"
     inkscape:pagecheckerboard="0"
     inkscape:deskcolor="#d1d1d1" />
  <path
     id="path1"
     style="baseline-shift:baseline;display:inline;overflow:visible;vector-effect:none;fill:url(#linearGradient2);stroke-linecap:round;stroke-linejoin:round;enable-background:accumulate;stop-color:#000000;stop-opacity:1;opacity:1;fill-opacity:1"
     d="M 56 32 C 42.839923 32 32 42.839923 32 56 L 32 184 C 32 197.16008 42.839923 208 56 208 L 216 208 C 224.7418 208 232 200.7418 232 192 L 232 80 C 232 71.258201 224.7418 64 216 64 L 56 64 C 51.486965 64 48 60.513035 48 56 C 48 51.486965 51.486965 48 56 48 L 192 48 A 8 8 0 0 0 200 40 A 8 8 0 0 0 192 32 L 56 32 z M 48 78.509766 C 50.51772 79.417068 53.187074 80 56 80 L 216 80 L 216 192 L 56 192 C 51.486965 192 48 188.51304 48 184 L 48 78.509766 z M 180 120 A 12 12 0 0 0 168 132 A 12 12 0 0 0 180 144 A 12 12 0 0 0 192 132 A 12 12 0 0 0 180 120 z " />
</svg>
