<?xml version="1.0" encoding="UTF-8" standalone="no"?>
<svg
   viewBox="0 0 256 256"
   version="1.1"
   id="svg2"
   sodipodi:docname="warning diamond purple_coral.svg"
   xmlns:inkscape="http://www.inkscape.org/namespaces/inkscape"
   xmlns:sodipodi="http://sodipodi.sourceforge.net/DTD/sodipodi-0.dtd"
   xmlns:xlink="http://www.w3.org/1999/xlink"
   xmlns="http://www.w3.org/2000/svg"
   xmlns:svg="http://www.w3.org/2000/svg">
  <defs
     id="defs3">
    <linearGradient
       id="linearGradient1"
       inkscape:collect="always">
      <stop
         style="stop-color:#ff7c66;stop-opacity:1;"
         offset="0"
         id="stop1" />
      <stop
         style="stop-color:#a03291;stop-opacity:1;"
         offset="0.76340693"
         id="stop2" />
    </linearGradient>
    <linearGradient
       inkscape:collect="always"
       xlink:href="#linearGradient1"
       id="linearGradient2"
       x1="232.4884"
       y1="23.847498"
       x2="23.977745"
       y2="232.35815"
       gradientUnits="userSpaceOnUse" />
  </defs>
  <defs
     id="defs2" />
  <sodipodi:namedview
     id="namedview2"
     pagecolor="#ffffff"
     bordercolor="#000000"
     borderopacity="0.25"
     inkscape:showpageshadow="2"
     inkscape:pageopacity="0.0"
     inkscape:pagecheckerboard="0"
     inkscape:deskcolor="#d1d1d1" />
  <path
     id="line1"
     style="baseline-shift:baseline;display:inline;overflow:visible;vector-effect:none;fill:url(#linearGradient2);stroke-linecap:round;stroke-linejoin:round;enable-background:accumulate;stop-color:#000000;stop-opacity:1;opacity:1;fill-opacity:1"
     d="M 127.99219 16.0625 C 123.89088 16.062499 119.79002 17.600602 116.71484 20.675781 L 20.667969 116.72266 C 14.517609 122.87302 14.517609 133.12698 20.667969 139.27734 L 116.71484 235.32422 C 122.8652 241.47458 133.11918 241.47459 139.26953 235.32422 L 235.31641 139.27734 C 241.46676 133.12699 241.46676 122.87301 235.31641 116.72266 L 139.26953 20.675781 C 136.19435 17.600601 132.0935 16.062501 127.99219 16.0625 z M 127.99219 32.025391 L 223.9668 128 L 127.99219 223.97461 L 32.017578 128 L 127.99219 32.025391 z M 128 72 A 8 8 0 0 0 120 80 L 120 136 A 8 8 0 0 0 128 144 A 8 8 0 0 0 136 136 L 136 80 A 8 8 0 0 0 128 72 z M 128 160 A 12 12 0 0 0 116 172 A 12 12 0 0 0 128 184 A 12 12 0 0 0 140 172 A 12 12 0 0 0 128 160 z " />
</svg>
