<?xml version="1.0" encoding="UTF-8" standalone="no"?>
<svg
   viewBox="0 0 256 256"
   version="1.1"
   id="svg2"
   sodipodi:docname="wheelchair motion purple_coral.svg"
   xmlns:inkscape="http://www.inkscape.org/namespaces/inkscape"
   xmlns:sodipodi="http://sodipodi.sourceforge.net/DTD/sodipodi-0.dtd"
   xmlns:xlink="http://www.w3.org/1999/xlink"
   xmlns="http://www.w3.org/2000/svg"
   xmlns:svg="http://www.w3.org/2000/svg">
  <defs
     id="defs3">
    <linearGradient
       id="linearGradient1"
       inkscape:collect="always">
      <stop
         style="stop-color:#ff7c66;stop-opacity:1;"
         offset="0"
         id="stop1" />
      <stop
         style="stop-color:#a03291;stop-opacity:1;"
         offset="0.76340693"
         id="stop2" />
    </linearGradient>
    <linearGradient
       inkscape:collect="always"
       xlink:href="#linearGradient1"
       id="linearGradient2"
       x1="232.4884"
       y1="23.847498"
       x2="23.977745"
       y2="232.35815"
       gradientUnits="userSpaceOnUse" />
  </defs>
  <defs
     id="defs2" />
  <sodipodi:namedview
     id="namedview2"
     pagecolor="#ffffff"
     bordercolor="#000000"
     borderopacity="0.25"
     inkscape:showpageshadow="2"
     inkscape:pageopacity="0.0"
     inkscape:pagecheckerboard="0"
     inkscape:deskcolor="#d1d1d1" />
  <path
     id="circle1"
     style="baseline-shift:baseline;display:inline;overflow:visible;vector-effect:none;fill:url(#linearGradient2);stroke-linecap:round;stroke-linejoin:round;enable-background:accumulate;stop-color:#000000;stop-opacity:1;opacity:1;fill-opacity:1"
     d="M 176 16 C 158.42165 16 144 30.421645 144 48 C 144 65.578355 158.42165 80 176 80 C 193.57835 80 208 65.578355 208 48 C 208 30.421645 193.57835 16 176 16 z M 176 32 C 184.93131 32 192 39.068687 192 48 C 192 56.931313 184.93131 64 176 64 C 167.06869 64 160 56.931313 160 48 C 160 39.068687 167.06869 32 176 32 z M 106.07031 72.025391 C 83.603328 71.548637 61.093875 78.935241 42.908203 93.939453 A 8 8 0 0 0 41.830078 105.20117 A 8 8 0 0 0 53.091797 106.28125 C 78.118464 85.632827 112.80137 82.306757 141.09766 97.144531 L 121.0625 132.01367 A 8.0008 8.0008 0 0 0 128 144 L 190.24219 144 L 176.15625 214.43164 A 8 8 0 0 0 182.43164 223.84375 A 8 8 0 0 0 191.84375 217.56836 L 207.84375 137.56836 A 8.0008 8.0008 0 0 0 200 128 L 141.82422 128 L 158.9375 98.214844 A 8.0008 8.0008 0 0 0 156.36328 87.525391 C 140.99361 77.524128 123.54464 72.396199 106.07031 72.025391 z M 104 104 C 78.137395 104 54.767809 119.6141 44.871094 143.50781 C 34.974393 167.40148 40.460772 194.96468 58.748047 213.25195 C 77.035321 231.53923 104.59852 237.02561 128.49219 227.12891 C 152.3859 217.23219 168 193.86261 168 168 A 8 8 0 0 0 160 160 A 8 8 0 0 0 152 168 C 152 187.43712 140.32617 204.90795 122.36914 212.3457 C 104.41216 219.78344 83.804876 215.68378 70.060547 201.93945 C 56.316218 188.19512 52.21656 167.58784 59.654297 149.63086 C 67.092054 131.67383 84.562882 120 104 120 A 8 8 0 0 0 112 112 A 8 8 0 0 0 104 104 z " />
</svg>
