<?xml version="1.0" encoding="UTF-8" standalone="no"?>
<svg
   viewBox="0 0 256 256"
   version="1.1"
   id="svg1"
   sodipodi:docname="wheelchair purple_coral.svg"
   xmlns:inkscape="http://www.inkscape.org/namespaces/inkscape"
   xmlns:sodipodi="http://sodipodi.sourceforge.net/DTD/sodipodi-0.dtd"
   xmlns:xlink="http://www.w3.org/1999/xlink"
   xmlns="http://www.w3.org/2000/svg"
   xmlns:svg="http://www.w3.org/2000/svg">
  <defs
     id="defs3">
    <linearGradient
       id="linearGradient1"
       inkscape:collect="always">
      <stop
         style="stop-color:#ff7c66;stop-opacity:1;"
         offset="0"
         id="stop1" />
      <stop
         style="stop-color:#a03291;stop-opacity:1;"
         offset="0.76340693"
         id="stop2" />
    </linearGradient>
    <linearGradient
       inkscape:collect="always"
       xlink:href="#linearGradient1"
       id="linearGradient2"
       x1="232.4884"
       y1="23.847498"
       x2="23.977745"
       y2="232.35815"
       gradientUnits="userSpaceOnUse" />
  </defs>
  <defs
     id="defs1" />
  <sodipodi:namedview
     id="namedview1"
     pagecolor="#ffffff"
     bordercolor="#000000"
     borderopacity="0.25"
     inkscape:showpageshadow="2"
     inkscape:pageopacity="0.0"
     inkscape:pagecheckerboard="0"
     inkscape:deskcolor="#d1d1d1" />
  <path
     id="polyline1"
     style="baseline-shift:baseline;display:inline;overflow:visible;vector-effect:none;fill:url(#linearGradient2);stroke-linecap:round;stroke-linejoin:round;enable-background:accumulate;stop-color:#000000;stop-opacity:1;opacity:1;fill-opacity:1"
     d="M 104 16 C 86.421645 16 72 30.421645 72 48 C 72 62.819409 82.249911 75.395984 96 78.978516 L 96 89.794922 C 63.991941 97.099295 40 125.82664 40 160 C 40 199.66974 72.330234 232 112 232 C 145.46856 232 175.66224 209.42435 183.74805 177.99219 A 8 8 0 0 0 177.99219 168.25195 A 8 8 0 0 0 168.25195 174.00781 C 162.13776 197.77565 138.17144 216 112 216 C 80.97727 216 56 191.02271 56 160 C 56 134.54151 72.820955 113.15379 96 106.30078 L 96 136 A 8.0008 8.0008 0 0 0 104 144 L 187.05664 144 L 216.84375 203.57812 A 8.0008 8.0008 0 0 0 226.5293 207.58984 L 250.5293 199.58984 A 8 8 0 0 0 255.58984 189.4707 A 8 8 0 0 0 245.4707 184.41016 L 228.05273 190.2168 L 199.15625 132.42188 A 8.0008 8.0008 0 0 0 192 128 L 112 128 L 112 104 L 168 104 A 8 8 0 0 0 176 96 A 8 8 0 0 0 168 88 L 112 88 L 112 78.978516 C 125.75009 75.395984 136 62.819408 136 48 C 136 30.421645 121.57835 16 104 16 z M 104 32 C 112.93131 32 120 39.068687 120 48 C 120 56.931313 112.93131 64 104 64 C 95.068687 64 88 56.931313 88 48 C 88 39.068687 95.068687 32 104 32 z " />
</svg>
