<?xml version="1.0" encoding="UTF-8" standalone="no"?>
<svg
   viewBox="0 0 256 256"
   version="1.1"
   id="svg4"
   sodipodi:docname="windows logo purple_coral.svg"
   xmlns:inkscape="http://www.inkscape.org/namespaces/inkscape"
   xmlns:sodipodi="http://sodipodi.sourceforge.net/DTD/sodipodi-0.dtd"
   xmlns:xlink="http://www.w3.org/1999/xlink"
   xmlns="http://www.w3.org/2000/svg"
   xmlns:svg="http://www.w3.org/2000/svg">
  <defs
     id="defs3">
    <linearGradient
       id="linearGradient1"
       inkscape:collect="always">
      <stop
         style="stop-color:#ff7c66;stop-opacity:1;"
         offset="0"
         id="stop1" />
      <stop
         style="stop-color:#a03291;stop-opacity:1;"
         offset="0.76340693"
         id="stop2" />
    </linearGradient>
    <linearGradient
       inkscape:collect="always"
       xlink:href="#linearGradient1"
       id="linearGradient2"
       x1="232.4884"
       y1="23.847498"
       x2="23.977745"
       y2="232.35815"
       gradientUnits="userSpaceOnUse" />
  </defs>
  <defs
     id="defs4" />
  <sodipodi:namedview
     id="namedview4"
     pagecolor="#ffffff"
     bordercolor="#000000"
     borderopacity="0.25"
     inkscape:showpageshadow="2"
     inkscape:pageopacity="0.0"
     inkscape:pagecheckerboard="0"
     inkscape:deskcolor="#d1d1d1" />
  <path
     id="polygon1"
     style="baseline-shift:baseline;display:inline;overflow:visible;vector-effect:none;fill:url(#linearGradient2);stroke-linecap:round;stroke-linejoin:round;enable-background:accumulate;stop-color:#000000;stop-opacity:1;opacity:1;fill-opacity:1"
     d="M 207.63867 32.007812 A 8.0008 8.0008 0 0 0 206.56836 32.128906 L 126.56836 46.679688 A 8.0008 8.0008 0 0 0 120 54.550781 L 120 112 A 8.0008 8.0008 0 0 0 128 120 L 208 120 A 8.0008 8.0008 0 0 0 216 112 L 216 40 A 8.0008 8.0008 0 0 0 207.63867 32.007812 z M 200 49.585938 L 200 104 L 136 104 L 136 61.226562 L 200 49.585938 z M 95.638672 52.367188 A 8.0008 8.0008 0 0 0 94.568359 52.488281 L 30.568359 64.128906 A 8.0008 8.0008 0 0 0 24 72 L 24 112 A 8.0008 8.0008 0 0 0 32 120 L 96 120 A 8.0008 8.0008 0 0 0 104 112 L 104 60.359375 A 8.0008 8.0008 0 0 0 95.638672 52.367188 z M 88 69.945312 L 88 104 L 40 104 L 40 78.675781 L 88 69.945312 z M 32 136 A 8.0008 8.0008 0 0 0 24 144 L 24 184 A 8.0008 8.0008 0 0 0 30.568359 191.87109 L 94.568359 203.51172 A 8.0008 8.0008 0 0 0 104 195.64062 L 104 144 A 8.0008 8.0008 0 0 0 96 136 L 32 136 z M 128 136 A 8.0008 8.0008 0 0 0 120 144 L 120 201.46094 A 8.0008 8.0008 0 0 0 126.57031 209.33008 L 206.57031 223.87109 A 8.0008 8.0008 0 0 0 216 216 L 216 144 A 8.0008 8.0008 0 0 0 208 136 L 128 136 z M 40 152 L 88 152 L 88 186.05469 L 40 177.32422 L 40 152 z M 136 152 L 200 152 L 200 206.41602 L 136 194.7832 L 136 152 z " />
</svg>
