<?xml version="1.0" encoding="UTF-8" standalone="no"?>
<svg
   viewBox="0 0 256 256"
   version="1.1"
   id="svg6"
   sodipodi:docname="yarn purple_coral.svg"
   xmlns:inkscape="http://www.inkscape.org/namespaces/inkscape"
   xmlns:sodipodi="http://sodipodi.sourceforge.net/DTD/sodipodi-0.dtd"
   xmlns:xlink="http://www.w3.org/1999/xlink"
   xmlns="http://www.w3.org/2000/svg"
   xmlns:svg="http://www.w3.org/2000/svg">
  <defs
     id="defs3">
    <linearGradient
       id="linearGradient1"
       inkscape:collect="always">
      <stop
         style="stop-color:#ff7c66;stop-opacity:1;"
         offset="0"
         id="stop1" />
      <stop
         style="stop-color:#a03291;stop-opacity:1;"
         offset="0.76340693"
         id="stop2" />
    </linearGradient>
    <linearGradient
       inkscape:collect="always"
       xlink:href="#linearGradient1"
       id="linearGradient2"
       x1="232.4884"
       y1="23.847498"
       x2="23.977745"
       y2="232.35815"
       gradientUnits="userSpaceOnUse" />
  </defs>
  <defs
     id="defs6" />
  <sodipodi:namedview
     id="namedview6"
     pagecolor="#ffffff"
     bordercolor="#000000"
     borderopacity="0.25"
     inkscape:showpageshadow="2"
     inkscape:pageopacity="0.0"
     inkscape:pagecheckerboard="0"
     inkscape:deskcolor="#d1d1d1" />
  <path
     id="line1"
     style="baseline-shift:baseline;display:inline;overflow:visible;vector-effect:none;fill:url(#linearGradient2);stroke-linecap:round;stroke-linejoin:round;enable-background:accumulate;stop-color:#000000;stop-opacity:1;opacity:1;fill-opacity:1"
     d="M 128 24 C 108.06412 24 89.419315 29.639081 73.578125 39.40625 A 8 8 0 0 0 72.203125 40.269531 C 57.945983 49.369311 46.043503 61.846325 37.632812 76.564453 A 8 8 0 0 0 36.861328 77.941406 C 30.192678 90.033544 26.020831 103.62996 24.638672 118.03125 A 8 8 0 0 0 24.324219 119.77539 A 8 8 0 0 0 24.417969 121.4668 C 24.281034 123.64608 24 125.78682 24 128 C 24 154.75425 34.156764 179.18224 50.816406 197.63086 A 8 8 0 0 0 52.1875 199.11914 C 62.349784 209.9455 74.797207 218.60252 88.751953 224.31055 A 8 8 0 0 0 89.898438 224.77148 C 101.7023 229.43569 114.55654 231.99974 127.99805 232 A 8 8 0 0 0 128 232 A 8 8 0 0 0 128.00195 232 L 232.00195 231.9707 A 8 8 0 0 0 240 223.9668 A 8 8 0 0 0 231.99805 215.9707 L 183.39648 215.98438 C 212.5783 197.54436 232 164.99615 232 128 C 232 127.48195 231.99587 126.9655 231.98828 126.44922 A 8 8 0 0 0 231.96289 125.22656 C 231.14592 94.191599 216.66507 66.496673 194.32812 47.955078 A 8 8 0 0 0 192.89453 46.787109 C 175.09321 32.533156 152.52416 24 128 24 z M 128 40 C 144.03861 40 159.05799 44.263969 171.99023 51.722656 C 162.26304 56.113896 152.91923 61.166276 144.01172 66.824219 C 129.8658 57.829364 114.76544 50.467309 99 44.867188 C 108.07596 41.71277 117.833 40 128 40 z M 78.464844 55.203125 C 96.421447 60.065823 113.62826 67.323765 129.625 76.771484 C 122.77877 81.909908 116.24257 87.428035 110.04492 93.294922 C 93.591523 84.585031 75.916969 78.441817 57.634766 75.068359 C 63.436116 67.359717 70.477061 60.640871 78.464844 55.203125 z M 187.0625 62.695312 C 193.36427 68.395972 198.83218 75.000572 203.26758 82.304688 C 146.72265 102.10878 103.2831 148.2501 86.921875 205.88477 C 79.358583 201.89704 72.450878 196.84056 66.398438 190.91406 C 85.715221 132.45709 129.88458 85.522045 187.0625 62.695312 z M 48.666016 89.798828 C 65.929846 92.331164 82.68026 97.553111 98.310547 105.26367 C 92.756959 111.36793 87.538566 117.7782 82.681641 124.46875 C 69.527956 118.58831 55.564157 114.73003 41.263672 113.02148 C 42.660244 104.8361 45.182336 97.040025 48.666016 89.798828 z M 210.33203 96.792969 C 213.13577 104.21129 214.96838 112.1116 215.67383 120.33984 C 172.07657 135.90927 138.55905 171.51165 125.64648 215.96875 C 117.36224 215.75259 109.36763 214.39875 101.8125 212.05664 C 116.51925 157.9611 157.21908 114.73012 210.33203 96.792969 z M 40.005859 128.98828 C 51.566619 130.42876 62.872542 133.45208 73.607422 137.97266 C 66.079779 150.10187 59.676675 163.00221 54.53125 176.5332 C 45.512806 162.8867 40.197919 146.56671 40.005859 128.98828 z M 215.49219 137.54297 C 211.27899 176.82643 181.34374 208.27277 142.80078 214.76758 C 154.74961 179.75363 181.26504 151.58556 215.49219 137.54297 z " />
</svg>
