<svg width="16" height="16" viewBox="0 0 16 16" fill="none" xmlns="http://www.w3.org/2000/svg">
<path fill-rule="evenodd" clip-rule="evenodd" d="M9.83506 2.29564L12.9285 5.43666C13.0106 5.52215 13.0562 5.63699 13.0555 5.75637V12.9359C13.0555 13.1739 12.9624 13.4021 12.7967 13.5704C12.6309 13.7387 12.4061 13.8333 12.1717 13.8333H3.77525C3.65805 13.8333 3.54564 13.786 3.46277 13.7019C3.37989 13.6177 3.33333 13.5036 3.33333 13.3846C3.33333 13.2656 3.37989 13.1514 3.46277 13.0673C3.54564 12.9831 3.65805 12.9359 3.77525 12.9359H12.1717V6.20509H9.5202C9.40299 6.20509 9.29059 6.15782 9.20771 6.07367C9.12484 5.98952 9.07828 5.87538 9.07828 5.75637V3.06407H4.21717V6.20509C4.21717 6.3241 4.17061 6.43823 4.08773 6.52238C4.00486 6.60653 3.89246 6.65381 3.77525 6.65381C3.65805 6.65381 3.54564 6.60653 3.46277 6.52238C3.37989 6.43823 3.33333 6.3241 3.33333 6.20509V3.06407C3.33333 2.82605 3.42645 2.59779 3.5922 2.42949C3.75795 2.26118 3.98276 2.16663 4.21717 2.16663H9.5202C9.63777 2.16596 9.75088 2.2123 9.83506 2.29564ZM11.5475 5.30766L9.96212 3.69788V5.30766H11.5475Z" fill="#90A4AE"/>
<path d="M4.26908 8.48608H3.6736C3.58335 8.48608 3.4968 8.52193 3.43299 8.58575C3.36917 8.64956 3.33332 8.73611 3.33332 8.82636V10.868C3.33332 10.9583 3.36917 11.0448 3.43299 11.1086C3.4968 11.1725 3.58335 11.2083 3.6736 11.2083H4.26908C4.63007 11.2083 4.97628 11.0649 5.23154 10.8096C5.48679 10.5544 5.6302 10.2082 5.6302 9.84719C5.6302 9.48621 5.48679 9.14 5.23154 8.88474C4.97628 8.62949 4.63007 8.48608 4.26908 8.48608Z" fill="#64B5F6"/>
<path d="M6.39582 8.48608H7.07638C7.34712 8.48608 7.60677 8.57213 7.79821 8.72528C7.98966 8.87843 8.09721 9.08616 8.09721 9.30275C8.09721 9.50415 8.00422 9.69787 7.83726 9.84719C8.00422 9.99652 8.09721 10.1902 8.09721 10.3916C8.09721 10.6082 7.98966 10.816 7.79821 10.9691C7.60677 11.1223 7.34712 11.2083 7.07638 11.2083H6.39582C6.30557 11.2083 6.21902 11.1796 6.15521 11.1286C6.09139 11.0775 6.05554 11.0083 6.05554 10.9361V8.75831C6.05554 8.68611 6.09139 8.61687 6.15521 8.56582C6.21902 8.51476 6.30557 8.48608 6.39582 8.48608Z" fill="#64B5F6"/>
<path d="M4.26908 10.5279H4.01387V9.16675H4.26908C4.44957 9.16675 4.62268 9.23845 4.7503 9.36608C4.87793 9.49371 4.94963 9.66681 4.94963 9.84731C4.94963 10.0278 4.87793 10.2009 4.7503 10.3285C4.62268 10.4562 4.44957 10.5279 4.26908 10.5279Z" fill="#1A1A1A"/>
<path d="M6.73609 9.57508H7.07637C7.16662 9.57508 7.25317 9.5464 7.31698 9.49535C7.3808 9.4443 7.41665 9.37506 7.41665 9.30286C7.41665 9.23066 7.3808 9.16142 7.31698 9.11037C7.25317 9.05932 7.16662 9.03064 7.07637 9.03064H6.73609V9.57508Z" fill="#1A1A1A"/>
<path d="M7.07637 10.1195H6.73609V10.664H7.07637C7.16662 10.664 7.25317 10.6353 7.31698 10.5842C7.3808 10.5332 7.41665 10.4639 7.41665 10.3918C7.41665 10.3196 7.3808 10.2503 7.31698 10.1993C7.25317 10.1482 7.16662 10.1195 7.07637 10.1195Z" fill="#1A1A1A"/>
</svg>
