<svg width="24" height="24" viewBox="0 0 24 24" fill="none" xmlns="http://www.w3.org/2000/svg">
<path d="M21.2777 7.4C21.2777 7.3 21.1777 7.2 21.0777 7.1L15.2777 1.3C15.1777 1.2 15.0777 1.1 14.9777 1.1C14.7777 1 14.6777 1 14.5777 1H4.57773C4.07773 1 3.57773 1.2 3.27773 1.5C2.97773 1.8 2.67773 2.3 2.67773 2.8V21.1C2.67773 21.6 2.87773 22 3.17773 22.4C3.47773 22.8 3.97773 23 4.47773 23H19.4777C19.9777 23 20.4777 22.8 20.7777 22.5C21.0777 22.2 21.2777 21.7 21.2777 21.2V7.8C21.3777 7.7 21.2777 7.6 21.2777 7.4ZM15.4777 4.4L17.8777 6.8H15.4777V4.4ZM19.3777 21H4.67773V3H13.4777V7.8C13.4777 8.1 13.5777 8.3 13.7777 8.5C13.9777 8.7 14.1777 8.8 14.4777 8.8H19.2777V21H19.3777Z" fill="#90A4AE"/>
<path d="M7.07766 13.9999C7.07766 14.8999 7.37766 15.7999 7.77766 16.4999L6.27766 17.9999C5.87766 18.3999 5.87766 18.9999 6.27766 19.3999C6.67766 19.7999 7.27766 19.7999 7.67766 19.3999L9.17766 17.8999C9.87766 18.3999 10.7777 18.5999 11.6777 18.5999C14.2777 18.5999 16.2777 16.4999 16.2777 13.9999C16.2777 11.4999 14.1777 9.39995 11.6777 9.39995C9.17766 9.39995 7.07766 11.3999 7.07766 13.9999ZM14.3777 13.9999C14.3777 15.4999 13.1777 16.5999 11.7777 16.5999C10.2777 16.5999 9.17766 15.3999 9.17766 13.9999C9.17766 12.4999 10.3777 11.3999 11.7777 11.3999C13.1777 11.2999 14.3777 12.4999 14.3777 13.9999Z" fill="#FFB74D"/>
</svg>
