<svg width="16" height="16" viewBox="0 0 16 16" fill="none" xmlns="http://www.w3.org/2000/svg">
<path d="M12.8009 7.46215C12.7845 7.39213 12.751 7.32724 12.7035 7.27322C12.656 7.21921 12.596 7.17774 12.5286 7.15248L9.37696 5.97061L10.179 1.96042C10.1977 1.86708 10.1854 1.7702 10.144 1.68448C10.1026 1.59875 10.0344 1.52886 9.94975 1.4854C9.86506 1.44194 9.76851 1.42728 9.67474 1.44365C9.58097 1.46003 9.4951 1.50653 9.43015 1.57612L3.30515 8.13862C3.25607 8.1912 3.22072 8.25507 3.20221 8.32458C3.18371 8.39409 3.18262 8.46708 3.19906 8.53711C3.2155 8.60713 3.24895 8.67202 3.29644 8.72604C3.34394 8.78005 3.40403 8.82152 3.47138 8.84678L6.62304 10.0286L5.82099 14.0388C5.80231 14.1322 5.81459 14.2291 5.85597 14.3148C5.89734 14.4005 5.96554 14.4704 6.05023 14.5139C6.13492 14.5574 6.23148 14.572 6.32525 14.5556C6.41903 14.5393 6.5049 14.4927 6.56985 14.4231L12.6948 7.86064C12.7439 7.80806 12.7793 7.74418 12.7978 7.67468C12.8163 7.60517 12.8174 7.53218 12.8009 7.46215V7.46215Z" fill="#FFD54F"/>
</svg>
