<?xml version="1.0" encoding="UTF-8"?>
<svg width="16px" height="16px" viewBox="0 0 16 16" version="1.1" xmlns="http://www.w3.org/2000/svg" xmlns:xlink="http://www.w3.org/1999/xlink" role="image">
    <title>Flow Service</title>
    <g stroke="none" stroke-width="1" fill="none" fill-rule="evenodd">
        <path d="M8.07022531,14.2186634 L11.6221686,10.66664 L13.6124196,10.66664 C12.6213378,12.7448928 10.5155395,14.1911177 8.07022531,14.2186634 M1.84803868,7.11117339 L5.12084238,7.11117339 L8.67638904,3.55554666 L12.3466023,3.55554666 C12.8666059,4.06578118 13.2950844,4.66762089 13.6124196,5.33336002 L9.41243356,5.33336002 L5.8568869,8.88890668 L1.84803868,8.88890668 C1.8062398,8.59823636 1.77773329,8.30316194 1.77773329,8 C1.77773329,7.69779895 1.8062398,7.40272453 1.84803868,7.11117339 M7.93690132,1.78133664 L4.38487794,5.33336002 L2.38573874,5.33336002 C3.37954297,3.25334561 5.48798382,1.8062398 7.93690132,1.78133664 M14.2221866,8 C14.2221866,8.30316194 14.1928794,8.59823636 14.1510805,8.88890668 L10.8862042,8.88890668 L7.33065751,12.4444533 L3.65331759,12.4444533 C3.13155234,11.9350996 2.70403475,11.3324592 2.38573874,10.66664 L6.59373217,10.66664 L10.1492788,7.11117339 L14.1510805,7.11117339 C14.1928794,7.40272453 14.2221866,7.69779895 14.2221866,8 M8,-1.59872116e-14 C3.58133064,-1.59872116e-14 5.32907052e-15,3.58229153 5.32907052e-15,8 C5.32907052e-15,12.4186694 3.58133064,16 8,16 C12.4177085,16 16,12.4186694 16,8 C16,3.58229153 12.4177085,-1.59872116e-14 8,-1.59872116e-14" id="Fill-1" fill="#072B55"></path>
    </g>
</svg>