<svg width="16" height="16" viewBox="0 0 16 16" fill="none" xmlns="http://www.w3.org/2000/svg">
<path fill-rule="evenodd" clip-rule="evenodd" d="M10.6129 2.29564L13.7063 5.43666C13.7884 5.52215 13.834 5.63699 13.8333 5.75637V12.9359C13.8333 13.1739 13.7402 13.4021 13.5745 13.5704C13.4087 13.7387 13.1839 13.8333 12.9495 13.8333H4.55304C4.43584 13.8333 4.32343 13.786 4.24056 13.7019C4.15768 13.6177 4.11112 13.5036 4.11112 13.3846C4.11112 13.2656 4.15768 13.1514 4.24056 13.0673C4.32343 12.9831 4.43584 12.9359 4.55304 12.9359H12.9495V6.20509H10.298C10.1808 6.20509 10.0684 6.15782 9.9855 6.07367C9.90263 5.98952 9.85607 5.87538 9.85607 5.75637V3.06407H4.99496V6.20509C4.99496 6.3241 4.9484 6.43823 4.86552 6.52238C4.78265 6.60654 4.67025 6.65381 4.55304 6.65381C4.43584 6.65381 4.32343 6.60654 4.24056 6.52238C4.15768 6.43823 4.11112 6.3241 4.11112 6.20509V3.06407C4.11112 2.82605 4.20424 2.59779 4.36999 2.42949C4.53574 2.26118 4.76055 2.16663 4.99496 2.16663H10.298C10.4156 2.16596 10.5287 2.2123 10.6129 2.29564ZM12.3253 5.30766L10.7399 3.69788V5.30766H12.3253Z" fill="#90A4AE"/>
<path d="M9.55555 10.4305H10.3333C10.4365 10.4305 10.5354 10.4715 10.6083 10.5444C10.6812 10.6174 10.7222 10.7163 10.7222 10.8194C10.7222 10.9225 10.6812 11.0215 10.6083 11.0944C10.5354 11.1673 10.4365 11.2083 10.3333 11.2083H9.16666C9.06352 11.2083 8.9646 11.1673 8.89167 11.0944C8.81874 11.0215 8.77777 10.9225 8.77777 10.8194V8.87497C8.77777 8.77183 8.81874 8.67292 8.89167 8.59999C8.9646 8.52706 9.06352 8.48608 9.16666 8.48608C9.2698 8.48608 9.36871 8.52706 9.44164 8.59999C9.51457 8.67292 9.55555 8.77183 9.55555 8.87497V10.4305Z" fill="#FFB74D"/>
<path d="M4.4282 9.03052L3.78205 9.84718L4.4282 10.6638C4.48532 10.736 4.50985 10.8268 4.49639 10.9161C4.48292 11.0055 4.43257 11.0861 4.3564 11.1402C4.29475 11.1852 4.21885 11.2092 4.14102 11.2083C4.08529 11.2083 4.03033 11.196 3.98048 11.1723C3.93064 11.1487 3.88728 11.1144 3.85384 11.0722L3.33333 10.4129L2.81282 11.0722C2.77939 11.1144 2.73603 11.1487 2.68618 11.1723C2.63634 11.196 2.58137 11.2083 2.52565 11.2083C2.44781 11.2092 2.37192 11.1852 2.31026 11.1402C2.2341 11.0861 2.18375 11.0055 2.17028 10.9161C2.15682 10.8268 2.18134 10.736 2.23847 10.6638L2.88462 9.84718L2.23847 9.03052C2.21018 8.99477 2.1896 8.95409 2.1779 8.91081C2.1662 8.86752 2.16361 8.82247 2.17028 8.77824C2.17695 8.734 2.19274 8.69144 2.21676 8.65299C2.24078 8.61454 2.27255 8.58095 2.31026 8.55414C2.34797 8.52733 2.39089 8.50782 2.43656 8.49673C2.48222 8.48564 2.52974 8.48319 2.57641 8.48951C2.62308 8.49582 2.66798 8.5108 2.70854 8.53356C2.7491 8.55633 2.78454 8.58645 2.81282 8.62219L3.33333 9.28147L3.85384 8.62219C3.91097 8.55 3.99601 8.50227 4.09025 8.48951C4.1845 8.47674 4.28024 8.49999 4.3564 8.55414C4.43257 8.60829 4.48292 8.6889 4.49639 8.77824C4.50985 8.86757 4.48532 8.95832 4.4282 9.03052Z" fill="#FFB74D"/>
<path d="M7.72778 8.50554C7.64962 8.47955 7.56511 8.47972 7.48706 8.50604C7.409 8.53235 7.34163 8.58336 7.29515 8.65137L6.6389 9.56525L5.98265 8.65137C5.93482 8.58469 5.86712 8.53485 5.78924 8.50899C5.71136 8.48313 5.62729 8.48256 5.54907 8.50738C5.47085 8.53219 5.40249 8.58111 5.35376 8.64714C5.30504 8.71317 5.27844 8.79292 5.27779 8.87498V10.8194C5.27779 10.9226 5.31877 11.0215 5.3917 11.0944C5.46463 11.1673 5.56354 11.2083 5.66668 11.2083C5.76982 11.2083 5.86874 11.1673 5.94167 11.0944C6.0146 11.0215 6.05557 10.9226 6.05557 10.8194V10.0903L6.32293 10.4597C6.35825 10.5108 6.40546 10.5526 6.46049 10.5815C6.51553 10.6104 6.57675 10.6255 6.6389 10.6255C6.70105 10.6255 6.76227 10.6104 6.81731 10.5815C6.87234 10.5526 6.91955 10.5108 6.95487 10.4597L7.22223 10.0903V10.8194C7.22223 10.9226 7.2632 11.0215 7.33613 11.0944C7.40906 11.1673 7.50798 11.2083 7.61112 11.2083C7.71426 11.2083 7.81317 11.1673 7.8861 11.0944C7.95903 11.0215 8 10.9226 8 10.8194V8.87498C8.00124 8.79211 7.97529 8.71112 7.92613 8.6444C7.87697 8.57768 7.8073 8.5289 7.72778 8.50554Z" fill="#FFB74D"/>
</svg>
