<svg width="16" height="16" viewBox="0 0 16 16" fill="none" xmlns="http://www.w3.org/2000/svg">
<path d="M9.96875 9.53125L10.625 9.53125L10.625 8.875C10.6247 8.64302 10.5325 8.42061 10.3684 8.25657C10.2044 8.09254 9.98198 8.00026 9.75 8L6.25 8C6.01802 8.00026 5.79561 8.09254 5.63157 8.25657C5.46754 8.42061 5.37527 8.64302 5.375 8.875L5.375 9.53125L6.03125 9.53125C6.26323 9.53151 6.48564 9.62379 6.64968 9.78782C6.81371 9.95186 6.90598 10.1743 6.90625 10.4062L6.90625 12.5937C6.90598 12.8257 6.81371 13.0481 6.64968 13.2122C6.48564 13.3762 6.26323 13.4685 6.03125 13.4687L3.84375 13.4687C3.61177 13.4685 3.38936 13.3762 3.22532 13.2122C3.06129 13.0481 2.96902 12.8257 2.96875 12.5937L2.96875 10.4062C2.96902 10.1743 3.06129 9.95186 3.22532 9.78782C3.38936 9.62379 3.61177 9.53151 3.84375 9.53125L4.5 9.53125L4.5 8.875C4.50053 8.41103 4.68507 7.96622 5.01314 7.63814C5.34122 7.31007 5.78603 7.12553 6.25 7.125L7.5625 7.125L7.5625 5.59375L7.125 5.59375C6.89302 5.59348 6.67061 5.50121 6.50657 5.33717C6.34254 5.17314 6.25027 4.95073 6.25 4.71875L6.25 2.96875C6.25027 2.73677 6.34254 2.51436 6.50658 2.35032C6.67061 2.18629 6.89302 2.09402 7.125 2.09375L8.875 2.09375C9.10698 2.09402 9.32939 2.18629 9.49343 2.35032C9.65746 2.51436 9.74973 2.73677 9.75 2.96875L9.75 4.71875C9.74973 4.95073 9.65746 5.17314 9.49343 5.33717C9.32939 5.50121 9.10698 5.59348 8.875 5.59375L8.4375 5.59375L8.4375 7.125L9.75 7.125C10.214 7.12553 10.6588 7.31007 10.9869 7.63814C11.3149 7.96622 11.4995 8.41103 11.5 8.875L11.5 9.53125L12.1562 9.53125C12.3882 9.53151 12.6106 9.62379 12.7747 9.78782C12.9387 9.95186 13.031 10.1743 13.0312 10.4062L13.0312 12.5937C13.031 12.8257 12.9387 13.0481 12.7747 13.2122C12.6106 13.3762 12.3882 13.4685 12.1562 13.4687L9.96875 13.4687C9.73677 13.4685 9.51436 13.3762 9.35032 13.2122C9.18629 13.0481 9.09402 12.8257 9.09375 12.5937L9.09375 10.4062C9.09402 10.1743 9.18629 9.95186 9.35032 9.78782C9.51436 9.62379 9.73677 9.53151 9.96875 9.53125Z" fill="#64B5F6"/>
</svg>
