<svg width="16" height="16" viewBox="0 0 16 16" fill="none" xmlns="http://www.w3.org/2000/svg">
<g clip-path="url(#clip0_1752_5240)">
<path d="M13.5359 3.75362L13.3472 3.69071C13.3472 3.69071 13.2843 3.69071 13.2843 3.6278C13.2843 3.5649 13.2214 3.5649 13.2214 3.50199V3.31326C13.2214 2.8729 13.0327 2.36963 12.5923 2.05509C12.5294 1.99218 12.4036 1.92928 12.2778 1.86637C11.7745 1.61473 11.2712 1.74055 10.8309 1.92928L10.7051 1.99218C10.7051 1.99218 10.6422 1.99218 10.5792 1.99218C10.5163 1.99218 10.5163 1.99218 10.4534 1.99218L10.3276 1.92928C9.95016 1.67764 9.38399 1.61473 8.94363 1.86637C8.81781 1.92928 8.7549 1.99218 8.62909 2.05509C8.18873 2.36963 8 2.8729 8 3.31326V3.50199C8 3.50199 8 3.5649 7.93709 3.6278C8 3.6278 8 3.69071 8 3.69071L7.81128 3.75362C7.43382 3.94235 7.05637 4.38271 7.05637 4.94888C7.05637 5.0747 7.05637 5.20052 7.05637 5.26343C7.05637 5.8296 7.43382 6.20705 7.81128 6.45869L8 6.5216C8 6.5216 8.06291 6.5216 8.06291 6.5845C8.06291 6.64741 8.12582 6.64741 8.12582 6.71032V6.89905C8.12582 7.33941 8.31454 7.84267 8.7549 8.15722C8.81781 8.22013 8.94363 8.28303 9.06945 8.34594C9.57271 8.59758 10.076 8.47176 10.5163 8.28303L10.6422 8.22012C10.6422 8.22012 10.7051 8.22012 10.768 8.22012C10.8309 8.22012 10.8309 8.22012 10.8938 8.22012L11.0196 8.28303C11.3971 8.53467 11.9632 8.59758 12.4036 8.34594C12.5294 8.28303 12.5923 8.22013 12.7181 8.15722C13.1585 7.84267 13.3472 7.33941 13.3472 6.89905V6.71032C13.3472 6.71032 13.3472 6.64741 13.4101 6.5845C13.4101 6.5216 13.473 6.5216 13.473 6.5216L13.6618 6.45869C14.0392 6.26996 14.4167 5.8296 14.4167 5.26343C14.4167 5.13761 14.4167 5.01179 14.4167 4.94888C14.2909 4.38271 13.9134 4.00526 13.5359 3.75362ZM10.6422 6.08124C10.1389 6.08124 9.69853 5.64088 9.69853 5.13761C9.69853 4.63434 10.1389 4.19398 10.6422 4.19398C11.1454 4.19398 11.5858 4.63434 11.5858 5.13761C11.6487 5.64088 11.2083 6.08124 10.6422 6.08124Z" fill="#64B5F6"/>
<path d="M8.18873 9.60413L8 9.47831C8 9.47831 7.93709 9.47831 7.93709 9.4154C7.93709 9.35249 7.87419 9.35249 7.87419 9.28959V9.10086C7.87419 8.6605 7.68546 8.15723 7.2451 7.84269C7.18219 7.77978 7.05637 7.71687 6.93056 7.65396C6.42729 7.40233 5.92402 7.52815 5.48366 7.71687L5.35785 7.77978C5.35785 7.77978 5.29494 7.77978 5.23203 7.77978C5.16912 7.77978 5.16912 7.77978 5.10621 7.77978L4.98039 7.71687C4.60294 7.46524 4.03677 7.40233 3.59641 7.65396C3.47059 7.71687 3.40768 7.77978 3.28187 7.84269C2.84151 8.15723 2.65278 8.6605 2.65278 9.10086V9.28959C2.65278 9.28959 2.65278 9.35249 2.58987 9.4154C2.58987 9.47831 2.52696 9.47831 2.52696 9.47831L2.33824 9.54122C1.96079 9.72994 1.58334 10.1703 1.58334 10.7365C1.58334 10.8623 1.58334 10.9881 1.58334 11.051C1.58334 11.6172 1.96079 11.9947 2.33824 12.2463L2.52696 12.3092C2.52696 12.3092 2.58987 12.3092 2.58987 12.3721C2.58987 12.435 2.65278 12.435 2.65278 12.4979V12.6866C2.65278 13.127 2.84151 13.6303 3.28187 13.9448C3.34477 14.0077 3.47059 14.0706 3.59641 14.1335C4.09968 14.3852 4.60294 14.2594 5.0433 14.0706L5.16912 14.0077C5.16912 14.0077 5.23203 14.0077 5.29494 14.0077C5.35785 14.0077 5.35785 14.0077 5.42075 14.0077L5.54657 14.0706C5.92402 14.3223 6.4902 14.3852 6.93056 14.1335C7.05637 14.0706 7.11928 14.0077 7.2451 13.9448C7.68546 13.6303 7.87419 13.127 7.87419 12.6866V12.4979C7.87419 12.4979 7.87418 12.435 7.93709 12.3721C7.93709 12.3092 8 12.3092 8 12.3092L8.18873 12.2463C8.56618 12.0576 8.94363 11.6172 8.94363 11.051C8.94363 10.9252 8.94363 10.7994 8.94363 10.7365C8.94363 10.2332 8.56618 9.79285 8.18873 9.60413ZM5.35785 11.8688C4.85458 11.8688 4.41422 11.4285 4.41422 10.9252C4.41422 10.4219 4.85458 9.98158 5.35785 9.98158C5.86111 9.98158 6.30147 10.4219 6.30147 10.9252C6.30147 11.4285 5.86111 11.8688 5.35785 11.8688Z" fill="#90A4AE"/>
</g>
<defs>
<clipPath id="clip0_1752_5240">
<rect width="14" height="14" fill="white" transform="translate(1 1)"/>
</clipPath>
</defs>
</svg>
