<svg width="16" height="16" viewBox="0 0 16 16" fill="none" xmlns="http://www.w3.org/2000/svg">
<path fill-rule="evenodd" clip-rule="evenodd" d="M10.7891 2.16663L10.788 2.16663C10.219 2.1679 9.6685 2.36821 9.23177 2.73284C8.79505 3.09747 8.49969 3.60343 8.39689 4.163L8.3967 4.16401L7.78863 7.51385H4.79167C4.5232 7.51385 4.30556 7.73149 4.30556 7.99996C4.30556 8.26843 4.5232 8.48607 4.79167 8.48607H7.61215L7.03578 11.6613C6.97392 11.9974 6.79637 12.3017 6.53402 12.5208C6.27165 12.7398 5.94092 12.8602 5.59913 12.8611H3.81944C3.55097 12.8611 3.33333 13.0787 3.33333 13.3472C3.33333 13.6157 3.55097 13.8333 3.81944 13.8333L5.60091 13.8333C6.16984 13.832 6.72039 13.6317 7.15712 13.2671C7.59384 12.9024 7.8892 12.3965 7.992 11.8369L7.99218 11.8359L8.60026 8.48607H11.5972C11.8657 8.48607 12.0833 8.26843 12.0833 7.99996C12.0833 7.73149 11.8657 7.51385 11.5972 7.51385H8.77674L9.35311 4.33866L9.3532 4.33818C9.41506 4.00207 9.59253 3.69818 9.85487 3.47914C10.1172 3.26011 10.4479 3.13973 10.7896 3.13885H12.5694C12.8379 3.13885 13.0556 2.92121 13.0556 2.65274C13.0556 2.38427 12.8379 2.16663 12.5694 2.16663L10.7891 2.16663Z" fill="#90A4AE"/>
</svg>
