<svg width="16" height="16" viewBox="0 0 16 16" fill="none" xmlns="http://www.w3.org/2000/svg">
<path fill-rule="evenodd" clip-rule="evenodd" d="M9.83507 2.29564L12.9285 5.43666C13.0106 5.52215 13.0562 5.63699 13.0556 5.75637V12.9359C13.0556 13.1739 12.9624 13.4021 12.7967 13.5704C12.6309 13.7387 12.4061 13.8333 12.1717 13.8333H3.77525C3.65805 13.8333 3.54565 13.786 3.46277 13.7019C3.37989 13.6177 3.33334 13.5036 3.33334 13.3846C3.33334 13.2656 3.37989 13.1514 3.46277 13.0673C3.54565 12.9831 3.65805 12.9359 3.77525 12.9359H12.1717V6.20509H9.5202C9.403 6.20509 9.29059 6.15782 9.20772 6.07367C9.12484 5.98952 9.07828 5.87538 9.07828 5.75637V3.06407H4.21717V6.20509C4.21717 6.3241 4.17061 6.43823 4.08774 6.52238C4.00486 6.60653 3.89246 6.65381 3.77525 6.65381C3.65805 6.65381 3.54565 6.60653 3.46277 6.52238C3.3799 6.43823 3.33334 6.3241 3.33334 6.20509V3.06407C3.33334 2.82605 3.42645 2.59779 3.59221 2.42949C3.75796 2.26118 3.98277 2.16663 4.21717 2.16663H9.5202C9.63777 2.16596 9.75088 2.2123 9.83507 2.29564ZM11.5475 5.30766L9.96212 3.69788V5.30766H11.5475Z" fill="#90A4AE"/>
<path d="M4.01388 9.16664V9.50692H4.69444C4.78469 9.50692 4.87124 9.54277 4.93505 9.60658C4.99887 9.6704 5.03472 9.75695 5.03472 9.84719C5.03472 9.93744 4.99887 10.024 4.93505 10.0878C4.87124 10.1516 4.78469 10.1875 4.69444 10.1875H4.01388V10.5278H4.86458C4.95483 10.5278 5.04138 10.5636 5.10519 10.6274C5.16901 10.6912 5.20486 10.7778 5.20486 10.868C5.20486 10.9583 5.16901 11.0448 5.10519 11.1086C5.04138 11.1725 4.95483 11.2083 4.86458 11.2083H3.67361C3.58336 11.2083 3.49681 11.1725 3.43299 11.1086C3.36918 11.0448 3.33333 10.9583 3.33333 10.868V8.82636C3.33333 8.73611 3.36918 8.64956 3.43299 8.58575C3.49681 8.52193 3.58336 8.48608 3.67361 8.48608H4.86458C4.95483 8.48608 5.04138 8.52193 5.10519 8.58575C5.16901 8.64956 5.20486 8.73611 5.20486 8.82636C5.20486 8.91661 5.16901 9.00316 5.10519 9.06697C5.04138 9.13079 4.95483 9.16664 4.86458 9.16664H4.01388Z" fill="#81C784"/>
<path d="M9.86908 8.58575C9.9329 8.64956 9.96875 8.73611 9.96875 8.82636V10.868C9.96875 10.9583 9.9329 11.0448 9.86908 11.1086C9.80527 11.1725 9.71872 11.2083 9.62847 11.2083C9.53822 11.2083 9.45167 11.1725 9.38786 11.1086C9.32404 11.0448 9.28819 10.9583 9.28819 10.868V8.82636C9.28819 8.73611 9.32404 8.64956 9.38786 8.58575C9.45167 8.52193 9.53822 8.48608 9.62847 8.48608C9.71872 8.48608 9.80527 8.52193 9.86908 8.58575Z" fill="#81C784"/>
<path fill-rule="evenodd" clip-rule="evenodd" d="M7.16143 8.48608H6.56594C6.4757 8.48608 6.38915 8.52193 6.32533 8.58575C6.26152 8.64956 6.22567 8.73611 6.22567 8.82636V10.868C6.22567 10.9583 6.26152 11.0448 6.32533 11.1086C6.38915 11.1725 6.4757 11.2083 6.56594 11.2083H7.16143C7.52242 11.2083 7.86862 11.0649 8.12388 10.8096C8.37914 10.5544 8.52254 10.2082 8.52254 9.84719C8.52254 9.48621 8.37914 9.14 8.12388 8.88474C7.86862 8.62949 7.52242 8.48608 7.16143 8.48608ZM7.16142 10.5278H6.90622V9.16664H7.16142C7.34192 9.16664 7.51502 9.23834 7.64265 9.36597C7.77028 9.4936 7.84198 9.6667 7.84198 9.84719C7.84198 10.0277 7.77028 10.2008 7.64265 10.3284C7.51502 10.456 7.34192 10.5278 7.16142 10.5278Z" fill="#81C784"/>
</svg>
