<svg width="16" height="16" viewBox="0 0 16 16" fill="none" xmlns="http://www.w3.org/2000/svg">
<path d="M13.2503 3.625H2.75032C2.69287 3.625 2.63598 3.63631 2.58289 3.6583C2.52981 3.68029 2.48158 3.71251 2.44096 3.75314C2.40033 3.79376 2.36811 3.84199 2.34612 3.89507C2.32413 3.94815 2.31282 4.00505 2.31282 4.0625V11.5C2.31309 11.732 2.40536 11.9544 2.5694 12.1184C2.73343 12.2825 2.95584 12.3747 3.18782 12.375H12.8128C13.0448 12.3747 13.2672 12.2825 13.4312 12.1184C13.5953 11.9544 13.6876 11.732 13.6878 11.5V4.0625C13.6878 4.00505 13.6765 3.94815 13.6545 3.89507C13.6325 3.84199 13.6003 3.79376 13.5597 3.75314C13.5191 3.71251 13.4708 3.68029 13.4177 3.6583C13.3647 3.63631 13.3078 3.625 13.2503 3.625V3.625ZM3.18782 7.125H5.37532V8.875H3.18782V7.125ZM6.25032 7.125H12.813L12.8132 8.875H6.25032V7.125ZM3.18782 9.75H5.37532V11.5H3.18782V9.75ZM12.8128 11.5H6.25032V9.75H12.8132L12.8134 11.5L12.8128 11.5Z" fill="#7986CB"/>
</svg>
