<svg width="16" height="16" viewBox="0 0 16 16" fill="none" xmlns="http://www.w3.org/2000/svg">
<path d="M12.3751 2.3125H4.93763C4.47367 2.31303 4.02886 2.49758 3.70078 2.82565C3.37271 3.15372 3.18816 3.59853 3.18763 4.0625V13.25C3.18764 13.366 3.23373 13.4773 3.31578 13.5594C3.39783 13.6414 3.5091 13.6875 3.62513 13.6875H11.5001C11.6162 13.6875 11.7274 13.6414 11.8095 13.5594C11.8915 13.4773 11.9376 13.366 11.9376 13.25C11.9376 13.134 11.8915 13.0227 11.8095 12.9406C11.7274 12.8586 11.6162 12.8125 11.5001 12.8125H4.06263C4.0629 12.5805 4.15517 12.3581 4.31921 12.1941C4.48324 12.03 4.70565 11.9378 4.93763 11.9375H12.3751C12.4912 11.9375 12.6024 11.8914 12.6845 11.8094C12.7665 11.7273 12.8126 11.616 12.8126 11.5V2.75C12.8126 2.63397 12.7665 2.52269 12.6845 2.44065C12.6024 2.3586 12.4912 2.31251 12.3751 2.3125V2.3125ZM11.0626 7.56255L9.66217 6.51249C9.62431 6.4841 9.57825 6.46875 9.53093 6.46875C9.4836 6.46875 9.43755 6.4841 9.39968 6.51249L8.00013 7.56245V3.1875H11.0626V7.56255Z" fill="#FFB74D"/>
</svg>
