<svg width="16" height="16" viewBox="0 0 16 16" fill="none" xmlns="http://www.w3.org/2000/svg">
<path fill-rule="evenodd" clip-rule="evenodd" d="M10.6129 2.29564L13.7063 5.43666C13.7884 5.52215 13.834 5.63699 13.8333 5.75637V12.9359C13.8333 13.1739 13.7402 13.4021 13.5745 13.5704C13.4087 13.7387 13.1839 13.8333 12.9495 13.8333H4.55304C4.43584 13.8333 4.32344 13.786 4.24056 13.7019C4.15768 13.6177 4.11113 13.5036 4.11113 13.3846C4.11113 13.2656 4.15768 13.1514 4.24056 13.0673C4.32344 12.9831 4.43584 12.9359 4.55304 12.9359H12.9495V6.20509H10.298C10.1808 6.20509 10.0684 6.15782 9.98551 6.07367C9.90263 5.98952 9.85607 5.87538 9.85607 5.75637V3.06407H4.99496V6.20509C4.99496 6.3241 4.9484 6.43823 4.86553 6.52238C4.78265 6.60654 4.67025 6.65381 4.55304 6.65381C4.43584 6.65381 4.32344 6.60654 4.24056 6.52238C4.15769 6.43823 4.11113 6.3241 4.11113 6.20509V3.06407C4.11113 2.82605 4.20424 2.59779 4.37 2.42949C4.53575 2.26118 4.76056 2.16663 4.99496 2.16663H10.298C10.4156 2.16596 10.5287 2.2123 10.6129 2.29564ZM12.3253 5.30766L10.7399 3.69788V5.30766H12.3253Z" fill="#90A4AE"/>
<path d="M5.67023 11.2083C6.36648 11.2083 6.77891 10.8825 6.77891 10.3421C6.77891 9.75278 6.15899 9.59995 5.79081 9.50919L5.78997 9.50898C5.6525 9.47598 5.40859 9.41411 5.35981 9.36049V9.35225C5.35981 9.21613 5.46624 9.14602 5.67023 9.14602C5.8287 9.14902 5.9828 9.19488 6.1137 9.278H6.10927C6.17363 9.32554 6.25325 9.35168 6.33544 9.35225C6.42953 9.35225 6.51977 9.31748 6.5863 9.2556C6.65284 9.19372 6.69022 9.10979 6.69022 9.02228C6.69178 8.97327 6.68095 8.9246 6.65862 8.88019C6.63628 8.83578 6.60306 8.79686 6.56161 8.76656C6.30516 8.58544 5.99224 8.48697 5.67023 8.48608C5.07155 8.48608 4.65025 8.79543 4.65025 9.35225C4.65025 9.90906 5.22676 10.0534 5.60815 10.1483C5.75893 10.1854 5.96292 10.2473 6.01614 10.2762C6.03502 10.2864 6.04721 10.2873 6.05507 10.2879C6.05906 10.2882 6.06193 10.2884 6.064 10.2897C6.06936 10.2931 6.06936 10.3038 6.06936 10.3421C6.06936 10.4246 6.06936 10.5484 5.67023 10.5484C5.51177 10.5454 5.35767 10.4995 5.22676 10.4164H5.2312C5.16684 10.3688 5.08722 10.3427 5.00503 10.3421C4.91094 10.3421 4.8207 10.3769 4.75417 10.4388C4.68763 10.5007 4.65025 10.5846 4.65025 10.6721C4.64869 10.7211 4.65952 10.7698 4.68185 10.8142C4.70419 10.8586 4.73741 10.8975 4.77886 10.9278C5.03531 11.109 5.34823 11.2074 5.67023 11.2083Z" fill="#E57373"/>
<path d="M12.2778 8.85805C12.2778 8.77054 12.2404 8.68661 12.1739 8.62473C12.1073 8.56285 12.0171 8.52809 11.923 8.52809C11.8289 8.52809 11.7387 8.56285 11.6721 8.62473C11.6056 8.68661 11.5682 8.77054 11.5682 8.85805V9.84795L10.6103 8.66007C10.5663 8.60434 10.5042 8.56311 10.4333 8.54235C10.3623 8.52159 10.2861 8.52237 10.2157 8.54458C10.1447 8.5663 10.0829 8.60829 10.0391 8.66458C9.99531 8.72086 9.97174 8.78857 9.97174 8.85805V10.8379C9.97174 10.9254 10.0091 11.0093 10.0757 11.0712C10.1422 11.1331 10.2324 11.1678 10.3265 11.1678C10.4206 11.1678 10.5109 11.1331 10.5774 11.0712C10.6439 11.0093 10.6813 10.9254 10.6813 10.8379V9.84795L11.6392 11.0358C11.6717 11.0773 11.7145 11.1109 11.7639 11.1339C11.8132 11.1568 11.8678 11.1685 11.923 11.1678C11.9607 11.1684 11.9982 11.1628 12.0339 11.1513C12.1048 11.1296 12.1666 11.0876 12.2104 11.0313C12.2542 10.975 12.2778 10.9073 12.2778 10.8379V8.85805Z" fill="#E57373"/>
<path d="M3.68969 8.62397C3.75622 8.56209 3.84646 8.52733 3.94055 8.52733C4.03465 8.52733 4.12489 8.56209 4.19142 8.62397C4.25795 8.68586 4.29533 8.76978 4.29533 8.8573V10.1772C4.29533 10.4397 4.1832 10.6915 3.9836 10.8771C3.784 11.0628 3.51328 11.1671 3.231 11.1671C2.94873 11.1671 2.67801 11.0628 2.47841 10.8771C2.27881 10.6915 2.16668 10.4397 2.16668 10.1772C2.16668 10.0896 2.20405 10.0057 2.27059 9.94384C2.33712 9.88196 2.42736 9.8472 2.52145 9.8472C2.61554 9.8472 2.70578 9.88196 2.77232 9.94384C2.83885 10.0057 2.87623 10.0896 2.87623 10.1772C2.87623 10.2647 2.91361 10.3486 2.98014 10.4105C3.04667 10.4724 3.13691 10.5071 3.231 10.5071C3.3251 10.5071 3.41533 10.4724 3.48187 10.4105C3.5484 10.3486 3.58578 10.2647 3.58578 10.1772V8.8573C3.58578 8.76978 3.62316 8.68586 3.68969 8.62397Z" fill="#E57373"/>
<path d="M8.46395 8.52733C7.73222 8.52733 7.13354 9.12127 7.13354 9.8472C7.13354 10.5731 7.73222 11.1671 8.46395 11.1671C9.19567 11.1671 9.79436 10.5731 9.79436 9.8472C9.79436 9.12127 9.19567 8.52733 8.46395 8.52733Z" fill="#E57373"/>
<path d="M8.46394 10.5071C8.12247 10.5071 7.84309 10.2102 7.84309 9.84719C7.84309 9.48423 8.12247 9.18726 8.46394 9.18726C8.80542 9.18726 9.0848 9.48423 9.0848 9.84719C9.0848 10.2102 8.80542 10.5071 8.46394 10.5071Z" fill="#1A1A1A"/>
</svg>
