<svg width="16" height="16" viewBox="0 0 16 16" fill="none" xmlns="http://www.w3.org/2000/svg">
<path d="M8 10.1875C9.20812 10.1875 10.1875 9.20812 10.1875 8C10.1875 6.79188 9.20812 5.8125 8 5.8125C6.79188 5.8125 5.8125 6.79188 5.8125 8C5.8125 9.20812 6.79188 10.1875 8 10.1875Z" fill="#FFB74D"/>
<path d="M5.52512 5.52518C5.60717 5.44313 5.65326 5.33185 5.65325 5.21581C5.65325 5.09978 5.60715 4.9885 5.5251 4.90645C5.44304 4.82441 5.33176 4.77832 5.21573 4.77832C5.09969 4.77833 4.98841 4.82442 4.90636 4.90648C4.49972 5.31252 4.17712 5.79474 3.95701 6.32557C3.73691 6.85639 3.62361 7.42541 3.62361 8.00006C3.62361 8.57471 3.73691 9.14372 3.95701 9.67455C4.17712 10.2054 4.49972 10.6876 4.90636 11.0936C4.94699 11.1343 4.99522 11.1665 5.0483 11.1885C5.10138 11.2105 5.15827 11.2218 5.21573 11.2218C5.27318 11.2218 5.33007 11.2105 5.38315 11.1885C5.43624 11.1665 5.48447 11.1343 5.5251 11.0937C5.56573 11.053 5.59795 11.0048 5.61994 10.9517C5.64193 10.8987 5.65325 10.8418 5.65325 10.7843C5.65326 10.7269 5.64194 10.67 5.61996 10.6169C5.59797 10.5638 5.56575 10.5156 5.52512 10.4749C5.19972 10.1502 4.94157 9.76439 4.76543 9.33972C4.58929 8.91505 4.49862 8.45981 4.49862 8.00006C4.49862 7.54031 4.58929 7.08507 4.76543 6.6604C4.94157 6.23573 5.19972 5.84997 5.52512 5.52518Z" fill="#FFB74D"/>
<path d="M12.375 8.00006C12.3757 7.42543 12.2628 6.85633 12.0429 6.32544C11.823 5.79455 11.5004 5.31234 11.0936 4.90648C11.053 4.86585 11.0048 4.83362 10.9517 4.81163C10.8986 4.78964 10.8417 4.77832 10.7843 4.77832C10.7268 4.77832 10.6699 4.78963 10.6168 4.81162C10.5638 4.8336 10.5155 4.86583 10.4749 4.90645C10.4343 4.94708 10.402 4.9953 10.3801 5.04838C10.3581 5.10147 10.3468 5.15836 10.3467 5.21581C10.3467 5.27327 10.3581 5.33016 10.38 5.38324C10.402 5.43632 10.4343 5.48455 10.4749 5.52518C10.8003 5.84997 11.0584 6.23573 11.2346 6.6604C11.4107 7.08507 11.5014 7.54031 11.5014 8.00006C11.5014 8.45981 11.4107 8.91505 11.2346 9.33972C11.0584 9.76439 10.8003 10.1502 10.4749 10.4749C10.3928 10.557 10.3467 10.6683 10.3467 10.7843C10.3468 10.9003 10.3929 11.0116 10.4749 11.0937C10.557 11.1757 10.6682 11.2218 10.7843 11.2218C10.9003 11.2218 11.0116 11.1757 11.0936 11.0936C11.5004 10.6878 11.823 10.2056 12.0429 9.67467C12.2628 9.14379 12.3757 8.57469 12.375 8.00006V8.00006Z" fill="#FFB74D"/>
<path d="M2.75929 10.2137C2.31829 9.17115 2.19873 8.02065 2.41592 6.90971C2.63311 5.79877 3.17717 4.77802 3.97833 3.97833C4.06027 3.89625 4.10628 3.785 4.10623 3.66902C4.10618 3.55304 4.06009 3.44183 3.97808 3.35982C3.89606 3.27781 3.78484 3.23173 3.66886 3.23169C3.55288 3.23165 3.44164 3.27767 3.35957 3.35962C2.74958 3.96866 2.26565 4.69199 1.93547 5.48823C1.60529 6.28448 1.43534 7.13801 1.43534 7.99999C1.43534 8.86198 1.60529 9.71551 1.93547 10.5118C2.26565 11.308 2.74958 12.0313 3.35957 12.6404C3.40019 12.681 3.44842 12.7132 3.5015 12.7352C3.55458 12.7572 3.61148 12.7685 3.66893 12.7685C3.72639 12.7685 3.78328 12.7572 3.83636 12.7352C3.88944 12.7132 3.93767 12.681 3.9783 12.6404C4.01893 12.5998 4.05116 12.5515 4.07315 12.4985C4.09514 12.4454 4.10646 12.3885 4.10646 12.331C4.10646 12.2736 4.09515 12.2167 4.07316 12.1636C4.05118 12.1105 4.01895 12.0623 3.97833 12.0217C3.4588 11.5036 3.0448 10.8896 2.75929 10.2137V10.2137Z" fill="#FFD54F"/>
<path d="M14.0466 5.44542C13.7173 4.6657 13.2397 3.95732 12.6404 3.3596C12.5998 3.31897 12.5516 3.28675 12.4985 3.26476C12.4454 3.24277 12.3885 3.23145 12.3311 3.23145C12.2736 3.23144 12.2167 3.24276 12.1636 3.26474C12.1106 3.28673 12.0623 3.31895 12.0217 3.35958C11.9811 3.4002 11.9488 3.44843 11.9269 3.50151C11.9049 3.55459 11.8935 3.61148 11.8935 3.66894C11.8935 3.72639 11.9049 3.78328 11.9268 3.83637C11.9488 3.88945 11.981 3.93768 12.0217 3.97831C12.5504 4.50609 12.9699 5.13297 13.2561 5.82305C13.5423 6.51314 13.6897 7.25289 13.6897 7.99998C13.6897 8.74706 13.5423 9.48681 13.2561 10.1769C12.9699 10.867 12.5504 11.4939 12.0217 12.0216C11.9396 12.1037 11.8935 12.215 11.8935 12.331C11.8935 12.447 11.9396 12.5583 12.0217 12.6404C12.1037 12.7224 12.215 12.7685 12.3311 12.7685C12.4471 12.7685 12.5584 12.7224 12.6404 12.6403C13.5634 11.7166 14.1901 10.5388 14.4405 9.25728C14.691 7.97575 14.5538 6.64865 14.0466 5.44542V5.44542Z" fill="#FFD54F"/>
</svg>
