<svg width="16" height="16" viewBox="0 0 16 16" fill="none" xmlns="http://www.w3.org/2000/svg">
<path d="M3.36115 8C3.547 8.15237 3.69684 8.34398 3.79991 8.56108C4.0625 9.10267 4.0625 9.76538 4.0625 10.4062C4.0625 11.7359 4.11826 12.375 5.375 12.375C5.49103 12.375 5.60231 12.4211 5.68436 12.5031C5.76641 12.5852 5.8125 12.6965 5.8125 12.8125C5.8125 12.9285 5.76641 13.0398 5.68436 13.1219C5.60231 13.2039 5.49103 13.25 5.375 13.25C4.41898 13.25 3.77133 12.914 3.4501 12.2514C3.1875 11.7098 3.1875 11.0471 3.1875 10.4062C3.1875 9.07661 3.13174 8.4375 1.875 8.4375C1.75897 8.4375 1.64769 8.39141 1.56564 8.30936C1.48359 8.22731 1.4375 8.11603 1.4375 8C1.4375 7.88397 1.48359 7.77269 1.56564 7.69064C1.64769 7.60859 1.75897 7.5625 1.875 7.5625C3.13174 7.5625 3.1875 6.92339 3.1875 5.59375C3.1875 4.95288 3.1875 4.29017 3.4501 3.74858C3.77133 3.08598 4.41898 2.75 5.375 2.75C5.49103 2.75 5.60231 2.79609 5.68436 2.87814C5.76641 2.96019 5.8125 3.07147 5.8125 3.1875C5.8125 3.30353 5.76641 3.41481 5.68436 3.49686C5.60231 3.57891 5.49103 3.625 5.375 3.625C4.11826 3.625 4.0625 4.26411 4.0625 5.59375C4.0625 6.23462 4.0625 6.89733 3.7999 7.43892C3.69683 7.65602 3.547 7.84763 3.36115 8ZM14.125 7.5625C12.8683 7.5625 12.8125 6.92339 12.8125 5.59375C12.8125 4.95288 12.8125 4.29017 12.5499 3.74858C12.2287 3.08598 11.581 2.75 10.625 2.75C10.509 2.75 10.3977 2.79609 10.3156 2.87814C10.2336 2.96019 10.1875 3.07147 10.1875 3.1875C10.1875 3.30353 10.2336 3.41481 10.3156 3.49686C10.3977 3.57891 10.509 3.625 10.625 3.625C11.8817 3.625 11.9375 4.26411 11.9375 5.59375C11.9375 6.23462 11.9375 6.89733 12.2001 7.43892C12.3032 7.65602 12.453 7.84763 12.6389 8C12.453 8.15237 12.3032 8.34398 12.2001 8.56108C11.9375 9.10267 11.9375 9.76538 11.9375 10.4062C11.9375 11.7359 11.8817 12.375 10.625 12.375C10.509 12.375 10.3977 12.4211 10.3156 12.5031C10.2336 12.5852 10.1875 12.6965 10.1875 12.8125C10.1875 12.9285 10.2336 13.0398 10.3156 13.1219C10.3977 13.2039 10.509 13.25 10.625 13.25C11.581 13.25 12.2287 12.914 12.5499 12.2514C12.8125 11.7098 12.8125 11.0471 12.8125 10.4062C12.8125 9.07661 12.8683 8.4375 14.125 8.4375C14.241 8.4375 14.3523 8.39141 14.4344 8.30936C14.5164 8.22731 14.5625 8.11603 14.5625 8C14.5625 7.88397 14.5164 7.77269 14.4344 7.69064C14.3523 7.60859 14.241 7.5625 14.125 7.5625Z" fill="#90A4AE"/>
</svg>
