<svg width="24" height="24" viewBox="0 0 24 24" fill="none" xmlns="http://www.w3.org/2000/svg">
<path d="M21.1 7.1L15.3 1.3L14.5 2L15.2 1.3L14.9 1H14.5H4.49995V2V2.8V1C3.99995 1 3.49995 1.2 3.19995 1.5C2.89995 1.8 2.69995 2.3 2.69995 2.8V21.1C2.69995 21.6 2.89995 22.1 3.19995 22.4C3.49995 22.7 3.99995 23 4.49995 23V21.2V22V23H19.5V21.2V22V23C20 23 20.5 22.8 20.8 22.5C21.1 22.2 21.3 21.7 21.3 21.2V7.9V7.5L21.1 7.1ZM15.5 4.4L17.9 6.8H15.5V4.4ZM19.4 21H4.69995V3H13.5V7.8V8.8H14.5H19.3L19.4 21ZM20.4 21.2H20.1H19.6H20.4Z" fill="#90A4AE"/>
<path d="M9.49988 19.7C9.19988 19.7 8.99988 19.6 8.79988 19.4L6.29988 16.9C6.19988 16.8 6.09988 16.7 6.09988 16.6C6.09988 16.5 5.99988 16.4 5.99988 16.2C5.99988 16.1 5.99988 15.9 6.09988 15.8C6.09988 15.7 6.19988 15.6 6.29988 15.5L8.79988 13C9.19988 12.6 9.79988 12.6 10.1999 13C10.5999 13.4 10.5999 14 10.1999 14.4L9.39988 15.2H15.9999V12.9C15.9999 12.3 16.3999 11.9 16.9999 11.9C17.5999 11.9 17.9999 12.3 17.9999 12.9V16.2C17.9999 16.8 17.5999 17.2 16.9999 17.2H9.39988L10.1999 18C10.5999 18.4 10.5999 19 10.1999 19.4C9.99988 19.6 9.79988 19.7 9.49988 19.7Z" fill="#81C784"/>
</svg>
