<svg width="16" height="16" viewBox="0 0 16 16" fill="none" xmlns="http://www.w3.org/2000/svg">
<path fill-rule="evenodd" clip-rule="evenodd" d="M7.09789 4.02921C7.09789 2.99822 7.9003 2.16663 8.89238 2.16663C9.88446 2.16663 10.6869 3.00309 10.6869 4.02921C10.6869 5.05533 9.88446 5.89179 8.89238 5.89179C8.57142 5.89179 8.2699 5.80425 8.00729 5.64863L6.44623 7.29237H10.2978C10.4972 6.48509 11.1975 5.89179 12.0388 5.89179C13.0309 5.89179 13.8333 6.72825 13.8333 7.75437C13.8333 8.78049 13.0309 9.61695 12.0388 9.61695C11.217 9.61695 10.5264 9.0431 10.3124 8.265H6.02313L8.02675 10.3416C8.28449 10.1908 8.58114 10.1081 8.89725 10.1081C9.88933 10.1081 10.6917 10.9446 10.6917 11.9707C10.6917 12.9968 9.88933 13.8333 8.89725 13.8333C7.90517 13.8333 7.10275 12.9968 7.10275 11.9707C7.10275 11.6303 7.19029 11.3093 7.34591 11.037L5.33743 8.9507C5.00674 9.35921 4.51556 9.61695 3.96116 9.61695C2.96908 9.61695 2.16666 8.78049 2.16666 7.75437C2.16666 6.72825 2.96908 5.89179 3.96116 5.89179C4.63714 5.89179 5.22558 6.27598 5.53196 6.84983L7.34104 4.94834C7.19028 4.676 7.10761 4.3599 7.10761 4.02921H7.09789ZM3.9563 6.82551C3.46026 6.82551 3.05662 7.24374 3.05662 7.75923C3.05662 8.27473 3.46026 8.69296 3.9563 8.69296C4.45234 8.69296 4.85598 8.27473 4.85598 7.75923C4.85598 7.24374 4.45234 6.82551 3.9563 6.82551Z" fill="#64B5F6"/>
</svg>
