<svg width="24" height="24" viewBox="0 0 24 24" fill="none" xmlns="http://www.w3.org/2000/svg">
<path d="M22.1137 7.04739C22.1137 6.94313 22.0095 6.83886 21.9052 6.7346L16.4834 1.3128C16.3791 1.20853 16.2749 1.10427 16.1706 1.10427C16.0663 1 15.9621 1 15.7535 1H6.47393C5.9526 1 5.53554 1.20853 5.22274 1.52133C4.90995 1.83412 4.70142 2.35545 4.70142 2.77251V11.4265C5.32701 11.0095 6.05687 10.6967 6.78672 10.5924V3.08531H14.7109V7.46445C14.7109 8.09005 15.128 8.50711 15.7535 8.50711H20.1327V20.3934H13.1469C12.5213 21.3318 11.6872 22.0616 10.6445 22.4787H20.4455C20.9668 22.4787 21.3839 22.2701 21.6967 21.9573C22.0095 21.6446 22.218 21.1232 22.218 20.7062V7.46445C22.218 7.25592 22.218 7.15166 22.1137 7.04739ZM16.7962 6.4218V4.54502L18.673 6.4218H16.7962Z" fill="#90A4AE"/>
<path d="M8.03791 10.4883C7.62084 10.4883 7.20378 10.4883 6.78672 10.5925C6.05686 10.801 5.32701 11.0096 4.70141 11.4266C2.9289 12.5736 1.78198 14.5546 1.78198 16.7442C1.78198 20.1849 4.59715 23.0001 8.03791 23.0001C8.97629 23.0001 9.81042 22.7916 10.6445 22.3745C11.6872 21.9574 12.5213 21.2276 13.1469 20.2892C13.8768 19.2465 14.2938 17.9954 14.2938 16.6399C14.2938 13.3034 11.4787 10.4883 8.03791 10.4883ZM7.82938 13.6162C8.24644 13.6162 8.55923 13.929 8.55923 14.3461C8.55923 14.7631 8.24644 15.0759 7.82938 15.0759C7.41231 15.0759 7.09952 14.7631 7.09952 14.3461C7.09952 14.0333 7.41231 13.6162 7.82938 13.6162ZM7.62084 15.493H8.03791C8.45497 15.493 8.76776 15.8058 8.76776 16.2228V18.621C8.97629 18.7252 9.18483 19.038 9.18483 19.3508C9.18483 19.7679 8.87203 20.0807 8.45497 20.0807H8.03791C7.62084 20.0807 7.30805 19.7679 7.30805 19.3508V16.9527C7.09952 16.8484 6.89099 16.5356 6.89099 16.2228C6.78672 15.9101 7.20378 15.493 7.62084 15.493Z" fill="#64B5F6"/>
</svg>
