<svg width="24" height="24" viewBox="0 0 24 24" fill="none" xmlns="http://www.w3.org/2000/svg">
<path fill-rule="evenodd" clip-rule="evenodd" d="M13.1411 2.14172C13.1411 1.51117 12.63 1 11.9994 1C11.369 1 10.8577 1.51117 10.8577 2.14172V8.56388L7.79983 5.50608C7.35399 5.0602 6.63117 5.0602 6.18521 5.50608C5.73937 5.95197 5.73937 6.6748 6.18521 7.12075L11.1912 12.1267C11.6371 12.5726 12.36 12.5726 12.8059 12.1267L17.8119 7.12075C18.2577 6.6748 18.2577 5.95197 17.8119 5.50608C17.3659 5.0602 16.6431 5.0602 16.1973 5.50608L13.1411 8.56217V2.14172Z" fill="#FFB74D"/>
<path fill-rule="evenodd" clip-rule="evenodd" d="M6.28377 10.485H6.99198H6.99403C7.22443 10.485 7.41122 10.2982 7.41122 10.0678C7.41122 9.83737 7.22443 9.65059 6.99403 9.65059H6.99175H5.71302C4.94956 9.65059 4.23665 10.0322 3.81314 10.6674L1.15369 14.6566V20.7165C1.15369 21.9776 2.17602 22.9999 3.43712 22.9999H20.5629C21.824 22.9999 22.8463 21.9776 22.8463 20.7165V14.6566L20.1869 10.6674C19.7634 10.0322 19.0505 9.65059 18.287 9.65059H17.0079H17.0056C16.7752 9.65059 16.5885 9.83737 16.5885 10.0678C16.5885 10.2982 16.7752 10.485 17.0056 10.485H17.0077H17.7155C18.4753 10.485 19.1854 10.863 19.6097 11.4933L21.1773 13.8222H2.82194L4.38948 11.4933C4.81381 10.863 5.52384 10.485 6.28377 10.485Z" fill="#90A4AE"/>
</svg>
