<svg width="24" height="24" viewBox="0 0 24 24" fill="none" xmlns="http://www.w3.org/2000/svg">
<path d="M9.32902 17.2846L7.4909 16.2507C6.91649 15.906 6.22719 16.1358 5.88255 16.7102C5.65278 17.0549 5.65278 17.3995 5.88255 17.7442C5.88255 17.7442 5.88255 17.7442 5.76766 17.7442C5.42302 17.6293 5.07837 17.3995 4.8486 17.0549C4.61884 16.7102 4.50396 16.3656 4.38907 15.906C4.38907 15.4465 4.50396 15.1019 4.61884 14.7572C4.96349 14.1828 4.73372 13.4935 4.15931 13.1489C3.5849 12.8042 2.8956 13.034 2.55095 13.6084C2.09142 14.2977 1.86166 15.2168 1.97654 16.0209C1.97654 16.8251 2.32119 17.7442 2.8956 18.4335C3.35513 19.1228 4.15931 19.5823 4.96349 19.9269C5.42302 20.0418 5.99743 20.1567 6.45696 20.1567C6.45696 20.6162 6.68673 20.9609 7.03137 21.1906C7.60579 21.5353 8.29508 21.3055 8.63973 20.7311L9.67367 19.0079L9.78855 18.893V18.7781V17.9739C9.67367 17.6293 9.55879 17.5144 9.32902 17.2846Z" fill="#81C784"/>
<path d="M8.5248 1.77546C8.29504 1.31593 7.83551 1.08617 7.37598 1.08617C6.91645 1.08617 6.45692 1.31593 6.22715 1.77546L1.17232 10.3916C0.942559 10.8512 0.942559 11.3107 1.17232 11.7702C1.40209 12.1149 1.86162 12.3447 2.32115 12.3447H9.78851V12.1149C9.78851 11.7702 9.90339 11.5405 10.0183 11.1958C10.3629 10.3916 11.0522 9.93212 11.8564 9.81724C11.9713 9.81724 11.9713 9.81724 12.0862 9.81724H13.1201L8.5248 1.77546Z" fill="#FFB74D"/>
<path d="M20.7024 9.81732H13.1202H12.0862C11.9713 9.81732 11.9713 9.81732 11.8565 9.81732C11.0523 9.9322 10.2481 10.3917 10.0183 11.1959C9.90346 11.4257 9.78857 11.7703 9.78857 12.115V12.3447V17.8591V18.6633V20.6163C9.78857 21.88 10.8225 22.9139 12.0862 22.9139H20.7024C21.9661 22.9139 23.0001 21.88 23.0001 20.6163V12.0001C23.0001 10.8513 21.9661 9.81732 20.7024 9.81732Z" fill="#64B5F6"/>
</svg>
