<svg width="24" height="24" viewBox="0 0 24 24" fill="none" xmlns="http://www.w3.org/2000/svg">
<path d="M21.3509 7.39678C21.3509 7.28611 21.2402 7.17545 21.1296 7.06479L15.1539 1.08909C15.1539 1.08909 15.1539 1.08909 15.0432 1.08909C15.0432 1.08909 15.0432 1.08909 14.9326 1.08909C14.9326 1.08909 14.9326 1.08909 14.8219 1.08909C14.8219 1.08909 14.8219 1.08909 14.7112 1.08909H14.6006H4.30909C3.86644 0.867767 3.4238 1.08909 3.20248 1.42107C2.87049 1.6424 2.64917 2.08504 2.64917 2.52768V21.2294C2.64917 21.6721 2.87049 22.1147 3.20248 22.4467C3.4238 22.7787 3.86644 23 4.30909 23H19.5803C20.023 23 20.4656 22.7787 20.7976 22.4467C21.1296 22.1147 21.3509 21.6721 21.3509 21.2294V7.72876C21.3509 7.6181 21.3509 7.39678 21.3509 7.39678ZM16.1498 14.8111C16.0392 15.5857 15.5965 16.2497 15.0432 16.803C14.4899 17.3563 13.8259 17.6883 13.0513 17.9096C12.2767 18.0202 11.5021 18.0202 10.8381 17.6883L8.18223 20.7868C8.07157 20.8974 7.85024 21.1188 7.62892 21.1188C7.4076 21.2294 7.18628 21.2294 6.96495 21.2294C6.74363 21.2294 6.52231 21.2294 6.30099 21.1188C6.07967 21.0081 5.85834 20.8974 5.74768 20.7868C5.63702 20.6761 5.4157 20.4548 5.4157 20.2335C5.30504 20.0121 5.30504 19.7908 5.30504 19.5695C5.30504 19.3482 5.30504 19.1269 5.4157 18.9055C5.52636 18.6842 5.63702 18.4629 5.74768 18.3522L8.95686 15.5857C8.62487 14.9217 8.51421 14.1471 8.73553 13.3725C8.84619 12.5978 9.28884 11.9339 9.73148 11.3806C10.2848 10.8273 10.9488 10.4953 11.7234 10.274C12.498 10.1633 13.2726 10.1633 13.9366 10.4953C14.0473 10.4953 14.0473 10.6059 14.0473 10.6059C14.0473 10.6059 14.1579 10.7166 14.1579 10.8273C14.1579 10.9379 14.1579 10.9379 14.1579 11.0486C14.1579 11.1593 14.0473 11.1593 14.0473 11.2699L11.9447 13.3725L12.166 14.3684L13.162 14.5898L15.2645 12.4872C15.2645 12.4872 15.3752 12.3765 15.4859 12.3765C15.5965 12.3765 15.5965 12.3765 15.7072 12.3765C15.8178 12.3765 15.8178 12.3765 15.9285 12.4872L16.0392 12.5979C16.2605 13.2618 16.3712 14.0364 16.1498 14.8111ZM14.6006 7.72876V2.97033L19.359 7.72876H14.6006Z" fill="#81C784"/>
</svg>
