<svg width="16" height="16" viewBox="0 0 16 16" fill="none" xmlns="http://www.w3.org/2000/svg">
<path fill-rule="evenodd" clip-rule="evenodd" d="M10.6129 2.29564L13.7063 5.43666C13.7884 5.52215 13.834 5.63699 13.8333 5.75637V12.9359C13.8333 13.1739 13.7402 13.4021 13.5745 13.5704C13.4087 13.7387 13.1839 13.8333 12.9495 13.8333H4.55304C4.43584 13.8333 4.32343 13.786 4.24056 13.7019C4.15768 13.6177 4.11112 13.5036 4.11112 13.3846C4.11112 13.2656 4.15768 13.1514 4.24056 13.0673C4.32343 12.9831 4.43584 12.9359 4.55304 12.9359H12.9495V6.20509H10.298C10.1808 6.20509 10.0684 6.15782 9.9855 6.07367C9.90263 5.98952 9.85607 5.87538 9.85607 5.75637V3.06407H4.99496V6.20509C4.99496 6.3241 4.9484 6.43823 4.86552 6.52238C4.78265 6.60654 4.67025 6.65381 4.55304 6.65381C4.43584 6.65381 4.32343 6.60654 4.24056 6.52238C4.15768 6.43823 4.11112 6.3241 4.11112 6.20509V3.06407C4.11112 2.82605 4.20424 2.59779 4.36999 2.42949C4.53574 2.26118 4.76055 2.16663 4.99496 2.16663H10.298C10.4156 2.16596 10.5287 2.2123 10.6129 2.29564ZM12.3253 5.30766L10.7399 3.69788V5.30766H12.3253Z" fill="#90A4AE"/>
<path d="M2.87374 9.67551V9.16575H3.75758C3.85134 9.16575 3.94127 9.12995 4.00757 9.06622C4.07387 9.00249 4.11112 8.91605 4.11112 8.82592C4.11112 8.73579 4.07387 8.64935 4.00757 8.58562C3.94127 8.52189 3.85134 8.48608 3.75758 8.48608H2.52021C2.42644 8.48608 2.33652 8.52189 2.27022 8.58562C2.20392 8.64935 2.16667 8.73579 2.16667 8.82592V10.8649C2.16667 10.9551 2.20392 11.0415 2.27022 11.1052C2.33652 11.169 2.42644 11.2048 2.52021 11.2048C2.61397 11.2048 2.70389 11.169 2.77019 11.1052C2.8365 11.0415 2.87374 10.9551 2.87374 10.8649V10.3552H3.58081C3.67458 10.3552 3.7645 10.3194 3.8308 10.2556C3.8971 10.1919 3.93435 10.1055 3.93435 10.0153C3.93435 9.92521 3.8971 9.83877 3.8308 9.77504C3.7645 9.71131 3.67458 9.67551 3.58081 9.67551H2.87374Z" fill="#7986CB"/>
<path d="M11.7853 9.06622C11.8516 9.00249 11.8889 8.91605 11.8889 8.82592C11.8889 8.73579 11.8516 8.64935 11.7853 8.58562C11.719 8.52189 11.6291 8.48608 11.5354 8.48608H9.94445C9.85069 8.48608 9.76076 8.52189 9.69446 8.58562C9.62816 8.64935 9.59091 8.73579 9.59091 8.82592C9.59091 8.91605 9.62816 9.00249 9.69446 9.06622C9.76076 9.12995 9.85069 9.16575 9.94445 9.16575H10.3864V10.8649C10.3864 10.9551 10.4236 11.0415 10.4899 11.1052C10.5562 11.169 10.6461 11.2048 10.7399 11.2048C10.8337 11.2048 10.9236 11.169 10.9899 11.1052C11.0562 11.0415 11.0934 10.9551 11.0934 10.8649V9.16575H11.5354C11.6291 9.16575 11.719 9.12995 11.7853 9.06622Z" fill="#7986CB"/>
<path d="M6.33839 10.428H5.4899V8.87447C5.4899 8.77146 5.44521 8.67267 5.36565 8.59984C5.28609 8.527 5.17818 8.48608 5.06566 8.48608C4.95315 8.48608 4.84524 8.527 4.76568 8.59984C4.68612 8.67267 4.64142 8.77146 4.64142 8.87447V10.8164C4.64142 10.9194 4.68612 11.0182 4.76568 11.091C4.84524 11.1638 4.95315 11.2048 5.06566 11.2048H6.33839C6.4509 11.2048 6.55881 11.1638 6.63837 11.091C6.71794 11.0182 6.76263 10.9194 6.76263 10.8164C6.76263 10.7134 6.71794 10.6146 6.63837 10.5418C6.55881 10.4689 6.4509 10.428 6.33839 10.428Z" fill="#7986CB"/>
<path d="M7.1437 10.7358L8.02754 8.69679C8.05418 8.63446 8.09949 8.58115 8.15772 8.54363C8.21594 8.50612 8.28446 8.48608 8.35456 8.48608C8.42466 8.48608 8.49318 8.50612 8.55141 8.54363C8.60963 8.58115 8.65494 8.63446 8.68158 8.69679L9.56542 10.7358C9.58341 10.7771 9.59276 10.8214 9.59295 10.8661C9.59314 10.9109 9.58415 10.9552 9.56651 10.9967C9.54886 11.0381 9.5229 11.0757 9.49011 11.1075C9.45732 11.1393 9.41834 11.1645 9.37539 11.1818C9.33245 11.1991 9.28638 11.2081 9.23982 11.2083C9.19326 11.2085 9.14712 11.1998 9.10403 11.1829C9.06094 11.1659 9.02175 11.141 8.9887 11.1094C8.95564 11.0779 8.92937 11.0405 8.91138 10.9992L8.85374 10.8659H7.85538L7.79774 10.9992C7.77975 11.0405 7.75348 11.0779 7.72042 11.1094C7.68737 11.141 7.64818 11.1659 7.60509 11.1829C7.562 11.1998 7.51586 11.2085 7.4693 11.2083C7.42274 11.2081 7.37667 11.1991 7.33373 11.1818C7.29078 11.1645 7.2518 11.1393 7.21901 11.1075C7.18622 11.0757 7.16026 11.0381 7.14261 10.9967C7.12497 10.9552 7.11598 10.9109 7.11617 10.8661C7.11636 10.8214 7.12571 10.7771 7.1437 10.7358Z" fill="#7986CB"/>
<path d="M8.55972 10.1863L8.35457 9.71204L8.14942 10.1863H8.55972Z" fill="#1A1A1A"/>
</svg>
