<svg width="24" height="24" viewBox="0 0 24 24" fill="none" xmlns="http://www.w3.org/2000/svg">
<path fill-rule="evenodd" clip-rule="evenodd" d="M6.90523 9.79997C6.44207 10.2631 6.44207 10.9579 6.90523 11.421C7.36839 11.8842 8.06312 11.8842 8.52628 11.421L11.6526 8.29471L14.7789 11.421C15.2421 11.8842 15.9368 11.8842 16.4 11.421C16.8631 10.9579 16.8631 10.2631 16.4 9.79997L13.2737 6.67365L16.4 3.54734C16.8631 3.08418 16.8631 2.38944 16.4 1.92629C15.9368 1.46313 15.2421 1.46313 14.7789 1.92629L11.7684 5.0526L8.64207 1.92629C8.17891 1.46313 7.48418 1.46313 7.02102 1.92629C6.55786 2.38944 6.55786 3.08418 7.02102 3.54734L10.1473 6.67365L6.90523 9.79997Z" fill="#E57373"/>
<path fill-rule="evenodd" clip-rule="evenodd" d="M20.3368 9.91585C19.8737 9.22112 19.1789 8.87375 18.3684 8.87375H17.0947C16.8632 8.87375 16.6316 9.10533 16.6316 9.33691C16.6316 9.56849 16.8632 9.80006 17.0947 9.80006H17.7895C18.6 9.80006 19.2947 10.1474 19.7579 10.8422L21.3789 13.158H2.73684L4.35789 10.8422C4.82105 10.1474 5.51579 9.80006 6.32632 9.80006H7.02105C7.25263 9.80006 7.48421 9.56849 7.48421 9.33691C7.48421 9.10533 7.25263 8.87375 7.02105 8.87375H5.63158C4.82105 8.87375 4.12632 9.22112 3.66316 9.91585L1 13.9685V20.1053C1 21.379 2.04211 22.4211 3.31579 22.4211H20.6842C21.9579 22.4211 23 21.379 23 20.1053V13.9685L20.3368 9.91585Z" fill="#90A4AE"/>
</svg>
