<svg width="16" height="16" viewBox="0 0 16 16" fill="none" xmlns="http://www.w3.org/2000/svg">
<path d="M4.83611 5.53242C4.76182 5.44328 4.65517 5.3873 4.53961 5.3768C4.42406 5.36629 4.30906 5.40212 4.21991 5.4764L1.59491 7.6639C1.54564 7.70496 1.50601 7.75634 1.4788 7.81442C1.4516 7.8725 1.4375 7.93585 1.4375 7.99998C1.4375 8.06412 1.4516 8.12746 1.4788 8.18554C1.50601 8.24362 1.54564 8.29501 1.59491 8.33607L4.21991 10.5236C4.26403 10.5605 4.315 10.5883 4.36988 10.6055C4.42477 10.6226 4.48251 10.6288 4.53979 10.6237C4.59707 10.6185 4.65277 10.6021 4.7037 10.5754C4.75464 10.5487 4.79981 10.5122 4.83663 10.468C4.87345 10.4238 4.90119 10.3728 4.91828 10.3179C4.93537 10.263 4.94146 10.2053 4.93621 10.148C4.93096 10.0907 4.91447 10.035 4.88768 9.98415C4.86089 9.93326 4.82433 9.88815 4.78009 9.8514L2.55841 7.99998L4.78009 6.14857C4.86922 6.07429 4.92519 5.96765 4.9357 5.8521C4.94621 5.73655 4.91038 5.62156 4.83611 5.53242V5.53242Z" fill="#90A4AE"/>
<path d="M14.4051 7.66388L11.7801 5.47638C11.736 5.43949 11.685 5.41166 11.6301 5.39448C11.5752 5.3773 11.5175 5.37112 11.4602 5.37628C11.4029 5.38143 11.3472 5.39784 11.2963 5.42454C11.2454 5.45125 11.2002 5.48774 11.1634 5.53192C11.1266 5.5761 11.0988 5.62711 11.0817 5.68202C11.0646 5.73694 11.0585 5.79468 11.0638 5.85195C11.069 5.90922 11.0855 5.9649 11.1123 6.01579C11.1391 6.06668 11.1757 6.11179 11.2199 6.14854L13.4416 7.99996L11.2199 9.85138C11.1757 9.88812 11.1391 9.93324 11.1123 9.98413C11.0855 10.035 11.069 10.0907 11.0638 10.148C11.0585 10.2052 11.0646 10.263 11.0817 10.3179C11.0988 10.3728 11.1266 10.4238 11.1634 10.468C11.2002 10.5122 11.2454 10.5487 11.2963 10.5754C11.3472 10.6021 11.4029 10.6185 11.4602 10.6236C11.5175 10.6288 11.5752 10.6226 11.6301 10.6054C11.685 10.5883 11.736 10.5604 11.7801 10.5235L14.4051 8.33604C14.4544 8.29498 14.494 8.2436 14.5212 8.18552C14.5484 8.12744 14.5625 8.06409 14.5625 7.99996C14.5625 7.93583 14.5484 7.87248 14.5212 7.8144C14.494 7.75632 14.4544 7.70493 14.4051 7.66388V7.66388Z" fill="#90A4AE"/>
<path d="M9.89951 2.77639C9.79046 2.73681 9.67016 2.74213 9.56503 2.79119C9.4599 2.84025 9.37854 2.92902 9.33883 3.03802L5.83883 12.663C5.81914 12.717 5.81029 12.7744 5.81277 12.8318C5.81526 12.8893 5.82904 12.9456 5.85333 12.9977C5.87762 13.0498 5.91193 13.0966 5.95432 13.1355C5.9967 13.1743 6.04632 13.2044 6.10035 13.2241C6.15437 13.2437 6.21173 13.2525 6.26916 13.25C6.32659 13.2474 6.38296 13.2336 6.43504 13.2093C6.48712 13.185 6.5339 13.1506 6.5727 13.1082C6.6115 13.0658 6.64157 13.0161 6.66117 12.9621L10.1612 3.3371C10.2008 3.22804 10.1955 3.10771 10.1465 3.00255C10.0974 2.8974 10.0086 2.81605 9.89951 2.77639V2.77639Z" fill="#90A4AE"/>
</svg>
