<svg width="16" height="16" viewBox="0 0 16 16" fill="none" xmlns="http://www.w3.org/2000/svg">
<path d="M7.99968 9.3125C9.69105 9.3125 11.0622 7.94137 11.0622 6.25C11.0622 4.55863 9.69105 3.1875 7.99968 3.1875C6.30831 3.1875 4.93718 4.55863 4.93718 6.25C4.93718 7.94137 6.30831 9.3125 7.99968 9.3125Z" fill="#FFB74D"/>
<path d="M7.99968 1.4375C7.00874 1.43712 6.04186 1.74276 5.2312 2.31266C4.42053 2.88255 3.80564 3.68889 3.47056 4.62145C3.13548 5.55402 3.09656 6.56731 3.35913 7.52283C3.62169 8.47834 4.17293 9.32947 4.9375 9.95986V14.125C4.93749 14.1996 4.95655 14.2729 4.99287 14.3381C5.02918 14.4032 5.08155 14.458 5.14499 14.4972C5.20843 14.5364 5.28084 14.5587 5.35535 14.5621C5.42985 14.5654 5.50398 14.5497 5.57068 14.5163L7.99962 13.3016L10.4294 14.5163C10.4961 14.5497 10.5702 14.5654 10.6447 14.5621C10.7192 14.5587 10.7916 14.5364 10.855 14.4972C10.9185 14.4579 10.9708 14.4032 11.0071 14.338C11.0434 14.2729 11.0625 14.1996 11.0625 14.125V9.95932C11.8269 9.32885 12.378 8.47771 12.6404 7.52222C12.9028 6.56674 12.8638 5.55353 12.5287 4.62106C12.1935 3.68859 11.5786 2.88235 10.768 2.31254C9.95736 1.74272 8.99055 1.43712 7.99968 1.4375V1.4375ZM7.99968 10.1875C7.22092 10.1875 6.45964 9.95657 5.81212 9.52391C5.1646 9.09125 4.65992 8.4763 4.3619 7.75682C4.06388 7.03733 3.98591 6.24563 4.13784 5.48183C4.28977 4.71803 4.66478 4.01644 5.21545 3.46577C5.76612 2.9151 6.46771 2.54009 7.23151 2.38816C7.99531 2.23623 8.78701 2.3142 9.5065 2.61222C10.226 2.91024 10.8409 3.41492 11.2736 4.06244C11.7062 4.70996 11.9372 5.47124 11.9372 6.25C11.936 7.29393 11.5208 8.29476 10.7826 9.03293C10.0444 9.7711 9.04361 10.1863 7.99968 10.1875V10.1875Z" fill="#FFB74D"/>
</svg>
