<svg width="24" height="24" viewBox="0 0 24 24" fill="none" xmlns="http://www.w3.org/2000/svg">
<path d="M21.4902 4.72058L21.1666 4.61274C21.1666 4.61274 21.0588 4.61274 21.0588 4.5049C21.0588 4.39705 20.951 4.39705 20.951 4.28921V3.96568C20.951 3.21078 20.6274 2.34803 19.8725 1.80882C19.7647 1.70098 19.549 1.59313 19.3333 1.48529C18.4706 1.05392 17.6078 1.2696 16.8529 1.59313L16.6372 1.70098C16.6372 1.70098 16.5294 1.70098 16.4215 1.70098C16.3137 1.70098 16.3137 1.70098 16.2059 1.70098L15.9902 1.59313C15.3431 1.16176 14.3725 1.05392 13.6176 1.48529C13.4019 1.59313 13.2941 1.70098 13.0784 1.80882C12.3235 2.34803 12 3.21078 12 3.96568V4.28921C12 4.28921 12 4.39705 11.8921 4.5049C12 4.5049 12 4.61274 12 4.61274L11.6764 4.72058C11.0294 5.04411 10.3823 5.79902 10.3823 6.7696C10.3823 6.98529 10.3823 7.20098 10.3823 7.30882C10.3823 8.27941 11.0294 8.92647 11.6764 9.35784L12 9.46568C12 9.46568 12.1078 9.46568 12.1078 9.57352C12.1078 9.68137 12.2157 9.68137 12.2157 9.78921V10.1127C12.2157 10.8676 12.5392 11.7304 13.2941 12.2696C13.4019 12.3774 13.6176 12.4853 13.8333 12.5931C14.6961 13.0245 15.5588 12.8088 16.3137 12.4853L16.5294 12.3774C16.5294 12.3774 16.6372 12.3774 16.7451 12.3774C16.8529 12.3774 16.8529 12.3774 16.9608 12.3774L17.1764 12.4853C17.8235 12.9167 18.7941 13.0245 19.549 12.5931C19.7647 12.4853 19.8725 12.3774 20.0882 12.2696C20.8431 11.7304 21.1666 10.8676 21.1666 10.1127V9.78921C21.1666 9.78921 21.1666 9.68137 21.2745 9.57352C21.2745 9.46568 21.3823 9.46568 21.3823 9.46568L21.7059 9.35784C22.3529 9.03431 23 8.27941 23 7.30882C23 7.09313 23 6.87745 23 6.7696C22.7843 5.79902 22.1372 5.15196 21.4902 4.72058ZM16.5294 8.71078C15.6666 8.71078 14.9117 7.95588 14.9117 7.09313C14.9117 6.23039 15.6666 5.47549 16.5294 5.47549C17.3921 5.47549 18.147 6.23039 18.147 7.09313C18.2549 7.95588 17.5 8.71078 16.5294 8.71078Z" fill="#2196F3"/>
<path d="M12.3235 14.75L12 14.5343C12 14.5343 11.8922 14.5343 11.8922 14.4264C11.8922 14.3186 11.7843 14.3186 11.7843 14.2107V13.8872C11.7843 13.1323 11.4608 12.2696 10.7059 11.7303C10.598 11.6225 10.3824 11.5147 10.1667 11.4068C9.30392 10.9754 8.44118 11.1911 7.68627 11.5147L7.47059 11.6225C7.47059 11.6225 7.36275 11.6225 7.2549 11.6225C7.14706 11.6225 7.14706 11.6225 7.03922 11.6225L6.82353 11.5147C6.17647 11.0833 5.20588 10.9754 4.45098 11.4068C4.23529 11.5147 4.12745 11.6225 3.91176 11.7303C3.15686 12.2696 2.83333 13.1323 2.83333 13.8872V14.2107C2.83333 14.2107 2.83333 14.3186 2.72549 14.4264C2.72549 14.5343 2.61765 14.5343 2.61765 14.5343L2.29412 14.6421C1.64706 14.9656 1 15.7205 1 16.6911C1 16.9068 1 17.1225 1 17.2303C1 18.2009 1.64706 18.848 2.29412 19.2794L2.61765 19.3872C2.61765 19.3872 2.72549 19.3872 2.72549 19.495C2.72549 19.6029 2.83333 19.6029 2.83333 19.7107V20.0343C2.83333 20.7892 3.15686 21.6519 3.91176 22.1911C4.01961 22.299 4.23529 22.4068 4.45098 22.5147C5.31373 22.946 6.17647 22.7303 6.93137 22.4068L7.14706 22.299C7.14706 22.299 7.2549 22.299 7.36274 22.299C7.47059 22.299 7.47059 22.299 7.57843 22.299L7.79412 22.4068C8.44118 22.8382 9.41176 22.946 10.1667 22.5147C10.3824 22.4068 10.4902 22.299 10.7059 22.1911C11.4608 21.6519 11.7843 20.7892 11.7843 20.0343V19.7107C11.7843 19.7107 11.7843 19.6029 11.8922 19.495C11.8922 19.3872 12 19.3872 12 19.3872L12.3235 19.2794C12.9706 18.9558 13.6176 18.2009 13.6176 17.2303C13.6176 17.0147 13.6176 16.799 13.6176 16.6911C13.6176 15.8284 12.9706 15.0735 12.3235 14.75ZM7.47059 18.6323C6.60784 18.6323 5.85294 17.8774 5.85294 17.0147C5.85294 16.1519 6.60784 15.397 7.47059 15.397C8.33333 15.397 9.08824 16.1519 9.08824 17.0147C9.08824 17.8774 8.33333 18.6323 7.47059 18.6323Z" fill="#78909C"/>
</svg>
