<svg width="24" height="24" viewBox="0 0 24 24" fill="none" xmlns="http://www.w3.org/2000/svg">
<path d="M22.475 16C22.375 15.7 22.275 15.5 21.975 15.3L21.275 15V14.2C21.275 13.9 21.175 13.6 20.975 13.4C20.475 12.9 19.875 12.6 19.175 12.4C18.875 12.3 18.575 12.3 18.375 12.5L17.675 12.9L16.975 12.5C16.775 12.4 16.475 12.3 16.175 12.4C15.475 12.6 14.875 13 14.375 13.4C14.175 13.6 14.075 13.9 14.075 14.2V15L13.375 15.4C13.175 15.5 12.975 15.8 12.975 16C12.775 15.8 12.675 15.5 12.675 15.2V8.5C12.675 7.8 12.375 7.1 11.975 6.5C11.875 6.4 11.775 6.3 11.775 6.2C11.375 6 10.975 5.7 10.575 5.6C10.475 5.4 10.375 5.2 10.175 5.1L10.075 5L9.375 4.6V3.8C9.375 3.5 9.275 3.2 9.075 3C8.575 2.5 7.975 2.2 7.275 2C7.075 2 6.775 2 6.575 2.1L5.875 2.5L5.175 2.1C4.975 2 4.675 2 4.375 2C3.675 2.2 3.075 2.6 2.575 3C2.375 3.3 2.275 3.6 2.275 3.8V4.6L1.575 5C1.375 5.1 1.175 5.4 1.075 5.7C0.975 6.4 0.975 7.1 1.075 7.8C1.175 8.1 1.275 8.3 1.575 8.5L2.275 8.9V9.7C2.275 10 2.375 10.3 2.575 10.5C3.075 11 3.675 11.3 4.375 11.5C4.675 11.6 4.975 11.6 5.175 11.4L5.875 11L6.575 11.4C6.775 11.5 6.875 11.5 7.075 11.5C7.175 11.5 7.275 11.5 7.375 11.5C8.075 11.3 8.675 10.9 9.175 10.5C9.375 10.3 9.475 10 9.475 9.7V8.9L10.175 8.5C10.275 8.4 10.475 8.3 10.475 8.2C10.575 8.4 10.575 8.5 10.575 8.7V15.4C10.575 16.3 10.875 17.1 11.475 17.7C11.875 18.1 12.375 18.4 12.975 18.5C13.075 18.7 13.175 18.8 13.375 18.9L14.075 19.3V20.1C14.075 20.4 14.175 20.7 14.375 20.9C14.875 21.4 15.475 21.7 16.175 21.9C16.475 22 16.775 22 16.975 21.8L17.675 21.4L18.375 21.8C18.575 21.9 18.675 21.9 18.875 21.9C18.975 21.9 19.075 21.9 19.175 21.9C19.875 21.7 20.475 21.3 20.975 20.9C21.175 20.7 21.275 20.4 21.275 20.1V19.3L21.975 18.9C22.275 18.8 22.375 18.5 22.475 18.2C22.675 17.4 22.675 16.7 22.475 16ZM5.875 7.9C5.175 7.9 4.675 7.4 4.675 6.7C4.675 6 5.175 5.5 5.875 5.5C6.575 5.5 7.075 6 7.075 6.7C7.075 7.4 6.575 7.9 5.875 7.9ZM17.675 18.3C16.975 18.3 16.475 17.8 16.475 17.1C16.475 16.4 16.975 15.9 17.675 15.9C18.375 15.9 18.875 16.4 18.875 17.1C18.875 17.7 18.375 18.3 17.675 18.3Z" fill="#78909C"/>
<path d="M18.775 2C16.975 2 15.375 3.3 15.075 5.1H10.275C10.475 5.2 10.575 5.4 10.675 5.6C11.075 5.8 11.475 6 11.775 6.3C11.875 6.4 11.975 6.5 11.975 6.6H15.175C15.575 8.3 17.075 9.5 18.875 9.5C20.975 9.5 22.675 7.8 22.675 5.7C22.475 3.7 20.775 2 18.775 2Z" fill="#2196F3"/>
</svg>
