<svg width="24" height="24" viewBox="0 0 24 24" fill="none" xmlns="http://www.w3.org/2000/svg">
<path d="M8.76129 9.84571H15.4295C16.0853 9.84571 16.5226 9.40845 16.5226 8.75257C16.5226 8.09668 16.0853 7.65942 15.4295 7.65942H8.76129C8.10541 7.65942 7.66815 8.09668 7.66815 8.75257C7.66815 9.29914 8.10541 9.84571 8.76129 9.84571Z" fill="#673AB7"/>
<path d="M22.4256 2.41237C22.0976 2.08443 21.6604 1.8658 21.1138 1.8658H2.96765C2.42108 1.8658 1.87451 2.08443 1.54657 2.41237C1.21863 2.74031 1 3.28688 1 3.83345V20.2306C1 20.5585 1.10931 20.9958 1.32794 21.2144C1.54657 21.5423 1.7652 21.761 2.09314 21.9796C2.42108 22.0889 2.74903 22.1982 3.18628 22.0889C3.51423 22.0889 3.84217 21.8703 4.17011 21.6517L7.44953 18.9188H21.1138C21.6604 18.9188 22.0976 18.7002 22.4256 18.3722C22.7535 18.0443 22.9721 17.4977 22.9721 17.0605V3.83345C23.0815 3.28688 22.8628 2.74031 22.4256 2.41237ZM20.8952 16.7325H7.23091C7.12159 16.7325 7.01228 16.7325 6.90296 16.8418L6.46571 16.9511C6.35639 16.9511 6.24708 17.0605 6.13776 17.1698L3.18628 19.5747V4.05208H20.8952V16.7325Z" fill="#673AB7"/>
<path d="M8.76129 13.1252H15.4295C16.0853 13.1252 16.5226 12.6879 16.5226 12.032C16.5226 11.3762 16.0853 10.9389 15.4295 10.9389H8.76129C8.10541 10.9389 7.66815 11.3762 7.66815 12.032C7.66815 12.6879 8.10541 13.1252 8.76129 13.1252Z" fill="#673AB7"/>
</svg>
