<svg width="16" height="16" viewBox="0 0 16 16" fill="none" xmlns="http://www.w3.org/2000/svg">
<path fill-rule="evenodd" clip-rule="evenodd" d="M10.4212 2.2928L12.5424 4.44665C12.622 4.52744 12.6667 4.637 12.6667 4.75124V10.782C12.6664 11.0104 12.5769 11.2294 12.4179 11.3909C12.2588 11.5524 12.0431 11.6433 11.8182 11.6435H10.9697V12.5051C10.9694 12.7335 10.88 12.9525 10.7209 13.114C10.5618 13.2755 10.3462 13.3664 10.1212 13.3666H4.18183C3.95688 13.3664 3.74121 13.2755 3.58214 13.114C3.42308 12.9525 3.3336 12.7335 3.33334 12.5051V4.75124C3.3336 4.52283 3.42308 4.30384 3.58214 4.14233C3.74121 3.98082 3.95688 3.88996 4.18183 3.8897H5.03031V3.02816C5.03057 2.79975 5.12005 2.58077 5.27911 2.41925C5.43818 2.25774 5.65384 2.16689 5.8788 2.16663H10.1212C10.2337 2.16663 10.3417 2.21201 10.4212 2.2928ZM10.9697 10.782H11.8182V4.92969L9.94551 3.02816H5.8788V3.8897H8.42425C8.53678 3.8897 8.64469 3.93509 8.72426 4.01588L10.8455 6.16972C10.925 6.25051 10.9697 6.36008 10.9697 6.47432V10.782Z" fill="#2196F3"/>
<path d="M8.3447 8.83461H5.79924C5.68673 8.83461 5.57882 8.78923 5.49926 8.70845C5.4197 8.62766 5.375 8.51809 5.375 8.40385C5.375 8.2896 5.4197 8.18003 5.49926 8.09925C5.57882 8.01846 5.68673 7.97308 5.79924 7.97308H8.3447C8.45721 7.97308 8.56512 8.01846 8.64468 8.09925C8.72424 8.18003 8.76894 8.2896 8.76894 8.40385C8.76894 8.51809 8.72424 8.62766 8.64468 8.70845C8.56512 8.78923 8.45721 8.83461 8.3447 8.83461ZM8.3447 7.11154H5.79924C5.68673 7.11154 5.57882 7.06615 5.49926 6.98537C5.4197 6.90458 5.375 6.79502 5.375 6.68077C5.375 6.56652 5.4197 6.45695 5.49926 6.37617C5.57882 6.29538 5.68673 6.25 5.79924 6.25H8.3447C8.45721 6.25 8.56512 6.29538 8.64468 6.37617C8.72424 6.45695 8.76894 6.56652 8.76894 6.68077C8.76894 6.79502 8.72424 6.90458 8.64468 6.98537C8.56512 7.06615 8.45721 7.11154 8.3447 7.11154Z" fill="white"/>
<rect x="2.16666" y="9.75" width="11.6667" height="4.08333" rx="1" fill="#78909C"/>
</svg>
