<svg width="16" height="16" viewBox="0 0 16 16" fill="none" xmlns="http://www.w3.org/2000/svg">
<path d="M14.125 12.374H13.6872V6.68652C13.6869 6.45454 13.5946 6.23213 13.4306 6.0681C13.2666 5.90406 13.0442 5.81179 12.8122 5.81152H9.31218V3.18652C9.31191 2.95454 9.21964 2.73213 9.0556 2.5681C8.89157 2.40406 8.66916 2.31179 8.43718 2.31152H3.18718C2.9552 2.31179 2.73279 2.40406 2.56875 2.5681C2.40472 2.73213 2.31244 2.95454 2.31218 3.18652V12.374H1.875C1.75897 12.374 1.64769 12.4201 1.56564 12.5022C1.48359 12.5842 1.4375 12.6955 1.4375 12.8115C1.4375 12.9276 1.48359 13.0388 1.56564 13.1209C1.64769 13.2029 1.75897 13.249 1.875 13.249H14.125C14.241 13.249 14.3523 13.2029 14.4344 13.1209C14.5164 13.0388 14.5625 12.9276 14.5625 12.8115C14.5625 12.6955 14.5164 12.5842 14.4344 12.5022C14.3523 12.4201 14.241 12.374 14.125 12.374ZM7.56218 8.43652C7.56218 8.55255 7.51608 8.66383 7.43404 8.74588C7.35199 8.82793 7.24071 8.87402 7.12468 8.87402H5.37468C5.25865 8.87402 5.14737 8.82793 5.06532 8.74588C4.98327 8.66384 4.93718 8.55256 4.93718 8.43652C4.93718 8.32049 4.98327 8.20921 5.06532 8.12716C5.14737 8.04512 5.25865 7.99902 5.37468 7.99902H7.12468C7.24071 7.99902 7.35199 8.04512 7.43404 8.12717C7.51608 8.20921 7.56218 8.32049 7.56218 8.43652ZM4.49968 4.49902H6.24968C6.36571 4.49902 6.47699 4.54512 6.55904 4.62716C6.64109 4.70921 6.68718 4.82049 6.68718 4.93652C6.68718 5.05256 6.64109 5.16384 6.55904 5.24588C6.47699 5.32793 6.36571 5.37402 6.24968 5.37402H4.49968C4.38365 5.37402 4.27237 5.32793 4.19032 5.24588C4.10827 5.16384 4.06218 5.05256 4.06218 4.93652C4.06218 4.82049 4.10827 4.70921 4.19032 4.62716C4.27237 4.54512 4.38365 4.49902 4.49968 4.49902ZM4.49968 10.1865H6.24968C6.36571 10.1865 6.47699 10.2326 6.55904 10.3147C6.64109 10.3967 6.68718 10.508 6.68718 10.624C6.68718 10.7401 6.64109 10.8513 6.55904 10.9334C6.47699 11.0154 6.36571 11.0615 6.24968 11.0615H4.49968C4.38365 11.0615 4.27237 11.0154 4.19032 10.9334C4.10827 10.8513 4.06218 10.7401 4.06218 10.624C4.06218 10.508 4.10827 10.3967 4.19032 10.3147C4.27237 10.2326 4.38365 10.1865 4.49968 10.1865ZM9.31218 6.68652H12.8122V12.374H9.31218V6.68652Z" fill="#2196F3"/>
<path d="M11.4997 10.1865H10.6247C10.5087 10.1865 10.3974 10.2326 10.3153 10.3147C10.2333 10.3967 10.1872 10.508 10.1872 10.624C10.1872 10.7401 10.2333 10.8513 10.3153 10.9334C10.3974 11.0154 10.5087 11.0615 10.6247 11.0615H11.4997C11.6157 11.0615 11.727 11.0154 11.8091 10.9334C11.8911 10.8513 11.9372 10.7401 11.9372 10.624C11.9372 10.508 11.8911 10.3967 11.8091 10.3147C11.727 10.2326 11.6157 10.1865 11.4997 10.1865Z" fill="#2196F3"/>
<path d="M10.6247 8.87402H11.4997C11.6157 8.87402 11.727 8.82793 11.8091 8.74588C11.8911 8.66384 11.9372 8.55256 11.9372 8.43652C11.9372 8.32049 11.8911 8.20921 11.8091 8.12716C11.727 8.04512 11.6157 7.99902 11.4997 7.99902H10.6247C10.5087 7.99902 10.3974 8.04512 10.3153 8.12716C10.2333 8.20921 10.1872 8.32049 10.1872 8.43652C10.1872 8.55256 10.2333 8.66384 10.3153 8.74588C10.3974 8.82793 10.5087 8.87402 10.6247 8.87402Z" fill="#2196F3"/>
</svg>
