<svg width="24" height="24" viewBox="0 0 24 24" fill="none" xmlns="http://www.w3.org/2000/svg">
<path fill-rule="evenodd" clip-rule="evenodd" d="M12.0001 3.17693C11.2373 3.17693 10.5057 3.47996 9.96639 4.01934C9.49715 4.48859 9.20675 5.10333 9.13915 5.75753H14.861C14.8077 5.24058 14.6151 4.74829 14.3052 4.33293L14.2962 4.32093C14.2163 4.21503 14.1288 4.11421 14.0339 4.01934C13.4944 3.47996 12.7629 3.17693 12.0001 3.17693ZM8.42708 2.48002C8.39225 2.51484 8.35796 2.55013 8.32422 2.58585H4.86369C4.36472 2.58585 3.88617 2.78407 3.53335 3.1369C3.18052 3.48972 2.9823 3.96825 2.9823 4.46723V21.1186C2.9823 21.6175 3.18052 22.0961 3.53335 22.4489C3.88618 22.8018 4.36472 23 4.86369 23H19.1363C19.6352 23 20.1138 22.8018 20.4666 22.4489C20.8195 22.0961 21.0177 21.6175 21.0177 21.1186V4.46723C21.0177 3.96826 20.8195 3.48972 20.4666 3.1369C20.1138 2.78406 19.6352 2.58585 19.1363 2.58585H15.6759C15.6423 2.55013 15.608 2.51484 15.5732 2.48002C14.6256 1.53238 13.3403 1 12.0001 1C10.66 1 9.3747 1.53238 8.42708 2.48002ZM17.4345 12.3908C17.8693 11.9758 17.8853 11.2868 17.4703 10.852C17.0551 10.4171 16.3661 10.4011 15.9313 10.8162L10.9179 15.6016L8.78704 13.5676C8.3522 13.1526 7.6632 13.1686 7.24817 13.6034C6.83313 14.0382 6.84913 14.7272 7.28398 15.1423L10.1663 17.8937C10.587 18.2952 11.2489 18.2952 11.6695 17.8938L17.4345 12.3908Z" fill="#FFC107"/>
</svg>
