<svg width="24" height="24" viewBox="0 0 24 24" fill="none" xmlns="http://www.w3.org/2000/svg">
<path d="M17.7462 9.53731H19.7164C21.5771 9.53731 23 8.11443 23 6.25373V4.28358C23 2.42289 21.5771 1 19.7164 1H17.7462C15.8855 1 14.4627 2.42289 14.4627 4.28358V4.39303H9.20892C10.194 4.39303 11.0696 4.83085 11.7263 5.48756C11.9452 5.70647 12.1641 5.92537 12.2736 6.25373H14.4627V6.36318C14.4627 8.11443 15.8855 9.53731 17.7462 9.53731ZM16.6517 4.28358C16.6517 3.62687 17.0895 3.18905 17.7462 3.18905H19.7164C20.3731 3.18905 20.8109 3.62687 20.8109 4.28358V6.25373C20.8109 6.91045 20.3731 7.34826 19.7164 7.34826H17.7462C17.0895 7.34826 16.6517 6.91045 16.6517 6.25373V4.28358Z" fill="#78909C"/>
<path d="M18.7313 14.791C16.7612 14.791 15.1194 16.1044 14.791 17.9651H14.6816C14.2438 17.9651 13.6965 17.7462 13.3682 17.4179C13.0398 17.0895 12.8209 16.6517 12.8209 16.1044V7.89549C12.8209 7.23877 12.602 6.58206 12.2736 6.03479C12.1642 5.81589 11.9453 5.48753 11.7264 5.26862C11.0697 4.61191 10.0846 4.1741 9.20896 4.1741H9.0995C8.66169 2.5323 7.0199 1.21887 5.04975 1.21887C2.8607 1.21887 1 2.97012 1 5.26862C1 7.56713 2.8607 9.31837 5.04975 9.31837C7.0199 9.31837 8.66169 8.00494 8.99005 6.14424H9.0995C9.53731 6.14424 10.0846 6.36315 10.4129 6.69151C10.7413 7.01987 10.9602 7.45768 10.9602 8.00494V16.2139C10.9602 17.199 11.2886 18.0746 12.0547 18.7313C12.7114 19.388 13.6965 19.8258 14.5721 19.8258H14.6816C15.1194 21.6865 16.7612 23 18.6219 23C20.9204 23 22.6716 21.1393 22.6716 18.9502C22.7811 16.6517 21.0299 14.791 18.7313 14.791Z" fill="#FF9800"/>
</svg>
