<svg width="24" height="24" viewBox="0 0 24 24" fill="none" xmlns="http://www.w3.org/2000/svg">
<path d="M9.32896 17.2846L7.49084 16.2507C6.91643 15.906 6.22713 16.1358 5.88249 16.7102C5.65272 17.0549 5.65272 17.3995 5.88249 17.7442C5.88249 17.7442 5.88249 17.7442 5.7676 17.7442C5.42296 17.6293 5.07831 17.3995 4.84854 17.0549C4.61878 16.7102 4.5039 16.3656 4.38901 15.906C4.38901 15.4465 4.5039 15.1019 4.61878 14.7572C4.96343 14.1828 4.73366 13.4935 4.15925 13.1489C3.58484 12.8042 2.89554 13.034 2.55089 13.6084C2.09136 14.2977 1.8616 15.2168 1.97648 16.0209C1.97648 16.8251 2.32113 17.7442 2.89554 18.4335C3.35507 19.1228 4.15925 19.5823 4.96343 19.9269C5.42296 20.0418 5.99737 20.1567 6.4569 20.1567C6.4569 20.6162 6.68666 20.9609 7.03131 21.1906C7.60572 21.5353 8.29502 21.3055 8.63967 20.7311L9.67361 19.0079L9.78849 18.893V18.7781V17.9739C9.67361 17.6293 9.55873 17.5144 9.32896 17.2846Z" fill="#4CAF50"/>
<path d="M8.5248 1.77546C8.29504 1.31593 7.83551 1.08617 7.37598 1.08617C6.91645 1.08617 6.45692 1.31593 6.22715 1.77546L1.17232 10.3916C0.942559 10.8512 0.942559 11.3107 1.17232 11.7702C1.40209 12.1149 1.86162 12.3447 2.32115 12.3447H9.78851V12.1149C9.78851 11.7702 9.90339 11.5405 10.0183 11.1958C10.3629 10.3916 11.0522 9.93212 11.8564 9.81724C11.9713 9.81724 11.9713 9.81724 12.0862 9.81724H13.1201L8.5248 1.77546Z" fill="#FF9800"/>
<path d="M20.7024 9.81732H13.1202H12.0862C11.9713 9.81732 11.9713 9.81732 11.8565 9.81732C11.0523 9.9322 10.2481 10.3917 10.0183 11.1959C9.90346 11.4257 9.78857 11.7703 9.78857 12.115V12.3447V17.8591V18.6633V20.6163C9.78857 21.88 10.8225 22.9139 12.0862 22.9139H20.7024C21.9661 22.9139 23.0001 21.88 23.0001 20.6163V12.0001C23.0001 10.8513 21.9661 9.81732 20.7024 9.81732Z" fill="#2196F3"/>
</svg>
