<svg width="16" height="16" viewBox="0 0 16 16" fill="none" xmlns="http://www.w3.org/2000/svg">
<path fill-rule="evenodd" clip-rule="evenodd" d="M10.6128 2.29564L13.7063 5.43666C13.7884 5.52215 13.834 5.63699 13.8333 5.75637V12.9359C13.8333 13.1739 13.7402 13.4021 13.5745 13.5704C13.4087 13.7387 13.1839 13.8333 12.9495 13.8333H4.55303C4.43583 13.8333 4.32343 13.786 4.24055 13.7019C4.15767 13.6177 4.11111 13.5036 4.11111 13.3846C4.11111 13.2656 4.15767 13.1514 4.24055 13.0673C4.32343 12.9831 4.43583 12.9359 4.55303 12.9359H12.9495V6.20509H10.298C10.1808 6.20509 10.0684 6.15782 9.9855 6.07367C9.90262 5.98952 9.85606 5.87538 9.85606 5.75637V3.06407H4.99495V6.20509C4.99495 6.3241 4.94839 6.43823 4.86552 6.52238C4.78264 6.60653 4.67024 6.65381 4.55303 6.65381C4.43583 6.65381 4.32343 6.60653 4.24055 6.52238C4.15767 6.43823 4.11111 6.3241 4.11111 6.20509V3.06407C4.11111 2.82605 4.20423 2.59779 4.36998 2.42949C4.53574 2.26118 4.76054 2.16663 4.99495 2.16663H10.298C10.4156 2.16596 10.5287 2.2123 10.6128 2.29564ZM12.3253 5.30766L10.7399 3.69788V5.30766H12.3253Z" fill="#78909C"/>
<path d="M9.55553 10.4305H10.3333C10.4364 10.4305 10.5354 10.4715 10.6083 10.5444C10.6812 10.6174 10.7222 10.7163 10.7222 10.8194C10.7222 10.9225 10.6812 11.0215 10.6083 11.0944C10.5354 11.1673 10.4364 11.2083 10.3333 11.2083H9.16664C9.0635 11.2083 8.96459 11.1673 8.89166 11.0944C8.81873 11.0215 8.77776 10.9225 8.77776 10.8194V8.87497C8.77776 8.77183 8.81873 8.67292 8.89166 8.59999C8.96459 8.52706 9.0635 8.48608 9.16664 8.48608C9.26978 8.48608 9.3687 8.52706 9.44163 8.59999C9.51456 8.67292 9.55553 8.77183 9.55553 8.87497V10.4305Z" fill="#FF9800"/>
<path d="M4.42818 9.03052L3.78203 9.84718L4.42818 10.6638C4.48531 10.736 4.50983 10.8268 4.49637 10.9161C4.48291 11.0055 4.43255 11.0861 4.35639 11.1402C4.29473 11.1852 4.21884 11.2092 4.14101 11.2083C4.08528 11.2083 4.03031 11.196 3.98047 11.1723C3.93062 11.1487 3.88726 11.1144 3.85383 11.0722L3.33332 10.4129L2.81281 11.0722C2.77937 11.1144 2.73601 11.1487 2.68617 11.1723C2.63632 11.196 2.58136 11.2083 2.52563 11.2083C2.4478 11.2092 2.3719 11.1852 2.31025 11.1402C2.23408 11.0861 2.18373 11.0055 2.17027 10.9161C2.1568 10.8268 2.18133 10.736 2.23845 10.6638L2.8846 9.84718L2.23845 9.03052C2.21017 8.99477 2.18959 8.95409 2.17789 8.91081C2.16619 8.86752 2.1636 8.82247 2.17027 8.77824C2.17693 8.734 2.19273 8.69144 2.21674 8.65299C2.24076 8.61454 2.27253 8.58095 2.31025 8.55414C2.34796 8.52733 2.39087 8.50782 2.43654 8.49673C2.48221 8.48564 2.52973 8.48319 2.5764 8.48951C2.62306 8.49582 2.66796 8.5108 2.70852 8.53356C2.74909 8.55633 2.78452 8.58645 2.81281 8.62219L3.33332 9.28147L3.85383 8.62219C3.91095 8.55 3.99599 8.50227 4.09024 8.48951C4.18449 8.47674 4.28022 8.49999 4.35639 8.55414C4.43255 8.60829 4.48291 8.6889 4.49637 8.77824C4.50983 8.86757 4.48531 8.95832 4.42818 9.03052Z" fill="#FF9800"/>
<path d="M7.72777 8.50554C7.6496 8.47955 7.5651 8.47972 7.48704 8.50604C7.40898 8.53235 7.34162 8.58336 7.29513 8.65137L6.63888 9.56525L5.98264 8.65137C5.9348 8.58469 5.8671 8.53485 5.78922 8.50899C5.71134 8.48313 5.62728 8.48256 5.54906 8.50738C5.47084 8.53219 5.40247 8.58111 5.35375 8.64714C5.30502 8.71317 5.27843 8.79292 5.27778 8.87498V10.8194C5.27778 10.9226 5.31875 11.0215 5.39168 11.0944C5.46461 11.1673 5.56353 11.2083 5.66667 11.2083C5.76981 11.2083 5.86872 11.1673 5.94165 11.0944C6.01458 11.0215 6.05555 10.9226 6.05555 10.8194V10.0903L6.32291 10.4597C6.35824 10.5108 6.40544 10.5526 6.46048 10.5815C6.51551 10.6104 6.57674 10.6255 6.63888 10.6255C6.70103 10.6255 6.76226 10.6104 6.81729 10.5815C6.87233 10.5526 6.91953 10.5108 6.95485 10.4597L7.22221 10.0903V10.8194C7.22221 10.9226 7.26319 11.0215 7.33612 11.0944C7.40905 11.1673 7.50796 11.2083 7.6111 11.2083C7.71424 11.2083 7.81316 11.1673 7.88609 11.0944C7.95902 11.0215 7.99999 10.9226 7.99999 10.8194V8.87498C8.00123 8.79211 7.97528 8.71112 7.92612 8.6444C7.87695 8.57768 7.80728 8.5289 7.72777 8.50554Z" fill="#FF9800"/>
</svg>
