<svg width="16" height="16" viewBox="0 0 16 16" fill="none" xmlns="http://www.w3.org/2000/svg">
<path fill-rule="evenodd" clip-rule="evenodd" d="M9.83508 2.29564L12.9285 5.43666C13.0106 5.52215 13.0562 5.63699 13.0556 5.75637V12.9359C13.0556 13.1739 12.9624 13.4021 12.7967 13.5704C12.6309 13.7387 12.4061 13.8333 12.1717 13.8333H3.77526C3.65806 13.8333 3.54565 13.786 3.46278 13.7019C3.3799 13.6177 3.33334 13.5036 3.33334 13.3846C3.33334 13.2656 3.3799 13.1514 3.46278 13.0673C3.54565 12.9831 3.65806 12.9359 3.77526 12.9359H12.1717V6.20509H9.52021C9.403 6.20509 9.2906 6.15782 9.20772 6.07367C9.12485 5.98952 9.07829 5.87538 9.07829 5.75637V3.06407H4.21718V6.20509C4.21718 6.3241 4.17062 6.43823 4.08775 6.52238C4.00487 6.60653 3.89247 6.65381 3.77526 6.65381C3.65806 6.65381 3.54565 6.60653 3.46278 6.52238C3.3799 6.43823 3.33334 6.3241 3.33334 6.20509V3.06407C3.33334 2.82605 3.42646 2.59779 3.59221 2.42949C3.75797 2.26118 3.98277 2.16663 4.21718 2.16663H9.52021C9.63778 2.16596 9.75089 2.2123 9.83508 2.29564ZM11.5475 5.30766L9.96213 3.69788V5.30766H11.5475Z" fill="#78909C"/>
<path d="M4.26911 8.48608H3.67362C3.58337 8.48608 3.49682 8.52193 3.43301 8.58575C3.36919 8.64956 3.33334 8.73611 3.33334 8.82636V10.868C3.33334 10.9583 3.36919 11.0448 3.43301 11.1086C3.49682 11.1725 3.58337 11.2083 3.67362 11.2083H4.26911C4.6301 11.2083 4.9763 11.0649 5.23156 10.8096C5.48682 10.5544 5.63022 10.2082 5.63022 9.84719C5.63022 9.48621 5.48682 9.14 5.23156 8.88474C4.9763 8.62949 4.6301 8.48608 4.26911 8.48608Z" fill="#2196F3"/>
<path d="M6.39584 8.48608H7.0764C7.34714 8.48608 7.60679 8.57213 7.79824 8.72528C7.98968 8.87843 8.09723 9.08616 8.09723 9.30275C8.09723 9.50415 8.00424 9.69787 7.83729 9.84719C8.00424 9.99652 8.09723 10.1902 8.09723 10.3916C8.09723 10.6082 7.98968 10.816 7.79824 10.9691C7.60679 11.1223 7.34714 11.2083 7.0764 11.2083H6.39584C6.3056 11.2083 6.21905 11.1796 6.15523 11.1286C6.09142 11.0775 6.05557 11.0083 6.05557 10.9361V8.75831C6.05557 8.68611 6.09142 8.61687 6.15523 8.56582C6.21905 8.51476 6.3056 8.48608 6.39584 8.48608Z" fill="#2196F3"/>
<path d="M4.26909 10.5279H4.01389V9.16675H4.26909C4.44959 9.16675 4.62269 9.23845 4.75032 9.36608C4.87795 9.49371 4.94965 9.66681 4.94965 9.84731C4.94965 10.0278 4.87795 10.2009 4.75032 10.3285C4.62269 10.4562 4.44959 10.5279 4.26909 10.5279Z" fill="white"/>
<path d="M6.73611 9.57508H7.07639C7.16663 9.57508 7.25318 9.5464 7.317 9.49535C7.38081 9.4443 7.41666 9.37506 7.41666 9.30286C7.41666 9.23066 7.38081 9.16142 7.317 9.11037C7.25318 9.05932 7.16663 9.03064 7.07639 9.03064H6.73611V9.57508Z" fill="white"/>
<path d="M7.07639 10.1195H6.73611V10.664H7.07639C7.16663 10.664 7.25318 10.6353 7.317 10.5842C7.38081 10.5332 7.41666 10.4639 7.41666 10.3918C7.41666 10.3196 7.38081 10.2503 7.317 10.1993C7.25318 10.1482 7.16663 10.1195 7.07639 10.1195Z" fill="white"/>
</svg>
