<svg width="24" height="24" viewBox="0 0 24 24" fill="none" xmlns="http://www.w3.org/2000/svg">
<path d="M21.1 7.1L15.3 1.3L14.5 2L15.2 1.3L14.9 1H14.5H4.50001V2V2.8V1C4.00001 1 3.50001 1.2 3.20001 1.5C2.90001 1.8 2.70001 2.3 2.70001 2.8V21.1C2.70001 21.6 2.90001 22.1 3.20001 22.4C3.50001 22.7 4.00001 23 4.50001 23V21.2V22V23H19.5V21.2V22V23C20 23 20.5 22.8 20.8 22.5C21.1 22.2 21.3 21.7 21.3 21.2V7.9V7.5L21.1 7.1ZM15.5 4.4L17.9 6.8H15.5V4.4ZM19.4 21H4.70001V3H13.5V7.8V8.8H14.5H19.3L19.4 21ZM20.4 21.2H20.1H19.6H20.4Z" fill="#78909C"/>
<path d="M9.5 19.7C9.2 19.7 9 19.6 8.8 19.4L6.3 16.9C6.2 16.8 6.1 16.7 6.1 16.6C6.1 16.5 6 16.4 6 16.2C6 16.1 6 15.9 6.1 15.8C6.1 15.7 6.2 15.6 6.3 15.5L8.8 13C9.2 12.6 9.8 12.6 10.2 13C10.6 13.4 10.6 14 10.2 14.4L9.4 15.2H16V12.9C16 12.3 16.4 11.9 17 11.9C17.6 11.9 18 12.3 18 12.9V16.2C18 16.8 17.6 17.2 17 17.2H9.4L10.2 18C10.6 18.4 10.6 19 10.2 19.4C10 19.6 9.8 19.7 9.5 19.7Z" fill="#4CAF50"/>
</svg>
