<svg width="24" height="24" viewBox="0 0 24 24" fill="none" xmlns="http://www.w3.org/2000/svg">
<path d="M21.2778 7.4C21.2778 7.3 21.1778 7.2 21.0778 7.1L15.2778 1.3C15.1778 1.2 15.0778 1.1 14.9778 1.1C14.7778 1 14.6778 1 14.5778 1H4.5778C4.0778 1 3.5778 1.2 3.2778 1.5C2.9778 1.8 2.6778 2.3 2.6778 2.8V21.1C2.6778 21.6 2.8778 22 3.1778 22.4C3.4778 22.8 3.9778 23 4.4778 23H19.4778C19.9778 23 20.4778 22.8 20.7778 22.5C21.0778 22.2 21.2778 21.7 21.2778 21.2V7.8C21.3778 7.7 21.2778 7.6 21.2778 7.4ZM15.4778 4.4L17.8778 6.8H15.4778V4.4ZM19.3778 21H4.6778V3H13.4778V7.8C13.4778 8.1 13.5778 8.3 13.7778 8.5C13.9778 8.7 14.1778 8.8 14.4778 8.8H19.2778V21H19.3778Z" fill="#78909C"/>
<path d="M7.07778 13.9999C7.07778 14.8999 7.37778 15.7999 7.77778 16.4999L6.27778 17.9999C5.87778 18.3999 5.87778 18.9999 6.27778 19.3999C6.67778 19.7999 7.27778 19.7999 7.67778 19.3999L9.17778 17.8999C9.87778 18.3999 10.7778 18.5999 11.6778 18.5999C14.2778 18.5999 16.2778 16.4999 16.2778 13.9999C16.2778 11.4999 14.1778 9.39995 11.6778 9.39995C9.17778 9.39995 7.07778 11.3999 7.07778 13.9999ZM14.3778 13.9999C14.3778 15.4999 13.1778 16.5999 11.7778 16.5999C10.2778 16.5999 9.17778 15.3999 9.17778 13.9999C9.17778 12.4999 10.3778 11.3999 11.7778 11.3999C13.1778 11.2999 14.3778 12.4999 14.3778 13.9999Z" fill="#FF9800"/>
</svg>
