<svg width="24" height="24" viewBox="0 0 24 24" fill="none" xmlns="http://www.w3.org/2000/svg">
<path fill-rule="evenodd" clip-rule="evenodd" d="M10.8601 11.259C10.8601 11.943 11.316 12.3989 12 12.3989C12.6839 12.3989 13.1398 11.943 13.1398 11.259V4.87563L16.2176 7.95333C16.6735 8.40929 17.3574 8.40929 17.8134 7.95333C18.2694 7.49738 18.2694 6.81344 17.8134 6.35749L12.7979 1.34197C12.3419 0.886011 11.658 0.886011 11.202 1.34197L6.18651 6.35749C5.73055 6.81344 5.73055 7.49738 6.18651 7.95333C6.64247 8.40929 7.3264 8.40929 7.78236 7.95333L10.8601 4.87563V11.259Z" fill="#4CAF50"/>
<path fill-rule="evenodd" clip-rule="evenodd" d="M20.2072 10.6893C19.7512 10.0053 19.0673 9.66336 18.2694 9.66336H14.5077C14.2798 9.66336 14.0518 9.89134 14.0518 10.1193C14.0518 10.3473 14.2798 10.5753 14.5077 10.5753H17.6994C18.4974 10.5753 19.1813 10.9172 19.6373 11.6012L21.2331 13.881H2.88086L4.4767 11.6012C4.93266 10.9172 5.61659 10.5753 6.41452 10.5753H9.60621C9.83419 10.5753 10.0622 10.3473 10.0622 10.1193C10.0622 9.89134 9.83419 9.66336 9.60621 9.66336H5.73058C4.93266 9.66336 4.24873 10.0053 3.79277 10.6893L1.17102 14.6789V20.7203C1.17102 21.9742 2.19692 23.0001 3.4508 23.0001H20.5492C21.803 23.0001 22.8289 21.9742 22.8289 20.7203V14.6789L20.2072 10.6893Z" fill="#78909C"/>
</svg>
