<svg width="16" height="16" viewBox="0 0 16 16" fill="none" xmlns="http://www.w3.org/2000/svg">
<path fill-rule="evenodd" clip-rule="evenodd" d="M10.6128 2.29564L13.7063 5.43666C13.7884 5.52215 13.834 5.63699 13.8333 5.75638V12.9359C13.8333 13.1739 13.7402 13.4021 13.5745 13.5704C13.4087 13.7387 13.1839 13.8333 12.9495 13.8333H4.55303C4.43583 13.8333 4.32343 13.786 4.24055 13.7019C4.15767 13.6177 4.11111 13.5036 4.11111 13.3846C4.11111 13.2656 4.15767 13.1514 4.24055 13.0673C4.32343 12.9831 4.43583 12.9359 4.55303 12.9359H12.9495V6.20509H10.298C10.1808 6.20509 10.0684 6.15782 9.9855 6.07367C9.90262 5.98952 9.85606 5.87538 9.85606 5.75638V3.06407H4.99495V6.20509C4.99495 6.3241 4.94839 6.43823 4.86552 6.52238C4.78264 6.60653 4.67024 6.65381 4.55303 6.65381C4.43583 6.65381 4.32343 6.60653 4.24055 6.52238C4.15767 6.43823 4.11111 6.3241 4.11111 6.20509V3.06407C4.11111 2.82605 4.20423 2.59779 4.36998 2.42949C4.53574 2.26118 4.76054 2.16663 4.99495 2.16663H10.298C10.4156 2.16596 10.5287 2.2123 10.6128 2.29564ZM12.3253 5.30766L10.7399 3.69788V5.30766H12.3253Z" fill="#78909C"/>
<path d="M5.67022 11.2083C6.36646 11.2083 6.77889 10.8825 6.77889 10.3421C6.77889 9.75278 6.15897 9.59995 5.79079 9.50919L5.78995 9.50898C5.65248 9.47598 5.40857 9.41411 5.35979 9.36049V9.35225C5.35979 9.21613 5.46622 9.14602 5.67022 9.14602C5.82868 9.14902 5.98278 9.19488 6.11368 9.278H6.10925C6.17361 9.32554 6.25323 9.35168 6.33542 9.35225C6.42951 9.35225 6.51975 9.31748 6.58628 9.2556C6.65282 9.19372 6.6902 9.10979 6.6902 9.02228C6.69176 8.97327 6.68093 8.9246 6.6586 8.88019C6.63626 8.83578 6.60304 8.79686 6.56159 8.76656C6.30514 8.58544 5.99222 8.48697 5.67022 8.48608C5.07153 8.48608 4.65023 8.79543 4.65023 9.35225C4.65023 9.90906 5.22675 10.0534 5.60813 10.1483C5.75891 10.1854 5.96291 10.2473 6.01612 10.2762C6.03501 10.2864 6.04719 10.2873 6.05505 10.2879C6.05904 10.2882 6.06191 10.2884 6.06399 10.2897C6.06934 10.2931 6.06934 10.3038 6.06934 10.3421C6.06934 10.4246 6.06934 10.5484 5.67022 10.5484C5.51175 10.5454 5.35765 10.4995 5.22675 10.4164H5.23118C5.16682 10.3688 5.0872 10.3427 5.00501 10.3421C4.91092 10.3421 4.82068 10.3769 4.75415 10.4388C4.68761 10.5007 4.65023 10.5846 4.65023 10.6721C4.64867 10.7211 4.6595 10.7698 4.68183 10.8142C4.70417 10.8586 4.73739 10.8975 4.77884 10.9278C5.03529 11.109 5.34821 11.2074 5.67022 11.2083Z" fill="#F44336"/>
<path d="M12.2778 8.85805C12.2778 8.77054 12.2404 8.68661 12.1739 8.62473C12.1073 8.56285 12.0171 8.52809 11.923 8.52809C11.8289 8.52809 11.7387 8.56285 11.6721 8.62473C11.6056 8.68661 11.5682 8.77054 11.5682 8.85805V9.84795L10.6103 8.66007C10.5662 8.60434 10.5042 8.56311 10.4333 8.54235C10.3623 8.52159 10.2861 8.52237 10.2156 8.54458C10.1447 8.5663 10.0829 8.60829 10.0391 8.66458C9.99529 8.72086 9.97172 8.78857 9.97172 8.85805V10.8379C9.97172 10.9254 10.0091 11.0093 10.0756 11.0712C10.1422 11.1331 10.2324 11.1678 10.3265 11.1678C10.4206 11.1678 10.5108 11.1331 10.5774 11.0712C10.6439 11.0093 10.6813 10.9254 10.6813 10.8379V9.84795L11.6392 11.0358C11.6717 11.0773 11.7145 11.1109 11.7638 11.1339C11.8132 11.1568 11.8678 11.1685 11.923 11.1678C11.9607 11.1684 11.9982 11.1628 12.0339 11.1513C12.1048 11.1296 12.1666 11.0876 12.2104 11.0313C12.2542 10.975 12.2778 10.9073 12.2778 10.8379V8.85805Z" fill="#F44336"/>
<path d="M3.68967 8.62397C3.7562 8.56209 3.84644 8.52733 3.94054 8.52733C4.03463 8.52733 4.12487 8.56209 4.1914 8.62397C4.25793 8.68586 4.29531 8.76978 4.29531 8.8573V10.1772C4.29531 10.4397 4.18318 10.6915 3.98358 10.8771C3.78398 11.0628 3.51326 11.1671 3.23098 11.1671C2.94871 11.1671 2.67799 11.0628 2.47839 10.8771C2.27879 10.6915 2.16666 10.4397 2.16666 10.1772C2.16666 10.0896 2.20403 10.0057 2.27057 9.94384C2.3371 9.88196 2.42734 9.8472 2.52143 9.8472C2.61552 9.8472 2.70576 9.88196 2.7723 9.94384C2.83883 10.0057 2.87621 10.0896 2.87621 10.1772C2.87621 10.2647 2.91359 10.3486 2.98012 10.4105C3.04665 10.4724 3.13689 10.5071 3.23098 10.5071C3.32508 10.5071 3.41531 10.4724 3.48185 10.4105C3.54838 10.3486 3.58576 10.2647 3.58576 10.1772V8.8573C3.58576 8.76978 3.62314 8.68586 3.68967 8.62397Z" fill="#F44336"/>
<path d="M8.46393 8.52733C7.7322 8.52733 7.13352 9.12127 7.13352 9.8472C7.13352 10.5731 7.7322 11.1671 8.46393 11.1671C9.19565 11.1671 9.79434 10.5731 9.79434 9.8472C9.79434 9.12127 9.19565 8.52733 8.46393 8.52733Z" fill="#F44336"/>
<path d="M8.46394 10.5071C8.12246 10.5071 7.84308 10.2102 7.84308 9.84719C7.84308 9.48423 8.12246 9.18726 8.46394 9.18726C8.80541 9.18726 9.08479 9.48423 9.08479 9.84719C9.08479 10.2102 8.80541 10.5071 8.46394 10.5071Z" fill="white"/>
</svg>
