<svg width="16" height="16" viewBox="0 0 16 16" fill="none" xmlns="http://www.w3.org/2000/svg">
<path d="M12.801 7.46215C12.7845 7.39213 12.7511 7.32724 12.7036 7.27322C12.6561 7.21921 12.596 7.17774 12.5286 7.15248L9.37697 5.97061L10.179 1.96042C10.1977 1.86708 10.1854 1.7702 10.144 1.68448C10.1027 1.59875 10.0344 1.52886 9.94976 1.4854C9.86507 1.44194 9.76852 1.42728 9.67476 1.44365C9.58099 1.46003 9.49511 1.50653 9.43017 1.57612L3.30517 8.13862C3.25609 8.1912 3.22073 8.25507 3.20223 8.32458C3.18372 8.39409 3.18264 8.46708 3.19908 8.53711C3.21551 8.60713 3.24896 8.67202 3.29646 8.72604C3.34396 8.78005 3.40404 8.82152 3.47139 8.84678L6.62305 10.0286L5.82101 14.0388C5.80233 14.1322 5.81461 14.2291 5.85598 14.3148C5.89735 14.4005 5.96556 14.4704 6.05025 14.5139C6.13494 14.5574 6.2315 14.572 6.32527 14.5556C6.41904 14.5393 6.50492 14.4927 6.56986 14.4231L12.6949 7.86064C12.7439 7.80806 12.7793 7.74418 12.7978 7.67468C12.8163 7.60517 12.8174 7.53218 12.801 7.46215Z" fill="#FFC107"/>
</svg>
