<svg width="16" height="16" viewBox="0 0 16 16" fill="none" xmlns="http://www.w3.org/2000/svg">
<g clip-path="url(#clip0_1748_5399)">
<path d="M13.536 3.75362L13.3472 3.69071C13.3472 3.69071 13.2843 3.69071 13.2843 3.6278C13.2843 3.5649 13.2214 3.5649 13.2214 3.50199V3.31326C13.2214 2.8729 13.0327 2.36963 12.5923 2.05509C12.5294 1.99218 12.4036 1.92928 12.2778 1.86637C11.7745 1.61473 11.2713 1.74055 10.8309 1.92928L10.7051 1.99218C10.7051 1.99218 10.6422 1.99218 10.5793 1.99218C10.5164 1.99218 10.5164 1.99218 10.4535 1.99218L10.3276 1.92928C9.95019 1.67764 9.38401 1.61473 8.94365 1.86637C8.81783 1.92928 8.75493 1.99218 8.62911 2.05509C8.18875 2.36963 8.00002 2.8729 8.00002 3.31326V3.50199C8.00002 3.50199 8.00002 3.5649 7.93712 3.6278C8.00002 3.6278 8.00002 3.69071 8.00002 3.69071L7.8113 3.75362C7.43385 3.94235 7.0564 4.38271 7.0564 4.94888C7.0564 5.0747 7.0564 5.20052 7.0564 5.26343C7.0564 5.8296 7.43385 6.20705 7.8113 6.45869L8.00002 6.5216C8.00002 6.5216 8.06293 6.5216 8.06293 6.5845C8.06293 6.64741 8.12584 6.64741 8.12584 6.71032V6.89905C8.12584 7.33941 8.31457 7.84267 8.75493 8.15722C8.81783 8.22013 8.94365 8.28303 9.06947 8.34594C9.57274 8.59758 10.076 8.47176 10.5164 8.28303L10.6422 8.22012C10.6422 8.22012 10.7051 8.22012 10.768 8.22012C10.8309 8.22012 10.8309 8.22012 10.8938 8.22012L11.0196 8.28303C11.3971 8.53467 11.9633 8.59758 12.4036 8.34594C12.5294 8.28303 12.5923 8.22013 12.7182 8.15722C13.1585 7.84267 13.3472 7.33941 13.3472 6.89905V6.71032C13.3472 6.71032 13.3472 6.64741 13.4102 6.5845C13.4102 6.5216 13.4731 6.5216 13.4731 6.5216L13.6618 6.45869C14.0392 6.26996 14.4167 5.8296 14.4167 5.26343C14.4167 5.13761 14.4167 5.01179 14.4167 4.94888C14.2909 4.38271 13.9134 4.00526 13.536 3.75362ZM10.6422 6.08124C10.1389 6.08124 9.69855 5.64088 9.69855 5.13761C9.69855 4.63434 10.1389 4.19398 10.6422 4.19398C11.1454 4.19398 11.5858 4.63434 11.5858 5.13761C11.6487 5.64088 11.2084 6.08124 10.6422 6.08124Z" fill="#2196F3"/>
<path d="M8.18874 9.60413L8.00001 9.47831C8.00001 9.47831 7.9371 9.47831 7.9371 9.4154C7.9371 9.35249 7.87419 9.35249 7.87419 9.28959V9.10086C7.87419 8.6605 7.68547 8.15723 7.24511 7.84269C7.1822 7.77978 7.05638 7.71687 6.93057 7.65396C6.4273 7.40233 5.92403 7.52815 5.48367 7.71687L5.35785 7.77978C5.35785 7.77978 5.29494 7.77978 5.23204 7.77978C5.16913 7.77978 5.16913 7.77978 5.10622 7.77978L4.9804 7.71687C4.60295 7.46524 4.03677 7.40233 3.59642 7.65396C3.4706 7.71687 3.40769 7.77978 3.28187 7.84269C2.84151 8.15723 2.65279 8.6605 2.65279 9.10086V9.28959C2.65279 9.28959 2.65279 9.35249 2.58988 9.4154C2.58988 9.47831 2.52697 9.47831 2.52697 9.47831L2.33825 9.54122C1.96079 9.72994 1.58334 10.1703 1.58334 10.7365C1.58334 10.8623 1.58334 10.9881 1.58334 11.051C1.58334 11.6172 1.96079 11.9947 2.33825 12.2463L2.52697 12.3092C2.52697 12.3092 2.58988 12.3092 2.58988 12.3721C2.58988 12.435 2.65279 12.435 2.65279 12.4979V12.6866C2.65279 13.127 2.84151 13.6303 3.28187 13.9448C3.34478 14.0077 3.4706 14.0706 3.59642 14.1335C4.09968 14.3852 4.60295 14.2594 5.04331 14.0706L5.16913 14.0077C5.16913 14.0077 5.23204 14.0077 5.29494 14.0077C5.35785 14.0077 5.35785 14.0077 5.42076 14.0077L5.54658 14.0706C5.92403 14.3223 6.49021 14.3852 6.93057 14.1335C7.05638 14.0706 7.11929 14.0077 7.24511 13.9448C7.68547 13.6303 7.87419 13.127 7.87419 12.6866V12.4979C7.87419 12.4979 7.87419 12.435 7.9371 12.3721C7.9371 12.3092 8.00001 12.3092 8.00001 12.3092L8.18874 12.2463C8.56619 12.0576 8.94364 11.6172 8.94364 11.051C8.94364 10.9252 8.94364 10.7994 8.94364 10.7365C8.94364 10.2332 8.56619 9.79285 8.18874 9.60413ZM5.35785 11.8688C4.85459 11.8688 4.41423 11.4285 4.41423 10.9252C4.41423 10.4219 4.85459 9.98158 5.35785 9.98158C5.86112 9.98158 6.30148 10.4219 6.30148 10.9252C6.30148 11.4285 5.86112 11.8688 5.35785 11.8688Z" fill="#78909C"/>
</g>
<defs>
<clipPath id="clip0_1748_5399">
<rect width="14" height="14" fill="white" transform="translate(1 1)"/>
</clipPath>
</defs>
</svg>
