<svg width="16" height="16" viewBox="0 0 16 16" fill="none" xmlns="http://www.w3.org/2000/svg">
<path fill-rule="evenodd" clip-rule="evenodd" d="M10.7891 2.16663L10.788 2.16663C10.2191 2.1679 9.66851 2.36821 9.23178 2.73284C8.79506 3.09747 8.49969 3.60343 8.3969 4.163L8.39671 4.16401L7.78864 7.51385H4.79168C4.5232 7.51385 4.30557 7.73149 4.30557 7.99996C4.30557 8.26843 4.5232 8.48607 4.79168 8.48607H7.61216L7.03579 11.6613C6.97393 11.9974 6.79638 12.3017 6.53403 12.5208C6.27166 12.7398 5.94093 12.8602 5.59914 12.8611H3.81945C3.55098 12.8611 3.33334 13.0787 3.33334 13.3472C3.33334 13.6157 3.55098 13.8333 3.81945 13.8333L5.60092 13.8333C6.16985 13.832 6.7204 13.6317 7.15713 13.2671C7.59385 12.9024 7.88921 12.3965 7.99201 11.8369L7.99219 11.8359L8.60027 8.48607H11.5972C11.8657 8.48607 12.0833 8.26843 12.0833 7.99996C12.0833 7.73149 11.8657 7.51385 11.5972 7.51385H8.77675L9.35312 4.33866L9.35321 4.33818C9.41507 4.00207 9.59254 3.69818 9.85488 3.47914C10.1172 3.26011 10.4479 3.13973 10.7897 3.13885H12.5695C12.8379 3.13885 13.0556 2.92121 13.0556 2.65274C13.0556 2.38427 12.8379 2.16663 12.5695 2.16663L10.7891 2.16663Z" fill="#78909C"/>
</svg>
