<svg width="16" height="16" viewBox="0 0 16 16" fill="none" xmlns="http://www.w3.org/2000/svg">
<path fill-rule="evenodd" clip-rule="evenodd" d="M11.0769 4.04048C11.4674 3.64996 11.4674 3.01679 11.0769 2.62627C10.6864 2.23574 10.0532 2.23574 9.66268 2.62627L8.36458 3.92437L8.07881 3.63859C8.07564 3.63534 8.07244 3.6321 8.06921 3.62887C8.06599 3.62565 8.06275 3.62245 8.05949 3.61928L7.46752 3.02731C7.077 2.63678 6.44383 2.63678 6.05331 3.02731C5.69863 3.38199 5.66608 3.93681 5.95564 4.32823L3.77889 6.50499L3.77816 6.50571C3.53609 6.74704 3.344 7.03375 3.21288 7.34944C3.08164 7.66543 3.01408 8.00423 3.01408 8.34639C3.01408 8.68856 3.08164 9.02736 3.21288 9.34335C3.34399 9.65902 3.53608 9.94572 3.77814 10.1871L3.77889 10.1878L4.14314 10.5521L2.04289 12.6523C1.65237 13.0428 1.65237 13.676 2.04289 14.0665C2.43342 14.457 3.06658 14.457 3.45711 14.0665L5.55736 11.9663L5.92174 12.3307L5.92255 12.3315C6.16386 12.5735 6.45055 12.7656 6.76619 12.8967C7.08219 13.0279 7.42099 13.0955 7.76315 13.0955C8.10531 13.0955 8.44411 13.0279 8.76011 12.8967C9.0758 12.7655 9.36253 12.5734 9.60387 12.3313L9.60456 12.3307L11.7813 10.1539C12.1727 10.4433 12.7275 10.4107 13.0821 10.0561C13.4726 9.66558 13.4726 9.03242 13.0821 8.64189L12.4903 8.05006C12.4871 8.0468 12.4839 8.04355 12.4807 8.04033C12.4774 8.0371 12.4742 8.03391 12.4709 8.03073L12.185 7.74483L13.4831 6.44673C13.8737 6.05621 13.8737 5.42304 13.4831 5.03252C13.0926 4.64199 12.4595 4.64199 12.0689 5.03252L10.7708 6.33062L9.7788 5.33858L11.0769 4.04048Z" fill="#2196F3"/>
</svg>
