<svg width="16" height="16" viewBox="0 0 16 16" fill="none" xmlns="http://www.w3.org/2000/svg">
<path fill-rule="evenodd" clip-rule="evenodd" d="M7.5644 13.2488L6.77495 13.841C6.72178 13.8808 6.66023 13.9081 6.59495 13.9206C6.52968 13.9332 6.46241 13.9306 6.39826 13.9133C5.89225 13.7764 5.40602 13.5748 4.9516 13.3135C4.89401 13.2804 4.84471 13.2346 4.80744 13.1796C4.77018 13.1246 4.74593 13.0619 4.73654 12.9961L4.54534 11.6575C4.47589 11.5919 4.40838 11.5244 4.34283 11.455L3.00368 11.2638C2.93788 11.2544 2.8751 11.2301 2.82008 11.1928C2.76506 11.1555 2.71926 11.1062 2.68615 11.0486C2.42514 10.594 2.22386 10.1076 2.08729 9.60151C2.06999 9.53737 2.06751 9.47013 2.08006 9.4049C2.09261 9.33966 2.11985 9.27814 2.15971 9.225L2.97415 8.13912C2.97273 8.05755 2.97174 7.9553 2.97297 7.85946L2.15933 6.77474C2.11945 6.72158 2.0922 6.66002 2.07966 6.59476C2.06712 6.52949 2.06962 6.46222 2.08697 6.39807C2.22385 5.89205 2.42544 5.4058 2.68674 4.95136C2.71985 4.89377 2.76564 4.84447 2.82064 4.80722C2.87564 4.76996 2.9384 4.74571 3.00416 4.73632L4.34272 4.54515C4.4084 4.47566 4.47591 4.40814 4.54526 4.34259L4.73648 3.00346C4.74588 2.93767 4.77015 2.87488 4.80743 2.81987C4.84472 2.76485 4.89405 2.71905 4.95168 2.68594C5.40628 2.42493 5.89266 2.22366 6.39876 2.0871C6.4629 2.0698 6.53014 2.06732 6.59538 2.07987C6.66062 2.09241 6.72215 2.11964 6.7753 2.15949L7.85698 2.97081C7.95236 2.96816 8.04801 2.96816 8.14339 2.97081L9.22553 2.15909C9.2787 2.11922 9.34026 2.09198 9.40553 2.07945C9.4708 2.06691 9.53807 2.06941 9.60223 2.08675C10.1082 2.22364 10.5945 2.42522 11.0489 2.68652C11.1065 2.71963 11.1558 2.76542 11.193 2.82042C11.2303 2.87541 11.2545 2.93818 11.2639 3.00394L11.4551 4.3425C11.5246 4.40816 11.5921 4.47567 11.6577 4.54504L12.9968 4.73629C13.0626 4.74568 13.1254 4.76994 13.1804 4.80722C13.2354 4.84451 13.2812 4.89383 13.3143 4.95146C13.5753 5.40607 13.7766 5.89244 13.9132 6.39854C13.9305 6.46268 13.933 6.52992 13.9204 6.59515C13.9079 6.66039 13.8806 6.72191 13.8408 6.77505L13.2488 7.56437C12.5876 7.10355 11.7837 6.83333 10.9167 6.83333C10.6524 6.83333 10.3939 6.85844 10.1436 6.90641C10.101 6.8229 10.0534 6.74166 10.0009 6.66316C9.73654 6.26745 9.36073 5.95904 8.92105 5.77692C8.48136 5.59479 7.99754 5.54714 7.53078 5.63999C7.06401 5.73283 6.63526 5.962 6.29874 6.29852C5.96222 6.63504 5.73304 7.0638 5.6402 7.53056C5.54735 7.99733 5.59501 8.48115 5.77713 8.92083C5.95925 9.36052 6.26767 9.73632 6.66337 10.0007C6.74183 10.0531 6.82301 10.1007 6.90647 10.1433C6.85846 10.3937 6.83333 10.6523 6.83333 10.9167C6.83333 11.7837 7.10356 12.5876 7.5644 13.2488Z" fill="#78909C"/>
<path d="M10.9167 7.41663C10.6833 7.41663 10.45 7.41663 10.2167 7.47496C9.80832 7.59163 9.39999 7.70829 9.04999 7.94163C8.05832 8.58329 7.41666 9.69163 7.41666 10.9166C7.41666 12.8416 8.99166 14.4166 10.9167 14.4166C11.4417 14.4166 11.9083 14.3 12.375 14.0666C12.9583 13.8333 13.425 13.425 13.775 12.9C14.1833 12.3166 14.4167 11.6166 14.4167 10.8583C14.4167 8.99163 12.8417 7.41663 10.9167 7.41663ZM10.8 9.16663C11.0333 9.16663 11.2083 9.34163 11.2083 9.57496C11.2083 9.80829 11.0333 9.98329 10.8 9.98329C10.5667 9.98329 10.3917 9.80829 10.3917 9.57496C10.3917 9.39996 10.5667 9.16663 10.8 9.16663ZM10.6833 10.2166H10.9167C11.15 10.2166 11.325 10.3916 11.325 10.625V11.9666C11.4417 12.025 11.5583 12.2 11.5583 12.375C11.5583 12.6083 11.3833 12.7833 11.15 12.7833H10.9167C10.6833 12.7833 10.5083 12.6083 10.5083 12.375V11.0333C10.3917 10.975 10.275 10.8 10.275 10.625C10.2167 10.45 10.45 10.2166 10.6833 10.2166Z" fill="#2196F3"/>
</svg>
