<svg width="16" height="16" viewBox="0 0 16 16" fill="none" xmlns="http://www.w3.org/2000/svg">
<path fill-rule="evenodd" clip-rule="evenodd" d="M10.6128 2.29564L13.7063 5.43666C13.7884 5.52215 13.834 5.63699 13.8333 5.75637V12.9359C13.8333 13.1739 13.7402 13.4021 13.5745 13.5704C13.4087 13.7387 13.1839 13.8333 12.9495 13.8333H4.55303C4.43583 13.8333 4.32343 13.786 4.24055 13.7019C4.15767 13.6177 4.11111 13.5036 4.11111 13.3846C4.11111 13.2656 4.15767 13.1514 4.24055 13.0673C4.32343 12.9831 4.43583 12.9359 4.55303 12.9359H12.9495V6.20509H10.298C10.1808 6.20509 10.0684 6.15782 9.9855 6.07367C9.90262 5.98952 9.85606 5.87538 9.85606 5.75637V3.06407H4.99495V6.20509C4.99495 6.3241 4.94839 6.43823 4.86552 6.52238C4.78264 6.60653 4.67024 6.65381 4.55303 6.65381C4.43583 6.65381 4.32343 6.60653 4.24055 6.52238C4.15767 6.43823 4.11111 6.3241 4.11111 6.20509V3.06407C4.11111 2.82605 4.20423 2.59779 4.36998 2.42949C4.53574 2.26118 4.76054 2.16663 4.99495 2.16663H10.298C10.4156 2.16596 10.5287 2.2123 10.6128 2.29564ZM12.3253 5.30766L10.7399 3.69788V5.30766H12.3253Z" fill="#78909C"/>
<path d="M2.87373 9.67551V9.16575H3.75757C3.85133 9.16575 3.94125 9.12995 4.00755 9.06622C4.07385 9.00249 4.1111 8.91605 4.1111 8.82592C4.1111 8.73579 4.07385 8.64935 4.00755 8.58562C3.94125 8.52189 3.85133 8.48608 3.75757 8.48608H2.52019C2.42643 8.48608 2.33651 8.52189 2.2702 8.58562C2.2039 8.64935 2.16666 8.73579 2.16666 8.82592V10.8649C2.16666 10.9551 2.2039 11.0415 2.2702 11.1052C2.33651 11.169 2.42643 11.2048 2.52019 11.2048C2.61396 11.2048 2.70388 11.169 2.77018 11.1052C2.83648 11.0415 2.87373 10.9551 2.87373 10.8649V10.3552H3.5808C3.67456 10.3552 3.76448 10.3194 3.83079 10.2556C3.89709 10.1919 3.93433 10.1055 3.93433 10.0153C3.93433 9.92521 3.89709 9.83877 3.83079 9.77504C3.76448 9.71131 3.67456 9.67551 3.5808 9.67551H2.87373Z" fill="#673AB7"/>
<path d="M11.7853 9.06622C11.8516 9.00249 11.8889 8.91605 11.8889 8.82592C11.8889 8.73579 11.8516 8.64935 11.7853 8.58562C11.719 8.52189 11.6291 8.48608 11.5353 8.48608H9.94443C9.85067 8.48608 9.76075 8.52189 9.69445 8.58562C9.62815 8.64935 9.5909 8.73579 9.5909 8.82592C9.5909 8.91605 9.62815 9.00249 9.69445 9.06622C9.76075 9.12995 9.85067 9.16575 9.94443 9.16575H10.3864V10.8649C10.3864 10.9551 10.4236 11.0415 10.4899 11.1052C10.5562 11.169 10.6461 11.2048 10.7399 11.2048C10.8337 11.2048 10.9236 11.169 10.9899 11.1052C11.0562 11.0415 11.0934 10.9551 11.0934 10.8649V9.16575H11.5353C11.6291 9.16575 11.719 9.12995 11.7853 9.06622Z" fill="#673AB7"/>
<path d="M6.33837 10.428H5.48989V8.87447C5.48989 8.77146 5.44519 8.67267 5.36563 8.59984C5.28607 8.527 5.17816 8.48608 5.06565 8.48608C4.95313 8.48608 4.84522 8.527 4.76566 8.59984C4.6861 8.67267 4.6414 8.77146 4.6414 8.87447V10.8164C4.6414 10.9194 4.6861 11.0182 4.76566 11.091C4.84522 11.1638 4.95313 11.2048 5.06565 11.2048H6.33837C6.45089 11.2048 6.5588 11.1638 6.63836 11.091C6.71792 11.0182 6.76262 10.9194 6.76262 10.8164C6.76262 10.7134 6.71792 10.6146 6.63836 10.5418C6.5588 10.4689 6.45089 10.428 6.33837 10.428Z" fill="#673AB7"/>
<path d="M7.14369 10.7358L8.02753 8.69679C8.05416 8.63446 8.09947 8.58115 8.1577 8.54363C8.21593 8.50612 8.28445 8.48608 8.35455 8.48608C8.42464 8.48608 8.49316 8.50612 8.55139 8.54363C8.60962 8.58115 8.65493 8.63446 8.68156 8.69679L9.5654 10.7358C9.58339 10.7771 9.59275 10.8214 9.59294 10.8661C9.59312 10.9109 9.58414 10.9552 9.56649 10.9967C9.54885 11.0381 9.52289 11.0757 9.4901 11.1075C9.4573 11.1393 9.41832 11.1645 9.37538 11.1818C9.33243 11.1991 9.28637 11.2081 9.23981 11.2083C9.19324 11.2085 9.1471 11.1998 9.10401 11.1829C9.06093 11.1659 9.02174 11.141 8.98868 11.1094C8.95563 11.0779 8.92935 11.0405 8.91136 10.9992L8.85372 10.8659H7.85537L7.79773 10.9992C7.77974 11.0405 7.75346 11.0779 7.72041 11.1094C7.68735 11.141 7.64816 11.1659 7.60507 11.1829C7.56199 11.1998 7.51585 11.2085 7.46929 11.2083C7.42273 11.2081 7.37666 11.1991 7.33371 11.1818C7.29077 11.1645 7.25179 11.1393 7.219 11.1075C7.1862 11.0757 7.16024 11.0381 7.1426 10.9967C7.12495 10.9552 7.11597 10.9109 7.11615 10.8661C7.11634 10.8214 7.1257 10.7771 7.14369 10.7358Z" fill="#673AB7"/>
<path d="M8.55971 10.1863L8.35456 9.71204L8.14941 10.1863H8.55971Z" fill="white"/>
</svg>
