<svg width="24" height="24" viewBox="0 0 24 24" fill="none" xmlns="http://www.w3.org/2000/svg">
<path d="M7.75251 17.7725C7.75251 17.0101 7.09904 16.3566 6.22776 16.3566C5.35647 16.3566 4.703 17.0101 4.703 17.8814C4.703 18.6438 5.35647 19.4061 6.11884 19.4061L6.6634 19.9507C7.09904 20.3863 7.75251 20.3863 8.18815 19.9507C8.6238 19.515 8.6238 18.8616 8.18815 18.4259L7.75251 17.7725Z" fill="#673AB7"/>
<path d="M6.22772 12.5447C3.39604 12.5447 1 14.8318 1 17.7724C1 20.6041 3.28713 23.0002 6.22772 23.0002C9.05941 23.0002 11.4554 20.713 11.4554 17.7724C11.4554 14.9407 9.05941 12.5447 6.22772 12.5447ZM6.22772 20.8219C4.59406 20.8219 3.17822 19.515 3.17822 17.7724C3.17822 16.1388 4.48515 14.7229 6.22772 14.7229C7.86139 14.7229 9.27723 16.0299 9.27723 17.7724C9.27723 19.4061 7.86139 20.8219 6.22772 20.8219Z" fill="#673AB7"/>
<path d="M17.7723 12.5447C14.9406 12.5447 12.5446 14.8318 12.5446 17.7724C12.5446 20.6041 14.8317 23.0002 17.7723 23.0002C20.604 23.0002 23 20.713 23 17.7724C23 14.9407 20.604 12.5447 17.7723 12.5447ZM17.7723 20.8219C16.1386 20.8219 14.7228 19.515 14.7228 17.7724C14.7228 16.1388 16.0297 14.7229 17.7723 14.7229C19.4059 14.7229 20.8218 16.0299 20.8218 17.7724C20.8218 19.4061 19.4059 20.8219 17.7723 20.8219Z" fill="#673AB7"/>
<path d="M17.9901 6.9901C17.9901 3.61386 15.2673 1 12 1C8.62375 1 6.00989 3.72277 6.00989 6.9901C6.00989 10.3663 8.73266 12.9802 12 12.9802C15.3762 13.0891 17.9901 10.3663 17.9901 6.9901ZM12 10.9109C9.82177 10.9109 8.18811 9.16832 8.18811 7.09901C8.18811 4.92079 9.93068 3.28713 12 3.28713C12.7624 3.28713 13.4158 3.50495 13.9604 3.83168C13.7426 3.83168 13.5247 3.94059 13.4158 4.15842L12 5.57426C11.1287 5.57426 10.3663 6.33663 10.3663 7.20792C10.3663 8.07921 11.1287 8.84158 12 8.84158C12.8713 8.84158 13.6337 8.07921 13.6337 7.20792L15.0495 5.79208C15.1584 5.68317 15.2673 5.46535 15.3762 5.24752C15.703 5.79208 15.9208 6.55446 15.9208 7.20792C15.8119 9.16832 14.1782 10.9109 12 10.9109Z" fill="#673AB7"/>
<path d="M17.7722 16.2475L17.3366 15.8119C16.9009 15.3763 16.2475 15.3763 15.8118 15.8119C15.3762 16.2475 15.3762 16.901 15.8118 17.3367L16.3564 17.8812C16.3564 18.6436 17.0099 19.297 17.8811 19.297C18.7524 19.297 19.4059 18.6436 19.4059 17.7723C19.297 16.901 18.6435 16.2475 17.7722 16.2475Z" fill="#673AB7"/>
</svg>
