<svg width="24" height="24" viewBox="0 0 24 24" fill="none" xmlns="http://www.w3.org/2000/svg">
<path fill-rule="evenodd" clip-rule="evenodd" d="M1.47708 13.1504C0.840973 12.5142 0.840973 11.483 1.47708 10.8469L10.8469 1.47708C11.483 0.840973 12.5142 0.840973 13.1504 1.47708L22.5229 10.8496C23.159 11.4857 23.159 12.517 22.5229 13.1531L13.1531 22.5229C12.517 23.159 11.4857 23.159 10.8496 22.5229L1.47708 13.1504ZM10.6379 6.76399C11.2897 6.49405 12.007 6.42332 12.699 6.56104C13.3912 6.69865 14.0267 7.03844 14.5257 7.5374C15.0247 8.03636 15.3644 8.67194 15.5021 9.36406C15.6398 10.0561 15.569 10.7734 15.2991 11.4252C15.0291 12.0771 14.5718 12.6344 13.985 13.0263C13.6388 13.2577 13.2566 13.4254 12.8564 13.5239V13.5497C12.8564 14.0209 12.4744 14.403 12.0031 14.403C11.5317 14.403 11.1497 14.0209 11.1497 13.5497V12.7742C11.1497 12.5478 11.2396 12.3308 11.3996 12.1707C11.5597 12.0107 11.7768 11.9208 12.0031 11.9208C12.3711 11.9208 12.7308 11.8117 13.0368 11.6072C13.3429 11.4027 13.5813 11.1121 13.7221 10.7721C13.8631 10.432 13.8999 10.0579 13.8281 9.69703C13.7562 9.33601 13.579 9.00447 13.3188 8.74432C13.0586 8.48406 12.7271 8.30685 12.3661 8.23502C12.0052 8.16319 11.631 8.20004 11.291 8.34095C10.951 8.48175 10.6604 8.72023 10.4559 9.02625C10.2514 9.33227 10.1423 9.69197 10.1423 10.06C10.1423 10.5314 9.76028 10.9134 9.28893 10.9134C8.81758 10.9134 8.43555 10.5314 8.43555 10.06C8.43555 9.35438 8.64477 8.66468 9.03681 8.07794C9.42874 7.49131 9.986 7.03404 10.6379 6.76399ZM12.0028 18.2027C12.6452 18.2027 13.1661 17.6818 13.1661 17.0394C13.1661 16.397 12.6452 15.8762 12.0028 15.8762C11.3604 15.8762 10.8396 16.397 10.8396 17.0394C10.8396 17.6818 11.3604 18.2027 12.0028 18.2027Z" fill="#4CAF50"/>
</svg>
