<svg width="16" height="16" viewBox="0 0 16 16" fill="none" xmlns="http://www.w3.org/2000/svg">
<path fill-rule="evenodd" clip-rule="evenodd" d="M2.69543 12.799H3.39702V3.12333C3.39702 2.86994 3.50277 2.62688 3.68255 2.44588C3.86234 2.26488 4.11615 2.16663 4.37525 2.16663H11.6247C11.8838 2.16663 12.1324 2.27005 12.3174 2.44588C12.5025 2.62688 12.603 2.86994 12.603 3.12333V12.799H13.3046C13.5954 12.799 13.8333 13.0317 13.8333 13.3162C13.8333 13.6006 13.5954 13.8333 13.3046 13.8333H2.69543C2.4046 13.8333 2.16666 13.6006 2.16666 13.3162C2.16666 13.0317 2.4046 12.799 2.69543 12.799ZM6.11499 4.89715C6.11499 4.61273 6.35294 4.38002 6.64376 4.38002H8.45746C8.74828 4.38002 8.98623 4.61273 8.98623 4.89715C8.98623 5.18158 8.74828 5.41429 8.45746 5.41429H6.64376C6.35294 5.41429 6.11499 5.18158 6.11499 4.89715ZM7.54797 8.1965C7.25714 8.1965 7.01919 8.42922 7.01919 8.71364C7.01919 8.99807 7.25714 9.23078 7.54797 9.23078H9.36166C9.65248 9.23078 9.89043 8.99807 9.89043 8.71364C9.89043 8.42922 9.65248 8.1965 9.36166 8.1965H7.54797ZM6.64376 10.5857C6.35294 10.5857 6.11499 10.8184 6.11499 11.1028C6.11499 11.3873 6.35294 11.62 6.64376 11.62H8.45746C8.74828 11.62 8.98623 11.3873 8.98623 11.1028C8.98623 10.8184 8.74828 10.5857 8.45746 10.5857H6.64376Z" fill="#2196F3"/>
</svg>
