<svg width="24" height="24" viewBox="0 0 24 24" fill="none" xmlns="http://www.w3.org/2000/svg">
<path d="M3.09924 19.3475H20.9931V4.85248H3.09924V19.3475ZM16.9944 14.4492C17.5942 14.4492 17.9941 14.849 17.9941 15.4488C17.9941 16.0486 17.5942 16.4485 16.9944 16.4485H12.7959C12.1961 16.4485 11.7962 16.0486 11.7962 15.4488C11.7962 14.849 12.1961 14.4492 12.7959 14.4492H16.9944ZM6.3981 9.55085C5.99824 9.25096 5.89828 8.5512 6.19817 8.15134C6.49807 7.75148 7.19783 7.65151 7.59769 7.95141L11.7962 11.2503C11.9962 11.4502 12.1961 11.7501 12.1961 12.05C12.1961 12.3499 12.0961 12.6498 11.7962 12.8497L7.59769 16.1486C7.39776 16.2485 7.19783 16.3485 6.9979 16.3485C6.698 16.3485 6.3981 16.2485 6.19817 15.9486C5.89828 15.5488 5.89828 14.849 6.3981 14.5491L9.597 11.95L6.3981 9.55085Z" fill="#1A1A1A"/>
<path d="M11.7962 11.3504L7.59765 8.05153C7.19779 7.75163 6.49803 7.75163 6.19814 8.25146C5.89824 8.65132 5.89824 9.35108 6.39807 9.65098L9.59696 12.2501L6.39807 14.8492C5.99821 15.1491 5.89824 15.8488 6.19814 16.2487C6.39807 16.4486 6.69796 16.6486 6.99786 16.6486C7.19779 16.6486 7.39772 16.5486 7.59765 16.4486L11.7962 13.1498C11.9961 12.9498 12.1961 12.6499 12.1961 12.35C12.1961 12.0501 11.9961 11.4504 11.7962 11.3504Z" fill="#4CAF50"/>
<path d="M16.9945 14.4493H12.7959C12.1961 14.4493 11.7963 14.8492 11.7963 15.449C11.7963 16.0488 12.1961 16.4486 12.7959 16.4486H16.9945C17.5943 16.4486 17.9941 16.0488 17.9941 15.449C17.9941 14.8492 17.5943 14.4493 16.9945 14.4493Z" fill="#4CAF50"/>
<path d="M21.0931 2.65323H2.89934C1.79972 2.65323 1 3.55292 1 4.55257V19.4474C1 20.547 1.89969 21.3468 2.89934 21.3468H21.0931C22.1927 21.3468 22.9924 20.4471 22.9924 19.4474V4.65254C23.0924 3.55292 22.1927 2.65323 21.0931 2.65323ZM20.8931 19.3475H3.09927V4.85247H20.9931V19.3475H20.8931Z" fill="#2196F3"/>
</svg>
