<svg width="24" height="24" viewBox="0 0 24 24" fill="none" xmlns="http://www.w3.org/2000/svg">
<path d="M8.92 11.23H7.38C7.05 9.80003 5.73 8.81003 4.3 8.81003C2.43 8.81003 1 10.24 1 12C1 13.76 2.43 15.19 4.19 15.19C5.73 15.19 6.94 14.2 7.27 12.77H8.81C9.25 12.77 9.58 12.44 9.58 12C9.69 11.56 9.36 11.23 8.92 11.23ZM4.19 13.54C3.31 13.54 2.65 12.88 2.65 12C2.65 11.12 3.31 10.46 4.19 10.46C5.07 10.46 5.73 11.12 5.73 12C5.73 12.88 5.07 13.54 4.19 13.54Z" fill="#78909C"/>
<path d="M19.81 8.81C18.27 8.81 17.06 9.8 16.73 11.23H15.19C14.75 11.23 14.42 11.56 14.42 12C14.42 12.44 14.75 12.77 15.19 12.77H16.73C17.06 14.2 18.38 15.19 19.81 15.19C21.57 15.19 23 13.76 23 12C23 10.24 21.57 8.81 19.81 8.81Z" fill="#78909C"/>
<path d="M4.19 7.38C4.74 7.38 5.4 7.27 5.84 6.94L8.37 9.47C8.7 9.8 9.14 9.8 9.47 9.47C9.8 9.14 9.8 8.7 9.47 8.37L6.94 5.84C7.27 5.4 7.38 4.85 7.38 4.19C7.38 2.43 5.95 1 4.19 1C2.43 1 1 2.43 1 4.19C1 5.95 2.43 7.38 4.19 7.38ZM4.19 2.65C5.07 2.65 5.73 3.31 5.73 4.19C5.73 5.07 5.07 5.73 4.19 5.73C3.31 5.73 2.65 5.07 2.65 4.19C2.65 3.31 3.31 2.65 4.19 2.65Z" fill="#673AB7"/>
<path d="M19.81 16.62C19.26 16.62 18.6 16.73 18.16 17.06L15.63 14.53C15.3 14.2 14.86 14.2 14.53 14.53C14.2 14.86 14.2 15.3 14.53 15.63L17.06 18.16C16.73 18.6 16.62 19.15 16.62 19.81C16.62 21.57 18.05 23 19.81 23C21.57 23 23 21.57 23 19.81C23 18.05 21.57 16.62 19.81 16.62Z" fill="#673AB7"/>
<path d="M12.77 4.96H16.73C17.06 6.39 18.38 7.38 19.81 7.38C21.57 7.38 23 5.95 23 4.19C23 2.43 21.57 1 19.81 1C18.27 1 17.06 1.99 16.73 3.42H12C11.56 3.42 11.23 3.75 11.23 4.19V19.04H7.38001C7.05001 17.61 5.73001 16.62 4.30001 16.62C2.54001 16.62 1.11001 18.05 1.11001 19.81C1.00001 21.57 2.43001 23 4.19001 23C5.73001 23 6.94001 22.01 7.27001 20.58H12C12.44 20.58 12.77 20.25 12.77 19.81V4.96ZM4.19001 21.35C3.31001 21.35 2.65001 20.69 2.65001 19.81C2.65001 18.93 3.31001 18.27 4.19001 18.27C5.07001 18.27 5.73001 18.93 5.73001 19.81C5.73001 20.69 5.07001 21.35 4.19001 21.35Z" fill="#673AB7"/>
</svg>
