<svg width="24" height="24" viewBox="0 0 24 24" fill="none" xmlns="http://www.w3.org/2000/svg">
<path d="M22.7737 7.47429C22.6606 7.248 22.5474 7.02172 22.3211 6.79543L17.1166 1.59086C16.8903 1.36458 16.7771 1.25143 16.4377 1.13829C16.0983 1.02515 15.9851 1.02515 15.6457 1.02515H8.17829C7.952 1.02515 7.72572 1.02515 7.38629 1.13829C7.16 1.25143 6.93371 1.36458 6.70743 1.59086L1.50286 6.79543C1.27657 7.02172 1.16343 7.13486 1.05029 7.47429C0.937143 7.81372 1.05029 7.92686 1.05029 8.26629V15.7337C1.05029 15.96 1.05029 16.1863 1.16343 16.5257C1.27657 16.752 1.38971 16.9783 1.616 17.2046L6.82057 22.4091C7.04686 22.6354 7.16 22.7486 7.49943 22.8617C7.72571 22.9749 7.952 22.9749 8.29143 22.9749H15.7589C15.9851 22.9749 16.2114 22.9749 16.5509 22.8617C16.8903 22.7486 17.0034 22.6354 17.2297 22.4091L22.4343 17.2046C22.6606 16.9783 22.7737 16.8651 22.8869 16.5257C23 16.2994 23 16.0731 23 15.7337V8.26629C22.8869 7.92686 22.8869 7.70058 22.7737 7.47429ZM7.16 13.6971C7.04686 13.9234 6.82057 14.0366 6.59429 14.1497C6.368 14.2629 6.02857 14.376 5.68914 14.376C5.34971 14.376 5.01029 14.2629 4.784 14.1497C4.55771 14.0366 4.33143 13.8103 4.10514 13.584C3.992 13.3577 3.87886 13.0183 3.87886 12.6789H4.784C4.784 12.792 4.784 13.0183 4.89714 13.1314C5.01029 13.2446 5.12343 13.3577 5.23657 13.3577C5.34971 13.3577 5.46286 13.4709 5.68914 13.4709C5.80229 13.4709 6.02857 13.4709 6.14171 13.3577C6.25486 13.3577 6.368 13.2446 6.368 13.1314C6.48114 13.0183 6.48114 12.9051 6.48114 12.792C6.48114 12.6789 6.48114 12.5657 6.368 12.5657C6.25486 12.4526 6.25486 12.4526 6.14171 12.3394C6.02857 12.3394 5.91543 12.2263 5.68914 12.2263L5.23657 12.1131C4.89714 12 4.55771 11.8869 4.33143 11.6606C4.10514 11.4343 3.992 11.208 3.992 10.8686C3.992 10.5291 4.10514 10.3029 4.21829 10.0766C4.33143 9.85029 4.55771 9.73715 4.784 9.624C5.01029 9.51086 5.34971 9.39772 5.68914 9.39772C6.02857 9.39772 6.368 9.51086 6.59429 9.624C6.82057 9.73715 7.04686 9.96343 7.16 10.0766C7.27314 10.3029 7.38629 10.5291 7.38629 10.8686H6.48114C6.48114 10.6423 6.368 10.5291 6.25486 10.416C6.14171 10.3029 5.91543 10.3029 5.68914 10.3029C5.576 10.3029 5.34971 10.3029 5.34971 10.416C5.23657 10.416 5.12343 10.5291 5.12343 10.6423C5.12343 10.7554 5.01029 10.8686 5.01029 10.8686C5.01029 10.9817 5.01029 10.9817 5.01029 11.0949C5.01029 11.208 5.01029 11.208 5.12343 11.208C5.23657 11.208 5.23657 11.3211 5.34971 11.3211C5.46286 11.3211 5.576 11.4343 5.576 11.4343L6.02857 11.5474C6.25486 11.5474 6.368 11.6606 6.59429 11.7737C6.70743 11.8869 6.93371 12 7.04686 12.1131C7.16 12.2263 7.27314 12.3394 7.27314 12.5657C7.38629 12.6789 7.38629 12.9051 7.38629 13.1314C7.38629 13.2446 7.27314 13.4709 7.16 13.6971ZM11.4594 10.416H10.1017V14.376H9.19657V10.416H7.83886V9.624H11.5726V10.416H11.4594ZM15.7589 13.2446C15.5326 13.584 15.3063 13.9234 14.9669 14.0366C14.6274 14.2629 14.288 14.376 13.9486 14.376C13.496 14.376 13.1566 14.2629 12.9303 14.0366C12.5909 13.8103 12.3646 13.584 12.1383 13.2446C11.912 12.9051 11.912 12.4526 11.912 11.8869C11.912 11.3211 12.0251 10.9817 12.1383 10.5291C12.3646 10.1897 12.5909 9.85029 12.9303 9.73715C13.2697 9.51086 13.6091 9.39772 13.9486 9.39772C14.288 9.39772 14.7406 9.51086 14.9669 9.73715C15.3063 9.96343 15.5326 10.1897 15.7589 10.5291C15.9851 10.8686 15.9851 11.3211 15.9851 11.8869C15.9851 12.4526 15.9851 12.9051 15.7589 13.2446ZM19.9451 12C19.832 12.2263 19.6057 12.4526 19.3794 12.5657C19.1531 12.6789 18.8137 12.792 18.4743 12.792H17.6823V14.376H16.7771V9.624H18.5874C18.9269 9.624 19.2663 9.73715 19.4926 9.85029C19.7189 9.96343 19.9451 10.1897 20.0583 10.416C20.1714 10.6423 20.2846 10.9817 20.2846 11.208C20.1714 11.5474 20.0583 11.7737 19.9451 12Z" fill="#F44336"/>
<path d="M18.8137 10.5292C18.7005 10.416 18.5874 10.416 18.3611 10.416H17.6823V12H18.3611C18.5874 12 18.7005 12 18.8137 11.8869C18.9268 11.7738 19.04 11.7738 19.04 11.6606C19.1531 11.4343 19.1531 11.3212 19.1531 11.208C19.1531 11.0949 19.1531 10.8686 19.04 10.7555C19.04 10.6423 18.9268 10.5292 18.8137 10.5292Z" fill="#F44336"/>
<path d="M14.5143 10.5291C14.288 10.416 14.1749 10.3028 13.9486 10.3028C13.7223 10.3028 13.496 10.416 13.3829 10.5291C13.1566 10.6423 13.0434 10.8685 12.9303 11.0948C12.8171 11.3211 12.8171 11.6605 12.8171 12C12.8171 12.3394 12.8171 12.5657 12.9303 12.9051C13.0434 13.1314 13.1566 13.3577 13.3829 13.4708C13.496 13.4708 13.7223 13.4708 13.9486 13.4708C14.1749 13.4708 14.4011 13.3577 14.5143 13.2445C14.7406 13.1314 14.8537 12.9051 14.9669 12.6788C15.08 12.4525 15.08 12.1131 15.08 11.7737C15.08 11.4343 15.08 11.208 14.9669 10.8685C14.8537 10.8685 14.7406 10.6423 14.5143 10.5291Z" fill="#F44336"/>
</svg>
