<svg width="16" height="16" viewBox="0 0 16 16" fill="none" xmlns="http://www.w3.org/2000/svg">
<path d="M13.2503 3.625H2.75031C2.69285 3.625 2.63596 3.63631 2.58288 3.6583C2.5298 3.68029 2.48157 3.71251 2.44094 3.75314C2.40032 3.79376 2.36809 3.84199 2.3461 3.89507C2.32412 3.94815 2.3128 4.00505 2.31281 4.0625V11.5C2.31307 11.732 2.40534 11.9544 2.56938 12.1184C2.73342 12.2825 2.95582 12.3747 3.18781 12.375H12.8128C13.0448 12.3747 13.2672 12.2825 13.4312 12.1184C13.5953 11.9544 13.6875 11.732 13.6878 11.5V4.0625C13.6878 4.00505 13.6765 3.94815 13.6545 3.89507C13.6325 3.84199 13.6003 3.79376 13.5597 3.75314C13.519 3.71251 13.4708 3.68029 13.4177 3.6583C13.3647 3.63631 13.3078 3.625 13.2503 3.625ZM3.18781 7.125H5.37531V8.875H3.18781V7.125ZM6.25031 7.125H12.813L12.8132 8.875H6.25031V7.125ZM3.18781 9.75H5.37531V11.5H3.18781V9.75ZM12.8128 11.5H6.25031V9.75H12.8132L12.8134 11.5L12.8128 11.5Z" fill="#673AB7"/>
</svg>
