<svg width="16" height="16" viewBox="0 0 16 16" fill="none" xmlns="http://www.w3.org/2000/svg">
<rect x="1.58334" y="2.75" width="12.8333" height="10.5" rx="1" fill="#4CAF50"/>
<path d="M3.88819 7.83407L2.91597 6.86185C2.90237 6.84825 2.88505 6.83899 2.86619 6.83524C2.84733 6.83149 2.82778 6.83342 2.81002 6.84078C2.79225 6.84813 2.77707 6.8606 2.76638 6.87658C2.7557 6.89257 2.75 6.91137 2.75 6.9306V8.87504C2.75 8.89427 2.7557 8.91306 2.76639 8.92905C2.77707 8.94504 2.79225 8.9575 2.81002 8.96486C2.82778 8.97222 2.84733 8.97415 2.86619 8.97039C2.88505 8.96664 2.90237 8.95739 2.91597 8.94379L3.88819 7.97157C3.89722 7.96254 3.90438 7.95182 3.90927 7.94003C3.91415 7.92823 3.91667 7.91559 3.91667 7.90282C3.91667 7.89005 3.91415 7.87741 3.90927 7.86561C3.90438 7.85381 3.89722 7.8431 3.88819 7.83407Z" fill="white"/>
<path d="M13.2215 7.83407L12.2493 6.86185C12.2357 6.84825 12.2184 6.83899 12.1995 6.83524C12.1807 6.83149 12.1611 6.83342 12.1434 6.84078C12.1256 6.84813 12.1104 6.8606 12.0997 6.87658C12.089 6.89257 12.0833 6.91137 12.0833 6.9306V8.87504C12.0833 8.89427 12.089 8.91306 12.0997 8.92905C12.1104 8.94504 12.1256 8.9575 12.1434 8.96486C12.1611 8.97222 12.1807 8.97415 12.1995 8.97039C12.2184 8.96664 12.2357 8.95739 12.2493 8.94379L13.2215 7.97157C13.2306 7.96254 13.2377 7.95182 13.2426 7.94003C13.2475 7.92823 13.25 7.91559 13.25 7.90282C13.25 7.89005 13.2475 7.87741 13.2426 7.86561C13.2377 7.85381 13.2306 7.8431 13.2215 7.83407Z" fill="white"/>
<rect x="5.08334" y="4.5" width="1.16667" height="7" fill="white"/>
<rect x="7.41666" y="4.5" width="1.16667" height="7" fill="white"/>
<rect x="9.75" y="4.5" width="1.16667" height="7" fill="white"/>
</svg>
