<svg width="24" height="24" viewBox="0 0 24 24" fill="none" xmlns="http://www.w3.org/2000/svg">
<path fill-rule="evenodd" clip-rule="evenodd" d="M10.6931 2.4703C11.1287 2.25248 11.5644 2.14357 12 2.14357C12.4356 2.14357 12.8713 2.25248 13.3069 2.4703C13.7426 2.68812 14.0693 3.01486 14.2871 3.4505L22.6733 17.9356C22.8911 18.3713 23 18.8069 23 19.2426C23 19.6782 22.8911 20.1139 22.6733 20.5495C22.4554 20.9852 22.1287 21.3119 21.6931 21.5297C21.2574 21.7475 20.8218 21.8564 20.3861 21.8564H3.61386C3.17822 21.8564 2.74257 21.7475 2.30693 21.5297C1.87129 21.3119 1.54455 20.9852 1.32673 20.5495C1.10891 20.2228 1 19.6782 1 19.2426C1 18.8069 1.10891 18.3713 1.32673 17.9356L9.71287 3.4505C9.93069 3.01486 10.2574 2.68812 10.6931 2.4703ZM12 19.2426C12.8713 19.2426 13.5248 18.5891 13.5248 17.7178C13.5248 16.8465 12.8713 16.1931 12 16.1931C11.1287 16.1931 10.4752 16.8465 10.4752 17.7178C10.4752 18.5891 11.1287 19.2426 12 19.2426ZM12 9.22278C12.8713 9.22278 13.6337 9.98515 13.6337 10.8564V13.9059C13.6337 14.7772 12.8713 15.5396 12 15.5396C11.1287 15.5396 10.3663 14.7772 10.3663 13.9059V10.8564C10.3663 9.98515 11.1287 9.22278 12 9.22278Z" fill="#F44336"/>
</svg>
