<svg width="24" height="24" viewBox="0 0 24 24" fill="none" xmlns="http://www.w3.org/2000/svg">
<path d="M4.14286 14.9333C3.51429 14.9333 3.09524 14.5143 3.09524 13.8857V4.14286C3.09524 3.51429 3.51429 3.09524 4.14286 3.09524H13.8857C14.5143 3.09524 14.9333 3.51429 14.9333 4.14286V7.28571H17.0286V4.14286C17.0286 2.3619 15.6667 1 13.8857 1H4.14286C2.3619 1 1 2.3619 1 4.14286V13.8857C1 15.6667 2.3619 17.0286 4.14286 17.0286H7.28571V14.9333H4.14286Z" fill="#78909C"/>
<path d="M20.9048 7.28574H17.0286H14.9333H9.38094C8.22856 7.28574 7.28571 8.22859 7.28571 9.38097V14.9334V17.0286V20.9048C7.28571 22.0572 8.22856 23 9.38094 23H20.9048C22.0571 23 23 22.0572 23 20.9048V9.38097C23 8.22859 22.0571 7.28574 20.9048 7.28574ZM19.3333 17.8667C19.7524 18.2857 19.7524 18.9143 19.3333 19.3334C18.9143 19.7524 18.2857 19.7524 17.8667 19.3334L15.1428 16.6095L12.419 19.3334C12 19.7524 11.3714 19.7524 10.9524 19.3334C10.5333 18.9143 10.5333 18.2857 10.9524 17.8667L13.6762 15.1429L10.9524 12.4191C10.5333 12 10.5333 11.3715 10.9524 10.9524C11.3714 10.5334 12 10.5334 12.419 10.9524L15.1428 13.6762L17.8667 10.9524C18.2857 10.5334 18.9143 10.5334 19.3333 10.9524C19.7524 11.3715 19.7524 12 19.3333 12.4191L16.6095 15.1429L19.3333 17.8667Z" fill="#FF9800"/>
</svg>
