<svg width="16" height="16" viewBox="0 0 16 16" fill="none" xmlns="http://www.w3.org/2000/svg">
<path fill-rule="evenodd" clip-rule="evenodd" d="M9.83508 2.29564L12.9285 5.43666C13.0106 5.52215 13.0562 5.63699 13.0556 5.75637V12.9359C13.0556 13.1739 12.9624 13.4021 12.7967 13.5704C12.6309 13.7387 12.4061 13.8333 12.1717 13.8333H3.77526C3.65806 13.8333 3.54565 13.786 3.46278 13.7019C3.3799 13.6177 3.33334 13.5036 3.33334 13.3846C3.33334 13.2656 3.3799 13.1514 3.46278 13.0673C3.54565 12.9831 3.65806 12.9359 3.77526 12.9359H12.1717V6.20509H9.52021C9.403 6.20509 9.2906 6.15782 9.20772 6.07367C9.12485 5.98952 9.07829 5.87538 9.07829 5.75637V3.06407H4.21718V6.20509C4.21718 6.3241 4.17062 6.43823 4.08775 6.52238C4.00487 6.60653 3.89247 6.65381 3.77526 6.65381C3.65806 6.65381 3.54565 6.60653 3.46278 6.52238C3.3799 6.43823 3.33334 6.3241 3.33334 6.20509V3.06407C3.33334 2.82605 3.42646 2.59779 3.59221 2.42949C3.75797 2.26118 3.98277 2.16663 4.21718 2.16663H9.52021C9.63778 2.16596 9.75089 2.2123 9.83508 2.29564ZM11.5475 5.30766L9.96213 3.69788V5.30766H11.5475Z" fill="#78909C"/>
<path d="M4.0139 9.16664V9.50692H4.69445C4.7847 9.50692 4.87125 9.54277 4.93507 9.60658C4.99888 9.6704 5.03473 9.75695 5.03473 9.84719C5.03473 9.93744 4.99888 10.024 4.93507 10.0878C4.87125 10.1516 4.7847 10.1875 4.69445 10.1875H4.0139V10.5278H4.86459C4.95484 10.5278 5.04139 10.5636 5.10521 10.6274C5.16902 10.6912 5.20487 10.7778 5.20487 10.868C5.20487 10.9583 5.16902 11.0448 5.10521 11.1086C5.04139 11.1725 4.95484 11.2083 4.86459 11.2083H3.67362C3.58337 11.2083 3.49682 11.1725 3.43301 11.1086C3.36919 11.0448 3.33334 10.9583 3.33334 10.868V8.82636C3.33334 8.73611 3.36919 8.64956 3.43301 8.58575C3.49682 8.52193 3.58337 8.48608 3.67362 8.48608H4.86459C4.95484 8.48608 5.04139 8.52193 5.10521 8.58575C5.16902 8.64956 5.20487 8.73611 5.20487 8.82636C5.20487 8.91661 5.16902 9.00316 5.10521 9.06697C5.04139 9.13079 4.95484 9.16664 4.86459 9.16664H4.0139Z" fill="#4CAF50"/>
<path d="M9.8691 8.58575C9.93291 8.64956 9.96876 8.73611 9.96876 8.82636V10.868C9.96876 10.9583 9.93291 11.0448 9.8691 11.1086C9.80528 11.1725 9.71873 11.2083 9.62848 11.2083C9.53824 11.2083 9.45168 11.1725 9.38787 11.1086C9.32406 11.0448 9.28821 10.9583 9.28821 10.868V8.82636C9.28821 8.73611 9.32406 8.64956 9.38787 8.58575C9.45168 8.52193 9.53824 8.48608 9.62848 8.48608C9.71873 8.48608 9.80528 8.52193 9.8691 8.58575Z" fill="#4CAF50"/>
<path fill-rule="evenodd" clip-rule="evenodd" d="M7.16145 8.48608H6.56596C6.47571 8.48608 6.38916 8.52193 6.32535 8.58575C6.26153 8.64956 6.22568 8.73611 6.22568 8.82636V10.868C6.22568 10.9583 6.26153 11.0448 6.32535 11.1086C6.38916 11.1725 6.47571 11.2083 6.56596 11.2083H7.16145C7.52243 11.2083 7.86864 11.0649 8.1239 10.8096C8.37915 10.5544 8.52256 10.2082 8.52256 9.84719C8.52256 9.48621 8.37915 9.14 8.1239 8.88474C7.86864 8.62949 7.52243 8.48608 7.16145 8.48608ZM7.16144 10.5278H6.90623V9.16664H7.16144C7.34193 9.16664 7.51504 9.23834 7.64266 9.36597C7.77029 9.4936 7.84199 9.6667 7.84199 9.84719C7.84199 10.0277 7.77029 10.2008 7.64266 10.3284C7.51504 10.456 7.34193 10.5278 7.16144 10.5278Z" fill="#4CAF50"/>
</svg>
