<svg width="24" height="24" viewBox="0 0 24 24" fill="none" xmlns="http://www.w3.org/2000/svg">
<path fill-rule="evenodd" clip-rule="evenodd" d="M9.14748 4.20693C8.73014 2.37064 7.08762 1 5.125 1C2.84682 1 1 2.84682 1 5.125C1 7.40321 2.84682 9.25 5.125 9.25C7.08861 9.25 8.73179 7.87797 9.14814 6.04031H9.24934C9.73532 6.04042 10.2019 6.23347 10.5457 6.57722C10.8894 6.92108 11.0826 7.38737 11.0826 7.87357L11.0828 16.1237C11.0828 17.0961 11.469 18.0287 12.1566 18.7163C12.8443 19.4039 13.7768 19.7902 14.7493 19.7903H14.8519C15.2682 21.628 16.9114 23 18.875 23C21.1532 23 23 21.1532 23 18.875C23 16.5968 21.1532 14.75 18.875 14.75C16.9124 14.75 15.2699 16.1206 14.8525 17.9569H14.7493C14.2631 17.9569 13.7969 17.7638 13.453 17.4199C13.1092 17.0762 12.9161 16.6099 12.9161 16.1237L12.916 7.87357C12.916 7.22435 12.7437 6.59295 12.4247 6.04031H14.8519C15.2682 7.87797 16.9114 9.25 18.875 9.25C21.1532 9.25 23 7.40321 23 5.125C23 2.84682 21.1532 1 18.875 1C16.9124 1 15.2699 2.37064 14.8525 4.20693H9.24934H9.14748Z" fill="#2196F3"/>
</svg>
