<svg width="24" height="24" viewBox="0 0 24 24" fill="none" xmlns="http://www.w3.org/2000/svg">
<path d="M21.3508 7.39678C21.3508 7.28611 21.2402 7.17545 21.1295 7.06479L15.1538 1.08909C15.1538 1.08909 15.1538 1.08909 15.0432 1.08909C15.0432 1.08909 15.0432 1.08909 14.9325 1.08909C14.9325 1.08909 14.9325 1.08909 14.8218 1.08909C14.8218 1.08909 14.8218 1.08909 14.7112 1.08909H14.6005H4.30903C3.86638 0.867767 3.42374 1.08909 3.20241 1.42107C2.87043 1.6424 2.64911 2.08504 2.64911 2.52768V21.2294C2.64911 21.6721 2.87043 22.1147 3.20241 22.4467C3.42374 22.7787 3.86638 23 4.30903 23H19.5803C20.0229 23 20.4656 22.7787 20.7975 22.4467C21.1295 22.1147 21.3508 21.6721 21.3508 21.2294V7.72876C21.3508 7.6181 21.3508 7.39678 21.3508 7.39678ZM16.1498 14.8111C16.0391 15.5857 15.5965 16.2497 15.0432 16.803C14.4899 17.3563 13.8259 17.6883 13.0513 17.9096C12.2766 18.0202 11.502 18.0202 10.838 17.6883L8.18217 20.7868C8.07151 20.8974 7.85018 21.1188 7.62886 21.1188C7.40754 21.2294 7.18622 21.2294 6.96489 21.2294C6.74357 21.2294 6.52225 21.2294 6.30093 21.1188C6.07961 21.0081 5.85828 20.8974 5.74762 20.7868C5.63696 20.6761 5.41564 20.4548 5.41564 20.2335C5.30498 20.0121 5.30498 19.7908 5.30498 19.5695C5.30498 19.3482 5.30498 19.1269 5.41564 18.9055C5.5263 18.6842 5.63696 18.4629 5.74762 18.3522L8.95679 15.5857C8.62481 14.9217 8.51415 14.1471 8.73547 13.3725C8.84613 12.5978 9.28878 11.9339 9.73142 11.3806C10.2847 10.8273 10.9487 10.4953 11.7233 10.274C12.498 10.1633 13.2726 10.1633 13.9365 10.4953C14.0472 10.4953 14.0472 10.6059 14.0472 10.6059C14.0472 10.6059 14.1579 10.7166 14.1579 10.8273C14.1579 10.9379 14.1579 10.9379 14.1579 11.0486C14.1579 11.1593 14.0472 11.1593 14.0472 11.2699L11.9446 13.3725L12.166 14.3684L13.1619 14.5898L15.2645 12.4872C15.2645 12.4872 15.3751 12.3765 15.4858 12.3765C15.5965 12.3765 15.5965 12.3765 15.7071 12.3765C15.8178 12.3765 15.8178 12.3765 15.9284 12.4872L16.0391 12.5979C16.2604 13.2618 16.3711 14.0364 16.1498 14.8111ZM14.6005 7.72876V2.97033L19.3589 7.72876H14.6005Z" fill="#4CAF50"/>
</svg>
