<?xml version="1.0" encoding="UTF-8" standalone="no"?>
<svg
   viewBox="0 0 256 256"
   version="1.1"
   id="svg1"
   sodipodi:docname="airplane tilt blue_purple.svg"
   xmlns:inkscape="http://www.inkscape.org/namespaces/inkscape"
   xmlns:sodipodi="http://sodipodi.sourceforge.net/DTD/sodipodi-0.dtd"
   xmlns:xlink="http://www.w3.org/1999/xlink"
   xmlns="http://www.w3.org/2000/svg"
   xmlns:svg="http://www.w3.org/2000/svg">
  <defs
     id="defs3">
    <linearGradient
       id="linearGradient1"
       inkscape:collect="always">
      <stop
         style="stop-color:#a03291;stop-opacity:1;"
         offset="0"
         id="stop1" />
      <stop
         style="stop-color:#4b4fe2ff;stop-opacity:1;"
         offset="0.76340693"
         id="stop2" />
    </linearGradient>
    <linearGradient
       inkscape:collect="always"
       xlink:href="#linearGradient1"
       id="linearGradient2"
       x1="232.4884"
       y1="23.847498"
       x2="23.977745"
       y2="232.35815"
       gradientUnits="userSpaceOnUse" />
  </defs>
  <defs
     id="defs1" />
  <sodipodi:namedview
     id="namedview1"
     pagecolor="#ffffff"
     bordercolor="#000000"
     borderopacity="0.25"
     inkscape:showpageshadow="2"
     inkscape:pageopacity="0.0"
     inkscape:pagecheckerboard="0"
     inkscape:deskcolor="#d1d1d1" />
  <path
     id="path1"
     style="baseline-shift:baseline;display:inline;overflow:visible;vector-effect:none;fill:url(#linearGradient2);stroke-linecap:round;stroke-linejoin:round;enable-background:accumulate;stop-color:#000000;stop-opacity:1;opacity:1;fill-opacity:1"
     d="M 192 32.007812 C 183.78308 32.00781 175.56677 35.120732 169.34375 41.34375 A 8.0008 8.0008 0 0 0 169.16992 41.523438 L 141.7793 70.679688 L 58.734375 40.482422 A 8.0008 8.0008 0 0 0 50.34375 42.34375 L 26.34375 66.34375 A 8.0008 8.0008 0 0 0 27.5625 78.65625 L 91.443359 121.24414 L 76.685547 136 L 56 136 A 8.0008 8.0008 0 0 0 50.34375 138.34375 L 26.34375 162.34375 A 8.0008 8.0008 0 0 0 29.029297 175.42773 L 65.845703 190.1543 L 80.572266 226.9707 A 8.0008 8.0008 0 0 0 93.65625 229.65625 L 117.65625 205.65625 A 8.0008 8.0008 0 0 0 120 200 L 120 179.31445 L 134.75586 164.55664 L 177.34375 228.4375 A 8.0008 8.0008 0 0 0 189.65625 229.65625 L 213.65625 205.65625 A 8.0008 8.0008 0 0 0 215.51758 197.26562 L 185.32031 114.2207 L 214.47656 86.830078 A 8.0008 8.0008 0 0 0 214.65625 86.65625 C 227.10229 74.210214 227.10228 53.789776 214.65625 41.34375 C 208.43324 35.120737 200.21692 32.007816 192 32.007812 z M 192 47.908203 C 196.08866 47.908205 200.17792 49.490422 203.34375 52.65625 C 209.6687 58.981197 209.67286 68.989511 203.36133 75.322266 L 170.52344 106.16992 A 8.0008 8.0008 0 0 0 168.48242 114.73438 L 198.74023 197.94531 L 185.24414 211.44336 L 142.65625 147.5625 A 8.0008 8.0008 0 0 0 130.34375 146.34375 L 106.34375 170.34375 A 8.0008 8.0008 0 0 0 104 176 L 104 196.68555 L 90.921875 209.76562 L 79.427734 181.0293 A 8.0008 8.0008 0 0 0 74.970703 176.57227 L 46.234375 165.07812 L 59.314453 152 L 80 152 A 8.0008 8.0008 0 0 0 85.65625 149.65625 L 109.65625 125.65625 A 8.0008 8.0008 0 0 0 108.4375 113.34375 L 44.556641 70.755859 L 58.054688 57.259766 L 141.26562 87.517578 A 8.0008 8.0008 0 0 0 149.83008 85.476562 L 180.67773 52.638672 C 183.84075 49.486244 187.92001 47.908201 192 47.908203 z " />
</svg>
