<?xml version="1.0" encoding="UTF-8" standalone="no"?>
<svg
   viewBox="0 0 256 256"
   version="1.1"
   id="svg3"
   sodipodi:docname="align bottom blue_purple.svg"
   xmlns:inkscape="http://www.inkscape.org/namespaces/inkscape"
   xmlns:sodipodi="http://sodipodi.sourceforge.net/DTD/sodipodi-0.dtd"
   xmlns:xlink="http://www.w3.org/1999/xlink"
   xmlns="http://www.w3.org/2000/svg"
   xmlns:svg="http://www.w3.org/2000/svg">
  <defs
     id="defs3">
    <linearGradient
       id="linearGradient1"
       inkscape:collect="always">
      <stop
         style="stop-color:#a03291;stop-opacity:1;"
         offset="0"
         id="stop1" />
      <stop
         style="stop-color:#4b4fe2ff;stop-opacity:1;"
         offset="0.76340693"
         id="stop2" />
    </linearGradient>
    <linearGradient
       inkscape:collect="always"
       xlink:href="#linearGradient1"
       id="linearGradient2"
       x1="232.4884"
       y1="23.847498"
       x2="23.977745"
       y2="232.35815"
       gradientUnits="userSpaceOnUse" />
  </defs>
  <defs
     id="defs1" />
  <sodipodi:namedview
     id="namedview3"
     pagecolor="#ffffff"
     bordercolor="#000000"
     borderopacity="0.25"
     inkscape:showpageshadow="2"
     inkscape:pageopacity="0.0"
     inkscape:pagecheckerboard="0"
     inkscape:deskcolor="#d1d1d1" />
  <path
     id="line1"
     style="baseline-shift:baseline;display:inline;overflow:visible;vector-effect:none;fill:url(#linearGradient2);stroke-linecap:round;stroke-linejoin:round;enable-background:accumulate;stop-color:#000000;stop-opacity:1;opacity:1;fill-opacity:1"
     d="M 64 24 C 55.274378 24 48 31.274378 48 40 L 48 176 C 48 184.72562 55.274378 192 64 192 L 104 192 C 112.72562 192 120 184.72562 120 176 L 120 40 C 120 31.274378 112.72562 24 104 24 L 64 24 z M 64 40 L 104 40 L 104 176 L 64 176 L 64 40 z M 152 64 C 143.27438 64 136 71.27438 136 80 L 136 176 C 136 184.72562 143.27438 192 152 192 L 192 192 C 200.72562 192 208 184.72562 208 176 L 208 80 C 208 71.27438 200.72562 64 192 64 L 152 64 z M 152 80 L 192 80 L 192 176 L 152 176 L 152 80 z M 40 208 A 8 8 0 0 0 32 216 A 8 8 0 0 0 40 224 L 216 224 A 8 8 0 0 0 224 216 A 8 8 0 0 0 216 208 L 40 208 z " />
</svg>
