<?xml version="1.0" encoding="UTF-8" standalone="no"?>
<svg
   viewBox="0 0 256 256"
   version="1.1"
   id="svg4"
   sodipodi:docname="align center horizontal blue_purple.svg"
   xmlns:inkscape="http://www.inkscape.org/namespaces/inkscape"
   xmlns:sodipodi="http://sodipodi.sourceforge.net/DTD/sodipodi-0.dtd"
   xmlns:xlink="http://www.w3.org/1999/xlink"
   xmlns="http://www.w3.org/2000/svg"
   xmlns:svg="http://www.w3.org/2000/svg">
  <defs
     id="defs3">
    <linearGradient
       id="linearGradient1"
       inkscape:collect="always">
      <stop
         style="stop-color:#a03291;stop-opacity:1;"
         offset="0"
         id="stop1" />
      <stop
         style="stop-color:#4b4fe2ff;stop-opacity:1;"
         offset="0.76340693"
         id="stop2" />
    </linearGradient>
    <linearGradient
       inkscape:collect="always"
       xlink:href="#linearGradient1"
       id="linearGradient2"
       x1="232.4884"
       y1="23.847498"
       x2="23.977745"
       y2="232.35815"
       gradientUnits="userSpaceOnUse" />
  </defs>
  <defs
     id="defs4" />
  <sodipodi:namedview
     id="namedview4"
     pagecolor="#ffffff"
     bordercolor="#000000"
     borderopacity="0.25"
     inkscape:showpageshadow="2"
     inkscape:pageopacity="0.0"
     inkscape:pagecheckerboard="0"
     inkscape:deskcolor="#d1d1d1" />
  <path
     id="line1"
     style="baseline-shift:baseline;display:inline;overflow:visible;vector-effect:none;fill:url(#linearGradient2);stroke-linecap:round;stroke-linejoin:round;enable-background:accumulate;stop-color:#000000;stop-opacity:1;opacity:1;fill-opacity:1"
     d="M 128 24 A 8 8 0 0 0 120 32 L 120 48 L 72 48 C 63.274378 48 56 55.274378 56 64 L 56 104 C 56 112.72562 63.274378 120 72 120 L 120 120 L 120 136 L 48 136 C 39.274378 136 32 143.27438 32 152 L 32 192 C 32 200.72562 39.274378 208 48 208 L 120 208 L 120 224 A 8 8 0 0 0 128 232 A 8 8 0 0 0 136 224 L 136 208 L 208 208 C 216.72562 208 224 200.72562 224 192 L 224 152 C 224 143.27438 216.72562 136 208 136 L 136 136 L 136 120 L 184 120 C 192.72562 120 200 112.72562 200 104 L 200 64 C 200 55.274378 192.72562 48 184 48 L 136 48 L 136 32 A 8 8 0 0 0 128 24 z M 72 64 L 184 64 L 184 104 L 72 104 L 72 64 z M 48 152 L 128 152 L 208 152 L 208 192 L 128 192 L 48 192 L 48 152 z " />
</svg>
