<?xml version="1.0" encoding="UTF-8" standalone="no"?>
<svg
   viewBox="0 0 256 256"
   version="1.1"
   id="svg3"
   sodipodi:docname="align top blue_purple.svg"
   xmlns:inkscape="http://www.inkscape.org/namespaces/inkscape"
   xmlns:sodipodi="http://sodipodi.sourceforge.net/DTD/sodipodi-0.dtd"
   xmlns:xlink="http://www.w3.org/1999/xlink"
   xmlns="http://www.w3.org/2000/svg"
   xmlns:svg="http://www.w3.org/2000/svg">
  <defs
     id="defs3">
    <linearGradient
       id="linearGradient1"
       inkscape:collect="always">
      <stop
         style="stop-color:#a03291;stop-opacity:1;"
         offset="0"
         id="stop1" />
      <stop
         style="stop-color:#4b4fe2ff;stop-opacity:1;"
         offset="0.76340693"
         id="stop2" />
    </linearGradient>
    <linearGradient
       inkscape:collect="always"
       xlink:href="#linearGradient1"
       id="linearGradient2"
       x1="232.4884"
       y1="23.847498"
       x2="23.977745"
       y2="232.35815"
       gradientUnits="userSpaceOnUse" />
  </defs>
  <defs
     id="defs1" />
  <sodipodi:namedview
     id="namedview3"
     pagecolor="#ffffff"
     bordercolor="#000000"
     borderopacity="0.25"
     inkscape:showpageshadow="2"
     inkscape:pageopacity="0.0"
     inkscape:pagecheckerboard="0"
     inkscape:deskcolor="#d1d1d1" />
  <path
     id="line1"
     style="baseline-shift:baseline;display:inline;overflow:visible;vector-effect:none;fill:url(#linearGradient2);stroke-linecap:round;stroke-linejoin:round;enable-background:accumulate;stop-color:#000000;stop-opacity:1;opacity:1;fill-opacity:1"
     d="M 40 32 A 8 8 0 0 0 32 40 A 8 8 0 0 0 40 48 L 216 48 A 8 8 0 0 0 224 40 A 8 8 0 0 0 216 32 L 40 32 z M 64 64 C 55.274378 64 48 71.274378 48 80 L 48 216 C 48 224.72562 55.274378 232 64 232 L 104 232 C 112.72562 232 120 224.72562 120 216 L 120 80 C 120 71.274378 112.72562 64 104 64 L 64 64 z M 152 64 C 143.27438 64 136 71.27438 136 80 L 136 176 C 136 184.72562 143.27438 192 152 192 L 192 192 C 200.72562 192 208 184.72562 208 176 L 208 80 C 208 71.27438 200.72562 64 192 64 L 152 64 z M 64 80 L 104 80 L 104 216 L 64 216 L 64 80 z M 152 80 L 192 80 L 192 176 L 152 176 L 152 80 z " />
</svg>
