<?xml version="1.0" encoding="UTF-8" standalone="no"?>
<svg
   viewBox="0 0 256 256"
   version="1.1"
   id="svg6"
   sodipodi:docname="aperture blue_purple.svg"
   xmlns:inkscape="http://www.inkscape.org/namespaces/inkscape"
   xmlns:sodipodi="http://sodipodi.sourceforge.net/DTD/sodipodi-0.dtd"
   xmlns:xlink="http://www.w3.org/1999/xlink"
   xmlns="http://www.w3.org/2000/svg"
   xmlns:svg="http://www.w3.org/2000/svg">
  <defs
     id="defs3">
    <linearGradient
       id="linearGradient1"
       inkscape:collect="always">
      <stop
         style="stop-color:#a03291;stop-opacity:1;"
         offset="0"
         id="stop1" />
      <stop
         style="stop-color:#4b4fe2ff;stop-opacity:1;"
         offset="0.76340693"
         id="stop2" />
    </linearGradient>
    <linearGradient
       inkscape:collect="always"
       xlink:href="#linearGradient1"
       id="linearGradient2"
       x1="232.4884"
       y1="23.847498"
       x2="23.977745"
       y2="232.35815"
       gradientUnits="userSpaceOnUse" />
  </defs>
  <defs
     id="defs6" />
  <sodipodi:namedview
     id="namedview6"
     pagecolor="#ffffff"
     bordercolor="#000000"
     borderopacity="0.25"
     inkscape:showpageshadow="2"
     inkscape:pageopacity="0.0"
     inkscape:pagecheckerboard="0"
     inkscape:deskcolor="#d1d1d1" />
  <path
     id="circle1"
     style="baseline-shift:baseline;display:inline;overflow:visible;vector-effect:none;fill:url(#linearGradient2);stroke-linecap:round;stroke-linejoin:round;enable-background:accumulate;stop-color:#000000;stop-opacity:1;opacity:1;fill-opacity:1"
     d="M 128 24 C 127.89007 24 127.78564 24.021142 127.67578 24.021484 A 8 8 0 0 0 127.14258 24.058594 C 89.314481 24.370721 56.220159 44.930302 38.273438 75.460938 A 8 8 0 0 0 37.648438 76.539062 C 28.96636 91.722588 24 109.29314 24 128 C 24 146.7057 28.965412 164.27416 37.646484 179.45703 A 8 8 0 0 0 38.275391 180.54297 C 56.241215 211.10267 89.38273 231.67872 127.25781 231.94922 A 8 8 0 0 0 127.80469 231.98633 C 127.8709 231.98645 127.93376 232 128 232 C 128.10993 232 128.21436 231.97886 128.32422 231.97852 A 8 8 0 0 0 128.85742 231.94141 C 166.68551 231.62928 199.77984 211.06968 217.72656 180.53906 A 8 8 0 0 0 218.35156 179.46094 C 227.03363 164.27742 232 146.70685 232 128 C 232 109.29429 227.0346 91.72585 218.35352 76.542969 A 8 8 0 0 0 217.72461 75.457031 C 199.75879 44.897312 166.61729 24.321285 128.74219 24.050781 A 8 8 0 0 0 128.19531 24.013672 C 128.1291 24.013547 128.06624 24 128 24 z M 122.42383 40.171875 L 139.94336 89.222656 L 58.214844 74.306641 C 73.229678 54.800728 96.254755 41.798518 122.42383 40.171875 z M 139.62109 40.755859 C 165.37465 44.13574 187.57996 58.59911 201.30664 79.21875 L 167.55273 118.95508 L 159.73242 97.0625 A 8 8 0 0 0 159.60938 96.71875 L 139.62109 40.755859 z M 49.101562 88.90625 L 100.39648 98.267578 L 85.429688 115.88672 A 8 8 0 0 0 85.025391 116.36328 L 46.607422 161.58594 C 42.348057 151.24263 40 139.90222 40 128 C 40 113.94661 43.273469 100.67625 49.101562 88.90625 z M 209.39258 94.414062 C 213.65194 104.75737 216 116.09778 216 128 C 216 142.05339 212.72653 155.32376 206.89844 167.09375 L 155.60352 157.73242 L 170.57031 140.11328 A 8 8 0 0 0 170.97266 139.64062 L 170.97461 139.63867 L 209.39258 94.414062 z M 118.57031 101.58398 L 146.15625 106.61914 L 155.5918 133.03516 L 137.42969 154.41602 L 109.84375 149.38086 L 100.4082 122.96484 L 118.57031 101.58398 z M 88.447266 137.04492 L 96.267578 158.9375 A 8 8 0 0 0 96.267578 158.93945 A 8 8 0 0 0 96.390625 159.2832 L 116.37891 215.24414 C 90.62535 211.86426 68.420041 197.40089 54.693359 176.78125 L 88.447266 137.04492 z M 116.05664 166.77734 L 197.78516 181.69336 C 182.77032 201.19927 159.74525 214.20149 133.57617 215.82812 L 116.05664 166.77734 z " />
</svg>
