<?xml version="1.0" encoding="UTF-8" standalone="no"?>
<svg
   viewBox="0 0 256 256"
   version="1.1"
   id="svg6"
   sodipodi:docname="app store logo blue_purple.svg"
   xmlns:inkscape="http://www.inkscape.org/namespaces/inkscape"
   xmlns:sodipodi="http://sodipodi.sourceforge.net/DTD/sodipodi-0.dtd"
   xmlns:xlink="http://www.w3.org/1999/xlink"
   xmlns="http://www.w3.org/2000/svg"
   xmlns:svg="http://www.w3.org/2000/svg">
  <defs
     id="defs3">
    <linearGradient
       id="linearGradient1"
       inkscape:collect="always">
      <stop
         style="stop-color:#a03291;stop-opacity:1;"
         offset="0"
         id="stop1" />
      <stop
         style="stop-color:#4b4fe2ff;stop-opacity:1;"
         offset="0.76340693"
         id="stop2" />
    </linearGradient>
    <linearGradient
       inkscape:collect="always"
       xlink:href="#linearGradient1"
       id="linearGradient2"
       x1="232.4884"
       y1="23.847498"
       x2="23.977745"
       y2="232.35815"
       gradientUnits="userSpaceOnUse" />
  </defs>
  <defs
     id="defs6" />
  <sodipodi:namedview
     id="namedview6"
     pagecolor="#ffffff"
     bordercolor="#000000"
     borderopacity="0.25"
     inkscape:showpageshadow="2"
     inkscape:pageopacity="0.0"
     inkscape:pagecheckerboard="0"
     inkscape:deskcolor="#d1d1d1" />
  <path
     id="line1"
     style="baseline-shift:baseline;display:inline;overflow:visible;vector-effect:none;fill:url(#linearGradient2);stroke-linecap:round;stroke-linejoin:round;enable-background:accumulate;stop-color:#000000;stop-opacity:1;opacity:1;fill-opacity:1"
     d="M 103.91797 24 A 8 8 0 0 0 99.929688 25.113281 A 8 8 0 0 0 97.113281 36.070312 L 118.70703 72.615234 L 71.794922 152 L 24 152 A 8 8 0 0 0 16 160 A 8 8 0 0 0 24 168 L 76.283203 168 L 76.4375 168 L 142.4707 168 A 8 8 0 0 0 150.4707 160 A 8 8 0 0 0 142.4707 152 L 90.380859 152 L 134.76562 76.890625 A 8 8 0 0 0 135.00195 76.488281 L 158.88672 36.070312 A 8 8 0 0 0 156.07031 25.113281 A 8 8 0 0 0 150.00781 24.251953 A 8 8 0 0 0 145.11328 27.929688 L 127.99805 56.892578 L 110.88672 27.929688 A 8 8 0 0 0 105.99219 24.251953 A 8 8 0 0 0 103.91797 24 z M 146.49805 96.070312 A 8 8 0 0 0 142.50977 97.183594 A 8 8 0 0 0 139.69336 108.14062 L 201.11328 212.07031 A 8 8 0 0 0 212.07031 214.88672 A 8 8 0 0 0 214.88672 203.92969 L 193.65234 168 L 232 168 A 8 8 0 0 0 240 160 A 8 8 0 0 0 232 152 L 184.19727 152 L 153.4668 100 A 8 8 0 0 0 148.57227 96.322266 A 8 8 0 0 0 146.49805 96.070312 z M 57.527344 184 A 8 8 0 0 0 55.455078 184.25195 A 8 8 0 0 0 50.5625 187.93164 L 41.111328 203.93164 A 8 8 0 0 0 43.931641 214.88867 A 8 8 0 0 0 54.888672 212.06836 L 64.337891 196.06836 A 8 8 0 0 0 61.517578 185.11133 A 8 8 0 0 0 57.527344 184 z " />
</svg>
