<?xml version="1.0" encoding="UTF-8" standalone="no"?>
<svg
   viewBox="0 0 256 256"
   version="1.1"
   id="svg2"
   sodipodi:docname="archive blue_purple.svg"
   xmlns:inkscape="http://www.inkscape.org/namespaces/inkscape"
   xmlns:sodipodi="http://sodipodi.sourceforge.net/DTD/sodipodi-0.dtd"
   xmlns:xlink="http://www.w3.org/1999/xlink"
   xmlns="http://www.w3.org/2000/svg"
   xmlns:svg="http://www.w3.org/2000/svg">
  <defs
     id="defs3">
    <linearGradient
       id="linearGradient1"
       inkscape:collect="always">
      <stop
         style="stop-color:#a03291;stop-opacity:1;"
         offset="0"
         id="stop1" />
      <stop
         style="stop-color:#4b4fe2ff;stop-opacity:1;"
         offset="0.76340693"
         id="stop2" />
    </linearGradient>
    <linearGradient
       inkscape:collect="always"
       xlink:href="#linearGradient1"
       id="linearGradient2"
       x1="232.4884"
       y1="23.847498"
       x2="23.977745"
       y2="232.35815"
       gradientUnits="userSpaceOnUse" />
  </defs>
  <defs
     id="defs2" />
  <sodipodi:namedview
     id="namedview2"
     pagecolor="#ffffff"
     bordercolor="#000000"
     borderopacity="0.25"
     inkscape:showpageshadow="2"
     inkscape:pageopacity="0.0"
     inkscape:pagecheckerboard="0"
     inkscape:deskcolor="#d1d1d1" />
  <path
     id="rect2"
     style="baseline-shift:baseline;display:inline;overflow:visible;vector-effect:none;fill:url(#linearGradient2);stroke-linecap:round;stroke-linejoin:round;enable-background:accumulate;stop-color:#000000;stop-opacity:1;opacity:1;fill-opacity:1"
     d="M 32 48 C 23.274378 48 16 55.274378 16 64 L 16 88 C 16 96.725622 23.274378 104 32 104 L 32 192 C 32 200.7418 39.258201 208 48 208 L 208 208 C 216.7418 208 224 200.7418 224 192 L 224 104 C 232.72562 104 240 96.725622 240 88 L 240 64 C 240 55.274378 232.72562 48 224 48 L 32 48 z M 32 64 L 224 64 L 224 88 L 32 88 L 32 64 z M 48 104 L 208 104 L 208 192 L 48 192 L 48 104 z M 104 128 A 8 8 0 0 0 96 136 A 8 8 0 0 0 104 144 L 152 144 A 8 8 0 0 0 160 136 A 8 8 0 0 0 152 128 L 104 128 z " />
</svg>
