<?xml version="1.0" encoding="UTF-8" standalone="no"?>
<svg
   viewBox="0 0 256 256"
   version="1.1"
   id="svg1"
   sodipodi:docname="arrow u down left blue_purple.svg"
   xmlns:inkscape="http://www.inkscape.org/namespaces/inkscape"
   xmlns:sodipodi="http://sodipodi.sourceforge.net/DTD/sodipodi-0.dtd"
   xmlns:xlink="http://www.w3.org/1999/xlink"
   xmlns="http://www.w3.org/2000/svg"
   xmlns:svg="http://www.w3.org/2000/svg">
  <defs
     id="defs3">
    <linearGradient
       id="linearGradient1"
       inkscape:collect="always">
      <stop
         style="stop-color:#a03291;stop-opacity:1;"
         offset="0"
         id="stop1" />
      <stop
         style="stop-color:#4b4fe2ff;stop-opacity:1;"
         offset="0.76340693"
         id="stop2" />
    </linearGradient>
    <linearGradient
       inkscape:collect="always"
       xlink:href="#linearGradient1"
       id="linearGradient2"
       x1="232.4884"
       y1="23.847498"
       x2="23.977745"
       y2="232.35815"
       gradientUnits="userSpaceOnUse" />
  </defs>
  <defs
     id="defs1" />
  <sodipodi:namedview
     id="namedview1"
     pagecolor="#ffffff"
     bordercolor="#000000"
     borderopacity="0.25"
     inkscape:showpageshadow="2"
     inkscape:pageopacity="0.0"
     inkscape:pagecheckerboard="0"
     inkscape:deskcolor="#d1d1d1" />
  <path
     id="polyline1"
     style="baseline-shift:baseline;display:inline;overflow:visible;vector-effect:none;fill:url(#linearGradient2);stroke-linecap:round;stroke-linejoin:round;enable-background:accumulate;stop-color:#000000;stop-opacity:1;opacity:1;fill-opacity:1"
     d="M 80 48 A 8 8 0 0 0 72 56 A 8 8 0 0 0 80 64 L 168 64 C 194.60443 64 216 85.395575 216 112 C 216 138.60443 194.60443 160 168 160 L 51.3125 160 L 85.65625 125.65625 A 8 8 0 0 0 85.65625 114.34375 A 8 8 0 0 0 80 112 A 8 8 0 0 0 74.34375 114.34375 L 26.425781 162.26172 L 26.34375 162.34375 A 8.0008 8.0008 0 0 0 26.0625 162.66406 A 8 8 0 0 0 25.677734 163.10352 A 8.0008 8.0008 0 0 0 25.390625 163.52539 A 8 8 0 0 0 25.095703 163.9668 A 8.0008 8.0008 0 0 0 24.853516 164.44531 A 8 8 0 0 0 24.617188 164.92188 A 8.0008 8.0008 0 0 0 24.453125 165.39844 A 8 8 0 0 0 24.279297 165.91406 A 8.0008 8.0008 0 0 0 24.201172 166.29297 A 8 8 0 0 0 24 168 A 8 8 0 0 0 24.201172 169.70703 A 8.0008 8.0008 0 0 0 24.279297 170.08594 A 8 8 0 0 0 24.453125 170.60156 A 8.0008 8.0008 0 0 0 24.617188 171.07812 A 8 8 0 0 0 24.853516 171.55469 A 8.0008 8.0008 0 0 0 25.095703 172.0332 A 8 8 0 0 0 25.390625 172.47461 A 8.0008 8.0008 0 0 0 25.677734 172.89648 A 8 8 0 0 0 26.0625 173.33594 A 8.0008 8.0008 0 0 0 26.34375 173.65625 L 26.425781 173.73828 L 74.34375 221.65625 A 8 8 0 0 0 85.65625 221.65625 A 8 8 0 0 0 85.65625 210.34375 L 51.3125 176 L 168 176 C 203.25147 176 232 147.25147 232 112 C 232 76.748533 203.25147 48 168 48 L 80 48 z " />
</svg>
