<?xml version="1.0" encoding="UTF-8" standalone="no"?>
<svg
   viewBox="0 0 256 256"
   version="1.1"
   id="svg1"
   sodipodi:docname="arrow down blue_purple.svg"
   xmlns:inkscape="http://www.inkscape.org/namespaces/inkscape"
   xmlns:sodipodi="http://sodipodi.sourceforge.net/DTD/sodipodi-0.dtd"
   xmlns:xlink="http://www.w3.org/1999/xlink"
   xmlns="http://www.w3.org/2000/svg"
   xmlns:svg="http://www.w3.org/2000/svg">
  <defs
     id="defs3">
    <linearGradient
       id="linearGradient1"
       inkscape:collect="always">
      <stop
         style="stop-color:#a03291;stop-opacity:1;"
         offset="0"
         id="stop1" />
      <stop
         style="stop-color:#4b4fe2ff;stop-opacity:1;"
         offset="0.76340693"
         id="stop2" />
    </linearGradient>
    <linearGradient
       inkscape:collect="always"
       xlink:href="#linearGradient1"
       id="linearGradient2"
       x1="232.4884"
       y1="23.847498"
       x2="23.977745"
       y2="232.35815"
       gradientUnits="userSpaceOnUse" />
  </defs>
  <defs
     id="defs1" />
  <sodipodi:namedview
     id="namedview1"
     pagecolor="#ffffff"
     bordercolor="#000000"
     borderopacity="0.25"
     inkscape:showpageshadow="2"
     inkscape:pageopacity="0.0"
     inkscape:pagecheckerboard="0"
     inkscape:deskcolor="#d1d1d1" />
  <path
     id="line1"
     style="baseline-shift:baseline;display:inline;overflow:visible;vector-effect:none;fill:url(#linearGradient2);stroke-linecap:round;stroke-linejoin:round;enable-background:accumulate;stop-color:#000000;stop-opacity:1;opacity:1;fill-opacity:1"
     d="M 128 32 A 8 8 0 0 0 120 40 L 120 196.6875 L 61.65625 138.34375 A 8 8 0 0 0 56 136 A 8 8 0 0 0 50.34375 138.34375 A 8 8 0 0 0 50.34375 149.65625 L 122.26172 221.57422 L 122.34375 221.65625 A 8.0008 8.0008 0 0 0 122.66406 221.9375 A 8 8 0 0 0 123.10352 222.32227 A 8.0008 8.0008 0 0 0 123.52539 222.60938 A 8 8 0 0 0 123.9668 222.9043 A 8.0008 8.0008 0 0 0 124.44531 223.14648 A 8 8 0 0 0 124.92188 223.38281 A 8.0008 8.0008 0 0 0 125.39844 223.54688 A 8 8 0 0 0 125.91406 223.7207 A 8.0008 8.0008 0 0 0 126.29297 223.79883 A 8 8 0 0 0 128 224 A 8 8 0 0 0 129.70703 223.79883 A 8.0008 8.0008 0 0 0 130.08594 223.7207 A 8 8 0 0 0 130.60156 223.54688 A 8.0008 8.0008 0 0 0 131.07812 223.38281 A 8 8 0 0 0 131.55469 223.14648 A 8.0008 8.0008 0 0 0 132.0332 222.9043 A 8 8 0 0 0 132.47461 222.60938 A 8.0008 8.0008 0 0 0 132.89648 222.32227 A 8 8 0 0 0 133.33594 221.9375 A 8.0008 8.0008 0 0 0 133.65625 221.65625 L 133.73828 221.57422 L 205.65625 149.65625 A 8 8 0 0 0 205.65625 138.34375 A 8 8 0 0 0 194.34375 138.34375 L 136 196.6875 L 136 40 A 8 8 0 0 0 128 32 z " />
</svg>
