<?xml version="1.0" encoding="UTF-8" standalone="no"?>
<svg
   viewBox="0 0 256 256"
   version="1.1"
   id="svg3"
   sodipodi:docname="arrows in line horizontal blue_purple.svg"
   xmlns:inkscape="http://www.inkscape.org/namespaces/inkscape"
   xmlns:sodipodi="http://sodipodi.sourceforge.net/DTD/sodipodi-0.dtd"
   xmlns:xlink="http://www.w3.org/1999/xlink"
   xmlns="http://www.w3.org/2000/svg"
   xmlns:svg="http://www.w3.org/2000/svg">
  <defs
     id="defs3">
    <linearGradient
       id="linearGradient1"
       inkscape:collect="always">
      <stop
         style="stop-color:#a03291;stop-opacity:1;"
         offset="0"
         id="stop1" />
      <stop
         style="stop-color:#4b4fe2ff;stop-opacity:1;"
         offset="0.76340693"
         id="stop2" />
    </linearGradient>
    <linearGradient
       inkscape:collect="always"
       xlink:href="#linearGradient1"
       id="linearGradient2"
       x1="232.4884"
       y1="23.847498"
       x2="23.977745"
       y2="232.35815"
       gradientUnits="userSpaceOnUse" />
  </defs>
  <defs
     id="defs1" />
  <sodipodi:namedview
     id="namedview3"
     pagecolor="#ffffff"
     bordercolor="#000000"
     borderopacity="0.25"
     inkscape:showpageshadow="2"
     inkscape:pageopacity="0.0"
     inkscape:pagecheckerboard="0"
     inkscape:deskcolor="#d1d1d1" />
  <path
     id="line1"
     style="baseline-shift:baseline;display:inline;overflow:visible;vector-effect:none;fill:url(#linearGradient2);stroke-linecap:round;stroke-linejoin:round;enable-background:accumulate;stop-color:#000000;stop-opacity:1;opacity:1;fill-opacity:1"
     d="M 128 32 A 8 8 0 0 0 120 40 L 120 216 A 8 8 0 0 0 128 224 A 8 8 0 0 0 136 216 L 136 40 A 8 8 0 0 0 128 32 z M 64 88 A 8 8 0 0 0 58.34375 90.34375 A 8 8 0 0 0 58.34375 101.65625 L 76.6875 120 L 16 120 A 8 8 0 0 0 8 128 A 8 8 0 0 0 16 136 L 76.6875 136 L 58.34375 154.34375 A 8 8 0 0 0 58.34375 165.65625 A 8 8 0 0 0 69.65625 165.65625 L 101.65625 133.65625 A 8.0008 8.0008 0 0 0 101.9375 133.33594 A 8 8 0 0 0 102.32227 132.89648 A 8.0008 8.0008 0 0 0 102.60938 132.47461 A 8 8 0 0 0 102.9043 132.0332 A 8.0008 8.0008 0 0 0 103.14648 131.55469 A 8 8 0 0 0 103.38281 131.07812 A 8.0008 8.0008 0 0 0 103.54688 130.60156 A 8 8 0 0 0 103.7207 130.08594 A 8.0008 8.0008 0 0 0 103.79883 129.70703 A 8 8 0 0 0 104 128 A 8 8 0 0 0 103.79883 126.29297 A 8.0008 8.0008 0 0 0 103.7207 125.91406 A 8 8 0 0 0 103.54688 125.39844 A 8.0008 8.0008 0 0 0 103.38281 124.92188 A 8 8 0 0 0 103.14648 124.44531 A 8.0008 8.0008 0 0 0 102.9043 123.9668 A 8 8 0 0 0 102.60938 123.52539 A 8.0008 8.0008 0 0 0 102.32227 123.10352 A 8 8 0 0 0 101.9375 122.66406 A 8.0008 8.0008 0 0 0 101.65625 122.34375 L 69.65625 90.34375 A 8 8 0 0 0 64 88 z M 192 88 A 8 8 0 0 0 186.34375 90.34375 L 154.42578 122.26172 L 154.34375 122.34375 A 8.0008 8.0008 0 0 0 154.0625 122.66406 A 8 8 0 0 0 153.67773 123.10352 A 8.0008 8.0008 0 0 0 153.39062 123.52539 A 8 8 0 0 0 153.0957 123.9668 A 8.0008 8.0008 0 0 0 152.85352 124.44531 A 8 8 0 0 0 152.61719 124.92188 A 8.0008 8.0008 0 0 0 152.45312 125.39844 A 8 8 0 0 0 152.2793 125.91406 A 8.0008 8.0008 0 0 0 152.20117 126.29297 A 8 8 0 0 0 152 128 A 8 8 0 0 0 152.20117 129.70703 A 8.0008 8.0008 0 0 0 152.2793 130.08594 A 8 8 0 0 0 152.45312 130.60156 A 8.0008 8.0008 0 0 0 152.61719 131.07812 A 8 8 0 0 0 152.85352 131.55469 A 8.0008 8.0008 0 0 0 153.0957 132.0332 A 8 8 0 0 0 153.39062 132.47461 A 8.0008 8.0008 0 0 0 153.67773 132.89648 A 8 8 0 0 0 154.0625 133.33594 A 8.0008 8.0008 0 0 0 154.34375 133.65625 L 154.42578 133.73828 L 186.34375 165.65625 A 8 8 0 0 0 197.65625 165.65625 A 8 8 0 0 0 197.65625 154.34375 L 179.3125 136 L 240 136 A 8 8 0 0 0 248 128 A 8 8 0 0 0 240 120 L 179.3125 120 L 197.65625 101.65625 A 8 8 0 0 0 197.65625 90.34375 A 8 8 0 0 0 192 88 z " />
</svg>
