<?xml version="1.0" encoding="UTF-8" standalone="no"?>
<svg
   viewBox="0 0 256 256"
   version="1.1"
   id="svg1"
   sodipodi:docname="arrow square in blue_purple.svg"
   xmlns:inkscape="http://www.inkscape.org/namespaces/inkscape"
   xmlns:sodipodi="http://sodipodi.sourceforge.net/DTD/sodipodi-0.dtd"
   xmlns:xlink="http://www.w3.org/1999/xlink"
   xmlns="http://www.w3.org/2000/svg"
   xmlns:svg="http://www.w3.org/2000/svg">
  <defs
     id="defs3">
    <linearGradient
       id="linearGradient1"
       inkscape:collect="always">
      <stop
         style="stop-color:#a03291;stop-opacity:1;"
         offset="0"
         id="stop1" />
      <stop
         style="stop-color:#4b4fe2ff;stop-opacity:1;"
         offset="0.76340693"
         id="stop2" />
    </linearGradient>
    <linearGradient
       inkscape:collect="always"
       xlink:href="#linearGradient1"
       id="linearGradient2"
       x1="232.4884"
       y1="23.847498"
       x2="23.977745"
       y2="232.35815"
       gradientUnits="userSpaceOnUse" />
  </defs>
  <defs
     id="defs1" />
  <sodipodi:namedview
     id="namedview1"
     pagecolor="#ffffff"
     bordercolor="#000000"
     borderopacity="0.25"
     inkscape:showpageshadow="2"
     inkscape:pageopacity="0.0"
     inkscape:pagecheckerboard="0"
     inkscape:deskcolor="#d1d1d1" />
  <path
     id="polyline1"
     style="baseline-shift:baseline;display:inline;overflow:visible;vector-effect:none;fill:url(#linearGradient2);stroke-linecap:round;stroke-linejoin:round;enable-background:accumulate;stop-color:#000000;stop-opacity:1;opacity:1;fill-opacity:1"
     d="M 80 32 C 71.258201 32 64 39.258201 64 48 L 64 96 A 8 8 0 0 0 72 104 A 8 8 0 0 0 80 96 L 80 48 L 208 48 L 208 176 L 160 176 A 8 8 0 0 0 152 184 A 8 8 0 0 0 160 192 L 208 192 C 216.7418 192 224 184.7418 224 176 L 224 48 C 224 39.258201 216.7418 32 208 32 L 80 32 z M 56.001953 128 A 8 8 0 0 0 48 135.99805 A 8 8 0 0 0 55.998047 144 L 100.68164 144.00586 L 34.34375 210.34375 A 8 8 0 0 0 34.34375 221.65625 A 8 8 0 0 0 45.65625 221.65625 L 111.99414 155.31836 L 112 200.00195 A 8 8 0 0 0 120.00195 208 A 8 8 0 0 0 128 199.99805 L 127.99023 136.00781 A 8.0008 8.0008 0 0 0 127.97656 135.81055 A 8 8 0 0 0 127.92578 135.02539 A 8.0008 8.0008 0 0 0 127.89062 134.80664 A 8 8 0 0 0 127.7207 133.95898 A 8.0008 8.0008 0 0 0 127.68945 133.85742 A 8 8 0 0 0 125.65625 130.34375 A 8 8 0 0 0 120 128 A 8 8 0 0 0 119.60938 128.00977 L 56.001953 128 z " />
</svg>
