<?xml version="1.0" encoding="UTF-8" standalone="no"?>
<svg
   viewBox="0 0 256 256"
   version="1.1"
   id="svg1"
   sodipodi:docname="arrow bend down right blue_purple.svg"
   xmlns:inkscape="http://www.inkscape.org/namespaces/inkscape"
   xmlns:sodipodi="http://sodipodi.sourceforge.net/DTD/sodipodi-0.dtd"
   xmlns:xlink="http://www.w3.org/1999/xlink"
   xmlns="http://www.w3.org/2000/svg"
   xmlns:svg="http://www.w3.org/2000/svg">
  <defs
     id="defs3">
    <linearGradient
       id="linearGradient1"
       inkscape:collect="always">
      <stop
         style="stop-color:#a03291;stop-opacity:1;"
         offset="0"
         id="stop1" />
      <stop
         style="stop-color:#4b4fe2ff;stop-opacity:1;"
         offset="0.76340693"
         id="stop2" />
    </linearGradient>
    <linearGradient
       inkscape:collect="always"
       xlink:href="#linearGradient1"
       id="linearGradient2"
       x1="232.4884"
       y1="23.847498"
       x2="23.977745"
       y2="232.35815"
       gradientUnits="userSpaceOnUse" />
  </defs>
  <defs
     id="defs1" />
  <sodipodi:namedview
     id="namedview1"
     pagecolor="#ffffff"
     bordercolor="#000000"
     borderopacity="0.25"
     inkscape:showpageshadow="2"
     inkscape:pageopacity="0.0"
     inkscape:pagecheckerboard="0"
     inkscape:deskcolor="#d1d1d1" />
  <path
     id="polyline1"
     style="baseline-shift:baseline;display:inline;overflow:visible;vector-effect:none;fill:url(#linearGradient2);stroke-linecap:round;stroke-linejoin:round;enable-background:accumulate;stop-color:#000000;stop-opacity:1;opacity:1;fill-opacity:1"
     d="M 32 48 A 8 8 0 0 0 24 56 C 24 113.34286 70.657143 160 128 160 L 204.6875 160 L 170.34375 194.34375 A 8 8 0 0 0 170.34375 205.65625 A 8 8 0 0 0 181.65625 205.65625 L 229.57422 157.73828 L 229.65625 157.65625 A 8.0008 8.0008 0 0 0 229.9375 157.33594 A 8 8 0 0 0 230.32227 156.89648 A 8.0008 8.0008 0 0 0 230.60938 156.47461 A 8 8 0 0 0 230.9043 156.0332 A 8.0008 8.0008 0 0 0 231.14648 155.55469 A 8 8 0 0 0 231.38281 155.07812 A 8.0008 8.0008 0 0 0 231.54688 154.60156 A 8 8 0 0 0 231.7207 154.08594 A 8.0008 8.0008 0 0 0 231.79883 153.70703 A 8 8 0 0 0 232 152 A 8 8 0 0 0 231.79883 150.29297 A 8.0008 8.0008 0 0 0 231.7207 149.91406 A 8 8 0 0 0 231.54688 149.39844 A 8.0008 8.0008 0 0 0 231.38281 148.92188 A 8 8 0 0 0 231.14648 148.44531 A 8.0008 8.0008 0 0 0 230.9043 147.9668 A 8 8 0 0 0 230.60938 147.52539 A 8.0008 8.0008 0 0 0 230.32227 147.10352 A 8 8 0 0 0 229.9375 146.66406 A 8.0008 8.0008 0 0 0 229.65625 146.34375 L 229.57422 146.26172 L 181.65625 98.34375 A 8 8 0 0 0 176 96 A 8 8 0 0 0 170.34375 98.34375 A 8 8 0 0 0 170.34375 109.65625 L 204.6875 144 L 128 144 C 79.304185 144 40 104.69582 40 56 A 8 8 0 0 0 32 48 z " />
</svg>
