<?xml version="1.0" encoding="UTF-8" standalone="no"?>
<svg
   viewBox="0 0 256 256"
   version="1.1"
   id="svg1"
   sodipodi:docname="arrow counter clockwise blue_purple.svg"
   xmlns:inkscape="http://www.inkscape.org/namespaces/inkscape"
   xmlns:sodipodi="http://sodipodi.sourceforge.net/DTD/sodipodi-0.dtd"
   xmlns:xlink="http://www.w3.org/1999/xlink"
   xmlns="http://www.w3.org/2000/svg"
   xmlns:svg="http://www.w3.org/2000/svg">
  <defs
     id="defs3">
    <linearGradient
       id="linearGradient1"
       inkscape:collect="always">
      <stop
         style="stop-color:#a03291;stop-opacity:1;"
         offset="0"
         id="stop1" />
      <stop
         style="stop-color:#4b4fe2ff;stop-opacity:1;"
         offset="0.76340693"
         id="stop2" />
    </linearGradient>
    <linearGradient
       inkscape:collect="always"
       xlink:href="#linearGradient1"
       id="linearGradient2"
       x1="232.4884"
       y1="23.847498"
       x2="23.977745"
       y2="232.35815"
       gradientUnits="userSpaceOnUse" />
  </defs>
  <defs
     id="defs1" />
  <sodipodi:namedview
     id="namedview1"
     pagecolor="#ffffff"
     bordercolor="#000000"
     borderopacity="0.25"
     inkscape:showpageshadow="2"
     inkscape:pageopacity="0.0"
     inkscape:pagecheckerboard="0"
     inkscape:deskcolor="#d1d1d1" />
  <path
     id="polyline1"
     style="baseline-shift:baseline;display:inline;overflow:visible;vector-effect:none;fill:url(#linearGradient2);stroke-linecap:round;stroke-linejoin:round;enable-background:accumulate;stop-color:#000000;stop-opacity:1;opacity:1;fill-opacity:1"
     d="M 129.63672 32.019531 C 104.18768 31.593327 79.056968 41.30337 60.335938 59.902344 L 60.369141 59.869141 L 60.251953 59.976562 C 60.245058 59.983429 60.237362 59.989225 60.230469 59.996094 L 32 85.833984 L 32 56 A 8 8 0 0 0 24 48 A 8 8 0 0 0 16 56 L 16 103.94922 L 16 104 A 8.0008 8.0008 0 0 0 16.017578 104.26758 A 8 8 0 0 0 16.066406 105.00195 A 8.0008 8.0008 0 0 0 16.128906 105.34961 A 8 8 0 0 0 16.259766 106.00391 A 8.0008 8.0008 0 0 0 16.375 106.37305 A 8 8 0 0 0 16.582031 106.97852 A 8.0008 8.0008 0 0 0 16.746094 107.33789 A 8 8 0 0 0 17.021484 107.89844 A 8.0008 8.0008 0 0 0 17.246094 108.26172 A 8 8 0 0 0 17.580078 108.75781 A 8.0008 8.0008 0 0 0 17.84375 109.08594 A 8 8 0 0 0 18.097656 109.40039 A 8 8 0 0 0 18.230469 109.52539 A 8.0008 8.0008 0 0 0 18.630859 109.9082 A 8 8 0 0 0 19.033203 110.25977 A 8.0008 8.0008 0 0 0 19.470703 110.57422 A 8 8 0 0 0 19.916016 110.87109 A 8.0008 8.0008 0 0 0 20.429688 111.14062 A 8 8 0 0 0 20.876953 111.35938 A 8.0008 8.0008 0 0 0 21.460938 111.56836 A 8 8 0 0 0 21.894531 111.71484 A 8.0008 8.0008 0 0 0 22.734375 111.88672 A 8 8 0 0 0 22.939453 111.92969 A 8.0008 8.0008 0 0 0 22.955078 111.93164 A 8.0008 8.0008 0 0 0 24 112 L 24.050781 112 L 72 112 A 8 8 0 0 0 80 104 A 8 8 0 0 0 72 96 L 44.589844 96 L 71.171875 71.671875 A 8.0008 8.0008 0 0 0 71.425781 71.427734 C 94.174114 48.683519 128.26837 41.776014 158.07422 53.873047 C 187.88 65.970053 207.5128 94.682672 207.97656 126.84766 C 208.44032 159.01263 189.6419 188.27918 160.19727 201.23047 C 130.75256 214.18178 96.474676 208.26056 73.080078 186.18164 A 8 8 0 0 0 61.771484 186.50977 A 8 8 0 0 0 62.099609 197.81836 C 90.137509 224.27945 131.3514 231.399 166.64062 215.87695 C 201.9298 200.35493 224.53236 165.1654 223.97656 126.61719 C 223.42077 88.06897 199.81186 53.545047 164.08984 39.046875 C 152.9267 34.516189 141.24927 32.214011 129.63672 32.019531 z " />
</svg>
