<?xml version="1.0" encoding="UTF-8" standalone="no"?>
<svg
   viewBox="0 0 256 256"
   version="1.1"
   id="svg2"
   sodipodi:docname="atom blue_purple.svg"
   xmlns:inkscape="http://www.inkscape.org/namespaces/inkscape"
   xmlns:sodipodi="http://sodipodi.sourceforge.net/DTD/sodipodi-0.dtd"
   xmlns:xlink="http://www.w3.org/1999/xlink"
   xmlns="http://www.w3.org/2000/svg"
   xmlns:svg="http://www.w3.org/2000/svg">
  <defs
     id="defs3">
    <linearGradient
       id="linearGradient1"
       inkscape:collect="always">
      <stop
         style="stop-color:#a03291;stop-opacity:1;"
         offset="0"
         id="stop1" />
      <stop
         style="stop-color:#4b4fe2ff;stop-opacity:1;"
         offset="0.76340693"
         id="stop2" />
    </linearGradient>
    <linearGradient
       inkscape:collect="always"
       xlink:href="#linearGradient1"
       id="linearGradient2"
       x1="232.4884"
       y1="23.847498"
       x2="23.977745"
       y2="232.35815"
       gradientUnits="userSpaceOnUse" />
  </defs>
  <defs
     id="defs2" />
  <sodipodi:namedview
     id="namedview2"
     pagecolor="#ffffff"
     bordercolor="#000000"
     borderopacity="0.25"
     inkscape:showpageshadow="2"
     inkscape:pageopacity="0.0"
     inkscape:pagecheckerboard="0"
     inkscape:deskcolor="#d1d1d1" />
  <path
     id="ellipse1"
     style="baseline-shift:baseline;display:inline;overflow:visible;vector-effect:none;fill:url(#linearGradient2);stroke-linecap:round;stroke-linejoin:round;enable-background:accumulate;stop-color:#000000;stop-opacity:1;opacity:1;fill-opacity:1"
     d="M 148.71235 12.964416 C 142.88472 7.3727819 135.82365 3.669829 127.99909 3.669829 C 119.05673 3.669829 111.11446 8.5059927 104.86758 15.471054 C 98.620697 22.436116 93.549056 31.747931 89.316757 42.904588 C 85.257826 53.604236 81.999491 66.034285 79.707286 79.707286 C 66.034284 81.999491 53.604237 85.257825 42.904588 89.316757 C 31.747931 93.549056 22.436116 98.620697 15.471054 104.86758 C 8.5059927 111.11446 3.669829 119.05673 3.669829 127.99909 C 3.669829 136.94145 8.5059927 144.88648 15.471054 151.13336 C 22.436116 157.38025 31.747931 162.45189 42.904588 166.68418 C 53.604237 170.74312 66.034284 174.00145 79.707286 176.29365 C 81.999491 189.96665 85.257826 202.3967 89.316757 213.09635 C 93.549056 224.25301 98.620697 233.56481 104.86758 240.52988 C 111.11446 247.49494 119.05811 252.32973 128.00047 252.32973 C 136.94283 252.32973 144.88648 247.49494 151.13336 240.52988 C 157.38025 233.56481 162.45189 224.25301 166.68418 213.09635 C 170.74312 202.3967 174.00145 189.96665 176.29365 176.29365 C 189.96665 174.00145 202.3967 170.74312 213.09635 166.68418 C 224.25301 162.45189 233.56481 157.38025 240.52988 151.13336 C 247.49494 144.88648 252.32973 136.94283 252.32973 128.00047 C 252.32973 119.05811 247.49494 111.11446 240.52988 104.86758 C 233.56481 98.620697 224.25301 93.549056 213.09635 89.316757 C 202.3967 85.257826 189.96665 81.999491 176.29365 79.707286 C 174.00145 66.034284 170.74312 53.604237 166.68418 42.904588 C 162.45189 31.747931 157.38025 22.436116 151.13336 15.471054 C 150.3525 14.600422 149.54486 13.763221 148.71235 12.964416 z M 139.22303 26.152234 C 143.53542 30.960408 147.97079 38.685844 151.72445 48.580777 C 154.86199 56.851562 157.54431 66.613229 159.60345 77.460289 C 149.51845 76.418143 138.9291 75.869298 127.99909 75.869298 C 117.06908 75.869298 106.48248 76.418144 96.397492 77.460289 C 98.45663 66.613231 101.13757 56.85018 104.2751 48.579396 C 108.02876 38.684463 112.46552 30.960408 116.77791 26.152234 C 121.09031 21.344059 124.75667 19.669501 128.00047 19.669501 C 131.24427 19.669501 134.91063 21.344059 139.22303 26.152234 z M 229.84732 116.77653 C 234.65549 121.08893 236.33006 124.75529 236.33006 127.99909 C 236.33006 131.24289 234.65549 134.90925 229.84732 139.22165 C 225.03914 143.53404 217.31509 147.97079 207.42016 151.72445 C 199.14938 154.86199 189.38771 157.54431 178.54065 159.60345 C 179.5828 149.51845 180.13026 138.93048 180.13026 128.00047 C 180.13026 117.07046 179.5828 106.48248 178.54065 96.397492 C 189.38771 98.45663 199.14938 101.13895 207.42016 104.27648 C 217.31509 108.03014 225.03914 112.46414 229.84732 116.77653 z M 162.1308 93.870138 C 163.42285 104.61169 164.13059 116.08955 164.13059 127.99909 C 164.13059 139.90863 163.42147 151.38787 162.12942 162.12942 C 151.38787 163.42147 139.90863 164.13059 127.99909 164.13059 C 116.08955 164.13059 104.61169 163.42285 93.870138 162.1308 C 92.578088 151.38925 91.86897 139.91001 91.86897 128.00047 C 91.86897 116.09093 92.578088 104.61169 93.870138 93.870138 C 104.61169 92.578088 116.09093 91.86897 128.00047 91.86897 C 139.91001 91.86897 151.38925 92.578088 162.1308 93.870138 z M 136.48575 119.51519 A 12 12 0 0 0 119.51519 119.51519 A 12 12 0 0 0 119.51519 136.48575 A 12 12 0 0 0 136.48575 136.48575 A 12 12 0 0 0 136.48575 119.51519 z M 77.460289 96.397492 C 76.418144 106.48248 75.869298 117.06908 75.869298 127.99909 C 75.869298 138.9291 76.418143 149.51845 77.460289 159.60345 C 66.613229 157.54431 56.851562 154.86199 48.580777 151.72445 C 38.685844 147.97079 30.960408 143.53542 26.152234 139.22303 C 21.344059 134.91063 19.669501 131.24427 19.669501 128.00047 C 19.669501 124.75667 21.344059 121.09031 26.152234 116.77791 C 30.960408 112.46552 38.684463 108.02876 48.579396 104.2751 C 56.85018 101.13757 66.613231 98.45663 77.460289 96.397492 z M 159.60345 178.54065 C 157.54431 189.38771 154.86199 199.14938 151.72445 207.42016 C 147.97079 217.31509 143.53404 225.03914 139.22165 229.84732 C 134.90925 234.65549 131.24289 236.33006 127.99909 236.33006 C 124.75529 236.33006 121.08893 234.65549 116.77653 229.84732 C 112.46414 225.03914 108.03014 217.31509 104.27648 207.42016 C 101.13895 199.14938 98.45663 189.38771 96.397492 178.54065 C 106.48248 179.5828 117.07046 180.13026 128.00047 180.13026 C 138.93048 180.13026 149.51845 179.5828 159.60345 178.54065 z "
     transform="translate(-53.02 128) rotate(-45)" />
</svg>
