<?xml version="1.0" encoding="UTF-8" standalone="no"?>
<svg
   viewBox="0 0 256 256"
   version="1.1"
   id="svg6"
   sodipodi:docname="bank blue_purple.svg"
   xmlns:inkscape="http://www.inkscape.org/namespaces/inkscape"
   xmlns:sodipodi="http://sodipodi.sourceforge.net/DTD/sodipodi-0.dtd"
   xmlns:xlink="http://www.w3.org/1999/xlink"
   xmlns="http://www.w3.org/2000/svg"
   xmlns:svg="http://www.w3.org/2000/svg">
  <defs
     id="defs3">
    <linearGradient
       id="linearGradient1"
       inkscape:collect="always">
      <stop
         style="stop-color:#a03291;stop-opacity:1;"
         offset="0"
         id="stop1" />
      <stop
         style="stop-color:#4b4fe2ff;stop-opacity:1;"
         offset="0.76340693"
         id="stop2" />
    </linearGradient>
    <linearGradient
       inkscape:collect="always"
       xlink:href="#linearGradient1"
       id="linearGradient2"
       x1="232.4884"
       y1="23.847498"
       x2="23.977745"
       y2="232.35815"
       gradientUnits="userSpaceOnUse" />
  </defs>
  <defs
     id="defs6" />
  <sodipodi:namedview
     id="namedview6"
     pagecolor="#ffffff"
     bordercolor="#000000"
     borderopacity="0.25"
     inkscape:showpageshadow="2"
     inkscape:pageopacity="0.0"
     inkscape:pagecheckerboard="0"
     inkscape:deskcolor="#d1d1d1" />
  <path
     id="polygon1"
     style="baseline-shift:baseline;display:inline;overflow:visible;vector-effect:none;fill:url(#linearGradient2);stroke-linecap:round;stroke-linejoin:round;enable-background:accumulate;stop-color:#000000;stop-opacity:1;opacity:1;fill-opacity:1"
     d="M 128 24 A 8.0008 8.0008 0 0 0 123.80664 25.1875 L 19.806641 89.1875 A 8.0008 8.0008 0 0 0 24 104 L 48 104 L 48 168 L 32 168 A 8 8 0 0 0 24 176 A 8 8 0 0 0 32 184 L 224 184 A 8 8 0 0 0 232 176 A 8 8 0 0 0 224 168 L 208 168 L 208 104 L 232 104 A 8.0008 8.0008 0 0 0 236.19336 89.1875 L 132.19336 25.1875 A 8.0008 8.0008 0 0 0 128 24 z M 128 41.392578 L 203.73633 88 L 52.263672 88 L 128 41.392578 z M 64 104 L 96 104 L 96 168 L 64 168 L 64 104 z M 112 104 L 144 104 L 144 168 L 112 168 L 112 104 z M 160 104 L 192 104 L 192 168 L 160 168 L 160 104 z M 16 200 A 8 8 0 0 0 8 208 A 8 8 0 0 0 16 216 L 240 216 A 8 8 0 0 0 248 208 A 8 8 0 0 0 240 200 L 16 200 z " />
</svg>
