<?xml version="1.0" encoding="UTF-8" standalone="no"?>
<svg
   viewBox="0 0 256 256"
   version="1.1"
   id="svg2"
   sodipodi:docname="baseball helmet blue_purple.svg"
   xmlns:inkscape="http://www.inkscape.org/namespaces/inkscape"
   xmlns:sodipodi="http://sodipodi.sourceforge.net/DTD/sodipodi-0.dtd"
   xmlns:xlink="http://www.w3.org/1999/xlink"
   xmlns="http://www.w3.org/2000/svg"
   xmlns:svg="http://www.w3.org/2000/svg">
  <defs
     id="defs3">
    <linearGradient
       id="linearGradient1"
       inkscape:collect="always">
      <stop
         style="stop-color:#a03291;stop-opacity:1;"
         offset="0"
         id="stop1" />
      <stop
         style="stop-color:#4b4fe2ff;stop-opacity:1;"
         offset="0.76340693"
         id="stop2" />
    </linearGradient>
    <linearGradient
       inkscape:collect="always"
       xlink:href="#linearGradient1"
       id="linearGradient2"
       x1="232.4884"
       y1="23.847498"
       x2="23.977745"
       y2="232.35815"
       gradientUnits="userSpaceOnUse" />
  </defs>
  <defs
     id="defs2" />
  <sodipodi:namedview
     id="namedview2"
     pagecolor="#ffffff"
     bordercolor="#000000"
     borderopacity="0.25"
     inkscape:showpageshadow="2"
     inkscape:pageopacity="0.0"
     inkscape:pagecheckerboard="0"
     inkscape:deskcolor="#d1d1d1" />
  <path
     id="circle1"
     style="baseline-shift:baseline;display:inline;overflow:visible;vector-effect:none;fill:url(#linearGradient2);stroke-linecap:round;stroke-linejoin:round;enable-background:accumulate;stop-color:#000000;stop-opacity:1;opacity:1;fill-opacity:1"
     d="M 120 24 C 62.657152 24 16 70.65711 16 128 L 16 152 C 16 191.66977 48.330264 224 88 224 L 128 224 C 167.66974 224 200 191.66974 200 152 L 200 136 L 216 136 L 248 136 A 8 8 0 0 0 256 128 A 8 8 0 0 0 248 120 L 223.5957 120 C 219.48419 66.392661 174.64238 24 120 24 z M 120 40 C 165.9946 40 203.56597 75.076456 207.59766 120 L 192 120 L 152 120 A 8.0008 8.0008 0 0 0 144 128 L 144 152 C 144 183.02273 119.02271 208 88 208 C 56.97729 208 32 183.02273 32 152 L 32 128 C 32 79.304146 71.304178 40 120 40 z M 88 128 C 72.630784 128 60 140.63078 60 156 C 60 171.36922 72.630784 184 88 184 C 103.36922 184 116 171.36922 116 156 C 116 140.63078 103.36922 128 88 128 z M 160 136 L 184 136 L 184 152 C 184 181.16376 161.92658 204.98428 133.50781 207.73438 C 149.66341 194.51465 160 174.43096 160 152 L 160 136 z M 88 144 C 94.722174 144 100 149.27783 100 156 C 100 162.72217 94.722174 168 88 168 C 81.277826 168 76 162.72217 76 156 C 76 149.27783 81.277826 144 88 144 z " />
</svg>
