<?xml version="1.0" encoding="UTF-8" standalone="no"?>
<svg
   viewBox="0 0 256 256"
   version="1.1"
   id="svg3"
   sodipodi:docname="biohazard blue_purple.svg"
   xmlns:inkscape="http://www.inkscape.org/namespaces/inkscape"
   xmlns:sodipodi="http://sodipodi.sourceforge.net/DTD/sodipodi-0.dtd"
   xmlns:xlink="http://www.w3.org/1999/xlink"
   xmlns="http://www.w3.org/2000/svg"
   xmlns:svg="http://www.w3.org/2000/svg">
  <defs
     id="defs3">
    <linearGradient
       id="linearGradient1"
       inkscape:collect="always">
      <stop
         style="stop-color:#a03291;stop-opacity:1;"
         offset="0"
         id="stop1" />
      <stop
         style="stop-color:#4b4fe2ff;stop-opacity:1;"
         offset="0.76340693"
         id="stop2" />
    </linearGradient>
    <linearGradient
       inkscape:collect="always"
       xlink:href="#linearGradient1"
       id="linearGradient2"
       x1="232.4884"
       y1="23.847498"
       x2="23.977745"
       y2="232.35815"
       gradientUnits="userSpaceOnUse" />
  </defs>
  <defs
     id="defs1" />
  <sodipodi:namedview
     id="namedview3"
     pagecolor="#ffffff"
     bordercolor="#000000"
     borderopacity="0.25"
     inkscape:showpageshadow="2"
     inkscape:pageopacity="0.0"
     inkscape:pagecheckerboard="0"
     inkscape:deskcolor="#d1d1d1" />
  <path
     id="circle1"
     style="baseline-shift:baseline;display:inline;overflow:visible;vector-effect:none;fill:url(#linearGradient2);stroke-linecap:round;stroke-linejoin:round;enable-background:accumulate;stop-color:#000000;stop-opacity:1;opacity:1;fill-opacity:1"
     d="M 104.35156 19.796875 A 8 8 0 0 0 100.30859 20.693359 C 75.820007 33.433942 63.160176 61.361448 69.71875 88.173828 C 70.617502 91.848054 71.845099 95.375039 73.367188 98.724609 C 72.267795 100.521 71.255471 102.37479 70.333984 104.28125 C 67.265829 104.57181 64.190368 105.10294 61.132812 105.88477 C 34.621362 112.66378 16.006418 136.63206 16 163.99805 A 8 8 0 0 0 23.998047 172 A 8 8 0 0 0 32 164.00195 C 32.004682 143.94119 45.485356 126.50795 64.873047 121.44336 C 64.2988 124.87909 64 128.40545 64 132 C 64 160.64171 82.979036 184.99126 109.00391 193.11523 C 108.07342 194.1684 107.08511 195.18433 106.04102 196.16016 C 91.330115 209.90919 69.277973 211.93149 52.308594 201.08789 A 8 8 0 0 0 41.259766 203.52148 A 8 8 0 0 0 43.691406 214.57031 C 66.751356 229.30584 96.974672 226.53456 116.9668 207.84961 C 120.79738 204.26948 124.0697 200.2753 126.76562 195.98828 C 127.17597 195.99611 127.58785 196 128 196 C 128.41215 196 128.82404 195.99611 129.23438 195.98828 C 131.9303 200.2753 135.20262 204.26948 139.0332 207.84961 C 159.02532 226.53456 189.24864 229.30584 212.30859 214.57031 A 8 8 0 0 0 214.74023 203.52148 A 8 8 0 0 0 203.69141 201.08789 C 186.72203 211.93149 164.66988 209.90919 149.95898 196.16016 C 148.91489 195.18433 147.92658 194.1684 146.99609 193.11523 C 173.02096 184.99126 192 160.64171 192 132 C 192 128.40545 191.7012 124.87909 191.12695 121.44336 C 210.51465 126.50795 223.9953 143.9412 224 164.00195 A 8 8 0 0 0 232.00195 172 A 8 8 0 0 0 240 163.99805 C 239.994 136.63206 221.37864 112.66378 194.86719 105.88477 C 191.80963 105.10294 188.73417 104.57181 185.66602 104.28125 C 184.74453 102.3748 183.7322 100.52099 182.63281 98.724609 C 184.1549 95.37504 185.3825 91.848053 186.28125 88.173828 C 192.83982 61.361448 180.18 33.433942 155.69141 20.693359 A 8 8 0 0 0 144.90234 24.097656 A 8 8 0 0 0 148.30859 34.886719 C 166.33126 44.263299 175.56676 64.639554 170.74023 84.371094 C 170.73635 84.386973 170.73242 84.402097 170.72852 84.417969 C 159.38453 74.218221 144.39565 68 128 68 C 111.60435 68 96.615468 74.218219 85.271484 84.417969 C 85.267583 84.402096 85.26365 84.386974 85.259766 84.371094 C 80.433235 64.639554 89.668732 44.263299 107.69141 34.886719 A 8 8 0 0 0 111.09766 24.097656 A 8 8 0 0 0 106.4082 20.160156 A 8 8 0 0 0 104.35156 19.796875 z M 128 84 C 142.16902 84 154.86001 90.069527 163.62891 99.761719 C 155.54845 110.91302 142.46377 117.91016 128 117.91016 C 113.53623 117.91016 100.45155 110.91302 92.371094 99.761719 C 101.13999 90.069527 113.83098 84 128 84 z M 81.414062 120.33398 C 95.138856 122.02911 107.61875 130.16451 114.58398 142.88477 C 120.79479 154.22724 121.57298 167.30087 117.43945 178.8457 C 95.954269 174.06288 80 154.97335 80 132 C 80 127.97306 80.489814 124.06611 81.414062 120.33398 z M 174.58594 120.33398 C 175.51018 124.0661 176 127.97307 176 132 C 176 154.97335 160.04573 174.06288 138.56055 178.8457 C 134.42702 167.30087 135.20521 154.22724 141.41602 142.88477 C 148.38125 130.16451 160.86115 122.02911 174.58594 120.33398 z M 127.89258 133.91016 C 127.92839 133.91022 127.96417 133.91016 128 133.91016 C 128.03583 133.91016 128.07161 133.91022 128.10742 133.91016 C 128.0715 133.9721 128.03572 134.0336 128 134.0957 C 127.96428 134.0336 127.9285 133.9721 127.89258 133.91016 z " />
</svg>
