<?xml version="1.0" encoding="UTF-8" standalone="no"?>
<svg
   viewBox="0 0 256 256"
   version="1.1"
   id="svg4"
   sodipodi:docname="bluetooth x blue_purple.svg"
   xmlns:inkscape="http://www.inkscape.org/namespaces/inkscape"
   xmlns:sodipodi="http://sodipodi.sourceforge.net/DTD/sodipodi-0.dtd"
   xmlns:xlink="http://www.w3.org/1999/xlink"
   xmlns="http://www.w3.org/2000/svg"
   xmlns:svg="http://www.w3.org/2000/svg">
  <defs
     id="defs3">
    <linearGradient
       id="linearGradient1"
       inkscape:collect="always">
      <stop
         style="stop-color:#a03291;stop-opacity:1;"
         offset="0"
         id="stop1" />
      <stop
         style="stop-color:#4b4fe2ff;stop-opacity:1;"
         offset="0.76340693"
         id="stop2" />
    </linearGradient>
    <linearGradient
       inkscape:collect="always"
       xlink:href="#linearGradient1"
       id="linearGradient2"
       x1="232.4884"
       y1="23.847498"
       x2="23.977745"
       y2="232.35815"
       gradientUnits="userSpaceOnUse" />
  </defs>
  <defs
     id="defs4" />
  <sodipodi:namedview
     id="namedview4"
     pagecolor="#ffffff"
     bordercolor="#000000"
     borderopacity="0.25"
     inkscape:showpageshadow="2"
     inkscape:pageopacity="0.0"
     inkscape:pagecheckerboard="0"
     inkscape:deskcolor="#d1d1d1" />
  <path
     id="polygon1"
     style="baseline-shift:baseline;display:inline;overflow:visible;vector-effect:none;fill:url(#linearGradient2);stroke-linecap:round;stroke-linejoin:round;enable-background:accumulate;stop-color:#000000;stop-opacity:1;opacity:1;fill-opacity:1"
     d="M 112.22656 24.003906 A 8.0008 8.0008 0 0 0 111.24414 24.037109 A 8.0008 8.0008 0 0 0 104 32 L 104 112 L 52.800781 73.599609 A 8 8 0 0 0 46.869141 72.080078 A 8 8 0 0 0 41.599609 75.199219 A 8 8 0 0 0 43.199219 86.400391 L 98.666016 128 L 43.199219 169.59961 A 8 8 0 0 0 41.599609 180.80078 A 8 8 0 0 0 52.800781 182.40039 L 104 144 L 104 224 A 8.0008 8.0008 0 0 0 116.80078 230.40039 L 180.80078 182.40039 A 8.0008 8.0008 0 0 0 180.80078 169.59961 L 125.33398 128 L 148.80078 110.40039 A 8 8 0 0 0 150.40039 99.199219 A 8 8 0 0 0 139.19922 97.599609 L 120 112 L 120 48 L 139.19922 62.400391 A 8 8 0 0 0 150.40039 60.800781 A 8 8 0 0 0 148.80078 49.599609 L 116.80078 25.599609 A 8.0008 8.0008 0 0 0 112.22656 24.003906 z M 184 48 A 8 8 0 0 0 178.34375 50.34375 A 8 8 0 0 0 178.34375 61.65625 L 196.6875 80 L 178.34375 98.34375 A 8 8 0 0 0 178.34375 109.65625 A 8 8 0 0 0 189.65625 109.65625 L 208 91.3125 L 226.34375 109.65625 A 8 8 0 0 0 237.65625 109.65625 A 8 8 0 0 0 237.65625 98.34375 L 219.3125 80 L 237.65625 61.65625 A 8 8 0 0 0 237.65625 50.34375 A 8 8 0 0 0 232 48 A 8 8 0 0 0 226.34375 50.34375 L 208 68.6875 L 189.65625 50.34375 A 8 8 0 0 0 184 48 z " />
</svg>
