<?xml version="1.0" encoding="UTF-8" standalone="no"?>
<svg
   viewBox="0 0 256 256"
   version="1.1"
   id="svg6"
   sodipodi:docname="books blue_purple.svg"
   xmlns:inkscape="http://www.inkscape.org/namespaces/inkscape"
   xmlns:sodipodi="http://sodipodi.sourceforge.net/DTD/sodipodi-0.dtd"
   xmlns:xlink="http://www.w3.org/1999/xlink"
   xmlns="http://www.w3.org/2000/svg"
   xmlns:svg="http://www.w3.org/2000/svg">
  <defs
     id="defs3">
    <linearGradient
       id="linearGradient1"
       inkscape:collect="always">
      <stop
         style="stop-color:#a03291;stop-opacity:1;"
         offset="0"
         id="stop1" />
      <stop
         style="stop-color:#4b4fe2ff;stop-opacity:1;"
         offset="0.76340693"
         id="stop2" />
    </linearGradient>
    <linearGradient
       inkscape:collect="always"
       xlink:href="#linearGradient1"
       id="linearGradient2"
       x1="232.4884"
       y1="23.847498"
       x2="23.977745"
       y2="232.35815"
       gradientUnits="userSpaceOnUse" />
  </defs>
  <defs
     id="defs6" />
  <sodipodi:namedview
     id="namedview6"
     pagecolor="#ffffff"
     bordercolor="#000000"
     borderopacity="0.25"
     inkscape:showpageshadow="2"
     inkscape:pageopacity="0.0"
     inkscape:pagecheckerboard="0"
     inkscape:deskcolor="#d1d1d1" />
  <path
     id="rect2"
     style="baseline-shift:baseline;display:inline;overflow:visible;vector-effect:none;fill:url(#linearGradient2);stroke-linecap:round;stroke-linejoin:round;enable-background:accumulate;stop-color:#000000;stop-opacity:1;opacity:1;fill-opacity:1"
     d="M 182.68555 24.0625 C 181.62398 24.0661 180.54805 24.175931 179.47461 24.404297 A 8.0008 8.0008 0 0 0 179.46875 24.40625 L 132.6582 34.40625 A 8.0008 8.0008 0 0 0 132.60352 34.417969 C 124.06759 36.303952 118.52668 44.926664 120.35742 53.474609 L 125.30273 76.990234 A 8 8 0 0 0 125.33789 77.160156 A 8 8 0 0 0 125.35938 77.255859 L 131.89648 108.33789 A 8 8 0 0 0 131.96875 108.7207 A 8 8 0 0 0 132.04297 109.03125 L 148.51758 187.36914 A 8 8 0 0 0 148.51953 187.37891 A 8 8 0 0 0 148.56836 187.62109 A 8 8 0 0 0 148.60742 187.79297 A 8 8 0 0 0 148.60742 187.79492 L 153.52539 211.17578 C 155.29766 219.77472 163.9379 225.42263 172.52539 223.5957 A 8.0008 8.0008 0 0 0 172.53125 223.59375 L 219.3418 213.59375 A 8.0008 8.0008 0 0 0 219.39648 213.58203 C 227.93241 211.69605 233.47332 203.07334 231.64258 194.52539 L 226.69922 171.02148 A 8 8 0 0 0 226.66211 170.83984 A 8 8 0 0 0 226.64062 170.74023 A 8 8 0 0 0 226.63672 170.73047 L 210.13672 92.269531 A 8 8 0 0 0 210.07227 91.939453 A 8 8 0 0 0 210.01172 91.679688 L 203.48047 60.626953 A 8 8 0 0 0 203.43164 60.378906 A 8 8 0 0 0 203.39062 60.199219 L 198.47461 36.824219 C 196.92387 29.300151 190.11652 24.037228 182.68555 24.0625 z M 56 32 C 47.274378 32 40 39.274378 40 48 L 40 208 C 40 216.72562 47.274378 224 56 224 L 104 224 C 112.72562 224 120 216.72562 120 208 L 120 48 C 120 39.274378 112.72562 32 104 32 L 56 32 z M 182.80469 40.054688 A 8.0008 8.0008 0 0 0 182.81055 40.085938 L 186.13867 55.912109 L 139.33398 65.970703 L 136.00781 50.154297 A 8.0008 8.0008 0 0 0 136.00195 50.125 C 135.99164 50.076839 135.97607 50.054389 135.9707 50.046875 L 135.9707 50.044922 L 135.97266 50.044922 L 135.97461 50.046875 C 135.98385 50.048746 136.00853 50.051639 136.05664 50.041016 L 182.80469 40.054688 z M 56 48 L 104 48 L 104 64 L 56 64 L 56 48 z M 189.43164 71.570312 L 192.77734 87.472656 L 145.97266 97.529297 L 142.62695 81.626953 L 189.43164 71.570312 z M 56 80 L 104 80 L 104 176 L 56 176 L 56 80 z M 196.07031 103.13086 L 209.37305 166.37305 L 162.56836 176.42969 L 149.26562 113.1875 L 196.07031 103.13086 z M 212.66602 182.0293 L 215.99219 197.8457 A 8.0008 8.0008 0 0 0 215.99805 197.875 C 216.00836 197.92316 216.02393 197.94561 216.0293 197.95312 L 216.0293 197.95508 L 216.02734 197.95508 L 216.02539 197.95312 C 216.01615 197.95126 215.99147 197.94837 215.94336 197.95898 L 169.19531 207.94531 A 8.0008 8.0008 0 0 0 169.18945 207.91406 L 165.86133 192.08789 L 212.66602 182.0293 z M 56 192 L 104 192 L 104 208 L 56 208 L 56 192 z " />
</svg>
