<?xml version="1.0" encoding="UTF-8" standalone="no"?>
<svg
   viewBox="0 0 256 256"
   version="1.1"
   id="svg2"
   sodipodi:docname="book open blue_purple.svg"
   xmlns:inkscape="http://www.inkscape.org/namespaces/inkscape"
   xmlns:sodipodi="http://sodipodi.sourceforge.net/DTD/sodipodi-0.dtd"
   xmlns:xlink="http://www.w3.org/1999/xlink"
   xmlns="http://www.w3.org/2000/svg"
   xmlns:svg="http://www.w3.org/2000/svg">
  <defs
     id="defs3">
    <linearGradient
       id="linearGradient1"
       inkscape:collect="always">
      <stop
         style="stop-color:#a03291;stop-opacity:1;"
         offset="0"
         id="stop1" />
      <stop
         style="stop-color:#4b4fe2ff;stop-opacity:1;"
         offset="0.76340693"
         id="stop2" />
    </linearGradient>
    <linearGradient
       inkscape:collect="always"
       xlink:href="#linearGradient1"
       id="linearGradient2"
       x1="232.4884"
       y1="23.847498"
       x2="23.977745"
       y2="232.35815"
       gradientUnits="userSpaceOnUse" />
  </defs>
  <defs
     id="defs2" />
  <sodipodi:namedview
     id="namedview2"
     pagecolor="#ffffff"
     bordercolor="#000000"
     borderopacity="0.25"
     inkscape:showpageshadow="2"
     inkscape:pageopacity="0.0"
     inkscape:pagecheckerboard="0"
     inkscape:deskcolor="#d1d1d1" />
  <path
     id="path1"
     style="baseline-shift:baseline;display:inline;overflow:visible;vector-effect:none;fill:url(#linearGradient2);stroke-linecap:round;stroke-linejoin:round;enable-background:accumulate;stop-color:#000000;stop-opacity:1;opacity:1;fill-opacity:1"
     d="M 24 48 A 8.0008 8.0008 0 0 0 16 56 L 16 200 A 8.0008 8.0008 0 0 0 24 208 L 96 208 C 109.34959 208 120 218.65041 120 232 A 8 8 0 0 0 128 240 A 8 8 0 0 0 136 232 C 136 218.65041 146.65041 208 160 208 L 232 208 A 8.0008 8.0008 0 0 0 240 200 L 240 56 A 8.0008 8.0008 0 0 0 232 48 L 160 48 C 146.95471 48 135.31392 54.332344 128 64.074219 C 120.68608 54.332344 109.04529 48 96 48 L 24 48 z M 32 64 L 96 64 C 109.34959 64 120 74.650409 120 88 L 120 200.24219 C 113.2862 195.14618 105.0273 192 96 192 L 32 192 L 32 64 z M 160 64 L 224 64 L 224 192 L 160 192 C 151.0156 192 142.69739 195.0044 136 200.05664 L 136 88 C 136 74.650409 146.65041 64 160 64 z " />
</svg>
