<?xml version="1.0" encoding="UTF-8" standalone="no"?>
<svg
   viewBox="0 0 256 256"
   version="1.1"
   id="svg3"
   sodipodi:docname="boot blue_purple.svg"
   xmlns:inkscape="http://www.inkscape.org/namespaces/inkscape"
   xmlns:sodipodi="http://sodipodi.sourceforge.net/DTD/sodipodi-0.dtd"
   xmlns:xlink="http://www.w3.org/1999/xlink"
   xmlns="http://www.w3.org/2000/svg"
   xmlns:svg="http://www.w3.org/2000/svg">
  <defs
     id="defs3">
    <linearGradient
       id="linearGradient1"
       inkscape:collect="always">
      <stop
         style="stop-color:#a03291;stop-opacity:1;"
         offset="0"
         id="stop1" />
      <stop
         style="stop-color:#4b4fe2ff;stop-opacity:1;"
         offset="0.76340693"
         id="stop2" />
    </linearGradient>
    <linearGradient
       inkscape:collect="always"
       xlink:href="#linearGradient1"
       id="linearGradient2"
       x1="232.4884"
       y1="23.847498"
       x2="23.977745"
       y2="232.35815"
       gradientUnits="userSpaceOnUse" />
  </defs>
  <defs
     id="defs1" />
  <sodipodi:namedview
     id="namedview3"
     pagecolor="#ffffff"
     bordercolor="#000000"
     borderopacity="0.25"
     inkscape:showpageshadow="2"
     inkscape:pageopacity="0.0"
     inkscape:pagecheckerboard="0"
     inkscape:deskcolor="#d1d1d1" />
  <path
     id="line1"
     style="baseline-shift:baseline;display:inline;overflow:visible;vector-effect:none;fill:url(#linearGradient2);stroke-linecap:round;stroke-linejoin:round;enable-background:accumulate;stop-color:#000000;stop-opacity:1;opacity:1;fill-opacity:1"
     d="M 32 40 A 8.0008 8.0008 0 0 0 24.529297 50.859375 C 35.219803 78.788322 32.964647 135.58374 24.34375 165.67969 C 24.333236 165.71639 24.323033 165.75244 24.3125 165.78906 A 8.0008 8.0008 0 0 0 24.289062 165.90234 A 8 8 0 0 0 24.111328 166.72461 A 8.0008 8.0008 0 0 0 24.068359 167.01562 A 8 8 0 0 0 24 168 L 24 200 C 24 208.7418 31.258201 216 40 216 L 66.109375 216 A 8.0008 8.0008 0 0 0 66.117188 216 C 68.588746 215.998 71.027574 215.42544 73.242188 214.32812 A 8.0008 8.0008 0 0 0 73.271484 214.3125 L 85.861328 208.00781 C 85.872538 208.00181 85.883974 208 85.896484 208 L 102.10352 208 C 102.11602 208.00001 102.12737 208.00181 102.13867 208.00781 L 114.72852 214.3125 A 8.0008 8.0008 0 0 0 114.75781 214.32812 C 116.97243 215.42544 119.41125 215.99776 121.88281 216 A 8.0008 8.0008 0 0 0 121.89062 216 L 150.10938 216 A 8.0008 8.0008 0 0 0 150.11719 216 C 152.58875 215.998 155.02757 215.42544 157.24219 214.32812 A 8.0008 8.0008 0 0 0 157.27148 214.3125 L 169.86133 208.00781 C 169.87253 208.00181 169.88398 208 169.89648 208 L 186.10352 208 C 186.11602 208.00001 186.12747 208.00181 186.13867 208.00781 L 198.72852 214.3125 A 8.0008 8.0008 0 0 0 198.75781 214.32812 C 200.97243 215.42544 203.41125 215.99776 205.88281 216 A 8.0008 8.0008 0 0 0 205.89062 216 L 232 216 C 240.7418 216 248 208.7418 248 200 L 248 168 C 248 137.16681 222.83319 112 192 112 L 160 112 L 160 56 C 160 47.258201 152.7418 40 144 40 L 32 40 z M 42.761719 56 L 144 56 L 144 80 L 112 80 A 8 8 0 0 0 104 88 A 8 8 0 0 0 112 96 L 144 96 L 144 112 L 112 112 A 8 8 0 0 0 104 120 A 8 8 0 0 0 112 128 L 152 128 L 192 128 C 211.44425 128 227.52998 141.68283 231.20898 160 L 42.234375 160 C 49.081051 129.42814 50.983873 87.15384 42.761719 56 z M 40 176 L 232 176 L 232 200 L 205.89648 200 C 205.88398 199.99999 205.87253 199.99819 205.86133 199.99219 L 193.27148 193.6875 A 8.0008 8.0008 0 0 0 193.24219 193.67188 C 191.02757 192.57457 188.58875 192.00224 186.11719 192 A 8.0008 8.0008 0 0 0 186.10938 192 L 169.89062 192 A 8.0008 8.0008 0 0 0 169.88281 192 C 167.41125 192.002 164.97243 192.57457 162.75781 193.67188 A 8.0008 8.0008 0 0 0 162.72852 193.6875 L 150.13867 199.99219 C 150.12747 199.99819 150.11602 200 150.10352 200 L 121.89648 200 C 121.88398 199.99999 121.87263 199.99819 121.86133 199.99219 L 109.27148 193.6875 A 8.0008 8.0008 0 0 0 109.24219 193.67188 C 107.02757 192.57457 104.58875 192.00224 102.11719 192 A 8.0008 8.0008 0 0 0 102.10938 192 L 85.890625 192 A 8.0008 8.0008 0 0 0 85.882812 192 C 83.411254 192.002 80.972427 192.57457 78.757812 193.67188 A 8.0008 8.0008 0 0 0 78.728516 193.6875 L 66.138672 199.99219 C 66.127462 199.99819 66.116026 200 66.103516 200 L 40 200 L 40 176 z " />
</svg>
