<?xml version="1.0" encoding="UTF-8" standalone="no"?>
<svg
   viewBox="0 0 256 256"
   version="1.1"
   id="svg8"
   sodipodi:docname="bounding box blue_purple.svg"
   xmlns:inkscape="http://www.inkscape.org/namespaces/inkscape"
   xmlns:sodipodi="http://sodipodi.sourceforge.net/DTD/sodipodi-0.dtd"
   xmlns:xlink="http://www.w3.org/1999/xlink"
   xmlns="http://www.w3.org/2000/svg"
   xmlns:svg="http://www.w3.org/2000/svg">
  <defs
     id="defs3">
    <linearGradient
       id="linearGradient1"
       inkscape:collect="always">
      <stop
         style="stop-color:#a03291;stop-opacity:1;"
         offset="0"
         id="stop1" />
      <stop
         style="stop-color:#4b4fe2ff;stop-opacity:1;"
         offset="0.76340693"
         id="stop2" />
    </linearGradient>
    <linearGradient
       inkscape:collect="always"
       xlink:href="#linearGradient1"
       id="linearGradient2"
       x1="232.4884"
       y1="23.847498"
       x2="23.977745"
       y2="232.35815"
       gradientUnits="userSpaceOnUse" />
  </defs>
  <defs
     id="defs8" />
  <sodipodi:namedview
     id="namedview8"
     pagecolor="#ffffff"
     bordercolor="#000000"
     borderopacity="0.25"
     inkscape:showpageshadow="2"
     inkscape:pageopacity="0.0"
     inkscape:pagecheckerboard="0"
     inkscape:deskcolor="#d1d1d1" />
  <path
     id="rect2"
     style="baseline-shift:baseline;display:inline;overflow:visible;vector-effect:none;fill:url(#linearGradient2);stroke-linecap:round;stroke-linejoin:round;enable-background:accumulate;stop-color:#000000;stop-opacity:1;opacity:1;fill-opacity:1"
     d="M 48 32 C 39.274378 32 32 39.274378 32 48 L 32 80 C 32 88.725622 39.274378 96 48 96 L 56 96 L 56 160 L 48 160 C 39.274378 160 32 167.27438 32 176 L 32 208 C 32 216.72562 39.274378 224 48 224 L 80 224 C 88.725622 224 96 216.72562 96 208 L 96 200 L 160 200 L 160 208 C 160 216.72562 167.27438 224 176 224 L 208 224 C 216.72562 224 224 216.72562 224 208 L 224 176 C 224 167.27438 216.72562 160 208 160 L 200 160 L 200 96 L 208 96 C 216.72562 96 224 88.725622 224 80 L 224 48 C 224 39.274378 216.72562 32 208 32 L 176 32 C 167.27438 32 160 39.274378 160 48 L 160 56 L 96 56 L 96 48 C 96 39.274378 88.725622 32 80 32 L 48 32 z M 48 48 L 80 48 L 80 64 L 80 80 L 48 80 L 48 48 z M 176 48 L 208 48 L 208 80 L 176 80 L 176 64 L 176 48 z M 96 72 L 160 72 L 160 80 C 160 88.725622 167.27438 96 176 96 L 184 96 L 184 160 L 176 160 C 167.27438 160 160 167.27438 160 176 L 160 184 L 96 184 L 96 176 C 96 167.27438 88.725622 160 80 160 L 72 160 L 72 96 L 80 96 C 88.725622 96 96 88.725622 96 80 L 96 72 z M 48 176 L 80 176 L 80 208 L 48 208 L 48 176 z M 176 176 L 208 176 L 208 208 L 176 208 L 176 176 z " />
</svg>
