<?xml version="1.0" encoding="UTF-8" standalone="no"?>
<svg
   viewBox="0 0 256 256"
   version="1.1"
   id="svg4"
   sodipodi:docname="bowl steam blue_purple.svg"
   xmlns:inkscape="http://www.inkscape.org/namespaces/inkscape"
   xmlns:sodipodi="http://sodipodi.sourceforge.net/DTD/sodipodi-0.dtd"
   xmlns:xlink="http://www.w3.org/1999/xlink"
   xmlns="http://www.w3.org/2000/svg"
   xmlns:svg="http://www.w3.org/2000/svg">
  <defs
     id="defs3">
    <linearGradient
       id="linearGradient1"
       inkscape:collect="always">
      <stop
         style="stop-color:#a03291;stop-opacity:1;"
         offset="0"
         id="stop1" />
      <stop
         style="stop-color:#4b4fe2ff;stop-opacity:1;"
         offset="0.76340693"
         id="stop2" />
    </linearGradient>
    <linearGradient
       inkscape:collect="always"
       xlink:href="#linearGradient1"
       id="linearGradient2"
       x1="232.4884"
       y1="23.847498"
       x2="23.977745"
       y2="232.35815"
       gradientUnits="userSpaceOnUse" />
  </defs>
  <defs
     id="defs4" />
  <sodipodi:namedview
     id="namedview4"
     pagecolor="#ffffff"
     bordercolor="#000000"
     borderopacity="0.25"
     inkscape:showpageshadow="2"
     inkscape:pageopacity="0.0"
     inkscape:pagecheckerboard="0"
     inkscape:deskcolor="#d1d1d1" />
  <path
     id="path1"
     style="baseline-shift:baseline;display:inline;overflow:visible;vector-effect:none;fill:url(#linearGradient2);stroke-linecap:round;stroke-linejoin:round;enable-background:accumulate;stop-color:#000000;stop-opacity:1;opacity:1;fill-opacity:1"
     d="M 88.318359 24.005859 A 8 8 0 0 0 80.361328 29.623047 A 8 8 0 0 0 85.623047 39.638672 C 85.623047 39.638672 87.1945 40.438458 87.697266 41.376953 C 87.948648 41.846201 88.26879 42.329309 87.796875 44.384766 C 87.324959 46.440223 85.753917 50.022642 81.763672 54.988281 C 76.753917 61.222642 73.824959 66.740613 72.609375 72.035156 C 71.393791 77.329699 72.198648 82.446982 74.197266 86.177734 C 78.1945 93.639239 85.623047 95.638672 85.623047 95.638672 A 8 8 0 0 0 95.638672 90.376953 A 8 8 0 0 0 90.376953 80.361328 C 90.376953 80.361328 88.8055 79.561542 88.302734 78.623047 C 88.051352 78.153799 87.73121 77.670691 88.203125 75.615234 C 88.675041 73.559777 90.246083 69.977358 94.236328 65.011719 C 99.246083 58.777358 102.17504 53.259387 103.39062 47.964844 C 104.60622 42.670301 103.80135 37.553018 101.80273 33.822266 C 97.805509 26.360761 90.376953 24.361328 90.376953 24.361328 A 8 8 0 0 0 88.318359 24.005859 z M 128.31836 24.005859 A 8 8 0 0 0 120.36133 29.623047 A 8 8 0 0 0 125.62305 39.638672 C 125.62305 39.638672 127.1945 40.438458 127.69727 41.376953 C 127.94865 41.846201 128.26879 42.329309 127.79688 44.384766 C 127.32496 46.440223 125.75392 50.022642 121.76367 54.988281 C 116.75392 61.222642 113.82496 66.740613 112.60938 72.035156 C 111.39378 77.329699 112.19865 82.446982 114.19727 86.177734 C 118.1945 93.639239 125.62305 95.638672 125.62305 95.638672 A 8 8 0 0 0 135.63867 90.376953 A 8 8 0 0 0 130.37695 80.361328 C 130.37695 80.361328 128.8055 79.561542 128.30273 78.623047 C 128.05135 78.153799 127.73122 77.670691 128.20312 75.615234 C 128.67505 73.559777 130.24608 69.977358 134.23633 65.011719 C 139.24608 58.777358 142.17504 53.259387 143.39062 47.964844 C 144.60621 42.670301 143.80135 37.553018 141.80273 33.822266 C 137.8055 26.360761 130.37695 24.361328 130.37695 24.361328 A 8 8 0 0 0 128.31836 24.005859 z M 168.31836 24.005859 A 8 8 0 0 0 160.36133 29.623047 A 8 8 0 0 0 165.62305 39.638672 C 165.62305 39.638672 167.1945 40.438458 167.69727 41.376953 C 167.94865 41.846201 168.26879 42.329309 167.79688 44.384766 C 167.32496 46.440223 165.75392 50.022642 161.76367 54.988281 C 156.75392 61.222642 153.82497 66.740613 152.60938 72.035156 C 151.3938 77.329699 152.19865 82.446982 154.19727 86.177734 C 158.1945 93.639239 165.62305 95.638672 165.62305 95.638672 A 8 8 0 0 0 175.63867 90.376953 A 8 8 0 0 0 170.37695 80.361328 C 170.37695 80.361328 168.8055 79.561542 168.30273 78.623047 C 168.05135 78.153799 167.73121 77.670691 168.20312 75.615234 C 168.67505 73.559777 170.24608 69.977358 174.23633 65.011719 C 179.24608 58.777358 182.17506 53.259387 183.39062 47.964844 C 184.60621 42.670301 183.80135 37.553018 181.80273 33.822266 C 177.8055 26.360761 170.37695 24.361328 170.37695 24.361328 A 8 8 0 0 0 168.31836 24.005859 z M 32 112 A 8.0008 8.0008 0 0 0 24 119.99805 C 23.98772 158.90364 45.742393 194.39131 80 212.22461 L 80 216 C 80 224.7418 87.258201 232 96 232 L 160 232 C 168.7418 232 176 224.7418 176 216 L 176 212.22461 C 210.25761 194.39131 232.01228 158.90364 232 119.99805 A 8.0008 8.0008 0 0 0 224 112 L 32 112 z M 40.576172 128 L 215.42383 128 C 212.58364 159.19457 193.51518 186.80435 164.66602 200.02734 A 8.0008 8.0008 0 0 0 160 207.30078 L 160 216 L 96 216 L 96 207.30078 A 8.0008 8.0008 0 0 0 91.333984 200.02734 C 62.484822 186.80435 43.41636 159.19457 40.576172 128 z " />
</svg>
