<?xml version="1.0" encoding="UTF-8" standalone="no"?>
<svg
   viewBox="0 0 256 256"
   version="1.1"
   id="svg2"
   sodipodi:docname="brackets angle blue_purple.svg"
   xmlns:inkscape="http://www.inkscape.org/namespaces/inkscape"
   xmlns:sodipodi="http://sodipodi.sourceforge.net/DTD/sodipodi-0.dtd"
   xmlns:xlink="http://www.w3.org/1999/xlink"
   xmlns="http://www.w3.org/2000/svg"
   xmlns:svg="http://www.w3.org/2000/svg">
  <defs
     id="defs3">
    <linearGradient
       id="linearGradient1"
       inkscape:collect="always">
      <stop
         style="stop-color:#a03291;stop-opacity:1;"
         offset="0"
         id="stop1" />
      <stop
         style="stop-color:#4b4fe2ff;stop-opacity:1;"
         offset="0.76340693"
         id="stop2" />
    </linearGradient>
    <linearGradient
       inkscape:collect="always"
       xlink:href="#linearGradient1"
       id="linearGradient2"
       x1="232.4884"
       y1="23.847498"
       x2="23.977745"
       y2="232.35815"
       gradientUnits="userSpaceOnUse" />
  </defs>
  <defs
     id="defs2" />
  <sodipodi:namedview
     id="namedview2"
     pagecolor="#ffffff"
     bordercolor="#000000"
     borderopacity="0.25"
     inkscape:showpageshadow="2"
     inkscape:pageopacity="0.0"
     inkscape:pagecheckerboard="0"
     inkscape:deskcolor="#d1d1d1" />
  <path
     id="polyline1"
     style="baseline-shift:baseline;display:inline;overflow:visible;vector-effect:none;fill:url(#linearGradient2);stroke-linecap:round;stroke-linejoin:round;enable-background:accumulate;stop-color:#000000;stop-opacity:1;opacity:1;fill-opacity:1"
     d="M 80.34375 32.007812 A 8 8 0 0 0 78.263672 32.191406 A 8 8 0 0 0 73.25 35.705078 L 17.25 123.70508 A 8.0008 8.0008 0 0 0 17.25 132.29492 L 73.25 220.29492 A 8 8 0 0 0 84.294922 222.75 A 8 8 0 0 0 86.75 211.70508 L 33.482422 128 L 86.75 44.294922 A 8 8 0 0 0 84.294922 33.25 A 8 8 0 0 0 80.34375 32.007812 z M 175.65625 32.007812 A 8 8 0 0 0 171.70508 33.25 A 8 8 0 0 0 169.25 44.294922 L 222.51758 128 L 169.25 211.70508 A 8 8 0 0 0 171.70508 222.75 A 8 8 0 0 0 182.75 220.29492 L 238.75 132.29492 A 8.0008 8.0008 0 0 0 238.75 123.70508 L 182.75 35.705078 A 8 8 0 0 0 177.73633 32.191406 A 8 8 0 0 0 175.65625 32.007812 z " />
</svg>
