<?xml version="1.0" encoding="UTF-8" standalone="no"?>
<svg
   viewBox="0 0 256 256"
   version="1.1"
   id="svg10"
   sodipodi:docname="building blue_purple.svg"
   xmlns:inkscape="http://www.inkscape.org/namespaces/inkscape"
   xmlns:sodipodi="http://sodipodi.sourceforge.net/DTD/sodipodi-0.dtd"
   xmlns:xlink="http://www.w3.org/1999/xlink"
   xmlns="http://www.w3.org/2000/svg"
   xmlns:svg="http://www.w3.org/2000/svg">
  <defs
     id="defs3">
    <linearGradient
       id="linearGradient1"
       inkscape:collect="always">
      <stop
         style="stop-color:#a03291;stop-opacity:1;"
         offset="0"
         id="stop1" />
      <stop
         style="stop-color:#4b4fe2ff;stop-opacity:1;"
         offset="0.76340693"
         id="stop2" />
    </linearGradient>
    <linearGradient
       inkscape:collect="always"
       xlink:href="#linearGradient1"
       id="linearGradient2"
       x1="232.4884"
       y1="23.847498"
       x2="23.977745"
       y2="232.35815"
       gradientUnits="userSpaceOnUse" />
  </defs>
  <defs
     id="defs10" />
  <sodipodi:namedview
     id="namedview10"
     pagecolor="#ffffff"
     bordercolor="#000000"
     borderopacity="0.25"
     inkscape:showpageshadow="2"
     inkscape:pageopacity="0.0"
     inkscape:pagecheckerboard="0"
     inkscape:deskcolor="#d1d1d1" />
  <path
     id="line1"
     style="baseline-shift:baseline;display:inline;overflow:visible;vector-effect:none;fill:url(#linearGradient2);stroke-linecap:round;stroke-linejoin:round;enable-background:accumulate;stop-color:#000000;stop-opacity:1;opacity:1;fill-opacity:1"
     d="M 40 16 A 8 8 0 0 0 32 24 A 8 8 0 0 0 40 32 L 48 32 L 48 224 L 24 224 A 8 8 0 0 0 16 232 A 8 8 0 0 0 24 240 L 232 240 A 8 8 0 0 0 240 232 A 8 8 0 0 0 232 224 L 208 224 L 208 32 L 216 32 A 8 8 0 0 0 224 24 A 8 8 0 0 0 216 16 L 200 16 L 56 16 L 40 16 z M 64 32 L 192 32 L 192 224 L 160 224 L 160 184 A 8.0008 8.0008 0 0 0 152 176 L 104 176 A 8.0008 8.0008 0 0 0 96 184 L 96 224 L 64 224 L 64 32 z M 96 56 A 8 8 0 0 0 88 64 A 8 8 0 0 0 96 72 L 112 72 A 8 8 0 0 0 120 64 A 8 8 0 0 0 112 56 L 96 56 z M 144 56 A 8 8 0 0 0 136 64 A 8 8 0 0 0 144 72 L 160 72 A 8 8 0 0 0 168 64 A 8 8 0 0 0 160 56 L 144 56 z M 96 96 A 8 8 0 0 0 88 104 A 8 8 0 0 0 96 112 L 112 112 A 8 8 0 0 0 120 104 A 8 8 0 0 0 112 96 L 96 96 z M 144 96 A 8 8 0 0 0 136 104 A 8 8 0 0 0 144 112 L 160 112 A 8 8 0 0 0 168 104 A 8 8 0 0 0 160 96 L 144 96 z M 96 136 A 8 8 0 0 0 88 144 A 8 8 0 0 0 96 152 L 112 152 A 8 8 0 0 0 120 144 A 8 8 0 0 0 112 136 L 96 136 z M 144 136 A 8 8 0 0 0 136 144 A 8 8 0 0 0 144 152 L 160 152 A 8 8 0 0 0 168 144 A 8 8 0 0 0 160 136 L 144 136 z M 112 192 L 144 192 L 144 224 L 112 224 L 112 192 z " />
</svg>
