<?xml version="1.0" encoding="UTF-8" standalone="no"?>
<svg
   viewBox="0 0 256 256"
   version="1.1"
   id="svg1"
   sodipodi:docname="cactus blue_purple.svg"
   xmlns:inkscape="http://www.inkscape.org/namespaces/inkscape"
   xmlns:sodipodi="http://sodipodi.sourceforge.net/DTD/sodipodi-0.dtd"
   xmlns:xlink="http://www.w3.org/1999/xlink"
   xmlns="http://www.w3.org/2000/svg"
   xmlns:svg="http://www.w3.org/2000/svg">
  <defs
     id="defs3">
    <linearGradient
       id="linearGradient1"
       inkscape:collect="always">
      <stop
         style="stop-color:#a03291;stop-opacity:1;"
         offset="0"
         id="stop1" />
      <stop
         style="stop-color:#4b4fe2ff;stop-opacity:1;"
         offset="0.76340693"
         id="stop2" />
    </linearGradient>
    <linearGradient
       inkscape:collect="always"
       xlink:href="#linearGradient1"
       id="linearGradient2"
       x1="232.4884"
       y1="23.847498"
       x2="23.977745"
       y2="232.35815"
       gradientUnits="userSpaceOnUse" />
  </defs>
  <defs
     id="defs1" />
  <sodipodi:namedview
     id="namedview1"
     pagecolor="#ffffff"
     bordercolor="#000000"
     borderopacity="0.25"
     inkscape:showpageshadow="2"
     inkscape:pageopacity="0.0"
     inkscape:pagecheckerboard="0"
     inkscape:deskcolor="#d1d1d1" />
  <path
     id="line1"
     style="baseline-shift:baseline;display:inline;overflow:visible;vector-effect:none;fill:url(#linearGradient2);stroke-linecap:round;stroke-linejoin:round;enable-background:accumulate;stop-color:#000000;stop-opacity:1;opacity:1;fill-opacity:1"
     d="M 128 16 C 106.00337 16 88 34.003367 88 56 L 88 88 L 84 88 C 77.277826 88 72 82.722174 72 76 C 72 60.630784 59.369216 48 44 48 C 28.630784 48 16 60.630784 16 76 C 16 113.46061 46.539394 144 84 144 L 88 144 L 88 208 L 40 208 A 8 8 0 0 0 32 216 A 8 8 0 0 0 40 224 L 96 224 L 160 224 L 216 224 A 8 8 0 0 0 224 216 A 8 8 0 0 0 216 208 L 168 208 L 168 184 L 172 184 C 209.46061 184 240 153.46061 240 116 C 240 100.63078 227.36922 88 212 88 C 196.63078 88 184 100.63078 184 116 C 184 122.72217 178.72217 128 172 128 L 168 128 L 168 56 C 168 34.003367 149.99663 16 128 16 z M 128 32 C 141.34959 32 152 42.650409 152 56 L 152 136 A 8.0008 8.0008 0 0 0 160 144 L 172 144 C 187.36922 144 200 131.36922 200 116 C 200 109.27783 205.27783 104 212 104 C 218.72217 104 224 109.27783 224 116 C 224 144.81356 200.81356 168 172 168 L 160 168 A 8.0008 8.0008 0 0 0 152 176 L 152 208 L 104 208 L 104 136 A 8.0008 8.0008 0 0 0 96 128 L 84 128 C 55.186436 128 32 104.81356 32 76 C 32 69.277826 37.277826 64 44 64 C 50.722174 64 56 69.277826 56 76 C 56 91.369216 68.630784 104 84 104 L 96 104 A 8.0008 8.0008 0 0 0 104 96 L 104 56 C 104 42.650409 114.65041 32 128 32 z " />
</svg>
