<?xml version="1.0" encoding="UTF-8" standalone="no"?>
<svg
   viewBox="0 0 256 256"
   version="1.1"
   id="svg3"
   sodipodi:docname="cake blue_purple.svg"
   xmlns:inkscape="http://www.inkscape.org/namespaces/inkscape"
   xmlns:sodipodi="http://sodipodi.sourceforge.net/DTD/sodipodi-0.dtd"
   xmlns:xlink="http://www.w3.org/1999/xlink"
   xmlns="http://www.w3.org/2000/svg"
   xmlns:svg="http://www.w3.org/2000/svg">
  <defs
     id="defs3">
    <linearGradient
       id="linearGradient1"
       inkscape:collect="always">
      <stop
         style="stop-color:#a03291;stop-opacity:1;"
         offset="0"
         id="stop1" />
      <stop
         style="stop-color:#4b4fe2ff;stop-opacity:1;"
         offset="0.76340693"
         id="stop2" />
    </linearGradient>
    <linearGradient
       inkscape:collect="always"
       xlink:href="#linearGradient1"
       id="linearGradient2"
       x1="232.4884"
       y1="23.847498"
       x2="23.977745"
       y2="232.35815"
       gradientUnits="userSpaceOnUse" />
  </defs>
  <defs
     id="defs1" />
  <sodipodi:namedview
     id="namedview3"
     pagecolor="#ffffff"
     bordercolor="#000000"
     borderopacity="0.25"
     inkscape:showpageshadow="2"
     inkscape:pageopacity="0.0"
     inkscape:pagecheckerboard="0"
     inkscape:deskcolor="#d1d1d1" />
  <path
     id="line1"
     style="baseline-shift:baseline;display:inline;overflow:visible;vector-effect:none;fill:url(#linearGradient2);stroke-linecap:round;stroke-linejoin:round;enable-background:accumulate;stop-color:#000000;stop-opacity:1;opacity:1;fill-opacity:1"
     d="M 128 0 A 8.0008 8.0008 0 0 0 123.5625 1.34375 C 123.5625 1.34375 96 18.666667 96 48 C 96 62.819413 106.24991 75.395985 120 78.978516 L 120 88 L 48 88 C 34.839923 88 24 98.839923 24 112 L 24 135.33008 C 24 144.34184 26.963517 152.80008 32 159.64453 L 32 200 C 32 213.16008 42.839923 224 56 224 L 200 224 C 213.16008 224 224 213.16008 224 200 L 224 159.64258 C 229.03652 152.79863 232 144.34142 232 135.33008 L 232 112 C 232 98.839923 221.16008 88 208 88 L 136 88 L 136 78.978516 C 149.75009 75.395985 160 62.819413 160 48 C 160 18.666667 132.4375 1.34375 132.4375 1.34375 A 8.0008 8.0008 0 0 0 128 0 z M 128 18.496094 C 133.99073 23.93892 144 34.826112 144 48 C 144 56.931325 136.93132 64 128 64 C 119.06868 64 112 56.931325 112 48 C 112 34.826112 122.00927 23.93892 128 18.496094 z M 48 104 L 208 104 C 212.51304 104 216 107.48696 216 112 L 216 135.33008 C 216 148.58965 205.71964 159.63308 192.67969 159.99219 A 8.0008 8.0008 0 0 0 192.67578 159.99414 C 179.05783 160.37725 167.99887 149.62343 168 136 A 8.0008 8.0008 0 0 0 152 136 C 152 149.34961 141.3496 160 128 160 C 114.6504 160 104 149.34961 104 136 L 104 135.99609 A 8.0008 8.0008 0 0 0 88 136 L 88 136.00391 C 88.0054 149.63038 76.945301 160.38715 63.324219 160.00391 C 50.281658 159.63716 40 148.58965 40 135.33008 L 40 112 C 40 107.48696 43.486965 104 48 104 z M 159.98633 159.72266 C 167.51705 169.8336 179.60359 176.36677 193.125 175.98633 C 198.42272 175.83991 203.43973 174.64284 208 172.60352 L 208 200 C 208 204.51304 204.51304 208 200 208 L 56 208 C 51.486965 208 48 204.51304 48 200 L 48 172.60742 C 52.560314 174.64811 57.577334 175.84716 62.875 175.99609 C 76.398512 176.37659 88.48525 169.83978 96.015625 159.72656 C 103.32412 169.53331 114.90366 176 128 176 C 141.09786 176 152.678 169.53133 159.98633 159.72266 z " />
</svg>
