<?xml version="1.0" encoding="UTF-8" standalone="no"?>
<svg
   viewBox="0 0 256 256"
   version="1.1"
   id="svg8"
   sodipodi:docname="calculator blue_purple.svg"
   xmlns:inkscape="http://www.inkscape.org/namespaces/inkscape"
   xmlns:sodipodi="http://sodipodi.sourceforge.net/DTD/sodipodi-0.dtd"
   xmlns:xlink="http://www.w3.org/1999/xlink"
   xmlns="http://www.w3.org/2000/svg"
   xmlns:svg="http://www.w3.org/2000/svg">
  <defs
     id="defs3">
    <linearGradient
       id="linearGradient1"
       inkscape:collect="always">
      <stop
         style="stop-color:#a03291;stop-opacity:1;"
         offset="0"
         id="stop1" />
      <stop
         style="stop-color:#4b4fe2ff;stop-opacity:1;"
         offset="0.76340693"
         id="stop2" />
    </linearGradient>
    <linearGradient
       inkscape:collect="always"
       xlink:href="#linearGradient1"
       id="linearGradient2"
       x1="232.4884"
       y1="23.847498"
       x2="23.977745"
       y2="232.35815"
       gradientUnits="userSpaceOnUse" />
  </defs>
  <defs
     id="defs8" />
  <sodipodi:namedview
     id="namedview8"
     pagecolor="#ffffff"
     bordercolor="#000000"
     borderopacity="0.25"
     inkscape:showpageshadow="2"
     inkscape:pageopacity="0.0"
     inkscape:pagecheckerboard="0"
     inkscape:deskcolor="#d1d1d1" />
  <path
     id="rect2"
     style="baseline-shift:baseline;display:inline;overflow:visible;vector-effect:none;fill:url(#linearGradient2);stroke-linecap:round;stroke-linejoin:round;enable-background:accumulate;stop-color:#000000;stop-opacity:1;opacity:1;fill-opacity:1"
     d="M 56 24 C 47.27438 24 40 31.274378 40 40 L 40 216 C 40 224.72562 47.27438 232 56 232 L 200 232 C 208.72562 232 216 224.72562 216 216 L 216 40 C 216 31.274378 208.72562 24 200 24 L 56 24 z M 56 40 L 200 40 L 200 216 L 56 216 L 56 40 z M 80 56 A 8.0008 8.0008 0 0 0 72 64 L 72 112 A 8.0008 8.0008 0 0 0 80 120 L 176 120 A 8.0008 8.0008 0 0 0 184 112 L 184 64 A 8.0008 8.0008 0 0 0 176 56 L 80 56 z M 88 72 L 168 72 L 168 104 L 88 104 L 88 72 z M 88 136 A 12 12 0 0 0 76 148 A 12 12 0 0 0 88 160 A 12 12 0 0 0 100 148 A 12 12 0 0 0 88 136 z M 128 136 A 12 12 0 0 0 116 148 A 12 12 0 0 0 128 160 A 12 12 0 0 0 140 148 A 12 12 0 0 0 128 136 z M 168 136 A 12 12 0 0 0 156 148 A 12 12 0 0 0 168 160 A 12 12 0 0 0 180 148 A 12 12 0 0 0 168 136 z M 88 176 A 12 12 0 0 0 76 188 A 12 12 0 0 0 88 200 A 12 12 0 0 0 100 188 A 12 12 0 0 0 88 176 z M 128 176 A 12 12 0 0 0 116 188 A 12 12 0 0 0 128 200 A 12 12 0 0 0 140 188 A 12 12 0 0 0 128 176 z M 168 176 A 12 12 0 0 0 156 188 A 12 12 0 0 0 168 200 A 12 12 0 0 0 180 188 A 12 12 0 0 0 168 176 z " />
</svg>
