<?xml version="1.0" encoding="UTF-8" standalone="no"?>
<svg
   viewBox="0 0 256 256"
   version="1.1"
   id="svg2"
   sodipodi:docname="cardholder blue_purple.svg"
   xmlns:inkscape="http://www.inkscape.org/namespaces/inkscape"
   xmlns:sodipodi="http://sodipodi.sourceforge.net/DTD/sodipodi-0.dtd"
   xmlns:xlink="http://www.w3.org/1999/xlink"
   xmlns="http://www.w3.org/2000/svg"
   xmlns:svg="http://www.w3.org/2000/svg">
  <defs
     id="defs3">
    <linearGradient
       id="linearGradient1"
       inkscape:collect="always">
      <stop
         style="stop-color:#a03291;stop-opacity:1;"
         offset="0"
         id="stop1" />
      <stop
         style="stop-color:#4b4fe2ff;stop-opacity:1;"
         offset="0.76340693"
         id="stop2" />
    </linearGradient>
    <linearGradient
       inkscape:collect="always"
       xlink:href="#linearGradient1"
       id="linearGradient2"
       x1="232.4884"
       y1="23.847498"
       x2="23.977745"
       y2="232.35815"
       gradientUnits="userSpaceOnUse" />
  </defs>
  <defs
     id="defs2" />
  <sodipodi:namedview
     id="namedview2"
     pagecolor="#ffffff"
     bordercolor="#000000"
     borderopacity="0.25"
     inkscape:showpageshadow="2"
     inkscape:pageopacity="0.0"
     inkscape:pagecheckerboard="0"
     inkscape:deskcolor="#d1d1d1" />
  <path
     id="rect2"
     style="baseline-shift:baseline;display:inline;overflow:visible;vector-effect:none;fill:url(#linearGradient2);stroke-linecap:round;stroke-linejoin:round;enable-background:accumulate;stop-color:#000000;stop-opacity:1;opacity:1;fill-opacity:1"
     d="M 48 48 C 34.842378 48 24 58.842378 24 72 L 24 88 L 24 184 C 24 197.15762 34.842378 208 48 208 L 208 208 C 221.15762 208 232 197.15762 232 184 L 232 88 L 232 72 C 232 58.842378 221.15762 48 208 48 L 48 48 z M 48 64 L 208 64 C 212.57038 64 216 67.429622 216 72 L 216 80 L 40 80 L 40 72 C 40 67.429622 43.429622 64 48 64 z M 40 96 L 216 96 L 216 112 L 160 112 A 8.0008 8.0008 0 0 0 152 120 C 152 133.34961 141.3496 144 128 144 C 114.6504 144 104 133.34961 104 120 A 8.0008 8.0008 0 0 0 96 112 L 40 112 L 40 96 z M 40 128 L 88.8125 128 C 92.545955 146.19886 108.74091 160 128 160 C 147.25909 160 163.45405 146.19886 167.1875 128 L 216 128 L 216 184 C 216 188.57038 212.57038 192 208 192 L 48 192 C 43.429622 192 40 188.57038 40 184 L 40 128 z " />
</svg>
