<?xml version="1.0" encoding="UTF-8" standalone="no"?>
<svg
   viewBox="0 0 256 256"
   version="1.1"
   id="svg1"
   sodipodi:docname="chalkboard teacher blue_purple.svg"
   xmlns:inkscape="http://www.inkscape.org/namespaces/inkscape"
   xmlns:sodipodi="http://sodipodi.sourceforge.net/DTD/sodipodi-0.dtd"
   xmlns:xlink="http://www.w3.org/1999/xlink"
   xmlns="http://www.w3.org/2000/svg"
   xmlns:svg="http://www.w3.org/2000/svg">
  <defs
     id="defs3">
    <linearGradient
       id="linearGradient1"
       inkscape:collect="always">
      <stop
         style="stop-color:#a03291;stop-opacity:1;"
         offset="0"
         id="stop1" />
      <stop
         style="stop-color:#4b4fe2ff;stop-opacity:1;"
         offset="0.76340693"
         id="stop2" />
    </linearGradient>
    <linearGradient
       inkscape:collect="always"
       xlink:href="#linearGradient1"
       id="linearGradient2"
       x1="232.4884"
       y1="23.847498"
       x2="23.977745"
       y2="232.35815"
       gradientUnits="userSpaceOnUse" />
  </defs>
  <defs
     id="defs1" />
  <sodipodi:namedview
     id="namedview1"
     pagecolor="#ffffff"
     bordercolor="#000000"
     borderopacity="0.25"
     inkscape:showpageshadow="2"
     inkscape:pageopacity="0.0"
     inkscape:pagecheckerboard="0"
     inkscape:deskcolor="#d1d1d1" />
  <path
     id="circle1"
     style="baseline-shift:baseline;display:inline;overflow:visible;vector-effect:none;fill:url(#linearGradient2);stroke-linecap:round;stroke-linejoin:round;enable-background:accumulate;stop-color:#000000;stop-opacity:1;opacity:1;fill-opacity:1"
     d="M 40 40 C 31.258201 40 24 47.258201 24 56 L 24 200 C 24 208.7418 31.258201 216 40 216 L 53.390625 216 A 8.0008 8.0008 0 0 0 60.619141 211.42383 C 68.405365 194.98504 84.74681 184.40925 102.86523 183.98438 C 103.24225 183.99502 103.62053 184 104 184 C 104.37947 184 104.75774 183.99502 105.13477 183.98438 C 123.25319 184.40924 139.59463 194.98504 147.38086 211.42383 A 8.0008 8.0008 0 0 0 154.60938 216 L 216 216 C 224.7418 216 232 208.7418 232 200 L 232 56 C 232 47.258201 224.7418 40 216 40 L 40 40 z M 40 56 L 216 56 L 216 200 L 159.25586 200 C 152.53017 188.38243 142.45083 179.2989 130.58789 173.81836 C 138.80556 166.47856 144 155.81547 144 144 C 144 122.00337 125.99663 104 104 104 C 82.003367 104 64 122.00337 64 144 C 64 155.81547 69.194446 166.47856 77.412109 173.81836 C 65.549173 179.2989 55.469824 188.38243 48.744141 200 L 40 200 L 40 56 z M 64 72 A 8.0008 8.0008 0 0 0 56 80 L 56 96 A 8 8 0 0 0 64 104 A 8 8 0 0 0 72 96 L 72 88 L 184 88 L 184 168 L 176 168 A 8 8 0 0 0 168 176 A 8 8 0 0 0 176 184 L 192 184 A 8.0008 8.0008 0 0 0 200 176 L 200 80 A 8.0008 8.0008 0 0 0 192 72 L 64 72 z M 104 120 C 117.34959 120 128 130.65041 128 144 C 128 157.00591 117.89077 167.44939 105.02539 167.97852 C 104.68401 167.97302 104.3423 167.9707 104 167.9707 C 103.6577 167.9707 103.31599 167.97302 102.97461 167.97852 C 90.109229 167.44939 80 157.00591 80 144 C 80 130.65041 90.650409 120 104 120 z " />
</svg>
