<?xml version="1.0" encoding="UTF-8" standalone="no"?>
<svg
   viewBox="0 0 256 256"
   version="1.1"
   id="svg2"
   sodipodi:docname="chart line blue_purple.svg"
   xmlns:inkscape="http://www.inkscape.org/namespaces/inkscape"
   xmlns:sodipodi="http://sodipodi.sourceforge.net/DTD/sodipodi-0.dtd"
   xmlns:xlink="http://www.w3.org/1999/xlink"
   xmlns="http://www.w3.org/2000/svg"
   xmlns:svg="http://www.w3.org/2000/svg">
  <defs
     id="defs3">
    <linearGradient
       id="linearGradient1"
       inkscape:collect="always">
      <stop
         style="stop-color:#a03291;stop-opacity:1;"
         offset="0"
         id="stop1" />
      <stop
         style="stop-color:#4b4fe2ff;stop-opacity:1;"
         offset="0.76340693"
         id="stop2" />
    </linearGradient>
    <linearGradient
       inkscape:collect="always"
       xlink:href="#linearGradient1"
       id="linearGradient2"
       x1="232.4884"
       y1="23.847498"
       x2="23.977745"
       y2="232.35815"
       gradientUnits="userSpaceOnUse" />
  </defs>
  <defs
     id="defs2" />
  <sodipodi:namedview
     id="namedview2"
     pagecolor="#ffffff"
     bordercolor="#000000"
     borderopacity="0.25"
     inkscape:showpageshadow="2"
     inkscape:pageopacity="0.0"
     inkscape:pagecheckerboard="0"
     inkscape:deskcolor="#d1d1d1" />
  <path
     id="polyline1"
     style="baseline-shift:baseline;display:inline;overflow:visible;vector-effect:none;fill:url(#linearGradient2);stroke-linecap:round;stroke-linejoin:round;enable-background:accumulate;stop-color:#000000;stop-opacity:1;opacity:1;fill-opacity:1"
     d="M 32 40 A 8 8 0 0 0 24 48 L 24 159.91016 A 8 8 0 0 0 24 160.08984 L 24 208 A 8.0008 8.0008 0 0 0 32 216 L 224 216 A 8 8 0 0 0 232 208 A 8 8 0 0 0 224 200 L 40 200 L 40 163.63086 L 96.388672 114.29102 L 155.19922 158.40039 A 8.0008 8.0008 0 0 0 165.26758 158.02148 L 229.26758 102.02148 A 8 8 0 0 0 230.02148 90.732422 A 8 8 0 0 0 224.53125 88.017578 A 8 8 0 0 0 218.73242 89.978516 L 159.61133 141.70898 L 100.80078 97.599609 A 8.0008 8.0008 0 0 0 90.732422 97.978516 L 40 142.36914 L 40 48 A 8 8 0 0 0 32 40 z " />
</svg>
