<?xml version="1.0" encoding="UTF-8" standalone="no"?>
<svg
   viewBox="0 0 256 256"
   version="1.1"
   id="svg2"
   sodipodi:docname="chats circle blue_purple.svg"
   xmlns:inkscape="http://www.inkscape.org/namespaces/inkscape"
   xmlns:sodipodi="http://sodipodi.sourceforge.net/DTD/sodipodi-0.dtd"
   xmlns:xlink="http://www.w3.org/1999/xlink"
   xmlns="http://www.w3.org/2000/svg"
   xmlns:svg="http://www.w3.org/2000/svg">
  <defs
     id="defs3">
    <linearGradient
       id="linearGradient1"
       inkscape:collect="always">
      <stop
         style="stop-color:#a03291;stop-opacity:1;"
         offset="0"
         id="stop1" />
      <stop
         style="stop-color:#4b4fe2ff;stop-opacity:1;"
         offset="0.76340693"
         id="stop2" />
    </linearGradient>
    <linearGradient
       inkscape:collect="always"
       xlink:href="#linearGradient1"
       id="linearGradient2"
       x1="232.4884"
       y1="23.847498"
       x2="23.977745"
       y2="232.35815"
       gradientUnits="userSpaceOnUse" />
  </defs>
  <defs
     id="defs2" />
  <sodipodi:namedview
     id="namedview2"
     pagecolor="#ffffff"
     bordercolor="#000000"
     borderopacity="0.25"
     inkscape:showpageshadow="2"
     inkscape:pageopacity="0.0"
     inkscape:pagecheckerboard="0"
     inkscape:deskcolor="#d1d1d1" />
  <path
     id="path1"
     style="baseline-shift:baseline;display:inline;overflow:visible;vector-effect:none;fill:url(#linearGradient2);stroke-linecap:round;stroke-linejoin:round;enable-background:accumulate;stop-color:#000000;stop-opacity:1;opacity:1;fill-opacity:1"
     d="M 94.853516 24.070312 C 78.540345 24.283708 62.211419 29.4611 48.300781 39.783203 C 17.434922 62.686582 7.4318204 104.31149 23.962891 138.66602 L 16.636719 163.46484 A 8.0008 8.0008 0 0 0 16.634766 163.47656 C 13.189024 175.21011 24.76059 186.78168 36.494141 183.33594 A 8.0008 8.0008 0 0 0 36.496094 183.33594 L 61.330078 176.03516 C 69.392786 179.91539 77.855075 182.3348 86.382812 183.36523 C 104.11155 225.03936 153.59357 243.73363 194.61523 224.02344 L 219.46484 231.36328 A 8.0008 8.0008 0 0 0 219.47656 231.36523 C 231.21011 234.81098 242.78168 223.23941 239.33594 211.50586 A 8.0008 8.0008 0 0 0 239.33594 211.50391 L 232.00977 186.58398 C 243.27287 163.1298 242.5842 135.58881 229.75781 112.78516 C 217.19684 90.453356 194.74027 75.570747 169.49805 72.564453 C 165.59064 63.412469 159.91844 54.87157 152.52344 47.476562 C 136.77454 31.727666 115.82759 23.795948 94.853516 24.070312 z M 95.083984 40.013672 C 96.945871 39.988576 98.80653 40.044543 100.66211 40.181641 C 115.50674 41.278418 129.97293 47.55105 141.21094 58.789062 C 163.68696 81.265087 166.30259 116.64762 147.36719 142.16602 C 134.35984 159.69543 113.94608 168.84629 93.355469 167.99609 A 8 8 0 0 0 91.634766 167.90234 C 82.821651 167.2996 74.012722 164.85649 65.775391 160.44727 A 8.0008 8.0008 0 0 0 59.744141 159.82422 L 31.986328 167.98438 L 40.171875 140.26562 A 8.0008 8.0008 0 0 0 39.552734 134.22461 C 24.552905 106.20187 32.31504 71.568624 57.833984 52.632812 C 68.998283 44.348574 82.050776 40.189342 95.083984 40.013672 z M 174.63672 89.689453 C 191.92644 93.737934 206.93859 104.85223 215.8125 120.62891 C 226.54544 139.7107 226.78454 162.92365 216.44727 182.22266 A 8.0008 8.0008 0 0 0 215.82422 188.25586 L 223.98438 216.01367 L 196.26562 207.82812 A 8.0008 8.0008 0 0 0 190.22656 208.44531 C 158.87076 225.21428 120.96505 213.31213 104.25 183.51562 C 125.90734 181.27432 146.44592 170.25761 160.2168 151.69922 C 173.81656 133.37142 178.48469 110.84585 174.63672 89.689453 z " />
</svg>
