<?xml version="1.0" encoding="UTF-8" standalone="no"?>
<svg
   viewBox="0 0 256 256"
   version="1.1"
   id="svg1"
   sodipodi:docname="check square offset blue_purple.svg"
   xmlns:inkscape="http://www.inkscape.org/namespaces/inkscape"
   xmlns:sodipodi="http://sodipodi.sourceforge.net/DTD/sodipodi-0.dtd"
   xmlns:xlink="http://www.w3.org/1999/xlink"
   xmlns="http://www.w3.org/2000/svg"
   xmlns:svg="http://www.w3.org/2000/svg">
  <defs
     id="defs3">
    <linearGradient
       id="linearGradient1"
       inkscape:collect="always">
      <stop
         style="stop-color:#a03291;stop-opacity:1;"
         offset="0"
         id="stop1" />
      <stop
         style="stop-color:#4b4fe2ff;stop-opacity:1;"
         offset="0.76340693"
         id="stop2" />
    </linearGradient>
    <linearGradient
       inkscape:collect="always"
       xlink:href="#linearGradient1"
       id="linearGradient2"
       x1="232.4884"
       y1="23.847498"
       x2="23.977745"
       y2="232.35815"
       gradientUnits="userSpaceOnUse" />
  </defs>
  <defs
     id="defs1" />
  <sodipodi:namedview
     id="namedview1"
     pagecolor="#ffffff"
     bordercolor="#000000"
     borderopacity="0.25"
     inkscape:showpageshadow="2"
     inkscape:pageopacity="0.0"
     inkscape:pagecheckerboard="0"
     inkscape:deskcolor="#d1d1d1" />
  <path
     id="path1"
     style="baseline-shift:baseline;display:inline;overflow:visible;vector-effect:none;fill:url(#linearGradient2);stroke-linecap:round;stroke-linejoin:round;enable-background:accumulate;stop-color:#000000;stop-opacity:1;opacity:1;fill-opacity:1"
     d="M 48 32 C 39.258201 32 32 39.258201 32 48 L 32 144 A 8 8 0 0 0 40 152 A 8 8 0 0 0 48 144 L 48 48 L 208 48 L 208 208 L 136 208 A 8 8 0 0 0 128 216 A 8 8 0 0 0 136 224 L 208 224 C 216.7418 224 224 216.7418 224 208 L 224 48 C 224 39.258201 216.7418 32 208 32 L 48 32 z M 120 152 A 8 8 0 0 0 114.34375 154.34375 L 64 204.6875 L 45.65625 186.34375 A 8 8 0 0 0 34.34375 186.34375 A 8 8 0 0 0 34.34375 197.65625 L 58.34375 221.65625 A 8.0008 8.0008 0 0 0 69.65625 221.65625 L 125.65625 165.65625 A 8 8 0 0 0 125.65625 154.34375 A 8 8 0 0 0 120 152 z " />
</svg>
