<?xml version="1.0" encoding="UTF-8" standalone="no"?>
<svg
   viewBox="0 0 256 256"
   version="1.1"
   id="svg8"
   sodipodi:docname="cheers blue_purple.svg"
   xmlns:inkscape="http://www.inkscape.org/namespaces/inkscape"
   xmlns:sodipodi="http://sodipodi.sourceforge.net/DTD/sodipodi-0.dtd"
   xmlns:xlink="http://www.w3.org/1999/xlink"
   xmlns="http://www.w3.org/2000/svg"
   xmlns:svg="http://www.w3.org/2000/svg">
  <defs
     id="defs3">
    <linearGradient
       id="linearGradient1"
       inkscape:collect="always">
      <stop
         style="stop-color:#a03291;stop-opacity:1;"
         offset="0"
         id="stop1" />
      <stop
         style="stop-color:#4b4fe2ff;stop-opacity:1;"
         offset="0.76340693"
         id="stop2" />
    </linearGradient>
    <linearGradient
       inkscape:collect="always"
       xlink:href="#linearGradient1"
       id="linearGradient2"
       x1="232.4884"
       y1="23.847498"
       x2="23.977745"
       y2="232.35815"
       gradientUnits="userSpaceOnUse" />
  </defs>
  <defs
     id="defs8" />
  <sodipodi:namedview
     id="namedview8"
     pagecolor="#ffffff"
     bordercolor="#000000"
     borderopacity="0.25"
     inkscape:showpageshadow="2"
     inkscape:pageopacity="0.0"
     inkscape:pagecheckerboard="0"
     inkscape:deskcolor="#d1d1d1" />
  <path
     id="path1"
     style="baseline-shift:baseline;display:inline;overflow:visible;vector-effect:none;fill:url(#linearGradient2);stroke-linecap:round;stroke-linejoin:round;enable-background:accumulate;stop-color:#000000;stop-opacity:1;opacity:1;fill-opacity:1"
     d="M 95.744141 16.003906 A 8.0008 8.0008 0 0 0 89.263672 19.685547 C 89.263672 19.685547 79.580806 35.487818 69.097656 57.699219 A 8 8 0 0 0 67.46875 60.869141 A 8 8 0 0 0 67.349609 61.519531 C 60.791399 75.813597 54.14195 91.84862 49.380859 109.61133 C 49.380143 109.61433 49.379706 109.61614 49.378906 109.61914 C 44.318366 128.25481 53.453858 147.55097 70.109375 155.88867 L 59.714844 194.66992 L 42.070312 189.94336 A 8 8 0 0 0 32.273438 195.59961 A 8 8 0 0 0 37.929688 205.39844 L 63.107422 212.14453 A 8 8 0 0 0 63.298828 212.19727 A 8 8 0 0 0 63.484375 212.24414 L 85.929688 218.25781 A 8 8 0 0 0 95.726562 212.59961 A 8 8 0 0 0 90.070312 202.80273 L 75.169922 198.81055 L 85.564453 160.0293 C 102.50147 161.03666 118.58156 151.05059 125.04102 135.15234 C 126.21792 141.503 127.637 147.93123 129.3457 154.3125 C 134.27551 172.98694 151.83754 185.13246 170.43359 184.02734 L 180.83008 222.81055 L 165.92969 226.80273 A 8 8 0 0 0 160.27344 236.59961 A 8 8 0 0 0 170.07031 242.25781 L 192.51562 236.24414 A 8 8 0 0 0 192.70117 236.19727 A 8 8 0 0 0 192.89258 236.14453 L 218.07031 229.39844 A 8 8 0 0 0 223.72656 219.59961 A 8 8 0 0 0 213.92969 213.94336 L 196.28516 218.66992 L 185.89062 179.88672 C 202.54614 171.54902 211.68164 152.25481 206.62109 133.61914 C 201.65648 115.09465 194.64042 98.372315 187.81836 83.705078 A 8 8 0 0 0 187.70117 83.056641 A 8 8 0 0 0 186.07422 79.890625 C 175.91943 58.647451 166.73633 43.685547 166.73633 43.685547 A 8.0008 8.0008 0 0 0 158.06055 40.238281 L 136.19531 45.705078 C 136.24711 36.923333 135.99219 31.632813 135.99219 31.632812 A 8.0008 8.0008 0 0 0 129.93945 24.238281 L 97.939453 16.238281 A 8.0008 8.0008 0 0 0 95.744141 16.003906 z M 39.521484 16.013672 A 8 8 0 0 0 37.470703 16.410156 A 8 8 0 0 0 32.84375 20.421875 A 8 8 0 0 0 36.421875 31.15625 L 52.421875 39.15625 A 8 8 0 0 0 63.15625 35.578125 A 8 8 0 0 0 59.578125 24.84375 L 43.578125 16.84375 A 8 8 0 0 0 39.521484 16.013672 z M 208.47852 24.013672 A 8 8 0 0 0 204.42188 24.84375 L 188.42188 32.84375 A 8 8 0 0 0 184.84375 43.578125 A 8 8 0 0 0 195.57812 47.15625 L 211.57812 39.15625 A 8 8 0 0 0 215.15625 28.421875 A 8 8 0 0 0 210.5293 24.410156 A 8 8 0 0 0 208.47852 24.013672 z M 99.804688 33.197266 L 120.12305 38.277344 C 120.19078 42.082465 120.22519 48.086299 120.00781 55.611328 C 119.96291 56.303828 119.77265 59.447687 119.6582 64.447266 C 119.63809 64.846189 119.61729 65.247945 119.5957 65.652344 L 86.634766 57.414062 C 92.155621 46.27841 97.077945 37.751673 99.804688 33.197266 z M 24 56 A 8 8 0 0 0 16 64 A 8 8 0 0 0 24 72 L 40 72 A 8 8 0 0 0 48 64 A 8 8 0 0 0 40 56 L 24 56 z M 156.19531 57.197266 C 158.77407 61.504491 163.31544 69.36526 168.4707 79.625 L 135.89844 87.777344 C 135.42506 76.381831 135.59696 67.331129 135.77344 62.302734 L 156.19531 57.197266 z M 208 64 A 8 8 0 0 0 200 72 A 8 8 0 0 0 208 80 L 224 80 A 8 8 0 0 0 232 72 A 8 8 0 0 0 224 64 L 208 64 z M 79.720703 72.177734 L 118.40234 81.847656 C 117.10115 95.622444 114.88764 111.04569 111.16797 126.27539 C 107.83406 138.80076 95.453779 146.28816 82.927734 143.56641 A 8 8 0 0 0 81.800781 143.17188 A 8 8 0 0 0 80.626953 142.94922 C 68.401697 139.0397 61.414876 126.33919 64.820312 113.80859 A 8.0008 8.0008 0 0 0 64.828125 113.7793 C 68.831479 98.836038 74.253927 84.576734 79.720703 72.177734 z M 175.47266 94.365234 C 181.20899 107.17852 186.97191 122.10211 191.17188 137.7793 A 8.0008 8.0008 0 0 0 191.17969 137.80859 C 194.58511 150.33914 187.60017 163.03964 175.375 166.94922 A 8 8 0 0 0 174.19922 167.17188 A 8 8 0 0 0 173.07227 167.56641 C 160.5296 170.29165 148.12882 162.78355 144.81445 150.22852 A 8.0008 8.0008 0 0 0 144.80664 150.19922 C 140.55813 134.34084 138.20973 118.23325 136.94922 104.00977 L 175.47266 94.365234 z " />
</svg>
