<?xml version="1.0" encoding="UTF-8" standalone="no"?>
<svg
   viewBox="0 0 256 256"
   version="1.1"
   id="svg2"
   sodipodi:docname="clock user blue_purple.svg"
   xmlns:inkscape="http://www.inkscape.org/namespaces/inkscape"
   xmlns:sodipodi="http://sodipodi.sourceforge.net/DTD/sodipodi-0.dtd"
   xmlns:xlink="http://www.w3.org/1999/xlink"
   xmlns="http://www.w3.org/2000/svg"
   xmlns:svg="http://www.w3.org/2000/svg">
  <defs
     id="defs3">
    <linearGradient
       id="linearGradient1"
       inkscape:collect="always">
      <stop
         style="stop-color:#a03291;stop-opacity:1;"
         offset="0"
         id="stop1" />
      <stop
         style="stop-color:#4b4fe2ff;stop-opacity:1;"
         offset="0.76340693"
         id="stop2" />
    </linearGradient>
    <linearGradient
       inkscape:collect="always"
       xlink:href="#linearGradient1"
       id="linearGradient2"
       x1="232.4884"
       y1="23.847498"
       x2="23.977745"
       y2="232.35815"
       gradientUnits="userSpaceOnUse" />
  </defs>
  <defs
     id="defs2" />
  <sodipodi:namedview
     id="namedview2"
     pagecolor="#ffffff"
     bordercolor="#000000"
     borderopacity="0.25"
     inkscape:showpageshadow="2"
     inkscape:pageopacity="0.0"
     inkscape:pagecheckerboard="0"
     inkscape:deskcolor="#d1d1d1" />
  <path
     id="polyline1"
     style="baseline-shift:baseline;display:inline;overflow:visible;vector-effect:none;fill:url(#linearGradient2);stroke-linecap:round;stroke-linejoin:round;enable-background:accumulate;stop-color:#000000;stop-opacity:1;opacity:1;fill-opacity:1"
     d="M 130.29102 24.03125 C 102.44912 23.430819 74.902247 34.02744 54.464844 54.464844 C 24.737711 84.191976 15.830398 128.9585 31.917969 167.79883 C 48.005567 206.63923 85.958923 232 128 232 A 8 8 0 0 0 136 224 A 8 8 0 0 0 128 216 C 92.38441 216 60.327858 194.58145 46.699219 161.67773 C 33.070612 128.77409 40.593157 90.961531 65.777344 65.777344 C 90.961531 40.593157 128.77409 33.070612 161.67773 46.699219 C 194.58145 60.327858 216 92.38441 216 128 A 8 8 0 0 0 224 136 A 8 8 0 0 0 232 128 C 232 85.958923 206.63923 48.005567 167.79883 31.917969 C 155.66122 26.890603 142.94642 24.304173 130.29102 24.03125 z M 128 64 A 8 8 0 0 0 120 72 L 120 128 A 8.0008 8.0008 0 0 0 131.57812 135.15625 L 179.57812 111.15625 A 8 8 0 0 0 183.15625 100.42188 A 8 8 0 0 0 172.42188 96.84375 L 136 115.05469 L 136 72 A 8 8 0 0 0 128 64 z M 192 144 C 174.42165 144 160 158.42165 160 176 C 160 184.7947 163.6108 192.79993 169.41992 198.60352 C 161.09873 203.95656 154.86185 212.19569 152.26953 221.94336 A 8 8 0 0 0 157.94336 231.73047 A 8 8 0 0 0 167.73047 226.05664 C 170.45264 215.82068 180.13247 208 192 208 C 203.86753 208 213.54736 215.82068 216.26953 226.05664 A 8 8 0 0 0 226.05664 231.73047 A 8 8 0 0 0 231.73047 221.94336 C 229.13815 212.19569 222.90127 203.95656 214.58008 198.60352 C 220.3892 192.79993 224 184.7947 224 176 C 224 158.42165 209.57835 144 192 144 z M 192 160 C 200.93131 160 208 167.06869 208 176 C 208 184.93131 200.93131 192 192 192 C 183.06869 192 176 184.93131 176 176 C 176 167.06869 183.06869 160 192 160 z " />
</svg>
