<?xml version="1.0" encoding="UTF-8" standalone="no"?>
<svg
   viewBox="0 0 256 256"
   version="1.1"
   id="svg2"
   sodipodi:docname="cloud x blue_purple.svg"
   xmlns:inkscape="http://www.inkscape.org/namespaces/inkscape"
   xmlns:sodipodi="http://sodipodi.sourceforge.net/DTD/sodipodi-0.dtd"
   xmlns:xlink="http://www.w3.org/1999/xlink"
   xmlns="http://www.w3.org/2000/svg"
   xmlns:svg="http://www.w3.org/2000/svg">
  <defs
     id="defs3">
    <linearGradient
       id="linearGradient1"
       inkscape:collect="always">
      <stop
         style="stop-color:#a03291;stop-opacity:1;"
         offset="0"
         id="stop1" />
      <stop
         style="stop-color:#4b4fe2ff;stop-opacity:1;"
         offset="0.76340693"
         id="stop2" />
    </linearGradient>
    <linearGradient
       inkscape:collect="always"
       xlink:href="#linearGradient1"
       id="linearGradient2"
       x1="232.4884"
       y1="23.847498"
       x2="23.977745"
       y2="232.35815"
       gradientUnits="userSpaceOnUse" />
  </defs>
  <defs
     id="defs2" />
  <sodipodi:namedview
     id="namedview2"
     pagecolor="#ffffff"
     bordercolor="#000000"
     borderopacity="0.25"
     inkscape:showpageshadow="2"
     inkscape:pageopacity="0.0"
     inkscape:pagecheckerboard="0"
     inkscape:deskcolor="#d1d1d1" />
  <path
     id="path1"
     style="baseline-shift:baseline;display:inline;overflow:visible;vector-effect:none;fill:url(#linearGradient2);stroke-linecap:round;stroke-linejoin:round;enable-background:accumulate;stop-color:#000000;stop-opacity:1;opacity:1;fill-opacity:1"
     d="M 164.47656 40.123047 C 151.67683 39.465437 138.64734 41.59501 126.32422 46.699219 C 106.35126 54.97197 90.684027 70.136959 81.392578 88.703125 C 46.48109 83.537904 13.096154 108.15076 8.5722656 143.98438 C 3.7678049 182.0404 33.632095 215.95268 71.990234 216 A 8.0008 8.0008 0 0 0 72 216 L 160 216 C 195.56969 216 227.68954 194.5375 241.30078 161.67578 C 254.912 128.81411 247.37385 90.928533 222.22266 65.777344 C 206.50316 50.05785 185.80945 41.219063 164.47656 40.123047 z M 163.66992 56.085938 C 181.11601 56.977398 198.02805 64.211645 210.9082 77.091797 C 231.51645 97.70004 237.67179 128.62971 226.51953 155.55469 C 215.36724 182.47973 189.1442 200 160 200 L 72.009766 200 L 72 200 C 42.995429 199.9585 20.81417 174.76595 24.447266 145.98828 C 27.711832 120.12973 50.452841 102.32159 75.421875 104.16211 C 73.261695 111.81465 72 119.79559 72 128 A 8 8 0 0 0 80 136 A 8 8 0 0 0 88 128 C 88 98.855799 105.52027 72.632755 132.44531 61.480469 C 142.54218 57.298372 153.20227 55.55106 163.66992 56.085938 z M 136 104 A 8 8 0 0 0 130.34375 106.34375 A 8 8 0 0 0 130.34375 117.65625 L 148.6875 136 L 130.34375 154.34375 A 8 8 0 0 0 130.34375 165.65625 A 8 8 0 0 0 141.65625 165.65625 L 160 147.3125 L 178.34375 165.65625 A 8 8 0 0 0 189.65625 165.65625 A 8 8 0 0 0 189.65625 154.34375 L 171.3125 136 L 189.65625 117.65625 A 8 8 0 0 0 189.65625 106.34375 A 8 8 0 0 0 184 104 A 8 8 0 0 0 178.34375 106.34375 L 160 124.6875 L 141.65625 106.34375 A 8 8 0 0 0 136 104 z " />
</svg>
