<?xml version="1.0" encoding="UTF-8" standalone="no"?>
<svg
   viewBox="0 0 256 256"
   version="1.1"
   id="svg3"
   sodipodi:docname="contactless payment blue_purple.svg"
   xmlns:inkscape="http://www.inkscape.org/namespaces/inkscape"
   xmlns:sodipodi="http://sodipodi.sourceforge.net/DTD/sodipodi-0.dtd"
   xmlns:xlink="http://www.w3.org/1999/xlink"
   xmlns="http://www.w3.org/2000/svg"
   xmlns:svg="http://www.w3.org/2000/svg">
  <defs
     id="defs3">
    <linearGradient
       id="linearGradient1"
       inkscape:collect="always">
      <stop
         style="stop-color:#a03291;stop-opacity:1;"
         offset="0"
         id="stop1" />
      <stop
         style="stop-color:#4b4fe2ff;stop-opacity:1;"
         offset="0.76340693"
         id="stop2" />
    </linearGradient>
    <linearGradient
       inkscape:collect="always"
       xlink:href="#linearGradient1"
       id="linearGradient2"
       x1="232.4884"
       y1="23.847498"
       x2="23.977745"
       y2="232.35815"
       gradientUnits="userSpaceOnUse" />
  </defs>
  <defs
     id="defs1" />
  <sodipodi:namedview
     id="namedview3"
     pagecolor="#ffffff"
     bordercolor="#000000"
     borderopacity="0.25"
     inkscape:showpageshadow="2"
     inkscape:pageopacity="0.0"
     inkscape:pagecheckerboard="0"
     inkscape:deskcolor="#d1d1d1" />
  <path
     id="circle1"
     style="baseline-shift:baseline;display:inline;overflow:visible;vector-effect:none;fill:url(#linearGradient2);stroke-linecap:round;stroke-linejoin:round;enable-background:accumulate;stop-color:#000000;stop-opacity:1;opacity:1;fill-opacity:1"
     d="M 128 24 C 70.657143 24 24 70.657143 24 128 C 24 185.34286 70.657143 232 128 232 C 185.34286 232 232 185.34286 232 128 C 232 70.657143 185.34286 24 128 24 z M 128 40 C 176.69582 40 216 79.304185 216 128 C 216 176.69582 176.69582 216 128 216 C 79.304185 216 40 176.69582 40 128 C 40 79.304185 79.304185 40 128 40 z M 146.26953 64.003906 A 8 8 0 0 0 142.23438 64.941406 A 8 8 0 0 0 138.94141 75.765625 C 156.35751 108.42083 156.35751 147.57917 138.94141 180.23438 A 8 8 0 0 0 142.23438 191.05859 A 8 8 0 0 0 153.05859 187.76562 C 172.97582 150.42084 172.97582 105.57917 153.05859 68.234375 A 8 8 0 0 0 148.33008 64.345703 A 8 8 0 0 0 146.26953 64.003906 z M 118.26953 80.003906 A 8 8 0 0 0 114.23438 80.941406 A 8 8 0 0 0 110.94141 91.765625 C 123.02418 114.42083 123.02418 141.57917 110.94141 164.23438 A 8 8 0 0 0 114.23438 175.05859 A 8 8 0 0 0 125.05859 171.76562 C 139.64249 144.42084 139.64249 111.57917 125.05859 84.234375 A 8 8 0 0 0 120.33008 80.345703 A 8 8 0 0 0 118.26953 80.003906 z M 90.269531 96.003906 A 8 8 0 0 0 86.234375 96.941406 A 8 8 0 0 0 82.941406 107.76562 C 89.690847 120.42083 89.690847 135.57918 82.941406 148.23438 A 8 8 0 0 0 86.234375 159.05859 A 8 8 0 0 0 97.058594 155.76562 C 106.30915 138.42084 106.30915 117.57916 97.058594 100.23438 A 8 8 0 0 0 92.330078 96.345703 A 8 8 0 0 0 90.269531 96.003906 z " />
</svg>
