<?xml version="1.0" encoding="UTF-8" standalone="no"?>
<svg
   viewBox="0 0 256 256"
   version="1.1"
   id="svg4"
   sodipodi:docname="corners out blue_purple.svg"
   xmlns:inkscape="http://www.inkscape.org/namespaces/inkscape"
   xmlns:sodipodi="http://sodipodi.sourceforge.net/DTD/sodipodi-0.dtd"
   xmlns:xlink="http://www.w3.org/1999/xlink"
   xmlns="http://www.w3.org/2000/svg"
   xmlns:svg="http://www.w3.org/2000/svg">
  <defs
     id="defs3">
    <linearGradient
       id="linearGradient1"
       inkscape:collect="always">
      <stop
         style="stop-color:#a03291;stop-opacity:1;"
         offset="0"
         id="stop1" />
      <stop
         style="stop-color:#4b4fe2ff;stop-opacity:1;"
         offset="0.76340693"
         id="stop2" />
    </linearGradient>
    <linearGradient
       inkscape:collect="always"
       xlink:href="#linearGradient1"
       id="linearGradient2"
       x1="232.4884"
       y1="23.847498"
       x2="23.977745"
       y2="232.35815"
       gradientUnits="userSpaceOnUse" />
  </defs>
  <defs
     id="defs4" />
  <sodipodi:namedview
     id="namedview4"
     pagecolor="#ffffff"
     bordercolor="#000000"
     borderopacity="0.25"
     inkscape:showpageshadow="2"
     inkscape:pageopacity="0.0"
     inkscape:pagecheckerboard="0"
     inkscape:deskcolor="#d1d1d1" />
  <path
     id="polyline1"
     style="baseline-shift:baseline;display:inline;overflow:visible;vector-effect:none;fill:url(#linearGradient2);stroke-linecap:round;stroke-linejoin:round;enable-background:accumulate;stop-color:#000000;stop-opacity:1;opacity:1;fill-opacity:1"
     d="M 48 40 A 8.0008 8.0008 0 0 0 40 48 L 40 88 A 8 8 0 0 0 48 96 A 8 8 0 0 0 56 88 L 56 56 L 88 56 A 8 8 0 0 0 96 48 A 8 8 0 0 0 88 40 L 48 40 z M 168 40 A 8 8 0 0 0 160 48 A 8 8 0 0 0 168 56 L 200 56 L 200 88 A 8 8 0 0 0 208 96 A 8 8 0 0 0 216 88 L 216 48 A 8.0008 8.0008 0 0 0 208 40 L 168 40 z M 48 160 A 8 8 0 0 0 40 168 L 40 208 A 8.0008 8.0008 0 0 0 48 216 L 88 216 A 8 8 0 0 0 96 208 A 8 8 0 0 0 88 200 L 56 200 L 56 168 A 8 8 0 0 0 48 160 z M 208 160 A 8 8 0 0 0 200 168 L 200 200 L 168 200 A 8 8 0 0 0 160 208 A 8 8 0 0 0 168 216 L 208 216 A 8.0008 8.0008 0 0 0 216 208 L 216 168 A 8 8 0 0 0 208 160 z " />
</svg>
