<?xml version="1.0" encoding="UTF-8" standalone="no"?>
<svg
   viewBox="0 0 256 256"
   version="1.1"
   id="svg2"
   sodipodi:docname="crane blue_purple.svg"
   xmlns:inkscape="http://www.inkscape.org/namespaces/inkscape"
   xmlns:sodipodi="http://sodipodi.sourceforge.net/DTD/sodipodi-0.dtd"
   xmlns:xlink="http://www.w3.org/1999/xlink"
   xmlns="http://www.w3.org/2000/svg"
   xmlns:svg="http://www.w3.org/2000/svg">
  <defs
     id="defs3">
    <linearGradient
       id="linearGradient1"
       inkscape:collect="always">
      <stop
         style="stop-color:#a03291;stop-opacity:1;"
         offset="0"
         id="stop1" />
      <stop
         style="stop-color:#4b4fe2ff;stop-opacity:1;"
         offset="0.76340693"
         id="stop2" />
    </linearGradient>
    <linearGradient
       inkscape:collect="always"
       xlink:href="#linearGradient1"
       id="linearGradient2"
       x1="232.4884"
       y1="23.847498"
       x2="23.977745"
       y2="232.35815"
       gradientUnits="userSpaceOnUse" />
  </defs>
  <defs
     id="defs2" />
  <sodipodi:namedview
     id="namedview2"
     pagecolor="#ffffff"
     bordercolor="#000000"
     borderopacity="0.25"
     inkscape:showpageshadow="2"
     inkscape:pageopacity="0.0"
     inkscape:pagecheckerboard="0"
     inkscape:deskcolor="#d1d1d1" />
  <path
     id="line1"
     style="baseline-shift:baseline;display:inline;overflow:visible;vector-effect:none;fill:url(#linearGradient2);stroke-linecap:round;stroke-linejoin:round;enable-background:accumulate;stop-color:#000000;stop-opacity:1;opacity:1;fill-opacity:1"
     d="M 224.47461 16.015625 A 8.0008 8.0008 0 0 0 220.23438 16.941406 L 102 80 L 32 80 C 23.258201 80 16 87.258201 16 96 L 16 200 C 16 208.7418 23.258201 216 32 216 L 120 216 C 128.7418 216 136 208.7418 136 200 L 136 168 A 8.0008 8.0008 0 0 0 135.95898 167.19531 A 8 8 0 0 0 135.94531 167.10938 A 8.0008 8.0008 0 0 0 135.8418 166.42383 A 8 8 0 0 0 135.77344 166.14844 A 8.0008 8.0008 0 0 0 135.66211 165.70117 L 113.54492 91.976562 L 216 37.333984 L 216 160 L 200 160 L 200 152 A 8 8 0 0 0 192 144 A 8 8 0 0 0 184 152 L 184 160 C 184 168.7418 191.2582 176 200 176 L 216 176 C 224.7418 176 232 168.7418 232 160 L 232 24 A 8.0008 8.0008 0 0 0 225.56445 16.15625 A 8.0008 8.0008 0 0 0 224.47461 16.015625 z M 32 96 L 48 96 L 48 160 L 32 160 L 32 96 z M 64 96 L 98.046875 96 L 117.24805 160 L 64 160 L 64 96 z M 32 176 L 120 176 L 120 200 L 32 200 L 32 176 z " />
</svg>
