<?xml version="1.0" encoding="UTF-8" standalone="no"?>
<svg
   viewBox="0 0 256 256"
   version="1.1"
   id="svg2"
   sodipodi:docname="crown cross blue_purple.svg"
   xmlns:inkscape="http://www.inkscape.org/namespaces/inkscape"
   xmlns:sodipodi="http://sodipodi.sourceforge.net/DTD/sodipodi-0.dtd"
   xmlns:xlink="http://www.w3.org/1999/xlink"
   xmlns="http://www.w3.org/2000/svg"
   xmlns:svg="http://www.w3.org/2000/svg">
  <defs
     id="defs3">
    <linearGradient
       id="linearGradient1"
       inkscape:collect="always">
      <stop
         style="stop-color:#a03291;stop-opacity:1;"
         offset="0"
         id="stop1" />
      <stop
         style="stop-color:#4b4fe2ff;stop-opacity:1;"
         offset="0.76340693"
         id="stop2" />
    </linearGradient>
    <linearGradient
       inkscape:collect="always"
       xlink:href="#linearGradient1"
       id="linearGradient2"
       x1="232.4884"
       y1="23.847498"
       x2="23.977745"
       y2="232.35815"
       gradientUnits="userSpaceOnUse" />
  </defs>
  <defs
     id="defs2" />
  <sodipodi:namedview
     id="namedview2"
     pagecolor="#ffffff"
     bordercolor="#000000"
     borderopacity="0.25"
     inkscape:showpageshadow="2"
     inkscape:pageopacity="0.0"
     inkscape:pagecheckerboard="0"
     inkscape:deskcolor="#d1d1d1" />
  <path
     id="line1"
     style="baseline-shift:baseline;display:inline;overflow:visible;vector-effect:none;fill:url(#linearGradient2);stroke-linecap:round;stroke-linejoin:round;enable-background:accumulate;stop-color:#000000;stop-opacity:1;opacity:1;fill-opacity:1"
     d="M 128 0 A 8 8 0 0 0 120 8 L 120 24 L 104 24 A 8 8 0 0 0 96 32 A 8 8 0 0 0 104 40 L 120 40 L 120 73.443359 C 108.91453 62.461184 93.114272 56 76 56 C 42.957672 56 16 82.957672 16 116 C 16 163.60567 51.756971 183.54815 64 189.09766 L 64 208 C 64 216.7418 71.258201 224 80 224 L 176 224 C 184.7418 224 192 216.7418 192 208 L 192 189.09766 C 204.24303 183.54815 240 163.60567 240 116 C 240 82.957672 213.04233 56 180 56 C 162.88573 56 147.08547 62.461184 136 73.443359 L 136 40 L 152 40 A 8 8 0 0 0 160 32 A 8 8 0 0 0 152 24 L 136 24 L 136 8 A 8 8 0 0 0 128 0 z M 76 72 C 101.13968 72 120 87.60312 120 112 L 120 176 A 8 8 0 0 0 128 184 A 8 8 0 0 0 136 176 L 136 112 C 136 87.60312 154.86032 72 180 72 C 204.39529 72 224 91.604714 224 116 C 224 163.07692 181.4707 176.41016 181.4707 176.41016 A 8.0008 8.0008 0 0 0 176 184 L 176 208 L 80 208 L 80 184 A 8.0008 8.0008 0 0 0 74.529297 176.41016 C 74.529297 176.41016 32 163.07692 32 116 C 32 91.604714 51.604714 72 76 72 z " />
</svg>
