<?xml version="1.0" encoding="UTF-8" standalone="no"?>
<svg
   viewBox="0 0 256 256"
   version="1.1"
   id="svg4"
   sodipodi:docname="crown blue_purple.svg"
   xmlns:inkscape="http://www.inkscape.org/namespaces/inkscape"
   xmlns:sodipodi="http://sodipodi.sourceforge.net/DTD/sodipodi-0.dtd"
   xmlns:xlink="http://www.w3.org/1999/xlink"
   xmlns="http://www.w3.org/2000/svg"
   xmlns:svg="http://www.w3.org/2000/svg">
  <defs
     id="defs3">
    <linearGradient
       id="linearGradient1"
       inkscape:collect="always">
      <stop
         style="stop-color:#a03291;stop-opacity:1;"
         offset="0"
         id="stop1" />
      <stop
         style="stop-color:#4b4fe2ff;stop-opacity:1;"
         offset="0.76340693"
         id="stop2" />
    </linearGradient>
    <linearGradient
       inkscape:collect="always"
       xlink:href="#linearGradient1"
       id="linearGradient2"
       x1="232.4884"
       y1="23.847498"
       x2="23.977745"
       y2="232.35815"
       gradientUnits="userSpaceOnUse" />
  </defs>
  <defs
     id="defs4" />
  <sodipodi:namedview
     id="namedview4"
     pagecolor="#ffffff"
     bordercolor="#000000"
     borderopacity="0.25"
     inkscape:showpageshadow="2"
     inkscape:pageopacity="0.0"
     inkscape:pagecheckerboard="0"
     inkscape:deskcolor="#d1d1d1" />
  <path
     id="circle1"
     style="baseline-shift:baseline;display:inline;overflow:visible;vector-effect:none;fill:url(#linearGradient2);stroke-linecap:round;stroke-linejoin:round;enable-background:accumulate;stop-color:#000000;stop-opacity:1;opacity:1;fill-opacity:1"
     d="M 128 24 C 112.63078 24 100 36.630784 100 52 C 100 60.53127 103.89265 68.219313 109.98438 73.371094 L 85.910156 128.74219 L 59.101562 95.746094 C 62.187739 91.248218 64 85.820924 64 80 C 64 64.630784 51.369216 52 36 52 C 20.630784 52 8 64.630784 8 80 C 8 94.192142 18.770251 106.04831 32.521484 107.78125 L 46.998047 194.63477 A 8.0008 8.0008 0 0 0 47 194.64062 C 48.280845 202.29692 55.016601 207.99966 62.779297 208 L 193.2207 208 C 200.9834 207.99966 207.71916 202.29692 209 194.64062 A 8.0008 8.0008 0 0 0 209.00195 194.63477 L 223.47852 107.78125 C 237.22973 106.04829 248 94.192126 248 80 C 248 64.630784 235.36922 52 220 52 C 204.63078 52 192 64.630784 192 80 C 192 85.820924 193.81226 91.248218 196.89844 95.746094 L 170.08984 128.74219 L 146.01562 73.371094 C 152.10735 68.219313 156 60.53127 156 52 C 156 36.630784 143.36922 24 128 24 z M 128 40 C 134.72217 40 140 45.277826 140 52 C 140 56.832089 137.27258 60.918389 133.24219 62.833984 A 8 8 0 0 0 132.79102 63.013672 A 8 8 0 0 0 132.41406 63.189453 C 131.05341 63.713752 129.56585 64 128 64 C 126.43415 64 124.94659 63.713752 123.58594 63.189453 A 8 8 0 0 0 123.20898 63.013672 A 8 8 0 0 0 122.75781 62.833984 C 118.72742 60.918389 116 56.832089 116 52 C 116 45.277826 121.27783 40 128 40 z M 36 68 C 42.722174 68 48 73.277826 48 80 C 48 83.552791 46.52516 86.702868 44.142578 88.882812 A 8 8 0 0 0 43.564453 89.310547 A 8 8 0 0 0 43.042969 89.773438 C 41.641537 90.775576 40.007819 91.480485 38.224609 91.802734 A 8 8 0 0 0 37.974609 91.839844 A 8 8 0 0 0 37.792969 91.873047 C 37.209074 91.957267 36.610602 92 36 92 C 29.277826 92 24 86.722174 24 80 C 24 73.277826 29.277826 68 36 68 z M 220 68 C 226.72217 68 232 73.277826 232 80 C 232 86.722174 226.72217 92 220 92 C 219.38947 92 218.79086 91.957248 218.20703 91.873047 A 8 8 0 0 0 218.02539 91.839844 A 8 8 0 0 0 217.77539 91.802734 C 215.99224 91.480474 214.35843 90.775549 212.95703 89.773438 A 8 8 0 0 0 212.43555 89.310547 A 8 8 0 0 0 211.85742 88.882812 C 209.47484 86.702868 208 83.552788 208 80 C 208 73.277826 213.27783 68 220 68 z M 124.63672 79.796875 C 125.7401 79.931214 126.86261 80 128 80 C 129.13739 80 130.2599 79.931214 131.36328 79.796875 L 160.66406 147.18945 A 8.0008 8.0008 0 0 0 174.20898 149.04492 L 207.13281 108.52148 L 193.21875 192 L 62.78125 192 L 48.867188 108.52148 L 81.791016 149.04492 A 8.0008 8.0008 0 0 0 95.335938 147.18945 L 124.63672 79.796875 z " />
</svg>
