<?xml version="1.0" encoding="UTF-8" standalone="no"?>
<svg
   viewBox="0 0 256 256"
   version="1.1"
   id="svg5"
   sodipodi:docname="cube focus blue_purple.svg"
   xmlns:inkscape="http://www.inkscape.org/namespaces/inkscape"
   xmlns:sodipodi="http://sodipodi.sourceforge.net/DTD/sodipodi-0.dtd"
   xmlns:xlink="http://www.w3.org/1999/xlink"
   xmlns="http://www.w3.org/2000/svg"
   xmlns:svg="http://www.w3.org/2000/svg">
  <defs
     id="defs3">
    <linearGradient
       id="linearGradient1"
       inkscape:collect="always">
      <stop
         style="stop-color:#a03291;stop-opacity:1;"
         offset="0"
         id="stop1" />
      <stop
         style="stop-color:#4b4fe2ff;stop-opacity:1;"
         offset="0.76340693"
         id="stop2" />
    </linearGradient>
    <linearGradient
       inkscape:collect="always"
       xlink:href="#linearGradient1"
       id="linearGradient2"
       x1="232.4884"
       y1="23.847498"
       x2="23.977745"
       y2="232.35815"
       gradientUnits="userSpaceOnUse" />
  </defs>
  <defs
     id="defs5" />
  <sodipodi:namedview
     id="namedview5"
     pagecolor="#ffffff"
     bordercolor="#000000"
     borderopacity="0.25"
     inkscape:showpageshadow="2"
     inkscape:pageopacity="0.0"
     inkscape:pagecheckerboard="0"
     inkscape:deskcolor="#d1d1d1" />
  <path
     id="polyline1"
     style="baseline-shift:baseline;display:inline;overflow:visible;vector-effect:none;fill:url(#linearGradient2);stroke-linecap:round;stroke-linejoin:round;enable-background:accumulate;stop-color:#000000;stop-opacity:1;opacity:1;fill-opacity:1"
     d="M 32 40 A 8.0008 8.0008 0 0 0 24 48 L 24 88 A 8 8 0 0 0 32 96 A 8 8 0 0 0 40 88 L 40 56 L 72 56 A 8 8 0 0 0 80 48 A 8 8 0 0 0 72 40 L 32 40 z M 184 40 A 8 8 0 0 0 176 48 A 8 8 0 0 0 184 56 L 216 56 L 216 88 A 8 8 0 0 0 224 96 A 8 8 0 0 0 232 88 L 232 48 A 8.0008 8.0008 0 0 0 224 40 L 184 40 z M 128 56 A 8.0008 8.0008 0 0 0 124.03125 57.054688 L 68.150391 88.986328 A 8 8 0 0 0 68.130859 88.998047 L 68.03125 89.054688 A 8.0008 8.0008 0 0 0 67.615234 89.330078 A 8 8 0 0 0 67.185547 89.613281 A 8.0008 8.0008 0 0 0 66.740234 89.994141 A 8 8 0 0 0 66.369141 90.320312 A 8.0008 8.0008 0 0 0 65.667969 91.113281 A 8 8 0 0 0 65.470703 91.40625 A 8.0008 8.0008 0 0 0 65.070312 92.007812 A 8 8 0 0 0 65.054688 92.03125 A 8 8 0 0 0 64.814453 92.525391 A 8.0008 8.0008 0 0 0 64.607422 92.949219 A 8 8 0 0 0 64.414062 93.513672 A 8.0008 8.0008 0 0 0 64.271484 93.941406 A 8 8 0 0 0 64.175781 94.414062 A 8.0008 8.0008 0 0 0 64.066406 94.980469 A 8 8 0 0 0 64.048828 95.244141 A 8.0008 8.0008 0 0 0 64 96 L 64 160 A 8.0008 8.0008 0 0 0 68.03125 166.94531 L 123.92969 198.88672 A 8 8 0 0 0 123.94922 198.89844 L 124.03125 198.94531 A 8.0008 8.0008 0 0 0 124.49023 199.16992 A 8 8 0 0 0 124.92383 199.38086 A 8.0008 8.0008 0 0 0 125.4082 199.54883 A 8 8 0 0 0 125.93945 199.72852 A 8.0008 8.0008 0 0 0 126.17969 199.77539 A 8 8 0 0 0 126.96289 199.93164 A 8 8 0 0 0 126.96484 199.93164 A 8.0008 8.0008 0 0 0 129.03711 199.93164 A 8 8 0 0 0 129.82031 199.77539 A 8 8 0 0 0 130.06055 199.72852 A 8 8 0 0 0 130.5918 199.54883 A 8.0008 8.0008 0 0 0 131.07617 199.38086 A 8 8 0 0 0 131.50977 199.16992 A 8.0008 8.0008 0 0 0 131.96875 198.94531 L 132.05078 198.89844 L 132.07031 198.88672 L 187.96875 166.94531 A 8.0008 8.0008 0 0 0 192 160 L 192 96 A 8.0008 8.0008 0 0 0 191.95117 95.244141 A 8 8 0 0 0 191.93359 94.980469 A 8.0008 8.0008 0 0 0 191.82422 94.414062 A 8 8 0 0 0 191.72852 93.941406 A 8.0008 8.0008 0 0 0 191.58594 93.513672 A 8 8 0 0 0 191.39258 92.949219 A 8.0008 8.0008 0 0 0 191.18555 92.525391 A 8 8 0 0 0 190.94531 92.03125 A 8 8 0 0 0 190.92969 92.005859 A 8.0008 8.0008 0 0 0 190.67969 91.630859 A 8 8 0 0 0 190.3457 91.132812 A 8.0008 8.0008 0 0 0 190.05664 90.800781 A 8 8 0 0 0 189.6582 90.347656 A 8.0008 8.0008 0 0 0 189.25977 89.996094 A 8 8 0 0 0 188.87305 89.658203 A 8.0008 8.0008 0 0 0 188.4668 89.384766 A 8 8 0 0 0 187.99414 89.070312 A 8.0008 8.0008 0 0 0 187.96875 89.054688 L 131.96875 57.054688 A 8.0008 8.0008 0 0 0 128 56 z M 128 73.212891 L 167.87695 96 L 128 118.78516 L 88.123047 96 L 128 73.212891 z M 80 109.78516 L 120 132.64258 L 120 178.21484 L 80 155.35742 L 80 109.78516 z M 176 109.78516 L 176 155.35742 L 136 178.21484 L 136 132.64258 L 176 109.78516 z M 32 160 A 8 8 0 0 0 24 168 L 24 208 A 8.0008 8.0008 0 0 0 32 216 L 72 216 A 8 8 0 0 0 80 208 A 8 8 0 0 0 72 200 L 40 200 L 40 168 A 8 8 0 0 0 32 160 z M 224 160 A 8 8 0 0 0 216 168 L 216 200 L 184 200 A 8 8 0 0 0 176 208 A 8 8 0 0 0 184 216 L 224 216 A 8.0008 8.0008 0 0 0 232 208 L 232 168 A 8 8 0 0 0 224 160 z " />
</svg>
