<?xml version="1.0" encoding="UTF-8" standalone="no"?>
<svg
   viewBox="0 0 256 256"
   version="1.1"
   id="svg2"
   sodipodi:docname="currency eur blue_purple.svg"
   xmlns:inkscape="http://www.inkscape.org/namespaces/inkscape"
   xmlns:sodipodi="http://sodipodi.sourceforge.net/DTD/sodipodi-0.dtd"
   xmlns:xlink="http://www.w3.org/1999/xlink"
   xmlns="http://www.w3.org/2000/svg"
   xmlns:svg="http://www.w3.org/2000/svg">
  <defs
     id="defs3">
    <linearGradient
       id="linearGradient1"
       inkscape:collect="always">
      <stop
         style="stop-color:#a03291;stop-opacity:1;"
         offset="0"
         id="stop1" />
      <stop
         style="stop-color:#4b4fe2ff;stop-opacity:1;"
         offset="0.76340693"
         id="stop2" />
    </linearGradient>
    <linearGradient
       inkscape:collect="always"
       xlink:href="#linearGradient1"
       id="linearGradient2"
       x1="232.4884"
       y1="23.847498"
       x2="23.977745"
       y2="232.35815"
       gradientUnits="userSpaceOnUse" />
  </defs>
  <defs
     id="defs2" />
  <sodipodi:namedview
     id="namedview2"
     pagecolor="#ffffff"
     bordercolor="#000000"
     borderopacity="0.25"
     inkscape:showpageshadow="2"
     inkscape:pageopacity="0.0"
     inkscape:pagecheckerboard="0"
     inkscape:deskcolor="#d1d1d1" />
  <path
     id="line1"
     style="baseline-shift:baseline;display:inline;overflow:visible;vector-effect:none;fill:url(#linearGradient2);stroke-linecap:round;stroke-linejoin:round;enable-background:accumulate;stop-color:#000000;stop-opacity:1;opacity:1;fill-opacity:1"
     d="M 137 32.007812 C 125.61842 31.861517 114.13081 34.139664 103.33789 38.966797 C 77.012749 50.740717 59.240457 75.69965 56.400391 104 L 40 104 A 8 8 0 0 0 32 112 A 8 8 0 0 0 40 120 L 56 120 L 56 136 L 40 136 A 8 8 0 0 0 32 144 A 8 8 0 0 0 40 152 L 56.400391 152 C 59.240465 180.30035 77.012749 205.25929 103.33789 217.0332 C 132.11901 229.90556 165.83398 224.65185 189.33398 203.63281 A 8 8 0 0 0 189.96289 192.33594 A 8 8 0 0 0 178.66602 191.70703 C 159.83862 208.54676 132.92953 212.74062 109.87109 202.42773 C 89.275755 193.21647 75.256815 173.99926 72.498047 152 L 120 152 A 8 8 0 0 0 128 144 A 8 8 0 0 0 120 136 L 72 136 L 72 120 L 136 120 A 8 8 0 0 0 144 112 A 8 8 0 0 0 136 104 L 72.498047 104 C 75.256833 82.000738 89.275755 62.783534 109.87109 53.572266 C 132.92953 43.259378 159.83862 47.453237 178.66602 64.292969 A 8 8 0 0 0 189.96289 63.664062 A 8 8 0 0 0 189.33398 52.367188 C 174.64648 39.230286 155.9693 32.251643 137 32.007812 z " />
</svg>
