<?xml version="1.0" encoding="UTF-8" standalone="no"?>
<svg
   viewBox="0 0 256 256"
   version="1.1"
   id="svg4"
   sodipodi:docname="desktop tower blue_purple.svg"
   xmlns:inkscape="http://www.inkscape.org/namespaces/inkscape"
   xmlns:sodipodi="http://sodipodi.sourceforge.net/DTD/sodipodi-0.dtd"
   xmlns:xlink="http://www.w3.org/1999/xlink"
   xmlns="http://www.w3.org/2000/svg"
   xmlns:svg="http://www.w3.org/2000/svg">
  <defs
     id="defs3">
    <linearGradient
       id="linearGradient1"
       inkscape:collect="always">
      <stop
         style="stop-color:#a03291;stop-opacity:1;"
         offset="0"
         id="stop1" />
      <stop
         style="stop-color:#4b4fe2ff;stop-opacity:1;"
         offset="0.76340693"
         id="stop2" />
    </linearGradient>
    <linearGradient
       inkscape:collect="always"
       xlink:href="#linearGradient1"
       id="linearGradient2"
       x1="232.4884"
       y1="23.847498"
       x2="23.977745"
       y2="232.35815"
       gradientUnits="userSpaceOnUse" />
  </defs>
  <defs
     id="defs4" />
  <sodipodi:namedview
     id="namedview4"
     pagecolor="#ffffff"
     bordercolor="#000000"
     borderopacity="0.25"
     inkscape:showpageshadow="2"
     inkscape:pageopacity="0.0"
     inkscape:pagecheckerboard="0"
     inkscape:deskcolor="#d1d1d1" />
  <path
     id="path1"
     style="baseline-shift:baseline;display:inline;overflow:visible;vector-effect:none;fill:url(#linearGradient2);stroke-linecap:round;stroke-linejoin:round;enable-background:accumulate;stop-color:#000000;stop-opacity:1;opacity:1;fill-opacity:1"
     d="M 152 32 C 143.27438 32 136 39.274378 136 48 L 136 72 L 32 72 C 18.839923 72 8 82.839923 8 96 L 8 168 C 8 181.16008 18.839923 192 32 192 L 80 192 L 80 208 L 64 208 A 8 8 0 0 0 56 216 A 8 8 0 0 0 64 224 L 112 224 A 8 8 0 0 0 120 216 A 8 8 0 0 0 112 208 L 96 208 L 96 192 L 136 192 L 136 208 C 136 216.72562 143.27438 224 152 224 L 232 224 C 240.72562 224 248 216.72562 248 208 L 248 48 C 248 39.274378 240.72562 32 232 32 L 152 32 z M 152 48 L 232 48 L 232 208 L 152 208 L 152 48 z M 176 64 A 8 8 0 0 0 168 72 A 8 8 0 0 0 176 80 L 208 80 A 8 8 0 0 0 216 72 A 8 8 0 0 0 208 64 L 176 64 z M 32 88 L 136 88 L 136 176 L 32 176 C 27.486965 176 24 172.51304 24 168 L 24 96 C 24 91.486965 27.486965 88 32 88 z M 176 96 A 8 8 0 0 0 168 104 A 8 8 0 0 0 176 112 L 208 112 A 8 8 0 0 0 216 104 A 8 8 0 0 0 208 96 L 176 96 z M 192 168 A 12 12 0 0 0 180 180 A 12 12 0 0 0 192 192 A 12 12 0 0 0 204 180 A 12 12 0 0 0 192 168 z " />
</svg>
