<?xml version="1.0" encoding="UTF-8" standalone="no"?>
<svg
   viewBox="0 0 256 256"
   version="1.1"
   id="svg6"
   sodipodi:docname="dots six blue_purple.svg"
   xmlns:inkscape="http://www.inkscape.org/namespaces/inkscape"
   xmlns:sodipodi="http://sodipodi.sourceforge.net/DTD/sodipodi-0.dtd"
   xmlns:xlink="http://www.w3.org/1999/xlink"
   xmlns="http://www.w3.org/2000/svg"
   xmlns:svg="http://www.w3.org/2000/svg">
  <defs
     id="defs3">
    <linearGradient
       id="linearGradient1"
       inkscape:collect="always">
      <stop
         style="stop-color:#a03291;stop-opacity:1;"
         offset="0"
         id="stop1" />
      <stop
         style="stop-color:#4b4fe2ff;stop-opacity:1;"
         offset="0.76340693"
         id="stop2" />
    </linearGradient>
    <linearGradient
       inkscape:collect="always"
       xlink:href="#linearGradient1"
       id="linearGradient2"
       x1="232.4884"
       y1="23.847498"
       x2="23.977745"
       y2="232.35815"
       gradientUnits="userSpaceOnUse" />
  </defs>
  <defs
     id="defs6" />
  <sodipodi:namedview
     id="namedview6"
     pagecolor="#ffffff"
     bordercolor="#000000"
     borderopacity="0.25"
     inkscape:showpageshadow="2"
     inkscape:pageopacity="0.0"
     inkscape:pagecheckerboard="0"
     inkscape:deskcolor="#d1d1d1" />
  <path
     id="circle1"
     style="baseline-shift:baseline;display:inline;overflow:visible;vector-effect:none;fill:url(#linearGradient2);stroke-linecap:round;stroke-linejoin:round;enable-background:accumulate;stop-color:#000000;stop-opacity:1;opacity:1;fill-opacity:1"
     d="M 60 80 A 12 12 0 0 0 48 92 A 12 12 0 0 0 60 104 A 12 12 0 0 0 72 92 A 12 12 0 0 0 60 80 z M 128 80 A 12 12 0 0 0 116 92 A 12 12 0 0 0 128 104 A 12 12 0 0 0 140 92 A 12 12 0 0 0 128 80 z M 196 80 A 12 12 0 0 0 184 92 A 12 12 0 0 0 196 104 A 12 12 0 0 0 208 92 A 12 12 0 0 0 196 80 z M 60 152 A 12 12 0 0 0 48 164 A 12 12 0 0 0 60 176 A 12 12 0 0 0 72 164 A 12 12 0 0 0 60 152 z M 128 152 A 12 12 0 0 0 116 164 A 12 12 0 0 0 128 176 A 12 12 0 0 0 140 164 A 12 12 0 0 0 128 152 z M 196 152 A 12 12 0 0 0 184 164 A 12 12 0 0 0 196 176 A 12 12 0 0 0 208 164 A 12 12 0 0 0 196 152 z " />
</svg>
