<?xml version="1.0" encoding="UTF-8" standalone="no"?>
<svg
   viewBox="0 0 256 256"
   version="1.1"
   id="svg3"
   sodipodi:docname="dots three outline blue_purple.svg"
   xmlns:inkscape="http://www.inkscape.org/namespaces/inkscape"
   xmlns:sodipodi="http://sodipodi.sourceforge.net/DTD/sodipodi-0.dtd"
   xmlns:xlink="http://www.w3.org/1999/xlink"
   xmlns="http://www.w3.org/2000/svg"
   xmlns:svg="http://www.w3.org/2000/svg">
  <defs
     id="defs3">
    <linearGradient
       id="linearGradient1"
       inkscape:collect="always">
      <stop
         style="stop-color:#a03291;stop-opacity:1;"
         offset="0"
         id="stop1" />
      <stop
         style="stop-color:#4b4fe2ff;stop-opacity:1;"
         offset="0.76340693"
         id="stop2" />
    </linearGradient>
    <linearGradient
       inkscape:collect="always"
       xlink:href="#linearGradient1"
       id="linearGradient2"
       x1="232.4884"
       y1="23.847498"
       x2="23.977745"
       y2="232.35815"
       gradientUnits="userSpaceOnUse" />
  </defs>
  <defs
     id="defs1" />
  <sodipodi:namedview
     id="namedview3"
     pagecolor="#ffffff"
     bordercolor="#000000"
     borderopacity="0.25"
     inkscape:showpageshadow="2"
     inkscape:pageopacity="0.0"
     inkscape:pagecheckerboard="0"
     inkscape:deskcolor="#d1d1d1" />
  <path
     id="circle1"
     style="baseline-shift:baseline;display:inline;overflow:visible;vector-effect:none;fill:url(#linearGradient2);stroke-linecap:round;stroke-linejoin:round;enable-background:accumulate;stop-color:#000000;stop-opacity:1;opacity:1;fill-opacity:1"
     d="M 48 96 C 30.421645 96 16 110.42165 16 128 C 16 145.57835 30.421645 160 48 160 C 65.578355 160 80 145.57835 80 128 C 80 110.42165 65.578355 96 48 96 z M 128 96 C 110.42165 96 96 110.42165 96 128 C 96 145.57835 110.42165 160 128 160 C 145.57835 160 160 145.57835 160 128 C 160 110.42165 145.57835 96 128 96 z M 208 96 C 190.42165 96 176 110.42165 176 128 C 176 145.57835 190.42165 160 208 160 C 225.57835 160 240 145.57835 240 128 C 240 110.42165 225.57835 96 208 96 z M 48 112 C 56.931313 112 64 119.06869 64 128 C 64 136.93131 56.931313 144 48 144 C 39.068687 144 32 136.93131 32 128 C 32 119.06869 39.068687 112 48 112 z M 128 112 C 136.93131 112 144 119.06869 144 128 C 144 136.93131 136.93131 144 128 144 C 119.06869 144 112 136.93131 112 128 C 112 119.06869 119.06869 112 128 112 z M 208 112 C 216.93131 112 224 119.06869 224 128 C 224 136.93131 216.93131 144 208 144 C 199.06869 144 192 136.93131 192 128 C 192 119.06869 199.06869 112 208 112 z " />
</svg>
