<?xml version="1.0" encoding="UTF-8" standalone="no"?>
<svg
   viewBox="0 0 256 256"
   version="1.1"
   id="svg5"
   sodipodi:docname="dresser blue_purple.svg"
   xmlns:inkscape="http://www.inkscape.org/namespaces/inkscape"
   xmlns:sodipodi="http://sodipodi.sourceforge.net/DTD/sodipodi-0.dtd"
   xmlns:xlink="http://www.w3.org/1999/xlink"
   xmlns="http://www.w3.org/2000/svg"
   xmlns:svg="http://www.w3.org/2000/svg">
  <defs
     id="defs3">
    <linearGradient
       id="linearGradient1"
       inkscape:collect="always">
      <stop
         style="stop-color:#a03291;stop-opacity:1;"
         offset="0"
         id="stop1" />
      <stop
         style="stop-color:#4b4fe2ff;stop-opacity:1;"
         offset="0.76340693"
         id="stop2" />
    </linearGradient>
    <linearGradient
       inkscape:collect="always"
       xlink:href="#linearGradient1"
       id="linearGradient2"
       x1="232.4884"
       y1="23.847498"
       x2="23.977745"
       y2="232.35815"
       gradientUnits="userSpaceOnUse" />
  </defs>
  <defs
     id="defs5" />
  <sodipodi:namedview
     id="namedview5"
     pagecolor="#ffffff"
     bordercolor="#000000"
     borderopacity="0.25"
     inkscape:showpageshadow="2"
     inkscape:pageopacity="0.0"
     inkscape:pagecheckerboard="0"
     inkscape:deskcolor="#d1d1d1" />
  <path
     id="line1"
     style="baseline-shift:baseline;display:inline;overflow:visible;vector-effect:none;fill:url(#linearGradient2);stroke-linecap:round;stroke-linejoin:round;enable-background:accumulate;stop-color:#000000;stop-opacity:1;opacity:1;fill-opacity:1"
     d="M 56 24 C 47.274378 24 40 31.274378 40 40 L 40 160 L 40 216 C 40 224.72562 47.274378 232 56 232 L 200 232 C 208.72562 232 216 224.72562 216 216 L 216 160 L 216 40 C 216 31.274378 208.72562 24 200 24 L 56 24 z M 56 40 L 200 40 L 200 88 L 56 88 L 56 40 z M 120 56 A 8 8 0 0 0 112 64 A 8 8 0 0 0 120 72 L 136 72 A 8 8 0 0 0 144 64 A 8 8 0 0 0 136 56 L 120 56 z M 56 104 L 200 104 L 200 152 L 56 152 L 56 104 z M 120 120 A 8 8 0 0 0 112 128 A 8 8 0 0 0 120 136 L 136 136 A 8 8 0 0 0 144 128 A 8 8 0 0 0 136 120 L 120 120 z M 56 168 L 200 168 L 200 216 L 56 216 L 56 168 z M 120 184 A 8 8 0 0 0 112 192 A 8 8 0 0 0 120 200 L 136 200 A 8 8 0 0 0 144 192 A 8 8 0 0 0 136 184 L 120 184 z " />
</svg>
