<?xml version="1.0" encoding="UTF-8" standalone="no"?>
<svg
   viewBox="0 0 256 256"
   version="1.1"
   id="svg3"
   sodipodi:docname="dribbble logo blue_purple.svg"
   xmlns:inkscape="http://www.inkscape.org/namespaces/inkscape"
   xmlns:sodipodi="http://sodipodi.sourceforge.net/DTD/sodipodi-0.dtd"
   xmlns:xlink="http://www.w3.org/1999/xlink"
   xmlns="http://www.w3.org/2000/svg"
   xmlns:svg="http://www.w3.org/2000/svg">
  <defs
     id="defs3">
    <linearGradient
       id="linearGradient1"
       inkscape:collect="always">
      <stop
         style="stop-color:#a03291;stop-opacity:1;"
         offset="0"
         id="stop1" />
      <stop
         style="stop-color:#4b4fe2ff;stop-opacity:1;"
         offset="0.76340693"
         id="stop2" />
    </linearGradient>
    <linearGradient
       inkscape:collect="always"
       xlink:href="#linearGradient1"
       id="linearGradient2"
       x1="232.4884"
       y1="23.847498"
       x2="23.977745"
       y2="232.35815"
       gradientUnits="userSpaceOnUse" />
  </defs>
  <defs
     id="defs1" />
  <sodipodi:namedview
     id="namedview3"
     pagecolor="#ffffff"
     bordercolor="#000000"
     borderopacity="0.25"
     inkscape:showpageshadow="2"
     inkscape:pageopacity="0.0"
     inkscape:pagecheckerboard="0"
     inkscape:deskcolor="#d1d1d1" />
  <path
     id="circle1"
     style="baseline-shift:baseline;display:inline;overflow:visible;vector-effect:none;fill:url(#linearGradient2);stroke-linecap:round;stroke-linejoin:round;enable-background:accumulate;stop-color:#000000;stop-opacity:1;opacity:1;fill-opacity:1"
     d="M 128 24 C 111.9025 24 96.64682 27.676452 83.029297 34.234375 A 8 8 0 0 0 81.818359 34.828125 C 53.814492 48.76573 33.024548 74.995685 26.351562 106.38086 A 8 8 0 0 0 25.980469 107.66406 A 8 8 0 0 0 25.908203 108.10742 C 24.65556 114.5479 24 121.19887 24 128 C 24 161.8918 40.298501 192.0514 65.46875 211.05078 A 8 8 0 0 0 66.865234 212.11914 A 8 8 0 0 0 67.091797 212.25 C 84.222698 224.66955 105.27193 232 128 232 C 140.00243 232 151.53716 229.95556 162.27344 226.19727 A 8 8 0 0 0 163.49219 225.76172 C 202.90027 211.40933 231.2141 173.85511 231.9375 129.7168 A 8 8 0 0 0 231.96094 129.57617 A 8 8 0 0 0 231.99414 129.08203 C 231.99783 128.72185 232 128.36104 232 128 C 232 95.441555 216.95932 66.32854 193.46094 47.244141 A 8 8 0 0 0 193.04883 46.884766 A 8 8 0 0 0 192.52734 46.494141 C 174.78337 32.416286 152.35569 24 128 24 z M 128 40 C 145.86588 40 162.46784 45.290592 176.32812 54.394531 C 166.23107 65.494053 154.63946 74.929394 141.98633 82.496094 C 131.43444 67.610915 118.42083 54.392101 103.32031 43.490234 C 111.14681 41.217743 119.42837 40 128 40 z M 85.587891 50.833984 C 102.2417 61.249589 116.4541 74.617531 127.70898 90.033203 C 107.97873 99.141872 86.28127 104.01784 64.005859 104 A 8.0008 8.0008 0 0 0 63.998047 104 C 57.202203 104.00141 50.417179 103.55113 43.6875 102.65234 C 50.351627 80.366758 65.587118 61.825554 85.587891 50.833984 z M 188.86914 64.378906 C 203.83662 78.700431 213.73851 98.269276 215.6582 120.17188 C 213.11925 120.05755 210.56748 120.00006 208.00391 120 L 208 120 C 192.97107 119.99208 178.21849 121.99415 164.07617 125.82031 C 160.56206 115.43676 156.04707 105.44374 150.60938 95.978516 C 164.7343 87.477173 177.65264 76.865215 188.86914 64.378906 z M 136.52539 103.56445 C 141.50481 112.17444 145.63869 121.2715 148.85352 130.72852 C 116.81125 142.7726 88.791997 164.48368 69.087891 193.43945 C 51.215613 177.34633 40 154.01317 40 128 C 40 124.74445 40.175171 121.5318 40.517578 118.36914 C 48.294821 119.45731 56.142476 120.00195 64.001953 120 C 89.415378 120.01917 114.15536 114.27192 136.52539 103.56445 z M 207.99609 136 A 8.0008 8.0008 0 0 0 208 136 C 210.55393 136 213.09765 136.06403 215.62695 136.18945 C 212.91478 165.74425 195.66374 191.01264 171.06445 204.80469 C 172.31078 196.50004 172.93498 188.10607 172.92969 179.69336 L 172.92969 179.68945 C 172.93509 166.57255 171.40836 153.66988 168.47656 141.20117 C 181.20252 137.78135 194.47398 135.99257 207.99609 136 z M 153.21094 146.18359 C 155.66215 157.05241 156.93466 168.2782 156.92969 179.68555 A 8.0008 8.0008 0 0 0 156.92969 179.69531 C 156.93675 190.6585 155.76239 201.58617 153.42773 212.28906 C 145.3814 214.70347 136.84536 216 128 216 C 111.08774 216 95.307592 211.25992 81.914062 203.03125 C 99.507336 176.91228 124.53425 157.25183 153.21094 146.18359 z " />
</svg>
