<?xml version="1.0" encoding="UTF-8" standalone="no"?>
<svg
   viewBox="0 0 256 256"
   version="1.1"
   id="svg12"
   sodipodi:docname="equalizer blue_purple.svg"
   xmlns:inkscape="http://www.inkscape.org/namespaces/inkscape"
   xmlns:sodipodi="http://sodipodi.sourceforge.net/DTD/sodipodi-0.dtd"
   xmlns:xlink="http://www.w3.org/1999/xlink"
   xmlns="http://www.w3.org/2000/svg"
   xmlns:svg="http://www.w3.org/2000/svg">
  <defs
     id="defs3">
    <linearGradient
       id="linearGradient1"
       inkscape:collect="always">
      <stop
         style="stop-color:#a03291;stop-opacity:1;"
         offset="0"
         id="stop1" />
      <stop
         style="stop-color:#4b4fe2ff;stop-opacity:1;"
         offset="0.76340693"
         id="stop2" />
    </linearGradient>
    <linearGradient
       inkscape:collect="always"
       xlink:href="#linearGradient1"
       id="linearGradient2"
       x1="232.4884"
       y1="23.847498"
       x2="23.977745"
       y2="232.35815"
       gradientUnits="userSpaceOnUse" />
  </defs>
  <defs
     id="defs12" />
  <sodipodi:namedview
     id="namedview12"
     pagecolor="#ffffff"
     bordercolor="#000000"
     borderopacity="0.25"
     inkscape:showpageshadow="2"
     inkscape:pageopacity="0.0"
     inkscape:pagecheckerboard="0"
     inkscape:deskcolor="#d1d1d1" />
  <path
     id="line1"
     style="baseline-shift:baseline;display:inline;overflow:visible;vector-effect:none;fill:url(#linearGradient2);stroke-linecap:round;stroke-linejoin:round;enable-background:accumulate;stop-color:#000000;stop-opacity:1;opacity:1;fill-opacity:1"
     d="M 184 56 A 8 8 0 0 0 176 64 A 8 8 0 0 0 184 72 L 232 72 A 8 8 0 0 0 240 64 A 8 8 0 0 0 232 56 L 184 56 z M 24 88 A 8 8 0 0 0 16 96 A 8 8 0 0 0 24 104 L 72 104 A 8 8 0 0 0 80 96 A 8 8 0 0 0 72 88 L 24 88 z M 184 88 A 8 8 0 0 0 176 96 A 8 8 0 0 0 184 104 L 232 104 A 8 8 0 0 0 240 96 A 8 8 0 0 0 232 88 L 184 88 z M 24 120 A 8 8 0 0 0 16 128 A 8 8 0 0 0 24 136 L 72 136 A 8 8 0 0 0 80 128 A 8 8 0 0 0 72 120 L 24 120 z M 104 120 A 8 8 0 0 0 96 128 A 8 8 0 0 0 104 136 L 152 136 A 8 8 0 0 0 160 128 A 8 8 0 0 0 152 120 L 104 120 z M 184 120 A 8 8 0 0 0 176 128 A 8 8 0 0 0 184 136 L 232 136 A 8 8 0 0 0 240 128 A 8 8 0 0 0 232 120 L 184 120 z M 24 152 A 8 8 0 0 0 16 160 A 8 8 0 0 0 24 168 L 72 168 A 8 8 0 0 0 80 160 A 8 8 0 0 0 72 152 L 24 152 z M 104 152 A 8 8 0 0 0 96 160 A 8 8 0 0 0 104 168 L 152 168 A 8 8 0 0 0 160 160 A 8 8 0 0 0 152 152 L 104 152 z M 184 152 A 8 8 0 0 0 176 160 A 8 8 0 0 0 184 168 L 232 168 A 8 8 0 0 0 240 160 A 8 8 0 0 0 232 152 L 184 152 z M 24 184 A 8 8 0 0 0 16 192 A 8 8 0 0 0 24 200 L 72 200 A 8 8 0 0 0 80 192 A 8 8 0 0 0 72 184 L 24 184 z M 104 184 A 8 8 0 0 0 96 192 A 8 8 0 0 0 104 200 L 152 200 A 8 8 0 0 0 160 192 A 8 8 0 0 0 152 184 L 104 184 z M 184 184 A 8 8 0 0 0 176 192 A 8 8 0 0 0 184 200 L 232 200 A 8 8 0 0 0 240 192 A 8 8 0 0 0 232 184 L 184 184 z " />
</svg>
