<?xml version="1.0" encoding="UTF-8" standalone="no"?>
<svg
   viewBox="0 0 256 256"
   version="1.1"
   id="svg1"
   sodipodi:docname="escalator down blue_purple.svg"
   xmlns:inkscape="http://www.inkscape.org/namespaces/inkscape"
   xmlns:sodipodi="http://sodipodi.sourceforge.net/DTD/sodipodi-0.dtd"
   xmlns:xlink="http://www.w3.org/1999/xlink"
   xmlns="http://www.w3.org/2000/svg"
   xmlns:svg="http://www.w3.org/2000/svg">
  <defs
     id="defs3">
    <linearGradient
       id="linearGradient1"
       inkscape:collect="always">
      <stop
         style="stop-color:#a03291;stop-opacity:1;"
         offset="0"
         id="stop1" />
      <stop
         style="stop-color:#4b4fe2ff;stop-opacity:1;"
         offset="0.76340693"
         id="stop2" />
    </linearGradient>
    <linearGradient
       inkscape:collect="always"
       xlink:href="#linearGradient1"
       id="linearGradient2"
       x1="232.4884"
       y1="23.847498"
       x2="23.977745"
       y2="232.35815"
       gradientUnits="userSpaceOnUse" />
  </defs>
  <defs
     id="defs1" />
  <sodipodi:namedview
     id="namedview1"
     pagecolor="#ffffff"
     bordercolor="#000000"
     borderopacity="0.25"
     inkscape:showpageshadow="2"
     inkscape:pageopacity="0.0"
     inkscape:pagecheckerboard="0"
     inkscape:deskcolor="#d1d1d1" />
  <path
     id="polyline1"
     style="baseline-shift:baseline;display:inline;overflow:visible;vector-effect:none;fill:url(#linearGradient2);stroke-linecap:round;stroke-linejoin:round;enable-background:accumulate;stop-color:#000000;stop-opacity:1;opacity:1;fill-opacity:1"
     d="M 32 40 C 23.258201 40 16 47.258201 16 56 L 16 96 C 16 104.7418 23.258201 112 32 112 L 68.498047 112 L 162.12109 213.42578 A 8.0008 8.0008 0 0 0 168 216 L 224 216 C 232.7418 216 240 208.7418 240 200 L 240 160 C 240 151.2582 232.7418 144 224 144 L 187.50195 144 L 93.878906 42.574219 A 8.0008 8.0008 0 0 0 88 40 L 32 40 z M 200 40 A 8 8 0 0 0 192 48 L 192 84.6875 L 181.65625 74.34375 A 8 8 0 0 0 176 72 A 8 8 0 0 0 170.34375 74.34375 A 8 8 0 0 0 170.34375 85.65625 L 194.34375 109.65625 A 8.0008 8.0008 0 0 0 194.66406 109.9375 A 8 8 0 0 0 195.10352 110.32227 A 8.0008 8.0008 0 0 0 195.52539 110.60938 A 8 8 0 0 0 195.9668 110.9043 A 8.0008 8.0008 0 0 0 196.44531 111.14648 A 8 8 0 0 0 196.92188 111.38281 A 8.0008 8.0008 0 0 0 197.39844 111.54688 A 8 8 0 0 0 197.91406 111.7207 A 8.0008 8.0008 0 0 0 198.29297 111.79883 A 8 8 0 0 0 200 112 A 8 8 0 0 0 201.70703 111.79883 A 8.0008 8.0008 0 0 0 202.08594 111.7207 A 8 8 0 0 0 202.60156 111.54688 A 8.0008 8.0008 0 0 0 203.07812 111.38281 A 8 8 0 0 0 203.55469 111.14648 A 8.0008 8.0008 0 0 0 204.0332 110.9043 A 8 8 0 0 0 204.47461 110.60938 A 8.0008 8.0008 0 0 0 204.89648 110.32227 A 8 8 0 0 0 205.33594 109.9375 A 8.0008 8.0008 0 0 0 205.65625 109.65625 L 229.65625 85.65625 A 8 8 0 0 0 229.65625 74.34375 A 8 8 0 0 0 218.34375 74.34375 L 208 84.6875 L 208 48 A 8 8 0 0 0 200 40 z M 32 56 L 84.498047 56 L 178.12109 157.42578 A 8.0008 8.0008 0 0 0 184 160 L 224 160 L 224 200 L 171.50195 200 L 77.878906 98.574219 A 8.0008 8.0008 0 0 0 72 96 L 32 96 L 32 56 z " />
</svg>
