<?xml version="1.0" encoding="UTF-8" standalone="no"?>
<svg
   viewBox="0 0 256 256"
   version="1.1"
   id="svg3"
   sodipodi:docname="exam blue_purple.svg"
   xmlns:inkscape="http://www.inkscape.org/namespaces/inkscape"
   xmlns:sodipodi="http://sodipodi.sourceforge.net/DTD/sodipodi-0.dtd"
   xmlns:xlink="http://www.w3.org/1999/xlink"
   xmlns="http://www.w3.org/2000/svg"
   xmlns:svg="http://www.w3.org/2000/svg">
  <defs
     id="defs3">
    <linearGradient
       id="linearGradient1"
       inkscape:collect="always">
      <stop
         style="stop-color:#a03291;stop-opacity:1;"
         offset="0"
         id="stop1" />
      <stop
         style="stop-color:#4b4fe2ff;stop-opacity:1;"
         offset="0.76340693"
         id="stop2" />
    </linearGradient>
    <linearGradient
       inkscape:collect="always"
       xlink:href="#linearGradient1"
       id="linearGradient2"
       x1="232.4884"
       y1="23.847498"
       x2="23.977745"
       y2="232.35815"
       gradientUnits="userSpaceOnUse" />
  </defs>
  <defs
     id="defs1" />
  <sodipodi:namedview
     id="namedview3"
     pagecolor="#ffffff"
     bordercolor="#000000"
     borderopacity="0.25"
     inkscape:showpageshadow="2"
     inkscape:pageopacity="0.0"
     inkscape:pagecheckerboard="0"
     inkscape:deskcolor="#d1d1d1" />
  <path
     id="path1"
     style="baseline-shift:baseline;display:inline;overflow:visible;vector-effect:none;fill:url(#linearGradient2);stroke-linecap:round;stroke-linejoin:round;enable-background:accumulate;stop-color:#000000;stop-opacity:1;opacity:1;fill-opacity:1"
     d="M 40 40 C 31.258201 40 24 47.258201 24 56 L 24 216 A 8.0008 8.0008 0 0 0 35.578125 223.15625 L 64 208.94336 L 92.421875 223.15625 A 8.0008 8.0008 0 0 0 99.578125 223.15625 L 128 208.94336 L 156.42188 223.15625 A 8.0008 8.0008 0 0 0 163.57812 223.15625 L 192 208.94336 L 220.42188 223.15625 A 8.0008 8.0008 0 0 0 232 216 L 232 56 C 232 47.258201 224.7418 40 216 40 L 40 40 z M 40 56 L 216 56 L 216 203.05469 L 195.57812 192.84375 A 8.0008 8.0008 0 0 0 188.42188 192.84375 L 160 207.05664 L 131.57812 192.84375 A 8.0008 8.0008 0 0 0 124.42188 192.84375 L 96 207.05664 L 67.578125 192.84375 A 8.0008 8.0008 0 0 0 60.421875 192.84375 L 40 203.05469 L 40 56 z M 96.269531 88.005859 A 8.0008 8.0008 0 0 0 93.115234 88.539062 A 8.0008 8.0008 0 0 0 88.84375 92.421875 L 56.84375 156.42188 A 8 8 0 0 0 60.421875 167.15625 A 8 8 0 0 0 71.15625 163.57812 L 76.945312 152 L 115.05469 152 L 120.84375 163.57812 A 8 8 0 0 0 131.57812 167.15625 A 8 8 0 0 0 135.15625 156.42188 L 103.15625 92.421875 A 8.0008 8.0008 0 0 0 96.269531 88.005859 z M 168 96 A 8 8 0 0 0 160 104 L 160 120 L 144 120 A 8 8 0 0 0 136 128 A 8 8 0 0 0 144 136 L 160 136 L 160 152 A 8 8 0 0 0 168 160 A 8 8 0 0 0 176 152 L 176 136 L 192 136 A 8 8 0 0 0 200 128 A 8 8 0 0 0 192 120 L 176 120 L 176 104 A 8 8 0 0 0 168 96 z M 96 113.89062 L 107.05469 136 L 84.945312 136 L 96 113.89062 z " />
</svg>
