<?xml version="1.0" encoding="UTF-8" standalone="no"?>
<svg
   viewBox="0 0 256 256"
   version="1.1"
   id="svg1"
   sodipodi:docname="facebook logo blue_purple.svg"
   xmlns:inkscape="http://www.inkscape.org/namespaces/inkscape"
   xmlns:sodipodi="http://sodipodi.sourceforge.net/DTD/sodipodi-0.dtd"
   xmlns:xlink="http://www.w3.org/1999/xlink"
   xmlns="http://www.w3.org/2000/svg"
   xmlns:svg="http://www.w3.org/2000/svg">
  <defs
     id="defs3">
    <linearGradient
       id="linearGradient1"
       inkscape:collect="always">
      <stop
         style="stop-color:#a03291;stop-opacity:1;"
         offset="0"
         id="stop1" />
      <stop
         style="stop-color:#4b4fe2ff;stop-opacity:1;"
         offset="0.76340693"
         id="stop2" />
    </linearGradient>
    <linearGradient
       inkscape:collect="always"
       xlink:href="#linearGradient1"
       id="linearGradient2"
       x1="232.4884"
       y1="23.847498"
       x2="23.977745"
       y2="232.35815"
       gradientUnits="userSpaceOnUse" />
  </defs>
  <defs
     id="defs1" />
  <sodipodi:namedview
     id="namedview1"
     pagecolor="#ffffff"
     bordercolor="#000000"
     borderopacity="0.25"
     inkscape:showpageshadow="2"
     inkscape:pageopacity="0.0"
     inkscape:pagecheckerboard="0"
     inkscape:deskcolor="#d1d1d1" />
  <path
     id="circle1"
     style="baseline-shift:baseline;display:inline;overflow:visible;vector-effect:none;fill:url(#linearGradient2);stroke-linecap:round;stroke-linejoin:round;enable-background:accumulate;stop-color:#000000;stop-opacity:1;opacity:1;fill-opacity:1"
     d="M 128 24 C 70.657143 24 24 70.657143 24 128 C 24 185.34286 70.657143 232 128 232 C 185.34286 232 232 185.34286 232 128 C 232 70.657143 185.34286 24 128 24 z M 128 40 C 176.69582 40 216 79.304185 216 128 C 216 173.99865 180.92922 211.61645 136 215.64258 L 136 152 L 160 152 A 8 8 0 0 0 168 144 A 8 8 0 0 0 160 136 L 136 136 L 136 112 C 136 103.06869 143.06869 96 152 96 L 168 96 A 8 8 0 0 0 176 88 A 8 8 0 0 0 168 80 L 152 80 C 134.42165 80 120 94.421645 120 112 L 120 136 L 96 136 A 8 8 0 0 0 88 144 A 8 8 0 0 0 96 152 L 120 152 L 120 215.64258 C 75.070789 211.61645 40 173.99865 40 128 C 40 79.304185 79.304185 40 128 40 z " />
</svg>
