<?xml version="1.0" encoding="UTF-8" standalone="no"?>
<svg
   viewBox="0 0 256 256"
   version="1.1"
   id="svg9"
   sodipodi:docname="faders blue_purple.svg"
   xmlns:inkscape="http://www.inkscape.org/namespaces/inkscape"
   xmlns:sodipodi="http://sodipodi.sourceforge.net/DTD/sodipodi-0.dtd"
   xmlns:xlink="http://www.w3.org/1999/xlink"
   xmlns="http://www.w3.org/2000/svg"
   xmlns:svg="http://www.w3.org/2000/svg">
  <defs
     id="defs3">
    <linearGradient
       id="linearGradient1"
       inkscape:collect="always">
      <stop
         style="stop-color:#a03291;stop-opacity:1;"
         offset="0"
         id="stop1" />
      <stop
         style="stop-color:#4b4fe2ff;stop-opacity:1;"
         offset="0.76340693"
         id="stop2" />
    </linearGradient>
    <linearGradient
       inkscape:collect="always"
       xlink:href="#linearGradient1"
       id="linearGradient2"
       x1="232.4884"
       y1="23.847498"
       x2="23.977745"
       y2="232.35815"
       gradientUnits="userSpaceOnUse" />
  </defs>
  <defs
     id="defs9" />
  <sodipodi:namedview
     id="namedview9"
     pagecolor="#ffffff"
     bordercolor="#000000"
     borderopacity="0.25"
     inkscape:showpageshadow="2"
     inkscape:pageopacity="0.0"
     inkscape:pagecheckerboard="0"
     inkscape:deskcolor="#d1d1d1" />
  <path
     id="line1"
     style="baseline-shift:baseline;display:inline;overflow:visible;vector-effect:none;fill:url(#linearGradient2);stroke-linecap:round;stroke-linejoin:round;enable-background:accumulate;stop-color:#000000;stop-opacity:1;opacity:1;fill-opacity:1"
     d="M 56 32 A 8 8 0 0 0 48 40 L 48 128 L 32 128 A 8 8 0 0 0 24 136 A 8 8 0 0 0 32 144 L 80 144 A 8 8 0 0 0 88 136 A 8 8 0 0 0 80 128 L 64 128 L 64 40 A 8 8 0 0 0 56 32 z M 128 32 A 8 8 0 0 0 120 40 L 120 80 L 104 80 A 8 8 0 0 0 96 88 A 8 8 0 0 0 104 96 L 128 96 L 152 96 A 8 8 0 0 0 160 88 A 8 8 0 0 0 152 80 L 136 80 L 136 40 A 8 8 0 0 0 128 32 z M 200 32 A 8 8 0 0 0 192 40 L 192 160 L 176 160 A 8 8 0 0 0 168 168 A 8 8 0 0 0 176 176 L 224 176 A 8 8 0 0 0 232 168 A 8 8 0 0 0 224 160 L 208 160 L 208 40 A 8 8 0 0 0 200 32 z M 128 112 A 8 8 0 0 0 120 120 L 120 216 A 8 8 0 0 0 128 224 A 8 8 0 0 0 136 216 L 136 120 A 8 8 0 0 0 128 112 z M 56 160 A 8 8 0 0 0 48 168 L 48 216 A 8 8 0 0 0 56 224 A 8 8 0 0 0 64 216 L 64 168 A 8 8 0 0 0 56 160 z M 200 192 A 8 8 0 0 0 192 200 L 192 216 A 8 8 0 0 0 200 224 A 8 8 0 0 0 208 216 L 208 200 A 8 8 0 0 0 200 192 z " />
</svg>
