<?xml version="1.0" encoding="UTF-8" standalone="no"?>
<svg
   viewBox="0 0 256 256"
   version="1.1"
   id="svg14"
   sodipodi:docname="fediverse logo blue_purple.svg"
   xmlns:inkscape="http://www.inkscape.org/namespaces/inkscape"
   xmlns:sodipodi="http://sodipodi.sourceforge.net/DTD/sodipodi-0.dtd"
   xmlns:xlink="http://www.w3.org/1999/xlink"
   xmlns="http://www.w3.org/2000/svg"
   xmlns:svg="http://www.w3.org/2000/svg">
  <defs
     id="defs3">
    <linearGradient
       id="linearGradient1"
       inkscape:collect="always">
      <stop
         style="stop-color:#a03291;stop-opacity:1;"
         offset="0"
         id="stop1" />
      <stop
         style="stop-color:#4b4fe2ff;stop-opacity:1;"
         offset="0.76340693"
         id="stop2" />
    </linearGradient>
    <linearGradient
       inkscape:collect="always"
       xlink:href="#linearGradient1"
       id="linearGradient2"
       x1="232.4884"
       y1="23.847498"
       x2="23.977745"
       y2="232.35815"
       gradientUnits="userSpaceOnUse" />
  </defs>
  <defs
     id="defs14" />
  <sodipodi:namedview
     id="namedview14"
     pagecolor="#ffffff"
     bordercolor="#000000"
     borderopacity="0.25"
     inkscape:showpageshadow="2"
     inkscape:pageopacity="0.0"
     inkscape:pagecheckerboard="0"
     inkscape:deskcolor="#d1d1d1" />
  <path
     id="circle1"
     style="baseline-shift:baseline;display:inline;overflow:visible;vector-effect:none;fill:url(#linearGradient2);stroke-linecap:round;stroke-linejoin:round;enable-background:accumulate;stop-color:#000000;stop-opacity:1;opacity:1;fill-opacity:1"
     d="M 148 16 C 132.63078 16 120 28.630784 120 44 C 120 44.989398 120.05225 45.967578 120.1543 46.931641 L 73.648438 66.318359 C 68.497439 60.035118 60.686285 56 52 56 C 36.630784 56 24 68.630784 24 84 C 24 96.984117 33.015265 108.01438 45.080078 111.125 L 46.933594 157.52148 C 35.960834 161.32076 28 171.79775 28 184 C 28 199.36922 40.630784 212 56 212 C 65.897968 212 74.660407 206.76077 79.644531 198.92578 L 128.00391 212.47266 C 128.25926 227.62766 140.78838 240 156 240 C 171.36922 240 184 227.36922 184 212 C 184 205.02853 181.40134 198.62056 177.12695 193.69922 L 204.34961 150.92578 C 206.78451 151.62512 209.35191 152 212 152 C 227.36922 152 240 139.36922 240 124 C 240 108.63078 227.36922 96 212 96 C 208.29555 96 204.7497 96.735384 201.50195 98.064453 L 170.98047 59.923828 C 174.14103 55.391713 176 49.897407 176 44 C 176 28.630784 163.36922 16 148 16 z M 148 32 C 154.72217 32 160 37.277826 160 44 C 160 47.595636 158.49005 50.77845 156.05664 52.960938 A 8 8 0 0 0 155.49219 53.373047 A 8 8 0 0 0 154.98633 53.8125 C 153.0299 55.194316 150.62548 56 148 56 C 147.14066 56 146.30413 55.914496 145.5 55.75 A 8 8 0 0 0 145.22266 55.677734 A 8 8 0 0 0 144.86328 55.601562 C 141.38231 54.691446 138.56318 52.290248 137.09766 49.09375 A 8 8 0 0 0 136.91406 48.611328 A 8 8 0 0 0 136.73633 48.214844 C 136.25937 46.908399 136 45.490159 136 44 C 136 37.277826 141.27783 32 148 32 z M 126.35156 61.681641 C 128.48986 64.289956 131.08616 66.511255 134.01367 68.216797 L 122.70703 115.69141 L 79.224609 90.515625 C 79.730741 88.422288 80 86.240353 80 84 C 80 83.0106 79.947753 82.032423 79.845703 81.068359 L 126.35156 61.681641 z M 158.49805 69.935547 L 189.01953 108.07617 C 187.098 110.83157 185.6585 113.94216 184.82422 117.2832 L 138.24805 119.50391 L 149.57031 71.955078 C 152.70675 71.778458 155.71215 71.075613 158.49805 69.935547 z M 52 72 C 56.891123 72 61.017235 74.794601 62.902344 78.90625 A 8 8 0 0 0 63.085938 79.388672 A 8 8 0 0 0 63.263672 79.785156 C 63.740482 81.091427 64 82.510081 64 84 C 64 85.998917 63.533747 87.870982 62.701172 89.513672 A 8 8 0 0 0 62.386719 90.011719 A 8 8 0 0 0 62.085938 90.583984 C 60.082562 93.684639 56.678862 95.760036 52.705078 95.980469 A 8 8 0 0 0 52.480469 95.986328 A 8 8 0 0 0 52.279297 95.996094 C 52.186786 95.998107 52.093075 96 52 96 C 45.277826 96 40 90.722174 40 84 C 40 77.277826 45.277826 72 52 72 z M 71.169922 104.3418 L 113.7168 128.97461 L 72.234375 161.24023 C 69.458832 159.24885 66.309052 157.74881 62.919922 156.875 L 61.066406 110.47852 C 64.863077 109.16393 68.299309 107.05003 71.169922 104.3418 z M 212 112 C 218.72217 112 224 117.27783 224 124 C 224 130.72217 218.72217 136 212 136 C 209.80934 136 207.77269 135.43952 206.02148 134.45117 A 8 8 0 0 0 205.55469 134.13086 A 8 8 0 0 0 205.02539 133.82227 C 201.96557 131.66703 200 128.10224 200 124 C 200 120.40418 201.50974 117.22156 203.94336 115.03906 A 8 8 0 0 0 204.50781 114.62695 A 8 8 0 0 0 205.01367 114.1875 C 206.9701 112.80568 209.37451 112 212 112 z M 185.5918 133.26562 C 186.77803 136.60871 188.58597 139.66753 190.87305 142.30078 L 163.65039 185.07422 C 161.21549 184.37488 158.64809 184 156 184 C 155.69942 184 155.39997 184.00408 155.10156 184.01367 L 138.92773 135.48828 L 185.5918 133.26562 z M 123.98633 141.25781 L 139.9375 189.11719 C 136.92293 191.24652 134.33943 193.95545 132.35547 197.07422 L 83.996094 183.52734 C 83.938784 180.12611 83.263433 176.86608 82.078125 173.85352 L 123.98633 141.25781 z M 56 172 C 59.66535 172 62.900885 173.56908 65.085938 176.08594 A 8 8 0 0 0 65.474609 176.63086 A 8 8 0 0 0 65.888672 177.12109 C 67.223962 179.05757 68 181.42303 68 184 C 68 184.99254 67.885751 185.95387 67.667969 186.87109 A 8 8 0 0 0 67.556641 187.23242 A 8 8 0 0 0 67.445312 187.67969 C 65.923553 192.55171 61.433508 196 56 196 C 49.277826 196 44 190.72217 44 184 C 44 177.51455 48.912196 172.37357 55.294922 172.01953 A 8 8 0 0 0 55.519531 172.01367 A 8 8 0 0 0 55.720703 172.00391 C 55.813229 172.00189 55.90691 172 56 172 z M 156 200 C 158.19066 200 160.22731 200.56048 161.97852 201.54883 A 8 8 0 0 0 162.44531 201.86914 A 8 8 0 0 0 162.97461 202.17773 C 166.03461 204.33295 168 207.89762 168 212 C 168 218.72217 162.72217 224 156 224 C 149.27783 224 144 218.72217 144 212 C 144 211.00747 144.11425 210.04612 144.33203 209.12891 A 8 8 0 0 0 144.44336 208.76758 A 8 8 0 0 0 144.55469 208.32031 C 145.66032 204.78056 148.33217 201.9926 151.79492 200.73242 A 8 8 0 0 0 152.19922 200.60938 A 8 8 0 0 0 152.52539 200.49219 C 153.62168 200.17109 154.78717 200 156 200 z " />
</svg>
