<?xml version="1.0" encoding="UTF-8" standalone="no"?>
<svg
   viewBox="0 0 256 256"
   version="1.1"
   id="svg4"
   sodipodi:docname="file jpg blue_purple.svg"
   xmlns:inkscape="http://www.inkscape.org/namespaces/inkscape"
   xmlns:sodipodi="http://sodipodi.sourceforge.net/DTD/sodipodi-0.dtd"
   xmlns:xlink="http://www.w3.org/1999/xlink"
   xmlns="http://www.w3.org/2000/svg"
   xmlns:svg="http://www.w3.org/2000/svg">
  <defs
     id="defs3">
    <linearGradient
       id="linearGradient1"
       inkscape:collect="always">
      <stop
         style="stop-color:#a03291;stop-opacity:1;"
         offset="0"
         id="stop1" />
      <stop
         style="stop-color:#4b4fe2ff;stop-opacity:1;"
         offset="0.76340693"
         id="stop2" />
    </linearGradient>
    <linearGradient
       inkscape:collect="always"
       xlink:href="#linearGradient1"
       id="linearGradient2"
       x1="232.4884"
       y1="23.847498"
       x2="23.977745"
       y2="232.35815"
       gradientUnits="userSpaceOnUse" />
  </defs>
  <defs
     id="defs4" />
  <sodipodi:namedview
     id="namedview4"
     pagecolor="#ffffff"
     bordercolor="#000000"
     borderopacity="0.25"
     inkscape:showpageshadow="2"
     inkscape:pageopacity="0.0"
     inkscape:pagecheckerboard="0"
     inkscape:deskcolor="#d1d1d1" />
  <path
     id="path1"
     style="baseline-shift:baseline;display:inline;overflow:visible;vector-effect:none;fill:url(#linearGradient2);stroke-linecap:round;stroke-linejoin:round;enable-background:accumulate;stop-color:#000000;stop-opacity:1;opacity:1;fill-opacity:1"
     d="M 56 24 C 47.258201 24 40 31.258201 40 40 L 40 112 A 8 8 0 0 0 48 120 A 8 8 0 0 0 56 112 L 56 40 L 144 40 L 144 88 A 8.0008 8.0008 0 0 0 152 96 L 200 96 L 200 112 A 8 8 0 0 0 208 120 A 8 8 0 0 0 216 112 L 216 88 A 8.0008 8.0008 0 0 0 215.92969 86.949219 A 8 8 0 0 0 215.83203 86.460938 A 8.0008 8.0008 0 0 0 215.7207 85.914062 A 8 8 0 0 0 215.54688 85.398438 A 8.0008 8.0008 0 0 0 215.38281 84.921875 A 8 8 0 0 0 215.14648 84.445312 A 8.0008 8.0008 0 0 0 214.9043 83.966797 A 8 8 0 0 0 214.60938 83.525391 A 8.0008 8.0008 0 0 0 214.32227 83.103516 A 8 8 0 0 0 213.9375 82.664062 A 8.0008 8.0008 0 0 0 213.65625 82.34375 L 157.65625 26.34375 A 8.0008 8.0008 0 0 0 157.33594 26.0625 A 8 8 0 0 0 156.89648 25.677734 A 8.0008 8.0008 0 0 0 156.47461 25.390625 A 8 8 0 0 0 156.0332 25.095703 A 8.0008 8.0008 0 0 0 155.55469 24.853516 A 8 8 0 0 0 155.07812 24.617188 A 8.0008 8.0008 0 0 0 154.60156 24.453125 A 8 8 0 0 0 154.08594 24.279297 A 8.0008 8.0008 0 0 0 153.53906 24.167969 A 8 8 0 0 0 152 24 L 56 24 z M 160 51.314453 L 188.68555 80 L 160 80 L 160 51.314453 z M 72 144 A 8 8 0 0 0 64 152 L 64 190 C 64 195.61761 59.617612 200 54 200 C 48.382388 200 44 195.61761 44 190 A 8 8 0 0 0 36 182 A 8 8 0 0 0 28 190 C 28 204.26465 39.735362 216 54 216 C 68.264638 216 80 204.26465 80 190 L 80 152 A 8 8 0 0 0 72 144 z M 104 144 A 8.0008 8.0008 0 0 0 96 152 L 96 192 L 96 208 A 8 8 0 0 0 104 216 A 8 8 0 0 0 112 208 L 112 200 L 120 200 C 135.36922 200 148 187.36921 148 172 C 148 156.63079 135.36922 144 120 144 L 104 144 z M 192 144 C 173.70245 144 160 160.8315 160 180 C 160 199.1685 173.70245 216 192 216 A 8.0008 8.0008 0 0 0 192.09766 216 C 200.38275 215.89967 208.26847 212.38462 213.88281 206.29102 A 8.0008 8.0008 0 0 0 216 200.86914 L 216 184 A 8.0008 8.0008 0 0 0 208 176 L 200 176 A 8 8 0 0 0 192 184 A 8 8 0 0 0 200 192 L 200 197.32227 C 197.67268 199.00533 194.87166 199.94817 191.95312 199.99414 C 183.76805 199.96245 176 191.72887 176 180 C 176 168.25511 183.78895 160.01123 191.98633 160.00195 C 194.65857 160.01205 197.26337 160.8248 199.46484 162.33984 A 8 8 0 0 0 210.58984 160.28516 A 8 8 0 0 0 208.53516 149.16016 C 203.67733 145.81701 197.92045 144.01774 192.02344 144 A 8.0008 8.0008 0 0 0 192 144 z M 112 160 L 120 160 C 126.72218 160 132 165.27782 132 172 C 132 178.72218 126.72218 184 120 184 L 112 184 L 112 160 z " />
</svg>
