<?xml version="1.0" encoding="UTF-8" standalone="no"?>
<svg
   viewBox="0 0 256 256"
   version="1.1"
   id="svg3"
   sodipodi:docname="file doc blue_purple.svg"
   xmlns:inkscape="http://www.inkscape.org/namespaces/inkscape"
   xmlns:sodipodi="http://sodipodi.sourceforge.net/DTD/sodipodi-0.dtd"
   xmlns:xlink="http://www.w3.org/1999/xlink"
   xmlns="http://www.w3.org/2000/svg"
   xmlns:svg="http://www.w3.org/2000/svg">
  <defs
     id="defs3">
    <linearGradient
       id="linearGradient1"
       inkscape:collect="always">
      <stop
         style="stop-color:#a03291;stop-opacity:1;"
         offset="0"
         id="stop1" />
      <stop
         style="stop-color:#4b4fe2ff;stop-opacity:1;"
         offset="0.76340693"
         id="stop2" />
    </linearGradient>
    <linearGradient
       inkscape:collect="always"
       xlink:href="#linearGradient1"
       id="linearGradient2"
       x1="232.4884"
       y1="23.847498"
       x2="23.977745"
       y2="232.35815"
       gradientUnits="userSpaceOnUse" />
  </defs>
  <defs
     id="defs1" />
  <sodipodi:namedview
     id="namedview3"
     pagecolor="#ffffff"
     bordercolor="#000000"
     borderopacity="0.25"
     inkscape:showpageshadow="2"
     inkscape:pageopacity="0.0"
     inkscape:pagecheckerboard="0"
     inkscape:deskcolor="#d1d1d1" />
  <path
     id="path1"
     style="baseline-shift:baseline;display:inline;overflow:visible;vector-effect:none;fill:url(#linearGradient2);stroke-linecap:round;stroke-linejoin:round;enable-background:accumulate;stop-color:#000000;stop-opacity:1;opacity:1;fill-opacity:1"
     d="M 56 24 C 47.258201 24 40 31.258201 40 40 L 40 112 A 8 8 0 0 0 48 120 A 8 8 0 0 0 56 112 L 56 40 L 144 40 L 144 88 A 8.0008 8.0008 0 0 0 152 96 L 200 96 L 200 112 A 8 8 0 0 0 208 120 A 8 8 0 0 0 216 112 L 216 88 A 8.0008 8.0008 0 0 0 215.92969 86.949219 A 8 8 0 0 0 215.83203 86.460938 A 8.0008 8.0008 0 0 0 215.7207 85.914062 A 8 8 0 0 0 215.54688 85.398438 A 8.0008 8.0008 0 0 0 215.38281 84.921875 A 8 8 0 0 0 215.14648 84.445312 A 8.0008 8.0008 0 0 0 214.9043 83.966797 A 8 8 0 0 0 214.60938 83.525391 A 8.0008 8.0008 0 0 0 214.32227 83.103516 A 8 8 0 0 0 213.9375 82.664062 A 8.0008 8.0008 0 0 0 213.65625 82.34375 L 157.65625 26.34375 A 8.0008 8.0008 0 0 0 157.33594 26.0625 A 8 8 0 0 0 156.89648 25.677734 A 8.0008 8.0008 0 0 0 156.47461 25.390625 A 8 8 0 0 0 156.0332 25.095703 A 8.0008 8.0008 0 0 0 155.55469 24.853516 A 8 8 0 0 0 155.07812 24.617188 A 8.0008 8.0008 0 0 0 154.60156 24.453125 A 8 8 0 0 0 154.08594 24.279297 A 8.0008 8.0008 0 0 0 153.53906 24.167969 A 8 8 0 0 0 152 24 L 56 24 z M 160 51.314453 L 188.68555 80 L 160 80 L 160 51.314453 z M 36 144 A 8.0008 8.0008 0 0 0 28 152 L 28 208 A 8.0008 8.0008 0 0 0 36 216 L 52 216 C 71.787502 216 88 199.78749 88 180 C 88 160.21251 71.787502 144 52 144 L 36 144 z M 128 144 C 109.70106 144 96 160.83015 96 180 C 96 199.16985 109.70106 216 128 216 C 146.29894 216 160 199.16985 160 180 C 160 160.83015 146.29894 144 128 144 z M 200 144 C 181.69626 144 168 160.83495 168 180 C 168 199.16505 181.69626 216 200 216 A 8.0008 8.0008 0 0 0 200.09766 216 C 208.38275 215.89967 216.26847 212.38462 221.88281 206.29102 A 8 8 0 0 0 221.41992 194.98633 A 8 8 0 0 0 210.11719 195.44922 C 207.49324 198.29715 203.8235 199.93318 199.95312 199.99414 C 191.75432 199.9625 184 191.73235 184 180 C 184 168.26765 191.75436 160.0375 199.95312 160.00586 C 203.8235 160.06686 207.49324 161.70285 210.11719 164.55078 A 8 8 0 0 0 221.41992 165.01367 A 8 8 0 0 0 221.88281 153.70898 C 216.26847 147.61538 208.38275 144.10033 200.09766 144 A 8.0008 8.0008 0 0 0 200 144 z M 44 160 L 52 160 C 63.140465 160 72 168.85954 72 180 C 72 191.14046 63.140465 200 52 200 L 44 200 L 44 160 z M 128 160 C 136.21073 160 144 168.2419 144 180 C 144 191.7581 136.21073 200 128 200 C 119.78927 200 112 191.7581 112 180 C 112 168.2419 119.78927 160 128 160 z " />
</svg>
