<?xml version="1.0" encoding="UTF-8" standalone="no"?>
<svg
   viewBox="0 0 256 256"
   version="1.1"
   id="svg3"
   sodipodi:docname="film slate blue_purple.svg"
   xmlns:inkscape="http://www.inkscape.org/namespaces/inkscape"
   xmlns:sodipodi="http://sodipodi.sourceforge.net/DTD/sodipodi-0.dtd"
   xmlns:xlink="http://www.w3.org/1999/xlink"
   xmlns="http://www.w3.org/2000/svg"
   xmlns:svg="http://www.w3.org/2000/svg">
  <defs
     id="defs3">
    <linearGradient
       id="linearGradient1"
       inkscape:collect="always">
      <stop
         style="stop-color:#a03291;stop-opacity:1;"
         offset="0"
         id="stop1" />
      <stop
         style="stop-color:#4b4fe2ff;stop-opacity:1;"
         offset="0.76340693"
         id="stop2" />
    </linearGradient>
    <linearGradient
       inkscape:collect="always"
       xlink:href="#linearGradient1"
       id="linearGradient2"
       x1="232.4884"
       y1="23.847498"
       x2="23.977745"
       y2="232.35815"
       gradientUnits="userSpaceOnUse" />
  </defs>
  <defs
     id="defs1" />
  <sodipodi:namedview
     id="namedview3"
     pagecolor="#ffffff"
     bordercolor="#000000"
     borderopacity="0.25"
     inkscape:showpageshadow="2"
     inkscape:pageopacity="0.0"
     inkscape:pagecheckerboard="0"
     inkscape:deskcolor="#d1d1d1" />
  <path
     id="path1"
     style="baseline-shift:baseline;display:inline;overflow:visible;vector-effect:none;fill:url(#linearGradient2);stroke-linecap:round;stroke-linejoin:round;enable-background:accumulate;stop-color:#000000;stop-opacity:1;opacity:1;fill-opacity:1"
     d="M 192.58984 24.023438 C 192.13775 24.01082 191.68416 24.017833 191.22852 24.044922 C 190.18893 24.106722 189.14425 24.275283 188.10547 24.554688 L 188.09961 24.554688 L 124.74805 41.269531 A 8 8 0 0 0 124.73633 41.271484 A 8 8 0 0 0 124.53906 41.322266 A 8 8 0 0 0 124.40234 41.359375 A 8 8 0 0 0 124.39062 41.363281 L 65.744141 56.835938 A 8 8 0 0 0 65.640625 56.863281 A 8 8 0 0 0 65.597656 56.875 L 35.875 64.716797 C 27.46026 66.85983 22.293758 75.685282 24.542969 84.072266 A 8.0008 8.0008 0 0 0 24.550781 84.099609 L 32.013672 111.53516 A 8.0008 8.0008 0 0 0 32 112 L 32 200 C 32 208.7418 39.258201 216 48 216 L 208 216 C 216.7418 216 224 208.7418 224 200 L 224 112 A 8.0008 8.0008 0 0 0 216 104 L 102.08398 104 L 117.28516 99.988281 A 8 8 0 0 0 117.80469 99.851562 L 176.3125 84.408203 A 8 8 0 0 0 176.57031 84.339844 L 210.04102 75.505859 A 8.0008 8.0008 0 0 0 215.71875 65.669922 L 207.55859 35.669922 A 8.0008 8.0008 0 0 0 207.54102 35.605469 C 205.62683 28.796718 199.37128 24.212706 192.58984 24.023438 z M 192.16406 40.03125 L 198.16602 62.091797 L 175.54492 68.0625 L 147.43164 51.832031 L 192.16406 40.03125 z M 125.4668 57.626953 L 153.58203 73.859375 L 116.64062 83.609375 L 88.527344 67.373047 L 125.4668 57.626953 z M 66.566406 73.167969 L 94.683594 89.40625 L 46.066406 102.23828 L 40.060547 80.160156 L 66.566406 73.167969 z M 48 120 L 208 120 L 208 200 L 48 200 L 48 120 z " />
</svg>
