<?xml version="1.0" encoding="UTF-8" standalone="no"?>
<svg
   viewBox="0 0 256 256"
   version="1.1"
   id="svg3"
   sodipodi:docname="flag checkered blue_purple.svg"
   xmlns:inkscape="http://www.inkscape.org/namespaces/inkscape"
   xmlns:sodipodi="http://sodipodi.sourceforge.net/DTD/sodipodi-0.dtd"
   xmlns:xlink="http://www.w3.org/1999/xlink"
   xmlns="http://www.w3.org/2000/svg"
   xmlns:svg="http://www.w3.org/2000/svg">
  <defs
     id="defs3">
    <linearGradient
       id="linearGradient1"
       inkscape:collect="always">
      <stop
         style="stop-color:#a03291;stop-opacity:1;"
         offset="0"
         id="stop1" />
      <stop
         style="stop-color:#4b4fe2ff;stop-opacity:1;"
         offset="0.76340693"
         id="stop2" />
    </linearGradient>
    <linearGradient
       inkscape:collect="always"
       xlink:href="#linearGradient1"
       id="linearGradient2"
       x1="232.4884"
       y1="23.847498"
       x2="23.977745"
       y2="232.35815"
       gradientUnits="userSpaceOnUse" />
  </defs>
  <defs
     id="defs1" />
  <sodipodi:namedview
     id="namedview3"
     pagecolor="#ffffff"
     bordercolor="#000000"
     borderopacity="0.25"
     inkscape:showpageshadow="2"
     inkscape:pageopacity="0.0"
     inkscape:pagecheckerboard="0"
     inkscape:deskcolor="#d1d1d1" />
  <path
     id="path1"
     style="baseline-shift:baseline;display:inline;overflow:visible;vector-effect:none;fill:url(#linearGradient2);stroke-linecap:round;stroke-linejoin:round;enable-background:accumulate;stop-color:#000000;stop-opacity:1;opacity:1;fill-opacity:1"
     d="M 88.234375 32.039062 C 73.58465 31.774821 57.96189 36.788352 42.761719 49.953125 A 8.0008 8.0008 0 0 0 40 56 L 40 115.92188 A 8 8 0 0 0 40 116.07812 L 40 224 A 8 8 0 0 0 48 232 A 8 8 0 0 0 56 224 L 56 179.8418 C 69.393142 169.18284 80.75388 166.94424 92.550781 168.35352 C 105.15809 169.8596 118.45117 176.24117 132.45117 183.16992 C 146.45117 190.09867 161.15809 197.57491 177.55078 199.5332 C 193.94347 201.49149 211.86666 197.09233 229.23828 182.04688 A 8.0008 8.0008 0 0 0 232 176 L 232 116.07812 A 8 8 0 0 0 232 115.92188 L 232 56 A 8.0008 8.0008 0 0 0 218.76172 49.953125 C 204.13334 62.62267 192.05653 65.152569 179.44922 63.646484 C 166.84191 62.1404 153.54883 55.758828 139.54883 48.830078 C 125.54883 41.901328 110.84191 34.425087 94.449219 32.466797 C 92.400133 32.222011 90.327193 32.076811 88.234375 32.039062 z M 87.841797 47.990234 C 89.407171 48.040424 90.974868 48.165254 92.550781 48.353516 C 93.694868 48.49019 94.844602 48.667119 96 48.880859 L 96 92.669922 C 95.48474 92.597116 94.967823 92.52875 94.449219 92.466797 C 92.400133 92.222011 90.327193 92.076813 88.234375 92.039062 C 77.814449 91.851117 66.902259 94.333379 56 100.51953 L 56 59.841797 C 65.81484 52.030636 74.550927 48.688793 83.146484 48.076172 C 84.713372 47.964497 86.276423 47.940045 87.841797 47.990234 z M 112 53.736328 C 118.64246 56.384692 125.45864 59.709243 132.45117 63.169922 C 141.27189 67.535388 150.37322 72.11727 160 75.400391 L 160 118.26367 C 153.35754 115.61531 146.54136 112.29076 139.54883 108.83008 C 130.72811 104.46461 121.62678 99.882731 112 96.599609 L 112 53.736328 z M 216 71.472656 L 216 112.25 C 202.59458 122.92859 191.25447 125.05676 179.44922 123.64648 C 178.30513 123.50981 177.1554 123.33288 176 123.11914 L 176 79.330078 C 176.51526 79.402884 177.03218 79.47125 177.55078 79.533203 C 189.80196 80.996744 202.90855 78.901113 216 71.472656 z M 88.140625 108 C 89.606688 108.05591 91.075125 108.17723 92.550781 108.35352 C 93.694868 108.49019 94.844602 108.66712 96 108.88086 L 96 152.66992 C 95.48474 152.59712 94.967823 152.52875 94.449219 152.4668 C 82.198036 151.00326 69.091455 153.09889 56 160.52734 L 56 119.75 C 67.729744 110.40622 77.878183 107.60864 88.140625 108 z M 112 113.73633 C 118.64246 116.38469 125.45864 119.70924 132.45117 123.16992 C 141.27189 127.53539 150.37322 132.11727 160 135.40039 L 160 178.26367 C 153.35754 175.61531 146.54136 172.29076 139.54883 168.83008 C 130.72811 164.46461 121.62678 159.88273 112 156.59961 L 112 113.73633 z M 216 131.48047 L 216 172.1582 C 202.60686 182.81716 191.24612 185.05576 179.44922 183.64648 C 178.30513 183.50981 177.1554 183.33288 176 183.11914 L 176 139.33008 C 176.51526 139.40288 177.03218 139.47125 177.55078 139.5332 C 189.80204 140.99675 202.90816 138.90913 216 131.48047 z " />
</svg>
