<?xml version="1.0" encoding="UTF-8" standalone="no"?>
<svg
   viewBox="0 0 256 256"
   version="1.1"
   id="svg2"
   sodipodi:docname="floppy disk back blue_purple.svg"
   xmlns:inkscape="http://www.inkscape.org/namespaces/inkscape"
   xmlns:sodipodi="http://sodipodi.sourceforge.net/DTD/sodipodi-0.dtd"
   xmlns:xlink="http://www.w3.org/1999/xlink"
   xmlns="http://www.w3.org/2000/svg"
   xmlns:svg="http://www.w3.org/2000/svg">
  <defs
     id="defs3">
    <linearGradient
       id="linearGradient1"
       inkscape:collect="always">
      <stop
         style="stop-color:#a03291;stop-opacity:1;"
         offset="0"
         id="stop1" />
      <stop
         style="stop-color:#4b4fe2ff;stop-opacity:1;"
         offset="0.76340693"
         id="stop2" />
    </linearGradient>
    <linearGradient
       inkscape:collect="always"
       xlink:href="#linearGradient1"
       id="linearGradient2"
       x1="232.4884"
       y1="23.847498"
       x2="23.977745"
       y2="232.35815"
       gradientUnits="userSpaceOnUse" />
  </defs>
  <defs
     id="defs2" />
  <sodipodi:namedview
     id="namedview2"
     pagecolor="#ffffff"
     bordercolor="#000000"
     borderopacity="0.25"
     inkscape:showpageshadow="2"
     inkscape:pageopacity="0.0"
     inkscape:pagecheckerboard="0"
     inkscape:deskcolor="#d1d1d1" />
  <path
     id="path1"
     style="baseline-shift:baseline;display:inline;overflow:visible;vector-effect:none;fill:url(#linearGradient2);stroke-linecap:round;stroke-linejoin:round;enable-background:accumulate;stop-color:#000000;stop-opacity:1;opacity:1;fill-opacity:1"
     d="M 83.306641 32 C 81.11661 32.001034 78.974183 32.461194 76.998047 33.310547 A 8 8 0 0 0 76.564453 33.515625 C 74.888626 34.296115 73.337319 35.349708 72.005859 36.679688 A 8.0008 8.0008 0 0 0 72.003906 36.683594 L 36.683594 72.003906 A 8.0008 8.0008 0 0 0 36.679688 72.005859 C 33.68692 75.001903 32.001963 79.071883 32 83.306641 A 8.0008 8.0008 0 0 0 32 83.310547 L 32 208 C 32 216.7418 39.258201 224 48 224 L 208 224 C 216.7418 224 224 216.7418 224 208 L 224 48 C 224 39.258201 216.7418 32 208 32 L 176 32 L 83.310547 32 A 8.0008 8.0008 0 0 0 83.306641 32 z M 88 48 L 168 48 L 168 80 L 88 80 L 88 48 z M 184 48 L 208 48 L 208 208 L 48 208 L 48 83.314453 L 48 83.3125 L 48 83.310547 L 72 59.310547 L 72 80 C 72 88.741799 79.258201 96 88 96 L 168 96 C 176.7418 96 184 88.741799 184 80 L 184 48 z M 128 112 C 106.00337 112 88 130.00337 88 152 C 88 173.99663 106.00337 192 128 192 C 149.99663 192 168 173.99663 168 152 C 168 130.00337 149.99663 112 128 112 z M 128 128 C 141.34959 128 152 138.65041 152 152 C 152 165.34959 141.34959 176 128 176 C 114.65041 176 104 165.34959 104 152 C 104 138.65041 114.65041 128 128 128 z " />
</svg>
