<?xml version="1.0" encoding="UTF-8" standalone="no"?>
<svg
   viewBox="0 0 256 256"
   version="1.1"
   id="svg1"
   sodipodi:docname="flow arrow blue_purple.svg"
   xmlns:inkscape="http://www.inkscape.org/namespaces/inkscape"
   xmlns:sodipodi="http://sodipodi.sourceforge.net/DTD/sodipodi-0.dtd"
   xmlns:xlink="http://www.w3.org/1999/xlink"
   xmlns="http://www.w3.org/2000/svg"
   xmlns:svg="http://www.w3.org/2000/svg">
  <defs
     id="defs3">
    <linearGradient
       id="linearGradient1"
       inkscape:collect="always">
      <stop
         style="stop-color:#a03291;stop-opacity:1;"
         offset="0"
         id="stop1" />
      <stop
         style="stop-color:#4b4fe2ff;stop-opacity:1;"
         offset="0.76340693"
         id="stop2" />
    </linearGradient>
    <linearGradient
       inkscape:collect="always"
       xlink:href="#linearGradient1"
       id="linearGradient2"
       x1="232.4884"
       y1="23.847498"
       x2="23.977745"
       y2="232.35815"
       gradientUnits="userSpaceOnUse" />
  </defs>
  <defs
     id="defs1" />
  <sodipodi:namedview
     id="namedview1"
     pagecolor="#ffffff"
     bordercolor="#000000"
     borderopacity="0.25"
     inkscape:showpageshadow="2"
     inkscape:pageopacity="0.0"
     inkscape:pagecheckerboard="0"
     inkscape:deskcolor="#d1d1d1" />
  <path
     id="circle1"
     style="baseline-shift:baseline;display:inline;overflow:visible;vector-effect:none;fill:url(#linearGradient2);stroke-linecap:round;stroke-linejoin:round;enable-background:accumulate;stop-color:#000000;stop-opacity:1;opacity:1;fill-opacity:1"
     d="M 208 40 A 8 8 0 0 0 202.34375 42.34375 A 8 8 0 0 0 202.34375 53.65625 L 220.6875 72 L 208 72 C 184.54545 72 168.43654 78.79189 157.67188 89.265625 C 146.90721 99.73936 141.61523 112.92383 136.61523 124.92383 C 131.61523 136.92383 126.90719 147.73936 119.17188 155.26562 C 112.38621 161.8679 103.1721 166.68594 87.142578 167.76953 C 83.320318 149.68456 67.177847 136 48 136 C 26.003367 136 8 154.00337 8 176 C 8 197.99663 26.003367 216 48 216 C 67.339007 216 83.591413 202.08429 87.236328 183.77344 C 106.82048 182.51388 120.70827 176.09424 130.32812 166.73438 C 141.0928 156.26065 146.38477 143.07617 151.38477 131.07617 C 156.38477 119.07617 161.0928 108.26062 168.82812 100.73438 C 176.56345 93.2081 187.45455 88 208 88 L 220.6875 88 L 202.34375 106.34375 A 8 8 0 0 0 202.34375 117.65625 A 8 8 0 0 0 213.65625 117.65625 L 245.57422 85.738281 L 245.65625 85.65625 A 8.0008 8.0008 0 0 0 245.9375 85.335938 A 8 8 0 0 0 246.32227 84.896484 A 8.0008 8.0008 0 0 0 246.60938 84.474609 A 8 8 0 0 0 246.9043 84.033203 A 8.0008 8.0008 0 0 0 247.14648 83.554688 A 8 8 0 0 0 247.38281 83.078125 A 8.0008 8.0008 0 0 0 247.54688 82.601562 A 8 8 0 0 0 247.7207 82.085938 A 8.0008 8.0008 0 0 0 247.79883 81.707031 A 8 8 0 0 0 248 80 A 8 8 0 0 0 247.79883 78.292969 A 8.0008 8.0008 0 0 0 247.7207 77.914062 A 8 8 0 0 0 247.54688 77.398438 A 8.0008 8.0008 0 0 0 247.38281 76.921875 A 8 8 0 0 0 247.14648 76.445312 A 8.0008 8.0008 0 0 0 246.9043 75.966797 A 8 8 0 0 0 246.60938 75.525391 A 8.0008 8.0008 0 0 0 246.32227 75.103516 A 8 8 0 0 0 245.9375 74.664062 A 8.0008 8.0008 0 0 0 245.65625 74.34375 L 245.57422 74.261719 L 213.65625 42.34375 A 8 8 0 0 0 208 40 z M 48 152 C 61.349591 152 72 162.65041 72 176 C 72 189.34959 61.349591 200 48 200 C 34.650409 200 24 189.34959 24 176 C 24 162.65041 34.650409 152 48 152 z " />
</svg>
