<?xml version="1.0" encoding="UTF-8" standalone="no"?>
<svg
   viewBox="0 0 256 256"
   version="1.1"
   id="svg4"
   sodipodi:docname="flying saucer blue_purple.svg"
   xmlns:inkscape="http://www.inkscape.org/namespaces/inkscape"
   xmlns:sodipodi="http://sodipodi.sourceforge.net/DTD/sodipodi-0.dtd"
   xmlns:xlink="http://www.w3.org/1999/xlink"
   xmlns="http://www.w3.org/2000/svg"
   xmlns:svg="http://www.w3.org/2000/svg">
  <defs
     id="defs3">
    <linearGradient
       id="linearGradient1"
       inkscape:collect="always">
      <stop
         style="stop-color:#a03291;stop-opacity:1;"
         offset="0"
         id="stop1" />
      <stop
         style="stop-color:#4b4fe2ff;stop-opacity:1;"
         offset="0.76340693"
         id="stop2" />
    </linearGradient>
    <linearGradient
       inkscape:collect="always"
       xlink:href="#linearGradient1"
       id="linearGradient2"
       x1="232.4884"
       y1="23.847498"
       x2="23.977745"
       y2="232.35815"
       gradientUnits="userSpaceOnUse" />
  </defs>
  <defs
     id="defs4" />
  <sodipodi:namedview
     id="namedview4"
     pagecolor="#ffffff"
     bordercolor="#000000"
     borderopacity="0.25"
     inkscape:showpageshadow="2"
     inkscape:pageopacity="0.0"
     inkscape:pagecheckerboard="0"
     inkscape:deskcolor="#d1d1d1" />
  <path
     id="line1"
     style="baseline-shift:baseline;display:inline;overflow:visible;vector-effect:none;fill:url(#linearGradient2);stroke-linecap:round;stroke-linejoin:round;enable-background:accumulate;stop-color:#000000;stop-opacity:1;opacity:1;fill-opacity:1"
     d="M 127.1543 32 C 104.91946 32.289637 85.555554 44.13138 74.320312 61.650391 C 56.293005 65.693111 40.832953 71.699532 29.164062 79.513672 C 16.766337 87.815883 8 98.870526 8 112 C 8 121.14932 12.416702 129.52292 19.107422 136.30273 C 25.798141 143.08255 34.839494 148.66159 45.650391 153.29492 C 67.272183 162.56159 96.143607 168 128 168 C 159.85639 168 188.72782 162.56159 210.34961 153.29492 C 221.16051 148.66159 230.20186 143.08255 236.89258 136.30273 C 243.5833 129.52292 248 121.14932 248 112 C 248 98.891579 239.27913 87.848094 226.94336 79.564453 C 215.32884 71.765141 199.94589 65.774376 182.00781 61.720703 C 170.47876 43.639144 150.13261 31.697056 127.15625 32 L 127.1543 32 z M 127.36328 48 A 8.0008 8.0008 0 0 0 127.36523 48 C 145.57506 47.759349 161.45248 57.565491 169.78711 72.277344 A 8 8 0 0 0 170.24023 73.097656 C 173.91522 79.892667 176.00073 87.690119 176 96 L 176 99.869141 C 175.9858 103.61345 173.47546 106.76569 169.83203 107.62305 C 156.11599 110.63901 142.10597 112.10916 128.0625 112 A 8.0008 8.0008 0 0 0 127.9375 112 C 113.88259 112.10934 99.860102 110.63931 86.132812 107.62109 C 82.502218 106.77233 80.003688 103.63006 80 99.900391 L 80 96.830078 C 80 88.277319 82.180446 80.199805 86.019531 73.167969 A 8 8 0 0 0 86.59375 72.144531 C 94.804305 57.922373 109.89717 48.22698 127.36328 48 z M 66.121094 80.330078 C 64.736021 85.614799 64 91.148266 64 96.830078 L 64 99.900391 A 8.0008 8.0008 0 0 0 64 99.904297 C 64.0057 110.99467 71.729374 120.70817 82.533203 123.21289 A 8.0008 8.0008 0 0 0 82.619141 123.23242 C 97.520014 126.5148 112.74244 128.11206 128 127.99805 C 143.25116 128.11191 158.46699 126.51474 173.36133 123.23242 A 8.0008 8.0008 0 0 0 173.45898 123.21094 C 184.24325 120.6916 191.95814 111.00421 192 99.929688 A 8.0008 8.0008 0 0 0 192 99.900391 L 192 96 C 192.00045 90.61504 191.32938 85.382677 190.06836 80.382812 C 201.45394 83.829324 211.02224 88.146253 218.02344 92.847656 C 227.86517 99.456516 232 106.10842 232 112 C 232 116.10568 230.14951 120.35896 225.50586 125.06445 C 220.8622 129.76995 213.50349 134.53498 204.04688 138.58789 C 185.13367 146.69372 158.00361 152 128 152 C 97.996393 152 70.866333 146.69372 51.953125 138.58789 C 42.496521 134.53498 35.137796 129.76995 30.494141 125.06445 C 25.850485 120.35896 24 116.10568 24 112 C 24 106.12947 28.163587 99.43943 38.068359 92.806641 C 45.101436 88.096899 54.700767 83.774338 66.121094 80.330078 z M 128 184 A 8 8 0 0 0 120 192 L 120 224 A 8 8 0 0 0 128 232 A 8 8 0 0 0 136 224 L 136 192 A 8 8 0 0 0 128 184 z M 88.478516 184.01367 A 8 8 0 0 0 80.410156 189.4707 L 72.410156 213.4707 A 8 8 0 0 0 77.470703 223.58984 A 8 8 0 0 0 87.589844 218.5293 L 95.589844 194.5293 A 8 8 0 0 0 90.529297 184.41016 A 8 8 0 0 0 88.478516 184.01367 z M 167.52148 184.01367 A 8 8 0 0 0 165.4707 184.41016 A 8 8 0 0 0 160.41016 194.5293 L 168.41016 218.5293 A 8 8 0 0 0 178.5293 223.58984 A 8 8 0 0 0 183.58984 213.4707 L 175.58984 189.4707 A 8 8 0 0 0 167.52148 184.01367 z " />
</svg>
