<?xml version="1.0" encoding="UTF-8" standalone="no"?>
<svg
   viewBox="0 0 256 256"
   version="1.1"
   id="svg1"
   sodipodi:docname="framer logo blue_purple.svg"
   xmlns:inkscape="http://www.inkscape.org/namespaces/inkscape"
   xmlns:sodipodi="http://sodipodi.sourceforge.net/DTD/sodipodi-0.dtd"
   xmlns:xlink="http://www.w3.org/1999/xlink"
   xmlns="http://www.w3.org/2000/svg"
   xmlns:svg="http://www.w3.org/2000/svg">
  <defs
     id="defs3">
    <linearGradient
       id="linearGradient1"
       inkscape:collect="always">
      <stop
         style="stop-color:#a03291;stop-opacity:1;"
         offset="0"
         id="stop1" />
      <stop
         style="stop-color:#4b4fe2ff;stop-opacity:1;"
         offset="0.76340693"
         id="stop2" />
    </linearGradient>
    <linearGradient
       inkscape:collect="always"
       xlink:href="#linearGradient1"
       id="linearGradient2"
       x1="232.4884"
       y1="23.847498"
       x2="23.977745"
       y2="232.35815"
       gradientUnits="userSpaceOnUse" />
  </defs>
  <defs
     id="defs1" />
  <sodipodi:namedview
     id="namedview1"
     pagecolor="#ffffff"
     bordercolor="#000000"
     borderopacity="0.25"
     inkscape:showpageshadow="2"
     inkscape:pageopacity="0.0"
     inkscape:pagecheckerboard="0"
     inkscape:deskcolor="#d1d1d1" />
  <path
     id="polygon1"
     style="baseline-shift:baseline;display:inline;overflow:visible;vector-effect:none;fill:url(#linearGradient2);stroke-linecap:round;stroke-linejoin:round;enable-background:accumulate;stop-color:#000000;stop-opacity:1;opacity:1;fill-opacity:1"
     d="M 56 32 A 8.0008 8.0008 0 0 0 50.685547 45.978516 L 106.95898 96 L 56 96 A 8.0008 8.0008 0 0 0 48 104 L 48 168 A 8.0008 8.0008 0 0 0 50.34375 173.65625 L 122.34375 245.65625 A 8.0008 8.0008 0 0 0 136 240 L 136 176 L 200 176 A 8.0008 8.0008 0 0 0 205.31445 162.02148 L 149.04102 112 L 200 112 A 8.0008 8.0008 0 0 0 208 104 L 208 40 A 8.0008 8.0008 0 0 0 200 32 L 56 32 z M 77.041016 48 L 192 48 L 192 96 L 131.04102 96 L 77.041016 48 z M 64 112 L 124.95898 112 L 178.95898 160 L 128 160 A 8.0008 8.0008 0 0 0 120 168 L 120 220.6875 L 64 164.68555 L 64 112 z " />
</svg>
