<?xml version="1.0" encoding="UTF-8" standalone="no"?>
<svg
   viewBox="0 0 256 256"
   version="1.1"
   id="svg3"
   sodipodi:docname="git fork blue_purple.svg"
   xmlns:inkscape="http://www.inkscape.org/namespaces/inkscape"
   xmlns:sodipodi="http://sodipodi.sourceforge.net/DTD/sodipodi-0.dtd"
   xmlns:xlink="http://www.w3.org/1999/xlink"
   xmlns="http://www.w3.org/2000/svg"
   xmlns:svg="http://www.w3.org/2000/svg">
  <defs
     id="defs3">
    <linearGradient
       id="linearGradient1"
       inkscape:collect="always">
      <stop
         style="stop-color:#a03291;stop-opacity:1;"
         offset="0"
         id="stop1" />
      <stop
         style="stop-color:#4b4fe2ff;stop-opacity:1;"
         offset="0.76340693"
         id="stop2" />
    </linearGradient>
    <linearGradient
       inkscape:collect="always"
       xlink:href="#linearGradient1"
       id="linearGradient2"
       x1="232.4884"
       y1="23.847498"
       x2="23.977745"
       y2="232.35815"
       gradientUnits="userSpaceOnUse" />
  </defs>
  <defs
     id="defs1" />
  <sodipodi:namedview
     id="namedview3"
     pagecolor="#ffffff"
     bordercolor="#000000"
     borderopacity="0.25"
     inkscape:showpageshadow="2"
     inkscape:pageopacity="0.0"
     inkscape:pagecheckerboard="0"
     inkscape:deskcolor="#d1d1d1" />
  <path
     id="path1"
     style="baseline-shift:baseline;display:inline;overflow:visible;vector-effect:none;fill:url(#linearGradient2);stroke-linecap:round;stroke-linejoin:round;enable-background:accumulate;stop-color:#000000;stop-opacity:1;opacity:1;fill-opacity:1"
     d="M 64 32 C 46.421645 32 32 46.421645 32 64 C 32 78.819409 42.249911 91.395984 56 94.978516 L 56 112 C 56 125.16008 66.839923 136 80 136 L 120 136 L 120 161.02148 C 106.24991 164.60402 96 177.1806 96 192 C 96 209.57835 110.42165 224 128 224 C 145.57835 224 160 209.57835 160 192 C 160 177.1806 149.75009 164.60402 136 161.02148 L 136 136 L 176 136 C 189.16008 136 200 125.16008 200 112 L 200 94.978516 C 213.75009 91.395984 224 78.819408 224 64 C 224 46.421645 209.57835 32 192 32 C 174.42165 32 160 46.421645 160 64 C 160 78.819408 170.24991 91.395984 184 94.978516 L 184 112 C 184 116.51304 180.51304 120 176 120 L 80 120 C 75.486965 120 72 116.51304 72 112 L 72 94.978516 C 85.750089 91.395984 96 78.819409 96 64 C 96 46.421645 81.578355 32 64 32 z M 64 48 C 72.931313 48 80 55.068687 80 64 C 80 72.931296 72.931289 79.999973 64 80 C 55.068687 80 48 72.931313 48 64 C 48 55.068687 55.068687 48 64 48 z M 192 48 C 200.93131 48 208 55.068687 208 64 C 208 72.931296 200.93129 79.999973 192 80 C 183.06869 80 176 72.931313 176 64 C 176 55.068687 183.06869 48 192 48 z M 128 176 C 136.93131 176 144 183.06869 144 192 C 144 200.93131 136.93131 208 128 208 C 119.06869 208 112 200.93131 112 192 C 112 183.06869 119.06869 176 128 176 z " />
</svg>
