<?xml version="1.0" encoding="UTF-8" standalone="no"?>
<svg
   viewBox="0 0 256 256"
   version="1.1"
   id="svg4"
   sodipodi:docname="globe simple x blue_purple.svg"
   xmlns:inkscape="http://www.inkscape.org/namespaces/inkscape"
   xmlns:sodipodi="http://sodipodi.sourceforge.net/DTD/sodipodi-0.dtd"
   xmlns:xlink="http://www.w3.org/1999/xlink"
   xmlns="http://www.w3.org/2000/svg"
   xmlns:svg="http://www.w3.org/2000/svg">
  <defs
     id="defs3">
    <linearGradient
       id="linearGradient1"
       inkscape:collect="always">
      <stop
         style="stop-color:#a03291;stop-opacity:1;"
         offset="0"
         id="stop1" />
      <stop
         style="stop-color:#4b4fe2ff;stop-opacity:1;"
         offset="0.76340693"
         id="stop2" />
    </linearGradient>
    <linearGradient
       inkscape:collect="always"
       xlink:href="#linearGradient1"
       id="linearGradient2"
       x1="232.4884"
       y1="23.847498"
       x2="23.977745"
       y2="232.35815"
       gradientUnits="userSpaceOnUse" />
  </defs>
  <defs
     id="defs4" />
  <sodipodi:namedview
     id="namedview4"
     pagecolor="#ffffff"
     bordercolor="#000000"
     borderopacity="0.25"
     inkscape:showpageshadow="2"
     inkscape:pageopacity="0.0"
     inkscape:pagecheckerboard="0"
     inkscape:deskcolor="#d1d1d1" />
  <path
     id="line1"
     style="baseline-shift:baseline;display:inline;overflow:visible;vector-effect:none;fill:url(#linearGradient2);stroke-linecap:round;stroke-linejoin:round;enable-background:accumulate;stop-color:#000000;stop-opacity:1;opacity:1;fill-opacity:1"
     d="M 128 24 A 8.0008 8.0008 0 0 0 127.64648 24.007812 C 100.71119 24.111945 74.254895 34.674792 54.464844 54.464844 C 34.674176 74.255511 24.111222 100.71267 24.007812 127.64844 A 8 8 0 0 0 24 128 A 8 8 0 0 0 24.007812 128.34375 C 24.045841 141.63921 26.632958 155.03919 31.917969 167.79883 C 47.86553 206.30114 85.314723 231.48119 126.91797 231.91797 A 8 8 0 0 0 127.92383 231.99414 C 127.94959 231.99416 127.97424 232 128 232 A 8 8 0 0 0 128.44922 231.9707 A 8 8 0 0 0 128.96094 231.9375 A 8 8 0 0 0 129.47852 231.8457 A 8 8 0 0 0 129.99219 231.74219 A 8 8 0 0 0 130.48242 231.58789 A 8 8 0 0 0 130.98438 231.41602 A 8 8 0 0 0 131.45898 231.19336 A 8 8 0 0 0 131.92383 230.96484 A 8 8 0 0 0 132.39453 230.66406 A 8 8 0 0 0 132.79688 230.39648 A 8 8 0 0 0 133.18555 230.07031 A 8 8 0 0 0 133.60547 229.70117 A 8 8 0 0 0 133.92578 229.34961 A 8 8 0 0 0 134.24609 228.99805 A 8 8 0 0 0 134.29102 228.93359 A 8 8 0 0 0 134.58594 228.51172 A 8 8 0 0 0 134.88672 228.0625 A 8 8 0 0 0 135.11914 227.61133 A 8 8 0 0 0 135.35352 227.13672 A 8 8 0 0 0 135.53125 226.64844 A 8 8 0 0 0 135.70117 226.14258 A 8 8 0 0 0 135.8125 225.63672 A 8 8 0 0 0 135.91406 225.12891 A 8 8 0 0 0 135.96289 224.58008 A 8 8 0 0 0 135.99414 224.08398 A 8 8 0 0 0 136 224 A 8 8 0 0 0 135.96875 223.52539 A 8 8 0 0 0 135.93945 223.04688 A 8 8 0 0 0 135.83398 222.45703 A 8 8 0 0 0 135.75 222.03125 A 8 8 0 0 0 135.56641 221.45117 A 8 8 0 0 0 135.42773 221.03711 A 8 8 0 0 0 135.17969 220.51172 A 8 8 0 0 0 134.97852 220.0957 A 8 8 0 0 0 134.66406 219.60352 A 8 8 0 0 0 134.41211 219.22266 A 8 8 0 0 0 134.05469 218.79492 A 8 8 0 0 0 133.73828 218.42773 A 8 8 0 0 0 133.28125 218.01172 A 8 8 0 0 0 132.99805 217.75391 C 132.99805 217.75391 132.97691 217.73648 132.93555 217.70312 C 131.32629 216.40561 99.180088 189.84224 96.21875 136 L 168 136 L 224 136 A 8 8 0 0 0 225.04492 135.93164 A 8 8 0 0 0 232 128 A 8 8 0 0 0 231.91602 126.875 C 231.46213 85.289131 206.28774 47.859982 167.79883 31.917969 C 155.66122 26.890603 142.94642 24.304173 130.29102 24.03125 C 129.64231 24.01726 128.994 24.009662 128.3457 24.007812 A 8.0008 8.0008 0 0 0 128 24 z M 107.88867 42.322266 C 96.333713 57.725245 82.071732 83.763381 80.205078 120 L 40.357422 120 C 42.191392 99.929441 50.903696 80.650991 65.777344 65.777344 C 77.627376 53.927312 92.273722 45.988093 107.88867 42.322266 z M 148.11328 42.324219 C 152.69541 43.402008 157.2316 44.85764 161.67773 46.699219 C 192.09712 59.298853 212.70089 87.648721 215.63867 120 L 175.79492 120 C 173.92838 83.765484 159.66789 57.727539 148.11328 42.324219 z M 128 42.996094 C 137.26208 52.371489 157.49262 77.342651 159.78711 120 L 96.212891 120 C 98.507382 77.342651 118.73792 52.371489 128 42.996094 z M 40.355469 136 L 80.205078 136 C 82.071778 172.23752 96.333559 198.27686 107.88867 213.67969 C 80.699879 207.30776 57.69834 188.23299 46.699219 161.67773 C 43.245185 153.33864 41.149154 144.68423 40.355469 136 z M 168 160 A 8 8 0 0 0 162.34375 162.34375 A 8 8 0 0 0 162.34375 173.65625 L 180.6875 192 L 162.34375 210.34375 A 8 8 0 0 0 162.34375 221.65625 A 8 8 0 0 0 173.65625 221.65625 L 192 203.3125 L 210.34375 221.65625 A 8 8 0 0 0 221.65625 221.65625 A 8 8 0 0 0 221.65625 210.34375 L 203.3125 192 L 221.65625 173.65625 A 8 8 0 0 0 221.65625 162.34375 A 8 8 0 0 0 216 160 A 8 8 0 0 0 210.34375 162.34375 L 192 180.6875 L 173.65625 162.34375 A 8 8 0 0 0 168 160 z " />
</svg>
