<?xml version="1.0" encoding="UTF-8" standalone="no"?>
<svg
   viewBox="0 0 256 256"
   version="1.1"
   id="svg2"
   sodipodi:docname="globe hemisphere east blue_purple.svg"
   xmlns:inkscape="http://www.inkscape.org/namespaces/inkscape"
   xmlns:sodipodi="http://sodipodi.sourceforge.net/DTD/sodipodi-0.dtd"
   xmlns:xlink="http://www.w3.org/1999/xlink"
   xmlns="http://www.w3.org/2000/svg"
   xmlns:svg="http://www.w3.org/2000/svg">
  <defs
     id="defs3">
    <linearGradient
       id="linearGradient1"
       inkscape:collect="always">
      <stop
         style="stop-color:#a03291;stop-opacity:1;"
         offset="0"
         id="stop1" />
      <stop
         style="stop-color:#4b4fe2ff;stop-opacity:1;"
         offset="0.76340693"
         id="stop2" />
    </linearGradient>
    <linearGradient
       inkscape:collect="always"
       xlink:href="#linearGradient1"
       id="linearGradient2"
       x1="232.4884"
       y1="23.847498"
       x2="23.977745"
       y2="232.35815"
       gradientUnits="userSpaceOnUse" />
  </defs>
  <defs
     id="defs2" />
  <sodipodi:namedview
     id="namedview2"
     pagecolor="#ffffff"
     bordercolor="#000000"
     borderopacity="0.25"
     inkscape:showpageshadow="2"
     inkscape:pageopacity="0.0"
     inkscape:pagecheckerboard="0"
     inkscape:deskcolor="#d1d1d1" />
  <path
     id="circle1"
     style="baseline-shift:baseline;display:inline;overflow:visible;vector-effect:none;fill:url(#linearGradient2);stroke-linecap:round;stroke-linejoin:round;enable-background:accumulate;stop-color:#000000;stop-opacity:1;opacity:1;fill-opacity:1"
     d="M 128 24 C 70.657143 24 24 70.657143 24 128 C 24 150.6098 31.25447 171.55836 43.556641 188.64062 A 8 8 0 0 0 43.804688 189.04492 A 8 8 0 0 0 44.597656 190.0625 C 63.575353 215.49865 93.89851 232 128 232 C 150.49258 232 171.34147 224.82102 188.375 212.63477 A 8 8 0 0 0 189.82617 211.57617 C 203.35116 201.54434 214.36866 188.31393 221.74609 173.01172 A 8 8 0 0 0 222.61523 171.16016 C 228.63997 158.0062 232 143.38814 232 128 C 232 93.627528 215.23601 63.094726 189.45508 44.148438 A 8 8 0 0 0 187.82031 42.970703 C 170.88954 31.023429 150.24954 24 128 24 z M 128 40 C 145.72522 40 162.2061 45.207085 176 54.179688 L 176 73.976562 A 8.0008 8.0008 0 0 0 175.99023 73.988281 L 153.81641 99.810547 A 8.0008 8.0008 0 0 0 153.80664 99.8125 L 122.36523 104.07031 C 122.35003 104.07131 122.33947 104.06829 122.32617 104.05859 A 8.0008 8.0008 0 0 0 122.03906 103.86133 L 102.22852 90.861328 L 102.28711 90.902344 C 95.056206 85.860672 84.810748 87.739493 79.865234 95.080078 A 8.0008 8.0008 0 0 0 79.851562 95.101562 L 58.910156 126.40234 A 8.0008 8.0008 0 0 0 58.900391 126.41797 C 57.167353 129.02192 56.232536 132.07722 56.210938 135.20508 A 8.0008 8.0008 0 0 0 56.210938 135.21289 L 56 171.44336 A 8.0008 8.0008 0 0 0 56 171.45508 L 52.691406 173.62891 C 44.634067 160.33372 40 144.72087 40 128 C 40 79.304185 79.304185 40 128 40 z M 192 67.527344 C 206.88678 83.280647 216 104.55187 216 128 C 216 137.40865 214.53324 146.46729 211.81445 154.95898 L 195.67383 140.20117 C 192.244 137.05931 187.65238 135.61578 183.1543 136.09375 C 181.65494 136.25307 180.16643 136.62645 178.73438 137.2207 A 8.0008 8.0008 0 0 0 178.72852 137.22266 L 148.2793 149.88281 C 143.0984 152.03322 139.40636 156.7709 138.58594 162.32031 A 8.0008 8.0008 0 0 0 138.58594 162.32812 L 136.20508 178.52734 C 135.02988 186.52432 140.14786 194.2701 147.96484 196.32617 A 8.0008 8.0008 0 0 0 147.9668 196.32812 L 169.39258 201.95703 A 8.0008 8.0008 0 0 0 169.40039 201.96289 L 171.81445 204.37891 C 158.92226 211.77454 143.96546 216 128 216 C 101.79739 216 78.314793 204.61937 62.210938 186.51953 L 64.804688 184.81445 A 8.0008 8.0008 0 0 0 64.820312 184.80469 C 69.275053 181.86151 71.976794 176.86454 72 171.52539 L 72.208984 135.31445 C 72.20907 135.30205 72.213883 135.2935 72.220703 135.2832 L 93.134766 104.01953 A 8.0008 8.0008 0 0 0 93.451172 104.23828 L 113.23047 117.2168 C 113.23121 117.21731 113.23168 117.21824 113.23242 117.21875 C 116.50827 119.48259 120.51616 120.45396 124.4707 119.92969 A 8.0008 8.0008 0 0 0 124.49414 119.92773 L 155.94336 115.66992 L 155.95312 115.66797 C 159.83187 115.14543 163.38994 113.21639 165.94336 110.25 A 8.0008 8.0008 0 0 0 165.94922 110.24219 L 188.11914 84.421875 C 190.61088 81.530682 191.98916 77.840198 192 74.023438 A 8.0008 8.0008 0 0 0 192 74 L 192 67.527344 z M 184.87109 151.99609 L 184.86523 152 A 8.0008 8.0008 0 0 0 184.87109 152.00391 L 205.11133 170.50977 C 199.95839 179.85846 193.1564 188.16238 185.0918 195.0332 L 180.72656 190.66406 C 178.72105 188.65098 176.21467 187.2081 173.4668 186.48438 A 8.0008 8.0008 0 0 0 173.46289 186.48242 L 152.03516 180.85352 L 154.41406 164.65234 L 154.41406 164.66016 A 8.0008 8.0008 0 0 0 154.42188 164.65625 L 184.87109 151.99609 z " />
</svg>
