<?xml version="1.0" encoding="UTF-8" standalone="no"?>
<svg
   viewBox="0 0 256 256"
   version="1.1"
   id="svg8"
   sodipodi:docname="graph blue_purple.svg"
   xmlns:inkscape="http://www.inkscape.org/namespaces/inkscape"
   xmlns:sodipodi="http://sodipodi.sourceforge.net/DTD/sodipodi-0.dtd"
   xmlns:xlink="http://www.w3.org/1999/xlink"
   xmlns="http://www.w3.org/2000/svg"
   xmlns:svg="http://www.w3.org/2000/svg">
  <defs
     id="defs3">
    <linearGradient
       id="linearGradient1"
       inkscape:collect="always">
      <stop
         style="stop-color:#a03291;stop-opacity:1;"
         offset="0"
         id="stop1" />
      <stop
         style="stop-color:#4b4fe2ff;stop-opacity:1;"
         offset="0.76340693"
         id="stop2" />
    </linearGradient>
    <linearGradient
       inkscape:collect="always"
       xlink:href="#linearGradient1"
       id="linearGradient2"
       x1="232.4884"
       y1="23.847498"
       x2="23.977745"
       y2="232.35815"
       gradientUnits="userSpaceOnUse" />
  </defs>
  <defs
     id="defs8" />
  <sodipodi:namedview
     id="namedview8"
     pagecolor="#ffffff"
     bordercolor="#000000"
     borderopacity="0.25"
     inkscape:showpageshadow="2"
     inkscape:pageopacity="0.0"
     inkscape:pagecheckerboard="0"
     inkscape:deskcolor="#d1d1d1" />
  <path
     id="circle1"
     style="baseline-shift:baseline;display:inline;overflow:visible;vector-effect:none;fill:url(#linearGradient2);stroke-linecap:round;stroke-linejoin:round;enable-background:accumulate;stop-color:#000000;stop-opacity:1;opacity:1;fill-opacity:1"
     d="M 96 24 C 78.421645 24 64 38.421645 64 56 C 64 73.578355 78.421645 88 96 88 C 97.795183 88 99.558053 87.849368 101.27539 87.560547 L 108.125 102.98047 C 100.75228 108.85991 96 117.91005 96 128 C 96 133.24088 97.281539 138.20089 99.546875 142.58203 L 73.814453 165.4668 C 68.711541 162.01952 62.576496 160 56 160 C 38.421645 160 24 174.42165 24 192 C 24 209.57835 38.421645 224 56 224 C 73.578355 224 88 209.57835 88 192 C 88 186.75912 86.718461 181.79911 84.453125 177.41797 L 110.18555 154.5332 C 115.28846 157.98048 121.42351 160 128 160 C 135.32177 160 142.09539 157.4986 147.50781 153.30859 L 170.64844 171.30664 C 168.94615 175.20492 168 179.49854 168 184 C 168 201.57835 182.42165 216 200 216 C 217.57835 216 232 201.57835 232 184 C 232 166.42165 217.57835 152 200 152 C 192.67823 152 185.90461 154.5014 180.49219 158.69141 L 157.35156 140.69336 C 159.05385 136.79508 160 132.50146 160 128 C 160 127.25815 159.97435 126.52273 159.92383 125.79297 L 173.17383 121.375 C 178.89964 130.15653 188.81059 136 200 136 C 217.57835 136 232 121.57835 232 104 C 232 86.421645 217.57835 72 200 72 C 182.42165 72 168 86.421645 168 104 C 168 104.74185 168.02565 105.47727 168.07617 106.20703 L 154.82617 110.625 C 149.10036 101.84347 139.18941 96 128 96 C 126.20482 96 124.44195 96.150632 122.72461 96.439453 L 115.875 81.019531 C 123.24772 75.14009 128 66.089949 128 56 C 128 38.421645 113.57835 24 96 24 z M 96 40 C 104.93131 40 112 47.068687 112 56 C 112 62.376966 108.3962 67.803861 103.08398 70.386719 A 8 8 0 0 0 102.50195 70.619141 A 8 8 0 0 0 101.98828 70.869141 C 100.14443 71.599191 98.124792 72 96 72 C 87.068687 72 80 64.931313 80 56 C 80 47.068687 87.068687 40 96 40 z M 200 88 C 208.93131 88 216 95.068687 216 104 C 216 112.93131 208.93131 120 200 120 C 193.03444 120 187.20271 115.69973 184.97266 109.57031 A 8 8 0 0 0 184.82031 109.06055 A 8 8 0 0 0 184.66016 108.62109 C 184.23056 107.16158 184 105.61134 184 104 C 184 95.068687 191.06869 88 200 88 z M 128 112 C 134.96556 112 140.79729 116.30027 143.02734 122.42969 A 8 8 0 0 0 143.17969 122.93945 A 8 8 0 0 0 143.33984 123.37891 C 143.76944 124.83842 144 126.38866 144 128 C 144 131.46332 142.93748 134.64649 141.11523 137.24609 A 8 8 0 0 0 140.625 137.81836 A 8 8 0 0 0 140.17969 138.45117 C 137.26052 141.86113 132.91185 144 128 144 C 123.46332 144 119.40688 142.1763 116.51367 139.21094 A 8 8 0 0 0 116.03906 138.62305 A 8 8 0 0 0 115.52344 138.09375 C 113.31356 135.35302 112 131.8499 112 128 C 112 121.62268 115.60332 116.19597 120.91602 113.61328 A 8 8 0 0 0 121.49805 113.38086 A 8 8 0 0 0 122.01172 113.13086 C 123.85557 112.40081 125.87521 112 128 112 z M 200 168 C 208.93131 168 216 175.06869 216 184 C 216 192.93131 208.93131 200 200 200 C 191.06869 200 184 192.93131 184 184 C 184 180.53631 185.06411 177.35367 186.88672 174.75391 A 8 8 0 0 0 187.375 174.18164 A 8 8 0 0 0 187.82031 173.54883 C 190.73948 170.13887 195.08815 168 200 168 z M 56 176 C 60.536678 176 64.593125 177.82371 67.486328 180.78906 A 8 8 0 0 0 67.960938 181.37695 A 8 8 0 0 0 68.476562 181.90625 C 70.686211 184.64691 72 188.15033 72 192 C 72 200.93131 64.931313 208 56 208 C 47.068687 208 40 200.93131 40 192 C 40 183.06869 47.068687 176 56 176 z " />
</svg>
