<?xml version="1.0" encoding="UTF-8" standalone="no"?>
<svg
   viewBox="0 0 256 256"
   version="1.1"
   id="svg4"
   sodipodi:docname="hard drives blue_purple.svg"
   xmlns:inkscape="http://www.inkscape.org/namespaces/inkscape"
   xmlns:sodipodi="http://sodipodi.sourceforge.net/DTD/sodipodi-0.dtd"
   xmlns:xlink="http://www.w3.org/1999/xlink"
   xmlns="http://www.w3.org/2000/svg"
   xmlns:svg="http://www.w3.org/2000/svg">
  <defs
     id="defs3">
    <linearGradient
       id="linearGradient1"
       inkscape:collect="always">
      <stop
         style="stop-color:#a03291;stop-opacity:1;"
         offset="0"
         id="stop1" />
      <stop
         style="stop-color:#4b4fe2ff;stop-opacity:1;"
         offset="0.76340693"
         id="stop2" />
    </linearGradient>
    <linearGradient
       inkscape:collect="always"
       xlink:href="#linearGradient1"
       id="linearGradient2"
       x1="232.4884"
       y1="23.847498"
       x2="23.977745"
       y2="232.35815"
       gradientUnits="userSpaceOnUse" />
  </defs>
  <defs
     id="defs4" />
  <sodipodi:namedview
     id="namedview4"
     pagecolor="#ffffff"
     bordercolor="#000000"
     borderopacity="0.25"
     inkscape:showpageshadow="2"
     inkscape:pageopacity="0.0"
     inkscape:pagecheckerboard="0"
     inkscape:deskcolor="#d1d1d1" />
  <path
     id="rect2"
     style="baseline-shift:baseline;display:inline;overflow:visible;vector-effect:none;fill:url(#linearGradient2);stroke-linecap:round;stroke-linejoin:round;enable-background:accumulate;stop-color:#000000;stop-opacity:1;opacity:1;fill-opacity:1"
     d="M 48 40 C 39.274378 40 32 47.274378 32 56 L 32 104 C 32 112.72562 39.274378 120 48 120 L 208 120 C 216.72562 120 224 112.72562 224 104 L 224 56 C 224 47.274378 216.72562 40 208 40 L 48 40 z M 48 56 L 208 56 L 208 104 L 48 104 L 48 56 z M 180 68 A 12 12 0 0 0 168 80 A 12 12 0 0 0 180 92 A 12 12 0 0 0 192 80 A 12 12 0 0 0 180 68 z M 48 136 C 39.274378 136 32 143.27438 32 152 L 32 200 C 32 208.72562 39.274378 216 48 216 L 208 216 C 216.72562 216 224 208.72562 224 200 L 224 152 C 224 143.27438 216.72562 136 208 136 L 48 136 z M 48 152 L 208 152 L 208 200 L 48 200 L 48 152 z M 180 164 A 12 12 0 0 0 168 176 A 12 12 0 0 0 180 188 A 12 12 0 0 0 192 176 A 12 12 0 0 0 180 164 z " />
</svg>
