<?xml version="1.0" encoding="UTF-8" standalone="no"?>
<svg
   viewBox="0 0 256 256"
   version="1.1"
   id="svg4"
   sodipodi:docname="hash straight blue_purple.svg"
   xmlns:inkscape="http://www.inkscape.org/namespaces/inkscape"
   xmlns:sodipodi="http://sodipodi.sourceforge.net/DTD/sodipodi-0.dtd"
   xmlns:xlink="http://www.w3.org/1999/xlink"
   xmlns="http://www.w3.org/2000/svg"
   xmlns:svg="http://www.w3.org/2000/svg">
  <defs
     id="defs3">
    <linearGradient
       id="linearGradient1"
       inkscape:collect="always">
      <stop
         style="stop-color:#a03291;stop-opacity:1;"
         offset="0"
         id="stop1" />
      <stop
         style="stop-color:#4b4fe2ff;stop-opacity:1;"
         offset="0.76340693"
         id="stop2" />
    </linearGradient>
    <linearGradient
       inkscape:collect="always"
       xlink:href="#linearGradient1"
       id="linearGradient2"
       x1="232.4884"
       y1="23.847498"
       x2="23.977745"
       y2="232.35815"
       gradientUnits="userSpaceOnUse" />
  </defs>
  <defs
     id="defs4" />
  <sodipodi:namedview
     id="namedview4"
     pagecolor="#ffffff"
     bordercolor="#000000"
     borderopacity="0.25"
     inkscape:showpageshadow="2"
     inkscape:pageopacity="0.0"
     inkscape:pagecheckerboard="0"
     inkscape:deskcolor="#d1d1d1" />
  <path
     id="line1"
     style="baseline-shift:baseline;display:inline;overflow:visible;vector-effect:none;fill:url(#linearGradient2);stroke-linecap:round;stroke-linejoin:round;enable-background:accumulate;stop-color:#000000;stop-opacity:1;opacity:1;fill-opacity:1"
     d="M 96 32 A 8 8 0 0 0 88 40 L 88 88 L 40 88 A 8 8 0 0 0 32 96 A 8 8 0 0 0 40 104 L 88 104 L 88 152 L 40 152 A 8 8 0 0 0 32 160 A 8 8 0 0 0 40 168 L 88 168 L 88 216 A 8 8 0 0 0 96 224 A 8 8 0 0 0 104 216 L 104 168 L 152 168 L 152 216 A 8 8 0 0 0 160 224 A 8 8 0 0 0 168 216 L 168 168 L 216 168 A 8 8 0 0 0 224 160 A 8 8 0 0 0 216 152 L 168 152 L 168 104 L 216 104 A 8 8 0 0 0 224 96 A 8 8 0 0 0 216 88 L 168 88 L 168 40 A 8 8 0 0 0 160 32 A 8 8 0 0 0 152 40 L 152 88 L 104 88 L 104 40 A 8 8 0 0 0 96 32 z M 104 104 L 152 104 L 152 152 L 104 152 L 104 104 z " />
</svg>
