<?xml version="1.0" encoding="UTF-8" standalone="no"?>
<svg
   viewBox="0 0 256 256"
   version="1.1"
   id="svg4"
   sodipodi:docname="headlights blue_purple.svg"
   xmlns:inkscape="http://www.inkscape.org/namespaces/inkscape"
   xmlns:sodipodi="http://sodipodi.sourceforge.net/DTD/sodipodi-0.dtd"
   xmlns:xlink="http://www.w3.org/1999/xlink"
   xmlns="http://www.w3.org/2000/svg"
   xmlns:svg="http://www.w3.org/2000/svg">
  <defs
     id="defs3">
    <linearGradient
       id="linearGradient1"
       inkscape:collect="always">
      <stop
         style="stop-color:#a03291;stop-opacity:1;"
         offset="0"
         id="stop1" />
      <stop
         style="stop-color:#4b4fe2ff;stop-opacity:1;"
         offset="0.76340693"
         id="stop2" />
    </linearGradient>
    <linearGradient
       inkscape:collect="always"
       xlink:href="#linearGradient1"
       id="linearGradient2"
       x1="232.4884"
       y1="23.847498"
       x2="23.977745"
       y2="232.35815"
       gradientUnits="userSpaceOnUse" />
  </defs>
  <defs
     id="defs4" />
  <sodipodi:namedview
     id="namedview4"
     pagecolor="#ffffff"
     bordercolor="#000000"
     borderopacity="0.25"
     inkscape:showpageshadow="2"
     inkscape:pageopacity="0.0"
     inkscape:pagecheckerboard="0"
     inkscape:deskcolor="#d1d1d1" />
  <path
     id="line1"
     style="baseline-shift:baseline;display:inline;overflow:visible;vector-effect:none;fill:url(#linearGradient2);stroke-linecap:round;stroke-linejoin:round;enable-background:accumulate;stop-color:#000000;stop-opacity:1;opacity:1;fill-opacity:1"
     d="M 88.900391 48 C 44.935067 48 8.3331527 83.301468 8 127.38867 C 7.6614025 171.71287 43.674508 208.00129 88 208 L 128 208 C 136.7418 208 144 200.7418 144 192 L 144 64 C 144 55.258201 136.7418 48 128 48 L 88.900391 48 z M 88.900391 64 L 128 64 L 128 192 L 88 192 C 52.364923 192.001 23.727788 163.14576 24 127.51172 A 8.0008 8.0008 0 0 0 24 127.50977 C 24.266847 92.197015 53.465714 64 88.900391 64 z M 168 72 A 8 8 0 0 0 160 80 A 8 8 0 0 0 168 88 L 240 88 A 8 8 0 0 0 248 80 A 8 8 0 0 0 240 72 L 168 72 z M 168 104 A 8 8 0 0 0 160 112 A 8 8 0 0 0 168 120 L 240 120 A 8 8 0 0 0 248 112 A 8 8 0 0 0 240 104 L 168 104 z M 168 136 A 8 8 0 0 0 160 144 A 8 8 0 0 0 168 152 L 240 152 A 8 8 0 0 0 248 144 A 8 8 0 0 0 240 136 L 168 136 z M 168 168 A 8 8 0 0 0 160 176 A 8 8 0 0 0 168 184 L 240 184 A 8 8 0 0 0 248 176 A 8 8 0 0 0 240 168 L 168 168 z " />
</svg>
