<?xml version="1.0" encoding="UTF-8" standalone="no"?>
<svg
   viewBox="0 0 256 256"
   version="1.1"
   id="svg1"
   sodipodi:docname="heart straight break blue_purple.svg"
   xmlns:inkscape="http://www.inkscape.org/namespaces/inkscape"
   xmlns:sodipodi="http://sodipodi.sourceforge.net/DTD/sodipodi-0.dtd"
   xmlns:xlink="http://www.w3.org/1999/xlink"
   xmlns="http://www.w3.org/2000/svg"
   xmlns:svg="http://www.w3.org/2000/svg">
  <defs
     id="defs3">
    <linearGradient
       id="linearGradient1"
       inkscape:collect="always">
      <stop
         style="stop-color:#a03291;stop-opacity:1;"
         offset="0"
         id="stop1" />
      <stop
         style="stop-color:#4b4fe2ff;stop-opacity:1;"
         offset="0.76340693"
         id="stop2" />
    </linearGradient>
    <linearGradient
       inkscape:collect="always"
       xlink:href="#linearGradient1"
       id="linearGradient2"
       x1="232.4884"
       y1="23.847498"
       x2="23.977745"
       y2="232.35815"
       gradientUnits="userSpaceOnUse" />
  </defs>
  <defs
     id="defs1" />
  <sodipodi:namedview
     id="namedview1"
     pagecolor="#ffffff"
     bordercolor="#000000"
     borderopacity="0.25"
     inkscape:showpageshadow="2"
     inkscape:pageopacity="0.0"
     inkscape:pagecheckerboard="0"
     inkscape:deskcolor="#d1d1d1" />
  <path
     id="path1"
     style="baseline-shift:baseline;display:inline;overflow:visible;vector-effect:none;fill:url(#linearGradient2);stroke-linecap:round;stroke-linejoin:round;enable-background:accumulate;stop-color:#000000;stop-opacity:1;opacity:1;fill-opacity:1"
     d="M 74 40.003906 C 59.138072 40.003912 44.275409 45.650372 32.982422 56.943359 C 10.396448 79.529333 10.396431 116.39057 32.982422 138.97656 L 122.30273 229.61523 A 8.0008 8.0008 0 0 0 133.69727 229.61719 L 223.01758 139.01758 L 223.0332 139.00195 C 245.60342 116.41458 245.59827 79.563136 223.01758 56.982422 C 200.45439 34.419243 163.64274 34.396413 141.05078 56.914062 L 141.04102 56.923828 C 141.03971 56.925133 141.03842 56.926429 141.03711 56.927734 L 128.00195 69.482422 L 115.01758 56.943359 C 103.72458 45.650294 88.861928 40.0039 74 40.003906 z M 74 55.902344 C 84.733667 55.902339 95.467319 60.022006 103.70312 68.257812 A 8.0008 8.0008 0 0 0 103.80273 68.355469 L 116.4707 80.587891 L 106.45117 90.238281 A 8.0008 8.0008 0 0 0 106.34375 101.65625 L 132.6875 128 L 122.34375 138.34375 A 8 8 0 0 0 122.34375 149.65625 A 8 8 0 0 0 133.65625 149.65625 L 149.65625 133.65625 A 8.0008 8.0008 0 0 0 149.65625 122.34375 L 123.41992 96.107422 L 133.75391 86.15625 L 152.18945 68.402344 A 8.0008 8.0008 0 0 0 152.29688 68.296875 C 168.7685 51.825262 195.23153 51.825272 211.70312 68.296875 C 228.17473 84.768478 228.17475 111.23152 211.70312 127.70312 A 8.0008 8.0008 0 0 0 211.66211 127.74414 L 128 212.60352 L 44.337891 127.70508 A 8.0008 8.0008 0 0 0 44.296875 127.66406 C 27.825262 111.19245 27.825272 84.729416 44.296875 68.257812 C 52.53268 60.021991 63.266333 55.902349 74 55.902344 z " />
</svg>
