<?xml version="1.0" encoding="UTF-8" standalone="no"?>
<svg
   viewBox="0 0 256 256"
   version="1.1"
   id="svg2"
   sodipodi:docname="image square blue_purple.svg"
   xmlns:inkscape="http://www.inkscape.org/namespaces/inkscape"
   xmlns:sodipodi="http://sodipodi.sourceforge.net/DTD/sodipodi-0.dtd"
   xmlns:xlink="http://www.w3.org/1999/xlink"
   xmlns="http://www.w3.org/2000/svg"
   xmlns:svg="http://www.w3.org/2000/svg">
  <defs
     id="defs3">
    <linearGradient
       id="linearGradient1"
       inkscape:collect="always">
      <stop
         style="stop-color:#a03291;stop-opacity:1;"
         offset="0"
         id="stop1" />
      <stop
         style="stop-color:#4b4fe2ff;stop-opacity:1;"
         offset="0.76340693"
         id="stop2" />
    </linearGradient>
    <linearGradient
       inkscape:collect="always"
       xlink:href="#linearGradient1"
       id="linearGradient2"
       x1="232.4884"
       y1="23.847498"
       x2="23.977745"
       y2="232.35815"
       gradientUnits="userSpaceOnUse" />
  </defs>
  <defs
     id="defs2" />
  <sodipodi:namedview
     id="namedview2"
     pagecolor="#ffffff"
     bordercolor="#000000"
     borderopacity="0.25"
     inkscape:showpageshadow="2"
     inkscape:pageopacity="0.0"
     inkscape:pagecheckerboard="0"
     inkscape:deskcolor="#d1d1d1" />
  <path
     id="rect2"
     style="baseline-shift:baseline;display:inline;overflow:visible;vector-effect:none;fill:url(#linearGradient2);stroke-linecap:round;stroke-linejoin:round;enable-background:accumulate;stop-color:#000000;stop-opacity:1;opacity:1;fill-opacity:1"
     d="M 48 32 C 39.274378 32 32 39.274378 32 48 L 32 208 C 32 216.72562 39.274378 224 48 224 L 56.689453 224 L 208 224 C 216.72562 224 224 216.72562 224 208 L 224 144.80664 A 8 8 0 0 0 224 144.57227 L 224 48 C 224 39.274378 216.72562 32 208 32 L 48 32 z M 48 48 L 208 48 L 208 125.37109 L 183.32031 100.68555 C 180.229 97.590787 176.11434 96.044922 172 96.044922 C 167.88702 96.044922 163.77456 97.590899 160.68359 100.68359 L 53.376953 208 L 48 208 L 48 48 z M 96 72 C 82.839923 72 72 82.839923 72 96 C 72 109.16008 82.839923 120 96 120 C 109.16008 120 120 109.16008 120 96 C 120 82.839923 109.16008 72 96 72 z M 96 88 C 100.51304 88 104 91.486965 104 96 C 104 100.51304 100.51304 104 96 104 C 91.486965 104 88 100.51304 88 96 C 88 91.486965 91.486965 88 96 88 z M 172 111.99414 A 8.0008 8.0008 0 0 0 172.00195 111.99609 L 208 148.00391 L 208 208 L 76.001953 208 L 171.99805 111.99609 A 8.0008 8.0008 0 0 0 172 111.99414 z " />
</svg>
