<?xml version="1.0" encoding="UTF-8" standalone="no"?>
<svg
   viewBox="0 0 256 256"
   version="1.1"
   id="svg2"
   sodipodi:docname="instagram logo blue_purple.svg"
   xmlns:inkscape="http://www.inkscape.org/namespaces/inkscape"
   xmlns:sodipodi="http://sodipodi.sourceforge.net/DTD/sodipodi-0.dtd"
   xmlns:xlink="http://www.w3.org/1999/xlink"
   xmlns="http://www.w3.org/2000/svg"
   xmlns:svg="http://www.w3.org/2000/svg">
  <defs
     id="defs3">
    <linearGradient
       id="linearGradient1"
       inkscape:collect="always">
      <stop
         style="stop-color:#a03291;stop-opacity:1;"
         offset="0"
         id="stop1" />
      <stop
         style="stop-color:#4b4fe2ff;stop-opacity:1;"
         offset="0.76340693"
         id="stop2" />
    </linearGradient>
    <linearGradient
       inkscape:collect="always"
       xlink:href="#linearGradient1"
       id="linearGradient2"
       x1="232.4884"
       y1="23.847498"
       x2="23.977745"
       y2="232.35815"
       gradientUnits="userSpaceOnUse" />
  </defs>
  <defs
     id="defs2" />
  <sodipodi:namedview
     id="namedview2"
     pagecolor="#ffffff"
     bordercolor="#000000"
     borderopacity="0.25"
     inkscape:showpageshadow="2"
     inkscape:pageopacity="0.0"
     inkscape:pagecheckerboard="0"
     inkscape:deskcolor="#d1d1d1" />
  <path
     id="circle1"
     style="baseline-shift:baseline;display:inline;overflow:visible;vector-effect:none;fill:url(#linearGradient2);stroke-linecap:round;stroke-linejoin:round;enable-background:accumulate;stop-color:#000000;stop-opacity:1;opacity:1;fill-opacity:1"
     d="M 80 24 C 49.114378 24 24 49.114378 24 80 L 24 176 C 24 206.88562 49.114378 232 80 232 L 176 232 C 206.88562 232 232 206.88562 232 176 L 232 80 C 232 49.114378 206.88562 24 176 24 L 80 24 z M 80 40 L 176 40 C 198.29838 40 216 57.701622 216 80 L 216 176 C 216 198.29838 198.29838 216 176 216 L 80 216 C 57.701622 216 40 198.29838 40 176 L 40 80 C 40 57.701622 57.701622 40 80 40 z M 180 64 A 12 12 0 0 0 168 76 A 12 12 0 0 0 180 88 A 12 12 0 0 0 192 76 A 12 12 0 0 0 180 64 z M 128 80 C 101.58509 80 80 101.58509 80 128 C 80 154.41491 101.58509 176 128 176 C 154.41491 176 176 154.41491 176 128 C 176 101.58509 154.41491 80 128 80 z M 128 96 C 145.76787 96 160 110.23213 160 128 C 160 145.76787 145.76787 160 128 160 C 110.23213 160 96 145.76787 96 128 C 96 110.23213 110.23213 96 128 96 z " />
</svg>
