<?xml version="1.0" encoding="UTF-8" standalone="no"?>
<svg
   viewBox="0 0 256 256"
   version="1.1"
   id="svg3"
   sodipodi:docname="joystick blue_purple.svg"
   xmlns:inkscape="http://www.inkscape.org/namespaces/inkscape"
   xmlns:sodipodi="http://sodipodi.sourceforge.net/DTD/sodipodi-0.dtd"
   xmlns:xlink="http://www.w3.org/1999/xlink"
   xmlns="http://www.w3.org/2000/svg"
   xmlns:svg="http://www.w3.org/2000/svg">
  <defs
     id="defs3">
    <linearGradient
       id="linearGradient1"
       inkscape:collect="always">
      <stop
         style="stop-color:#a03291;stop-opacity:1;"
         offset="0"
         id="stop1" />
      <stop
         style="stop-color:#4b4fe2ff;stop-opacity:1;"
         offset="0.76340693"
         id="stop2" />
    </linearGradient>
    <linearGradient
       inkscape:collect="always"
       xlink:href="#linearGradient1"
       id="linearGradient2"
       x1="232.4884"
       y1="23.847498"
       x2="23.977745"
       y2="232.35815"
       gradientUnits="userSpaceOnUse" />
  </defs>
  <defs
     id="defs1" />
  <sodipodi:namedview
     id="namedview3"
     pagecolor="#ffffff"
     bordercolor="#000000"
     borderopacity="0.25"
     inkscape:showpageshadow="2"
     inkscape:pageopacity="0.0"
     inkscape:pagecheckerboard="0"
     inkscape:deskcolor="#d1d1d1" />
  <path
     id="rect2"
     style="baseline-shift:baseline;display:inline;overflow:visible;vector-effect:none;fill:url(#linearGradient2);stroke-linecap:round;stroke-linejoin:round;enable-background:accumulate;stop-color:#000000;stop-opacity:1;opacity:1;fill-opacity:1"
     d="M 128 16 C 106.00337 16 88 34.003367 88 56 C 88 75.259116 101.80111 91.457975 120 95.191406 L 120 144 L 48 144 C 39.274378 144 32 151.27438 32 160 L 32 208 C 32 216.72562 39.274378 224 48 224 L 208 224 C 216.72562 224 224 216.72562 224 208 L 224 160 C 224 151.27438 216.72562 144 208 144 L 136 144 L 136 95.191406 C 154.19889 91.457975 168 75.259116 168 56 C 168 34.003367 149.99663 16 128 16 z M 128 32 C 141.34959 32 152 42.650409 152 56 C 152 69.349591 141.34959 80 128 80 C 114.65041 80 104 69.349591 104 56 C 104 42.650409 114.65041 32 128 32 z M 168 112 A 8 8 0 0 0 160 120 A 8 8 0 0 0 168 128 L 200 128 A 8 8 0 0 0 208 120 A 8 8 0 0 0 200 112 L 168 112 z M 48 160 L 208 160 L 208 208 L 48 208 L 48 160 z " />
</svg>
