<?xml version="1.0" encoding="UTF-8" standalone="no"?>
<svg
   viewBox="0 0 256 256"
   version="1.1"
   id="svg2"
   sodipodi:docname="lock key blue_purple.svg"
   xmlns:inkscape="http://www.inkscape.org/namespaces/inkscape"
   xmlns:sodipodi="http://sodipodi.sourceforge.net/DTD/sodipodi-0.dtd"
   xmlns:xlink="http://www.w3.org/1999/xlink"
   xmlns="http://www.w3.org/2000/svg"
   xmlns:svg="http://www.w3.org/2000/svg">
  <defs
     id="defs3">
    <linearGradient
       id="linearGradient1"
       inkscape:collect="always">
      <stop
         style="stop-color:#a03291;stop-opacity:1;"
         offset="0"
         id="stop1" />
      <stop
         style="stop-color:#4b4fe2ff;stop-opacity:1;"
         offset="0.76340693"
         id="stop2" />
    </linearGradient>
    <linearGradient
       inkscape:collect="always"
       xlink:href="#linearGradient1"
       id="linearGradient2"
       x1="232.4884"
       y1="23.847498"
       x2="23.977745"
       y2="232.35815"
       gradientUnits="userSpaceOnUse" />
  </defs>
  <defs
     id="defs2" />
  <sodipodi:namedview
     id="namedview2"
     pagecolor="#ffffff"
     bordercolor="#000000"
     borderopacity="0.25"
     inkscape:showpageshadow="2"
     inkscape:pageopacity="0.0"
     inkscape:pagecheckerboard="0"
     inkscape:deskcolor="#d1d1d1" />
  <path
     id="circle1"
     style="baseline-shift:baseline;display:inline;overflow:visible;vector-effect:none;fill:url(#linearGradient2);stroke-linecap:round;stroke-linejoin:round;enable-background:accumulate;stop-color:#000000;stop-opacity:1;opacity:1;fill-opacity:1"
     d="M 128 8 C 101.5851 8 80 29.585077 80 56 L 80 80 L 48 80 C 39.274378 80 32 87.274378 32 96 L 32 208 C 32 216.72562 39.274378 224 48 224 L 208 224 C 216.72562 224 224 216.72562 224 208 L 224 96 C 224 87.274378 216.72562 80 208 80 L 176 80 L 176 56 C 176 29.585077 154.4149 8 128 8 z M 128 24 C 145.76788 24 160 38.232113 160 56 L 160 80 L 96 80 L 96 56 C 96 38.232113 110.23212 24 128 24 z M 48 96 L 88 96 L 168 96 L 208 96 L 208 208 L 48 208 L 48 96 z M 128 112 C 112.63078 112 100 124.63078 100 140 C 100 152.59384 108.48091 163.34861 120 166.82227 L 120 184 A 8 8 0 0 0 128 192 A 8 8 0 0 0 136 184 L 136 166.82227 C 147.51909 163.34861 156 152.59384 156 140 C 156 124.63078 143.36922 112 128 112 z M 128 128 C 134.72217 128 140 133.27783 140 140 C 140 146.72217 134.72217 152 128 152 C 121.27783 152 116 146.72217 116 140 C 116 133.27783 121.27783 128 128 128 z " />
</svg>
