<?xml version="1.0" encoding="UTF-8" standalone="no"?>
<svg
   viewBox="0 0 256 256"
   version="1.1"
   id="svg3"
   sodipodi:docname="marker circle blue_purple.svg"
   xmlns:inkscape="http://www.inkscape.org/namespaces/inkscape"
   xmlns:sodipodi="http://sodipodi.sourceforge.net/DTD/sodipodi-0.dtd"
   xmlns:xlink="http://www.w3.org/1999/xlink"
   xmlns="http://www.w3.org/2000/svg"
   xmlns:svg="http://www.w3.org/2000/svg">
  <defs
     id="defs3">
    <linearGradient
       id="linearGradient1"
       inkscape:collect="always">
      <stop
         style="stop-color:#a03291;stop-opacity:1;"
         offset="0"
         id="stop1" />
      <stop
         style="stop-color:#4b4fe2ff;stop-opacity:1;"
         offset="0.76340693"
         id="stop2" />
    </linearGradient>
    <linearGradient
       inkscape:collect="always"
       xlink:href="#linearGradient1"
       id="linearGradient2"
       x1="232.4884"
       y1="23.847498"
       x2="23.977745"
       y2="232.35815"
       gradientUnits="userSpaceOnUse" />
  </defs>
  <defs
     id="defs1" />
  <sodipodi:namedview
     id="namedview3"
     pagecolor="#ffffff"
     bordercolor="#000000"
     borderopacity="0.25"
     inkscape:showpageshadow="2"
     inkscape:pageopacity="0.0"
     inkscape:pagecheckerboard="0"
     inkscape:deskcolor="#d1d1d1" />
  <path
     id="circle1"
     style="baseline-shift:baseline;display:inline;overflow:visible;vector-effect:none;fill:url(#linearGradient2);stroke-linecap:round;stroke-linejoin:round;enable-background:accumulate;stop-color:#000000;stop-opacity:1;opacity:1;fill-opacity:1"
     d="M 128 24 C 70.657143 24 24 70.657143 24 128 C 24 166.11874 44.616704 199.51482 75.285156 217.62305 A 8 8 0 0 0 76.734375 218.46289 C 91.87345 227.07645 109.37281 232 128 232 C 146.62719 232 164.12655 227.07645 179.26562 218.46289 A 8 8 0 0 0 180.71484 217.62305 C 211.3833 199.51482 232 166.11875 232 128 C 232 70.657143 185.34286 24 128 24 z M 128 40 C 176.69582 40 216 79.304185 216 128 C 216 155.39865 203.55733 179.82488 184 195.94922 L 184 176 C 184 167.2582 176.7418 160 168 160 L 168 144 C 168 136.06693 162.02193 129.3555 154.38281 128.18164 L 143.67188 76.738281 A 8.0008 8.0008 0 0 0 143.67188 76.736328 C 142.04229 68.919855 134.74216 64.001953 128.00977 64.001953 C 121.27737 64.001953 113.97724 68.919855 112.34766 76.736328 A 8.0008 8.0008 0 0 0 112.34766 76.738281 L 101.63672 128.17773 C 93.987958 129.34287 88 136.05995 88 144 L 88 160 C 79.258201 160 72 167.2582 72 176 L 72 195.94922 C 52.442673 179.82488 40 155.39865 40 128 C 40 79.304185 79.304185 40 128 40 z M 128.00977 80.009766 L 138.00195 128 L 118.01758 128 L 128.00977 80.009766 z M 104 144 L 108.14453 144 L 108.21484 144 L 147.80469 144 L 147.875 144 L 152 144 L 152 160 L 104 160 L 104 144 z M 88 176 L 168 176 L 168 206.44336 C 156.00692 212.55573 142.41494 216 128 216 C 113.58506 216 99.993084 212.55573 88 206.44336 L 88 176 z " />
</svg>
