<?xml version="1.0" encoding="UTF-8" standalone="no"?>
<svg
   viewBox="0 0 256 256"
   version="1.1"
   id="svg4"
   sodipodi:docname="mask sad blue_purple.svg"
   xmlns:inkscape="http://www.inkscape.org/namespaces/inkscape"
   xmlns:sodipodi="http://sodipodi.sourceforge.net/DTD/sodipodi-0.dtd"
   xmlns:xlink="http://www.w3.org/1999/xlink"
   xmlns="http://www.w3.org/2000/svg"
   xmlns:svg="http://www.w3.org/2000/svg">
  <defs
     id="defs3">
    <linearGradient
       id="linearGradient1"
       inkscape:collect="always">
      <stop
         style="stop-color:#a03291;stop-opacity:1;"
         offset="0"
         id="stop1" />
      <stop
         style="stop-color:#4b4fe2ff;stop-opacity:1;"
         offset="0.76340693"
         id="stop2" />
    </linearGradient>
    <linearGradient
       inkscape:collect="always"
       xlink:href="#linearGradient1"
       id="linearGradient2"
       x1="232.4884"
       y1="23.847498"
       x2="23.977745"
       y2="232.35815"
       gradientUnits="userSpaceOnUse" />
  </defs>
  <defs
     id="defs4" />
  <sodipodi:namedview
     id="namedview4"
     pagecolor="#ffffff"
     bordercolor="#000000"
     borderopacity="0.25"
     inkscape:showpageshadow="2"
     inkscape:pageopacity="0.0"
     inkscape:pagecheckerboard="0"
     inkscape:deskcolor="#d1d1d1" />
  <path
     id="path1"
     style="baseline-shift:baseline;display:inline;overflow:visible;vector-effect:none;fill:url(#linearGradient2);stroke-linecap:round;stroke-linejoin:round;enable-background:accumulate;stop-color:#000000;stop-opacity:1;opacity:1;fill-opacity:1"
     d="M 207.79492 32.03125 C 207.23173 32.030192 206.66477 32.059065 206.09766 32.121094 C 204.8014 32.262873 203.50135 32.574174 202.2207 33.070312 A 8.0008 8.0008 0 0 0 202.20898 33.074219 C 187.67833 38.728767 159.38194 47.710938 128 47.710938 C 96.618057 47.710938 68.324082 38.731079 53.783203 33.091797 A 8.0008 8.0008 0 0 0 53.779297 33.089844 C 43.548482 29.12634 32.013371 37.018498 32 47.990234 A 8.0008 8.0008 0 0 0 32 48 L 32 103.76953 C 32 140.6679 42.180302 174.20346 59.179688 198.97266 C 76.179073 223.74185 100.55048 240 128 240 C 155.44952 240 179.8209 223.74313 196.82031 198.97656 C 213.81972 174.20999 224 140.67785 224 103.78906 L 224 48.009766 C 224.01153 38.996901 216.24273 32.047118 207.79492 32.03125 z M 208 47.990234 A 8.0008 8.0008 0 0 0 208 48 L 208 103.78906 C 208 137.71028 198.4795 168.28594 183.62891 189.92188 C 168.77832 211.55781 149.15048 224 128 224 C 106.84952 224 87.221709 211.55822 72.371094 189.91992 C 57.520478 168.28162 48 137.70117 48 103.76953 L 48 48.009766 C 63.679649 54.090525 93.603358 63.710936 128 63.710938 C 162.39104 63.710938 192.30803 54.09588 208 47.990234 z M 72.447266 112.01172 A 8 8 0 0 0 66.667969 114.03711 A 8 8 0 0 0 66.037109 125.33203 C 72.73551 132.82386 82.572138 136 92 136 C 101.42786 136 111.26449 132.82386 117.96289 125.33203 A 8 8 0 0 0 117.33203 114.03711 A 8 8 0 0 0 106.03711 114.66797 C 103.95551 116.99614 96.792138 120 92 120 C 87.207862 120 80.04449 116.99614 77.962891 114.66797 A 8 8 0 0 0 72.447266 112.01172 z M 144.44727 112.01172 A 8 8 0 0 0 138.66797 114.03711 A 8 8 0 0 0 138.03711 125.33203 C 144.73551 132.82386 154.57214 136 164 136 C 173.42786 136 183.26449 132.82386 189.96289 125.33203 A 8 8 0 0 0 189.33203 114.03711 A 8 8 0 0 0 178.03711 114.66797 C 175.95551 116.99614 168.79214 120 164 120 C 159.20786 120 152.04449 116.99614 149.96289 114.66797 A 8 8 0 0 0 144.44727 112.01172 z M 128 168 C 116.58619 168 107.75162 171.90097 99.572266 177.33594 A 8 8 0 0 0 97.335938 188.42773 A 8 8 0 0 0 108.42773 190.66406 C 115.44838 185.99903 119.79381 184 128 184 C 136.20619 184 140.55162 185.99903 147.57227 190.66406 A 8 8 0 0 0 158.66406 188.42773 A 8 8 0 0 0 156.42773 177.33594 C 148.24838 171.90097 139.41381 168 128 168 z " />
</svg>
