<?xml version="1.0" encoding="UTF-8" standalone="no"?>
<svg
   viewBox="0 0 256 256"
   version="1.1"
   id="svg9"
   sodipodi:docname="memory blue_purple.svg"
   xmlns:inkscape="http://www.inkscape.org/namespaces/inkscape"
   xmlns:sodipodi="http://sodipodi.sourceforge.net/DTD/sodipodi-0.dtd"
   xmlns:xlink="http://www.w3.org/1999/xlink"
   xmlns="http://www.w3.org/2000/svg"
   xmlns:svg="http://www.w3.org/2000/svg">
  <defs
     id="defs3">
    <linearGradient
       id="linearGradient1"
       inkscape:collect="always">
      <stop
         style="stop-color:#a03291;stop-opacity:1;"
         offset="0"
         id="stop1" />
      <stop
         style="stop-color:#4b4fe2ff;stop-opacity:1;"
         offset="0.76340693"
         id="stop2" />
    </linearGradient>
    <linearGradient
       inkscape:collect="always"
       xlink:href="#linearGradient1"
       id="linearGradient2"
       x1="232.4884"
       y1="23.847498"
       x2="23.977745"
       y2="232.35815"
       gradientUnits="userSpaceOnUse" />
  </defs>
  <defs
     id="defs9" />
  <sodipodi:namedview
     id="namedview9"
     pagecolor="#ffffff"
     bordercolor="#000000"
     borderopacity="0.25"
     inkscape:showpageshadow="2"
     inkscape:pageopacity="0.0"
     inkscape:pagecheckerboard="0"
     inkscape:deskcolor="#d1d1d1" />
  <path
     id="path1"
     style="baseline-shift:baseline;display:inline;overflow:visible;vector-effect:none;fill:url(#linearGradient2);stroke-linecap:round;stroke-linejoin:round;enable-background:accumulate;stop-color:#000000;stop-opacity:1;opacity:1;fill-opacity:1"
     d="M 24 56 C 15.258201 56 8 63.258201 8 72 L 8 176 L 8 200 A 8 8 0 0 0 16 208 A 8 8 0 0 0 24 200 L 24 184 L 40 184 L 40 200 A 8 8 0 0 0 48 208 A 8 8 0 0 0 56 200 L 56 184 L 72 184 L 72 200 A 8 8 0 0 0 80 208 A 8 8 0 0 0 88 200 L 88 184 L 104 184 L 104 200 A 8 8 0 0 0 112 208 A 8 8 0 0 0 120 200 L 120 184 L 136 184 L 136 200 A 8 8 0 0 0 144 208 A 8 8 0 0 0 152 200 L 152 184 L 168 184 L 168 200 A 8 8 0 0 0 176 208 A 8 8 0 0 0 184 200 L 184 184 L 200 184 L 200 200 A 8 8 0 0 0 208 208 A 8 8 0 0 0 216 200 L 216 184 L 232 184 L 232 200 A 8 8 0 0 0 240 208 A 8 8 0 0 0 248 200 L 248 176 L 248 72 C 248 63.258201 240.7418 56 232 56 L 24 56 z M 24 72 L 232 72 L 232 168 L 24 168 L 24 72 z M 48 88 A 8.0008 8.0008 0 0 0 40 96 L 40 144 A 8.0008 8.0008 0 0 0 48 152 L 112 152 A 8.0008 8.0008 0 0 0 120 144 L 120 96 A 8.0008 8.0008 0 0 0 112 88 L 48 88 z M 144 88 A 8.0008 8.0008 0 0 0 136 96 L 136 144 A 8.0008 8.0008 0 0 0 144 152 L 208 152 A 8.0008 8.0008 0 0 0 216 144 L 216 96 A 8.0008 8.0008 0 0 0 208 88 L 144 88 z M 56 104 L 104 104 L 104 136 L 56 136 L 56 104 z M 152 104 L 200 104 L 200 136 L 152 136 L 152 104 z " />
</svg>
