<?xml version="1.0" encoding="UTF-8" standalone="no"?>
<svg
   viewBox="0 0 256 256"
   version="1.1"
   id="svg2"
   sodipodi:docname="microscope blue_purple.svg"
   xmlns:inkscape="http://www.inkscape.org/namespaces/inkscape"
   xmlns:sodipodi="http://sodipodi.sourceforge.net/DTD/sodipodi-0.dtd"
   xmlns:xlink="http://www.w3.org/1999/xlink"
   xmlns="http://www.w3.org/2000/svg"
   xmlns:svg="http://www.w3.org/2000/svg">
  <defs
     id="defs3">
    <linearGradient
       id="linearGradient1"
       inkscape:collect="always">
      <stop
         style="stop-color:#a03291;stop-opacity:1;"
         offset="0"
         id="stop1" />
      <stop
         style="stop-color:#4b4fe2ff;stop-opacity:1;"
         offset="0.76340693"
         id="stop2" />
    </linearGradient>
    <linearGradient
       inkscape:collect="always"
       xlink:href="#linearGradient1"
       id="linearGradient2"
       x1="232.4884"
       y1="23.847498"
       x2="23.977745"
       y2="232.35815"
       gradientUnits="userSpaceOnUse" />
  </defs>
  <defs
     id="defs2" />
  <sodipodi:namedview
     id="namedview2"
     pagecolor="#ffffff"
     bordercolor="#000000"
     borderopacity="0.25"
     inkscape:showpageshadow="2"
     inkscape:pageopacity="0.0"
     inkscape:pagecheckerboard="0"
     inkscape:deskcolor="#d1d1d1" />
  <path
     id="line1"
     style="baseline-shift:baseline;display:inline;overflow:visible;vector-effect:none;fill:url(#linearGradient2);stroke-linecap:round;stroke-linejoin:round;enable-background:accumulate;stop-color:#000000;stop-opacity:1;opacity:1;fill-opacity:1"
     d="M 80 16 C 71.274378 16 64 23.274378 64 32 L 64 136 C 64 144.72562 71.274378 152 80 152 L 128 152 C 136.72562 152 144 144.72562 144 136 L 144 80.441406 C 171.66442 83.514656 195.34751 102.36088 204.30469 129.23242 C 213.83921 157.83599 204.56734 189.17401 181.25391 208 L 32 208 A 8 8 0 0 0 24 216 A 8 8 0 0 0 32 224 L 183.86719 224 L 184.13281 224 L 224 224 A 8 8 0 0 0 232 216 A 8 8 0 0 0 224 208 L 203.88477 208 C 222.85951 184.9854 229.21151 153.35327 219.48438 124.17188 C 208.36666 90.818689 178.52341 67.508251 144 64.363281 L 144 32 C 144 23.274378 136.72562 16 128 16 L 80 16 z M 80 32 L 128 32 L 128 72 L 128 136 L 80 136 L 80 32 z M 72 168 A 8 8 0 0 0 64 176 A 8 8 0 0 0 72 184 L 136 184 A 8 8 0 0 0 144 176 A 8 8 0 0 0 136 168 L 72 168 z " />
</svg>
