<?xml version="1.0" encoding="UTF-8" standalone="no"?>
<svg
   viewBox="0 0 256 256"
   version="1.1"
   id="svg2"
   sodipodi:docname="microsoft word logo blue_purple.svg"
   xmlns:inkscape="http://www.inkscape.org/namespaces/inkscape"
   xmlns:sodipodi="http://sodipodi.sourceforge.net/DTD/sodipodi-0.dtd"
   xmlns:xlink="http://www.w3.org/1999/xlink"
   xmlns="http://www.w3.org/2000/svg"
   xmlns:svg="http://www.w3.org/2000/svg">
  <defs
     id="defs3">
    <linearGradient
       id="linearGradient1"
       inkscape:collect="always">
      <stop
         style="stop-color:#a03291;stop-opacity:1;"
         offset="0"
         id="stop1" />
      <stop
         style="stop-color:#4b4fe2ff;stop-opacity:1;"
         offset="0.76340693"
         id="stop2" />
    </linearGradient>
    <linearGradient
       inkscape:collect="always"
       xlink:href="#linearGradient1"
       id="linearGradient2"
       x1="232.4884"
       y1="23.847498"
       x2="23.977745"
       y2="232.35815"
       gradientUnits="userSpaceOnUse" />
  </defs>
  <defs
     id="defs2" />
  <sodipodi:namedview
     id="namedview2"
     pagecolor="#ffffff"
     bordercolor="#000000"
     borderopacity="0.25"
     inkscape:showpageshadow="2"
     inkscape:pageopacity="0.0"
     inkscape:pagecheckerboard="0"
     inkscape:deskcolor="#d1d1d1" />
  <path
     id="line1"
     style="baseline-shift:baseline;display:inline;overflow:visible;vector-effect:none;fill:url(#linearGradient2);stroke-linecap:round;stroke-linejoin:round;enable-background:accumulate;stop-color:#000000;stop-opacity:1;opacity:1;fill-opacity:1"
     d="M 72 24 C 63.258201 24 56 31.258201 56 40 L 56 64 L 40 64 C 31.274378 64 24 71.274378 24 80 L 24 176 C 24 184.72562 31.274378 192 40 192 L 56 192 L 56 216 C 56 224.7418 63.258201 232 72 232 L 200 232 C 208.7418 232 216 224.7418 216 216 L 216 40 C 216 31.258201 208.7418 24 200 24 L 72 24 z M 72 40 L 200 40 L 200 88 L 160 88 L 160 80 C 160 71.274378 152.72562 64 144 64 L 72 64 L 72 40 z M 40 80 L 64 80 L 144 80 L 144 96 L 144 160 L 144 176 L 64 176 L 40 176 L 40 80 z M 64.134766 96 A 8 8 0 0 0 62.060547 96.238281 A 8 8 0 0 0 56.238281 105.93945 L 68.238281 153.93945 A 8.0008 8.0008 0 0 0 83.15625 155.57812 L 92 137.89062 L 100.84375 155.57812 A 8.0008 8.0008 0 0 0 115.76172 153.93945 L 127.76172 105.93945 A 8 8 0 0 0 121.93945 96.238281 A 8 8 0 0 0 112.23828 102.06055 L 105.48438 129.07812 L 99.15625 116.42188 A 8.0008 8.0008 0 0 0 84.84375 116.42188 L 78.515625 129.07812 L 71.761719 102.06055 A 8 8 0 0 0 64.134766 96 z M 160 104 L 200 104 L 200 152 L 160 152 L 160 104 z M 160 168 L 200 168 L 200 216 L 72 216 L 72 192 L 144 192 C 152.72562 192 160 184.72562 160 176 L 160 168 z " />
</svg>
