<?xml version="1.0" encoding="UTF-8" standalone="no"?>
<svg
   viewBox="0 0 256 256"
   version="1.1"
   id="svg3"
   sodipodi:docname="moped front blue_purple.svg"
   xmlns:inkscape="http://www.inkscape.org/namespaces/inkscape"
   xmlns:sodipodi="http://sodipodi.sourceforge.net/DTD/sodipodi-0.dtd"
   xmlns:xlink="http://www.w3.org/1999/xlink"
   xmlns="http://www.w3.org/2000/svg"
   xmlns:svg="http://www.w3.org/2000/svg">
  <defs
     id="defs3">
    <linearGradient
       id="linearGradient1"
       inkscape:collect="always">
      <stop
         style="stop-color:#a03291;stop-opacity:1;"
         offset="0"
         id="stop1" />
      <stop
         style="stop-color:#4b4fe2ff;stop-opacity:1;"
         offset="0.76340693"
         id="stop2" />
    </linearGradient>
    <linearGradient
       inkscape:collect="always"
       xlink:href="#linearGradient1"
       id="linearGradient2"
       x1="232.4884"
       y1="23.847498"
       x2="23.977745"
       y2="232.35815"
       gradientUnits="userSpaceOnUse" />
  </defs>
  <defs
     id="defs1" />
  <sodipodi:namedview
     id="namedview3"
     pagecolor="#ffffff"
     bordercolor="#000000"
     borderopacity="0.25"
     inkscape:showpageshadow="2"
     inkscape:pageopacity="0.0"
     inkscape:pagecheckerboard="0"
     inkscape:deskcolor="#d1d1d1" />
  <path
     id="rect2"
     style="baseline-shift:baseline;display:inline;overflow:visible;vector-effect:none;fill:url(#linearGradient2);stroke-linecap:round;stroke-linejoin:round;enable-background:accumulate;stop-color:#000000;stop-opacity:1;opacity:1;fill-opacity:1"
     d="M 128 8 C 108.74089 8 92.542025 21.80111 88.808594 40 L 48 40 A 8 8 0 0 0 40 48 A 8 8 0 0 0 48 56 L 88.808594 56 C 90.567155 64.572239 95.091592 72.168593 101.39844 77.806641 C 79.362586 87.935628 64 110.23031 64 136 L 64 200 C 64 208.7418 71.258201 216 80 216 L 96 216 C 96 233.58962 110.41038 248 128 248 C 145.58962 248 160 233.58962 160 216 L 176 216 C 184.7418 216 192 208.7418 192 200 L 192 136 C 192 110.23031 176.63741 87.935627 154.60156 77.806641 C 160.90841 72.168593 165.43285 64.572239 167.19141 56 L 208 56 A 8 8 0 0 0 216 48 A 8 8 0 0 0 208 40 L 167.19141 40 C 163.45798 21.80111 147.25911 8 128 8 z M 128 24 C 141.34959 24 152 34.650409 152 48 C 152 61.349591 141.34959 72 128 72 C 114.65041 72 104 61.349591 104 48 C 104 34.650409 114.65041 24 128 24 z M 128 88 C 154.60443 88 176 109.39557 176 136 L 176 200 L 160 200 L 160 168 C 160 150.41038 145.58962 136 128 136 C 110.41038 136 96 150.41038 96 168 L 96 200 L 80 200 L 80 136 C 80 109.39557 101.39557 88 128 88 z M 128 152 C 137.00238 152 144 158.99762 144 168 L 144 208 L 144 216 C 144 225.00238 137.00238 232 128 232 C 118.99762 232 112 225.00238 112 216 L 112 208 L 112 168 C 112 158.99762 118.99762 152 128 152 z " />
</svg>
