<?xml version="1.0" encoding="UTF-8" standalone="no"?>
<svg
   viewBox="0 0 256 256"
   version="1.1"
   id="svg2"
   sodipodi:docname="moped blue_purple.svg"
   xmlns:inkscape="http://www.inkscape.org/namespaces/inkscape"
   xmlns:sodipodi="http://sodipodi.sourceforge.net/DTD/sodipodi-0.dtd"
   xmlns:xlink="http://www.w3.org/1999/xlink"
   xmlns="http://www.w3.org/2000/svg"
   xmlns:svg="http://www.w3.org/2000/svg">
  <defs
     id="defs3">
    <linearGradient
       id="linearGradient1"
       inkscape:collect="always">
      <stop
         style="stop-color:#a03291;stop-opacity:1;"
         offset="0"
         id="stop1" />
      <stop
         style="stop-color:#4b4fe2ff;stop-opacity:1;"
         offset="0.76340693"
         id="stop2" />
    </linearGradient>
    <linearGradient
       inkscape:collect="always"
       xlink:href="#linearGradient1"
       id="linearGradient2"
       x1="232.4884"
       y1="23.847498"
       x2="23.977745"
       y2="232.35815"
       gradientUnits="userSpaceOnUse" />
  </defs>
  <defs
     id="defs2" />
  <sodipodi:namedview
     id="namedview2"
     pagecolor="#ffffff"
     bordercolor="#000000"
     borderopacity="0.25"
     inkscape:showpageshadow="2"
     inkscape:pageopacity="0.0"
     inkscape:pagecheckerboard="0"
     inkscape:deskcolor="#d1d1d1" />
  <path
     id="polyline1"
     style="baseline-shift:baseline;display:inline;overflow:visible;vector-effect:none;fill:url(#linearGradient2);stroke-linecap:round;stroke-linejoin:round;enable-background:accumulate;stop-color:#000000;stop-opacity:1;opacity:1;fill-opacity:1"
     d="M 136 32 A 8 8 0 0 0 128 40 A 8 8 0 0 0 136 48 L 162.45508 48 L 194.76172 134.14648 C 185.68012 139.87871 179.03245 149.15963 176.80859 160 L 136.54297 160 L 111.49023 93.191406 A 8.0008 8.0008 0 0 0 104 88 L 40 88 L 24 88 A 8 8 0 0 0 16 96 A 8 8 0 0 0 24 104 L 32 104 L 32 117.55859 C 12.674755 126.76335 -0.00686838 146.26249 0 168.00195 A 8.0008 8.0008 0 0 0 8 176 L 16.808594 176 C 20.542025 194.19889 36.74089 208 56 208 C 75.25911 208 91.457975 194.19889 95.191406 176 L 176.80859 176 C 180.54203 194.19889 196.74089 208 216 208 C 237.99663 208 256 189.99663 256 168 C 256 146.00337 237.99663 128 216 128 C 213.86788 128 211.77284 128.16861 209.72852 128.49414 L 175.49023 37.191406 A 8.0008 8.0008 0 0 0 168 32 L 136 32 z M 48 104 L 98.455078 104 L 119.45703 160 L 16.900391 160 C 19.662857 146.43046 29.232691 135.02283 42.666016 130.27344 A 8.0008 8.0008 0 0 0 48 122.73047 L 48 104 z M 216 144 C 229.34959 144 240 154.65041 240 168 C 240 181.34959 229.34959 192 216 192 C 202.65041 192 192 181.34959 192 168 C 192 160.56079 195.3081 153.95909 200.54688 149.57227 L 208.50977 170.80859 A 8 8 0 0 0 218.80859 175.49023 A 8 8 0 0 0 223.49023 165.19141 L 215.54492 144.00391 C 215.69623 144.00116 215.84798 144 216 144 z M 33.341797 176 L 78.658203 176 C 75.395624 185.36278 66.538497 192 56 192 C 45.461503 192 36.604376 185.36278 33.341797 176 z " />
</svg>
