<?xml version="1.0" encoding="UTF-8" standalone="no"?>
<svg
   viewBox="0 0 256 256"
   version="1.1"
   id="svg3"
   sodipodi:docname="mouse scroll blue_purple.svg"
   xmlns:inkscape="http://www.inkscape.org/namespaces/inkscape"
   xmlns:sodipodi="http://sodipodi.sourceforge.net/DTD/sodipodi-0.dtd"
   xmlns:xlink="http://www.w3.org/1999/xlink"
   xmlns="http://www.w3.org/2000/svg"
   xmlns:svg="http://www.w3.org/2000/svg">
  <defs
     id="defs3">
    <linearGradient
       id="linearGradient1"
       inkscape:collect="always">
      <stop
         style="stop-color:#a03291;stop-opacity:1;"
         offset="0"
         id="stop1" />
      <stop
         style="stop-color:#4b4fe2ff;stop-opacity:1;"
         offset="0.76340693"
         id="stop2" />
    </linearGradient>
    <linearGradient
       inkscape:collect="always"
       xlink:href="#linearGradient1"
       id="linearGradient2"
       x1="232.4884"
       y1="23.847498"
       x2="23.977745"
       y2="232.35815"
       gradientUnits="userSpaceOnUse" />
  </defs>
  <defs
     id="defs1" />
  <sodipodi:namedview
     id="namedview3"
     pagecolor="#ffffff"
     bordercolor="#000000"
     borderopacity="0.25"
     inkscape:showpageshadow="2"
     inkscape:pageopacity="0.0"
     inkscape:pagecheckerboard="0"
     inkscape:deskcolor="#d1d1d1" />
  <path
     id="rect2"
     style="baseline-shift:baseline;display:inline;overflow:visible;vector-effect:none;fill:url(#linearGradient2);stroke-linecap:round;stroke-linejoin:round;enable-background:accumulate;stop-color:#000000;stop-opacity:1;opacity:1;fill-opacity:1"
     d="M 112 16 C 76.682378 16 48 44.682378 48 80 L 48 176 C 48 211.31762 76.682378 240 112 240 L 144 240 C 179.31762 240 208 211.31762 208 176 L 208 80 C 208 44.682378 179.31762 16 144 16 L 112 16 z M 112 32 L 144 32 C 170.73038 32 192 53.269622 192 80 L 192 176 C 192 202.73038 170.73038 224 144 224 L 112 224 C 85.269622 224 64 202.73038 64 176 L 64 80 C 64 53.269622 85.269622 32 112 32 z M 128 56 A 8.0008 8.0008 0 0 0 126.94922 56.070312 A 8 8 0 0 0 126.46094 56.167969 A 8.0008 8.0008 0 0 0 125.91406 56.279297 A 8 8 0 0 0 125.39844 56.453125 A 8.0008 8.0008 0 0 0 124.92188 56.617188 A 8 8 0 0 0 124.44531 56.853516 A 8.0008 8.0008 0 0 0 123.9668 57.095703 A 8 8 0 0 0 123.52539 57.390625 A 8.0008 8.0008 0 0 0 123.10352 57.677734 A 8 8 0 0 0 122.66406 58.0625 A 8.0008 8.0008 0 0 0 122.34375 58.34375 L 122.26172 58.425781 L 98.34375 82.34375 A 8 8 0 0 0 98.34375 93.65625 A 8 8 0 0 0 109.65625 93.65625 L 120 83.3125 L 120 172.6875 L 109.65625 162.34375 A 8 8 0 0 0 104 160 A 8 8 0 0 0 98.34375 162.34375 A 8 8 0 0 0 98.34375 173.65625 L 122.26172 197.57422 L 122.34375 197.65625 A 8.0008 8.0008 0 0 0 122.66406 197.9375 A 8 8 0 0 0 123.10352 198.32227 A 8.0008 8.0008 0 0 0 123.52539 198.60938 A 8 8 0 0 0 123.9668 198.9043 A 8.0008 8.0008 0 0 0 124.44531 199.14648 A 8 8 0 0 0 124.92188 199.38281 A 8.0008 8.0008 0 0 0 125.39844 199.54688 A 8 8 0 0 0 125.91406 199.7207 A 8.0008 8.0008 0 0 0 126.29297 199.79883 A 8 8 0 0 0 128 200 A 8 8 0 0 0 129.70703 199.79883 A 8.0008 8.0008 0 0 0 130.08594 199.7207 A 8 8 0 0 0 130.60156 199.54688 A 8.0008 8.0008 0 0 0 131.07812 199.38281 A 8 8 0 0 0 131.55469 199.14648 A 8.0008 8.0008 0 0 0 132.0332 198.9043 A 8 8 0 0 0 132.47461 198.60938 A 8.0008 8.0008 0 0 0 132.89648 198.32227 A 8 8 0 0 0 133.33594 197.9375 A 8.0008 8.0008 0 0 0 133.65625 197.65625 L 133.73828 197.57422 L 157.65625 173.65625 A 8 8 0 0 0 157.65625 162.34375 A 8 8 0 0 0 146.34375 162.34375 L 136 172.6875 L 136 83.3125 L 146.34375 93.65625 A 8 8 0 0 0 157.65625 93.65625 A 8 8 0 0 0 157.65625 82.34375 L 133.73828 58.425781 L 133.65625 58.34375 A 8.0008 8.0008 0 0 0 133.33594 58.0625 A 8 8 0 0 0 132.89648 57.677734 A 8.0008 8.0008 0 0 0 132.47461 57.390625 A 8 8 0 0 0 132.0332 57.095703 A 8.0008 8.0008 0 0 0 131.55469 56.853516 A 8 8 0 0 0 131.07812 56.617188 A 8.0008 8.0008 0 0 0 130.60156 56.453125 A 8 8 0 0 0 130.08594 56.279297 A 8.0008 8.0008 0 0 0 129.53906 56.167969 A 8 8 0 0 0 129.05078 56.070312 A 8 8 0 0 0 128 56 z " />
</svg>
