<?xml version="1.0" encoding="UTF-8" standalone="no"?>
<svg
   viewBox="0 0 256 256"
   version="1.1"
   id="svg2"
   sodipodi:docname="not superset of blue_purple.svg"
   xmlns:inkscape="http://www.inkscape.org/namespaces/inkscape"
   xmlns:sodipodi="http://sodipodi.sourceforge.net/DTD/sodipodi-0.dtd"
   xmlns:xlink="http://www.w3.org/1999/xlink"
   xmlns="http://www.w3.org/2000/svg"
   xmlns:svg="http://www.w3.org/2000/svg">
  <defs
     id="defs3">
    <linearGradient
       id="linearGradient1"
       inkscape:collect="always">
      <stop
         style="stop-color:#a03291;stop-opacity:1;"
         offset="0"
         id="stop1" />
      <stop
         style="stop-color:#4b4fe2ff;stop-opacity:1;"
         offset="0.76340693"
         id="stop2" />
    </linearGradient>
    <linearGradient
       inkscape:collect="always"
       xlink:href="#linearGradient1"
       id="linearGradient2"
       x1="232.4884"
       y1="23.847498"
       x2="23.977745"
       y2="232.35815"
       gradientUnits="userSpaceOnUse" />
  </defs>
  <defs
     id="defs2" />
  <sodipodi:namedview
     id="namedview2"
     pagecolor="#ffffff"
     bordercolor="#000000"
     borderopacity="0.25"
     inkscape:showpageshadow="2"
     inkscape:pageopacity="0.0"
     inkscape:pagecheckerboard="0"
     inkscape:deskcolor="#d1d1d1" />
  <path
     id="path1"
     style="baseline-shift:baseline;display:inline;overflow:visible;vector-effect:none;fill:url(#linearGradient2);stroke-linecap:round;stroke-linejoin:round;enable-background:accumulate;stop-color:#000000;stop-opacity:1;opacity:1;fill-opacity:1"
     d="M 207.61914 32.009766 A 8 8 0 0 0 202.08008 34.619141 L 187.42383 50.742188 C 177.2697 43.960237 165.08248 40 152 40 L 56 40 A 8 8 0 0 0 48 48 A 8 8 0 0 0 56 56 L 152 56 C 160.9864 56 169.37875 58.440818 176.55273 62.699219 L 95.371094 152 L 56 152 A 8 8 0 0 0 48 160 A 8 8 0 0 0 56 168 L 80.824219 168 L 42.080078 210.61914 A 8 8 0 0 0 42.619141 221.91992 A 8 8 0 0 0 53.919922 221.38086 L 66.083984 208 L 208 208 A 8 8 0 0 0 216 200 A 8 8 0 0 0 208 192 L 80.628906 192 L 102.44727 168 L 152 168 C 187.25149 168 216 139.25146 216 104 C 216 87.575749 209.75879 72.563918 199.52734 61.212891 L 213.91992 45.380859 A 8 8 0 0 0 213.38086 34.080078 A 8 8 0 0 0 207.61914 32.009766 z M 188.75977 73.056641 C 195.7805 81.399012 200 92.18589 200 104 C 200 130.60443 178.60445 152 152 152 L 116.99414 152 L 188.75977 73.056641 z " />
</svg>
