<?xml version="1.0" encoding="UTF-8" standalone="no"?>
<svg
   viewBox="0 0 256 256"
   version="1.1"
   id="svg1"
   sodipodi:docname="note blank blue_purple.svg"
   xmlns:inkscape="http://www.inkscape.org/namespaces/inkscape"
   xmlns:sodipodi="http://sodipodi.sourceforge.net/DTD/sodipodi-0.dtd"
   xmlns:xlink="http://www.w3.org/1999/xlink"
   xmlns="http://www.w3.org/2000/svg"
   xmlns:svg="http://www.w3.org/2000/svg">
  <defs
     id="defs3">
    <linearGradient
       id="linearGradient1"
       inkscape:collect="always">
      <stop
         style="stop-color:#a03291;stop-opacity:1;"
         offset="0"
         id="stop1" />
      <stop
         style="stop-color:#4b4fe2ff;stop-opacity:1;"
         offset="0.76340693"
         id="stop2" />
    </linearGradient>
    <linearGradient
       inkscape:collect="always"
       xlink:href="#linearGradient1"
       id="linearGradient2"
       x1="232.4884"
       y1="23.847498"
       x2="23.977745"
       y2="232.35815"
       gradientUnits="userSpaceOnUse" />
  </defs>
  <defs
     id="defs1" />
  <sodipodi:namedview
     id="namedview1"
     pagecolor="#ffffff"
     bordercolor="#000000"
     borderopacity="0.25"
     inkscape:showpageshadow="2"
     inkscape:pageopacity="0.0"
     inkscape:pagecheckerboard="0"
     inkscape:deskcolor="#d1d1d1" />
  <path
     id="path1"
     style="baseline-shift:baseline;display:inline;overflow:visible;vector-effect:none;fill:url(#linearGradient2);stroke-linecap:round;stroke-linejoin:round;enable-background:accumulate;stop-color:#000000;stop-opacity:1;opacity:1;fill-opacity:1"
     d="M 48 32 C 39.258201 32 32 39.258201 32 48 L 32 208 C 32 216.7418 39.258201 224 48 224 L 156.68945 224 A 8.0008 8.0008 0 0 0 156.69336 224 C 160.92812 223.998 164.99805 222.31307 167.99414 219.32031 A 8.0008 8.0008 0 0 0 167.99609 219.31641 L 219.31641 167.99609 A 8.0008 8.0008 0 0 0 219.32031 167.99414 C 220.71253 166.60037 221.80729 164.9682 222.5957 163.20117 A 8 8 0 0 0 222.67773 163.02734 C 223.53424 161.04412 223.99898 158.89288 224 156.69336 A 8.0008 8.0008 0 0 0 224 156.68945 L 224 48 C 224 39.258201 216.7418 32 208 32 L 48 32 z M 48 48 L 208 48 L 208 151.99023 L 160 151.99023 A 8.0008 8.0008 0 0 0 152 159.99023 L 152 208 L 48 208 L 48 48 z M 168 167.99023 L 196.69922 167.99023 L 168 196.68555 L 168 167.99023 z " />
</svg>
