<?xml version="1.0" encoding="UTF-8" standalone="no"?>
<svg
   viewBox="0 0 256 256"
   version="1.1"
   id="svg2"
   sodipodi:docname="number eight blue_purple.svg"
   xmlns:inkscape="http://www.inkscape.org/namespaces/inkscape"
   xmlns:sodipodi="http://sodipodi.sourceforge.net/DTD/sodipodi-0.dtd"
   xmlns:xlink="http://www.w3.org/1999/xlink"
   xmlns="http://www.w3.org/2000/svg"
   xmlns:svg="http://www.w3.org/2000/svg">
  <defs
     id="defs3">
    <linearGradient
       id="linearGradient1"
       inkscape:collect="always">
      <stop
         style="stop-color:#a03291;stop-opacity:1;"
         offset="0"
         id="stop1" />
      <stop
         style="stop-color:#4b4fe2ff;stop-opacity:1;"
         offset="0.76340693"
         id="stop2" />
    </linearGradient>
    <linearGradient
       inkscape:collect="always"
       xlink:href="#linearGradient1"
       id="linearGradient2"
       x1="232.4884"
       y1="23.847498"
       x2="23.977745"
       y2="232.35815"
       gradientUnits="userSpaceOnUse" />
  </defs>
  <defs
     id="defs2" />
  <sodipodi:namedview
     id="namedview2"
     pagecolor="#ffffff"
     bordercolor="#000000"
     borderopacity="0.25"
     inkscape:showpageshadow="2"
     inkscape:pageopacity="0.0"
     inkscape:pagecheckerboard="0"
     inkscape:deskcolor="#d1d1d1" />
  <path
     id="circle1"
     style="baseline-shift:baseline;display:inline;overflow:visible;vector-effect:none;fill:url(#linearGradient2);stroke-linecap:round;stroke-linejoin:round;enable-background:accumulate;stop-color:#000000;stop-opacity:1;opacity:1;fill-opacity:1"
     d="M 128 32 C 101.58509 32 80 53.585089 80 80 C 80 96.189654 88.107756 110.56411 100.4668 119.26758 C 83.495315 128.9096 72 147.16108 72 168 C 72 198.83319 97.166811 224 128 224 C 158.83319 224 184 198.83319 184 168 C 184 147.16108 172.50468 128.9096 155.5332 119.26758 C 167.89224 110.56411 176 96.189654 176 80 C 176 53.585089 154.41491 32 128 32 z M 128 48 C 145.76787 48 160 62.232131 160 80 C 160 97.767869 145.76787 112 128 112 C 110.23213 112 96 97.767869 96 80 C 96 62.232131 110.23213 48 128 48 z M 128 128 C 150.18615 128 168 145.81385 168 168 C 168 190.18615 150.18615 208 128 208 C 105.81385 208 88 190.18615 88 168 C 88 145.81385 105.81385 128 128 128 z " />
</svg>
