<?xml version="1.0" encoding="UTF-8" standalone="no"?>
<svg
   viewBox="0 0 256 256"
   version="1.1"
   id="svg4"
   sodipodi:docname="paw print blue_purple.svg"
   xmlns:inkscape="http://www.inkscape.org/namespaces/inkscape"
   xmlns:sodipodi="http://sodipodi.sourceforge.net/DTD/sodipodi-0.dtd"
   xmlns:xlink="http://www.w3.org/1999/xlink"
   xmlns="http://www.w3.org/2000/svg"
   xmlns:svg="http://www.w3.org/2000/svg">
  <defs
     id="defs3">
    <linearGradient
       id="linearGradient1"
       inkscape:collect="always">
      <stop
         style="stop-color:#a03291;stop-opacity:1;"
         offset="0"
         id="stop1" />
      <stop
         style="stop-color:#4b4fe2ff;stop-opacity:1;"
         offset="0.76340693"
         id="stop2" />
    </linearGradient>
    <linearGradient
       inkscape:collect="always"
       xlink:href="#linearGradient1"
       id="linearGradient2"
       x1="232.4884"
       y1="23.847498"
       x2="23.977745"
       y2="232.35815"
       gradientUnits="userSpaceOnUse" />
  </defs>
  <defs
     id="defs4" />
  <sodipodi:namedview
     id="namedview4"
     pagecolor="#ffffff"
     bordercolor="#000000"
     borderopacity="0.25"
     inkscape:showpageshadow="2"
     inkscape:pageopacity="0.0"
     inkscape:pagecheckerboard="0"
     inkscape:deskcolor="#d1d1d1" />
  <path
     id="circle1"
     style="baseline-shift:baseline;display:inline;overflow:visible;vector-effect:none;fill:url(#linearGradient2);stroke-linecap:round;stroke-linejoin:round;enable-background:accumulate;stop-color:#000000;stop-opacity:1;opacity:1;fill-opacity:1"
     d="M 92 32 C 76.630784 32 64 44.630784 64 60 C 64 75.369216 76.630784 88 92 88 C 107.36922 88 120 75.369216 120 60 C 120 44.630784 107.36922 32 92 32 z M 164 32 C 148.63078 32 136 44.630784 136 60 C 136 75.369216 148.63078 88 164 88 C 179.36922 88 192 75.369216 192 60 C 192 44.630784 179.36922 32 164 32 z M 92 48 C 98.722174 48 104 53.277826 104 60 C 104 66.722174 98.722174 72 92 72 C 85.277826 72 80 66.722174 80 60 C 80 53.277826 85.277826 48 92 48 z M 164 48 C 170.72217 48 176 53.277826 176 60 C 176 66.722174 170.72217 72 164 72 C 157.27783 72 152 66.722174 152 60 C 152 53.277826 157.27783 48 164 48 z M 44 80 C 28.630784 80 16 92.630784 16 108 C 16 123.36922 28.630784 136 44 136 C 59.369216 136 72 123.36922 72 108 C 72 92.630784 59.369216 80 44 80 z M 212 80 C 196.63078 80 184 92.630784 184 108 C 184 123.36922 196.63078 136 212 136 C 227.36922 136 240 123.36922 240 108 C 240 92.630784 227.36922 80 212 80 z M 44 96 C 50.722174 96 56 101.27783 56 108 C 56 114.72217 50.722174 120 44 120 C 37.277826 120 32 114.72217 32 108 C 32 101.27783 37.277826 96 44 96 z M 127.99609 96 C 108.44464 96.0072 91.1751 108.99532 85.744141 127.77734 C 83.128632 136.77091 77.06991 144.36137 68.878906 148.9043 L 68.910156 148.88867 C 50.120541 158.96641 42.520495 182.25985 51.771484 201.48242 C 61.015792 220.69111 83.936169 229.28811 103.52539 220.92188 L 103.54883 220.91211 C 119.22253 214.49273 136.78322 214.49623 152.45508 220.92188 C 172.04429 229.28811 194.96273 220.69111 204.20703 201.48242 C 213.46713 182.24093 205.84577 158.91902 187.01562 148.85742 C 187.01436 148.85672 187.01298 148.85617 187.01172 148.85547 L 186.99805 148.84766 L 186.99609 148.8457 L 186.98438 148.83984 C 178.85774 144.28806 172.85101 136.72683 170.25586 127.77734 L 170.25391 127.77344 C 164.82163 108.99385 147.5539 96.007187 128.00391 96 A 8.0008 8.0008 0 0 0 127.99609 96 z M 212 96 C 218.72217 96 224 101.27783 224 108 C 224 114.72217 218.72217 120 212 120 C 205.27783 120 200 114.72217 200 108 C 200 101.27783 205.27783 96 212 96 z M 127.99609 112 L 128.00391 112 C 140.50106 112.008 151.41315 120.21668 154.88477 132.22266 A 8.0008 8.0008 0 0 0 154.88672 132.22656 C 158.66822 145.27322 167.46123 156.30213 179.33789 162.89453 A 8.0008 8.0008 0 0 0 179.45703 162.95898 C 190.88645 169.05297 195.40789 182.87364 189.79102 194.54492 C 184.17414 206.2162 170.55145 211.30403 158.6582 206.17383 A 8.0008 8.0008 0 0 0 158.52539 206.11719 C 138.9619 198.09592 117.01857 198.09592 97.455078 206.11719 A 8.0008 8.0008 0 0 0 97.322266 206.17383 C 85.429023 211.30403 71.806331 206.21623 66.189453 194.54492 C 60.572575 182.87364 65.094022 169.05297 76.523438 162.95898 A 8.0008 8.0008 0 0 0 76.640625 162.89648 C 88.522447 156.30655 97.323017 145.27998 101.11328 132.23242 A 8.0008 8.0008 0 0 0 101.11523 132.22266 C 104.58657 120.21687 115.49894 112.00805 127.99609 112 z " />
</svg>
