<?xml version="1.0" encoding="UTF-8" standalone="no"?>
<svg
   viewBox="0 0 256 256"
   version="1.1"
   id="svg1"
   sodipodi:docname="person simple walk blue_purple.svg"
   xmlns:inkscape="http://www.inkscape.org/namespaces/inkscape"
   xmlns:sodipodi="http://sodipodi.sourceforge.net/DTD/sodipodi-0.dtd"
   xmlns:xlink="http://www.w3.org/1999/xlink"
   xmlns="http://www.w3.org/2000/svg"
   xmlns:svg="http://www.w3.org/2000/svg">
  <defs
     id="defs3">
    <linearGradient
       id="linearGradient1"
       inkscape:collect="always">
      <stop
         style="stop-color:#a03291;stop-opacity:1;"
         offset="0"
         id="stop1" />
      <stop
         style="stop-color:#4b4fe2ff;stop-opacity:1;"
         offset="0.76340693"
         id="stop2" />
    </linearGradient>
    <linearGradient
       inkscape:collect="always"
       xlink:href="#linearGradient1"
       id="linearGradient2"
       x1="232.4884"
       y1="23.847498"
       x2="23.977745"
       y2="232.35815"
       gradientUnits="userSpaceOnUse" />
  </defs>
  <defs
     id="defs1" />
  <sodipodi:namedview
     id="namedview1"
     pagecolor="#ffffff"
     bordercolor="#000000"
     borderopacity="0.25"
     inkscape:showpageshadow="2"
     inkscape:pageopacity="0.0"
     inkscape:pagecheckerboard="0"
     inkscape:deskcolor="#d1d1d1" />
  <path
     id="circle1"
     style="baseline-shift:baseline;display:inline;overflow:visible;vector-effect:none;fill:url(#linearGradient2);stroke-linecap:round;stroke-linejoin:round;enable-background:accumulate;stop-color:#000000;stop-opacity:1;opacity:1;fill-opacity:1"
     d="M 152 16 C 134.42165 16 120 30.421645 120 48 C 120 65.578355 134.42165 80 152 80 C 169.57835 80 184 65.578355 184 48 C 184 30.421645 169.57835 16 152 16 z M 152 32 C 160.93131 32 168 39.068687 168 48 C 168 56.931313 160.93131 64 152 64 C 143.06869 64 136 56.931313 136 48 C 136 39.068687 143.06869 32 152 32 z M 112.18945 88.066406 C 110.75348 88.097985 109.32535 88.190432 107.91016 88.339844 C 96.588627 89.535135 85.776013 93.952214 76.207031 99.103516 C 57.069068 109.40612 42.519531 123.17186 42.519531 123.17188 A 8 8 0 0 0 42.171875 134.48047 A 8 8 0 0 0 53.480469 134.82812 C 53.480469 134.82812 66.930932 122.2688 83.792969 113.19141 C 92.223987 108.65271 101.41137 105.11541 109.58984 104.25195 C 112.84658 103.90812 115.8854 103.92556 118.75391 104.41016 L 64.664062 228.81055 A 8 8 0 0 0 68.810547 239.33594 A 8 8 0 0 0 79.335938 235.18945 L 112.93359 157.92383 L 144 180.11719 L 144 232 A 8 8 0 0 0 152 240 A 8 8 0 0 0 160 232 L 160 176 A 8.0008 8.0008 0 0 0 156.65039 169.49023 L 119.45703 142.92188 L 132.87109 112.06836 C 148.6943 126.67906 166.60536 152 208 152 A 8 8 0 0 0 216 144 A 8 8 0 0 0 208 136 C 171.24736 136 160.74064 114.97834 141.24414 98.087891 L 141.23828 98.083984 C 138.98315 96.126932 136.60144 94.491933 134.13477 93.148438 A 8 8 0 0 0 132.7207 92.353516 A 8 8 0 0 0 132.09766 92.113281 C 127.09752 89.750211 121.79974 88.51162 116.51367 88.160156 C 115.06925 88.064119 113.62543 88.034828 112.18945 88.066406 z " />
</svg>
