<?xml version="1.0" encoding="UTF-8" standalone="no"?>
<svg
   viewBox="0 0 256 256"
   version="1.1"
   id="svg1"
   sodipodi:docname="person arms spread blue_purple.svg"
   xmlns:inkscape="http://www.inkscape.org/namespaces/inkscape"
   xmlns:sodipodi="http://sodipodi.sourceforge.net/DTD/sodipodi-0.dtd"
   xmlns:xlink="http://www.w3.org/1999/xlink"
   xmlns="http://www.w3.org/2000/svg"
   xmlns:svg="http://www.w3.org/2000/svg">
  <defs
     id="defs3">
    <linearGradient
       id="linearGradient1"
       inkscape:collect="always">
      <stop
         style="stop-color:#a03291;stop-opacity:1;"
         offset="0"
         id="stop1" />
      <stop
         style="stop-color:#4b4fe2ff;stop-opacity:1;"
         offset="0.76340693"
         id="stop2" />
    </linearGradient>
    <linearGradient
       inkscape:collect="always"
       xlink:href="#linearGradient1"
       id="linearGradient2"
       x1="232.4884"
       y1="23.847498"
       x2="23.977745"
       y2="232.35815"
       gradientUnits="userSpaceOnUse" />
  </defs>
  <defs
     id="defs1" />
  <sodipodi:namedview
     id="namedview1"
     pagecolor="#ffffff"
     bordercolor="#000000"
     borderopacity="0.25"
     inkscape:showpageshadow="2"
     inkscape:pageopacity="0.0"
     inkscape:pagecheckerboard="0"
     inkscape:deskcolor="#d1d1d1" />
  <path
     id="circle1"
     style="baseline-shift:baseline;display:inline;overflow:visible;vector-effect:none;fill:url(#linearGradient2);stroke-linecap:round;stroke-linejoin:round;enable-background:accumulate;stop-color:#000000;stop-opacity:1;opacity:1;fill-opacity:1"
     d="M 128 8 C 110.42165 8 96 22.421645 96 40 C 96 57.578355 110.42165 72 128 72 C 145.57835 72 160 57.578355 160 40 C 160 22.421645 145.57835 8 128 8 z M 128 72 L 44 72 C 33.943353 72 26.280081 79.499298 24.482422 87.714844 C 22.684763 95.930389 26.510064 105.94259 35.644531 110.16211 A 8.0008 8.0008 0 0 0 35.775391 110.2207 L 86.525391 132.56836 L 65.535156 212.35547 C 61.603299 222.09989 66.030118 233.49659 75.626953 237.9707 C 85.361402 242.50897 97.133715 238.39616 101.94531 228.83203 L 128 183.93945 L 154.05469 228.83203 C 158.86629 238.39616 170.63859 242.50897 180.37305 237.9707 C 189.97235 233.49544 194.40007 222.09374 190.46289 212.34766 L 169.47461 132.56836 L 220.22461 110.2207 A 8.0008 8.0008 0 0 0 220.34961 110.16406 C 229.4909 105.94857 233.33194 95.935312 231.5332 87.714844 C 229.73447 79.494375 222.061 72 212 72 L 128 72 z M 128 24 C 136.93131 24 144 31.068687 144 40 C 144 48.931313 136.93131 56 128 56 C 119.06869 56 112 48.931313 112 40 C 112 31.068687 119.06869 24 128 24 z M 44 88 L 212 88 C 214.809 88 215.49108 89.255234 215.90234 91.134766 C 216.31304 93.011702 216.21655 94.445302 213.6582 95.628906 L 156.77539 120.67773 A 8.0008 8.0008 0 0 0 152.26367 130.03516 L 175.13281 216.96484 A 8.0008 8.0008 0 0 0 175.57227 218.20703 C 176.50495 220.28472 175.67741 222.50839 173.61328 223.4707 C 171.54915 224.43302 169.31401 223.63609 168.32227 221.58594 A 8.0008 8.0008 0 0 0 168.03906 221.05469 L 134.91992 163.98438 A 8.0008 8.0008 0 0 0 121.08008 163.98438 L 87.960938 221.05469 A 8.0008 8.0008 0 0 0 87.677734 221.58594 C 86.68599 223.63609 84.45085 224.43302 82.386719 223.4707 C 80.322588 222.50839 79.495052 220.28472 80.427734 218.20703 A 8.0008 8.0008 0 0 0 80.867188 216.96484 L 103.73633 130.03516 A 8.0008 8.0008 0 0 0 99.224609 120.67773 L 42.355469 95.636719 L 42.353516 95.636719 L 42.351562 95.634766 L 42.351562 95.632812 L 42.349609 95.632812 C 39.801594 94.45299 39.701353 93.017331 40.113281 91.134766 C 40.525622 89.250311 41.206647 88 44 88 z " />
</svg>
