<?xml version="1.0" encoding="UTF-8" standalone="no"?>
<svg
   viewBox="0 0 256 256"
   version="1.1"
   id="svg3"
   sodipodi:docname="person simple bike blue_purple.svg"
   xmlns:inkscape="http://www.inkscape.org/namespaces/inkscape"
   xmlns:sodipodi="http://sodipodi.sourceforge.net/DTD/sodipodi-0.dtd"
   xmlns:xlink="http://www.w3.org/1999/xlink"
   xmlns="http://www.w3.org/2000/svg"
   xmlns:svg="http://www.w3.org/2000/svg">
  <defs
     id="defs3">
    <linearGradient
       id="linearGradient1"
       inkscape:collect="always">
      <stop
         style="stop-color:#a03291;stop-opacity:1;"
         offset="0"
         id="stop1" />
      <stop
         style="stop-color:#4b4fe2ff;stop-opacity:1;"
         offset="0.76340693"
         id="stop2" />
    </linearGradient>
    <linearGradient
       inkscape:collect="always"
       xlink:href="#linearGradient1"
       id="linearGradient2"
       x1="232.4884"
       y1="23.847498"
       x2="23.977745"
       y2="232.35815"
       gradientUnits="userSpaceOnUse" />
  </defs>
  <defs
     id="defs1" />
  <sodipodi:namedview
     id="namedview3"
     pagecolor="#ffffff"
     bordercolor="#000000"
     borderopacity="0.25"
     inkscape:showpageshadow="2"
     inkscape:pageopacity="0.0"
     inkscape:pagecheckerboard="0"
     inkscape:deskcolor="#d1d1d1" />
  <path
     id="circle1"
     style="baseline-shift:baseline;display:inline;overflow:visible;vector-effect:none;fill:url(#linearGradient2);stroke-linecap:round;stroke-linejoin:round;enable-background:accumulate;stop-color:#000000;stop-opacity:1;opacity:1;fill-opacity:1"
     d="M 164 24 C 148.63078 24 136 36.630784 136 52 C 136 67.369216 148.63078 80 164 80 C 179.36922 80 192 67.369216 192 52 C 192 36.630784 179.36922 24 164 24 z M 164 40 C 170.72217 40 176 45.277826 176 52 C 176 58.722174 170.72217 64 164 64 C 157.27783 64 152 58.722174 152 52 C 152 45.277826 157.27783 40 164 40 z M 120 72 A 8.0008 8.0008 0 0 0 114.34375 74.34375 L 82.34375 106.34375 A 8.0008 8.0008 0 0 0 82.34375 117.65625 L 120 155.31445 L 120 200 A 8 8 0 0 0 128 208 A 8 8 0 0 0 136 200 L 136 152 A 8.0008 8.0008 0 0 0 133.65625 146.34375 L 99.3125 112 L 120 91.3125 L 146.34375 117.65625 A 8.0008 8.0008 0 0 0 152 120 L 192 120 A 8 8 0 0 0 200 112 A 8 8 0 0 0 192 104 L 155.31445 104 L 125.65625 74.34375 A 8.0008 8.0008 0 0 0 120 72 z M 56 136 C 34.003367 136 16 154.00337 16 176 C 16 197.99663 34.003367 216 56 216 C 77.996633 216 96 197.99663 96 176 C 96 154.00337 77.996633 136 56 136 z M 200 136 C 178.00337 136 160 154.00337 160 176 C 160 197.99663 178.00337 216 200 216 C 221.99663 216 240 197.99663 240 176 C 240 154.00337 221.99663 136 200 136 z M 56 152 C 69.349591 152 80 162.65041 80 176 C 80 189.34959 69.349591 200 56 200 C 42.650409 200 32 189.34959 32 176 C 32 162.65041 42.650409 152 56 152 z M 200 152 C 213.34959 152 224 162.65041 224 176 C 224 189.34959 213.34959 200 200 200 C 186.65041 200 176 189.34959 176 176 C 176 162.65041 186.65041 152 200 152 z " />
</svg>
