<?xml version="1.0" encoding="UTF-8" standalone="no"?>
<svg
   viewBox="0 0 256 256"
   version="1.1"
   id="svg4"
   sodipodi:docname="picnic table blue_purple.svg"
   xmlns:inkscape="http://www.inkscape.org/namespaces/inkscape"
   xmlns:sodipodi="http://sodipodi.sourceforge.net/DTD/sodipodi-0.dtd"
   xmlns:xlink="http://www.w3.org/1999/xlink"
   xmlns="http://www.w3.org/2000/svg"
   xmlns:svg="http://www.w3.org/2000/svg">
  <defs
     id="defs3">
    <linearGradient
       id="linearGradient1"
       inkscape:collect="always">
      <stop
         style="stop-color:#a03291;stop-opacity:1;"
         offset="0"
         id="stop1" />
      <stop
         style="stop-color:#4b4fe2ff;stop-opacity:1;"
         offset="0.76340693"
         id="stop2" />
    </linearGradient>
    <linearGradient
       inkscape:collect="always"
       xlink:href="#linearGradient1"
       id="linearGradient2"
       x1="232.4884"
       y1="23.847498"
       x2="23.977745"
       y2="232.35815"
       gradientUnits="userSpaceOnUse" />
  </defs>
  <defs
     id="defs4" />
  <sodipodi:namedview
     id="namedview4"
     pagecolor="#ffffff"
     bordercolor="#000000"
     borderopacity="0.25"
     inkscape:showpageshadow="2"
     inkscape:pageopacity="0.0"
     inkscape:pagecheckerboard="0"
     inkscape:deskcolor="#d1d1d1" />
  <path
     id="line1"
     style="baseline-shift:baseline;display:inline;overflow:visible;vector-effect:none;fill:url(#linearGradient2);stroke-linecap:round;stroke-linejoin:round;enable-background:accumulate;stop-color:#000000;stop-opacity:1;opacity:1;fill-opacity:1"
     d="M 64 56 A 8 8 0 0 0 56 64 A 8 8 0 0 0 64 72 L 83.054688 72 L 55.054688 128 L 8 128 A 8 8 0 0 0 0 136 A 8 8 0 0 0 8 144 L 47.054688 144 L 24.84375 188.42188 A 8 8 0 0 0 28.421875 199.15625 A 8 8 0 0 0 39.15625 195.57812 L 64.945312 144 L 191.05469 144 L 216.84375 195.57812 A 8 8 0 0 0 227.57812 199.15625 A 8 8 0 0 0 231.15625 188.42188 L 208.94531 144 L 248 144 A 8 8 0 0 0 256 136 A 8 8 0 0 0 248 128 L 200.94531 128 L 172.94531 72 L 192 72 A 8 8 0 0 0 200 64 A 8 8 0 0 0 192 56 L 160.0918 56 L 159.90625 56 L 64 56 z M 100.94531 72 L 155.05469 72 L 183.05469 128 L 72.945312 128 L 100.94531 72 z " />
</svg>
