<?xml version="1.0" encoding="UTF-8" standalone="no"?>
<svg
   viewBox="0 0 256 256"
   version="1.1"
   id="svg1"
   sodipodi:docname="pinterest logo blue_purple.svg"
   xmlns:inkscape="http://www.inkscape.org/namespaces/inkscape"
   xmlns:sodipodi="http://sodipodi.sourceforge.net/DTD/sodipodi-0.dtd"
   xmlns:xlink="http://www.w3.org/1999/xlink"
   xmlns="http://www.w3.org/2000/svg"
   xmlns:svg="http://www.w3.org/2000/svg">
  <defs
     id="defs3">
    <linearGradient
       id="linearGradient1"
       inkscape:collect="always">
      <stop
         style="stop-color:#a03291;stop-opacity:1;"
         offset="0"
         id="stop1" />
      <stop
         style="stop-color:#4b4fe2ff;stop-opacity:1;"
         offset="0.76340693"
         id="stop2" />
    </linearGradient>
    <linearGradient
       inkscape:collect="always"
       xlink:href="#linearGradient1"
       id="linearGradient2"
       x1="232.4884"
       y1="23.847498"
       x2="23.977745"
       y2="232.35815"
       gradientUnits="userSpaceOnUse" />
  </defs>
  <defs
     id="defs1" />
  <sodipodi:namedview
     id="namedview1"
     pagecolor="#ffffff"
     bordercolor="#000000"
     borderopacity="0.25"
     inkscape:showpageshadow="2"
     inkscape:pageopacity="0.0"
     inkscape:pagecheckerboard="0"
     inkscape:deskcolor="#d1d1d1" />
  <path
     id="line1"
     style="baseline-shift:baseline;display:inline;overflow:visible;vector-effect:none;fill:url(#linearGradient2);stroke-linecap:round;stroke-linejoin:round;enable-background:accumulate;stop-color:#000000;stop-opacity:1;opacity:1;fill-opacity:1"
     d="M 133.97266 24.033203 C 127.13787 24.193339 120.18683 25.164523 113.22656 27.029297 C 57.544414 41.947489 30.968872 106.06006 59.769531 155.99609 A 8 8 0 0 0 70.697266 158.92969 A 8 8 0 0 0 73.630859 148.00391 C 49.884003 106.83041 71.455882 54.784791 117.36719 42.484375 C 163.27849 30.183959 207.98149 64.473178 208 112.00391 C 207.9981 152.31849 179.36243 176 152 176 C 137.75583 176 129.41145 171.51546 124.26562 167.28516 C 121.56972 165.06889 119.8809 163.06793 118.88477 161.66406 L 135.78711 89.832031 A 8 8 0 0 0 129.83203 80.212891 A 8 8 0 0 0 120.21289 86.167969 L 102.57422 161.13086 A 8 8 0 0 0 102.57031 161.14453 L 88.212891 222.16797 A 8 8 0 0 0 94.167969 231.78711 A 8 8 0 0 0 103.78711 225.83203 L 114.56641 180.01953 C 122.27024 186.1873 134.59577 192 152 192 C 188.63667 192 224 160.04298 224 112 A 8.0008 8.0008 0 0 0 224 111.99609 C 223.98036 61.555765 181.81618 22.91225 133.97266 24.033203 z " />
</svg>
