<?xml version="1.0" encoding="UTF-8" standalone="no"?>
<svg
   viewBox="0 0 256 256"
   version="1.1"
   id="svg1"
   sodipodi:docname="pint glass blue_purple.svg"
   xmlns:inkscape="http://www.inkscape.org/namespaces/inkscape"
   xmlns:sodipodi="http://sodipodi.sourceforge.net/DTD/sodipodi-0.dtd"
   xmlns:xlink="http://www.w3.org/1999/xlink"
   xmlns="http://www.w3.org/2000/svg"
   xmlns:svg="http://www.w3.org/2000/svg">
  <defs
     id="defs3">
    <linearGradient
       id="linearGradient1"
       inkscape:collect="always">
      <stop
         style="stop-color:#a03291;stop-opacity:1;"
         offset="0"
         id="stop1" />
      <stop
         style="stop-color:#4b4fe2ff;stop-opacity:1;"
         offset="0.76340693"
         id="stop2" />
    </linearGradient>
    <linearGradient
       inkscape:collect="always"
       xlink:href="#linearGradient1"
       id="linearGradient2"
       x1="232.4884"
       y1="23.847498"
       x2="23.977745"
       y2="232.35815"
       gradientUnits="userSpaceOnUse" />
  </defs>
  <defs
     id="defs1" />
  <sodipodi:namedview
     id="namedview1"
     pagecolor="#ffffff"
     bordercolor="#000000"
     borderopacity="0.25"
     inkscape:showpageshadow="2"
     inkscape:pageopacity="0.0"
     inkscape:pagecheckerboard="0"
     inkscape:deskcolor="#d1d1d1" />
  <path
     id="path1"
     style="baseline-shift:baseline;display:inline;overflow:visible;vector-effect:none;fill:url(#linearGradient2);stroke-linecap:round;stroke-linejoin:round;enable-background:accumulate;stop-color:#000000;stop-opacity:1;opacity:1;fill-opacity:1"
     d="M 56 24 A 8.0008 8.0008 0 0 0 48.056641 32.953125 L 71.207031 225.95312 A 8.0008 8.0008 0 0 0 71.212891 226 C 72.214084 233.9468 79.103666 240.01276 87.113281 240 L 168.88672 240 C 176.89633 240.0128 183.78592 233.9468 184.78711 226 A 8.0008 8.0008 0 0 0 184.79297 225.95312 L 207.94336 32.953125 A 8.0008 8.0008 0 0 0 200 24 L 56 24 z M 65.017578 40 L 190.98242 40 L 188.10352 64 L 67.896484 64 L 65.017578 40 z M 69.816406 80 L 186.18359 80 L 168.91211 224 A 8.0008 8.0008 0 0 0 168.90039 224 L 87.099609 224 A 8.0008 8.0008 0 0 0 87.087891 224 L 69.816406 80 z " />
</svg>
