<?xml version="1.0" encoding="UTF-8" standalone="no"?>
<svg
   viewBox="0 0 256 256"
   version="1.1"
   id="svg6"
   sodipodi:docname="pipe blue_purple.svg"
   xmlns:inkscape="http://www.inkscape.org/namespaces/inkscape"
   xmlns:sodipodi="http://sodipodi.sourceforge.net/DTD/sodipodi-0.dtd"
   xmlns:xlink="http://www.w3.org/1999/xlink"
   xmlns="http://www.w3.org/2000/svg"
   xmlns:svg="http://www.w3.org/2000/svg">
  <defs
     id="defs3">
    <linearGradient
       id="linearGradient1"
       inkscape:collect="always">
      <stop
         style="stop-color:#a03291;stop-opacity:1;"
         offset="0"
         id="stop1" />
      <stop
         style="stop-color:#4b4fe2ff;stop-opacity:1;"
         offset="0.76340693"
         id="stop2" />
    </linearGradient>
    <linearGradient
       inkscape:collect="always"
       xlink:href="#linearGradient1"
       id="linearGradient2"
       x1="232.4884"
       y1="23.847498"
       x2="23.977745"
       y2="232.35815"
       gradientUnits="userSpaceOnUse" />
  </defs>
  <defs
     id="defs6" />
  <sodipodi:namedview
     id="namedview6"
     pagecolor="#ffffff"
     bordercolor="#000000"
     borderopacity="0.25"
     inkscape:showpageshadow="2"
     inkscape:pageopacity="0.0"
     inkscape:pagecheckerboard="0"
     inkscape:deskcolor="#d1d1d1" />
  <path
     id="path1"
     style="baseline-shift:baseline;display:inline;overflow:visible;vector-effect:none;fill:url(#linearGradient2);stroke-linecap:round;stroke-linejoin:round;enable-background:accumulate;stop-color:#000000;stop-opacity:1;opacity:1;fill-opacity:1"
     d="M 176 32 C 170.17221 32 164.99148 35.244974 162.19336 40 L 144 40 C 86.657143 40 40 86.657143 40 144 L 40 162.19336 C 35.244974 164.99148 32 170.17221 32 176 L 32 192 C 32 197.82779 35.244974 203.00852 40 205.80664 L 40 232 A 8 8 0 0 0 48 240 A 8 8 0 0 0 56 232 L 56 208 L 104 208 L 104 232 A 8 8 0 0 0 112 240 A 8 8 0 0 0 120 232 L 120 205.80664 C 124.75503 203.00852 128 197.82779 128 192 L 128 176 C 128 170.17221 124.75503 164.99148 120 162.19336 L 120 144 C 120 130.65041 130.65041 120 144 120 L 162.19336 120 C 164.99148 124.75503 170.17221 128 176 128 L 192 128 C 197.82779 128 203.00852 124.75503 205.80664 120 L 232 120 A 8 8 0 0 0 240 112 A 8 8 0 0 0 232 104 L 208 104 L 208 56 L 232 56 A 8 8 0 0 0 240 48 A 8 8 0 0 0 232 40 L 205.80664 40 C 203.00852 35.244974 197.82779 32 192 32 L 176 32 z M 176 48 L 192 48 L 192 112 L 176 112 L 176 48 z M 144 56 L 160 56 L 160 104 L 144 104 C 122.00337 104 104 122.00337 104 144 L 104 160 L 56 160 L 56 144 C 56 95.304185 95.304185 56 144 56 z M 48 176 L 112 176 L 112 192 L 48 192 L 48 176 z " />
</svg>
