<?xml version="1.0" encoding="UTF-8" standalone="no"?>
<svg
   viewBox="0 0 256 256"
   version="1.1"
   id="svg3"
   sodipodi:docname="plant blue_purple.svg"
   xmlns:inkscape="http://www.inkscape.org/namespaces/inkscape"
   xmlns:sodipodi="http://sodipodi.sourceforge.net/DTD/sodipodi-0.dtd"
   xmlns:xlink="http://www.w3.org/1999/xlink"
   xmlns="http://www.w3.org/2000/svg"
   xmlns:svg="http://www.w3.org/2000/svg">
  <defs
     id="defs3">
    <linearGradient
       id="linearGradient1"
       inkscape:collect="always">
      <stop
         style="stop-color:#a03291;stop-opacity:1;"
         offset="0"
         id="stop1" />
      <stop
         style="stop-color:#4b4fe2ff;stop-opacity:1;"
         offset="0.76340693"
         id="stop2" />
    </linearGradient>
    <linearGradient
       inkscape:collect="always"
       xlink:href="#linearGradient1"
       id="linearGradient2"
       x1="232.4884"
       y1="23.847498"
       x2="23.977745"
       y2="232.35815"
       gradientUnits="userSpaceOnUse" />
  </defs>
  <defs
     id="defs1" />
  <sodipodi:namedview
     id="namedview3"
     pagecolor="#ffffff"
     bordercolor="#000000"
     borderopacity="0.25"
     inkscape:showpageshadow="2"
     inkscape:pageopacity="0.0"
     inkscape:pagecheckerboard="0"
     inkscape:deskcolor="#d1d1d1" />
  <path
     id="path1"
     style="baseline-shift:baseline;display:inline;overflow:visible;vector-effect:none;fill:url(#linearGradient2);stroke-linecap:round;stroke-linejoin:round;enable-background:accumulate;stop-color:#000000;stop-opacity:1;opacity:1;fill-opacity:1"
     d="M 223.05859 40.041016 C 184.55537 40.827034 155.00613 52.54291 137.3418 71.515625 C 118.36821 91.894556 114.71268 120.87264 128.76367 148.32617 C 122.14661 156.24034 117.33916 165.44952 114.61133 175.29883 L 98.318359 159.00586 C 107.68618 139.17627 104.75519 118.01827 90.998047 103.24219 C 77.822714 89.090995 56.109434 80.594634 28.150391 80.025391 C 24.156242 79.944071 20.033334 80.024584 15.791016 80.273438 A 8.0008 8.0008 0 0 0 8.2734375 87.791016 C 6.2773285 121.73012 15.064049 147.9425 31.238281 163 C 46.015724 176.75715 67.175707 179.68663 87.005859 170.31836 L 112 195.3125 L 112 224 A 8 8 0 0 0 120 232 A 8 8 0 0 0 128 224 L 128 194.50977 C 127.99993 181.73436 132.36129 169.41521 140.26367 159.53516 C 167.5435 173.23408 196.26265 169.49763 216.50195 150.66016 C 238.192 130.47242 250.39735 94.757251 247.61523 47.896484 A 8.0008 8.0008 0 0 0 240.09961 40.384766 C 234.24226 40.040254 228.55905 39.928727 223.05859 40.041016 z M 223.41797 56.046875 C 226.10171 55.989145 228.99419 56.149612 231.79297 56.210938 C 232.68128 95.833033 221.50818 124.14238 205.60156 138.94727 C 190.91161 152.61976 172.49829 156.17384 152.00195 147.31055 L 205.65625 93.65625 A 8 8 0 0 0 205.65625 82.34375 A 8 8 0 0 0 200 80 A 8 8 0 0 0 194.34375 82.34375 L 140.6875 136 C 131.82366 115.50598 135.37833 97.103128 149.05078 82.417969 C 162.80988 67.639746 188.1063 56.806497 223.41797 56.046875 z M 27.789062 96.03125 C 52.557144 96.573701 70.018459 104.18728 79.289062 114.14453 C 87.784607 123.26932 90.491318 134.21365 86.085938 146.77344 L 61.65625 122.34375 A 8 8 0 0 0 56 120 A 8 8 0 0 0 50.34375 122.34375 A 8 8 0 0 0 50.34375 133.65625 L 74.773438 158.08594 C 62.212909 162.49133 51.266283 159.78465 42.140625 151.28906 C 31.708336 141.57706 23.951543 122.777 24.103516 96.103516 C 25.315552 96.096816 26.610044 96.00543 27.789062 96.03125 z " />
</svg>
