<?xml version="1.0" encoding="UTF-8" standalone="no"?>
<svg
   viewBox="0 0 256 256"
   version="1.1"
   id="svg1"
   sodipodi:docname="planet blue_purple.svg"
   xmlns:inkscape="http://www.inkscape.org/namespaces/inkscape"
   xmlns:sodipodi="http://sodipodi.sourceforge.net/DTD/sodipodi-0.dtd"
   xmlns:xlink="http://www.w3.org/1999/xlink"
   xmlns="http://www.w3.org/2000/svg"
   xmlns:svg="http://www.w3.org/2000/svg">
  <defs
     id="defs3">
    <linearGradient
       id="linearGradient1"
       inkscape:collect="always">
      <stop
         style="stop-color:#a03291;stop-opacity:1;"
         offset="0"
         id="stop1" />
      <stop
         style="stop-color:#4b4fe2ff;stop-opacity:1;"
         offset="0.76340693"
         id="stop2" />
    </linearGradient>
    <linearGradient
       inkscape:collect="always"
       xlink:href="#linearGradient1"
       id="linearGradient2"
       x1="232.4884"
       y1="23.847498"
       x2="23.977745"
       y2="232.35815"
       gradientUnits="userSpaceOnUse" />
  </defs>
  <defs
     id="defs1" />
  <sodipodi:namedview
     id="namedview1"
     pagecolor="#ffffff"
     bordercolor="#000000"
     borderopacity="0.25"
     inkscape:showpageshadow="2"
     inkscape:pageopacity="0.0"
     inkscape:pagecheckerboard="0"
     inkscape:deskcolor="#d1d1d1" />
  <path
     id="circle1"
     style="baseline-shift:baseline;display:inline;overflow:visible;vector-effect:none;fill:url(#linearGradient2);stroke-linecap:round;stroke-linejoin:round;enable-background:accumulate;stop-color:#000000;stop-opacity:1;opacity:1;fill-opacity:1"
     d="M 128 32 C 75.075421 32 32 75.075421 32 128 C 32 132.15717 32.265807 136.25391 32.78125 140.27344 C 23.800995 149.56008 16.925728 158.51053 12.626953 167.11719 C 7.88117 176.61881 5.9393357 186.76418 10.880859 195.2832 C 15.358585 203.02079 23.963517 206.56069 33.294922 207.62109 C 42.630751 208.682 53.539746 207.56919 65.873047 204.81641 C 67.038446 204.55629 68.216188 204.28048 69.40625 203.99023 C 85.630031 216.52997 105.9612 224 128 224 C 180.92458 224 224 180.92458 224 128 C 224 123.83314 223.73265 119.72776 223.21484 115.69922 C 224.11856 114.76301 225.00108 113.82965 225.86133 112.90039 C 234.42824 103.64627 240.8599 94.797875 244.61719 86.212891 C 248.37385 77.629331 249.60809 68.402664 245.11914 60.673828 C 240.19226 52.184554 230.47964 48.811071 219.90234 48.136719 C 217.25802 47.968131 214.49189 47.954769 211.61133 48.087891 C 204.04336 48.437638 195.67742 49.797738 186.60742 52.019531 C 170.38127 39.473092 150.04532 32 128 32 z M 128 48 C 147.39873 48 165.15451 54.856204 178.98438 66.285156 A 8 8 0 0 0 180.27344 67.373047 C 192.98388 78.33473 202.19107 93.238387 206.02539 110.21094 C 190.55355 124.927 169.00575 140.90751 143.89453 155.33398 C 118.65968 169.83149 93.859421 180.44636 73.253906 186.4043 C 60.959391 174.87838 52.322491 159.49876 49.242188 142.16602 C 49.185898 141.84928 49.132646 141.53288 49.080078 141.21484 C 48.369797 136.91762 48 132.50274 48 128 C 48 83.722463 83.722463 48 128 48 z M 218.88281 64.103516 C 226.73552 64.604163 230.17813 66.804352 231.28125 68.705078 A 8.0008 8.0008 0 0 0 231.2832 68.708984 C 232.29161 70.444362 232.59451 73.774984 229.95898 79.796875 C 227.88582 84.53385 224.08839 90.376042 218.77539 96.744141 C 214.7678 85.141298 208.59251 74.538255 200.73828 65.421875 C 207.83377 64.221662 214.00397 63.792466 218.88281 64.103516 z M 207.97461 130.03906 C 206.89832 173.36956 171.5961 208 128 208 C 113.96943 208 100.79771 204.413 89.349609 198.10352 C 108.70448 191.48039 130.11006 181.70545 151.86523 169.20703 C 173.48 156.78929 192.58167 143.32479 207.97461 130.03906 z M 37.222656 159.24609 C 41.233226 170.86108 47.414611 181.47439 55.279297 190.59766 C 47.156685 191.96544 40.233748 192.30587 35.101562 191.72266 C 28.528955 190.97575 25.740632 189.02234 24.726562 187.26758 A 8.0008 8.0008 0 0 0 24.720703 187.25586 C 23.612228 185.34488 23.42469 181.30652 26.941406 174.26562 C 29.124146 169.89552 32.604242 164.77803 37.222656 159.24609 z " />
</svg>
