<?xml version="1.0" encoding="UTF-8" standalone="no"?>
<svg
   viewBox="0 0 256 256"
   version="1.1"
   id="svg2"
   sodipodi:docname="play pause blue_purple.svg"
   xmlns:inkscape="http://www.inkscape.org/namespaces/inkscape"
   xmlns:sodipodi="http://sodipodi.sourceforge.net/DTD/sodipodi-0.dtd"
   xmlns:xlink="http://www.w3.org/1999/xlink"
   xmlns="http://www.w3.org/2000/svg"
   xmlns:svg="http://www.w3.org/2000/svg">
  <defs
     id="defs3">
    <linearGradient
       id="linearGradient1"
       inkscape:collect="always">
      <stop
         style="stop-color:#a03291;stop-opacity:1;"
         offset="0"
         id="stop1" />
      <stop
         style="stop-color:#4b4fe2ff;stop-opacity:1;"
         offset="0.76340693"
         id="stop2" />
    </linearGradient>
    <linearGradient
       inkscape:collect="always"
       xlink:href="#linearGradient1"
       id="linearGradient2"
       x1="232.4884"
       y1="23.847498"
       x2="23.977745"
       y2="232.35815"
       gradientUnits="userSpaceOnUse" />
  </defs>
  <defs
     id="defs2" />
  <sodipodi:namedview
     id="namedview2"
     pagecolor="#ffffff"
     bordercolor="#000000"
     borderopacity="0.25"
     inkscape:showpageshadow="2"
     inkscape:pageopacity="0.0"
     inkscape:pagecheckerboard="0"
     inkscape:deskcolor="#d1d1d1" />
  <path
     id="line1"
     style="baseline-shift:baseline;display:inline;overflow:visible;vector-effect:none;fill:url(#linearGradient2);stroke-linecap:round;stroke-linejoin:round;enable-background:accumulate;stop-color:#000000;stop-opacity:1;opacity:1;fill-opacity:1"
     d="M 176 56 A 8 8 0 0 0 168 64 L 168 192 A 8 8 0 0 0 176 200 A 8 8 0 0 0 184 192 L 184 64 A 8 8 0 0 0 176 56 z M 224 56 A 8 8 0 0 0 216 64 L 216 192 A 8 8 0 0 0 224 200 A 8 8 0 0 0 232 192 L 232 64 A 8 8 0 0 0 224 56 z M 40.388672 56.140625 C 32.090847 56.114737 24.078323 62.708005 24 71.78125 A 8.0008 8.0008 0 0 0 24 71.849609 L 24 184.15039 A 8.0008 8.0008 0 0 0 24 184.21875 C 24.104431 196.31641 38.314406 204.0059 48.498047 197.47461 L 136.6582 141.3418 L 136.66016 141.33984 L 136.66211 141.33984 L 136.66406 141.33984 L 136.66602 141.33789 C 146.17178 135.30146 146.17178 120.69854 136.66602 114.66211 L 136.6582 114.6582 L 48.498047 58.525391 C 45.952137 56.892568 43.154614 56.149254 40.388672 56.140625 z M 40 72.082031 L 127.82617 128 L 40 183.91797 L 40 72.082031 z " />
</svg>
