<?xml version="1.0" encoding="UTF-8" standalone="no"?>
<svg
   viewBox="0 0 256 256"
   version="1.1"
   id="svg9"
   sodipodi:docname="poker chip blue_purple.svg"
   xmlns:inkscape="http://www.inkscape.org/namespaces/inkscape"
   xmlns:sodipodi="http://sodipodi.sourceforge.net/DTD/sodipodi-0.dtd"
   xmlns:xlink="http://www.w3.org/1999/xlink"
   xmlns="http://www.w3.org/2000/svg"
   xmlns:svg="http://www.w3.org/2000/svg">
  <defs
     id="defs3">
    <linearGradient
       id="linearGradient1"
       inkscape:collect="always">
      <stop
         style="stop-color:#a03291;stop-opacity:1;"
         offset="0"
         id="stop1" />
      <stop
         style="stop-color:#4b4fe2ff;stop-opacity:1;"
         offset="0.76340693"
         id="stop2" />
    </linearGradient>
    <linearGradient
       inkscape:collect="always"
       xlink:href="#linearGradient1"
       id="linearGradient2"
       x1="232.4884"
       y1="23.847498"
       x2="23.977745"
       y2="232.35815"
       gradientUnits="userSpaceOnUse" />
  </defs>
  <defs
     id="defs9" />
  <sodipodi:namedview
     id="namedview9"
     pagecolor="#ffffff"
     bordercolor="#000000"
     borderopacity="0.25"
     inkscape:showpageshadow="2"
     inkscape:pageopacity="0.0"
     inkscape:pagecheckerboard="0"
     inkscape:deskcolor="#d1d1d1" />
  <path
     id="circle1"
     style="baseline-shift:baseline;display:inline;overflow:visible;vector-effect:none;fill:url(#linearGradient2);stroke-linecap:round;stroke-linejoin:round;enable-background:accumulate;stop-color:#000000;stop-opacity:1;opacity:1;fill-opacity:1"
     d="M 128 24 C 99.653589 24 73.91743 35.40195 55.138672 53.859375 A 8 8 0 0 0 54.462891 54.462891 A 8 8 0 0 0 53.859375 55.138672 C 35.401803 73.917452 24 99.653461 24 128 C 24 156.34654 35.401802 182.08255 53.859375 200.86133 A 8 8 0 0 0 54.462891 201.53711 A 8 8 0 0 0 55.138672 202.14062 C 73.917452 220.5982 99.653461 232 128 232 C 156.34654 232 182.08255 220.5982 200.86133 202.14062 A 8 8 0 0 0 201.53711 201.53711 A 8 8 0 0 0 202.14062 200.86133 C 220.5982 182.08255 232 156.34654 232 128 C 232 99.653461 220.5982 73.917452 202.14062 55.138672 A 8 8 0 0 0 201.53711 54.462891 A 8 8 0 0 0 200.86133 53.859375 C 182.08257 35.401949 156.34641 24 128 24 z M 120 40.357422 L 120 64.498047 C 108.34197 65.962526 97.642504 70.584397 88.789062 77.474609 L 71.652344 60.337891 C 84.987124 49.228948 101.67396 41.999629 120 40.357422 z M 136 40.357422 C 154.32604 41.999629 171.01288 49.228947 184.34766 60.337891 L 167.21094 77.474609 C 158.3575 70.584397 147.65803 65.962526 136 64.498047 L 136 40.357422 z M 60.337891 71.652344 L 77.474609 88.789062 C 70.584397 97.642504 65.962526 108.34197 64.498047 120 L 40.357422 120 C 41.999629 101.67396 49.228948 84.987124 60.337891 71.652344 z M 195.66211 71.652344 C 206.77105 84.987124 214.00037 101.67396 215.64258 120 L 191.50195 120 C 190.03747 108.34197 185.4156 97.642505 178.52539 88.789062 L 195.66211 71.652344 z M 128 80 C 141.01187 80 152.77812 85.118769 161.4043 93.460938 A 8 8 0 0 0 161.94336 94.056641 A 8 8 0 0 0 162.53906 94.595703 C 170.88123 103.22188 176 114.98813 176 128 C 176 141.01177 170.88307 152.77814 162.54102 161.4043 A 8 8 0 0 0 161.94336 161.94336 A 8 8 0 0 0 161.4043 162.53906 C 152.77812 170.88123 141.01188 176 128 176 C 114.98813 176 103.22188 170.88123 94.595703 162.53906 A 8 8 0 0 0 94.056641 161.94336 A 8 8 0 0 0 93.458984 161.4043 C 85.116933 152.77814 80 141.01177 80 128 C 80 114.98813 85.118773 103.22187 93.460938 94.595703 A 8 8 0 0 0 94.056641 94.056641 A 8 8 0 0 0 94.595703 93.460938 C 103.22187 85.118773 114.98813 80 128 80 z M 40.357422 136 L 64.498047 136 C 65.962526 147.65803 70.584397 158.3575 77.474609 167.21094 L 60.337891 184.34766 C 49.228947 171.01288 41.999629 154.32604 40.357422 136 z M 191.50195 136 L 215.64258 136 C 214.00037 154.32604 206.77105 171.01288 195.66211 184.34766 L 178.52539 167.21094 C 185.4156 158.3575 190.03747 147.65803 191.50195 136 z M 88.789062 178.52539 C 97.642505 185.4156 108.34197 190.03747 120 191.50195 L 120 215.64258 C 101.67396 214.00037 84.987124 206.77105 71.652344 195.66211 L 88.789062 178.52539 z M 167.21094 178.52539 L 184.34766 195.66211 C 171.01288 206.77105 154.32604 214.00037 136 215.64258 L 136 191.50195 C 147.65803 190.03747 158.3575 185.4156 167.21094 178.52539 z " />
</svg>
