<?xml version="1.0" encoding="UTF-8" standalone="no"?>
<svg
   viewBox="0 0 256 256"
   version="1.1"
   id="svg4"
   sodipodi:docname="rectangle dashed blue_purple.svg"
   xmlns:inkscape="http://www.inkscape.org/namespaces/inkscape"
   xmlns:sodipodi="http://sodipodi.sourceforge.net/DTD/sodipodi-0.dtd"
   xmlns:xlink="http://www.w3.org/1999/xlink"
   xmlns="http://www.w3.org/2000/svg"
   xmlns:svg="http://www.w3.org/2000/svg">
  <defs
     id="defs3">
    <linearGradient
       id="linearGradient1"
       inkscape:collect="always">
      <stop
         style="stop-color:#a03291;stop-opacity:1;"
         offset="0"
         id="stop1" />
      <stop
         style="stop-color:#4b4fe2ff;stop-opacity:1;"
         offset="0.76340693"
         id="stop2" />
    </linearGradient>
    <linearGradient
       inkscape:collect="always"
       xlink:href="#linearGradient1"
       id="linearGradient2"
       x1="232.4884"
       y1="23.847498"
       x2="23.977745"
       y2="232.35815"
       gradientUnits="userSpaceOnUse" />
  </defs>
  <defs
     id="defs4" />
  <sodipodi:namedview
     id="namedview4"
     pagecolor="#ffffff"
     bordercolor="#000000"
     borderopacity="0.25"
     inkscape:showpageshadow="2"
     inkscape:pageopacity="0.0"
     inkscape:pagecheckerboard="0"
     inkscape:deskcolor="#d1d1d1" />
  <path
     id="path1"
     style="baseline-shift:baseline;display:inline;overflow:visible;vector-effect:none;fill:url(#linearGradient2);stroke-linecap:round;stroke-linejoin:round;enable-background:accumulate;stop-color:#000000;stop-opacity:1;opacity:1;fill-opacity:1"
     d="M 40 40 C 31.258201 40 24 47.258201 24 56 L 24 72 A 8 8 0 0 0 32 80 A 8 8 0 0 0 40 72 L 40 56 L 72 56 A 8 8 0 0 0 80 48 A 8 8 0 0 0 72 40 L 40 40 z M 112 40 A 8 8 0 0 0 104 48 A 8 8 0 0 0 112 56 L 144 56 A 8 8 0 0 0 152 48 A 8 8 0 0 0 144 40 L 112 40 z M 184 40 A 8 8 0 0 0 176 48 A 8 8 0 0 0 184 56 L 216 56 L 216 72 A 8 8 0 0 0 224 80 A 8 8 0 0 0 232 72 L 232 56 C 232 47.258201 224.7418 40 216 40 L 184 40 z M 32 104 A 8 8 0 0 0 24 112 L 24 144 A 8 8 0 0 0 32 152 A 8 8 0 0 0 40 144 L 40 112 A 8 8 0 0 0 32 104 z M 224 104 A 8 8 0 0 0 216 112 L 216 144 A 8 8 0 0 0 224 152 A 8 8 0 0 0 232 144 L 232 112 A 8 8 0 0 0 224 104 z M 32 176 A 8 8 0 0 0 24 184 L 24 200 C 24 208.7418 31.258201 216 40 216 L 72 216 A 8 8 0 0 0 80 208 A 8 8 0 0 0 72 200 L 40 200 L 40 184 A 8 8 0 0 0 32 176 z M 224 176 A 8 8 0 0 0 216 184 L 216 200 L 184 200 A 8 8 0 0 0 176 208 A 8 8 0 0 0 184 216 L 216 216 C 224.7418 216 232 208.7418 232 200 L 232 184 A 8 8 0 0 0 224 176 z M 112 200 A 8 8 0 0 0 104 208 A 8 8 0 0 0 112 216 L 144 216 A 8 8 0 0 0 152 208 A 8 8 0 0 0 144 200 L 112 200 z " />
</svg>
