<?xml version="1.0" encoding="UTF-8" standalone="no"?>
<svg
   viewBox="0 0 256 256"
   version="1.1"
   id="svg4"
   sodipodi:docname="scan blue_purple.svg"
   xmlns:inkscape="http://www.inkscape.org/namespaces/inkscape"
   xmlns:sodipodi="http://sodipodi.sourceforge.net/DTD/sodipodi-0.dtd"
   xmlns:xlink="http://www.w3.org/1999/xlink"
   xmlns="http://www.w3.org/2000/svg"
   xmlns:svg="http://www.w3.org/2000/svg">
  <defs
     id="defs3">
    <linearGradient
       id="linearGradient1"
       inkscape:collect="always">
      <stop
         style="stop-color:#a03291;stop-opacity:1;"
         offset="0"
         id="stop1" />
      <stop
         style="stop-color:#4b4fe2ff;stop-opacity:1;"
         offset="0.76340693"
         id="stop2" />
    </linearGradient>
    <linearGradient
       inkscape:collect="always"
       xlink:href="#linearGradient1"
       id="linearGradient2"
       x1="232.4884"
       y1="23.847498"
       x2="23.977745"
       y2="232.35815"
       gradientUnits="userSpaceOnUse" />
  </defs>
  <defs
     id="defs4" />
  <sodipodi:namedview
     id="namedview4"
     pagecolor="#ffffff"
     bordercolor="#000000"
     borderopacity="0.25"
     inkscape:showpageshadow="2"
     inkscape:pageopacity="0.0"
     inkscape:pagecheckerboard="0"
     inkscape:deskcolor="#d1d1d1" />
  <path
     id="polyline1"
     style="baseline-shift:baseline;display:inline;overflow:visible;vector-effect:none;fill:url(#linearGradient2);stroke-linecap:round;stroke-linejoin:round;enable-background:accumulate;stop-color:#000000;stop-opacity:1;opacity:1;fill-opacity:1"
     d="M 40 32 A 8.0008 8.0008 0 0 0 32 40 L 32 80 A 8 8 0 0 0 40 88 A 8 8 0 0 0 48 80 L 48 48 L 80 48 A 8 8 0 0 0 88 40 A 8 8 0 0 0 80 32 L 40 32 z M 176 32 A 8 8 0 0 0 168 40 A 8 8 0 0 0 176 48 L 208 48 L 208 80 A 8 8 0 0 0 216 88 A 8 8 0 0 0 224 80 L 224 40 A 8.0008 8.0008 0 0 0 216 32 L 176 32 z M 80 72 A 8.0008 8.0008 0 0 0 72 80 L 72 176 A 8.0008 8.0008 0 0 0 80 184 L 176 184 A 8.0008 8.0008 0 0 0 184 176 L 184 80 A 8.0008 8.0008 0 0 0 176 72 L 80 72 z M 88 88 L 168 88 L 168 168 L 88 168 L 88 88 z M 40 168 A 8 8 0 0 0 32 176 L 32 216 A 8.0008 8.0008 0 0 0 40 224 L 80 224 A 8 8 0 0 0 88 216 A 8 8 0 0 0 80 208 L 48 208 L 48 176 A 8 8 0 0 0 40 168 z M 216 168 A 8 8 0 0 0 208 176 L 208 208 L 176 208 A 8 8 0 0 0 168 216 A 8 8 0 0 0 176 224 L 216 224 A 8.0008 8.0008 0 0 0 224 216 L 224 176 A 8 8 0 0 0 216 168 z " />
</svg>
