<?xml version="1.0" encoding="UTF-8" standalone="no"?>
<svg
   viewBox="0 0 256 256"
   version="1.1"
   id="svg4"
   sodipodi:docname="scissors blue_purple.svg"
   xmlns:inkscape="http://www.inkscape.org/namespaces/inkscape"
   xmlns:sodipodi="http://sodipodi.sourceforge.net/DTD/sodipodi-0.dtd"
   xmlns:xlink="http://www.w3.org/1999/xlink"
   xmlns="http://www.w3.org/2000/svg"
   xmlns:svg="http://www.w3.org/2000/svg">
  <defs
     id="defs3">
    <linearGradient
       id="linearGradient1"
       inkscape:collect="always">
      <stop
         style="stop-color:#a03291;stop-opacity:1;"
         offset="0"
         id="stop1" />
      <stop
         style="stop-color:#4b4fe2ff;stop-opacity:1;"
         offset="0.76340693"
         id="stop2" />
    </linearGradient>
    <linearGradient
       inkscape:collect="always"
       xlink:href="#linearGradient1"
       id="linearGradient2"
       x1="232.4884"
       y1="23.847498"
       x2="23.977745"
       y2="232.35815"
       gradientUnits="userSpaceOnUse" />
  </defs>
  <defs
     id="defs4" />
  <sodipodi:namedview
     id="namedview4"
     pagecolor="#ffffff"
     bordercolor="#000000"
     borderopacity="0.25"
     inkscape:showpageshadow="2"
     inkscape:pageopacity="0.0"
     inkscape:pagecheckerboard="0"
     inkscape:deskcolor="#d1d1d1" />
  <path
     id="circle1"
     style="baseline-shift:baseline;display:inline;overflow:visible;vector-effect:none;fill:url(#linearGradient2);stroke-linecap:round;stroke-linejoin:round;enable-background:accumulate;stop-color:#000000;stop-opacity:1;opacity:1;fill-opacity:1"
     d="M 60 40 C 40.212506 40 24 56.212506 24 76 C 24 95.787494 40.212506 112 60 112 C 69.392632 112 77.980142 108.34686 84.410156 102.39258 L 121.83594 128 L 84.410156 153.60742 C 77.980154 147.6532 69.392577 144 60 144 C 40.212506 144 24 160.21251 24 180 C 24 199.78749 40.212506 216 60 216 C 79.787494 216 96 199.78749 96 180 C 96 175.34493 95.102652 170.88779 93.472656 166.79297 L 136.00195 137.69141 L 227.48242 200.2832 A 8 8 0 0 0 238.60156 198.19727 A 8 8 0 0 0 236.51758 187.07812 L 93.472656 89.207031 C 95.102573 85.112291 96 80.654956 96 76 C 96 56.212506 79.787494 40 60 40 z M 232.43555 54.332031 A 8 8 0 0 0 227.48242 55.716797 L 159.8125 102.00781 A 8 8 0 0 0 157.72656 113.12695 A 8 8 0 0 0 168.84766 115.21289 L 236.51758 68.923828 A 8 8 0 0 0 238.60352 57.802734 A 8 8 0 0 0 233.47461 54.457031 A 8 8 0 0 0 232.43555 54.332031 z M 60 56 C 71.140452 56 80 64.859548 80 76 C 80 79.963462 78.878168 83.638704 76.931641 86.728516 A 8 8 0 0 0 76.507812 87.292969 A 8 8 0 0 0 76.123047 87.914062 C 72.498497 92.836361 66.656238 96 60 96 C 48.859548 96 40 87.140452 40 76 C 40 64.859548 48.859548 56 60 56 z M 60 160 C 66.656241 160 72.498498 163.16364 76.123047 168.08594 A 8 8 0 0 0 76.507812 168.70703 A 8 8 0 0 0 76.931641 169.27148 C 78.878228 172.36133 80 176.03647 80 180 C 80 191.14045 71.140452 200 60 200 C 48.859548 200 40 191.14045 40 180 C 40 168.85955 48.859548 160 60 160 z " />
</svg>
