<?xml version="1.0" encoding="UTF-8" standalone="no"?>
<svg
   viewBox="0 0 256 256"
   version="1.1"
   id="svg1"
   sodipodi:docname="scribble blue_purple.svg"
   xmlns:inkscape="http://www.inkscape.org/namespaces/inkscape"
   xmlns:sodipodi="http://sodipodi.sourceforge.net/DTD/sodipodi-0.dtd"
   xmlns:xlink="http://www.w3.org/1999/xlink"
   xmlns="http://www.w3.org/2000/svg"
   xmlns:svg="http://www.w3.org/2000/svg">
  <defs
     id="defs3">
    <linearGradient
       id="linearGradient1"
       inkscape:collect="always">
      <stop
         style="stop-color:#a03291;stop-opacity:1;"
         offset="0"
         id="stop1" />
      <stop
         style="stop-color:#4b4fe2ff;stop-opacity:1;"
         offset="0.76340693"
         id="stop2" />
    </linearGradient>
    <linearGradient
       inkscape:collect="always"
       xlink:href="#linearGradient1"
       id="linearGradient2"
       x1="232.4884"
       y1="23.847498"
       x2="23.977745"
       y2="232.35815"
       gradientUnits="userSpaceOnUse" />
  </defs>
  <defs
     id="defs1" />
  <sodipodi:namedview
     id="namedview1"
     pagecolor="#ffffff"
     bordercolor="#000000"
     borderopacity="0.25"
     inkscape:showpageshadow="2"
     inkscape:pageopacity="0.0"
     inkscape:pagecheckerboard="0"
     inkscape:deskcolor="#d1d1d1" />
  <path
     id="path1"
     style="baseline-shift:baseline;display:inline;overflow:visible;vector-effect:none;fill:url(#linearGradient2);stroke-linecap:round;stroke-linejoin:round;enable-background:accumulate;stop-color:#000000;stop-opacity:1;opacity:1;fill-opacity:1"
     d="M 88 32 A 8 8 0 0 0 82.34375 34.34375 L 40.972656 75.712891 C 29.075804 87.604114 29.07522 107.13332 40.970703 119.02539 L 40.972656 119.02734 L 40.974609 119.02734 L 40.974609 119.0293 C 52.867343 130.92549 72.398028 130.92432 84.289062 119.02539 L 151.02734 52.287109 A 8.0008 8.0008 0 0 0 151.0293 52.285156 C 156.80666 46.504007 165.93358 46.504007 171.71094 52.285156 A 8.0008 8.0008 0 0 0 171.71484 52.289062 C 177.49599 58.066421 177.49599 67.193345 171.71484 72.970703 A 8.0008 8.0008 0 0 0 171.71289 72.972656 L 72.972656 171.71289 C 61.075804 183.60411 61.07522 203.13332 72.970703 215.02539 L 72.972656 215.02734 L 72.974609 215.02734 L 72.974609 215.0293 C 84.867343 226.92549 104.39803 226.92432 116.28906 215.02539 L 183.02734 148.28711 A 8.0008 8.0008 0 0 0 183.0293 148.28516 C 188.80666 142.50401 197.93358 142.50401 203.71094 148.28516 A 8.0008 8.0008 0 0 0 203.71484 148.28906 C 209.49599 154.06642 209.49599 163.19334 203.71484 168.9707 A 8.0008 8.0008 0 0 0 203.71289 168.97266 L 194.34375 178.34375 C 182.44557 190.2363 182.44615 209.76651 194.3457 221.6582 A 8 8 0 0 0 205.6582 221.6543 A 8 8 0 0 0 205.6543 210.3418 C 199.87315 204.56444 199.87315 195.43556 205.6543 189.6582 A 8.0008 8.0008 0 0 0 205.65625 189.65625 L 215.02539 180.28906 C 226.92555 168.39671 226.92555 148.86306 215.02539 136.9707 C 203.13266 125.07451 183.60197 125.07568 171.71094 136.97461 L 104.97266 203.71289 A 8.0008 8.0008 0 0 0 104.9707 203.71484 C 99.193351 209.49599 90.066423 209.49599 84.289062 203.71484 A 8.0008 8.0008 0 0 0 84.285156 203.71094 C 78.504007 197.93358 78.504007 188.80666 84.285156 183.0293 A 8.0008 8.0008 0 0 0 84.287109 183.02734 L 183.02539 84.289062 L 183.02734 84.287109 C 194.92552 72.394564 194.92494 52.862399 183.02539 40.970703 C 171.13266 29.074512 151.60197 29.075778 139.71094 40.974609 L 72.972656 107.71289 A 8.0008 8.0008 0 0 0 72.970703 107.71484 C 67.193345 113.49599 58.066421 113.49599 52.289062 107.71484 A 8.0008 8.0008 0 0 0 52.285156 107.71094 C 46.504007 101.93358 46.504007 92.806655 52.285156 87.029297 A 8.0008 8.0008 0 0 0 52.287109 87.027344 L 93.65625 45.65625 A 8 8 0 0 0 93.65625 34.34375 A 8 8 0 0 0 88 32 z " />
</svg>
