<?xml version="1.0" encoding="UTF-8" standalone="no"?>
<svg
   viewBox="0 0 256 256"
   version="1.1"
   id="svg1"
   sodipodi:docname="seal warning blue_purple.svg"
   xmlns:inkscape="http://www.inkscape.org/namespaces/inkscape"
   xmlns:sodipodi="http://sodipodi.sourceforge.net/DTD/sodipodi-0.dtd"
   xmlns:xlink="http://www.w3.org/1999/xlink"
   xmlns="http://www.w3.org/2000/svg"
   xmlns:svg="http://www.w3.org/2000/svg">
  <defs
     id="defs3">
    <linearGradient
       id="linearGradient1"
       inkscape:collect="always">
      <stop
         style="stop-color:#a03291;stop-opacity:1;"
         offset="0"
         id="stop1" />
      <stop
         style="stop-color:#4b4fe2ff;stop-opacity:1;"
         offset="0.76340693"
         id="stop2" />
    </linearGradient>
    <linearGradient
       inkscape:collect="always"
       xlink:href="#linearGradient1"
       id="linearGradient2"
       x1="232.4884"
       y1="23.847498"
       x2="23.977745"
       y2="232.35815"
       gradientUnits="userSpaceOnUse" />
  </defs>
  <defs
     id="defs1" />
  <sodipodi:namedview
     id="namedview1"
     pagecolor="#ffffff"
     bordercolor="#000000"
     borderopacity="0.25"
     inkscape:showpageshadow="2"
     inkscape:pageopacity="0.0"
     inkscape:pagecheckerboard="0"
     inkscape:deskcolor="#d1d1d1" />
  <path
     id="path1"
     style="baseline-shift:baseline;display:inline;overflow:visible;vector-effect:none;fill:url(#linearGradient2);stroke-linecap:round;stroke-linejoin:round;enable-background:accumulate;stop-color:#000000;stop-opacity:1;opacity:1;fill-opacity:1"
     d="M 128 16 C 117.9484 16 111.05405 22.372369 105.39453 27.685547 C 99.736165 32.997645 94.63011 37.887528 91.251953 39.287109 C 88.220265 40.541601 81.178111 40.657207 73.367188 40.878906 C 65.556264 41.100605 56.009806 41.595662 48.802734 48.802734 C 41.595662 56.009806 41.100605 65.556264 40.878906 73.367188 C 40.657319 81.174194 40.541782 88.211905 39.289062 91.246094 C 37.890971 94.600129 32.993181 99.714567 27.681641 105.37891 C 22.366566 111.04701 16 117.9484 16 128 C 16 138.0516 22.366566 144.95299 27.681641 150.62109 C 32.993864 156.28615 37.891692 161.40185 39.289062 164.75586 C 40.543048 167.79994 40.657382 174.83327 40.878906 182.63672 C 41.10061 190.44649 41.596687 199.99122 48.802734 207.19727 C 56.009806 214.40434 65.556264 214.89939 73.367188 215.12109 C 81.174194 215.34268 88.211905 215.45822 91.246094 216.71094 C 94.600129 218.10903 99.714567 223.00682 105.37891 228.31836 C 111.04701 233.63343 117.9484 240 128 240 C 138.0516 240 144.95299 233.63343 150.62109 228.31836 C 156.28615 223.00614 161.40185 218.10831 164.75586 216.71094 C 167.79994 215.45695 174.83327 215.34262 182.63672 215.12109 C 190.44649 214.89939 199.99122 214.40331 207.19727 207.19727 C 214.40331 199.99122 214.89939 190.44649 215.12109 182.63672 C 215.34262 174.83327 215.45695 167.79994 216.71094 164.75586 C 218.10831 161.40185 223.00614 156.28615 228.31836 150.62109 C 233.63343 144.95299 240 138.0516 240 128 C 240 117.9484 233.62763 111.05405 228.31445 105.39453 C 223.00304 99.736891 218.11319 94.632073 216.71289 91.253906 L 216.71289 91.251953 L 216.71094 91.25 C 215.45532 88.208207 215.34272 81.170342 215.12109 73.363281 C 214.89939 65.553511 214.40331 56.008782 207.19727 48.802734 C 199.99122 41.596687 190.44649 41.10061 182.63672 40.878906 C 174.83327 40.657382 167.79994 40.543048 164.75586 39.289062 C 161.40185 37.891692 156.28615 32.993864 150.62109 27.681641 C 144.95304 22.36666 138.0516 16 128 16 z M 128 32 C 130.4484 32 134.54638 34.543591 139.67578 39.353516 C 144.80518 44.163441 150.28306 50.600765 158.61914 54.066406 A 8.0008 8.0008 0 0 0 158.63281 54.072266 C 166.91274 57.495415 175.19836 56.672797 182.18359 56.871094 C 189.16882 57.06939 193.88886 58.123235 195.88281 60.117188 C 197.87677 62.11114 198.93061 66.831176 199.12891 73.816406 C 199.3272 80.801636 198.50458 89.087261 201.92773 97.367188 A 8.0008 8.0008 0 0 0 201.92773 97.369141 C 205.38929 105.731 211.83857 111.22022 216.65039 116.3457 C 221.46218 121.47111 224 125.5516 224 128 C 224 130.4484 221.45641 134.54638 216.64648 139.67578 C 211.83656 144.80518 205.39923 150.28306 201.93359 158.61914 A 8.0008 8.0008 0 0 0 201.92773 158.63281 C 198.50458 166.91274 199.3272 175.19836 199.12891 182.18359 C 198.93061 189.16882 197.87677 193.88886 195.88281 195.88281 C 193.88886 197.87677 189.16882 198.93061 182.18359 199.12891 C 175.19836 199.3272 166.91274 198.50458 158.63281 201.92773 A 8.0008 8.0008 0 0 0 158.61914 201.93359 C 150.28306 205.39923 144.80518 211.83656 139.67578 216.64648 C 134.54655 221.45624 130.4484 224 128 224 C 125.5516 224 121.45362 221.45641 116.32422 216.64648 C 111.19482 211.83656 105.71694 205.39923 97.380859 201.93359 A 8.0008 8.0008 0 0 0 97.369141 201.92773 C 89.090829 198.50223 80.806888 199.32721 73.820312 199.12891 C 66.833737 198.93061 62.110117 197.87574 60.117188 195.88281 C 58.123235 193.88886 57.06939 189.16882 56.871094 182.18359 C 56.672797 175.19836 57.495415 166.91274 54.072266 158.63281 A 8.0008 8.0008 0 0 0 54.066406 158.61914 C 50.600807 150.28323 44.163441 144.80518 39.353516 139.67578 C 34.543591 134.54638 32 130.4484 32 128 C 32 125.5516 34.543591 121.45362 39.353516 116.32422 C 44.163441 111.19482 50.600765 105.71694 54.066406 97.380859 A 8.0008 8.0008 0 0 0 54.072266 97.369141 C 57.497774 89.090829 56.672793 80.806888 56.871094 73.820312 C 57.069395 66.833737 58.12426 62.110117 60.117188 60.117188 C 62.110115 58.12426 66.833737 57.069395 73.820312 56.871094 C 80.806888 56.672793 89.090829 57.497774 97.369141 54.072266 C 105.73096 50.610714 111.22022 44.161432 116.3457 39.349609 C 121.47119 34.537787 125.5516 32 128 32 z M 128 72 A 8 8 0 0 0 120 80 L 120 136 A 8 8 0 0 0 128 144 A 8 8 0 0 0 136 136 L 136 80 A 8 8 0 0 0 128 72 z M 128 160 A 12 12 0 0 0 116 172 A 12 12 0 0 0 128 184 A 12 12 0 0 0 140 172 A 12 12 0 0 0 128 160 z " />
</svg>
