<?xml version="1.0" encoding="UTF-8" standalone="no"?>
<svg
   viewBox="0 0 256 256"
   version="1.1"
   id="svg2"
   sodipodi:docname="seatbelt blue_purple.svg"
   xmlns:inkscape="http://www.inkscape.org/namespaces/inkscape"
   xmlns:sodipodi="http://sodipodi.sourceforge.net/DTD/sodipodi-0.dtd"
   xmlns:xlink="http://www.w3.org/1999/xlink"
   xmlns="http://www.w3.org/2000/svg"
   xmlns:svg="http://www.w3.org/2000/svg">
  <defs
     id="defs3">
    <linearGradient
       id="linearGradient1"
       inkscape:collect="always">
      <stop
         style="stop-color:#a03291;stop-opacity:1;"
         offset="0"
         id="stop1" />
      <stop
         style="stop-color:#4b4fe2ff;stop-opacity:1;"
         offset="0.76340693"
         id="stop2" />
    </linearGradient>
    <linearGradient
       inkscape:collect="always"
       xlink:href="#linearGradient1"
       id="linearGradient2"
       x1="232.4884"
       y1="23.847498"
       x2="23.977745"
       y2="232.35815"
       gradientUnits="userSpaceOnUse" />
  </defs>
  <defs
     id="defs2" />
  <sodipodi:namedview
     id="namedview2"
     pagecolor="#ffffff"
     bordercolor="#000000"
     borderopacity="0.25"
     inkscape:showpageshadow="2"
     inkscape:pageopacity="0.0"
     inkscape:pagecheckerboard="0"
     inkscape:deskcolor="#d1d1d1" />
  <path
     id="circle1"
     style="baseline-shift:baseline;display:inline;overflow:visible;vector-effect:none;fill:url(#linearGradient2);stroke-linecap:round;stroke-linejoin:round;enable-background:accumulate;stop-color:#000000;stop-opacity:1;opacity:1;fill-opacity:1"
     d="M 128 24 C 103.79423 24 84 43.794228 84 68 C 84 92.205772 103.79423 112 128 112 C 152.20577 112 172 92.205772 172 68 C 172 43.794228 152.20577 24 128 24 z M 128 40 C 143.55873 40 156 52.44127 156 68 C 156 83.55873 143.55873 96 128 96 C 112.44127 96 100 83.55873 100 68 C 100 52.44127 112.44127 40 128 40 z M 192.5 96.015625 A 8 8 0 0 0 186.70703 98.001953 L 162.17383 119.65039 L 162.17188 119.65039 C 151.61685 114.64237 140.57158 112.20037 129.68359 112.01758 C 91.697371 111.37984 55.630535 138.20732 49.011719 179.24609 A 8 8 0 0 0 55.636719 188.41797 A 8 8 0 0 0 64.808594 181.79297 C 71.307326 141.49875 112.11253 118.54683 148.82812 131.42383 L 50.707031 218.00195 A 8.0008 8.0008 0 0 0 56 232 L 200 232 A 8 8 0 0 0 208 224 A 8 8 0 0 0 200 216 L 77.158203 216 L 197.29297 109.99805 A 8 8 0 0 0 197.99805 98.707031 A 8 8 0 0 0 192.5 96.015625 z M 187.5332 143.00781 A 8 8 0 0 0 182.5918 144.43359 A 8 8 0 0 0 180.59375 155.56836 C 188.03097 166.25897 192.01078 178.97104 192 191.99414 A 8 8 0 0 0 199.99414 200 A 8 8 0 0 0 208 192.00586 C 208.0135 175.71308 203.03103 159.80631 193.72656 146.43164 A 8 8 0 0 0 188.57227 143.125 A 8 8 0 0 0 187.5332 143.00781 z " />
</svg>
