<?xml version="1.0" encoding="UTF-8" standalone="no"?>
<svg
   viewBox="0 0 256 256"
   version="1.1"
   id="svg7"
   sodipodi:docname="selection foreground blue_purple.svg"
   xmlns:inkscape="http://www.inkscape.org/namespaces/inkscape"
   xmlns:sodipodi="http://sodipodi.sourceforge.net/DTD/sodipodi-0.dtd"
   xmlns:xlink="http://www.w3.org/1999/xlink"
   xmlns="http://www.w3.org/2000/svg"
   xmlns:svg="http://www.w3.org/2000/svg">
  <defs
     id="defs3">
    <linearGradient
       id="linearGradient1"
       inkscape:collect="always">
      <stop
         style="stop-color:#a03291;stop-opacity:1;"
         offset="0"
         id="stop1" />
      <stop
         style="stop-color:#4b4fe2ff;stop-opacity:1;"
         offset="0.76340693"
         id="stop2" />
    </linearGradient>
    <linearGradient
       inkscape:collect="always"
       xlink:href="#linearGradient1"
       id="linearGradient2"
       x1="232.4884"
       y1="23.847498"
       x2="23.977745"
       y2="232.35815"
       gradientUnits="userSpaceOnUse" />
  </defs>
  <defs
     id="defs7" />
  <sodipodi:namedview
     id="namedview7"
     pagecolor="#ffffff"
     bordercolor="#000000"
     borderopacity="0.25"
     inkscape:showpageshadow="2"
     inkscape:pageopacity="0.0"
     inkscape:pagecheckerboard="0"
     inkscape:deskcolor="#d1d1d1" />
  <path
     id="path1"
     style="baseline-shift:baseline;display:inline;overflow:visible;vector-effect:none;fill:url(#linearGradient2);stroke-linecap:round;stroke-linejoin:round;enable-background:accumulate;stop-color:#000000;stop-opacity:1;opacity:1;fill-opacity:1"
     d="M 96 32 C 87.258201 32 80 39.258201 80 48 L 80 88 A 8 8 0 0 0 88 96 L 112 96 A 8 8 0 0 0 120 88 A 8 8 0 0 0 112 80 L 96 80 L 96 48 L 208 48 L 208 160 L 176 160 L 176 144 A 8 8 0 0 0 168 136 A 8 8 0 0 0 160 144 L 160 168 A 8 8 0 0 0 168 176 L 208 176 C 216.7418 176 224 168.7418 224 160 L 224 48 C 224 39.258201 216.7418 32 208 32 L 96 32 z M 48 80 C 39.258201 80 32 87.258201 32 96 L 32 104 A 8 8 0 0 0 40 112 A 8 8 0 0 0 48 104 L 48 96 L 56 96 A 8 8 0 0 0 64 88 A 8 8 0 0 0 56 80 L 48 80 z M 152 80 A 8 8 0 0 0 144 88 A 8 8 0 0 0 152 96 L 160 96 L 160 104 A 8 8 0 0 0 168 112 A 8 8 0 0 0 176 104 L 176 96 C 176 87.258201 168.7418 80 160 80 L 152 80 z M 40 136 A 8 8 0 0 0 32 144 L 32 160 A 8 8 0 0 0 40 168 A 8 8 0 0 0 48 160 L 48 144 A 8 8 0 0 0 40 136 z M 40 192 A 8 8 0 0 0 32 200 L 32 208 C 32 216.7418 39.258201 224 48 224 L 56 224 A 8 8 0 0 0 64 216 A 8 8 0 0 0 56 208 L 48 208 L 48 200 A 8 8 0 0 0 40 192 z M 168 192 A 8 8 0 0 0 160 200 L 160 208 L 152 208 A 8 8 0 0 0 144 216 A 8 8 0 0 0 152 224 L 160 224 C 168.7418 224 176 216.7418 176 208 L 176 200 A 8 8 0 0 0 168 192 z M 96 208 A 8 8 0 0 0 88 216 A 8 8 0 0 0 96 224 L 112 224 A 8 8 0 0 0 120 216 A 8 8 0 0 0 112 208 L 96 208 z " />
</svg>
