<?xml version="1.0" encoding="UTF-8" standalone="no"?>
<svg
   viewBox="0 0 256 256"
   version="1.1"
   id="svg2"
   sodipodi:docname="share blue_purple.svg"
   xmlns:inkscape="http://www.inkscape.org/namespaces/inkscape"
   xmlns:sodipodi="http://sodipodi.sourceforge.net/DTD/sodipodi-0.dtd"
   xmlns:xlink="http://www.w3.org/1999/xlink"
   xmlns="http://www.w3.org/2000/svg"
   xmlns:svg="http://www.w3.org/2000/svg">
  <defs
     id="defs3">
    <linearGradient
       id="linearGradient1"
       inkscape:collect="always">
      <stop
         style="stop-color:#a03291;stop-opacity:1;"
         offset="0"
         id="stop1" />
      <stop
         style="stop-color:#4b4fe2ff;stop-opacity:1;"
         offset="0.76340693"
         id="stop2" />
    </linearGradient>
    <linearGradient
       inkscape:collect="always"
       xlink:href="#linearGradient1"
       id="linearGradient2"
       x1="232.4884"
       y1="23.847498"
       x2="23.977745"
       y2="232.35815"
       gradientUnits="userSpaceOnUse" />
  </defs>
  <defs
     id="defs2" />
  <sodipodi:namedview
     id="namedview2"
     pagecolor="#ffffff"
     bordercolor="#000000"
     borderopacity="0.25"
     inkscape:showpageshadow="2"
     inkscape:pageopacity="0.0"
     inkscape:pagecheckerboard="0"
     inkscape:deskcolor="#d1d1d1" />
  <path
     id="polyline1"
     style="baseline-shift:baseline;display:inline;overflow:visible;vector-effect:none;fill:url(#linearGradient2);stroke-linecap:round;stroke-linejoin:round;enable-background:accumulate;stop-color:#000000;stop-opacity:1;opacity:1;fill-opacity:1"
     d="M 176 48 A 8 8 0 0 0 170.34375 50.34375 A 8 8 0 0 0 170.34375 61.65625 L 204.6875 96 L 165.00391 96 L 165 96 C 117.59837 95.977881 76.10439 128.10325 64.253906 174 A 8 8 0 0 0 70 183.74609 A 8 8 0 0 0 79.746094 178 C 89.792201 139.09157 124.81165 111.97974 164.99609 112 A 8.0008 8.0008 0 0 0 165 112 L 204.6875 112 L 170.34375 146.34375 A 8 8 0 0 0 170.34375 157.65625 A 8 8 0 0 0 181.65625 157.65625 L 229.57031 109.74219 L 229.65625 109.65625 A 8.0008 8.0008 0 0 0 229.94727 109.32422 A 8 8 0 0 0 230.32031 108.89844 A 8.0008 8.0008 0 0 0 230.60547 108.48047 A 8 8 0 0 0 230.9043 108.0332 A 8.0008 8.0008 0 0 0 231.16992 107.50977 A 8 8 0 0 0 231.37695 107.08594 A 8.0008 8.0008 0 0 0 231.55859 106.56445 A 8 8 0 0 0 231.72266 106.08398 A 8.0008 8.0008 0 0 0 231.78906 105.75 A 8 8 0 0 0 232 104 A 8 8 0 0 0 231.78906 102.25 A 8.0008 8.0008 0 0 0 231.72266 101.91602 A 8 8 0 0 0 231.55859 101.43555 A 8.0008 8.0008 0 0 0 231.37695 100.91406 A 8 8 0 0 0 231.16992 100.49023 A 8.0008 8.0008 0 0 0 230.9043 99.966797 A 8 8 0 0 0 230.60547 99.519531 A 8.0008 8.0008 0 0 0 230.32031 99.101562 A 8 8 0 0 0 229.94727 98.675781 A 8.0008 8.0008 0 0 0 229.65625 98.34375 L 229.57031 98.257812 L 181.65625 50.34375 A 8 8 0 0 0 176 48 z M 32 80 A 8 8 0 0 0 24 88 L 24 216 A 8.0008 8.0008 0 0 0 32 224 L 192 224 A 8 8 0 0 0 200 216 A 8 8 0 0 0 192 208 L 40 208 L 40 88 A 8 8 0 0 0 32 80 z " />
</svg>
