<?xml version="1.0" encoding="UTF-8" standalone="no"?>
<svg
   viewBox="0 0 256 256"
   version="1.1"
   id="svg1"
   sodipodi:docname="signature blue_purple.svg"
   xmlns:inkscape="http://www.inkscape.org/namespaces/inkscape"
   xmlns:sodipodi="http://sodipodi.sourceforge.net/DTD/sodipodi-0.dtd"
   xmlns:xlink="http://www.w3.org/1999/xlink"
   xmlns="http://www.w3.org/2000/svg"
   xmlns:svg="http://www.w3.org/2000/svg">
  <defs
     id="defs3">
    <linearGradient
       id="linearGradient1"
       inkscape:collect="always">
      <stop
         style="stop-color:#a03291;stop-opacity:1;"
         offset="0"
         id="stop1" />
      <stop
         style="stop-color:#4b4fe2ff;stop-opacity:1;"
         offset="0.76340693"
         id="stop2" />
    </linearGradient>
    <linearGradient
       inkscape:collect="always"
       xlink:href="#linearGradient1"
       id="linearGradient2"
       x1="232.4884"
       y1="23.847498"
       x2="23.977745"
       y2="232.35815"
       gradientUnits="userSpaceOnUse" />
  </defs>
  <defs
     id="defs1" />
  <sodipodi:namedview
     id="namedview1"
     pagecolor="#ffffff"
     bordercolor="#000000"
     borderopacity="0.25"
     inkscape:showpageshadow="2"
     inkscape:pageopacity="0.0"
     inkscape:pagecheckerboard="0"
     inkscape:deskcolor="#d1d1d1" />
  <path
     id="line1"
     style="baseline-shift:baseline;display:inline;overflow:visible;vector-effect:none;fill:url(#linearGradient2);stroke-linecap:round;stroke-linejoin:round;enable-background:accumulate;stop-color:#000000;stop-opacity:1;opacity:1;fill-opacity:1"
     d="M 77.910156 24 C 69.371692 24 62.017672 28.693162 56.806641 34.933594 C 51.595609 41.174025 47.901244 49.120422 45.191406 57.933594 C 39.771731 75.559936 38.349883 96.754973 41.744141 114.91016 C 43.44127 123.98774 46.328609 132.35736 51.1875 139.14453 C 52.862814 141.4847 54.938387 143.51953 57.177734 145.36523 C 53.412764 153.17211 49.578386 160.7936 45.847656 168 L 24 168 A 8 8 0 0 0 16 176 A 8 8 0 0 0 24 184 L 37.386719 184 C 25.964933 205.16976 17.144531 219.875 17.144531 219.875 A 8 8 0 0 0 19.875 230.85547 A 8 8 0 0 0 30.855469 228.125 C 30.855469 228.125 41.978084 209.6267 55.544922 184 L 232 184 A 8 8 0 0 0 240 176 A 8 8 0 0 0 232 168 L 63.835938 168 C 66.501095 162.74176 69.192759 157.31172 71.851562 151.78516 C 72.029466 151.80416 72.186118 151.87916 72.365234 151.89453 C 87.774895 153.21875 104.3433 143.44805 124.56055 120.69336 C 125.33218 122.81096 126.14204 124.97989 127.13867 127.21484 C 129.5641 132.65387 132.65408 138.29119 137.02148 143.03906 C 141.38889 147.78694 147.55831 151.85257 155.07617 151.99805 C 164.56294 152.1816 173.39218 146.60058 182.49414 135.56055 C 183.08016 136.2611 183.65118 136.96368 184.34375 137.65625 C 192.22937 145.54187 206.66667 152 232 152 A 8 8 0 0 0 240 144 A 8 8 0 0 0 232 136 C 209.33333 136 199.77063 130.45813 195.65625 126.34375 C 193.59906 124.28656 192.75253 122.45877 192.33984 121.2207 C 192.00453 120.21477 191.98985 120.03497 191.99609 120.00391 L 191.99805 120.00195 L 191.99805 120 L 192 120 A 8.0008 8.0008 0 0 0 177.29688 115.63477 C 166.39186 132.38041 158.51657 136.0628 155.38477 136.00195 C 153.34263 135.96245 151.3276 134.95822 148.79688 132.20703 C 146.26615 129.45584 143.74403 125.16449 141.75195 120.69727 C 137.76781 111.76281 135.83594 102.57811 135.83594 102.57812 A 8.0008 8.0008 0 0 0 121.74414 99.203125 C 103.01072 122.69664 88.643789 132.40621 79.611328 135.07422 C 80.190418 133.78585 80.809798 132.51836 81.378906 131.22852 C 92.112849 106.90086 101.05423 82.629954 103.42188 62.955078 C 104.60568 53.11764 104.35675 44.186963 100.375 36.550781 C 96.393248 28.914599 87.688991 24 77.910156 24 z M 77.910156 40 C 83.533821 40 84.696166 41.085401 86.189453 43.949219 C 87.68274 46.813037 88.517427 52.88236 87.535156 61.044922 C 85.570615 77.370046 77.185042 101.09914 66.740234 124.77148 C 65.968231 126.52117 65.127447 128.24966 64.335938 129.99805 C 64.289608 129.93445 64.243657 129.89488 64.197266 129.83008 C 61.309126 125.79576 58.873574 119.47437 57.470703 111.9707 C 54.664961 96.963384 55.934753 77.437798 60.486328 62.634766 C 62.762116 55.233249 65.874703 49.037381 69.087891 45.189453 C 72.301078 41.341525 74.98862 40 77.910156 40 z " />
</svg>
