<?xml version="1.0" encoding="UTF-8" standalone="no"?>
<svg
   viewBox="0 0 256 256"
   version="1.1"
   id="svg8"
   sodipodi:docname="sliders blue_purple.svg"
   xmlns:inkscape="http://www.inkscape.org/namespaces/inkscape"
   xmlns:sodipodi="http://sodipodi.sourceforge.net/DTD/sodipodi-0.dtd"
   xmlns:xlink="http://www.w3.org/1999/xlink"
   xmlns="http://www.w3.org/2000/svg"
   xmlns:svg="http://www.w3.org/2000/svg">
  <defs
     id="defs3">
    <linearGradient
       id="linearGradient1"
       inkscape:collect="always">
      <stop
         style="stop-color:#a03291;stop-opacity:1;"
         offset="0"
         id="stop1" />
      <stop
         style="stop-color:#4b4fe2ff;stop-opacity:1;"
         offset="0.76340693"
         id="stop2" />
    </linearGradient>
    <linearGradient
       inkscape:collect="always"
       xlink:href="#linearGradient1"
       id="linearGradient2"
       x1="232.4884"
       y1="23.847498"
       x2="23.977745"
       y2="232.35815"
       gradientUnits="userSpaceOnUse" />
  </defs>
  <defs
     id="defs8" />
  <sodipodi:namedview
     id="namedview8"
     pagecolor="#ffffff"
     bordercolor="#000000"
     borderopacity="0.25"
     inkscape:showpageshadow="2"
     inkscape:pageopacity="0.0"
     inkscape:pagecheckerboard="0"
     inkscape:deskcolor="#d1d1d1" />
  <path
     id="circle1"
     style="baseline-shift:baseline;display:inline;overflow:visible;vector-effect:none;fill:url(#linearGradient2);stroke-linecap:round;stroke-linejoin:round;enable-background:accumulate;stop-color:#000000;stop-opacity:1;opacity:1;fill-opacity:1"
     d="M 56 32 A 8 8 0 0 0 48 40 L 48 105.02148 C 34.249911 108.60402 24 121.1806 24 136 C 24 150.8194 34.249911 163.39598 48 166.97852 L 48 216 A 8 8 0 0 0 56 224 A 8 8 0 0 0 64 216 L 64 166.97852 C 77.750089 163.39598 88 150.8194 88 136 C 88 121.1806 77.750089 108.60402 64 105.02148 L 64 40 A 8 8 0 0 0 56 32 z M 128 32 A 8 8 0 0 0 120 40 L 120 57.021484 C 106.24991 60.604016 96 73.180592 96 88 C 96 102.8194 106.24991 115.39598 120 118.97852 L 120 216 A 8 8 0 0 0 128 224 A 8 8 0 0 0 136 216 L 136 118.97852 C 149.75009 115.39598 160 102.8194 160 88 C 160 73.180592 149.75009 60.604016 136 57.021484 L 136 40 A 8 8 0 0 0 128 32 z M 200 32 A 8 8 0 0 0 192 40 L 192 137.02148 C 178.24991 140.60402 168 153.1806 168 168 C 168 182.8194 178.24991 195.39598 192 198.97852 L 192 216 A 8 8 0 0 0 200 224 A 8 8 0 0 0 208 216 L 208 198.97852 C 221.75009 195.39598 232 182.8194 232 168 C 232 153.1806 221.75009 140.60402 208 137.02148 L 208 40 A 8 8 0 0 0 200 32 z M 128 72 C 136.93131 72 144 79.068687 144 88 C 144 96.931313 136.93131 104 128 104 C 119.06869 104 112 96.931313 112 88 C 112 79.068687 119.06869 72 128 72 z M 56 120 C 64.931313 120 72 127.06869 72 136 C 72 144.93131 64.931313 152 56 152 C 47.068687 152 40 144.93131 40 136 C 40 127.06869 47.068687 120 56 120 z M 200 152 C 208.93131 152 216 159.06869 216 168 C 216 176.93129 208.93129 183.99997 200 184 C 191.06869 184 184 176.93131 184 168 C 184 159.06869 191.06869 152 200 152 z " />
</svg>
