<?xml version="1.0" encoding="UTF-8" standalone="no"?>
<svg
   viewBox="0 0 256 256"
   version="1.1"
   id="svg3"
   sodipodi:docname="smiley nervous blue_purple.svg"
   xmlns:inkscape="http://www.inkscape.org/namespaces/inkscape"
   xmlns:sodipodi="http://sodipodi.sourceforge.net/DTD/sodipodi-0.dtd"
   xmlns:xlink="http://www.w3.org/1999/xlink"
   xmlns="http://www.w3.org/2000/svg"
   xmlns:svg="http://www.w3.org/2000/svg">
  <defs
     id="defs3">
    <linearGradient
       id="linearGradient1"
       inkscape:collect="always">
      <stop
         style="stop-color:#a03291;stop-opacity:1;"
         offset="0"
         id="stop1" />
      <stop
         style="stop-color:#4b4fe2ff;stop-opacity:1;"
         offset="0.76340693"
         id="stop2" />
    </linearGradient>
    <linearGradient
       inkscape:collect="always"
       xlink:href="#linearGradient1"
       id="linearGradient2"
       x1="232.4884"
       y1="23.847498"
       x2="23.977745"
       y2="232.35815"
       gradientUnits="userSpaceOnUse" />
  </defs>
  <defs
     id="defs1" />
  <sodipodi:namedview
     id="namedview3"
     pagecolor="#ffffff"
     bordercolor="#000000"
     borderopacity="0.25"
     inkscape:showpageshadow="2"
     inkscape:pageopacity="0.0"
     inkscape:pagecheckerboard="0"
     inkscape:deskcolor="#d1d1d1" />
  <path
     id="circle1"
     style="baseline-shift:baseline;display:inline;overflow:visible;vector-effect:none;fill:url(#linearGradient2);stroke-linecap:round;stroke-linejoin:round;enable-background:accumulate;stop-color:#000000;stop-opacity:1;opacity:1;fill-opacity:1"
     d="M 128 24 C 70.657143 24 24 70.657143 24 128 C 24 185.34286 70.657143 232 128 232 C 185.34286 232 232 185.34286 232 128 C 232 70.657143 185.34286 24 128 24 z M 128 40 C 176.69582 40 216 79.304185 216 128 C 216 176.69582 176.69582 216 128 216 C 79.304185 216 40 176.69582 40 128 C 40 79.304185 79.304185 40 128 40 z M 92 96 A 12 12 0 0 0 80 108 A 12 12 0 0 0 92 120 A 12 12 0 0 0 104 108 A 12 12 0 0 0 92 96 z M 164 96 A 12 12 0 0 0 152 108 A 12 12 0 0 0 164 120 A 12 12 0 0 0 176 108 A 12 12 0 0 0 164 96 z M 104 144 C 99.222222 144 94.835435 145.88712 91.876953 148.25391 C 88.918471 150.62069 87.099609 153.19922 85.599609 155.19922 C 84.099609 157.19922 82.918471 158.62069 82.126953 159.25391 C 81.335435 159.88712 81.222222 160 80 160 A 8 8 0 0 0 72 168 A 8 8 0 0 0 80 176 C 84.777778 176 89.164565 174.11288 92.123047 171.74609 C 95.081529 169.37931 96.900391 166.80078 98.400391 164.80078 C 99.900391 162.80078 101.08153 161.37931 101.87305 160.74609 C 102.66456 160.11288 102.77778 160 104 160 C 105.22222 160 105.33544 160.11288 106.12695 160.74609 C 106.91847 161.37931 108.09961 162.80078 109.59961 164.80078 C 111.09961 166.80078 112.91847 169.37931 115.87695 171.74609 C 118.83544 174.11288 123.22222 176 128 176 C 132.77778 176 137.16456 174.11288 140.12305 171.74609 C 143.08153 169.37931 144.90039 166.80078 146.40039 164.80078 C 147.90039 162.80078 149.08153 161.37931 149.87305 160.74609 C 150.66456 160.11288 150.77778 160 152 160 C 153.22222 160 153.33544 160.11288 154.12695 160.74609 C 154.91847 161.37931 156.09961 162.80078 157.59961 164.80078 C 159.09961 166.80078 160.91847 169.37931 163.87695 171.74609 C 166.83544 174.11288 171.22222 176 176 176 A 8 8 0 0 0 184 168 A 8 8 0 0 0 176 160 C 174.77778 160 174.66456 159.88712 173.87305 159.25391 C 173.08153 158.62069 171.90039 157.19922 170.40039 155.19922 C 168.90039 153.19922 167.08153 150.62069 164.12305 148.25391 C 161.16456 145.88712 156.77778 144 152 144 C 147.22222 144 142.83544 145.88712 139.87695 148.25391 C 136.91847 150.62069 135.09961 153.19922 133.59961 155.19922 C 132.09961 157.19922 130.91847 158.62069 130.12695 159.25391 C 129.33544 159.88712 129.22222 160 128 160 C 126.77778 160 126.66456 159.88712 125.87305 159.25391 C 125.08153 158.62069 123.90039 157.19922 122.40039 155.19922 C 120.90039 153.19922 119.08153 150.62069 116.12305 148.25391 C 113.16456 145.88712 108.77778 144 104 144 z " />
</svg>
