<?xml version="1.0" encoding="UTF-8" standalone="no"?>
<svg
   viewBox="0 0 256 256"
   version="1.1"
   id="svg4"
   sodipodi:docname="solar roof blue_purple.svg"
   xmlns:inkscape="http://www.inkscape.org/namespaces/inkscape"
   xmlns:sodipodi="http://sodipodi.sourceforge.net/DTD/sodipodi-0.dtd"
   xmlns:xlink="http://www.w3.org/1999/xlink"
   xmlns="http://www.w3.org/2000/svg"
   xmlns:svg="http://www.w3.org/2000/svg">
  <defs
     id="defs3">
    <linearGradient
       id="linearGradient1"
       inkscape:collect="always">
      <stop
         style="stop-color:#a03291;stop-opacity:1;"
         offset="0"
         id="stop1" />
      <stop
         style="stop-color:#4b4fe2ff;stop-opacity:1;"
         offset="0.76340693"
         id="stop2" />
    </linearGradient>
    <linearGradient
       inkscape:collect="always"
       xlink:href="#linearGradient1"
       id="linearGradient2"
       x1="232.4884"
       y1="23.847498"
       x2="23.977745"
       y2="232.35815"
       gradientUnits="userSpaceOnUse" />
  </defs>
  <defs
     id="defs4" />
  <sodipodi:namedview
     id="namedview4"
     pagecolor="#ffffff"
     bordercolor="#000000"
     borderopacity="0.25"
     inkscape:showpageshadow="2"
     inkscape:pageopacity="0.0"
     inkscape:pagecheckerboard="0"
     inkscape:deskcolor="#d1d1d1" />
  <path
     id="polyline1"
     style="baseline-shift:baseline;display:inline;overflow:visible;vector-effect:none;fill:url(#linearGradient2);stroke-linecap:round;stroke-linejoin:round;enable-background:accumulate;stop-color:#000000;stop-opacity:1;opacity:1;fill-opacity:1"
     d="M 56 40 A 8.0008 8.0008 0 0 0 55.800781 40.013672 A 8 8 0 0 0 55 40.068359 A 8.0008 8.0008 0 0 0 54.650391 40.128906 A 8 8 0 0 0 53.980469 40.269531 A 8.0008 8.0008 0 0 0 53.611328 40.378906 A 8 8 0 0 0 52.980469 40.605469 A 8.0008 8.0008 0 0 0 52.632812 40.753906 A 8 8 0 0 0 52.421875 40.84375 A 8 8 0 0 0 52.066406 41.050781 A 8.0008 8.0008 0 0 0 51.671875 41.28125 A 8 8 0 0 0 51.164062 41.646484 A 8.0008 8.0008 0 0 0 50.806641 41.921875 A 8 8 0 0 0 50.326172 42.382812 A 8.0008 8.0008 0 0 0 50.042969 42.666016 A 8 8 0 0 0 49.607422 43.214844 A 8.0008 8.0008 0 0 0 49.373047 43.523438 A 8 8 0 0 0 48.984375 44.183594 A 8.0008 8.0008 0 0 0 48.84375 44.421875 L 48.816406 44.476562 A 8 8 0 0 0 48.804688 44.5 L 8.84375 124.42188 A 8.0008 8.0008 0 0 0 8 128 L 8 184 C 8 192.7418 15.258201 200 24 200 L 232 200 C 240.7418 200 248 192.7418 248 184 L 248 128 A 8.0008 8.0008 0 0 0 247.93555 127.00391 A 8 8 0 0 0 247.88867 126.73828 A 8.0008 8.0008 0 0 0 247.74414 126.01953 A 8 8 0 0 0 247.65234 125.70898 A 8.0008 8.0008 0 0 0 247.4375 125.07812 A 8 8 0 0 0 247.29492 124.74609 A 8.0008 8.0008 0 0 0 247.15625 124.42188 L 207.15625 44.421875 A 8.0008 8.0008 0 0 0 200 40 L 56 40 z M 68.945312 56 L 99.054688 56 L 111.05469 80 L 80.945312 80 L 68.945312 56 z M 116.94531 56 L 147.05469 56 L 159.05469 80 L 128.94531 80 L 116.94531 56 z M 164.94531 56 L 195.05664 56 L 207.05664 80 L 176.94531 80 L 164.94531 56 z M 56 65.888672 L 88 129.89062 L 88 184 L 24 184 L 24 129.88867 L 56 65.888672 z M 88.943359 96 L 119.05469 96 L 131.05469 120 L 100.94336 120 L 88.943359 96 z M 136.94531 96 L 167.05469 96 L 179.05469 120 L 148.94531 120 L 136.94531 96 z M 184.94531 96 L 215.05469 96 L 227.05469 120 L 196.94531 120 L 184.94531 96 z M 104 136 L 232 136 L 232 184 L 104 184 L 104 136 z " />
</svg>
