<?xml version="1.0" encoding="UTF-8" standalone="no"?>
<svg
   viewBox="0 0 256 256"
   version="1.1"
   id="svg1"
   sodipodi:docname="spade blue_purple.svg"
   xmlns:inkscape="http://www.inkscape.org/namespaces/inkscape"
   xmlns:sodipodi="http://sodipodi.sourceforge.net/DTD/sodipodi-0.dtd"
   xmlns:xlink="http://www.w3.org/1999/xlink"
   xmlns="http://www.w3.org/2000/svg"
   xmlns:svg="http://www.w3.org/2000/svg">
  <defs
     id="defs3">
    <linearGradient
       id="linearGradient1"
       inkscape:collect="always">
      <stop
         style="stop-color:#a03291;stop-opacity:1;"
         offset="0"
         id="stop1" />
      <stop
         style="stop-color:#4b4fe2ff;stop-opacity:1;"
         offset="0.76340693"
         id="stop2" />
    </linearGradient>
    <linearGradient
       inkscape:collect="always"
       xlink:href="#linearGradient1"
       id="linearGradient2"
       x1="232.4884"
       y1="23.847498"
       x2="23.977745"
       y2="232.35815"
       gradientUnits="userSpaceOnUse" />
  </defs>
  <defs
     id="defs1" />
  <sodipodi:namedview
     id="namedview1"
     pagecolor="#ffffff"
     bordercolor="#000000"
     borderopacity="0.25"
     inkscape:showpageshadow="2"
     inkscape:pageopacity="0.0"
     inkscape:pagecheckerboard="0"
     inkscape:deskcolor="#d1d1d1" />
  <path
     id="path1"
     style="baseline-shift:baseline;display:inline;overflow:visible;vector-effect:none;fill:url(#linearGradient2);stroke-linecap:round;stroke-linejoin:round;enable-background:accumulate;stop-color:#000000;stop-opacity:1;opacity:1;fill-opacity:1"
     d="M 127.4707 16.015625 A 8.0008 8.0008 0 0 0 124.42188 16.84375 C 124.42188 16.84375 99.684909 29.181847 74.878906 49.853516 C 50.072904 70.525185 24 100 24 136 C 23.9975 157.93805 36.84672 177.89809 56.816406 186.98047 C 70.094184 193.01931 84.890633 193.40813 98.201172 188.83008 L 88.337891 221.70117 A 8.0008 8.0008 0 0 0 96 232 L 160 232 A 8.0008 8.0008 0 0 0 167.66211 221.70117 L 157.79883 188.83008 C 171.10937 193.40813 185.90582 193.01931 199.18359 186.98047 C 219.15328 177.89809 232.00249 157.93805 232 136 C 232 100 205.9271 70.525185 181.12109 49.853516 C 156.31509 29.181847 131.57813 16.84375 131.57812 16.84375 A 8.0008 8.0008 0 0 0 127.4707 16.015625 z M 128 33.056641 C 135.17398 36.952424 152.87458 47.14288 170.87891 62.146484 C 194.0729 81.474815 216 108 216 136 C 216.002 151.70411 206.85562 165.9145 192.56055 172.41602 C 178.26547 178.91754 161.54417 176.47257 149.70898 166.15039 A 8.0008 8.0008 0 0 0 136.78711 174.47852 L 149.24805 216 L 106.75195 216 L 119.21289 174.47852 A 8.0008 8.0008 0 0 0 106.29102 166.15039 C 94.455823 176.47257 77.73453 178.91754 63.439453 172.41602 C 49.144377 165.9145 39.998214 151.70411 40 136 C 40 108 61.927096 81.474815 85.121094 62.146484 C 103.12542 47.14288 120.82602 36.952424 128 33.056641 z " />
</svg>
