<?xml version="1.0" encoding="UTF-8" standalone="no"?>
<svg
   viewBox="0 0 256 256"
   version="1.1"
   id="svg3"
   sodipodi:docname="speaker x blue_purple.svg"
   xmlns:inkscape="http://www.inkscape.org/namespaces/inkscape"
   xmlns:sodipodi="http://sodipodi.sourceforge.net/DTD/sodipodi-0.dtd"
   xmlns:xlink="http://www.w3.org/1999/xlink"
   xmlns="http://www.w3.org/2000/svg"
   xmlns:svg="http://www.w3.org/2000/svg">
  <defs
     id="defs3">
    <linearGradient
       id="linearGradient1"
       inkscape:collect="always">
      <stop
         style="stop-color:#a03291;stop-opacity:1;"
         offset="0"
         id="stop1" />
      <stop
         style="stop-color:#4b4fe2ff;stop-opacity:1;"
         offset="0.76340693"
         id="stop2" />
    </linearGradient>
    <linearGradient
       inkscape:collect="always"
       xlink:href="#linearGradient1"
       id="linearGradient2"
       x1="232.4884"
       y1="23.847498"
       x2="23.977745"
       y2="232.35815"
       gradientUnits="userSpaceOnUse" />
  </defs>
  <defs
     id="defs1" />
  <sodipodi:namedview
     id="namedview3"
     pagecolor="#ffffff"
     bordercolor="#000000"
     borderopacity="0.25"
     inkscape:showpageshadow="2"
     inkscape:pageopacity="0.0"
     inkscape:pagecheckerboard="0"
     inkscape:deskcolor="#d1d1d1" />
  <path
     id="path1"
     style="baseline-shift:baseline;display:inline;overflow:visible;vector-effect:none;fill:url(#linearGradient2);stroke-linecap:round;stroke-linejoin:round;enable-background:accumulate;stop-color:#000000;stop-opacity:1;opacity:1;fill-opacity:1"
     d="M 151.67188 24.007812 A 8.0008 8.0008 0 0 0 147.08789 25.685547 L 77.255859 80 L 32 80 C 23.258201 80 16 87.258201 16 96 L 16 160 C 16 168.7418 23.258201 176 32 176 L 77.255859 176 L 147.08789 230.31445 A 8.0008 8.0008 0 0 0 160 224 L 160 32 A 8.0008 8.0008 0 0 0 152.66211 24.029297 A 8.0008 8.0008 0 0 0 151.67188 24.007812 z M 144 48.357422 L 144 207.64258 L 88 164.08789 L 88 91.912109 L 144 48.357422 z M 32 96 L 72 96 L 72 160 L 32 160 L 32 96 z M 192 96 A 8 8 0 0 0 186.34375 98.34375 A 8 8 0 0 0 186.34375 109.65625 L 204.6875 128 L 186.34375 146.34375 A 8 8 0 0 0 186.34375 157.65625 A 8 8 0 0 0 197.65625 157.65625 L 216 139.3125 L 234.34375 157.65625 A 8 8 0 0 0 245.65625 157.65625 A 8 8 0 0 0 245.65625 146.34375 L 227.3125 128 L 245.65625 109.65625 A 8 8 0 0 0 245.65625 98.34375 A 8 8 0 0 0 240 96 A 8 8 0 0 0 234.34375 98.34375 L 216 116.6875 L 197.65625 98.34375 A 8 8 0 0 0 192 96 z " />
</svg>
