<?xml version="1.0" encoding="UTF-8" standalone="no"?>
<svg
   viewBox="0 0 256 256"
   version="1.1"
   id="svg7"
   sodipodi:docname="spinner gap blue_purple.svg"
   xmlns:inkscape="http://www.inkscape.org/namespaces/inkscape"
   xmlns:sodipodi="http://sodipodi.sourceforge.net/DTD/sodipodi-0.dtd"
   xmlns:xlink="http://www.w3.org/1999/xlink"
   xmlns="http://www.w3.org/2000/svg"
   xmlns:svg="http://www.w3.org/2000/svg">
  <defs
     id="defs3">
    <linearGradient
       id="linearGradient1"
       inkscape:collect="always">
      <stop
         style="stop-color:#a03291;stop-opacity:1;"
         offset="0"
         id="stop1" />
      <stop
         style="stop-color:#4b4fe2ff;stop-opacity:1;"
         offset="0.76340693"
         id="stop2" />
    </linearGradient>
    <linearGradient
       inkscape:collect="always"
       xlink:href="#linearGradient1"
       id="linearGradient2"
       x1="232.4884"
       y1="23.847498"
       x2="23.977745"
       y2="232.35815"
       gradientUnits="userSpaceOnUse" />
  </defs>
  <defs
     id="defs7" />
  <sodipodi:namedview
     id="namedview7"
     pagecolor="#ffffff"
     bordercolor="#000000"
     borderopacity="0.25"
     inkscape:showpageshadow="2"
     inkscape:pageopacity="0.0"
     inkscape:pagecheckerboard="0"
     inkscape:deskcolor="#d1d1d1" />
  <path
     id="line1"
     style="baseline-shift:baseline;display:inline;overflow:visible;vector-effect:none;fill:url(#linearGradient2);stroke-linecap:round;stroke-linejoin:round;enable-background:accumulate;stop-color:#000000;stop-opacity:1;opacity:1;fill-opacity:1"
     d="M 128 24 A 8 8 0 0 0 120 32 L 120 64 A 8 8 0 0 0 128 72 A 8 8 0 0 0 136 64 L 136 32 A 8 8 0 0 0 128 24 z M 60.119141 52.119141 A 8 8 0 0 0 54.462891 54.462891 A 8 8 0 0 0 54.462891 65.777344 L 77.09375 88.40625 A 8 8 0 0 0 88.40625 88.40625 A 8 8 0 0 0 88.40625 77.09375 L 65.777344 54.462891 A 8 8 0 0 0 60.119141 52.119141 z M 32 120 A 8 8 0 0 0 24 128 A 8 8 0 0 0 32 136 L 64 136 A 8 8 0 0 0 72 128 A 8 8 0 0 0 64 120 L 32 120 z M 192 120 A 8 8 0 0 0 184 128 A 8 8 0 0 0 192 136 L 224 136 A 8 8 0 0 0 232 128 A 8 8 0 0 0 224 120 L 192 120 z M 82.75 165.25 A 8 8 0 0 0 77.09375 167.59375 L 54.462891 190.22266 A 8 8 0 0 0 54.462891 201.53711 A 8 8 0 0 0 65.777344 201.53711 L 88.40625 178.90625 A 8 8 0 0 0 88.40625 167.59375 A 8 8 0 0 0 82.75 165.25 z M 173.25 165.25 A 8 8 0 0 0 167.59375 167.59375 A 8 8 0 0 0 167.59375 178.90625 L 190.22266 201.53711 A 8 8 0 0 0 201.53711 201.53711 A 8 8 0 0 0 201.53711 190.22266 L 178.90625 167.59375 A 8 8 0 0 0 173.25 165.25 z M 128 184 A 8 8 0 0 0 120 192 L 120 224 A 8 8 0 0 0 128 232 A 8 8 0 0 0 136 224 L 136 192 A 8 8 0 0 0 128 184 z " />
</svg>
