<?xml version="1.0" encoding="UTF-8" standalone="no"?>
<svg
   viewBox="0 0 256 256"
   version="1.1"
   id="svg3"
   sodipodi:docname="spinner ball blue_purple.svg"
   xmlns:inkscape="http://www.inkscape.org/namespaces/inkscape"
   xmlns:sodipodi="http://sodipodi.sourceforge.net/DTD/sodipodi-0.dtd"
   xmlns:xlink="http://www.w3.org/1999/xlink"
   xmlns="http://www.w3.org/2000/svg"
   xmlns:svg="http://www.w3.org/2000/svg">
  <defs
     id="defs3">
    <linearGradient
       id="linearGradient1"
       inkscape:collect="always">
      <stop
         style="stop-color:#a03291;stop-opacity:1;"
         offset="0"
         id="stop1" />
      <stop
         style="stop-color:#4b4fe2ff;stop-opacity:1;"
         offset="0.76340693"
         id="stop2" />
    </linearGradient>
    <linearGradient
       inkscape:collect="always"
       xlink:href="#linearGradient1"
       id="linearGradient2"
       x1="232.4884"
       y1="23.847498"
       x2="23.977745"
       y2="232.35815"
       gradientUnits="userSpaceOnUse" />
  </defs>
  <defs
     id="defs1" />
  <sodipodi:namedview
     id="namedview3"
     pagecolor="#ffffff"
     bordercolor="#000000"
     borderopacity="0.25"
     inkscape:showpageshadow="2"
     inkscape:pageopacity="0.0"
     inkscape:pagecheckerboard="0"
     inkscape:deskcolor="#d1d1d1" />
  <path
     id="circle1"
     style="baseline-shift:baseline;display:inline;overflow:visible;vector-effect:none;fill:url(#linearGradient2);stroke-linecap:round;stroke-linejoin:round;enable-background:accumulate;stop-color:#000000;stop-opacity:1;opacity:1;fill-opacity:1"
     d="M 128 24 C 108.73388 24 90.674914 29.266192 75.185547 38.435547 A 8 8 0 0 0 73.798828 39.271484 C 43.953111 57.571573 24 90.500902 24 128 C 24 166.629 45.173695 200.40788 76.523438 218.3418 A 8 8 0 0 0 78.572266 219.48438 C 93.282663 227.46451 110.12219 232 128 232 C 147.26478 232 165.32386 226.73457 180.8125 217.56641 A 8 8 0 0 0 182.20117 216.72852 C 212.0467 198.42839 232 165.49895 232 128 C 232 89.242378 210.68607 55.366152 179.16406 37.478516 A 8 8 0 0 0 177.79102 36.712891 C 162.99477 28.609716 146.02526 24 128 24 z M 128 40 C 142.05939 40 155.33564 43.276617 167.10938 49.109375 C 169.01185 69.681319 164.55658 82.683271 157.03125 93.142578 C 151.40098 100.96798 143.67638 107.39969 134.99805 113.57227 C 133.96189 102.01688 132.0364 90.212144 126.91602 78.847656 C 121.33679 66.464809 111.76773 55.017806 96.511719 45.775391 C 106.28328 42.043651 116.89752 40 128 40 z M 79.234375 54.683594 C 98.006924 63.315711 107.03537 73.672883 112.32812 85.419922 C 116.28723 94.206983 117.99308 104.11106 118.99609 114.71289 C 108.47373 109.836 97.290563 105.60626 84.892578 104.35938 C 82.711481 104.14002 80.499589 104.02178 78.257812 104.01562 C 66.619472 103.98367 54.1778 106.94463 41.080078 114.13477 C 44.98578 89.331027 59.208168 68.009403 79.234375 54.683594 z M 183.46094 59.611328 C 201.99197 74.645274 214.26317 97.076259 215.83008 122.46289 C 198.98971 134.37234 185.5175 137.00889 172.70898 135.7207 C 163.11906 134.75622 153.68716 131.28098 144.00391 126.84961 C 153.48705 120.17283 162.74171 112.60163 170.01953 102.48633 C 177.95255 91.460387 183.08171 77.447893 183.46094 59.611328 z M 78.451172 119.99023 C 80.078248 120.01818 81.689952 120.11827 83.291016 120.2793 C 92.885045 121.2442 102.3202 124.72217 112.00781 129.15625 C 102.52005 135.83662 93.261288 143.41266 85.980469 153.53711 C 78.054045 164.55932 72.925634 178.56605 72.539062 196.39062 C 54.007449 181.35668 41.736864 158.92421 40.169922 133.53711 C 54.905245 123.11634 67.061642 119.79465 78.451172 119.99023 z M 136.98828 141.2793 C 147.51527 146.15929 158.7032 150.3931 171.10742 151.64062 C 184.61185 152.99881 199.29929 150.44001 214.91992 141.86523 C 211.01424 166.66919 196.79206 187.99058 176.76562 201.31641 C 157.98784 192.68405 148.95498 182.32716 143.66016 170.58008 C 139.69864 161.79109 137.99186 151.88384 136.98828 141.2793 z M 120.98828 142.45117 C 122.02542 153.99966 123.95331 165.79742 129.07227 177.1543 C 134.65379 189.53744 144.2264 200.98465 159.48633 210.22656 C 149.71539 213.95775 139.10162 216 128 216 C 113.93882 216 100.66157 212.72283 88.886719 206.88867 C 86.995807 186.33307 91.450937 173.33563 98.970703 162.87891 C 104.59822 155.05348 112.31636 148.62158 120.98828 142.45117 z " />
</svg>
