<?xml version="1.0" encoding="UTF-8" standalone="no"?>
<svg
   viewBox="0 0 256 256"
   version="1.1"
   id="svg6"
   sodipodi:docname="swimming pool blue_purple.svg"
   xmlns:inkscape="http://www.inkscape.org/namespaces/inkscape"
   xmlns:sodipodi="http://sodipodi.sourceforge.net/DTD/sodipodi-0.dtd"
   xmlns:xlink="http://www.w3.org/1999/xlink"
   xmlns="http://www.w3.org/2000/svg"
   xmlns:svg="http://www.w3.org/2000/svg">
  <defs
     id="defs3">
    <linearGradient
       id="linearGradient1"
       inkscape:collect="always">
      <stop
         style="stop-color:#a03291;stop-opacity:1;"
         offset="0"
         id="stop1" />
      <stop
         style="stop-color:#4b4fe2ff;stop-opacity:1;"
         offset="0.76340693"
         id="stop2" />
    </linearGradient>
    <linearGradient
       inkscape:collect="always"
       xlink:href="#linearGradient1"
       id="linearGradient2"
       x1="232.4884"
       y1="23.847498"
       x2="23.977745"
       y2="232.35815"
       gradientUnits="userSpaceOnUse" />
  </defs>
  <defs
     id="defs6" />
  <sodipodi:namedview
     id="namedview6"
     pagecolor="#ffffff"
     bordercolor="#000000"
     borderopacity="0.25"
     inkscape:showpageshadow="2"
     inkscape:pageopacity="0.0"
     inkscape:pagecheckerboard="0"
     inkscape:deskcolor="#d1d1d1" />
  <path
     id="line1"
     style="baseline-shift:baseline;display:inline;overflow:visible;vector-effect:none;fill:url(#linearGradient2);stroke-linecap:round;stroke-linejoin:round;enable-background:accumulate;stop-color:#000000;stop-opacity:1;opacity:1;fill-opacity:1"
     d="M 88 24 A 8 8 0 0 0 80 32 L 80 141.39062 A 8 8 0 0 0 88 149.39062 A 8 8 0 0 0 96 141.39062 L 96 128 L 160 128 L 160 143.28906 A 8 8 0 0 0 168 151.28906 A 8 8 0 0 0 176 143.28906 L 176 32 A 8 8 0 0 0 168 24 A 8 8 0 0 0 160 32 L 160 48 L 96 48 L 96 32 A 8 8 0 0 0 88 24 z M 96 64 L 160 64 L 160 80 L 96 80 L 96 64 z M 96 96 L 160 96 L 160 112 L 96 112 L 96 96 z M 32 160 A 8 8 0 0 0 24 168 A 8 8 0 0 0 32 176 C 42.222222 176 45.5625 178.65625 51.5625 182.65625 C 57.5625 186.65625 66.222222 192 80 192 C 93.777778 192 102.4375 186.65625 108.4375 182.65625 C 114.4375 178.65625 117.77778 176 128 176 C 138.22222 176 141.5625 178.65625 147.5625 182.65625 C 153.5625 186.65625 162.22222 192 176 192 C 189.77778 192 198.4375 186.65625 204.4375 182.65625 C 210.4375 178.65625 213.77778 176 224 176 A 8 8 0 0 0 232 168 A 8 8 0 0 0 224 160 C 210.22222 160 201.5625 165.34375 195.5625 169.34375 C 189.5625 173.34375 186.22222 176 176 176 C 165.77778 176 162.4375 173.34375 156.4375 169.34375 C 150.4375 165.34375 141.77778 160 128 160 C 114.22222 160 105.5625 165.34375 99.5625 169.34375 C 93.5625 173.34375 90.222222 176 80 176 C 69.777778 176 66.4375 173.34375 60.4375 169.34375 C 54.4375 165.34375 45.777778 160 32 160 z M 32 200 A 8 8 0 0 0 24 208 A 8 8 0 0 0 32 216 C 42.222222 216 45.5625 218.65625 51.5625 222.65625 C 57.5625 226.65625 66.222222 232 80 232 C 93.777778 232 102.4375 226.65625 108.4375 222.65625 C 114.4375 218.65625 117.77778 216 128 216 C 138.22222 216 141.5625 218.65625 147.5625 222.65625 C 153.5625 226.65625 162.22222 232 176 232 C 189.77778 232 198.4375 226.65625 204.4375 222.65625 C 210.4375 218.65625 213.77778 216 224 216 A 8 8 0 0 0 232 208 A 8 8 0 0 0 224 200 C 210.22222 200 201.5625 205.34375 195.5625 209.34375 C 189.5625 213.34375 186.22222 216 176 216 C 165.77778 216 162.4375 213.34375 156.4375 209.34375 C 150.4375 205.34375 141.77778 200 128 200 C 114.22222 200 105.5625 205.34375 99.5625 209.34375 C 93.5625 213.34375 90.222222 216 80 216 C 69.777778 216 66.4375 213.34375 60.4375 209.34375 C 54.4375 205.34375 45.777778 200 32 200 z " />
</svg>
