<?xml version="1.0" encoding="UTF-8" standalone="no"?>
<svg
   viewBox="0 0 256 256"
   version="1.1"
   id="svg3"
   sodipodi:docname="tabs blue_purple.svg"
   xmlns:inkscape="http://www.inkscape.org/namespaces/inkscape"
   xmlns:sodipodi="http://sodipodi.sourceforge.net/DTD/sodipodi-0.dtd"
   xmlns:xlink="http://www.w3.org/1999/xlink"
   xmlns="http://www.w3.org/2000/svg"
   xmlns:svg="http://www.w3.org/2000/svg">
  <defs
     id="defs3">
    <linearGradient
       id="linearGradient1"
       inkscape:collect="always">
      <stop
         style="stop-color:#a03291;stop-opacity:1;"
         offset="0"
         id="stop1" />
      <stop
         style="stop-color:#4b4fe2ff;stop-opacity:1;"
         offset="0.76340693"
         id="stop2" />
    </linearGradient>
    <linearGradient
       inkscape:collect="always"
       xlink:href="#linearGradient1"
       id="linearGradient2"
       x1="232.4884"
       y1="23.847498"
       x2="23.977745"
       y2="232.35815"
       gradientUnits="userSpaceOnUse" />
  </defs>
  <defs
     id="defs1" />
  <sodipodi:namedview
     id="namedview3"
     pagecolor="#ffffff"
     bordercolor="#000000"
     borderopacity="0.25"
     inkscape:showpageshadow="2"
     inkscape:pageopacity="0.0"
     inkscape:pagecheckerboard="0"
     inkscape:deskcolor="#d1d1d1" />
  <path
     id="path1"
     style="baseline-shift:baseline;display:inline;overflow:visible;vector-effect:none;fill:url(#linearGradient2);stroke-linecap:round;stroke-linejoin:round;enable-background:accumulate;stop-color:#000000;stop-opacity:1;opacity:1;fill-opacity:1"
     d="M 38.046875 80 C 30.982091 79.957865 24.657989 84.633719 22.626953 91.400391 L 0.36328125 165.61914 L 0.33789062 165.70117 A 8 8 0 0 0 0.30273438 165.84961 A 8 8 0 0 0 0.1328125 166.59766 A 8 8 0 0 0 0.087890625 166.89258 A 8 8 0 0 0 0.021484375 167.57812 A 8 8 0 0 0 0.0078125 167.85742 A 8 8 0 0 0 0 168 A 8 8 0 0 0 0.02734375 168.41211 A 8 8 0 0 0 0.060546875 168.92383 A 8 8 0 0 0 0.1484375 169.44141 A 8 8 0 0 0 0.25 169.95703 A 8 8 0 0 0 0.3984375 170.44141 A 8 8 0 0 0 0.57226562 170.95117 A 8 8 0 0 0 0.78710938 171.42383 A 8 8 0 0 0 1.0195312 171.89258 A 8 8 0 0 0 1.3007812 172.3418 A 8 8 0 0 0 1.5859375 172.76953 A 8 8 0 0 0 1.9160156 173.16797 A 8 8 0 0 0 2.2695312 173.57227 A 8 8 0 0 0 2.6347656 173.91211 A 8 8 0 0 0 3.0410156 174.26953 A 8 8 0 0 0 3.4707031 174.57422 A 8 8 0 0 0 3.9023438 174.86328 A 8 8 0 0 0 4.3515625 175.09961 A 8 8 0 0 0 4.8378906 175.33984 A 8 8 0 0 0 5.3085938 175.51562 A 8 8 0 0 0 5.7011719 175.66211 A 8 8 0 0 0 5.8203125 175.68945 A 8 8 0 0 0 6.328125 175.80664 A 8 8 0 0 0 6.8339844 175.9082 A 8 8 0 0 0 7.375 175.95898 A 8 8 0 0 0 7.8769531 175.99219 A 8 8 0 0 0 8 176 L 151.92578 176 L 152.07422 176 L 248 176 A 8 8 0 0 0 248.12305 175.99219 A 8 8 0 0 0 248.625 175.95898 A 8 8 0 0 0 249.16602 175.9082 A 8 8 0 0 0 249.67188 175.80664 A 8 8 0 0 0 250.17969 175.68945 A 8 8 0 0 0 250.29883 175.66211 A 8 8 0 0 0 250.69141 175.51562 A 8 8 0 0 0 251.16211 175.33984 A 8 8 0 0 0 251.64844 175.09961 A 8 8 0 0 0 252.09766 174.86328 A 8 8 0 0 0 252.5293 174.57422 A 8 8 0 0 0 252.95898 174.26953 A 8 8 0 0 0 253.36523 173.91211 A 8 8 0 0 0 253.73047 173.57227 A 8 8 0 0 0 254.08398 173.16797 A 8 8 0 0 0 254.41406 172.76953 A 8 8 0 0 0 254.69922 172.3418 A 8 8 0 0 0 254.98047 171.89258 A 8 8 0 0 0 255.21289 171.42383 A 8 8 0 0 0 255.42773 170.95117 A 8 8 0 0 0 255.60156 170.44141 A 8 8 0 0 0 255.75 169.95703 A 8 8 0 0 0 255.85156 169.44141 A 8 8 0 0 0 255.93945 168.92383 A 8 8 0 0 0 255.97266 168.41211 A 8 8 0 0 0 256 168 A 8 8 0 0 0 255.99219 167.85742 A 8 8 0 0 0 255.97852 167.57812 A 8 8 0 0 0 255.91211 166.89258 A 8 8 0 0 0 255.86719 166.59766 A 8 8 0 0 0 255.69727 165.84961 A 8 8 0 0 0 255.66211 165.70117 L 255.63672 165.61914 L 233.37305 91.400391 C 231.35231 84.66847 225.0814 80.001973 218.05273 80 A 8.0008 8.0008 0 0 0 218.05078 80 L 208 80 A 8 8 0 0 0 200 88 A 8 8 0 0 0 208 96 L 218.04688 96 L 237.24805 160 L 205.95117 160 L 185.37305 91.400391 C 183.35231 84.66847 177.0814 80.001973 170.05273 80 A 8.0008 8.0008 0 0 0 170.05078 80 L 160 80 A 8 8 0 0 0 152 88 A 8 8 0 0 0 160 96 L 170.04688 96 L 189.24805 160 L 157.95703 160 L 137.42383 91.40625 A 8.0008 8.0008 0 0 0 137.42188 91.400391 C 135.40117 84.668511 129.13023 80.001973 122.10156 80 A 8.0008 8.0008 0 0 0 122.09961 80 L 38.046875 80 z M 37.953125 96 A 8.0008 8.0008 0 0 0 38 96 L 122.09766 96 L 141.25391 160 L 18.751953 160 L 37.953125 96 z " />
</svg>
