<?xml version="1.0" encoding="UTF-8" standalone="no"?>
<svg
   viewBox="0 0 256 256"
   version="1.1"
   id="svg2"
   sodipodi:docname="tea bag blue_purple.svg"
   xmlns:inkscape="http://www.inkscape.org/namespaces/inkscape"
   xmlns:sodipodi="http://sodipodi.sourceforge.net/DTD/sodipodi-0.dtd"
   xmlns:xlink="http://www.w3.org/1999/xlink"
   xmlns="http://www.w3.org/2000/svg"
   xmlns:svg="http://www.w3.org/2000/svg">
  <defs
     id="defs3">
    <linearGradient
       id="linearGradient1"
       inkscape:collect="always">
      <stop
         style="stop-color:#a03291;stop-opacity:1;"
         offset="0"
         id="stop1" />
      <stop
         style="stop-color:#4b4fe2ff;stop-opacity:1;"
         offset="0.76340693"
         id="stop2" />
    </linearGradient>
    <linearGradient
       inkscape:collect="always"
       xlink:href="#linearGradient1"
       id="linearGradient2"
       x1="232.4884"
       y1="23.847498"
       x2="23.977745"
       y2="232.35815"
       gradientUnits="userSpaceOnUse" />
  </defs>
  <defs
     id="defs2" />
  <sodipodi:namedview
     id="namedview2"
     pagecolor="#ffffff"
     bordercolor="#000000"
     borderopacity="0.25"
     inkscape:showpageshadow="2"
     inkscape:pageopacity="0.0"
     inkscape:pagecheckerboard="0"
     inkscape:deskcolor="#d1d1d1" />
  <path
     id="path1"
     style="baseline-shift:baseline;display:inline;overflow:visible;vector-effect:none;fill:url(#linearGradient2);stroke-linecap:round;stroke-linejoin:round;enable-background:accumulate;stop-color:#000000;stop-opacity:1;opacity:1;fill-opacity:1"
     d="M 152 8 C 121.16681 8 96 33.166811 96 64 L 96 72 L 76.533203 72 L 76.529297 72 C 70.92399 71.999647 65.699325 74.954798 62.8125 79.759766 A 8.0008 8.0008 0 0 0 62.810547 79.763672 L 42.279297 113.98438 C 40.786185 116.47297 39.998503 119.32246 40 122.22461 L 40 216 C 40 224.7418 47.258201 232 56 232 L 152 232 C 160.7418 232 168 224.7418 168 216 L 168 122.22461 L 168 122.2207 C 168.00079 119.3199 167.21314 116.47185 165.7207 113.98438 L 145.18945 79.763672 A 8.0008 8.0008 0 0 0 145.1875 79.759766 C 142.30072 74.954792 137.07601 71.999647 131.4707 72 L 112 72 L 112 64 C 112 41.813853 129.81385 24 152 24 C 174.18615 24 192 41.813853 192 64 L 192 144 C 192 161.57835 206.42165 176 224 176 A 8 8 0 0 0 232 168 A 8 8 0 0 0 224 160 C 215.06869 160 208 152.93131 208 144 L 208 64 C 208 33.166811 182.83319 8 152 8 z M 76.527344 88 A 8.0008 8.0008 0 0 0 76.529297 88 L 96 88 L 96 136 A 8 8 0 0 0 104 144 A 8 8 0 0 0 112 136 L 112 88 L 131.4707 88 A 8.0008 8.0008 0 0 0 131.47266 88 L 152 122.21484 A 8.0008 8.0008 0 0 0 152 122.2168 A 8.0008 8.0008 0 0 0 152 122.2207 L 152 216 L 56 216 L 56 122.2207 A 8.0008 8.0008 0 0 0 56 122.2168 A 8.0008 8.0008 0 0 0 56 122.21484 L 76.527344 88 z " />
</svg>
