<?xml version="1.0" encoding="UTF-8" standalone="no"?>
<svg
   viewBox="0 0 256 256"
   version="1.1"
   id="svg2"
   sodipodi:docname="text a underline blue_purple.svg"
   xmlns:inkscape="http://www.inkscape.org/namespaces/inkscape"
   xmlns:sodipodi="http://sodipodi.sourceforge.net/DTD/sodipodi-0.dtd"
   xmlns:xlink="http://www.w3.org/1999/xlink"
   xmlns="http://www.w3.org/2000/svg"
   xmlns:svg="http://www.w3.org/2000/svg">
  <defs
     id="defs3">
    <linearGradient
       id="linearGradient1"
       inkscape:collect="always">
      <stop
         style="stop-color:#a03291;stop-opacity:1;"
         offset="0"
         id="stop1" />
      <stop
         style="stop-color:#4b4fe2ff;stop-opacity:1;"
         offset="0.76340693"
         id="stop2" />
    </linearGradient>
    <linearGradient
       inkscape:collect="always"
       xlink:href="#linearGradient1"
       id="linearGradient2"
       x1="232.4884"
       y1="23.847498"
       x2="23.977745"
       y2="232.35815"
       gradientUnits="userSpaceOnUse" />
  </defs>
  <defs
     id="defs2" />
  <sodipodi:namedview
     id="namedview2"
     pagecolor="#ffffff"
     bordercolor="#000000"
     borderopacity="0.25"
     inkscape:showpageshadow="2"
     inkscape:pageopacity="0.0"
     inkscape:pagecheckerboard="0"
     inkscape:deskcolor="#d1d1d1" />
  <path
     id="polyline1"
     style="baseline-shift:baseline;display:inline;overflow:visible;vector-effect:none;fill:url(#linearGradient2);stroke-linecap:round;stroke-linejoin:round;enable-background:accumulate;stop-color:#000000;stop-opacity:1;opacity:1;fill-opacity:1"
     d="M 128.27344 24.005859 A 8.0008 8.0008 0 0 0 125.05469 24.5625 A 8.0008 8.0008 0 0 0 120.76172 28.59375 L 75.681641 124.39062 A 8 8 0 0 0 75.488281 124.80078 L 56.761719 164.59375 A 8 8 0 0 0 60.59375 175.23828 A 8 8 0 0 0 71.238281 171.40625 L 87.900391 136 L 168.09961 136 L 184.76172 171.40625 A 8 8 0 0 0 195.40625 175.23828 A 8 8 0 0 0 199.23828 164.59375 L 180.51172 124.80078 A 8 8 0 0 0 180.31836 124.39062 L 135.23828 28.59375 A 8.0008 8.0008 0 0 0 128.27344 24.005859 z M 128 50.787109 L 160.57031 120 L 95.429688 120 L 128 50.787109 z M 40 208 A 8 8 0 0 0 32 216 A 8 8 0 0 0 40 224 L 216 224 A 8 8 0 0 0 224 216 A 8 8 0 0 0 216 208 L 40 208 z " />
</svg>
