<?xml version="1.0" encoding="UTF-8" standalone="no"?>
<svg
   viewBox="0 0 256 256"
   version="1.1"
   id="svg2"
   sodipodi:docname="thumbs up blue_purple.svg"
   xmlns:inkscape="http://www.inkscape.org/namespaces/inkscape"
   xmlns:sodipodi="http://sodipodi.sourceforge.net/DTD/sodipodi-0.dtd"
   xmlns:xlink="http://www.w3.org/1999/xlink"
   xmlns="http://www.w3.org/2000/svg"
   xmlns:svg="http://www.w3.org/2000/svg">
  <defs
     id="defs3">
    <linearGradient
       id="linearGradient1"
       inkscape:collect="always">
      <stop
         style="stop-color:#a03291;stop-opacity:1;"
         offset="0"
         id="stop1" />
      <stop
         style="stop-color:#4b4fe2ff;stop-opacity:1;"
         offset="0.76340693"
         id="stop2" />
    </linearGradient>
    <linearGradient
       inkscape:collect="always"
       xlink:href="#linearGradient1"
       id="linearGradient2"
       x1="232.4884"
       y1="23.847498"
       x2="23.977745"
       y2="232.35815"
       gradientUnits="userSpaceOnUse" />
  </defs>
  <defs
     id="defs2" />
  <sodipodi:namedview
     id="namedview2"
     pagecolor="#ffffff"
     bordercolor="#000000"
     borderopacity="0.25"
     inkscape:showpageshadow="2"
     inkscape:pageopacity="0.0"
     inkscape:pagecheckerboard="0"
     inkscape:deskcolor="#d1d1d1" />
  <path
     id="path1"
     style="baseline-shift:baseline;display:inline;overflow:visible;vector-effect:none;fill:url(#linearGradient2);stroke-linecap:round;stroke-linejoin:round;enable-background:accumulate;stop-color:#000000;stop-opacity:1;opacity:1;fill-opacity:1"
     d="M 120 16 A 8.0008 8.0008 0 0 0 112.84375 20.421875 L 75.054688 96 L 32 96 C 23.258201 96 16 103.2582 16 112 L 16 200 C 16 208.7418 23.258201 216 32 216 L 80 216 A 8.0008 8.0008 0 0 0 80.013672 216 L 204 216 A 8.0008 8.0008 0 0 0 204.00195 216 C 216.03131 215.997 226.30297 206.935 227.80664 195 A 8.0008 8.0008 0 0 0 227.80859 194.99219 L 239.80664 99 C 241.59473 84.807459 230.30669 72.00403 216.00195 72 A 8.0008 8.0008 0 0 0 216 72 L 160 72 L 160 56 C 160 34.003367 141.99663 16 120 16 z M 124.71094 32.46875 C 135.76715 34.633168 144 44.26682 144 56 L 144 80 A 8.0008 8.0008 0 0 0 152 88 L 216 88 C 220.95102 88.0025 224.55252 92.087441 223.93359 97 A 8.0008 8.0008 0 0 0 223.93164 97.007812 L 211.93164 193.00781 C 211.41643 197.06509 208.08895 199.99885 203.99805 200 L 88 200 L 88 105.89062 L 124.71094 32.46875 z M 32 112 L 72 112 L 72 200 L 32 200 L 32 112 z " />
</svg>
