<?xml version="1.0" encoding="UTF-8" standalone="no"?>
<svg
   viewBox="0 0 256 256"
   version="1.1"
   id="svg2"
   sodipodi:docname="tooth blue_purple.svg"
   xmlns:inkscape="http://www.inkscape.org/namespaces/inkscape"
   xmlns:sodipodi="http://sodipodi.sourceforge.net/DTD/sodipodi-0.dtd"
   xmlns:xlink="http://www.w3.org/1999/xlink"
   xmlns="http://www.w3.org/2000/svg"
   xmlns:svg="http://www.w3.org/2000/svg">
  <defs
     id="defs3">
    <linearGradient
       id="linearGradient1"
       inkscape:collect="always">
      <stop
         style="stop-color:#a03291;stop-opacity:1;"
         offset="0"
         id="stop1" />
      <stop
         style="stop-color:#4b4fe2ff;stop-opacity:1;"
         offset="0.76340693"
         id="stop2" />
    </linearGradient>
    <linearGradient
       inkscape:collect="always"
       xlink:href="#linearGradient1"
       id="linearGradient2"
       x1="232.4884"
       y1="23.847498"
       x2="23.977745"
       y2="232.35815"
       gradientUnits="userSpaceOnUse" />
  </defs>
  <defs
     id="defs2" />
  <sodipodi:namedview
     id="namedview2"
     pagecolor="#ffffff"
     bordercolor="#000000"
     borderopacity="0.25"
     inkscape:showpageshadow="2"
     inkscape:pageopacity="0.0"
     inkscape:pagecheckerboard="0"
     inkscape:deskcolor="#d1d1d1" />
  <path
     id="line1"
     style="baseline-shift:baseline;display:inline;overflow:visible;vector-effect:none;fill:url(#linearGradient2);stroke-linecap:round;stroke-linejoin:round;enable-background:accumulate;stop-color:#000000;stop-opacity:1;opacity:1;fill-opacity:1"
     d="M 88 24 C 57.25822 23.966666 32.115406 48.987684 32 79.730469 A 8.0008 8.0008 0 0 0 32 79.751953 C 31.96414 116.34334 37.95124 149.1902 46.701172 175.04492 C 55.451104 200.89964 66.281958 219.79093 79.375 229.06836 A 8.0008 8.0008 0 0 0 79.458984 229.125 C 89.31662 235.92254 103.621 229.067 104.49805 217.125 A 8.0008 8.0008 0 0 0 104.49805 217.12305 C 105.20606 207.44528 107.1167 193.87852 111.23438 183.67773 C 113.29321 178.57734 115.88438 174.40922 118.64062 171.82031 C 121.39688 169.23151 124.01722 168 128 168 C 131.98278 168 134.6024 169.23114 137.35938 171.82031 C 140.11635 174.40948 142.71071 178.57912 144.77148 183.67969 C 148.89303 193.88082 150.80837 207.44508 151.53125 217.125 L 151.53125 217.11523 C 152.4083 229.05719 166.71463 235.91277 176.57227 229.11523 A 8.0008 8.0008 0 0 0 176.66211 229.05273 C 189.73694 219.76826 200.54706 200.88038 209.29102 175.0293 C 218.03497 149.17821 224.0293 116.33781 224.0293 79.75 A 8.0008 8.0008 0 0 0 224.0293 79.71875 C 223.90752 48.969166 198.74809 23.950605 168 24 L 88.009766 24 L 88 24 z M 87.990234 40 A 8.0008 8.0008 0 0 0 88 40 L 168 40 A 8.0008 8.0008 0 0 0 168.01562 40 C 190.13362 39.9583 207.93849 57.658328 208.0293 79.775391 C 208.02931 79.777391 208.02929 79.77925 208.0293 79.78125 C 208.0263 114.60073 202.26584 145.86321 194.13477 169.90234 C 186.03219 193.8572 174.90374 210.59878 167.48828 215.93164 C 166.70109 205.39168 164.86112 190.69368 159.60547 177.68555 C 156.97749 171.18112 153.47771 165.00903 148.3125 160.1582 C 143.14731 155.30733 136.01722 152 128 152 C 119.98278 152 112.8525 155.3068 107.6875 160.1582 C 102.5225 165.00961 99.022651 171.18359 96.396484 177.68945 C 91.146543 190.69524 89.315569 205.3902 88.542969 215.94141 C 81.115741 210.61706 69.966583 193.87736 61.857422 169.91602 C 53.721549 145.87575 47.968281 114.60894 48 79.789062 C 48.000005 79.787762 47.999995 79.786456 48 79.785156 C 48.08513 57.673797 65.878214 39.97217 87.990234 40 z M 87.902344 56 A 8 8 0 0 0 80.572266 61.029297 A 8 8 0 0 0 85.029297 71.427734 L 106.46094 80 L 85.029297 88.572266 A 8 8 0 0 0 80.572266 98.970703 A 8 8 0 0 0 90.970703 103.42773 L 128 88.615234 L 165.0293 103.42773 A 8 8 0 0 0 175.42773 98.970703 A 8 8 0 0 0 170.9707 88.572266 L 149.53906 80 L 170.9707 71.427734 A 8 8 0 0 0 175.42773 61.029297 A 8 8 0 0 0 165.0293 56.572266 L 128 71.384766 L 90.970703 56.572266 A 8 8 0 0 0 87.902344 56 z " />
</svg>
