<?xml version="1.0" encoding="UTF-8" standalone="no"?>
<svg
   viewBox="0 0 256 256"
   version="1.1"
   id="svg4"
   sodipodi:docname="trash blue_purple.svg"
   xmlns:inkscape="http://www.inkscape.org/namespaces/inkscape"
   xmlns:sodipodi="http://sodipodi.sourceforge.net/DTD/sodipodi-0.dtd"
   xmlns:xlink="http://www.w3.org/1999/xlink"
   xmlns="http://www.w3.org/2000/svg"
   xmlns:svg="http://www.w3.org/2000/svg">
  <defs
     id="defs3">
    <linearGradient
       id="linearGradient1"
       inkscape:collect="always">
      <stop
         style="stop-color:#a03291;stop-opacity:1;"
         offset="0"
         id="stop1" />
      <stop
         style="stop-color:#4b4fe2ff;stop-opacity:1;"
         offset="0.76340693"
         id="stop2" />
    </linearGradient>
    <linearGradient
       inkscape:collect="always"
       xlink:href="#linearGradient1"
       id="linearGradient2"
       x1="232.4884"
       y1="23.847498"
       x2="23.977745"
       y2="232.35815"
       gradientUnits="userSpaceOnUse" />
  </defs>
  <defs
     id="defs4" />
  <sodipodi:namedview
     id="namedview4"
     pagecolor="#ffffff"
     bordercolor="#000000"
     borderopacity="0.25"
     inkscape:showpageshadow="2"
     inkscape:pageopacity="0.0"
     inkscape:pagecheckerboard="0"
     inkscape:deskcolor="#d1d1d1" />
  <path
     id="line1"
     style="baseline-shift:baseline;display:inline;overflow:visible;vector-effect:none;fill:url(#linearGradient2);stroke-linecap:round;stroke-linejoin:round;enable-background:accumulate;stop-color:#000000;stop-opacity:1;opacity:1;fill-opacity:1"
     d="M 104 16 C 90.839923 16 80 26.839923 80 40 L 80 48 L 40 48 A 8 8 0 0 0 32 56 A 8 8 0 0 0 40 64 L 48 64 L 48 208 C 48 216.7418 55.258201 224 64 224 L 192 224 C 200.7418 224 208 216.7418 208 208 L 208 64 L 216 64 A 8 8 0 0 0 224 56 A 8 8 0 0 0 216 48 L 176 48 L 176 40 C 176 26.839923 165.16008 16 152 16 L 104 16 z M 104 32 L 152 32 C 156.51304 32 160 35.486965 160 40 L 160 48 L 96 48 L 96 40 C 96 35.486965 99.486965 32 104 32 z M 64 64 L 88 64 L 168 64 L 192 64 L 192 208 L 64 208 L 64 64 z M 104 96 A 8 8 0 0 0 96 104 L 96 168 A 8 8 0 0 0 104 176 A 8 8 0 0 0 112 168 L 112 104 A 8 8 0 0 0 104 96 z M 152 96 A 8 8 0 0 0 144 104 L 144 168 A 8 8 0 0 0 152 176 A 8 8 0 0 0 160 168 L 160 104 A 8 8 0 0 0 152 96 z " />
</svg>
