<?xml version="1.0" encoding="UTF-8" standalone="no"?>
<svg
   viewBox="0 0 256 256"
   version="1.1"
   id="svg3"
   sodipodi:docname="umbrella blue_purple.svg"
   xmlns:inkscape="http://www.inkscape.org/namespaces/inkscape"
   xmlns:sodipodi="http://sodipodi.sourceforge.net/DTD/sodipodi-0.dtd"
   xmlns:xlink="http://www.w3.org/1999/xlink"
   xmlns="http://www.w3.org/2000/svg"
   xmlns:svg="http://www.w3.org/2000/svg">
  <defs
     id="defs3">
    <linearGradient
       id="linearGradient1"
       inkscape:collect="always">
      <stop
         style="stop-color:#a03291;stop-opacity:1;"
         offset="0"
         id="stop1" />
      <stop
         style="stop-color:#4b4fe2ff;stop-opacity:1;"
         offset="0.76340693"
         id="stop2" />
    </linearGradient>
    <linearGradient
       inkscape:collect="always"
       xlink:href="#linearGradient1"
       id="linearGradient2"
       x1="232.4884"
       y1="23.847498"
       x2="23.977745"
       y2="232.35815"
       gradientUnits="userSpaceOnUse" />
  </defs>
  <defs
     id="defs1" />
  <sodipodi:namedview
     id="namedview3"
     pagecolor="#ffffff"
     bordercolor="#000000"
     borderopacity="0.25"
     inkscape:showpageshadow="2"
     inkscape:pageopacity="0.0"
     inkscape:pagecheckerboard="0"
     inkscape:deskcolor="#d1d1d1" />
  <path
     id="path1"
     style="baseline-shift:baseline;display:inline;overflow:visible;vector-effect:none;fill:url(#linearGradient2);stroke-linecap:round;stroke-linejoin:round;enable-background:accumulate;stop-color:#000000;stop-opacity:1;opacity:1;fill-opacity:1"
     d="M 128 24 A 8.0008 8.0008 0 0 0 127.08789 24.052734 C 69.300213 24.500997 21.095149 68.925695 16.03125 126.58789 L 16.03125 126.58984 C 15.212365 135.84583 22.737899 144.03668 32.03125 144 L 88 144 L 120 144 L 120 200 C 120 217.57836 134.42165 232 152 232 C 169.57835 232 184 217.57836 184 200 A 8 8 0 0 0 176 192 A 8 8 0 0 0 168 200 C 168 208.93132 160.93132 216 152 216 C 143.06868 216 136 208.93132 136 200 L 136 144 L 168 144 L 223.9082 144 C 233.20488 144.0367 240.73336 135.84014 239.9082 126.58008 C 234.84237 68.942699 186.67303 24.532761 128.91602 24.052734 A 8.0008 8.0008 0 0 0 128 24 z M 108.27734 42.060547 C 105.94579 45.229646 103.5089 48.85753 101.10547 52.943359 C 91.250644 69.696558 81.521836 94.576506 80.162109 128 L 32 128 A 8.0008 8.0008 0 0 0 31.96875 128 A 8.0008 8.0008 0 0 0 31.96875 127.99023 C 35.754917 84.868974 67.40833 50.53151 108.27734 42.060547 z M 147.73438 42.074219 C 188.56949 50.569609 220.18668 84.893342 223.9707 127.99023 A 8.0008 8.0008 0 0 0 223.9707 128 A 8.0008 8.0008 0 0 0 223.93945 128 L 175.83789 128 C 174.47816 94.576506 164.74935 69.696558 154.89453 52.943359 C 152.49474 48.863711 150.06271 45.239912 147.73438 42.074219 z M 128 43.146484 C 131.41937 46.795097 135.96167 52.312186 141.10547 61.056641 C 149.7387 75.733134 158.49549 97.662589 159.82617 128 L 96.173828 128 C 97.504507 97.662589 106.2613 75.733134 114.89453 61.056641 C 120.03833 52.312186 124.58063 46.795097 128 43.146484 z " />
</svg>
