<?xml version="1.0" encoding="UTF-8" standalone="no"?>
<svg
   viewBox="0 0 256 256"
   version="1.1"
   id="svg2"
   sodipodi:docname="upload simple blue_purple.svg"
   xmlns:inkscape="http://www.inkscape.org/namespaces/inkscape"
   xmlns:sodipodi="http://sodipodi.sourceforge.net/DTD/sodipodi-0.dtd"
   xmlns:xlink="http://www.w3.org/1999/xlink"
   xmlns="http://www.w3.org/2000/svg"
   xmlns:svg="http://www.w3.org/2000/svg">
  <defs
     id="defs3">
    <linearGradient
       id="linearGradient1"
       inkscape:collect="always">
      <stop
         style="stop-color:#a03291;stop-opacity:1;"
         offset="0"
         id="stop1" />
      <stop
         style="stop-color:#4b4fe2ff;stop-opacity:1;"
         offset="0.76340693"
         id="stop2" />
    </linearGradient>
    <linearGradient
       inkscape:collect="always"
       xlink:href="#linearGradient1"
       id="linearGradient2"
       x1="232.4884"
       y1="23.847498"
       x2="23.977745"
       y2="232.35815"
       gradientUnits="userSpaceOnUse" />
  </defs>
  <defs
     id="defs2" />
  <sodipodi:namedview
     id="namedview2"
     pagecolor="#ffffff"
     bordercolor="#000000"
     borderopacity="0.25"
     inkscape:showpageshadow="2"
     inkscape:pageopacity="0.0"
     inkscape:pagecheckerboard="0"
     inkscape:deskcolor="#d1d1d1" />
  <path
     id="line1"
     style="baseline-shift:baseline;display:inline;overflow:visible;vector-effect:none;fill:url(#linearGradient2);stroke-linecap:round;stroke-linejoin:round;enable-background:accumulate;stop-color:#000000;stop-opacity:1;opacity:1;fill-opacity:1"
     d="M 128 24 A 8.0008 8.0008 0 0 0 126.94922 24.070312 A 8 8 0 0 0 126.46094 24.167969 A 8.0008 8.0008 0 0 0 125.91406 24.279297 A 8 8 0 0 0 125.39844 24.453125 A 8.0008 8.0008 0 0 0 124.92188 24.617188 A 8 8 0 0 0 124.44531 24.853516 A 8.0008 8.0008 0 0 0 123.9668 25.095703 A 8 8 0 0 0 123.52539 25.390625 A 8.0008 8.0008 0 0 0 123.10352 25.677734 A 8 8 0 0 0 122.66406 26.0625 A 8.0008 8.0008 0 0 0 122.34375 26.34375 L 122.26172 26.425781 L 82.34375 66.34375 A 8 8 0 0 0 82.34375 77.65625 A 8 8 0 0 0 93.65625 77.65625 L 120 51.3125 L 120 144 A 8 8 0 0 0 128 152 A 8 8 0 0 0 136 144 L 136 51.3125 L 162.34375 77.65625 A 8 8 0 0 0 173.65625 77.65625 A 8 8 0 0 0 173.65625 66.34375 L 133.73828 26.425781 L 133.65625 26.34375 A 8.0008 8.0008 0 0 0 133.33594 26.0625 A 8 8 0 0 0 132.89648 25.677734 A 8.0008 8.0008 0 0 0 132.47461 25.390625 A 8 8 0 0 0 132.0332 25.095703 A 8.0008 8.0008 0 0 0 131.55469 24.853516 A 8 8 0 0 0 131.07812 24.617188 A 8.0008 8.0008 0 0 0 130.60156 24.453125 A 8 8 0 0 0 130.08594 24.279297 A 8.0008 8.0008 0 0 0 129.53906 24.167969 A 8 8 0 0 0 129.05078 24.070312 A 8 8 0 0 0 128 24 z M 40 136 A 8 8 0 0 0 32 144 L 32 208 A 8.0008 8.0008 0 0 0 40 216 L 216 216 A 8.0008 8.0008 0 0 0 224 208 L 224 144 A 8 8 0 0 0 216 136 A 8 8 0 0 0 208 144 L 208 200 L 48 200 L 48 144 A 8 8 0 0 0 40 136 z " />
</svg>
