<?xml version="1.0" encoding="UTF-8" standalone="no"?>
<svg
   viewBox="0 0 256 256"
   version="1.1"
   id="svg5"
   sodipodi:docname="user circle dashed blue_purple.svg"
   xmlns:inkscape="http://www.inkscape.org/namespaces/inkscape"
   xmlns:sodipodi="http://sodipodi.sourceforge.net/DTD/sodipodi-0.dtd"
   xmlns:xlink="http://www.w3.org/1999/xlink"
   xmlns="http://www.w3.org/2000/svg"
   xmlns:svg="http://www.w3.org/2000/svg">
  <defs
     id="defs3">
    <linearGradient
       id="linearGradient1"
       inkscape:collect="always">
      <stop
         style="stop-color:#a03291;stop-opacity:1;"
         offset="0"
         id="stop1" />
      <stop
         style="stop-color:#4b4fe2ff;stop-opacity:1;"
         offset="0.76340693"
         id="stop2" />
    </linearGradient>
    <linearGradient
       inkscape:collect="always"
       xlink:href="#linearGradient1"
       id="linearGradient2"
       x1="232.4884"
       y1="23.847498"
       x2="23.977745"
       y2="232.35815"
       gradientUnits="userSpaceOnUse" />
  </defs>
  <defs
     id="defs5" />
  <sodipodi:namedview
     id="namedview5"
     pagecolor="#ffffff"
     bordercolor="#000000"
     borderopacity="0.25"
     inkscape:showpageshadow="2"
     inkscape:pageopacity="0.0"
     inkscape:pagecheckerboard="0"
     inkscape:deskcolor="#d1d1d1" />
  <path
     id="circle1"
     style="baseline-shift:baseline;display:inline;overflow:visible;vector-effect:none;fill:url(#linearGradient2);stroke-linecap:round;stroke-linejoin:round;enable-background:accumulate;stop-color:#000000;stop-opacity:1;opacity:1;fill-opacity:1"
     d="M 128 23.935547 C 119.25915 23.935547 110.51879 25.041739 101.99023 27.255859 A 8 8 0 0 0 96.255859 37.009766 A 8 8 0 0 0 106.00977 42.744141 C 120.43091 39.000231 135.56909 39.000231 149.99023 42.744141 A 8 8 0 0 0 159.74414 37.009766 A 8 8 0 0 0 154.00977 27.255859 C 145.48121 25.041739 136.74085 23.935547 128 23.935547 z M 196.57422 52.730469 A 8 8 0 0 0 190.89844 55.029297 A 8 8 0 0 0 190.80859 66.341797 C 201.26226 76.962743 208.83088 90.074958 212.79883 104.43945 A 8 8 0 0 0 222.64062 110.02148 A 8 8 0 0 0 228.2207 100.17969 C 223.52767 83.190469 214.57472 67.68077 202.21094 55.119141 A 8 8 0 0 0 196.57422 52.730469 z M 59.427734 52.740234 A 8 8 0 0 0 53.789062 55.126953 C 41.428452 67.682483 32.475662 83.186501 27.779297 100.16797 A 8 8 0 0 0 33.357422 110.00977 A 8 8 0 0 0 43.201172 104.43164 C 47.171982 90.073695 54.740424 76.967351 65.191406 66.351562 A 8 8 0 0 0 65.101562 55.039062 A 8 8 0 0 0 59.427734 52.740234 z M 128 72 C 101.58509 72 80 93.585089 80 120 C 80 135.2381 87.182249 148.86886 98.332031 157.67578 C 83.906578 163.44661 71.319901 173.35643 62.306641 186.33203 C 53.425232 176.34037 46.79447 164.51731 43.1875 151.55469 A 8 8 0 0 0 33.335938 145.99219 A 8 8 0 0 0 27.773438 155.84375 C 33.081437 174.91948 43.725466 192.08572 58.453125 205.32031 A 8.0008 8.0008 0 0 0 70.933594 202.99219 C 81.63444 181.91477 103.01463 168.50218 126.56836 167.97852 C 127.04411 167.99261 127.52097 168 128 168 C 128.47903 168 128.95589 167.99261 129.43164 167.97852 C 152.98537 168.50218 174.36556 181.91477 185.06641 202.99219 A 8.0008 8.0008 0 0 0 197.54688 205.32031 C 212.27453 192.08572 222.91856 174.91948 228.22656 155.84375 A 8 8 0 0 0 222.66406 145.99219 A 8 8 0 0 0 212.8125 151.55469 C 209.20553 164.51731 202.57477 176.34037 193.69336 186.33203 C 184.6801 173.35644 172.09342 163.44661 157.66797 157.67578 C 168.81775 148.86886 176 135.2381 176 120 C 176 93.585089 154.41491 72 128 72 z M 128 88 C 145.76787 88 160 102.23213 160 120 C 160 137.32587 146.46624 151.29059 129.31836 151.97461 C 128.87917 151.96738 128.44031 151.96289 128 151.96289 C 127.55969 151.96289 127.12083 151.96738 126.68164 151.97461 C 109.53376 151.29059 96 137.32587 96 120 C 96 102.23213 110.23213 88 128 88 z M 103.9375 213 A 8 8 0 0 0 96.255859 218.99023 A 8 8 0 0 0 101.99023 228.74414 C 119.04734 233.17238 136.95266 233.17238 154.00977 228.74414 A 8 8 0 0 0 159.74414 218.99023 A 8 8 0 0 0 149.99023 213.25586 C 135.56909 216.99977 120.43091 216.99977 106.00977 213.25586 A 8 8 0 0 0 103.9375 213 z " />
</svg>
