<?xml version="1.0" encoding="UTF-8" standalone="no"?>
<svg
   viewBox="0 0 256 256"
   version="1.1"
   id="svg4"
   sodipodi:docname="users four blue_purple.svg"
   xmlns:inkscape="http://www.inkscape.org/namespaces/inkscape"
   xmlns:sodipodi="http://sodipodi.sourceforge.net/DTD/sodipodi-0.dtd"
   xmlns:xlink="http://www.w3.org/1999/xlink"
   xmlns="http://www.w3.org/2000/svg"
   xmlns:svg="http://www.w3.org/2000/svg">
  <defs
     id="defs3">
    <linearGradient
       id="linearGradient1"
       inkscape:collect="always">
      <stop
         style="stop-color:#a03291;stop-opacity:1;"
         offset="0"
         id="stop1" />
      <stop
         style="stop-color:#4b4fe2ff;stop-opacity:1;"
         offset="0.76340693"
         id="stop2" />
    </linearGradient>
    <linearGradient
       inkscape:collect="always"
       xlink:href="#linearGradient1"
       id="linearGradient2"
       x1="232.4884"
       y1="23.847498"
       x2="23.977745"
       y2="232.35815"
       gradientUnits="userSpaceOnUse" />
  </defs>
  <defs
     id="defs4" />
  <sodipodi:namedview
     id="namedview4"
     pagecolor="#ffffff"
     bordercolor="#000000"
     borderopacity="0.25"
     inkscape:showpageshadow="2"
     inkscape:pageopacity="0.0"
     inkscape:pagecheckerboard="0"
     inkscape:deskcolor="#d1d1d1" />
  <path
     id="circle1"
     style="baseline-shift:baseline;display:inline;overflow:visible;vector-effect:none;fill:url(#linearGradient2);stroke-linecap:round;stroke-linejoin:round;enable-background:accumulate;stop-color:#000000;stop-opacity:1;opacity:1;fill-opacity:1"
     d="M 80 24 C 58.003367 24 40 42.003367 40 64 C 40 75.68326 45.078177 86.239372 53.136719 93.570312 C 42.630732 98.033766 33.066307 105.24362 25.599609 115.19922 A 8 8 0 0 0 27.199219 126.40039 A 8 8 0 0 0 38.400391 124.80078 C 48.326153 111.56643 62.843423 104.60847 77.597656 103.92773 C 78.392364 103.9754 79.193876 104 80 104 C 80.806124 104 81.607636 103.9754 82.402344 103.92773 C 97.156577 104.60847 111.67385 111.56643 121.59961 124.80078 A 8.0008 8.0008 0 0 0 134.40039 124.80078 C 144.32615 111.56643 158.84342 104.60847 173.59766 103.92773 C 174.39236 103.9754 175.19388 104 176 104 C 176.80612 104 177.60764 103.9754 178.40234 103.92773 C 193.15658 104.60847 207.67385 111.56643 217.59961 124.80078 A 8 8 0 0 0 228.80078 126.40039 A 8 8 0 0 0 230.40039 115.19922 C 222.93025 105.23903 213.36239 98.032077 202.85547 93.576172 C 210.91767 86.245002 216 75.686313 216 64 C 216 42.003367 197.99663 24 176 24 C 154.00337 24 136 42.003367 136 64 C 136 75.70729 141.10011 86.282521 149.1875 93.615234 C 141.46462 96.899987 134.2488 101.66858 128 107.91797 C 121.75283 101.67021 114.54645 96.893689 106.83203 93.599609 C 114.90843 86.267563 120 75.698135 120 64 C 120 42.003367 101.99663 24 80 24 z M 80 40 C 93.349591 40 104 50.650409 104 64 C 104 77.349591 93.349591 88 80 88 C 66.650409 88 56 77.349591 56 64 C 56 50.650409 66.650409 40 80 40 z M 176 40 C 189.34959 40 200 50.650409 200 64 C 200 77.349591 189.34959 88 176 88 C 162.65041 88 152 77.349591 152 64 C 152 50.650409 162.65041 40 176 40 z M 80 128 C 58.003367 128 40 146.00337 40 168 C 40 179.68326 45.078176 190.23937 53.136719 197.57031 C 42.63073 202.03376 33.066307 209.24362 25.599609 219.19922 A 8 8 0 0 0 27.199219 230.40039 A 8 8 0 0 0 38.400391 228.80078 C 48.326151 215.56643 62.843425 208.60847 77.597656 207.92773 C 78.392366 207.9754 79.193874 208 80 208 C 80.806126 208 81.607634 207.9754 82.402344 207.92773 C 97.156575 208.60847 111.67385 215.56643 121.59961 228.80078 A 8.0008 8.0008 0 0 0 134.40039 228.80078 C 144.32615 215.56643 158.84342 208.60847 173.59766 207.92773 C 174.39237 207.9754 175.19387 208 176 208 C 176.80613 208 177.60763 207.9754 178.40234 207.92773 C 193.15658 208.60847 207.67385 215.56643 217.59961 228.80078 A 8 8 0 0 0 228.80078 230.40039 A 8 8 0 0 0 230.40039 219.19922 C 222.93025 209.23903 213.36239 202.03208 202.85547 197.57617 C 210.91767 190.245 216 179.68631 216 168 C 216 146.00337 197.99663 128 176 128 C 154.00337 128 136 146.00337 136 168 C 136 179.70729 141.10011 190.28252 149.1875 197.61523 C 141.46462 200.89999 134.2488 205.66858 128 211.91797 C 121.75283 205.67021 114.54645 200.89369 106.83203 197.59961 C 114.90843 190.26756 120 179.69813 120 168 C 120 146.00337 101.99663 128 80 128 z M 80 144 C 93.349591 144 104 154.65041 104 168 C 104 181.34959 93.349591 192 80 192 C 66.650409 192 56 181.34959 56 168 C 56 154.65041 66.650409 144 80 144 z M 176 144 C 189.34959 144 200 154.65041 200 168 C 200 181.34959 189.34959 192 176 192 C 162.65041 192 152 181.34959 152 168 C 152 154.65041 162.65041 144 176 144 z " />
</svg>
