<?xml version="1.0" encoding="UTF-8" standalone="no"?>
<svg
   viewBox="0 0 256 256"
   version="1.1"
   id="svg5"
   sodipodi:docname="users three blue_purple.svg"
   xmlns:inkscape="http://www.inkscape.org/namespaces/inkscape"
   xmlns:sodipodi="http://sodipodi.sourceforge.net/DTD/sodipodi-0.dtd"
   xmlns:xlink="http://www.w3.org/1999/xlink"
   xmlns="http://www.w3.org/2000/svg"
   xmlns:svg="http://www.w3.org/2000/svg">
  <defs
     id="defs3">
    <linearGradient
       id="linearGradient1"
       inkscape:collect="always">
      <stop
         style="stop-color:#a03291;stop-opacity:1;"
         offset="0"
         id="stop1" />
      <stop
         style="stop-color:#4b4fe2ff;stop-opacity:1;"
         offset="0.76340693"
         id="stop2" />
    </linearGradient>
    <linearGradient
       inkscape:collect="always"
       xlink:href="#linearGradient1"
       id="linearGradient2"
       x1="232.4884"
       y1="23.847498"
       x2="23.977745"
       y2="232.35815"
       gradientUnits="userSpaceOnUse" />
  </defs>
  <defs
     id="defs5" />
  <sodipodi:namedview
     id="namedview5"
     pagecolor="#ffffff"
     bordercolor="#000000"
     borderopacity="0.25"
     inkscape:showpageshadow="2"
     inkscape:pageopacity="0.0"
     inkscape:pagecheckerboard="0"
     inkscape:deskcolor="#d1d1d1" />
  <path
     id="path1"
     style="baseline-shift:baseline;display:inline;overflow:visible;vector-effect:none;fill:url(#linearGradient2);stroke-linecap:round;stroke-linejoin:round;enable-background:accumulate;stop-color:#000000;stop-opacity:1;opacity:1;fill-opacity:1"
     d="M 64.677734 48.318359 C 63.555778 48.288474 62.432582 48.303589 61.310547 48.365234 C 50.539009 48.957032 39.917356 53.798737 32.400391 63.498047 C 18.887178 80.934451 23.079918 104.1675 37.273438 117.46289 C 26.437843 122.09349 16.844349 129.52507 9.5957031 139.20508 A 8 8 0 0 0 11.205078 150.4043 A 8 8 0 0 0 22.404297 148.79492 C 32.218598 135.68869 47.62057 127.9877 63.994141 128 L 63.996094 128 A 8 8 0 0 0 67.519531 127.16406 A 8 8 0 0 0 67.994141 126.93164 A 8 8 0 0 0 67.996094 126.92969 A 8 8 0 0 0 68.285156 126.73633 A 8 8 0 0 0 69.652344 125.66016 A 8 8 0 0 0 70.021484 125.24219 A 8 8 0 0 0 70.34375 124.875 A 8 8 0 0 0 70.34375 124.87305 A 8 8 0 0 0 70.925781 124.00586 A 8 8 0 0 0 70.925781 124.00391 A 8 8 0 0 0 71.388672 123.06641 A 8 8 0 0 0 71.388672 123.06445 A 8 8 0 0 0 71.726562 122.07617 A 8 8 0 0 0 71.726562 122.07422 A 8 8 0 0 0 71.931641 121.05078 A 8 8 0 0 0 71.931641 121.04883 A 8 8 0 0 0 72 120.00586 A 8 8 0 0 0 72 120.00391 A 8 8 0 0 0 71.931641 118.96094 A 8 8 0 0 0 71.931641 118.95898 A 8 8 0 0 0 71.728516 117.93555 A 8 8 0 0 0 71.728516 117.93359 A 8 8 0 0 0 71.392578 116.94336 A 8 8 0 0 0 71.392578 116.94141 A 8 8 0 0 0 70.931641 116.00586 A 8 8 0 0 0 70.929688 116.00391 A 8 8 0 0 0 70.736328 115.71484 A 8 8 0 0 0 70.349609 115.13281 A 8 8 0 0 0 69.660156 114.34766 A 8 8 0 0 0 69.242188 113.97852 A 8 8 0 0 0 68.875 113.65625 A 8 8 0 0 0 68.873047 113.65625 A 8 8 0 0 0 68.005859 113.07422 A 8 8 0 0 0 68.003906 113.07422 A 8 8 0 0 0 67.066406 112.61133 A 8 8 0 0 0 67.064453 112.61133 A 8 8 0 0 0 66.076172 112.27344 A 8 8 0 0 0 66.074219 112.27344 A 8 8 0 0 0 65.050781 112.06836 A 8 8 0 0 0 65.048828 112.06836 A 8 8 0 0 0 64.005859 112 L 63.990234 112 C 43.530131 111.98013 32.512106 89.472724 45.046875 73.298828 C 57.584306 57.121498 82.136788 62.181499 87.253906 82 A 8 8 0 0 0 97 87.746094 A 8 8 0 0 0 102.74609 78 C 97.952458 59.43431 81.507077 48.766639 64.677734 48.318359 z M 191.32227 48.318359 C 174.49292 48.766639 158.04755 59.43431 153.25391 78 A 8 8 0 0 0 159 87.746094 A 8 8 0 0 0 168.74609 82 C 173.86321 62.181499 198.41569 57.121498 210.95312 73.298828 C 223.48791 89.472733 212.46989 111.98016 192.00977 112 L 191.99414 112 A 8 8 0 0 0 190.94922 112.06836 A 8 8 0 0 0 189.92383 112.27344 A 8 8 0 0 0 188.93359 112.61133 A 8 8 0 0 0 187.99414 113.07422 A 8 8 0 0 0 187.125 113.65625 A 8 8 0 0 0 186.75781 113.97852 A 8 8 0 0 0 186.33984 114.34766 A 8 8 0 0 0 185.65039 115.13281 A 8 8 0 0 0 185.65039 115.13477 A 8 8 0 0 0 185.07031 116.00391 A 8 8 0 0 0 185.06836 116.00586 A 8 8 0 0 0 184.83594 116.48047 A 8 8 0 0 0 184.60742 116.94141 A 8 8 0 0 0 184.60742 116.94336 A 8 8 0 0 0 184.27148 117.93359 A 8 8 0 0 0 184.27148 117.93555 A 8 8 0 0 0 184.06836 118.95898 A 8 8 0 0 0 184.06836 118.96094 A 8 8 0 0 0 184 120.00391 A 8 8 0 0 0 184 120.00586 A 8 8 0 0 0 184.06836 121.04883 A 8 8 0 0 0 184.06836 121.05078 A 8 8 0 0 0 184.27344 122.07422 A 8 8 0 0 0 184.27344 122.07617 A 8 8 0 0 0 184.61133 123.06445 A 8 8 0 0 0 184.61133 123.06641 A 8 8 0 0 0 185.07422 124.00391 A 8 8 0 0 0 185.07422 124.00586 A 8 8 0 0 0 185.65625 124.87305 A 8 8 0 0 0 185.65625 124.875 A 8 8 0 0 0 185.97852 125.24219 A 8 8 0 0 0 186.34766 125.66016 A 8 8 0 0 0 187.13281 126.34961 A 8 8 0 0 0 187.13477 126.34961 A 8 8 0 0 0 188.00391 126.92969 A 8 8 0 0 0 188.00586 126.93164 A 8 8 0 0 0 188.48047 127.16406 A 8 8 0 0 0 188.94141 127.39258 A 8 8 0 0 0 188.94336 127.39258 A 8 8 0 0 0 189.93359 127.72852 A 8 8 0 0 0 189.93555 127.72852 A 8 8 0 0 0 190.95898 127.93164 A 8 8 0 0 0 190.96094 127.93164 A 8 8 0 0 0 192.00586 128 C 208.37943 127.9877 223.7814 135.68869 233.5957 148.79492 A 8 8 0 0 0 244.79492 150.4043 A 8 8 0 0 0 246.4043 139.20508 C 239.15565 129.52507 229.56216 122.09349 218.72656 117.46289 C 232.92009 104.1675 237.11282 80.934453 223.59961 63.498047 C 216.08264 53.798737 205.46099 48.957032 194.68945 48.365234 C 193.56742 48.303589 192.44422 48.288474 191.32227 48.318359 z M 128 96 C 101.58509 96 80 117.58509 80 144 C 80 159.4715 87.404489 173.28516 98.847656 182.07617 C 84.954643 188.13109 73.048002 198.46257 65.107422 211.9375 A 8 8 0 0 0 67.9375 222.89258 A 8 8 0 0 0 78.892578 220.0625 C 89.145521 202.66357 107.80481 192 128 192 C 148.19519 192 166.85448 202.66357 177.10742 220.0625 A 8 8 0 0 0 188.0625 222.89258 A 8 8 0 0 0 190.89258 211.9375 C 182.952 198.46258 171.04536 188.13109 157.15234 182.07617 C 168.59551 173.28516 176 159.4715 176 144 C 176 117.58509 154.41491 96 128 96 z M 128 112 C 145.76787 112 160 126.23213 160 144 C 160 161.76787 145.76787 176 128 176 C 110.23213 176 96 161.76787 96 144 C 96 126.23213 110.23213 112 128 112 z " />
</svg>
