<?xml version="1.0" encoding="UTF-8" standalone="no"?>
<svg
   viewBox="0 0 256 256"
   version="1.1"
   id="svg3"
   sodipodi:docname="vector two blue_purple.svg"
   xmlns:inkscape="http://www.inkscape.org/namespaces/inkscape"
   xmlns:sodipodi="http://sodipodi.sourceforge.net/DTD/sodipodi-0.dtd"
   xmlns:xlink="http://www.w3.org/1999/xlink"
   xmlns="http://www.w3.org/2000/svg"
   xmlns:svg="http://www.w3.org/2000/svg">
  <defs
     id="defs3">
    <linearGradient
       id="linearGradient1"
       inkscape:collect="always">
      <stop
         style="stop-color:#a03291;stop-opacity:1;"
         offset="0"
         id="stop1" />
      <stop
         style="stop-color:#4b4fe2ff;stop-opacity:1;"
         offset="0.76340693"
         id="stop2" />
    </linearGradient>
    <linearGradient
       inkscape:collect="always"
       xlink:href="#linearGradient1"
       id="linearGradient2"
       x1="232.4884"
       y1="23.847498"
       x2="23.977745"
       y2="232.35815"
       gradientUnits="userSpaceOnUse" />
  </defs>
  <defs
     id="defs1" />
  <sodipodi:namedview
     id="namedview3"
     pagecolor="#ffffff"
     bordercolor="#000000"
     borderopacity="0.25"
     inkscape:showpageshadow="2"
     inkscape:pageopacity="0.0"
     inkscape:pagecheckerboard="0"
     inkscape:deskcolor="#d1d1d1" />
  <path
     id="polyline1"
     style="baseline-shift:baseline;display:inline;overflow:visible;vector-effect:none;fill:url(#linearGradient2);stroke-linecap:round;stroke-linejoin:round;enable-background:accumulate;stop-color:#000000;stop-opacity:1;opacity:1;fill-opacity:1"
     d="M 80 32 A 8.0008 8.0008 0 0 0 78.949219 32.070312 A 8 8 0 0 0 78.460938 32.167969 A 8.0008 8.0008 0 0 0 77.914062 32.279297 A 8 8 0 0 0 77.398438 32.453125 A 8.0008 8.0008 0 0 0 76.921875 32.617188 A 8 8 0 0 0 76.445312 32.853516 A 8.0008 8.0008 0 0 0 75.966797 33.095703 A 8 8 0 0 0 75.525391 33.390625 A 8.0008 8.0008 0 0 0 75.103516 33.677734 A 8 8 0 0 0 74.664062 34.0625 A 8.0008 8.0008 0 0 0 74.34375 34.34375 L 74.261719 34.425781 L 42.34375 66.34375 A 8 8 0 0 0 42.34375 77.65625 A 8 8 0 0 0 53.65625 77.65625 L 72 59.3125 L 72 192 A 8.0008 8.0008 0 0 0 80 200 L 204.6875 200 L 186.34375 218.34375 A 8 8 0 0 0 186.34375 229.65625 A 8 8 0 0 0 197.65625 229.65625 L 229.65625 197.65625 A 8.0008 8.0008 0 0 0 229.9375 197.33594 A 8 8 0 0 0 230.32227 196.89648 A 8.0008 8.0008 0 0 0 230.60938 196.47461 A 8 8 0 0 0 230.9043 196.0332 A 8.0008 8.0008 0 0 0 231.14648 195.55469 A 8 8 0 0 0 231.38281 195.07812 A 8.0008 8.0008 0 0 0 231.54688 194.60156 A 8 8 0 0 0 231.7207 194.08594 A 8.0008 8.0008 0 0 0 231.79883 193.70703 A 8 8 0 0 0 232 192 A 8 8 0 0 0 231.79883 190.29297 A 8.0008 8.0008 0 0 0 231.7207 189.91406 A 8 8 0 0 0 231.54688 189.39844 A 8.0008 8.0008 0 0 0 231.38281 188.92188 A 8 8 0 0 0 231.14648 188.44531 A 8.0008 8.0008 0 0 0 230.9043 187.9668 A 8 8 0 0 0 230.60938 187.52539 A 8.0008 8.0008 0 0 0 230.32227 187.10352 A 8 8 0 0 0 229.9375 186.66406 A 8.0008 8.0008 0 0 0 229.65625 186.34375 L 197.65625 154.34375 A 8 8 0 0 0 192 152 A 8 8 0 0 0 186.34375 154.34375 A 8 8 0 0 0 186.34375 165.65625 L 204.6875 184 L 88 184 L 88 59.3125 L 106.34375 77.65625 A 8 8 0 0 0 117.65625 77.65625 A 8 8 0 0 0 117.65625 66.34375 L 85.738281 34.425781 L 85.65625 34.34375 A 8.0008 8.0008 0 0 0 85.335938 34.0625 A 8 8 0 0 0 84.896484 33.677734 A 8.0008 8.0008 0 0 0 84.474609 33.390625 A 8 8 0 0 0 84.033203 33.095703 A 8.0008 8.0008 0 0 0 83.554688 32.853516 A 8 8 0 0 0 83.078125 32.617188 A 8.0008 8.0008 0 0 0 82.601562 32.453125 A 8 8 0 0 0 82.085938 32.279297 A 8.0008 8.0008 0 0 0 81.539062 32.167969 A 8 8 0 0 0 81.050781 32.070312 A 8 8 0 0 0 80 32 z " />
</svg>
