<?xml version="1.0" encoding="UTF-8" standalone="no"?>
<svg
   viewBox="0 0 256 256"
   version="1.1"
   id="svg2"
   sodipodi:docname="video camera slash blue_purple.svg"
   xmlns:inkscape="http://www.inkscape.org/namespaces/inkscape"
   xmlns:sodipodi="http://sodipodi.sourceforge.net/DTD/sodipodi-0.dtd"
   xmlns:xlink="http://www.w3.org/1999/xlink"
   xmlns="http://www.w3.org/2000/svg"
   xmlns:svg="http://www.w3.org/2000/svg">
  <defs
     id="defs3">
    <linearGradient
       id="linearGradient1"
       inkscape:collect="always">
      <stop
         style="stop-color:#a03291;stop-opacity:1;"
         offset="0"
         id="stop1" />
      <stop
         style="stop-color:#4b4fe2ff;stop-opacity:1;"
         offset="0.76340693"
         id="stop2" />
    </linearGradient>
    <linearGradient
       inkscape:collect="always"
       xlink:href="#linearGradient1"
       id="linearGradient2"
       x1="232.4884"
       y1="23.847498"
       x2="23.977745"
       y2="232.35815"
       gradientUnits="userSpaceOnUse" />
  </defs>
  <defs
     id="defs2" />
  <sodipodi:namedview
     id="namedview2"
     pagecolor="#ffffff"
     bordercolor="#000000"
     borderopacity="0.25"
     inkscape:showpageshadow="2"
     inkscape:pageopacity="0.0"
     inkscape:pagecheckerboard="0"
     inkscape:deskcolor="#d1d1d1" />
  <path
     id="polyline1"
     style="baseline-shift:baseline;display:inline;overflow:visible;vector-effect:none;fill:url(#linearGradient2);stroke-linecap:round;stroke-linejoin:round;enable-background:accumulate;stop-color:#000000;stop-opacity:1;opacity:1;fill-opacity:1"
     d="M 48.380859 32.009766 A 8 8 0 0 0 42.619141 34.080078 A 8 8 0 0 0 42.080078 45.380859 L 51.734375 56 L 32 56 C 23.258201 56 16 63.258201 16 72 L 16 184 C 16 192.7418 23.258201 200 32 200 L 182.64258 200 L 202.08008 221.38086 A 8 8 0 0 0 213.38086 221.91992 A 8 8 0 0 0 213.91992 210.61914 L 75.855469 58.748047 L 75.847656 58.738281 A 8 8 0 0 0 75.625 58.494141 L 53.919922 34.619141 A 8 8 0 0 0 48.380859 32.009766 z M 113.06055 56 A 8 8 0 0 0 105.06055 64 A 8 8 0 0 0 113.06055 72 L 192 72 L 192 159.63086 A 8 8 0 0 0 200 167.63086 A 8 8 0 0 0 208 159.63086 L 208 158.94727 L 243.5625 182.65625 A 8.0008 8.0008 0 0 0 256 176 L 256 80 A 8.0008 8.0008 0 0 0 249.04883 72.070312 A 8.0008 8.0008 0 0 0 243.5625 73.34375 L 208 97.052734 L 208 72 C 208 63.258201 200.7418 56 192 56 L 113.06055 56 z M 32 72 L 66.279297 72 L 168.09766 184 L 32 184 L 32 72 z M 240 94.947266 L 240 161.05273 L 208 139.71875 L 208 116.28125 L 240 94.947266 z " />
</svg>
