<?xml version="1.0" encoding="UTF-8" standalone="no"?>
<svg
   viewBox="0 0 256 256"
   version="1.1"
   id="svg3"
   sodipodi:docname="waves blue_purple.svg"
   xmlns:inkscape="http://www.inkscape.org/namespaces/inkscape"
   xmlns:sodipodi="http://sodipodi.sourceforge.net/DTD/sodipodi-0.dtd"
   xmlns:xlink="http://www.w3.org/1999/xlink"
   xmlns="http://www.w3.org/2000/svg"
   xmlns:svg="http://www.w3.org/2000/svg">
  <defs
     id="defs3">
    <linearGradient
       id="linearGradient1"
       inkscape:collect="always">
      <stop
         style="stop-color:#a03291;stop-opacity:1;"
         offset="0"
         id="stop1" />
      <stop
         style="stop-color:#4b4fe2ff;stop-opacity:1;"
         offset="0.76340693"
         id="stop2" />
    </linearGradient>
    <linearGradient
       inkscape:collect="always"
       xlink:href="#linearGradient1"
       id="linearGradient2"
       x1="232.4884"
       y1="23.847498"
       x2="23.977745"
       y2="232.35815"
       gradientUnits="userSpaceOnUse" />
  </defs>
  <defs
     id="defs1" />
  <sodipodi:namedview
     id="namedview3"
     pagecolor="#ffffff"
     bordercolor="#000000"
     borderopacity="0.25"
     inkscape:showpageshadow="2"
     inkscape:pageopacity="0.0"
     inkscape:pagecheckerboard="0"
     inkscape:deskcolor="#d1d1d1" />
  <path
     id="path1"
     style="baseline-shift:baseline;display:inline;overflow:visible;vector-effect:none;fill:url(#linearGradient2);stroke-linecap:round;stroke-linejoin:round;enable-background:accumulate;stop-color:#000000;stop-opacity:1;opacity:1;fill-opacity:1"
     d="M 82.416016 48.019531 C 67.735944 47.985689 51.699455 53.519423 34.894531 67.451172 A 8 8 0 0 0 33.841797 78.714844 A 8 8 0 0 0 45.105469 79.769531 C 61.899842 65.846529 74.697509 62.935218 86.876953 64.271484 C 99.056398 65.607751 111.18164 71.9725 124.18164 79.03125 C 137.18164 86.09 151.0564 93.842204 167.37695 95.632812 C 183.69751 97.423423 201.89984 92.470826 221.10547 76.548828 A 8 8 0 0 0 222.1582 65.285156 A 8 8 0 0 0 210.89453 64.230469 C 194.10016 78.153471 181.30249 81.064782 169.12305 79.728516 C 156.9436 78.392249 144.81836 72.0275 131.81836 64.96875 C 118.81836 57.91 104.9436 50.157795 88.623047 48.367188 C 86.582977 48.143361 84.513169 48.024366 82.416016 48.019531 z M 82.416016 104.01953 C 67.735944 103.98573 51.699455 109.51942 34.894531 123.45117 A 8 8 0 0 0 33.841797 134.71484 A 8 8 0 0 0 45.105469 135.76953 C 61.899842 121.84653 74.697509 118.93522 86.876953 120.27148 C 99.056398 121.60775 111.18164 127.9725 124.18164 135.03125 C 137.18164 142.09 151.0564 149.8422 167.37695 151.63281 C 183.69751 153.42342 201.89984 148.47083 221.10547 132.54883 A 8 8 0 0 0 222.1582 121.28516 A 8 8 0 0 0 210.89453 120.23047 C 194.10016 134.15347 181.30249 137.06478 169.12305 135.72852 C 156.9436 134.39225 144.81836 128.0275 131.81836 120.96875 C 118.81836 113.91 104.9436 106.1578 88.623047 104.36719 C 86.582977 104.14336 84.513169 104.02437 82.416016 104.01953 z M 82.416016 160.01953 C 67.735944 159.98573 51.699455 165.51942 34.894531 179.45117 A 8 8 0 0 0 33.841797 190.71484 A 8 8 0 0 0 45.105469 191.76953 C 61.899842 177.84653 74.697509 174.93522 86.876953 176.27148 C 99.056398 177.60775 111.18164 183.9725 124.18164 191.03125 C 137.18164 198.09 151.0564 205.8422 167.37695 207.63281 C 183.69751 209.42342 201.89984 204.47083 221.10547 188.54883 A 8 8 0 0 0 222.1582 177.28516 A 8 8 0 0 0 210.89453 176.23047 C 194.10016 190.15347 181.30249 193.06478 169.12305 191.72852 C 156.9436 190.39225 144.81836 184.0275 131.81836 176.96875 C 118.81836 169.91 104.9436 162.1578 88.623047 160.36719 C 86.582977 160.14336 84.513169 160.02437 82.416016 160.01953 z " />
</svg>
