<?xml version="1.0" encoding="UTF-8" standalone="no"?>
<svg
   viewBox="0 0 256 256"
   version="1.1"
   id="svg8"
   sodipodi:docname="waveform slash blue_purple.svg"
   xmlns:inkscape="http://www.inkscape.org/namespaces/inkscape"
   xmlns:sodipodi="http://sodipodi.sourceforge.net/DTD/sodipodi-0.dtd"
   xmlns:xlink="http://www.w3.org/1999/xlink"
   xmlns="http://www.w3.org/2000/svg"
   xmlns:svg="http://www.w3.org/2000/svg">
  <defs
     id="defs3">
    <linearGradient
       id="linearGradient1"
       inkscape:collect="always">
      <stop
         style="stop-color:#a03291;stop-opacity:1;"
         offset="0"
         id="stop1" />
      <stop
         style="stop-color:#4b4fe2ff;stop-opacity:1;"
         offset="0.76340693"
         id="stop2" />
    </linearGradient>
    <linearGradient
       inkscape:collect="always"
       xlink:href="#linearGradient1"
       id="linearGradient2"
       x1="232.4884"
       y1="23.847498"
       x2="23.977745"
       y2="232.35815"
       gradientUnits="userSpaceOnUse" />
  </defs>
  <defs
     id="defs8" />
  <sodipodi:namedview
     id="namedview8"
     pagecolor="#ffffff"
     bordercolor="#000000"
     borderopacity="0.25"
     inkscape:showpageshadow="2"
     inkscape:pageopacity="0.0"
     inkscape:pagecheckerboard="0"
     inkscape:deskcolor="#d1d1d1" />
  <path
     id="line1"
     style="baseline-shift:baseline;display:inline;overflow:visible;vector-effect:none;fill:url(#linearGradient2);stroke-linecap:round;stroke-linejoin:round;enable-background:accumulate;stop-color:#000000;stop-opacity:1;opacity:1;fill-opacity:1"
     d="M 88 24 A 8 8 0 0 0 80 32 L 80 36.429688 A 8 8 0 0 0 88 44.429688 A 8 8 0 0 0 96 36.429688 L 96 32 A 8 8 0 0 0 88 24 z M 48.380859 32.009766 A 8 8 0 0 0 42.619141 34.080078 A 8 8 0 0 0 42.080078 45.380859 L 80 87.09375 L 80 224 A 8 8 0 0 0 88 232 A 8 8 0 0 0 96 224 L 96 104.69336 L 120 131.09375 L 120 192 A 8 8 0 0 0 128 200 A 8 8 0 0 0 136 192 L 136 148.69336 L 202.08008 221.38086 A 8 8 0 0 0 213.38086 221.91992 A 8 8 0 0 0 213.91992 210.61914 L 133.93945 122.64062 A 8 8 0 0 0 133.88672 122.58398 L 93.939453 78.640625 A 8 8 0 0 0 93.886719 78.583984 L 53.919922 34.619141 A 8 8 0 0 0 48.380859 32.009766 z M 128 56 A 8 8 0 0 0 120 64 L 120 80.429688 A 8 8 0 0 0 128 88.429688 A 8 8 0 0 0 136 80.429688 L 136 64 A 8 8 0 0 0 128 56 z M 208 72 A 8 8 0 0 0 200 80 L 200 168.42969 A 8 8 0 0 0 208 176.42969 A 8 8 0 0 0 216 168.42969 L 216 80 A 8 8 0 0 0 208 72 z M 48 88 A 8 8 0 0 0 40 96 L 40 160 A 8 8 0 0 0 48 168 A 8 8 0 0 0 56 160 L 56 96 A 8 8 0 0 0 48 88 z M 168 88 A 8 8 0 0 0 160 96 L 160 124.42969 A 8 8 0 0 0 168 132.42969 A 8 8 0 0 0 176 124.42969 L 176 96 A 8 8 0 0 0 168 88 z " />
</svg>
