<?xml version="1.0" encoding="UTF-8" standalone="no"?>
<svg
   viewBox="0 0 256 256"
   version="1.1"
   id="svg3"
   sodipodi:docname="webcam blue_purple.svg"
   xmlns:inkscape="http://www.inkscape.org/namespaces/inkscape"
   xmlns:sodipodi="http://sodipodi.sourceforge.net/DTD/sodipodi-0.dtd"
   xmlns:xlink="http://www.w3.org/1999/xlink"
   xmlns="http://www.w3.org/2000/svg"
   xmlns:svg="http://www.w3.org/2000/svg">
  <defs
     id="defs3">
    <linearGradient
       id="linearGradient1"
       inkscape:collect="always">
      <stop
         style="stop-color:#a03291;stop-opacity:1;"
         offset="0"
         id="stop1" />
      <stop
         style="stop-color:#4b4fe2ff;stop-opacity:1;"
         offset="0.76340693"
         id="stop2" />
    </linearGradient>
    <linearGradient
       inkscape:collect="always"
       xlink:href="#linearGradient1"
       id="linearGradient2"
       x1="232.4884"
       y1="23.847498"
       x2="23.977745"
       y2="232.35815"
       gradientUnits="userSpaceOnUse" />
  </defs>
  <defs
     id="defs1" />
  <sodipodi:namedview
     id="namedview3"
     pagecolor="#ffffff"
     bordercolor="#000000"
     borderopacity="0.25"
     inkscape:showpageshadow="2"
     inkscape:pageopacity="0.0"
     inkscape:pagecheckerboard="0"
     inkscape:deskcolor="#d1d1d1" />
  <path
     id="circle1"
     style="baseline-shift:baseline;display:inline;overflow:visible;vector-effect:none;fill:url(#linearGradient2);stroke-linecap:round;stroke-linejoin:round;enable-background:accumulate;stop-color:#000000;stop-opacity:1;opacity:1;fill-opacity:1"
     d="M 128 24 C 83.911977 24 48 59.911977 48 104 C 48 145.38858 79.648941 179.57077 120 183.60156 L 120 200 L 32 200 A 8 8 0 0 0 24 208 A 8 8 0 0 0 32 216 L 128 216 L 224 216 A 8 8 0 0 0 232 208 A 8 8 0 0 0 224 200 L 136 200 L 136 183.60156 C 176.35106 179.57077 208 145.38858 208 104 C 208 59.911977 172.08802 24 128 24 z M 128 40 C 163.44098 40 192 68.559019 192 104 C 192 139.44098 163.44098 168 128 168 C 92.559019 168 64 139.44098 64 104 C 64 68.559019 92.559019 40 128 40 z M 128 64 C 106.00337 64 88 82.003367 88 104 C 88 125.99663 106.00337 144 128 144 C 149.99663 144 168 125.99663 168 104 C 168 82.003367 149.99663 64 128 64 z M 128 80 C 141.34959 80 152 90.650409 152 104 C 152 117.34959 141.34959 128 128 128 C 114.65041 128 104 117.34959 104 104 C 104 90.650409 114.65041 80 128 80 z " />
</svg>
