<?xml version="1.0" encoding="UTF-8" standalone="no"?>
<svg
   viewBox="0 0 256 256"
   version="1.1"
   id="svg1"
   sodipodi:docname="youtube logo blue_purple.svg"
   xmlns:inkscape="http://www.inkscape.org/namespaces/inkscape"
   xmlns:sodipodi="http://sodipodi.sourceforge.net/DTD/sodipodi-0.dtd"
   xmlns:xlink="http://www.w3.org/1999/xlink"
   xmlns="http://www.w3.org/2000/svg"
   xmlns:svg="http://www.w3.org/2000/svg">
  <defs
     id="defs3">
    <linearGradient
       id="linearGradient1"
       inkscape:collect="always">
      <stop
         style="stop-color:#a03291;stop-opacity:1;"
         offset="0"
         id="stop1" />
      <stop
         style="stop-color:#4b4fe2ff;stop-opacity:1;"
         offset="0.76340693"
         id="stop2" />
    </linearGradient>
    <linearGradient
       inkscape:collect="always"
       xlink:href="#linearGradient1"
       id="linearGradient2"
       x1="232.4884"
       y1="23.847498"
       x2="23.977745"
       y2="232.35815"
       gradientUnits="userSpaceOnUse" />
  </defs>
  <defs
     id="defs1" />
  <sodipodi:namedview
     id="namedview1"
     pagecolor="#ffffff"
     bordercolor="#000000"
     borderopacity="0.25"
     inkscape:showpageshadow="2"
     inkscape:pageopacity="0.0"
     inkscape:pagecheckerboard="0"
     inkscape:deskcolor="#d1d1d1" />
  <path
     id="polygon1"
     style="baseline-shift:baseline;display:inline;overflow:visible;vector-effect:none;fill:url(#linearGradient2);stroke-linecap:round;stroke-linejoin:round;enable-background:accumulate;stop-color:#000000;stop-opacity:1;opacity:1;fill-opacity:1"
     d="M 127.94922 40 C 127.6456 39.9952 72.35209 39.139495 36.121094 53.115234 A 8.0008 8.0008 0 0 0 36.052734 53.142578 C 28.872116 55.987649 23.488975 62.135142 21.613281 69.626953 C 19.115269 79.370252 16 97.572532 16 128 C 16 158.42447 19.113791 176.61813 21.658203 186.43945 C 23.542493 193.8908 28.896921 200.00556 36.037109 202.85156 A 8.0008 8.0008 0 0 0 36.121094 202.88477 C 72.45175 216.89896 128.05078 216 128.05078 216 C 128.3544 216.005 183.64791 216.8605 219.87891 202.88477 A 8.0008 8.0008 0 0 0 219.93945 202.85938 C 227.10399 200.02847 232.48522 193.91156 234.38086 186.44531 C 236.9283 176.63463 240.03906 158.42604 240.03906 128 C 240.03906 97.580605 236.92699 79.388888 234.38281 69.566406 C 232.50475 62.079284 227.12458 55.935554 219.94727 53.091797 A 8.0008 8.0008 0 0 0 219.86914 53.0625 C 183.64465 39.143302 128.35444 39.995219 128.05078 40 L 127.94922 40 z M 127.94922 56 A 8.0008 8.0008 0 0 0 128.05078 56 C 128.05078 56 183.34325 56.197233 214.07031 67.978516 C 216.46511 68.934819 218.24243 70.963917 218.86719 73.466797 A 8.0008 8.0008 0 0 0 218.88672 73.539062 C 221.02079 81.765269 224.03906 98.63742 224.03906 128 C 224.03906 157.36258 221.01782 174.26048 218.88672 182.45703 A 8.0008 8.0008 0 0 0 218.875 182.50391 C 218.24301 184.99774 216.46563 187.01774 214.07617 187.96875 C 183.35854 199.79882 128.05078 200 128.05078 200 A 8.0008 8.0008 0 0 0 127.94922 200 C 127.94922 200 72.666975 199.79902 41.945312 187.97656 C 39.564397 187.02014 37.795692 185.00255 37.167969 182.51367 A 8.0008 8.0008 0 0 0 37.154297 182.46094 C 35.020224 174.2347 32 157.36258 32 128 C 32 98.63742 35.018391 81.75215 37.119141 73.568359 A 8.0008 8.0008 0 0 0 37.132812 73.517578 C 37.757801 71.013789 39.53552 68.983213 41.931641 68.027344 C 72.650803 56.200129 127.94922 56 127.94922 56 z M 111.9082 88.001953 A 8.0008 8.0008 0 0 0 110.95117 88.070312 A 8.0008 8.0008 0 0 0 104 96 L 104 160 A 8.0008 8.0008 0 0 0 116.4375 166.65625 L 164.4375 134.65625 A 8.0008 8.0008 0 0 0 164.4375 121.34375 L 116.4375 89.34375 A 8.0008 8.0008 0 0 0 111.9082 88.001953 z M 120 110.94727 L 145.57812 128 L 120 145.05273 L 120 110.94727 z " />
</svg>
