<svg width="24" height="24" viewBox="0 0 24 24" fill="none" xmlns="http://www.w3.org/2000/svg">
<path fill-rule="evenodd" clip-rule="evenodd" d="M16.3929 18.1815L16.3776 11.4974C16.3786 11.3443 16.4301 11.2408 16.5678 11.1952C16.7055 11.1492 18.4601 10.5815 18.4601 10.5815C18.6672 10.5299 18.7539 10.6424 18.7435 10.8252L18.7598 18.1796C18.7623 18.3128 18.63 18.4203 18.4646 18.4203L16.6971 18.4223C16.5316 18.4223 16.3954 18.3148 16.3929 18.1815Z" fill="#462E64"/>
<path fill-rule="evenodd" clip-rule="evenodd" d="M18.5295 9.86464L16.6366 10.4264C16.4717 10.4754 16.3781 10.3957 16.3781 10.257L16.3776 8.70644C16.3776 8.49937 16.3974 8.40674 16.6198 8.33491L18.5032 7.77364C18.6692 7.72411 18.7484 7.81129 18.7484 7.95V9.55156C18.7484 9.68977 18.6949 9.8151 18.5295 9.86464Z" fill="#462E64"/>
<path fill-rule="evenodd" clip-rule="evenodd" d="M23.9776 11.8759C23.6922 13.2629 21.628 13.8143 21.628 13.8143C21.628 13.8143 22.4563 13.4393 22.9794 12.396C23.4049 11.5489 23.1671 10.6602 22.4503 9.87256C21.5641 8.90014 20.1998 8.03323 18.4283 7.38775C16.7094 6.76159 14.2023 6.2137 13.266 6.1067C10.9035 5.83721 9.74188 5.80254 7.99171 5.92391C5.98047 6.06311 4.21643 6.51836 4.21643 6.51836C4.21643 6.51836 5.66739 5.60092 8.76549 5.30765C10.4523 5.14715 12.3798 5.24771 14.4064 5.58655C18.9138 6.34101 21.9079 7.98121 23.285 9.72791C23.7437 10.3105 24.093 11.3121 23.9776 11.8759Z" fill="#C7662E"/>
<path fill-rule="evenodd" clip-rule="evenodd" d="M17.1727 16.796L16.6338 15.6561V15.6492L16.6303 15.6497L11.9475 5.75202C11.9277 5.70347 11.9074 5.65592 11.8806 5.61084V5.60985L11.8197 5.52117C11.7905 5.47362 11.7563 5.42309 11.7226 5.37801L11.6656 5.31014C11.5913 5.23187 11.5358 5.20512 11.5358 5.20512L11.5368 5.21057C11.3248 5.05601 11.0687 4.97576 10.8071 5.00648C10.4202 5.01242 10.0532 5.22593 9.87236 5.60192L4.52227 16.7306C4.2627 17.2715 4.48661 17.9334 5.0231 18.2088L5.13753 18.2673C5.67403 18.5427 6.31951 18.3277 6.57958 17.7867L10.8968 8.80652L15.1585 17.814C15.3245 18.1652 15.648 18.3807 15.9982 18.4198V18.4233H18.3602C18.3602 18.4233 17.7603 18.0037 17.1727 16.796Z" fill="#462E64"/>
<path fill-rule="evenodd" clip-rule="evenodd" d="M21.6029 13.8302C21.6029 13.8302 17.9034 16.2268 11.0667 15.5338C6.11294 15.0315 2.06421 13.3997 0.597398 11.4231C0.0931032 10.7445 -0.0778023 10.1901 0.0316763 9.55951C0.406182 7.41452 4.18641 6.54018 4.18641 6.54018C4.18641 6.54018 3.55778 6.82799 3.10946 7.3635C2.71167 7.83955 2.36838 8.75105 3.0406 9.67493C3.94962 10.9248 5.69831 11.8927 8.01965 12.7309C9.05499 13.1044 10.4861 13.5255 12.2427 13.8648C13.7111 14.1487 15.4553 14.3563 17.4586 14.4068C19.6274 14.4613 21.6029 13.8302 21.6029 13.8302Z" fill="#C7662E"/>
<path fill-rule="evenodd" clip-rule="evenodd" d="M11.9659 5.75698C11.9461 5.70893 11.9252 5.66088 11.899 5.6158L11.8985 5.61481L11.8381 5.52613C11.8088 5.47808 11.7747 5.42805 11.741 5.38297L11.684 5.3151C11.6097 5.23683 11.5537 5.21008 11.5537 5.21008L11.5552 5.21553C11.3437 5.06097 11.0871 4.98072 10.826 5.01144C10.4386 5.01738 10.071 5.23089 9.89073 5.60688L4.54114 16.7356C4.28107 17.2765 4.50498 17.9383 5.04147 18.2138L5.15541 18.2722C5.6924 18.5476 6.33788 18.3327 6.59795 17.7917L10.9152 8.81099L11.9659 5.75698Z" fill="#462E64"/>
</svg>
