<svg width="24" height="24" viewBox="0 0 24 24" fill="none" xmlns="http://www.w3.org/2000/svg">
<path fill-rule="evenodd" clip-rule="evenodd" d="M6.5863 16.3133L6.77381 15.7311L6.95924 16.3133H6.5863ZM6.70081 15.5692L6.30815 16.7832H6.43546L6.54236 16.4282H6.99211L7.11423 16.7832H7.2706L6.87552 15.5692H6.70081Z" fill="#4D4E4C"/>
<path fill-rule="evenodd" clip-rule="evenodd" d="M7.61068 15.5692H7.45604V16.7832H8.17113V16.6503H7.61068V15.5692Z" fill="#4D4E4C"/>
<path fill-rule="evenodd" clip-rule="evenodd" d="M8.50188 15.5692H8.34758V16.7832H9.06267V16.6503H8.50188V15.5692Z" fill="#4D4E4C"/>
<path fill-rule="evenodd" clip-rule="evenodd" d="M9.66463 16.2646L10.4527 16.6576V16.4538L9.88327 16.177L10.4527 15.9024V15.6982L9.66463 16.0899V16.2646Z" fill="#4D4E4C"/>
<path fill-rule="evenodd" clip-rule="evenodd" d="M10.6108 15.7567H10.9329V16.7832H11.1675V15.7567H11.4896V15.5692H10.6108V15.7567Z" fill="#4D4E4C"/>
<path fill-rule="evenodd" clip-rule="evenodd" d="M12.3063 16.0677H11.8428V15.5692H11.6241V16.7832H11.8428V16.2552H12.3063V16.7832H12.525V15.5692H12.3063V16.0677Z" fill="#4D4E4C"/>
<path fill-rule="evenodd" clip-rule="evenodd" d="M12.7886 16.7832H13.0069V15.5692H12.7886V16.7832Z" fill="#4D4E4C"/>
<mask id="mask0_83_324" style="mask-type:alpha" maskUnits="userSpaceOnUse" x="13" y="15" width="7" height="2">
<path d="M13.2743 15.5457H19.8119V16.7856H13.2743V15.5457Z" fill="white"/>
</mask>
<g mask="url(#mask0_83_324)">
<path fill-rule="evenodd" clip-rule="evenodd" d="M14.0168 16.4299C14.0022 16.4026 13.9915 16.3808 13.977 16.3518C13.9604 16.321 13.942 16.2881 13.9403 16.2843L13.5165 15.5692H13.2743V16.7832H13.4508V15.8768C13.4653 15.9062 13.4798 15.9331 13.4836 15.9421C13.4999 15.975 13.511 15.9985 13.5165 16.0079L13.9894 16.7832H14.1897V15.5692H14.0168V16.4299Z" fill="#4D4E4C"/>
<path fill-rule="evenodd" clip-rule="evenodd" d="M14.9211 16.3393H15.1723C15.1723 16.4009 15.1685 16.4227 15.1484 16.4666C15.1048 16.5649 15.0193 16.6213 14.9121 16.6213C14.7229 16.6213 14.6246 16.4666 14.6246 16.1625C14.6246 16.0113 14.6499 15.9113 14.7101 15.8332C14.7588 15.7695 14.8318 15.7332 14.9173 15.7332C14.9975 15.7332 15.0702 15.7674 15.1172 15.8259C15.1432 15.8588 15.1556 15.8896 15.1723 15.9549L15.3632 15.9224C15.3397 15.8221 15.3162 15.7695 15.2598 15.7055C15.1705 15.6003 15.0595 15.5509 14.9121 15.5509C14.7481 15.5509 14.617 15.6128 14.526 15.7366C14.4406 15.8512 14.3935 16.0061 14.3935 16.1732C14.3935 16.3393 14.4371 16.4974 14.517 16.6154C14.6004 16.7396 14.7246 16.8011 14.8865 16.8011C15.0356 16.8011 15.1356 16.7448 15.2141 16.6192L15.2812 16.7832H15.3778V16.1625H14.9211V16.3393Z" fill="#4D4E4C"/>
<path fill-rule="evenodd" clip-rule="evenodd" d="M16.1693 16.0753L15.9617 16.0241C15.8472 15.9947 15.7926 15.948 15.7926 15.8768C15.7926 15.7858 15.8742 15.7276 15.9998 15.7276C16.1219 15.7276 16.1946 15.7712 16.2271 15.8643L16.4346 15.8131C16.4132 15.7384 16.3859 15.7003 16.3329 15.6567C16.2454 15.5875 16.1288 15.5509 15.9981 15.5509C15.7396 15.5509 15.5687 15.6965 15.5687 15.9131C15.5687 15.9916 15.5926 16.0625 15.6393 16.1227C15.6832 16.1808 15.7452 16.2134 15.8687 16.2462L16.1018 16.3064C16.2036 16.3334 16.253 16.3808 16.253 16.4538C16.253 16.559 16.16 16.6247 16.0126 16.6247C15.9181 16.6247 15.8361 16.6029 15.7849 16.5611C15.7507 16.5337 15.7344 16.5064 15.7161 16.4445L15.5051 16.4901C15.5355 16.588 15.5666 16.6375 15.6268 16.6866C15.723 16.7631 15.8489 16.8011 15.9998 16.8011C16.2928 16.8011 16.4841 16.652 16.4841 16.4209C16.4841 16.3462 16.4641 16.2808 16.426 16.2244C16.3783 16.1532 16.3001 16.1099 16.1693 16.0753Z" fill="#4D4E4C"/>
<path fill-rule="evenodd" clip-rule="evenodd" d="M16.6965 15.9003L17.266 16.177L16.6965 16.4521V16.6576L17.4846 16.2646V16.0916L16.6965 15.6982V15.9003Z" fill="#4D4E4C"/>
<path fill-rule="evenodd" clip-rule="evenodd" d="M18.4505 16.4119C18.4505 16.5337 18.4453 16.5649 18.4125 16.6064C18.3779 16.6541 18.3159 16.6756 18.2232 16.6756C18.1686 16.6756 18.1319 16.6718 18.061 16.6593V16.7832C18.1357 16.8011 18.1758 16.8067 18.2357 16.8067C18.4851 16.8067 18.6017 16.6811 18.6017 16.4119V15.5692H18.4505V16.4119Z" fill="#4D4E4C"/>
<path fill-rule="evenodd" clip-rule="evenodd" d="M19.3147 16.6832C19.1092 16.6832 18.9747 16.4829 18.9747 16.1809C18.9747 15.8712 19.1075 15.6692 19.313 15.6692C19.5261 15.6692 19.6534 15.8588 19.6534 16.1732C19.6534 16.4811 19.5185 16.6832 19.3147 16.6832ZM19.3147 15.5457C19.02 15.5457 18.8162 15.8041 18.8162 16.1791C18.8162 16.3684 18.8688 16.5299 18.9657 16.6503C19.0511 16.7541 19.1677 16.8067 19.3113 16.8067C19.4535 16.8067 19.5624 16.7576 19.6496 16.6541C19.7534 16.532 19.8119 16.3573 19.8119 16.1753C19.8119 15.7965 19.6133 15.5457 19.3147 15.5457Z" fill="#4D4E4C"/>
</g>
<path fill-rule="evenodd" clip-rule="evenodd" d="M20.0388 16.7832H20.19V15.5692H20.0388V16.7832Z" fill="#4D4E4C"/>
<path fill-rule="evenodd" clip-rule="evenodd" d="M21.2673 16.3863C21.2673 16.3988 21.2673 16.4299 21.269 16.4756L21.2707 16.559L20.6826 15.5692H20.4937V16.7832H20.6155V15.8823C20.6155 15.8733 20.6155 15.846 20.6138 15.8058L20.612 15.7256L21.24 16.7832H21.3873V15.5692H21.2673V16.3863Z" fill="#4D4E4C"/>
<path fill-rule="evenodd" clip-rule="evenodd" d="M21.8402 16.2134H22.3297V16.0899H21.8402V15.702H22.457V15.5692H21.6894V16.7832H22.4733V16.6503H21.8402V16.2134Z" fill="#4D4E4C"/>
<mask id="mask1_83_324" style="mask-type:alpha" maskUnits="userSpaceOnUse" x="0" y="10" width="24" height="7">
<path d="M0 10.0374H23.6364V16.7832H0V10.0374Z" fill="white"/>
</mask>
<g mask="url(#mask1_83_324)">
<path fill-rule="evenodd" clip-rule="evenodd" d="M23.3503 16.5538C23.2904 16.6174 23.1939 16.6541 23.0846 16.6541H22.8372V15.6965H23.0829C23.2029 15.6965 23.2887 15.7311 23.3537 15.8024C23.4357 15.893 23.4814 16.0241 23.4814 16.1715C23.4814 16.3227 23.4323 16.4683 23.3503 16.5538ZM23.0919 15.5692H22.6861V16.7832H23.1431C23.4267 16.7832 23.6364 16.523 23.6364 16.1715C23.6364 15.9805 23.5707 15.8148 23.452 15.702C23.3558 15.6111 23.2451 15.5692 23.0919 15.5692Z" fill="#4D4E4C"/>
<path fill-rule="evenodd" clip-rule="evenodd" d="M1.75018 12.9915L2.86243 11.0053L3.2243 12.9915H1.75018ZM2.72197 10.0374L-0.0207672 14.9358H0.661458L1.40734 13.6035H3.3357L3.57821 14.9358H4.35731L3.46508 10.0374H2.72197Z" fill="#4D4E4C"/>
</g>
<path fill-rule="evenodd" clip-rule="evenodd" d="M5.58719 9.74019L4.57735 14.9358H5.32357L6.33377 9.74019H5.58719Z" fill="#4D4E4C"/>
<path fill-rule="evenodd" clip-rule="evenodd" d="M7.75079 9.74019H7.00457L5.99472 14.9358H6.74129L7.75079 9.74019Z" fill="#4D4E4C"/>
<path fill-rule="evenodd" clip-rule="evenodd" d="M9.51379 12.7306C9.19897 12.833 8.80804 12.833 8.42991 12.833H8.36868C8.65824 11.9297 9.30241 11.8298 9.57122 11.8298C9.86701 11.8298 10.0652 11.9688 10.0652 12.1754C10.0652 12.4054 9.85871 12.6134 9.51379 12.7306ZM9.65529 11.2441C8.81288 11.2441 7.81584 11.7398 7.54565 13.1312C7.50863 13.3198 7.4903 13.4983 7.4903 13.6613C7.4903 14.2788 7.76118 15.0146 9.0509 15.0146C9.26989 15.0146 9.70891 14.9939 10.1863 14.8545L10.2206 14.8441L10.3434 14.2144L10.2517 14.2397C9.79886 14.3649 9.41692 14.4289 9.1156 14.4289C8.51675 14.4289 8.23791 14.1674 8.23791 13.6066C8.23791 13.5495 8.24102 13.489 8.2469 13.4257H8.33789C8.80735 13.4257 9.30241 13.4059 9.73866 13.2644C10.3929 13.0524 10.816 12.5978 10.816 12.1062C10.816 11.5983 10.3389 11.2441 9.65529 11.2441Z" fill="#4D4E4C"/>
<path fill-rule="evenodd" clip-rule="evenodd" d="M11.766 14.4289C11.5044 14.4289 11.3546 14.3016 11.3546 14.0795C11.3546 14.0456 11.3584 14.0089 11.3657 13.9716C11.4916 13.3229 12.5298 13.2721 12.8446 13.2721C12.8523 13.2721 12.8588 13.2721 12.8654 13.2724L12.7343 13.9477C12.3655 14.276 12.0576 14.4289 11.766 14.4289ZM13.2882 14.9358L13.7244 12.6922C13.7649 12.4829 13.8071 12.2667 13.8071 12.0667C13.8071 11.5056 13.4452 11.2441 12.6686 11.2441C12.2119 11.2441 11.7718 11.3274 11.3595 11.4921L11.3297 11.5039L11.2097 12.1214L11.3093 12.083C11.741 11.9149 12.1386 11.8298 12.4918 11.8298C12.9813 11.8298 13.0488 12.0152 13.0488 12.2155C13.0488 12.3193 13.027 12.44 13.0031 12.5642L12.9609 12.7815C12.3932 12.7877 11.8009 12.8227 11.2906 13.1043C10.6845 13.4391 10.5939 13.9429 10.5939 14.2134C10.5939 14.7002 10.9301 15.0146 11.4508 15.0146C11.8241 15.0146 12.215 14.8624 12.6146 14.5621L12.5419 14.9358H13.2882Z" fill="#4D4E4C"/>
<path fill-rule="evenodd" clip-rule="evenodd" d="M15.1107 12.5113C15.311 12.2515 15.7112 11.8298 16.1973 11.8298C16.471 11.8298 16.5267 11.9557 16.5267 12.1449C16.5267 12.2667 16.4993 12.4189 16.4685 12.5774L16.0101 14.9358H16.7564L17.1912 12.6988C17.2345 12.4777 17.2829 12.2273 17.2829 12C17.2829 11.4911 17.0352 11.2441 16.5256 11.2441C16.0963 11.2441 15.66 11.4267 15.2539 11.7744L15.3418 11.3229H14.5955L13.8932 14.9358H14.6398L15.1107 12.5113Z" fill="#4D4E4C"/>
<path fill-rule="evenodd" clip-rule="evenodd" d="M19.1244 14.9614L19.1656 14.9551L19.2808 14.3618L19.1957 14.377C19.0594 14.4023 18.8702 14.4289 18.748 14.4289C18.5505 14.4289 18.474 14.3521 18.474 14.1556C18.474 14.0435 18.4993 13.9045 18.5297 13.747L18.8871 11.909H19.7575L19.8714 11.3229H19.0009L19.1545 10.5317H18.4083L18.2547 11.3229H17.7863L17.6725 11.909H18.1405L17.8109 13.6059C17.7555 13.8889 17.7105 14.1401 17.7105 14.3459C17.7105 14.8147 17.952 15.0146 18.5183 15.0146C18.6917 15.0146 18.901 14.9963 19.1244 14.9614Z" fill="#4D4E4C"/>
<path fill-rule="evenodd" clip-rule="evenodd" d="M20.171 14.9358L20.8732 11.3229H20.127L19.4247 14.9358H20.171Z" fill="#4D4E4C"/>
<path fill-rule="evenodd" clip-rule="evenodd" d="M21.1234 10.0374H20.3768L20.2322 10.7812H20.9788L21.1234 10.0374Z" fill="#4D4E4C"/>
<path fill-rule="evenodd" clip-rule="evenodd" d="M22.9269 13.9477C22.5581 14.276 22.2502 14.4289 21.9585 14.4289C21.6973 14.4289 21.5472 14.3016 21.5472 14.0795C21.5472 14.0456 21.551 14.0089 21.5586 13.9716C21.6845 13.3229 22.7224 13.2721 23.0376 13.2721C23.0448 13.2721 23.0517 13.2721 23.0583 13.2724L22.9269 13.9477ZM22.8611 11.2441C22.4048 11.2441 21.9641 11.3274 21.552 11.4921L21.5223 11.5039L21.4022 12.1214L21.5019 12.083C21.9336 11.9149 22.3315 11.8298 22.6847 11.8298C23.1742 11.8298 23.2413 12.0152 23.2413 12.2155C23.2413 12.3193 23.2195 12.44 23.1957 12.5642L23.1535 12.7815C22.5861 12.7877 21.9931 12.8227 21.4835 13.1043C20.8771 13.4391 20.7864 13.9429 20.7864 14.2134C20.7864 14.7002 21.1227 15.0146 21.6434 15.0146C22.0166 15.0146 22.4079 14.8624 22.8072 14.5621L22.7345 14.9358H23.4811L23.9173 12.6922C23.9578 12.4829 24 12.2667 24 12.0667C24 11.5056 23.6381 11.2441 22.8611 11.2441Z" fill="#4D4E4C"/>
<path fill-rule="evenodd" clip-rule="evenodd" d="M4.00582 9.01991C4.23069 8.8753 4.4822 8.73242 4.77557 8.58331C5.06202 8.44769 5.66779 8.19999 6.45899 8.1225C7.24535 8.04223 8.20226 8.14049 9.08203 8.32004C10.3731 8.62552 11.5698 8.99361 12.115 9.15241C12.5039 9.24478 13.1335 9.39181 13.8545 9.51116C14.0122 9.49421 14.1409 9.4783 14.2292 9.46792C14.3637 9.44958 14.4876 9.43332 14.6056 9.41741C13.3864 9.2683 12.4883 9.01333 12.49 9.0161C12.4779 9.05277 10.9263 8.52726 9.13531 8.10312C8.23236 7.91942 7.26369 7.81805 6.43374 7.90108C5.60414 7.98238 4.96723 8.24323 4.66729 8.38611C4.00132 8.72653 3.55781 9.05934 3.20113 9.45166C3.40316 9.30463 3.6481 9.17559 3.94009 9.04897C3.95946 9.03963 3.98195 9.03028 4.00582 9.01991Z" fill="#1F5E7D"/>
<path fill-rule="evenodd" clip-rule="evenodd" d="M17.3542 8.76113C16.8065 8.90678 15.1044 9.27418 13.5224 9.19115C11.9383 9.14099 10.5524 8.73588 10.553 8.74383C10.543 8.77635 9.19275 8.31208 7.61415 7.99242C7.53424 7.97616 7.45432 7.96197 7.37406 7.94883C6.91428 7.9765 6.44794 8.02113 6.00615 8.07302C6.51228 8.06887 7.04955 8.1052 7.56814 8.21072C9.10349 8.52035 10.4804 8.98912 10.489 8.95729C10.4863 8.94829 11.8957 9.36136 13.5113 9.4136C15.1314 9.49802 16.8605 9.12369 17.4165 8.97424C18.4519 8.70163 19.0179 8.46638 19.7956 8.054C18.9539 8.33803 18.3755 8.49578 17.3542 8.76113Z" fill="#1F5E7D"/>
<path fill-rule="evenodd" clip-rule="evenodd" d="M19.2168 9.07561C18.6695 9.22125 16.9671 9.58866 15.3854 9.50597C13.8009 9.45546 12.415 9.05035 12.4157 9.05865C12.406 9.09048 11.0554 8.62655 9.47677 8.30689C9.39686 8.29063 9.31694 8.27645 9.23633 8.2633C8.77725 8.29098 8.3109 8.33526 7.86842 8.38715C8.3749 8.38335 8.91286 8.41967 9.43076 8.52554C10.9661 8.83482 12.3434 9.30394 12.352 9.27176C12.3489 9.26277 13.7583 9.67619 15.3743 9.72808C16.9937 9.81249 18.7235 9.43851 19.2794 9.28906C20.3149 9.01679 20.8809 8.78085 21.6586 8.36847C20.8169 8.6525 20.2381 8.81026 19.2168 9.07561Z" fill="#DB492D"/>
<path fill-rule="evenodd" clip-rule="evenodd" d="M7.8525 8.16505C6.81879 8.17474 5.91411 8.34737 5.54913 8.45081C4.50849 8.71996 3.94632 8.98012 3.20113 9.43955C3.93524 8.99188 4.51334 8.78985 5.52976 8.5456C5.90616 8.45116 6.81498 8.28648 7.8525 8.16505Z" fill="#DB492D"/>
<path fill-rule="evenodd" clip-rule="evenodd" d="M23.7087 7.23754C22.7532 7.58696 22.0931 7.78312 20.9241 8.10347C20.2972 8.27853 18.346 8.7255 16.526 8.64558C16.3194 8.64005 16.116 8.62829 15.9178 8.61376C15.7206 8.66669 15.5134 8.71201 15.2764 8.75352C16.7996 8.93861 18.4554 8.71789 18.9968 8.61756C20.0163 8.43836 20.5948 8.33007 21.443 8.1263C21.2638 8.20172 21.0964 8.26953 20.9324 8.3318C20.9525 8.32627 20.9715 8.32108 20.9892 8.31589C22.1727 7.98861 22.8189 7.71427 23.7087 7.23754Z" fill="#73BED9"/>
<path fill-rule="evenodd" clip-rule="evenodd" d="M3.20113 9.43921C3.37999 9.22644 3.5502 9.0379 3.72698 8.86423C3.5201 9.01368 3.35023 9.19116 3.20113 9.43921Z" fill="#73BED9"/>
<path fill-rule="evenodd" clip-rule="evenodd" d="M4.6275 8.14844C4.85272 8.00383 5.10388 7.8613 5.3976 7.71185C5.68405 7.57623 6.28947 7.32818 7.08102 7.25103C7.86703 7.17112 8.82429 7.26902 9.70371 7.44823C10.9948 7.75371 12.1911 8.1225 12.7371 8.2806C13.1259 8.37297 13.7552 8.52 14.4765 8.6397C14.6343 8.6224 14.763 8.60649 14.8508 8.5968C14.9858 8.57812 15.1096 8.56117 15.2272 8.5456C14.0084 8.39719 13.11 8.14153 13.1117 8.14464C13.0996 8.18131 11.5483 7.6558 9.75733 7.23131C8.85439 7.04796 7.88571 6.9459 7.05542 7.02962C6.22581 7.11092 5.58856 7.37212 5.28931 7.515C4.623 7.85473 4.17983 8.18754 3.82315 8.58054C4.02519 8.43247 4.27013 8.30378 4.56211 8.17716C4.58114 8.16782 4.60397 8.15813 4.6275 8.14844Z" fill="#73BED9"/>
<path fill-rule="evenodd" clip-rule="evenodd" d="M16.7643 8.33249C16.2087 8.41829 15.8022 8.46915 15.2272 8.5456C15.448 8.57259 15.6794 8.59611 15.9178 8.61376C16.1983 8.53903 16.4599 8.44873 16.7643 8.33249Z" fill="#DCE169"/>
<path fill-rule="evenodd" clip-rule="evenodd" d="M3.20113 9.43955C3.39694 9.11539 3.59171 8.83517 3.82315 8.58055C3.51768 8.80369 3.31218 9.07077 3.20113 9.43955Z" fill="#DCE169"/>
<path fill-rule="evenodd" clip-rule="evenodd" d="M11.95 8.61514C11.402 8.50374 10.8886 8.34287 10.4994 8.20795C10.2991 8.20345 10.0881 8.20518 9.87012 8.21556C10.1988 8.33941 10.9862 8.64524 11.9023 8.83309C12.8495 9.00572 13.8593 8.92996 14.4672 8.86388C14.1641 8.81406 13.8777 8.7594 13.6182 8.70613C13.1031 8.72861 12.508 8.71789 11.95 8.61514Z" fill="#DCE169"/>
<path fill-rule="evenodd" clip-rule="evenodd" d="M9.90713 7.99104C9.83275 7.96371 9.79089 7.94952 9.78881 7.95471C9.80369 7.97893 8.72984 7.50531 7.48924 7.64231C6.33098 7.66895 5.09246 7.95402 4.6275 8.14845C4.27877 8.37193 3.99544 8.60061 3.72697 8.86423C3.97433 8.68572 4.27531 8.54768 4.65621 8.38058C5.03573 8.1993 6.30019 7.89278 7.50066 7.86442C8.23997 7.78277 8.90317 7.92184 9.30482 8.0367C9.31382 8.03636 9.32281 8.03566 9.3325 8.03497C9.52693 8.01318 9.71928 7.99865 9.90713 7.99104Z" fill="#DCE169"/>
<path fill-rule="evenodd" clip-rule="evenodd" d="M14.4765 8.6397C14.717 8.67983 14.9681 8.71616 15.2241 8.7473C15.2414 8.74937 15.2591 8.7511 15.2764 8.75352C15.5133 8.71201 15.7206 8.66669 15.9178 8.61376C15.6794 8.59611 15.448 8.57259 15.2272 8.5456C15.1096 8.56117 14.9858 8.57812 14.8508 8.59681C14.763 8.60649 14.6343 8.62241 14.4765 8.6397Z" fill="#DCE169"/>
<path fill-rule="evenodd" clip-rule="evenodd" d="M4.6275 8.14844C4.60398 8.15813 4.58114 8.16782 4.56212 8.17716C4.27013 8.30378 4.02519 8.43247 3.82315 8.58054C3.59171 8.83516 3.39694 9.11539 3.20113 9.43955C3.20113 9.43955 3.20113 9.43955 3.20113 9.4392C3.35023 9.19115 3.5201 9.01368 3.72698 8.86423C3.99544 8.60061 4.27878 8.37193 4.6275 8.14844Z" fill="#BAD382"/>
<path fill-rule="evenodd" clip-rule="evenodd" d="M9.70649 8.16228C9.7051 8.17024 9.55599 8.10832 9.30483 8.0367C8.81911 8.06403 8.32301 8.10935 7.85251 8.16505C8.30087 8.16055 8.77344 8.18719 9.23633 8.2633C9.27404 8.26088 9.31106 8.25881 9.34877 8.25673C9.52521 8.23701 9.69957 8.22386 9.87012 8.21556C9.76703 8.17681 9.70891 8.15571 9.70649 8.16228Z" fill="#83BB59"/>
<path fill-rule="evenodd" clip-rule="evenodd" d="M16.5166 8.86803C16.0568 8.85489 15.6116 8.81614 15.2013 8.76667C15.1017 8.78327 14.9965 8.79953 14.8844 8.81545C14.7865 8.82652 14.6436 8.84451 14.4672 8.86388C14.701 8.90228 14.9453 8.93792 15.1951 8.96802C16.7643 9.16902 18.4855 8.93999 19.039 8.83482C19.8416 8.6909 20.365 8.54664 20.9324 8.3318C20.2429 8.52 18.3239 8.94691 16.5166 8.86803Z" fill="#83BB59"/>
<path fill-rule="evenodd" clip-rule="evenodd" d="M12.7371 8.2806C12.4793 8.21971 12.3268 8.18166 12.324 8.19204C12.3365 8.19307 11.236 7.93568 9.90715 7.99104C10.0279 8.03566 10.2348 8.11558 10.4994 8.20795C11.5214 8.2294 12.2718 8.40826 12.2725 8.40826C12.2756 8.3875 12.8208 8.5418 13.6182 8.70613C13.9116 8.69367 14.1794 8.67084 14.3973 8.64801C13.585 8.50824 13.045 8.35464 13.0477 8.35775C13.0446 8.36744 12.9322 8.33768 12.7371 8.2806Z" fill="#83BB59"/>
<path fill-rule="evenodd" clip-rule="evenodd" d="M18.9968 8.61756C18.4554 8.71789 16.7996 8.93861 15.2764 8.75352C15.2518 8.75767 15.2269 8.76217 15.2013 8.76667C15.6116 8.81614 16.0569 8.85488 16.5166 8.86803C18.3239 8.94691 20.2429 8.52 20.9324 8.3318C21.0964 8.26953 21.2638 8.20172 21.443 8.1263C20.5948 8.33007 20.0163 8.43835 18.9968 8.61756Z" fill="#83BB59"/>
<path fill-rule="evenodd" clip-rule="evenodd" d="M12.7371 8.2806C12.9322 8.33768 13.0446 8.36743 13.0477 8.35775C13.045 8.35463 13.585 8.50824 14.3973 8.648C14.4246 8.64524 14.4509 8.64281 14.4765 8.6397C13.7552 8.52 13.1259 8.37297 12.7371 8.2806Z" fill="#83BB59"/>
<path fill-rule="evenodd" clip-rule="evenodd" d="M10.4994 8.20795C10.2348 8.11558 10.0279 8.03566 9.90713 7.99103C9.71928 7.99864 9.52693 8.01317 9.3325 8.03497C9.32282 8.03566 9.31382 8.03635 9.30482 8.0367C9.55599 8.10831 9.7051 8.17024 9.70648 8.16228C9.7089 8.15571 9.76702 8.17681 9.87012 8.21556C10.0881 8.20518 10.2991 8.20345 10.4994 8.20795Z" fill="#B9CE3C"/>
<path fill-rule="evenodd" clip-rule="evenodd" d="M15.2013 8.76667C14.9135 8.73138 14.6429 8.69021 14.3973 8.64801C14.1794 8.67084 13.9116 8.69367 13.6182 8.70613C13.8777 8.7594 14.1641 8.81406 14.4672 8.86388C14.6436 8.84451 14.7865 8.82652 14.8844 8.81545C14.9965 8.79953 15.1017 8.78327 15.2013 8.76667Z" fill="#CDD854"/>
<path fill-rule="evenodd" clip-rule="evenodd" d="M14.4765 8.6397C14.4509 8.64282 14.4246 8.64524 14.3973 8.64801C14.6429 8.69021 14.9135 8.73138 15.2013 8.76667C15.2269 8.76217 15.2518 8.75768 15.2764 8.75352C15.2591 8.7511 15.2414 8.74937 15.2241 8.7473C14.9681 8.71616 14.717 8.67984 14.4765 8.6397Z" fill="#FFFFFE"/>
<path fill-rule="evenodd" clip-rule="evenodd" d="M5.60932 8.66461C4.59152 8.92477 4.01897 9.10398 3.20113 9.43955C4.00409 9.11851 4.58114 8.99915 5.58545 8.76044C5.95459 8.66876 6.84681 8.50755 7.86842 8.38716C6.85753 8.39546 5.96981 8.56394 5.60932 8.66461Z" fill="#83BB59"/>
<path fill-rule="evenodd" clip-rule="evenodd" d="M7.8525 8.16505C6.81498 8.28648 5.90616 8.45116 5.52976 8.5456C4.51334 8.78985 3.93524 8.99189 3.20113 9.43955C4.01897 9.10398 4.59152 8.92477 5.60932 8.66461C5.96981 8.56394 6.85753 8.39546 7.86842 8.38716C8.31089 8.33526 8.77724 8.29098 9.23633 8.2633C8.77344 8.18719 8.30086 8.16055 7.8525 8.16505Z" fill="#E88C31"/>
</svg>
