<svg width="24" height="24" viewBox="0 0 24 24" fill="none" xmlns="http://www.w3.org/2000/svg">
<path d="M4 7.78134L4.00461 19.0321L11.8681 24L19.7316 19.0321V16.2216L13.0449 15.1691L13.0495 8.8309L19.7362 7.78426V4.97085L11.8681 0L4 4.96793V7.78134Z" fill="#876929"/>
<path d="M4.00461 16.2187L11.8681 19.2012V24L4.00461 19.0321V16.2187Z" fill="#876929"/>
<path d="M5.0037 19.6647L4 19.0292V4.96793L5.00601 4.33528L5.0037 19.6647Z" fill="#876929"/>
<path d="M13.0494 15.1691L5.00366 16.5977L5.00597 7.39942L13.0494 8.83091V15.1691Z" fill="#D9A741"/>
<path d="M19.7362 7.78426L11.8681 4.79884V1.90735e-06L19.7362 4.97085V7.78426Z" fill="#D9A741"/>
<path d="M19.7316 16.2216L11.8681 19.2012V24L19.7316 19.0321V16.2216Z" fill="#D9A741"/>
<path d="M8.97003 14.5743L11.8681 15.0321V8.94461L8.97003 9.40817V14.5743Z" fill="#876929"/>
<path d="M6.05127 14.1195L7.93177 14.414V9.57726L6.05127 9.87755V14.1195Z" fill="#876929"/>
<path d="M5.00601 7.39942L11.8681 4.79884L19.7362 7.78426L13.0495 8.83091L5.00601 7.39942Z" fill="#624A1E"/>
<path d="M5.00366 16.5977L11.8681 19.2012L19.7316 16.2216L13.0494 15.1691L5.00366 16.5977Z" fill="#FAD791"/>
<path d="M19.7316 13.7755L11.8681 15.0321V8.94461L19.7316 10.2099V13.7755Z" fill="#D9A741"/>
</svg>
