<svg width="24" height="24" viewBox="0 0 24 24" fill="none" xmlns="http://www.w3.org/2000/svg">
<g clip-path="url(#clip0_43_490)">
<path d="M9.25226 21.7096L6.77684 21.0183L4.43759 18.3509L7.04568 18.5674L9.25226 21.7096Z" fill="#B8852E"/>
<path d="M9.25226 21.7096L11.0224 18.0017L9.36748 17.7678L7.04568 18.5674L9.25226 21.7096Z" fill="#D9A741"/>
<path d="M3.5298 19.9534L2.14021 19.5624L0.607483 17.8132L2.23448 18.0681L3.5298 19.9534Z" fill="#B8852E"/>
<path d="M3.5298 19.9534L4.52834 17.8656L3.59613 17.7329L2.23448 18.0681L3.5298 19.9534Z" fill="#D9A741"/>
<path d="M0 17.8726L1.42101 18.1624L8.38289 12.1082L1.42101 5.3279L0 6.04364V17.8726Z" fill="#876929"/>
<path d="M6.91648 6.52197V17.6526L1.42099 18.1624V5.3279L6.91648 6.52197Z" fill="#D9A741"/>
<path d="M3.17719 18.5394L5.61419 19.0317L12.3456 11.2354L5.61419 3.20861L3.17719 4.44108V18.5394Z" fill="#876929"/>
<path d="M19.531 7.62875V17.2406L5.6142 19.0317V3.20861L19.531 7.62875Z" fill="#D9A741"/>
<path d="M17.0137 24L13.4978 23.0154L10.174 19.2237L13.8819 19.5345L17.0137 24Z" fill="#B8852E"/>
<path d="M17.0137 24L19.531 18.7315L17.1778 18.3963L13.8819 19.5345L17.0137 24Z" fill="#D9A741"/>
<path d="M8.38287 19.5519L11.9686 20.2432L16.8321 10.1216L11.9686 0L8.38287 1.81205V19.5519Z" fill="#876929"/>
<path d="M11.9686 20.2432L23.9512 17.8446V5.99127L11.9686 0V20.2432Z" fill="#D9A741"/>
</g>
<defs>
<clipPath id="clip0_43_490">
<rect width="24" height="24" fill="white"/>
</clipPath>
</defs>
</svg>
