<svg width="24" height="24" viewBox="0 0 24 24" fill="none" xmlns="http://www.w3.org/2000/svg">
<path d="M3.59805 4.16488L2 4.9639V19.0039L3.59805 19.8029L7.52 11.9824L3.59805 4.16488Z" fill="#8C3123"/>
<path d="M11.9278 17.7834L3.59804 19.8V4.16488L11.9278 6.18146L15.8644 12.0059L11.9278 17.7834Z" fill="#E05243"/>
<path d="M11.9278 17.7834L20.2546 19.8L21.6946 12.1815L20.2546 4.16488L11.9278 6.18146V17.7834Z" fill="#8C3123"/>
<path d="M20.2546 4.16488L21.8556 4.9639V19.0039L20.2546 19.8029V4.16488Z" fill="#E05243"/>
<path d="M8.29559 14.5698L11.9278 15.0351L14.8078 12.0059L11.9278 8.97951L8.29559 9.4361V14.5698Z" fill="#8C3123"/>
<path d="M15.56 6.95122L11.9278 7.61268L8.29559 6.95122L11.9278 0L15.56 6.95122Z" fill="#5E1F18"/>
<path d="M15.56 17.0488L11.9278 16.3815L8.29559 17.0488L11.9278 24L15.56 17.0488Z" fill="#F2B0A9"/>
<path d="M15.56 6.95122L11.9278 6.05268V0L15.56 1.81463V6.95122Z" fill="#E05243"/>
<path d="M8.29559 6.95122L11.9278 6.05268V0L8.29559 1.81463V6.95122Z" fill="#8C3123"/>
<path d="M11.9278 24L15.56 22.1854V17.0488L11.9278 17.9473V24Z" fill="#E05243"/>
<path d="M11.9278 24L8.29559 22.1854V17.0488L11.9278 17.9473V24Z" fill="#8C3123"/>
<path d="M15.56 14.5698L11.9278 15.0351V8.97951L15.56 9.4361V14.5698Z" fill="#E05243"/>
</svg>
