<svg width="24" height="24" viewBox="0 0 24 24" fill="none" xmlns="http://www.w3.org/2000/svg">
<path fill-rule="evenodd" clip-rule="evenodd" d="M17.7369 16.5464C17.1115 17.7708 15.9051 18.6 14.5196 18.6C13.928 18.6 13.369 18.4488 12.874 18.1802C12.2008 19.8403 10.667 21 8.88256 21C7.02065 21 5.43159 19.7374 4.80835 17.9613C4.55165 18.0169 4.2861 18.0462 4.01424 18.0462C1.79723 18.0462 0 16.1038 0 13.7077C0 12.1062 0.802909 10.7073 1.99741 9.95573C1.75633 9.35116 1.62278 8.68474 1.62278 7.98462C1.62278 5.23169 3.68768 3 6.23488 3C7.74248 3 9.08114 3.78178 9.92271 4.99071C10.6866 4.10657 11.7747 3.55385 12.9822 3.55385C14.5618 3.55385 15.9369 4.49959 16.6494 5.89573C17.3024 5.57725 18.0271 5.4 18.79 5.4C21.6674 5.4 24 7.92098 24 11.0308C24 14.1406 21.6674 16.6615 18.79 16.6615C18.4293 16.6615 18.077 16.6219 17.7369 16.5464Z" fill="#00A1E1"/>
</svg>
