<svg width="24" height="24" viewBox="0 0 24 24" fill="none" xmlns="http://www.w3.org/2000/svg">
<path fill-rule="evenodd" clip-rule="evenodd" d="M0.97561 10.6098C0.436796 10.6098 0 10.173 0 9.63415C0 9.09533 0.436796 8.65854 0.97561 8.65854C1.51442 8.65854 1.95122 9.09533 1.95122 9.63415C1.95122 10.173 1.51442 10.6098 0.97561 10.6098ZM3.80488 8.26829C2.99666 8.26829 2.34146 7.6131 2.34146 6.80488C2.34146 5.99666 2.99666 5.34146 3.80488 5.34146C4.6131 5.34146 5.26829 5.99666 5.26829 6.80488C5.26829 7.6131 4.6131 8.26829 3.80488 8.26829ZM9.07317 7.09756C7.94166 7.09756 7.02439 6.18029 7.02439 5.04878C7.02439 3.91727 7.94166 3 9.07317 3C10.2047 3 11.122 3.91727 11.122 5.04878C11.122 6.18029 10.2047 7.09756 9.07317 7.09756ZM15.9024 9.63415C14.4476 9.63415 13.2683 8.4548 13.2683 7C13.2683 5.5452 14.4476 4.36585 15.9024 4.36585C17.3572 4.36585 18.5366 5.5452 18.5366 7C18.5366 8.4548 17.3572 9.63415 15.9024 9.63415ZM20.0976 20.1707C17.9423 20.1707 16.1951 18.4236 16.1951 16.2683C16.1951 14.113 17.9423 12.3659 20.0976 12.3659C22.2528 12.3659 24 14.113 24 16.2683C24 18.4236 22.2528 20.1707 20.0976 20.1707ZM20.0976 19C21.8246 19 22.6341 17.4537 22.6341 16.2683C22.6341 15.0829 21.9098 13.5366 20.0976 13.5366C18.2853 13.5366 17.561 15.0829 17.561 16.2683C17.561 17.4537 18.3705 19 20.0976 19Z" fill="url(#paint0_linear_43_636)"/>
<defs>
<linearGradient id="paint0_linear_43_636" x1="0" y1="11.5854" x2="24" y2="11.5854" gradientUnits="userSpaceOnUse">
<stop stop-color="#00A5A4"/>
<stop offset="1" stop-color="#6AB53A"/>
</linearGradient>
</defs>
</svg>
