<svg width="24" height="24" viewBox="0 0 24 24" fill="none" xmlns="http://www.w3.org/2000/svg">
<path d="M14.8439 11.2049L10.0361 12.7728L5.85628 14.619L4.6853 14.9284C4.38843 15.2106 4.07338 15.4972 3.73787 15.7892C3.36906 16.1101 3.02223 16.4009 2.7585 16.6111C2.46484 16.8452 2.02818 17.2785 1.80499 17.5563C1.47295 17.9696 1.21329 18.4104 1.10164 18.7493C0.900787 19.3592 0.998648 19.9768 1.38602 20.5469C1.88086 21.275 2.86594 22.0149 4.01161 22.5185C4.596 22.7754 5.58216 23.1066 6.32163 23.2933C7.55396 23.6045 9.93567 23.9426 11.2474 23.9929C11.5134 24.0031 11.8675 24.0021 11.8838 23.9914C11.9126 23.9723 12.1168 23.5857 12.3537 23.1017C13.1598 21.455 13.7431 19.9112 14.0569 18.5927C14.247 17.7943 14.3951 16.7298 14.4911 15.4675C14.518 15.114 14.5278 13.9347 14.5071 13.5339C14.4735 12.8817 14.416 12.3501 14.3238 11.8284C14.3103 11.7519 14.3053 11.6847 14.3124 11.6786C14.3258 11.6671 14.3712 11.6525 14.9618 11.4809L14.8439 11.2049V11.2049ZM13.7452 11.8497C13.7889 11.8497 13.9051 12.9639 13.9353 13.6708C13.9417 13.821 13.9404 13.9171 13.9315 13.9171C13.9028 13.9171 13.3158 13.5724 12.8997 13.3111C12.5363 13.0829 11.8467 12.6246 11.737 12.5386C11.7024 12.5114 11.7061 12.5101 12.0032 12.4078C12.5086 12.2337 13.707 11.8497 13.7452 11.8497ZM11.296 12.6534C11.3271 12.6533 11.4117 12.7 11.6116 12.8252C12.3615 13.295 13.377 13.8602 13.8121 14.0502C13.947 14.1091 13.9624 14.0863 13.6517 14.2973C12.9892 14.7472 12.1657 15.1894 11.1546 15.6386C10.9784 15.7169 10.8291 15.7808 10.8231 15.7808C10.817 15.7808 10.8367 15.6914 10.8664 15.5816C11.1113 14.6755 11.2496 13.761 11.2534 13.0275C11.2554 12.6647 11.2555 12.6628 11.2899 12.6541C11.2916 12.6537 11.2939 12.6534 11.296 12.6534V12.6534ZM10.7919 12.8458C10.8136 12.8676 10.7979 13.6804 10.7714 13.9019C10.7077 14.4333 10.6038 14.9247 10.4376 15.4835C10.3978 15.617 10.3606 15.7321 10.3547 15.739C10.3402 15.7557 9.84317 15.2714 9.67793 15.0797C9.39561 14.7522 9.17227 14.4269 9.00956 14.1065C8.92687 13.9436 8.795 13.6219 8.8073 13.613C8.86315 13.5724 10.7782 12.8321 10.7919 12.8458ZM8.41723 13.7818C8.4217 13.7822 8.42517 13.7834 8.42712 13.7856C8.43428 13.7935 8.4596 13.8525 8.48338 13.9171C8.59916 14.2316 8.85952 14.6988 9.0856 14.9976C9.33244 15.3239 9.65425 15.6715 9.92354 15.9025C10.01 15.9766 10.0907 16.0458 10.1022 16.0561C10.1253 16.0765 10.133 16.073 9.54031 16.2979C8.85336 16.5584 8.10521 16.8194 7.24625 17.097C6.91891 17.2028 6.64187 17.2923 6.63111 17.2962C6.59839 17.3084 6.60842 17.2882 6.7041 17.1388C7.13091 16.4725 7.77746 15.1691 8.13893 14.2471C8.20163 14.0872 8.2613 13.9271 8.272 13.8913C8.28772 13.8387 8.30321 13.8208 8.3526 13.7985C8.37992 13.7862 8.40382 13.7804 8.41723 13.7818ZM7.68955 14.0821C7.69922 14.0906 7.51496 14.4798 7.33369 14.8334C6.98211 15.5192 6.59448 16.1942 6.07983 17.0179C5.99103 17.1601 5.9092 17.29 5.8981 17.3061C5.87982 17.3327 5.87233 17.3239 5.81598 17.2118C5.69278 16.9668 5.58956 16.6576 5.53616 16.3701C5.48332 16.0855 5.49231 15.5929 5.55593 15.2873C5.6032 15.0603 5.60111 15.0653 5.70801 15.0105C6.17017 14.7737 7.6745 14.0689 7.68955 14.0821ZM13.9573 14.3369V14.4912C13.9566 15.3019 13.87 16.4119 13.7444 17.2217C13.7224 17.3638 13.7033 17.4811 13.7018 17.4825C13.7004 17.484 13.598 17.4539 13.4745 17.4156C12.929 17.2463 12.3375 16.9933 11.8039 16.7009C11.4506 16.5072 10.9395 16.1936 10.9538 16.1792C10.9577 16.1754 11.1083 16.0956 11.2884 16.0021C12.0019 15.6317 12.6835 15.2324 13.276 14.8364C13.4984 14.6878 13.831 14.4473 13.9049 14.3825L13.9573 14.3369ZM4.94535 15.4113C4.96016 15.4106 4.9564 15.4387 4.93318 15.5725C4.91704 15.6655 4.89879 15.8413 4.89212 15.9625C4.8629 16.494 4.94908 16.886 5.213 17.4225C5.28638 17.5716 5.34378 17.6959 5.34074 17.6985C5.31432 17.7206 2.91108 18.4239 2.15553 18.6307C1.93156 18.692 1.73581 18.746 1.71983 18.7508C1.69361 18.7587 1.69128 18.753 1.70082 18.6915C1.78358 18.1584 2.19027 17.4586 2.7585 16.8712C3.13628 16.4807 3.43877 16.2493 3.95306 15.9557C4.32216 15.745 4.89541 15.4287 4.93775 15.4128C4.94059 15.4117 4.94323 15.4114 4.94535 15.4113V15.4113ZM10.614 16.4264C10.6162 16.4236 10.7053 16.4713 10.8117 16.5328C11.5879 16.9817 12.6711 17.4028 13.5946 17.6141L13.6783 17.6331L13.5635 17.697C13.081 17.9647 11.4923 18.6257 9.86955 19.2344C9.63266 19.3233 9.40152 19.4104 9.3563 19.4283C9.31107 19.4462 9.27418 19.4585 9.27418 19.455C9.27418 19.4514 9.34111 19.3226 9.42321 19.1691C9.87875 18.3173 10.3335 17.2822 10.5668 16.564C10.5906 16.4908 10.6117 16.4291 10.614 16.4264ZM10.0361 16.6157C10.0386 16.6182 10.0102 16.6945 9.97296 16.7845C9.65627 17.5503 9.24134 18.3857 8.71226 19.3242C8.57761 19.563 8.46412 19.758 8.45981 19.7576C8.4555 19.7572 8.346 19.6924 8.21649 19.6131C7.44585 19.1413 6.764 18.5606 6.31631 17.9958L6.25244 17.9159L6.58472 17.8247C7.76996 17.5 8.77509 17.1528 9.7745 16.7222C9.91602 16.6612 10.0336 16.6132 10.0361 16.6157ZM13.6258 17.8688C13.6275 17.8692 13.6281 17.8704 13.6281 17.8718C13.6281 17.9526 13.4448 18.7002 13.292 19.2413C13.1639 19.6951 13.0563 20.0501 12.8571 20.6792C12.7691 20.957 12.6935 21.1837 12.689 21.1825C12.6845 21.1814 12.6634 21.1773 12.6419 21.1734C11.5622 20.978 10.5952 20.7055 9.68934 20.3416C9.43591 20.2397 9.06995 20.0776 9.05062 20.0587C9.04408 20.0523 9.26292 19.9492 9.53651 19.8298C11.191 19.108 12.9052 18.2859 13.4912 17.9334C13.5617 17.891 13.6139 17.8664 13.6258 17.8688L13.6258 17.8688ZM5.33923 18.1524C5.3481 18.1608 4.88531 18.8233 4.23896 19.7279C4.01431 20.0423 3.75041 20.4129 3.65271 20.5514C3.55501 20.6899 3.40722 20.9091 3.32347 21.0388L3.17063 21.2745L3.00791 21.1377C2.81698 20.9774 2.48277 20.637 2.33117 20.448C2.0192 20.0591 1.80781 19.6499 1.72439 19.274C1.68588 19.1005 1.68474 19.012 1.72135 19.001C1.77426 18.9851 2.7448 18.7566 3.65499 18.5455C4.16057 18.4283 4.74509 18.2911 4.95447 18.2406C5.16386 18.1902 5.33718 18.1505 5.33923 18.1524H5.33923ZM5.80458 18.3304L5.92167 18.4611C6.44519 19.0443 6.97761 19.4795 7.6272 19.8549C7.74189 19.9212 7.8293 19.9788 7.82186 19.9834C7.79482 20.0001 5.57554 20.7892 4.54919 21.1468C3.97037 21.3485 3.49489 21.5129 3.49227 21.5125C3.48964 21.5121 3.45686 21.4907 3.42003 21.4646L3.35312 21.4167L3.45805 21.2654C3.79859 20.7721 4.22645 20.2297 5.16282 19.1029L5.80458 18.3304ZM8.70465 20.4031C8.70722 20.3999 8.86948 20.4575 9.06583 20.5309C9.53913 20.7079 9.9106 20.8233 10.4132 20.9491C11.0306 21.1036 11.9227 21.2581 12.451 21.3027C12.5321 21.3095 12.5735 21.3188 12.5605 21.327C12.536 21.3425 12.0011 21.5212 11.6078 21.6448C10.9835 21.8411 9.07561 22.4047 7.51999 22.8523C7.23141 22.9354 6.98467 23.0055 6.97175 23.0082C6.93691 23.0154 6.81512 22.9835 6.81512 22.9671C6.81512 22.9594 6.90234 22.849 7.00825 22.7223C7.53113 22.0969 8.05057 21.3983 8.48415 20.7377C8.60273 20.557 8.70209 20.4063 8.70465 20.4031ZM8.06214 20.4214C8.06681 20.4261 7.80906 20.8388 7.35575 21.5528C7.16434 21.8543 6.94729 22.1975 6.87291 22.3155C6.79852 22.4335 6.68952 22.6127 6.63111 22.7147L6.52465 22.9002L6.47067 22.8858C6.3404 22.8505 5.42152 22.5259 5.17879 22.4295C4.87794 22.3101 4.56442 22.1659 4.33325 22.041C4.04436 21.8849 3.67797 21.6532 3.7067 21.6441C3.71497 21.6415 4.21208 21.5054 4.81076 21.3422C6.40339 20.9081 7.28434 20.6587 7.86215 20.4784C7.97012 20.4447 8.06007 20.4193 8.06214 20.4214ZM12.5856 21.4821C12.589 21.4814 12.5906 21.4814 12.5909 21.4821C12.606 21.5198 12.0164 23.1528 11.8009 23.6705C11.7526 23.7864 11.7348 23.8145 11.7097 23.8134C11.6487 23.8108 10.7938 23.6912 10.2764 23.6127C9.37058 23.4752 7.85341 23.2102 7.47056 23.123L7.3816 23.1032L7.92451 22.9808C9.08818 22.7186 9.64705 22.578 10.214 22.4045C10.929 22.1856 11.6371 21.9126 12.3522 21.5802C12.4652 21.5276 12.5616 21.4873 12.5856 21.4821Z" fill="url(#paint0_linear_46_684)"/>
<path d="M9.88907 0.00013994C9.80866 -0.00924734 8.51833 0.455641 7.6893 0.792453C6.56597 1.24883 5.69379 1.68611 5.15572 2.0638C4.95545 2.20439 4.70361 2.45723 4.6668 2.55425C4.65303 2.59055 4.64656 2.63299 4.64627 2.67667L5.13443 3.13746L6.29249 3.507L9.05113 3.99972L12.2044 4.54187L12.2364 4.27118C12.2268 4.26967 12.2178 4.26812 12.2082 4.26662L11.7931 4.20122L11.7087 4.05295C11.2801 3.29673 10.8065 2.36095 10.5316 1.72772C10.3187 1.2373 10.1143 0.672364 10.0008 0.263231C9.93349 0.0202409 9.92648 0.00450771 9.88907 0.00013994ZM9.82824 0.187193C9.83145 0.186615 9.83306 0.186593 9.83356 0.187193C9.83611 0.190241 9.85076 0.291667 9.8655 0.412264C9.92756 0.920157 10.0412 1.41273 10.2191 1.9429C10.3531 2.34241 10.355 2.31895 10.1955 2.27443C9.82471 2.17095 8.1634 1.88577 6.96162 1.71935C6.76798 1.69254 6.60681 1.66869 6.60424 1.66613C6.58898 1.65087 7.47094 1.18878 7.8619 1.00688C8.36335 0.773576 9.72882 0.205072 9.82824 0.187193ZM6.3267 1.81364L6.46737 1.86154C7.23894 2.12418 9.1729 2.49361 10.2419 2.58238C10.3625 2.5924 10.4639 2.60314 10.467 2.60595C10.47 2.60876 10.3676 2.6635 10.2396 2.72761C9.72392 2.98593 9.15634 3.30079 8.76371 3.54654C8.64841 3.61871 8.54266 3.67691 8.52876 3.6758C8.51485 3.67469 8.43881 3.66248 8.35919 3.64919L8.21396 3.62562L7.84898 3.27128C7.20825 2.65114 6.708 2.17139 6.51452 1.99005L6.3267 1.81364ZM6.18375 1.9277L6.69473 2.56565C6.97601 2.91654 7.25793 3.26478 7.32052 3.33972C7.38311 3.41465 7.43153 3.47816 7.42849 3.48039C7.41399 3.49099 6.68792 3.34963 6.30313 3.2614C5.90811 3.17082 5.74473 3.12746 5.50017 3.04925L5.30095 2.98538L5.30171 2.93596C5.30425 2.69089 5.61313 2.32943 6.13737 1.95963L6.18375 1.9277H6.18375ZM10.5354 2.79681C10.5507 2.79799 10.5669 2.82914 10.6122 2.92835C10.7361 3.19986 11.1219 3.9357 11.2152 4.07804C11.2459 4.12492 11.2946 4.12806 10.7825 4.04535C9.55189 3.84657 9.15377 3.78003 9.15379 3.77237C9.15379 3.7677 9.19069 3.74353 9.23591 3.71838C9.617 3.50645 10.0015 3.23971 10.3438 2.95116C10.4256 2.88217 10.5042 2.81644 10.5187 2.80441C10.5246 2.79946 10.5303 2.79641 10.5354 2.79681Z" fill="url(#paint1_linear_46_684)"/>
<path d="M4.68856 2.50517C4.68856 2.50517 4.6087 2.63177 4.68399 2.81997C4.73058 2.93642 4.87047 3.07631 5.02464 3.22449C5.02464 3.22449 6.63953 4.79975 6.83738 5.0281C7.73213 6.06077 8.12074 7.07742 8.15664 8.48097C8.17967 9.38166 8.00595 10.1734 7.58407 11.0936C6.8279 12.743 5.23463 14.5618 2.77393 16.5843L3.13511 16.4649C3.36726 16.291 3.68254 16.1053 4.42623 15.6985C6.13893 14.7617 8.06224 13.8999 10.4248 13.0121C13.824 11.7346 19.4154 10.2358 22.597 9.74852L22.9285 9.69758L22.8775 9.61774C22.5866 9.16557 22.3881 8.88674 22.1491 8.59123C21.4513 7.72827 20.6065 7.02416 19.5714 6.44468C18.149 5.64838 16.3042 5.0295 13.972 4.56579C13.5311 4.47813 12.5655 4.31261 11.7798 4.19017C10.1155 3.9308 9.042 3.75565 7.85629 3.54917C7.43117 3.47541 6.79644 3.36882 6.37507 3.27771C6.15551 3.23024 5.73825 3.13158 5.41395 3.01994C5.14622 2.91453 4.76921 2.81263 4.68856 2.50517ZM5.62458 3.41382C5.62684 3.41177 5.6875 3.43054 5.76145 3.45564C5.89773 3.5019 6.07757 3.55606 6.28687 3.61456C6.43349 3.65554 6.59471 3.69854 6.7659 3.7423C6.9844 3.79816 7.16507 3.84616 7.16738 3.84876C7.19157 3.87595 7.55854 5.04713 7.68368 5.49649C7.73144 5.66801 7.7677 5.81091 7.76428 5.81433C7.76086 5.81775 7.72015 5.7546 7.67456 5.67442C7.25002 4.92783 6.57769 4.16859 5.80023 3.55753C5.70332 3.48137 5.62458 3.4167 5.62458 3.41382ZM7.41375 3.90807C7.43245 3.90678 7.51306 3.92027 7.60916 3.94152C8.22827 4.07843 9.33374 4.29185 10.0447 4.41143C10.1631 4.43136 10.2606 4.45281 10.2606 4.45934C10.2606 4.46586 10.2163 4.49385 10.1625 4.52093C10.0432 4.58093 9.56058 4.86983 9.39909 4.97792C8.99596 5.24773 8.6335 5.53654 8.36954 5.79912C8.26346 5.90465 8.17469 5.99074 8.17184 5.99074C8.16899 5.99074 8.15044 5.92924 8.13078 5.85387C7.99881 5.34802 7.72596 4.60106 7.48142 4.07535C7.44207 3.99075 7.40995 3.91615 7.40995 3.90959C7.40995 3.90876 7.41106 3.90825 7.41375 3.90808V3.90807ZM10.5609 4.50648C10.5817 4.51339 10.6208 4.63559 10.6902 4.91024C10.8231 5.43616 10.8849 6.02678 10.8643 6.57319C10.8586 6.72525 10.849 6.86645 10.843 6.88722L10.8316 6.92524L10.6438 6.86441C10.2567 6.74066 9.62409 6.5544 9.08201 6.40438C8.77406 6.31916 8.52162 6.24307 8.52162 6.23558C8.52162 6.21307 8.97097 5.76383 9.16413 5.59306C9.5331 5.26688 10.5258 4.49475 10.5609 4.50648ZM10.8111 4.54222C10.8223 4.53179 12.3151 4.79027 12.9934 4.92013C13.499 5.01692 14.2305 5.17012 14.2746 5.18854C14.2959 5.19743 14.2202 5.23869 13.9773 5.34822C13.0166 5.78147 12.3049 6.16814 11.5973 6.64162C11.411 6.76634 11.2561 6.86821 11.2529 6.86821C11.2497 6.86821 11.2469 6.76412 11.2468 6.63706C11.2463 5.94711 11.1086 5.25071 10.856 4.66236C10.8288 4.59904 10.8084 4.54475 10.8111 4.54222ZM14.6708 5.30564C14.6823 5.3172 14.6334 5.61156 14.5909 5.78544C14.4589 6.32661 14.1089 7.12985 13.677 7.88484C13.6009 8.01788 13.5328 8.1288 13.5249 8.1312C13.517 8.13361 13.4186 8.08188 13.3067 8.01638C12.8843 7.76936 12.4061 7.53567 11.881 7.31912C11.7345 7.25873 11.6098 7.20496 11.6034 7.19898C11.5795 7.17651 12.7465 6.40385 13.3652 6.03256C13.8601 5.73559 14.6569 5.29175 14.6708 5.30564ZM14.9468 5.34898C14.9804 5.34898 15.6424 5.52947 15.9847 5.63184C16.8374 5.88685 17.8209 6.24615 18.459 6.53593L18.7244 6.65607L18.5373 6.69941C16.9761 7.05807 15.638 7.47195 14.3491 7.99509C14.2421 8.03856 14.1489 8.07417 14.1423 8.07417C14.1358 8.07417 14.17 7.99138 14.2176 7.89016C14.605 7.06702 14.8552 6.20329 14.9202 5.46988C14.9261 5.40312 14.9382 5.34898 14.9468 5.34898ZM8.3665 6.86137C8.37707 6.85093 8.88094 6.96898 9.15577 7.04614C9.56885 7.16212 10.4479 7.45625 10.4484 7.4788C10.4484 7.48318 10.3515 7.56763 10.2332 7.66661C9.758 8.0642 9.29959 8.47991 8.75049 9.0102C8.5877 9.1674 8.44937 9.29534 8.44254 9.29534C8.4357 9.29534 8.43266 9.27239 8.43645 9.24439C8.51915 8.63396 8.50138 7.85012 8.38627 7.05223C8.37168 6.95108 8.36283 6.86499 8.3665 6.86137ZM18.9768 6.87126C18.9844 6.87881 18.743 7.25601 18.5928 7.47119C18.3736 7.78517 18.0559 8.19737 17.3321 9.10752C16.9519 9.58561 16.5231 10.1266 16.3786 10.3097C16.2341 10.4927 16.1129 10.6427 16.1094 10.6427C16.1059 10.6427 16.0593 10.5772 16.006 10.4975C15.598 9.88794 15.1138 9.3525 14.5362 8.87181C14.4284 8.7821 14.3068 8.68373 14.2663 8.65358C14.2257 8.62343 14.1927 8.59554 14.1925 8.59123C14.1921 8.58129 14.809 8.31672 15.2798 8.12512C16.0995 7.79156 17.2199 7.39214 18.0583 7.13511C18.5004 6.99956 18.9701 6.86454 18.9768 6.87126ZM19.2551 6.94425C19.2683 6.94155 19.3563 6.98414 19.4619 7.04462C20.3449 7.55043 21.2102 8.19997 21.8906 8.86801C22.0841 9.05803 22.5576 9.55056 22.5506 9.55462C22.5488 9.55567 22.3852 9.56862 22.1871 9.58352C20.657 9.6986 18.7007 10.0241 16.8173 10.477C16.6894 10.5077 16.5788 10.5332 16.5717 10.5332C16.5646 10.5332 16.7046 10.3927 16.8827 10.2215C17.9888 9.15814 18.4934 8.48672 19.0871 7.28718C19.1755 7.10853 19.2504 6.9544 19.2536 6.94501C19.2538 6.94443 19.2542 6.94443 19.2551 6.94426L19.2551 6.94425ZM11.1677 7.77306C11.2183 7.7844 11.69 8.00389 12.046 8.18215C12.3715 8.34516 12.8646 8.60769 12.8892 8.63077C12.8923 8.63367 12.7186 8.72437 12.5029 8.83227C11.8202 9.17385 11.2354 9.49643 10.6248 9.86942C10.4507 9.97579 10.3048 10.0633 10.3001 10.0633C10.2849 10.0633 10.2909 10.0501 10.3883 9.8717C10.7135 9.27619 10.9758 8.56518 11.1267 7.87039C11.1401 7.80838 11.1563 7.77051 11.1677 7.77306ZM10.6925 7.85823C10.7023 7.86807 10.5799 8.31767 10.5024 8.55777C10.3537 9.01828 10.1022 9.59718 9.86064 10.0329C9.8039 10.1352 9.71684 10.285 9.6675 10.3659L9.57778 10.5127L9.374 10.3158C9.1372 10.0862 8.94431 9.94364 8.69802 9.81696C8.60122 9.76716 8.5225 9.72108 8.52238 9.7143C8.52191 9.68436 9.14188 9.12055 9.62036 8.71593C9.96286 8.4263 10.6837 7.84947 10.6925 7.85823ZM13.5804 9.04593L13.7576 9.16075C14.164 9.42463 14.6453 9.77962 15.0122 10.0854C15.2178 10.2567 15.6175 10.6146 15.6996 10.7013L15.7437 10.7477L15.4494 10.8298C13.7851 11.2915 12.4992 11.7026 10.9989 12.254C10.8324 12.3152 10.6886 12.3657 10.6788 12.3657C10.6581 12.3657 10.6375 12.3848 11.0118 12.0403C11.9715 11.1572 12.8192 10.1842 13.4527 9.23755L13.5804 9.04593ZM12.8215 9.23603C12.8302 9.24472 12.3297 9.94574 12.0323 10.3416C11.6764 10.8152 11.0426 11.607 10.6066 12.1224C10.4244 12.3378 10.2683 12.5165 10.2598 12.5193C10.2506 12.5225 10.2448 12.4697 10.2446 12.3863C10.2438 11.9465 10.1325 11.4764 9.93592 11.0784C9.85288 10.9103 9.83897 10.8696 9.85608 10.8541C9.9245 10.7921 10.9832 10.1884 11.6506 9.83064C12.109 9.58488 12.8128 9.22731 12.8215 9.23603ZM8.23191 10.3606C8.241 10.3606 8.32593 10.4033 8.42049 10.4557C8.65219 10.584 8.86035 10.7253 9.04399 10.8784C9.05108 10.8844 8.95598 10.962 8.83261 11.051C8.48823 11.2995 7.96384 11.6953 7.66011 11.9369C7.33966 12.1918 7.32903 12.1996 7.36508 12.1445C7.60506 11.7774 7.72572 11.5696 7.85172 11.3043C7.96374 11.0683 8.07537 10.7883 8.15511 10.5446C8.18824 10.4434 8.22282 10.3606 8.23191 10.3606ZM9.4546 11.3202C9.47114 11.3182 9.49468 11.349 9.59299 11.4959C9.80016 11.8054 9.95881 12.2183 9.99979 12.5543L10.0082 12.6265L9.51163 12.8189C8.62034 13.1648 7.79991 13.5057 7.2457 13.7595C7.09065 13.8305 6.8169 13.9613 6.63816 14.0507C6.45942 14.1402 6.31348 14.2105 6.31348 14.2066C6.31348 14.2028 6.42573 14.1184 6.56289 14.0188C7.65058 13.2292 8.58839 12.3647 9.29492 11.5004C9.37048 11.408 9.43911 11.3278 9.44775 11.3225C9.45004 11.3211 9.45224 11.3205 9.4546 11.3202V11.3202ZM8.8904 11.4601C8.90479 11.4745 8.48907 11.9446 8.2091 12.2304C7.50836 12.9456 6.81367 13.5063 5.95306 14.0523C5.84539 14.1206 5.74699 14.1823 5.73407 14.1899C5.71045 14.2037 5.74171 14.1682 6.11958 13.7565C6.35771 13.497 6.53997 13.2817 6.7469 13.0128C6.88317 12.8358 6.9092 12.8109 7.10884 12.6669C7.64659 12.2787 8.87609 11.4458 8.8904 11.4601Z" fill="url(#paint2_radial_46_684)"/>
<defs>
<linearGradient id="paint0_linear_46_684" x1="5.52875" y1="23.1763" x2="14.4616" y2="16.8915" gradientUnits="userSpaceOnUse">
<stop stop-color="#909CA9"/>
<stop offset="1" stop-color="#EDEDEE"/>
</linearGradient>
<linearGradient id="paint1_linear_46_684" x1="4.64627" y1="2.27094" x2="12.2364" y2="2.27094" gradientUnits="userSpaceOnUse">
<stop stop-color="#939FAB"/>
<stop offset="1" stop-color="#DCDEE1"/>
</linearGradient>
<radialGradient id="paint2_radial_46_684" cx="0" cy="0" r="1" gradientUnits="userSpaceOnUse" gradientTransform="translate(8.58918 8.70866) scale(15.0457 15.0457)">
<stop stop-color="#EE352C"/>
<stop offset="1" stop-color="#A91D22"/>
</radialGradient>
</defs>
</svg>
