<svg width="24" height="24" viewBox="0 0 24 24" fill="none" xmlns="http://www.w3.org/2000/svg">
<path d="M16.348 11.9998C16.348 14.4014 14.4016 16.3479 11.9999 16.3479C9.5982 16.3479 7.65179 14.4014 7.65179 11.9998C7.65179 9.59808 9.5982 7.65156 11.9999 7.65156C14.4016 7.65156 16.348 9.59808 16.348 11.9998Z" fill="#193956"/>
<path d="M11.9999 0.79056C5.81934 0.79056 0.79056 5.81856 0.79056 11.9999C0.79056 18.1805 5.81934 23.2085 11.9999 23.2085C18.1805 23.2085 23.2094 18.1805 23.2094 11.9999C23.2094 5.81856 18.1805 0.79056 11.9999 0.79056ZM11.9999 23.9992C5.38296 23.9992 0 18.6163 0 11.9999C0 5.38302 5.38296 0 11.9999 0C18.617 0 24 5.38302 24 11.9999C24 18.6163 18.617 23.9992 11.9999 23.9992Z" fill="#193956"/>
<path d="M21.5955 5.19936C20.8232 5.97096 19.5718 5.97096 18.8001 5.19936C18.0285 4.42692 18.0285 3.1755 18.8001 2.4039C19.5718 1.6323 20.8232 1.6323 21.5955 2.4039C22.3671 3.1755 22.3671 4.42692 21.5955 5.19936Z" fill="#193956"/>
<path d="M5.19948 2.40402C5.97102 3.17574 5.97102 4.42716 5.19948 5.19948C4.4271 5.97108 3.1764 5.97108 2.40402 5.19948C1.63242 4.42716 1.63242 3.17574 2.40402 2.40402C3.1764 1.6317 4.4271 1.6317 5.19948 2.40402Z" fill="#193956"/>
<path d="M2.40438 18.8003C3.17682 18.0279 4.42746 18.0279 5.19984 18.8003C5.97144 19.5719 5.97144 20.8234 5.19984 21.5957C4.42746 22.3673 3.17682 22.3673 2.40438 21.5957C1.63278 20.8234 1.63278 19.5719 2.40438 18.8003Z" fill="#193956"/>
<path d="M18.8004 21.5954C18.028 20.823 18.028 19.5716 18.8004 18.8C19.5719 18.0284 20.8234 18.0284 21.5958 18.8C22.3674 19.5716 22.3674 20.823 21.5958 21.5954C20.8234 22.367 19.5719 22.367 18.8004 21.5954Z" fill="#193956"/>
</svg>
