<svg width="24" height="24" viewBox="0 0 24 24" fill="none" xmlns="http://www.w3.org/2000/svg">
<path d="M10.3501 8.97508H12.4126C12.7563 8.97508 13.0313 8.70008 13.0313 8.35633C13.0313 8.01258 12.7563 7.73758 12.4126 7.73758H10.3501C10.0063 7.73758 9.73132 8.01258 9.73132 8.35633C9.73132 8.70008 10.0063 8.97508 10.3501 8.97508Z" fill="#64B5F6"/>
<path d="M12.4126 15.0248H10.3501C10.0063 15.0248 9.73132 15.2998 9.73132 15.6436C9.73132 15.9873 10.0063 16.2623 10.3501 16.2623H12.4126C12.7563 16.2623 13.0313 15.9873 13.0313 15.6436C13.0313 15.2998 12.7563 15.0248 12.4126 15.0248Z" fill="#64B5F6"/>
<path d="M13.5124 12.2063H11.4499C11.1062 12.2063 10.8312 12.4813 10.8312 12.8251C10.8312 13.1688 11.1062 13.4438 11.4499 13.4438H13.5124C13.7874 13.4438 14.0624 13.1688 14.1312 12.8251C14.1312 12.4813 13.8562 12.2063 13.5124 12.2063Z" fill="#64B5F6"/>
<path d="M17.5 1H6.5C3.475 1 1 3.475 1 6.5V17.5C1 20.525 3.475 23 6.5 23H17.5C20.525 23 23 20.525 23 17.5V6.5C23 3.475 20.525 1 17.5 1ZM18.1187 18.875H5.74375C5.4 18.875 5.125 18.6 5.125 18.2563C5.125 17.9125 5.4 17.6375 5.74375 17.6375H6.6375V6.225C6.6375 5.95 6.70625 5.675 6.9125 5.46875C7.11875 5.2625 7.4625 5.125 7.7375 5.125H16.0562C16.4 5.125 16.675 5.2625 16.8813 5.4C17.0875 5.60625 17.225 5.95 17.225 6.225V17.6375H18.1187C18.3937 17.6375 18.6687 17.9125 18.7375 18.2563C18.7375 18.6 18.4625 18.875 18.1187 18.875Z" fill="#64B5F6"/>
</svg>
