<svg width="24" height="24" viewBox="0 0 24 24" fill="none" xmlns="http://www.w3.org/2000/svg">
<g clip-path="url(#clip0_104_506)">
<path d="M23.239 16.239C23.5317 16.6488 23.4732 17.1756 23.122 17.4683C22.7122 17.761 22.1268 17.7024 21.8341 17.3512L19.7854 14.7171L17.7951 17.2927C17.5024 17.7024 16.9171 17.7024 16.5073 17.4098C16.0976 17.1171 16.039 16.5902 16.3317 16.1805L18.6732 13.1366L16.3317 10.0927C16.039 9.68293 16.1561 9.09756 16.5073 8.80488C16.9171 8.5122 17.5024 8.62927 17.7951 8.98049L19.7854 11.6146L21.8341 9.09756C22.1268 8.68781 22.6537 8.62927 23.122 8.92195C23.5317 9.21463 23.5317 9.8 23.239 10.2098L20.9561 13.1951L23.239 16.239V16.239ZM12.5854 15.8878C11.0634 15.8878 9.83415 14.7171 9.83415 13.1951C9.83415 11.7317 11.0634 10.5024 12.5854 10.5024C14.1073 10.5024 15.3366 11.7317 15.3366 13.1951C15.278 14.7171 14.0488 15.8878 12.5854 15.8878ZM4.50732 15.8878C2.98537 15.8878 1.7561 14.7171 1.7561 13.1951C1.7561 11.7317 2.98537 10.5024 4.50732 10.5024C6.02927 10.5024 7.25854 11.7317 7.25854 13.1951C7.25854 14.7171 6.02927 15.8878 4.50732 15.8878V15.8878ZM12.5854 8.74634C10.8878 8.74634 9.36585 9.68293 8.60488 11.0878C7.8439 9.68293 6.32195 8.74634 4.56585 8.74634C3.5122 8.74634 2.57561 9.09756 1.81463 9.62439V5.87805C1.81463 5.40976 1.40488 5 0.936585 5C0.409756 5 0 5.40976 0 5.87805V13.2537C0.0585366 15.7122 2.04878 17.6439 4.50732 17.6439C6.26341 17.6439 7.78537 16.6488 8.54634 15.2439C9.30732 16.6488 10.8293 17.6439 12.5268 17.6439C15.0439 17.6439 17.0927 15.6537 17.0927 13.1366C17.1512 10.7366 15.1024 8.74634 12.5854 8.74634V8.74634Z" fill="#0071F7"/>
</g>
<defs>
<clipPath id="clip0_104_506">
<rect width="24" height="12.878" fill="white" transform="translate(0 5)"/>
</clipPath>
</defs>
</svg>
