<?xml version="1.0" encoding="utf-8"?>
<!-- Generator: Adobe Illustrator 25.2.1, SVG Export Plug-In . SVG Version: 6.00 Build 0)  -->
<svg version="1.1" id="Layer_1" xmlns="http://www.w3.org/2000/svg" xmlns:xlink="http://www.w3.org/1999/xlink" x="0px" y="0px"
	 viewBox="0 0 24 24" enable-background="new 0 0 24 24" xml:space="preserve">
<g>
	<g>
		<path fill="#104C5A" d="M12.2,7c-0.9,0-1.8,0.2-2.5,0.6V6.5C10.5,6.2,11.3,6,12.2,6c1.8,0,3.4,0.7,4.6,1.9L16,8.6
			C15,7.6,13.7,7,12.2,7z"/>
		<path fill="#104C5A" d="M16.8,15.9c-1.1,1.2-2.8,2-4.6,2c-0.9,0-1.8-0.2-2.5-0.5v-1.2c0.7,0.4,1.6,0.6,2.5,0.6
			c1.5,0,2.9-0.6,3.8-1.6L16.8,15.9z"/>
		<path fill="#F47B47" d="M8.6,7v10C7,15.8,6,14,6,11.9C6,9.9,7,8,8.6,7z"/>
	</g>
	<g>
		<path fill="#104C5A" d="M12,0.1C5.4,0.1,0.1,5.4,0.1,12S5.4,23.9,12,23.9S23.9,18.6,23.9,12S18.6,0.1,12,0.1z M12,23
			C5.9,23,1,18.1,1,12S5.9,1,12,1s11,4.9,11,11S18.1,23,12,23z"/>
		<path fill="#104C5A" d="M12,2C6.5,2,2,6.5,2,12s4.5,10,10,10s10-4.5,10-10S17.5,2,12,2z M12,21.6c-5.3,0-9.6-4.3-9.6-9.6
			S6.7,2.4,12,2.4s9.6,4.3,9.6,9.6S17.3,21.6,12,21.6z"/>
	</g>
</g>
</svg>
