<svg width="24" height="24" viewBox="0 0 24 24" fill="none" xmlns="http://www.w3.org/2000/svg">
<path d="M18.2836 10.2629C17.8936 10.0679 17.5035 9.92164 17.1135 9.72663C17.5035 9.62913 17.8936 9.58037 18.2348 9.43412C20.9162 8.70284 22.5738 7.58154 22.1837 6.85026C21.7937 6.16773 19.5511 6.11897 17.016 6.704C16.626 6.8015 16.2847 6.89901 15.9435 6.99651C16.1385 6.75275 16.2847 6.46024 16.431 6.16773C17.5523 4.31515 17.796 2.70633 17.0648 2.41381C16.3822 2.1213 14.9197 3.14509 13.7009 4.94892C13.5059 5.19268 13.3596 5.4852 13.2133 5.72896C13.1158 5.43644 13.0183 5.14393 12.9208 4.85142C12.1896 2.85258 11.0195 1.48752 10.2882 1.58503C9.50819 1.73128 9.26443 3.3401 9.84945 5.4852C9.94695 5.77771 10.0445 6.11897 10.142 6.41149C9.84945 6.21648 9.50819 6.07022 9.16692 5.87521C6.72932 4.70516 4.34046 4.26639 3.70668 4.85142C3.07291 5.4852 4.58422 7.04526 7.16808 8.31282C7.5581 8.50783 7.89937 8.65408 8.28938 8.84909C7.85061 8.9466 7.41184 8.99535 6.97308 9.14161C3.51168 9.97039 0.586548 11.433 0.586548 12.408C0.6353 13.4318 3.85294 13.4318 7.5581 12.408C8.04562 12.2617 8.53314 12.1155 8.97191 11.9692C8.6794 12.3105 8.38689 12.7005 8.09437 13.1393C5.85178 16.4544 4.53547 20.0621 5.60802 20.6959C6.68056 21.3296 9.50819 18.502 11.507 14.9431C11.7508 14.5043 11.9945 14.0656 12.1896 13.6268C12.2871 14.0656 12.3846 14.5531 12.5308 14.9919C13.6034 18.7458 15.5534 21.8659 16.6747 21.3784C17.796 20.8909 17.5035 17.2832 16.236 13.7731C16.0897 13.3343 15.8947 12.8955 15.7485 12.5055C16.1385 12.7493 16.5285 12.9443 16.9673 13.1393C20.0874 14.6993 22.9638 15.2356 23.2075 14.3093C23.4513 13.5293 21.2087 11.628 18.2836 10.2629Z" fill="#45B7E9"/>
<path d="M9.8495 11.3355C9.50823 11.433 9.16697 11.5792 8.77695 11.6767C7.65565 11.9692 6.63186 12.1642 5.75432 12.213C3.21921 14.1631 1.46413 16.3082 1.95165 17.137C2.43917 17.9657 4.92553 17.0882 7.6069 15.3331C7.94816 14.4068 8.48444 13.3343 9.21572 12.2617C9.41073 11.9205 9.65449 11.628 9.8495 11.3355Z" fill="#268ECD"/>
<path d="M9.26446 8.9466C8.97195 8.84909 8.67943 8.70284 8.38692 8.55658C7.55813 8.11781 6.82685 7.67904 6.33933 7.24027C3.75547 7.19152 1.61038 7.58154 1.31786 8.31282C1.02535 9.0441 2.63417 9.82413 5.12053 10.2629C5.94931 9.87289 7.02186 9.48287 8.19191 9.19036C8.58193 9.09285 8.92319 8.99535 9.26446 8.9466Z" fill="#268ECD"/>
<path d="M10.6783 6.99651C10.5808 6.75275 10.4833 6.50899 10.4345 6.26523C10.2395 5.53395 10.142 4.90017 10.142 4.3639C8.72819 3.09634 7.31438 2.41381 6.6806 2.75508C6.04682 3.04759 6.33933 4.26639 7.36313 5.72896C8.09441 5.87521 8.97195 6.21648 9.89824 6.60649C10.1908 6.704 10.4345 6.85026 10.6783 6.99651Z" fill="#268ECD"/>
<path d="M15.3097 7.48403C15.6022 7.38653 15.846 7.33778 16.1385 7.24027C16.9673 7.04526 17.7473 6.94776 18.4298 6.89901C19.7949 5.6802 20.3312 4.51015 19.8436 4.12014C19.3561 3.73012 18.0398 4.02263 16.4797 4.90017C16.3822 5.43644 16.0897 6.11897 15.6997 6.85026C15.6022 7.04526 15.4559 7.28902 15.3097 7.48403Z" fill="#268ECD"/>
<path d="M12.3358 12.6518C12.1895 12.9443 11.9945 13.2855 11.7995 13.6268C11.2145 14.6018 10.5807 15.5281 9.89819 16.2107C9.65443 19.5258 10.142 22.3534 11.2633 22.4509C12.3358 22.4997 13.4083 19.9646 13.8959 16.8444C13.4083 16.0157 12.9208 14.8944 12.5796 13.6756C12.4821 13.2855 12.3845 12.9443 12.3358 12.6518Z" fill="#268ECD"/>
<path d="M13.1158 6.46024C13.2133 6.26523 13.3596 6.02147 13.5059 5.82646C13.8959 5.24144 14.3346 4.70516 14.7734 4.31515C14.7247 2.70633 14.2859 1.58503 13.6034 1.48752C12.9696 1.43877 12.2871 2.36506 11.897 3.82762C12.2383 4.31515 12.6283 4.94892 12.8721 5.72896C12.9696 5.97272 13.0671 6.21648 13.1158 6.46024Z" fill="#268ECD"/>
<path d="M23.4513 10.2142C23.3538 9.53162 21.6962 8.84909 19.5024 8.45908C18.9174 8.80034 18.0886 9.14161 17.1135 9.43412C16.821 9.53162 16.4798 9.58037 16.1873 9.62913C16.4798 9.72663 16.7723 9.87289 17.0648 10.0191C17.9423 10.4579 18.7711 10.9454 19.4049 11.3842C21.8425 11.4817 23.5488 10.9942 23.4513 10.2142Z" fill="#268ECD"/>
<path d="M15.0172 11.823C15.1635 12.1155 15.261 12.4567 15.4072 12.798C15.7485 13.8218 15.9923 14.7968 16.1385 15.6744C18.2836 17.8195 20.4775 19.0383 21.1112 18.307C21.6963 17.6245 20.6725 15.5281 18.9661 13.4318C18.1373 13.2368 17.0648 12.8955 15.9923 12.3105C15.651 12.1642 15.3097 12.018 15.0172 11.823Z" fill="#268ECD"/>
<path d="M19.4049 11.433C18.7711 10.9454 17.9911 10.4579 17.0648 10.0679C16.7723 9.92164 16.4798 9.77538 16.1873 9.67788C16.4798 9.62912 16.7723 9.53162 17.1135 9.48287C18.0886 9.23911 18.9174 8.89784 19.5024 8.50783C20.1849 8.11781 20.4774 7.72779 20.3312 7.38653C20.1362 7.04526 19.4536 6.89901 18.4786 6.94776C17.7961 6.94776 17.016 7.09401 16.1873 7.28902C15.8947 7.33777 15.6022 7.43528 15.3585 7.53278C15.5047 7.33777 15.651 7.09401 15.7972 6.89901C16.236 6.16772 16.4798 5.48519 16.5773 4.94892C16.7235 4.31514 16.626 3.87637 16.3335 3.73012C15.9922 3.58386 15.456 3.82762 14.8709 4.3639C14.4322 4.75391 13.9934 5.24143 13.6034 5.87521C13.4571 6.07022 13.3109 6.31398 13.2134 6.50899C13.1646 6.26523 13.0671 6.02147 12.9696 5.77771C12.6771 4.99767 12.3358 4.3639 11.9946 3.87637C11.5558 3.3401 11.1658 2.99884 10.8245 3.09634C10.4345 3.14509 10.2395 3.68137 10.2395 4.41265C10.2395 4.94892 10.337 5.5827 10.532 6.31398C10.6295 6.55774 10.6783 6.8015 10.7758 7.04526C10.532 6.89901 10.2395 6.75275 9.99574 6.65525C9.1182 6.21648 8.24066 5.92396 7.46062 5.77771C6.58309 5.5827 5.90056 5.5827 5.6568 5.87521C5.36428 6.16772 5.70555 6.704 6.43683 7.33777C6.92435 7.77654 7.65563 8.21531 8.48442 8.65408C8.77693 8.80034 9.06945 8.94659 9.36196 9.0441C9.02069 9.09285 8.67943 9.19036 8.33816 9.23911C7.16811 9.53162 6.09557 9.92164 5.26678 10.3117C4.24299 10.7992 3.60921 11.3354 3.65796 11.7255C3.70671 12.1642 4.58425 12.3592 5.90056 12.2617C6.7781 12.213 7.80189 12.018 8.92319 11.7255C9.31321 11.628 9.65447 11.5305 9.99574 11.3842C9.80073 11.6767 9.55697 11.9692 9.36196 12.2617C8.63068 13.3343 8.0944 14.4068 7.75314 15.3331C7.31437 16.5032 7.26562 17.3807 7.70439 17.6245C8.19191 17.917 9.1182 17.2832 10.0932 16.2107C10.727 15.5281 11.4095 14.6018 11.9946 13.6268C12.1896 13.2855 12.3358 12.993 12.5308 12.6518C12.5796 12.993 12.6771 13.3343 12.7746 13.6756C13.1159 14.8944 13.6034 16.0157 14.0909 16.8444C14.7247 17.8682 15.3585 18.4533 15.7972 18.2582C16.2848 18.0632 16.431 17.0394 16.2848 15.7231C16.1873 14.8456 15.9435 13.8706 15.5535 12.8468C15.456 12.5055 15.3097 12.213 15.1635 11.8717C15.456 12.018 15.7485 12.213 16.0898 12.3592C17.1623 12.8955 18.1861 13.2855 19.0636 13.4805C20.0387 13.6756 20.77 13.6268 20.9162 13.2855C20.8675 12.798 20.3312 12.1155 19.4049 11.433Z" fill="white"/>
</svg>
