<svg width="24" height="24" viewBox="0 0 24 24" fill="none" xmlns="http://www.w3.org/2000/svg">
<g clip-path="url(#clip0_82_51)">
<path d="M10.5182 1.5026L1.5026 10.5182C0.672738 11.3481 0.672738 12.6936 1.5026 13.5234C2.33247 14.3533 3.67794 14.3533 4.50781 13.5234L13.5234 4.50781C14.3533 3.67794 14.3533 2.33247 13.5234 1.5026C12.6936 0.672738 11.3481 0.672738 10.5182 1.5026Z" fill="#4285F4"/>
<path d="M14.9104 5.89482L5.89481 14.9104C5.06495 15.7403 5.06495 17.0858 5.89481 17.9156C6.72468 18.7455 8.07015 18.7455 8.90002 17.9156L17.9156 8.90003C18.7455 8.07016 18.7455 6.72469 17.9156 5.89482C17.0858 5.06496 15.7403 5.06496 14.9104 5.89482Z" fill="#FBBC05"/>
<path d="M5.89481 14.9104L10.287 10.5182L13.2922 13.5234L8.90002 17.9156C8.07015 18.7455 6.72468 18.7455 5.89481 17.9156C5.06495 17.0858 5.06495 15.7403 5.89481 14.9104Z" fill="#4285F4"/>
<path d="M19.3026 10.287L10.287 19.3027C9.45716 20.1325 9.45716 21.478 10.287 22.3079C11.1169 23.1377 12.4624 23.1377 13.2922 22.3079L22.3078 13.2922C23.1377 12.4624 23.1377 11.1169 22.3078 10.287C21.478 9.45718 20.1325 9.45718 19.3026 10.287Z" fill="#FBBC05"/>
<path d="M13.5234 4.5078C14.3532 3.67794 14.3532 2.33246 13.5234 1.5026C12.6935 0.672737 11.348 0.672737 10.5182 1.5026C9.6883 2.33247 9.6883 3.67794 10.5182 4.50781C11.348 5.33767 12.6935 5.33767 13.5234 4.5078Z" fill="#34A853"/>
<path d="M13.2922 13.5234C14.1221 12.6936 14.1221 11.3481 13.2922 10.5182C12.4624 9.68835 11.1169 9.68835 10.287 10.5182C9.45716 11.3481 9.45716 12.6936 10.287 13.5234C11.1169 14.3533 12.4624 14.3533 13.2922 13.5234Z" fill="#34A853"/>
<path d="M13.2922 22.3079C14.1221 21.478 14.1221 20.1325 13.2922 19.3027C12.4624 18.4728 11.1169 18.4728 10.287 19.3027C9.45716 20.1325 9.45716 21.478 10.287 22.3079C11.1169 23.1377 12.4624 23.1377 13.2922 22.3079Z" fill="#34A853"/>
</g>
<defs>
<clipPath id="clip0_82_51">
<rect width="24" height="24" fill="white"/>
</clipPath>
</defs>
</svg>
