<svg width="24" height="24" viewBox="0 0 24 24" fill="none" xmlns="http://www.w3.org/2000/svg">
<g clip-path="url(#clip0_82_118)">
<path d="M12.1054 21.328L17.4334 16.0001H20.4187C18.932 19.1173 15.7733 21.2867 12.1054 21.328ZM2.772 10.6667H7.68132L13.0147 5.33346H18.52C19.3 6.09876 19.9427 7.0014 20.4187 8.00004H14.1187L8.78532 13.3334H2.772C2.70936 12.8974 2.66664 12.4547 2.66664 12.0001C2.66664 11.5467 2.70936 11.104 2.772 10.6667ZM11.9053 2.67204L6.57732 8.00004H3.5787C5.0694 4.88004 8.232 2.70936 11.9053 2.67204ZM21.3334 12.0001C21.3334 12.4547 21.2893 12.8974 21.2267 13.3334H16.3294L10.996 18.6667H5.48004C4.69734 17.9027 4.056 16.9987 3.5787 16.0001H9.8907L15.224 10.6667H21.2267C21.2893 11.104 21.3334 11.5467 21.3334 12.0001ZM12 0C5.37198 0 0 5.37336 0 12.0001C0 18.628 5.37198 24.0001 12 24.0001C18.6266 24.0001 24 18.628 24 12.0001C24 5.37336 18.6266 0 12 0Z" fill="#193956"/>
</g>
<defs>
<clipPath id="clip0_82_118">
<rect width="24" height="24" fill="white"/>
</clipPath>
</defs>
</svg>
