<svg width="24" height="24" viewBox="0 0 24 24" fill="none" xmlns="http://www.w3.org/2000/svg">
<g clip-path="url(#clip0_36_263)">
<g clip-path="url(#clip1_36_263)">
<path d="M19.9749 24H4.69849C4.24623 24 3.81407 23.8191 3.50251 23.5075C3.19095 23.196 3.01005 22.7638 3.01005 22.3116V10.5628C3.01005 10.1206 3.19095 9.67839 3.50251 9.36683C3.82412 9.04522 4.24623 8.87437 4.69849 8.87437H9.30151C9.66332 8.87437 10.0251 8.99497 10.3166 9.21608L12.6281 10.9447H19.8945C20.3367 10.9447 20.7789 11.1256 21.0905 11.4372C21.402 11.7487 21.593 12.1909 21.593 12.6332V22.3819C21.593 22.8141 21.4221 23.2161 21.1206 23.5276C20.8191 23.8392 20.407 24 19.9749 24ZM5.01005 21.9899H19.5829V12.9447H12.2965C12.0754 12.9447 11.8643 12.8744 11.6935 12.7437L9.201 10.8744H5.01005V21.9899Z" fill="#78909C"/>
<path d="M7.98492 0.291455C7.89447 0.201002 7.78392 0.1206 7.65327 0.0703491C7.41206 -0.0301534 7.13065 -0.0301534 6.88945 0.0703491C6.76884 0.1206 6.65829 0.190952 6.55779 0.291455L3.54271 3.30653C3.15075 3.69849 3.15075 4.33166 3.54271 4.72362C3.93467 5.11558 4.56784 5.11558 4.9598 4.72362L6.25628 3.42713V7.03517C6.25628 7.58794 6.70854 8.0402 7.26131 8.0402C7.81407 8.0402 8.26633 7.58794 8.26633 7.03517V3.42713L9.56281 4.72362C9.76382 4.92462 10.0151 5.01507 10.2764 5.01507C10.5377 5.01507 10.7889 4.91457 10.9899 4.72362C11.3819 4.33166 11.3819 3.69849 10.9899 3.30653L7.98492 0.291455Z" fill="#4CAF50"/>
<path d="M21.0503 3.30653C20.6583 2.91457 20.0251 2.91457 19.6332 3.30653L18.3367 4.60302V1.00503C18.3367 0.452261 17.8844 0 17.3317 0C16.7789 0 16.3266 0.452261 16.3266 1.00503V4.61307L15.0302 3.31658C14.6382 2.92462 14.005 2.92462 13.6131 3.31658C13.2211 3.70854 13.2211 4.34171 13.6131 4.73367L16.6281 7.74874C16.7186 7.8392 16.8291 7.9196 16.9598 7.96985C17.0804 8.0201 17.2111 8.05025 17.3417 8.05025C17.4724 8.05025 17.603 8.0201 17.7236 7.96985C17.8442 7.9196 17.9548 7.84925 18.0553 7.74874L21.0704 4.73367C21.4623 4.34171 21.4623 3.70854 21.0704 3.31658L21.0503 3.30653Z" fill="#4CAF50"/>
</g>
</g>
<defs>
<clipPath id="clip0_36_263">
<rect width="24" height="24" fill="white"/>
</clipPath>
<clipPath id="clip1_36_263">
<rect width="18.593" height="24" fill="white" transform="translate(3)"/>
</clipPath>
</defs>
</svg>
