<svg width="24" height="24" viewBox="0 0 24 24" fill="none" xmlns="http://www.w3.org/2000/svg">
<mask id="mask0_82_139" style="mask-type:alpha" maskUnits="userSpaceOnUse" x="0" y="0" width="24" height="24">
<path d="M23.1818 9.81818H12V14.4545H18.4364C17.8364 17.4 15.3273 19.0909 12 19.0909C8.07273 19.0909 4.90909 15.9273 4.90909 12C4.90909 8.07273 8.07273 4.90909 12 4.90909C13.6909 4.90909 15.2182 5.50909 16.4182 6.49091L19.9091 3C17.7818 1.14545 15.0545 0 12 0C5.34546 0 0 5.34546 0 12C0 18.6545 5.34546 24 12 24C18 24 23.4545 19.6364 23.4545 12C23.4545 11.2909 23.3455 10.5273 23.1818 9.81818Z" fill="white"/>
</mask>
<g mask="url(#mask0_82_139)">
<path d="M-1.09088 19.0909V4.90909L8.18185 12L-1.09088 19.0909Z" fill="#FBBC05"/>
</g>
<mask id="mask1_82_139" style="mask-type:alpha" maskUnits="userSpaceOnUse" x="0" y="0" width="24" height="24">
<path d="M23.1818 9.81818H12V14.4545H18.4364C17.8364 17.4 15.3273 19.0909 12 19.0909C8.07273 19.0909 4.90909 15.9273 4.90909 12C4.90909 8.07273 8.07273 4.90909 12 4.90909C13.6909 4.90909 15.2182 5.50909 16.4182 6.49091L19.9091 3C17.7818 1.14545 15.0545 0 12 0C5.34546 0 0 5.34546 0 12C0 18.6545 5.34546 24 12 24C18 24 23.4545 19.6364 23.4545 12C23.4545 11.2909 23.3455 10.5273 23.1818 9.81818Z" fill="white"/>
</mask>
<g mask="url(#mask1_82_139)">
<path d="M-1.09088 4.90909L8.18185 12L12 8.67273L25.0909 6.54545V-1.09091H-1.09088V4.90909Z" fill="#EA4335"/>
</g>
<mask id="mask2_82_139" style="mask-type:alpha" maskUnits="userSpaceOnUse" x="0" y="0" width="24" height="24">
<path d="M23.1818 9.81818H12V14.4545H18.4364C17.8364 17.4 15.3273 19.0909 12 19.0909C8.07273 19.0909 4.90909 15.9273 4.90909 12C4.90909 8.07273 8.07273 4.90909 12 4.90909C13.6909 4.90909 15.2182 5.50909 16.4182 6.49091L19.9091 3C17.7818 1.14545 15.0545 0 12 0C5.34546 0 0 5.34546 0 12C0 18.6545 5.34546 24 12 24C18 24 23.4545 19.6364 23.4545 12C23.4545 11.2909 23.3455 10.5273 23.1818 9.81818Z" fill="white"/>
</mask>
<g mask="url(#mask2_82_139)">
<path d="M-1.09088 19.0909L15.2728 6.54545L19.5818 7.09091L25.0909 -1.09091V25.0909H-1.09088V19.0909Z" fill="#34A853"/>
</g>
<mask id="mask3_82_139" style="mask-type:alpha" maskUnits="userSpaceOnUse" x="0" y="0" width="24" height="24">
<path d="M23.1818 9.81818H12V14.4545H18.4364C17.8364 17.4 15.3273 19.0909 12 19.0909C8.07273 19.0909 4.90909 15.9273 4.90909 12C4.90909 8.07273 8.07273 4.90909 12 4.90909C13.6909 4.90909 15.2182 5.50909 16.4182 6.49091L19.9091 3C17.7818 1.14545 15.0545 0 12 0C5.34546 0 0 5.34546 0 12C0 18.6545 5.34546 24 12 24C18 24 23.4545 19.6364 23.4545 12C23.4545 11.2909 23.3455 10.5273 23.1818 9.81818Z" fill="white"/>
</mask>
<g mask="url(#mask3_82_139)">
<path d="M25.0909 25.0909L8.18182 12L6 10.3636L25.0909 4.90909V25.0909Z" fill="#4285F4"/>
</g>
</svg>
