<svg width="24" height="24" viewBox="0 0 24 24" fill="none" xmlns="http://www.w3.org/2000/svg">
<path d="M23.7118 10.6762L18.7807 2.10221C18.4034 1.43324 17.7001 1.01391 16.932 1H7.0679C6.29973 1.01353 5.59624 1.43296 5.2192 2.10221L0.286212 10.6537C-0.0954041 11.3176 -0.0954041 12.1343 0.286212 12.7982L5.21732 21.4209C5.5905 22.0994 6.29212 22.5327 7.06602 22.5625H16.9301C17.704 22.5359 18.4069 22.1045 18.7807 21.4265L23.7118 12.8525C24.0961 12.178 24.0961 11.3508 23.7118 10.6762Z" fill="#4285F4"/>
<path opacity="0.07" d="M15.9511 9.25L9.18423 9.87481L7.875 11.1882L8.99719 12.314L7.88435 14.2692L16.1512 22.5625H16.8507C17.6226 22.5359 18.3238 22.104 18.6967 21.4255L22.125 15.4437L15.9511 9.25Z" fill="black"/>
<path d="M15.8813 9.11313H8.11131C8.04968 9.1111 7.98984 9.13405 7.94536 9.17676C7.90088 9.21947 7.87553 9.27834 7.87506 9.34V10.9469C7.87506 11.0722 7.97664 11.1738 8.10194 11.1738H15.8813C16.0062 11.1727 16.1072 11.0718 16.1082 10.9469V9.34C16.1072 9.21513 16.0062 9.11414 15.8813 9.11313ZM14.6794 10.6131C14.4226 10.6131 14.2144 10.4049 14.2144 10.1481C14.2144 9.89131 14.4226 9.68313 14.6794 9.68313C14.9362 9.68313 15.1444 9.89131 15.1444 10.1481C15.1444 10.4049 14.9362 10.6131 14.6794 10.6131Z" fill="white"/>
<path d="M15.8813 12.2012H8.11126C8.04797 12.1991 7.98665 12.2234 7.94188 12.2681C7.89711 12.3129 7.87289 12.3742 7.87501 12.4375V14.0444C7.87602 14.1692 7.97701 14.2702 8.10188 14.2712H15.8813C16.0061 14.2702 16.1071 14.1692 16.1081 14.0444V12.4281C16.1071 12.3032 16.0061 12.2023 15.8813 12.2012ZM14.6794 13.7012C14.4226 13.7012 14.2144 13.4931 14.2144 13.2362C14.2144 12.9794 14.4226 12.7712 14.6794 12.7712C14.9362 12.7712 15.1444 12.9794 15.1444 13.2362C15.1444 13.4931 14.9362 13.7012 14.6794 13.7012Z" fill="white"/>
</svg>
