<svg width="24" height="24" viewBox="0 0 24 24" fill="none" xmlns="http://www.w3.org/2000/svg">
<path d="M23.7118 10.6785L18.7807 2.10247C18.4034 1.43334 17.7001 1.01391 16.932 1H7.06789C6.29973 1.01354 5.59624 1.43306 5.2192 2.10247L0.286212 10.656C-0.0954041 11.32 -0.0954041 12.1369 0.286212 12.8009L5.21732 21.4257C5.5905 22.1043 6.29212 22.5377 7.06602 22.5675H16.9301C17.704 22.541 18.4069 22.1094 18.7807 21.4313L23.7118 12.8553C24.0961 12.1806 24.0961 11.3532 23.7118 10.6785Z" fill="#4285F4"/>
<path opacity="0.07" d="M16.7276 8.73228L15.6289 8.96852L12.8915 6.2311L12.0159 7.8623L11.5397 9.756L12.344 10.5604L10.7991 10.8772L8.68037 8.75853L7.24228 10.1422L9.89158 12.7878L7.07916 15.019L14.6239 22.5619H16.9301C17.704 22.5353 18.4069 22.1038 18.7807 21.4257L22.6656 14.6759L16.7276 8.73228Z" fill="black"/>
<path d="M15.5352 8.59353C16.0124 8.31848 16.6221 8.48224 16.8973 8.95934C17.1725 9.43643 17.009 10.0463 16.5319 10.3216C16.0549 10.5969 15.445 10.4336 15.1696 9.95662C15.0372 9.72741 15.0013 9.45497 15.0699 9.19931C15.1385 8.94364 15.3058 8.72572 15.5352 8.59353Z" fill="white"/>
<path d="M7.46541 10.3147C6.98848 10.0393 6.82509 9.42937 7.10042 8.95235C7.37576 8.47534 7.9856 8.31176 8.4627 8.58696C8.93979 8.86215 9.10355 9.47194 8.8285 9.94912C8.69631 10.1785 8.47839 10.3458 8.22273 10.4144C7.96706 10.483 7.69463 10.4471 7.46541 10.3147Z" fill="white"/>
<path d="M12.9965 16.4402C12.9954 16.9908 12.5484 17.4365 11.9977 17.4358C11.4471 17.4351 11.0012 16.9883 11.0015 16.4377C11.0019 15.887 11.4484 15.4408 11.999 15.4408C12.5499 15.4408 12.9965 15.8874 12.9965 16.4383" fill="white"/>
<path d="M11.999 9.70725C12.1542 9.70743 12.309 9.72504 12.4603 9.75975V7.1217H11.5378V9.75975C11.6891 9.72504 11.8438 9.70743 11.999 9.70725Z" fill="white"/>
<path d="M13.9808 12.3922C13.8885 12.6893 13.7302 12.9617 13.5177 13.189L15.8033 14.5015L16.2645 13.7028L13.9808 12.3922Z" fill="white"/>
<path d="M10.0172 12.3922L7.73352 13.7046L8.19476 14.5034L10.4803 13.1909C10.2676 12.9631 10.1092 12.69 10.0172 12.3922Z" fill="white"/>
<path d="M13.6114 11.7809C13.6114 12.4331 13.2186 13.0211 12.616 13.2707C12.0135 13.5202 11.32 13.3823 10.8588 12.9211C10.3976 12.46 10.2597 11.7664 10.5093 11.1639C10.7588 10.5614 11.3468 10.1685 11.999 10.1685C12.8895 10.1685 13.6114 10.8904 13.6114 11.7809Z" fill="white"/>
<path d="M7.33043 13.0128C7.77428 12.756 8.32911 12.792 8.73611 13.1039C9.1431 13.4158 9.32206 13.9422 9.18951 14.4375C9.05695 14.9329 8.63899 15.2995 8.13062 15.3665C7.62224 15.4335 7.1236 15.1875 6.86732 14.7434C6.51773 14.1375 6.72499 13.363 7.33043 13.0128Z" fill="white"/>
<path d="M15.4002 15.2065C14.9561 14.9502 14.7101 14.4516 14.7771 13.9432C14.844 13.4348 15.2107 13.0168 15.706 12.8843C16.2014 12.7517 16.7278 12.9307 17.0397 13.3377C17.3516 13.7447 17.3876 14.2995 17.1308 14.7434C16.9629 15.0345 16.6862 15.2469 16.3615 15.3338C16.0369 15.4207 15.691 15.3749 15.4002 15.2065Z" fill="white"/>
<path d="M13.2665 7.1217C13.2665 7.8217 12.699 8.38916 11.999 8.38916C11.299 8.38916 10.7316 7.8217 10.7316 7.1217C10.7316 6.4217 11.299 5.85424 11.999 5.85424C12.699 5.85424 13.2665 6.4217 13.2665 7.1217Z" fill="white"/>
</svg>
