<svg width="24" height="24" viewBox="0 0 24 24" fill="none" xmlns="http://www.w3.org/2000/svg">
<path d="M23.7118 10.6785L18.7807 2.10247C18.4034 1.43334 17.7001 1.01391 16.932 1H7.06789C6.29973 1.01354 5.59624 1.43306 5.2192 2.10247L0.286212 10.656C-0.0954041 11.32 -0.0954041 12.1369 0.286212 12.8009L5.21732 21.4257C5.5905 22.1043 6.29212 22.5377 7.06602 22.5675H16.9301C17.704 22.541 18.4069 22.1094 18.7807 21.4313L23.7118 12.8553C24.0961 12.1806 24.0961 11.3532 23.7118 10.6785Z" fill="#4285F4"/>
<path opacity="0.07" d="M18.7807 21.4257L22.0675 15.709L15.1152 8.75853L11.999 7.92418L9.1997 8.96852L8.11786 11.7809L8.98783 14.9177L16.632 22.5619H16.9301C17.704 22.5353 18.4069 22.1038 18.7807 21.4257Z" fill="black"/>
<path d="M11.999 7.43107C9.59791 7.43107 7.65135 9.37735 7.651 11.7784C7.65066 14.1795 9.59666 16.1264 11.9978 16.1271C14.3988 16.1278 16.346 14.182 16.347 11.7809C16.3475 10.6275 15.8896 9.52104 15.0742 8.70523C14.2587 7.88942 13.1525 7.43107 11.999 7.43107ZM11.999 15.0809C10.6643 15.0809 9.46105 14.2769 8.95029 13.0438C8.43952 11.8107 8.72185 10.3913 9.66562 9.44756C10.6094 8.50379 12.0287 8.22146 13.2618 8.73223C14.4949 9.24299 15.2989 10.4463 15.2989 11.7809C15.2989 13.6034 13.8215 15.0809 11.999 15.0809Z" fill="white"/>
<path d="M9.93658 11.6122V12.964C10.1365 13.3078 10.4187 13.5964 10.7578 13.804V11.6122H9.93658Z" fill="white"/>
<path d="M11.5621 10.4685V14.1134C11.8335 14.1647 12.112 14.1647 12.3834 14.1134V10.4685H11.5621Z" fill="white"/>
<path d="M13.2683 12.1747V13.7796C13.6117 13.5627 13.8943 13.262 14.0895 12.9059V12.1747H13.2683Z" fill="white"/>
<path d="M15.1283 14.4602L14.6784 14.9121C14.6 14.9917 14.6 15.1194 14.6784 15.199L16.3864 16.907C16.4662 16.9867 16.5954 16.9867 16.6752 16.907L17.1252 16.4571C17.2035 16.3775 17.2035 16.2498 17.1252 16.1702L15.4152 14.4602C15.3357 14.3819 15.2079 14.3819 15.1283 14.4602Z" fill="white"/>
</svg>
