<svg width="24" height="24" viewBox="0 0 24 24" fill="none" xmlns="http://www.w3.org/2000/svg">
<g clip-path="url(#clip0_46_645)">
<path fill-rule="evenodd" clip-rule="evenodd" d="M0.943809 22.8396L1.38594 22.726L0.685674 23.0663L0.943809 22.8396ZM23.7114 8.63098C22.1941 10.0609 20.7173 11.455 19.2346 12.8315C18.3535 13.5777 7.98171 20.9292 0.0296706 21.6508V23.3847L0.00140381 23.3985C0.0120705 23.3964 0.0195372 23.3948 0.0296706 23.3927V23.3985L0.185938 23.3617C0.265405 23.3463 0.338472 23.3308 0.407273 23.31C0.913409 23.1575 1.41368 22.9921 1.91928 22.8508C5.57903 21.8455 9.31505 21.4214 13.1039 21.5862C14.4335 21.639 15.7572 21.7686 17.0751 21.9393C19.217 22.2156 21.2997 22.7399 23.3471 23.4279C23.7354 23.5575 23.9946 23.3628 23.9946 22.9628C23.9946 18.3564 23.9882 13.7494 23.9999 9.14245C23.9999 8.84271 23.9295 8.66031 23.7114 8.63098Z" fill="url(#paint0_linear_46_645)" fill-opacity="0.9"/>
<path fill-rule="evenodd" clip-rule="evenodd" d="M18.0507 4.88898C18.0273 4.94178 17.9921 5.00685 17.9563 5.08312C16.6502 8.17807 14.8971 10.9781 12.5968 13.432C12.5968 13.432 5.45973 20.1291 0.0292969 21.6512V23.3984C0.0292969 23.3984 1.48157 22.5595 2.21811 22.2219C2.49118 22.0992 2.76478 21.9835 3.03891 21.872L5.9456 20.8928C9.68482 19.8949 13.5264 19.8411 17.4566 20.5504C17.8033 20.6096 18.1686 20.5568 18.5505 20.5568V20.0683C18.5505 15.1968 18.5451 10.3253 18.5563 5.45379C18.5563 5.09485 18.4742 4.88898 18.0507 4.88898Z" fill="url(#paint1_linear_46_645)" fill-opacity="0.9"/>
<path fill-rule="evenodd" clip-rule="evenodd" d="M4.44356 20.6391C6.64998 19.6514 8.96199 19.0685 11.3625 18.8151C11.8921 18.7565 11.8921 18.7565 11.8921 18.221V1.5473C11.8921 1.02943 11.8921 1.02943 11.3156 1.0001C11.2799 1.21183 11.2388 1.42943 11.1977 1.64117C11.1508 1.86464 11.098 2.09451 11.0447 2.31797C10.1092 6.18946 8.47345 9.76655 6.44358 13.173C4.66703 16.1613 2.56089 18.9031 0.166207 21.4279C0.10114 21.4925 0.00727234 21.5746 0.00727234 21.6509C-0.00446106 22.2157 0.00140564 22.7864 0.00140564 23.3986C0.172073 23.3629 0.289407 23.3453 0.407275 23.3101C0.407275 23.3101 3.47663 21.0722 4.44356 20.6391Z" fill="url(#paint2_linear_46_645)" fill-opacity="0.9"/>
<path d="M18.6966 13.1427C21.3582 11.1914 23.0693 9.72728 23.8299 8.75037L23.1941 23.4001" stroke="white" stroke-opacity="0.65" stroke-width="0.25" stroke-linejoin="bevel"/>
<path d="M0 23.3229C2.16628 21.6858 3.90029 20.5998 5.20202 20.065C7.15463 19.2627 10.6308 18.4529 11.4054 18.3641C11.4054 18.3641 11.4874 12.7538 11.6513 1.53333" stroke="white" stroke-opacity="0.75" stroke-width="0.25"/>
<path d="M12.2668 13.7982C14.857 11.7017 16.9093 8.85789 18.4237 5.26669L18.0001 20.5165" stroke="white" stroke-opacity="0.65" stroke-width="0.25" stroke-linejoin="bevel"/>
</g>
<defs>
<linearGradient id="paint0_linear_46_645" x1="0.00140381" y1="23.4677" x2="18.1372" y2="8.80029" gradientUnits="userSpaceOnUse">
<stop stop-color="#B77E46"/>
<stop offset="0.490652" stop-color="#A2BC69"/>
<stop offset="1" stop-color="#3D8444"/>
</linearGradient>
<linearGradient id="paint1_linear_46_645" x1="18.5563" y1="9.92333" x2="0.0414991" y2="23.4152" gradientUnits="userSpaceOnUse">
<stop stop-color="#056DAC"/>
<stop offset="0.489139" stop-color="#82ABC4"/>
<stop offset="1" stop-color="#978379"/>
</linearGradient>
<linearGradient id="paint2_linear_46_645" x1="-6.10352e-05" y1="23.3986" x2="15.4638" y2="17.7453" gradientUnits="userSpaceOnUse">
<stop stop-color="#9A3027"/>
<stop offset="1" stop-color="#FFD44A"/>
</linearGradient>
<clipPath id="clip0_46_645">
<rect width="24" height="24" fill="white"/>
</clipPath>
</defs>
</svg>
