<svg width="24" height="24" viewBox="0 0 24 24" fill="none" xmlns="http://www.w3.org/2000/svg">
<path d="M6.55061 14.8989C6.55061 14.8989 7.17982 15.7978 8.4832 16.4944C8.88769 16.7191 9.38207 16.3595 9.17982 16.0225C8.39331 14.7191 7.58432 12.3595 9.5169 9.66292L5.89893 11.3708L6.05623 14.0449L6.55061 14.8989Z" fill="#54585A"/>
<path d="M6.52478 14.764C6.52478 14.764 3.10905 10.9213 6.50231 6.89888C9.64838 3.19101 11.5135 2.13483 10.8619 0C10.8619 0 18.8843 3.2809 12.8394 7.55056C7.60343 11.2584 5.69332 12.7416 6.52478 14.764Z" fill="#78BE20"/>
<path d="M16.7079 9.08119C16.7079 9.08119 16.0786 8.18231 14.7753 7.48568C14.3708 7.26096 13.8764 7.62052 14.0786 7.95759C14.8652 9.26096 15.6966 11.6205 13.764 14.3171L17.382 12.6093L17.2247 9.93512L16.7079 9.08119Z" fill="#54585A"/>
<path d="M16.7157 9.21348C16.7157 9.21348 20.1314 13.0562 16.7382 17.0786C13.5921 20.7865 11.7269 21.8652 12.3786 24C12.3786 24 4.35615 20.7191 10.4011 16.4494C15.6595 12.7416 17.5472 11.2584 16.7157 9.21348Z" fill="#5BC2E7"/>
</svg>
