<svg width="24" height="24" viewBox="0 0 24 24" fill="none" xmlns="http://www.w3.org/2000/svg">
<g clip-path="url(#clip0_36_254)">
<g clip-path="url(#clip1_36_254)">
<path d="M23.3277 8.09204C23.3037 7.99599 23.2676 7.89995 23.2196 7.8159C22.8955 6.95147 22.4993 6.11105 21.983 5.31865C20.6623 3.33766 18.8014 1.8129 16.5923 0.900446C15.1756 0.312152 13.6869 0.0360138 12.1741 0.0120018C12.066 -4.23762e-06 11.97 -0.0120102 11.8619 0.0120018C11.1296 0.0120018 10.3852 0.0720318 9.65283 0.216104C7.31166 0.684338 5.1866 1.8129 3.50576 3.50575C2.24513 4.76638 1.29665 6.26713 0.70836 7.92396C0.70836 7.92396 0.70836 7.92396 0.70836 7.93596C0.504258 8.48824 0.34818 9.06453 0.22812 9.65282C-0.180084 11.7299 -0.0120004 13.8429 0.660336 15.8239C0.684348 15.944 0.720366 16.052 0.76839 16.1601C0.816414 16.3041 0.852432 16.4482 0.912462 16.5923C1.82492 18.7894 3.34968 20.6623 5.33067 21.983C7.31166 23.3036 9.61682 24.012 12.006 24.012C12.1861 24.012 12.3422 23.964 12.4983 23.9039C12.5223 23.8919 12.5463 23.8679 12.5703 23.8559C12.6904 23.7839 12.8104 23.6998 12.8945 23.6038C12.8945 23.5918 12.9185 23.5918 12.9305 23.5798C12.9545 23.5438 12.9665 23.4957 12.9905 23.4597C13.0385 23.3757 13.0866 23.3036 13.1226 23.2076C13.1466 23.1356 13.1586 23.0755 13.1586 23.0035C13.1586 22.9435 13.1946 22.8834 13.1946 22.8234C13.1946 22.7994 13.1826 22.7754 13.1826 22.7514C13.1826 22.6793 13.1586 22.6193 13.1466 22.5473C13.1226 22.4632 13.1106 22.3792 13.0745 22.3071C13.0505 22.2471 13.0025 22.1991 12.9665 22.1511C12.9185 22.079 12.8584 22.007 12.7984 21.947C12.7864 21.935 12.7744 21.911 12.7624 21.8989C12.6423 21.8029 10.6493 20.1221 9.49675 16.8324H12.006C12.6663 16.8324 13.2066 16.2921 13.2066 15.6318C13.2066 14.9715 12.6663 14.4312 12.006 14.4312H8.89645C8.77639 13.6868 8.70436 12.8824 8.70436 12.03C8.70436 11.1776 8.7884 10.3732 8.90846 9.62881H15.1036C15.2236 10.3732 15.3077 11.1656 15.3077 12.03C15.3077 12.6903 15.8479 13.2306 16.5083 13.2306C17.1686 13.2306 17.7089 12.6903 17.7089 12.03C17.7089 11.1776 17.6488 10.3852 17.5408 9.62881H21.2867C21.4908 10.4092 21.6108 11.2136 21.6108 12.03C21.6108 12.6903 22.1511 13.2306 22.8114 13.2306C23.4717 13.2306 24.012 12.6903 24.012 12.03C24.012 10.6853 23.7719 9.37668 23.3397 8.12806L23.3277 8.09204ZM8.95648 2.89344C8.22412 3.98599 7.47975 5.4147 6.96349 7.19159H3.68585C4.10606 6.47123 4.5983 5.79889 5.1986 5.19859C6.25513 4.14207 7.53978 3.36168 8.95648 2.89344ZM8.95648 21.0825C8.15208 20.8184 7.37169 20.4462 6.66334 19.966C5.42672 19.1376 4.43022 18.057 3.69785 16.7844H6.97549C7.49175 18.5613 8.23612 19.99 8.96849 21.0825H8.95648ZM6.45924 14.3952H2.70136C2.34118 13.0025 2.29315 11.5498 2.56929 10.1211C2.60531 9.94097 2.66534 9.77288 2.71336 9.59279H6.45924C6.35118 10.3492 6.29115 11.1416 6.29115 11.994C6.29115 12.8464 6.35118 13.6388 6.45924 14.3952ZM9.48475 7.19159C10.2171 5.10255 11.2736 3.66183 11.994 2.86943C12.7144 3.66183 13.7829 5.11455 14.5033 7.19159H9.48475ZM17.0245 7.19159C16.5083 5.42671 15.7759 3.99799 15.0435 2.91745C15.2476 2.98949 15.4637 3.03751 15.6678 3.12156C17.4327 3.85392 18.9215 5.07853 19.978 6.66333C20.0981 6.83141 20.1821 7.02351 20.2781 7.19159H17.0125H17.0245Z" fill="#2196F3"/>
<path d="M22.5353 22.067L22.0791 22.5233C22.0791 22.5233 21.995 22.5953 21.935 22.6193C21.887 22.6433 21.8269 22.6553 21.7669 22.6553C21.7069 22.6553 21.6588 22.6553 21.5988 22.6193C21.5508 22.5953 21.5028 22.5713 21.4547 22.5233L19.4137 20.4822L18.7174 22.2951C18.6693 22.4152 18.5973 22.4992 18.5013 22.5593C18.4052 22.6193 18.2972 22.6553 18.1891 22.6553H18.1651C18.045 22.6553 17.937 22.6073 17.8409 22.5353C17.7449 22.4632 17.6849 22.3672 17.6488 22.2591L15.7639 16.4842C15.7279 16.3882 15.7279 16.2801 15.7519 16.1721C15.7759 16.064 15.8239 15.98 15.908 15.8959C15.98 15.8239 16.076 15.7639 16.1841 15.7399C16.2922 15.7159 16.4002 15.7159 16.4963 15.7519L22.2711 17.6368C22.3792 17.6728 22.4753 17.7449 22.5473 17.8409C22.6193 17.937 22.6553 18.045 22.6673 18.1651C22.6673 18.2851 22.6433 18.3932 22.5833 18.5012C22.5233 18.5973 22.4272 18.6813 22.3312 18.7294L20.5183 19.4257L22.5593 21.4667C22.6433 21.5508 22.6914 21.6588 22.6914 21.7669C22.6914 21.8749 22.6433 21.995 22.5593 22.067H22.5353Z" fill="#FFC107"/>
</g>
</g>
<defs>
<clipPath id="clip0_36_254">
<rect width="24" height="24" fill="white"/>
</clipPath>
<clipPath id="clip1_36_254">
<rect width="24" height="24" fill="white"/>
</clipPath>
</defs>
</svg>
