<svg width="24" height="24" viewBox="0 0 24 24" fill="none" xmlns="http://www.w3.org/2000/svg">
<path d="M20.9206 8.00015C19.0664 8.00015 17.8557 9.27012 17.8557 11.3698C17.8557 13.9775 19.7099 14.7225 21.0391 14.7225C22.0381 14.7225 22.9864 14.3161 23.6722 13.5965L22.817 12.7414C22.3599 13.1477 21.8349 13.3933 21.056 13.3933C20.0231 13.3933 19.3289 12.7922 19.3289 11.9624H23.9346C23.9261 11.954 24.7305 8.00015 20.9206 8.00015ZM19.3289 10.8279C19.3289 9.71037 20.1755 9.17699 21.0814 9.17699C21.9873 9.17699 22.8086 9.72731 22.8086 10.8279H19.3289Z" fill="#00DC06"/>
<path d="M3.96229 10.7179C3.36964 10.6417 1.66789 10.7094 1.66789 9.9305C1.66789 9.47331 2.38754 9.21932 3.03945 9.21932C3.7337 9.21084 4.41101 9.40558 4.98673 9.77811L5.87571 8.89759C5.61325 8.68593 4.63961 8.00015 3.03945 8.00015C1.58322 8.00015 0.270925 8.76213 0.270925 9.9813C0.270925 11.8524 2.53146 11.8524 3.47124 11.9455C4.04696 12.0048 4.56341 12.0386 4.56341 12.5974C4.56341 13.1223 3.76756 13.4102 3.14951 13.4102C2.14201 13.4102 1.54089 13.08 0.948241 12.5466L0 13.5033C0.821244 14.2992 1.93035 14.731 3.07332 14.7225C4.76661 14.7225 5.99424 13.9775 5.99424 12.4789C5.99424 11.4883 5.32539 10.8957 3.96229 10.7179" fill="#00DC06"/>
<path d="M8.822 8.00016C7.88223 7.99168 6.95938 8.31342 6.2228 8.89761L7.11178 9.78659C7.6113 9.41406 8.21242 9.21933 8.83047 9.2278C9.9565 9.2278 10.2952 9.67652 10.2952 10.1845V10.8195H8.28861C7.54357 10.8195 6.08734 11.0058 6.08734 12.6398C6.08734 13.842 6.77312 14.7225 8.41561 14.7225C9.23686 14.7225 9.86337 14.4601 10.2952 13.9436V14.5955H11.7514V10.2861C11.7514 8.77908 10.8285 8.00016 8.822 8.00016ZM10.3036 12.2419C10.3036 13.4864 9.41465 13.4187 8.62727 13.4187C7.83989 13.4187 7.31497 13.207 7.31497 12.6482C7.31497 12.1318 7.72983 11.954 8.59341 11.954H10.3036V12.2419Z" fill="#00DC06"/>
<path d="M16.2471 8.13562V8.85526C15.7476 8.28801 15.1549 8.00015 14.3506 8.00015C12.9706 8.00015 12.2594 8.7706 12.0223 9.60031C11.9292 9.9051 11.9038 10.4893 11.9038 11.3529C11.9038 12.1656 11.9123 12.9107 12.1917 13.4779C12.5896 14.2738 13.5463 14.7225 14.3506 14.7225C15.1295 14.7225 15.7899 14.4177 16.2471 13.8928V14.2992C16.2471 14.7733 16.0862 15.0866 15.7814 15.3321C15.4766 15.5776 15.0957 15.73 14.5623 15.73C14.0797 15.73 13.6225 15.4676 13.36 15.2813L12.3779 16.2634C13.0129 16.7799 13.7664 17.127 14.5877 17.1354C15.375 17.1524 16.1455 16.8984 16.7635 16.3989C17.3477 15.9417 17.7203 15.0696 17.7203 14.1553V8.13562H16.2471ZM16.2471 11.3529C16.2471 11.8524 16.2386 12.2249 16.1963 12.4196C16.1032 12.8345 15.629 13.3848 14.7655 13.3848C14.5453 13.3848 13.4447 13.2578 13.3177 12.3011C13.2838 11.9878 13.2669 11.6661 13.2754 11.3529C13.2754 10.6078 13.3092 10.3708 13.3431 10.1845C13.4193 9.81197 13.9104 9.25319 14.7655 9.25319C15.8068 9.25319 16.1455 9.96437 16.1963 10.2438C16.2386 10.6078 16.2556 10.9803 16.2471 11.3529Z" fill="#00DC06"/>
</svg>
