<svg id="Layer_1" xmlns="http://www.w3.org/2000/svg" width="24" height="24" viewBox="0 0 24 24"><defs><style>.cls-1{fill:gray;}.cls-1,.cls-2,.cls-3,.cls-4{stroke-width:0px;}.cls-2{fill:#172d54;}.cls-3{fill:#f37a67;}.cls-4{fill:#fff;}</style></defs><path class="cls-1" d="M3.61,20.9h-.56v2.55h-.82v-2.55h-.37v-.67h.37v-.16c0-.4.11-.69.34-.87s.56-.27,1.02-.26v.69c-.2,0-.33.03-.41.1-.08.07-.12.2-.12.38v.13h.56v.67ZM4.73,23.29c-.25-.14-.44-.33-.58-.58-.14-.25-.21-.54-.21-.87s.07-.62.22-.87c.14-.25.34-.45.6-.58.25-.14.53-.21.84-.21s.59.07.84.21c.25.14.45.33.59.58.15.25.22.54.22.87s-.07.62-.22.87c-.15.25-.35.45-.6.58-.25.14-.54.21-.85.21s-.59-.07-.84-.21ZM5.98,22.68c.13-.07.23-.18.31-.32.08-.14.12-.32.12-.52,0-.31-.08-.54-.24-.71-.16-.16-.36-.25-.59-.25s-.43.08-.58.25-.24.4-.24.71.08.54.23.71c.15.16.35.25.58.25.15,0,.29-.04.42-.11ZM9.11,20.33c.17-.1.36-.15.58-.15v.85h-.21c-.26,0-.45.06-.58.18-.13.12-.19.33-.19.63v1.6h-.81v-3.22h.81v.5c.1-.17.24-.3.41-.4ZM12.25,23.34c-.23-.1-.41-.24-.54-.42-.13-.18-.2-.4-.2-.64h.87c.01.17.07.3.18.39.11.1.25.15.44.15s.34-.05.45-.14.16-.21.16-.36c0-.12-.04-.22-.11-.3s-.17-.14-.28-.18c-.11-.04-.26-.09-.46-.15-.26-.08-.48-.15-.64-.23s-.31-.19-.42-.34c-.12-.15-.18-.36-.18-.61,0-.24.06-.45.18-.63.12-.18.29-.31.51-.41.22-.09.47-.14.74-.14.42,0,.76.1,1.02.3.26.2.41.49.43.85h-.89c0-.14-.07-.25-.18-.35-.11-.09-.26-.14-.44-.14-.16,0-.29.04-.38.12-.1.08-.14.2-.14.35,0,.11.04.2.11.27.07.07.16.13.27.17.11.04.26.1.45.15.26.08.48.15.64.23.17.08.31.19.43.35.12.16.18.36.18.61,0,.22-.06.42-.17.6-.11.19-.28.33-.49.44-.22.11-.47.17-.77.17-.28,0-.54-.05-.76-.15ZM17.53,22.68h-1.61l-.27.77h-.85l1.46-4.06h.95l1.46,4.06h-.86l-.27-.77ZM17.31,22.02l-.59-1.7-.59,1.7h1.17ZM21.99,21.26c-.1.19-.26.34-.48.46-.22.12-.49.17-.83.17h-.68v1.56h-.81v-4.05h1.49c.31,0,.58.05.8.16.22.11.39.26.5.45.11.19.17.4.17.64,0,.22-.05.42-.15.61ZM21.15,21.08c.11-.1.16-.25.16-.43,0-.39-.22-.59-.66-.59h-.64v1.18h.64c.22,0,.39-.05.5-.15Z"/><g id="Boomi_Icon_Logo_2-Color_Positive_RGB"><path class="cls-2" d="M19.99,8.49c0,4.41-3.58,7.99-7.99,7.99s-7.99-3.58-7.99-7.99S7.59.5,12,.5s7.99,3.58,7.99,7.99"/><path class="cls-4" d="M12.66,6.68c-1.01,0-1.89.37-2.54.97V2.9c0-.12-.13-.19-.23-.13l-1.15.66s-.04.04-.04.07v10.06c0,.09.07.16.16.16h1.11c.09,0,.16-.07.16-.16v-.67c.65.6,1.53.97,2.54.97,2.1,0,3.66-1.57,3.66-3.59s-1.56-3.59-3.66-3.59M12.66,12.53c-1.3,0-2.24-.98-2.24-2.25s.94-2.25,2.24-2.25,2.24.98,2.24,2.25-.94,2.25-2.24,2.25"/><path class="cls-3" d="M17.12,5.84c0,.49-.39.88-.88.88s-.88-.39-.88-.88.39-.88.88-.88.88.39.88.88"/></g></svg>