<svg width="24" height="24" viewBox="0 0 24 24" fill="none" xmlns="http://www.w3.org/2000/svg">
<g clip-path="url(#clip0_120_14)">
<path d="M20 0H4C1.79086 0 0 1.79086 0 4V20C0 22.2091 1.79086 24 4 24H20C22.2091 24 24 22.2091 24 20V4C24 1.79086 22.2091 0 20 0Z" fill="#002F55"/>
<path d="M7 11.8208C7 10.4068 7.55636 8.79982 8.71548 7.6407C9.78162 6.57456 11.259 6 13.3735 6C14.0975 6 14.9047 6.06023 15.5652 6.18165C15.8332 6.23098 16.0837 6.26859 16.4133 6.31128C16.4718 6.31885 16.5318 6.32647 16.6112 6.33646C16.7398 6.3526 16.807 6.36104 16.871 6.36918C16.9708 6.38188 17.0569 6.3931 17.1423 6.40462C17.3166 6.42939 17.4024 6.54642 17.4024 6.71371C17.4024 6.77231 17.3621 7.10096 17.3514 7.22139C17.3422 7.32363 17.3342 7.43447 17.3273 7.55877C17.3179 7.71407 17.3109 7.91041 17.305 8.16054C17.303 8.24543 17.3012 8.33349 17.2992 8.44279C17.2985 8.4777 17.2953 8.65714 17.2943 8.70442C17.2903 8.91524 17.2871 9.0287 17.2826 9.09788C17.2621 9.40688 17.2045 9.5481 17.0022 9.5481C16.7812 9.5481 16.7364 9.40845 16.7364 9.08821C16.7364 8.53484 16.5071 7.96958 16.1602 7.67605C15.6176 7.21087 14.4607 6.86005 13.2688 6.86005C11.6161 6.86005 10.6243 7.24053 9.93568 7.90955C8.98701 8.81914 8.63671 9.96494 8.63671 11.7013C8.63671 14.6125 10.8978 17.0205 13.8811 17.0205C15.14 17.0205 15.8694 16.8358 16.3735 16.3192C16.6101 16.0714 16.824 15.5238 16.8879 15.1396C16.9307 14.9042 16.9994 14.7955 17.1812 14.7955C17.3661 14.7955 17.4322 14.957 17.4322 15.1658C17.4322 15.368 17.2224 16.6946 17.0968 17.1213C16.9953 17.4427 16.9377 17.5065 16.6235 17.6461C16.0549 17.8736 14.9757 18 13.8811 18C11.674 18 10.1039 17.4718 8.85552 16.3499C7.55086 15.1797 7 13.6222 7 11.8208Z" fill="white"/>
</g>
<defs>
<clipPath id="clip0_120_14">
<rect width="24" height="24" rx="12" fill="white"/>
</clipPath>
</defs>
</svg>
