<svg width="24" height="24" viewBox="0 0 24 24" fill="none" xmlns="http://www.w3.org/2000/svg">
<path d="M16.8252 13.293C15.8768 13.293 15.0265 13.7071 14.4443 14.359L12.9523 13.3181C13.1107 12.8884 13.2016 12.427 13.2016 11.944C13.2016 11.4695 13.1138 11.0158 12.9607 10.5924L14.4493 9.56262C15.0315 10.2112 15.8795 10.623 16.8252 10.623C18.5756 10.623 20 9.21963 20 7.49438C20 5.76912 18.5756 4.36572 16.8252 4.36572C15.0747 4.36572 13.6503 5.76912 13.6503 7.49438C13.6503 7.80318 13.6977 8.10095 13.7826 8.38296L12.293 9.4133C11.6707 8.65256 10.7748 8.12139 9.75395 7.95925V6.19006C11.1921 5.8924 12.2756 4.63323 12.2756 3.12866C12.2756 1.40341 10.8513 0 9.1008 0C7.35031 0 5.92596 1.40341 5.92596 3.12866C5.92596 4.61308 6.98146 5.85671 8.39082 6.17562V7.9678C6.46742 8.30051 5 9.95468 5 11.944C5 13.9431 6.48195 15.6034 8.41924 15.9247V17.8172C6.99547 18.1256 5.92596 19.3768 5.92596 20.8713C5.92596 22.5966 7.35031 24 9.1008 24C10.8513 24 12.2756 22.5966 12.2756 20.8713C12.2756 19.3768 11.2061 18.1256 9.78236 17.8172V15.9247C10.7831 15.7586 11.6626 15.238 12.2785 14.4941L13.7804 15.5417C13.697 15.8212 13.6503 16.116 13.6503 16.4217C13.6503 18.1469 15.0747 19.5503 16.8252 19.5503C18.5756 19.5503 20 18.1469 20 16.4217C20 14.6964 18.5756 13.293 16.8252 13.293ZM16.8252 5.97745C17.674 5.97745 18.3644 6.65811 18.3644 7.49438C18.3644 8.33065 17.674 9.01124 16.8252 9.01124C15.9763 9.01124 15.2859 8.33065 15.2859 7.49438C15.2859 6.65811 15.9763 5.97745 16.8252 5.97745ZM7.56148 3.12866C7.56148 2.29239 8.25195 1.61179 9.1008 1.61179C9.94965 1.61179 10.6401 2.29239 10.6401 3.12866C10.6401 3.96493 9.94965 4.64553 9.1008 4.64553C8.25195 4.64553 7.56148 3.96493 7.56148 3.12866ZM10.6401 20.8713C10.6401 21.7076 9.94965 22.3882 9.1008 22.3882C8.25195 22.3882 7.56148 21.7076 7.56148 20.8713C7.56148 20.0351 8.25195 19.3545 9.1008 19.3545C9.94965 19.3545 10.6401 20.0351 10.6401 20.8713ZM9.10068 14.0596C7.9168 14.0596 6.95369 13.1107 6.95369 11.944C6.95369 10.7774 7.9168 9.82829 9.10068 9.82829C10.2845 9.82829 11.2476 10.7774 11.2476 11.944C11.2476 13.1107 10.2845 14.0596 9.10068 14.0596ZM16.8252 17.9386C15.9763 17.9386 15.2859 17.2579 15.2859 16.4217C15.2859 15.5854 15.9763 14.9048 16.8252 14.9048C17.674 14.9048 18.3644 15.5854 18.3644 16.4217C18.3644 17.2579 17.674 17.9386 16.8252 17.9386Z" fill="black"/>
</svg>
