<svg width="48px" height="48px" viewBox="0 0 48 48" version="1.1" xmlns="http://www.w3.org/2000/svg" xmlns:xlink="http://www.w3.org/1999/xlink">
    <title>Group 2</title>
    <defs>
        <linearGradient x1="100%" y1="99.9925096%" x2="0%" y2="0.00749035616%" id="linearGradient-1">
            <stop stop-color="#FF633D" offset="0%"></stop>
            <stop stop-color="#FF4719" offset="100%"></stop>
        </linearGradient>
    </defs>
    <g id="Symbols" stroke="none" stroke-width="1" fill="none" fill-rule="evenodd">
        <g id="Group-2">
            <path d="M47.3854753,38.7893597 C47.3854753,43.535716 43.5378457,47.3819259 38.7929091,47.3819259 L8.59611567,47.3819259 C3.85188898,47.3819259 0,43.535716 0,38.7893597 L0,8.59327609 C0,3.84620982 3.85188898,0 8.59611567,0 L38.7929091,0 C43.5378457,0 47.3854753,3.84620982 47.3854753,8.59327609 L47.3854753,38.7893597 Z" id="Fill-34" fill="url(#linearGradient-1)"></path>
            <path d="M44.629096,18.7826796 C44.6667204,18.7904884 44.648973,18.8167545 44.629096,18.8167545 C43.9099726,19.9383882 43.1943986,21.0628615 42.4284222,22.1333828 C41.3110478,22.2391572 40.4137409,22.638118 39.4461543,23.0221711 C35.7334047,24.4944928 32.1711528,26.2330251 28.6301977,27.9090866 C27.5610962,28.4152416 26.4976739,28.9093283 25.4200536,29.4140635 C25.0771744,29.5744997 24.7186776,29.8073452 24.3211365,29.7910176 C24.3466927,29.3196475 24.6732443,28.9213965 24.90467,28.5259852 C25.4697462,27.54917 26.0028772,26.5830032 26.4919947,25.3790217 C26.5899602,25.140497 26.7610448,24.8579589 26.7156115,24.6634478 C26.584281,24.0855934 25.0771744,24.5761307 24.7726296,24.6634478 C22.8843095,25.1930293 21.0286446,25.963975 19.366781,26.6795489 C18.2089426,27.1757653 17.046135,27.7209645 15.9628356,28.2519658 C14.8305534,28.8092332 13.6712953,29.2955111 12.7569508,29.9954673 C12.7931555,29.7186084 12.9684995,29.4829233 13.0827925,29.2443987 C13.6627766,28.0297687 14.2974225,26.7604769 14.8624987,25.4826663 C15.0889551,24.9701223 15.3587151,24.4341518 15.447452,23.8420995 C15.1521358,23.589377 14.7624035,23.7462637 14.4756061,23.8420995 C13.6308313,24.1217981 12.7278452,24.5903286 11.9490906,25.0049071 C8.74533555,26.7029754 5.63315691,28.5998142 2.55363344,30.4398614 C2.96608229,29.8236728 3.51625073,29.0875119 3.98052191,28.4223405 C4.14095812,28.1909148 4.26164023,27.9105064 4.43272487,27.7387119 C4.53352993,27.6379068 4.7138432,27.5718866 4.85440236,27.4654024 C6.68806053,26.0931758 8.85394945,24.7145602 10.8771495,23.5347151 C12.4871908,22.597654 14.2491496,21.5874738 16.2553122,20.9350805 C16.647884,20.8094291 18.051346,20.3472876 18.2948399,20.9010055 C18.3892559,21.1118443 18.2813519,21.5164843 18.1982942,21.7237736 C18.0229502,22.1702974 17.6680028,22.6090123 17.3897241,23.0569559 C16.8445249,23.9237374 16.2886773,24.7607033 15.7051438,25.6203859 C15.4297046,26.0271556 15.0037678,26.428956 15.0257745,26.9876432 C15.3587151,27.1360112 15.6384137,26.8066201 15.899655,26.6795489 C17.9001384,25.7034436 20.0369216,24.7841299 22.1176232,23.8420995 C23.8966194,23.0370789 25.6812949,22.2483858 27.5610962,21.5179041 C27.8535728,21.403611 28.1680562,21.262342 28.4981573,21.1764447 C28.8048318,21.0962266 29.2002432,20.9599268 29.5033683,21.2460144 C29.5984942,21.95023 29.2137312,22.5089172 28.9503603,22.9873862 C28.4236183,23.9528431 27.7556074,24.8941636 27.0741084,25.7893409 C26.9399383,25.9668145 26.7645943,26.1691346 26.5558852,26.4410243 C26.3926094,26.6532828 26.0972932,27.00965 26.166153,27.2268778 C26.2314633,27.4228087 26.6013185,27.3795051 26.7816318,27.3298125 C27.2515821,27.1970622 28.2433051,26.7249822 28.5634676,26.5766141 C32.4238753,24.8132356 36.2892523,22.8972296 39.9970326,21.07351 C41.5204668,20.3238611 43.0218942,19.6118366 44.5318404,18.8501196 C44.5630757,18.8352118 44.5857924,18.7869389 44.629096,18.7826796" id="Fill-35" fill="#FFFFFF"></path>
        </g>
    </g>
</svg>