<svg width="24" height="24" viewBox="0 0 24 24" fill="none" xmlns="http://www.w3.org/2000/svg">
<path d="M23.664 8.31682C23.6832 8.31682 23.712 8.31682 23.7216 8.28799C23.7312 8.27838 23.7312 8.26877 23.7312 8.25916C23.7312 8.24005 23.7216 8.22072 23.7024 8.21111C23.6832 8.2015 23.664 8.2015 23.6351 8.2015H23.6159V8.30711H23.664M23.6351 8.15355C23.6832 8.15355 23.712 8.15355 23.7312 8.16316C23.7984 8.18239 23.7984 8.24955 23.7984 8.26877C23.7984 8.27838 23.7984 8.28799 23.7984 8.2975C23.7984 8.31682 23.7888 8.34555 23.7503 8.36477C23.7503 8.36477 23.7407 8.37438 23.7312 8.37438L23.8176 8.52794H23.7312L23.664 8.38389H23.6159V8.52794H23.5392V8.15355H23.6351ZM23.664 8.6816C23.8463 8.6816 24 8.53755 24 8.34555C24 8.15355 23.856 8.00951 23.664 8.00951C23.4816 8.00951 23.3279 8.16316 23.3279 8.34555C23.3279 8.52794 23.4816 8.6816 23.664 8.6816ZM23.4048 8.34555C23.4048 8.2015 23.5199 8.08639 23.6736 8.08639C23.8176 8.08639 23.9327 8.2015 23.9327 8.34555C23.9327 8.4896 23.8176 8.60482 23.6736 8.60482C23.5199 8.61443 23.4048 8.4896 23.4048 8.34555ZM21.072 10.4863C20.6304 10.4863 20.256 10.1887 20.1409 9.78552H22.5888L22.9248 9.25758H20.1409C20.256 8.85437 20.6304 8.55677 21.072 8.55677H22.752L23.088 8.02873H21.0336C20.2079 8.02873 19.5456 8.70082 19.5456 9.51675C19.5456 10.3424 20.2175 11.0048 21.0336 11.0048H22.8001L23.1359 10.4768H21.072M14.064 11.0048H15.84L16.1759 10.4768H14.112C13.5744 10.4768 13.1423 10.0448 13.1423 9.51675C13.1423 8.9792 13.5744 8.55677 14.112 8.55677H15.792L16.1281 8.02873H14.0737C13.2479 8.02873 12.576 8.70082 12.576 9.51675C12.576 10.3424 13.2479 11.0048 14.064 11.0048ZM3.18715 10.4863H1.52636C0.99842 10.4863 0.566377 10.0544 0.566377 9.52636C0.566377 8.98881 0.99842 8.56638 1.52636 8.56638H3.17754C3.71509 8.56638 4.14713 8.99832 4.14713 9.52636C4.14713 10.0544 3.71509 10.4863 3.18715 10.4863ZM1.48792 11.0048H3.21598C4.04152 11.0048 4.7039 10.3424 4.7039 9.51675C4.7039 8.69121 4.04152 8.02873 3.21598 8.02873H1.48792C0.671985 8.02873 0 8.70082 0 9.51675C0 10.3424 0.671985 11.0048 1.48792 11.0048ZM7.52638 10.0448C8.08315 10.0448 8.53431 9.59363 8.53431 9.03676C8.53431 8.47989 8.08315 8.02873 7.52638 8.02873H5.02072V11.0048H5.59681V8.55677H7.48805C7.75682 8.55677 7.96793 8.76798 7.96793 9.03676C7.96793 9.30563 7.75682 9.51675 7.48805 9.51675H5.87509L7.58404 11.0048H8.41919L7.26711 10.0352H7.52638M17.0016 10.4863V8.02873H16.4256V10.7264C16.4256 10.8032 16.4545 10.8703 16.512 10.928C16.5695 10.9856 16.6463 11.0144 16.7232 11.0144H19.3344L19.6704 10.4863H17.0016ZM9.9936 9.9584H11.52L10.7136 8.65276L9.22551 11.0048H8.54392L10.3488 8.18239C10.4255 8.06717 10.56 8 10.704 8C10.848 8 10.9728 8.06717 11.0496 8.18239L12.8639 11.0144H12.192L11.8752 10.4863H10.3296L9.9936 9.9584Z" fill="black"/>
<path d="M0.278564 12.8002H1.03687L1.9581 14.7298V12.8002H2.44838V15.2576H1.72761L0.777846 13.2124V15.2478H0.278564V12.8002Z" fill="black"/>
<path d="M3.0047 12.8002H4.6467V13.2034H3.53251V13.789H4.57913V14.1922H3.53251V14.8544H4.68499V15.2576H3.0047V12.8002Z" fill="black"/>
<path d="M5.70231 13.2034H4.97253V12.8002H6.96966V13.2034H6.23988V15.2576H5.71207V13.2034H5.70231Z" fill="black"/>
<path d="M7.60315 14.5376C7.61276 14.7103 7.63198 15.0272 8.19825 15.0272C8.70707 15.0272 8.77434 14.7103 8.77434 14.5856C8.77434 14.3072 8.55362 14.2592 8.20796 14.1728C7.83348 14.0768 7.67042 14.0384 7.54549 13.952C7.34398 13.8175 7.28632 13.6351 7.28632 13.472C7.28632 12.9728 7.75681 12.752 8.21758 12.752C8.38074 12.752 8.70707 12.7808 8.90878 12.992C9.04311 13.1456 9.05273 13.3088 9.06234 13.4144H8.70707C8.68795 13.1071 8.42869 13.0399 8.18874 13.0399C7.8528 13.0399 7.64148 13.1936 7.64148 13.4335C7.64148 13.6544 7.78553 13.7215 8.08314 13.7984C8.66873 13.952 8.73601 13.9616 8.87995 14.0576C9.11039 14.2112 9.12 14.4416 9.12 14.5472C9.12 14.9791 8.78395 15.3152 8.1503 15.3152C7.96792 15.3152 7.58403 15.2864 7.39203 15.0368C7.24799 14.8544 7.24799 14.6624 7.24799 14.5376H7.60315Z" fill="black"/>
<path d="M10.0032 12.8V14.3167C10.0032 14.576 10.0608 14.6911 10.1087 14.7584C10.2624 14.96 10.5023 14.9983 10.6656 14.9983C11.328 14.9983 11.328 14.48 11.328 14.2976V12.8H11.6543V14.3167C11.6543 14.4512 11.6543 14.7199 11.4528 14.9695C11.2127 15.2768 10.8384 15.3055 10.656 15.3055C10.4255 15.3055 10.0128 15.2384 9.792 14.912C9.71522 14.8063 9.64795 14.6624 9.64795 14.2976V12.8H10.0032Z" fill="black"/>
<path d="M12.3649 15.2576H12.7005V12.8002H12.3649V15.2576Z" fill="black"/>
<path d="M14.0257 15.2576V13.0878H13.1998V12.8002H15.1774V13.0878H14.3523V15.2576H14.0257Z" fill="black"/>
<path d="M15.5903 12.8002H17.1265V13.0878H15.9267V13.8559H17.0687V14.1442H15.9267V14.9603H17.155V15.2576H15.5903V12.8002Z" fill="black"/>
</svg>
