<svg width="32" height="32" viewBox="0 0 32 32" fill="none" xmlns="http://www.w3.org/2000/svg">
<g clip-path="url(#clip0_1444_5500)">
<path d="M16 0C7.2 0 0 7.2 0 16C0 24.8 7.2 32 16 32C24.8 32 32 24.8 32 16C32 7.2 24.8 0 16 0ZM24.7 12.4L22.4 14.7L24.1 16.4C24.5 16.8 24.5 17.4 24.1 17.8C23.7 18.2 23.1 18.2 22.7 17.8L22.5 17.6L18.8 21.3C18.5 21.6 18.1 21.9 17.7 22C17.3 22.2 16.8 22.3 16.4 22.3C15.9 22.3 15.5 22.2 15.1 22C14.7 21.8 14.3 21.6 14 21.3L13.1 20.4L9.4 24C9 24.4 8.4 24.4 8 24C7.6 23.6 7.6 23 8 22.6L11.6 19L10.7 18.1C10.4 17.8 10.1 17.4 10 17C9.8 16.6 9.7 16.1 9.7 15.7C9.7 15.2 9.8 14.8 10 14.4C10.2 14 10.4 13.6 10.7 13.3L14.4 9.6L14.2 9.4C13.8 9 13.8 8.4 14.2 8C14.6 7.6 15.2 7.6 15.6 8L17.3 9.7L19.6 7.4C20 7 20.6 7 21 7.3C21.4 7.7 21.4 8.3 21 8.7L18.7 11L21 13.3L23.3 11C23.7 10.6 24.3 10.6 24.7 11C25 11.4 25 12 24.7 12.4Z" fill="#2196F3"/>
</g>
<defs>
<clipPath id="clip0_1444_5500">
<rect width="32" height="32" fill="white"/>
</clipPath>
</defs>
</svg>
