<svg xmlns="http://www.w3.org/2000/svg" xmlns:xlink="http://www.w3.org/1999/xlink" width="65px" height="25px" viewBox="0 0 64 25" version="1.1">
<g id="surface1">
<path style=" stroke:none;fill-rule:nonzero;fill:rgb(16.470589%,11.372549%,30.19608%);fill-opacity:1;" d="M 23.265625 4.183594 C 20.886719 4.183594 18.949219 6.15625 18.949219 8.578125 C 18.949219 11.003906 20.886719 12.988281 23.265625 12.988281 C 25.644531 12.988281 27.570312 11.011719 27.570312 8.578125 C 27.570312 6.148438 25.636719 4.183594 23.265625 4.183594 M 23.253906 11.074219 C 21.9375 11.074219 20.980469 10.023438 20.980469 8.578125 C 20.980469 7.132812 21.9375 6.097656 23.253906 6.097656 C 24.570312 6.097656 25.539062 7.164062 25.539062 8.578125 C 25.539062 9.992188 24.554688 11.074219 23.253906 11.074219 "/>
<path style=" stroke:none;fill-rule:nonzero;fill:rgb(16.470589%,11.372549%,30.19608%);fill-opacity:1;" d="M 43.292969 4.324219 L 43.292969 8.515625 L 40.226562 4.324219 L 38.300781 4.324219 L 38.300781 12.84375 L 40.457031 12.84375 L 40.457031 8.59375 L 43.589844 12.84375 L 45.445312 12.84375 L 45.445312 4.324219 Z M 43.292969 4.324219 "/>
<path style=" stroke:none;fill-rule:nonzero;fill:rgb(16.470589%,11.372549%,30.19608%);fill-opacity:1;" d="M 50.808594 4.324219 L 47.269531 4.324219 L 47.269531 12.84375 L 50.808594 12.84375 C 53.121094 12.84375 54.675781 11.140625 54.675781 8.601562 C 54.675781 6.066406 53.121094 4.324219 50.808594 4.324219 M 49.425781 6.257812 L 50.808594 6.257812 C 51.976562 6.257812 52.507812 7.472656 52.507812 8.601562 C 52.507812 9.734375 51.976562 10.910156 50.808594 10.910156 L 49.425781 10.910156 C 49.425781 10.910156 49.425781 6.257812 49.425781 6.257812 Z M 49.425781 6.257812 "/>
<path style=" stroke:none;fill-rule:nonzero;fill:rgb(16.470589%,11.372549%,30.19608%);fill-opacity:1;" d="M 34.722656 12.84375 L 37.03125 12.84375 L 33.585938 4.324219 L 32.511719 4.328125 L 31.441406 4.324219 L 27.992188 12.84375 L 30.300781 12.84375 L 30.996094 10.917969 L 34.03125 10.917969 Z M 31.675781 9.015625 L 32.511719 6.691406 L 33.347656 9.015625 Z M 31.675781 9.015625 "/>
<path style=" stroke:none;fill-rule:nonzero;fill:rgb(16.470589%,11.372549%,30.19608%);fill-opacity:1;" d="M 61.675781 12.84375 L 63.988281 12.84375 L 60.539062 4.324219 L 59.46875 4.328125 L 58.394531 4.324219 L 54.949219 12.84375 L 57.257812 12.84375 L 57.949219 10.917969 L 60.984375 10.917969 Z M 58.632812 9.015625 L 59.464844 6.691406 L 60.300781 9.015625 Z M 58.632812 9.015625 "/>
<path style=" stroke:none;fill-rule:nonzero;fill:rgb(16.470589%,11.372549%,30.19608%);fill-opacity:1;" d="M 3.667969 11.375 L 1.25 11.375 L 0.0117188 6.632812 L 2.429688 6.632812 Z M 3.667969 11.375 "/>
<path style=" stroke:none;fill-rule:nonzero;fill:rgb(0%,82.745099%,49.411765%);fill-opacity:1;" d="M 13.9375 7.300781 L 11.523438 7.300781 L 13.464844 0 L 15.878906 0 Z M 13.9375 7.300781 "/>
<path style=" stroke:none;fill-rule:nonzero;fill:rgb(0%,82.745099%,49.411765%);fill-opacity:1;" d="M 9.089844 3.652344 L 7.046875 11.332031 L 5.855469 15.820312 L 8.269531 15.820312 L 11.503906 3.652344 Z M 9.089844 3.652344 "/>
<path style=" stroke:none;fill-rule:nonzero;fill:rgb(16.470589%,11.372549%,30.19608%);fill-opacity:1;" d="M 6.269531 8.429688 L 3.855469 8.429688 L 5.800781 15.820312 L 8.242188 15.820312 Z M 6.269531 8.429688 "/>
<path style=" stroke:none;fill-rule:nonzero;fill:rgb(0%,82.745099%,49.411765%);fill-opacity:1;" d="M 18.949219 14.640625 L 63.988281 14.640625 L 63.988281 21.304688 L 18.949219 21.304688 Z M 18.949219 14.640625 "/>
<path style=" stroke:none;fill-rule:nonzero;fill:rgb(16.470589%,11.372549%,30.19608%);fill-opacity:1;" d="M 19.324219 24.921875 C 19.226562 24.875 19.148438 24.808594 19.09375 24.722656 C 19.039062 24.636719 19.011719 24.539062 19.011719 24.425781 L 19.425781 24.425781 C 19.425781 24.464844 19.4375 24.5 19.457031 24.535156 C 19.480469 24.566406 19.511719 24.59375 19.554688 24.609375 C 19.59375 24.628906 19.636719 24.636719 19.683594 24.636719 C 19.726562 24.636719 19.769531 24.628906 19.804688 24.613281 C 19.839844 24.597656 19.871094 24.578125 19.890625 24.546875 C 19.910156 24.519531 19.921875 24.488281 19.921875 24.449219 C 19.921875 24.410156 19.90625 24.371094 19.878906 24.339844 C 19.847656 24.308594 19.792969 24.28125 19.71875 24.257812 L 19.503906 24.191406 C 19.324219 24.140625 19.199219 24.070312 19.128906 23.972656 C 19.0625 23.875 19.027344 23.773438 19.027344 23.664062 C 19.027344 23.558594 19.054688 23.460938 19.109375 23.375 C 19.167969 23.289062 19.242188 23.222656 19.339844 23.175781 C 19.4375 23.125 19.542969 23.101562 19.664062 23.101562 C 19.785156 23.101562 19.886719 23.125 19.980469 23.171875 C 20.074219 23.214844 20.144531 23.28125 20.199219 23.367188 C 20.253906 23.453125 20.28125 23.550781 20.28125 23.667969 L 19.867188 23.667969 C 19.867188 23.609375 19.851562 23.558594 19.816406 23.523438 C 19.777344 23.484375 19.726562 23.464844 19.65625 23.464844 C 19.617188 23.464844 19.578125 23.472656 19.546875 23.492188 C 19.511719 23.511719 19.488281 23.53125 19.46875 23.558594 C 19.453125 23.585938 19.441406 23.617188 19.441406 23.652344 C 19.441406 23.683594 19.453125 23.714844 19.476562 23.742188 C 19.5 23.773438 19.550781 23.800781 19.625 23.824219 L 19.8125 23.882812 C 19.972656 23.933594 20.097656 24 20.191406 24.082031 C 20.289062 24.164062 20.335938 24.277344 20.335938 24.425781 C 20.335938 24.550781 20.304688 24.65625 20.238281 24.742188 C 20.175781 24.828125 20.09375 24.890625 19.992188 24.933594 C 19.890625 24.972656 19.785156 24.996094 19.664062 24.996094 C 19.539062 24.996094 19.421875 24.96875 19.324219 24.921875 Z M 19.324219 24.921875 "/>
<path style=" stroke:none;fill-rule:nonzero;fill:rgb(16.470589%,11.372549%,30.19608%);fill-opacity:1;" d="M 23.097656 23.132812 L 23.441406 23.132812 L 24.023438 24.386719 L 23.921875 24.390625 L 24.496094 23.132812 L 24.84375 23.132812 L 25.0625 24.964844 L 24.640625 24.964844 L 24.511719 23.800781 L 24.574219 23.8125 L 24.128906 24.75 L 23.816406 24.75 L 23.363281 23.8125 L 23.429688 23.804688 L 23.292969 24.964844 L 22.871094 24.964844 L 23.097656 23.136719 Z M 23.097656 23.132812 "/>
<path style=" stroke:none;fill-rule:nonzero;fill:rgb(16.470589%,11.372549%,30.19608%);fill-opacity:1;" d="M 28.144531 23.132812 L 28.59375 23.132812 L 29.265625 24.964844 L 28.824219 24.964844 L 28.316406 23.375 L 28.417969 23.375 L 27.914062 24.964844 L 27.472656 24.964844 Z M 28.039062 24.175781 L 28.679688 24.175781 L 28.804688 24.535156 L 27.910156 24.535156 Z M 28.039062 24.175781 "/>
<path style=" stroke:none;fill-rule:nonzero;fill:rgb(16.470589%,11.372549%,30.19608%);fill-opacity:1;" d="M 31.765625 23.132812 L 32.507812 23.132812 C 32.640625 23.132812 32.753906 23.164062 32.84375 23.21875 C 32.9375 23.277344 33.003906 23.351562 33.050781 23.445312 C 33.09375 23.535156 33.117188 23.636719 33.117188 23.738281 C 33.117188 23.835938 33.09375 23.925781 33.042969 24.011719 C 32.996094 24.101562 32.933594 24.171875 32.851562 24.226562 C 32.773438 24.28125 32.6875 24.308594 32.601562 24.308594 L 32.554688 24.308594 L 32.648438 24.230469 L 33.15625 24.960938 L 32.675781 24.960938 L 32.230469 24.273438 L 32.347656 24.320312 L 31.988281 24.320312 L 31.988281 23.992188 L 32.4375 23.992188 C 32.523438 23.992188 32.589844 23.96875 32.636719 23.921875 C 32.679688 23.875 32.703125 23.816406 32.703125 23.75 C 32.703125 23.683594 32.679688 23.625 32.636719 23.570312 C 32.589844 23.519531 32.527344 23.496094 32.449219 23.496094 L 32.089844 23.496094 L 32.175781 23.40625 L 32.175781 24.960938 L 31.765625 24.960938 Z M 31.765625 23.132812 "/>
<path style=" stroke:none;fill-rule:nonzero;fill:rgb(16.470589%,11.372549%,30.19608%);fill-opacity:1;" d="M 35.574219 23.132812 L 36.949219 23.132812 L 36.949219 23.496094 L 35.574219 23.496094 Z M 36.054688 23.414062 L 36.464844 23.414062 L 36.464844 24.964844 L 36.054688 24.964844 Z M 36.054688 23.414062 "/>
<path style=" stroke:none;fill-rule:nonzero;fill:rgb(16.470589%,11.372549%,30.19608%);fill-opacity:1;" d="M 39.527344 23.132812 L 40.691406 23.132812 L 40.691406 23.496094 L 39.773438 23.496094 L 39.9375 23.328125 L 39.9375 24.769531 L 39.773438 24.601562 L 40.714844 24.601562 L 40.714844 24.964844 L 39.527344 24.964844 Z M 39.824219 23.878906 L 40.597656 23.878906 L 40.597656 24.25 L 39.824219 24.25 Z M 39.824219 23.878906 "/>
<path style=" stroke:none;fill-rule:nonzero;fill:rgb(16.470589%,11.372549%,30.19608%);fill-opacity:1;" d="M 43.367188 23.132812 L 44.109375 23.132812 C 44.242188 23.132812 44.351562 23.164062 44.445312 23.21875 C 44.539062 23.277344 44.605469 23.351562 44.652344 23.445312 C 44.695312 23.535156 44.71875 23.636719 44.71875 23.738281 C 44.71875 23.835938 44.695312 23.925781 44.644531 24.011719 C 44.597656 24.101562 44.535156 24.171875 44.453125 24.226562 C 44.375 24.28125 44.289062 24.308594 44.203125 24.308594 L 44.15625 24.308594 L 44.25 24.230469 L 44.757812 24.960938 L 44.277344 24.960938 L 43.832031 24.273438 L 43.949219 24.320312 L 43.589844 24.320312 L 43.589844 23.992188 L 44.039062 23.992188 C 44.125 23.992188 44.191406 23.96875 44.238281 23.921875 C 44.28125 23.875 44.304688 23.816406 44.304688 23.75 C 44.304688 23.683594 44.28125 23.625 44.238281 23.570312 C 44.191406 23.519531 44.128906 23.496094 44.050781 23.496094 L 43.691406 23.496094 L 43.777344 23.40625 L 43.777344 24.960938 L 43.367188 24.960938 Z M 43.367188 23.132812 "/>
<path style=" stroke:none;fill-rule:nonzero;fill:rgb(16.470589%,11.372549%,30.19608%);fill-opacity:1;" d="M 50.300781 23.132812 L 51.015625 23.132812 C 51.183594 23.132812 51.332031 23.175781 51.457031 23.253906 C 51.582031 23.332031 51.675781 23.441406 51.742188 23.582031 C 51.804688 23.71875 51.839844 23.875 51.839844 24.050781 C 51.839844 24.226562 51.804688 24.382812 51.742188 24.519531 C 51.675781 24.65625 51.582031 24.765625 51.457031 24.84375 C 51.332031 24.921875 51.183594 24.960938 51.015625 24.960938 L 50.300781 24.960938 Z M 50.546875 24.601562 L 51.015625 24.601562 C 51.101562 24.601562 51.179688 24.578125 51.238281 24.527344 C 51.300781 24.476562 51.347656 24.410156 51.378906 24.324219 C 51.410156 24.238281 51.425781 24.148438 51.425781 24.050781 C 51.425781 23.957031 51.410156 23.863281 51.378906 23.777344 C 51.347656 23.691406 51.300781 23.625 51.238281 23.570312 C 51.175781 23.519531 51.101562 23.496094 51.015625 23.496094 L 50.546875 23.496094 L 50.710938 23.328125 L 50.710938 24.769531 Z M 50.546875 24.601562 "/>
<path style=" stroke:none;fill-rule:nonzero;fill:rgb(16.470589%,11.372549%,30.19608%);fill-opacity:1;" d="M 54.886719 23.132812 L 55.335938 23.132812 L 56.007812 24.964844 L 55.566406 24.964844 L 55.058594 23.375 L 55.160156 23.375 L 54.65625 24.964844 L 54.214844 24.964844 Z M 54.78125 24.175781 L 55.421875 24.175781 L 55.546875 24.535156 L 54.652344 24.535156 Z M 54.78125 24.175781 "/>
<path style=" stroke:none;fill-rule:nonzero;fill:rgb(16.470589%,11.372549%,30.19608%);fill-opacity:1;" d="M 58.203125 23.132812 L 59.578125 23.132812 L 59.578125 23.496094 L 58.203125 23.496094 Z M 58.683594 23.414062 L 59.09375 23.414062 L 59.09375 24.964844 L 58.683594 24.964844 Z M 58.683594 23.414062 "/>
<path style=" stroke:none;fill-rule:nonzero;fill:rgb(16.470589%,11.372549%,30.19608%);fill-opacity:1;" d="M 62.449219 23.132812 L 62.894531 23.132812 L 63.566406 24.964844 L 63.128906 24.964844 L 62.621094 23.375 L 62.71875 23.375 L 62.214844 24.964844 L 61.773438 24.964844 Z M 62.339844 24.175781 L 62.980469 24.175781 L 63.105469 24.535156 L 62.214844 24.535156 Z M 62.339844 24.175781 "/>
<path style=" stroke:none;fill-rule:nonzero;fill:rgb(16.470589%,11.372549%,30.19608%);fill-opacity:1;" d="M 22.605469 16.402344 L 24.441406 16.402344 L 24.441406 16.820312 L 22.875 16.820312 L 23.054688 16.636719 L 23.054688 19.542969 L 22.605469 19.542969 Z M 22.910156 17.792969 L 24.152344 17.792969 L 24.152344 18.207031 L 22.910156 18.207031 Z M 22.910156 17.792969 "/>
<path style=" stroke:none;fill-rule:nonzero;fill:rgb(16.470589%,11.372549%,30.19608%);fill-opacity:1;" d="M 25.84375 17.683594 L 25.847656 18.03125 L 24.761719 16.402344 L 25.300781 16.402344 L 26.113281 17.664062 L 25.890625 17.664062 L 26.707031 16.402344 L 27.242188 16.402344 L 26.15625 18.023438 L 26.15625 17.683594 L 27.355469 19.542969 L 26.820312 19.542969 L 25.894531 18.054688 L 26.109375 18.054688 L 25.179688 19.542969 L 24.644531 19.542969 Z M 25.84375 17.683594 "/>
<path style=" stroke:none;fill-rule:nonzero;fill:rgb(16.470589%,11.372549%,30.19608%);fill-opacity:1;" d="M 28.910156 16.402344 L 30.121094 16.402344 C 30.410156 16.402344 30.660156 16.472656 30.871094 16.609375 C 31.082031 16.746094 31.246094 16.933594 31.359375 17.171875 C 31.472656 17.410156 31.527344 17.679688 31.527344 17.980469 C 31.527344 18.28125 31.472656 18.542969 31.359375 18.78125 C 31.246094 19.019531 31.082031 19.203125 30.871094 19.339844 C 30.660156 19.476562 30.410156 19.542969 30.121094 19.542969 L 28.910156 19.542969 Z M 29.175781 19.125 L 30.121094 19.125 C 30.324219 19.125 30.496094 19.074219 30.640625 18.976562 C 30.785156 18.875 30.894531 18.742188 30.964844 18.566406 C 31.039062 18.394531 31.074219 18.199219 31.074219 17.980469 C 31.074219 17.761719 31.039062 17.5625 30.964844 17.390625 C 30.894531 17.214844 30.785156 17.078125 30.640625 16.972656 C 30.496094 16.871094 30.324219 16.820312 30.121094 16.820312 L 29.175781 16.820312 L 29.355469 16.632812 L 29.355469 19.308594 L 29.175781 19.121094 Z M 29.175781 19.125 "/>
<path style=" stroke:none;fill-rule:nonzero;fill:rgb(16.470589%,11.372549%,30.19608%);fill-opacity:1;" d="M 32.914062 16.402344 L 33.394531 16.402344 L 34.570312 19.542969 L 34.101562 19.542969 L 33.09375 16.808594 L 33.214844 16.808594 L 32.207031 19.542969 L 31.730469 19.542969 L 32.917969 16.402344 Z M 32.421875 18.347656 L 33.835938 18.347656 L 33.988281 18.75 L 32.273438 18.75 Z M 32.421875 18.347656 "/>
<path style=" stroke:none;fill-rule:nonzero;fill:rgb(16.470589%,11.372549%,30.19608%);fill-opacity:1;" d="M 34.414062 16.402344 L 36.730469 16.402344 L 36.730469 16.820312 L 34.414062 16.820312 Z M 35.347656 16.738281 L 35.796875 16.738281 L 35.796875 19.542969 L 35.347656 19.542969 Z M 35.347656 16.738281 "/>
<path style=" stroke:none;fill-rule:nonzero;fill:rgb(16.470589%,11.372549%,30.19608%);fill-opacity:1;" d="M 37.757812 16.402344 L 38.238281 16.402344 L 39.414062 19.542969 L 38.941406 19.542969 L 37.933594 16.808594 L 38.058594 16.808594 L 37.046875 19.542969 L 36.574219 19.542969 Z M 37.265625 18.347656 L 38.675781 18.347656 L 38.832031 18.75 L 37.117188 18.75 Z M 37.265625 18.347656 "/>
<path style=" stroke:none;fill-rule:nonzero;fill:rgb(16.470589%,11.372549%,30.19608%);fill-opacity:1;" d="M 41.226562 19.46875 C 41.0625 19.378906 40.929688 19.265625 40.835938 19.117188 C 40.738281 18.96875 40.695312 18.808594 40.695312 18.640625 L 41.140625 18.640625 C 41.140625 18.734375 41.167969 18.824219 41.226562 18.902344 C 41.285156 18.984375 41.363281 19.054688 41.460938 19.105469 C 41.5625 19.15625 41.675781 19.183594 41.800781 19.183594 C 41.925781 19.183594 42.03125 19.160156 42.121094 19.113281 C 42.210938 19.066406 42.28125 19.003906 42.328125 18.925781 C 42.375 18.847656 42.398438 18.761719 42.398438 18.671875 C 42.398438 18.539062 42.347656 18.433594 42.253906 18.355469 C 42.15625 18.28125 42.035156 18.222656 41.886719 18.183594 L 41.488281 18.082031 C 41.191406 18.011719 40.992188 17.898438 40.882812 17.75 C 40.773438 17.597656 40.71875 17.4375 40.71875 17.265625 C 40.71875 17.089844 40.765625 16.929688 40.859375 16.792969 C 40.953125 16.652344 41.078125 16.546875 41.238281 16.464844 C 41.394531 16.386719 41.566406 16.347656 41.746094 16.347656 C 41.925781 16.347656 42.101562 16.386719 42.253906 16.460938 C 42.40625 16.539062 42.527344 16.644531 42.613281 16.785156 C 42.703125 16.925781 42.746094 17.085938 42.746094 17.273438 L 42.296875 17.273438 C 42.300781 17.125 42.25 17.003906 42.144531 16.910156 C 42.039062 16.816406 41.902344 16.765625 41.734375 16.765625 C 41.636719 16.765625 41.542969 16.789062 41.457031 16.828125 C 41.371094 16.871094 41.300781 16.929688 41.246094 17.003906 C 41.195312 17.078125 41.167969 17.164062 41.167969 17.257812 C 41.167969 17.339844 41.195312 17.414062 41.25 17.492188 C 41.308594 17.566406 41.421875 17.628906 41.597656 17.675781 L 42 17.785156 C 42.273438 17.855469 42.484375 17.964844 42.632812 18.109375 C 42.777344 18.253906 42.851562 18.433594 42.851562 18.652344 C 42.851562 18.824219 42.804688 18.980469 42.71875 19.125 C 42.632812 19.269531 42.507812 19.382812 42.351562 19.46875 C 42.191406 19.554688 42.007812 19.597656 41.796875 19.597656 C 41.585938 19.597656 41.394531 19.554688 41.226562 19.46875 Z M 41.226562 19.46875 "/>
<path style=" stroke:none;fill-rule:nonzero;fill:rgb(16.470589%,11.372549%,30.19608%);fill-opacity:1;" d="M 43.488281 16.402344 L 45.347656 16.402344 L 45.347656 16.820312 L 43.75 16.820312 L 43.929688 16.636719 L 43.929688 19.3125 L 43.75 19.125 L 45.390625 19.125 L 45.390625 19.542969 L 43.488281 19.542969 Z M 43.761719 17.789062 L 45.164062 17.789062 L 45.164062 18.207031 L 43.761719 18.207031 Z M 43.761719 17.789062 "/>
<path style=" stroke:none;fill-rule:nonzero;fill:rgb(16.470589%,11.372549%,30.19608%);fill-opacity:1;" d="M 46.054688 16.402344 L 47.242188 16.402344 C 47.453125 16.402344 47.632812 16.449219 47.777344 16.542969 C 47.917969 16.636719 48.023438 16.757812 48.09375 16.910156 C 48.160156 17.058594 48.195312 17.21875 48.195312 17.390625 C 48.195312 17.554688 48.160156 17.714844 48.089844 17.863281 C 48.019531 18.015625 47.921875 18.140625 47.789062 18.230469 C 47.65625 18.324219 47.496094 18.371094 47.308594 18.371094 L 47.230469 18.371094 L 47.289062 18.226562 L 48.210938 19.542969 L 47.679688 19.542969 L 46.777344 18.234375 L 47.046875 18.367188 L 46.304688 18.367188 L 46.304688 17.964844 L 47.125 17.964844 C 47.335938 17.964844 47.492188 17.914062 47.59375 17.8125 C 47.691406 17.710938 47.742188 17.570312 47.742188 17.390625 C 47.742188 17.222656 47.695312 17.082031 47.601562 16.980469 C 47.511719 16.875 47.386719 16.820312 47.234375 16.820312 L 46.332031 16.820312 L 46.5 16.648438 L 46.5 19.542969 L 46.054688 19.542969 Z M 46.054688 16.402344 "/>
<path style=" stroke:none;fill-rule:nonzero;fill:rgb(16.470589%,11.372549%,30.19608%);fill-opacity:1;" d="M 48.503906 16.402344 L 48.96875 16.402344 L 49.71875 18.980469 L 49.601562 18.980469 L 50.347656 16.402344 L 50.808594 16.402344 L 49.867188 19.542969 L 49.453125 19.542969 Z M 48.503906 16.402344 "/>
<path style=" stroke:none;fill-rule:nonzero;fill:rgb(16.470589%,11.372549%,30.19608%);fill-opacity:1;" d="M 51.359375 16.402344 L 51.808594 16.402344 L 51.808594 19.542969 L 51.359375 19.542969 Z M 51.359375 16.402344 "/>
<path style=" stroke:none;fill-rule:nonzero;fill:rgb(16.470589%,11.372549%,30.19608%);fill-opacity:1;" d="M 53.242188 19.378906 C 53 19.234375 52.808594 19.035156 52.667969 18.789062 C 52.527344 18.539062 52.457031 18.269531 52.457031 17.980469 C 52.457031 17.6875 52.527344 17.417969 52.667969 17.164062 C 52.808594 16.914062 53 16.714844 53.242188 16.570312 C 53.480469 16.421875 53.746094 16.347656 54.035156 16.347656 C 54.277344 16.347656 54.5 16.394531 54.707031 16.496094 C 54.910156 16.59375 55.085938 16.730469 55.230469 16.902344 L 54.898438 17.171875 C 54.796875 17.046875 54.667969 16.949219 54.519531 16.878906 C 54.367188 16.808594 54.210938 16.769531 54.039062 16.769531 C 53.832031 16.769531 53.640625 16.824219 53.464844 16.933594 C 53.292969 17.046875 53.15625 17.191406 53.054688 17.378906 C 52.957031 17.5625 52.90625 17.761719 52.90625 17.980469 C 52.90625 18.195312 52.957031 18.390625 53.054688 18.574219 C 53.15625 18.757812 53.289062 18.902344 53.464844 19.011719 C 53.636719 19.121094 53.828125 19.171875 54.039062 19.171875 C 54.210938 19.171875 54.367188 19.136719 54.519531 19.066406 C 54.667969 18.996094 54.796875 18.894531 54.898438 18.769531 L 55.230469 19.046875 C 55.085938 19.214844 54.910156 19.351562 54.707031 19.449219 C 54.5 19.546875 54.277344 19.597656 54.035156 19.597656 C 53.746094 19.597656 53.480469 19.523438 53.242188 19.378906 Z M 53.242188 19.378906 "/>
<path style=" stroke:none;fill-rule:nonzero;fill:rgb(16.470589%,11.372549%,30.19608%);fill-opacity:1;" d="M 55.804688 16.402344 L 57.664062 16.402344 L 57.664062 16.820312 L 56.066406 16.820312 L 56.25 16.636719 L 56.25 19.3125 L 56.066406 19.125 L 57.707031 19.125 L 57.707031 19.542969 L 55.804688 19.542969 Z M 56.078125 17.789062 L 57.480469 17.789062 L 57.480469 18.207031 L 56.078125 18.207031 Z M 56.078125 17.789062 "/>
<path style=" stroke:none;fill-rule:nonzero;fill:rgb(16.470589%,11.372549%,30.19608%);fill-opacity:1;" d="M 58.707031 19.46875 C 58.542969 19.378906 58.410156 19.265625 58.316406 19.117188 C 58.222656 18.96875 58.175781 18.808594 58.179688 18.640625 L 58.621094 18.640625 C 58.621094 18.734375 58.648438 18.824219 58.707031 18.902344 C 58.765625 18.984375 58.84375 19.054688 58.941406 19.105469 C 59.042969 19.15625 59.15625 19.183594 59.28125 19.183594 C 59.40625 19.183594 59.511719 19.160156 59.601562 19.113281 C 59.691406 19.066406 59.761719 19.003906 59.808594 18.925781 C 59.855469 18.847656 59.878906 18.761719 59.878906 18.671875 C 59.878906 18.539062 59.832031 18.433594 59.734375 18.355469 C 59.636719 18.28125 59.515625 18.222656 59.367188 18.183594 L 58.96875 18.082031 C 58.675781 18.011719 58.472656 17.898438 58.363281 17.75 C 58.253906 17.597656 58.199219 17.4375 58.199219 17.265625 C 58.199219 17.089844 58.246094 16.929688 58.339844 16.792969 C 58.433594 16.652344 58.558594 16.546875 58.71875 16.464844 C 58.875 16.386719 59.046875 16.347656 59.226562 16.347656 C 59.40625 16.347656 59.582031 16.386719 59.734375 16.460938 C 59.886719 16.539062 60.007812 16.644531 60.09375 16.785156 C 60.183594 16.925781 60.226562 17.085938 60.226562 17.273438 L 59.777344 17.273438 C 59.78125 17.125 59.730469 17.003906 59.625 16.910156 C 59.519531 16.816406 59.382812 16.765625 59.214844 16.765625 C 59.117188 16.765625 59.023438 16.789062 58.9375 16.828125 C 58.851562 16.871094 58.78125 16.929688 58.726562 17.003906 C 58.675781 17.078125 58.648438 17.164062 58.648438 17.257812 C 58.648438 17.339844 58.675781 17.414062 58.734375 17.492188 C 58.789062 17.566406 58.902344 17.628906 59.078125 17.675781 L 59.480469 17.785156 C 59.753906 17.855469 59.964844 17.964844 60.113281 18.109375 C 60.257812 18.253906 60.332031 18.433594 60.332031 18.652344 C 60.332031 18.824219 60.289062 18.980469 60.199219 19.125 C 60.113281 19.269531 59.988281 19.382812 59.832031 19.46875 C 59.671875 19.554688 59.488281 19.597656 59.277344 19.597656 C 59.066406 19.597656 58.875 19.554688 58.707031 19.46875 Z M 58.707031 19.46875 "/>
</g>
</svg>
