<svg width="24" height="24" viewBox="0 0 24 24" fill="none" xmlns="http://www.w3.org/2000/svg">
<g clip-path="url(#clip0_316_314)">
<path d="M14.3526 15.5324L8.46651 14.3023C8.44138 14.3503 8.41438 14.3969 8.38438 14.4407L13.7428 22.2573L14.0661 21.9345L14.9777 16.2655C14.6676 16.1354 14.4344 15.8635 14.3526 15.5324ZM12.2053 7.838C11.9848 8.17625 11.6042 8.40013 11.1707 8.40013C11.1039 8.40013 11.039 8.39338 10.9753 8.38326L8.291 12.5833L15.4626 9.49702C15.4604 9.46815 15.454 9.44115 15.454 9.41152C15.454 9.35115 15.4622 9.29265 15.472 9.23489L12.2053 7.838ZM12.4003 7.07261L15.8751 8.55838C15.985 8.47251 16.1103 8.40876 16.2479 8.37013L16.819 4.81883L14.6432 2.64304L12.1941 6.47523C12.3114 6.64848 12.3842 6.85248 12.4003 7.07261ZM19.6814 7.68125L17.5008 5.50021L17.0268 8.44476C17.1475 8.50588 17.2551 8.58726 17.3451 8.68701L19.6814 7.68125ZM14.4569 14.7569C14.6267 14.4497 14.9402 14.2375 15.3089 14.209L15.9351 10.3138C15.886 10.2812 15.8421 10.2422 15.799 10.202L8.58613 13.3063C8.60451 13.3817 8.61726 13.4586 8.62326 13.5385L14.4569 14.7569ZM20.2754 8.27563L17.7524 9.36127L23.9775 12.0227L24 12.0002L20.2754 8.27563ZM15.7667 16.2771L15.0085 20.9913L19.4114 16.5884L16.24 15.9261C16.1189 16.084 15.9565 16.2063 15.7667 16.2771ZM7.20874 15.0651C7.04936 15.0651 6.89673 15.0377 6.75386 14.9894L5.29133 17.278L4.7262 16.7133L6.11147 14.5457C6.07697 14.5034 6.04547 14.4587 6.01584 14.413L3.5063 15.4934L2.91155 14.8986L5.65846 13.7162L0.692261 12.6797L0.0131252 12.0002L0.228004 11.7853L5.95472 12.9808C6.02109 12.8556 6.10547 12.7404 6.20485 12.6418L3.4253 8.58763L3.98669 8.02625L6.89073 12.2623C6.99311 12.2391 7.09924 12.2252 7.20874 12.2252C7.33136 12.2252 7.45024 12.2424 7.56387 12.2717L10.2812 8.01988C10.0682 7.79787 9.93653 7.49712 9.93653 7.16524C9.93653 7.06774 9.94891 6.97323 9.97028 6.88248L6.58023 5.43308L7.17499 4.83833L10.3869 6.21197C10.6003 6.03647 10.8733 5.93109 11.171 5.93109C11.3117 5.93109 11.4467 5.95584 11.5731 5.99934L14.0785 2.07828L12.0002 0L0 12.0002L12.0002 24.0004L13.1811 22.8195L7.7825 14.9436C7.60662 15.0212 7.41274 15.0651 7.20874 15.0651ZM16.699 10.4818L16.0619 14.4415C16.2813 14.6185 16.4275 14.8776 16.4553 15.1739L20.0714 15.9287L23.3827 12.6174L17.4059 10.0622C17.2383 10.2849 16.9878 10.4394 16.699 10.4818Z" fill="#25C7B7"/>
</g>
<defs>
<clipPath id="clip0_316_314">
<rect width="24" height="24" fill="white"/>
</clipPath>
</defs>
</svg>
