<svg width="24" height="24" viewBox="0 0 24 24" fill="none" xmlns="http://www.w3.org/2000/svg">
<path d="M11.6405 23.9993C8.50154 24.0452 5.94213 21.353 6.001 18.2421C6.02587 16.7458 6.64053 15.3199 7.71129 14.2744C8.78205 13.2289 10.2223 12.6485 11.7188 12.6594C14.7086 12.6675 17.2119 15.2334 17.2659 18.2259C17.3231 21.3962 14.7097 24.0479 11.6405 23.9993ZM16.2554 18.3653C16.2743 15.7956 14.2199 13.6979 11.6648 13.6785C9.10967 13.6591 7.02714 15.7254 7.00554 18.2945C6.99228 19.5293 7.46989 20.7187 8.33336 21.6014C9.19683 22.4842 10.3755 22.9879 11.6102 23.0018C14.1372 23.0337 16.2365 20.9382 16.2554 18.3653ZM6.01234 6.82657C6.00735 6.21312 6.12376 5.60475 6.35485 5.03647C6.58595 4.46819 6.92717 3.95124 7.35887 3.51537C7.79057 3.0795 8.30422 2.73333 8.87025 2.49679C9.43628 2.26025 10.0435 2.13801 10.657 2.1371C13.2061 2.13224 15.306 4.23745 15.3097 6.80119C15.3141 9.40165 13.2472 11.5069 10.6829 11.5144C8.08083 11.5214 6.0199 9.45188 6.01234 6.82657ZM7.03362 6.79741C7.02897 7.27292 7.11803 7.74468 7.29571 8.18577C7.47339 8.62686 7.7362 9.02864 8.06915 9.36816C8.4021 9.70768 8.79867 9.97829 9.2362 10.1646C9.67373 10.3508 10.1437 10.4491 10.6192 10.4537C11.0947 10.4584 11.5665 10.3693 12.0075 10.1916C12.4486 10.0139 12.8504 9.75113 13.1899 9.41818C13.5294 9.08523 13.8001 8.68867 13.9863 8.25114C14.1726 7.8136 14.2708 7.34367 14.2755 6.86816C14.2884 4.84126 12.6844 3.18863 10.6894 3.17242C8.68409 3.15838 7.04928 4.77861 7.03362 6.79741ZM13.4049 0.944613C13.4066 0.692373 13.5085 0.451147 13.688 0.274002C13.7769 0.186289 13.8823 0.116948 13.998 0.069938C14.1137 0.0229285 14.2375 -0.000829001 14.3624 2.2083e-05C14.4873 0.000873167 14.6108 0.0263161 14.7259 0.0748983C14.841 0.12348 14.9453 0.19425 15.0331 0.283167C15.1208 0.372084 15.1901 0.477407 15.2371 0.593122C15.2841 0.708838 15.3079 0.832679 15.307 0.957575C15.3084 1.08373 15.2846 1.20888 15.2369 1.32568C15.1892 1.44248 15.1187 1.54858 15.0294 1.63774C14.9402 1.72689 14.834 1.79731 14.7171 1.84486C14.6003 1.8924 14.4751 1.91611 14.3489 1.91459C13.8143 1.91081 13.4049 1.48955 13.4049 0.944613Z" fill="#38B2A7"/>
</svg>
