<svg width="24" height="24" viewBox="0 0 24 24" fill="none" xmlns="http://www.w3.org/2000/svg">
<path d="M0.778887 1.00006C0.551721 0.997134 0.334887 1.09481 0.186549 1.26688C0.0382112 1.43895 -0.0264456 1.66781 0.00992287 1.89206L3.27418 21.7083C3.35813 22.2088 3.78937 22.5768 4.2969 22.581H19.9569C20.3378 22.586 20.6649 22.3112 20.7258 21.9351L23.9901 1.89591C24.0264 1.67165 23.9618 1.44279 23.8135 1.27072C23.6651 1.09865 23.4483 1.00098 23.2211 1.00391L0.778887 1.00006ZM14.5241 15.322H9.52586L8.17248 8.2514H15.7352L14.5241 15.322Z" fill="#2684FF"/>
<path d="M22.9323 8.24141H15.7213L14.5111 15.3064H9.51684L3.61975 22.3061C3.80666 22.4677 4.04497 22.5576 4.29206 22.5596H19.9434C20.324 22.5645 20.6508 22.29 20.7117 21.9142L22.9323 8.24141Z" fill="url(#paint0_linear_316_159)"/>
<defs>
<linearGradient id="paint0_linear_316_159" x1="24.5996" y1="10.2199" x2="16.2697" y2="22.0473" gradientUnits="userSpaceOnUse">
<stop offset="0.18" stop-color="#0052CC"/>
<stop offset="1" stop-color="#2684FF"/>
</linearGradient>
</defs>
</svg>
