<svg width="24" height="24" viewBox="0 0 24 24" fill="none" xmlns="http://www.w3.org/2000/svg">
<g opacity="0.2">
<path fill-rule="evenodd" clip-rule="evenodd" d="M8.06044 10.6076C7.62915 11.0226 6.80036 11.3042 5.84427 11.3042C5.13351 11.3042 4.49102 11.146 4.03022 10.8942C3.5008 10.6027 2.77013 10.1977 1.81404 10.1977C1.10293 10.1977 0.4608 10.3559 0 10.6076V10.41C0.4608 10.1579 1.10329 10 1.81404 10C2.77013 10 3.5008 10.405 4.03022 10.6965C4.49102 10.9486 5.13351 11.1065 5.84427 11.1065C6.80036 11.1065 7.6288 10.8249 8.06044 10.41V10.6076Z" fill="#010202"/>
<path fill-rule="evenodd" clip-rule="evenodd" d="M8.06044 11.4471C7.62915 11.862 6.80036 12.1436 5.84427 12.1436C5.13351 12.1436 4.49102 11.9854 4.03022 11.7337C3.5008 11.4421 2.77013 11.0372 1.81404 11.0372C1.10293 11.0372 0.4608 11.1954 0 11.4471V11.2494C0.4608 10.9973 1.10329 10.8395 1.81404 10.8395C2.77013 10.8395 3.5008 11.2444 4.03022 11.536C4.49102 11.7881 5.13351 11.946 5.84427 11.946C6.80036 11.946 7.6288 11.6644 8.06044 11.2494V11.4471Z" fill="#010202"/>
<path fill-rule="evenodd" clip-rule="evenodd" d="M8.06044 12.2869C7.62915 12.7019 6.80036 12.9835 5.84427 12.9835C5.13351 12.9835 4.49102 12.8252 4.03022 12.5735C3.5008 12.282 2.77013 11.877 1.81404 11.877C1.10293 11.877 0.4608 12.0352 0 12.2869V12.0892C0.4608 11.8372 1.10329 11.6793 1.81404 11.6793C2.77013 11.6793 3.5008 12.0843 4.03022 12.3758C4.49102 12.6279 5.13351 12.7858 5.84427 12.7858C6.80036 12.7858 7.6288 12.5042 8.06044 12.0892V12.2869Z" fill="#010202"/>
<path fill-rule="evenodd" clip-rule="evenodd" d="M8.06044 13.1268C7.62915 13.5417 6.80036 13.8233 5.84427 13.8233C5.13351 13.8233 4.49102 13.6651 4.03022 13.4133C3.5008 13.1218 2.77013 12.7168 1.81404 12.7168C1.10293 12.7168 0.4608 12.875 0 13.1268V12.9291C0.4608 12.677 1.10329 12.5191 1.81404 12.5191C2.77013 12.5191 3.5008 12.9241 4.03022 13.2156C4.49102 13.4677 5.13351 13.6256 5.84427 13.6256C6.80036 13.6256 7.6288 13.344 8.06044 12.9291V13.1268Z" fill="#010202"/>
</g>
<path fill-rule="evenodd" clip-rule="evenodd" d="M3.34863 10.4789H3.76534V12.9934H3.34863V13.4133H4.70188V12.9934H4.26561V12.1291H4.63823C5.11397 12.1291 5.42757 12.0747 5.65797 11.8425C5.80019 11.6992 5.93743 11.4375 5.93743 11.0965C5.93743 10.6716 5.74614 10.059 4.82454 10.059H3.34863V10.4789ZM5.42757 11.0916C5.42757 11.4375 5.2953 11.7237 4.68232 11.7237H4.26561V10.4789H4.83912C5.20677 10.4789 5.42757 10.6965 5.42757 11.0916Z" fill="#010202"/>
<path fill-rule="evenodd" clip-rule="evenodd" d="M8.53579 12.2475C8.53579 11.541 8.01597 11.0126 7.31979 11.0126C6.61864 11.0126 6.09882 11.5413 6.09882 12.2475C6.09882 12.954 6.61864 13.4823 7.31482 13.4823C8.01099 13.4823 8.53579 12.954 8.53579 12.2475ZM8.04548 12.2475C8.04548 12.7019 7.73153 13.0379 7.31482 13.0379C6.90308 13.0379 6.58913 12.7019 6.58913 12.2475C6.58913 11.798 6.90308 11.4571 7.31482 11.4571C7.73188 11.4571 8.04548 11.798 8.04548 12.2475Z" fill="#010202"/>
<path fill-rule="evenodd" clip-rule="evenodd" d="M8.9234 12.613H9.33051V12.6919C9.36962 12.9241 9.58047 13.0674 9.88447 13.0674C10.1739 13.0674 10.3602 12.9536 10.3602 12.7758C10.3602 12.341 9.54633 12.6176 9.10509 12.1732C8.99736 12.0644 8.92376 11.9015 8.92376 11.7287C8.92376 11.3287 9.26687 11.0421 9.73762 11.0421C9.94847 11.0421 10.1494 11.0916 10.3015 11.1755V11.0816H10.7037V11.8521H10.3015V11.7088C10.1693 11.5111 9.99753 11.4222 9.76216 11.4222C9.51718 11.4222 9.35504 11.536 9.35504 11.7088C9.35504 12.0992 10.2475 11.8716 10.6297 12.2571C10.767 12.3954 10.826 12.5781 10.826 12.7413C10.826 13.1662 10.4679 13.4528 9.93851 13.4528C9.68856 13.4528 9.49727 13.3984 9.33051 13.285V13.4133H8.9234V12.613Z" fill="#010202"/>
<path fill-rule="evenodd" clip-rule="evenodd" d="M11.1151 11.0816H11.4141V10.7211L11.8749 10.3012V11.0816H12.3015V11.4866H11.8749V12.8352C11.8749 13.0624 12.0758 13.0524 12.3015 12.9735V13.3884C12.1938 13.4229 12.0711 13.4528 11.9634 13.4528C11.6399 13.4528 11.4144 13.3045 11.4144 12.8996V11.4869H11.1154V11.0816H11.1151Z" fill="#010202"/>
<path fill-rule="evenodd" clip-rule="evenodd" d="M13.0076 11.4869H12.6204V11.0816H13.4684V11.3732C13.7379 11.1559 13.9978 11.0421 14.2528 11.0421C14.5127 11.0421 14.7136 11.1705 14.8117 11.4076C15.1452 11.146 15.3802 11.0421 15.6451 11.0421C16.0277 11.0421 16.2631 11.2793 16.2631 11.6843V13.008H16.6602V13.413H15.8023V11.7877C15.8023 11.5605 15.6995 11.4468 15.5228 11.4468C15.3365 11.4468 15.0965 11.5605 14.8658 11.7529V13.0076H15.2629V13.4126H14.405V11.7973C14.405 11.5502 14.2677 11.4663 14.1205 11.4663C13.9538 11.4663 13.7479 11.5552 13.4684 11.7529V13.0076H13.8656V13.4126H12.5859V13.0076H13.0076V11.4869Z" fill="#010202"/>
<path fill-rule="evenodd" clip-rule="evenodd" d="M18.4352 13.4133H19.2391V13.0084H18.8419V11.7287C18.8419 11.3532 18.6115 11.0123 17.9349 11.0123C17.4641 11.0123 17.1306 11.195 16.9347 11.5556L17.371 11.674C17.4741 11.4912 17.6455 11.3973 17.8663 11.3973C18.1408 11.3973 18.3811 11.5157 18.3811 11.8468V12.1529C18.1948 12.0295 17.9548 11.9552 17.7486 11.9552C17.2729 11.9552 16.9052 12.2862 16.9052 12.7111C16.9052 13.126 17.2483 13.4521 17.6896 13.4521C17.9445 13.4521 18.1454 13.3632 18.4348 13.126V13.4133H18.4352ZM17.7827 12.3118C17.979 12.3118 18.1849 12.3908 18.3808 12.544V12.8206C18.1945 12.9934 17.9641 13.0972 17.7582 13.0972C17.5132 13.0972 17.3415 12.939 17.3415 12.7118C17.3418 12.4796 17.5281 12.3118 17.7827 12.3118Z" fill="#010202"/>
<path fill-rule="evenodd" clip-rule="evenodd" d="M19.8667 11.4869H19.4009V11.0816H20.2293V11.6053H20.2393C20.3865 11.2149 20.6805 11.0421 20.9699 11.0421H21.269V11.5065H21.0236C20.4892 11.5065 20.3275 11.8076 20.3275 12.3413V13.0084H20.8277V13.4133H19.4108V13.0084H19.8667V11.4869Z" fill="#010202"/>
<path fill-rule="evenodd" clip-rule="evenodd" d="M21.7739 10.4644H21.3572V10.0594H22.2347V12.154L23.1026 11.4674V11.4574H22.7154V11.0816H24V11.4571H23.642L22.774 12.1831L23.5929 13.008H23.99V13.413H23.4016L22.2347 12.2372V13.0076H22.5778V13.4126H21.3522V13.0076H21.7739V10.4644Z" fill="#010202"/>
</svg>
