<svg width="24" height="24" viewBox="0 0 24 24" fill="none" xmlns="http://www.w3.org/2000/svg">
<path d="M12.0781 11.9772C15.3855 11.9772 18.0667 9.29605 18.0667 5.98862C18.0667 2.6812 15.3855 0 12.0781 0C8.77068 0 6.08948 2.6812 6.08948 5.98862C6.08948 9.29605 8.77068 11.9772 12.0781 11.9772Z" fill="url(#paint0_linear_318_363)"/>
<path d="M11.5679 23.8538C7.65677 21.3589 4.40404 17.9588 2.08477 13.941C1.99512 13.78 1.97562 13.5891 2.03085 13.4133C2.08608 13.2374 2.21118 13.092 2.37681 13.0112L6.91192 10.7856C7.22915 10.6309 7.612 10.7482 7.78806 11.0541C10.0809 14.897 13.4713 17.9659 17.5229 19.8658C16.0287 21.3714 14.3739 22.7087 12.5884 23.8538C12.2761 24.0487 11.8801 24.0487 11.5679 23.8538Z" fill="url(#paint1_linear_318_363)"/>
<path d="M12.5884 23.8538C16.5 21.3595 19.7528 17.9592 22.0715 13.941C22.1613 13.7804 22.1813 13.5899 22.1268 13.4141C22.0722 13.2383 21.9478 13.0926 21.7828 13.0112L17.2443 10.7856C16.9271 10.6309 16.5442 10.7482 16.3682 11.0541C14.0758 14.8974 10.6853 17.9664 6.6333 19.8658C8.12665 21.3724 9.78149 22.7098 11.5679 23.8538C11.8801 24.0487 12.2761 24.0487 12.5884 23.8538Z" fill="#2684FF"/>
<defs>
<linearGradient id="paint0_linear_318_363" x1="12.0781" y1="1.99061" x2="12.0781" y2="14.2868" gradientUnits="userSpaceOnUse">
<stop stop-color="#2684FF"/>
<stop offset="0.82" stop-color="#0052CC"/>
</linearGradient>
<linearGradient id="paint1_linear_318_363" x1="8.39229" y1="14.8564" x2="11.613" y2="21.5971" gradientUnits="userSpaceOnUse">
<stop stop-color="#2684FF"/>
<stop offset="0.62" stop-color="#0052CC"/>
</linearGradient>
</defs>
</svg>
