<svg width="24" height="24" viewBox="0 0 24 24" fill="none" xmlns="http://www.w3.org/2000/svg">
<path d="M6.8404 17.6592L11.2983 14.9009C11.3321 14.8805 11.3707 14.8695 11.4102 14.8691C11.4496 14.8687 11.4885 14.8789 11.5226 14.8986C11.5568 14.9183 11.5851 14.9469 11.6045 14.9813C11.6238 15.0156 11.6337 15.0546 11.6329 15.094V20.6079C11.6337 20.6474 11.6239 20.6863 11.6045 20.7207C11.5851 20.7551 11.5569 20.7836 11.5227 20.8033C11.4885 20.823 11.4496 20.8332 11.4101 20.8328C11.3707 20.8323 11.332 20.8213 11.2983 20.8008L6.8404 18.0444C6.80783 18.0238 6.781 17.9954 6.76241 17.9616C6.74381 17.9279 6.73407 17.89 6.73407 17.8515C6.73407 17.813 6.74381 17.7751 6.76241 17.7414C6.781 17.7077 6.80783 17.6792 6.8404 17.6587" fill="#EF3F24"/>
<path d="M5.12404 16.9792L0.139747 13.8966C0.0967814 13.8699 0.0613824 13.8326 0.036924 13.7884C0.0124655 13.7441 -0.000234384 13.6943 3.76393e-05 13.6437V7.39441C-0.00068019 7.35614 0.00888111 7.31838 0.0277168 7.28505C0.0465524 7.25173 0.0739761 7.22406 0.107136 7.20493C0.140296 7.18581 0.177973 7.17593 0.216251 7.17631C0.254528 7.1767 0.292009 7.18734 0.324778 7.20712L5.30605 10.2895C5.34915 10.3162 5.38473 10.3535 5.40947 10.3978C5.4342 10.4421 5.44727 10.4919 5.44745 10.5426V16.7919C5.44816 16.8302 5.43863 16.8679 5.41979 16.9012C5.40095 16.9346 5.37351 16.9622 5.34035 16.9814C5.30719 17.0005 5.26952 17.0104 5.23125 17.01C5.19297 17.0096 5.15549 16.999 5.12272 16.9792" fill="#EF3F24"/>
<path d="M5.66986 9.6315L0.647802 6.52444C0.616171 6.50453 0.590113 6.47692 0.572047 6.4442C0.553981 6.41148 0.544495 6.37472 0.544495 6.33734C0.544495 6.29996 0.553981 6.2632 0.572047 6.23048C0.590113 6.19776 0.616171 6.17015 0.647802 6.15024L5.66154 3.04299C5.70653 3.01489 5.75851 3 5.81155 3C5.86459 3 5.91655 3.01489 5.96154 3.04299L10.9811 6.15024C11.0127 6.17021 11.0388 6.19785 11.0568 6.23058C11.0748 6.26331 11.0843 6.30006 11.0843 6.33743C11.0843 6.3748 11.0748 6.41156 11.0568 6.44429C11.0388 6.47703 11.0127 6.50466 10.9811 6.52463L5.96986 9.6315C5.92489 9.65956 5.87294 9.67443 5.81994 9.67443C5.76694 9.67443 5.71483 9.65956 5.66986 9.6315Z" fill="#EF3F24"/>
<path d="M11.0049 14.1999L6.52135 16.9731C6.48759 16.9935 6.44898 17.0045 6.40954 17.0049C6.37009 17.0053 6.33126 16.9952 6.29709 16.9754C6.26292 16.9557 6.23468 16.9272 6.21527 16.8929C6.19587 16.8585 6.18603 16.8196 6.18679 16.7802V11.234C6.18593 11.1946 6.19571 11.1556 6.21508 11.1212C6.23445 11.0868 6.26271 11.0582 6.29691 11.0385C6.3311 11.0187 6.36997 11.0085 6.40945 11.009C6.44894 11.0094 6.48759 11.0204 6.52135 11.0409L11.0049 13.814C11.0375 13.8345 11.0643 13.863 11.0829 13.8967C11.1015 13.9304 11.1113 13.9683 11.1113 14.0068C11.1113 14.0453 11.1015 14.0832 11.0829 14.1169C11.0643 14.1507 11.0375 14.1791 11.0049 14.1997" fill="#EF3F24"/>
<path d="M11.2983 13.1103L6.84002 10.3574C6.8075 10.3368 6.78072 10.3083 6.76216 10.2746C6.7436 10.2409 6.73386 10.203 6.73386 10.1645C6.73386 10.1261 6.7436 10.0882 6.76216 10.0545C6.78072 10.0208 6.8075 9.99228 6.84002 9.97169L11.2983 7.21126C11.3321 7.19083 11.3707 7.17983 11.4102 7.1794C11.4496 7.17896 11.4885 7.18912 11.5227 7.2088C11.5569 7.22849 11.5852 7.25698 11.6046 7.29132C11.6241 7.32565 11.634 7.36457 11.6332 7.40403V12.917C11.634 12.9564 11.6242 12.9954 11.6047 13.0298C11.5853 13.0641 11.557 13.0927 11.5228 13.1124C11.4885 13.132 11.4497 13.1422 11.4102 13.1417C11.3707 13.1413 11.3321 13.1302 11.2983 13.1097" fill="#EF3F24"/>
<path d="M17.1596 17.6592L12.7021 14.9009C12.6683 14.8805 12.6297 14.8695 12.5902 14.8691C12.5508 14.8687 12.5119 14.8789 12.4778 14.8986C12.4436 14.9183 12.4154 14.9469 12.396 14.9813C12.3766 15.0156 12.3669 15.0546 12.3677 15.094V20.6079C12.3668 20.6474 12.3766 20.6863 12.396 20.7207C12.4153 20.7551 12.4436 20.7836 12.4777 20.8034C12.5119 20.8231 12.5508 20.8333 12.5902 20.8328C12.6297 20.8324 12.6683 20.8213 12.7021 20.8009L17.1592 18.0444C17.1918 18.0239 17.2187 17.9954 17.2373 17.9617C17.2559 17.928 17.2657 17.8901 17.2657 17.8515C17.2657 17.813 17.2559 17.7751 17.2373 17.7414C17.2187 17.7076 17.1918 17.6792 17.1592 17.6587" fill="#EF3F24"/>
<path d="M18.8759 16.9792L23.8602 13.8967C23.9031 13.8698 23.9384 13.8325 23.9628 13.7882C23.9873 13.744 24 13.6942 23.9999 13.6437V7.39444C24.0007 7.35614 23.9911 7.31834 23.9723 7.28498C23.9534 7.25163 23.926 7.22395 23.8928 7.20482C23.8596 7.18569 23.8219 7.17581 23.7836 7.17622C23.7453 7.17663 23.7078 7.18731 23.675 7.20715L18.6928 10.2899C18.6497 10.3166 18.6141 10.3539 18.5894 10.3982C18.5647 10.4425 18.5516 10.4923 18.5514 10.543V16.7923C18.5507 16.8306 18.5602 16.8683 18.5791 16.9016C18.5979 16.935 18.6253 16.9626 18.6585 16.9818C18.6917 17.0009 18.7293 17.0108 18.7676 17.0104C18.8059 17.01 18.8434 16.9994 18.8762 16.9796" fill="#EF3F24"/>
<path d="M18.3309 9.6315L23.3529 6.52444C23.3846 6.50453 23.4106 6.47692 23.4287 6.4442C23.4468 6.41148 23.4562 6.37472 23.4562 6.33734C23.4562 6.29996 23.4468 6.2632 23.4287 6.23048C23.4106 6.19776 23.3846 6.17015 23.3529 6.15024L18.3392 3.04299C18.2942 3.01489 18.2422 3 18.1892 3C18.1361 3 18.0842 3.01489 18.0392 3.04299L13.0194 6.15024C12.9878 6.17024 12.9619 6.19789 12.9439 6.23062C12.9259 6.26334 12.9164 6.30008 12.9164 6.33743C12.9164 6.37478 12.9259 6.41153 12.9439 6.44425C12.9619 6.47698 12.9878 6.50463 13.0194 6.52463L18.0307 9.6315C18.0757 9.6596 18.1276 9.67449 18.1807 9.67449C18.2337 9.67449 18.2857 9.6596 18.3307 9.6315" fill="#EF3F24"/>
<path d="M12.9949 14.1999L17.4783 16.9731C17.512 16.9935 17.5506 17.0045 17.5901 17.0049C17.6295 17.0053 17.6683 16.9952 17.7025 16.9754C17.7367 16.9557 17.765 16.9272 17.7844 16.8929C17.8038 16.8585 17.8136 16.8196 17.8128 16.7802V11.234C17.8137 11.1946 17.8039 11.1556 17.7845 11.1212C17.7652 11.0868 17.7369 11.0582 17.7027 11.0385C17.6685 11.0187 17.6296 11.0085 17.5902 11.009C17.5507 11.0094 17.512 11.0204 17.4783 11.0409L12.9949 13.814C12.9624 13.8346 12.9356 13.8631 12.9171 13.8968C12.8986 13.9305 12.8889 13.9684 12.8889 14.0068C12.8889 14.0453 12.8986 14.0832 12.9171 14.1169C12.9356 14.1506 12.9624 14.1791 12.9949 14.1997" fill="#EF3F24"/>
<path d="M12.7018 13.1103L17.1601 10.3575C17.1926 10.3368 17.2194 10.3083 17.2379 10.2746C17.2564 10.2409 17.2662 10.2031 17.2662 10.1646C17.2662 10.1261 17.2564 10.0883 17.2379 10.0546C17.2194 10.0208 17.1926 9.99236 17.1601 9.97174L12.7018 7.21131C12.6681 7.1909 12.6295 7.17991 12.5901 7.17949C12.5507 7.17907 12.5119 7.18923 12.4777 7.20892C12.4436 7.22861 12.4153 7.25711 12.3959 7.29143C12.3766 7.32575 12.3667 7.36466 12.3675 7.40407V12.917C12.3667 12.9564 12.3765 12.9954 12.3958 13.0297C12.4152 13.0641 12.4435 13.0926 12.4776 13.1123C12.5118 13.132 12.5506 13.1422 12.5901 13.1417C12.6295 13.1413 12.6681 13.1302 12.7018 13.1098" fill="#EF3F24"/>
</svg>
