<svg width="24" height="24" viewBox="0 0 24 24" fill="none" xmlns="http://www.w3.org/2000/svg">
<g clip-path="url(#clip0_316_229)">
<path d="M11.4552 0.0357101C11.6284 0.000253597 12.3144 0.00161728 12.478 0.000253564C17.1487 -0.0365667 23.6264 3.93729 24 11.4936V20.9278C24 22.6256 22.5981 24.0016 20.8948 24.0016C19.6675 24.0016 17.9997 22.4292 17.9997 20.9332V11.4991C17.8265 9.00893 15.8082 6.20651 12.4098 5.99513C12.1998 5.98149 11.7225 5.97331 11.4539 6.00877" fill="#FBBC04"/>
<path d="M23.9972 21.0014C23.9972 22.6583 22.654 24.0016 20.9971 24.0016C19.3402 24.0016 17.9996 22.6583 17.9996 21.0014C17.9996 19.3445 19.3402 18.0013 20.9971 18.0013C22.654 18.0013 23.9972 19.3445 23.9972 21.0014Z" fill="#4285F4"/>
<path d="M11.6175 23.8979C13.3357 23.8979 14.7281 22.5315 14.7281 20.8473C14.7281 19.1618 13.3016 17.9385 11.5847 17.9385C11.5738 17.9385 11.5629 17.9399 11.552 17.9399C8.5982 17.7353 5.83532 15.1347 6.03715 11.57L6.04125 11.5127C6.21171 8.71574 8.5982 6.17787 11.6188 6.00332C13.3371 6.00332 14.7295 4.77052 14.7295 3.08634C14.7295 1.40215 13.3357 0.03435 11.6175 0.03435C11.5479 0.03435 11.4784 0.0302589 11.4088 0.03435C6.19807 0.215724 0.061367 4.55096 0 11.9191V11.9641C0 19.4413 6.55809 23.8966 11.4456 23.8966H11.6175V23.8979Z" fill="#EA4335"/>
</g>
<defs>
<clipPath id="clip0_316_229">
<rect width="24" height="24" fill="white"/>
</clipPath>
</defs>
</svg>
