<svg width="24" height="24" viewBox="0 0 24 24" fill="none" xmlns="http://www.w3.org/2000/svg">
<g clip-path="url(#clip0_313_18)">
<path d="M0 12C0 18.6274 5.37258 24 12 24C18.6274 24 24 18.6274 24 12C24 5.37258 18.6274 0 12 0C5.37258 0 0 5.37258 0 12Z" fill="url(#paint0_linear_313_18)"/>
<path fill-rule="evenodd" clip-rule="evenodd" d="M15.291 16.8318C14.9598 16.8318 14.691 16.5624 14.691 16.2318C14.691 15.9012 14.9598 15.6318 15.291 15.6318C15.6222 15.6318 15.891 15.9012 15.891 16.2318C15.891 16.5624 15.6222 16.8318 15.291 16.8318ZM12.6024 16.2318C12.6024 16.5624 12.333 16.8318 12.003 16.8318C11.6724 16.8318 11.4036 16.5624 11.4036 16.2318C11.4036 15.9012 11.6724 15.6318 12.003 15.6318C12.333 15.6318 12.6024 15.9012 12.6024 16.2318ZM9.3036 16.2318C9.3036 16.5624 9.0342 16.8318 8.7036 16.8318C8.3724 16.8318 8.1036 16.5624 8.1036 16.2318C8.1036 15.9012 8.3724 15.6318 8.7036 15.6318C9.0342 15.6318 9.3036 15.9012 9.3036 16.2318ZM10.8036 10.8318C10.8036 10.17 11.3418 9.6318 12.0036 9.6318C12.6648 9.6318 13.2036 10.17 13.2036 10.8318C13.2036 11.4936 12.6648 12.0318 12.0036 12.0318C11.3418 12.0318 10.8036 11.4936 10.8036 10.8318ZM15.591 15.0744V13.5318C15.591 13.3662 15.4566 13.2318 15.291 13.2318H12.3036V12.6012C13.1532 12.4578 13.8036 11.7216 13.8036 10.8318C13.8036 9.8394 12.996 9.0318 12.0036 9.0318C11.0106 9.0318 10.2036 9.8394 10.2036 10.8318C10.2036 11.7216 10.8534 12.4578 11.7036 12.6012V13.2318H8.7036C8.5374 13.2318 8.4036 13.3662 8.4036 13.5318V15.0744C7.887 15.2082 7.5036 15.6744 7.5036 16.2318C7.5036 16.8936 8.0418 17.4318 8.7036 17.4318C9.3648 17.4318 9.9036 16.8936 9.9036 16.2318C9.9036 15.6744 9.5196 15.2082 9.0036 15.0744V13.8318H11.7036V15.0744C11.187 15.2082 10.8036 15.6738 10.8036 16.2318C10.8036 16.8936 11.3412 17.4318 12.003 17.4318C12.6642 17.4318 13.2024 16.8936 13.2024 16.2318C13.2024 15.6744 12.819 15.2088 12.3036 15.0744V13.8318H14.991V15.0744C14.475 15.2082 14.091 15.6744 14.091 16.2318C14.091 16.8936 14.6292 17.4318 15.291 17.4318C15.9528 17.4318 16.491 16.8936 16.491 16.2318C16.491 15.6744 16.107 15.2082 15.591 15.0744ZM12.0036 19.2318C8.9598 19.2318 6.6 18.2664 6.6 17.436V6.3642C7.8186 7.1688 10.6158 7.278 12.0036 7.278C13.3896 7.278 16.1826 7.1694 17.4036 6.3666V17.436C17.4036 18.2664 15.0444 19.2318 12.0036 19.2318ZM12.0036 4.2C15.5094 4.2 17.4018 4.839 17.4018 5.4402C17.4018 6.0402 15.5094 6.678 12.0036 6.678C8.4972 6.678 6.6048 6.0402 6.6048 5.4402C6.6048 4.839 8.4972 4.2 12.0036 4.2ZM18.0036 5.4318C17.9886 3.7794 13.8036 3.6 12.0036 3.6C10.2036 3.6 6.015 3.7794 6 5.4318V17.436C6 18.9156 9.1158 19.8318 12.0036 19.8318C14.889 19.8318 18.0036 18.9156 18.0036 17.436V5.4318Z" fill="white"/>
</g>
<defs>
<linearGradient id="paint0_linear_313_18" x1="0" y1="24" x2="24" y2="0" gradientUnits="userSpaceOnUse">
<stop stop-color="#BD0816"/>
<stop offset="1" stop-color="#FF5252"/>
</linearGradient>
<clipPath id="clip0_313_18">
<rect width="24" height="24" fill="white"/>
</clipPath>
</defs>
</svg>
