<svg width="24" height="24" viewBox="0 0 24 24" fill="none" xmlns="http://www.w3.org/2000/svg">
<path d="M9.08816 11.2125H8V13.6907H8.43305V12.7619H9.08816C9.6027 12.7619 9.8914 12.409 9.8914 11.9891C9.8914 11.5654 9.60648 11.2125 9.08816 11.2125ZM9.02907 12.3792H8.43305V11.5952H9.02894C9.27325 11.5952 9.44715 11.7513 9.44715 11.989C9.44729 12.2231 9.27326 12.3792 9.02907 12.3792ZM10.813 11.8515C10.5279 11.8515 10.2689 11.9407 10.0615 12.1413L10.2244 12.4125C10.3761 12.2564 10.5538 12.1821 10.7537 12.1821C10.998 12.1821 11.1719 12.3083 11.1719 12.5165V12.784C11.0387 12.6317 10.8351 12.5536 10.5908 12.5536C10.2984 12.5536 9.97261 12.7245 9.97261 13.1406C9.97261 13.5344 10.3021 13.735 10.5908 13.735C10.8277 13.735 11.0387 13.6496 11.1719 13.4935V13.6905H11.5606V12.4977C11.5606 12.0187 11.2127 11.8515 10.813 11.8515ZM11.1719 13.282C11.0794 13.4046 10.9128 13.4677 10.7463 13.4677C10.5279 13.4677 10.3613 13.3414 10.3613 13.1445C10.3613 12.9513 10.5279 12.8212 10.7463 12.8212C10.9129 12.8212 11.0794 12.8844 11.1719 13.007V13.282ZM12.9929 11.8515C12.7116 11.8515 12.4784 11.9964 12.3599 12.1377V11.8962H11.9713V13.6907H12.3599V12.4349C12.4525 12.316 12.6227 12.197 12.8189 12.197C13.0373 12.197 13.1817 12.2862 13.1817 12.5686V13.6906H13.5703V12.4273C13.5703 12.0596 13.3778 11.8515 12.9929 11.8515ZM15.2395 12.1451C15.0988 11.9519 14.8916 11.8515 14.6658 11.8515C14.2068 11.8515 13.8736 12.2119 13.8736 12.7916C13.8736 13.3861 14.2105 13.7352 14.6658 13.7352C14.899 13.7352 15.1026 13.6238 15.2395 13.4455V13.6907H15.6282V11.2125H15.2395V12.1451ZM15.2395 13.1483C15.1544 13.282 14.9619 13.3897 14.7806 13.3897C14.4696 13.3897 14.2735 13.1408 14.2735 12.7916C14.2735 12.4461 14.4696 12.1972 14.7806 12.1972C14.9619 12.1972 15.1544 12.305 15.2395 12.4387V13.1483ZM16.7754 11.8515C16.4905 11.8515 16.2314 11.9407 16.024 12.1413L16.1868 12.4125C16.3386 12.2564 16.5163 12.1821 16.7162 12.1821C16.9605 12.1821 17.1344 12.3083 17.1344 12.5165V12.784C17.0011 12.6317 16.7976 12.5536 16.5533 12.5536C16.2609 12.5536 15.9351 12.7245 15.9351 13.1406C15.9351 13.5344 16.2646 13.735 16.5533 13.735C16.7902 13.735 17.0011 13.6496 17.1344 13.4935V13.6905H17.5231V12.4977C17.5231 12.0187 17.1752 11.8515 16.7754 11.8515ZM17.1344 13.282C17.0419 13.4046 16.8753 13.4677 16.7088 13.4677C16.4904 13.4677 16.3238 13.3414 16.3238 13.1445C16.3238 12.9513 16.4904 12.8212 16.7088 12.8212C16.8754 12.8212 17.0419 12.8844 17.1344 13.007V13.282ZM18.8629 11.2125H17.945V13.6907H18.8666C19.6366 13.6907 20.1547 13.1817 20.1547 12.4497C20.1546 11.7253 19.6364 11.2125 18.8629 11.2125ZM18.8629 13.308H18.378V11.5952H18.8666C19.4145 11.5952 19.7106 11.9742 19.7106 12.4497C19.7105 12.9216 19.3995 13.308 18.8629 13.308ZM21.2796 11.8515C20.7096 11.8515 20.3617 12.2751 20.3617 12.7916C20.3617 13.3044 20.7096 13.7352 21.2796 13.7352C21.8496 13.7352 22.1975 13.3042 22.1975 12.7916C22.1976 12.2751 21.8497 11.8515 21.2796 11.8515ZM21.2796 13.3897C20.9502 13.3897 20.7651 13.1112 20.7651 12.7916C20.7651 12.4757 20.9502 12.1972 21.2796 12.1972C21.6127 12.1972 21.7941 12.4757 21.7941 12.7916C21.7941 13.111 21.6128 13.3897 21.2796 13.3897ZM23.3337 13.3897C23.0117 13.3897 22.7933 13.1408 22.7933 12.7916C22.7933 12.4423 23.0117 12.1972 23.3337 12.1972C23.5077 12.1972 23.6447 12.2641 23.7446 12.4052L24 12.1711C23.8741 12.0002 23.6669 11.8515 23.3152 11.8515C22.7748 11.8515 22.3935 12.2491 22.3935 12.7916C22.3935 13.334 22.7748 13.7352 23.3152 13.7352C23.6668 13.7352 23.8741 13.5829 24 13.4156L23.7446 13.1742C23.6447 13.3154 23.5077 13.3897 23.3337 13.3897Z" fill="black"/>
<path d="M6.70489 9H0.202361C0.0906577 9 0 9.09066 0 9.20236V15.7049C0 15.8166 0.0906577 15.9073 0.202361 15.9073H6.70489C6.81659 15.9073 6.90725 15.8166 6.90725 15.7049V9.20236C6.90725 9.09066 6.81659 9 6.70489 9Z" fill="#55B76F"/>
<path d="M5.19364 10.2273V11.5091C4.98642 11.3446 4.7243 11.2462 4.4391 11.2462C4.03573 11.2462 3.67836 11.4429 3.45765 11.7456C3.31128 11.9462 3.2248 12.1933 3.2248 12.4606C3.2248 12.462 3.22427 12.4612 3.22319 12.459C3.22265 12.8753 2.88497 13.2126 2.46851 13.2126C2.05273 13.2126 1.71546 12.8763 1.71398 12.4608V12.4551C1.7156 12.0396 2.05273 11.7033 2.46851 11.7033C2.75142 11.7033 2.99776 11.859 3.127 12.0892C3.14238 12.0373 3.17799 11.9261 3.22804 11.8281C3.27148 11.7431 3.3276 11.6693 3.35836 11.6316C3.13658 11.3928 2.82008 11.2434 2.46851 11.2434C1.80572 11.2434 1.26703 11.7744 1.25448 12.4342H1.25354V14.6912H1.71411V13.4093C1.92133 13.5739 2.18346 13.6722 2.46865 13.6722C2.87364 13.6722 3.23236 13.4739 3.45293 13.1692C3.4532 13.1696 3.45347 13.1698 3.45374 13.1703C3.59688 12.971 3.68133 12.7268 3.68133 12.4627C3.68133 12.4606 3.68255 12.4632 3.68484 12.4689C3.68484 12.466 3.68457 12.4633 3.68457 12.4606C3.68457 12.0439 4.02238 11.706 4.43924 11.706C4.85502 11.706 5.19216 12.0422 5.19378 12.4575V12.4637C5.19202 12.8791 4.85489 13.2153 4.43924 13.2153C4.1562 13.2153 3.90973 13.0595 3.78062 12.8289C3.76619 12.8783 3.72976 12.9938 3.67809 13.0951C3.63587 13.1777 3.5819 13.2494 3.55061 13.2879C3.77226 13.5259 4.08835 13.6749 4.43924 13.6749C5.10204 13.6749 5.64072 13.1439 5.65327 12.4841H5.65435V10.2273H5.19364Z" fill="white"/>
</svg>
