<svg width="24" height="24" viewBox="0 0 24 24" fill="none" xmlns="http://www.w3.org/2000/svg">
<g clip-path="url(#clip0_1065_18)">
<path fill-rule="evenodd" clip-rule="evenodd" d="M15.688 2.34301C15.2048 1.87277 14.5572 1.60966 13.883 1.60966C13.2088 1.60966 12.5612 1.87277 12.078 2.34301L2.452 11.783C2.29092 11.9396 2.07514 12.0272 1.8505 12.0272C1.62587 12.0272 1.41008 11.9396 1.249 11.783C1.17014 11.7063 1.10745 11.6146 1.06465 11.5132C1.02184 11.4119 0.999786 11.303 0.999786 11.193C0.999786 11.083 1.02184 10.9741 1.06465 10.8728C1.10745 10.7714 1.17014 10.6797 1.249 10.603L10.875 1.16301C11.6802 0.379402 12.7594 -0.0590515 13.883 -0.0590515C15.0066 -0.0590515 16.0858 0.379402 16.891 1.16301C17.3569 1.61611 17.7089 2.17311 17.9182 2.7884C18.1275 3.40369 18.188 4.0598 18.095 4.70301C18.7468 4.61031 19.4111 4.6685 20.0368 4.87308C20.6625 5.07767 21.2329 5.42318 21.704 5.88301L21.754 5.93301C22.1483 6.31649 22.4618 6.77513 22.6758 7.28182C22.8898 7.78851 23.0001 8.33297 23.0001 8.88301C23.0001 9.43305 22.8898 9.97751 22.6758 10.4842C22.4618 10.9909 22.1483 11.4495 21.754 11.833L13.048 20.37C13.0217 20.3955 13.0008 20.4261 12.9866 20.4598C12.9723 20.4936 12.965 20.5299 12.965 20.5665C12.965 20.6032 12.9723 20.6394 12.9866 20.6732C13.0008 20.7069 13.0217 20.7375 13.048 20.763L14.836 22.517C14.9149 22.5937 14.9776 22.6854 15.0204 22.7868C15.0632 22.8881 15.0852 22.997 15.0852 23.107C15.0852 23.217 15.0632 23.3259 15.0204 23.4272C14.9776 23.5286 14.9149 23.6203 14.836 23.697C14.6749 23.8536 14.4591 23.9412 14.2345 23.9412C14.0099 23.9412 13.7941 23.8536 13.633 23.697L11.845 21.944C11.6608 21.7651 11.5145 21.551 11.4145 21.3145C11.3145 21.078 11.263 20.8238 11.263 20.567C11.263 20.3102 11.3145 20.0561 11.4145 19.8195C11.5145 19.583 11.6608 19.369 11.845 19.19L20.551 10.652C20.7875 10.4219 20.9754 10.1466 21.1038 9.84264C21.2321 9.53863 21.2982 9.21199 21.2982 8.88201C21.2982 8.55203 21.2321 8.22539 21.1038 7.92138C20.9754 7.61738 20.7875 7.34217 20.551 7.11201L20.501 7.06301C20.0184 6.59327 19.3716 6.33018 18.6981 6.32962C18.0246 6.32906 17.3774 6.59107 16.894 7.06001L9.722 14.094L9.72 14.096L9.622 14.193C9.46087 14.3499 9.24488 14.4377 9.02 14.4377C8.79513 14.4377 8.57913 14.3499 8.418 14.193C8.33914 14.1163 8.27645 14.0246 8.23365 13.9232C8.19084 13.8219 8.16879 13.713 8.16879 13.603C8.16879 13.493 8.19084 13.3841 8.23365 13.2828C8.27645 13.1814 8.33914 13.0897 8.418 13.013L15.691 5.88001C15.9268 5.6497 16.1141 5.37452 16.2419 5.07068C16.3698 4.76684 16.4355 4.4405 16.4352 4.11088C16.4349 3.78125 16.3686 3.45502 16.2403 3.1514C16.112 2.84778 15.9242 2.57292 15.688 2.34301Z" fill="black"/>
<path fill-rule="evenodd" clip-rule="evenodd" d="M14.485 4.70299C14.5639 4.6263 14.6266 4.53457 14.6694 4.43323C14.7122 4.33189 14.7342 4.223 14.7342 4.11299C14.7342 4.00299 14.7122 3.89409 14.6694 3.79276C14.6266 3.69142 14.5639 3.59969 14.485 3.52299C14.3239 3.36613 14.1079 3.27835 13.883 3.27835C13.6581 3.27835 13.4421 3.36613 13.281 3.52299L6.162 10.505C5.76768 10.8885 5.45425 11.3471 5.24022 11.8538C5.0262 12.3605 4.91592 12.905 4.91592 13.455C4.91592 14.005 5.0262 14.5495 5.24022 15.0562C5.45425 15.5629 5.76768 16.0215 6.162 16.405C6.96734 17.1884 8.04651 17.6267 9.17 17.6267C10.2935 17.6267 11.3727 17.1884 12.178 16.405L19.298 9.42299C19.3769 9.3463 19.4396 9.25457 19.4824 9.15323C19.5252 9.05189 19.5472 8.943 19.5472 8.83299C19.5472 8.72299 19.5252 8.61409 19.4824 8.51276C19.4396 8.41142 19.3769 8.31969 19.298 8.24299C19.1369 8.08613 18.9209 7.99835 18.696 7.99835C18.4711 7.99835 18.2551 8.08613 18.094 8.24299L10.975 15.225C10.4918 15.6952 9.84422 15.9583 9.17 15.9583C8.49578 15.9583 7.84817 15.6952 7.365 15.225C7.12853 14.9948 6.94058 14.7196 6.81225 14.4156C6.68391 14.1116 6.61779 13.785 6.61779 13.455C6.61779 13.125 6.68391 12.7984 6.81225 12.4944C6.94058 12.1904 7.12853 11.9152 7.365 11.685L14.485 4.70299Z" fill="black"/>
</g>
<defs>
<clipPath id="clip0_1065_18">
<rect width="24" height="24" fill="white"/>
</clipPath>
</defs>
</svg>
