<svg width="24" height="24" viewBox="0 0 24 24" fill="none" xmlns="http://www.w3.org/2000/svg">
<g clip-path="url(#clip0_313_77)">
<path d="M24 0H0V24H24V0Z" fill="url(#paint0_linear_313_77)"/>
<path fill-rule="evenodd" clip-rule="evenodd" d="M19.4147 11.6889C6.52108 11.6889 4.59544 9.37323 4.59544 7.993H4C4 10.0961 6.83845 11.4311 12.4385 11.9866C6.83845 12.5421 4 13.8765 4 15.9796H4.59544C4.59544 14.5994 6.52108 12.2843 19.4147 12.2843V11.6889ZM5.71129 18.2619H6.30672C6.30672 17.0026 6.68542 15.6069 9.30058 14.6315V13.9998C6.13822 15.1085 5.71129 16.8472 5.71129 18.2619ZM7.42257 19.9732H8.01801C8.01801 18.846 8.02218 17.5909 9.30058 16.5536V15.8147C7.42496 17.0728 7.42257 18.7353 7.42257 19.9732ZM18.8448 14.0456H11.1042V19.4046H11.6996V17.916C11.6996 17.7516 11.833 17.6183 11.9973 17.6183H13.1882C13.3525 17.6183 13.4859 17.7516 13.4859 17.916V19.4046H14.0814V16.7251C14.0814 16.5608 14.2147 16.4274 14.3791 16.4274H15.5699C15.7343 16.4274 15.8677 16.5608 15.8677 16.7251V19.4046H16.4631V15.5342C16.4631 15.3699 16.5965 15.2365 16.7608 15.2365H17.9517C18.116 15.2365 18.2494 15.3699 18.2494 15.5342V19.4046H18.8448V14.0456ZM17.0585 19.4046H17.654V15.8319H17.0585V19.4046ZM14.6768 19.4046H15.2722V17.0228H14.6768V19.4046ZM12.295 19.4046H12.8905V18.2137H12.295V19.4046ZM19.4403 13.7479V19.7023C19.4403 19.8666 19.3069 20 19.1426 20H10.8064C10.6421 20 10.5087 19.8666 10.5087 19.7023V13.7479C10.5087 13.5836 10.6421 13.4502 10.8064 13.4502H19.1426C19.3069 13.4502 19.4403 13.5836 19.4403 13.7479ZM19.4147 11.1435V10.548C7.86439 10.548 6.30672 8.10316 6.30672 5.71129H5.71129C5.71129 8.3979 7.33981 11.1435 19.4147 11.1435ZM7.42257 4H8.01801C8.01801 6.1537 8.01801 9.40717 19.4147 9.40717V10.0026C8.34848 10.0026 7.42257 7.03733 7.42257 4Z" fill="white"/>
</g>
<defs>
<linearGradient id="paint0_linear_313_77" x1="0" y1="24" x2="24" y2="0" gradientUnits="userSpaceOnUse">
<stop stop-color="#4D27A8"/>
<stop offset="1" stop-color="#A166FF"/>
</linearGradient>
<clipPath id="clip0_313_77">
<rect width="24" height="24" rx="12" fill="white"/>
</clipPath>
</defs>
</svg>
