<svg width="24" height="24" viewBox="0 0 24 24" fill="none" xmlns="http://www.w3.org/2000/svg">
<path fill-rule="evenodd" clip-rule="evenodd" d="M9.00754 0.816408C9.93865 0.296375 11.0116 2.26956e-06 12.1538 2.26956e-06C13.2961 2.26956e-06 14.369 0.296375 15.3002 0.816408L15.9813 0.135187C16.1616 -0.0450623 16.4538 -0.0450623 16.6341 0.135187C16.8143 0.315427 16.8143 0.607655 16.6341 0.787895L16.0873 1.33473C17.6246 2.51592 18.6154 4.37301 18.6154 6.46154H5.69231C5.69231 4.37301 6.68314 2.51592 8.22043 1.33473L7.6736 0.787895C7.49341 0.607655 7.49341 0.315427 7.6736 0.135187C7.85388 -0.0450623 8.14612 -0.0450623 8.3264 0.135187L9.00754 0.816408ZM10.3077 3.69231C10.3077 4.20211 9.89443 4.61539 9.38461 4.61539C8.8748 4.61539 8.46154 4.20211 8.46154 3.69231C8.46154 3.18251 8.8748 2.76923 9.38461 2.76923C9.89443 2.76923 10.3077 3.18251 10.3077 3.69231ZM14.9231 4.61539C15.4329 4.61539 15.8462 4.20211 15.8462 3.69231C15.8462 3.18251 15.4329 2.76923 14.9231 2.76923C14.4133 2.76923 14 3.18251 14 3.69231C14 4.20211 14.4133 4.61539 14.9231 4.61539Z" fill="#87C527"/>
<path d="M2 8.76923C2 8.00455 2.61991 7.38461 3.38462 7.38461C4.14932 7.38461 4.76923 8.00455 4.76923 8.76923V14.3077C4.76923 15.0724 4.14932 15.6923 3.38462 15.6923C2.61991 15.6923 2 15.0724 2 14.3077V8.76923Z" fill="#87C527"/>
<path d="M8.46154 19.3846V22.6154C8.46154 23.3801 9.08148 24 9.84615 24C10.6108 24 11.2308 23.3801 11.2308 22.6154V19.3846H13.0769V22.6154C13.0769 23.3801 13.6969 24 14.4615 24C15.2262 24 15.8462 23.3801 15.8462 22.6154V19.3846H16.7692C17.7889 19.3846 18.6154 18.5581 18.6154 17.5385V7.38461H5.69231V17.5385C5.69231 18.5581 6.51886 19.3846 7.53846 19.3846H8.46154Z" fill="#87C527"/>
<path d="M19.5385 8.76923C19.5385 8.00455 20.1584 7.38461 20.9231 7.38461C21.6878 7.38461 22.3077 8.00455 22.3077 8.76923V14.3077C22.3077 15.0724 21.6878 15.6923 20.9231 15.6923C20.1584 15.6923 19.5385 15.0724 19.5385 14.3077V8.76923Z" fill="#87C527"/>
</svg>
