<svg width="24" height="24" viewBox="0 0 24 24" fill="none" xmlns="http://www.w3.org/2000/svg">
<path fill-rule="evenodd" clip-rule="evenodd" d="M4.15096 11.6554C4.44456 11.949 4.44456 12.4237 4.15096 12.7142C3.85737 13.0078 3.38261 13.0078 3.09214 12.7142C2.79854 12.4206 2.79854 11.9459 3.09214 11.6554C3.38574 11.3649 3.85737 11.3649 4.15096 11.6554ZM3.62311 10.937C3.9417 10.937 4.2634 11.0588 4.50703 11.3024C4.99427 11.7897 4.99427 12.5799 4.50703 13.0703C4.01978 13.5575 3.22957 13.5575 2.7392 13.0703C2.25195 12.583 2.25195 11.7928 2.7392 11.3024C2.98282 11.0588 3.30141 10.937 3.62311 10.937ZM6.7746 11.6554C7.06819 11.949 7.06819 12.4237 6.7746 12.7142C6.481 13.0078 6.00625 13.0078 5.71577 12.7142C5.42218 12.4206 5.42218 11.9459 5.71577 11.6554C6.00937 11.3649 6.481 11.3649 6.7746 11.6554ZM7.12754 11.3024C7.61478 11.7897 7.61478 12.5799 7.12754 13.0703C6.64029 13.5575 5.85008 13.5575 5.35971 13.0703C4.87246 12.583 4.87246 11.7928 5.35971 11.3024C5.60333 11.0588 5.92192 10.937 6.24362 10.937C6.56533 10.937 6.88391 11.0588 7.12754 11.3024ZM0.49974 13.4295L0.624675 13.4357H2.4987L2.49245 13.3108C2.47684 13.1046 2.33004 12.9547 2.12389 12.9422L1.99896 12.936H0.874545L2.37376 11.4368L2.36752 11.3118C2.35815 11.1057 2.2051 10.9526 1.99896 10.9433L1.87402 10.937H0L0.00624677 11.0619C0.0218636 11.265 0.168662 11.418 0.371681 11.4305L0.496616 11.4368H1.62103L0.121811 12.936L0.128058 13.0609C0.140552 13.267 0.290474 13.417 0.49974 13.4295ZM9.05154 11.6866C9.09526 11.7616 9.10776 11.8428 9.114 11.9365L9.12025 12.0614V12.936L9.1265 13.0609C9.13899 13.2639 9.28891 13.417 9.49505 13.4295L9.61999 13.4357V12.0614L9.62624 11.9365C9.63248 11.8428 9.64498 11.7585 9.6887 11.6835C9.77616 11.5336 9.93545 11.4368 10.1197 11.4368C10.304 11.4368 10.4664 11.5367 10.5539 11.6866C10.5976 11.7616 10.6101 11.8459 10.6132 11.9365L10.6195 12.0614V12.936L10.6257 13.0609C10.6382 13.267 10.7881 13.417 10.9943 13.4295L11.1192 13.4357V12.0614V11.9365C11.1192 11.3837 10.6726 10.937 10.1197 10.937C9.81989 10.937 9.5544 11.0682 9.37012 11.2743C9.18584 11.0682 8.92035 10.937 8.62051 10.937C8.41437 10.937 8.22072 10.9995 8.06143 11.1088C7.9646 10.9995 7.74597 10.937 7.62103 10.937V13.4357L7.74597 13.4295C7.95523 13.417 8.10515 13.267 8.11452 13.0609L8.12077 12.936V12.0614L8.12702 11.9365C8.13326 11.8428 8.14576 11.7585 8.18949 11.6866C8.27694 11.5367 8.43623 11.4368 8.62051 11.4368C8.80479 11.4368 8.96408 11.5367 9.05154 11.6866Z" fill="#2D8CFF"/>
<path d="M11.494 10.937H11.5158C11.5845 10.937 11.6408 10.9932 11.6408 11.0619L11.6439 11.6148C11.8469 11.2119 12.2623 10.9401 12.7433 10.9401C13.4398 10.9401 14.0052 11.5117 13.9927 12.2145C13.9802 12.8829 13.4273 13.4295 12.7589 13.4388C12.2717 13.4451 11.8469 13.1702 11.6408 12.7642L11.6376 14.254C11.6376 14.3227 11.5814 14.379 11.5127 14.379H11.4908V10.937H11.494ZM12.7464 13.2952C13.3586 13.2952 13.8459 12.7985 13.8459 12.1864C13.8459 11.5711 13.3586 11.0744 12.7464 11.0744C12.1343 11.0744 11.647 11.5711 11.6439 12.1864C11.6408 12.7985 12.1343 13.2952 12.7464 13.2952Z" fill="#747487"/>
<path d="M16.2353 13.4357C16.1666 13.4357 16.1104 13.3795 16.1104 13.3108V11.9084C16.1104 11.4492 15.7387 11.0776 15.2827 11.0776C14.7861 11.0776 14.3863 11.4774 14.3863 11.9771V13.3108C14.3863 13.3795 14.3301 13.4357 14.2614 13.4357H14.2395V10H14.2614C14.3301 10 14.3863 10.0562 14.3863 10.1249V11.4555C14.5643 11.1432 14.8954 10.937 15.2827 10.937C15.8168 10.937 16.251 11.368 16.251 11.9053V13.4326H16.2353V13.4357Z" fill="#747487"/>
<path d="M17.747 13.4357C17.0599 13.4357 16.4977 12.8766 16.4977 12.1864C16.4977 11.4992 17.0599 10.9401 17.747 10.9401C18.4404 10.9401 19.0026 11.4992 19.0026 12.1864C19.0026 12.8766 18.4404 13.4357 17.747 13.4357ZM17.747 11.0776C17.1411 11.0776 16.6476 11.5742 16.6476 12.1864C16.6476 12.8017 17.1411 13.2983 17.747 13.2983C18.3592 13.2983 18.8496 12.8017 18.8496 12.1864C18.8527 11.5742 18.3592 11.0776 17.747 11.0776Z" fill="#747487"/>
<path d="M21.2359 13.4357C21.1672 13.4357 21.1109 13.3795 21.1109 13.3108V11.9084C21.1109 11.4617 20.7393 11.0776 20.2832 11.0776C19.796 11.0776 19.39 11.4805 19.39 11.9833V13.3139C19.39 13.3826 19.3337 13.4388 19.265 13.4388H19.2432V10.9401H19.265C19.3337 10.9401 19.39 10.9964 19.39 11.0651V11.4711C19.5649 11.1619 19.8866 10.9401 20.2832 10.9401C20.8236 10.9401 21.2577 11.3649 21.2577 11.9084V13.4357H21.2359Z" fill="#747487"/>
<path d="M23.9968 12.252H21.6543C21.6949 12.8329 22.1634 13.2952 22.7506 13.2952C23.116 13.2952 23.4315 13.1109 23.6376 12.8298C23.6782 12.7736 23.7594 12.7611 23.8157 12.8017L23.8282 12.811C23.5908 13.2108 23.1504 13.4732 22.6444 13.4295C22.0666 13.3795 21.5918 12.9297 21.5169 12.355C21.4138 11.5898 22.0104 10.9339 22.7568 10.937C23.4409 10.9401 23.9999 11.5242 23.9999 12.2082V12.252H23.9968ZM23.8438 12.1145C23.8094 11.5336 23.3315 11.0776 22.7506 11.0776C22.1634 11.0776 21.6949 11.5336 21.6543 12.1177H23.8438V12.1145Z" fill="#747487"/>
</svg>
