<svg width="24" height="24" viewBox="0 0 24 24" fill="none" xmlns="http://www.w3.org/2000/svg">
<path d="M21.84 1.00003H2.16003C1.87593 0.998442 1.59434 1.05323 1.33155 1.16121C1.06877 1.2692 0.830025 1.42824 0.629133 1.62913C0.428241 1.83002 0.269198 2.06877 0.161212 2.33155C0.0532254 2.59434 -0.00155792 2.87593 3.37112e-05 3.16003V16.12C-0.00155792 16.4041 0.0532254 16.6857 0.161212 16.9485C0.269198 17.2112 0.428241 17.45 0.629133 17.6509C0.830025 17.8518 1.06877 18.0108 1.33155 18.1188C1.59434 18.2268 1.87593 18.2816 2.16003 18.28H9.60001V20.992H7.20001V23.392H16.8V20.992H14.4V18.28H21.84C22.1241 18.2816 22.4057 18.2268 22.6684 18.1188C22.9312 18.0108 23.17 17.8518 23.3709 17.6509C23.5718 17.45 23.7308 17.2112 23.8388 16.9485C23.9468 16.6857 24.0016 16.4041 24 16.12V3.16003C24.0016 2.87593 23.9468 2.59434 23.8388 2.33155C23.7308 2.06877 23.5718 1.83002 23.3709 1.62913C23.17 1.42824 22.9312 1.2692 22.6684 1.16121C22.4057 1.05323 22.1241 0.998442 21.84 1.00003ZM17.604 15.4H12.804V13H17.604V15.4ZM17.604 9.95201L6.72002 14.512V12.28L14.556 8.92001L6.72002 5.47602V3.23203L17.604 7.72002V9.95201Z" fill="#AECBFA"/>
<path d="M9.60001 18.28H14.4V20.992H9.60001V18.28Z" fill="#4285F4"/>
<path d="M16.8 20.992H7.20001V23.392H16.8V20.992Z" fill="#669DF6"/>
</svg>
