<svg width="24" height="24" viewBox="0 0 24 24" fill="none" xmlns="http://www.w3.org/2000/svg">
<g clip-path="url(#clip0_517_2)">
<path d="M12 0C5.37333 0 0 5.37333 0 12C0 18.6267 5.37333 24 12 24C18.6267 24 24 18.6267 24 12C24 5.37333 18.6267 0 12 0ZM15.3333 12C15.3333 12.4267 15.24 12.84 15.0933 13.2133L17.08 15.2C17.6267 15.1733 18.1733 15.3467 18.5867 15.7733C19.3733 16.56 19.3733 17.8267 18.5867 18.6C17.8 19.3867 16.5333 19.3867 15.76 18.6C15.3467 18.1867 15.16 17.64 15.1867 17.0933L13.2 15.1067C12.8267 15.2533 12.4133 15.3467 11.9867 15.3467C10.6267 15.3467 9.45333 14.52 8.93333 13.3467H6.13333C5.77333 13.7467 5.24 14.0133 4.65333 14.0133C3.54667 14.0133 2.65333 13.12 2.65333 12.0133C2.65333 10.9067 3.54667 10.0133 4.65333 10.0133C5.24 10.0133 5.77333 10.28 6.13333 10.68H8.93333C9.45333 9.50667 10.6133 8.68 11.9867 8.68C12.4133 8.68 12.8267 8.77333 13.2 8.92L15.1867 6.93333C15.16 6.38667 15.3333 5.84 15.76 5.42667C16.5467 4.64 17.8133 4.64 18.5867 5.42667C19.3733 6.21333 19.3733 7.48 18.5867 8.25333C18.1733 8.66667 17.6267 8.85333 17.08 8.82667L15.0933 10.8133C15.24 11.1867 15.3333 11.6 15.3333 12.0267V12Z" fill="#193956"/>
</g>
<defs>
<clipPath id="clip0_517_2">
<rect width="24" height="24" fill="white"/>
</clipPath>
</defs>
</svg>
