<svg width="24" height="24" viewBox="0 0 24 24" fill="none" xmlns="http://www.w3.org/2000/svg">
<g clip-path="url(#clip0_313_13)">
<path d="M0 12C0 18.6274 5.37258 24 12 24C18.6274 24 24 18.6274 24 12C24 5.37258 18.6274 0 12 0C5.37258 0 0 5.37258 0 12Z" fill="url(#paint0_linear_313_13)"/>
<path fill-rule="evenodd" clip-rule="evenodd" d="M19.8 13.9344L15 12.5472V10.8162L19.8 12.2124V13.9344ZM17.535 17.8548L16.371 19.0176L13.9836 14.7366L15.1524 13.5678L17.535 17.8548ZM13.4712 14.4H11.2272C11.0934 14.4 10.9758 14.4888 10.9386 14.6172L10.8954 14.7672L9.59998 13.4718V11.2278C9.59998 11.094 9.51178 10.9764 9.38338 10.9392L9.23338 10.896L10.5288 9.6H12.7728C12.9066 9.6 13.0242 9.5118 13.0614 9.3834L13.1046 9.2334L14.4 10.5288V12.7728C14.4 12.9066 14.4882 13.0236 14.6166 13.0608L14.7666 13.1046L13.4712 14.4ZM11.7876 19.8H10.0656L11.4528 15H13.1844L11.7876 19.8ZM6.14518 17.5344L4.98238 16.3716L9.26338 13.9836L10.4328 15.153L6.14518 17.5344ZM4.19998 11.7876V10.0662L8.99998 11.4534V13.1844L4.19998 11.7876ZM6.46498 6.1458L7.62898 4.983L10.0164 9.2634L8.84758 10.4328L6.46498 6.1458ZM12.2124 4.2H13.9344L12.5472 9H10.8156L12.2124 4.2ZM17.8548 6.4656L19.0176 7.629L14.7366 10.017L13.5672 8.8476L17.8548 6.4656ZM20.184 11.6994L15.4314 10.3164L19.6566 7.9596C19.7388 7.9134 19.7946 7.8318 19.8078 7.7388C19.8204 7.6458 19.7892 7.5516 19.7226 7.485L18.1188 5.8818C18.0246 5.787 17.8782 5.7666 17.7612 5.8314L13.3854 8.2626L14.6214 3.9834C14.6478 3.8928 14.6298 3.7956 14.5728 3.72C14.5158 3.6444 14.4276 3.6 14.3334 3.6H11.9874C11.8536 3.6 11.7366 3.6882 11.6988 3.8166L10.3164 8.5692L7.95958 4.344C7.91338 4.2618 7.83238 4.206 7.73878 4.1928C7.64158 4.1796 7.55218 4.2114 7.48558 4.278L5.88118 5.8818C5.78638 5.976 5.76538 6.1224 5.83078 6.2394L8.26258 10.6158L3.98338 9.3786C3.89278 9.3534 3.79558 9.3708 3.71938 9.4272C3.64438 9.4842 3.59998 9.5724 3.59998 9.6672V12.0132C3.59998 12.1464 3.68758 12.264 3.81598 12.3012L8.56858 13.6842L4.34338 16.041C4.26118 16.0866 4.20538 16.1688 4.19218 16.2618C4.17958 16.3548 4.21078 16.4484 4.27738 16.515L5.88118 18.1188C5.97538 18.2136 6.12298 18.2346 6.23878 18.1692L10.6146 15.738L9.37857 20.0172C9.35217 20.1078 9.37018 20.205 9.42718 20.2806C9.48418 20.3562 9.57238 20.4 9.66658 20.4H12.0126C12.1464 20.4 12.2634 20.3118 12.3012 20.184L13.6836 15.4314L16.0404 19.6566C16.0866 19.7388 16.1676 19.7946 16.2612 19.8078C16.3584 19.821 16.4478 19.7886 16.5144 19.7226L18.1188 18.1188C18.2136 18.024 18.2346 17.8782 18.1692 17.7612L15.7374 13.3848L20.0166 14.622C20.1084 14.6484 20.205 14.6304 20.2806 14.5728C20.3556 14.5164 20.4 14.4276 20.4 14.3334V11.9874C20.4 11.8542 20.3124 11.7366 20.184 11.6994Z" fill="white"/>
</g>
<defs>
<linearGradient id="paint0_linear_313_13" x1="0" y1="24" x2="24" y2="0" gradientUnits="userSpaceOnUse">
<stop stop-color="#BD0816"/>
<stop offset="1" stop-color="#FF5252"/>
</linearGradient>
<clipPath id="clip0_313_13">
<rect width="24" height="24" fill="white"/>
</clipPath>
</defs>
</svg>
