<svg width="24" height="24" viewBox="0 0 24 24" fill="none" xmlns="http://www.w3.org/2000/svg">
<path d="M0 9.07623H1.73606C2.83783 9.07623 3.54836 9.96512 3.54836 11.1834C3.54836 11.8536 3.32254 12.4419 2.88961 12.8058C2.54295 13.0806 2.10899 13.2215 1.66702 13.2028H0V9.07623ZM1.60949 12.4822C2.39338 12.4822 2.69975 12.0032 2.69975 11.1877C2.69975 10.3722 2.3416 9.79684 1.6325 9.79684H0.837108V12.4865L1.60949 12.4822Z" fill="#231F20"/>
<path d="M3.67346 11.7256C3.67346 11.3156 3.83637 10.9223 4.12633 10.6323C4.4163 10.3423 4.80959 10.1794 5.21967 10.1794C5.62975 10.1794 6.02303 10.3423 6.313 10.6323C6.60297 10.9223 6.76587 11.3156 6.76587 11.7256C6.76587 12.6088 6.13732 13.2905 5.21967 13.2905C4.30201 13.2905 3.67346 12.6145 3.67346 11.7256ZM5.97479 11.7256C5.97479 11.1503 5.70295 10.7562 5.22398 10.7562C4.74502 10.7562 4.47317 11.1489 4.47317 11.7256C4.47317 12.3024 4.73926 12.6893 5.22398 12.6893C5.7087 12.6893 5.97048 12.3038 5.97048 11.7256H5.97479Z" fill="#231F20"/>
<path d="M6.92847 11.7256C6.92847 10.8425 7.50524 10.1694 8.40419 10.1694C9.17082 10.1694 9.64547 10.6138 9.74903 11.2539H8.97953C8.95884 11.1255 8.8927 11.0088 8.79316 10.9251C8.69362 10.8414 8.56732 10.7963 8.43728 10.7979C7.96407 10.7979 7.71811 11.1618 7.71811 11.7328C7.71811 12.3038 7.94393 12.6677 8.42289 12.6677C8.56818 12.6797 8.71227 12.6336 8.82362 12.5395C8.93496 12.4454 9.00447 12.311 9.01692 12.1658H9.77348C9.7217 12.7958 9.23123 13.2977 8.44015 13.2977C7.51099 13.2905 6.92847 12.6145 6.92847 11.7256Z" fill="#231F20"/>
<path d="M11.8562 13.2028V12.8576H11.8389C11.7477 12.9976 11.6213 13.1111 11.4723 13.1868C11.3234 13.2626 11.1572 13.2978 10.9903 13.2891C10.3316 13.2891 9.96191 12.8677 9.96191 12.2204V10.2427H10.7415V12.0838C10.7415 12.4304 10.8983 12.6203 11.232 12.6203C11.6016 12.6203 11.8274 12.3441 11.8274 11.9515V10.2427H12.6113V13.2028H11.8562Z" fill="#231F20"/>
<path d="M16.4343 9.09493H17.2182V9.82848H16.4343V9.09493ZM16.4343 10.2456H17.2182V13.2028H16.4343V10.2456Z" fill="#231F20"/>
<path d="M17.5447 13.2905H18.3286C18.3919 13.4746 18.5587 13.6185 18.9226 13.6185C19.3671 13.6185 19.5799 13.4056 19.5799 13.0014V12.6778H19.5627C19.4695 12.7913 19.3512 12.8817 19.2172 12.9418C19.0832 13.002 18.9371 13.0303 18.7903 13.0244C18.1315 13.0244 17.4857 12.5052 17.4857 11.6106C17.4857 10.7159 18.0121 10.1694 18.7601 10.1694C18.9184 10.1615 19.0762 10.1933 19.2191 10.2619C19.362 10.3305 19.4855 10.4336 19.5785 10.562H19.59V10.2427H20.3466V12.9755C20.3567 13.1422 20.3304 13.3091 20.2695 13.4646C20.2087 13.62 20.1147 13.7604 19.9942 13.8759C19.7468 14.1061 19.3656 14.2111 18.9269 14.2111C18.1215 14.2139 17.6252 13.8673 17.5447 13.2905ZM19.6231 11.5933C19.6231 11.1618 19.3915 10.7907 18.9183 10.7907C18.5199 10.7907 18.2552 11.1028 18.2552 11.5991C18.2552 12.0953 18.5199 12.3959 18.924 12.3959C19.4145 12.3959 19.6231 12.0392 19.6231 11.5933Z" fill="#231F20"/>
<path d="M21.4527 10.6469H21.4699C21.5576 10.4934 21.6859 10.367 21.8406 10.2815C21.9954 10.196 22.1707 10.1547 22.3473 10.1622C22.96 10.1622 23.37 10.6239 23.37 11.2697V13.2028H22.5846V11.3862C22.5846 11.0683 22.4005 10.8425 22.0711 10.8425C21.7418 10.8425 21.4699 11.1201 21.4699 11.5243V13.2028H20.686V10.2427H21.4527V10.6469Z" fill="#231F20"/>
<path d="M14.6451 10.7159C14.0339 10.5836 13.7447 10.4858 13.7447 10.1507C13.7447 9.863 14.0396 9.66595 14.4898 9.66595C14.9012 9.66595 15.209 9.85868 15.2794 10.2413H16.0835C16.0015 9.44013 15.4075 9 14.5013 9C13.5952 9 12.9191 9.42143 12.9191 10.2355C12.9191 11.0985 13.5952 11.2913 14.3345 11.4595C14.963 11.6034 15.3557 11.6839 15.3557 12.0881C15.3557 12.4693 14.9803 12.6188 14.5531 12.6188C13.9648 12.6188 13.6815 12.4232 13.6239 11.927H12.8041C12.8328 12.7986 13.4686 13.2949 14.5876 13.2949C15.5168 13.2949 16.1928 12.8274 16.1928 11.9903C16.187 11.1028 15.4938 10.9 14.6451 10.7159Z" fill="#231F20"/>
<path d="M23.6878 10.7893C23.6261 10.7893 23.5658 10.771 23.5144 10.7367C23.4631 10.7024 23.4231 10.6536 23.3995 10.5966C23.3759 10.5396 23.3697 10.4768 23.3817 10.4163C23.3938 10.3557 23.4235 10.3001 23.4671 10.2565C23.5108 10.2128 23.5664 10.1831 23.627 10.171C23.6875 10.159 23.7503 10.1652 23.8073 10.1888C23.8643 10.2124 23.9131 10.2524 23.9474 10.3038C23.9817 10.3551 24 10.4154 24 10.4772C24 10.5599 23.9671 10.6393 23.9085 10.6979C23.85 10.7564 23.7706 10.7893 23.6878 10.7893ZM23.6878 10.214C23.6358 10.214 23.5849 10.2294 23.5416 10.2583C23.4983 10.2872 23.4646 10.3283 23.4447 10.3764C23.4247 10.4245 23.4195 10.4775 23.4297 10.5285C23.4398 10.5796 23.4649 10.6265 23.5017 10.6633C23.5385 10.7001 23.5854 10.7252 23.6365 10.7353C23.6876 10.7455 23.7405 10.7403 23.7886 10.7203C23.8367 10.7004 23.8778 10.6667 23.9067 10.6234C23.9356 10.5801 23.9511 10.5292 23.9511 10.4772C23.9511 10.4426 23.9443 10.4084 23.931 10.3764C23.9178 10.3445 23.8984 10.3155 23.874 10.291C23.8495 10.2666 23.8205 10.2472 23.7886 10.234C23.7566 10.2208 23.7224 10.214 23.6878 10.214Z" fill="#231F20"/>
<path d="M23.5814 10.3132H23.6821C23.7169 10.3085 23.7522 10.3167 23.7813 10.3362C23.7929 10.3455 23.8022 10.3574 23.8084 10.3708C23.8147 10.3843 23.8177 10.399 23.8173 10.4139C23.8181 10.4335 23.8123 10.4528 23.8008 10.4687C23.7893 10.4846 23.7729 10.4962 23.754 10.5016L23.8245 10.6311H23.7569L23.6936 10.5131H23.6404V10.6311H23.5814V10.3132ZM23.6404 10.3635V10.4642H23.7008C23.7077 10.465 23.7147 10.4644 23.7213 10.4623C23.7279 10.4602 23.734 10.4567 23.7392 10.4521C23.7443 10.4475 23.7485 10.4418 23.7513 10.4355C23.7541 10.4291 23.7555 10.4223 23.7555 10.4153C23.7559 10.4065 23.7539 10.3978 23.7495 10.3902C23.7452 10.3825 23.7388 10.3763 23.731 10.3722C23.7101 10.3679 23.6886 10.3679 23.6677 10.3722L23.6404 10.3635Z" fill="#231F20"/>
</svg>
