<svg width="24" height="24" viewBox="0 0 24 24" fill="none" xmlns="http://www.w3.org/2000/svg">
<g clip-path="url(#clip0_343_703)">
<path d="M2.18182 3.81818H21.8182V20.1818H2.18182V3.81818Z" fill="#0F9D58"/>
<path d="M16.3636 12.5454C17.0409 12.5454 17.5909 11.9954 17.5909 11.3182C17.5909 10.6409 17.0409 10.0909 16.3636 10.0909C15.6864 10.0909 15.1364 10.6409 15.1364 11.3182C15.1364 11.9954 15.6864 12.5454 16.3636 12.5454ZM16.3636 13.3636C15.05 13.3636 13.6364 14.0591 13.6364 14.9227V15.8182H19.0909V14.9227C19.0909 14.0591 17.6773 13.3636 16.3636 13.3636ZM7.63636 12.5454C8.31363 12.5454 8.86363 11.9954 8.86363 11.3182C8.86363 10.6409 8.31363 10.0909 7.63636 10.0909C6.95909 10.0909 6.40909 10.6409 6.40909 11.3182C6.40909 11.9954 6.95909 12.5454 7.63636 12.5454ZM7.63636 13.3636C6.32272 13.3636 4.90909 14.0591 4.90909 14.9227V15.8182H10.3636V14.9227C10.3636 14.0591 8.95 13.3636 7.63636 13.3636Z" fill="#57BB8A"/>
<path d="M12 11.4545C12.9046 11.4545 13.6364 10.7227 13.6364 9.81818C13.6364 8.91363 12.9046 8.18182 12 8.18182C11.0955 8.18182 10.3636 8.91363 10.3636 9.81818C10.3636 10.7227 11.0955 11.4545 12 11.4545ZM12 12.5455C10.1591 12.5455 8.18182 13.5227 8.18182 14.7273V15.8182H15.8182V14.7273C15.8182 13.5227 13.8409 12.5455 12 12.5455Z" fill="#F7F7F7"/>
<path d="M14.1818 19.0909H19.0909V20.1818H14.1818V19.0909Z" fill="#F1F1F1"/>
<path d="M22.3636 1.63636H1.63636C0.731818 1.63636 0 2.36818 0 3.27272V20.7273C0 21.6318 0.731818 22.3636 1.63636 22.3636H22.3636C23.2682 22.3636 24 21.6318 24 20.7273V3.27272C24 2.36818 23.2682 1.63636 22.3636 1.63636ZM21.8182 20.1818H2.18182V3.81818H21.8182V20.1818Z" fill="#F4B400"/>
<path opacity="0.2" d="M22.3636 1.63636H1.63636C0.731818 1.63636 0 2.36818 0 3.27272V3.40909C0 2.50454 0.731818 1.77272 1.63636 1.77272H22.3636C23.2682 1.77272 24 2.50454 24 3.40909V3.27272C24 2.36818 23.2682 1.63636 22.3636 1.63636Z" fill="white"/>
<path opacity="0.2" d="M22.3636 22.2273H1.63636C0.731818 22.2273 0 21.4955 0 20.5909V20.7273C0 21.6318 0.731818 22.3636 1.63636 22.3636H22.3636C23.2682 22.3636 24 21.6318 24 20.7273V20.5909C24 21.4955 23.2682 22.2273 22.3636 22.2273Z" fill="#BF360C"/>
<path d="M19.0818 20.1818H14.1727L16.3545 22.3636H21.2591L19.0818 20.1818Z" fill="url(#paint0_linear_343_703)"/>
<path opacity="0.2" d="M2.18182 3.68182H21.8182V3.81818H2.18182V3.68182Z" fill="#263238"/>
<path opacity="0.2" d="M2.18182 20.1818H21.8182V20.3182H2.18182V20.1818Z" fill="white"/>
<path d="M22.3636 1.63636H1.63636C0.731818 1.63636 0 2.36818 0 3.27272V20.7273C0 21.6318 0.731818 22.3636 1.63636 22.3636H22.3636C23.2682 22.3636 24 21.6318 24 20.7273V3.27272C24 2.36818 23.2682 1.63636 22.3636 1.63636Z" fill="url(#paint1_radial_343_703)"/>
</g>
<defs>
<linearGradient id="paint0_linear_343_703" x1="17.7161" y1="20.212" x2="17.7161" y2="22.3864" gradientUnits="userSpaceOnUse">
<stop stop-color="#BF360C" stop-opacity="0.2"/>
<stop offset="1" stop-color="#BF360C" stop-opacity="0.02"/>
</linearGradient>
<radialGradient id="paint1_radial_343_703" cx="0" cy="0" r="1" gradientUnits="userSpaceOnUse" gradientTransform="translate(0.706411 2.12221) scale(99.0241 99.0237)">
<stop stop-color="white" stop-opacity="0.1"/>
<stop offset="1" stop-color="white" stop-opacity="0"/>
</radialGradient>
<clipPath id="clip0_343_703">
<rect width="24" height="24" fill="white"/>
</clipPath>
</defs>
</svg>
