<svg width="24" height="24" viewBox="0 0 24 24" fill="none" xmlns="http://www.w3.org/2000/svg">
<path fill-rule="evenodd" clip-rule="evenodd" d="M2.18182 5.81818H15.8182V4.72727H2.18182V5.81818ZM16.9091 5.81818H21.2727V4.72727H16.9091V5.81818ZM6.66164 15.0151C7.32273 14.8176 8.064 15.0445 8.49 15.6309L10.0173 17.7462C10.1929 17.9905 10.5338 18.0462 10.7787 17.8695C11.0231 17.6933 11.0782 17.3524 10.9015 17.1075L9.37855 14.9976C9.37691 14.9955 9.37527 14.9933 9.37418 14.9911L4.992 8.92073C4.81145 8.66982 4.86818 8.31855 5.11909 8.13691C5.37055 7.95527 5.72182 8.01309 5.90291 8.264L8.076 11.2744C8.07927 11.2798 8.08364 11.2858 8.088 11.2918L10.4389 14.5487C10.6145 14.792 10.956 14.8482 11.1998 14.6715C11.4442 14.4953 11.4993 14.1544 11.3231 13.91L8.96564 10.6427C8.79327 10.3929 8.85218 10.0482 9.09927 9.86927C9.34964 9.68927 9.702 9.74491 9.88309 9.99582L10.4067 10.7218C10.4122 10.7295 10.4171 10.7365 10.422 10.7436L12.2335 13.2533C12.4096 13.4965 12.7505 13.5527 12.9944 13.376C13.2387 13.1998 13.2938 12.8589 13.1176 12.6145L11.298 10.0929C11.2162 9.97345 11.1845 9.83 11.2075 9.68709C11.2315 9.53873 11.3116 9.40891 11.4333 9.32109C11.556 9.23382 11.7044 9.19945 11.8516 9.22236C11.9989 9.24636 12.1287 9.32655 12.2165 9.44818L12.9316 10.4387C12.9338 10.4415 12.9355 10.4436 12.9371 10.4458L14.3645 12.4236C14.5402 12.6675 14.8816 12.7231 15.1255 12.5464C15.3704 12.3702 15.4249 12.0287 15.2487 11.7849L13.8185 9.80273C13.6413 9.55182 13.6985 9.20327 13.9478 9.02327C14.0705 8.936 14.2189 8.90164 14.3662 8.92455C14.5135 8.94855 14.6438 9.02873 14.7316 9.15036L16.8627 12.1018C16.8731 12.1176 17.8849 13.6967 18.1424 14.7533C18.3845 15.7476 19.7913 17.942 20.4322 18.908L15.5035 22.466C15.0442 21.8976 14.1213 21.0315 12.654 20.8275C11.0689 20.6076 9.98127 19.5576 9.82855 19.4033L6.66164 15.0151ZM15.6933 23.6742L21.498 19.484C21.738 19.3111 21.7964 18.9784 21.6295 18.734C21.0267 17.8509 19.4149 15.3675 19.2022 14.4947C18.9011 13.2593 17.8255 11.5815 17.7633 11.4871L15.6164 8.51218C15.3578 8.15382 14.976 7.91818 14.5402 7.84782C14.1027 7.77745 13.6675 7.88055 13.3096 8.13909C13.1411 8.26073 13.002 8.40855 12.8945 8.57327C12.6562 8.348 12.3562 8.19909 12.0256 8.14564C11.5882 8.07473 11.1524 8.17836 10.7951 8.43636C10.6047 8.57382 10.4487 8.74618 10.3336 8.94309C9.77782 8.57927 9.03 8.57382 8.46109 8.98509C8.30127 9.10018 8.16818 9.23927 8.06291 9.39309L6.78709 7.62527C6.25364 6.88618 5.21727 6.71927 4.48091 7.25273C3.74182 7.78618 3.57491 8.82036 4.10782 9.55945L7.20927 13.856C6.61364 13.8304 6.03436 14.0093 5.52764 14.3753C5.41036 14.4598 5.33073 14.588 5.30782 14.7309C5.28491 14.8733 5.31982 15.0195 5.40436 15.1367L8.96618 20.0725C8.97873 20.09 8.99236 20.1069 9.00709 20.1227C9.06273 20.1833 10.4007 21.6167 12.504 21.9085C14.1251 22.1333 14.8647 23.438 14.8942 23.4915C14.9684 23.6295 15.0993 23.7287 15.252 23.7636C15.2924 23.7729 15.3333 23.7773 15.3742 23.7773C15.4876 23.7773 15.5995 23.7418 15.6933 23.6742ZM23.4545 9.63636H18V8.54545H22.9091V3.09091L1.09091 3.05V8.54545H2.72727V9.63636H0.545455C0.243818 9.63636 0 9.392 0 9.09091V2.54545C0 2.24382 0.243818 2 0.545455 2H23.4545C23.7562 2 24 2.24382 24 2.54545V9.09091C24 9.392 23.7562 9.63636 23.4545 9.63636Z" fill="#BF0816"/>
</svg>
