<svg width="24" height="24" viewBox="0 0 24 24" fill="none" xmlns="http://www.w3.org/2000/svg">
<g clip-path="url(#clip0_318_371)">
<path d="M6.00427 11.88C6.00427 8.43942 8.80353 5.63999 12.2443 5.63999C15.6848 5.63999 18.4843 8.43942 18.4843 11.88C18.4843 15.3207 15.6848 18.12 12.2443 18.12C8.80353 18.12 6.00427 15.3207 6.00427 11.88Z" fill="#21BBD1"/>
<path d="M24 1.92C24 0.864 23.0738 0 22.0178 0H12.2443C5.61703 0 0 5.25257 0 11.88V24H2.91429V11.88C2.91429 6.85131 7.11069 2.76 12.1394 2.76C17.1681 2.76 21.3117 6.85114 21.3117 11.88C21.3117 16.9087 17.1588 21 12.1301 21C9.71743 21 7.2 20.0568 5.82857 18.522V24H12.2443C18.8717 24 24 18.5074 24 11.88V1.92Z" fill="#20222D"/>
</g>
<defs>
<clipPath id="clip0_318_371">
<rect width="24" height="24" fill="white"/>
</clipPath>
</defs>
</svg>
