<svg width="24" height="24" viewBox="0 0 24 24" fill="none" xmlns="http://www.w3.org/2000/svg">
<path d="M14.812 13.878V8.9595H15.699V10.7415C16.0013 10.4552 16.3884 10.298 16.7956 10.298C17.7551 10.298 18.6057 11.0277 18.6057 12.1324C18.6057 13.233 17.7551 13.9667 16.7956 13.9667C16.3642 13.9667 15.957 13.7974 15.6546 13.487V13.8821H14.812V13.878ZM17.7188 12.1283C17.7188 11.5115 17.2793 11.0801 16.7069 11.0801C16.1505 11.0801 15.7191 11.4873 15.6949 12.084V12.1283C15.6949 12.7452 16.1344 13.1765 16.7069 13.1765C17.2793 13.1765 17.7188 12.7452 17.7188 12.1283ZM19.017 13.878V8.9595H19.9039V13.878H19.017ZM21.1456 15.152L21.6617 13.9183L20.2587 10.3826H21.2182L22.1132 12.854L23.0243 10.3826H24L22.093 15.156L21.1456 15.152ZM13.401 10.3826V10.8261C13.0946 10.4875 12.6632 10.298 12.2197 10.298C11.2602 10.298 10.4095 11.0277 10.4095 12.1324C10.4095 13.237 11.2602 13.9667 12.2197 13.9667C12.6793 13.9667 13.1147 13.7651 13.4292 13.4104V13.8861H14.2033V10.3907H13.401V10.3826ZM13.3123 12.1283C13.3123 12.7371 12.8728 13.1765 12.3004 13.1765C11.7279 13.1765 11.2884 12.7371 11.2884 12.1283C11.2884 11.5196 11.7279 11.0801 12.3004 11.0801C12.8567 11.0801 13.2881 11.4954 13.3123 12.084V12.1283Z" fill="#03020D"/>
<path d="M4.53955 8L0.74181 14.9504L0 14.4304L3.51553 8H4.53955ZM4.59196 8L8.3897 14.9504L9.13151 14.4304L5.61598 8H4.59196Z" fill="url(#paint0_linear_315_122)"/>
<path d="M8.33733 14.9907L4.56377 12.0356L0.790222 14.9907L1.56428 15.531L4.56781 13.1806L7.57133 15.531L8.33733 14.9907Z" fill="url(#paint1_linear_315_122)"/>
<defs>
<linearGradient id="paint0_linear_315_122" x1="1.28981" y1="16.8065" x2="7.64111" y2="9.75269" gradientUnits="userSpaceOnUse">
<stop stop-color="#FF5416"/>
<stop offset="0.2535" stop-color="#FF5115"/>
<stop offset="0.461" stop-color="#FF4712"/>
<stop offset="0.6523" stop-color="#FF350E"/>
<stop offset="0.8327" stop-color="#FF1E08"/>
<stop offset="1" stop-color="#FF0000"/>
</linearGradient>
<linearGradient id="paint1_linear_315_122" x1="2.5222" y1="17.2628" x2="6.276" y2="13.0938" gradientUnits="userSpaceOnUse">
<stop stop-color="#FF5416"/>
<stop offset="0.2535" stop-color="#FF5115"/>
<stop offset="0.461" stop-color="#FF4712"/>
<stop offset="0.6523" stop-color="#FF350E"/>
<stop offset="0.8327" stop-color="#FF1E08"/>
<stop offset="1" stop-color="#FF0000"/>
</linearGradient>
</defs>
</svg>
