<svg width="24" height="24" viewBox="0 0 24 24" fill="none" xmlns="http://www.w3.org/2000/svg">
<g clip-path="url(#clip0_313_74)">
<path fill-rule="evenodd" clip-rule="evenodd" d="M11.5043 12.3235C10.7237 13.1047 9.31661 12.9679 8.36966 12.0204C7.42217 11.0734 7.28588 9.66691 8.06655 8.88623C8.39747 8.55532 8.85758 8.38032 9.36022 8.38032C9.55049 8.38032 9.7462 8.4054 9.94409 8.4561C10.4075 8.57604 10.8425 8.82954 11.2012 9.1888C12.1498 10.1363 12.2856 11.5428 11.5043 12.3235ZM12.991 10.0278C12.8106 9.42431 12.4742 8.85843 12.0032 8.38686C11.7644 8.14863 11.4989 7.94583 11.217 7.77737L11.5981 5.87094L10.4865 5.64906L10.148 7.34288C9.48779 7.18805 8.83305 7.22676 8.25791 7.44591C8.09599 6.86586 7.74872 6.16369 6.74399 5.74065L6.30404 6.78518C7.01385 7.08447 7.13324 7.53423 7.23736 8.0565C6.7151 7.95291 6.26534 7.83298 5.96604 7.12263L4.92151 7.56312C5.34565 8.56949 6.04891 8.91622 6.62951 9.07704C6.40708 9.66363 6.37437 10.3216 6.52483 10.9666L4.82992 11.3057L5.05235 12.4172L6.95824 12.0362C7.12397 12.3142 7.32568 12.5803 7.56773 12.8223C8.00604 13.2606 8.51795 13.5703 9.05166 13.7556V14.8819H10.1856V13.9584C10.1954 13.959 10.2052 13.9601 10.215 13.9601C10.9963 13.9601 11.7459 13.6853 12.3063 13.1254C12.8236 12.6075 13.1115 11.9206 13.1398 11.1612H14.3277V10.0278H12.991ZM9.32479 15.5825C6.14976 15.5825 3.56624 12.9989 3.56624 9.82446C3.56624 6.64889 6.14976 4.06591 9.32479 4.06591C12.4998 4.06591 15.0822 6.64889 15.0822 9.82446C15.0822 12.9989 12.4998 15.5825 9.32479 15.5825ZM9.32479 2.93251C5.52446 2.93251 2.4323 6.02413 2.4323 9.82446C2.4323 13.6242 5.52446 16.7159 9.32479 16.7159C13.1251 16.7159 16.2167 13.6242 16.2167 9.82446C16.2167 6.02413 13.1251 2.93251 9.32479 2.93251ZM22.5461 21.6757C22.0838 22.1887 21.2922 22.2291 20.7814 21.7679L15.3799 16.9007C16.0139 16.3566 16.5793 15.7346 17.0486 15.0411L22.4539 19.9116C22.9658 20.3728 23.0073 21.1644 22.5461 21.6757ZM1.13427 9.82446C1.13427 5.30779 4.80812 1.63339 9.32479 1.63339C13.8409 1.63339 17.5148 5.30779 17.5148 9.82446C17.5148 14.3406 13.8409 18.015 9.32479 18.015C4.80812 18.015 1.13427 14.3406 1.13427 9.82446ZM23.2133 19.0693L17.6309 14.0391C18.2769 12.7716 18.6487 11.3416 18.6487 9.82446C18.6487 4.68249 14.4662 0.5 9.32479 0.5C4.18282 0.5 -0.000213623 4.68249 -0.000213623 9.82446C-0.000213623 14.9659 4.18282 19.1489 9.32479 19.1489C11.222 19.1489 12.9872 18.5759 14.4613 17.5985L20.0225 22.6102C20.4772 23.0196 21.0474 23.2213 21.6166 23.2213C22.268 23.2213 22.9184 22.9563 23.3883 22.4352C24.2677 21.4593 24.1892 19.9492 23.2133 19.0693Z" fill="#BF0816"/>
</g>
<defs>
<clipPath id="clip0_313_74">
<rect width="24" height="24" fill="white"/>
</clipPath>
</defs>
</svg>
