<svg width="24" height="24" viewBox="0 0 24 24" fill="none" xmlns="http://www.w3.org/2000/svg">
<path d="M0 17.8774H12.1174L24 6H0V17.8774Z" fill="#014185"/>
<path fill-rule="evenodd" clip-rule="evenodd" d="M14.231 8.23233L11.8827 8.23186V13.85L9.81614 8.23186H7.79657L6.01183 12.9304C5.82396 11.7469 4.60283 11.3378 3.61653 11.0315C3.00596 10.8258 2.30146 10.5234 2.34843 10.1927C2.34843 9.91844 2.67719 9.6667 3.38169 9.70427C3.85136 9.72822 4.27406 9.7672 5.11946 10.1702L5.96486 8.7391C5.16643 8.3521 4.13316 8.1074 3.28776 8.10646C2.25449 8.10646 1.40909 8.43147 0.892458 8.97018C0.563691 9.34497 0.328857 9.82075 0.328857 10.3482C0.328857 11.0738 0.610658 11.5886 1.12729 11.9986C1.64393 12.3438 2.20753 12.5688 2.77113 12.7336C3.42866 12.937 3.9453 13.1131 3.9453 13.4907C3.9453 13.6302 3.89833 13.757 3.8044 13.8589C3.61653 14.0276 3.38169 14.0914 3.00596 14.0994C2.34843 14.1116 1.87876 14.0069 1.08032 13.5405L0.328857 14.9894C1.12729 15.4384 2.06663 15.7024 3.00596 15.7024L3.14686 15.7014C3.9453 15.6864 4.6498 15.4492 5.16643 15.0181C5.2134 14.9927 5.2134 14.9692 5.26036 14.9458L5.02553 15.5765H7.186L7.51477 14.4831C7.8905 14.609 8.3132 14.6823 8.78287 14.6823C9.25254 14.6823 9.62827 14.6114 10.004 14.4921L10.3797 15.5765H13.8553V13.3085H14.6537C16.4854 13.3085 17.5656 12.3687 17.5656 10.7925C17.5656 9.03781 16.5324 8.23233 14.231 8.23233ZM8.78287 13.0422C8.50107 13.0422 8.26623 12.9933 8.0314 12.9079L8.78287 10.5445L9.53434 12.9154C9.2995 12.9962 9.06467 13.0422 8.78287 13.0422ZM14.3719 11.683H13.8553V9.77754H14.3719C15.0764 9.77754 15.64 10.0081 15.64 10.7206C15.64 11.4533 15.0764 11.683 14.3719 11.683Z" fill="white"/>
</svg>
