<svg width="24" height="24" viewBox="0 0 24 24" fill="none" xmlns="http://www.w3.org/2000/svg">
<g clip-path="url(#clip0_343_1031)">
<path d="M24 0H0V24H24V0Z" fill="url(#paint0_linear_343_1031)"/>
<path fill-rule="evenodd" clip-rule="evenodd" d="M15.1957 5.60672V7.19576L14.3395 5.98764L13.9007 6.29731L15.2452 8.19441C15.2958 8.26513 15.3775 8.30799 15.4646 8.30799C15.5518 8.30799 15.6335 8.26513 15.684 8.19441L17.0286 6.29731L16.5897 5.98764L15.7335 7.19576V5.60672C15.7335 4.61665 15.1156 4.00161 14.1201 4.00161H13.0445V4.53736H14.1201C14.8139 4.53736 15.1957 4.91721 15.1957 5.60672ZM8.74205 17.382V15.8042L9.59824 17.0124L10.0371 16.7027L8.69257 14.8056C8.592 14.6636 8.35429 14.6636 8.25373 14.8056L6.90921 16.7027L7.34806 17.0124L8.20425 15.8042V17.382C8.20425 18.3796 8.82219 18.9995 9.81766 18.9995H10.8933V18.4637H9.81766C9.12389 18.4637 8.74205 18.0796 8.74205 17.382ZM15.6937 15.1881C16.0196 14.8377 16.2746 14.4215 16.4671 13.9221H14.8913C15.0882 14.4097 15.3576 14.834 15.6937 15.1881ZM17.824 16.3946C17.8374 16.4418 17.8245 16.4927 17.7896 16.5275C17.7352 16.5816 17.6524 16.6968 17.6094 16.7788C17.5852 16.8238 17.5389 16.8506 17.49 16.8506C17.4787 16.8506 17.468 16.8495 17.4561 16.8463C16.757 16.6673 16.1735 16.3791 15.676 15.9676C15.207 16.3378 14.6316 16.6239 13.9222 16.8404C13.855 16.8613 13.784 16.827 13.7576 16.7627C13.735 16.7086 13.6624 16.6009 13.6119 16.5382C13.5834 16.5029 13.5742 16.4557 13.5882 16.4129C13.6017 16.3695 13.6361 16.3362 13.6796 16.3239C14.3191 16.1412 14.8386 15.8958 15.2619 15.5744C14.8542 15.1265 14.5272 14.5715 14.2874 13.9221H13.7549C13.6807 13.9221 13.62 13.8621 13.62 13.7877V13.508C13.62 13.4335 13.6807 13.3735 13.7549 13.3735H15.4028V12.7665C15.4028 12.729 15.4178 12.6937 15.4453 12.6685C15.4722 12.6428 15.5087 12.6315 15.5464 12.632L15.9244 12.6578C15.9626 12.6604 15.9971 12.6781 16.0207 12.707C16.0444 12.736 16.0551 12.7735 16.0498 12.811C16.0455 12.841 16.0288 12.9005 15.9664 12.9428V13.3735H17.6433C17.7175 13.3735 17.7783 13.4335 17.7783 13.508V13.7877C17.7783 13.8621 17.7175 13.9221 17.6433 13.9221H17.1603C17.1394 13.9575 17.1033 13.9929 17.0409 14.0111C16.8108 14.6331 16.5058 15.1447 16.1116 15.5674C16.5666 15.9146 17.1082 16.1616 17.7239 16.3009C17.7718 16.3116 17.81 16.348 17.824 16.3946ZM9.45733 9.68326L8.74689 7.62597L8.04183 9.68326H9.45733ZM9.0927 7.06879L10.648 11.2627H10.0043L9.61545 10.1494H7.88425L7.50779 11.2627H6.86995L8.42475 7.06879H9.0927ZM18.9265 18.4642V11.5305H16.5623C16.4139 11.5305 16.2934 11.4105 16.2934 11.2627V9.34574H12.4841V18.4642H18.9265ZM16.8312 10.9948H18.4537L16.8312 9.64737V10.9948ZM19.4643 11.2627V18.7321C19.4643 18.88 19.3444 19 19.1954 19H12.2152C12.0668 19 11.9463 18.88 11.9463 18.7321V9.07786C11.9463 8.92999 12.0668 8.80999 12.2152 8.80999H16.5623C16.6241 8.80999 16.6854 8.82874 16.7344 8.86945L19.368 11.0569C19.4299 11.1089 19.4643 11.185 19.4643 11.2627ZM10.3711 6.12051H11.5693L10.3711 4.91774V6.12051ZM5.53781 10.4285H5V4.26895C5 4.12108 5.12047 4.00107 5.2689 4.00107L10.1022 4C10.1721 4 10.2409 4.02732 10.2931 4.07929L12.4061 6.1998C12.4567 6.2507 12.4841 6.31927 12.4841 6.38838V7.74973H11.9463V6.65626H10.1022C9.95373 6.65626 9.83326 6.53625 9.83326 6.38838V4.53575L5.53781 4.53682V10.4285ZM5.53781 13.6543H10.8933V14.19H5.2689C5.12047 14.19 5 14.07 5 13.9221V12.0358H5.53781V13.6543Z" fill="white"/>
</g>
<defs>
<linearGradient id="paint0_linear_343_1031" x1="0" y1="24" x2="24" y2="0" gradientUnits="userSpaceOnUse">
<stop stop-color="#055F4E"/>
<stop offset="1" stop-color="#56C0A7"/>
</linearGradient>
<clipPath id="clip0_343_1031">
<rect width="24" height="24" rx="12" fill="white"/>
</clipPath>
</defs>
</svg>
