<svg width="24" height="24" viewBox="0 0 24 24" fill="none" xmlns="http://www.w3.org/2000/svg">
<path fill-rule="evenodd" clip-rule="evenodd" d="M19.408 15.7314L19.4512 15.4128C19.7309 15.5926 19.9222 15.7374 20.0364 15.8406C19.8719 15.8297 19.6566 15.7904 19.408 15.7314ZM12.0524 13.4059C12.0524 13.348 12.0994 13.3004 12.1573 13.3004C12.1742 13.3004 12.1862 13.3114 12.2005 13.3185L12.1201 13.4818C12.0841 13.4704 12.0524 13.449 12.0524 13.4059ZM17.4983 21.7658C17.4978 21.768 17.4016 21.9696 16.7541 22.2253C16.4596 22.3417 16.1094 22.4471 15.7122 22.5384C14.6838 22.7761 13.4206 22.9072 12.1567 22.9072C8.99801 22.9072 6.97197 22.1532 6.82061 21.7915C6.82061 21.7669 6.81898 21.7428 6.8157 21.7188L5.30545 10.5061C5.33168 10.5193 5.36446 10.5296 5.39124 10.5422C5.56991 10.628 5.75896 10.71 5.96222 10.7848C5.97807 10.7908 5.99173 10.7974 6.00867 10.8028C6.22941 10.8826 6.466 10.9553 6.71024 11.023C6.7769 11.0416 6.84466 11.0591 6.91241 11.0766C7.11731 11.1301 7.32658 11.1799 7.54186 11.2258C7.59377 11.2367 7.64404 11.2487 7.69595 11.2596C7.95767 11.3126 8.22486 11.3596 8.49587 11.4022C8.56199 11.4126 8.62865 11.4214 8.69585 11.4312C8.91715 11.4634 9.13953 11.4929 9.36246 11.5192C9.43021 11.5268 9.49742 11.535 9.56517 11.5421C9.83947 11.5722 10.1121 11.5973 10.382 11.617C10.429 11.6208 10.4744 11.6224 10.5214 11.6257C10.7509 11.6416 10.9765 11.6541 11.1989 11.6634C11.2688 11.6662 11.3377 11.6689 11.4071 11.6711C11.6644 11.6798 11.9174 11.6853 12.1567 11.6853C12.3966 11.6853 12.6496 11.6798 12.9069 11.6711C12.9763 11.6689 13.0452 11.6662 13.1157 11.6634C13.3386 11.6541 13.5648 11.6416 13.7954 11.6257C13.8413 11.6224 13.8855 11.6208 13.932 11.617C14.2014 11.5973 14.4735 11.5722 14.7472 11.5427C14.8172 11.535 14.8865 11.5263 14.9565 11.5186C15.1778 11.4929 15.3974 11.4634 15.6176 11.4312C15.6854 11.4214 15.7526 11.4126 15.8198 11.4017C16.0903 11.3596 16.3575 11.3126 16.6192 11.2596C16.6716 11.2487 16.7219 11.2367 16.7744 11.2252C16.9891 11.1799 17.1984 11.1301 17.4033 11.0766C17.471 11.0591 17.5382 11.0416 17.6043 11.023C17.8486 10.9547 18.0852 10.8826 18.3065 10.8028C18.3239 10.7968 18.3381 10.7903 18.3545 10.7837C18.5573 10.7094 18.7458 10.628 18.9244 10.5422C18.9512 10.5296 18.984 10.5193 19.0097 10.5061L18.3496 15.4237C16.9241 14.9522 14.9696 14.1392 13.1315 13.2682C13.0638 12.789 12.6551 12.4185 12.1573 12.4185C11.6125 12.4185 11.1699 12.8617 11.1699 13.4059C11.1699 13.9506 11.6125 14.3932 12.1573 14.3932C12.3392 14.3932 12.5081 14.3408 12.6545 14.2544C14.9647 15.3625 16.8142 16.1193 18.2015 16.528L17.4983 21.7658ZM12.1567 7.06056C16.3465 7.06056 19.143 8.3741 19.2206 8.9358L19.214 8.9888C19.208 9.00738 19.1949 9.02705 19.184 9.04672C19.1741 9.06366 19.1665 9.08059 19.1523 9.09808C19.137 9.11775 19.1151 9.13851 19.0949 9.15873C19.0758 9.17785 19.0583 9.19698 19.0348 9.21665C19.0102 9.23741 18.9802 9.25817 18.9512 9.27948C18.9222 9.30025 18.896 9.32101 18.8621 9.34287C18.8299 9.36308 18.7917 9.38439 18.7556 9.40515C18.7163 9.42756 18.6796 9.44996 18.6359 9.47291C18.5966 9.49367 18.5507 9.51498 18.507 9.53574C18.4578 9.55924 18.4108 9.58273 18.3567 9.60623C18.3103 9.62645 18.2578 9.64666 18.2081 9.66688C18.1485 9.69147 18.0912 9.71551 18.0267 9.73955C17.9726 9.75977 17.913 9.77944 17.8551 9.79965C17.7863 9.82315 17.7202 9.84719 17.6464 9.87069C17.5852 9.8909 17.5175 9.90948 17.4535 9.9286C17.3754 9.9521 17.3 9.97559 17.2169 9.998C17.1475 10.0171 17.0721 10.0352 16.9989 10.0537C16.9137 10.0756 16.8306 10.098 16.7405 10.1188C16.6623 10.1368 16.5776 10.1537 16.4962 10.1718C16.4033 10.1914 16.3137 10.2116 16.2165 10.2308C16.1296 10.2477 16.0356 10.2635 15.9449 10.2794C15.846 10.2969 15.7504 10.3155 15.6477 10.3318C15.5493 10.3477 15.4444 10.3614 15.3422 10.3756C15.2395 10.3903 15.1401 10.4062 15.0341 10.4193C14.9226 10.4335 14.804 10.445 14.6882 10.4581C14.5849 10.469 14.4839 10.4816 14.3773 10.4919C14.2516 10.5034 14.1194 10.5122 13.9894 10.522C13.8855 10.5302 13.7845 10.5395 13.6774 10.546C13.5326 10.5553 13.3807 10.5608 13.231 10.5668C13.1326 10.5712 13.0375 10.5772 12.937 10.5805C12.6835 10.5881 12.4234 10.5925 12.1567 10.5925C11.8901 10.5925 11.6306 10.5881 11.377 10.5805C11.2798 10.5777 11.188 10.5717 11.0918 10.5673C10.9394 10.5608 10.7847 10.5553 10.6361 10.546C10.5378 10.54 10.4449 10.5313 10.3487 10.5242C10.2099 10.5138 10.069 10.504 9.93563 10.4914C9.84001 10.4827 9.75095 10.4712 9.65806 10.4613C9.5313 10.4477 9.4018 10.4346 9.27886 10.4193C9.18433 10.4072 9.09636 10.393 9.00457 10.3805C8.89037 10.3641 8.77399 10.3488 8.66416 10.3313C8.57401 10.3165 8.48986 10.3007 8.40189 10.2849C8.29917 10.2674 8.19426 10.2493 8.09591 10.2302C8.00958 10.2133 7.9298 10.1952 7.8473 10.1772C7.75441 10.1575 7.65934 10.1384 7.57137 10.1182C7.49214 10.0996 7.42056 10.08 7.34516 10.0614C7.26101 10.0401 7.17413 10.0188 7.09436 9.9969C7.02114 9.97723 6.95448 9.95647 6.88509 9.93571C6.81133 9.91385 6.73538 9.892 6.66598 9.87014C6.60042 9.84883 6.54141 9.82752 6.47966 9.80621C6.41409 9.78381 6.34634 9.76141 6.2846 9.73846C6.22777 9.71715 6.1775 9.69529 6.12396 9.67398C6.06768 9.65103 6.00867 9.62809 5.95621 9.60514C5.90704 9.58383 5.86442 9.56197 5.81961 9.54066C5.77153 9.51771 5.72071 9.49476 5.677 9.47181C5.63712 9.45105 5.60324 9.43029 5.56772 9.40953C5.52784 9.38712 5.48631 9.36417 5.45134 9.34177C5.4202 9.32156 5.39506 9.30189 5.36829 9.28222C5.33714 9.25981 5.30491 9.23741 5.27977 9.2161C5.25737 9.19752 5.24043 9.17895 5.2224 9.16092C5.20109 9.13961 5.17814 9.1183 5.16284 9.09753C5.14864 9.08059 5.14153 9.0642 5.1317 9.04781C5.12022 9.02759 5.10711 9.00738 5.1011 8.98825L5.09454 8.9358C5.17213 8.3741 7.96805 7.06056 12.1567 7.06056ZM21.304 15.8548C21.2106 15.3538 20.6942 14.8588 19.6102 14.2299L20.2893 9.18878L20.3101 9.03142C20.3134 9.00738 20.315 8.98333 20.315 8.95929C20.315 7.17039 16.0968 5.96776 12.1567 5.96776C8.21776 5.96776 4.00011 7.17039 4.00011 8.95929C4.00011 8.98333 4.00175 9.00738 4.00502 9.03142L4.02579 9.18823L5.72891 21.8352C5.79721 23.4225 9.59577 24 12.1567 24C13.5009 24 14.851 23.859 15.9586 23.6033C16.4077 23.4995 16.8104 23.3787 17.1557 23.2421C18.0819 22.8755 18.5633 22.4018 18.5862 21.8346L19.2654 16.7914C19.6014 16.8542 19.8987 16.8875 20.1511 16.8875C20.6155 16.8875 20.9374 16.781 21.116 16.5679C21.2854 16.3668 21.3521 16.1138 21.304 15.8548ZM6.52501 6.2732H5.43222V4.84164C5.43222 4.54002 5.67646 4.29524 5.97861 4.29524H18.3868C18.6889 4.29524 18.9332 4.54002 18.9332 4.84164V6.2732H17.8404V5.38803H6.52501V6.2732ZM8.4232 1.0928H15.9416L17.1377 2.38612H7.22768L8.4232 1.0928ZM5.97861 3.47892H18.3868C18.6037 3.47892 18.8004 3.35051 18.8873 3.15163C18.9742 2.95274 18.9354 2.72106 18.7878 2.56152L16.582 0.175394C16.4788 0.0633823 16.3334 0 16.181 0H8.18443C8.03198 0 7.88664 0.0633823 7.78337 0.175394L5.57756 2.56152C5.43003 2.72106 5.39124 2.95274 5.47811 3.15163C5.56499 3.35051 5.76115 3.47892 5.97861 3.47892Z" fill="#3F8624"/>
</svg>
