<svg width="24" height="24" viewBox="0 0 24 24" fill="none" xmlns="http://www.w3.org/2000/svg">
<path fill-rule="evenodd" clip-rule="evenodd" d="M0 18.9886C0 17.4257 1.26691 16.1587 2.82954 16.1587H16.6654C18.2281 16.1587 19.4949 17.4254 19.4949 18.9886C19.4949 20.5515 18.228 21.8185 16.6654 21.8185H2.82954C1.2668 21.8185 0 20.5519 0 18.9886ZM2.8299 20.3512C3.58245 20.3512 4.19245 19.7412 4.19245 18.9886C4.19245 18.2361 3.58245 17.6261 2.8299 17.6261C2.07736 17.6261 1.46736 18.2361 1.46736 18.9886C1.46736 19.7412 2.07736 20.3512 2.8299 20.3512ZM16.665 20.3512C17.4175 20.3512 18.0275 19.7412 18.0275 18.9886C18.0275 18.2361 17.4175 17.6261 16.665 17.6261C15.9124 17.6261 15.3024 18.2361 15.3024 18.9886C15.3024 19.7412 15.9124 20.3512 16.665 20.3512Z" fill="#EA4335"/>
<path fill-rule="evenodd" clip-rule="evenodd" d="M3.18279 9.19318C4.10146 7.92879 5.8711 7.64842 7.13523 8.56693L18.3287 16.6994C19.593 17.618 19.8734 19.3873 18.9544 20.652C18.0358 21.9164 16.2662 22.1968 15.002 21.2783L3.80852 13.1458C2.54428 12.2273 2.26391 10.4579 3.18279 9.19318ZM4.67132 11.9589C5.28012 12.4012 6.13224 12.2662 6.57454 11.6575C7.01684 11.0487 6.8819 10.1965 6.2731 9.75424C5.66431 9.31193 4.81219 9.44688 4.36989 10.0557C3.92758 10.6645 4.06253 11.5166 4.67132 11.9589ZM15.8641 20.0909C16.473 20.5332 17.325 20.3983 17.7673 19.7895C18.2096 19.1807 18.0747 18.3286 17.4659 17.8863C16.8571 17.444 16.005 17.579 15.5627 18.1878C15.1204 18.7966 15.2553 19.6486 15.8641 20.0909Z" fill="#FBBC04"/>
<path fill-rule="evenodd" clip-rule="evenodd" d="M11.5153 3.13928C13.0016 2.65631 14.5981 3.4697 15.081 4.95582L19.3566 18.1145C19.8395 19.6007 19.0263 21.197 17.5396 21.68C16.0531 22.163 14.4566 21.3496 13.9738 19.8635L9.69821 6.7048C9.21534 5.21858 10.0285 3.62236 11.5153 3.13928ZM11.0939 6.25176C11.3264 6.96741 12.0951 7.35909 12.8108 7.12656C13.5265 6.89399 13.9181 6.1253 13.6856 5.40965C13.4531 4.69395 12.6844 4.30232 11.9687 4.53484C11.253 4.76737 10.8613 5.53605 11.0939 6.25176ZM15.3691 19.4097C15.6017 20.1254 16.3704 20.517 17.086 20.2845C17.8017 20.0519 18.1934 19.2833 17.9608 18.5676C17.7283 17.8519 16.9596 17.4603 16.244 17.6928C15.5283 17.9253 15.1367 18.694 15.3692 19.4097H15.3691Z" fill="#34A853"/>
<path fill-rule="evenodd" clip-rule="evenodd" d="M22.0905 3.23157C23.5684 3.74042 24.3538 5.3508 23.8451 6.82827L19.3406 19.9103C18.8318 21.3879 17.2217 22.1733 15.7436 21.6644C14.2659 21.1555 13.4804 19.5451 13.9891 18.0677L18.4936 4.98564C19.0024 3.50806 20.6125 2.7226 22.0906 3.23162L22.0905 3.23157ZM19.881 5.46368C19.636 6.17519 20.0141 6.95064 20.7256 7.19563C21.4372 7.44063 22.2126 7.06242 22.4575 6.35085C22.7025 5.6394 22.3244 4.864 21.6129 4.61901C20.9014 4.37401 20.1259 4.75217 19.881 5.46368ZM15.3767 18.545C15.1317 19.2565 15.5099 20.032 16.2214 20.2769C16.9329 20.5219 17.7083 20.1438 17.9533 19.4322C18.1983 18.7207 17.8201 17.9453 17.1086 17.7003C16.3971 17.4553 15.6216 17.8335 15.3767 18.545Z" fill="#4285F4"/>
</svg>
