<svg width="24" height="24" viewBox="0 0 24 24" fill="none" xmlns="http://www.w3.org/2000/svg">
<g clip-path="url(#clip0_313_99)">
<path d="M0 12C0 18.6274 5.37258 24 12 24C18.6274 24 24 18.6274 24 12C24 5.37258 18.6274 0 12 0C5.37258 0 0 5.37258 0 12Z" fill="url(#paint0_linear_313_99)"/>
<path fill-rule="evenodd" clip-rule="evenodd" d="M12.875 12.5655L13.125 12.998C14.2815 12.3295 15 11.085 15 9.75C15 7.682 13.318 6 11.25 6C9.182 6 7.5 7.682 7.5 9.75C7.5 11.085 8.2185 12.3295 9.375 12.998L9.625 12.5655C8.6225 11.9855 8 10.907 8 9.75C8 7.958 9.458 6.5 11.25 6.5C13.042 6.5 14.5 7.958 14.5 9.75C14.5 10.907 13.8775 11.9855 12.875 12.5655ZM15.2815 12.2615C15.0585 12.6195 14.789 12.948 14.4755 13.237L17.255 15.4835C17.518 15.6905 17.8545 15.512 18.0545 15.257C18.2645 14.992 18.3445 14.618 18.092 14.4185L15.2815 12.2615ZM6.5 9.75C6.5 7.131 8.631 5 11.25 5C13.869 5 16 7.131 16 9.75C16 10.482 15.826 11.1825 15.521 11.815L18.399 14.024C18.8445 14.3765 18.8645 15.039 18.4475 15.567C18.1855 15.8985 17.8425 16.074 17.5115 16.074C17.31 16.074 17.1135 16.0085 16.943 15.874L14.0795 13.5595C13.8745 13.7115 13.66 13.8525 13.428 13.9725L13.1985 13.528C13.9105 13.16 14.487 12.6125 14.885 11.957L14.8825 11.955L14.8925 11.942C15.2825 11.2935 15.5 10.5405 15.5 9.75C15.5 7.4065 13.5935 5.5 11.25 5.5C8.9065 5.5 7 7.4065 7 9.75C7 11.463 8.0195 13.0005 9.597 13.667L9.403 14.1275C7.639 13.3825 6.5 11.6645 6.5 9.75ZM5.5 18.5V5H5V19H19V18.5H5.5ZM6.469 17.3695L6.031 17.1305L7.531 14.3805C7.573 14.302 7.6545 14.2525 7.7435 14.25C7.8215 14.2495 7.9165 14.2935 7.963 14.369L9.6135 17.0505L11.0035 8.709C11.023 8.591 11.1235 8.503 11.243 8.5H11.25C11.3665 8.5 11.4685 8.581 11.494 8.696L13.395 17.2515L14.573 16.0735C14.671 15.9755 14.829 15.9755 14.927 16.0735L16.25 17.3965L17.073 16.5735L17.427 16.927L16.427 17.927C16.329 18.0245 16.171 18.0245 16.073 17.927L14.75 16.6035L13.427 17.927C13.3625 17.991 13.267 18.015 13.18 17.99C13.0925 17.9645 13.026 17.8935 13.006 17.8045L11.285 10.0605L9.9965 17.791C9.9795 17.894 9.9005 17.9755 9.798 17.9955C9.7815 17.9985 9.766 18 9.75 18C9.664 18 9.583 17.956 9.537 17.881L7.763 14.9985L6.469 17.3695Z" fill="white"/>
</g>
<defs>
<linearGradient id="paint0_linear_313_99" x1="0" y1="24" x2="24" y2="0" gradientUnits="userSpaceOnUse">
<stop stop-color="#055F4E"/>
<stop offset="1" stop-color="#56C0A7"/>
</linearGradient>
<clipPath id="clip0_313_99">
<rect width="24" height="24" fill="white"/>
</clipPath>
</defs>
</svg>
