<svg width="24" height="24" viewBox="0 0 24 24" fill="none" xmlns="http://www.w3.org/2000/svg">
<path fill-rule="evenodd" clip-rule="evenodd" d="M3.44396 12.7934C5.32781 12.2616 7.29514 13.3353 7.83532 15.1901C8.37551 17.045 7.285 18.982 5.40115 19.5139C4.77457 19.6908 4.14307 19.6865 3.55078 19.5415L3.35486 19.488L1.49029 22.8L0.251924 22.1241L2.11454 18.8054C1.605 18.3747 1.20943 17.8027 1.0098 17.1172C0.469611 15.2624 1.56012 13.3253 3.44396 12.7934ZM13.8462 20.1774V21.9952H10.1538V20.1774H13.8462ZM17.5385 16.5419V18.3597H10.1538V16.5419H17.5385ZM6.47022 15.5756C6.14728 14.4667 4.96161 13.8196 3.8354 14.1375C2.70919 14.4555 2.05196 15.6229 2.3749 16.7318C2.69784 17.8407 3.8835 18.4878 5.00971 18.1698C6.13593 17.8519 6.79315 16.6844 6.47022 15.5756ZM21.2308 12.9065V14.7242H10.1538V12.9065H21.2308ZM24 9.27097V11.0887H0V9.27097H24ZM24 5.63548V7.45323H0V5.63548H24ZM11.1346 2V3.81774H2.76923V2H11.1346ZM21.2308 2V3.81774H12.8654V2H21.2308Z" fill="#4285F4"/>
</svg>
