<svg width="24" height="24" viewBox="0 0 24 24" fill="none" xmlns="http://www.w3.org/2000/svg">
<path fill-rule="evenodd" clip-rule="evenodd" d="M14.76 10.712L13.296 12.176C13.6127 12.4465 13.8395 12.8069 13.9465 13.2094C14.0534 13.6119 14.0354 14.0374 13.8947 14.4293C13.7541 14.8213 13.4975 15.1612 13.1591 15.4039C12.8206 15.6466 12.4164 15.7806 12 15.788C11.6939 15.7848 11.3923 15.7143 11.1165 15.5816C10.8407 15.4489 10.5975 15.2572 10.404 15.02L8.94 16.484C9.30393 16.926 9.75608 17.2872 10.2675 17.5446C10.779 17.8019 11.3385 17.9497 11.9104 17.9786C12.4822 18.0074 13.0537 17.9166 13.5885 17.712C14.1232 17.5074 14.6094 17.1934 15.0159 16.7903C15.4225 16.3871 15.7404 15.9035 15.9494 15.3705C16.1585 14.8375 16.254 14.2667 16.2299 13.6946C16.2058 13.1226 16.0627 12.5619 15.8096 12.0483C15.5565 11.5347 15.199 11.0796 14.76 10.712Z" fill="#4285F4"/>
<path fill-rule="evenodd" clip-rule="evenodd" d="M12 6.224C10.5166 6.224 9.0666 6.66387 7.83323 7.48798C6.59986 8.31209 5.63856 9.48343 5.07091 10.8539C4.50325 12.2243 4.35472 13.7323 4.64411 15.1872C4.9335 16.642 5.64781 17.9784 6.6967 19.0273C7.7456 20.0762 9.08197 20.7905 10.5368 21.0799C11.9917 21.3693 13.4997 21.2208 14.8701 20.6531C16.2406 20.0854 17.4119 19.1241 18.236 17.8908C19.0601 16.6574 19.5 15.2074 19.5 13.724C19.5 11.7349 18.7098 9.82722 17.3033 8.4207C15.8968 7.01418 13.9891 6.224 12 6.224ZM12 19.112C10.9428 19.1144 9.90875 18.8029 9.02875 18.217C8.14876 17.6312 7.46246 16.7973 7.0568 15.8211C6.65114 14.8448 6.54438 13.7701 6.75004 12.7332C6.9557 11.6962 7.46453 10.7436 8.21207 9.99606C8.9596 9.24853 9.9122 8.7397 10.9492 8.53403C11.9861 8.32837 13.0608 8.43513 14.0371 8.84079C15.0133 9.24645 15.8472 9.93275 16.4331 10.8127C17.0189 11.6927 17.3304 12.7268 17.328 13.784C17.328 15.1971 16.7667 16.5523 15.7675 17.5515C14.7683 18.5507 13.4131 19.112 12 19.112Z" fill="#AECBFA"/>
<path fill-rule="evenodd" clip-rule="evenodd" d="M23.544 12.992L20.472 12.02C20.6063 12.6228 20.6747 13.2384 20.676 13.856C20.6748 14.2897 20.6427 14.7228 20.58 15.152H23.544C23.6672 15.1351 23.7804 15.0753 23.8639 14.9831C23.9473 14.8909 23.9955 14.7723 24 14.648V13.448C23.9955 13.3238 23.9473 13.2051 23.8639 13.1129C23.7804 13.0207 23.6672 12.9609 23.544 12.944" fill="#669DF6"/>
<path fill-rule="evenodd" clip-rule="evenodd" d="M12 5.336C12.6045 5.33523 13.2076 5.39554 13.8 5.516L12.696 2.456C12.612 2.192 12.444 2 12.192 2H11.736C11.6124 2.00677 11.495 2.05576 11.4032 2.13876C11.3115 2.22177 11.251 2.33376 11.232 2.456L10.272 5.504C10.8414 5.39346 11.42 5.33721 12 5.336Z" fill="#669DF6"/>
<path fill-rule="evenodd" clip-rule="evenodd" d="M3.324 13.856C3.32526 13.2384 3.39366 12.6228 3.528 12.02L0.456 12.992C0.332817 13.0089 0.21954 13.0687 0.136123 13.1609C0.0527061 13.2531 0.00450129 13.3718 0 13.496V14.696C0.00450129 14.8203 0.0527061 14.9389 0.136123 15.0311C0.21954 15.1233 0.332817 15.1831 0.456 15.2H3.42C3.3573 14.7708 3.32522 14.3377 3.324 13.904" fill="#669DF6"/>
<path fill-rule="evenodd" clip-rule="evenodd" d="M12 10.712C11.4067 10.712 10.8266 10.888 10.3333 11.2176C9.83994 11.5472 9.45543 12.0158 9.22836 12.564C9.0013 13.1121 8.94189 13.7153 9.05765 14.2973C9.1734 14.8792 9.45912 15.4138 9.87868 15.8333C10.2982 16.2529 10.8328 16.5386 11.4147 16.6544C11.9967 16.7701 12.5999 16.7107 13.1481 16.4836C13.6962 16.2566 14.1648 15.8721 14.4944 15.3787C14.8241 14.8854 15 14.3053 15 13.712C15 12.9164 14.6839 12.1533 14.1213 11.5907C13.5587 11.0281 12.7957 10.712 12 10.712ZM12 15.212C11.7033 15.212 11.4133 15.124 11.1666 14.9592C10.92 14.7944 10.7277 14.5601 10.6142 14.286C10.5007 14.0119 10.4709 13.7103 10.5288 13.4194C10.5867 13.1284 10.7296 12.8611 10.9393 12.6513C11.1491 12.4416 11.4164 12.2987 11.7074 12.2408C11.9983 12.1829 12.2999 12.2127 12.574 12.3262C12.8481 12.4397 13.0824 12.632 13.2472 12.8787C13.412 13.1253 13.5 13.4153 13.5 13.712C13.5016 13.91 13.464 14.1063 13.3893 14.2897C13.3146 14.4731 13.2044 14.6399 13.0649 14.7804C12.9255 14.921 12.7596 15.0326 12.5768 15.1087C12.394 15.1848 12.198 15.224 12 15.224V15.212Z" fill="#AECBFA"/>
</svg>
