<svg width="24" height="24" viewBox="0 0 24 24" fill="none" xmlns="http://www.w3.org/2000/svg">
<path d="M0.99197 12.569H1.87952L2.07792 13.3052H2.88193L1.78555 9.44173H1.05462L0 13.3052H0.804018L0.99197 12.569ZM1.67591 11.8381H1.18514L1.43052 10.5747L1.67591 11.8381Z" fill="#2D4780"/>
<path d="M4.24972 9.3686C3.29952 9.3686 2.82965 10.1622 2.82965 11.3682V11.3735C2.82965 12.5847 3.29952 13.3783 4.24972 13.3783C4.57972 13.3783 4.8517 13.2823 5.06627 13.1066C5.08595 13.1638 5.09721 13.2283 5.09721 13.3052H5.92906C5.92906 13.0038 5.76511 12.6849 5.52347 12.3994C5.62095 12.1088 5.6698 11.7629 5.6698 11.3735C5.6698 10.1622 5.19993 9.3686 4.24972 9.3686ZM4.24972 10.0995C4.65695 10.0995 4.85539 10.4441 4.85539 11.3735C4.85539 11.5348 4.84899 11.6774 4.83698 11.8048C4.52681 11.607 4.20716 11.4824 3.96188 11.4824C3.96188 12.2732 4.08383 12.2698 4.20038 12.3371C4.26842 12.3764 4.40778 12.4505 4.55341 12.5517C4.46973 12.6168 4.36893 12.6473 4.24972 12.6473C3.84249 12.6473 3.64416 12.3028 3.64416 11.3787V11.3735C3.64416 10.4441 3.84249 10.0995 4.24972 10.0995Z" fill="#2D4780"/>
<path d="M6.11273 9.44173V12.2036C6.11273 12.5429 6.20149 12.8405 6.39988 13.0441C6.6035 13.253 6.92197 13.3783 7.38663 13.3783C7.85129 13.3783 8.16976 13.253 8.37338 13.0441C8.57699 12.8405 8.66053 12.5429 8.66053 12.2036V9.44173H7.86695V12.0731C7.86695 12.2662 7.83563 12.4072 7.76253 12.496C7.68422 12.5899 7.56414 12.6317 7.38663 12.6317C7.20912 12.6317 7.08904 12.5899 7.01595 12.496C6.93763 12.4072 6.90631 12.2662 6.90631 12.0731V9.44173H6.11273Z" fill="#2D4780"/>
<path d="M14.5684 13.3052H15.362V10.1727H15.5447C15.7379 10.1727 15.8684 10.204 15.952 10.2771C16.0981 10.3972 16.1347 10.559 16.1347 10.747C16.1347 10.8984 16.0929 11.0654 15.9624 11.1907C15.8632 11.2899 15.7118 11.3265 15.5708 11.3369C15.5082 11.3421 15.4612 11.3421 15.3724 11.3421L16.2234 13.3052H17.111L16.3801 11.765C16.5628 11.6658 16.7194 11.5092 16.8343 11.2586C16.9126 11.0863 16.9492 10.8827 16.9492 10.6739C16.9492 10.298 16.8343 10.0212 16.6359 9.78108C16.4688 9.58269 16.119 9.44173 15.5708 9.44173H14.5684V13.3052Z" fill="#2D4780"/>
<path d="M17.3041 13.3052H18.0977V9.44173H17.3041V13.3052Z" fill="#2D4780"/>
<path d="M18.5712 9.44173V12.2036C18.5712 12.5429 18.66 12.8405 18.8584 13.0441C19.062 13.253 19.3805 13.3783 19.8451 13.3783C20.3098 13.3783 20.6283 13.253 20.8319 13.0441C21.0355 12.8405 21.119 12.5429 21.119 12.2036V9.44173H20.3254V12.0731C20.3254 12.2662 20.2941 12.4072 20.221 12.496C20.1427 12.5899 20.0226 12.6317 19.8451 12.6317C19.6676 12.6317 19.5475 12.5899 19.4744 12.496C19.3961 12.4072 19.3648 12.2662 19.3648 12.0731V9.44173H18.5712Z" fill="#2D4780"/>
<path d="M21.4515 12.0887C21.4515 12.9032 21.8379 13.3783 22.7202 13.3783C23.4564 13.3783 23.9993 12.9345 23.9993 12.2088C23.9993 11.4727 23.5817 11.2116 23.164 11.0445C22.7463 10.8775 22.3286 10.8096 22.3286 10.4441C22.3286 10.2092 22.4801 10.0212 22.7307 10.0212C22.9865 10.0212 23.1431 10.1883 23.1535 10.4702H23.9262C23.8114 9.70799 23.4146 9.36341 22.6993 9.36341C21.9632 9.36341 21.5142 9.83329 21.5142 10.5642C21.5142 11.2168 21.9319 11.457 22.3495 11.6241C22.7672 11.7859 23.1849 11.8694 23.1849 12.2192C23.1849 12.4959 23.0282 12.6787 22.7359 12.6787C22.3913 12.6787 22.2556 12.4907 22.2451 12.0887H21.4515Z" fill="#2D4780"/>
<path fill-rule="evenodd" clip-rule="evenodd" d="M11.5004 7L7.81805 15.6303L8.79083 16.0433L11.5004 9.65996L13.5818 14.5636L14.5385 14.1575L11.5004 7Z" fill="#57BFDA"/>
<path fill-rule="evenodd" clip-rule="evenodd" d="M8.79083 16.0433C9.85174 13.4967 12.1615 11.2931 14.2923 11.2931C14.2923 10.996 14.2923 10.6989 14.2923 10.4018C11.4732 10.4018 9.09233 13.0081 7.81805 15.6303C8.14231 15.768 8.46657 15.9056 8.79083 16.0433Z" fill="url(#paint0_linear_315_142)"/>
<defs>
<linearGradient id="paint0_linear_315_142" x1="9.13963" y1="15.1131" x2="9.9905" y2="13.0675" gradientUnits="userSpaceOnUse">
<stop stop-color="#54BCD7"/>
<stop offset="1" stop-color="#C5E5E2"/>
</linearGradient>
</defs>
</svg>
