<svg width="24" height="24" viewBox="0 0 24 24" fill="none" xmlns="http://www.w3.org/2000/svg">
<g clip-path="url(#clip0_316_317)">
<path d="M22.8513 6.87787C22.0587 5.16618 20.9114 3.72628 19.3919 2.517C19.4324 3.33787 19.5207 5.09362 19.5207 5.09362C19.5207 5.09362 19.6153 5.21803 19.6538 5.27184C21.1894 7.41646 21.7506 9.79349 21.2391 12.3754C20.2134 17.5524 15.1668 20.7107 10.0524 19.4195C5.56258 18.286 2.56389 13.6952 3.41299 9.14371C4.0833 5.55056 6.20692 3.15693 9.65532 1.94062L9.78029 1.89337L9.87835 1.82081C10.2963 1.22981 10.7041 0.631593 11.1392 0C5.91292 0.258937 0.656646 4.452 0.0543963 10.8302C-0.528353 17.0019 3.63274 22.5059 9.57901 23.7137C15.7755 24.9723 21.6743 21.3165 23.4569 15.4659C24.3483 12.5404 24.1397 9.66055 22.8513 6.87787ZM8.10339 10.7377C8.36476 13.2209 10.5171 14.9132 13.0068 14.638C15.4529 14.3676 17.2411 11.9747 16.7781 9.55377C16.4171 7.66621 16.0182 5.78596 15.6354 3.90262C15.4771 3.12328 15.3169 2.34422 15.1488 1.52222C15.0826 1.58044 15.0518 1.605 15.0238 1.63247C14.1857 2.45409 13.348 3.27618 12.5099 4.09781C11.4894 5.0984 10.4702 6.10031 9.4472 7.09837C8.4212 8.09933 7.95414 9.3209 8.10339 10.7377Z" fill="black"/>
</g>
<defs>
<clipPath id="clip0_316_317">
<rect width="24" height="24" fill="white"/>
</clipPath>
</defs>
</svg>
