<svg width="24" height="24" viewBox="0 0 24 24" fill="none" xmlns="http://www.w3.org/2000/svg">
<mask id="mask0_104_607" style="mask-type:alpha" maskUnits="userSpaceOnUse" x="3" y="0" width="19" height="24">
<path d="M21.4536 24V0H3V24H21.4536Z" fill="white"/>
</mask>
<g mask="url(#mask0_104_607)">
<path d="M21.3663 6.43018C19.8147 2.4634 16.307 0 12.2118 0C8.11162 0 4.60337 2.4634 3.05398 6.43018C2.91267 6.78885 2.94382 7.14752 3.14076 7.44088C3.35273 7.75676 3.73938 7.95101 4.15218 7.95101C4.67514 7.95101 5.11854 7.64865 5.30713 7.1661C6.46542 4.20214 9.11024 2.36374 12.2118 2.36374C15.3095 2.36374 17.9554 4.20214 19.1126 7.1661C19.304 7.64865 19.744 7.95101 20.2664 7.95101C20.6803 7.95101 21.0681 7.75676 21.279 7.44088C21.4759 7.14752 21.5087 6.78885 21.3663 6.43018Z" fill="#E5832C"/>
</g>
<mask id="mask1_104_607" style="mask-type:alpha" maskUnits="userSpaceOnUse" x="3" y="0" width="19" height="24">
<path d="M21.4536 24V0H3V24H21.4536Z" fill="white"/>
</mask>
<g mask="url(#mask1_104_607)">
<path d="M18.3433 23.5642C18.251 23.8525 18.0357 24.0338 17.6395 24.0338H15.4053C15.0403 24.0338 14.8556 23.9291 14.7655 23.5642L12.6531 15.5856C12.4389 14.7765 12.3488 13.8384 12.2225 12.897C12.1335 13.8384 12.0105 14.8018 11.7969 15.5856L9.68728 23.5642C9.62442 23.8525 9.38241 24.0338 8.98463 24.0338H6.71924C6.35261 24.0338 6.16791 23.9291 6.07667 23.5642L2.98901 12.0907C2.89832 11.6993 3.14089 11.4617 3.47747 11.4617H4.91504C5.31282 11.4617 5.52701 11.5946 5.61825 11.9854L7.57655 20.1751C7.78907 21.1132 7.85249 22.0805 7.94373 22.9645C8.09672 22.1047 8.21856 21.0884 8.46168 20.201L10.6353 11.96C10.7265 11.6211 11.0025 11.4617 11.3696 11.4617H13.1427C13.5093 11.4617 13.8164 11.6464 13.9076 11.9854L16.1096 20.201C16.3538 21.0884 16.4779 22.0805 16.5992 22.9645C16.7199 22.1047 16.8451 21.0884 17.0287 20.201L18.8323 11.96C18.8941 11.6211 19.1962 11.4617 19.5656 11.4617H20.9108C21.2479 11.4617 21.4944 11.6718 21.3998 12.0642L18.3433 23.5642Z" fill="#1786D0"/>
</g>
</svg>
