<?xml version="1.0" encoding="UTF-8"?>
<svg width="60px" height="60px" viewBox="0 0 60 60" version="1.1" xmlns="http://www.w3.org/2000/svg" xmlns:xlink="http://www.w3.org/1999/xlink" role="image">
    <title>Amazon Eventbridge Connector</title>
    <g stroke="none" stroke-width="1" fill="none" fill-rule="evenodd">
        <rect stroke="#CD2264" fill="#CD2264" x="0.5" y="0.5" width="59" height="59" rx="10"></rect>
        <path d="M42.6447894,53.9710099 C40.6605528,53.9710099 39.0455408,52.3569186 39.0455408,50.3717612 C39.0455408,48.3866039 40.6605528,46.7725126 42.6447894,46.7725126 C44.6299468,46.7725126 46.2449588,48.3866039 46.2449588,50.3717612 C46.2449588,52.3569186 44.6299468,53.9710099 42.6447894,53.9710099 Z M34.7520395,38.3180994 L25.1835074,38.3180994 L20.3973998,30.0312644 L25.1835074,21.7444294 L34.7520395,21.7444294 L39.5363055,30.0312644 L34.7520395,38.3180994 Z M18.5383865,13.2900162 C16.5532291,13.2900162 14.9391378,11.6759249 14.9391378,9.69076755 C14.9391378,7.70653095 16.5532291,6.09151888 18.5383865,6.09151888 C20.5226231,6.09151888 22.1376351,7.70653095 22.1376351,9.69076755 C22.1376351,11.6759249 20.5226231,13.2900162 18.5383865,13.2900162 Z M42.6447894,44.9309937 C41.9615859,44.9309937 41.3096882,45.0626623 40.7065908,45.2937729 L36.7970462,38.6956107 L36.5898753,38.8180717 L41.3971604,30.4916441 C41.5619763,30.2062087 41.5619763,29.8563201 41.3971604,29.5708847 L36.0806954,20.3632902 C35.9168002,20.0778548 35.6129496,19.9029105 35.2833177,19.9029105 L25.6088982,19.9029105 L25.6466494,19.8808123 L22.0612121,13.8295812 C23.2324181,12.8305572 23.979154,11.3472138 23.979154,9.69076755 C23.979154,6.69093328 21.5382207,4.25 18.5383865,4.25 C15.5376314,4.25 13.0976189,6.69093328 13.0976189,9.69076755 C13.0976189,12.6915226 15.5376314,15.1315351 18.5383865,15.1315351 C19.22159,15.1315351 19.8734877,14.9998665 20.4765851,14.7687559 L23.8235457,20.4166943 L18.5374657,29.5708847 C18.3726498,29.8563201 18.3726498,30.2062087 18.5374657,30.4916441 L23.8539307,39.6992385 C24.0187467,39.984674 24.3225973,40.1596183 24.6513084,40.1596183 L35.2833177,40.1596183 C35.3597407,40.1596183 35.4343222,40.1476484 35.5061415,40.130154 L39.1219638,46.2329475 C37.9507578,47.2319715 37.2040219,48.715315 37.2040219,50.3717612 C37.2040219,53.3725163 39.6449552,55.8125288 42.6447894,55.8125288 C45.6455444,55.8125288 48.0864777,53.3725163 48.0864777,50.3717612 C48.0864777,47.371927 45.6455444,44.9309937 42.6447894,44.9309937 Z M48.1334365,22.7609478 C46.1491999,22.7609478 44.5351086,21.1468565 44.5351086,19.1616992 C44.5351086,17.1765418 46.1491999,15.5624505 48.1334365,15.5624505 C50.1185938,15.5624505 51.7336059,17.1765418 51.7336059,19.1616992 C51.7336059,21.1468565 50.1185938,22.7609478 48.1334365,22.7609478 Z M54.8770786,29.5708847 L51.3818758,23.5168913 C52.7096109,22.5243127 53.5751248,20.9442894 53.5751248,19.1616992 C53.5751248,16.1609441 51.1341915,13.7209316 48.1334365,13.7209316 C47.3701269,13.7209316 46.6427269,13.880223 45.9825424,14.1665792 L43.1337127,9.23038782 C42.9688967,8.94587316 42.6650461,8.7700081 42.3354142,8.7700081 L30.9207594,8.7700081 L30.9207594,10.611527 L41.8041361,10.611527 L44.4411911,15.1775731 C43.3694271,16.1719933 42.6935897,17.5872005 42.6935897,19.1616992 C42.6935897,22.1615334 45.134523,24.6024667 48.1334365,24.6024667 C48.6932582,24.6024667 49.233744,24.5177568 49.7410824,24.3593862 L53.0162238,30.0312644 L48.4179511,37.993992 L50.0127065,38.9147515 L54.8770786,30.4916441 C55.0409738,30.2062087 55.0409738,29.8563201 54.8770786,29.5708847 Z M12.618824,44.0700836 C10.6345874,44.0700836 9.01957535,42.4550715 9.01957535,40.4708349 C9.01957535,38.4865983 10.6345874,36.8715863 12.618824,36.8715863 C14.6030606,36.8715863 16.2180727,38.4865983 16.2180727,40.4708349 C16.2180727,42.4550715 14.6030606,44.0700836 12.618824,44.0700836 Z M15.6269451,45.0009714 C17.0918734,44.0249664 18.0595916,42.3593126 18.0595916,40.4708349 C18.0595916,37.4710007 15.619579,35.0300674 12.618824,35.0300674 C11.7496271,35.0300674 10.9310719,35.2390798 10.2018305,35.6037005 L6.98377622,30.0312644 L12.3158941,20.7978887 L10.720218,19.8771293 L5.12292139,29.5708847 C4.9590262,29.8563201 4.9590262,30.2062087 5.12292139,30.4916441 L8.70743789,36.6975627 C7.76273871,37.6772508 7.17805646,39.0059067 7.17805646,40.4708349 C7.17805646,43.47159 9.61806898,45.9116025 12.618824,45.9116025 C13.0718377,45.9116025 13.5091984,45.8499116 13.9299855,45.744945 L16.8662873,50.8321409 C17.0311033,51.1166556 17.3349539,51.2925207 17.6645858,51.2925207 L29.0792406,51.2925207 L29.0792406,49.4510018 L18.1958639,49.4510018 L15.6269451,45.0009714 L15.6269451,45.0009714 Z" id="amazon-eventbridge-logo" fill="#FFFFFF"></path>
    </g>
</svg>