<svg width="24" height="24" viewBox="0 0 24 24" fill="none" xmlns="http://www.w3.org/2000/svg">
<g clip-path="url(#clip0_313_89)">
<path d="M0 12C0 18.6274 5.37258 24 12 24C18.6274 24 24 18.6274 24 12C24 5.37258 18.6274 0 12 0C5.37258 0 0 5.37258 0 12Z" fill="url(#paint0_linear_313_89)"/>
<path fill-rule="evenodd" clip-rule="evenodd" d="M5.93187 18.6643H6.53447C6.53447 16.2384 8.11026 13.7588 19.8 13.7588V13.1548C7.57937 13.1548 5.93187 15.9401 5.93187 18.6643ZM7.66373 20.4H8.26633C8.26633 18.2162 8.26633 14.9159 19.8 14.9159V14.3119C8.60077 14.3119 7.66373 17.3194 7.66373 20.4ZM4.80261 8.24985H4.20001C4.20001 10.3829 7.07259 11.7362 12.74 12.2997C7.07259 12.8631 4.20001 14.2171 4.20001 16.3495H4.80261C4.80261 14.9503 6.7508 12.6017 19.8 12.6017V11.9977C6.7508 11.9977 4.80261 9.64972 4.80261 8.24985ZM6.53447 5.93565H5.93187C5.93187 8.6599 7.57937 11.4446 19.8 11.4446V10.8406C8.11026 10.8406 6.53447 8.36097 6.53447 5.93565ZM19.8 9.68354V10.2875C8.60077 10.2875 7.66373 7.27996 7.66373 4.2H8.26633C8.26633 6.38375 8.26633 9.68354 19.8 9.68354Z" fill="white"/>
</g>
<defs>
<linearGradient id="paint0_linear_313_89" x1="0" y1="24" x2="24" y2="0" gradientUnits="userSpaceOnUse">
<stop stop-color="#4D27A8"/>
<stop offset="1" stop-color="#A166FF"/>
</linearGradient>
<clipPath id="clip0_313_89">
<rect width="24" height="24" fill="white"/>
</clipPath>
</defs>
</svg>
