<svg width="24" height="24" viewBox="0 0 24 24" fill="none" xmlns="http://www.w3.org/2000/svg">
<g clip-path="url(#clip0_343_903)">
<path d="M0 12C0 18.6274 5.37258 24 12 24C18.6274 24 24 18.6274 24 12C24 5.37258 18.6274 0 12 0C5.37258 0 0 5.37258 0 12Z" fill="url(#paint0_linear_343_903)"/>
<path fill-rule="evenodd" clip-rule="evenodd" d="M8.95699 18.4643H5.68013L9.30319 10.7361L10.9448 14.1861L8.95699 18.4643ZM9.53786 10.0011C9.49419 9.90893 9.40211 9.85 9.30109 9.85H9.30004C9.19954 9.85054 9.10747 9.91 9.0638 10.0027L5.0256 18.617C4.98666 18.6995 4.99245 18.7975 5.04086 18.8752C5.08874 18.9529 5.17292 19 5.26289 19H9.12325C9.22532 19 9.31793 18.9405 9.3616 18.8468L11.4746 14.2991C11.5088 14.2257 11.5083 14.1405 11.4736 14.0677L9.53786 10.0011ZM18.4024 18.4643H15.2513L10.1787 7.36911C10.1356 7.27482 10.0424 7.21429 9.94036 7.21429H7.8768L7.87943 4.53571H11.9234L16.9723 15.6304C17.0155 15.7252 17.1091 15.7857 17.2112 15.7857H18.4024V18.4643ZM18.6655 15.25H17.3796L12.3301 4.15536C12.287 4.06054 12.1933 4 12.0913 4H7.61636C7.47114 4 7.35328 4.12 7.35328 4.26786L7.35013 7.48214C7.35013 7.55286 7.37801 7.62089 7.42747 7.67179C7.47693 7.72161 7.54322 7.75 7.6132 7.75H9.77305L14.8451 18.8452C14.8883 18.9395 14.9814 19 15.084 19H18.6655C18.8112 19 18.9286 18.88 18.9286 18.7321V15.5179C18.9286 15.37 18.8112 15.25 18.6655 15.25Z" fill="white"/>
</g>
<defs>
<linearGradient id="paint0_linear_343_903" x1="0" y1="24" x2="24" y2="0" gradientUnits="userSpaceOnUse">
<stop stop-color="#C8511B"/>
<stop offset="1" stop-color="#FF9900"/>
</linearGradient>
<clipPath id="clip0_343_903">
<rect width="24" height="24" fill="white"/>
</clipPath>
</defs>
</svg>
