<svg width="24" height="24" viewBox="0 0 24 24" fill="none" xmlns="http://www.w3.org/2000/svg">
<g clip-path="url(#clip0_313_30)">
<path d="M0 12C0 18.6274 5.37258 24 12 24C18.6274 24 24 18.6274 24 12C24 5.37258 18.6274 0 12 0C5.37258 0 0 5.37258 0 12Z" fill="url(#paint0_linear_313_30)"/>
<path fill-rule="evenodd" clip-rule="evenodd" d="M5.39998 10.2H8.99998V9.6H5.39998V10.2ZM18.6 7.8V5.58C18.6 5.1498 18.321 4.8 17.9778 4.8H4.82218C4.48498 4.8 4.19998 5.1576 4.19998 5.58V7.8H10.8V5.7C10.8 5.5344 10.9344 5.4 11.1 5.4H17.7C17.8656 5.4 18 5.5344 18 5.7V7.8H18.6ZM13.2 8.4C13.2 9.0624 13.7382 9.6 14.4 9.6C15.0618 9.6 15.6 9.0624 15.6 8.4C15.6 7.7382 15.0618 7.2 14.4 7.2C13.7382 7.2 13.2 7.7382 13.2 8.4ZM18.6 8.4H18V11.4H17.4V6H11.4V11.2176C11.8146 10.5408 12.4644 10.0242 13.2582 9.78C12.8598 9.45 12.6 8.9574 12.6 8.4C12.6 7.4076 13.4076 6.6 14.4 6.6C15.3924 6.6 16.2 7.4076 16.2 8.4C16.2 8.9796 15.9198 9.4902 15.4938 9.8196C16.2252 10.0722 16.8648 10.5654 17.2686 11.232L16.7556 11.5428C16.401 10.9572 15.8292 10.5204 15.1758 10.3308C14.6376 10.5822 14.004 10.5798 13.4742 10.3308C12.423 10.6344 11.6706 11.5302 11.5296 12.6H13.8V13.2H11.1C10.9344 13.2 10.8 13.0662 10.8 12.9V8.4H4.19998V14.2206C4.19998 14.643 4.48498 15 4.82218 15H12.6V15.6H4.82218C4.14838 15.6 3.59998 14.9814 3.59998 14.2206V5.58C3.59998 4.8192 4.14838 4.2 4.82218 4.2H17.9778C18.6516 4.2 19.2 4.8192 19.2 5.58V12.6H18.6006L18.6 8.4ZM19.8 16.8C19.8 18.4542 18.4542 19.8 16.8 19.8C15.1458 19.8 13.8 18.4542 13.8 16.8C13.8 15.1464 15.1458 13.8 16.8 13.8C18.4542 13.8 19.8 15.1464 19.8 16.8ZM20.4 16.8C20.4 14.8152 18.7854 13.2 16.8 13.2C14.8146 13.2 13.2 14.8152 13.2 16.8C13.2 18.7854 14.8146 20.4 16.8 20.4C18.7854 20.4 20.4 18.7854 20.4 16.8ZM16.7172 17.9172L18.9456 15.6894L18.5214 15.2652L16.5054 17.2812L15.597 16.3728L15.1728 16.797L16.293 17.9172C16.3494 17.9736 16.4256 18.0054 16.5054 18.0054C16.5852 18.0054 16.6614 17.9736 16.7172 17.9172ZM8.39998 12H9.59998V11.4H8.39998V12ZM5.39998 12H7.79998V11.4H5.39998V12Z" fill="white"/>
</g>
<defs>
<linearGradient id="paint0_linear_313_30" x1="0" y1="24" x2="24" y2="0" gradientUnits="userSpaceOnUse">
<stop stop-color="#BD0816"/>
<stop offset="1" stop-color="#FF5252"/>
</linearGradient>
<clipPath id="clip0_313_30">
<rect width="24" height="24" fill="white"/>
</clipPath>
</defs>
</svg>
