<svg width="24" height="24" viewBox="0 0 24 24" fill="none" xmlns="http://www.w3.org/2000/svg">
<path d="M21.225 21.625C21.1869 21.6502 21.1475 21.6627 21.1066 21.6627C21.0459 21.6627 20.9934 21.641 20.9491 21.5977C20.9047 21.5542 20.8825 21.4973 20.8825 21.4269C20.8825 21.3611 20.9017 21.305 20.94 21.2588C20.978 21.2125 21.0304 21.1894 21.0968 21.1894C21.1392 21.1894 21.1758 21.1981 21.2069 21.2155C21.2576 21.2438 21.289 21.2934 21.3012 21.364L21.1993 21.3624C21.1931 21.3295 21.1802 21.3076 21.1603 21.2963C21.1436 21.2857 21.1253 21.2805 21.1055 21.2805C21.0755 21.2805 21.0509 21.2929 21.0317 21.3175C21.0126 21.3422 21.003 21.3796 21.003 21.4293C21.003 21.4787 21.0136 21.5146 21.0348 21.537C21.0559 21.5593 21.0813 21.5705 21.1108 21.5705C21.138 21.5705 21.1586 21.5631 21.1725 21.5484C21.1863 21.5336 21.1954 21.5148 21.1993 21.4925H21.2985C21.2877 21.5556 21.2632 21.5998 21.225 21.625ZM20.862 21.1943C20.7983 21.2594 20.7665 21.3366 20.7665 21.4258C20.7665 21.5184 20.7989 21.597 20.8637 21.6616C20.9281 21.7264 21.0058 21.7587 21.0968 21.7587C21.1877 21.7587 21.2651 21.7262 21.3294 21.6611C21.3938 21.5957 21.4259 21.5173 21.4259 21.4258C21.4259 21.3369 21.394 21.2597 21.3299 21.1943C21.2653 21.1278 21.1877 21.0945 21.0968 21.0945C21.005 21.0945 20.9268 21.1278 20.862 21.1943ZM21.3765 21.7126C21.2989 21.7878 21.2056 21.8253 21.0968 21.8253C20.9845 21.8253 20.8897 21.7869 20.8128 21.7099C20.7356 21.6329 20.6972 21.5382 20.6972 21.4258C20.6972 21.3091 20.7389 21.212 20.8218 21.1347C20.9 21.0623 20.9917 21.0262 21.0968 21.0262C21.2071 21.0262 21.3012 21.0652 21.3793 21.1434C21.4573 21.2214 21.4965 21.3155 21.4965 21.4258C21.4965 21.5393 21.4565 21.6348 21.3765 21.7126Z" fill="#59473D"/>
<path d="M22.2307 17.4229C22.2291 17.3829 22.2256 17.3446 22.2212 17.3087C22.2183 17.2848 22.2138 17.2612 22.2078 17.2381C22.1979 17.1848 22.1857 17.1319 22.1678 17.0816L22.1674 17.0806C22.1305 16.976 22.0735 16.8757 22.0003 16.7911C21.9274 16.7067 21.84 16.6399 21.7526 16.5936L21.7498 16.592C21.6565 16.5432 21.5649 16.516 21.4819 16.5001C21.4574 16.4956 21.4347 16.4933 21.412 16.4908C21.5182 16.0358 21.3853 15.6885 21.2993 15.526C21.306 15.5196 21.313 15.5132 21.3193 15.5071C21.4327 15.3976 21.529 15.2928 21.6101 15.1876L21.6255 15.1665C21.6907 15.0729 21.7337 14.9771 21.7612 14.8891C21.7847 14.8135 21.7963 14.7451 21.8031 14.6827L21.8038 14.6828L21.8045 14.679L21.8049 14.6701L21.8075 14.6509H21.806L21.8072 14.6293H21.8077L21.808 14.6164C21.8085 14.6036 21.8088 14.5904 21.8088 14.5764C21.8094 14.5506 21.8093 14.5239 21.808 14.4946C21.8018 14.3537 21.7763 14.1705 21.6837 13.9722C21.6375 13.8734 21.5737 13.7717 21.4886 13.6776C21.404 13.5836 21.2984 13.498 21.1771 13.4302L21.1777 13.4305C21.1689 13.4256 21.162 13.4209 21.1538 13.4161C20.9019 13.0451 20.614 12.7575 20.3588 12.5393C20.2264 12.4262 20.1029 12.3317 19.9976 12.2547C19.8933 12.1781 19.8054 12.1176 19.7564 12.0813L19.7569 12.0816C19.6446 11.9993 19.5612 11.9497 19.5212 11.9272C19.4292 11.8713 19.3608 11.8267 19.3195 11.7955C19.2873 11.7712 19.2716 11.7555 19.2657 11.7491L19.2626 11.745C19.262 11.7442 19.2585 11.7372 19.2537 11.7124C19.2485 11.6876 19.243 11.6453 19.2405 11.584C19.2363 11.4876 19.2396 11.3466 19.2502 11.1604C19.2669 10.861 19.301 10.4477 19.3362 9.88757C19.3478 9.70949 19.3495 9.54174 19.343 9.38355C19.3325 9.12997 19.2997 8.90027 19.2467 8.69206L19.2465 8.69093C19.2348 8.64356 19.2213 8.59706 19.2071 8.55121L19.2069 8.55083L19.2066 8.55026C19.1959 8.51607 19.1865 8.4903 19.1807 8.47382L19.1811 8.47477C19.1704 8.44427 19.1593 8.41414 19.1471 8.38355L19.1467 8.38222C19.1407 8.36735 19.133 8.34812 19.1229 8.32425L19.1227 8.32368L19.1225 8.3233C19.1033 8.27822 19.0815 8.22972 19.0538 8.17743L19.0464 8.16351L19.0326 8.13878L19.0227 8.12221C18.9717 8.03819 18.9177 7.96155 18.8612 7.89023C18.8328 7.7614 18.7833 7.57091 18.7012 7.35437C18.6282 7.16379 18.5305 6.95237 18.3915 6.74378C18.3433 6.67198 18.2885 6.60075 18.2284 6.53103L18.2484 6.51029C18.2764 6.48093 18.944 5.78177 19.4668 4.87451C20.441 3.1834 20.1167 2.14949 19.6733 1.58001L19.6607 1.5641L19.6474 1.54913C19.2198 1.0739 18.6384 0.787552 17.919 0.698227C16.4293 0.512948 14.7446 1.24393 14.3029 1.45185L13.5 0.564856L13.4969 0.561541C13.4259 0.483489 13.3471 0.413772 13.2626 0.35258C13.1775 0.291199 13.0864 0.238343 12.9908 0.194013C12.7989 0.104972 12.5884 0.0492747 12.3643 0.0214259C11.915 -0.0338928 11.4105 0.0198156 10.8617 0.16048C10.0393 0.372662 9.11568 0.783479 8.15026 1.36262C7.18531 1.94195 6.17972 2.69027 5.2034 3.58077C4.01035 4.66886 3.02485 5.81928 2.30684 6.91116C1.94812 7.45724 1.65599 7.98874 1.43889 8.49286C1.22225 8.99726 1.07979 9.4741 1.02485 9.91533C0.985064 10.2361 0.991411 10.5391 1.05582 10.8184C1.08386 10.9406 1.12421 11.058 1.17603 11.1692C1.24243 11.3121 1.32834 11.4446 1.43519 11.5619L1.43784 11.5648L2.3721 12.5432L2.36671 12.5525C2.35657 12.5702 2.3471 12.5881 2.33715 12.6061C2.32275 12.6326 2.30826 12.6591 2.29443 12.6859C2.28515 12.7043 2.27605 12.7226 2.26725 12.741C2.25389 12.7684 2.24091 12.7956 2.22822 12.8233C2.21969 12.8419 2.21155 12.8606 2.2035 12.8794C2.19118 12.9075 2.17934 12.9358 2.16807 12.9644C2.16059 12.9831 2.15329 13.002 2.14581 13.0209C2.13492 13.0498 2.12459 13.0794 2.11417 13.1087C2.10773 13.1277 2.1011 13.1467 2.09494 13.1659C2.08519 13.1958 2.07619 13.2259 2.06719 13.2563C2.06463 13.2648 2.06188 13.2729 2.05942 13.2813C2.05639 13.292 2.05355 13.3029 2.05061 13.3136C2.0419 13.3447 2.03432 13.3762 2.02665 13.4076C2.0221 13.4264 2.01717 13.4452 2.01282 13.4643C2.00988 13.4782 2.00694 13.4918 2.0041 13.5057C2.00003 13.5252 1.99652 13.5446 1.99264 13.5642C1.98933 13.5818 1.98544 13.5995 1.98241 13.6172C1.9755 13.6567 1.96972 13.6969 1.96413 13.7368C1.96271 13.7486 1.96044 13.7601 1.95901 13.772L1.95864 13.7753L1.95769 13.786C1.95456 13.8121 1.95229 13.8383 1.94954 13.8648C1.94566 13.906 1.94234 13.9474 1.94016 13.9892C1.93884 14.0074 1.93799 14.0261 1.93713 14.0446C1.93656 14.0589 1.93552 14.073 1.93495 14.0875C1.9342 14.1166 1.93458 14.146 1.93439 14.1756C1.93439 14.1931 1.9342 14.2108 1.93439 14.2287C1.93458 14.2393 1.9342 14.2497 1.93439 14.2603V14.2663C1.93495 14.2852 1.93571 14.3043 1.93619 14.323C1.93713 14.3439 1.93903 14.3642 1.94035 14.3848C1.94121 14.4001 1.94159 14.4155 1.94253 14.4306C1.94386 14.4442 1.94452 14.4544 1.94547 14.4632C1.94717 14.4825 1.94897 14.5021 1.95106 14.5214C1.95305 14.5436 1.95551 14.5673 1.95882 14.5944L1.95901 14.5967V14.5963C1.96044 14.6069 1.96157 14.6139 1.96271 14.6222C1.96564 14.6441 1.96915 14.6662 1.97247 14.688C1.97512 14.7076 1.97862 14.7296 1.98307 14.757C1.98525 14.7679 1.98696 14.7771 1.98857 14.7853C1.99103 14.7985 1.99378 14.8117 1.99634 14.8247L1.99652 14.8257L1.9969 14.8275L2.00041 14.8443C2.00372 14.8624 2.00837 14.8851 2.01528 14.9162C2.01717 14.9245 2.0186 14.9301 2.02021 14.9371C2.02523 14.9569 2.02892 14.9717 2.03167 14.9822L2.0365 15.0023C2.0382 15.0088 2.03981 15.0149 2.04209 15.0243L2.04692 15.0427L2.05109 15.0582L2.05469 15.0722C2.05667 15.0792 2.05819 15.084 2.06008 15.0904L2.0652 15.1094C2.06965 15.1243 2.07458 15.1389 2.07903 15.1537C2.08443 15.171 2.09125 15.194 2.10129 15.2248L2.09958 15.2198L2.10148 15.2255C2.10385 15.2329 2.10574 15.2378 2.10792 15.2439C2.11682 15.2695 2.12402 15.2891 2.12753 15.2992L2.1281 15.3004V15.3006C2.13397 15.3173 2.14268 15.3419 2.1549 15.3738L2.15509 15.3743L2.15613 15.3772L2.15566 15.3758L2.16106 15.3889C2.16883 15.4086 2.17498 15.4239 2.1801 15.4355L2.18616 15.4505L2.18711 15.4529C2.19024 15.4605 2.1945 15.4707 2.19952 15.4825C2.20416 15.4936 2.20965 15.5066 2.21619 15.5215L2.21562 15.5202L2.22225 15.5345C2.22841 15.5482 2.23409 15.5611 2.2393 15.5715C2.24423 15.5816 2.24849 15.5907 2.25199 15.5981L2.25152 15.5969L2.25218 15.5985C2.26005 15.6149 2.26952 15.6359 2.28278 15.662L2.28382 15.6645L2.28458 15.6658L2.29017 15.6768C2.29585 15.6875 2.30125 15.698 2.30608 15.7071C2.3129 15.7201 2.31915 15.7312 2.32399 15.7406L2.32493 15.7426C2.33213 15.7557 2.34217 15.7749 2.35581 15.7996L2.35676 15.8012L2.35771 15.8031L2.36339 15.8125C2.36898 15.8225 2.37438 15.832 2.37949 15.8405C2.38821 15.8553 2.39635 15.8684 2.4027 15.8795L2.40469 15.8825L2.40507 15.8835C2.4117 15.8942 2.42183 15.9112 2.43614 15.9342L2.43746 15.9363L2.44154 15.943C2.44855 15.954 2.45537 15.9646 2.46162 15.9741C2.47185 15.9893 2.48094 16.003 2.48871 16.0148L2.48738 16.0128C2.49591 16.0254 2.50756 16.0433 2.52347 16.0658L2.5247 16.0677L2.52546 16.0692L2.52404 16.0668L2.52565 16.0692L2.52698 16.071L2.5266 16.0708L2.52717 16.0715L2.52736 16.0717C2.53493 16.0824 2.54251 16.0929 2.55009 16.1035C2.56061 16.1182 2.57065 16.1318 2.57955 16.1437L2.57898 16.1428C2.58751 16.1544 2.59821 16.1689 2.61109 16.1859L2.61393 16.1896C2.62369 16.2023 2.63297 16.2141 2.64207 16.2256C2.65391 16.2404 2.66518 16.2542 2.67569 16.2671L2.6792 16.2716C2.6864 16.2803 2.69473 16.2906 2.70601 16.3039L2.71103 16.3098L2.71084 16.3099L2.71254 16.312L2.71548 16.3152C2.73234 16.3349 2.7475 16.3519 2.76265 16.3689L2.77875 16.3873L2.77894 16.3876L2.77961 16.3883L2.78084 16.3895L2.78046 16.3892C2.78804 16.3976 2.79723 16.4081 2.80869 16.4202L2.81229 16.4243L2.81238 16.4246L2.81295 16.425L2.81522 16.4273L2.81465 16.4267C2.83294 16.4465 2.85084 16.4647 2.86884 16.483C2.87622 16.4905 2.88361 16.4987 2.8911 16.506L2.89195 16.5069C2.89583 16.5106 2.90455 16.5197 2.91866 16.5338L2.92141 16.5362L2.92946 16.5447C2.95115 16.5659 2.97379 16.5863 2.99615 16.607L3.00135 16.6121L3.00278 16.6132L3.00334 16.6138L3.0041 16.6146C3.00988 16.6197 3.01907 16.6282 3.03242 16.6402L3.03385 16.6418C3.06255 16.6671 3.09144 16.6919 3.12014 16.7157L3.12175 16.7172L3.13804 16.7306L3.14912 16.7396L3.14875 16.7392L3.16542 16.7524C3.18967 16.7718 3.21354 16.7907 3.23646 16.8082L3.2429 16.8133L3.24593 16.8155C3.25474 16.822 3.26118 16.8268 3.26478 16.8296L3.26923 16.8331L3.27274 16.8355C3.27937 16.8403 3.286 16.8449 3.29291 16.8499C3.31328 16.8645 3.33355 16.8789 3.35411 16.8931L3.37135 16.9052L3.37334 16.9066L3.39465 16.9211L3.3956 16.9215L3.40649 16.9285C3.42723 16.9425 3.4494 16.9562 3.47137 16.9704C3.48293 16.9777 3.49345 16.9848 3.50547 16.992L3.52414 17.0034L3.53465 17.0096L3.54156 17.0136C3.57576 17.0342 3.60797 17.0528 3.63733 17.069L3.64017 17.0704L3.65845 17.0803L3.65978 17.0813C3.70042 17.103 3.73916 17.1229 3.77572 17.141L3.78207 17.1441L3.80206 17.1536L3.80224 17.1535C3.82204 17.163 3.84127 17.1714 3.86088 17.1802C3.86997 17.1844 3.87935 17.1887 3.88863 17.1928C3.89972 17.1978 3.91137 17.2037 3.92245 17.2084L3.93192 17.2125L3.93467 17.2136L3.93912 17.2156C3.95816 17.2236 3.97682 17.2305 3.99558 17.2381L4.00514 17.2417C4.02627 17.2503 4.04739 17.2592 4.06842 17.2671L4.07344 17.2689L4.08897 17.2745C4.09882 17.278 4.10896 17.2811 4.11891 17.2847L4.12819 17.2879C4.15831 17.2987 4.18853 17.3096 4.21922 17.3193L4.22642 17.3216L4.22907 17.3224L4.23011 17.323C4.27728 17.3377 4.32446 17.3512 4.37144 17.3639L4.37333 17.3644L4.38129 17.3664L4.37854 17.3658C4.42013 17.3767 4.46105 17.3861 4.50159 17.3952H4.50206L4.51713 17.3992L4.53285 17.4025C4.5715 17.4109 4.6109 17.4177 4.65059 17.4247L4.66177 17.4277L4.68971 17.4319C4.71358 17.4358 4.73745 17.439 4.76132 17.4422C4.76502 17.4521 4.76852 17.4618 4.77165 17.4702L4.77203 17.4715C4.83729 17.6497 4.90805 17.8269 4.98402 18.0028C6.1046 21.1037 9.20226 23.5076 12.737 23.947C16.2719 24.3866 20.0451 22.0371 21.5824 18.8623C21.6486 18.7408 21.7091 18.6217 21.7642 18.5062C21.9167 18.3492 22.0351 18.1865 22.1137 18.0139C22.2078 17.8111 22.2395 17.5976 22.2307 17.4229Z" fill="#59473D"/>
<path d="M19.1221 8.32245L19.1225 8.3233L19.1227 8.32359L19.1221 8.32245Z" fill="#59473D"/>
<path d="M3.52434 17.0036L3.52415 17.0034H3.52396L3.52434 17.0036Z" fill="#59473D"/>
<path d="M2.52328 16.0657L2.52347 16.0661V16.0658L2.52328 16.0657Z" fill="#59473D"/>
<path d="M2.52385 16.0667L2.52404 16.0668L2.52347 16.0661L2.52385 16.0667Z" fill="#59473D"/>
<path d="M2.05507 15.0736L2.05469 15.0722L2.0545 15.0719L2.05507 15.0736Z" fill="#59473D"/>
<path d="M2.01539 14.9167L2.0153 14.9162L2.01511 14.916L2.01539 14.9167Z" fill="#59473D"/>
<path d="M2.6144 16.1902L2.61553 16.1916L2.61392 16.1896L2.61298 16.1884L2.6144 16.1902Z" fill="#59473D"/>
<path d="M19.2073 1.92566C19.0361 1.73536 18.8381 1.59195 18.623 1.48576C18.5833 1.47108 18.5435 1.45649 18.5025 1.44465C18.4825 1.43139 18.4622 1.41889 18.4415 1.40667C18.2513 1.33382 18.05 1.28627 17.843 1.25966C16.816 1.12752 15.6468 1.50139 14.9781 1.7669C14.9415 1.78225 14.9045 1.7975 14.8671 1.81341C14.811 1.83738 14.7543 1.86181 14.6969 1.88711C14.6006 1.92954 14.5031 1.97397 14.4034 2.02038C14.3889 2.02701 14.3745 2.03393 14.3601 2.04075L14.0966 1.7347L14.0211 1.64689L13.9886 1.60881L13.2994 0.808581L13.2395 0.739053L13.1654 0.653139L13.1522 0.656075L12.9573 0.700217L12.7321 0.751178C12.6077 0.693397 12.4598 0.652192 12.2887 0.630879C11.9458 0.587685 11.5106 0.627374 11.0147 0.755535C10.5188 0.882844 9.9628 1.09692 9.37315 1.39056C8.19374 1.97747 6.88077 2.88199 5.61735 4.03459C5.1765 4.4366 4.7654 4.84732 4.38746 5.25927C4.02031 5.65891 3.6846 6.05988 3.38338 6.45526C2.77166 7.25813 2.30277 8.03904 2.00335 8.73564C1.80339 9.19978 1.67968 9.62623 1.6345 9.9912C1.60115 10.2565 1.60987 10.4886 1.65429 10.6803C1.66869 10.7424 1.68773 10.7987 1.70923 10.8526C1.75394 10.9659 1.81267 11.0636 1.88855 11.1472L2.65297 11.948L2.7349 12.0337L2.7403 12.028C2.76361 12.001 2.78748 11.9741 2.81172 11.9477L2.81817 11.9407C2.82698 11.9312 2.83616 11.9223 2.84497 11.9132C2.8679 11.8893 2.8911 11.8653 2.91478 11.8419C2.92947 11.8274 2.94434 11.8135 2.9593 11.7994C2.97389 11.7856 2.98801 11.7714 3.00278 11.7579C3.00951 11.7518 3.01633 11.7462 3.02315 11.7402C3.03868 11.7261 3.05479 11.7122 3.07089 11.6983C3.09324 11.679 3.11569 11.6599 3.13881 11.641C3.15226 11.63 3.1658 11.6191 3.17944 11.6082L3.18541 11.6036C3.20966 11.5845 3.23429 11.5659 3.25882 11.5475C3.27436 11.5359 3.28999 11.5245 3.30571 11.5131C3.33119 11.495 3.35724 11.477 3.38338 11.4594C3.39911 11.4489 3.41464 11.4384 3.43056 11.4281C3.45736 11.4106 3.48474 11.3937 3.51211 11.377C3.52812 11.3673 3.54356 11.3577 3.55947 11.3485C3.58818 11.3316 3.61726 11.3157 3.64624 11.2998C3.66178 11.2915 3.67703 11.2828 3.69256 11.2746L3.70999 11.2654L3.71264 11.2639C3.73727 11.2512 3.76247 11.2395 3.78747 11.2274C3.80149 11.2207 3.81494 11.2137 3.82925 11.2072C3.85018 11.1972 3.87159 11.1881 3.8929 11.1788C3.91137 11.1708 3.92966 11.1626 3.94841 11.1548L3.96906 11.1457C4.01623 11.1265 4.06378 11.1083 4.1119 11.0912C4.12706 11.0857 4.14278 11.0811 4.15813 11.0758C4.17461 11.0703 4.19109 11.0647 4.20795 11.0594L4.22737 11.0528C4.23732 11.0497 4.24736 11.0463 4.25712 11.0434C4.27767 11.0373 4.29841 11.0319 4.31888 11.026L4.33413 11.0218C4.358 11.0151 4.38168 11.0084 4.40574 11.0024C4.42809 10.9966 4.45064 10.9918 4.47327 10.9866C4.50122 10.9801 4.52916 10.9738 4.5572 10.968C4.56895 10.9657 4.5806 10.9632 4.59234 10.9609C4.60409 10.9587 4.61621 10.957 4.62805 10.9548C4.65562 10.9499 4.68337 10.9452 4.71103 10.9409C4.73557 10.9372 4.76 10.934 4.78444 10.9306C4.80424 10.9281 4.82366 10.9254 4.84336 10.9232C4.85141 10.9223 4.85937 10.9217 4.86733 10.921C4.87642 10.92 4.88504 10.9186 4.89413 10.9179L4.90891 10.917C5.00695 10.9131 5.11408 10.9139 5.23144 10.9226L5.24935 10.9238C5.36775 10.9335 5.49582 10.9523 5.63033 10.9808C5.66244 10.9877 5.69445 10.9943 5.72761 11.0024C5.73443 10.9898 5.74144 10.9768 5.74835 10.9642C5.81958 10.8364 5.89157 10.7119 5.96442 10.5895C6.39011 9.87583 6.84667 9.25198 7.31272 8.70807C7.47166 8.52232 7.63203 8.34547 7.7924 8.17781C8.46086 7.47979 9.13321 6.93617 9.74797 6.51645C9.88456 6.42324 10.0183 6.33609 10.1486 6.25463C10.326 6.1439 10.4968 6.04378 10.6592 5.95379C10.7915 5.88047 10.9184 5.81379 11.0388 5.75326C11.2395 5.65228 11.4223 5.56855 11.5831 5.49968C11.6329 5.47837 11.6807 5.45838 11.7259 5.44001C11.7961 5.4114 11.861 5.38601 11.9198 5.36394C11.8691 5.35864 11.8177 5.35457 11.7651 5.35182C11.7161 5.34926 11.6663 5.34831 11.616 5.34822C11.6033 5.34812 11.5908 5.34831 11.5781 5.34831C11.5274 5.34898 11.4761 5.35021 11.4242 5.35343C11.3257 5.3593 11.2251 5.36963 11.122 5.38582C11.0876 5.39122 11.0531 5.39729 11.0181 5.4042C11.274 5.27178 11.5264 5.17232 11.7699 5.09758C11.9318 5.04785 12.09 5.00882 12.2419 4.97917C12.4513 4.93873 12.6493 4.91524 12.8319 4.9033C12.9544 4.89544 13.0696 4.8926 13.1764 4.89354C13.2838 4.89459 13.3826 4.89923 13.4715 4.90586C13.7819 4.92916 13.969 4.97662 13.969 4.97662C13.9249 4.91457 13.8694 4.86049 13.8091 4.81331C13.6992 4.72816 13.5726 4.66715 13.4616 4.62396C13.4179 4.60701 13.3764 4.59223 13.3398 4.58077C13.3107 4.57167 13.2836 4.56381 13.2613 4.55775C13.3137 4.54875 13.3653 4.54117 13.4162 4.53435C13.4703 4.52706 13.5238 4.52081 13.5763 4.51579C14.0237 4.47392 14.4149 4.51247 14.7088 4.56703C15.0633 4.63258 15.2767 4.72172 15.2767 4.72172C15.2262 4.6232 15.1513 4.53909 15.0694 4.46814C15.0096 4.41661 14.9465 4.37181 14.8862 4.33467C15.005 4.36214 15.1179 4.39274 15.2252 4.42551C15.5086 4.51209 15.7497 4.61278 15.9393 4.70419C16.0007 4.73384 16.0569 4.76235 16.1073 4.78935C16.1217 4.79702 16.1348 4.80422 16.1482 4.81161C16.3217 4.90633 16.4177 4.97434 16.4177 4.97434C16.3887 4.87223 16.3298 4.7758 16.261 4.68922C16.2437 4.66753 16.2262 4.64603 16.2082 4.62576L16.2166 4.62955C16.2229 4.63163 16.2365 4.6359 16.2555 4.64234C16.2693 4.64698 16.286 4.65276 16.306 4.65996C16.3815 4.68743 16.4969 4.73356 16.6327 4.801C16.6391 4.80413 16.6459 4.80754 16.6525 4.81085C16.6709 4.82032 16.6897 4.82989 16.7086 4.83993C16.7552 4.86446 16.8033 4.89174 16.8524 4.92101C16.8982 4.94829 16.945 4.97756 16.992 5.0092C17.0162 5.02549 17.0404 5.04226 17.0646 5.05969C17.1164 5.09682 17.1679 5.1367 17.2189 5.17933C17.2711 5.22299 17.3226 5.26969 17.3724 5.31923C17.3821 5.32908 17.3922 5.33875 17.4019 5.34898C17.4383 5.3863 17.4734 5.42561 17.5072 5.46643C17.5716 5.54335 17.6312 5.62642 17.6841 5.71584C17.7475 5.82307 17.8016 5.93882 17.8419 6.0648C17.8441 6.07191 17.846 6.0793 17.848 6.0864C17.8773 6.05495 17.9289 5.9984 17.996 5.9213C18.5541 5.27983 20.1972 3.19676 19.2073 1.92566Z" fill="#141C26"/>
<path d="M21.6627 17.4885L21.663 17.4884C21.663 17.4884 21.6823 17.3441 21.6061 17.2151L21.6044 17.2116C21.5999 17.2038 21.5952 17.1969 21.5903 17.19L21.5853 17.1825C21.577 17.1713 21.5668 17.1605 21.5564 17.1496C21.5378 17.13 21.516 17.1116 21.49 17.0952C21.4766 17.0863 21.4619 17.0782 21.4462 17.0704C21.4029 17.0497 21.3511 17.034 21.2895 17.025C21.2445 17.0185 21.1931 17.0166 21.1371 17.0183C21.1144 17.019 21.0921 17.0195 21.0676 17.0218L21.0566 17.0225C21.0566 17.0225 21.0583 17.0284 21.0606 17.0373C21.0632 17.0467 21.0667 17.0602 21.0715 17.0782C21.0732 17.0852 21.075 17.0925 21.0771 17.1005C21.0851 17.1324 21.0946 17.173 21.1044 17.2188C21.1043 17.2192 21.1016 17.2281 21.0944 17.2449L21.0906 17.2538C21.0625 17.3189 20.9863 17.4695 20.8164 17.6652C20.7875 17.6985 20.7555 17.7334 20.7211 17.7692C20.2473 18.2587 19.222 18.9558 17.0646 19.3457C16.3326 19.449 15.6577 19.4547 15.0812 19.383C14.2288 19.277 13.5901 19.0046 13.2929 18.6384C13.2671 18.607 13.2436 18.5746 13.2211 18.5419C13.2045 18.5178 13.1885 18.4933 13.1737 18.4686C13.1684 18.4595 13.1636 18.4502 13.1584 18.4411C13.0307 18.2154 12.9751 17.9693 12.9782 17.731C12.9823 17.4416 13.0726 17.1647 13.2254 16.9519C13.3494 16.7793 13.5142 16.6489 13.7069 16.5886C13.8015 16.5592 13.9025 16.5459 14.0087 16.5531C14.0301 16.5546 14.0585 16.5576 14.0938 16.562C14.1646 16.5709 14.2636 16.5848 14.3851 16.6005C14.3987 16.6022 14.4113 16.6038 14.4255 16.6056C14.8304 16.6559 15.4751 16.7167 16.2547 16.6691C17.6731 16.5827 19.54 16.1364 21.2353 14.6078L21.2399 14.6018V14.5991C21.2456 14.4711 21.2285 14.2398 21.0667 14.06C21.0385 14.0285 21.0055 13.9988 20.968 13.9712C20.9465 13.9555 20.9242 13.9404 20.8994 13.9264C20.8745 13.9126 20.8518 13.8987 20.8298 13.8846C20.7998 13.8658 20.7714 13.847 20.7463 13.8284L20.7426 13.823C20.7312 13.8051 20.719 13.7876 20.7073 13.7697C20.2675 13.1037 19.6618 12.7172 19.4202 12.54C19.3063 12.4563 19.2337 12.4181 19.2337 12.4181C18.7106 12.0995 18.6339 11.9938 18.6828 11.1284C18.7003 10.8167 18.734 10.4071 18.7688 9.85186C18.7734 9.77959 18.7756 9.71101 18.7768 9.64356C18.7771 9.62746 18.7775 9.61174 18.7775 9.59592C18.778 9.53217 18.7773 9.46993 18.7749 9.41016L18.7743 9.39302L18.7729 9.37464C18.7702 9.32766 18.7669 9.282 18.763 9.23758C18.7612 9.21806 18.7593 9.19846 18.7573 9.17923C18.7521 9.13177 18.7462 9.08564 18.7388 9.04112C18.7351 9.01839 18.7306 8.99651 18.7265 8.97434C18.7218 8.94943 18.7168 8.92508 18.7116 8.90121C18.7065 8.87772 18.7013 8.85404 18.6955 8.8314L18.6953 8.83131L18.6955 8.83102V8.83131C18.6885 8.80336 18.6803 8.77694 18.6726 8.75051C18.6698 8.74085 18.6675 8.7308 18.6644 8.72143C18.6615 8.71252 18.6583 8.70438 18.6555 8.69547L18.6526 8.68666L18.6437 8.66128L18.6434 8.65957C18.6361 8.63911 18.6285 8.61922 18.6211 8.5998L18.6188 8.59336L18.6112 8.57498L18.6021 8.55235L18.6 8.54799V8.54742C18.5843 8.51076 18.5679 8.47515 18.5505 8.4418L18.5366 8.41717C18.5168 8.38449 18.4965 8.3538 18.4757 8.32416L18.4674 8.31175L18.4571 8.29801C18.4422 8.27765 18.4272 8.25766 18.4123 8.239L18.3918 8.21333C18.3717 8.18955 18.3517 8.16654 18.3315 8.14503V8.14484L18.3311 8.14143L18.3305 8.13727L18.3294 8.13149L18.3279 8.12325L18.3266 8.11501L18.324 8.10165L18.3227 8.0936L18.319 8.07494L18.3176 8.06831C18.3105 8.03278 18.3005 7.98675 18.287 7.93209L18.2863 7.92812C18.2828 7.91495 18.2793 7.90112 18.2756 7.88682L18.2741 7.88142C18.2702 7.86655 18.2661 7.85148 18.2616 7.83567L18.2611 7.83462C18.2507 7.79797 18.2389 7.75837 18.2257 7.71745C18.2217 7.70419 18.2167 7.69026 18.2119 7.67653C18.2024 7.64773 18.1926 7.61913 18.1816 7.58919C18.1753 7.57205 18.1684 7.555 18.1616 7.53747C18.151 7.50963 18.1397 7.48187 18.1275 7.45336C18.1197 7.4346 18.111 7.41613 18.1029 7.39719C18.0901 7.36896 18.0768 7.34102 18.063 7.31288C18.0535 7.29366 18.0441 7.27462 18.0339 7.25548C18.0188 7.22669 18.0027 7.19855 17.9862 7.17023C17.9755 7.15214 17.9649 7.13386 17.954 7.11567C17.9349 7.08526 17.9144 7.05542 17.8936 7.02568C17.8831 7.011 17.8734 6.99565 17.8624 6.98088C17.8528 6.96809 17.8419 6.95625 17.8319 6.94375C17.808 6.91324 17.7844 6.88274 17.7583 6.85404L17.7552 6.85082L17.7403 6.83671C17.7067 6.80062 17.6713 6.76538 17.6333 6.73298L17.6265 6.72721C17.6098 6.713 17.5923 6.69936 17.5749 6.6861L17.5731 6.68458L17.5667 6.68003C17.5517 6.66867 17.5361 6.65777 17.5203 6.64717L17.512 6.64129L17.5153 6.64413C17.4987 6.63182 17.4685 6.61591 17.4289 6.59819C17.4151 6.59223 17.3999 6.58569 17.3836 6.57906C17.302 6.54638 17.1916 6.50925 17.0609 6.47448C17.0528 6.47221 17.0442 6.47022 17.0362 6.46823C16.9276 6.44 16.8068 6.41377 16.6787 6.3934C16.6356 6.38658 16.5919 6.38023 16.5476 6.37493C16.5267 6.37228 16.5052 6.37124 16.4841 6.36896C16.4756 6.36811 16.4669 6.36745 16.4584 6.36659C16.3578 6.35693 16.2556 6.3503 16.1529 6.35125L16.1468 6.35144C16.0146 6.35267 15.8821 6.36366 15.7559 6.38866C15.7856 6.33941 15.8658 6.28504 15.9463 6.23957C16.0465 6.18283 16.147 6.14068 16.147 6.14068C16.0897 6.14494 16.031 6.15309 15.9724 6.16256C15.9535 6.16568 15.9345 6.16824 15.9154 6.17175C15.903 6.17402 15.8908 6.17648 15.8786 6.17876L15.8679 6.18093C15.8575 6.18302 15.8475 6.1852 15.8373 6.18738C15.5424 6.25018 15.2586 6.35636 15.1008 6.42078C15.0784 6.42987 15.0588 6.43811 15.0416 6.4454L15.0317 6.44957C15.0159 6.45147 14.9998 6.45383 14.9841 6.45573L14.9845 6.45526C15.1008 6.24014 15.2725 6.1242 15.4033 6.063C15.4261 6.0523 15.4479 6.04264 15.4677 6.03516C15.4751 6.03231 15.4812 6.03042 15.4878 6.02796C15.5067 6.02133 15.5228 6.01612 15.5367 6.01204C15.5676 6.00304 15.5877 5.99907 15.5877 5.99907C15.5737 5.99944 15.5606 6.00124 15.5469 6.002C15.5352 6.00276 15.5237 6.0038 15.5123 6.00475C15.4952 6.00598 15.478 6.00693 15.4612 6.00844C15.4512 6.00948 15.4407 6.00967 15.4306 6.01072C15.1046 6.04605 14.8146 6.15659 14.5662 6.29385C14.3948 6.38847 14.2426 6.49551 14.1145 6.60104C14.0803 6.60814 14.0453 6.61543 14.0098 6.62301C13.6533 6.69907 13.2461 6.79711 12.818 6.92849C12.6599 6.97699 12.4988 7.03013 12.3364 7.08829C12.21 7.13367 12.0826 7.18311 11.9549 7.23502C11.8635 7.27215 11.7721 7.31118 11.6808 7.35191C11.0234 7.64536 10.3757 8.03496 9.83141 8.55765C9.81181 8.5765 9.79125 8.59421 9.77202 8.61335C9.72466 8.66043 9.679 8.70978 9.63344 8.75903C9.61478 8.77911 9.59517 8.79796 9.57689 8.81842C9.55387 8.84381 9.53265 8.87119 9.51021 8.89723C9.40876 9.01535 9.31119 9.13783 9.22092 9.26808C9.15357 9.3647 9.09011 9.46501 9.02977 9.56883L9.02238 9.58105C8.89772 9.79749 8.78888 10.0292 8.69861 10.2775C8.65352 10.4018 8.61298 10.5302 8.57746 10.6627C8.56818 10.6978 8.55899 10.7331 8.55027 10.7688L8.54544 10.7874C8.51106 10.9312 8.48349 11.0808 8.46123 11.2347C8.45697 11.265 8.45223 11.295 8.44816 11.3258C8.4385 11.4026 8.43092 11.4809 8.42448 11.5603C8.41851 11.6329 8.41406 11.7065 8.41075 11.7811L8.40999 11.7982C8.40857 11.8347 8.40648 11.871 8.40573 11.908C8.40497 11.9503 8.40525 11.9934 8.40525 12.0364C8.40506 12.0464 8.40506 12.0564 8.40497 12.0665C8.40525 12.1505 8.40667 12.2352 8.41037 12.3218L8.41131 12.3356C8.41501 12.4215 8.42107 12.5092 8.42855 12.5977C8.43168 12.6345 8.43481 12.6713 8.4385 12.7085C8.43945 12.7175 8.44002 12.7266 8.44087 12.7358C8.44295 12.7565 8.44551 12.7774 8.44778 12.798C8.45868 12.8958 8.47184 12.9954 8.48719 13.0963C8.49126 13.1244 8.49505 13.1523 8.4996 13.1805C8.51381 13.2689 8.52915 13.358 8.54658 13.4486C8.54658 13.4486 8.53076 13.3324 8.54061 13.1614C8.54308 13.1221 8.54677 13.08 8.55207 13.0352C8.56429 12.9382 8.58504 12.8311 8.62037 12.7207C8.62908 12.6937 8.63884 12.6665 8.64936 12.6391C8.65371 12.6272 8.65902 12.6154 8.66385 12.6035C8.68478 12.5529 8.70827 12.5021 8.7366 12.452C8.74304 12.4877 8.74986 12.5233 8.75706 12.5593L8.75933 12.5709L8.75914 12.5872C8.75895 12.6094 8.75857 12.6332 8.75838 12.6585C8.758 12.7131 8.758 12.7747 8.75857 12.8418C8.75933 12.9092 8.76056 12.9814 8.76302 13.0581C8.77278 13.3797 8.80053 13.7678 8.86997 14.0985C8.86997 14.0985 8.88304 13.4972 8.98487 13.4291C8.98487 13.4291 9.16285 14.5428 9.32805 14.9632C9.34946 15.0176 9.37077 15.061 9.39133 15.0882L9.38706 14.9777L9.36357 14.3588C9.36357 14.3588 9.36461 14.3357 9.36689 14.2952C9.49069 14.5487 9.63164 14.8094 9.79068 15.0772C9.83492 15.1513 9.87991 15.2257 9.9268 15.3009C9.62075 15.5701 9.33781 15.9507 9.13472 16.4061C9.10232 16.4788 9.07182 16.5535 9.04369 16.6298C9.02778 16.6733 9.01262 16.7177 8.99813 16.7624C8.99349 16.7765 8.98913 16.7906 8.98487 16.8048C8.97511 16.8362 8.96554 16.8677 8.95654 16.8997C8.9519 16.916 8.94755 16.9323 8.94319 16.9488C8.93466 16.9806 8.92652 17.0127 8.91894 17.0452C8.91524 17.0603 8.91136 17.0754 8.90824 17.0907C8.89772 17.1371 8.88787 17.1837 8.87916 17.2309L8.87849 17.2353C8.86997 17.2827 8.86239 17.3305 8.85566 17.3786C8.85349 17.3941 8.85159 17.4098 8.84979 17.4252C8.84534 17.4596 8.84146 17.4941 8.83814 17.5287C8.83625 17.5463 8.83482 17.5638 8.83331 17.5815C8.83037 17.6164 8.8281 17.6517 8.8263 17.6868C8.82535 17.7028 8.82441 17.7187 8.82384 17.7347C8.82175 17.7855 8.82052 17.8367 8.82071 17.8883L8.8209 17.895C8.8209 17.9346 8.82204 17.9742 8.82355 18.0141C8.82516 18.0544 8.82763 18.0946 8.83056 18.1352L8.8316 18.1515L8.83217 18.1616C8.83606 18.2108 8.84127 18.26 8.84733 18.3097C8.84922 18.3254 8.85197 18.3411 8.85405 18.3569C8.8587 18.3908 8.86324 18.4248 8.86911 18.4591C8.87215 18.478 8.87584 18.4972 8.87916 18.5162C8.88503 18.5475 8.89081 18.5787 8.89753 18.6101C8.90179 18.6303 8.90644 18.6505 8.91079 18.6707C8.9179 18.7012 8.9251 18.732 8.93305 18.7627C8.93817 18.7832 8.94357 18.8038 8.94935 18.8245C8.95787 18.8553 8.96649 18.8861 8.97596 18.9171C8.98203 18.9374 8.98818 18.9578 8.99462 18.9782C9.00495 19.0102 9.01594 19.0424 9.02702 19.0745C9.03384 19.0937 9.04019 19.1129 9.04729 19.1321C9.06027 19.1677 9.07419 19.2032 9.08859 19.2388C9.09494 19.2547 9.10081 19.2705 9.10753 19.2865C9.15044 19.3897 9.19856 19.4932 9.25218 19.5969C9.26032 19.6121 9.26904 19.6275 9.277 19.643C9.29641 19.6793 9.31621 19.7156 9.33686 19.7519C9.34775 19.7709 9.35912 19.7898 9.37058 19.8089C9.39 19.8416 9.40961 19.8746 9.43035 19.9074C9.44295 19.9276 9.45621 19.948 9.46938 19.9684C9.48993 19.9998 9.51096 20.0314 9.53247 20.0628C9.54686 20.0838 9.56136 20.1046 9.57604 20.1254C9.59811 20.1568 9.62103 20.1881 9.64462 20.2193C9.65987 20.2399 9.67512 20.2605 9.69084 20.281C9.71576 20.3132 9.74114 20.3452 9.76738 20.3771C9.78292 20.3967 9.79854 20.4163 9.81465 20.4357C9.84382 20.4706 9.87423 20.5055 9.90492 20.5402C9.91932 20.5567 9.93296 20.5731 9.94764 20.5895C9.99368 20.6405 10.0408 20.6916 10.0901 20.7424L10.0899 20.7421C10.0896 20.7416 10.0612 20.7007 10.0226 20.6289L10.0211 20.6265C10.014 20.6131 10.0065 20.5984 9.9987 20.5827L9.99623 20.5784C9.98809 20.5621 9.97985 20.5446 9.97132 20.5262L9.96962 20.523C9.96071 20.5035 9.95152 20.4826 9.94243 20.4607C9.86987 20.2864 9.7994 20.0443 9.80849 19.7743C9.83653 19.8119 9.86514 19.8481 9.89355 19.885C9.92661 19.9523 9.96867 20.0357 10.0177 20.1295C10.0342 20.1607 10.0514 20.193 10.0692 20.2264C10.1413 20.3593 10.2248 20.507 10.3157 20.6545C10.4251 20.8317 10.5453 21.009 10.6695 21.1621L10.6693 21.1619C10.6688 21.1608 10.5248 20.8603 10.4766 20.6631C10.463 20.6077 10.4566 20.56 10.4636 20.5301C10.4753 20.5419 10.4868 20.5539 10.4985 20.5659C10.51 20.5779 10.5217 20.5897 10.5334 20.6017C10.5563 20.6322 10.5853 20.6706 10.6178 20.7134L10.6342 20.7349C10.6503 20.7561 10.6669 20.7781 10.6849 20.8014L10.6858 20.8027C10.7065 20.8296 10.7282 20.8575 10.7505 20.8865C10.9531 21.1469 11.2227 21.4798 11.4149 21.6626C11.479 21.7236 11.5345 21.7679 11.576 21.7872L11.2987 21.2902C11.9264 21.8011 14.5167 22.4569 17.0686 21.7248C17.3765 21.6367 17.6843 21.5278 17.9874 21.3958C18.1706 21.3167 18.3519 21.2296 18.5314 21.1331L18.5575 21.1186C18.6831 21.0499 18.8076 20.9762 18.9312 20.8985L18.934 20.8968C19.0268 20.8383 19.1188 20.7771 19.2098 20.7136C19.3622 20.6062 19.5132 20.4931 19.6603 20.3702L19.6607 20.37L19.6613 20.3695C19.6697 20.362 19.6784 20.3547 19.6873 20.3473C19.8331 20.2199 19.9696 20.0889 20.0963 19.9555C20.2638 19.7793 20.4142 19.5993 20.5504 19.4188L20.5604 19.4058C20.5936 19.3613 20.6262 19.3169 20.6579 19.2731L20.6668 19.2602C20.6771 19.2451 20.6862 19.2308 20.6964 19.216C20.7404 19.1527 20.7839 19.0893 20.8246 19.0264C20.8343 19.0114 20.8444 18.996 20.8541 18.9809C20.8753 18.9475 20.8956 18.9142 20.916 18.8813C20.9313 18.8555 20.9471 18.8297 20.9619 18.8041C20.9785 18.7763 20.9952 18.7483 21.0113 18.7207C21.0398 18.6704 21.0676 18.6204 21.0944 18.5708C21.1049 18.5511 21.1148 18.532 21.125 18.5126C21.1454 18.4739 21.1654 18.4357 21.1843 18.3979C21.1931 18.3803 21.202 18.3627 21.2105 18.3452L21.2183 18.3286C21.2419 18.281 21.2645 18.2336 21.2864 18.1871L21.2904 18.1771C21.3726 18.1005 21.4364 18.0277 21.4877 17.9579C21.495 17.9481 21.5028 17.9381 21.5096 17.9282C21.6234 17.764 21.6606 17.6188 21.6627 17.4885Z" fill="#856249"/>
<path d="M6.41822 15.6437C6.41595 15.632 6.41396 15.6205 6.41197 15.6091L6.41396 15.6083C6.38412 15.444 6.36148 15.2754 6.34528 15.1031C6.34424 15.0908 6.34254 15.0789 6.34121 15.0667C6.31279 15.0756 6.28078 15.1132 6.24857 15.1645C6.23654 15.1838 6.2247 15.2048 6.21286 15.227C6.12666 15.3889 6.04899 15.6136 6.04899 15.6136C6.05505 15.5386 6.06329 15.4607 6.07248 15.3825C6.07352 15.3734 6.07485 15.3645 6.07598 15.3553C6.08555 15.2757 6.09663 15.1953 6.10847 15.1155C6.1098 15.1058 6.11132 15.0962 6.11274 15.0868C6.12657 14.9968 6.14115 14.9074 6.15631 14.8211C6.1583 14.8098 6.1601 14.7989 6.16218 14.7878L6.16332 14.7821C6.16512 14.7722 6.16682 14.7621 6.16862 14.7521C6.17118 14.7372 6.17383 14.7224 6.17658 14.7077C6.18899 14.6393 6.20178 14.5732 6.21419 14.5105C6.22546 14.4538 6.23635 14.4002 6.24687 14.3497L6.25018 14.3334C6.2517 14.3255 6.2534 14.3183 6.25501 14.3107C6.25662 14.3033 6.25814 14.2956 6.25965 14.288L6.26022 14.2853C6.26297 14.2727 6.26581 14.2597 6.26837 14.2478L6.26913 14.2445C6.27149 14.2326 6.27377 14.2226 6.27613 14.2115C6.28002 14.1942 6.28371 14.1764 6.28731 14.1602L6.28835 14.1556C6.29129 14.1425 6.29404 14.1291 6.29678 14.1171C6.30076 14.0998 6.30446 14.0838 6.30758 14.0688L6.30777 14.0683L6.30796 14.0679C6.30986 14.0593 6.31166 14.0518 6.31346 14.0439L6.31383 14.0424C6.31554 14.0352 6.31706 14.0277 6.31867 14.0213C6.32236 14.0054 6.32568 13.991 6.32833 13.9799L6.3307 13.9701L6.33164 13.9665L6.33439 13.9548L6.33628 13.9468L6.33666 13.9456L6.33534 13.9467L6.31791 13.9625C6.30256 13.9761 6.28684 13.9895 6.27244 14.0046L6.25662 14.0221C6.23967 14.041 6.22318 14.0609 6.20784 14.082L6.19969 14.0923C6.18065 14.1188 6.16294 14.1466 6.14608 14.175V14.1751L6.1439 14.1788L6.14381 14.1789L6.13699 14.1915C6.1331 14.1985 6.12941 14.2056 6.12571 14.2126C6.11596 14.2303 6.10592 14.2475 6.0972 14.2654L6.09673 14.2661L6.09644 14.2667L6.09597 14.2682L6.09256 14.2749L6.08943 14.2816C6.07579 14.3099 6.06338 14.3381 6.05173 14.3658C6.01877 14.4439 5.99329 14.5182 5.97416 14.5804C5.96752 14.6025 5.96127 14.6234 5.95625 14.6419C5.94517 14.6819 5.9374 14.7133 5.9339 14.7286L5.93371 14.7299L5.93125 14.7403L5.93219 14.7282C5.93352 14.7044 5.93627 14.6807 5.93816 14.657C5.94185 14.6072 5.94498 14.5572 5.95047 14.5077C5.95483 14.466 5.96127 14.4253 5.96715 14.3839C5.96904 14.371 5.97103 14.3581 5.97292 14.3453C5.97548 14.3262 5.97813 14.3072 5.98126 14.2883C5.98401 14.2705 5.98789 14.2531 5.99121 14.2358L5.99139 14.2345V14.2344L5.99509 14.2149L5.99623 14.2096C6.00011 14.1884 6.00418 14.1668 6.00826 14.1456C6.00968 14.1374 6.01119 14.1291 6.0129 14.1209L6.01583 14.1062L6.0164 14.1034C6.01782 14.0965 6.01934 14.0894 6.02085 14.0826C6.02256 14.0739 6.02493 14.0655 6.02673 14.0572C6.03374 14.0261 6.04131 13.9955 6.04861 13.9647L6.04984 13.9596C6.05524 13.9366 6.06026 13.9136 6.06613 13.8911L6.06632 13.89L6.06689 13.8885L6.06869 13.8819C6.08072 13.8355 6.09408 13.7901 6.10743 13.7443L6.11444 13.7192C6.117 13.7107 6.11918 13.7018 6.12183 13.6933C6.1439 13.6191 6.16749 13.5459 6.19259 13.4743L6.19581 13.4653C6.21731 13.4045 6.2391 13.3446 6.26193 13.2856L6.26448 13.2789C6.27481 13.2529 6.28542 13.228 6.29555 13.2023L6.29726 13.1986C6.31279 13.1603 6.32814 13.1218 6.34405 13.0848L6.34415 13.0844V13.0842L6.34443 13.0837L6.34623 13.0791C6.35049 13.0698 6.36034 13.0473 6.37569 13.0141L6.37597 13.0136L6.37806 13.0091V13.009C6.38403 12.9959 6.38971 12.9832 6.39549 12.97C6.40486 12.9489 6.41434 12.928 6.42362 12.9073L6.43205 12.8891L6.43224 12.8882L6.59393 12.5977C6.60066 12.5854 6.60729 12.5733 6.61373 12.5611L6.61714 12.5552L6.62538 12.5402C6.643 12.508 6.66071 12.4756 6.67795 12.4442C6.70391 12.3974 6.72882 12.3527 6.75203 12.3107C6.79948 12.2253 6.84012 12.1528 6.86484 12.1091C6.87848 12.0849 6.88748 12.0689 6.89013 12.0639L6.89127 12.0618H6.89108L6.89051 12.0613L6.889 12.0602C6.88275 12.0559 6.83368 12.0221 6.75288 11.9731C6.66071 11.9176 6.52677 11.8423 6.36385 11.7667C6.31166 11.7424 6.25672 11.7183 6.19912 11.6947C6.13017 11.6664 6.0578 11.6389 5.98249 11.6136C5.96307 11.6072 5.94271 11.602 5.9231 11.5958C5.86001 11.5759 5.79532 11.5581 5.7291 11.5423L5.72532 11.5415C5.67985 11.5306 5.63467 11.5192 5.58806 11.5106C5.5515 11.5037 5.51484 11.4968 5.47761 11.4917C5.4599 11.4893 5.44152 11.4878 5.42362 11.4862C5.40581 11.4844 5.38819 11.4826 5.37048 11.4808C5.32037 11.4764 5.27007 11.4741 5.21977 11.4729C5.19534 11.4723 5.1709 11.4715 5.14646 11.4721C5.03696 11.4746 4.92945 11.4842 4.82383 11.4993L4.8046 11.5022C4.61421 11.5307 4.43054 11.5787 4.25568 11.6447C4.19628 11.6671 4.13775 11.6912 4.08025 11.7175C4.06396 11.7251 4.04776 11.7331 4.03156 11.741C4.01186 11.7506 3.99187 11.76 3.97245 11.7699C3.79892 11.8593 3.63685 11.9673 3.48803 12.0905L3.48273 12.0949C3.35428 12.2014 3.23635 12.3194 3.12988 12.4477C3.09938 12.4842 3.06992 12.5217 3.04151 12.5598C3.00778 12.6049 2.97529 12.651 2.94432 12.6981C2.88606 12.7873 2.83292 12.88 2.78518 12.9761C2.76842 13.0099 2.75194 13.0439 2.73659 13.0783C2.73375 13.0848 2.73119 13.0916 2.72844 13.0981C2.63022 13.3229 2.56135 13.5635 2.52735 13.8146C2.52062 13.8639 2.51513 13.9135 2.51105 13.9637L2.50963 13.9825C2.5067 14.0222 2.50471 14.0621 2.50348 14.1021C2.50196 14.1512 2.50168 14.2006 2.50291 14.2502C2.5031 14.2582 2.50385 14.2658 2.50404 14.2737C2.50528 14.3122 2.50679 14.3505 2.50963 14.3887L2.51181 14.4087C2.51257 14.4176 2.51342 14.4265 2.51418 14.4352C2.51674 14.4654 2.51958 14.4953 2.52308 14.5248L2.52431 14.5316V14.5335L2.5245 14.5338C2.52659 14.5486 2.52915 14.5636 2.53123 14.5786C2.53511 14.6054 2.53881 14.6324 2.54326 14.6589C2.54676 14.6782 2.55103 14.6972 2.55472 14.7163C2.55974 14.741 2.5641 14.7661 2.56988 14.7907C2.57442 14.8109 2.57982 14.8307 2.58484 14.8504L2.58816 14.8644L2.59356 14.8851L2.59763 14.9009L2.60265 14.9201C2.60833 14.9406 2.61506 14.9612 2.62112 14.9816C2.62775 15.0032 2.63419 15.0252 2.6413 15.0464C2.64812 15.0674 2.65589 15.0881 2.66346 15.1089L2.66962 15.1256C2.67474 15.1405 2.67995 15.1555 2.68591 15.1704C2.69406 15.1914 2.70306 15.2124 2.71177 15.2335C2.71982 15.2526 2.72769 15.272 2.73602 15.291C2.74085 15.3019 2.74597 15.3125 2.75099 15.3229C2.7562 15.3334 2.76084 15.3441 2.76577 15.3547C2.77429 15.3728 2.78282 15.3907 2.79191 15.4087C2.8028 15.4303 2.81426 15.4517 2.82573 15.4729C2.83482 15.4896 2.84353 15.5064 2.85272 15.523C2.86494 15.5448 2.87811 15.5663 2.89109 15.588C2.90027 15.603 2.90918 15.6184 2.91865 15.6337C2.93248 15.6557 2.94688 15.677 2.96146 15.6985C2.97084 15.7128 2.98022 15.7269 2.98979 15.7407C3.00513 15.7626 3.02105 15.7842 3.03705 15.8059C3.04643 15.8187 3.0559 15.8315 3.06547 15.844C3.08233 15.8663 3.09995 15.8879 3.11766 15.9094C3.12676 15.9208 3.13604 15.9324 3.1458 15.9436C3.16427 15.9655 3.1834 15.987 3.20282 16.0085C3.21182 16.0187 3.22091 16.0287 3.23039 16.0388C3.25047 16.0608 3.27121 16.0823 3.29233 16.1032C3.30143 16.1121 3.31005 16.1212 3.31914 16.1301C3.34102 16.1515 3.36376 16.1727 3.38621 16.1935C3.39483 16.2012 3.40335 16.209 3.41188 16.2168C3.43556 16.2379 3.45971 16.2586 3.48434 16.279C3.49249 16.2857 3.50025 16.2925 3.5084 16.299C3.53398 16.32 3.56002 16.34 3.58626 16.36C3.59375 16.3654 3.60151 16.3713 3.60881 16.3769C3.63628 16.3969 3.66384 16.4164 3.69188 16.4355L3.71272 16.4498C3.7417 16.4692 3.77116 16.4882 3.80091 16.5064L3.81985 16.5179C3.85064 16.5367 3.88209 16.5542 3.91372 16.5719L3.93002 16.5809C3.96279 16.5987 3.99594 16.6154 4.02919 16.6319L4.04349 16.6386C4.07788 16.6553 4.11245 16.671 4.1476 16.6863L4.16 16.6917C4.196 16.7067 4.23228 16.721 4.26875 16.735L4.27898 16.7387C4.31668 16.7524 4.35428 16.7656 4.39274 16.7779L4.40051 16.7804C4.41917 16.7862 4.4383 16.7912 4.45715 16.7967C4.47771 16.8027 4.49817 16.8091 4.51891 16.8147L4.52469 16.8163C4.56533 16.8269 4.60625 16.8366 4.64755 16.8454L4.65105 16.8465C4.65124 16.8466 4.65162 16.8466 4.65172 16.8466C4.69339 16.8555 4.73555 16.8634 4.77798 16.87L4.77997 16.8707C4.91022 16.8916 5.04359 16.9034 5.17933 16.905C5.21163 16.9056 5.24393 16.9059 5.27632 16.9056C5.3198 16.9045 5.36442 16.9017 5.40922 16.898C5.47032 16.8931 5.53217 16.8858 5.59469 16.8764C5.64973 16.8682 5.70448 16.8586 5.75923 16.8471C5.84448 16.8296 5.92869 16.8088 6.00987 16.7852C6.2534 16.7144 6.46852 16.6201 6.59715 16.5241C6.59715 16.5241 6.51257 16.1494 6.44095 15.7687C6.43319 15.7268 6.42551 15.685 6.41822 15.6437Z" fill="#856249"/>
<path d="M17.5116 6.6411L17.512 6.64129L17.511 6.64054L17.5116 6.6411Z" fill="#856249"/>
<path d="M12.498 1.56817L12.467 1.18861L12.657 0.768039L12.7321 0.751178C12.6077 0.693397 12.4598 0.652192 12.2887 0.630879C11.9458 0.587685 11.5106 0.627374 11.0147 0.755535C10.5188 0.882844 9.9628 1.09692 9.37315 1.39056C8.19374 1.97747 6.88077 2.88199 5.61735 4.03459C5.1765 4.4366 4.7654 4.84732 4.38746 5.25927C4.02031 5.65891 3.6846 6.05988 3.38338 6.45526C2.77166 7.25813 2.30277 8.03904 2.00335 8.73564C1.80339 9.19978 1.67968 9.62623 1.6345 9.9912C1.60115 10.2565 1.60987 10.4886 1.65429 10.6803C1.66869 10.7424 1.68773 10.7987 1.70923 10.8526C1.75394 10.9659 1.81267 11.0636 1.88855 11.1472L2.65297 11.948L2.7349 12.0337L2.7403 12.028C2.76361 12.001 2.78748 11.9741 2.81172 11.9477L2.81817 11.9407C2.82698 11.9312 2.83616 11.9223 2.84497 11.9132C2.8679 11.8893 2.8911 11.8653 2.91478 11.8419C2.92947 11.8274 2.94434 11.8135 2.9593 11.7994C2.97389 11.7856 2.98801 11.7714 3.00278 11.7579C3.00951 11.7518 3.01633 11.7462 3.02315 11.7402C3.03868 11.7261 3.05479 11.7122 3.07089 11.6983C3.09324 11.679 3.11569 11.6599 3.13881 11.641C3.15226 11.63 3.1658 11.6191 3.17944 11.6082L3.18541 11.6036C3.20966 11.5845 3.23429 11.5659 3.25882 11.5475C3.27436 11.5359 3.28999 11.5245 3.30571 11.5131C3.33119 11.495 3.35724 11.477 3.38338 11.4594C3.39911 11.4489 3.41464 11.4384 3.43056 11.4281C3.45736 11.4106 3.48474 11.3937 3.51211 11.377C3.52812 11.3673 3.54356 11.3577 3.55947 11.3485C3.58818 11.3316 3.61726 11.3157 3.64624 11.2998C3.66178 11.2915 3.67703 11.2828 3.69256 11.2746L3.70999 11.2654L3.71103 11.2623C3.89404 10.7556 4.16817 10.2056 4.52357 9.63248C4.96016 8.92859 5.51798 8.19031 6.18029 7.45507C6.59679 6.99253 7.05412 6.53122 7.54792 6.08072C8.18673 5.49845 8.83796 4.97889 9.48028 4.52876C9.91298 4.22546 10.3411 3.9554 10.7591 3.7185C10.7986 3.69605 10.8384 3.67274 10.8778 3.65105C10.9892 3.58939 11.0995 3.53085 11.2092 3.47439C11.4479 3.35097 11.6824 3.239 11.9111 3.14011L11.799 3.00551L11.7805 2.98334L10.8522 1.86702L10.8594 1.18691L10.8506 1.17706L11.4085 1.01072L12.498 1.56817Z" fill="#3478AD"/>
<path d="M21.6627 17.4885L21.663 17.4884C21.663 17.4884 21.6823 17.3441 21.6061 17.2151L21.6044 17.2116C21.5999 17.2038 21.5952 17.1969 21.5903 17.19L21.5853 17.1825C21.577 17.1713 21.5668 17.1605 21.5564 17.1496C21.5378 17.13 21.516 17.1116 21.49 17.0952C21.4766 17.0863 21.4619 17.0782 21.4462 17.0704C21.4029 17.0497 21.3511 17.034 21.2895 17.025C21.2445 17.0185 21.1931 17.0166 21.1371 17.0183C21.1144 17.019 21.0921 17.0195 21.0676 17.0218L21.0566 17.0225C21.0566 17.0225 21.0583 17.0284 21.0606 17.0373C21.0632 17.0467 21.0667 17.0602 21.0715 17.0782C21.0732 17.0852 21.075 17.0925 21.0771 17.1005C21.0851 17.1324 21.0946 17.173 21.1044 17.2188C21.1043 17.2192 21.1016 17.2281 21.0944 17.2449L21.0906 17.2538C21.0625 17.3189 20.9863 17.4695 20.8164 17.6652C20.7875 17.6985 20.7555 17.7334 20.7211 17.7692C20.2473 18.2587 19.222 18.9558 17.0646 19.3457C16.3326 19.449 15.6577 19.4547 15.0812 19.383C14.2288 19.277 13.5901 19.0046 13.2929 18.6384C13.2671 18.607 13.2436 18.5746 13.2211 18.5419C13.2045 18.5178 13.1885 18.4933 13.1737 18.4686C13.1684 18.4595 13.1636 18.4502 13.1584 18.4411C13.0307 18.2154 12.9751 17.9693 12.9782 17.731C12.9823 17.4416 13.0726 17.1647 13.2254 16.9519C13.3494 16.7793 13.5142 16.6489 13.7069 16.5886C13.8015 16.5592 13.9025 16.5459 14.0087 16.5531C14.0301 16.5546 14.0585 16.5576 14.0938 16.562C14.1646 16.5709 14.2636 16.5848 14.3851 16.6005C14.3987 16.6022 14.4113 16.6038 14.4255 16.6056C14.8304 16.6559 15.4751 16.7167 16.2547 16.6691C17.6731 16.5827 19.54 16.1364 21.2353 14.6078L21.2399 14.6018V14.5991C21.2456 14.4711 21.2285 14.2398 21.0667 14.06C21.0385 14.0285 21.0055 13.9988 20.968 13.9712C20.9465 13.9555 20.9242 13.9404 20.8994 13.9264C20.8745 13.9126 20.8518 13.8987 20.8298 13.8846C20.7998 13.8658 20.7714 13.847 20.7463 13.8284L20.7426 13.823C20.7312 13.8051 20.719 13.7876 20.7073 13.7697C20.2675 13.1037 19.6618 12.7172 19.4202 12.54C19.3063 12.4563 19.2337 12.4181 19.2337 12.4181C18.7106 12.0995 18.6339 11.9938 18.6828 11.1284C18.7003 10.8167 18.734 10.4071 18.7688 9.85186C18.7734 9.77959 18.7756 9.71101 18.7768 9.64356C18.7771 9.62746 18.7775 9.61174 18.7775 9.59592C18.778 9.53217 18.7773 9.46994 18.7749 9.41017L18.7743 9.39302L18.7729 9.37464C18.7702 9.32766 18.7669 9.282 18.763 9.23758C18.7612 9.21807 18.7593 9.19846 18.7573 9.17923C18.7521 9.13177 18.7462 9.08564 18.7388 9.04112C18.7351 9.01839 18.7306 8.99651 18.7265 8.97434C18.7218 8.94943 18.7168 8.92508 18.7116 8.90121C18.7065 8.87772 18.7013 8.85404 18.6955 8.8314L18.6953 8.83131L18.6955 8.83102V8.83131C18.6885 8.80336 18.6803 8.77694 18.6726 8.75051C18.6698 8.74085 18.6675 8.73081 18.6644 8.72143C18.6615 8.71252 18.6583 8.70438 18.6555 8.69547L18.6526 8.68666L18.6437 8.66128L18.6434 8.65957C18.6361 8.63911 18.6285 8.61922 18.6211 8.5998L18.6188 8.59336L18.6112 8.57499L18.6021 8.55235L18.6 8.54799V8.54742C18.5843 8.51076 18.5679 8.47515 18.5505 8.4418L18.5366 8.41718C18.5168 8.3845 18.4965 8.35381 18.4757 8.32416L18.4674 8.31175L18.4571 8.29801C18.4422 8.27765 18.4272 8.25766 18.4123 8.239L18.3918 8.21333C18.3717 8.18955 18.3517 8.16654 18.3315 8.14503L18.3315 8.14484C18.3067 8.1188 18.282 8.09417 18.2568 8.07143C18.228 8.05353 18.1997 8.03743 18.1712 8.02322C18.1619 8.01839 18.1525 8.01479 18.143 8.01062C18.1244 8.00191 18.1053 7.99338 18.0865 7.98637C18.0755 7.9822 18.0648 7.97889 18.0539 7.97519C18.0371 7.96979 18.0198 7.9643 18.0029 7.95985C17.9918 7.9571 17.9803 7.95473 17.9691 7.95246C17.9526 7.94896 17.9363 7.94602 17.9198 7.94365C17.9085 7.94214 17.8974 7.94081 17.8861 7.93986C17.8698 7.93825 17.8534 7.93749 17.8371 7.93683C17.826 7.93655 17.815 7.93626 17.8043 7.93655C17.7875 7.93683 17.7709 7.93768 17.7542 7.93901C17.744 7.93977 17.7337 7.94062 17.7235 7.94176L17.7011 7.94507C17.6909 7.94687 17.6807 7.94801 17.6702 7.95C17.6613 7.95151 17.6523 7.95303 17.6434 7.95483C17.6226 7.95919 17.6021 7.96449 17.5816 7.97036L17.5636 7.975C17.5096 7.99111 17.4557 8.01176 17.4025 8.03601L17.3847 8.04444C17.3639 8.054 17.3431 8.06404 17.3224 8.07465L17.2985 8.08754C17.2796 8.09729 17.2608 8.10771 17.2421 8.11823L17.2166 8.13319C17.1981 8.1439 17.1795 8.15489 17.161 8.16635L17.1358 8.18188C17.1166 8.19391 17.0972 8.20632 17.0778 8.21892L17.0564 8.23294C17.0345 8.24724 17.0125 8.26183 16.9906 8.2767L16.9776 8.28551C16.9529 8.30228 16.9279 8.31952 16.9029 8.33675L16.9021 8.33751L16.8982 8.33988H16.8985C16.8519 8.3719 16.8054 8.40467 16.7583 8.43735C16.7189 8.46482 16.6787 8.49229 16.6384 8.51957L16.6189 8.53293C16.5783 8.56021 16.5372 8.58683 16.496 8.61335L16.4752 8.62633C16.4338 8.65209 16.3922 8.67719 16.3502 8.70106L16.3281 8.71328C16.286 8.73706 16.2431 8.75922 16.1998 8.78044L16.1782 8.79058C16.1344 8.81142 16.0897 8.83083 16.0445 8.84788L16.0259 8.85499C15.9793 8.87204 15.9319 8.88767 15.8838 8.90036L15.8712 8.9033C15.8203 8.91637 15.7695 8.92688 15.7172 8.93399C15.6294 8.94583 15.5416 8.94971 15.4535 8.95009C15.3099 8.95075 15.1658 8.9391 15.021 8.9176C14.9728 8.91031 14.9241 8.90178 14.8756 8.89288C14.8584 8.88966 14.8413 8.88701 14.8242 8.88369C14.698 8.85916 14.5711 8.82989 14.4433 8.7991C14.3896 8.78631 14.336 8.77334 14.2821 8.76027C14.1955 8.73914 14.1081 8.71878 14.0206 8.69879C14.0032 8.69481 13.9865 8.69045 13.9689 8.68666L13.9698 8.68657C13.9575 8.68392 13.9451 8.68136 13.9327 8.6788C13.9133 8.67454 13.8938 8.67037 13.8746 8.66601C13.856 8.66232 13.8374 8.65863 13.8189 8.65493L13.8092 8.65294L13.8028 8.65171C13.7858 8.6483 13.7688 8.64489 13.7517 8.64158C13.712 8.63409 13.672 8.62699 13.632 8.62036C13.6202 8.61827 13.6082 8.61676 13.5965 8.61496C13.5668 8.61032 13.5371 8.60577 13.5075 8.60179C13.4926 8.59961 13.4773 8.59819 13.4626 8.59639L13.4592 8.59601C13.4334 8.5927 13.4074 8.58967 13.3816 8.58711C13.3643 8.58541 13.3469 8.58398 13.3299 8.58237C13.3222 8.58181 13.3144 8.58133 13.3065 8.58067C13.2888 8.57934 13.2709 8.57792 13.2531 8.57688C13.2362 8.57574 13.2191 8.5748 13.2019 8.57404C13.1745 8.5729 13.1477 8.57224 13.1207 8.57176C13.1126 8.57167 13.1044 8.57158 13.0963 8.57139C13.0889 8.57129 13.0811 8.57101 13.0735 8.57101C13.04 8.5711 13.006 8.57176 12.9719 8.57328C12.9631 8.57356 12.9538 8.57347 12.9448 8.57413C12.9016 8.57593 12.8582 8.57934 12.8146 8.58389C12.8034 8.58503 12.7921 8.58673 12.7806 8.58787C12.7525 8.59118 12.7243 8.59497 12.696 8.59933L12.6834 8.60113C12.6679 8.6034 12.6522 8.60634 12.6368 8.60909C12.6079 8.61439 12.5792 8.61998 12.5501 8.62623C12.5333 8.63002 12.5166 8.63362 12.5 8.63788C12.4714 8.6447 12.4425 8.65237 12.4136 8.66052C12.3972 8.66507 12.3808 8.66961 12.3642 8.67473C12.3331 8.6842 12.302 8.69481 12.2707 8.70589C12.2565 8.71082 12.2424 8.71527 12.2282 8.72086C12.1825 8.73763 12.1372 8.756 12.0911 8.77646C11.7317 8.98343 11.4229 9.2659 11.1773 9.59545C11.0956 9.70514 11.0208 9.82022 10.9535 9.93939C10.8823 10.0656 10.8205 10.1966 10.7668 10.3308C10.7511 10.37 10.7361 10.4092 10.7219 10.449C10.6984 10.516 10.676 10.5835 10.6569 10.6518C10.6549 10.6591 10.6533 10.6666 10.6513 10.674C10.6303 10.751 10.6121 10.8287 10.5972 10.9071C10.5812 10.9889 10.5691 11.0712 10.56 11.1539C10.5551 11.1986 10.5506 11.2433 10.5476 11.2881C10.5399 11.4085 10.5407 11.5294 10.548 11.65C10.5485 11.6609 10.5494 11.672 10.5502 11.6828C10.5523 11.7137 10.5533 11.7443 10.5566 11.7751C10.5655 11.861 10.5777 11.9468 10.595 12.0319C10.601 12.0634 10.6096 12.093 10.6171 12.1233C10.6243 12.1523 10.6307 12.1823 10.6385 12.2106V12.2104C10.6984 12.4279 10.7852 12.6238 10.888 12.8018C11.2796 13.4785 11.9237 13.8831 12.3903 14.1003C12.5718 14.1804 12.7612 14.2519 12.9581 14.3147C12.9581 14.3147 12.9488 14.3205 12.9344 14.3302C12.8996 14.3389 12.8589 14.3497 12.8138 14.3625C12.7455 14.3817 12.6667 14.4057 12.5797 14.435C12.4821 14.4678 12.3744 14.5074 12.2608 14.5544C11.9579 14.6799 11.6141 14.8584 11.3095 15.1049C11.2713 15.1357 11.2339 15.1675 11.1971 15.2003C11.1346 15.2566 11.075 15.3166 11.0177 15.3794C11.0112 15.3865 11.0042 15.3933 10.9979 15.4005C10.9892 15.4102 10.9807 15.4202 10.9722 15.43C10.9506 15.4552 10.9292 15.4811 10.9083 15.5074C10.9 15.518 10.8918 15.5286 10.8834 15.5392C10.856 15.5754 10.8293 15.612 10.804 15.6501C10.7792 15.6874 10.7553 15.726 10.7328 15.7651C10.5523 16.0802 10.4499 16.4575 10.4813 16.9075L10.4823 16.9028L10.4828 16.8995C10.4836 16.8954 10.4847 16.8897 10.4861 16.8827L10.4871 16.879C10.4884 16.8722 10.4904 16.8642 10.4925 16.8553L10.4937 16.8497C10.4962 16.8394 10.4991 16.8277 10.5024 16.8149L10.5047 16.8066C10.5084 16.7929 10.5125 16.7782 10.517 16.7622L10.5172 16.7621C10.5217 16.7463 10.5273 16.7294 10.5327 16.7119L10.5363 16.7012C10.5422 16.6833 10.5487 16.6647 10.5558 16.6455L10.5595 16.6363C10.566 16.6181 10.5733 16.5994 10.5812 16.5802L10.5849 16.5713C10.5935 16.5505 10.6029 16.5291 10.6127 16.5073L10.619 16.4938C10.6296 16.4715 10.6403 16.449 10.6523 16.4262V16.4261C10.6528 16.4251 10.6533 16.4243 10.6538 16.4234C10.6716 16.3893 10.6917 16.3546 10.7131 16.3196C10.7212 16.3063 10.7289 16.2932 10.7378 16.2799L10.7446 16.2688L10.7448 16.2685C10.7631 16.2412 10.7823 16.2138 10.8031 16.1867C10.82 16.1645 10.8379 16.1426 10.8563 16.1207C10.8621 16.1139 10.8684 16.107 10.8745 16.1002C10.8893 16.0836 10.9046 16.0671 10.9205 16.0508C10.9271 16.0442 10.9335 16.0375 10.9401 16.0311C10.9618 16.0098 10.9842 15.9889 11.0079 15.9687L11.0099 15.9669C11.0099 15.9669 10.6001 16.894 10.7783 17.6292C10.7783 17.6292 10.7781 17.6269 10.7781 17.623V17.6185C10.7779 17.6144 10.7779 17.6096 10.7779 17.6034C10.7779 17.6022 10.7779 17.6007 10.7778 17.5994C10.7779 17.5918 10.7779 17.5831 10.7783 17.5727C10.7783 17.5714 10.7783 17.5701 10.7785 17.5686C10.7785 17.5577 10.7792 17.5456 10.7798 17.5321C10.7798 17.5308 10.78 17.5294 10.78 17.5282C10.7807 17.5143 10.7816 17.499 10.7828 17.4828C10.7828 17.4813 10.7829 17.4801 10.7831 17.4787C10.7844 17.4622 10.7859 17.4447 10.7879 17.4263C10.7881 17.4248 10.7883 17.4233 10.7885 17.4217C10.7903 17.4032 10.793 17.3841 10.7957 17.3639C10.7959 17.3621 10.7963 17.3603 10.7965 17.3585C10.7996 17.3372 10.8031 17.3151 10.8074 17.2922L10.8083 17.2868L10.8105 17.2754V17.2749C10.8155 17.2492 10.8215 17.223 10.8283 17.1964C10.8288 17.1947 10.8291 17.1929 10.8295 17.1911C10.8365 17.1651 10.844 17.1389 10.8523 17.1124C10.855 17.1043 10.8575 17.0963 10.8601 17.0882L10.8658 17.0713V17.071C10.8736 17.0494 10.8821 17.0277 10.8913 17.0061L10.8927 17.0026L10.8928 17.0024C10.9056 16.9722 10.9205 16.9429 10.9365 16.9138C10.9405 16.9061 10.9451 16.8985 10.9495 16.891C10.9665 16.8623 10.9843 16.8341 11.0046 16.8075L11.0054 16.8062H11.0055C11.0055 16.8062 10.982 17.0345 10.9881 17.3062C10.9892 17.3489 10.9912 17.3928 10.994 17.4371C10.9957 17.4665 10.9976 17.4962 11.0003 17.5257C11.0184 17.2338 11.0717 16.9596 11.1494 16.7038C11.0717 16.9597 11.0184 17.2339 11.0004 17.526V17.5261C10.9887 17.7124 10.9912 17.9058 11.0104 18.1061C11.043 18.4401 11.1224 18.7935 11.2622 19.1655C11.2622 19.1655 11.1341 18.7377 11.3187 18.3098C11.3353 18.3488 11.3532 18.388 11.3718 18.4275C11.387 18.5544 11.4125 18.7347 11.4499 18.9331C11.4856 19.2638 11.6438 20.2558 12.3177 20.9536C12.3177 20.9536 12.063 20.6231 12.1026 20.1928C12.1292 20.2493 12.1556 20.3003 12.1807 20.3442C12.2959 20.56 12.5253 20.9619 12.7752 21.2405C12.7752 21.2405 12.5724 20.8477 12.6197 20.763C12.6197 20.763 13.2811 21.5854 13.4914 21.6656L13.2149 21.207L13.2086 21.1935C14.1697 21.8904 15.4882 22.1491 17.1191 21.695C17.3994 21.6167 17.6888 21.5177 17.9874 21.3959C18.1706 21.3167 18.3519 21.2296 18.5314 21.1331L18.5575 21.1186C18.6831 21.0499 18.8076 20.9762 18.9312 20.8985L18.934 20.8968C19.0268 20.8383 19.1188 20.7771 19.2098 20.7137C19.3622 20.6062 19.5132 20.4931 19.6603 20.3702L19.6607 20.37L19.6613 20.3695C19.6697 20.362 19.6784 20.3547 19.6873 20.3473C19.8331 20.2199 19.9696 20.0889 20.0963 19.9555C20.2638 19.7793 20.4142 19.5993 20.5504 19.4188L20.5604 19.4058C20.5936 19.3613 20.6262 19.3169 20.6579 19.2731L20.6668 19.2602C20.6771 19.2451 20.6862 19.2308 20.6964 19.216C20.7404 19.1527 20.7839 19.0893 20.8246 19.0264C20.8343 19.0114 20.8444 18.996 20.8541 18.9809C20.8753 18.9475 20.8956 18.9142 20.916 18.8813C20.9313 18.8555 20.9471 18.8297 20.9619 18.8041C20.9785 18.7763 20.9952 18.7483 21.0113 18.7207C21.0398 18.6704 21.0676 18.6204 21.0944 18.5708C21.1049 18.5511 21.1148 18.532 21.125 18.5126C21.1454 18.4739 21.1654 18.4357 21.1842 18.3979C21.1931 18.3803 21.202 18.3627 21.2105 18.3452L21.2183 18.3286C21.2419 18.281 21.2645 18.2336 21.2864 18.1871L21.2904 18.1771C21.3726 18.1005 21.4364 18.0277 21.4876 17.9579C21.495 17.9481 21.5028 17.9381 21.5096 17.9282C21.6234 17.764 21.6606 17.6188 21.6627 17.4885Z" fill="#FCE9C9"/>
<path d="M6.34122 15.0667C6.3128 15.0756 6.28079 15.1132 6.24858 15.1645C6.23655 15.1838 6.22471 15.2048 6.21287 15.227C6.12667 15.3889 6.049 15.6136 6.049 15.6136C6.05506 15.5386 6.0633 15.4607 6.07249 15.3825C6.07353 15.3734 6.07486 15.3645 6.07599 15.3553C6.08556 15.2757 6.09664 15.1953 6.10849 15.1155C6.10981 15.1058 6.11133 15.0962 6.11275 15.0868C6.12658 14.9968 6.14116 14.9074 6.15632 14.8211C6.15831 14.8098 6.16011 14.7989 6.16219 14.7878L6.16333 14.7821C6.16513 14.7722 6.16684 14.7621 6.16863 14.7521C6.17119 14.7372 6.17384 14.7224 6.17659 14.7077C6.189 14.6393 6.20179 14.5732 6.2142 14.5105C6.22547 14.4538 6.23636 14.4002 6.24688 14.3497L6.25019 14.3334C6.25171 14.3255 6.25341 14.3183 6.25502 14.3107C6.25663 14.3033 6.25815 14.2956 6.25966 14.288L6.26023 14.2853C6.26298 14.2727 6.26582 14.2597 6.26838 14.2478L6.26914 14.2445C6.2715 14.2326 6.27378 14.2226 6.27615 14.2115C6.28003 14.1942 6.28372 14.1764 6.28732 14.1602L6.28837 14.1556C6.2913 14.1425 6.29405 14.1291 6.2968 14.1171C6.30077 14.0998 6.30447 14.0838 6.30759 14.0688L6.30778 14.0683L6.30797 14.0679C6.30987 14.0593 6.31167 14.0518 6.31347 14.0439L6.31385 14.0424C6.31555 14.0352 6.31707 14.0277 6.31868 14.0213C6.32237 14.0054 6.32569 13.991 6.32834 13.9799L6.33071 13.9701L6.33165 13.9665L6.3344 13.9548L6.3363 13.9468L6.33667 13.9456L6.33535 13.9467L6.31792 13.9625C6.30257 13.9761 6.28685 13.9895 6.27245 14.0046L6.25663 14.0221C6.23968 14.041 6.2232 14.0609 6.20785 14.082L6.1997 14.0923C6.18066 14.1188 6.16295 14.1466 6.14609 14.175V14.1751L6.14391 14.1787L6.14382 14.1789L6.137 14.1915C6.13311 14.1985 6.12942 14.2056 6.12572 14.2126C6.11597 14.2303 6.10593 14.2475 6.09721 14.2654L6.09674 14.2661L6.09646 14.2667L6.09598 14.2682L6.09257 14.2749L6.08945 14.2816C6.07581 14.3099 6.0634 14.3381 6.05175 14.3658C6.01878 14.4439 5.9933 14.5182 5.97417 14.5804C5.96754 14.6024 5.96128 14.6234 5.95626 14.6419C5.94518 14.6819 5.93741 14.7133 5.93391 14.7286L5.93372 14.7299L5.93126 14.7403L5.9322 14.7282C5.93353 14.7044 5.93628 14.6807 5.93817 14.657C5.94187 14.6072 5.94499 14.5572 5.95049 14.5077C5.95484 14.466 5.96128 14.4253 5.96716 14.3839C5.96905 14.371 5.97104 14.3581 5.97294 14.3453C5.97549 14.3262 5.97815 14.3072 5.98127 14.2883C5.98402 14.2705 5.9879 14.2531 5.99122 14.2358L5.99141 14.2344V14.2344L5.9951 14.2149L5.99624 14.2096C6.00012 14.1884 6.00419 14.1668 6.00827 14.1456C6.00969 14.1374 6.0112 14.1291 6.01291 14.1209L6.01585 14.1062L6.01641 14.1034C6.01783 14.0965 6.01935 14.0894 6.02087 14.0826C6.02257 14.0739 6.02494 14.0655 6.02674 14.0572C6.03375 14.0261 6.04133 13.9955 6.04862 13.9647L6.04985 13.9596C6.05525 13.9366 6.06027 13.9136 6.06614 13.8911L6.06633 13.89L6.0669 13.8885L6.0687 13.8819C6.08073 13.8355 6.09409 13.7901 6.10744 13.7443L6.11445 13.7192C6.11701 13.7107 6.11919 13.7018 6.12184 13.6933C6.14391 13.6191 6.1675 13.5459 6.1926 13.4743L6.19582 13.4653C6.21732 13.4045 6.23911 13.3446 6.26194 13.2856L6.2645 13.2789C6.27482 13.2529 6.28543 13.228 6.29556 13.2023L6.29727 13.1985C6.3128 13.1603 6.32815 13.1218 6.34406 13.0848L6.34416 13.0844V13.0842L6.34444 13.0837L6.34624 13.0791C6.3505 13.0698 6.36036 13.0473 6.3757 13.0141L6.37599 13.0136L6.37807 13.0091V13.009C6.38404 12.9959 6.38972 12.9832 6.3955 12.97C6.40488 12.9489 6.41435 12.928 6.42363 12.9073L6.43206 12.8891C6.4188 12.8819 6.40488 12.8754 6.39124 12.8686L6.38347 12.8647L6.36898 12.8574C6.28041 12.815 6.1872 12.781 6.09058 12.756L6.07524 12.7522C6.01329 12.7367 5.95001 12.7248 5.88541 12.7174C5.84799 12.7131 5.81048 12.7097 5.7724 12.7082C5.74077 12.7068 5.70913 12.7065 5.67711 12.7071C5.62899 12.7082 5.58163 12.7122 5.53503 12.7174C5.52016 12.7192 5.50576 12.7218 5.49136 12.7237C5.46825 12.7272 5.44542 12.7317 5.4225 12.7358C5.41359 12.7377 5.40421 12.7389 5.39531 12.7408C5.37921 12.7443 5.36329 12.7477 5.34738 12.7517C5.31612 12.7594 5.28562 12.768 5.25531 12.7776C5.24119 12.782 5.22717 12.7856 5.21344 12.7905C5.17242 12.8049 5.13207 12.8206 5.09267 12.8381C5.07694 12.8451 5.06236 12.8532 5.04701 12.8604C5.02901 12.8693 5.0112 12.8788 4.99349 12.8879L4.97521 12.8972C4.9557 12.908 4.93666 12.9196 4.91781 12.931C4.90028 12.9418 4.88257 12.9531 4.86561 12.9648C4.84477 12.9785 4.82441 12.9924 4.80461 13.007C4.79239 13.0164 4.78074 13.026 4.76852 13.0354C4.73632 13.0609 4.70572 13.0883 4.6756 13.1162C4.66006 13.1307 4.6451 13.1455 4.63023 13.1605C4.60389 13.1866 4.57813 13.2132 4.55407 13.2412L4.54185 13.2552C4.52916 13.2703 4.51731 13.2864 4.50547 13.3022L4.50358 13.3044L4.50206 13.3065C4.49401 13.3171 4.4853 13.3274 4.47744 13.3382L4.47431 13.3424L4.47118 13.3467L4.47099 13.3471L4.47081 13.3474C4.42221 13.4154 4.37959 13.4877 4.34264 13.563C4.33724 13.5738 4.33241 13.5849 4.3273 13.5959C4.31025 13.6328 4.29452 13.6705 4.28032 13.7089C4.27473 13.7242 4.26848 13.7389 4.26327 13.7544L4.26308 13.7546V13.7547L4.26289 13.755C4.24991 13.7941 4.23845 13.8337 4.22869 13.8746L4.225 13.8897L4.2214 13.909L4.22092 13.9107C4.2142 13.9402 4.20776 13.9698 4.20312 13.9998C4.20075 14.0146 4.19923 14.0297 4.19734 14.0446L4.19667 14.0489C4.19478 14.0648 4.19317 14.0809 4.19156 14.097C4.19014 14.109 4.18834 14.1213 4.18739 14.1336C4.18389 14.1809 4.18237 14.2287 4.18351 14.2771C4.18446 14.3145 4.18777 14.3512 4.19128 14.3881L4.19156 14.3902L4.19279 14.4073C4.19478 14.4277 4.19828 14.4478 4.20132 14.4679C4.21221 14.5414 4.22718 14.6132 4.2483 14.6826C4.26402 14.7355 4.28249 14.7871 4.30381 14.8374C4.34283 14.9298 4.39133 15.0169 4.44675 15.0987C4.56335 15.2714 4.7132 15.4193 4.88825 15.5322C4.98752 15.5961 5.09485 15.6481 5.20814 15.6879C5.31688 15.7263 5.43036 15.7543 5.54867 15.7673C5.57528 15.77 5.60219 15.772 5.62918 15.7739C5.66954 15.7766 5.70979 15.7783 5.7509 15.7774C5.78879 15.7766 5.82564 15.7719 5.86287 15.7683C5.88408 15.7663 5.90597 15.7661 5.92699 15.7632C5.98051 15.7557 6.03299 15.7448 6.08461 15.7319L6.09627 15.7294C6.11777 15.7238 6.13775 15.7159 6.15859 15.7095C6.22357 15.6897 6.28647 15.6658 6.34757 15.6377L6.36083 15.6318C6.37788 15.6245 6.3955 15.6175 6.41198 15.6091L6.41397 15.6083C6.38413 15.444 6.36149 15.2754 6.34529 15.1031C6.34425 15.0908 6.34255 15.0789 6.34122 15.0667Z" fill="#FCE9C9"/>
<path d="M12.7358 1.68989L12.7642 1.70429L12.7637 1.7005L12.7358 1.68989Z" fill="#4D94C3"/>
<path d="M21.0771 17.1005C21.075 17.0925 21.0732 17.0852 21.0715 17.0782C21.0667 17.0602 21.0632 17.0467 21.0606 17.0373C21.0142 16.8866 20.9554 16.7689 20.903 16.685C20.836 16.5766 20.7805 16.5231 20.7805 16.5231C20.7917 16.4849 20.8005 16.4477 20.8085 16.411C20.8186 16.363 20.8266 16.316 20.832 16.2704C20.8723 15.9269 20.7803 15.6596 20.7067 15.5087C20.695 15.4845 20.6839 15.4638 20.6738 15.4457C20.6207 15.4834 20.567 15.5206 20.5134 15.5569C19.4949 16.2465 18.3486 16.6889 17.1074 16.8791C16.2521 17.0102 15.3522 17.0225 14.4166 16.9086L14.4329 16.9133C14.4329 16.9133 13.869 16.9905 13.716 17.5315L13.7256 17.537L13.679 17.8998C13.6955 18.3911 13.9201 18.6986 14.1757 18.8604C14.4414 18.9617 14.7622 19.039 15.1186 19.0833C15.7387 19.1604 16.4504 19.14 17.1769 19.0246L17.1806 19.0241L17.1843 19.0236C18.1506 18.894 19.5145 18.378 20.4895 17.712C20.7117 17.5603 20.9137 17.4011 21.0862 17.2364L21.0926 17.2302L21.1044 17.2188C21.0946 17.173 21.0851 17.1324 21.0771 17.1005Z" fill="white"/>
<path d="M19.2337 12.4181C18.7106 12.0995 18.6339 11.9938 18.6828 11.1284C18.7003 10.8167 18.734 10.4071 18.7688 9.85186C18.7734 9.77959 18.7756 9.71101 18.7769 9.64356C18.7771 9.62746 18.7775 9.61174 18.7775 9.59592C18.778 9.53217 18.7773 9.46994 18.7749 9.41016L18.7743 9.39302L18.7729 9.37464C18.7702 9.32766 18.7669 9.282 18.763 9.23758C18.7612 9.21807 18.7593 9.19846 18.7573 9.17923C18.7521 9.13177 18.7462 9.08564 18.7388 9.04112C18.7351 9.01839 18.7306 8.99651 18.7265 8.97434C18.7218 8.94943 18.7168 8.92508 18.7116 8.90121C18.7065 8.87772 18.7013 8.85404 18.6955 8.8314L18.6953 8.83131L18.6955 8.83102C18.6209 8.7202 18.5324 8.62112 18.4286 8.53691L18.4082 8.52175L18.4041 8.51862L18.3888 8.50716L18.3836 8.50328C18.3686 8.49172 18.3529 8.48045 18.3373 8.47013C18.3206 8.45904 18.3039 8.44815 18.2868 8.43792C18.1322 8.34386 17.9598 8.28475 17.7752 8.25738C17.6733 8.24241 17.5677 8.23711 17.4594 8.24127C17.4091 8.24307 17.3583 8.24752 17.307 8.25359C17.1737 8.26922 17.0371 8.29773 16.8985 8.33988C16.8519 8.3719 16.8054 8.40467 16.7583 8.43735C16.7189 8.46482 16.6787 8.49229 16.6384 8.51957L16.6189 8.53293C16.5783 8.56021 16.5372 8.58683 16.496 8.61335L16.4753 8.62633C16.4338 8.65209 16.3922 8.67719 16.3502 8.70106L16.3281 8.71328C16.286 8.73706 16.2431 8.75922 16.1998 8.78044L16.1782 8.79058C16.1344 8.81142 16.0897 8.83083 16.0445 8.84788L16.0259 8.85499C15.9793 8.87204 15.9319 8.88767 15.8838 8.90036L15.8712 8.9033C15.8203 8.91637 15.7695 8.92688 15.7172 8.93399C15.6294 8.94583 15.5417 8.94971 15.4535 8.95009C15.3099 8.95075 15.1658 8.9391 15.0211 8.9176C14.9728 8.91031 14.9242 8.90178 14.8757 8.89288C14.8584 8.88966 14.8413 8.88701 14.8242 8.88369C14.698 8.85916 14.5711 8.82989 14.4433 8.7991C14.3896 8.78631 14.336 8.77334 14.2821 8.76026C14.1955 8.73914 14.1081 8.71878 14.0206 8.69879C14.0032 8.69481 13.9865 8.69045 13.969 8.68666C13.8955 8.69064 13.8219 8.69784 13.7479 8.70712L13.7318 8.70911C13.5171 8.73725 13.3012 8.7884 13.0879 8.86219C13.0761 8.86626 13.0642 8.86977 13.0526 8.87403C13.0193 8.88587 12.9862 8.89885 12.953 8.91192C12.9086 8.92954 12.8643 8.94782 12.8202 8.96733C12.5113 9.10373 12.2112 9.2893 11.9322 9.52516C11.8192 9.62074 11.7135 9.722 11.6145 9.82704C11.4627 9.98855 11.3283 10.1606 11.2107 10.3394C11.2042 10.3494 11.1977 10.3594 11.1915 10.3694C11.1287 10.4667 11.0712 10.5659 11.0192 10.6668C11.0004 10.7028 10.9815 10.7389 10.9642 10.7752L10.9607 10.7823C10.9046 10.9011 10.856 11.0218 10.8142 11.1436C10.8118 11.1509 10.8097 11.1582 10.8076 11.1654C10.8017 11.1831 10.7971 11.2009 10.7915 11.2185C10.7736 11.2751 10.7573 11.332 10.7422 11.3889C10.727 11.4479 10.7126 11.5071 10.7008 11.5663C10.6984 11.579 10.6956 11.5917 10.6934 11.6045C10.6866 11.6407 10.6801 11.6769 10.6744 11.7131C10.6542 11.8462 10.6431 11.979 10.6403 12.1109C10.6393 12.1441 10.6381 12.1775 10.6385 12.2104C10.6984 12.4279 10.7852 12.6238 10.888 12.8018C11.2797 13.4785 11.9237 13.8831 12.3903 14.1003C12.5718 14.1804 12.7612 14.2519 12.9581 14.3147L12.9631 14.3232L12.9633 14.3233L12.9641 14.3229L12.9768 14.3132C13.0019 14.294 13.027 14.2749 13.053 14.256C13.0621 14.2488 13.0714 14.2422 13.0807 14.2354C13.1072 14.2161 13.1343 14.1964 13.1621 14.177C13.1714 14.1706 13.1809 14.1641 13.1904 14.1575C13.2183 14.1381 13.2469 14.1184 13.2761 14.0992C13.2857 14.0926 13.2955 14.0864 13.3053 14.08C13.3348 14.0604 13.3647 14.041 13.3954 14.0217C13.4056 14.0154 13.4156 14.009 13.4257 14.0028C13.4569 13.9836 13.4881 13.9645 13.5198 13.9453C13.5307 13.9388 13.5418 13.9323 13.5526 13.9256C13.5845 13.9072 13.6167 13.8883 13.6497 13.8696C13.6617 13.8631 13.6735 13.8564 13.6854 13.8497C13.7178 13.8313 13.751 13.8133 13.7847 13.7953C13.798 13.7882 13.8113 13.781 13.825 13.774C13.8581 13.7564 13.8918 13.7389 13.9259 13.7217C13.9404 13.7144 13.955 13.707 13.9698 13.6996C14.0037 13.6827 14.0381 13.6659 14.0726 13.6492C14.089 13.6414 14.1056 13.6337 14.1221 13.6258C14.156 13.6098 14.1904 13.5939 14.2254 13.5781C14.2435 13.5697 14.2624 13.5616 14.2811 13.5533C14.3149 13.5382 14.3493 13.5232 14.3843 13.5084C14.4048 13.4994 14.4259 13.4907 14.4466 13.4821C14.4805 13.4679 14.5148 13.4539 14.5495 13.4398C14.5726 13.4306 14.5962 13.4214 14.6196 13.4122C14.6532 13.3991 14.687 13.3859 14.7213 13.3729C14.7471 13.3631 14.7734 13.3533 14.7992 13.3439C14.8326 13.3317 14.8655 13.3195 14.8995 13.3075C14.9282 13.2974 14.9574 13.2874 14.9865 13.2774C15.0191 13.2661 15.0517 13.2546 15.0849 13.2439C15.1167 13.2332 15.1489 13.223 15.1811 13.2127C15.213 13.2023 15.2446 13.1921 15.2769 13.1821C15.3122 13.171 15.3481 13.1603 15.3844 13.1494C15.4146 13.1406 15.4449 13.1312 15.4758 13.1224C15.5148 13.1109 15.5548 13.0999 15.5944 13.0889C15.6144 13.0835 15.6336 13.0774 15.6536 13.0723C15.8085 12.6824 16.2682 11.7156 17.0556 11.6097C17.1403 11.5975 17.2168 11.5931 17.2891 11.5923C17.3072 11.5921 17.3266 11.5908 17.3439 11.5912C17.3348 11.5351 17.3276 11.4767 17.3239 11.4159C17.2993 10.9993 17.4273 10.653 17.6099 10.642C17.7513 10.6306 17.8637 10.8371 17.8829 10.9094C17.9367 11.036 17.9744 11.1978 17.9852 11.3773C17.9949 11.5413 17.9798 11.6926 17.9485 11.8188C17.9644 11.8352 17.9775 11.8534 17.9918 11.8708C18.1721 12.0946 18.2026 12.4051 18.1952 12.6251C18.2653 12.618 18.3373 12.6118 18.4093 12.6057C18.4276 12.604 18.4456 12.6023 18.4643 12.6006L18.4756 12.5995C18.4861 12.5985 18.4965 12.5979 18.5068 12.5971C18.5958 12.5897 18.6859 12.5827 18.7773 12.5762L18.7814 12.576C18.9884 12.5616 19.2009 12.5494 19.4202 12.54C19.3063 12.4563 19.2337 12.4181 19.2337 12.4181Z" fill="#EFCFA5"/>
<path d="M21.2151 18.2502C20.8706 18.557 20.5099 18.8033 20.1521 19.001C19.9734 19.0994 19.7959 19.1848 19.6211 19.2608C19.2326 19.4301 18.8598 19.5477 18.5314 19.6277C17.8067 19.8043 17.2956 19.8047 17.2956 19.8047C17.6919 20.0239 18.1935 20.026 18.5377 19.9912C18.7745 19.9676 18.9373 19.9269 18.9373 19.9269C18.9299 20.0724 18.9117 20.2062 18.8858 20.3312C18.857 20.4695 18.8176 20.5951 18.7704 20.71L18.7667 20.7198L18.7663 20.7205C18.7073 20.8626 18.6363 20.9872 18.5571 21.0971C18.5485 21.1089 18.5401 21.1216 18.5314 21.1331L18.5575 21.1186C18.6831 21.0499 18.8076 20.9762 18.9313 20.8985L18.934 20.8968C19.0268 20.8383 19.1188 20.7771 19.2098 20.7137C19.3622 20.6062 19.5132 20.4931 19.6603 20.3702L19.6607 20.37L19.6613 20.3695C19.6697 20.362 19.6784 20.3547 19.6873 20.3473C19.8331 20.2199 19.9696 20.0889 20.0964 19.9555C20.2638 19.7793 20.4142 19.5993 20.5504 19.4188L20.5604 19.4058C20.5937 19.3613 20.6262 19.317 20.6579 19.2731L20.6668 19.2602C20.6771 19.2451 20.6862 19.2308 20.6964 19.216C20.7404 19.1527 20.7839 19.0893 20.8246 19.0264C20.8343 19.0114 20.8444 18.996 20.8541 18.9809C20.8753 18.9475 20.8956 18.9142 20.916 18.8813C20.9313 18.8555 20.9471 18.8297 20.9619 18.8041C20.9785 18.7763 20.9952 18.7483 21.0113 18.7207C21.0398 18.6704 21.0677 18.6204 21.0944 18.5708C21.1049 18.5511 21.1148 18.532 21.1251 18.5126C21.1454 18.4739 21.1654 18.4357 21.1843 18.3979C21.1931 18.3803 21.202 18.3627 21.2105 18.3452L21.2183 18.3286C21.2419 18.281 21.2645 18.2336 21.2864 18.1871C21.2625 18.2088 21.2388 18.2293 21.2151 18.2502Z" fill="#EFCFA5"/>
<path d="M12.5797 14.435C12.4821 14.4678 12.3744 14.5074 12.2608 14.5544C11.9579 14.6799 11.6141 14.8584 11.3095 15.1049C11.2713 15.1357 11.2339 15.1675 11.1971 15.2003C11.1346 15.2566 11.075 15.3166 11.0177 15.3794C11.0112 15.3865 11.0042 15.3933 10.9979 15.4005C10.9892 15.4102 10.9807 15.4202 10.9722 15.43C10.9506 15.4552 10.9292 15.4811 10.9083 15.5074C10.9 15.518 10.8918 15.5286 10.8834 15.5392C10.856 15.5754 10.8293 15.612 10.804 15.6501C10.7792 15.6874 10.7553 15.726 10.7328 15.7651C10.5523 16.0802 10.4499 16.4575 10.4813 16.9075L10.4823 16.9028L10.4828 16.8995C10.4836 16.8954 10.4847 16.8897 10.4861 16.8827L10.4871 16.879C10.4884 16.8722 10.4904 16.8642 10.4925 16.8553L10.4937 16.8497C10.4962 16.8394 10.4991 16.8277 10.5024 16.8149L10.5047 16.8066C10.5084 16.7929 10.5125 16.7782 10.517 16.7622L10.5172 16.7621C10.5217 16.7463 10.5273 16.7294 10.5327 16.7119L10.5363 16.7012C10.5422 16.6833 10.5487 16.6647 10.5558 16.6455L10.5595 16.6363C10.566 16.6181 10.5733 16.5994 10.5812 16.5802L10.5849 16.5713C10.5935 16.5505 10.6029 16.5291 10.6127 16.5073L10.619 16.4938C10.6296 16.4715 10.6403 16.449 10.6523 16.4262V16.4261C10.6528 16.4251 10.6533 16.4243 10.6538 16.4234C10.6716 16.3893 10.6917 16.3546 10.7131 16.3196C10.7212 16.3063 10.7289 16.2932 10.7378 16.2799L10.7446 16.2688L10.7448 16.2685C10.7631 16.2412 10.7823 16.2138 10.8031 16.1867C10.82 16.1645 10.8379 16.1426 10.8563 16.1207C10.8621 16.1139 10.8684 16.107 10.8745 16.1002C10.8893 16.0836 10.9046 16.0671 10.9205 16.0508C10.9271 16.0442 10.9335 16.0375 10.9401 16.0311C10.9618 16.0098 10.9842 15.9889 11.0079 15.9687L11.0099 15.9669C11.0099 15.9669 10.6001 16.894 10.7783 17.6292C10.7783 17.6292 10.7781 17.6269 10.7781 17.623V17.6185C10.7779 17.6144 10.7779 17.6096 10.7779 17.6034C10.7779 17.6022 10.7779 17.6007 10.7778 17.5994C10.7779 17.5918 10.7779 17.5831 10.7783 17.5727C10.7783 17.5714 10.7783 17.5701 10.7785 17.5686C10.7785 17.5577 10.7792 17.5456 10.7798 17.5321C10.7798 17.5308 10.78 17.5294 10.78 17.5282C10.7807 17.5143 10.7816 17.499 10.7828 17.4828C10.7828 17.4813 10.7829 17.4801 10.7831 17.4787C10.7844 17.4622 10.7859 17.4447 10.7879 17.4263C10.7881 17.4248 10.7883 17.4233 10.7885 17.4217C10.7903 17.4032 10.793 17.3841 10.7957 17.3639C10.7959 17.3621 10.7963 17.3603 10.7965 17.3585C10.7996 17.3372 10.8031 17.3151 10.8074 17.2922L10.8083 17.2868L10.8105 17.2754V17.2749C10.8155 17.2492 10.8215 17.223 10.8283 17.1964C10.8288 17.1947 10.8291 17.1929 10.8295 17.1911C10.8365 17.1651 10.844 17.1389 10.8523 17.1124C10.855 17.1043 10.8575 17.0963 10.8601 17.0882L10.8658 17.0713V17.071C10.8736 17.0494 10.8821 17.0277 10.8913 17.0061L10.8927 17.0026L10.8928 17.0024C10.9056 16.9722 10.9205 16.9429 10.9365 16.9138C10.9405 16.9061 10.9451 16.8985 10.9495 16.891C10.9665 16.8623 10.9843 16.8341 11.0046 16.8075L11.0054 16.8062H11.0055C11.0055 16.8062 10.982 17.0345 10.9881 17.3062C10.9892 17.3489 10.9912 17.3928 10.994 17.4371C10.9957 17.4665 10.9976 17.4962 11.0003 17.5257C11.0184 17.2338 11.0717 16.9596 11.1494 16.7038C11.1711 16.6333 11.1948 16.5647 11.2199 16.4969C11.2234 16.4872 11.2268 16.4774 11.2305 16.4677C11.2547 16.4036 11.2804 16.3413 11.3072 16.2799C11.3124 16.2685 11.3175 16.257 11.3226 16.2455C11.3499 16.1849 11.3783 16.1254 11.4079 16.0674C11.4127 16.0584 11.4173 16.0495 11.4219 16.0406C11.4848 15.9195 11.5524 15.8042 11.6225 15.6952C11.6277 15.6871 11.6327 15.6792 11.6378 15.6712C11.6645 15.6304 11.6919 15.5911 11.7193 15.5521C11.7264 15.5417 11.7333 15.5307 11.7405 15.5206C11.7472 15.5114 11.7535 15.5023 11.7601 15.4932C11.7949 15.4451 11.8299 15.3982 11.8652 15.3529C11.8709 15.3457 11.8765 15.3385 11.8821 15.3315C11.9188 15.2849 11.9555 15.2395 11.9923 15.1961L11.9943 15.1937C12.0408 15.1389 12.0871 15.0865 12.1329 15.0366C12.1666 15 12.2 14.9649 12.233 14.931C12.2454 14.9183 12.2583 14.9057 12.2711 14.8928C12.3501 14.813 12.4264 14.7414 12.4974 14.6779C12.7105 14.4872 12.8765 14.3693 12.9344 14.3302C12.8996 14.3389 12.8589 14.3497 12.8138 14.3625C12.7455 14.3817 12.6667 14.4057 12.5797 14.435Z" fill="#EFCFA5"/>
<path d="M18.0302 12.3819C18.0302 12.3819 18.028 12.3583 18.0195 12.3225C17.9862 12.187 17.8522 11.8672 17.3247 11.9179C16.7732 11.971 16.5881 12.416 16.5405 12.5677C16.5308 12.5991 16.5265 12.6189 16.5265 12.6189L16.5415 12.6317C16.6114 12.5723 16.7448 12.5793 16.8658 12.6562C16.9211 12.6913 16.9652 12.7356 16.9953 12.7823V12.7825C17.0419 12.8543 17.0549 12.9317 17.0219 12.9892C17.0149 13.0015 17.0061 13.0119 16.9959 13.0211C16.9959 13.0211 17.0172 13.0293 17.053 13.0397C17.2062 13.0849 17.6312 13.174 17.8611 12.8771C17.8722 12.8628 17.8835 12.8495 17.8936 12.8336C17.8484 12.8105 17.8231 12.7441 17.823 12.6653C17.8226 12.6275 17.8278 12.5869 17.84 12.5465C17.8777 12.4217 17.9631 12.348 18.0302 12.3819Z" fill="#EFCFA5"/>
<path d="M15.2962 16.433C14.9393 16.5066 14.6272 16.5614 14.3851 16.6005C14.3987 16.6022 14.4113 16.6038 14.4255 16.6056C14.8304 16.6559 15.4751 16.7167 16.2547 16.6691C17.6731 16.5827 19.54 16.1364 21.2353 14.6078L21.2399 14.6018V14.5991C21.2456 14.4711 21.2285 14.2398 21.0667 14.06C21.0385 14.0285 21.0055 13.9988 20.968 13.9712C20.9616 13.9675 20.9558 13.9633 20.9492 13.9597C20.9047 13.9347 20.8659 13.9095 20.8298 13.8846C20.7998 13.8658 20.7714 13.847 20.7463 13.8284L20.7426 13.823C20.6385 13.9728 20.5177 14.1154 20.3824 14.2511C20.3345 14.2991 20.2836 14.3453 20.2324 14.3915C19.7646 14.8128 19.1603 15.1637 18.5079 15.4527C17.4238 15.9328 16.2121 16.2444 15.2962 16.433Z" fill="#EFCFA5"/>
<path d="M6.3179 13.9625C6.30256 13.9761 6.28684 13.9895 6.27244 14.0046L6.25662 14.0221C6.23966 14.041 6.22318 14.0609 6.20784 14.082L6.19969 14.0923C6.18065 14.1188 6.16294 14.1466 6.14608 14.175V14.1751L6.1439 14.1787L6.1438 14.1789L6.13698 14.1915C6.1331 14.1985 6.1294 14.2056 6.12571 14.2126C6.11595 14.2303 6.10591 14.2475 6.0972 14.2654L6.09672 14.2661L6.09644 14.2667L6.09597 14.2682L6.09256 14.2749L6.08943 14.2816C6.07579 14.3099 6.06338 14.3381 6.05173 14.3658C6.01877 14.4439 5.99329 14.5182 5.97415 14.5804C5.96752 14.6024 5.96127 14.6234 5.95625 14.6419C5.94517 14.6819 5.9374 14.7133 5.93389 14.7286L5.93371 14.7299L5.93124 14.7403L5.93219 14.7282C5.93352 14.7044 5.93626 14.6807 5.93816 14.657C5.94185 14.6072 5.94498 14.5572 5.95047 14.5077C5.95483 14.466 5.96127 14.4253 5.96714 14.3839C5.96904 14.371 5.97103 14.3581 5.97292 14.3453C5.97548 14.3262 5.97813 14.3072 5.98126 14.2883C5.984 14.2705 5.98789 14.2531 5.9912 14.2358L5.99139 14.2344V14.2344L5.99509 14.2149L5.99622 14.2096C6.00011 14.1884 6.00418 14.1668 6.00825 14.1456C6.00967 14.1374 6.01119 14.1291 6.01289 14.1209L6.01583 14.1062L6.0164 14.1034C6.01782 14.0965 6.01934 14.0894 6.02085 14.0826C6.02256 14.0739 6.02492 14.0655 6.02672 14.0572C6.03373 14.0261 6.04131 13.9955 6.04861 13.9647L6.04984 13.9596C6.05524 13.9366 6.06026 13.9136 6.06613 13.8911L6.06632 13.89L6.06689 13.8885L6.06869 13.8819C6.08072 13.8355 6.09407 13.7901 6.10743 13.7443L6.11444 13.7192C6.117 13.7107 6.11917 13.7018 6.12183 13.6933C6.1439 13.6191 6.16748 13.5459 6.19259 13.4743L6.19581 13.4653C6.21731 13.4045 6.23909 13.3446 6.26192 13.2856L6.26448 13.2789C6.27481 13.2529 6.28541 13.228 6.29555 13.2023L6.29726 13.1985C6.31279 13.1603 6.32813 13.1218 6.34405 13.0848L6.34414 13.0844V13.0842L6.34443 13.0837L6.34623 13.0791C6.35049 13.0698 6.36034 13.0473 6.37569 13.0141L6.37597 13.0136L6.37805 13.0091V13.009C6.38402 12.9959 6.38971 12.9832 6.39548 12.97C6.40486 12.9489 6.41433 12.928 6.42362 12.9073L6.43205 12.8891C6.41879 12.8819 6.40486 12.8754 6.39122 12.8686L6.38345 12.8647L6.36896 12.8574C6.28039 12.815 6.18719 12.781 6.09057 12.756L6.07522 12.7522C6.01327 12.7367 5.95 12.7248 5.8854 12.7174C5.84798 12.7131 5.81047 12.7097 5.77239 12.7082C5.74075 12.7068 5.70912 12.7065 5.6771 12.7071C5.62898 12.7082 5.58162 12.7122 5.53501 12.7174C5.52005 12.7192 5.50574 12.7218 5.49135 12.7237C5.46823 12.7272 5.4454 12.7317 5.42248 12.7358C5.41358 12.7377 5.4042 12.7389 5.3953 12.7408C5.37919 12.7443 5.36328 12.7477 5.34736 12.7517C5.31611 12.7594 5.2856 12.768 5.25529 12.7776C5.24118 12.782 5.22716 12.7856 5.21343 12.7905C5.17241 12.8049 5.13206 12.8206 5.09265 12.8381C5.07693 12.8451 5.06234 12.8532 5.047 12.8605C5.029 12.8693 5.01119 12.8788 4.99348 12.8879L4.9752 12.8972C4.95568 12.908 4.93664 12.9196 4.91779 12.931C4.90027 12.9418 4.88256 12.9531 4.8656 12.9648C4.84476 12.9785 4.82439 12.9924 4.8046 13.007C4.79238 13.0164 4.78073 13.026 4.76851 13.0354C4.7363 13.0609 4.70571 13.0883 4.67558 13.1162C4.66005 13.1307 4.64508 13.1455 4.63021 13.1605C4.60388 13.1866 4.5783 13.2132 4.55405 13.2412L4.54183 13.2552C4.52914 13.2703 4.5173 13.2864 4.50546 13.3022L4.50357 13.3044L4.50205 13.3065C4.494 13.3171 4.48528 13.3274 4.47742 13.3383L4.4743 13.3424L4.47117 13.3467L4.47098 13.3471L4.47079 13.3474C4.4222 13.4157 4.37957 13.4879 4.34263 13.5634C4.33723 13.5741 4.3324 13.585 4.32747 13.5959C4.31023 13.6328 4.2947 13.6705 4.2803 13.7089C4.27471 13.7242 4.26846 13.7389 4.26325 13.7544L4.26306 13.7546V13.7547C4.266 13.7646 4.26931 13.774 4.27234 13.7838C4.28286 13.8179 4.29356 13.8511 4.30483 13.8833L4.30872 13.8944L4.31298 13.9056C4.32482 13.9387 4.33704 13.9705 4.34964 14.0014C4.38791 14.0962 4.42826 14.1809 4.46823 14.256C4.4743 14.2669 4.48026 14.2785 4.48614 14.289L4.4904 14.2969L4.49599 14.3062C4.52611 14.3598 4.55557 14.407 4.58294 14.4484C4.62652 14.5142 4.66469 14.5642 4.69188 14.5979C4.69784 14.6052 4.70296 14.6113 4.7076 14.617C4.71167 14.6219 4.71537 14.6262 4.71887 14.63C4.7292 14.6419 4.73564 14.6488 4.73564 14.6489C4.73166 14.632 4.72967 14.6154 4.72617 14.5984C4.70154 14.4774 4.68875 14.358 4.68562 14.241L4.68553 14.2341L4.68525 14.2205C4.68392 14.1456 4.68506 14.0713 4.69102 13.9992H4.69112C4.69879 14.0269 4.70703 14.0537 4.71537 14.0802C4.72797 14.1202 4.74094 14.1591 4.75439 14.1966L4.75904 14.21L4.76093 14.2148C4.81994 14.3744 4.8871 14.5086 4.95 14.6167C5.02521 14.7461 5.09407 14.8378 5.13518 14.8882C5.14352 14.8984 5.15053 14.9069 5.1565 14.9136C5.16815 14.9272 5.17459 14.9341 5.17459 14.9341C5.14485 14.8055 5.12978 14.6785 5.12505 14.554C5.12334 14.5121 5.12183 14.4701 5.12259 14.4291C5.12334 14.3765 5.12609 14.3247 5.13035 14.2737C5.15328 14.361 5.17961 14.4418 5.20774 14.518L5.20973 14.5238C5.3108 14.7977 5.43555 14.9991 5.52166 15.1184L5.53151 15.1316C5.54666 15.1518 5.55974 15.1689 5.57158 15.1842C5.57972 15.1945 5.58749 15.2044 5.59403 15.2118C5.60236 15.2219 5.60861 15.2294 5.61373 15.235C5.62007 15.2422 5.62396 15.2468 5.62396 15.2468L5.62045 15.2289C5.61657 15.2109 5.61288 15.1931 5.60937 15.1752C5.59696 15.111 5.58882 15.0472 5.58275 14.9841C5.57868 14.9419 5.5748 14.8998 5.57328 14.8583C5.57177 14.8187 5.57196 14.7797 5.57252 14.7407C5.57271 14.7337 5.573 14.7267 5.57309 14.7197C5.57375 14.6995 5.57423 14.6794 5.57527 14.6594L5.57603 14.6471L5.57679 14.6382C5.57991 14.5869 5.58436 14.5361 5.59071 14.4864C5.60047 14.5195 5.61079 14.5517 5.6214 14.5827C5.62936 14.6063 5.63769 14.6288 5.64603 14.6514L5.64783 14.6561L5.65058 14.6639L5.6556 14.6778C5.66583 14.7048 5.67634 14.7308 5.68704 14.7566C5.70741 14.8046 5.72778 14.85 5.74871 14.8925C5.774 14.9449 5.79977 14.9932 5.82468 15.0374C5.83917 15.0623 5.853 15.0858 5.86674 15.1083C5.88407 15.1365 5.90093 15.1628 5.91703 15.1867C5.93181 15.2087 5.94555 15.228 5.95862 15.2462C5.96193 15.2506 5.96534 15.2553 5.96847 15.2596C5.98069 15.2762 5.99234 15.2918 6.00266 15.3049C6.01043 15.3149 6.01763 15.3238 6.02417 15.3317C6.04112 15.3524 6.05315 15.3659 6.05855 15.3718L6.06168 15.3751L6.07248 15.3825C6.07352 15.3734 6.07484 15.3645 6.07598 15.3553C6.08555 15.2757 6.09663 15.1953 6.10847 15.1155C6.1098 15.1058 6.11131 15.0962 6.11273 15.0868C6.12656 14.9968 6.14115 14.9074 6.15631 14.8211C6.1583 14.8098 6.1601 14.7989 6.16218 14.7878L6.16332 14.7821C6.16512 14.7722 6.16682 14.7621 6.16862 14.7521C6.17118 14.7372 6.17383 14.7224 6.17658 14.7077C6.18899 14.6393 6.20177 14.5732 6.21418 14.5105C6.22545 14.4538 6.23635 14.4002 6.24686 14.3497L6.25018 14.3334C6.25169 14.3255 6.2534 14.3183 6.25501 14.3107C6.25662 14.3033 6.25813 14.2956 6.25965 14.288L6.26022 14.2853C6.26296 14.2727 6.26581 14.2597 6.26836 14.2478L6.26912 14.2445C6.27149 14.2326 6.27376 14.2226 6.27613 14.2115C6.28002 14.1942 6.28371 14.1764 6.28731 14.1602L6.28835 14.1556C6.29129 14.1425 6.29403 14.1291 6.29678 14.1171C6.30076 14.0998 6.30445 14.0838 6.30758 14.0688L6.30777 14.0683L6.30796 14.0679C6.30985 14.0593 6.31165 14.0518 6.31345 14.0439L6.31383 14.0424C6.31554 14.0352 6.31705 14.0277 6.31866 14.0213C6.32236 14.0054 6.32567 13.991 6.32832 13.9799L6.33069 13.9701L6.33164 13.9665L6.33439 13.9548L6.33628 13.9468L6.33666 13.9456L6.33533 13.9467L6.3179 13.9625Z" fill="#EFCFA5"/>
<path d="M17.7975 17.9252C17.9313 17.8789 18.0478 17.8415 18.1381 17.8021C18.3192 17.725 18.4165 17.673 18.4105 17.6538C18.4043 17.6342 18.295 17.649 18.1026 17.6924C18.0063 17.715 17.8896 17.7346 17.7554 17.7647C17.6887 17.7807 17.615 17.7899 17.5386 17.8047C17.4617 17.818 17.3808 17.8349 17.2954 17.8441C17.1269 17.868 16.9341 17.8897 16.7294 17.9135C16.6285 17.9218 16.5244 17.9304 16.4174 17.939C16.3093 17.9444 16.1983 17.9499 16.0843 17.9555C15.629 17.9688 15.1264 17.9482 14.615 17.8541C14.3453 17.8067 13.9849 17.6842 13.7256 17.537L13.716 17.5315C13.869 16.9905 14.4329 16.9133 14.4329 16.9133L14.4166 16.9086C14.4072 16.9075 14.3978 16.9065 14.3882 16.9054C14.3062 16.8952 14.2341 16.8854 14.1722 16.8771C14.1281 16.8712 14.0894 16.8659 14.0567 16.8618C14.0252 16.8579 14.0028 16.8555 13.9897 16.8547C13.65 16.8314 13.4639 17.1191 13.3996 17.2437C13.3904 17.2617 13.382 17.2802 13.3734 17.299C13.3244 17.4108 13.2918 17.5397 13.2831 17.676C13.2663 17.9302 13.3318 18.2093 13.5266 18.447C13.6565 18.6073 13.8826 18.7486 14.1757 18.8604C13.9201 18.6986 13.6955 18.3911 13.679 17.8998C13.9686 18.0243 14.306 18.1004 14.5595 18.1455C15.1023 18.2455 15.6262 18.2575 16.0971 18.2286C16.2148 18.2187 16.3293 18.2101 16.4405 18.1989C16.5518 18.1844 16.6599 18.1705 16.7646 18.157C16.9684 18.1226 17.1564 18.0893 17.333 18.0504C17.421 18.0339 17.5026 18.0098 17.5799 17.9887C17.6572 17.9663 17.7305 17.9494 17.7975 17.9252Z" fill="#EFCFA5"/>
<path d="M17.3472 11.5936C17.6308 11.6003 17.8234 11.6903 17.9518 11.8213C17.9831 11.695 17.9984 11.5436 17.9884 11.3797C17.9775 11.2003 17.94 11.0385 17.8863 10.9116C17.8672 10.8395 17.7546 10.633 17.6131 10.6443C17.4304 10.6554 17.3028 11.0018 17.3274 11.4183C17.3309 11.4791 17.3379 11.5375 17.3472 11.5936Z" fill="#59473D"/>
<path d="M17.8262 12.6677C17.8265 12.7465 17.8517 12.8128 17.8969 12.8359C17.9647 12.8699 18.0493 12.7958 18.0869 12.6709C18.0904 12.66 18.0924 12.6492 18.0949 12.6384V12.6382C18.119 12.5248 18.0945 12.4151 18.0334 12.3844C17.9662 12.3503 17.881 12.4242 17.8434 12.5487C17.8311 12.5894 17.826 12.6298 17.8262 12.6677Z" fill="#59473D"/>
<path d="M16.5384 12.8687C16.5685 12.9177 16.6138 12.965 16.6717 13.0019C16.7942 13.0796 16.9302 13.0861 16.9992 13.0236C17.0094 13.0145 17.0182 13.0038 17.0251 12.9916C17.0582 12.9341 17.0452 12.8567 16.9988 12.7848L16.9986 12.7846C16.9685 12.7381 16.9244 12.6937 16.8691 12.6585C16.7482 12.5817 16.6147 12.5746 16.5448 12.6342C16.5333 12.644 16.523 12.655 16.5154 12.6684C16.4838 12.7241 16.4955 12.7984 16.5384 12.8686V12.8687Z" fill="#59473D"/>
<path d="M21.24 14.6023V14.5997L21.232 14.6113C21.2331 14.6102 21.2344 14.6094 21.2355 14.6083L21.24 14.6023Z" fill="#59473D"/>
<path d="M21.0928 17.2308L21.0864 17.2369C20.9139 17.4015 20.7117 17.5609 20.4897 17.7126C19.5147 18.3786 18.1508 18.8946 17.1843 19.0241L17.1807 19.0246L17.177 19.0252C16.4504 19.1407 15.7387 19.1609 15.1186 19.0838C14.7623 19.0395 14.4416 18.9623 14.1757 18.8609C13.8827 18.7491 13.6566 18.6078 13.5266 18.4476C13.3317 18.2099 13.2663 17.9308 13.2831 17.6765C13.292 17.5403 13.3245 17.4113 13.3736 17.2996C13.3819 17.2808 13.3906 17.2622 13.3997 17.2443C13.4641 17.1196 13.65 16.832 13.9899 16.8552C14.0028 16.8562 14.0254 16.8584 14.0567 16.8624C14.0893 16.8663 14.1282 16.8717 14.1724 16.8776C14.2341 16.886 14.3064 16.8957 14.3884 16.9058C14.398 16.9071 14.4072 16.908 14.4166 16.9091C15.3522 17.0229 16.2521 17.0108 17.1074 16.8797C18.3486 16.6895 19.4951 16.2469 20.5134 15.5575C20.5672 15.5211 20.6207 15.4839 20.6738 15.4462L21.232 14.6113C19.5379 16.1374 17.6725 16.5832 16.2547 16.6696C15.4751 16.7173 14.8304 16.6564 14.4257 16.6061C14.4113 16.6043 14.3989 16.6027 14.3851 16.6009C14.2636 16.5855 14.1646 16.5715 14.094 16.5626C14.0586 16.5581 14.0301 16.5551 14.0087 16.5537C13.9025 16.5465 13.8015 16.5596 13.7071 16.5892C13.5142 16.6495 13.3494 16.7798 13.2256 16.9525C13.0726 17.1653 12.9825 17.4421 12.9782 17.7316C12.9753 17.9698 13.0307 18.216 13.1586 18.4417C13.1636 18.4508 13.1684 18.4601 13.1738 18.4693C13.1886 18.494 13.2045 18.5183 13.2211 18.5423C13.2436 18.5751 13.2671 18.6075 13.2931 18.639C13.5901 19.0051 14.2289 19.2775 15.0812 19.3835C15.6579 19.4552 16.3328 19.4495 17.0648 19.3462C19.222 18.9563 20.2475 18.2593 20.7211 17.7696C20.7557 17.7339 20.7875 17.6992 20.8165 17.6658C20.9863 17.47 21.0627 17.3194 21.0906 17.2543L21.0945 17.2454C21.1016 17.2286 21.1044 17.2197 21.1045 17.2193L21.0928 17.2308Z" fill="#59473D"/>
<path d="M14.2277 9.74965C14.1597 9.71262 14.0855 9.68619 14.0105 9.66762C13.961 9.6554 13.9112 9.64669 13.862 9.64053C13.8435 9.63826 13.8252 9.63655 13.8067 9.63504C13.5542 9.61297 13.3358 9.65569 13.3358 9.65569C13.289 9.66639 13.2441 9.67852 13.2007 9.69178C12.8577 9.79579 12.6189 9.97443 12.452 10.1806C12.317 10.3473 12.2292 10.5321 12.1731 10.7103C12.1681 10.7261 12.1636 10.7417 12.1592 10.7572C12.1461 10.8036 12.1346 10.8489 12.125 10.8935C12.0933 11.0435 12.0811 11.1818 12.0776 11.2912C12.0733 11.4409 12.085 11.5373 12.085 11.5373C12.1446 11.4066 12.2071 11.2866 12.2715 11.1744C12.4313 10.8961 12.6045 10.6719 12.7796 10.4917C13.1207 10.1409 13.4681 9.95568 13.7374 9.8584C14.0283 9.75325 14.2277 9.74965 14.2277 9.74965Z" fill="#E1B27E"/>
<path d="M18.3251 9.26116L18.3136 9.24601C18.275 9.19732 18.229 9.15223 18.1737 9.11453C18.0435 9.02492 17.8637 8.97822 17.6145 9.02928C17.6145 9.02928 17.3187 9.09919 17.1457 9.29271C17.1457 9.29271 17.6613 9.07247 18.2071 9.46046C18.2568 9.4958 18.3067 9.53672 18.3565 9.58285C18.4074 9.62992 18.4581 9.68221 18.5087 9.7416C18.5087 9.7416 18.487 9.50385 18.3515 9.29896C18.3434 9.28608 18.3344 9.27348 18.3251 9.26116Z" fill="#E1B27E"/>
<path d="M14.2901 13.0364C14.4876 12.9753 14.7017 12.9189 14.931 12.867C14.9708 12.6886 14.9807 12.4676 14.9525 12.2316C14.8872 11.6782 14.6375 11.2543 14.3952 11.2843C14.1526 11.3142 14.0095 11.7871 14.0749 12.3402C14.1079 12.6187 14.1878 12.8648 14.2901 13.0364Z" fill="#59473D"/>
<path d="M13.1654 0.653139L12.657 0.768039L12.7637 1.7005L11.4085 1.01072L10.8506 1.17706L10.8594 1.18691L12.5056 3.0632L12.5213 3.05325L12.5425 3.03999C12.5938 3.00731 12.6451 2.97472 12.6968 2.94261C12.7149 2.93134 12.7329 2.91969 12.751 2.90851C12.8256 2.86276 12.9004 2.81777 12.9754 2.77306L12.2761 1.97207L13.4076 2.52526L13.4119 2.52289C13.446 2.50423 13.4798 2.48548 13.5138 2.46701L13.4095 1.65911L13.9229 2.25293L13.9292 2.2499C13.9726 2.22802 14.0152 2.20727 14.0579 2.18615L14.0713 2.17971L14.092 2.16929C14.0993 2.16578 14.1068 2.16209 14.114 2.15839C14.1322 2.14959 14.1508 2.14011 14.1687 2.1314C14.1724 2.1295 14.1759 2.12799 14.1796 2.12619C14.2405 2.09682 14.3003 2.06879 14.3601 2.04075L13.1654 0.653139Z" fill="#FACE56"/>
<path d="M12.6603 0.797594L12.657 0.76804L12.6603 0.797688V0.797594Z" fill="#4D94C3"/>
<path d="M12.657 0.768039L12.7321 0.751178C12.6077 0.693397 12.4598 0.652192 12.2886 0.630879C11.9458 0.587685 11.5106 0.627374 11.0147 0.755535C10.5188 0.882844 9.9628 1.09692 9.37314 1.39056C8.19374 1.97747 6.88077 2.88199 5.61734 4.03459C5.1765 4.4366 4.7654 4.84732 4.38745 5.25927L5.92207 7.13897C6.33649 6.68165 6.7886 6.22688 7.27586 5.78243C7.92737 5.18842 8.59167 4.65844 9.24849 4.19789C9.88494 3.75203 10.5135 3.37351 11.1187 3.06727L10.8522 1.86702L10.8594 1.18691L10.8506 1.17706L11.4085 1.01072L12.498 1.56817L12.467 1.18861L12.657 0.768039Z" fill="#4D94C3"/>
<path d="M12.657 0.76804L12.467 1.18861L12.498 1.56817L12.7637 1.7005L12.657 0.76804Z" fill="#141C26"/>
<path d="M12.2762 1.97207L13.4076 2.52526L12.9754 2.77306L12.2762 1.97207Z" fill="#141C26"/>
<path d="M13.4095 1.65911L13.5138 2.467L13.9229 2.25293L13.4095 1.65911Z" fill="#141C26"/>
<path d="M17.6903 1.36044C17.7601 1.3577 17.8284 1.35694 17.8955 1.35836C18.0859 1.36224 18.2648 1.38469 18.4342 1.42703C18.4433 1.4294 18.4528 1.43073 18.4618 1.43319L18.4639 1.43376L18.4705 1.43518L18.4872 1.44001L18.5025 1.44465C18.4825 1.43139 18.4622 1.41889 18.4415 1.40667C18.2513 1.33382 18.05 1.28627 17.843 1.25966C16.816 1.12752 15.6468 1.50139 14.9781 1.7669C14.9415 1.78225 14.9045 1.7975 14.8671 1.81341C14.8109 1.83738 14.7543 1.86182 14.6969 1.88711C14.6006 1.92954 14.5031 1.97397 14.4033 2.02038C14.3888 2.02701 14.3744 2.03393 14.3601 2.04075C14.3003 2.06879 14.2405 2.09682 14.1796 2.12619C14.1759 2.12799 14.1724 2.1295 14.1687 2.1314C14.1508 2.14011 14.1321 2.14959 14.114 2.1584C14.1068 2.16209 14.0993 2.16578 14.092 2.16929L14.0712 2.17971L14.0579 2.18615C14.0152 2.20727 13.9726 2.22802 13.9292 2.2499L13.9229 2.25293C13.9216 2.25369 13.9202 2.25435 13.919 2.25501C13.9082 2.26013 13.8981 2.26515 13.8875 2.27045L13.882 2.27311C13.874 2.27718 13.8663 2.28135 13.8585 2.28542C13.7919 2.31914 13.7256 2.354 13.6596 2.38895C13.6133 2.41339 13.5673 2.43802 13.5212 2.46293L13.5138 2.46701C13.4798 2.48548 13.446 2.50423 13.4119 2.52289L13.4076 2.52526C13.297 2.58645 13.1871 2.64888 13.0774 2.713C13.0659 2.71963 13.0545 2.72598 13.0429 2.7328C13.0332 2.73858 13.0233 2.74426 13.0137 2.74995C13.0046 2.75525 12.9957 2.76084 12.9869 2.76614L12.9754 2.77306C12.9004 2.81777 12.8256 2.86276 12.751 2.90851C12.7329 2.91969 12.7149 2.93134 12.6968 2.94261C12.6451 2.97473 12.5937 3.00731 12.5425 3.03999L12.5213 3.05325L12.5055 3.0632C12.3629 3.15461 12.2214 3.24848 12.0805 3.34424C11.8482 3.50243 11.6184 3.66564 11.3918 3.83444C11.3623 3.85632 11.3332 3.87858 11.3037 3.90074C10.7097 4.34794 10.1359 4.82781 9.58626 5.32615C9.00588 5.85253 8.45289 6.39956 7.93048 6.94915C7.64754 7.23265 7.40448 7.4867 7.20613 7.70031C6.8082 8.12884 6.59118 8.39378 6.60009 8.39975C6.60369 8.40363 6.63873 8.37114 6.70087 8.309C6.64944 8.36868 6.598 8.42826 6.54752 8.48765C7.415 7.56277 8.37711 6.61562 9.41016 5.72333C10.0377 5.18179 10.6907 4.66043 11.3654 4.17677V4.17686C11.6608 3.96478 11.9605 3.76017 12.2639 3.56429C12.3608 3.50148 12.4586 3.43953 12.5564 3.37853C12.6052 3.34822 12.6545 3.31876 12.7034 3.28883C12.731 3.27187 12.7587 3.25473 12.7867 3.23796C12.8391 3.20632 12.8916 3.17526 12.9441 3.14409C12.9956 3.11378 13.047 3.08347 13.0986 3.05354C13.1257 3.0381 13.1527 3.02237 13.1797 3.00703C13.2452 2.96952 13.3111 2.93286 13.3771 2.89629C13.4163 2.87451 13.4559 2.85253 13.4953 2.83112L13.4957 2.83093C13.6202 2.76311 13.7453 2.69766 13.8707 2.63334C13.881 2.62794 13.8915 2.62273 13.9022 2.61743C13.9218 2.60739 13.9414 2.59744 13.961 2.58749C13.987 2.57433 14.0128 2.56078 14.0389 2.5478C14.0489 2.54297 14.0584 2.53776 14.0683 2.53284L14.0725 2.53094C14.0903 2.52213 14.1077 2.5138 14.1252 2.50527C14.1289 2.50347 14.1326 2.50177 14.1363 2.49997L14.1425 2.49675C14.1974 2.46994 14.252 2.44351 14.3058 2.41756C14.3156 2.41301 14.3256 2.4078 14.3356 2.40316C14.3531 2.39464 14.3704 2.38687 14.388 2.37853C14.4509 2.34888 14.5136 2.31933 14.5754 2.29082C14.5924 2.28315 14.6097 2.27462 14.6266 2.26704C14.6355 2.26297 14.6442 2.25909 14.6531 2.25511C14.6707 2.24725 14.6883 2.23938 14.7059 2.23143C14.7785 2.19856 14.8508 2.16616 14.9217 2.13538C14.9865 2.10715 15.0494 2.08129 15.1126 2.05467C15.4699 1.90444 15.8058 1.77817 16.1179 1.67777C16.7179 1.48538 17.2359 1.37996 17.6903 1.36044Z" fill="white"/>
</svg>
