<svg width="24" height="24" viewBox="0 0 24 24" fill="none" xmlns="http://www.w3.org/2000/svg">
<path d="M21.6558 23C21.3371 22.9986 21.0318 22.8721 20.8055 22.6477L18.3763 20.2185C18.1773 19.9861 18.0733 19.6872 18.0851 19.3815C18.0969 19.0758 18.2236 18.7859 18.44 18.5695C18.6563 18.3532 18.9463 18.2265 19.2519 18.2147C19.5576 18.2029 19.8565 18.3069 20.0889 18.5058L22.5181 20.9351C22.7444 21.1627 22.8714 21.4705 22.8714 21.7914C22.8714 22.1123 22.7444 22.4202 22.5181 22.6477C22.4047 22.7603 22.2701 22.8494 22.1221 22.9098C21.9741 22.9703 21.8156 23.0009 21.6558 23Z" fill="#669DF6"/>
<path d="M2.22171 23C1.98149 22.999 1.74697 22.9268 1.54779 22.7925C1.34861 22.6582 1.19372 22.4678 1.10271 22.2455C1.01171 22.0232 0.988667 21.7789 1.03651 21.5435C1.08434 21.3081 1.20091 21.0921 1.37147 20.923L3.80073 18.4937C3.91365 18.3799 4.04799 18.2895 4.196 18.2278C4.34402 18.1662 4.50277 18.1344 4.66312 18.1344C4.82347 18.1344 4.98222 18.1662 5.13024 18.2278C5.27825 18.2895 5.41259 18.3799 5.52551 18.4937C5.75173 18.7213 5.87871 19.0291 5.87871 19.35C5.87871 19.6709 5.75173 19.9788 5.52551 20.2063L3.09625 22.6356C2.98232 22.7518 2.8462 22.844 2.69597 22.9066C2.54574 22.9692 2.38446 23.0009 2.22171 23Z" fill="#669DF6"/>
<path d="M4.00721 18.2994L2.52536 19.7812C3.04769 20.4027 3.62495 20.9759 4.25013 21.4939L5.73198 20.012L4.00721 18.2994Z" fill="#4285F4"/>
<path d="M21.3278 19.7326L20.1132 18.518C20.0281 18.4424 19.9343 18.3772 19.8338 18.3237L18.2062 19.9513C18.2598 20.0517 18.325 20.1455 18.4006 20.2306L19.6152 21.4453C20.2362 20.9268 20.8094 20.3536 21.3278 19.7326Z" fill="#4285F4"/>
<path d="M11.9387 23C9.77667 23 7.66315 22.3588 5.86544 21.1577C4.06774 19.9565 2.6666 18.2492 1.83921 16.2517C1.01182 14.2542 0.795333 12.0562 1.21713 9.93565C1.63893 7.81512 2.68007 5.86728 4.2089 4.33846C5.73772 2.80964 7.68555 1.7685 9.80609 1.3467C11.9266 0.924896 14.1246 1.14138 16.1221 1.96877C18.1196 2.79616 19.8269 4.1973 21.0281 5.995C22.2293 7.79271 22.8704 9.90623 22.8704 12.0683C22.8704 14.9676 21.7187 17.7481 19.6686 19.7982C17.6185 21.8482 14.838 23 11.9387 23ZM11.9387 20.5707C13.6204 20.5707 15.2642 20.0721 16.6624 19.1378C18.0606 18.2035 19.1504 16.8757 19.7939 15.322C20.4375 13.7684 20.6059 12.0589 20.2778 10.4096C19.9497 8.76027 19.1399 7.24529 17.9509 6.0562C16.7618 4.86712 15.2468 4.05734 13.5975 3.72928C11.9482 3.40121 10.2386 3.56959 8.68502 4.21311C7.13141 4.85664 5.80351 5.94642 4.86926 7.34463C3.935 8.74284 3.43634 10.3867 3.43634 12.0683C3.43634 14.3233 4.33213 16.4859 5.92664 18.0804C7.52115 19.6749 9.68377 20.5707 11.9387 20.5707Z" fill="#669DF6"/>
<path d="M11.9388 18.1415C13.5494 18.1415 15.0942 17.5016 16.2331 16.3627C17.3721 15.2237 18.0119 13.679 18.0119 12.0683C18.0119 10.4576 17.3721 8.91289 16.2331 7.77395C15.0942 6.63502 13.5494 5.99517 11.9388 5.99517V12.0683L6.98306 15.6029C7.54679 16.3906 8.29075 17.032 9.15284 17.4736C10.0149 17.9152 10.9701 18.1442 11.9388 18.1415Z" fill="#4285F4"/>
<path d="M2.22169 4.86556C1.98044 4.86696 1.74423 4.79649 1.54319 4.66312C1.34214 4.52975 1.18537 4.33954 1.09285 4.11672C1.00034 3.8939 0.976274 3.64858 1.02373 3.41204C1.07118 3.17549 1.18801 2.95844 1.35931 2.78854L3.78857 0.359285C3.90148 0.24544 4.03582 0.155079 4.18383 0.0934134C4.33185 0.0317483 4.49061 0 4.65095 0C4.8113 0 4.97006 0.0317483 5.11807 0.0934134C5.26608 0.155079 5.40042 0.24544 5.51334 0.359285C5.73957 0.586861 5.86654 0.894711 5.86654 1.2156C5.86654 1.53649 5.73957 1.84434 5.51334 2.07191L3.08408 4.50117C2.97159 4.61594 2.83744 4.70724 2.68941 4.76979C2.54137 4.83234 2.3824 4.86489 2.22169 4.86556Z" fill="#AECBFA"/>
<path d="M21.6558 4.86556C21.4951 4.86489 21.3361 4.83234 21.1881 4.76979C21.0401 4.70724 20.9059 4.61594 20.7934 4.50117L18.3642 2.07191C18.1379 1.84434 18.011 1.53649 18.011 1.2156C18.011 0.894711 18.1379 0.586861 18.3642 0.359285C18.4771 0.24544 18.6114 0.155079 18.7594 0.0934134C18.9074 0.0317483 19.0662 0 19.2265 0C19.3869 0 19.5457 0.0317483 19.6937 0.0934134C19.8417 0.155079 19.976 0.24544 20.0889 0.359285L22.5182 2.78854C22.6895 2.95844 22.8063 3.17549 22.8538 3.41204C22.9012 3.64858 22.8772 3.8939 22.7846 4.11672C22.6921 4.33954 22.5354 4.52975 22.3343 4.66312C22.1333 4.79649 21.8971 4.86696 21.6558 4.86556Z" fill="#AECBFA"/>
</svg>
