<svg width="24" height="24" viewBox="0 0 24 24" fill="none" xmlns="http://www.w3.org/2000/svg">
<g clip-path="url(#clip0_313_68)">
<path fill-rule="evenodd" clip-rule="evenodd" d="M23.7016 20.5211L24.3303 21.1493L23.562 21.9176L22.7757 21.1319V21.1428H21.6623L22.1568 22.0013L23.3305 22.3311L23.0365 23.3777L22.1975 23.1413L21.9677 23.9998L20.9179 23.7189L21.2271 22.5637L20.6804 21.615L20.143 22.5441L20.4441 23.7249L19.391 23.9939L19.1764 23.1495L18.3178 23.3793L18.0363 22.3295L19.1905 22.0209L19.6985 21.1428H18.5939L17.7935 21.9225L17.0344 21.1444L17.6587 20.5363L17.03 19.9077L17.7983 19.1393L18.7145 20.056H19.7801L19.2014 19.0556L18.0298 18.7258L18.3243 17.6798L19.1622 17.9156L19.3926 17.0571L20.4424 17.3386L20.1327 18.4949L20.6804 19.4425L21.2167 18.5123L20.9163 17.332L21.9693 17.0636L22.184 17.908L23.043 17.6782L23.3245 18.7274L22.1682 19.0377L21.5808 20.056H22.623L23.5669 19.1344L24.3254 19.9125L23.7016 20.5211ZM15.9297 20.5211L16.5584 21.1493L15.7895 21.9176L15.0146 21.1428H13.8904L14.3854 22.0013L15.5585 22.3311L15.2646 23.3777L14.4261 23.1413L14.1957 23.9998L13.1459 23.7189L13.4557 22.5648L12.9079 21.615L12.3705 22.5436L12.6716 23.7254L11.619 23.9933L11.4039 23.1495L10.5453 23.3793L10.2644 22.3295L11.4185 22.0209L11.926 21.1428H10.8219L10.0215 21.9225L9.26294 21.1444L9.88674 20.5363L9.25805 19.9077L10.0264 19.1393L10.9431 20.056H12.0075L11.4288 19.0551L10.2579 18.7258L10.5518 17.6798L11.3908 17.9156L11.6207 17.0571L12.6699 17.3386L12.3602 18.4954L12.9079 19.4425L13.4448 18.5117L13.1443 17.332L14.1974 17.0636L14.412 17.9075L15.2705 17.6782L15.552 18.7274L14.3968 19.0377L13.8089 20.056H14.8511L15.7944 19.1344L16.5535 19.9125L15.9297 20.5211ZM12.3048 1.08661C17.9624 1.08661 21.9492 2.84009 22.0231 3.81383L22.0095 3.91816C21.9965 3.96761 21.9693 4.0176 21.9384 4.06868C21.9307 4.08117 21.9269 4.09313 21.9183 4.10563C21.8835 4.15562 21.8357 4.20669 21.7846 4.25723C21.7705 4.27136 21.7618 4.2844 21.7471 4.29798C21.6911 4.34906 21.6232 4.40068 21.5509 4.45285C21.5325 4.46643 21.5178 4.48001 21.4977 4.4936C21.4205 4.54685 21.3303 4.59956 21.2369 4.65281C21.2146 4.66476 21.1972 4.6778 21.1744 4.68976C21.0711 4.74573 20.9565 4.80115 20.8369 4.85658C20.8163 4.86527 20.7994 4.87505 20.7793 4.88483C20.6462 4.94406 20.5011 5.00275 20.349 5.06143C20.337 5.06632 20.3267 5.07012 20.3147 5.07501C18.64 5.70642 15.8302 6.2335 12.3069 6.2335C7.72572 6.2335 4.34698 5.34127 3.10481 4.48708C3.10481 4.48708 3.10373 4.48545 3.10264 4.4849C3.00972 4.42133 2.9293 4.35775 2.86084 4.29472C2.8516 4.28603 2.84562 4.27733 2.83693 4.26864C2.77987 4.21376 2.72988 4.15888 2.69239 4.10508C2.68206 4.09041 2.67772 4.07574 2.66848 4.06052C2.63968 4.01325 2.61414 3.96652 2.60164 3.92088L2.58806 3.81383C2.66142 2.84009 6.64765 1.08661 12.3048 1.08661ZM23.3359 13.2822C23.1783 13.3116 22.7741 13.3273 21.8672 13.1062L21.9873 12.2161C22.9284 12.7883 23.2398 13.1328 23.3359 13.2822ZM12.4515 9.73124L12.9949 9.73178L12.452 9.73232L12.4515 9.73124ZM4.91373 21.1428C4.91373 21.1183 4.9121 21.0944 4.90884 21.0705L2.8266 5.58471C2.95158 5.65752 3.0858 5.72816 3.22599 5.79662C3.31076 5.83792 3.4015 5.87704 3.49061 5.91617C3.57049 5.95203 3.652 5.98735 3.73622 6.02158C3.83729 6.06288 3.94108 6.10309 4.04703 6.14221C4.12419 6.17101 4.20353 6.19764 4.28286 6.22481C4.6942 6.36609 5.13814 6.49378 5.61088 6.60843C5.67283 6.6231 5.73532 6.63778 5.79835 6.65299C5.95756 6.6894 6.11785 6.72472 6.28196 6.75841C6.32488 6.7671 6.3689 6.77525 6.41182 6.78394C6.96879 6.89425 7.55238 6.98826 8.15662 7.06433C8.19139 7.06868 8.22671 7.07357 8.26203 7.07846C9.11351 7.18279 9.9965 7.25397 10.8866 7.29037C10.9137 7.29146 10.9404 7.29255 10.9675 7.29363C11.4136 7.31102 11.8603 7.32298 12.3048 7.32298C12.7449 7.32298 13.1867 7.31102 13.629 7.29418C13.6681 7.29255 13.7072 7.29092 13.7475 7.28929C14.3914 7.26266 15.0325 7.2181 15.6607 7.15453C15.6911 7.15181 15.7215 7.14964 15.752 7.14638C15.94 7.12682 16.1258 7.10563 16.3106 7.0828C16.3774 7.07465 16.4432 7.06596 16.5089 7.05781C16.6893 7.03444 16.8692 7.01053 17.0458 6.98445C17.0534 6.98336 17.0604 6.98173 17.068 6.98065C17.4245 6.9274 17.7717 6.86708 18.1102 6.80133C18.1939 6.78503 18.2792 6.76873 18.3618 6.75188C18.502 6.72254 18.639 6.6932 18.7748 6.66168C18.871 6.63995 18.9655 6.61658 19.0595 6.59376C19.1861 6.56279 19.3127 6.53236 19.4345 6.49867C19.6132 6.45085 19.786 6.4014 19.9539 6.34924C20.0642 6.31501 20.1691 6.27914 20.2751 6.24382C20.3805 6.20796 20.4843 6.1721 20.5853 6.13461C20.6772 6.10092 20.7668 6.0656 20.8543 6.03082C20.9581 5.98844 21.0575 5.94551 21.1553 5.9015C21.2292 5.86835 21.3048 5.83683 21.3749 5.80206C21.5178 5.7325 21.6547 5.66023 21.783 5.58634L20.8108 12.8073C18.3336 12.0281 15.0315 10.5246 13.5296 9.81872C13.5317 9.78938 13.5382 9.76112 13.5382 9.73178C13.5382 9.13243 13.0503 8.64502 12.4515 8.64502C11.8521 8.64502 11.3647 9.13243 11.3647 9.73178C11.3647 10.3306 11.8521 10.8185 12.4515 10.8185C12.6096 10.8185 12.759 10.7821 12.8949 10.7213C14.5794 11.5184 18.0597 13.1051 20.6636 13.899L20.3577 16.173L21.4346 16.3197L21.721 14.1897C22.2769 14.3206 22.7339 14.3864 23.1061 14.3864C23.6446 14.3864 24.007 14.2489 24.2379 13.9739C24.4281 13.7474 24.5031 13.4626 24.4488 13.1714C24.3314 12.5449 23.6109 11.8836 22.1443 11.0484L23.0697 4.17029C23.0729 4.15453 23.0773 4.13877 23.0789 4.12247L23.1061 3.91164C23.1093 3.88827 23.111 3.86436 23.111 3.841C23.111 1.57782 17.4164 -0.000152588 12.3048 -0.000152588C7.19429 -0.000152588 1.50021 1.57782 1.50021 3.841C1.50021 3.86436 1.50184 3.88827 1.50456 3.91164L1.53227 4.12247C1.53282 4.12899 1.53499 4.13551 1.53608 4.14149L3.82751 21.1846C3.88022 22.718 6.8487 23.3923 8.62447 23.6591L8.78585 22.5843C5.83095 22.1409 4.91373 21.3721 4.91373 21.1428Z" fill="#3F8624"/>
</g>
<defs>
<clipPath id="clip0_313_68">
<rect width="24" height="24" fill="white"/>
</clipPath>
</defs>
</svg>
