<svg width="24" height="24" viewBox="0 0 24 24" fill="none" xmlns="http://www.w3.org/2000/svg">
<g clip-path="url(#clip0_343_1026)">
<path d="M24 0H0V24H24V0Z" fill="url(#paint0_linear_343_1026)"/>
<path fill-rule="evenodd" clip-rule="evenodd" d="M11.3803 8.91606H13.0205V8.36983H11.3803V8.91606ZM11.3803 7.28611H14.1139V6.73989H11.3803V7.28611ZM13.5672 10.528H16.8476V9.98176H13.5672V10.528ZM14.1139 8.91606H16.8476V8.36983H14.1139V8.91606ZM18.4533 15.4129H14.1139V15.9591H18.7266C18.8775 15.9591 19 15.8368 19 15.686V11.084H18.4533V15.4129ZM17.9727 6.73989L15.7158 4.85649V6.73989H17.9727ZM19 7.013V9.44536H18.4533V7.28611H15.4425C15.2916 7.28611 15.1691 7.16376 15.1691 7.013V4.54623L10.8249 4.54732V8.25021H10.2781V4.27421C10.2781 4.12345 10.4006 4.00109 10.5515 4.00109L15.4425 4C15.5059 4 15.5677 4.0213 15.618 4.06336L18.9016 6.80325C18.9656 6.85623 19 6.9338 19 7.013ZM5.9131 14.9077H6.45982V12.7227H5.9131V14.9077ZM7.00654 15.4539H7.55327V11.6303H7.00654V15.4539ZM8.11694 14.9077H8.66366V12.1765H8.11694V14.9077ZM9.16774 15.4539H9.71446V11.6303H9.16774V15.4539ZM10.2694 14.9077H10.8161V12.1765H10.2694V14.9077ZM11.3716 15.4539H11.9183V11.6303H11.3716V15.4539ZM12.4481 14.3614H12.9948V12.1765H12.4481V14.3614ZM12.7925 15.8494L13.2485 16.1509C12.3344 17.5323 10.9435 18.3254 9.43235 18.3254C8.61172 18.3254 7.68667 18.0834 6.97702 17.688L4.51185 18.9623C4.45882 18.988 4.4036 19 4.34947 19C4.25489 19 4.16468 18.9629 4.09743 18.8929C3.99301 18.7842 3.97005 18.6209 4.04057 18.4865L5.31717 16.0373C4.9875 15.5019 4.52552 14.5695 4.52552 13.5535C4.52552 10.9524 6.64024 8.9909 9.44438 8.9909C10.4148 8.9909 11.1135 9.29788 11.8642 9.7589L11.5782 10.2243C10.9063 9.81188 10.2863 9.53713 9.44438 9.53713C7.32528 9.53713 5.07224 10.9448 5.07224 13.5535C5.07224 14.2598 5.35982 15.1059 5.86116 15.875C5.91529 15.9575 5.91966 16.0629 5.87428 16.1503L4.80927 18.1938L6.85948 17.1341C6.94422 17.0893 7.04536 17.0931 7.12737 17.1434C7.77032 17.5356 8.65327 17.7792 9.43235 17.7792C10.7762 17.7792 11.9697 17.0937 12.7925 15.8494Z" fill="white"/>
</g>
<defs>
<linearGradient id="paint0_linear_343_1026" x1="0" y1="24" x2="24" y2="0" gradientUnits="userSpaceOnUse">
<stop stop-color="#055F4E"/>
<stop offset="1" stop-color="#56C0A7"/>
</linearGradient>
<clipPath id="clip0_343_1026">
<rect width="24" height="24" rx="12" fill="white"/>
</clipPath>
</defs>
</svg>
