<svg width="24" height="24" viewBox="0 0 24 24" fill="none" xmlns="http://www.w3.org/2000/svg">
<path d="M3.10343 9.29012C1.41062 9.29012 0 10.0082 0 12.1749C0 13.8914 0.948552 14.9723 3.14706 14.9723C5.73486 14.9723 5.90073 13.2676 5.90073 13.2676H4.64686C4.64686 13.2676 4.37804 14.1855 3.07061 14.1855C2.00574 14.1855 1.23987 13.4662 1.23987 12.458H6.03194V11.8252C6.03194 10.8278 5.39872 9.29012 3.10343 9.29012ZM3.05964 10.0987C4.07328 10.0987 4.7643 10.7197 4.7643 11.6504H1.26756C1.26756 10.6623 2.16961 10.0987 3.05964 10.0987Z" fill="#E53238"/>
<path d="M6.03106 7.192V13.8842C6.03106 14.2641 6.00392 14.7975 6.00392 14.7975H7.19984C7.19984 14.7975 7.24283 14.4144 7.24283 14.0643C7.24283 14.0643 7.8337 14.9887 9.44037 14.9887C11.1322 14.9887 12.2815 13.814 12.2815 12.1312C12.2815 10.5656 11.2259 9.30645 9.44309 9.30645C7.77366 9.30645 7.25492 10.2079 7.25492 10.2079V7.192H6.03106ZM9.13441 10.1342C10.2833 10.1342 11.014 10.9869 11.014 12.1312C11.014 13.3583 10.1701 14.161 9.14265 14.161C7.9164 14.161 7.25492 13.2034 7.25492 12.1421C7.25492 11.1531 7.84843 10.1342 9.13441 10.1342Z" fill="#0064D2"/>
<path d="M15.2538 9.29012C12.7071 9.29012 12.5438 10.6845 12.5438 10.9074H13.8114C13.8114 10.9074 13.8778 10.0933 15.1664 10.0933C16.0036 10.0933 16.6525 10.4766 16.6525 11.2133V11.4756H15.1664C13.1934 11.4756 12.1504 12.0528 12.1504 13.224C12.1504 14.3766 13.1141 15.0038 14.4165 15.0038C16.1914 15.0038 16.7632 14.023 16.7632 14.023C16.7632 14.4131 16.7932 14.7975 16.7932 14.7975H17.92C17.92 14.7975 17.8764 14.3211 17.8764 14.0162V11.3813C17.8764 9.65364 16.4828 9.29012 15.2538 9.29012ZM16.6525 12.2623V12.612C16.6525 13.0681 16.371 14.2019 14.7142 14.2019C13.807 14.2019 13.418 13.7492 13.418 13.2239C13.418 12.2685 14.7279 12.2623 16.6525 12.2623Z" fill="#F5AF02"/>
<path d="M17.1938 9.50882H18.6198L20.6663 13.609L22.7082 9.50882H24L20.2808 16.8084H18.9257L19.9989 14.7735L17.1938 9.50882Z" fill="#86B817"/>
</svg>
