<svg width="24" height="24" viewBox="0 0 24 24" fill="none" xmlns="http://www.w3.org/2000/svg">
<path d="M6.78664 12.028C6.78664 10.7801 6.78857 9.53122 6.78375 8.28427C6.78375 8.11082 6.89842 8.00289 7.07188 8.00289C7.39277 8.00096 7.71559 8 8.03648 8.00289C8.21861 8.00482 8.32461 8.11564 8.32268 8.2862C8.31786 9.39053 8.31979 10.4968 8.31979 11.6011V11.6618C8.32172 11.7842 8.37568 11.8738 8.48842 11.922C8.59732 11.9683 8.69946 11.9442 8.78812 11.8497C9.1119 11.5028 9.43472 11.155 9.75657 10.8071C9.95412 10.5932 10.1546 10.3821 10.3502 10.1672C10.4244 10.0863 10.5101 10.0477 10.621 10.0497C11.0247 10.0525 11.4304 10.0525 11.8342 10.0497C11.9537 10.0497 12.0481 10.0863 12.0982 10.1971C12.1493 10.3118 12.1252 10.4139 12.0394 10.5074C11.4333 11.1781 10.8291 11.8497 10.2239 12.5204C10.1758 12.5744 10.1285 12.6303 10.091 12.692C10.0235 12.8008 10.0235 12.9078 10.0861 13.0186C10.1536 13.1381 10.249 13.2345 10.3434 13.3318C11.0768 14.0854 11.812 14.8389 12.5473 15.5906C12.6359 15.6821 12.6619 15.7823 12.6176 15.8999C12.5752 16.0098 12.4914 16.0599 12.3536 16.0599C11.9045 16.0599 11.4545 16.0579 11.0054 16.0599C10.9043 16.0599 10.8262 16.0281 10.7539 15.951C10.1016 15.2658 9.44435 14.5845 8.78908 13.9023C8.69561 13.804 8.59153 13.7789 8.48361 13.8242C8.37472 13.8676 8.31786 13.9601 8.31786 14.094V15.7737C8.31786 15.9548 8.22631 16.0483 8.04708 16.0493H7.06031C6.86277 16.0493 6.78568 15.9712 6.78568 15.7766L6.78664 12.028ZM12.9096 10.7724C12.9096 9.94655 12.9125 9.11975 12.9067 8.29391C12.9048 8.10696 13.0137 8 13.2035 8C13.5157 8.00193 13.826 8 14.1373 8C14.3194 8 14.4235 8.10215 14.4235 8.28331C14.4254 8.76513 14.4254 9.24791 14.4264 9.72973C14.4264 9.93788 14.5333 10.0458 14.7395 10.0458H16.0356C16.1725 10.0458 16.2621 10.12 16.2891 10.2539C16.3026 10.3185 16.2977 10.3831 16.2997 10.4496V11.2484C16.2997 11.4575 16.2062 11.551 15.9971 11.551C15.5827 11.551 15.1684 11.5491 14.754 11.5491C14.542 11.5491 14.4331 11.656 14.4312 11.8652C14.4293 12.2901 14.4225 12.7132 14.4283 13.1381C14.437 13.7857 14.9332 14.3822 15.5779 14.5344C15.7677 14.5797 15.9605 14.5874 16.1532 14.5604C16.3103 14.5383 16.424 14.6221 16.4423 14.7802C16.4818 15.1165 16.5175 15.4537 16.5521 15.7901C16.5656 15.9182 16.4722 16.0358 16.3401 16.057C15.9846 16.1177 15.629 16.0965 15.2792 16.0175C14.0303 15.738 13.1129 14.7397 12.9337 13.4744C12.9154 13.3492 12.9096 13.2239 12.9096 13.0996V10.7724ZM23.9982 14.7185C23.9982 14.6038 23.9105 14.5238 23.7958 14.518C23.7178 14.5152 23.6407 14.5123 23.5626 14.5055C23.1637 14.4756 22.9584 14.2887 22.8861 13.8955C22.8303 13.5958 22.8322 13.2913 22.8303 12.9868C22.8274 12.1128 22.8283 11.2388 22.8283 10.3648C22.8283 10.3387 22.8283 10.3147 22.8264 10.2896C22.8158 10.1479 22.7137 10.0468 22.5701 10.0468C22.2338 10.0448 21.8965 10.0448 21.5602 10.0468C21.4079 10.0468 21.3 10.1557 21.2932 10.306C21.2913 10.3426 21.2932 10.3802 21.2932 10.4236C21.2643 10.4081 21.2422 10.3975 21.221 10.3869C20.6139 10.068 19.9702 9.96486 19.2937 10.0776C17.5717 10.3667 16.449 12.0916 16.8769 13.7838C17.4204 15.9307 19.9943 16.7855 21.7163 15.3882C21.7568 15.3555 21.7731 15.3564 21.8049 15.4007C21.9823 15.6542 22.2164 15.8373 22.5074 15.9481C22.8283 16.0705 23.1627 16.0869 23.5019 16.0628C23.6224 16.0541 23.7419 16.0367 23.8517 15.9818C23.9298 15.9423 23.9934 15.8835 23.9953 15.7939C24.002 15.4354 24.0001 15.077 23.9982 14.7185ZM19.8083 14.5633C18.9709 14.5604 18.305 13.8792 18.3079 13.0254C18.3108 12.2178 18.995 11.5472 19.816 11.5491C20.6582 11.551 21.3231 12.2275 21.3212 13.0832C21.3183 13.8898 20.6293 14.5643 19.8083 14.5633ZM3.02556 10.0342C1.42592 10.0371 0.0363544 11.2725 0.000699778 12.9888C-0.0359185 14.7638 1.37003 16.0339 2.9398 16.0734C4.61845 16.1158 6.00898 14.7908 6.03789 13.1169C6.06584 11.4132 4.7312 10.0535 3.02556 10.0342ZM3.01496 14.5633C2.18912 14.5633 1.51168 13.8849 1.50976 13.0562C1.50783 12.2265 2.1843 11.5491 3.01785 11.5462C3.84947 11.5443 4.52305 12.2198 4.52305 13.0543C4.52305 13.8888 3.84947 14.5633 3.01496 14.5633Z" fill="#007DC1"/>
</svg>
