<svg width="24" height="25" viewBox="0 0 24 25" fill="none" xmlns="http://www.w3.org/2000/svg">
<path d="M19.9895 0H4.01046C1.79529 0 0 1.79529 0 4.01046V19.9895C0 22.2047 1.79529 24 4.01046 24H19.9895C22.2047 24 24 22.2047 24 19.9895V4.01046C24 1.79529 22.2047 0 19.9895 0ZM19.6372 18.3704C19.6372 19.0702 19.0702 19.6372 18.3704 19.6372H5.6296C4.92982 19.6372 4.36276 19.0702 4.36276 18.3704V5.6296C4.36276 4.92982 4.92982 4.36276 5.6296 4.36276H18.3704C19.0702 4.36276 19.6372 4.92982 19.6372 5.6296V18.3704ZM9.45425 15.2576C9.05128 15.2576 8.72793 14.9318 8.72793 14.5289V9.44219C8.72793 9.03921 9.05128 8.71104 9.45425 8.71104H14.5482C14.9487 8.71104 15.2745 9.0368 15.2745 9.44219V14.5264C15.2745 14.9294 14.9487 15.2552 14.5482 15.2552H9.45425V15.2576Z" fill="#1A1A1A"/>
</svg>
