<svg width="24" height="24" viewBox="0 0 24 24" fill="none" xmlns="http://www.w3.org/2000/svg">
<path fill-rule="evenodd" clip-rule="evenodd" d="M24 3.89149C24 4.53827 23.5815 5.07091 22.8586 5.07091C22.1361 5.07091 21.7172 4.53827 21.7172 3.89149C21.7172 3.24471 22.1361 2.71206 22.8586 2.71206C23.5815 2.71206 24 3.24471 24 3.89149ZM23.7717 3.89149C23.7717 3.35884 23.3913 2.94034 22.8586 2.94034C22.3264 2.94034 21.9459 3.3208 21.9459 3.89149C21.9459 4.42413 22.3264 4.84263 22.8586 4.84263C23.4293 4.84263 23.7717 4.42413 23.7717 3.89149ZM22.4025 3.35884H22.8971C23.1634 3.35884 23.3536 3.51103 23.3536 3.7393C23.3536 3.89149 23.2775 3.96758 23.1634 4.04367L23.3536 4.30999V4.34804H23.0873L22.8971 4.08172H22.6684V4.34804H22.4025V3.35884ZM22.8971 3.58712H22.6684V3.85344H22.8971C23.0108 3.85344 23.0489 3.8154 23.0489 3.7393C23.0873 3.66321 23.0108 3.58712 22.8971 3.58712ZM7.60223 12.8323C7.64027 12.6801 7.6787 12.5279 7.6787 12.3757C7.6787 12.2616 7.64027 12.1474 7.64027 12.0333C7.52613 11.6909 7.33591 11.3865 6.99349 11.1963L2.12362 8.41895C1.43879 8.03849 0.563739 8.26676 0.18328 8.95159C-0.197179 9.63642 0.0310962 10.5115 0.715922 10.8919L3.41718 12.4518L0.715922 14.0117C0.0310962 14.3921 -0.197179 15.2672 0.18328 15.952C0.563739 16.6369 1.43879 16.8651 2.12362 16.4847L6.95545 13.7073C7.29824 13.441 7.52613 13.1747 7.60223 12.8323ZM8.93383 15.4574C8.66751 15.4194 8.36314 15.4955 8.09682 15.6477L3.265 18.425C2.58017 18.8055 2.35228 19.6805 2.73273 20.3654C3.11319 21.0502 3.98787 21.2785 4.67269 20.898L7.37395 19.3381V22.4579C7.37395 23.2568 8.02073 23.8656 8.82007 23.8656C9.61866 23.8656 10.2274 23.2188 10.2274 22.4579V16.8651C10.2274 16.1042 9.6567 15.4955 8.93383 15.4574ZM13.8798 9.37009C14.1465 9.40814 14.4505 9.33205 14.7172 9.17986L19.549 6.40251C20.2338 6.02206 20.4617 5.147 20.0813 4.46218C19.7008 3.77735 18.8258 3.54907 18.1413 3.92953L15.4397 5.48941V2.4077C15.4397 1.60873 14.7933 1 13.9939 1C13.1954 1 12.5482 1.60873 12.5482 2.4077V7.9624C12.5482 8.72331 13.1569 9.33205 13.8798 9.37009ZM3.265 6.40251L8.09682 9.17986C8.36314 9.33205 8.62985 9.37009 8.93383 9.37009C9.6567 9.33205 10.2654 8.68527 10.2654 7.9624V2.4077C10.2654 1.60873 9.61866 1 8.85774 1C8.05916 1 7.412 1.64678 7.412 2.4077V5.52746L4.71074 3.96758C4.02591 3.58712 3.15086 3.8154 2.7704 4.50022C2.35228 5.147 2.58017 6.02206 3.265 6.40251ZM12.358 12.4138C12.358 12.3377 12.3199 12.2235 12.2442 12.1474L11.6735 11.5768C11.597 11.5007 11.521 11.4626 11.4068 11.4626C11.3307 11.4626 11.2166 11.5007 11.1405 11.5768L10.5698 12.1474C10.4937 12.2235 10.4557 12.3377 10.4557 12.4138C10.4557 12.4899 10.4937 12.604 10.5698 12.6801L11.1405 13.2508C11.2166 13.3269 11.2931 13.3649 11.4068 13.3649C11.4833 13.3649 11.597 13.3269 11.6735 13.2508L12.2442 12.6801C12.3199 12.604 12.358 12.4899 12.358 12.4138ZM13.9563 12.9464L11.9395 14.9628C11.9014 15.0009 11.7873 15.077 11.7112 15.077H11.559H11.2546H11.1028C11.0264 15.077 10.9126 15.0389 10.8361 14.9628L8.82007 12.9464C8.78165 12.9084 8.7436 12.7942 8.7436 12.7181V12.5659V12.2616V12.1094C8.7436 12.0333 8.78165 11.9192 8.85774 11.8431L10.8742 9.82664C10.9503 9.75055 11.0644 9.71251 11.1405 9.71251H11.2931H11.597H11.7492C11.8253 9.71251 11.9395 9.75055 12.0155 9.82664L14.0324 11.8431C14.1081 11.9192 14.1465 11.9953 14.1465 12.1094V12.2616V12.5659V12.7181C14.07 12.7942 14.0324 12.9084 13.9563 12.9464ZM19.549 18.387L14.7172 15.6096C14.4505 15.4574 14.1465 15.4194 13.8798 15.4574C13.1569 15.4955 12.5482 16.1423 12.5482 16.8651V22.4198C12.5482 23.2188 13.1954 23.8275 13.9563 23.8275C14.7549 23.8275 15.4016 23.1807 15.4016 22.4198V19.3001L18.1029 20.8599C18.7881 21.2404 19.6632 21.0121 20.0436 20.3273C20.4617 19.6805 20.2338 18.8055 19.549 18.387ZM22.0977 10.8539L19.3964 12.4138L22.0977 13.9736C22.7829 14.3541 23.0108 15.2292 22.6303 15.914C22.2499 16.5988 21.3752 16.8271 20.6904 16.4466L15.8586 13.6693C15.5542 13.479 15.3255 13.1747 15.2114 12.8703C15.1737 12.7181 15.1353 12.5659 15.1353 12.4138C15.1353 12.2996 15.1737 12.1855 15.1737 12.0714C15.2879 11.7289 15.5158 11.4246 15.8201 11.2343L20.652 8.45699C21.3368 8.07653 22.2122 8.30481 22.5927 8.98963C23.0489 9.59837 22.7829 10.4734 22.0977 10.8539Z" fill="#2BB5E9"/>
</svg>
