<svg width="24" height="24" viewBox="0 0 24 24" fill="none" xmlns="http://www.w3.org/2000/svg">
<path fill-rule="evenodd" clip-rule="evenodd" d="M3.62035 18.311V16.777C3.62035 16.5756 3.74637 16.4136 3.95499 16.4136H4.01283C4.2214 16.4136 4.34682 16.5757 4.34682 16.777V20.0065C4.34682 20.794 3.9577 21.4206 3.27978 21.8198C2.96542 22.0048 2.61807 22.0997 2.25365 22.0997H2.1096C1.32192 22.0997 0.696061 21.7103 0.296245 21.0327C0.110722 20.7181 0.0164795 20.3713 0.0164795 20.0065V19.8625C0.0164795 19.0747 0.405802 18.4485 1.08322 18.0486C1.39784 17.8629 1.74468 17.7688 2.1096 17.7688H2.25365C2.78672 17.7688 3.23901 17.9754 3.62035 18.311ZM0.742856 19.9344C0.742856 20.5032 1.01861 20.9309 1.51708 21.2037C1.71862 21.314 1.93748 21.3732 2.16744 21.3732C2.72582 21.3732 3.13994 21.1098 3.42563 20.6367C3.55849 20.4165 3.62035 20.1757 3.62035 19.9197C3.62035 19.4265 3.38687 19.0417 2.98952 18.7559C2.74856 18.5826 2.47733 18.4957 2.18155 18.4957C1.57296 18.4957 1.13499 18.8031 0.872095 19.3493C0.783375 19.534 0.742856 19.7301 0.742856 19.9344ZM6.86702 17.7688H6.96769C7.8094 17.7688 8.44947 18.1771 8.85516 18.9118C9.01738 19.2057 9.10414 19.5264 9.10414 19.8625V20.0065C9.10414 20.794 8.71583 21.4215 8.0368 21.8199C7.72244 22.0043 7.37519 22.0997 7.01087 22.0997H6.86702C6.07934 22.0997 5.45338 21.7103 5.05367 21.0327C4.86814 20.7181 4.7737 20.3713 4.7737 20.0065V19.8625C4.7737 19.0746 5.16448 18.4505 5.84025 18.0488C6.15445 17.8621 6.5019 17.7688 6.86702 17.7688ZM5.50008 19.9344C5.50008 20.4866 5.77111 20.8928 6.2375 21.1784C6.45651 21.3125 6.69767 21.3732 6.95358 21.3732C7.49921 21.3732 7.90249 21.0966 8.18321 20.6361C8.31707 20.4165 8.37762 20.1753 8.37762 19.9197C8.37762 19.4062 8.13029 19.0139 7.70753 18.7297C7.47581 18.5738 7.21789 18.4957 6.93887 18.4957C6.33029 18.4957 5.89231 18.8031 5.62952 19.3493C5.5406 19.534 5.50008 19.7301 5.50008 19.9344ZM12.1242 18.5537C12.0145 18.5024 11.8092 18.4853 11.6906 18.4808C11.0837 18.4579 10.6446 18.7997 10.3869 19.3351C10.298 19.5198 10.2574 19.7153 10.2574 19.9197C10.2574 20.5419 10.5841 20.9775 11.1395 21.2431C11.3424 21.34 11.6043 21.3585 11.826 21.3585C12.0211 21.3585 12.2966 21.239 12.4697 21.1568L12.4997 21.1426H12.634L12.6488 21.1456C12.8141 21.1799 12.9388 21.2847 12.9388 21.4624V21.5343C12.9388 21.9766 12.1305 22.0779 11.822 22.0994C10.7336 22.1748 9.91954 21.577 9.6092 20.5387C9.55527 20.3585 9.53102 20.1795 9.53102 19.9916V19.8478C9.53102 19.06 9.9219 18.4361 10.5976 18.0347C10.9118 17.8481 11.2592 17.7544 11.6242 17.7544H11.7682C12.1554 17.7544 12.512 17.8644 12.8317 18.0827L12.858 18.1009L12.8746 18.1283C12.909 18.1855 12.9388 18.2516 12.9388 18.3198V18.3917C12.9388 18.5771 12.8 18.6768 12.6325 18.7091L12.6187 18.7115H12.5758C12.4673 18.7115 12.2209 18.5993 12.1242 18.5537ZM14.4804 19.0456C14.7626 18.7631 15.0458 18.4811 15.3321 18.2032C15.412 18.1257 15.7141 17.7976 15.8331 17.7976H15.9632L15.978 17.8006C16.1437 17.835 16.2679 17.94 16.2679 18.1181V18.1899C16.2679 18.3114 16.1256 18.4526 16.0471 18.5357C15.8802 18.7126 15.7045 18.8838 15.5337 19.057L14.6561 19.9479C15.034 20.3267 15.4115 20.7058 15.7863 21.0874C15.89 21.193 15.9937 21.2987 16.0958 21.4058C16.1319 21.4437 16.1851 21.491 16.2154 21.5436C16.2479 21.5929 16.2679 21.6485 16.2679 21.7078V21.7829L16.2637 21.8002C16.2229 21.9659 16.1177 22.0997 15.934 22.0997H15.8762C15.756 22.0997 15.6203 21.9636 15.5379 21.886C15.3683 21.726 15.2045 21.5578 15.0382 21.3945L14.4804 20.847V21.722C14.4804 21.9236 14.3543 22.0855 14.1459 22.0855H14.0886C13.88 22.0855 13.754 21.9236 13.754 21.722V16.7911C13.754 16.5895 13.8801 16.4283 14.0886 16.4283H14.1459C14.3543 16.4283 14.4804 16.5895 14.4804 16.7911V19.0456ZM23.5346 17.7976H23.6067C23.8246 17.7976 23.97 17.9444 23.97 18.161C23.97 18.4617 23.6825 18.5387 23.4337 18.5387C23.1074 18.5387 22.796 18.7362 22.5711 18.9578C22.2906 19.2342 22.1679 19.5883 22.1679 19.9776V21.7362C22.1679 21.9379 22.0421 22.0997 21.8332 22.0997H21.7759C21.5671 22.0997 21.4413 21.9379 21.4413 21.7362V19.8766C21.4413 19.1625 21.7889 18.5796 22.3684 18.1708C22.7146 17.9265 23.1109 17.7976 23.5346 17.7976ZM18.3713 21.2828C18.6357 21.3751 18.9371 21.3619 19.2083 21.3147C19.347 21.2557 19.7019 21.101 19.8323 21.1236L19.8527 21.127L19.8715 21.1363C19.9511 21.1749 20.0272 21.2295 20.0678 21.3106C20.1629 21.5007 20.1172 21.6917 19.9305 21.7996L19.8683 21.8355C19.1792 22.2333 18.4463 22.1781 17.7595 21.8066C17.431 21.6291 17.1798 21.3655 16.9945 21.0443L16.9511 20.9692C16.5087 20.2031 16.5684 19.3972 17.0673 18.6687C17.2396 18.4169 17.4647 18.2223 17.7279 18.0702L17.8274 18.0127C18.4764 17.6381 19.1719 17.6637 19.8384 17.9925C20.1968 18.1693 20.4871 18.4329 20.6872 18.7795L20.7232 18.8419C20.8685 19.0937 20.6802 19.3131 20.4859 19.4631C20.2603 19.6371 20.0326 19.8465 19.8164 20.0331C19.3344 20.4492 18.8531 20.8663 18.3713 21.2828ZM17.7474 20.8446C18.2866 20.3823 18.8258 19.9198 19.3634 19.4556C19.5471 19.2972 19.7486 19.1327 19.9309 18.9661C19.7846 18.7818 19.5403 18.649 19.3327 18.5697C18.9138 18.4101 18.5005 18.4637 18.1163 18.6855C17.6133 18.9759 17.3991 19.4385 17.4179 20.014C17.4253 20.2407 17.4863 20.4591 17.6066 20.6519C17.6489 20.7199 17.6963 20.7837 17.7474 20.8446Z" fill="#364548"/>
<path fill-rule="evenodd" clip-rule="evenodd" d="M13.8269 6.28741H15.9706V8.4788H17.0545C17.5551 8.4788 18.0699 8.38962 18.544 8.229C18.7769 8.15003 19.0383 8.04012 19.2681 7.90189C18.9655 7.5068 18.811 7.00792 18.7655 6.51617C18.7037 5.84733 18.8386 4.97675 19.2913 4.45327L19.5167 4.19264L19.7852 4.40849C20.4612 4.95165 21.0298 5.71061 21.13 6.57582C21.9441 6.33637 22.8998 6.393 23.6173 6.80713L23.9117 6.97699L23.7568 7.2794C23.1499 8.46373 21.8813 8.83061 20.641 8.76569C18.785 13.3884 14.7443 15.5769 9.84501 15.5769C7.31386 15.5769 4.99158 14.6307 3.66917 12.385L3.64748 12.3483L3.45483 11.9563C3.00782 10.9678 2.85935 9.8849 2.96007 8.8029L2.99029 8.4788H4.82338V6.28741H6.96701V4.14368H11.2545V2H13.8269V6.28741Z" fill="#364548"/>
<path fill-rule="evenodd" clip-rule="evenodd" d="M20.7722 7.09809C20.916 5.98104 20.08 5.10358 19.5615 4.687C18.9641 5.37772 18.8712 7.18802 19.8085 7.95019C19.2855 8.41483 18.1832 8.83598 17.0546 8.83598H3.31598C3.20622 10.0141 3.41308 11.0991 3.88545 12.0277L4.04175 12.3136C4.14071 12.4815 4.24882 12.6436 4.36565 12.7996C4.93046 12.8359 5.45128 12.8485 5.92771 12.8379H5.92791C6.86421 12.8172 7.62815 12.7067 8.20716 12.5061C8.29337 12.4761 8.38731 12.5218 8.41713 12.608C8.44691 12.6941 8.40132 12.7881 8.31521 12.8179C8.23824 12.8446 8.15795 12.8695 8.07506 12.8932C8.07496 12.8933 8.07486 12.8933 8.07476 12.8933C7.61886 13.0235 7.13002 13.1111 6.49924 13.15C6.53665 13.1506 6.46023 13.1556 6.46003 13.1557C6.43859 13.157 6.41158 13.1601 6.39004 13.1613C6.1418 13.1752 5.87384 13.1781 5.59989 13.1781C5.3003 13.1781 5.00522 13.1724 4.67534 13.1557L4.66691 13.1613C5.81163 14.4479 7.60148 15.2195 9.84503 15.2195C14.5933 15.2195 18.6208 13.1147 20.4043 8.38912C21.6696 8.51896 22.8856 8.19632 23.4388 7.11652C22.5577 6.60805 21.4246 6.77018 20.7722 7.09809Z" fill="#22A0C8"/>
<path fill-rule="evenodd" clip-rule="evenodd" d="M20.7722 7.09809C20.9159 5.98104 20.0799 5.10358 19.5615 4.687C18.964 5.37772 18.8712 7.18802 19.8085 7.95019C19.2854 8.41483 18.1831 8.83598 17.0545 8.83598H4.12948C4.0734 10.6403 4.74299 12.0099 5.92768 12.8379H5.92788C6.86418 12.8172 7.62811 12.7067 8.20712 12.5061C8.29333 12.4761 8.38727 12.5218 8.4171 12.608C8.44687 12.6941 8.40128 12.7881 8.31517 12.8179C8.2382 12.8446 8.15792 12.8695 8.07502 12.8932L8.07472 12.8933C7.61882 13.0235 7.08796 13.1223 6.45718 13.1613C6.45718 13.1613 6.44192 13.1466 6.44172 13.1467C8.05765 13.9756 10.4008 13.9726 13.0872 12.9407C16.0995 11.7835 18.9024 9.57883 20.8582 7.05722C20.8287 7.07053 20.7999 7.08418 20.7722 7.09809Z" fill="#37B1D9"/>
<path fill-rule="evenodd" clip-rule="evenodd" d="M3.34167 10.2674C3.42708 10.8985 3.61165 11.4894 3.88544 12.0277L4.04174 12.3136C4.1407 12.4815 4.2488 12.6436 4.36569 12.7996C4.9306 12.8359 5.45142 12.8485 5.9279 12.8379C6.8642 12.8172 7.62813 12.7067 8.20715 12.5061C8.29336 12.4761 8.3873 12.5218 8.41712 12.608C8.4469 12.6941 8.40131 12.7881 8.3152 12.8179C8.23823 12.8446 8.15794 12.8695 8.07505 12.8932L8.07475 12.8933C7.61885 13.0235 7.0908 13.1167 6.46002 13.1557C6.43838 13.157 6.40062 13.1572 6.37878 13.1584C6.13064 13.1724 5.86544 13.1809 5.59145 13.1809C5.2919 13.1809 4.98557 13.1752 4.65575 13.1584C5.80042 14.4451 7.60147 15.2195 9.84502 15.2195C13.91 15.2195 17.4466 13.6766 19.4993 10.2674H3.34167Z" fill="#1B81A5"/>
<path fill-rule="evenodd" clip-rule="evenodd" d="M4.25317 10.2674C4.49619 11.3755 5.08017 12.2454 5.9279 12.8379C6.8642 12.8172 7.62814 12.7067 8.20715 12.5061C8.29336 12.4761 8.3873 12.5218 8.41712 12.608C8.4469 12.6941 8.40131 12.7881 8.3152 12.8179C8.23823 12.8446 8.15794 12.8695 8.07505 12.8932L8.07475 12.8933C7.61885 13.0235 7.0796 13.1167 6.44882 13.1557C8.06465 13.9844 10.401 13.9725 13.0872 12.9407C14.7123 12.3163 16.2763 11.3869 17.6795 10.2674H4.25317Z" fill="#1D91B4"/>
<path fill-rule="evenodd" clip-rule="evenodd" d="M5.18066 6.64465H7.0385V8.5026H5.18066V6.64465ZM5.33541 6.7995H5.48202V8.34785H5.33541V6.7995ZM5.61106 6.7995H5.76354V8.34785H5.61106V6.7995ZM5.89248 6.7995H6.04497V8.34785H5.89248V6.7995ZM6.17405 6.7995H6.32654V8.34785H6.17405V6.7995ZM6.45558 6.7995H6.60806V8.34785H6.45558V6.7995ZM6.73705 6.7995H6.88376V8.34785H6.73705V6.7995Z" fill="#23A3C2"/>
<path fill-rule="evenodd" clip-rule="evenodd" d="M7.32428 4.50097H9.18232V6.35881H7.32428V4.50097ZM7.47922 4.65581H7.62574V6.20402H7.47922V4.65581ZM7.75487 4.65581H7.90726V6.20402H7.75487V4.65581ZM8.03625 4.65581H8.18873V6.20402H8.03625V4.65581ZM8.31777 4.65581H8.47025V6.20402H8.31777V4.65581ZM8.59934 4.65581H8.75183V6.20402H8.59934V4.65581ZM8.88076 4.65581H9.02758V6.20402H8.88076V4.65581Z" fill="#23A3C2"/>
<path fill-rule="evenodd" clip-rule="evenodd" d="M7.32428 6.64465H9.18232V8.5026H7.32428V6.64465ZM7.47922 6.7995H7.62574V8.34785H7.47922V6.7995ZM7.75487 6.7995H7.90726V8.34785H7.75487V6.7995ZM8.03625 6.7995H8.18873V8.34785H8.03625V6.7995ZM8.31777 6.7995H8.47025V8.34785H8.31777V6.7995ZM8.59934 6.7995H8.75183V8.34785H8.59934V6.7995ZM8.88076 6.7995H9.02758V8.34785H8.88076V6.7995Z" fill="#34BBDE"/>
<path fill-rule="evenodd" clip-rule="evenodd" d="M9.46808 6.64465H11.326V8.5026H9.46808V6.64465ZM9.62292 6.7995H9.76943V8.34785H9.62292V6.7995ZM9.89852 6.7995H10.051V8.34785H9.89852V6.7995ZM10.18 6.7995H10.3325V8.34785H10.18V6.7995ZM10.4616 6.7995H10.6141V8.34785H10.4616V6.7995ZM10.743 6.7995H10.8956V8.34785H10.743V6.7995ZM11.0246 6.7995H11.1712V8.34785H11.0246V6.7995Z" fill="#23A3C2"/>
<path fill-rule="evenodd" clip-rule="evenodd" d="M9.46808 4.50097H11.326V6.35881H9.46808V4.50097ZM9.62292 4.65581H9.76943V6.20402H9.62292V4.65581ZM9.89852 4.65581H10.051V6.20402H9.89852V4.65581ZM10.18 4.65581H10.3325V6.20402H10.18V4.65581ZM10.4616 4.65581H10.6141V6.20402H10.4616V4.65581ZM10.743 4.65581H10.8956V6.20402H10.743V4.65581ZM11.0246 4.65581H11.1712V6.20402H11.0246V4.65581Z" fill="#34BBDE"/>
<path fill-rule="evenodd" clip-rule="evenodd" d="M11.6118 6.64465H13.4696V8.5026H11.6118V6.64465ZM11.7666 6.7995H11.9132V8.34785H11.7666V6.7995ZM12.0422 6.7995H12.1947V8.34785H12.0422V6.7995ZM12.3237 6.7995H12.4762V8.34785H12.3237V6.7995ZM12.6052 6.7995H12.7577V8.34785H12.6052V6.7995ZM12.8868 6.7995H13.0393V8.34785H12.8868V6.7995ZM13.1682 6.7995H13.3149V8.34785H13.1682V6.7995Z" fill="#34BBDE"/>
<path fill-rule="evenodd" clip-rule="evenodd" d="M11.6118 4.50097H13.4696V6.35881H11.6118V4.50097ZM11.7666 4.65581H11.9132V6.20402H11.7666V4.65581ZM12.0422 4.65581H12.1947V6.20402H12.0422V4.65581ZM12.3237 4.65581H12.4762V6.20402H12.3237V4.65581ZM12.6052 4.65581H12.7577V6.20402H12.6052V4.65581ZM12.8868 4.65581H13.0393V6.20402H12.8868V4.65581ZM13.1682 4.65581H13.3149V6.20402H13.1682V4.65581Z" fill="#23A3C2"/>
<path fill-rule="evenodd" clip-rule="evenodd" d="M11.6118 2.35724H13.4696V4.21518H11.6118V2.35724ZM11.7666 2.51198H11.9132V4.06033H11.7666V2.51198ZM12.0422 2.51198H12.1947V4.06033H12.0422V2.51198ZM12.3237 2.51198H12.4762V4.06033H12.3237V2.51198ZM12.6052 2.51198H12.7577V4.06033H12.6052V2.51198ZM12.8868 2.51198H13.0393V4.06033H12.8868V2.51198ZM13.1682 2.51198H13.3149V4.06033H13.1682V2.51198Z" fill="#34BBDE"/>
<path fill-rule="evenodd" clip-rule="evenodd" d="M13.7555 6.64465H15.6134V8.5026H13.7555V6.64465ZM13.9102 6.7995H14.0569V8.34785H13.9102V6.7995ZM14.1859 6.7995H14.3384V8.34785H14.1859V6.7995ZM14.4675 6.7995H14.6199V8.34785H14.4675V6.7995ZM14.7489 6.7995H14.9014V8.34785H14.7489V6.7995ZM15.0305 6.7995H15.1829V8.34785H15.0305V6.7995ZM15.312 6.7995H15.4586V8.34785H15.312V6.7995Z" fill="#23A3C2"/>
<path fill-rule="evenodd" clip-rule="evenodd" d="M9.06599 11.5148C9.34902 11.5148 9.57848 11.7444 9.57848 12.0274C9.57848 12.3105 9.34902 12.5399 9.06599 12.5399C8.78291 12.5399 8.55341 12.3105 8.55341 12.0274C8.55341 11.7444 8.78291 11.5148 9.06599 11.5148Z" fill="#D3ECEC"/>
<path fill-rule="evenodd" clip-rule="evenodd" d="M9.06598 11.6602C9.11288 11.6602 9.15761 11.6691 9.19889 11.6851C9.15415 11.711 9.12387 11.7594 9.12387 11.8148C9.12387 11.8976 9.19095 11.9646 9.2737 11.9646C9.33038 11.9646 9.37964 11.9331 9.4051 11.8866C9.42307 11.9299 9.43306 11.9775 9.43306 12.0274C9.43306 12.2301 9.26873 12.3945 9.06598 12.3945C8.86329 12.3945 8.69885 12.2301 8.69885 12.0274C8.69885 11.8246 8.86329 11.6602 9.06598 11.6602Z" fill="#364548"/>
<path fill-rule="evenodd" clip-rule="evenodd" d="M0 10.4527H23.8432C23.324 10.321 22.2006 10.1431 22.3859 9.46275C21.4419 10.5551 19.1653 10.2291 18.5908 9.69044C17.9509 10.6184 14.2263 10.2657 13.9665 9.54278C13.1644 10.4841 10.6789 10.4841 9.8768 9.54278C9.61692 10.2657 5.8923 10.6184 5.25244 9.69044C4.67789 10.2291 2.40151 10.5551 1.45742 9.46275C1.64269 10.1431 0.519264 10.321 0 10.4527Z" fill="#364548"/>
<path fill-rule="evenodd" clip-rule="evenodd" d="M10.4285 15.2084C9.15916 14.6061 8.46241 13.7873 8.07474 12.8933C7.60328 13.028 7.03646 13.114 6.37792 13.1509C6.12984 13.1648 5.8689 13.172 5.59501 13.172C5.27929 13.172 4.94661 13.1626 4.59735 13.1441C5.7614 14.3074 7.19347 15.2032 9.84502 15.2195C10.0408 15.2195 10.2351 15.2157 10.4285 15.2084Z" fill="#BDD9D7"/>
<path fill-rule="evenodd" clip-rule="evenodd" d="M8.54626 13.7182C8.37063 13.4798 8.20027 13.1802 8.07505 12.8932C7.60349 13.0279 7.03657 13.114 6.37793 13.1509C6.83031 13.3965 7.47736 13.624 8.54626 13.7182Z" fill="#D3ECEC"/>
</svg>
