<svg width="24" height="24" viewBox="0 0 24 24" fill="none" xmlns="http://www.w3.org/2000/svg">
<g clip-path="url(#clip0_343_950)">
<path d="M24 0H0V24H24V0Z" fill="url(#paint0_linear_343_950)"/>
<path fill-rule="evenodd" clip-rule="evenodd" d="M19.222 17.8062L15.3954 14.0806C15.0232 14.5829 14.5796 15.0274 14.0769 15.4003L17.8102 19.2228C17.9939 19.4066 18.2142 19.4226 18.3601 19.4025C18.5905 19.373 18.8298 19.2447 19.0341 19.0402C19.3868 18.6868 19.5646 18.1496 19.222 17.8062ZM10.3218 16.0581C13.4815 16.0581 16.0528 13.4861 16.0528 10.3242C16.0528 7.163 13.4815 4.59099 10.3218 4.59099C7.16148 4.59099 4.59071 7.163 4.59071 10.3242C4.59071 13.4861 7.16148 16.0581 10.3218 16.0581ZM19.4518 19.4581C19.1558 19.7547 18.7943 19.9433 18.4352 19.9888C18.3767 19.9965 18.32 20 18.2627 20C17.9313 20 17.6265 19.8747 17.3902 19.6383L13.5784 15.7348C12.6255 16.311 11.5138 16.6491 10.3218 16.6491C6.836 16.6491 4 13.8117 4 10.3242C4 6.83677 6.836 4 10.3218 4C13.8075 4 16.6435 6.83677 16.6435 10.3242C16.6435 11.5163 16.3057 12.6291 15.7303 13.5818L19.6367 17.3854C20.1843 17.9333 20.1051 18.8038 19.4518 19.4581ZM14.3427 10.3242C14.3427 8.06841 12.5765 6.30133 10.3218 6.30133C8.06703 6.30133 6.30081 8.06841 6.30081 10.3242C6.30081 12.5801 8.06703 14.3471 10.3218 14.3471C12.5765 14.3471 14.3427 12.5801 14.3427 10.3242ZM14.9334 10.3242C14.9334 12.9116 12.9079 14.9381 10.3218 14.9381C7.73565 14.9381 5.7101 12.9116 5.7101 10.3242C5.7101 7.73686 7.73565 5.71034 10.3218 5.71034C12.9079 5.71034 14.9334 7.73686 14.9334 10.3242ZM8.8704 11.4749H8.27969V12.6569H9.46111V12.0659H8.8704V11.4749ZM8.27969 9.11092H8.8704V8.51993H9.46111V7.92893H8.27969V9.11092ZM11.2332 8.51993H11.8239V9.11092H12.4147V7.92893H11.2332V8.51993ZM11.8239 11.4749H12.4147V12.6569H11.2332V12.0659H11.8239V11.4749Z" fill="white"/>
</g>
<defs>
<linearGradient id="paint0_linear_343_950" x1="0" y1="24" x2="24" y2="0" gradientUnits="userSpaceOnUse">
<stop stop-color="#055F4E"/>
<stop offset="1" stop-color="#56C0A7"/>
</linearGradient>
<clipPath id="clip0_343_950">
<rect width="24" height="24" rx="12" fill="white"/>
</clipPath>
</defs>
</svg>
