<svg width="24" height="24" viewBox="0 0 24 24" fill="none" xmlns="http://www.w3.org/2000/svg">
<path d="M24 9.402H18.134C16.548 6.361 14.872 4 12.59 4C9.62 4 8.223 6.593 6.873 9.115L6.755 9.335H0V10.835H3.934C5.324 10.835 5.607 11.303 5.607 11.303C4.517 12.994 3.207 14.666 1.023 14.666H0V16.24H1.03C5.264 16.24 7.113 12.806 8.597 10.047C9.958 7.506 10.907 5.967 12.59 5.967C14.337 5.967 16.174 9.768 17.791 13.124C18.028 13.612 18.268 14.112 18.511 14.607C12.311 14.804 9.356 16.256 6.952 17.44C5.193 18.306 3.805 19.38 1.519 19.38H0V20.954H1.507C4.261 20.954 5.977 20.104 7.802 19.203C10.332 17.96 13.2 16.551 19.959 16.551H23.866V14.977H21.66C21.4787 14.9908 21.2966 14.9626 21.128 14.8944C20.9593 14.8262 20.8088 14.72 20.688 14.584C20.2963 13.8173 19.9185 13.0435 19.555 12.263L19.044 11.216C19.044 11.216 19.41 10.823 20.424 10.823H24V9.402Z" fill="black"/>
</svg>
