<svg width="24" height="24" viewBox="0 0 24 24" fill="none" xmlns="http://www.w3.org/2000/svg">
<g clip-path="url(#clip0_313_117)">
<path d="M0 12C0 18.6274 5.37258 24 12 24C18.6274 24 24 18.6274 24 12C24 5.37258 18.6274 0 12 0C5.37258 0 0 5.37258 0 12Z" fill="url(#paint0_linear_313_117)"/>
<path fill-rule="evenodd" clip-rule="evenodd" d="M12.6237 11.121H14.6305V10.6195H12.6237V11.121ZM13.1254 14.1303H13.6271V13.1272H13.1254V14.1303ZM9.61353 9.61641H10.6169V9.11487H9.61353V9.61641ZM6.60336 12.6256H10.6169V12.1241H6.60336V12.6256ZM6.60336 11.121H12.122V10.6195H6.60336V11.121ZM12.122 14.6318H12.6237V12.6256H12.122V14.6318ZM17.1389 14.6318H17.6406V12.6256H17.1389V14.6318ZM16.1355 15.6349H16.6372V12.1241H16.1355V15.6349ZM15.1322 15.1334H15.6338V12.1241H15.1322V15.1334ZM14.1288 14.6318H14.6305V12.6256H14.1288V14.6318ZM19.5641 18.129L18.4082 15.8686C18.8101 15.2056 19.0213 14.4432 19.0213 13.6548C19.0213 11.269 17.0812 9.32852 14.6962 9.32852C14.3104 9.32852 13.9286 9.37868 13.5614 9.47848L13.6928 9.96247C14.0169 9.8747 14.3545 9.83006 14.6962 9.83006C16.8043 9.83006 18.5196 11.5458 18.5196 13.6548C18.5196 14.3956 18.3089 15.1093 17.91 15.7186C17.8609 15.7939 17.8559 15.8897 17.897 15.9699L18.8713 17.8758L16.9332 16.9063C16.856 16.8672 16.7647 16.8712 16.6904 16.9163C16.0869 17.283 15.397 17.477 14.6962 17.477C12.7928 17.477 11.1633 16.0587 10.9059 14.1774L10.4092 14.2451C10.7002 16.3737 12.5434 17.9786 14.6962 17.9786C15.4427 17.9786 16.1777 17.7845 16.8304 17.4154L19.1332 18.5679C19.1778 18.5895 19.2265 18.6 19.2746 18.6C19.3609 18.6 19.4462 18.5654 19.5089 18.5002C19.6058 18.4004 19.6273 18.2504 19.5641 18.129ZM6.60336 9.61641H8.61014V9.11487H6.60336V9.61641ZM10.1152 7.1087H12.1817L10.1152 5.38641V7.1087ZM6.10167 11.6226H5.59998V4.85177C5.59998 4.71335 5.71235 4.601 5.85082 4.601L9.86437 4.6C9.92207 4.6 9.97926 4.61956 10.0249 4.65818L13.0351 7.16688C13.0933 7.21553 13.1254 7.28675 13.1254 7.35947V8.61332H12.6237V7.61024H9.86437C9.7259 7.61024 9.61353 7.4984 9.61353 7.35947V5.10154L6.10167 5.10254V11.6226ZM6.10167 15.1334H10.1152V15.6349H5.85082C5.71235 15.6349 5.59998 15.523 5.59998 15.3841V13.1272H6.10167V15.1334Z" fill="white"/>
</g>
<defs>
<linearGradient id="paint0_linear_313_117" x1="0" y1="24" x2="24" y2="0" gradientUnits="userSpaceOnUse">
<stop stop-color="#055F4E"/>
<stop offset="1" stop-color="#56C0A7"/>
</linearGradient>
<clipPath id="clip0_313_117">
<rect width="24" height="24" fill="white"/>
</clipPath>
</defs>
</svg>
