<svg width="24" height="24" viewBox="0 0 24 24" fill="none" xmlns="http://www.w3.org/2000/svg">
<g clip-path="url(#clip0_36_229)">
<g clip-path="url(#clip1_36_229)">
<path d="M6.34212 13.7984H0.00944519L0.0130877 13.8912L0.0238007 14.0697L0.0285144 14.146L0.0456552 14.3521L0.0499404 14.3981L0.0745804 14.6263C0.075037 14.6337 0.0758234 14.6411 0.0769372 14.6484L0.109076 14.8935C0.182353 15.4013 0.291198 15.9014 0.436895 16.3929L0.439037 16.3993L0.514671 16.6436L0.518956 16.6571L0.588591 16.8645L0.607017 16.9168L0.672153 17.0961L0.702792 17.1771L0.760642 17.3271L0.80628 17.4385L0.854702 17.5542L0.91898 17.6952L0.956476 17.7809L1.03532 17.9495L1.06146 18.0035L1.15638 18.1953L1.17138 18.2246L1.28708 18.4442L1.31172 18.4871L6.73786 15.2125C6.52446 14.7626 6.39162 14.2844 6.34234 13.7984H6.34212ZM0.308553 16.7042L0.310267 16.71L0.514671 16.6457L0.308553 16.7042Z" fill="#93D500"/>
<path d="M7.89873 16.7074L3.42068 21.1833L3.48989 21.2472L3.68123 21.4169L3.83335 21.5459L3.87449 21.5801L4.04847 21.7203L4.07097 21.7381L4.26251 21.885C4.2651 21.8866 4.26754 21.8884 4.2698 21.8904L5.10434 22.4545L5.13434 22.4727L5.29868 22.5698L5.39938 22.6272L5.49494 22.6808L5.66935 22.7751L5.69356 22.7879L6.187 23.0275L8.59679 17.1739C8.3521 17.0432 8.11727 16.8881 7.89616 16.7068L7.89873 16.7074Z" fill="#4D5A31"/>
<path d="M7.43421 16.2633L7.29494 16.0994L7.17924 15.95L7.0554 15.7748L6.9397 15.5941L1.52405 18.8563L1.80302 19.2944L1.82552 19.3274L1.8268 19.3296L2.11777 19.7396L2.12419 19.7482L2.13062 19.7568L2.26218 19.9282L2.42009 20.1242L2.45394 20.165L2.58335 20.3177L2.64035 20.3824L2.75262 20.511L2.81626 20.58L2.84518 20.6113L2.93089 20.7012L2.96517 20.7364L3.11515 20.8898L7.58248 16.4225L7.43614 16.2661L7.43421 16.2633Z" fill="#6BA43A"/>
<path d="M13.3557 16.7051L13.2064 16.8208L13.2175 16.8394L16.4747 22.2463L16.9204 21.9395C17.2353 21.707 17.5407 21.4552 17.8346 21.1838L13.3733 16.7229L13.3557 16.7051Z" fill="#4D5A31"/>
<path d="M16.0631 22.5038L16.0704 22.4995L16.0702 22.4993L16.0631 22.5038Z" fill="#93D500"/>
<path d="M16.0702 22.4974L16.113 22.476L16.1122 22.4745L16.0702 22.4995V22.4974Z" fill="#93D500"/>
<path d="M16.061 22.5049L16.0597 22.5055L16.0629 22.5034L16.061 22.5049Z" fill="#93D500"/>
<path d="M16.0014 22.2908L12.8505 17.0629L12.6632 17.1672L12.4713 17.2637C11.8934 17.5385 11.2617 17.6814 10.6218 17.6821C10.2051 17.6821 9.79073 17.6216 9.39148 17.5026L9.189 17.4314L8.98674 17.3596L6.58145 23.2015L6.59902 23.2079L6.61745 23.2149H6.61766L6.62238 23.2171L7.08411 23.3939C7.78684 23.6419 8.51355 23.8158 9.25242 23.9128C9.28132 23.9163 9.31018 23.9202 9.33898 23.9244L9.60081 23.9529L9.64323 23.9565L9.85321 23.9741L9.92456 23.9784L10.1084 23.9891L10.2211 23.9934L10.3672 23.9985L10.6282 24.0017C11.2192 24.0017 11.8093 23.9525 12.3922 23.8547L12.4218 23.8504L12.6069 23.8168L12.714 23.7965L12.8222 23.7737L13.0026 23.7341L13.0352 23.7266C13.9219 23.5197 14.7785 23.2003 15.5842 22.7761L15.5845 22.7759L15.7409 22.6902L16.0586 22.5111L16.0535 22.4961L16.0614 22.5096L16.0717 22.5036L16.1135 22.4785L16.0014 22.2908ZM7.90108 10.0386L8.05042 9.92288L8.03928 9.90424L4.78231 4.49952L4.33558 4.8072C4.02061 5.03903 3.71572 5.29078 3.4224 5.56182L7.88373 10.021L7.90108 10.0386Z" fill="#93D500"/>
<path d="M3.11322 5.85664L2.81668 6.16625C2.48715 6.52299 2.1859 6.89473 1.91422 7.28469L1.87522 7.3404L1.78459 7.47431L1.69246 7.61486L1.65903 7.66629C0.652103 9.24828 0.0828104 11.0691 0.00922907 12.9429L0.00344405 13.1571L-0.000198364 13.3714H6.31791L6.3282 13.1571L6.33998 12.9429C6.42288 12.0984 6.75448 11.2976 7.2928 10.6417C7.33565 10.5869 7.38857 10.5354 7.43678 10.4825C7.48499 10.4296 7.52934 10.3745 7.58033 10.3235L3.11322 5.85664ZM16.1495 4.28826L16.1233 4.27262L15.9556 4.17299L15.8576 4.11728L15.7591 4.06243L15.5877 3.96987L15.5607 3.95573C15.19 3.76203 14.8097 3.59148 14.4212 3.4415L14.3912 3.42993L14.1341 3.33716C13.4442 3.09611 12.7303 2.92706 12.0052 2.83193L11.9163 2.81993L11.8274 2.81007L11.656 2.79143L11.608 2.78715L11.4038 2.77001L11.1467 2.75437L11.0537 2.75072V9.08426C11.3787 9.1179 11.7008 9.18711 12.0132 9.29317L16.6759 4.6345C16.5034 4.51396 16.3274 4.39864 16.148 4.28869L16.1495 4.28826Z" fill="#4D5A31"/>
<path d="M10.4144 2.74794L10.2001 2.75223C9.75315 2.77022 9.30706 2.81586 8.86461 2.89L8.83547 2.89492L8.65014 2.92856L8.54301 2.9487L8.43416 2.97142L8.25418 3.01084L8.2214 3.01812C7.33461 3.2252 6.47792 3.54475 5.67213 3.96901L5.14291 4.26769L5.14355 4.26876L8.40459 9.68312L8.59186 9.57878C8.65495 9.54495 8.71889 9.51272 8.78362 9.48215C9.22881 9.2698 9.70725 9.13572 10.198 9.08576L10.4122 9.06862L10.6265 9.06134L10.6267 2.74344C10.5551 2.74323 10.4838 2.74623 10.4124 2.74773L10.4144 2.74794Z" fill="#6BA43A"/>
<path d="M21.2439 12.8492L21.2337 12.6789L21.2281 12.5939L21.2116 12.3937L21.2073 12.3419L21.1837 12.1184L21.1816 12.1004L21.1805 12.0918L21.1484 11.851C21.1482 11.8489 21.1479 11.8457 21.1473 11.8435C21.0745 11.3384 20.9654 10.8391 20.8208 10.3497L20.8178 10.3403L20.7475 10.1125L20.7379 10.0825L20.6693 9.8781L20.65 9.82282L20.5857 9.64649L20.5536 9.56292L20.4968 9.41766L20.4501 9.30324L20.403 9.19054L20.34 9.04698L20.3035 8.96599L20.2236 8.79523L20.1988 8.74338L20.1028 8.54926L20.0889 8.52248L19.9774 8.30822C19.9759 8.30607 19.9749 8.30307 19.9732 8.30072C19.7889 7.96219 19.5871 7.63479 19.3685 7.31983L14.7051 11.9836C14.8103 12.2946 14.8803 12.6163 14.9138 12.9429H21.2474L21.2439 12.8492Z" fill="#4D5A31"/>
<path d="M14.9387 13.3716L14.9284 13.5859L14.9166 13.8001C14.8352 14.6229 14.5174 15.4285 13.964 16.1013C13.9212 16.1561 13.8682 16.2076 13.82 16.2605C13.7718 16.3134 13.7275 16.3685 13.6765 16.4195L18.1438 20.8868C18.1946 20.836 18.2424 20.7835 18.2916 20.7319L18.4395 20.577C18.7701 20.2192 19.0722 19.8442 19.3445 19.4551L19.3762 19.4093L19.4744 19.2651L19.559 19.1354L19.6018 19.0722C20.6264 17.4631 21.1745 15.6398 21.2484 13.7999L21.2542 13.5857L21.2579 13.3714L14.9387 13.3716Z" fill="#6BA43A"/>
<path d="M23.1331 0.866951C21.9771 -0.288984 20.103 -0.288984 18.9473 0.866951C18.0251 1.78891 17.8408 3.16725 18.3902 4.27412L11.9429 10.7216C10.836 10.1727 9.45747 10.3568 8.53551 11.2787C7.98068 11.834 7.66902 12.5868 7.66902 13.3717C7.66902 14.1567 7.98068 14.9095 8.53551 15.4647C9.09079 16.0196 9.84367 16.3312 10.6287 16.3312C11.4136 16.3312 12.1665 16.0194 12.7217 15.4645C13.6437 14.5425 13.8277 13.1642 13.2788 12.0571L19.7259 5.61003C20.833 6.15897 22.2113 5.97492 23.1331 5.05296C24.2892 3.89745 24.2892 2.02331 23.1333 0.867379L23.1331 0.866951Z" fill="#424143"/>
</g>
</g>
<defs>
<clipPath id="clip0_36_229">
<rect width="24" height="24" fill="white"/>
</clipPath>
<clipPath id="clip1_36_229">
<rect width="24" height="24" fill="white"/>
</clipPath>
</defs>
</svg>
