<svg width="24" height="24" viewBox="0 0 24 24" fill="none" xmlns="http://www.w3.org/2000/svg">
<g clip-path="url(#clip0_313_83)">
<path d="M0 12C0 18.6274 5.37258 24 12 24C18.6274 24 24 18.6274 24 12C24 5.37258 18.6274 0 12 0C5.37258 0 0 5.37258 0 12Z" fill="url(#paint0_linear_313_83)"/>
<path fill-rule="evenodd" clip-rule="evenodd" d="M19.7266 13.0106C19.8781 13.068 19.9513 13.239 19.8912 13.3895V13.3895C19.8311 13.5401 19.6602 13.613 19.5086 13.5556C18.3664 13.1234 17.3182 12.884 16.3844 12.842C16.2225 12.8348 16.0911 12.704 16.0911 12.5419V12.5419C16.0911 12.3799 16.2224 12.248 16.3843 12.2547C17.39 12.2964 18.5116 12.5501 19.7266 13.0106ZM18.8838 12.3148C18.0519 12.1427 17.1947 11.9654 16.3844 11.929C16.2225 11.9217 16.0911 11.7909 16.0911 11.6288V11.6288C16.0911 11.4668 16.2225 11.3359 16.3844 11.3282C17.1329 11.2923 17.9253 11.1291 18.6943 10.971C18.9826 10.912 19.2664 10.8537 19.5419 10.8031C19.7013 10.7739 19.8523 10.8824 19.8785 11.0423V11.0423C19.9048 11.2022 19.7964 11.3531 19.637 11.3824C19.3689 11.4317 19.0932 11.4884 18.8134 11.5461V11.5461C18.7285 11.5636 18.7286 11.6844 18.8135 11.7016C18.8767 11.7145 18.9397 11.7274 19.0024 11.7403C19.2237 11.7863 19.4417 11.8314 19.6549 11.8729C19.8139 11.9038 19.9199 12.0561 19.8912 12.2155V12.2155C19.8625 12.3753 19.7095 12.4814 19.5503 12.4503C19.3322 12.4078 19.1094 12.3619 18.8838 12.3148ZM19.8912 9.86869C19.949 10.0199 19.8736 10.1895 19.7218 10.2455C18.8304 10.5742 17.6208 10.9506 16.3844 11.0039C16.2225 11.0109 16.0911 10.8789 16.0911 10.7169V10.7169C16.0911 10.5548 16.2225 10.4241 16.3844 10.4165C17.5301 10.3628 18.6668 10.0088 19.5119 9.69793C19.6639 9.64203 19.8333 9.71746 19.8912 9.86869V9.86869ZM14.9174 11.6291C14.9174 12.1842 14.5397 12.6681 14.0011 12.8027L13.6112 12.9002C12.7843 13.1069 11.9833 12.4815 11.9833 11.6291V11.6291C11.9833 10.7768 12.7843 10.1513 13.6112 10.3581L14.0011 10.4555C14.5397 10.5902 14.9174 11.074 14.9174 11.6291V11.6291ZM11.3964 13.6827C11.3964 13.8448 11.2651 13.9762 11.103 13.9762H10.8096C10.4855 13.9762 10.2228 13.7134 10.2228 13.3893V9.86833C10.2228 9.54423 10.4855 9.2815 10.8096 9.2815H11.103C11.2651 9.2815 11.3964 9.41286 11.3964 9.57491V9.57491V13.6827V13.6827ZM15.2819 10.1705L12.3306 9.43285C12.1265 9.38184 11.9833 9.19846 11.9833 8.98808V8.98808C11.9833 8.82611 11.8518 8.69466 11.6899 8.69466H9.92936C9.76739 8.69466 9.63594 8.82611 9.63594 8.98808V8.98808C9.63594 9.09363 9.54418 9.1769 9.43901 9.16798C5.72923 8.85325 4.94128 7.49057 4.94128 5.54572V4.29342C4.94128 4.13137 4.80991 4 4.64786 4V4C4.48581 4 4.35445 4.13137 4.35445 4.29342V5.54572C4.35445 8.20102 5.89695 9.47457 9.47749 9.76019C9.56589 9.76724 9.63594 9.84084 9.63594 9.92953V9.92953C9.63594 10.0255 9.55582 10.1022 9.45996 10.0977C7.44391 10.0026 6.00578 9.69026 4.79438 9.07705C4.64977 9.00385 4.47132 9.05425 4.39254 9.19591V9.19591C4.31381 9.3375 4.36451 9.51662 4.50884 9.59021C5.78113 10.239 7.26895 10.573 9.33132 10.679C9.50116 10.6877 9.63594 10.8272 9.63594 10.9973V10.9973C9.63594 11.1755 9.489 11.3187 9.31087 11.3131C7.77031 11.2647 5.89129 11.1461 4.43479 10.8073C4.27697 10.7706 4.11663 10.8638 4.07516 11.0204L4.05415 11.0998C4.02425 11.2127 4.07905 11.3255 4.19262 11.353V11.353C4.43103 11.4106 4.43583 11.8457 4.19753 11.9038V11.9038C4.0839 11.9315 4.0243 12.0456 4.05425 12.1587L4.07519 12.2376C4.11665 12.3941 4.27679 12.4871 4.43433 12.45C5.93929 12.0958 7.75186 11.9829 9.3083 11.9384C9.48798 11.9332 9.63594 12.0779 9.63594 12.2576V12.2576C9.63594 12.4295 9.49967 12.5705 9.32799 12.5794C7.27889 12.6847 5.7932 13.019 4.51062 13.6683C4.36602 13.7415 4.31461 13.9205 4.39287 14.0624V14.0624C4.47114 14.2044 4.64943 14.2554 4.79425 14.1826C6.01738 13.5675 7.45508 13.2553 9.45937 13.1606C9.55556 13.156 9.63594 13.233 9.63594 13.3293V13.3293C9.63594 13.4181 9.56621 13.4918 9.47778 13.4994C6.03591 13.7943 4.35621 15.2725 4.35621 18.0165L4.35562 18.1356C4.3534 18.5479 4.35263 18.8061 4.35284 18.97C4.35304 19.1345 4.48918 19.2531 4.65297 19.2371V19.2371C4.81432 19.2214 4.93927 19.081 4.93927 18.9189C4.93926 18.667 4.94133 18.32 4.94245 18.1386L4.94304 18.0165C4.94304 15.5917 6.33852 14.3698 9.44008 14.0904C9.5451 14.0809 9.63594 14.1641 9.63594 14.2696V14.2696C9.63594 14.4321 9.76739 14.563 9.92936 14.563H11.6899C11.8518 14.563 11.9833 14.4321 11.9833 14.2696V14.2696C11.9833 14.0592 12.1265 13.8758 12.3306 13.8248L15.2819 13.0871C15.4127 13.0548 15.5043 12.9375 15.5043 12.8025V10.4552C15.5043 10.3208 15.4127 10.2034 15.2819 10.1705Z" fill="white"/>
</g>
<defs>
<linearGradient id="paint0_linear_313_83" x1="0" y1="24" x2="24" y2="0" gradientUnits="userSpaceOnUse">
<stop stop-color="#4D27A8"/>
<stop offset="1" stop-color="#A166FF"/>
</linearGradient>
<clipPath id="clip0_313_83">
<rect width="24" height="24" fill="white"/>
</clipPath>
</defs>
</svg>
