<svg width="24" height="24" viewBox="0 0 24 24" fill="none" xmlns="http://www.w3.org/2000/svg">
<g clip-path="url(#clip0_313_105)">
<path d="M0 12C0 18.6274 5.37258 24 12 24C18.6274 24 24 18.6274 24 12C24 5.37258 18.6274 0 12 0C5.37258 0 0 5.37258 0 12Z" fill="url(#paint0_linear_313_105)"/>
<path fill-rule="evenodd" clip-rule="evenodd" d="M5.60714 7.41071C5.60714 6.96768 5.96768 6.60714 6.41071 6.60714C6.85375 6.60714 7.21429 6.96768 7.21429 7.41071C7.21429 7.85375 6.85375 8.21429 6.41071 8.21429C5.96768 8.21429 5.60714 7.85375 5.60714 7.41071ZM7.75 7.41071C7.75 6.6725 7.14946 6.07143 6.41071 6.07143C5.67196 6.07143 5.07143 6.6725 5.07143 7.41071C5.07143 8.14893 5.67196 8.75 6.41071 8.75C7.14946 8.75 7.75 8.14893 7.75 7.41071ZM16.0536 18.9286C15.3148 18.9286 14.7143 18.3275 14.7143 17.5893C14.7143 16.8511 15.3148 16.25 16.0536 16.25C16.7923 16.25 17.3929 16.8511 17.3929 17.5893C17.3929 18.3275 16.7923 18.9286 16.0536 18.9286ZM12.0357 11.6964C12.4787 11.6964 12.8393 12.057 12.8393 12.5C12.8393 12.943 12.4787 13.3036 12.0357 13.3036C11.5927 13.3036 11.2321 12.943 11.2321 12.5C11.2321 12.057 11.5927 11.6964 12.0357 11.6964ZM10.9155 11.7698C10.7779 11.9798 10.6964 12.2305 10.6964 12.5C10.6964 13.2382 11.297 13.8393 12.0357 13.8393C12.7745 13.8393 13.375 13.2382 13.375 12.5C13.375 11.7618 12.7745 11.1607 12.0357 11.1607C11.7604 11.1607 11.5048 11.2443 11.2916 11.3873L10.2989 10.4777C10.7682 10.0743 11.3704 9.82143 12.0357 9.82143C13.5127 9.82143 14.7143 11.023 14.7143 12.5C14.7143 13.977 13.5127 15.1786 12.0357 15.1786C10.5587 15.1786 9.35714 13.977 9.35714 12.5C9.35714 11.8818 9.57571 11.3193 9.92875 10.8655L10.9155 11.7698ZM12.0357 18.9286C8.49089 18.9286 5.60714 16.0448 5.60714 12.5C5.60714 11.555 5.81286 10.6486 6.20661 9.80054C6.27464 9.80696 6.34054 9.82143 6.41071 9.82143C7.05196 9.82143 7.63161 9.56589 8.06446 9.15607L9.52643 10.4964C9.08607 11.0466 8.82143 11.7425 8.82143 12.5C8.82143 14.2727 10.263 15.7143 12.0357 15.7143C13.8084 15.7143 15.25 14.2727 15.25 12.5C15.25 10.7273 13.8084 9.28571 12.0357 9.28571C11.2134 9.28571 10.465 9.59857 9.89607 10.108L8.41321 8.74946C8.67089 8.36589 8.82143 7.90571 8.82143 7.41071C8.82143 7.25804 8.80375 7.10964 8.77643 6.96446C10.5989 5.89196 12.9459 5.81268 14.8461 6.73196C14.7636 6.94304 14.7143 7.17071 14.7143 7.41071C14.7143 8.44464 15.5554 9.28571 16.5893 9.28571C16.9064 9.28571 17.2005 9.19946 17.4625 9.06018C18.1161 10.0888 18.4643 11.2721 18.4643 12.5C18.4643 13.8366 18.0566 15.1073 17.2921 16.1932C16.9611 15.8986 16.5304 15.7143 16.0536 15.7143C15.0196 15.7143 14.1786 16.5554 14.1786 17.5893C14.1786 17.9086 14.2659 18.2043 14.4073 18.4679C13.6541 18.7679 12.8607 18.9286 12.0357 18.9286ZM4.53571 7.41071C4.53571 6.37679 5.37679 5.53571 6.41071 5.53571C7.44464 5.53571 8.28571 6.37679 8.28571 7.41071C8.28571 8.44464 7.44464 9.28571 6.41071 9.28571C5.37679 9.28571 4.53571 8.44464 4.53571 7.41071ZM16.5893 6.07143C17.328 6.07143 17.9286 6.6725 17.9286 7.41071C17.9286 8.14893 17.328 8.75 16.5893 8.75C15.8505 8.75 15.25 8.14893 15.25 7.41071C15.25 6.6725 15.8505 6.07143 16.5893 6.07143ZM19 12.5C19 11.1607 18.6175 9.86857 17.8991 8.74893C18.2468 8.40768 18.4643 7.93518 18.4643 7.41071C18.4643 6.37679 17.6232 5.53571 16.5893 5.53571C15.9877 5.53571 15.4579 5.82554 15.1139 6.2675C13.0879 5.27161 10.5871 5.33643 8.61625 6.44536C8.24339 5.59625 7.39643 5 6.41071 5C5.08161 5 4 6.08161 4 7.41071C4 8.48054 4.70446 9.37893 5.67089 9.69339C5.27982 10.5784 5.07143 11.5191 5.07143 12.5C5.07143 16.34 8.19571 19.4643 12.0357 19.4643C12.9737 19.4643 13.8754 19.272 14.7271 18.913C15.0668 19.2532 15.5361 19.4643 16.0536 19.4643C17.0875 19.4643 17.9286 18.6232 17.9286 17.5893C17.9286 17.2325 17.823 16.902 17.6495 16.618C18.5318 15.417 19 13.9957 19 12.5Z" fill="white"/>
</g>
<defs>
<linearGradient id="paint0_linear_313_105" x1="0" y1="24" x2="24" y2="0" gradientUnits="userSpaceOnUse">
<stop stop-color="#055F4E"/>
<stop offset="1" stop-color="#56C0A7"/>
</linearGradient>
<clipPath id="clip0_313_105">
<rect width="24" height="24" fill="white"/>
</clipPath>
</defs>
</svg>
