<svg width="24" height="24" viewBox="0 0 24 24" fill="none" xmlns="http://www.w3.org/2000/svg">
<path d="M2.78518 10.8889L1.39259 11.7778L2.78518 12.6667L1.39259 13.5556L0 12.6593L1.39259 11.7704L0 10.8889L1.39259 10L2.78518 10.8889ZM1.38518 13.837L2.77778 12.9481L4.17037 13.837L2.77778 14.7259L1.38518 13.837ZM2.78518 12.6593L4.17778 11.7704L2.78518 10.8889L4.17037 10L5.56296 10.8889L4.17037 11.7778L5.56296 12.6667L4.17037 13.5556L2.78518 12.6593Z" fill="#0061FF"/>
<path d="M6.65186 10.8889H7.77778C8.4963 10.8889 9.08889 11.3037 9.08889 12.2518V12.4518C9.08889 13.4074 8.53334 13.837 7.8 13.837H6.65186V10.8889ZM7.28148 11.4222V13.2963H7.76297C8.17037 13.2963 8.44445 13.0296 8.44445 12.437V12.2815C8.44445 11.6889 8.15556 11.4222 7.74074 11.4222H7.28148ZM9.42222 11.4518H9.92593L10.0074 12.0074C10.1037 11.6296 10.3482 11.4296 10.7926 11.4296H10.9482V12.0667H10.6889C10.1778 12.0667 10.0519 12.2444 10.0519 12.7481V13.8444H9.42963V11.4518H9.42222ZM11.0741 12.6963V12.6296C11.0741 11.8296 11.5852 11.3926 12.2815 11.3926C12.9926 11.3926 13.4889 11.8296 13.4889 12.6296V12.6963C13.4889 13.4815 13.0074 13.9037 12.2815 13.9037C11.5111 13.8963 11.0741 13.4815 11.0741 12.6963ZM12.8519 12.6889V12.6296C12.8519 12.1852 12.6296 11.9185 12.2741 11.9185C11.9259 11.9185 11.6963 12.163 11.6963 12.6296V12.6889C11.6963 13.1185 11.9185 13.363 12.2741 13.363C12.6296 13.3556 12.8519 13.1185 12.8519 12.6889ZM13.8148 11.4518H14.3333L14.3926 11.9037C14.5185 11.6 14.7852 11.3926 15.1778 11.3926C15.7852 11.3926 16.1852 11.8296 16.1852 12.637V12.7037C16.1852 13.4889 15.7407 13.9037 15.1778 13.9037C14.8 13.9037 14.5407 13.7333 14.4148 13.4593V14.6667H13.8074L13.8148 11.4518ZM15.5556 12.6889V12.637C15.5556 12.163 15.3111 11.9259 14.9852 11.9259C14.637 11.9259 14.4074 12.1926 14.4074 12.637V12.6815C14.4074 13.1037 14.6296 13.3704 14.9778 13.3704C15.3333 13.363 15.5556 13.1333 15.5556 12.6889ZM17.1037 13.4L17.0519 13.837H16.5185V10.6518H17.1259V11.8741C17.2593 11.563 17.5259 11.3926 17.9037 11.3926C18.4741 11.4 18.8963 11.7926 18.8963 12.5852V12.6593C18.8963 13.4518 18.4963 13.9037 17.8889 13.9037C17.4889 13.8963 17.2296 13.7111 17.1037 13.4ZM18.2593 12.6593V12.6C18.2593 12.163 18.0222 11.9185 17.6889 11.9185C17.3481 11.9185 17.1111 12.1926 17.1111 12.6074V12.6593C17.1111 13.1037 17.3407 13.363 17.6815 13.363C18.0444 13.363 18.2593 13.1333 18.2593 12.6593ZM19.163 12.6963V12.6296C19.163 11.8296 19.6741 11.3926 20.3704 11.3926C21.0815 11.3926 21.5778 11.8296 21.5778 12.6296V12.6963C21.5778 13.4815 21.0889 13.9037 20.3704 13.9037C19.6 13.8963 19.163 13.4815 19.163 12.6963ZM20.9481 12.6889V12.6296C20.9481 12.1852 20.7259 11.9185 20.3704 11.9185C20.0222 11.9185 19.7926 12.163 19.7926 12.6296V12.6889C19.7926 13.1185 20.0148 13.363 20.3704 13.363C20.7259 13.3556 20.9481 13.1185 20.9481 12.6889ZM22.3926 12.6L21.5556 11.4518H22.2741L22.7556 12.1704L23.2444 11.4518H23.9556L23.1037 12.5926L24 13.837H23.2963L22.7481 13.0444L22.2148 13.837H21.4815L22.3926 12.6Z" fill="black"/>
</svg>
