<svg width="24" height="24" viewBox="0 0 24 24" fill="none" xmlns="http://www.w3.org/2000/svg">
<path fill-rule="evenodd" clip-rule="evenodd" d="M19.2276 6.20422H21.9543V3.47751H19.2276V6.20422ZM18.6137 7.28137V8.18172H19.705V7.29556H20.0455V8.18172H21.1369V7.29556H21.4774V8.18172H22.5687V7.28137C22.8126 7.24972 22.9998 7.06201 23.0314 6.8181H23.9318V5.72676H23.0456V5.3868H23.9318V4.29547H23.0456V3.95497H23.9318V2.86363H23.0314C22.9998 2.61917 22.8126 2.432 22.5687 2.39981V1.5H21.4774V2.38617H21.1369V1.5H20.0455V2.38617H19.705V1.5H18.6137V2.39981C18.3687 2.432 18.1821 2.61862 18.1499 2.86363H17.2501V3.95497H18.1362V4.29547H17.2501V5.3868H18.1362V5.72676H17.2501V6.8181H18.1499C18.1821 7.06256 18.3687 7.24972 18.6137 7.28137ZM11.114 6.20422H13.8407V3.47751H11.114V6.20422ZM10.5001 7.28137V8.18172H11.5915V7.29556H11.932V8.18172H13.0233V7.29556H13.3638V8.18172H14.4551V7.28137C14.6991 7.24972 14.8862 7.06201 14.9179 6.8181H15.8182V5.72676H14.9321V5.3868H15.8182V4.29547H14.9321V3.95497H15.8182V2.86363H14.9179C14.8862 2.61917 14.6991 2.432 14.4551 2.39981V1.5H13.3638V2.38617H13.0233V1.5H11.932V2.38617H11.5915V1.5H10.5001V2.39981C10.2551 2.432 10.068 2.61862 10.0363 2.86363H9.13596V3.95497H10.0227V4.29547H9.13596V5.3868H10.0227V5.72676H9.13596V6.8181H10.0363C10.068 7.06256 10.2551 7.24972 10.5001 7.28137ZM3.00045 6.20422H5.72716V3.47751H3.00045V6.20422ZM2.38603 7.28137V8.18172H3.47737V7.29556H3.81787V8.18172H4.9092V7.29556H5.2497V8.18172H6.34104V7.28137C6.58605 7.24972 6.77267 7.06256 6.80486 6.8181H7.70467V5.72676H6.8185V5.3868H7.70467V4.29547H6.8185V3.95497H7.70467V2.86363H6.80486C6.77267 2.61862 6.58605 2.432 6.34104 2.39981V1.5H5.2497V2.38617H4.9092V1.5H3.81787V2.38617H3.47737V1.5H2.38603V2.39981C2.14211 2.432 1.9544 2.61917 1.9233 2.86363H1.02295V3.95497H1.90911V4.29547H1.02295V5.3868H1.90911V5.72676H1.02295V6.8181H1.9233C1.9544 7.06201 2.14211 7.24972 2.38603 7.28137ZM19.2811 15.402L22.614 22.9066H4.72095L1.38527 15.402H19.2811ZM2.66105 13.4933H20.6327L21.6842 18.1227L20.135 14.6348C20.0477 14.4373 19.8518 14.3107 19.6363 14.3107H2.84712L2.66105 13.4933ZM4.9092 12.0647C4.9092 11.7739 5.13948 11.5365 5.42323 11.5365H16.0665C16.3677 11.5365 16.6122 11.2926 16.6122 10.9908V9.82146C16.6122 9.73524 16.6727 9.67031 16.7535 9.67031H19.0688C19.1506 9.67031 19.2145 9.73634 19.2145 9.82146V10.9908C19.2145 11.2926 19.4584 11.5365 19.7601 11.5365H22.3946C22.6784 11.5365 22.9087 11.7739 22.9087 12.0647V18.5855L21.6001 12.8265C21.5439 12.5782 21.3224 12.4019 21.0681 12.4019H4.9092V12.0647ZM22.3946 10.4452H20.3058V9.82146C20.3058 9.13665 19.7509 8.57897 19.0688 8.57897H16.7535C16.0736 8.57897 15.5208 9.13665 15.5208 9.82146V10.4452H5.42323C4.53815 10.4452 3.81787 11.1714 3.81787 12.0647V12.4019H1.97732C1.81144 12.4019 1.65483 12.4778 1.55115 12.6071C1.44748 12.737 1.40819 12.9067 1.44584 13.0687L1.72795 14.3107H0.545485C0.360503 14.3107 0.188617 14.404 0.0876686 14.559C-0.012189 14.7139 -0.0280134 14.9093 0.0467433 15.0779L3.85934 23.6564C3.9401 23.8561 4.13435 23.998 4.36354 23.998H23.4543C23.7555 23.998 24 23.754 24 23.4523V12.0647C24 11.1714 23.2797 10.4452 22.3946 10.4452Z" fill="#3F8624"/>
</svg>
