<svg width="24" height="24" viewBox="0 0 24 24" fill="none" xmlns="http://www.w3.org/2000/svg">
<g clip-path="url(#clip0_316_182)">
<path d="M11.7346 14.8457C13.3062 14.8457 14.5803 13.5716 14.5803 12C14.5803 10.4284 13.3062 9.15429 11.7346 9.15429C10.1629 9.15429 8.88885 10.4284 8.88885 12C8.88885 13.5716 10.1629 14.8457 11.7346 14.8457Z" fill="#343434"/>
<path d="M0.111678 8.98286C0.111678 9.01714 0.0773926 9.08571 0.0773926 9.12C0.0773926 9.42857 0.317393 9.70286 0.66025 9.70286H5.49454C5.73454 9.70286 5.90596 9.56571 6.00882 9.36C7.00311 7.16571 9.19739 5.69143 11.7002 5.69143C15.1631 5.69143 17.9745 8.50286 17.9745 11.9657C17.9745 15.4286 15.1631 18.24 11.7002 18.24C9.16311 18.24 7.00311 16.7314 6.00882 14.6057C5.90596 14.3657 5.73454 14.2286 5.49454 14.2286H0.66025C0.351678 14.2286 0.0773926 14.4686 0.0773926 14.8114C0.0773926 14.8457 0.0773926 14.9143 0.111678 14.9486C1.44882 20.16 6.14596 24 11.7345 24C18.3517 24 23.7345 18.6171 23.7345 12C23.7345 5.38286 18.3517 0 11.7345 0C6.14596 0 1.44882 3.84 0.111678 8.98286Z" fill="#343434"/>
</g>
<defs>
<clipPath id="clip0_316_182">
<rect width="24" height="24" fill="white"/>
</clipPath>
</defs>
</svg>
