<svg width="21" height="24" viewBox="0 0 21 24" fill="none" xmlns="http://www.w3.org/2000/svg">
<g clip-path="url(#clip0_313_35)">
<path d="M16.7785 4.6667L18.8499 4.13332L18.8653 4.15607L18.9176 16.6631L18.8499 16.7311L18.4231 16.7493L16.8028 16.4971L16.7785 16.4333V4.6667Z" fill="#7A3E65"/>
<path d="M4.79886 17.5999L4.80649 17.6005L10.2742 19.1893L10.2881 19.2L10.3119 19.219L10.3042 23.9798L10.2881 24L4.79886 21.3333V17.5999Z" fill="#7A3E65"/>
<path d="M16.7786 16.4333L10.2971 17.9855L7.04287 17.2L4.79886 17.6L10.2881 19.2L18.7601 16.9063L18.85 16.7311L16.7786 16.4333Z" fill="#CFB2C1"/>
<path d="M15.7772 6.39996L15.7244 6.33976L10.3469 4.77726L10.288 4.80001L10.2339 4.77244L1.77231 7.2124L1.7261 7.2689L1.79401 7.30612L3.72906 7.58985L3.79746 7.56662L10.2789 6.01448L13.5332 6.79999L15.7772 6.39996Z" fill="#512843"/>
<path d="M3.7975 19.3333L1.72614 19.8333L1.72252 19.8213L1.64094 7.36102L1.72614 7.26891L3.7975 7.56662V19.3333Z" fill="#C17B9E"/>
<path d="M6.59415 14.5L10.2882 14.9333L10.3159 14.8919L10.331 9.11393L10.2882 9.06659L6.59415 9.49997V14.5Z" fill="#7A3E65"/>
<path d="M13.9822 14.5L10.2882 14.9333V9.06659L13.9822 9.49997V14.5Z" fill="#C17B9E"/>
<path d="M15.7774 6.39999L10.2882 4.80003V0L15.7774 2.66662V6.39999Z" fill="#C17B9E"/>
<path d="M10.2881 0L0 4.96665V19.0333L1.72623 19.8333V7.26893L10.2881 4.80003V0Z" fill="#7A3E65"/>
<path d="M18.85 4.13332V16.7311L10.2882 19.2V24L20.5762 19.0333V4.96666L18.85 4.13332Z" fill="#C17B9E"/>
</g>
<defs>
<clipPath id="clip0_313_35">
<rect width="20.5485" height="24" fill="white"/>
</clipPath>
</defs>
</svg>
