<svg width="24" height="24" viewBox="0 0 24 24" fill="none" xmlns="http://www.w3.org/2000/svg">
<path d="M22.3571 11.1038C22.5102 11.0687 22.6703 11.0794 22.8173 11.1347C22.9644 11.1899 23.0919 11.2872 23.1841 11.4144L21.7527 11.7382C21.8021 11.4352 22.0332 11.177 22.3571 11.1038ZM23.1921 12.2953C23.0789 12.4591 22.908 12.5742 22.7136 12.6174C22.3876 12.6912 22.0623 12.5561 21.8831 12.3017L23.3189 11.9768L23.5527 11.9239L24 11.8228C23.9973 11.7267 23.9848 11.6311 23.9627 11.5376C23.7807 10.7649 22.9941 10.2833 22.2058 10.4616C21.4176 10.64 20.9261 11.411 21.1081 12.1835C21.29 12.9561 22.0766 13.4379 22.8649 13.2596C23.3293 13.1544 23.6906 12.8436 23.872 12.4479L23.1921 12.2953ZM19.8133 13.2205V11.1722H19.3712V10.4743H19.8133V9.51377H20.564V10.4743H21.1279V11.1722H20.564V13.2205H19.8133ZM18.3791 13.2205H19.1041V10.4743H18.3791V13.2205ZM18.2849 9.51088C18.2849 9.2567 18.4853 9.06601 18.7446 9.06601C19.004 9.06601 19.1985 9.2567 19.1985 9.51088C19.1985 9.76518 19.004 9.96152 18.7446 9.96152C18.4853 9.96152 18.2849 9.76518 18.2849 9.51088ZM18.1267 10.482C17.7561 10.5013 17.5375 10.5581 17.3152 10.7192V10.4743H16.5905V13.2205H17.315V11.8739C17.315 11.4502 17.4184 11.2091 18.1267 11.1854V10.482ZM14.0867 11.8906C14.1047 12.2913 14.4536 12.6274 14.8805 12.6274C15.3136 12.6274 15.6684 12.2736 15.6684 11.8552C15.6684 11.4426 15.3136 11.089 14.8805 11.089C14.4537 11.089 14.1047 11.4308 14.0867 11.8258V11.8906ZM13.3797 13.2205V9.164L14.1047 9V10.6787C14.3287 10.4996 14.5941 10.4244 14.8829 10.4244C15.7082 10.4244 16.3684 11.06 16.3684 11.8574C16.3684 12.6489 15.7083 13.296 14.8829 13.296C14.5941 13.296 14.3287 13.221 14.1047 13.0418V13.2206L13.3797 13.2205ZM11.8365 13.2205V11.1581H11.3944V10.4743H11.8365V9.51304L12.5873 9.34315V10.4743H13.1512V11.1581H12.5873V13.2205H11.8365ZM10.5079 13.2205V11.7533C10.5079 11.2217 10.219 11.1062 9.93006 11.1062C9.64125 11.1062 9.35245 11.2159 9.35245 11.7417V13.2205H8.62743V10.4743H9.35245V10.6786C9.51152 10.5631 9.70606 10.4243 10.0894 10.4243C10.7023 10.4243 11.2329 10.7768 11.2329 11.6377V13.2205H10.5079ZM6.79131 11.1038C7.11523 11.0304 7.43842 11.1633 7.61829 11.4144L6.18701 11.7382C6.2363 11.4352 6.46752 11.177 6.79131 11.1038ZM7.62635 12.2953C7.51314 12.4591 7.34222 12.5742 7.14781 12.6174C6.99368 12.6527 6.83254 12.6416 6.68474 12.5854C6.53693 12.5292 6.40909 12.4304 6.31734 12.3017L7.75319 11.9768L7.98705 11.9239L8.43421 11.8228C8.4315 11.7267 8.41901 11.6311 8.39693 11.5376C8.2149 10.7649 7.42832 10.2833 6.64006 10.4616C5.85179 10.64 5.36027 11.411 5.54231 12.1835C5.72434 12.9561 6.5108 13.4379 7.29919 13.2596C7.76365 13.1544 8.12496 12.8436 8.30616 12.4479L7.62635 12.2953ZM3.83436 13.2205L2.70836 10.4743H3.4983L4.21166 12.3368L4.93079 10.4743H5.72074L4.59485 13.2205H3.83436ZM1.28682 11.103C1.43995 11.0679 1.60003 11.0787 1.74711 11.1339C1.89418 11.1892 2.02175 11.2865 2.11391 11.4137L0.682512 11.7376C0.731809 11.4346 0.963021 11.1764 1.28682 11.103ZM2.12185 12.2946C2.00867 12.4585 1.83775 12.5736 1.64331 12.6168C1.31748 12.6905 0.992118 12.5555 0.812847 12.3011L2.2487 11.9762L2.48256 11.9233L2.92971 11.822C2.92699 11.726 2.9145 11.6305 2.89244 11.537C2.7104 10.7643 1.92394 10.2826 1.13556 10.4609C0.347296 10.6393 -0.143986 11.4104 0.0378099 12.183C0.219846 12.9556 1.00643 13.4373 1.79469 13.259C2.25916 13.1539 2.62047 12.843 2.80178 12.4474L2.12185 12.2946Z" fill="#F05537"/>
</svg>
