<svg width="24" height="25" viewBox="0 0 24 25" fill="none" xmlns="http://www.w3.org/2000/svg">
<g clip-path="url(#clip0_343_1036)">
<path fill-rule="evenodd" clip-rule="evenodd" d="M22.3788 23.9784C23.2555 23.9784 23.9737 23.2722 23.9737 22.4076V6.38433C23.9737 5.51963 23.2555 4.81344 22.3788 4.81344H6.81189L13.0593 23.9784H22.3788Z" fill="#DBDBDB"/>
<path fill-rule="evenodd" clip-rule="evenodd" d="M22.3788 5.53409C22.6118 5.53409 22.8328 5.62536 22.9985 5.78869C23.1619 5.94965 23.2531 6.16102 23.2531 6.38441V22.4077C23.2531 22.631 23.1643 22.8424 22.9985 23.0033C22.8328 23.1666 22.6118 23.2579 22.3788 23.2579H13.583L7.80389 5.53409H22.3788ZM22.3788 4.81351H6.81189L13.0593 23.9785H22.3788C23.2555 23.9785 23.9737 23.2723 23.9737 22.4077V6.38441C23.9737 5.51971 23.2555 4.81351 22.3788 4.81351Z" fill="#DCDCDC"/>
<path fill-rule="evenodd" clip-rule="evenodd" d="M11.5846 19.4509L13.0594 23.9784L17.1595 19.4509H11.5846Z" fill="#4352B8"/>
<path fill-rule="evenodd" clip-rule="evenodd" d="M22.4845 11.4355V10.4964H17.9569V8.97837H16.4869V10.4964H13.5974V11.4355H19.3476C19.0402 12.5188 18.3604 13.542 17.6976 14.3371C16.523 12.9463 16.5182 12.4948 16.5182 12.4948H15.298C15.298 12.4948 15.3485 13.1721 16.9962 15.1033C16.4605 15.6509 16.0546 15.9752 16.0546 15.9752L16.4293 17.1474C16.4293 17.1474 16.9962 16.6597 17.7047 15.9079C18.4157 16.6789 19.3332 17.6061 20.5198 18.711L21.2908 17.94C20.0202 16.7871 19.0882 15.872 18.4037 15.137C19.3212 14.0513 20.2531 12.6846 20.4501 11.4332H22.4822V11.4355H22.4845Z" fill="#607988"/>
<path fill-rule="evenodd" clip-rule="evenodd" d="M1.59492 0C0.718202 0 0 0.718202 0 1.59729V17.8583C0 18.735 0.71813 19.4532 1.59492 19.4532H17.1618L10.9144 0H1.59492Z" fill="#4285F4"/>
<path fill-rule="evenodd" clip-rule="evenodd" d="M8.92075 10.3427C8.86069 11.0705 8.23858 12.1489 6.73255 12.1489C5.42834 12.1489 4.37146 11.0705 4.37146 9.74225C4.37146 8.41394 5.42834 7.33549 6.73255 7.33549C7.47478 7.33549 7.96959 7.65733 8.25296 7.91913L9.24252 6.96797C8.59164 6.36751 7.74376 5.9928 6.73248 5.9928C4.66447 5.9928 2.98547 7.67172 2.98547 9.7398C2.98547 11.8078 4.66447 13.4868 6.73248 13.4868C8.89903 13.4868 10.3305 11.9664 10.3305 9.82151C10.3305 9.51404 10.2921 9.28828 10.2417 9.05771H6.73485V10.3403L8.9206 10.3427H8.92075Z" fill="#EEEEEE"/>
<mask id="mask0_343_1036" style="mask-type:luminance" maskUnits="userSpaceOnUse" x="-1" y="-1" width="25" height="25">
<path fill-rule="evenodd" clip-rule="evenodd" d="M-0.0107422 -0.0108032H23.9845V23.9892H-0.0107422V-0.0108032Z" fill="url(#paint0_radial_343_1036)"/>
</mask>
<g mask="url(#mask0_343_1036)">
<path fill-rule="evenodd" clip-rule="evenodd" d="M22.3789 4.81345H12.4613L10.9145 0H1.59497C0.718252 0 0.00012207 0.718202 0.00012207 1.59729V17.8583C0.00012207 18.735 0.718252 19.4532 1.59497 19.4532H11.5846L13.0594 23.9784H22.3789C23.2556 23.9784 23.9737 23.2723 23.9737 22.4076V6.38434C23.9737 5.51971 23.2556 4.81345 22.3789 4.81345Z" fill="url(#paint1_radial_343_1036)"/>
</g>
</g>
<defs>
<radialGradient id="paint0_radial_343_1036" cx="0" cy="0" r="1" gradientUnits="userSpaceOnUse" gradientTransform="translate(-46.915 -51.8979) scale(213.695 213.695)">
<stop stop-color="white" stop-opacity="0.102"/>
<stop offset="1" stop-color="white"/>
</radialGradient>
<radialGradient id="paint1_radial_343_1036" cx="0" cy="0" r="1" gradientUnits="userSpaceOnUse" gradientTransform="translate(1.67819 0.479577) scale(11.9892)">
<stop stop-color="white"/>
<stop offset="1" stop-color="white"/>
</radialGradient>
<clipPath id="clip0_343_1036">
<rect width="24" height="24.0048" fill="white"/>
</clipPath>
</defs>
</svg>
