<svg width="24" height="24" viewBox="0 0 24 24" fill="none" xmlns="http://www.w3.org/2000/svg">
<path d="M17.5811 9.55086C16.317 3.9738 13.6788 2.48871 13.0093 1.43892C12.6455 0.867861 12.2745 0 12.2745 0C12.2382 0.494664 12.1739 0.807951 11.7518 1.1839C10.9064 1.93743 7.31407 4.86475 7.01233 11.2019C6.73092 17.1104 11.3544 20.7545 11.9689 21.1309C12.4382 21.3618 13.0132 21.1353 13.288 20.9237C15.5162 19.3936 18.5644 15.3137 17.5784 9.55086" fill="#10AA50"/>
<path d="M12.4657 17.9838C12.3497 19.4469 12.2662 20.2983 11.971 21.1326C11.971 21.1326 12.1656 22.5248 12.3008 24H12.7828C12.8979 22.961 13.0735 21.9296 13.3088 20.9111C12.6844 20.6049 12.4893 19.2672 12.4657 17.9838Z" fill="#B8C4C2"/>
<path d="M13.3084 20.9122V20.9122C12.6774 20.6209 12.4949 19.2562 12.4669 17.9838C12.6223 15.886 12.6673 13.7815 12.6015 11.679C12.5686 10.5759 12.618 1.46036 12.33 0.12587C12.4465 0.386942 12.7279 1.00033 13.0094 1.43838C13.6815 2.48872 16.3176 3.97381 17.5806 9.55142C18.565 15.2994 15.5349 19.3721 13.3084 20.9122Z" fill="#12924F"/>
</svg>
