<svg width="24" height="24" viewBox="0 0 24 24" fill="none" xmlns="http://www.w3.org/2000/svg">
<path d="M13.392 16.696H10.596V19.864H13.392V16.696Z" fill="#669DF6"/>
<path d="M19.776 14.332C19.6864 14.3317 19.5978 14.3135 19.5154 14.2785C19.433 14.2434 19.3584 14.1923 19.296 14.128L14.4 9.052L11.112 12.52C10.9941 12.6407 10.8358 12.7136 10.6675 12.7247C10.4992 12.7358 10.3327 12.6842 10.2 12.58L7.704 10.564L5.064 14.068C5.00066 14.1509 4.91889 14.2179 4.82516 14.2637C4.73143 14.3096 4.62833 14.3329 4.524 14.332H3.56086e-09V16.384C-2.10312e-05 16.6206 0.0931511 16.8477 0.259347 17.0162C0.425543 17.1846 0.651391 17.2808 0.888 17.284H23.112C23.3486 17.2808 23.5745 17.1846 23.7407 17.0162C23.9068 16.8477 24 16.6206 24 16.384V14.332H19.776Z" fill="#4285F4"/>
<path d="M4.2 13L7.056 9.208C7.10845 9.1364 7.17481 9.07612 7.2511 9.03076C7.32739 8.9854 7.41204 8.95589 7.5 8.944C7.6798 8.93036 7.85855 8.98143 8.004 9.088L10.548 11.152L13.908 7.624C13.9695 7.5586 14.0439 7.50669 14.1266 7.47158C14.2092 7.43646 14.2982 7.4189 14.388 7.42C14.4778 7.4189 14.5668 7.43646 14.6494 7.47158C14.7321 7.50669 14.8065 7.5586 14.868 7.624L20.064 13H24V4.888C24 4.65249 23.9064 4.42662 23.7399 4.26009C23.5734 4.09356 23.3475 4 23.112 4H0.888C0.652488 4 0.426622 4.09356 0.260089 4.26009C0.093557 4.42662 0 4.65249 0 4.888V13.06L4.2 13Z" fill="#669DF6"/>
<path d="M15.648 19.504H8.36403C8.16521 19.504 8.00403 19.6652 8.00403 19.864V19.876C8.00403 20.0748 8.16521 20.236 8.36403 20.236H15.648C15.8469 20.236 16.008 20.0748 16.008 19.876V19.864C16.008 19.6652 15.8469 19.504 15.648 19.504Z" fill="#4285F4"/>
</svg>
