<svg width="24" height="24" viewBox="0 0 24 24" fill="none" xmlns="http://www.w3.org/2000/svg">
<path d="M11.7539 0.0281303C11.3016 0.112505 10.8797 0.536724 10.7836 1.00313C10.6477 1.65469 11.0742 2.31797 11.7234 2.47266C12.5812 2.67422 13.3805 1.9336 13.2469 1.06407C13.1367 0.358599 12.4664 -0.107807 11.7539 0.0281303Z" fill="black"/>
<path d="M8.15156 1.875C7.65468 1.96406 7.26093 2.32031 7.13671 2.7914C7.08984 2.96015 7.09218 3.28828 7.13906 3.44765C7.19999 3.65156 7.31484 3.84609 7.46484 3.99609C8.12109 4.65234 9.22734 4.38984 9.53437 3.50625C9.60937 3.28828 9.61171 2.96719 9.5414 2.73984C9.42421 2.36484 9.09609 2.03672 8.72812 1.92187C8.55234 1.86797 8.30156 1.84687 8.15156 1.875Z" fill="black"/>
<path d="M15.5344 1.87498C15.1664 1.94061 14.8758 2.13279 14.6695 2.44686C14.5406 2.64373 14.482 2.84764 14.482 3.10545C14.482 3.4617 14.6039 3.75701 14.8453 3.99608C15.5273 4.67108 16.657 4.37342 16.9312 3.44764C16.9734 3.30233 16.9805 2.9742 16.943 2.81248C16.8539 2.42108 16.5 2.04373 16.1133 1.9242C15.9352 1.86795 15.6844 1.84686 15.5344 1.87498Z" fill="black"/>
<path d="M4.29375 3.76407C3.74297 3.91172 3.34453 4.46954 3.38203 5.03907C3.42656 5.71641 3.96328 6.21797 4.63828 6.21563C5.175 6.21329 5.61562 5.90157 5.81015 5.39063C5.88984 5.17969 5.89218 4.77188 5.81484 4.5586C5.67656 4.17657 5.33672 3.8625 4.95703 3.76407C4.78593 3.71719 4.46015 3.71719 4.29375 3.76407Z" fill="black"/>
<path d="M11.6719 3.76173C11.2898 3.86954 10.9594 4.18595 10.8258 4.57032C10.7531 4.77189 10.7484 5.15157 10.8141 5.34376C10.9922 5.87579 11.4609 6.21564 12.0117 6.21564C12.6797 6.21564 13.2141 5.71173 13.2586 5.03907C13.2937 4.50704 12.9562 3.99376 12.443 3.7922C12.2742 3.72657 11.8594 3.71017 11.6719 3.76173Z" fill="black"/>
<path d="M19.057 3.76405C18.532 3.90467 18.1406 4.41795 18.1406 4.9617C18.1406 5.66248 18.6984 6.2203 19.3969 6.21561C20.018 6.21326 20.5359 5.76561 20.6297 5.1492C20.7234 4.5328 20.3203 3.92342 19.7086 3.7617C19.5469 3.71717 19.2211 3.71951 19.057 3.76405Z" fill="black"/>
<path d="M8.01796 5.56874C7.60781 5.6789 7.26328 6.02343 7.13906 6.44296C7.09218 6.60233 7.08984 6.93046 7.13671 7.09921C7.34062 7.8703 8.21015 8.24999 8.93203 7.88671C9.18749 7.75546 9.44999 7.43905 9.5414 7.15077C9.59765 6.9703 9.60703 6.63515 9.56249 6.46874C9.44531 6.03749 9.08437 5.6789 8.66015 5.5664C8.48906 5.52186 8.18671 5.52421 8.01796 5.56874Z" fill="black"/>
<path d="M15.4008 5.56873C14.9836 5.68123 14.6508 6.0117 14.5219 6.4453C14.4656 6.63045 14.4703 6.95623 14.5289 7.15076C14.6484 7.5328 14.9742 7.85389 15.3633 7.97342C16.0242 8.17733 16.7602 7.77186 16.9336 7.11326C16.9805 6.93045 16.9781 6.60467 16.9312 6.44295C16.8023 6.00936 16.4648 5.67655 16.043 5.56639C15.8719 5.52186 15.5695 5.5242 15.4008 5.56873Z" fill="black"/>
<path d="M11.7094 7.42032C11.5031 7.46953 11.3016 7.58672 11.1328 7.75782C10.6312 8.25703 10.6312 9.01172 11.1328 9.51797C11.85 10.2445 13.0992 9.82969 13.2469 8.81719C13.3734 7.94297 12.5695 7.21172 11.7094 7.42032Z" fill="black"/>
<path d="M4.43203 7.51406C4.14609 7.5914 3.94219 7.76015 3.81797 8.02734C3.67734 8.32734 3.7125 8.67656 3.91172 8.95312C4.0125 9.09609 4.08047 9.15234 4.26562 9.24843C4.42969 9.33046 4.72734 9.3539 4.92422 9.29765C5.20078 9.21562 5.43984 8.9789 5.53359 8.69062C5.70234 8.16562 5.37656 7.61718 4.83281 7.50234C4.67344 7.46953 4.58906 7.47187 4.43203 7.51406Z" fill="black"/>
<path d="M19.207 7.50938C18.7617 7.61953 18.4687 8.01797 18.4969 8.47266C18.518 8.79844 18.7242 9.10313 19.0195 9.24844C19.1484 9.31172 19.1812 9.31641 19.418 9.31641C19.6547 9.31641 19.6875 9.31172 19.8117 9.25078C20.4891 8.91797 20.5172 7.94766 19.8586 7.60078C19.6336 7.48125 19.432 7.45313 19.207 7.50938Z" fill="black"/>
<path d="M7.98984 9.40547C7.82812 9.47344 7.74375 9.53204 7.63359 9.65391C7.31718 10.0055 7.32187 10.5609 7.64765 10.9008C7.78828 11.0461 7.93125 11.1258 8.12812 11.1703C8.27812 11.2031 8.32968 11.2055 8.45859 11.182C8.66953 11.1445 8.8289 11.0625 8.97422 10.9195C9.42656 10.4648 9.28828 9.70079 8.7 9.42657C8.58984 9.375 8.52656 9.36329 8.34375 9.35625C8.1539 9.35157 8.10234 9.3586 7.98984 9.40547Z" fill="black"/>
<path d="M15.4195 9.38438C15.1711 9.48048 14.9789 9.64454 14.8734 9.85548C14.6484 10.3078 14.8383 10.8774 15.2883 11.0977C15.7477 11.3203 16.2867 11.1375 16.5305 10.6758C16.6008 10.5422 16.6055 10.5211 16.6055 10.2774C16.6055 10.0477 16.5984 10.0055 16.5422 9.88595C16.4555 9.69845 16.2914 9.5297 16.1039 9.43829C15.968 9.37266 15.9258 9.36329 15.7266 9.3586C15.5836 9.35391 15.4734 9.36329 15.4195 9.38438Z" fill="black"/>
<path d="M4.47421 10.6266C4.18125 10.732 4.01015 10.9805 4.03828 11.2734C4.0664 11.5969 4.32656 11.8383 4.64531 11.8383C4.88671 11.8383 5.05546 11.7469 5.18203 11.55C5.28515 11.3883 5.3039 11.1539 5.22656 10.9734C5.10234 10.6875 4.75312 10.5258 4.47421 10.6266Z" fill="black"/>
<path d="M19.2445 10.6195C18.7875 10.7601 18.6445 11.3297 18.9867 11.6695C19.2211 11.9016 19.6101 11.8992 19.8516 11.6672C20.0766 11.4445 20.1 11.0672 19.9008 10.8258C19.7555 10.6523 19.4531 10.5562 19.2445 10.6195Z" fill="black"/>
<path d="M11.7117 11.2125C11.5336 11.2875 11.4047 11.3766 11.318 11.4867C10.95 11.9531 11.0953 12.6328 11.618 12.9C11.9648 13.0758 12.3773 13.0148 12.668 12.7477C13.1391 12.3141 13.0148 11.5172 12.4336 11.2383C12.3164 11.182 12.2578 11.1703 12.0703 11.1633C11.8758 11.1562 11.8312 11.1609 11.7117 11.2125Z" fill="black"/>
<path d="M8.175 12.4688C8.07187 12.4945 7.93125 12.5789 7.85859 12.6586C7.69453 12.8391 7.65 13.1273 7.75547 13.3406C7.8539 13.5445 8.10703 13.7109 8.32031 13.7109C8.57109 13.7109 8.84765 13.5 8.91797 13.2539C9.04922 12.8016 8.62734 12.3563 8.175 12.4688Z" fill="black"/>
<path d="M15.5578 12.4687C15.2953 12.5344 15.0703 12.8156 15.0703 13.0781C15.0703 13.3969 15.3844 13.7109 15.7031 13.7109C15.825 13.7109 16.0008 13.6406 16.1039 13.5492C16.4484 13.2469 16.3805 12.7242 15.9703 12.5203C15.8531 12.4617 15.6773 12.4406 15.5578 12.4687Z" fill="black"/>
<path d="M4.53515 13.1344C4.28906 13.2445 4.26797 13.5773 4.49765 13.7063C4.60547 13.7672 4.6875 13.7719 4.79765 13.718C4.90547 13.6688 4.96875 13.5609 4.96875 13.4344C4.96875 13.2984 4.91484 13.2047 4.80469 13.1484C4.69922 13.0945 4.63359 13.0898 4.53515 13.1344Z" fill="black"/>
<path d="M19.2773 13.1484C19.1602 13.207 19.1016 13.3008 19.1016 13.4344C19.1016 13.5609 19.1648 13.6687 19.2727 13.718C19.3805 13.7695 19.4578 13.7672 19.5656 13.7133C19.6758 13.657 19.7344 13.5562 19.7344 13.4227C19.7344 13.2984 19.6547 13.1859 19.5305 13.1344C19.4297 13.0898 19.3875 13.0922 19.2773 13.1484Z" fill="black"/>
<path d="M11.7773 14.3766C11.3625 14.5688 11.2875 15.1289 11.6414 15.4195C12.0422 15.75 12.6562 15.4617 12.6562 14.9414C12.6562 14.4891 12.1828 14.1867 11.7773 14.3766Z" fill="black"/>
<path d="M8.21484 14.9883C7.97812 15.0703 7.92422 15.3492 8.11172 15.5297C8.17266 15.5883 8.20078 15.5977 8.32031 15.5977C8.43984 15.5977 8.46797 15.5883 8.52891 15.5297C8.78906 15.2789 8.55234 14.8711 8.21484 14.9883Z" fill="black"/>
<path d="M15.5977 14.9883C15.4828 15.0281 15.4055 15.1148 15.3844 15.2226C15.3633 15.3375 15.3867 15.4101 15.4758 15.5062C15.6516 15.6984 15.9727 15.6 16.0219 15.3398C16.0406 15.2344 15.9633 15.0609 15.8742 15.0164C15.7664 14.9625 15.6961 14.9554 15.5977 14.9883Z" fill="black"/>
<path d="M11.8664 16.875C11.6648 16.9969 11.6742 17.318 11.8805 17.4258C11.9203 17.4445 12 17.4609 12.0586 17.4609C12.3586 17.4609 12.4641 17.032 12.2039 16.875C12.1617 16.8492 12.0867 16.8281 12.0352 16.8281C11.9836 16.8281 11.9086 16.8492 11.8664 16.875Z" fill="black"/>
<path d="M4.59844 20.7867C4.31016 20.8594 4.09453 20.9836 3.86719 21.2109C3.64687 21.4312 3.53437 21.6164 3.44297 21.9141C3.37031 22.1437 3.36562 22.5703 3.43125 22.8047C3.57891 23.3367 3.97031 23.7516 4.48828 23.9227C4.65 23.9766 4.71562 23.9859 4.96875 23.9859C5.18672 23.9859 5.29687 23.9742 5.40234 23.9437C5.96016 23.7727 6.34453 23.3883 6.52031 22.8281C6.56484 22.6805 6.57422 22.6055 6.57187 22.3477C6.57187 22.0828 6.5625 22.0172 6.50859 21.8555C6.35391 21.3867 6.01875 21.0258 5.57812 20.8523C5.27812 20.7352 4.9125 20.7117 4.59844 20.7867ZM5.28516 21.0586C5.52422 21.1195 5.67187 21.2062 5.85937 21.3961C6.15703 21.6961 6.27187 22.0078 6.25078 22.4531C6.22734 22.9078 6.04219 23.2617 5.70234 23.4914C4.95937 23.9977 3.97734 23.6109 3.75 22.7203C3.66094 22.3758 3.70781 21.982 3.87187 21.675C4.02187 21.3914 4.33594 21.143 4.64297 21.0609C4.81172 21.0164 5.11406 21.0141 5.28516 21.0586Z" fill="black"/>
<path d="M8.54297 20.7773C7.64765 20.9719 7.08515 21.968 7.3664 22.8586C7.71562 23.9508 8.99297 24.3492 9.8789 23.6414C9.97031 23.5687 10.0687 23.4773 10.0969 23.4398L10.1461 23.3719L10.0477 23.2898L9.94922 23.2101L9.81562 23.3297C9.74297 23.3953 9.62343 23.4867 9.55078 23.5289C8.64843 24.0726 7.56093 23.3672 7.62422 22.2797C7.64062 22.0008 7.70859 21.7945 7.8539 21.5742C8.09531 21.2156 8.4539 21.0234 8.88281 21.0234C9.19218 21.0234 9.45703 21.1312 9.74765 21.375L9.91875 21.5203L10.0219 21.4195L10.125 21.3187L10.0359 21.2273C9.9164 21.1031 9.68672 20.9414 9.53672 20.8734C9.25312 20.7492 8.85 20.7094 8.54297 20.7773Z" fill="black"/>
<path d="M11.85 20.7797C11.4375 20.8805 11.0977 21.1617 10.8914 21.5742C10.7578 21.8414 10.725 21.9984 10.7227 22.3711C10.7227 22.65 10.7297 22.725 10.7766 22.875C10.9805 23.5289 11.4914 23.9461 12.1406 23.993C12.607 24.0258 13.0242 23.8758 13.4039 23.5359L13.5305 23.4234L13.4273 23.3273L13.3242 23.2312L13.2258 23.3227C12.9633 23.5641 12.6727 23.6906 12.3281 23.7117C11.6742 23.7539 11.1492 23.3086 11.0414 22.6195L11.0227 22.5L12.3141 22.4953L13.6055 22.4883L13.6031 22.2656C13.5984 21.9914 13.5469 21.7758 13.425 21.5156C13.3477 21.3562 13.2938 21.2812 13.1508 21.1406C13.0523 21.0422 12.9188 20.9344 12.8508 20.8992C12.5789 20.7539 12.1594 20.7047 11.85 20.7797ZM12.5063 21.0609C12.6563 21.1008 12.8813 21.2484 12.975 21.368C13.1367 21.5695 13.2469 21.8297 13.2773 22.0875L13.2938 22.2187H12.1594H11.0227L11.0438 22.0875C11.1633 21.3258 11.8102 20.8711 12.5063 21.0609Z" fill="black"/>
<path d="M15.293 20.7586C15.0328 20.7937 14.4961 20.9812 14.5148 21.0328C14.6203 21.2953 14.5875 21.2789 14.8266 21.1781C15.0563 21.082 15.2297 21.0445 15.5039 21.0305C15.8016 21.0164 15.9586 21.0422 16.1625 21.1383C16.3055 21.2062 16.4648 21.3586 16.5352 21.4922C16.6172 21.6492 16.6758 22.1015 16.6148 22.1015C16.6008 22.1015 16.4813 22.0781 16.3523 22.05C16.0242 21.9797 15.3023 21.975 15.0703 22.0383C14.6953 22.1437 14.4258 22.3453 14.3016 22.6101C14.2453 22.7297 14.2383 22.7742 14.2383 22.9922C14.2383 23.2148 14.2453 23.2523 14.3063 23.3836C14.5148 23.8383 15.1547 24.0914 15.7617 23.9648C16.0219 23.9109 16.2938 23.7633 16.4813 23.5758L16.6406 23.4164V23.6719V23.9297H16.7813H16.9219V22.8328C16.9219 21.9258 16.9148 21.7125 16.8867 21.5976C16.7414 21.0328 16.2891 20.7351 15.593 20.7445C15.4664 20.7469 15.3328 20.7539 15.293 20.7586ZM15.9141 22.268C16.0617 22.282 16.282 22.3125 16.4039 22.3383C16.5234 22.3617 16.6266 22.3828 16.6336 22.3828C16.6406 22.3828 16.6406 22.5117 16.6383 22.6711C16.6289 22.9383 16.6242 22.9687 16.5539 23.1117C16.2703 23.6836 15.368 23.9062 14.8289 23.5336C14.4516 23.2758 14.4469 22.7203 14.8172 22.4531C14.9391 22.364 15.1242 22.2961 15.3094 22.268C15.518 22.2398 15.6094 22.2398 15.9141 22.268Z" fill="black"/>
<path d="M19.0617 20.7773C18.7852 20.8547 18.5367 21.0281 18.3867 21.2461L18.293 21.382L18.2859 21.0961L18.2789 20.8125H18.1289H17.9766L17.9812 22.3758L17.9883 23.9414L18.1336 23.9484L18.2789 23.9555L18.2859 22.9172C18.2953 21.9117 18.2953 21.8742 18.3469 21.7406C18.457 21.443 18.6445 21.2344 18.9141 21.1102C19.043 21.0492 19.1016 21.0375 19.2984 21.0281C19.7977 21.0047 20.1023 21.1922 20.2781 21.6305C20.332 21.7594 20.332 21.7805 20.3391 22.8563L20.3461 23.9531H20.4984H20.6508L20.6414 22.8445C20.6344 21.9117 20.6273 21.7195 20.5945 21.6117C20.475 21.2109 20.2266 20.9391 19.8609 20.8102C19.6781 20.7445 19.2398 20.7258 19.0617 20.7773Z" fill="black"/>
</svg>
