<svg width="24" height="24" viewBox="0 0 24 24" fill="none" xmlns="http://www.w3.org/2000/svg">
<path d="M0 10.2974H0.836857V12.1567H2.60184V10.2974H3.43978V14.8613H2.60184V12.963H0.836857V14.8613H0V10.2974Z" fill="#45535E"/>
<path d="M6.09093 13.3748C6.09093 13.7568 5.77966 14.0677 5.3977 14.0677C5.0156 14.0677 4.70452 13.7568 4.70452 13.3748V11.4099H3.91089V13.3748C3.91089 14.1945 4.57791 14.8613 5.3977 14.8613C6.21731 14.8613 6.88428 14.1945 6.88428 13.3748V11.4099H6.09093V13.3748Z" fill="#45535E"/>
<path d="M9.09981 11.4329C8.70613 11.4329 8.43134 11.5471 8.16596 11.8076V10.2974H7.36975V13.0962C7.36975 14.1439 8.1272 14.8613 8.97816 14.8613C9.9242 14.8613 10.7531 14.1311 10.7531 13.1472C10.7531 12.1757 9.98875 11.4329 9.09981 11.4329ZM9.11959 14.1247C8.58008 14.1247 8.16751 13.6742 8.16751 13.1472C8.16751 12.6201 8.58008 12.1693 9.11959 12.1693C9.57674 12.1693 9.98955 12.6201 9.98955 13.1472C9.98955 13.6742 9.57674 14.1247 9.11959 14.1247Z" fill="#45535E"/>
<path d="M12.0903 11.6335C12.0903 11.2332 12.357 11.1063 12.649 11.1063C12.884 11.1063 13.1951 11.2841 13.398 11.5L13.9185 10.8906C13.6584 10.5414 13.1315 10.3001 12.6998 10.3001C11.8363 10.3001 11.2141 10.8017 11.2141 11.6335C11.2141 13.1762 13.1125 12.6872 13.1125 13.5509C13.1125 13.8172 12.8522 14.0524 12.554 14.0524C12.084 14.0524 11.9316 13.8238 11.7158 13.5825L11.1379 14.1792C11.5064 14.63 11.9634 14.8587 12.5094 14.8587C13.3284 14.8587 13.9887 14.3507 13.9887 13.557C13.9887 11.8429 12.0903 12.3763 12.0903 11.6335Z" fill="#45535E"/>
<path d="M16.0848 11.3882C15.2339 11.3882 14.4764 12.1052 14.4764 13.1531V15.9591H15.2725V14.4417C15.538 14.702 15.8126 14.8165 16.2064 14.8165C17.0953 14.8165 17.8598 14.0737 17.8598 13.1023C17.8598 12.1182 17.0306 11.3882 16.0848 11.3882ZM16.2263 14.0801C15.6868 14.0801 15.2742 13.6289 15.2742 13.1023C15.2742 12.5752 15.6868 12.1245 16.2263 12.1245C16.6833 12.1245 17.0962 12.5752 17.0962 13.1023C17.0962 13.6289 16.6833 14.0801 16.2263 14.0801Z" fill="#45535E"/>
<path d="M23.7204 14.1247C23.2508 14.1247 23.1175 13.9217 23.1175 13.6104V12.2328H23.8475V11.5345H23.1175V10.6139L22.3114 10.9757V13.7819C22.3114 14.4994 22.8065 14.8613 23.4855 14.8613C23.5871 14.8613 23.7269 14.8548 23.8032 14.836L24 14.1123C23.9111 14.1184 23.8096 14.1247 23.7204 14.1247Z" fill="#45535E"/>
<path d="M21.6207 12.2734C21.4681 12.0108 21.2534 11.8003 20.985 11.6418C20.7844 11.525 20.5764 11.4509 20.342 11.4191V10.5846C20.5764 10.4851 20.7219 10.2648 20.7219 10.0079C20.7219 9.6576 20.441 9.37375 20.091 9.37375C19.7407 9.37375 19.4549 9.6576 19.4549 10.0079C19.4549 10.2648 19.592 10.4851 19.8264 10.5846V11.4194C19.6388 11.4465 19.4444 11.505 19.2668 11.5948C18.9041 11.3194 17.7149 10.4157 17.0191 9.88791C17.0356 9.82842 17.0484 9.7671 17.0484 9.70241C17.0484 9.31445 16.7342 9 16.3461 9C15.958 9 15.644 9.31445 15.644 9.70241C15.644 10.0903 15.9583 10.4049 16.3464 10.4049C16.4788 10.4049 16.6012 10.3662 16.7069 10.3025L16.8537 10.4139L18.8711 11.8674C18.7645 11.9654 18.6652 12.0768 18.5857 12.2017C18.4247 12.4565 18.3263 12.7368 18.3263 13.0426V13.1064C18.3263 13.3211 18.3671 13.5237 18.4365 13.7141C18.4977 13.8803 18.5872 14.0315 18.6979 14.1681L18.0284 14.8393C17.969 14.8174 17.9066 14.8054 17.8415 14.8054C17.6965 14.8054 17.5606 14.862 17.4581 14.9644C17.3554 15.067 17.2992 15.2032 17.2992 15.3483C17.2993 15.4933 17.3558 15.6296 17.4583 15.7321C17.5609 15.8346 17.6971 15.8912 17.8422 15.8912C17.9872 15.8912 18.1235 15.8346 18.2262 15.7321C18.3285 15.6296 18.3851 15.4932 18.3851 15.3483C18.3851 15.2922 18.3764 15.2374 18.3601 15.1854L19.0521 14.4932C19.147 14.5588 19.2495 14.614 19.3596 14.6615C19.5769 14.7555 19.8168 14.8127 20.0792 14.8127H20.1273C20.4175 14.8127 20.6912 14.7446 20.9485 14.6051C21.2197 14.4578 21.4319 14.2563 21.5922 13.9991C21.7534 13.7412 21.8421 13.4562 21.8421 13.1427V13.127C21.8421 12.8186 21.7707 12.5341 21.6207 12.2734ZM20.7752 13.7253C20.5873 13.9341 20.3714 14.0627 20.1273 14.0627H20.0871C19.9477 14.0627 19.8113 14.0241 19.6778 13.9541C19.5273 13.8769 19.4129 13.7668 19.3193 13.6275C19.2226 13.4907 19.1701 13.3413 19.1701 13.183V13.1349C19.1701 12.9792 19.1999 12.8316 19.2752 12.6922C19.3557 12.5398 19.4644 12.4213 19.609 12.327C19.7509 12.2335 19.9025 12.1876 20.0714 12.1876H20.0871C20.2402 12.1876 20.3851 12.2178 20.5219 12.2878C20.6613 12.3624 20.7752 12.4643 20.8634 12.5985C20.9492 12.7326 21.0002 12.8773 21.0166 13.035C21.0192 13.0677 21.0205 13.1013 21.0205 13.1334C21.0205 13.3473 20.9387 13.5455 20.7752 13.7253Z" fill="#F8761F"/>
</svg>
