<svg width="24" height="24" viewBox="0 0 24 24" fill="none" xmlns="http://www.w3.org/2000/svg">
<g clip-path="url(#clip0_1057_2)">
<path d="M15.0662 11.4507L5.58884 9.80273V21.9794C5.58884 22.5355 6.04635 22.9863 6.61072 22.9863H22.9642C23.5285 22.9863 23.986 22.5355 23.986 21.9794V17.4931L15.0662 11.4507Z" fill="#185C37"/>
<path d="M15.0662 1.01373H6.61072C6.04635 1.01373 5.58884 1.46453 5.58884 2.02062V6.50687L15.0662 12L20.0836 13.6479L23.986 12V6.50687L15.0662 1.01373Z" fill="#21A366"/>
<path d="M5.58884 6.50687H15.0662V12H5.58884V6.50687Z" fill="#107C41"/>
<path opacity="0.1" d="M12.3718 5.40823H5.58884V19.1411H12.3718C12.9354 19.1393 13.3919 18.6895 13.3937 18.1342V6.41512C13.3919 5.85978 12.9354 5.41004 12.3718 5.40823Z" fill="black"/>
<path opacity="0.2" d="M11.8143 5.95755H5.58884V19.6904H11.8143C12.378 19.6886 12.8344 19.2388 12.8362 18.6835V6.96444C12.8344 6.4091 12.378 5.95936 11.8143 5.95755Z" fill="black"/>
<path opacity="0.2" d="M11.8143 5.95755H5.58884V18.5918H11.8143C12.378 18.59 12.8344 18.1402 12.8362 17.5849V6.96444C12.8344 6.4091 12.378 5.95936 11.8143 5.95755Z" fill="black"/>
<path opacity="0.2" d="M11.2569 5.95755H5.58884V18.5918H11.2569C11.8205 18.59 12.2769 18.1402 12.2787 17.5849V6.96444C12.2769 6.4091 11.8205 5.95936 11.2569 5.95755Z" fill="black"/>
<path d="M1.03583 5.95755H11.2569C11.8212 5.95755 12.2787 6.40835 12.2787 6.96444V17.0355C12.2787 17.5916 11.8212 18.0424 11.2569 18.0424H1.03583C0.471456 18.0424 0.0139465 17.5916 0.0139465 17.0356V6.96444C0.0139465 6.40835 0.471456 5.95755 1.03583 5.95755Z" fill="url(#paint0_linear_1057_2)"/>
<path d="M3.1788 15.2728L5.32849 11.9907L3.35887 8.72665H4.94326L6.0181 10.814C6.11734 11.0123 6.18535 11.1596 6.22215 11.2568H6.23608C6.30557 11.1009 6.37993 10.9472 6.45908 10.7959L7.60807 8.72776H9.06256L7.04277 11.9726L9.11386 15.2728H7.56626L6.32473 12.9816C6.26625 12.8842 6.21662 12.7818 6.17644 12.6757H6.15805C6.12168 12.7796 6.07342 12.8791 6.01421 12.9723L4.73588 15.2728H3.1788Z" fill="white"/>
<path d="M22.9642 1.01373H15.0662V6.50687H23.9861V2.02062C23.9861 1.46453 23.5285 1.01373 22.9642 1.01373Z" fill="#33C481"/>
<path d="M15.0662 12H23.9861V17.4931H15.0662V12Z" fill="#107C41"/>
</g>
<defs>
<linearGradient id="paint0_linear_1057_2" x1="2.14459" y1="5.17079" x2="9.97202" y2="18.9294" gradientUnits="userSpaceOnUse">
<stop stop-color="#18884F"/>
<stop offset="0.5" stop-color="#117E43"/>
<stop offset="1" stop-color="#0B6631"/>
</linearGradient>
<clipPath id="clip0_1057_2">
<rect width="24" height="22" fill="white" transform="translate(0 1)"/>
</clipPath>
</defs>
</svg>
