<svg width="24" height="24" viewBox="0 0 24 24" fill="none" xmlns="http://www.w3.org/2000/svg">
<g clip-path="url(#clip0_343_693)">
<path d="M19.3333 4.66666H4.66666V19.3333H19.3333V4.66666Z" fill="white"/>
<path d="M13.12 9.94667L13.792 10.9067L14.848 10.1387V15.7067H16V8.41067H15.04L13.12 9.94667Z" fill="#1E88E5"/>
<path d="M11.2953 11.83C11.712 11.4473 11.9707 10.9167 11.9707 10.3307C11.9707 9.166 10.9487 8.21867 9.69268 8.21867C8.62468 8.21867 7.71134 8.89133 7.47268 9.854L8.57734 10.1347C8.68734 9.692 9.15601 9.37067 9.69268 9.37067C10.3207 9.37067 10.832 9.80133 10.832 10.3307C10.832 10.86 10.3207 11.2907 9.69268 11.2907H9.02801V12.4427H9.69268C10.4133 12.4427 11.0213 12.9433 11.0213 13.536C11.0213 14.1387 10.444 14.6293 9.73401 14.6293C9.09268 14.6293 8.54468 14.2227 8.45801 13.684L7.33334 13.868C7.50801 14.9587 8.54001 15.7813 9.73334 15.7813C11.0713 15.7813 12.16 14.774 12.16 13.536C12.16 12.854 11.824 12.242 11.2953 11.83Z" fill="#1E88E5"/>
<path d="M18.6667 24H5.33332L4.66666 21.3333L5.33332 18.6667H18.6667L19.3333 21.3333L18.6667 24Z" fill="#FBC02D"/>
<path d="M21.3333 19.3333L24 18.6667V5.33333L21.3333 4.66666L18.6667 5.33333V18.6667L21.3333 19.3333Z" fill="#4CAF50"/>
<path d="M18.6667 5.33333L19.3333 2.66667L18.6667 0H2C0.895333 0 0 0.895333 0 2V18.6667L2.66667 19.3333L5.33333 18.6667V5.33333H18.6667Z" fill="#1E88E5"/>
<path d="M18.6667 18.6667V24L24 18.6667H18.6667Z" fill="#E53935"/>
<path d="M22 0H18.6667V5.33333H24V2C24 0.895333 23.1047 0 22 0Z" fill="#1565C0"/>
<path d="M2 24H5.33333V18.6667H0V22C0 23.1047 0.895333 24 2 24Z" fill="#1565C0"/>
</g>
<defs>
<clipPath id="clip0_343_693">
<rect width="24" height="24" fill="white"/>
</clipPath>
</defs>
</svg>
