<svg width="24" height="24" viewBox="0 0 24 24" fill="none" xmlns="http://www.w3.org/2000/svg">
<g clip-path="url(#clip0_313_94)">
<path d="M0 12C0 18.6274 5.37258 24 12 24C18.6274 24 24 18.6274 24 12C24 5.37258 18.6274 0 12 0C5.37258 0 0 5.37258 0 12Z" fill="url(#paint0_linear_313_94)"/>
<path fill-rule="evenodd" clip-rule="evenodd" d="M8.50189 12.5H9.72453V11.9H8.50189V12.5ZM6.66792 12.5H7.89057V11.9H6.66792V12.5ZM4.83396 12.5H6.0566V11.9H4.83396V12.5ZM3 12.5H4.22264V11.9H3V12.5ZM16.9069 14.0852L17.4969 13.892L16.9069 13.6994L16.7107 13.1204L16.5139 13.6994L15.9245 13.892L16.5139 14.0852L16.7107 14.6636L16.9069 14.0852ZM10.0002 15.0956L9.80339 15.6746L9.21346 15.8678L9.80339 16.061L10.0002 16.6394L10.1965 16.061L10.7864 15.8678L10.1965 15.6746L10.0002 15.0956ZM10.0002 7.6316L9.80339 8.2106L9.21346 8.4038L9.80339 8.5964L10.0002 9.1754L10.1965 8.5964L10.7864 8.4038L10.1965 8.2106L10.0002 7.6316ZM11.1263 12.2012C12.2481 12.923 13.0367 14.3306 13.3619 16.1972C13.9873 15.3926 14.9837 13.8518 14.9837 12.2012C14.9837 10.5584 14.1028 9.1148 13.3637 8.1932C13.0409 10.0652 12.2511 11.4776 11.1263 12.2012ZM10.3634 12.4766C10.2509 12.4298 10.1781 12.3212 10.1781 12.2012C10.1781 12.0812 10.2509 11.9726 10.3634 11.9252C11.6991 11.363 12.6063 9.7328 12.8502 7.4528C12.863 7.3352 12.945 7.2356 13.0593 7.199C13.1736 7.1618 13.3001 7.1948 13.3808 7.283C14.208 8.1806 15.595 10.013 15.595 12.2012C15.595 14.525 13.9005 16.5506 13.3808 17.1164C13.3228 17.1812 13.2396 17.216 13.154 17.216C13.1229 17.216 13.0911 17.2112 13.0599 17.201C12.9456 17.1644 12.863 17.0654 12.8502 16.9478C12.6045 14.6684 11.6985 13.0388 10.3634 12.4766ZM19.2 11.9C19.2 15.7046 16.0462 18.8 12.1698 18.8C9.0374 18.8 6.25528 16.7366 5.40432 13.7816L5.99303 13.6184C6.77002 16.316 9.31005 18.2 12.1698 18.2C15.7094 18.2 18.5887 15.374 18.5887 11.9C18.5887 8.426 15.7094 5.6 12.1698 5.6C9.07103 5.6 6.41606 7.7678 5.85731 10.754L5.25516 10.646C5.86771 7.3748 8.77576 5 12.1698 5C16.0462 5 19.2 8.0954 19.2 11.9Z" fill="white"/>
</g>
<defs>
<linearGradient id="paint0_linear_313_94" x1="0" y1="24" x2="24" y2="0" gradientUnits="userSpaceOnUse">
<stop stop-color="#C8511B"/>
<stop offset="1" stop-color="#FF9900"/>
</linearGradient>
<clipPath id="clip0_313_94">
<rect width="24" height="24" fill="white"/>
</clipPath>
</defs>
</svg>
