<svg width="24" height="24" viewBox="0 0 24 24" fill="none" xmlns="http://www.w3.org/2000/svg">
<g clip-path="url(#clip0_313_27)">
<path fill-rule="evenodd" clip-rule="evenodd" d="M21.4152 21.004H17.728V9.68543C18.9149 10.0635 20.2278 10.0635 21.4152 9.68543V21.004ZM21.7249 8.39751C20.3696 9.04282 18.7726 9.04228 17.4184 8.39751C17.2511 8.31766 17.0534 8.32907 16.8948 8.42847C16.7372 8.52788 16.6416 8.70116 16.6416 8.88747V21.5472C16.6416 21.8476 16.8844 22.0904 17.1848 22.0904H21.9584C22.2588 22.0904 22.5016 21.8476 22.5016 21.5472V8.88747C22.5016 8.70116 22.406 8.52788 22.2485 8.42847C22.0904 8.32907 21.8927 8.31712 21.7249 8.39751ZM19.5716 1.08664C21.1149 1.08664 22.3702 2.34197 22.3702 3.88464C22.3702 5.42786 21.1149 6.68318 19.5716 6.68318C18.029 6.68318 16.7736 5.42786 16.7736 3.88464C16.7736 2.34197 18.029 1.08664 19.5716 1.08664ZM19.5716 7.76957C21.714 7.76957 23.4566 6.027 23.4566 3.88464C23.4566 1.74282 21.714 0.00025177 19.5716 0.00025177C17.4298 0.00025177 15.6872 1.74282 15.6872 3.88464C15.6872 6.027 17.4298 7.76957 19.5716 7.76957ZM0.000305176 24.0003H23.8683V22.9139H0.000305176V24.0003ZM10.0902 21.004H13.7774V13.9756H10.0902V21.004ZM9.54696 22.0904H14.3206C14.621 22.0904 14.8638 21.8476 14.8638 21.5472V13.4324C14.8638 13.132 14.621 12.8892 14.3206 12.8892H9.54696C9.24712 12.8892 9.00377 13.132 9.00377 13.4324V21.5472C9.00377 21.8476 9.24712 22.0904 9.54696 22.0904ZM2.45283 21.004H6.14004V11.5888H2.45283V21.004ZM1.90964 22.0904H6.68324C6.98363 22.0904 7.22643 21.8476 7.22643 21.5472V11.0456C7.22643 10.7452 6.98363 10.5024 6.68324 10.5024H1.90964C1.60925 10.5024 1.36644 10.7452 1.36644 11.0456V21.5472C1.36644 21.8476 1.60925 22.0904 1.90964 22.0904Z" fill="#B0084D"/>
</g>
<defs>
<clipPath id="clip0_313_27">
<rect width="24" height="24" fill="white"/>
</clipPath>
</defs>
</svg>
