<svg width="24" height="24" viewBox="0 0 24 24" fill="none" xmlns="http://www.w3.org/2000/svg">
<path fill-rule="evenodd" clip-rule="evenodd" d="M15.9337 8.04L11.497 8.6283L7.06 8.04L11.4967 0L15.9337 8.04Z" fill="#373737"/>
<path fill-rule="evenodd" clip-rule="evenodd" d="M15.6988 12H19.8913L21.7123 14.1657L19.8913 16.8144L15.6988 16.2174V12Z" fill="#4F4F4F"/>
<path fill-rule="evenodd" clip-rule="evenodd" d="M7.30447 12H3.10867L1.25977 14.1396L3.10867 16.8177L7.30447 16.2207V12ZM15.9337 8.04L11.497 7.2V0L15.9337 2.1015V8.04Z" fill="#ACACAC"/>
<path fill-rule="evenodd" clip-rule="evenodd" d="M7.06 8.04L11.4967 7.2V0L7.06 2.1015V8.04Z" fill="#4F4F4F"/>
<path fill-rule="evenodd" clip-rule="evenodd" d="M18.1198 12H11.497L5.89447 15.7785L11.497 24L18.1198 20.8653V12Z" fill="#ACACAC"/>
<path fill-rule="evenodd" clip-rule="evenodd" d="M4.87421 12H11.497V24L4.87421 20.8653V12Z" fill="#4F4F4F"/>
<path fill-rule="evenodd" clip-rule="evenodd" d="M19.8913 16.8147L22 16.2177V12H19.8913V16.8147Z" fill="#ACACAC"/>
<path fill-rule="evenodd" clip-rule="evenodd" d="M3.1087 16.8174L1 16.2204V12H3.1087V16.8174Z" fill="#4F4F4F"/>
</svg>
