<svg width="24" height="24" viewBox="0 0 24 24" fill="none" xmlns="http://www.w3.org/2000/svg">
<path d="M2.55947 12.3163C2.5607 12.4697 2.5262 12.6213 2.4587 12.759C2.39159 12.8934 2.29636 13.0093 2.17698 13.1027C2.05581 13.1977 1.91208 13.2708 1.74617 13.3231C1.58007 13.3753 1.39734 13.4015 1.19955 13.4015C0.962574 13.4015 0.749944 13.3698 0.563448 13.3045C0.376754 13.2407 0.188476 13.1326 0 12.9831L0.311619 12.4769C0.460697 12.602 0.595125 12.6937 0.716288 12.7515C0.831222 12.8081 0.957617 12.8375 1.08572 12.8374C1.24054 12.8374 1.36368 12.7982 1.45891 12.7178C1.55394 12.6377 1.59868 12.5311 1.59868 12.3947C1.59868 12.3369 1.58938 12.2827 1.57255 12.2324C1.55592 12.1819 1.52404 12.1294 1.4795 12.0754C1.4227 12.0113 1.35955 11.9531 1.29102 11.9018C1.19002 11.8224 1.08738 11.7452 0.983164 11.6701C0.888134 11.6028 0.792906 11.5319 0.701439 11.4609C0.612428 11.39 0.528845 11.3126 0.451392 11.2292C0.376949 11.1472 0.315885 11.0539 0.270439 10.9529C0.223468 10.8431 0.199999 10.7248 0.201543 10.6054C0.201543 10.4561 0.233219 10.3179 0.294593 10.1946C0.355966 10.0713 0.442285 9.96672 0.550382 9.87882C0.658478 9.79092 0.787164 9.7238 0.9404 9.6751C1.10031 9.62518 1.26704 9.6006 1.43456 9.60224C1.62303 9.60224 1.80398 9.6266 1.97939 9.67708C2.15218 9.72621 2.3168 9.80045 2.46801 9.89743L2.18628 10.3532C1.99424 10.2186 1.79092 10.1497 1.57829 10.1497C1.4496 10.1497 1.34131 10.1833 1.25736 10.2504C1.17342 10.3175 1.13066 10.4017 1.13066 10.5044C1.13066 10.6014 1.16788 10.6893 1.24252 10.7658C1.31696 10.8444 1.44584 10.9509 1.62858 11.0928C1.81329 11.2273 1.96633 11.3468 2.08571 11.4476C2.20687 11.5486 2.3021 11.6456 2.37278 11.7353C2.44385 11.825 2.49038 11.9146 2.51849 12.0079C2.54641 12.1031 2.55947 12.2041 2.55947 12.3163ZM5.75881 11.4629C5.75881 11.6028 5.74396 11.7541 5.71407 11.9166C5.68756 12.0734 5.63722 12.2252 5.56479 12.3668C5.49392 12.505 5.40245 12.6188 5.28881 12.7068C5.17497 12.7962 5.02946 12.8412 4.85603 12.8412C4.565 12.8412 4.33534 12.7254 4.16766 12.4919C3.99977 12.2603 3.91583 11.941 3.91583 11.5357C3.91583 11.1192 3.99977 10.7903 4.17122 10.5458C4.34108 10.3011 4.57232 10.1796 4.86335 10.1796C5.13953 10.1796 5.35771 10.2954 5.51827 10.5232C5.67863 10.7529 5.75881 11.0669 5.75881 11.4629ZM6.76989 11.4272C6.76989 11.1564 6.73069 10.9099 6.65427 10.6895C6.57587 10.4672 6.46778 10.2768 6.32404 10.1162C6.18051 9.95544 6.01262 9.8323 5.81662 9.74261C5.62062 9.65293 5.40443 9.60799 5.16745 9.60799C4.90631 9.60799 4.67686 9.65847 4.47908 9.75568C4.2813 9.85467 4.09658 10.0097 3.92869 10.2225L3.92315 9.69391H2.99225V15.1272H3.92137V12.8319C4.01284 12.9382 4.10034 13.0279 4.18627 13.1007C4.27021 13.1736 4.35593 13.2334 4.44364 13.2781C4.53134 13.3231 4.62281 13.3567 4.71982 13.3753C4.81683 13.3939 4.92116 13.4032 5.03124 13.4032C5.26931 13.4045 5.50484 13.3542 5.72159 13.2557C5.93422 13.1568 6.11894 13.0186 6.27376 12.8392C6.42858 12.6598 6.54994 12.4508 6.63744 12.2136C6.72713 11.9744 6.76989 11.7111 6.76989 11.4272ZM7.18406 13.3155H8.13931V8H7.18406V13.3155ZM12.2135 13.3175V9.69015H11.2585V11.6418C11.2585 11.8156 11.2509 11.9501 11.2361 12.0453C11.2228 12.134 11.1983 12.2206 11.1632 12.3031C11.029 12.602 10.7807 12.7531 10.4208 12.7531C10.1391 12.7531 9.9433 12.6523 9.83124 12.4488C9.78531 12.3678 9.75433 12.2792 9.73977 12.1873C9.72314 12.0902 9.71384 11.9501 9.71384 11.7652V9.69034H8.75859V11.7503C8.75859 11.8905 8.76057 12.0101 8.76235 12.1053C8.76558 12.2591 8.78308 12.4123 8.81462 12.5628C8.8257 12.6208 8.84431 12.6769 8.86867 12.7291C8.95637 12.9513 9.09634 13.1193 9.29214 13.2334C9.48814 13.3472 9.72869 13.4032 10.0122 13.4032C10.2678 13.4032 10.4935 13.3585 10.6875 13.2688C10.8815 13.1791 11.07 13.0334 11.2527 12.8299L11.2547 13.3155L12.2135 13.3175ZM16.3289 13.3155V11.2591C16.3289 11.1192 16.3269 10.9996 16.3251 10.9006C16.3232 10.8016 16.3176 10.7157 16.3065 10.6428C16.2982 10.5787 16.2863 10.5151 16.2709 10.4524C16.2561 10.3963 16.2392 10.3421 16.2206 10.2898C16.1329 10.0732 15.9929 9.90515 15.7971 9.78735C15.6013 9.66956 15.3606 9.60997 15.0753 9.60997C14.8197 9.60997 14.594 9.65471 14.4 9.74459C14.206 9.83447 14.0175 9.98157 13.8348 10.1833L13.8328 9.69767H12.872V13.3173H13.8348V11.3639C13.8348 11.1956 13.8403 11.0629 13.8534 10.9697C13.8645 10.8762 13.8888 10.7885 13.9223 10.7044C13.9838 10.5587 14.0809 10.4504 14.2097 10.3757C14.3386 10.3011 14.4913 10.2637 14.6704 10.2637C14.9522 10.2637 15.148 10.3647 15.26 10.5682C15.3028 10.6446 15.3327 10.7325 15.3495 10.8277C15.3663 10.923 15.3756 11.0649 15.3756 11.248V13.3138L16.3289 13.3155ZM20.28 13.0764L18.8248 11.2667L20.0543 9.94811L19.3305 9.6361L18.0507 11.1209H17.95V8H16.9874V13.3157H17.95V11.39L19.3903 13.3884L20.28 13.0764ZM24 11.7766V11.1845L21.1065 9.73133V10.3833L23.3488 11.4759L21.1065 12.5834V13.2203L24 11.7766ZM21.3863 8.79192C21.2091 8.79192 21.0654 8.93763 21.0654 9.117C21.0654 9.29993 21.2091 9.44366 21.3863 9.44366C21.5655 9.44366 21.7072 9.29993 21.7072 9.117C21.7078 9.0745 21.6999 9.03231 21.684 8.99288C21.6682 8.95345 21.6446 8.91757 21.6148 8.88732C21.5849 8.85707 21.5493 8.83306 21.5101 8.81668C21.4709 8.8003 21.4288 8.79189 21.3863 8.79192ZM21.3883 8.8424C21.5318 8.8424 21.6474 8.96554 21.6474 9.11878C21.6474 9.27201 21.5318 9.39516 21.3883 9.39338C21.2427 9.39338 21.1269 9.27201 21.1269 9.117C21.1269 8.96554 21.2427 8.8424 21.3883 8.8424ZM21.3267 9.15046H21.3657C21.4124 9.15046 21.4348 9.16728 21.4441 9.21401C21.4516 9.26251 21.4609 9.29439 21.4684 9.30547H21.53C21.5243 9.29439 21.515 9.27182 21.5076 9.21599C21.5001 9.16174 21.4795 9.13363 21.4461 9.12808V9.12452C21.4853 9.11343 21.5169 9.08354 21.5169 9.03682C21.5169 9.00316 21.5057 8.97703 21.4833 8.96198C21.4609 8.94535 21.4255 8.93406 21.3714 8.93406C21.3285 8.93406 21.2986 8.93783 21.2689 8.94337V9.30567H21.3267V9.15046ZM21.3267 8.98237C21.336 8.98039 21.3491 8.97861 21.3677 8.97861C21.433 8.97861 21.4554 9.01029 21.4554 9.04216C21.4554 9.0871 21.4142 9.10373 21.3677 9.10373H21.3267V8.98237Z" fill="#0C1724"/>
</svg>
