<svg width="24" height="24" viewBox="0 0 24 24" fill="none" xmlns="http://www.w3.org/2000/svg">
<g clip-path="url(#clip0_368_308)">
<path d="M8.21536 0.103123C7.90767 0.213892 4.39383 2.21389 4.0123 2.49696C3.50153 2.8785 3.24307 3.54927 3.37845 4.14619C3.42153 4.33696 3.65537 4.82311 3.96307 5.35234L4.47383 6.23849L4.24614 6.57695C4.12307 6.76157 3.90153 7.1308 3.75999 7.38926L3.49538 7.86926H2.43692C1.23077 7.86926 0.972305 7.92464 0.566152 8.27541C0.430768 8.39233 0.246153 8.62618 0.16 8.80464L0 9.12464V11.6846V14.2446L0.16 14.5646C0.246153 14.7431 0.430768 14.9769 0.566152 15.0939C0.966151 15.4385 1.23692 15.5 2.39999 15.5H3.42768L3.57537 15.82C3.65537 15.9985 3.87076 16.3738 4.04922 16.6569C4.22153 16.94 4.36922 17.1862 4.36922 17.1985C4.36922 17.2046 4.1846 17.5308 3.96307 17.9123C3.34768 18.9585 3.26153 19.1615 3.26768 19.5923C3.27384 20.0292 3.34768 20.2569 3.60614 20.62C3.76614 20.8477 4.07384 21.0446 5.79075 22.0354C8.31998 23.4877 8.13536 23.4015 8.62151 23.4015C8.93536 23.4015 9.09536 23.3646 9.37228 23.2354C9.80305 23.02 9.90151 22.9031 10.4861 21.8877L10.96 21.0692L11.9507 21.1L12.9415 21.1308L13.4277 21.9615C13.9877 22.9154 14.1723 23.1308 14.603 23.3154C14.8553 23.4261 15.003 23.4446 15.3784 23.4261C15.84 23.4077 15.8584 23.4015 16.8184 22.8354C17.36 22.5277 17.803 22.2692 17.8153 22.2692C17.8523 22.2692 19.2984 21.4138 19.7969 21.0938C20.203 20.8354 20.3261 20.7246 20.4307 20.5031C20.6276 20.0785 20.6892 19.6908 20.6153 19.34C20.5476 19.0323 19.7538 17.5615 19.5815 17.4262C19.4953 17.3585 19.5076 17.3154 19.6861 17.0877C19.7907 16.94 20.0369 16.5092 20.2276 16.1277L20.5661 15.4385H21.7661C22.8307 15.4385 22.9846 15.4262 23.1999 15.3154C23.4276 15.1985 23.7846 14.8169 23.9322 14.5339C23.9815 14.4415 23.9999 13.6046 23.9999 11.7646C23.9999 8.68156 24.0184 8.79233 23.4276 8.36156L23.0522 8.08464L21.8215 8.05387L20.5969 8.0231L20.0799 7.18618L19.5692 6.34311L20.0738 5.49388C20.3507 5.02003 20.6153 4.54003 20.6523 4.42311C20.7692 4.10311 20.7569 3.62927 20.6092 3.20465C20.4615 2.76773 20.3384 2.66312 19.1076 1.96158C18.7384 1.75235 18.3323 1.5185 18.2153 1.4385C17.5815 1.03851 16 0.183123 15.7846 0.121585C15.4523 0.0292772 15.2184 0.0354311 14.8553 0.1462C14.3569 0.293892 14.0984 0.570814 13.5077 1.5985C13.12 2.26927 12.9477 2.51542 12.88 2.49081C12.8307 2.47235 12.4123 2.45389 11.9507 2.45389H11.1077L10.5969 1.56773C10.0123 0.552353 9.72305 0.238507 9.22459 0.0908155C8.81228 -0.0322611 8.5969 -0.0322611 8.21536 0.103123ZM9.40305 0.583122C9.61844 0.712352 9.74151 0.872352 10.123 1.5185C10.3815 1.94927 10.6461 2.42312 10.7261 2.57696L10.8615 2.85388L12.0492 2.84773H13.2369L13.76 1.92466C14.0492 1.42004 14.3753 0.915429 14.48 0.80466C14.72 0.558507 15.2307 0.392353 15.5569 0.453891C15.8769 0.509276 19.7292 2.73081 20.0123 3.02004C20.2707 3.28465 20.3938 3.65388 20.3507 4.02927C20.3261 4.27542 20.0676 4.78003 19.3969 5.88772L19.1323 6.33695L19.4769 6.87234C19.6676 7.16772 19.9261 7.6231 20.0492 7.88156L20.2769 8.35541L21.4461 8.36156C22.443 8.36156 22.6522 8.38002 22.8615 8.47848C23.1692 8.61387 23.483 8.96464 23.5692 9.26618C23.6184 9.42617 23.6307 10.2816 23.6184 11.9431L23.5999 14.38L23.4153 14.6508C23.3107 14.7923 23.1015 14.9831 22.9538 15.0692C22.683 15.2169 22.6399 15.2231 21.4769 15.2231H20.2769L20.0615 15.6846C19.9446 15.9369 19.6738 16.3985 19.4646 16.7185L19.083 17.2908L19.2861 17.6108C19.3969 17.7892 19.6615 18.2385 19.8707 18.62C20.2092 19.2292 20.2523 19.34 20.2523 19.6415C20.2523 20.0108 20.1107 20.3615 19.8646 20.5892C19.7907 20.6631 18.8246 21.2415 17.723 21.8754C16.0861 22.8169 15.6738 23.0323 15.4338 23.0569C14.683 23.1308 14.3938 22.8908 13.6615 21.6108L13.1446 20.7H11.9323H10.7261L10.1907 21.6292C9.89536 22.14 9.59382 22.6138 9.51997 22.6815C9.16305 23.0138 8.52305 23.1246 8.12921 22.9277C8.02459 22.8723 7.05844 22.3246 5.99383 21.7092C4.41845 20.8046 4.0123 20.54 3.87076 20.3431C3.68614 20.0846 3.59384 19.6785 3.65537 19.3585C3.68614 19.18 4.6523 17.4077 4.79999 17.26C4.8246 17.2354 4.70153 16.9769 4.51691 16.6938C4.3323 16.4108 4.06153 15.9369 3.91999 15.6415L3.66153 15.1L2.59692 15.1185C1.39692 15.1369 1.14461 15.0939 0.818459 14.8046C0.36923 14.4108 0.36923 14.4108 0.36923 11.6846C0.36923 8.95848 0.36923 8.95848 0.818459 8.56464C1.15077 8.27541 1.40923 8.22618 2.64615 8.25079L3.74153 8.26925L3.90768 7.93079C4.12307 7.48772 4.46153 6.93387 4.7446 6.54618C4.95999 6.24464 4.96614 6.22618 4.86768 6.10926C4.6523 5.83849 3.79691 4.28773 3.75384 4.07234C3.67384 3.72157 3.79076 3.2785 4.03691 3.00773C4.27076 2.75542 8.10459 0.503122 8.44921 0.416968C8.73844 0.349276 9.10151 0.410815 9.40305 0.583122Z" fill="black"/>
<path d="M6.64616 2.15236C5.58155 2.76775 4.64616 3.32774 4.57232 3.39544C4.49232 3.46313 4.41232 3.61082 4.39386 3.72774C4.36309 3.9062 4.41847 4.04159 4.81847 4.74928C5.07693 5.19235 5.35385 5.65389 5.44001 5.77081C5.71078 6.13389 5.6677 6.39235 5.23078 7.00158C5.0277 7.28466 4.72001 7.80158 4.5477 8.14619C4.37539 8.49081 4.17232 8.81081 4.09847 8.85388C4.00001 8.91542 3.67386 8.93388 2.68925 8.92158L1.4154 8.90927L1.23079 9.09388L1.04617 9.27234V11.6846V14.0969L1.22463 14.2754L1.4031 14.4539H2.65848C3.69232 14.4539 3.93232 14.4723 4.04924 14.5523C4.12309 14.6016 4.32001 14.9277 4.48001 15.2723C4.64616 15.6169 4.95385 16.1646 5.16308 16.4846C5.49539 16.9892 5.54462 17.1 5.51385 17.2785C5.49539 17.3892 5.44001 17.5308 5.38462 17.5923C5.33539 17.6477 5.07078 18.0785 4.80001 18.5523C4.27693 19.4631 4.20924 19.7092 4.41847 19.9739C4.5477 20.1339 8.33231 22.3246 8.56 22.3738C8.88615 22.4354 9.06461 22.2631 9.58153 21.3646C9.84615 20.8969 10.1046 20.4354 10.1538 20.3431C10.2031 20.2446 10.2954 20.14 10.3692 20.0969C10.5477 20.0046 13.3477 20.0169 13.5323 20.1154C13.6123 20.1523 13.7108 20.2754 13.7538 20.38C13.9015 20.7369 14.7138 22.1154 14.8677 22.2692C15.1631 22.5708 15.2923 22.5215 17.44 21.2785C19.4277 20.1339 19.6307 19.98 19.6307 19.6477C19.6307 19.5308 18.9723 18.3246 18.5784 17.7216C18.48 17.5677 18.4 17.3769 18.4 17.2846C18.4 17.1923 18.5661 16.8785 18.8061 16.5154C19.0338 16.1769 19.3354 15.6477 19.483 15.34C19.883 14.5031 19.7846 14.5462 21.2307 14.5708C22.5292 14.5893 22.7446 14.5523 22.8923 14.2754C22.9292 14.1954 22.9538 13.2908 22.9538 11.777V9.39542L22.7753 9.21696L22.5969 9.0385H21.36C20.5477 9.0385 20.0738 9.01388 19.9692 8.96465C19.8523 8.91542 19.7169 8.70619 19.4769 8.21389C19.2923 7.8385 18.9907 7.30927 18.8061 7.0385C18.3815 6.42927 18.3569 6.21389 18.6707 5.78312C18.7815 5.62928 19.0584 5.18005 19.2861 4.7862C19.7415 3.9862 19.7969 3.72159 19.5569 3.48159C19.4769 3.40774 18.5354 2.83544 17.4584 2.2139C14.9846 0.786213 15.1815 0.79852 14.4246 2.08467C14.2031 2.47236 13.9631 2.90313 13.9077 3.04467C13.6984 3.53082 13.6861 3.53082 12.0861 3.52467C11.3108 3.51851 10.6092 3.50005 10.5354 3.47544C10.4369 3.44467 10.3385 3.31544 10.2461 3.11236C10.0061 2.57082 9.29846 1.38313 9.10154 1.20467C8.99692 1.10621 8.84923 1.03852 8.75077 1.03852C8.64 1.03852 7.88308 1.43852 6.64616 2.15236ZM13.0954 6.73697C14.8984 7.11235 16.3507 8.47235 16.9354 10.3308C17.0584 10.7308 17.0769 10.9154 17.0769 11.7462C17.0769 12.577 17.0584 12.7616 16.9354 13.1616C16.2277 15.4016 14.2892 16.8539 11.9938 16.8539C9.72307 16.8539 7.78462 15.4077 7.07693 13.1923C6.88616 12.6016 6.83693 11.2846 6.97846 10.6816C7.45231 8.66311 8.95384 7.15543 10.9046 6.73697C11.68 6.57081 12.2831 6.57081 13.0954 6.73697Z" fill="black"/>
<path d="M11.3107 7.32156C10.8307 7.38925 10.16 7.62925 9.73534 7.88156C8.89227 8.38002 8.08612 9.36463 7.79073 10.2569C7.21843 11.9677 7.60612 13.6292 8.8615 14.8846C9.74765 15.7769 10.7323 16.1831 12 16.1831C13.2676 16.1831 14.2523 15.7769 15.1384 14.8846C15.9015 14.1277 16.3015 13.3092 16.4307 12.2631C16.603 10.8846 16.0923 9.48155 15.0584 8.50925C14.5353 8.01694 14.0861 7.73387 13.4892 7.52464C12.7692 7.27848 12.0615 7.21079 11.3107 7.32156ZM13.0153 7.78925C13.9384 8.0231 14.8984 8.71848 15.4461 9.54925C16.3507 10.9339 16.2522 12.8785 15.1999 14.2815C15.0523 14.4785 14.8984 14.6385 14.8553 14.6385C14.8123 14.6385 14.7446 14.6938 14.7076 14.7677C14.6276 14.9154 13.8399 15.4385 13.6923 15.4385C13.643 15.4385 13.5323 15.4815 13.4584 15.5246C13.0461 15.7954 11.76 15.8938 11.0461 15.7154C10.843 15.6662 10.443 15.5062 10.1538 15.3646C9.7415 15.1677 9.52611 15.0077 9.13227 14.6138C8.30766 13.7769 7.92612 12.8662 7.93227 11.7092C7.93227 10.6385 8.28304 9.77078 9.02765 8.97079C10.1046 7.83233 11.5323 7.40771 13.0153 7.78925Z" fill="black"/>
</g>
<defs>
<clipPath id="clip0_368_308">
<rect width="24" height="24" fill="white"/>
</clipPath>
</defs>
</svg>
