<svg width="24" height="24" viewBox="0 0 24 24" fill="none" xmlns="http://www.w3.org/2000/svg">
<mask id="mask0_112_854" style="mask-type:alpha" maskUnits="userSpaceOnUse" x="0" y="10" width="24" height="5">
<path d="M0 10H24V14.2093H0V10Z" fill="white"/>
</mask>
<g mask="url(#mask0_112_854)">
<path fill-rule="evenodd" clip-rule="evenodd" d="M15.7886 13.9069V13.7481L15.7354 13.695H13.7755L13.7223 13.642V12.2647L13.7755 12.2117H15.6296L15.6825 12.1586V11.9998L15.6296 11.9466H13.7755L13.7223 11.8938V10.5693L13.7755 10.5164H15.7354L15.7886 10.4634V10.3044L15.7354 10.2515H13.4577L13.4045 10.3044V13.9069L13.4577 13.9601H15.7354L15.7886 13.9069ZM20.2385 13.9069V10.3044L20.1858 10.2515H19.8149L19.762 10.3044L18.3844 13.536H18.3314L16.9541 10.3044L16.9009 10.2515H16.5302L16.4771 10.3044V13.9069L16.5302 13.9601H16.7422L16.7951 13.9069V10.8343H16.8482L18.1724 13.9069L18.2256 13.9601H18.4904L18.5433 13.9069L19.8678 10.8343H19.9207V13.9069L19.9739 13.9601H20.1858L20.2385 13.9069ZM22.5696 14.013C23.3115 14.013 23.8941 13.642 24 12.8475L23.9473 12.7943H23.7353L23.6822 12.8475C23.5764 13.4299 23.2054 13.7481 22.5696 13.7481C21.7751 13.7481 21.1923 13.1653 21.1923 12.1057C21.1923 11.0461 21.7751 10.4634 22.5696 10.4634C23.2054 10.4634 23.5764 10.7812 23.6822 11.3109L23.7353 11.364H23.9473L24 11.3109C23.8941 10.5693 23.3115 10.1986 22.5696 10.1986C21.669 10.1986 20.8743 10.8343 20.8743 12.1057C20.8743 13.3772 21.669 14.013 22.5696 14.013Z" fill="#797A76"/>
<path fill-rule="evenodd" clip-rule="evenodd" d="M0.839999 13.223V10.9886H1.50099C2.05988 10.9886 2.51294 11.4888 2.51294 12.1058C2.51294 12.7228 2.05988 13.223 1.50099 13.223H0.839999ZM1.50099 13.9601C2.36389 13.9601 3.08911 13.3706 3.29602 12.5724L5.39406 14.2116L7.49081 12.5734V13.9601H9.88323V13.223H8.33313V10.2515H7.49081V11.6382L5.47958 13.2095L5.02979 12.858L7.04103 11.2867L6.44243 10.8191L4.4312 12.3904L3.98142 12.039L5.99265 10.4676L5.39406 10L3.29602 11.6392C3.08911 10.841 2.36389 10.2515 1.50099 10.2515H-0.00231934V13.9601H1.50099ZM10.1698 10.2587H11.0122H10.1698ZM12.5623 13.223V13.9601H10.1698V10.2515H11.0122V13.223H12.5623Z" fill="#316AA5"/>
</g>
</svg>
