<svg width="24" height="24" viewBox="0 0 24 24" fill="none" xmlns="http://www.w3.org/2000/svg">
<path d="M13.3334 3H10.6667V12.3333H13.3334V3Z" fill="#669DF6"/>
<path d="M13.3334 12.3333H10.6667V21.6667H13.3334V12.3333Z" fill="#4285F4"/>
<path d="M18.6667 3H16V12.3333H18.6667V3Z" fill="#669DF6"/>
<path d="M18.6667 12.3333H16V21.6667H18.6667V12.3333Z" fill="#4285F4"/>
<path d="M24 3H21.3333V12.3333H24V3Z" fill="#669DF6"/>
<path d="M24 12.3333H21.3333V21.6667H24V12.3333Z" fill="#4285F4"/>
<path d="M7.99998 3H5.33331V12.3333H7.99998V3Z" fill="#669DF6"/>
<path d="M7.99998 12.3333H5.33331V21.6667H7.99998V12.3333Z" fill="#4285F4"/>
<path d="M2.66667 3H0V12.3333H2.66667V3Z" fill="#669DF6"/>
<path d="M2.66667 12.3333H0V21.6667H2.66667V12.3333Z" fill="#4285F4"/>
</svg>
