<svg width="24" height="24" viewBox="0 0 24 24" fill="none" xmlns="http://www.w3.org/2000/svg">
<path d="M1.192 9H0L1.7 12.864C1.712 12.892 1.756 12.892 1.768 12.864L2.332 11.532L1.192 9ZM4.824 9C4.824 9 2.996 13.184 2.752 13.572C2.468 14.02 2.28 14.192 1.928 14.248C1.924 14.248 1.924 14.252 1.924 14.256C1.924 14.26 1.928 14.264 1.932 14.264H3.024C3.496 14.264 3.84 13.868 4.028 13.52C4.244 13.124 6.04 9.004 6.04 9.004H4.824V9ZM9.6 12.356C9.596 12.36 9.588 12.36 9.588 12.356L8.68 10.372H8.172C8.172 10.372 9.108 12.476 9.2 12.636C9.292 12.788 9.4 12.916 9.596 12.916C9.792 12.916 9.9 12.788 9.992 12.636C10.084 12.48 11.02 10.372 11.02 10.372H10.508L9.6 12.356ZM12.364 12.528C11.872 12.528 11.548 12.208 11.548 11.628C11.548 11.048 11.872 10.728 12.364 10.728C12.856 10.728 13.18 11.048 13.18 11.628C13.18 12.208 12.856 12.528 12.364 12.528ZM12.364 10.312C11.592 10.312 11.096 10.812 11.096 11.628C11.096 12.444 11.592 12.944 12.364 12.944C13.132 12.944 13.632 12.444 13.632 11.628C13.632 10.812 13.136 10.312 12.364 10.312ZM16.24 10.372V12.888H15.716L14.5 11.048V12.888H14.056V10.372H14.58L15.796 12.224V10.372H16.24ZM17.432 11.856L17.872 10.828C17.876 10.824 17.884 10.824 17.884 10.828L18.324 11.856H17.432ZM17.876 10.344C17.692 10.344 17.58 10.484 17.508 10.624C17.432 10.768 16.528 12.888 16.528 12.888H16.992L17.252 12.28H18.504L18.764 12.888H19.228C19.228 12.888 18.324 10.764 18.248 10.624C18.172 10.48 18.06 10.344 17.876 10.344ZM20.488 11.916H21.284C21.28 12.308 20.916 12.528 20.528 12.528C20.044 12.528 19.724 12.208 19.724 11.628C19.724 11.004 20.016 10.724 20.552 10.724C20.888 10.724 21.164 10.86 21.224 11.176H21.684C21.604 10.624 21.092 10.312 20.524 10.312C19.764 10.312 19.276 10.812 19.276 11.628C19.276 12.444 19.764 12.932 20.524 12.932C20.844 12.932 21.168 12.76 21.28 12.58V12.884H21.708V12.108V11.528H20.484V11.916H20.488ZM24 10.792V10.372H22.192V12.888H24V12.468H22.636V11.808H23.892V11.388H22.636V10.796H24V10.792Z" fill="black"/>
</svg>
