<svg width="24" height="24" viewBox="0 0 24 24" fill="none" xmlns="http://www.w3.org/2000/svg">
<path d="M5.58704 9.09814C4.97104 9.35014 4.42704 9.95014 3.42304 11.4661C3.14704 11.8861 2.89104 12.2501 2.85904 12.2781C2.81504 12.3181 2.65504 12.3301 2.32304 12.3301C1.58704 12.3301 1.11904 12.1381 0.971041 11.7741C0.783042 11.3301 1.11504 10.7461 1.65104 10.5781C1.77504 10.5381 1.87104 10.4861 1.86304 10.4661C1.85504 10.4381 1.71904 10.4221 1.52704 10.4221C1.23104 10.4221 1.17904 10.4341 0.891042 10.5821C0.515042 10.7741 0.343042 10.9741 0.275042 11.3021C0.115042 12.0821 0.907041 12.6421 2.17904 12.6421C2.38704 12.6421 2.55504 12.6541 2.55504 12.6661C2.55504 12.7021 2.13104 13.1621 2.04304 13.2261C1.98304 13.2661 1.90304 13.2661 1.59104 13.2181C0.823041 13.1021 0.299042 13.1701 0.0990416 13.4061C-0.0209584 13.5461 -0.0289584 13.6381 0.0590415 13.8061C0.151042 13.9901 0.391042 14.0821 0.775042 14.0821C1.15904 14.0821 1.43904 14.0141 1.82304 13.8221L2.10704 13.6821L2.68304 13.9061C4.64304 14.6661 5.73104 14.8381 6.47504 14.4981C6.82304 14.3381 7.07504 14.0581 7.07504 13.8221C7.07504 13.6981 7.03504 13.6981 6.85104 13.8221C6.35104 14.1621 5.32304 14.1941 4.23504 13.8981C4.03904 13.8461 2.59104 13.3981 2.56304 13.3781C2.55904 13.3741 2.73904 13.1861 2.97104 12.9541C3.38704 12.5421 3.39104 12.5341 3.70304 12.4541C4.69504 12.1861 5.84304 11.4981 6.38304 10.8461C6.71504 10.4421 6.84704 10.1421 6.86304 9.75014C6.87904 9.47014 6.86704 9.40214 6.79504 9.29014C6.61504 9.00214 6.04304 8.91014 5.58704 9.09814ZM6.25104 9.45414C6.44304 9.71414 6.29904 10.2741 5.92304 10.7501C5.71904 11.0061 5.30304 11.3461 4.87904 11.6021C4.53504 11.8061 3.81104 12.1141 3.77104 12.0701C3.75504 12.0581 3.79904 11.9781 3.86704 11.8941C3.93504 11.8101 4.17104 11.4461 4.39104 11.0861C5.04704 10.0221 5.33904 9.65014 5.67504 9.43414C5.91104 9.28214 6.12704 9.29014 6.25104 9.45414ZM1.51504 13.5141C1.61504 13.5501 1.61504 13.5541 1.45504 13.6181C1.05504 13.7901 0.595042 13.7901 0.559042 13.6221C0.531042 13.4781 0.663041 13.4341 1.05504 13.4541C1.25504 13.4661 1.45904 13.4901 1.51504 13.5141Z" fill="black"/>
<path d="M18.535 9.16213C18.091 9.33413 17.639 9.81813 17.255 10.5301C17.091 10.8421 17.055 10.8821 16.959 10.8821C16.839 10.8821 16.691 11.0101 16.735 11.0781C16.747 11.1021 16.803 11.1221 16.859 11.1221C16.911 11.1221 16.955 11.1301 16.955 11.1421C16.955 11.1501 16.867 11.3501 16.759 11.5781C16.483 12.1621 15.975 12.8061 15.739 12.8661C15.619 12.8941 15.515 12.8261 15.515 12.7221C15.515 12.6821 15.695 12.2741 15.915 11.8221C16.135 11.3661 16.315 10.9661 16.315 10.9381C16.315 10.8781 15.975 10.8581 15.887 10.9141C15.859 10.9301 15.723 11.1861 15.579 11.4821C15.211 12.2541 14.643 12.9421 14.403 12.9141C14.315 12.9061 14.291 12.8781 14.283 12.7701C14.271 12.6661 14.327 12.5301 14.523 12.1701C14.835 11.5981 14.915 11.4061 14.915 11.2101C14.915 10.7581 14.355 10.6821 13.835 11.0661C13.587 11.2501 13.559 11.2501 13.655 11.0821C13.687 11.0261 13.711 10.9581 13.715 10.9301C13.715 10.8621 13.339 10.8661 13.279 10.9381C13.251 10.9701 13.107 11.2421 12.955 11.5501C12.743 11.9781 12.615 12.1781 12.387 12.4381C12.051 12.8261 11.839 12.9701 11.739 12.8861C11.627 12.7941 11.667 12.6261 11.883 12.2781C12.323 11.5581 12.363 11.4821 12.383 11.3261C12.431 10.9701 12.295 10.8261 11.899 10.8261C11.635 10.8221 11.639 10.8261 11.679 10.5661C11.715 10.3501 11.407 10.3541 11.275 10.5741C11.171 10.7461 11.171 10.9381 11.279 11.0461L11.367 11.1341L11.275 11.3181C11.031 11.8261 10.275 12.7981 10.071 12.8621C9.96305 12.8981 9.86305 12.8101 9.89105 12.7021C9.90305 12.6541 10.091 12.2381 10.311 11.7781C10.531 11.3181 10.699 10.9301 10.691 10.9141C10.679 10.8941 10.583 10.8821 10.471 10.8821C10.287 10.8821 10.271 10.8901 10.207 11.0181L10.143 11.1541L9.99505 10.9981C9.84705 10.8421 9.79105 10.8261 9.49505 10.8381C9.13905 10.8581 8.49905 11.3541 8.17505 11.8621C7.69505 12.6101 6.79905 13.0901 6.44705 12.7861C6.35105 12.7021 6.33505 12.6621 6.33905 12.4741C6.33905 12.3501 6.37505 12.1821 6.42705 12.0701L6.51105 11.8781L6.59505 11.9621C6.75105 12.1181 7.31905 12.0341 7.65905 11.7981C8.05505 11.5261 8.14305 11.0621 7.83105 10.9021C7.29905 10.6261 6.32705 11.2541 5.90705 12.1461C5.74305 12.4941 5.72305 12.8861 5.85905 13.0661C6.00305 13.2621 6.13905 13.3341 6.38305 13.3541C6.75905 13.3781 7.19505 13.1741 7.70305 12.7381L7.89505 12.5701L7.90305 12.7621C7.91105 13.0021 8.00305 13.1821 8.16705 13.2821C8.43105 13.4461 8.74305 13.3541 9.12705 13.0061L9.35505 12.7941V12.9741C9.35505 13.2101 9.47105 13.3621 9.65505 13.3621C10.047 13.3621 10.799 12.5381 11.523 11.3061C11.639 11.1101 11.775 11.0621 11.875 11.1781C11.935 11.2541 11.855 11.4381 11.543 11.9541C11.271 12.4101 11.155 12.7021 11.155 12.9541C11.155 13.1901 11.235 13.3101 11.411 13.3461C11.595 13.3781 11.859 13.2581 12.115 13.0181C12.223 12.9141 12.315 12.8421 12.315 12.8581C12.315 12.8741 12.279 12.9541 12.235 13.0421C12.103 13.2981 12.119 13.3261 12.387 13.3141L12.615 13.3021L12.983 12.5581C13.291 11.9301 13.383 11.7821 13.583 11.5781C13.919 11.2381 14.267 11.0941 14.367 11.2501C14.403 11.3061 14.355 11.4341 14.103 11.9301C13.683 12.7621 13.623 13.0941 13.863 13.2821C14.063 13.4381 14.351 13.3461 14.719 13.0101L14.943 12.8021L14.967 12.9861C15.019 13.4661 15.463 13.4781 15.959 13.0141C16.067 12.9141 16.155 12.8381 16.155 12.8501C16.155 12.8621 16.083 13.0301 15.991 13.2261C15.767 13.7181 15.467 14.1941 15.191 14.5101C15.059 14.6541 14.955 14.7901 14.955 14.8101C14.955 14.9541 15.299 14.8261 15.627 14.5621C15.971 14.2861 16.175 13.9421 16.855 12.4901L17.495 11.1221H17.887C18.099 11.1221 18.275 11.1301 18.275 11.1381C18.275 11.1461 18.103 11.5021 17.899 11.9341C17.691 12.3661 17.507 12.7781 17.495 12.8541C17.443 13.1301 17.623 13.3621 17.887 13.3621C18.075 13.3621 18.407 13.1261 18.719 12.7741L18.867 12.6141L18.887 12.7901C18.907 12.9861 18.995 13.1301 19.171 13.2581C19.259 13.3261 19.339 13.3421 19.567 13.3421C19.807 13.3421 19.899 13.3221 20.131 13.2141C20.747 12.9181 21.275 12.3461 21.823 11.3701C21.955 11.1341 21.975 11.1181 22.091 11.1301C22.303 11.1501 22.259 11.3381 21.919 11.9101C21.399 12.7781 21.351 13.2661 21.775 13.3461C21.987 13.3861 22.247 13.2421 22.591 12.8941C23.091 12.3861 23.383 11.9221 23.199 11.9221C23.179 11.9221 23.015 12.0981 22.839 12.3181C22.471 12.7621 22.247 12.9461 22.111 12.9021C21.959 12.8541 22.027 12.5981 22.315 12.1421C22.751 11.4541 22.819 11.2421 22.695 11.0021C22.627 10.8661 22.531 10.8301 22.235 10.8261L22.015 10.8221V10.6221C22.015 10.4421 22.007 10.4221 21.923 10.4101C21.795 10.3901 21.639 10.5021 21.571 10.6621C21.491 10.8541 21.499 10.9101 21.619 11.0301L21.727 11.1381L21.615 11.3381C21.095 12.2861 20.495 12.8261 19.899 12.8741C19.719 12.8901 19.675 12.8781 19.571 12.7901C19.467 12.7021 19.455 12.6621 19.459 12.4741C19.459 12.3501 19.495 12.1821 19.547 12.0701L19.631 11.8781L19.719 11.9661C19.795 12.0421 19.835 12.0501 20.091 12.0301C20.555 11.9941 20.915 11.7941 21.075 11.4781C21.171 11.2981 21.175 11.1981 21.099 11.0461C20.975 10.8101 20.567 10.7701 20.175 10.9581C19.771 11.1541 19.483 11.4301 19.055 12.0381C18.727 12.4981 18.347 12.8821 18.215 12.8821C18.147 12.8821 18.099 12.8501 18.071 12.7861C18.031 12.7021 18.075 12.5861 18.431 11.8421C18.651 11.3781 18.835 10.9741 18.835 10.9421C18.835 10.8901 18.731 10.8821 18.231 10.8821H17.631L17.655 10.7901C17.671 10.7421 17.783 10.5261 17.907 10.3101C18.263 9.68613 18.635 9.32213 18.903 9.32213C19.151 9.32213 19.171 9.53813 18.951 9.83813C18.887 9.93013 18.835 10.0101 18.835 10.0221C18.835 10.0781 19.143 10.0301 19.263 9.95813C19.435 9.85013 19.515 9.69413 19.515 9.46613C19.515 9.31813 19.495 9.27413 19.391 9.18613C19.287 9.09813 19.231 9.08213 19.003 9.08613C18.839 9.08613 18.659 9.11813 18.535 9.16213ZM7.61105 11.1261C7.80705 11.4061 7.14705 11.9101 6.69105 11.8261L6.55105 11.7981L6.68305 11.6141C7.01905 11.1501 7.46305 10.9141 7.61105 11.1261ZM20.707 11.0901C20.871 11.2541 20.591 11.6661 20.231 11.7821C20.091 11.8301 19.975 11.8421 19.851 11.8221L19.675 11.7981L19.803 11.6141C20.099 11.2021 20.555 10.9381 20.707 11.0901ZM9.79905 11.1501C9.90305 11.2741 9.86305 11.5741 9.69505 11.9101C9.52705 12.2501 9.07505 12.7421 8.84705 12.8381C8.48305 12.9861 8.34705 12.6701 8.56305 12.1701C8.71905 11.7941 9.09505 11.3261 9.36705 11.1621C9.52305 11.0661 9.72705 11.0581 9.79905 11.1501Z" fill="black"/>
<path d="M16.415 9.67813C16.171 9.82613 16.083 10.0861 16.235 10.2221C16.423 10.3941 16.835 10.1341 16.835 9.84213C16.835 9.60213 16.651 9.53413 16.415 9.67813Z" fill="black"/>
<path d="M23.051 10.3381C22.891 10.4981 22.871 10.6701 22.991 10.8661C23.103 11.0501 23.311 11.1101 23.507 11.0141C23.819 10.8621 23.863 10.4501 23.583 10.2821C23.383 10.1581 23.211 10.1781 23.051 10.3381ZM23.523 10.3261C23.623 10.3781 23.723 10.6141 23.687 10.7101C23.611 10.9301 23.411 11.0261 23.215 10.9461C22.967 10.8421 22.919 10.5901 23.111 10.3981C23.235 10.2741 23.379 10.2501 23.523 10.3261Z" fill="black"/>
<path d="M23.155 10.6421C23.155 10.8301 23.167 10.8821 23.215 10.8821C23.251 10.8821 23.275 10.8421 23.275 10.7781C23.275 10.6461 23.407 10.6581 23.427 10.7941C23.435 10.8421 23.467 10.8821 23.499 10.8821C23.563 10.8821 23.575 10.7381 23.515 10.7021C23.491 10.6861 23.495 10.6501 23.523 10.6021C23.595 10.4901 23.499 10.4021 23.311 10.4021H23.155V10.6421ZM23.407 10.5421C23.411 10.5621 23.383 10.5861 23.347 10.5941C23.303 10.6021 23.275 10.5821 23.275 10.5421C23.275 10.4741 23.395 10.4701 23.407 10.5421Z" fill="black"/>
</svg>
