<svg width="24" height="24" viewBox="0 0 24 24" fill="none" xmlns="http://www.w3.org/2000/svg">
<g clip-path="url(#clip0_36_199)">
<g clip-path="url(#clip1_36_199)">
<path d="M21.6 4.824C20.916 3.9 20.1 3.096 19.176 2.4C17.172 0.9 14.688 0 12 0C9.312 0 6.828 0.9 4.824 2.4C3.9 3.084 3.096 3.9 2.4 4.824C0.9 6.828 0 9.3 0 12C0 14.7 0.9 17.172 2.4 19.176C3.084 20.1 3.9 20.904 4.824 21.6C6.828 23.1 9.312 24 12 24C14.688 24 17.172 23.1 19.176 21.6C20.1 20.916 20.904 20.1 21.6 19.176C23.1 17.172 24 14.688 24 12C24 9.312 23.1 6.828 21.6 4.824ZM4.8 15.3C4.8 13.332 4.644 13.2 3.6 13.2C2.94 13.2 2.4 12.66 2.4 12C2.4 11.34 2.94 10.8 3.6 10.8C4.644 10.8 4.8 10.668 4.8 8.7C4.8 7.128 4.8 4.2 8.4 4.2C9.06 4.2 9.6 4.74 9.6 5.4C9.6 6.06 9.06 6.6 8.4 6.6C7.356 6.6 7.2 6.732 7.2 8.7C7.2 9.624 7.2 11.004 6.48 12C7.2 12.996 7.2 14.376 7.2 15.3C7.2 17.268 7.356 17.4 8.4 17.4C9.06 17.4 9.6 17.94 9.6 18.6C9.6 19.26 9.06 19.8 8.4 19.8C4.8 19.8 4.8 16.872 4.8 15.3ZM20.4 13.2C19.356 13.2 19.2 13.332 19.2 15.3C19.2 16.872 19.2 19.8 15.6 19.8C14.94 19.8 14.4 19.26 14.4 18.6C14.4 17.94 14.94 17.4 15.6 17.4C16.644 17.4 16.8 17.268 16.8 15.3C16.8 14.376 16.8 12.996 17.52 12C16.8 11.004 16.8 9.624 16.8 8.7C16.8 6.732 16.644 6.6 15.6 6.6C14.94 6.6 14.4 6.06 14.4 5.4C14.4 4.74 14.94 4.2 15.6 4.2C19.2 4.2 19.2 7.128 19.2 8.7C19.2 10.668 19.356 10.8 20.4 10.8C21.06 10.8 21.6 11.34 21.6 12C21.6 12.66 21.06 13.2 20.4 13.2Z" fill="#F44336"/>
<path d="M3.6 13.2C4.644 13.2 4.8 13.332 4.8 15.3C4.8 16.872 4.8 19.8 8.4 19.8C9.06 19.8 9.6 19.26 9.6 18.6C9.6 17.94 9.06 17.4 8.4 17.4C7.356 17.4 7.2 17.268 7.2 15.3C7.2 14.376 7.2 12.996 6.48 12C7.2 11.004 7.2 9.624 7.2 8.7C7.2 6.732 7.356 6.6 8.4 6.6C9.06 6.6 9.6 6.06 9.6 5.4C9.6 4.74 9.06 4.2 8.4 4.2C4.8 4.2 4.8 7.128 4.8 8.7C4.8 10.668 4.644 10.8 3.6 10.8C2.94 10.8 2.4 11.34 2.4 12C2.4 12.66 2.94 13.2 3.6 13.2Z" fill="white"/>
<path d="M20.4 10.8C19.356 10.8 19.2 10.668 19.2 8.7C19.2 7.128 19.2 4.2 15.6 4.2C14.94 4.2 14.4 4.74 14.4 5.4C14.4 6.06 14.94 6.6 15.6 6.6C16.644 6.6 16.8 6.732 16.8 8.7C16.8 9.624 16.8 11.004 17.52 12C16.8 12.996 16.8 14.376 16.8 15.3C16.8 17.268 16.644 17.4 15.6 17.4C14.94 17.4 14.4 17.94 14.4 18.6C14.4 19.26 14.94 19.8 15.6 19.8C19.2 19.8 19.2 16.872 19.2 15.3C19.2 13.332 19.356 13.2 20.4 13.2C21.06 13.2 21.6 12.66 21.6 12C21.6 11.34 21.06 10.8 20.4 10.8Z" fill="white"/>
</g>
</g>
<defs>
<clipPath id="clip0_36_199">
<rect width="24" height="24" fill="white"/>
</clipPath>
<clipPath id="clip1_36_199">
<rect width="24" height="24" fill="white"/>
</clipPath>
</defs>
</svg>
