<svg width="24" height="24" viewBox="0 0 24 24" fill="none" xmlns="http://www.w3.org/2000/svg">
<path d="M17.18 0L21.2 2.64V15.84C21.14 20.34 17.3 23.82 14.18 23.82C17.24 21.96 18.02 19.26 18.02 16.62V4.2L17.18 3.66L16.4 4.2V16.8L16.399 16.9186C16.3351 20.8245 13.1204 24 9.2 24C5.24 24 2 20.76 2 16.8V16.02C2 15.24 2.78 14.4 2.78 13.62C2.78 13.2433 2.60477 12.8373 2.41731 12.4429L2.37971 12.3642C2.31064 12.2202 2.2414 12.0781 2.18 11.94C2.06 11.76 2 11.46 2 11.22C2 10.32 2.72 9.6 3.56 9.6C4.46 9.6 5.18 10.32 5.18 11.22C5.18 11.46 5.12 11.7 5 11.94C4.9386 12.0781 4.86936 12.2202 4.80029 12.3642L4.76269 12.4429C4.57523 12.8373 4.4 13.2433 4.4 13.62C4.4 14.01 4.595 14.415 4.79 14.82L4.8367 14.9172C5.01495 15.2897 5.18 15.6612 5.18 16.02V16.8L5.18036 16.8539C5.20404 18.6299 6.3962 20.1054 8 20.64C7.22 19.56 6.8 18.24 6.8 16.8V16.02C6.8 15.63 6.995 15.225 7.19 14.82L7.2367 14.7228C7.41495 14.3503 7.58 13.9788 7.58 13.62C7.58 13.2433 7.40477 12.8373 7.21732 12.4429L7.17971 12.3642C7.11064 12.2202 7.0414 12.0781 6.98 11.94C6.86 11.76 6.8 11.46 6.8 11.22C6.8 10.32 7.46 9.6 8.36 9.6C9.26 9.6 9.98 10.32 9.98 11.22C9.98 11.46 9.92 11.7 9.8 11.94C9.7386 12.0781 9.66936 12.2202 9.60029 12.3642L9.56269 12.4429C9.37523 12.8373 9.2 13.2433 9.2 13.62C9.2 14.01 9.395 14.415 9.59 14.82L9.6367 14.9172C9.81495 15.2897 9.98 15.6612 9.98 16.02V16.8C9.98 18.06 10.52 19.26 11.48 20.04C12.5 19.32 13.16 18.12 13.16 16.8V2.64L17.18 0ZM3.62 5.28C4.5147 5.28 5.24 6.0053 5.24 6.9C5.24 7.7947 4.5147 8.52 3.62 8.52C2.7253 8.52 2 7.7947 2 6.9C2 6.0053 2.7253 5.28 3.62 5.28ZM8.42 5.22C9.3147 5.22 10.04 5.9453 10.04 6.84C10.04 7.7347 9.3147 8.46 8.42 8.46C7.5253 8.46 6.8 7.7347 6.8 6.84C6.8 5.9453 7.5253 5.22 8.42 5.22ZM3.62 0.96C4.5147 0.96 5.24 1.6853 5.24 2.58C5.24 3.4747 4.5147 4.2 3.62 4.2C2.7253 4.2 2 3.4747 2 2.58C2 1.6853 2.7253 0.96 3.62 0.96ZM8.42 0.9C9.3147 0.9 10.04 1.6253 10.04 2.52C10.04 3.4147 9.3147 4.14 8.42 4.14C7.5253 4.14 6.8 3.4147 6.8 2.52C6.8 1.6253 7.5253 0.9 8.42 0.9Z" fill="#FF6720"/>
</svg>
