<svg width="24" height="24" viewBox="0 0 24 24" fill="none" xmlns="http://www.w3.org/2000/svg">
<path d="M17.4853 5.7033C16.996 4.1855 15.8834 2.05258 15.7249 1.75238L15.5869 1.48996C15.4509 1.21916 15.3494 1.02519 15.3111 0.952784L14.8098 0L14.0917 5.10316L14.0667 5.28877C13.5298 5.25818 12.9582 5.2406 12.3536 5.2406C11.7456 5.2406 11.1706 5.25838 10.6305 5.28929L10.6083 5.10305L10.3563 3.31423C10.3566 3.31125 9.88908 0 9.88908 0L9.37721 0.952784C9.33085 1.04039 9.19115 1.30585 9.00933 1.67023L8.96516 1.75238C8.80631 2.05286 7.68308 4.18953 7.19063 5.70761C5.77011 5.98202 5 6.27554 5 6.27554V18.6804L12.3436 24L19.6873 18.6804V6.27554C19.6873 6.27554 18.9148 5.97894 17.4853 5.7033Z" fill="white"/>
<path d="M15.5034 15.3343H12.338V9.91435L9.12608 15.1759L8.62671 20.5787L12.2885 23.2533L12.338 23.2895L16.0828 20.5595L15.5034 15.3343Z" fill="#3B3B63"/>
<path d="M12.2836 23.2339L5.46924 18.2936V6.77344C5.46924 6.77344 7.98892 5.81228 12.2929 5.81228C16.5969 5.81228 19.0982 6.77344 19.0982 6.77344V18.2936L12.2836 23.2339Z" fill="#DBDBDB"/>
<path d="M12.3824 5.81228C12.3792 5.81228 12.3762 5.81239 12.373 5.81239V23.2336H12.3732L19.1877 18.2934V6.77344C19.1877 6.77344 16.6864 5.81228 12.3824 5.81228Z" fill="#C6C6C6"/>
<path d="M16.0641 20.5483L15.4858 15.3343H12.3202V23.2774L16.0641 20.5483Z" fill="#3B3B63"/>
<path d="M8.62671 20.5787L12.338 23.2895V9.91433L9.12608 15.1758L8.62671 20.5787Z" fill="#53537A"/>
<path d="M13.9351 19.0386C13.9351 19.9325 13.1139 20.3757 12.3604 20.3757C11.607 20.3757 10.7692 19.9325 10.7692 19.0386" fill="#BC9375"/>
<path d="M13.4734 18.5319C13.4734 19.5804 12.9182 19.8614 12.3521 19.8614C11.7861 19.8614 11.2307 19.5804 11.2307 18.5319" fill="#073251"/>
<path d="M12.3521 19.5009C11.7472 19.5009 11.4531 19.0497 11.4531 18.1222H11.7415C11.7415 19.208 12.1538 19.208 12.3521 19.208C12.5503 19.208 12.9627 19.208 12.9627 18.1222H13.251C13.251 19.0497 12.9569 19.5009 12.3521 19.5009Z" fill="white"/>
<path d="M17.1533 7.43677C17.1533 6.30573 15.2732 2.74709 15.2732 2.74709L14.6373 7.26024L14.0665 8.21302L12.3557 8.28376L12.3489 8.29776V8.28376L10.6379 8.21302L10.0673 7.26024L9.43129 2.74709C9.43129 2.74709 7.55103 6.30573 7.55103 7.43677L8.34535 9.60998C8.34535 9.60998 7.94449 13.2604 8.1275 13.7383C8.30995 14.2164 9.5773 15.8149 9.5773 15.8149C9.5773 15.8149 9.57352 17.1588 9.92051 18.125C10.1681 18.8149 10.7135 19.0948 11.2358 19.0948C12.0358 19.0948 12.3487 18.3486 12.3487 18.3486C12.3487 18.3486 12.6692 19.0948 13.4692 19.0948C13.9914 19.0948 14.5363 18.8154 14.7844 18.125C15.131 17.1592 15.1275 15.8149 15.1275 15.8149C15.1275 15.8149 16.3946 14.2164 16.5774 13.7383C16.7603 13.2603 16.3594 9.60998 16.3594 9.60998L17.1533 7.43677Z" fill="#C49A7E"/>
<path d="M12.3521 8.29098L12.3488 8.29775V8.28381L10.6378 8.21313L10.0672 7.26029L9.431 2.7472C9.431 2.7472 7.5509 6.30584 7.5509 7.43688L8.34505 9.61009C8.34505 9.61009 7.94431 13.2605 8.12704 13.7384C8.30988 14.2165 9.57672 15.815 9.57672 15.815C9.57672 15.815 9.57345 17.1589 9.92004 18.1251C10.1679 18.815 10.7134 19.0949 11.2352 19.0949C12.0356 19.0949 12.3486 18.3487 12.3486 18.3487C12.3486 18.3487 12.35 18.3514 12.3522 18.3562V8.29098H12.3521Z" fill="#D8B7A0"/>
<path d="M16.3764 9.8239C16.2307 9.51386 16.4378 8.78024 16.4378 8.78024C15.2506 7.543 14.9537 4.96302 14.9537 4.96302C14.732 5.77599 14.2502 8.17295 14.2502 8.17295C14.2502 8.17295 13.3641 7.83744 12.356 7.83583H12.3525H12.3485C12.2931 7.83612 12.2386 7.83755 12.1841 7.83933V17.9536L12.2594 18.0656V18.0103H12.3059V18.0656L12.3063 18.0103H12.3983H12.4452V18.0656L13.266 16.8473L13.4444 13.426L14.4662 14.6109L15.7825 15.0019C15.7825 15.0019 16.275 14.645 16.275 14.6463C16.4841 14.3486 16.5535 14.095 16.6041 13.9635C16.7869 13.4848 16.3764 9.8239 16.3764 9.8239Z" fill="#3B3B63"/>
<path d="M12.3613 7.83572C12.36 7.83572 12.3589 7.8356 12.3578 7.8356V7.83572C11.3494 7.83744 10.4632 8.17272 10.4632 8.17272C10.4632 8.17272 9.98119 5.77588 9.75968 4.96285C9.75968 4.96285 9.46295 7.54283 8.27551 8.78007C8.27551 8.78007 8.48268 9.51375 8.33696 9.82373C8.33696 9.82373 7.92646 13.4848 8.1093 13.9627C8.15979 14.0944 8.22967 14.3478 8.4385 14.6455C8.4385 14.6442 8.93128 15.0012 8.93128 15.0012L10.2473 14.6102L11.269 13.4254L11.4479 16.8467L12.2681 18.065V18.0097H12.3151H12.3612V7.83572H12.3613Z" fill="#53537A"/>
<path d="M14.7407 12.1138H13.5873H13.2029V12.1303C13.2029 12.6757 13.6673 13.1176 14.2119 13.1176C14.7568 13.1176 15.2212 12.6756 15.2212 12.1303V12.1138H14.7407Z" fill="#333152"/>
<path d="M13.5873 12.1138V12.1303C13.5873 12.4547 13.8444 12.7176 14.1641 12.7176C14.4837 12.7176 14.7408 12.4547 14.7408 12.1303V12.1138H13.5873Z" fill="white"/>
<path d="M14.342 12.1138H14.0717C14.069 12.1138 14.0668 12.1152 14.0644 12.1157C14.0979 12.1228 14.1165 12.2 14.1093 12.2514C14.0985 12.3298 14.0326 12.3843 13.9572 12.3857C13.9791 12.4883 14.0615 12.5708 14.171 12.5865C14.3108 12.6066 14.44 12.5092 14.4599 12.3673C14.4741 12.2628 14.4246 12.1138 14.342 12.1138Z" fill="#333152"/>
<path d="M11.0284 12.1138H9.87523H9.49072V12.1303C9.49072 12.6757 9.95515 13.1176 10.4998 13.1176C11.0447 13.1176 11.5091 12.6756 11.5091 12.1303V12.1138H11.0284Z" fill="#333152"/>
<path d="M9.87524 12.1138V12.1303C9.87524 12.4547 10.1326 12.7176 10.4518 12.7176C10.7715 12.7176 11.0285 12.4547 11.0285 12.1303V12.1138H9.87524Z" fill="white"/>
<path d="M10.63 12.1138H10.3594C10.357 12.1138 10.3545 12.1152 10.3523 12.1157C10.3858 12.1228 10.4043 12.2 10.3972 12.2514C10.3864 12.3298 10.3208 12.3843 10.2449 12.3857C10.2671 12.4883 10.3495 12.5708 10.4588 12.5865C10.5985 12.6066 10.728 12.5092 10.7476 12.3673C10.762 12.2628 10.7126 12.1138 10.63 12.1138Z" fill="#333152"/>
<path d="M14.6247 11.6483C14.6892 11.5765 15.2374 10.9449 14.5042 10.9449C13.8418 10.9449 13.3651 11.4876 13.2388 11.6483H14.6247Z" fill="#C49A7E"/>
<path d="M11.4623 11.6483C11.3361 11.4876 10.8595 10.9449 10.1967 10.9449C9.46398 10.9449 10.0122 11.5765 10.0764 11.6483H11.4623Z" fill="#D8B7A0"/>
<path d="M9.13708 12.108H11.9416V11.8403H9.13708V12.108Z" fill="#53537A"/>
<path d="M16.4272 8.31118C15.6118 7.14721 15.356 5.25495 15.3338 5.08203L15.4826 4.02724C16.0881 5.2783 16.7233 6.76304 16.7669 7.38266L16.4272 8.31118ZM16.219 13.6062C16.1076 13.8968 15.3386 14.9348 14.8278 15.5793L14.7426 15.6873L14.743 15.8252C14.743 15.8377 14.7426 17.11 14.423 18.0005C14.192 18.644 13.6788 18.7135 13.4691 18.7135C12.9383 18.7135 12.7092 18.2195 12.7012 18.2017L12.6708 17.7389H12.0256L11.9964 18.199C11.9873 18.22 11.7638 18.7123 11.2356 18.7123C11.0255 18.7123 10.5125 18.6435 10.2813 17.9999C9.96275 17.1127 9.96126 15.8377 9.96126 15.8247L9.96172 15.6869L9.87652 15.5793C9.36597 14.9353 8.59689 13.8972 8.48828 13.6138C8.40148 13.3072 8.5448 11.3243 8.72724 9.66276L8.73728 9.57056L8.59333 9.1771C9.08788 8.65065 9.43493 7.92615 9.67434 7.23648L9.69764 7.40435L10.4831 8.71491L10.79 8.58111C10.7978 8.57779 11.5847 8.2378 12.3489 8.2378C13.1083 8.2378 13.9083 8.57807 13.9158 8.5814L14.2222 8.71405L15.0068 7.40406L15.0375 7.1853C15.2744 7.88174 15.6211 8.61921 16.118 9.15736L15.9673 9.57027L15.9773 9.66241C16.1597 11.3243 16.303 13.3072 16.219 13.6062ZM11.8736 19.3575C11.9763 19.3111 12.069 19.2559 12.1508 19.1951C12.2255 19.2174 12.2971 19.2174 12.3521 19.2174C12.4069 19.2174 12.4778 19.2179 12.552 19.1956C12.6339 19.2559 12.7268 19.3111 12.8295 19.3575C12.7007 19.4553 12.5421 19.5103 12.3525 19.5103C12.1619 19.5103 12.0026 19.4557 11.8736 19.3575ZM12.3605 20.19C11.9385 20.19 11.3384 19.9989 11.1891 19.4925C11.2044 19.4929 11.2194 19.4943 11.235 19.4943C11.3165 19.4943 11.393 19.4867 11.4669 19.476C11.6809 19.7786 12.0144 19.8714 12.3523 19.8714C12.6906 19.8714 13.0248 19.7795 13.2392 19.4764C13.3126 19.4866 13.3882 19.4943 13.4691 19.4943C13.485 19.4943 13.5003 19.4929 13.5162 19.4925C13.3683 19.9989 12.7762 20.19 12.3605 20.19ZM7.93785 7.38255C7.9814 6.76292 8.61628 5.2783 9.2219 4.02712L9.38335 5.17113C9.32179 5.59884 9.04044 7.27629 8.2857 8.33367L7.93785 7.38255ZM17.5281 7.44612C17.5281 6.25151 15.8041 2.94519 15.6071 2.5721L15.0559 1.52454L14.2664 7.13521L13.9019 7.74462C13.5501 7.62466 12.9514 7.45725 12.3485 7.45725C11.7462 7.45725 11.1515 7.62408 10.8012 7.74422L10.4366 7.1351L10.1595 5.16837C10.1598 5.1651 10.1603 5.16074 10.1603 5.15873L10.1582 5.15845L9.64583 1.52454L9.08301 2.5721C8.88576 2.94519 7.14795 6.25151 7.14795 7.44612V7.51622L7.9437 9.66832C7.81645 10.8417 7.57354 13.3905 7.76436 13.8887C7.88323 14.2002 8.34084 14.8433 8.72787 15.3588L8.20658 20.2921L8.92431 20.8063L9.30366 17.2176C9.35816 17.5666 9.4386 17.9352 9.55799 18.2681C9.72259 18.7269 10.0135 19.0742 10.3859 19.2803C10.4081 20.3786 11.4134 20.9709 12.3605 20.9709C13.2998 20.9709 14.2968 20.3781 14.3186 19.2794C14.6902 19.0737 14.9808 18.7264 15.1452 18.2681C15.2695 17.9219 15.3511 17.5362 15.4053 17.1751L15.7869 20.7767L16.5047 20.2443L15.9847 15.3439C16.3687 14.8307 16.8177 14.197 16.9355 13.889C17.1262 13.3909 16.8735 10.8417 16.7464 9.66849L17.528 7.51611V7.44612H17.5281Z" fill="#333152"/>
<path d="M13.257 16.3983H11.4531C11.4531 16.3983 11.2104 16.8276 11.2104 16.9669C11.2104 17.3806 12.3208 18.0393 12.3208 18.0393C12.3208 18.0393 13.4936 17.361 13.4936 16.9669C13.4936 16.7789 13.257 16.3983 13.257 16.3983Z" fill="#333152"/>
<path d="M12.9093 17.6594C12.8087 17.4783 12.6789 17.4453 12.6193 17.5849C12.5598 17.7247 12.5938 17.9848 12.6944 18.1656C12.795 18.3468 12.925 18.3799 12.9843 18.2401C13.0439 18.1004 13.0101 17.8401 12.9093 17.6594Z" fill="#C49A7E"/>
<path d="M11.7949 17.6594C11.6941 17.8401 11.6606 18.1004 11.7199 18.2401C11.7793 18.3799 11.909 18.3468 12.0101 18.1656C12.1106 17.9849 12.1444 17.7247 12.0848 17.5849C12.0254 17.4453 11.8957 17.4783 11.7949 17.6594Z" fill="#D8B7A0"/>
</svg>
