<svg width="24" height="24" viewBox="0 0 24 24" fill="none" xmlns="http://www.w3.org/2000/svg">
<path fill-rule="evenodd" clip-rule="evenodd" d="M5.33928 2L0 5.08036V19.1473L5.33928 22.2277V19.558L2.25893 17.8125V6.41518L5.33928 4.66964V2Z" fill="#5C85DE"/>
<path fill-rule="evenodd" clip-rule="evenodd" d="M0 7.74998V16.4777L2.25893 17.8125V6.41516L0 7.74998Z" fill="#3367D6"/>
<path fill-rule="evenodd" clip-rule="evenodd" d="M0 7.74998L2.25893 7.23659V6.41516L0 7.74998Z" fill="#3367D6"/>
<path fill-rule="evenodd" clip-rule="evenodd" d="M17.6607 2V4.66964L20.7411 6.41518V17.8125L17.6607 19.558V22.2277L23 19.1473V5.08036L17.6607 2Z" fill="#5C85DE"/>
<path fill-rule="evenodd" clip-rule="evenodd" d="M20.7411 17.8125L23 16.4777V7.74998L20.7411 6.41516V17.8125Z" fill="#3367D6"/>
<path fill-rule="evenodd" clip-rule="evenodd" d="M20.7411 7.23659L23 7.74998L20.7411 6.41516V7.23659Z" fill="#3367D6"/>
<path fill-rule="evenodd" clip-rule="evenodd" d="M20.7411 17.0938V17.8125L23 16.4777L20.7411 17.0938Z" fill="#3367D6"/>
<path fill-rule="evenodd" clip-rule="evenodd" d="M11.5 5.18304L8.41965 6.8259L11.5 8.46876L14.5804 6.8259L11.5 5.18304Z" fill="#5C85DE"/>
<path fill-rule="evenodd" clip-rule="evenodd" d="M11.9107 12.2679L14.8884 10.625V7.44199L11.9107 9.08484V12.2679Z" fill="#3367D6"/>
<path fill-rule="evenodd" clip-rule="evenodd" d="M11.1919 9.08484L8.11157 7.44199V10.625L11.1919 12.2679V9.08484Z" fill="#3367D6"/>
<path fill-rule="evenodd" clip-rule="evenodd" d="M7.96785 11.2166L4.99017 12.8595L7.96785 14.5023L10.8429 12.8595L7.96785 11.2166Z" fill="#5C85DE"/>
<path fill-rule="evenodd" clip-rule="evenodd" d="M8.17322 18.3015L11.1509 16.6586V13.3729L8.17322 15.0158V18.3015Z" fill="#3367D6"/>
<path fill-rule="evenodd" clip-rule="evenodd" d="M7.65981 15.0158L4.68213 13.3729V16.6586L7.65981 18.3015V15.0158Z" fill="#3367D6"/>
<path fill-rule="evenodd" clip-rule="evenodd" d="M15.1142 11.2166L12.1366 12.8595L15.1142 14.5023L18.0919 12.8595L15.1142 11.2166Z" fill="#5C85DE"/>
<path fill-rule="evenodd" clip-rule="evenodd" d="M15.4223 18.3015L18.4 16.6586V13.3729L15.4223 15.0158V18.3015Z" fill="#3367D6"/>
<path fill-rule="evenodd" clip-rule="evenodd" d="M14.8062 15.0158L11.8286 13.3729V16.6586L14.8062 18.3015V15.0158Z" fill="#3367D6"/>
</svg>
