<svg width="24" height="24" viewBox="0 0 24 24" fill="none" xmlns="http://www.w3.org/2000/svg">
<g clip-path="url(#clip0_315_129)">
<path d="M0 12C0 18.6274 5.37258 24 12 24C18.6274 24 24 18.6274 24 12C24 5.37258 18.6274 0 12 0C5.37258 0 0 5.37258 0 12Z" fill="url(#paint0_linear_315_129)"/>
<path fill-rule="evenodd" clip-rule="evenodd" d="M9.71418 8.10036C7.23644 8.10036 5.50909 7.41767 5.50909 6.80473C5.50909 6.19178 7.23644 5.50909 9.71418 5.50909C12.1665 5.50909 13.6851 6.1816 13.6851 6.80473C13.6851 7.42785 12.1665 8.10036 9.71418 8.10036ZM13.6255 11.9191C14.1087 11.9191 14.5903 11.973 15.0571 12.0794L15.1706 11.5831C14.8407 11.5077 14.5032 11.466 14.1636 11.44V7.03178C14.182 6.95796 14.1942 6.88262 14.1942 6.80473C14.1942 5.72545 12.394 5 9.71418 5C7.37135 5 5 5.62007 5 6.80473V16.7921C5 17.5119 5.78095 18.0928 7.19978 18.4283L7.31687 17.9324C6.20196 17.6692 5.50909 17.2319 5.50909 16.7921V14.6849C5.83949 14.8962 6.26102 15.082 6.78131 15.2266L6.91775 14.7359C6.27171 14.5561 5.78604 14.3133 5.50909 14.0471V11.1183C6.31804 11.6462 7.72415 12.002 9.39193 12.0713L9.4128 11.5627C7.60655 11.4879 6.10015 11.0633 5.50909 10.4763V7.66356C6.32975 8.28618 8.02705 8.60945 9.71418 8.60945C11.5245 8.60945 12.9311 8.27753 13.6545 7.72975V11.4115C13.6449 11.4115 13.6352 11.41 13.6255 11.41C11.0449 11.41 8.68938 12.8308 7.47775 15.1177L7.92727 15.3554C9.05033 13.2361 11.2338 11.9191 13.6255 11.9191ZM16.9183 12.8257C16.5121 12.5834 16.0783 12.3854 15.6293 12.2383L15.7887 11.7546C16.2728 11.9135 16.7407 12.1268 17.179 12.3884L16.9183 12.8257ZM14.4762 18.274C14.4431 17.9655 14.325 17.685 14.1412 17.4544L16.9209 14.826C17.8444 15.7016 18.4186 16.9652 18.4848 18.274H14.4762ZM12.8935 17.3521C13.4372 17.3521 13.8852 17.7532 13.9671 18.274H11.8198C11.9017 17.7532 12.3497 17.3521 12.8935 17.3521ZM17.29 14.4772L18.2481 13.5716L17.8978 13.202L13.7681 17.1062C13.5166 16.9412 13.2162 16.843 12.8935 16.843C12.0692 16.843 11.3967 17.4722 11.3107 18.274H8.51324C8.64356 15.5983 10.8301 13.4621 13.4993 13.4621C14.2171 13.4621 14.91 13.6113 15.558 13.905L15.7688 13.4412C15.0535 13.1169 14.2899 12.953 13.4993 12.953C10.4656 12.953 7.99753 15.4542 7.99753 18.5286V18.7831H19V18.5286C19 17.0023 18.3606 15.5036 17.29 14.4772Z" fill="white"/>
</g>
<defs>
<linearGradient id="paint0_linear_315_129" x1="0" y1="24" x2="24" y2="0" gradientUnits="userSpaceOnUse">
<stop stop-color="#2E27AD"/>
<stop offset="1" stop-color="#527FFF"/>
</linearGradient>
<clipPath id="clip0_315_129">
<rect width="24" height="24" fill="white"/>
</clipPath>
</defs>
</svg>
