<svg width="24" height="24" viewBox="0 0 24 24" fill="none" xmlns="http://www.w3.org/2000/svg">
<g clip-path="url(#clip0_320_508)">
<path d="M12.0003 24C18.6275 24 24 18.6271 24 12C24 5.37186 18.628 0 12.0003 0C5.37252 0 0 5.37186 0 12C0 18.6271 5.37252 24 12.0003 24Z" fill="#1FC0E7"/>
<path d="M5.84692 11.997L7.89065 9.94364C7.95838 9.87537 7.99625 9.78364 7.99625 9.68657C7.99625 9.48391 7.83198 9.31964 7.62985 9.31964C7.53118 9.31964 7.43892 9.35804 7.36958 9.42897L5.32692 11.4732L3.27625 9.42524C3.20692 9.35697 3.11518 9.31964 3.01758 9.31964C2.81492 9.31964 2.65118 9.48391 2.65118 9.68604C2.65118 9.78471 2.69065 9.87804 2.76105 9.94737L4.80478 11.9938L2.76212 14.0418C2.69065 14.1132 2.65118 14.206 2.65118 14.3047C2.65118 14.5074 2.81545 14.6716 3.01758 14.6716C3.11518 14.6716 3.20692 14.6343 3.27625 14.565L5.32425 12.5159L7.36425 14.557C7.43678 14.6316 7.52958 14.6716 7.62985 14.6716C7.83145 14.6716 7.99572 14.5074 7.99572 14.3047C7.99572 14.2071 7.95838 14.1154 7.88905 14.046L5.84638 11.9948L5.84692 11.997ZM17.9968 11.9964C17.9968 12.3644 18.2955 12.6631 18.6635 12.6631C19.0293 12.6631 19.328 12.3644 19.328 11.9964C19.328 11.6284 19.0293 11.3298 18.6629 11.3298C18.2965 11.3298 17.9984 11.6284 17.9984 11.9964H17.9968ZM16.7355 11.9964C16.7355 10.9324 17.5995 10.0658 18.6629 10.0658C19.7243 10.0658 20.5899 10.9324 20.5899 11.9964C20.5899 13.0604 19.7248 13.9271 18.6629 13.9271C17.6 13.9271 16.7355 13.0615 16.7355 11.9964ZM15.9771 11.9964C15.9771 13.4791 17.1824 14.6866 18.6629 14.6866C20.1435 14.6866 21.3488 13.4802 21.3488 11.997C21.3488 10.5143 20.1435 9.30684 18.6629 9.30684C17.1819 9.30684 15.9771 10.5138 15.9771 11.997V11.9964ZM15.7867 9.35271H15.6747C15.336 9.35271 15.0096 9.45937 14.7371 9.67004C14.6997 9.50684 14.5525 9.38204 14.3776 9.38204C14.1765 9.38204 14.0149 9.54471 14.0149 9.74684L14.016 14.2775C14.016 14.4786 14.1813 14.6423 14.3813 14.6423C14.5829 14.6423 14.7472 14.4786 14.7477 14.2764V11.4903C14.7477 10.5623 14.8331 10.1868 15.6267 10.0876C15.7013 10.0786 15.7803 10.0802 15.7813 10.0802C15.9979 10.0722 16.1525 9.92231 16.1525 9.72017C16.1525 9.51751 15.9872 9.35324 15.7845 9.35324L15.7867 9.35271ZM8.75412 11.5543C8.75412 11.5436 8.75518 11.533 8.75572 11.5234C8.96798 10.6807 9.72958 10.0583 10.6357 10.0583C11.5531 10.0583 12.3211 10.6951 12.5237 11.5527H8.75358L8.75412 11.5543ZM13.2731 11.485C13.1152 10.7367 12.7061 10.1218 12.0837 9.72711C11.1728 9.14791 9.97065 9.17991 9.09172 9.80711C8.37385 10.3175 7.95945 11.1538 7.95945 12.0151C7.95945 12.2311 7.98612 12.4492 8.03945 12.6642C8.31038 13.7308 9.22665 14.5394 10.3189 14.6732C10.6432 14.7127 10.9589 14.6946 11.2843 14.6092C11.5659 14.5399 11.8373 14.4268 12.0875 14.2658C12.3472 14.0988 12.5643 13.878 12.7755 13.614C12.7787 13.6087 12.7829 13.605 12.7872 13.5996C12.9333 13.4183 12.9061 13.1591 12.7461 13.0364C12.6107 12.9324 12.3835 12.8903 12.2053 13.1196C12.1669 13.1751 12.1237 13.2316 12.0773 13.2876C11.9349 13.445 11.7584 13.597 11.5472 13.7154C11.2773 13.8594 10.9712 13.941 10.6459 13.9431C9.58025 13.9308 9.01065 13.1858 8.80745 12.6546C8.77225 12.5548 8.74505 12.4519 8.72585 12.3452L8.72052 12.2892H12.5445C13.0683 12.2775 13.3499 11.9068 13.272 11.4839L13.2731 11.485Z" fill="white"/>
</g>
<defs>
<clipPath id="clip0_320_508">
<rect width="24" height="24" fill="white"/>
</clipPath>
</defs>
</svg>
