<svg width="24" height="24" viewBox="0 0 24 24" fill="none" xmlns="http://www.w3.org/2000/svg">
<path d="M11.5987 17.2198L15.9067 14.7353V9.76645L14.4625 8.92198L10.1545 16.3876L11.5987 17.2198Z" fill="#4285F4"/>
<path d="M7.29071 9.76645V14.7353L8.73487 15.5676L13.0551 8.11423L11.5987 7.26976L7.29071 9.76645Z" fill="#669DF6"/>
<path d="M10.7542 18.7007L5.58949 15.7144V9.76644L1 7.11066V18.3702L10.7542 24V18.7007Z" fill="#AECBFA"/>
<path d="M6.43395 8.29781L11.5987 5.31158L16.7634 8.29781L21.3651 5.64202L11.5987 0L1.83221 5.64202L6.43395 8.29781Z" fill="#AECBFA"/>
<path d="M17.6078 15.7144L12.4431 18.7007V24L22.2096 18.3702V7.11066L17.6078 9.76644V15.7144Z" fill="#AECBFA"/>
</svg>
