<svg width="24" height="24" viewBox="0 0 24 24" fill="none" xmlns="http://www.w3.org/2000/svg">
<path d="M19.8158 10.8078C20.6227 13.9561 19.4414 17.2793 16.8283 19.2118C14.2153 21.1444 10.6918 21.3007 7.91788 19.6071C5.14398 17.9136 3.673 14.708 4.19796 11.5007C4.72293 8.29334 7.13913 5.72401 10.3082 5.0032C14.5292 4.02677 18.7556 6.60709 19.8158 10.8078Z" fill="#59B4D9"/>
<path opacity="0.5" d="M11.0088 15.912C11.0022 14.754 10.0651 13.8168 8.90709 13.8103H8.50676C8.65291 13.2788 8.57515 12.7107 8.29156 12.238C8.00797 11.7654 7.54328 11.4294 7.00556 11.3083H4.40348C3.91557 13.7502 4.62197 16.2784 6.305 18.1137H8.90709C10.0838 18.0602 11.01 17.0899 11.0088 15.912ZM13.6109 7.20498V7.6053H12.7101C11.4941 7.6053 10.5084 8.59107 10.5084 9.80707C10.5084 11.0231 11.4941 12.0088 12.7101 12.0088H20.016C19.8174 9.36868 18.2644 7.02019 15.9127 5.80386H15.012C14.6376 5.79471 14.2759 5.93939 14.0112 6.20416C13.7464 6.46893 13.6017 6.83065 13.6109 7.20498ZM20.016 13.51H15.7125C15.2342 13.5082 14.7749 13.6974 14.4367 14.0356C14.0984 14.3738 13.9092 14.8331 13.9111 15.3115C13.9297 15.6204 13.9973 15.9245 14.1113 16.2122C13.1862 16.5064 12.6568 17.4769 12.9103 18.414C13.1152 19.1711 13.8297 19.6754 14.6117 19.6149H15.8126C18.1343 18.3971 19.7067 16.1134 20.016 13.51Z" fill="white"/>
<path d="M3.20257 7.40513C3.09517 7.39787 3.00967 7.31236 3.00241 7.20497C3.00241 5.65733 1.7478 4.40273 0.20016 4.40273C0.10008 4.50281 0 4.30265 0 4.20257C0.00726424 4.09517 0.0927675 4.00967 0.20016 4.00241C1.7478 4.00241 3.00241 2.7478 3.00241 1.20016C3.00241 1 3.10249 1 3.20257 1C3.30265 1 3.50281 1 3.50281 1.20016C3.50281 2.7478 4.75741 4.00241 6.30505 4.00241C6.4156 4.00241 6.50521 4.09202 6.50521 4.20257C6.50521 4.31311 6.4156 4.40273 6.30505 4.40273C4.75741 4.40273 3.50281 5.65733 3.50281 7.20497C3.50281 7.30505 3.40273 7.40513 3.20257 7.40513Z" fill="#B8D432"/>
<path d="M20.3163 23.0177C20.2162 23.0177 20.2162 23.0177 20.2162 22.9176C20.1804 22.0093 19.4237 21.297 18.5149 21.3163C18.4148 21.3163 18.4148 21.3163 18.4148 21.2162C18.4148 21.1161 18.4148 21.1161 18.5149 21.1161C19.41 21.1008 20.1467 20.4074 20.2162 19.5148C20.2162 19.4148 20.2162 19.4148 20.3163 19.4148C20.4164 19.4148 20.4164 19.4148 20.4164 19.5148C20.4522 20.4231 21.209 21.1354 22.1178 21.1161C22.2178 21.1161 22.2178 21.1161 22.2178 21.2162C22.2178 21.3163 22.2178 21.3163 22.1178 21.3163C21.2226 21.3316 20.4859 22.025 20.4164 22.9176C20.5165 23.0177 20.4164 23.0177 20.3163 23.0177Z" fill="#59B4D9"/>
<path d="M23.719 5.60369C22.9184 4.40273 21.1169 4.10249 18.2146 4.80305C17.3299 5.00981 16.4605 5.27733 15.6125 5.60369C16.1498 5.87843 16.6535 6.21426 17.1137 6.60449C17.6141 6.50441 18.1145 6.30425 18.5149 6.20417C19.2661 6.00609 20.0397 5.90519 20.8167 5.90393C21.7174 5.90393 22.2178 6.10409 22.418 6.40433C22.7182 6.90473 22.418 8.1057 20.8167 10.0072C20.5086 10.3654 20.1741 10.6999 19.8159 11.008C17.9912 12.7606 15.9772 14.3046 13.8111 15.6117C11.692 16.9464 9.40298 17.9899 7.00563 18.7142C4.10331 19.6149 2.1017 19.6149 1.70138 18.9144C1.30106 18.2138 2.1017 16.4124 4.30347 14.3107C4.18743 13.7167 4.12048 13.1142 4.10331 12.5092C0.700581 15.6117 -0.400301 18.3139 0.400341 19.715C1.14644 20.5795 2.26623 21.0275 3.40275 20.916C5.15523 20.849 6.88256 20.4764 8.50684 19.8151C10.6035 19.0169 12.6151 18.0111 14.5116 16.8127C16.4174 15.6252 18.2247 14.2865 19.916 12.8095C20.5989 12.2267 21.2347 11.5908 21.8175 10.9079C23.8191 8.6061 24.4196 6.80465 23.719 5.60369Z" fill="black"/>
</svg>
