<svg width="24" height="24" viewBox="0 0 24 24" fill="none" xmlns="http://www.w3.org/2000/svg">
<g clip-path="url(#clip0_320_482)">
<circle cx="12" cy="12" r="12" fill="#333366"/>
<path d="M18.4131 17.0756L20.7703 6H5.35291L3 17.0756H18.4131Z" fill="white"/>
<path d="M5.67357 6.43768C5.67357 6.43768 14.2446 8.19695 14.4136 8.22728C16.3808 8.57393 16.3202 8.95525 16.3202 8.95525C17.6981 8.94659 17.8715 9.00292 18.1098 9.20658C18.8334 9.81322 17.6548 11.5985 17.6548 11.5985C17.4858 11.7242 4.73328 16.6466 4.73328 16.6466H18.0751L20.2547 6.39001H5.67357V6.43768Z" fill="#333366"/>
<path d="M15.6529 9.76121C15.4579 9.85654 14.9552 9.90854 14.7169 9.9302C14.4872 9.94754 14.4266 9.97354 14.4222 10.0602C14.4179 10.1382 14.4569 10.1815 14.7819 10.1815C15.5315 10.1815 16.8791 9.89987 17.2865 10.0299C17.5031 10.0992 17.3298 10.4805 17.1521 10.9832C17.0828 11.1782 17.2171 11.1652 17.2951 11.0785C17.3731 10.9918 17.7241 10.3549 17.7631 10.0255C17.8151 9.56188 17.4208 9.49255 16.8705 9.49255H15.9995C15.9518 9.49255 15.9172 9.52289 15.8608 9.59655C15.8175 9.65721 15.7785 9.69621 15.6529 9.76121Z" fill="#333366"/>
<path d="M5.17956 8.76021L3.50696 16.6466C3.50696 16.6466 8.63743 14.129 9.26141 13.8084C10.5484 13.1497 12.325 12.2744 13.9672 11.7154C14.2792 11.6071 15.6225 11.1954 16.4025 11.0568C16.7058 11.0005 16.8315 10.9528 16.8315 10.8921C16.8185 10.7318 16.5151 10.7188 15.9995 10.7448C14.4266 10.8185 11.415 12.0188 10.5484 12.4737L9.56907 9.44051H15.8262C16.1078 8.65188 12.1213 8.76454 12 8.75587H5.17956V8.76021Z" fill="#333366"/>
<path d="M21 15.8493C21 16.3173 20.6317 16.6856 20.155 16.6856C19.6827 16.6856 19.3014 16.3173 19.3014 15.8493C19.3014 15.39 19.6784 15.0217 20.155 15.0217C20.6317 15.0217 21 15.39 21 15.8493ZM19.5137 15.8493C19.5137 16.2177 19.7867 16.508 20.1594 16.508C20.5233 16.508 20.7877 16.2177 20.7877 15.8537C20.7877 15.4853 20.519 15.1864 20.1507 15.1864C19.7867 15.1907 19.5137 15.4853 19.5137 15.8493ZM20.0207 16.2827H19.83V15.455C19.9037 15.442 20.012 15.429 20.1464 15.429C20.3024 15.429 20.3717 15.455 20.4323 15.4897C20.4757 15.5243 20.5147 15.5893 20.5147 15.6717C20.5147 15.7627 20.4453 15.832 20.3414 15.8623V15.871C20.4237 15.9013 20.467 15.962 20.493 16.0747C20.519 16.2003 20.532 16.2523 20.5537 16.2827H20.3457C20.3197 16.2523 20.3067 16.1787 20.2807 16.079C20.2677 15.988 20.2157 15.949 20.1074 15.949H20.0164V16.2827H20.0207ZM20.0294 15.8147H20.1204C20.2244 15.8147 20.311 15.78 20.311 15.6933C20.311 15.6197 20.2547 15.5677 20.1334 15.5677C20.0814 15.5677 20.0467 15.572 20.0294 15.5763V15.8147Z" fill="white"/>
</g>
<defs>
<clipPath id="clip0_320_482">
<rect width="24" height="24" fill="white"/>
</clipPath>
</defs>
</svg>
