<svg width="24" height="24" viewBox="0 0 24 24" fill="none" xmlns="http://www.w3.org/2000/svg">
<path d="M5.51907 13.8874V12.9115C5.42709 13.0435 5.23112 13.1275 4.96717 13.1275C4.36327 13.1275 3.92334 12.6636 3.92334 12.0197C3.92334 11.3918 4.33927 10.9198 4.94317 10.9198C5.31911 10.9198 5.49108 11.0878 5.53907 11.1798V10.9718H6.15497V13.8914H5.51907V13.8874ZM5.05115 12.5516C5.30311 12.5516 5.52707 12.3756 5.52707 12.0237C5.52707 11.6717 5.30311 11.4997 5.05115 11.4997C4.79919 11.4997 4.57523 11.6677 4.57523 12.0237C4.57523 12.3716 4.79919 12.5516 5.05115 12.5516ZM8.03865 12.8675C7.92667 13.0515 7.68671 13.1275 7.47475 13.1275C6.95883 13.1275 6.67088 12.7515 6.67088 12.3036V10.9678H7.31877V12.1676C7.31877 12.3716 7.43076 12.5316 7.65872 12.5316C7.87468 12.5316 8.01066 12.3836 8.01066 12.1716V10.9678H8.65855V12.7035C8.65855 12.8315 8.66655 12.9555 8.67855 13.0835H8.05865C8.04665 13.0115 8.04265 12.9395 8.03865 12.8675ZM9.20246 13.0835V10.9718H9.85035V13.0835H9.20246ZM10.8742 12.0277C10.8742 12.3636 11.0981 12.5516 11.3661 12.5516C11.6181 12.5516 11.758 12.3956 11.802 12.2356L12.3699 12.4116C12.2779 12.7795 11.926 13.1475 11.3621 13.1475C10.7342 13.1475 10.2263 12.6836 10.2263 12.0277C10.2263 11.3678 10.7182 10.9038 11.3381 10.9038C11.922 10.9038 12.2619 11.2598 12.3539 11.6397L11.774 11.8157C11.726 11.6557 11.5981 11.4997 11.3501 11.4997C11.0941 11.4997 10.8742 11.6877 10.8742 12.0277ZM14.0457 11.8557L14.8855 13.0795H14.0936L13.5977 12.3356L13.3898 12.5596V13.0795H12.7459V10H13.3938V11.6757L14.0377 10.9638H14.8735L14.0457 11.8557ZM15.1695 13.0835V10.004H15.8014V11.1678C15.8893 11.0358 16.1253 10.9158 16.4133 10.9158C17.0252 10.9158 17.3971 11.3838 17.3971 12.0157C17.3971 12.6636 16.9812 13.1235 16.3893 13.1235C16.1093 13.1235 15.8933 12.9995 15.7934 12.8395V13.0795H15.1695V13.0835ZM16.2733 11.4997C16.0213 11.4997 15.7934 11.6637 15.7934 12.0237C15.7934 12.3716 16.0213 12.5516 16.2733 12.5516C16.5252 12.5516 16.7492 12.3756 16.7492 12.0237C16.7492 11.6637 16.5252 11.4997 16.2733 11.4997ZM18.2889 11.8597L18.7849 11.7837C18.9008 11.7677 18.9368 11.7117 18.9368 11.6397C18.9368 11.5157 18.8289 11.4118 18.6249 11.4118C18.4009 11.4118 18.2769 11.5637 18.2649 11.7237L17.705 11.6077C17.733 11.3078 18.013 10.9078 18.6329 10.9078C19.3168 10.9078 19.5687 11.2918 19.5687 11.7237V12.7555C19.5687 12.8635 19.5767 12.9755 19.5967 13.0835H19.0128C18.9968 13.0035 18.9888 12.9235 18.9928 12.8435C18.8848 13.0235 18.6769 13.1435 18.3969 13.1435C17.933 13.1435 17.665 12.8355 17.665 12.4996C17.661 12.1236 17.937 11.9117 18.2889 11.8597ZM18.9368 12.2516V12.1596L18.5369 12.2236C18.4009 12.2436 18.2969 12.3076 18.2969 12.4556C18.2969 12.5676 18.3689 12.6716 18.5489 12.6716C18.7409 12.6716 18.9368 12.5796 18.9368 12.2516ZM20.4566 12.3836C20.4646 12.5276 20.5686 12.6676 20.7885 12.6676C20.9565 12.6676 21.0365 12.5796 21.0365 12.4836C21.0365 12.4076 20.9845 12.3436 20.8285 12.3076L20.5886 12.2556C20.1366 12.1596 19.9607 11.9037 19.9607 11.6037C19.9607 11.2158 20.3006 10.9038 20.7725 10.9038C21.3844 10.9038 21.5964 11.2878 21.6204 11.5317L21.0845 11.6277C21.0685 11.4878 20.9765 11.3678 20.7845 11.3678C20.6605 11.3678 20.5566 11.4398 20.5566 11.5517C20.5566 11.6397 20.6286 11.6917 20.7245 11.7077L21.0045 11.7637C21.4404 11.8517 21.6524 12.1156 21.6524 12.4276C21.6524 12.7875 21.3764 13.1435 20.8125 13.1435C20.1486 13.1435 19.9367 12.7155 19.9207 12.4796L20.4566 12.3836ZM23.956 12.4716C23.852 12.8355 23.5161 13.1435 22.9842 13.1435C22.4003 13.1435 21.8843 12.7275 21.8843 12.0157C21.8843 11.3358 22.3883 10.8998 22.9402 10.8998C23.5961 10.8998 24 11.3038 24 11.9837C24 12.0517 23.996 12.1156 23.988 12.1836H22.5122C22.5242 12.4236 22.7402 12.5916 22.9922 12.5916C23.2281 12.5916 23.3561 12.4796 23.4161 12.3156L23.956 12.4716ZM23.3721 11.7717C23.3641 11.6117 23.2521 11.4158 22.9482 11.4158C22.6762 11.4158 22.5402 11.6157 22.5282 11.7717H23.3721ZM9.20246 10.004H9.84635V10.6479H9.20246V10.004Z" fill="#1C2C17"/>
<path d="M2.92351 10V11.9517H1.94767V10.9758H0.97583V10H2.92351Z" fill="#2C9382"/>
<path d="M1.94768 11.9517V12.9275H0V10.9798H0.975837V11.9557H1.94768V11.9517Z" fill="#1C2C17"/>
<path d="M2.92353 12.9235H1.94769V13.8993H2.92353V12.9235Z" fill="#F25E30"/>
</svg>
