<svg width="400" height="400" viewBox="0 0 400 400" fill="none" xmlns="http://www.w3.org/2000/svg">
<path fill-rule="evenodd" clip-rule="evenodd" d="M238.64 227.48C220.04 241.21 193.06 248.51 169.84 248.51C137.29 248.51 107.98 236.48 85.8001 216.45C84.0601 214.88 85.6101 212.73 87.7101 213.95C111.64 227.88 141.24 236.26 171.8 236.26C192.42 236.26 215.09 231.98 235.94 223.13C239.08 221.8 241.72 225.2 238.64 227.48Z" fill="#FF9900"/>
<path fill-rule="evenodd" clip-rule="evenodd" d="M246.38 218.64C244 215.59 230.65 217.2 224.65 217.92C222.83 218.14 222.55 216.55 224.19 215.4C234.84 207.92 252.29 210.08 254.32 212.58C256.36 215.11 253.78 232.6 243.8 240.95C242.26 242.23 240.8 241.55 241.49 239.85C243.74 234.24 248.76 221.69 246.38 218.64Z" fill="#FF9900"/>
<path fill-rule="evenodd" clip-rule="evenodd" d="M225.08 162.55V155.28C225.08 154.17 225.92 153.44 226.92 153.44H259.5C260.54 153.44 261.38 154.19 261.38 155.27V161.5C261.38 162.55 260.49 163.91 258.93 166.08L242.06 190.17C248.32 190.02 254.95 190.96 260.64 194.16C261.92 194.88 262.27 195.95 262.37 197V204.76C262.37 205.83 261.2 207.06 259.97 206.42C249.94 201.17 236.64 200.59 225.55 206.49C224.42 207.09 223.23 205.87 223.23 204.8V197.43C223.23 196.25 223.25 194.23 224.44 192.43L243.99 164.38H226.97C225.93 164.38 225.09 163.64 225.09 162.55H225.08Z" fill="black"/>
<path fill-rule="evenodd" clip-rule="evenodd" d="M106.25 207.95H96.3398C95.3998 207.89 94.6398 207.18 94.5698 206.27V155.41C94.5698 154.39 95.4298 153.58 96.4898 153.58H105.72C106.69 153.63 107.46 154.36 107.52 155.29V161.93H107.71C110.11 155.51 114.65 152.51 120.75 152.51C126.85 152.51 130.83 155.51 133.61 161.93C136.02 155.51 141.47 152.51 147.3 152.51C151.46 152.51 156 154.22 158.77 158.08C161.91 162.36 161.27 168.57 161.27 174.03V206.13C161.27 207.14 160.41 207.96 159.35 207.96H149.45C148.45 207.9 147.67 207.11 147.67 206.13V179.16C147.67 177.02 147.85 171.67 147.39 169.64C146.65 166.21 144.43 165.25 141.56 165.25C139.15 165.25 136.66 166.86 135.64 169.42C134.62 171.99 134.72 176.27 134.72 179.16V206.12C134.72 207.13 133.87 207.95 132.81 207.95H122.91C121.91 207.89 121.13 207.1 121.13 206.12V179.15C121.13 173.48 122.04 165.13 115.02 165.13C108 165.13 108.17 173.26 108.17 179.15V206.11C108.17 207.12 107.31 207.94 106.25 207.94V207.95Z" fill="black"/>
<path fill-rule="evenodd" clip-rule="evenodd" d="M289.41 152.51C304.12 152.51 312.07 165.14 312.07 181.2C312.07 197.26 303.28 209.03 289.41 209.03C275.54 209.03 267.12 196.4 267.12 180.67C267.12 164.94 275.08 152.52 289.41 152.52V152.51ZM289.5 162.89C282.19 162.89 281.73 172.84 281.73 179.05C281.73 185.26 281.64 198.53 289.41 198.53C297.18 198.53 297.46 187.83 297.46 181.3C297.46 177.02 297.28 171.88 295.98 167.81C294.87 164.28 292.65 162.89 289.5 162.89Z" fill="black"/>
<path fill-rule="evenodd" clip-rule="evenodd" d="M331.15 207.95H321.28C320.29 207.89 319.5 207.1 319.5 206.12L319.48 155.24C319.56 154.31 320.39 153.58 321.38 153.58H330.57C331.44 153.62 332.15 154.21 332.33 155V162.78H332.52C335.3 155.82 339.18 152.5 346.02 152.5C350.46 152.5 354.81 154.1 357.58 158.5C360.17 162.57 360.17 169.42 360.17 174.34V206.35C360.06 207.25 359.25 207.95 358.27 207.95H348.34C347.42 207.89 346.68 207.22 346.58 206.35V178.73C346.58 173.16 347.23 165.03 340.38 165.03C337.97 165.03 335.75 166.64 334.64 169.1C333.25 172.21 333.07 175.31 333.07 178.74V206.13C333.05 207.14 332.2 207.96 331.14 207.96L331.15 207.95Z" fill="black"/>
<path fill-rule="evenodd" clip-rule="evenodd" d="M199.11 183.66C199.11 187.52 199.2 190.74 197.25 194.17C195.67 196.96 193.17 198.67 190.39 198.67C186.59 198.67 184.36 195.77 184.36 191.48C184.36 183.04 191.93 181.51 199.1 181.51V183.65L199.11 183.66ZM209.1 207.82C208.45 208.41 207.5 208.45 206.76 208.05C203.47 205.31 202.88 204.05 201.08 201.45C195.64 206.99 191.79 208.65 184.74 208.65C176.4 208.65 169.91 203.5 169.91 193.2C169.91 185.16 174.27 179.68 180.48 177C185.86 174.64 193.37 174.21 199.12 173.57V172.28C199.12 169.92 199.3 167.13 197.91 165.09C196.7 163.27 194.39 162.51 192.35 162.51C188.57 162.51 185.21 164.45 184.38 168.46C184.21 169.35 183.56 170.24 182.66 170.28L173.05 169.24C172.24 169.06 171.34 168.41 171.57 167.17C173.78 155.52 184.3 152 193.73 152C198.55 152 204.86 153.29 208.66 156.93C213.48 161.43 213.02 167.44 213.02 173.99V189.43C213.02 194.08 214.95 196.11 216.76 198.61C217.39 199.51 217.54 200.58 216.73 201.24C214.71 202.94 211.11 206.06 209.13 207.82L209.1 207.8V207.82Z" fill="black"/>
<path fill-rule="evenodd" clip-rule="evenodd" d="M69.19 183.66C69.19 187.52 69.28 190.74 67.34 194.17C65.77 196.96 63.26 198.67 60.48 198.67C56.68 198.67 54.45 195.77 54.45 191.48C54.45 183.04 62.02 181.51 69.19 181.51V183.65V183.66ZM79.19 207.82C78.54 208.41 77.59 208.45 76.85 208.05C73.56 205.31 72.97 204.05 71.17 201.45C65.73 206.99 61.88 208.65 54.83 208.65C46.49 208.65 40 203.5 40 193.2C40 185.16 44.36 179.68 50.57 177C55.95 174.64 63.46 174.21 69.2 173.57V172.28C69.2 169.92 69.39 167.13 68 165.09C66.79 163.27 64.48 162.51 62.44 162.51C58.66 162.51 55.3 164.45 54.47 168.46C54.3 169.35 53.65 170.24 52.75 170.28L43.15 169.24C42.34 169.06 41.44 168.41 41.67 167.17C43.88 155.52 54.4 152 63.83 152C68.65 152 74.95 153.29 78.76 156.93C83.58 161.43 83.12 167.44 83.12 173.99V189.43C83.12 194.08 85.05 196.11 86.86 198.61C87.49 199.51 87.64 200.58 86.83 201.24C84.81 202.94 81.21 206.06 79.23 207.82L79.21 207.8L79.19 207.82Z" fill="black"/>
</svg>
