<svg width="24" height="24" viewBox="0 0 24 24" fill="none" xmlns="http://www.w3.org/2000/svg">
<g clip-path="url(#clip0_318_375)">
<path d="M21.4976 4.6655C20.0469 2.78693 18.0717 1.38076 15.8218 0.624844C13.5718 -0.131075 11.1483 -0.202792 8.85756 0.418764C6.56687 1.04032 4.51194 2.32723 2.95268 4.11673C1.39342 5.90624 0.399865 8.11795 0.0976685 10.4722C-0.204528 12.8264 0.19821 15.2173 1.25495 17.3426C2.31169 19.4679 3.97495 21.2321 6.0344 22.4121C8.09384 23.592 10.457 24.1348 12.8249 23.9716C15.1928 23.8085 17.4591 22.9468 19.3373 21.4955C24.5798 17.444 25.5476 9.90988 21.4976 4.6655Z" fill="#FF6C37"/>
<path d="M16.0474 7.646L10.9875 12.746L9.55762 11.276C14.5376 6.296 15.0371 6.746 16.0474 7.646Z" fill="white"/>
<path d="M10.9875 12.8855C10.9427 12.8844 10.8999 12.8666 10.8675 12.8356L9.4275 11.3956C9.39507 11.3621 9.37695 11.3172 9.37695 11.2706C9.37695 11.2239 9.39507 11.1791 9.4275 11.1455C14.3374 6.23562 15.0075 6.4655 16.1674 7.5155C16.1868 7.53104 16.2023 7.55089 16.2127 7.57348C16.2232 7.59606 16.2282 7.62076 16.2274 7.64562C16.2349 7.69437 16.2161 7.74425 16.1775 7.77575L11.1176 12.836C11.0821 12.8685 11.0356 12.886 10.9875 12.8855ZM9.80737 11.2756L10.9875 12.4557L15.7875 7.65575C15.6218 7.44805 15.3853 7.30874 15.1233 7.26446C14.8613 7.22019 14.5921 7.27405 14.3674 7.41575C13.4974 7.80575 12.0975 8.99562 9.80737 11.2756Z" fill="#FF6C37"/>
<path d="M12.4376 14.156L11.0576 12.746L16.1175 7.74575C17.4776 9.07588 15.4575 11.2963 12.4376 14.156Z" fill="white"/>
<path d="M12.4376 14.336C12.3934 14.3325 12.3514 14.315 12.3176 14.2861L10.9076 12.9061C10.8865 12.8548 10.8865 12.7973 10.9076 12.746C10.8927 12.7039 10.8927 12.658 10.9076 12.6159L15.9675 7.556C16.0027 7.52294 16.0492 7.50453 16.0975 7.50453C16.1457 7.50453 16.1922 7.52294 16.2274 7.556C16.3913 7.70682 16.5207 7.89115 16.607 8.09647C16.6932 8.30179 16.7343 8.52328 16.7273 8.74587C16.7273 10.0959 15.1871 11.7957 12.5674 14.276C12.5324 14.3106 12.4867 14.3319 12.4376 14.336ZM11.3175 12.746L12.4474 13.8755C14.4473 11.9855 16.3575 10.0355 16.3673 8.7155C16.3781 8.43567 16.2856 8.16162 16.1074 7.94563L11.3175 12.746Z" fill="#FF6C37"/>
<path d="M9.5974 11.306L10.5975 12.3061C10.6039 12.3118 10.609 12.3187 10.6125 12.3264C10.616 12.3342 10.6178 12.3426 10.6178 12.3511C10.6178 12.3596 10.616 12.3681 10.6125 12.3758C10.609 12.3836 10.6039 12.3905 10.5975 12.3961L8.4874 12.8461C8.44481 12.8553 8.40038 12.8503 8.36087 12.8319C8.32137 12.8136 8.28896 12.7828 8.26858 12.7442C8.24819 12.7057 8.24095 12.6616 8.24796 12.6186C8.25497 12.5756 8.27585 12.536 8.3074 12.506L9.5374 11.2861C9.5374 11.2861 9.57753 11.2861 9.5974 11.306Z" fill="white"/>
<path d="M8.43753 13.046C8.37086 13.0452 8.30551 13.0272 8.24774 12.994C8.18997 12.9607 8.14169 12.9131 8.10753 12.8559C8.06908 12.7833 8.05513 12.7003 8.06777 12.6192C8.08041 12.5381 8.11896 12.4633 8.17765 12.4059L9.39753 11.1759C9.44152 11.1366 9.49846 11.1148 9.55746 11.1148C9.61647 11.1148 9.67341 11.1366 9.7174 11.1759L10.7175 12.176C10.7768 12.2322 10.8 12.3174 10.7775 12.3961C10.755 12.4749 10.689 12.5375 10.6077 12.5562L8.49753 13.0062L8.43753 13.046ZM9.55765 11.5261L8.42778 12.656L10.2979 12.2559L9.55765 11.5261Z" fill="#FF6C37"/>
<path d="M18.7377 4.83575C18.0139 4.1375 16.8769 4.10825 16.1179 4.76713C15.3589 5.426 15.2292 6.557 15.8202 7.37075C16.4112 8.1845 17.5253 8.4125 18.3878 7.89575L17.0277 6.53563L18.7377 4.83575Z" fill="white"/>
<path d="M17.3876 8.3555C16.9718 8.35017 16.5668 8.2226 16.2229 7.98867C15.8791 7.75475 15.6117 7.42482 15.4541 7.04C15.2966 6.65547 15.2553 6.2332 15.3353 5.82543C15.4152 5.41766 15.613 5.04229 15.9041 4.74575C16.3045 4.35274 16.8431 4.13256 17.4041 4.13256C17.9651 4.13256 18.5038 4.35274 18.9041 4.74575C18.9424 4.778 18.9641 4.82563 18.9641 4.87588C18.964 4.9006 18.9586 4.92501 18.9483 4.94746C18.9379 4.96991 18.9229 4.98988 18.9041 5.006L17.2841 6.536L18.5141 7.74613C18.534 7.76516 18.549 7.78878 18.5577 7.81493C18.5664 7.84107 18.5686 7.86895 18.564 7.89613C18.561 7.92234 18.5523 7.94759 18.5385 7.97008C18.5247 7.99256 18.5062 8.01174 18.4841 8.02625C18.1537 8.23279 17.7738 8.34677 17.3842 8.35625L17.3876 8.3555ZM17.3876 4.47538C16.6751 4.47913 16.0376 4.90775 15.7702 5.56288C15.5029 6.218 15.6484 6.97213 16.1479 7.47538C16.3963 7.72527 16.7144 7.89431 17.0606 7.96035C17.4067 8.02639 17.7647 7.98636 18.0877 7.8455L16.9076 6.66538C16.8889 6.65038 16.8737 6.63135 16.8633 6.6097C16.8529 6.58805 16.8475 6.56434 16.8475 6.54031C16.8475 6.51629 16.8529 6.49258 16.8633 6.47093C16.8737 6.44928 16.8889 6.43025 16.9076 6.41525L18.4676 4.84513C18.1575 4.60746 17.7783 4.47788 17.3876 4.47538Z" fill="#FF6C37"/>
<path d="M18.7676 4.86575L17.0576 6.56563L18.4177 7.92575C18.5546 7.84716 18.6821 7.75318 18.7976 7.64563C19.1541 7.26884 19.3502 6.76829 19.3446 6.24962C19.339 5.73096 19.1321 5.23476 18.7676 4.86575Z" fill="white"/>
<path d="M18.3874 8.07575C18.365 8.07697 18.3425 8.07312 18.3217 8.06448C18.301 8.05585 18.2824 8.04266 18.2674 8.02588L16.9073 6.66575C16.8885 6.65075 16.8734 6.63172 16.863 6.61007C16.8526 6.58842 16.8472 6.56471 16.8472 6.54069C16.8472 6.51667 16.8526 6.49295 16.863 6.47131C16.8734 6.44966 16.8885 6.43063 16.9073 6.41563L18.6072 4.74575C18.6236 4.721 18.6459 4.70069 18.6721 4.68665C18.6982 4.6726 18.7275 4.66525 18.7572 4.66525C18.7869 4.66525 18.8161 4.6726 18.8423 4.68665C18.8685 4.70069 18.8908 4.721 18.9072 4.74575C19.1067 4.94128 19.2653 5.17466 19.3735 5.43223C19.4817 5.68979 19.5375 5.96637 19.5375 6.24575C19.5375 6.52513 19.4817 6.80171 19.3735 7.05928C19.2653 7.31684 19.1067 7.55022 18.9072 7.74575C18.7895 7.87061 18.6548 7.97829 18.507 8.06563C18.4699 8.08437 18.4272 8.088 18.3874 8.07575ZM17.2875 6.536L18.4174 7.66588C18.4951 7.6114 18.5687 7.55123 18.6375 7.48588C18.9697 7.15463 19.1568 6.70509 19.1577 6.236C19.1584 5.81621 19.0054 5.41067 18.7275 5.096L17.2875 6.536Z" fill="#FF6C37"/>
<path d="M16.2574 7.856C16.122 7.72881 15.9431 7.65801 15.7573 7.65801C15.5715 7.65801 15.3927 7.72881 15.2573 7.856L10.7277 12.3755L11.4777 13.1356L16.2675 8.93562C16.3406 8.86562 16.3985 8.7814 16.4378 8.68815C16.4771 8.59491 16.4968 8.49461 16.4959 8.39344C16.4949 8.29226 16.4733 8.19235 16.4323 8.09986C16.3913 8.00737 16.3318 7.92463 16.2574 7.856Z" fill="white"/>
<path d="M11.4375 13.316C11.3927 13.3149 11.3499 13.2971 11.3175 13.2661L10.5574 12.506C10.525 12.4724 10.5068 12.4276 10.5068 12.3809C10.5068 12.3343 10.525 12.2894 10.5574 12.2559L15.0874 7.74575C15.2179 7.61543 15.3845 7.52731 15.5656 7.49283C15.7468 7.45835 15.9341 7.4791 16.1034 7.55237C16.2726 7.62565 16.4159 7.74808 16.5147 7.90379C16.6135 8.0595 16.6633 8.2413 16.6575 8.42562C16.6523 8.55073 16.6222 8.67355 16.569 8.78688C16.5157 8.90021 16.4404 9.00177 16.3474 9.08562L11.5575 13.2856C11.5227 13.3103 11.4798 13.3214 11.4375 13.316ZM10.9076 12.3755L11.4075 12.8855L16.1074 8.79537C16.2236 8.69412 16.293 8.54937 16.2975 8.39525C16.302 8.24112 16.2413 8.09037 16.1276 7.98537C16.0227 7.88088 15.8806 7.82222 15.7326 7.82222C15.5845 7.82222 15.4424 7.88088 15.3375 7.98537L10.9076 12.3755Z" fill="#FF6C37"/>
<path d="M7.21764 17.5257C7.20485 17.5431 7.19795 17.5642 7.19795 17.5857C7.19795 17.6073 7.20485 17.6284 7.21764 17.6457L7.41751 18.5157C7.42552 18.5669 7.41793 18.6194 7.39573 18.6662C7.37352 18.713 7.33773 18.7521 7.29301 18.7782C7.24846 18.8043 7.19679 18.8156 7.14544 18.8104C7.09408 18.8052 7.0457 18.7838 7.00727 18.7494L5.63739 17.4294L9.90751 13.1255H11.3876L12.3878 14.1256C10.8277 15.4897 9.08812 16.6337 7.21764 17.5257Z" fill="white"/>
<path d="M7.12764 18.9957C7.01439 18.9935 6.90264 18.947 6.82764 18.8656L5.51777 17.5557C5.49901 17.5407 5.48386 17.5217 5.47345 17.5001C5.46305 17.4784 5.45764 17.4547 5.45764 17.4307C5.45764 17.4067 5.46305 17.383 5.47345 17.3613C5.48386 17.3397 5.49901 17.3206 5.51777 17.3056L9.81752 12.9957C9.8416 12.9702 9.87306 12.9527 9.90752 12.9459H11.3974C11.4362 12.9321 11.4786 12.9321 11.5174 12.9459L12.5175 13.946C12.5365 13.9635 12.551 13.9854 12.5597 14.0098C12.5684 14.0342 12.571 14.0603 12.5674 14.0859C12.5681 14.1107 12.563 14.1354 12.5526 14.158C12.5422 14.1805 12.5267 14.2004 12.5074 14.216L12.4275 14.2861C10.8611 15.592 9.13778 16.6972 7.29752 17.576L7.48764 18.386C7.50234 18.4485 7.5029 18.5135 7.48929 18.5762C7.47568 18.6389 7.44823 18.6978 7.40896 18.7486C7.36968 18.7994 7.31957 18.8407 7.26227 18.8697C7.20498 18.8986 7.14194 18.9144 7.07777 18.9159L7.12764 18.9957ZM5.90777 17.4256L7.08752 18.6155C7.09851 18.6253 7.11273 18.6307 7.12746 18.6307C7.14219 18.6307 7.1564 18.6253 7.16739 18.6155C7.17475 18.6053 7.1787 18.593 7.1787 18.5804C7.1787 18.5679 7.17475 18.5556 7.16739 18.5454L6.96752 17.6754C6.95177 17.6129 6.9581 17.547 6.98544 17.4887C7.01278 17.4304 7.05944 17.3833 7.11752 17.3555C8.90831 16.4884 10.5872 15.4071 12.1174 14.1354L11.2973 13.3152H9.95739L5.90777 17.4256Z" fill="#FF6C37"/>
<path d="M4.60765 18.4557L5.60778 17.4556L7.1479 18.9957L4.69803 18.8259C4.65597 18.8226 4.61602 18.8061 4.58389 18.7787C4.55176 18.7514 4.52909 18.7146 4.51911 18.6736C4.50913 18.6326 4.51236 18.5895 4.52832 18.5504C4.54429 18.5114 4.57219 18.4784 4.60803 18.4561L4.60765 18.4557Z" fill="white"/>
<path d="M7.17754 19.1458L4.73742 18.9759C4.59267 18.9624 4.46817 18.8634 4.41717 18.731C4.36617 18.5986 4.39729 18.4415 4.49742 18.3358L5.49754 17.3356C5.5311 17.3032 5.57594 17.2851 5.6226 17.2851C5.66927 17.2851 5.71411 17.3032 5.74767 17.3356L7.27767 18.8656C7.29885 18.8946 7.31026 18.9296 7.31026 18.9656C7.31026 19.0015 7.29885 19.0365 7.27767 19.0655C7.25453 19.1029 7.21915 19.1315 7.17754 19.1458ZM4.73742 18.5859L6.73729 18.716L5.63742 17.6859L4.73742 18.5859Z" fill="#FF6C37"/>
<path d="M11.5275 13.2462L9.50739 13.5564L10.6774 12.3965L11.5275 13.2462Z" fill="white"/>
<path d="M9.50741 13.7457C9.47384 13.7466 9.44075 13.7376 9.41228 13.7198C9.3838 13.702 9.3612 13.6762 9.34729 13.6456C9.326 13.6167 9.31451 13.5816 9.31451 13.5457C9.31451 13.5097 9.326 13.4747 9.34729 13.4457L10.5072 12.2757C10.5424 12.2427 10.5888 12.2243 10.6371 12.2243C10.6854 12.2243 10.7319 12.2427 10.767 12.2757L11.6175 13.1255C11.6345 13.1524 11.6435 13.1836 11.6435 13.2155C11.6435 13.2474 11.6345 13.2786 11.6175 13.3055C11.6092 13.3383 11.5916 13.3681 11.5668 13.3912C11.542 13.4142 11.511 13.4297 11.4777 13.4356L9.47779 13.7457H9.50741ZM10.6774 12.6556L10.0275 13.3055L11.1477 13.1356L10.6774 12.6556Z" fill="#FF6C37"/>
<path d="M11.5275 13.2455L10.1175 13.4255C10.0798 13.4341 10.0403 13.4302 10.0049 13.4146C9.96955 13.399 9.94014 13.3723 9.92107 13.3387C9.90201 13.305 9.8943 13.2661 9.89909 13.2277C9.90388 13.1893 9.92092 13.1535 9.94767 13.1255L10.6778 12.3954L11.5275 13.2455Z" fill="white"/>
<path d="M10.0774 13.616C10.012 13.6154 9.94802 13.5975 9.89184 13.5641C9.83565 13.5307 9.78931 13.483 9.75753 13.4259C9.71934 13.3574 9.70454 13.2784 9.71537 13.2007C9.7262 13.1231 9.76207 13.0511 9.81753 12.9957L10.5477 12.2656C10.5828 12.2326 10.6293 12.2142 10.6776 12.2142C10.7259 12.2142 10.7723 12.2326 10.8075 12.2656L11.6577 13.1157C11.6829 13.1397 11.7007 13.1705 11.7089 13.2043C11.717 13.2382 11.7152 13.2737 11.7035 13.3065C11.6919 13.3394 11.671 13.3681 11.6433 13.3893C11.6157 13.4105 11.5825 13.4232 11.5478 13.4259L10.1479 13.6059L10.0774 13.616ZM10.0774 13.2459L11.1375 13.1157L10.6677 12.6459L10.0677 13.2459H10.0774ZM18.7774 6.01588C18.7586 5.98432 18.7288 5.96078 18.6938 5.94972C18.6587 5.93866 18.6208 5.94085 18.5873 5.95588C18.5707 5.96426 18.556 5.97589 18.544 5.99006C18.5321 6.00423 18.523 6.02066 18.5175 6.03838C18.5064 6.07413 18.5099 6.11283 18.5273 6.146C18.5974 6.29338 18.5779 6.46775 18.4774 6.596C18.4649 6.60835 18.4551 6.62317 18.4487 6.6395C18.4422 6.65583 18.4392 6.67333 18.4399 6.69088C18.4403 6.72605 18.4536 6.75984 18.4774 6.78575C18.5031 6.79588 18.5316 6.79588 18.5573 6.78575C18.5806 6.7916 18.605 6.79096 18.628 6.78388C18.6509 6.77681 18.6715 6.76358 18.6874 6.74563C18.7697 6.64481 18.8219 6.52275 18.8378 6.39356C18.8537 6.26436 18.8328 6.13367 18.7774 6.01588Z" fill="#FF6C37"/>
</g>
<defs>
<clipPath id="clip0_318_375">
<rect width="24" height="24" fill="white"/>
</clipPath>
</defs>
</svg>
