<svg width="24" height="24" viewBox="0 0 24 24" fill="none" xmlns="http://www.w3.org/2000/svg">
<mask id="mask0_343_977" style="mask-type:alpha" maskUnits="userSpaceOnUse" x="4" y="0" width="17" height="24">
<path d="M14.597 0H5.58955C4.7153 0 4 0.715298 4 1.58955V21.7239C4 22.5981 4.7153 23.3134 5.58955 23.3134H19.3657C20.2399 23.3134 20.9552 22.5981 20.9552 21.7239V6.35821L14.597 0Z" fill="white"/>
</mask>
<g mask="url(#mask0_343_977)">
<path d="M14.597 0H5.58955C4.7153 0 4 0.715298 4 1.58955V21.7239C4 22.5981 4.7153 23.3134 5.58955 23.3134H19.3657C20.2399 23.3134 20.9552 22.5981 20.9552 21.7239V6.35821L17.2463 3.70895L14.597 0Z" fill="#0F9D58"/>
</g>
<mask id="mask1_343_977" style="mask-type:alpha" maskUnits="userSpaceOnUse" x="4" y="0" width="17" height="24">
<path d="M14.597 0H5.58955C4.7153 0 4 0.715298 4 1.58955V21.7239C4 22.5981 4.7153 23.3134 5.58955 23.3134H19.3657C20.2399 23.3134 20.9552 22.5981 20.9552 21.7239V6.35821L14.597 0Z" fill="white"/>
</mask>
<g mask="url(#mask1_343_977)">
<path d="M8.23877 11.3918V19.0746H16.7164V11.3918H8.23877ZM11.9477 18.0149H9.29849V16.6903H11.9477V18.0149ZM11.9477 15.8955H9.29849V14.5709H11.9477V15.8955ZM11.9477 13.7761H9.29849V12.4515H11.9477V13.7761ZM15.6567 18.0149H13.0074V16.6903H15.6567V18.0149ZM15.6567 15.8955H13.0074V14.5709H15.6567V15.8955ZM15.6567 13.7761H13.0074V12.4515H15.6567V13.7761Z" fill="#F1F1F1"/>
</g>
<mask id="mask2_343_977" style="mask-type:alpha" maskUnits="userSpaceOnUse" x="4" y="0" width="17" height="24">
<path d="M14.597 0H5.58955C4.7153 0 4 0.715298 4 1.58955V21.7239C4 22.5981 4.7153 23.3134 5.58955 23.3134H19.3657C20.2399 23.3134 20.9552 22.5981 20.9552 21.7239V6.35821L14.597 0Z" fill="white"/>
</mask>
<g mask="url(#mask2_343_977)">
<path d="M15.062 5.89326L20.9552 11.7852V6.35821L15.062 5.89326Z" fill="url(#paint0_linear_343_977)"/>
</g>
<mask id="mask3_343_977" style="mask-type:alpha" maskUnits="userSpaceOnUse" x="4" y="0" width="17" height="24">
<path d="M14.597 0H5.58955C4.7153 0 4 0.715298 4 1.58955V21.7239C4 22.5981 4.7153 23.3134 5.58955 23.3134H19.3657C20.2399 23.3134 20.9552 22.5981 20.9552 21.7239V6.35821L14.597 0Z" fill="white"/>
</mask>
<g mask="url(#mask3_343_977)">
<path d="M14.597 0V4.76867C14.597 5.64687 15.3084 6.35821 16.1866 6.35821H20.9552L14.597 0Z" fill="#87CEAC"/>
</g>
<mask id="mask4_343_977" style="mask-type:alpha" maskUnits="userSpaceOnUse" x="4" y="0" width="17" height="24">
<path d="M14.597 0H5.58955C4.7153 0 4 0.715298 4 1.58955V21.7239C4 22.5981 4.7153 23.3134 5.58955 23.3134H19.3657C20.2399 23.3134 20.9552 22.5981 20.9552 21.7239V6.35821L14.597 0Z" fill="white"/>
</mask>
<g mask="url(#mask4_343_977)">
<path d="M5.58955 0C4.7153 0 4 0.715298 4 1.58955V1.72201C4 0.847762 4.7153 0.132463 5.58955 0.132463H14.597V0H5.58955Z" fill="white" fill-opacity="0.2"/>
</g>
<mask id="mask5_343_977" style="mask-type:alpha" maskUnits="userSpaceOnUse" x="4" y="0" width="17" height="24">
<path d="M14.597 0H5.58955C4.7153 0 4 0.715298 4 1.58955V21.7239C4 22.5981 4.7153 23.3134 5.58955 23.3134H19.3657C20.2399 23.3134 20.9552 22.5981 20.9552 21.7239V6.35821L14.597 0Z" fill="white"/>
</mask>
<g mask="url(#mask5_343_977)">
<path d="M19.3657 23.181H5.58955C4.7153 23.181 4 22.4657 4 21.5914V21.7239C4 22.5981 4.7153 23.3134 5.58955 23.3134H19.3657C20.2399 23.3134 20.9552 22.5981 20.9552 21.7239V21.5914C20.9552 22.4657 20.2399 23.181 19.3657 23.181Z" fill="#263238" fill-opacity="0.2"/>
</g>
<mask id="mask6_343_977" style="mask-type:alpha" maskUnits="userSpaceOnUse" x="4" y="0" width="17" height="24">
<path d="M14.597 0H5.58955C4.7153 0 4 0.715298 4 1.58955V21.7239C4 22.5981 4.7153 23.3134 5.58955 23.3134H19.3657C20.2399 23.3134 20.9552 22.5981 20.9552 21.7239V6.35821L14.597 0Z" fill="white"/>
</mask>
<g mask="url(#mask6_343_977)">
<path d="M16.1866 6.35821C15.3084 6.35821 14.597 5.64688 14.597 4.76867V4.90112C14.597 5.77936 15.3084 6.49067 16.1866 6.49067H20.9552V6.35821H16.1866Z" fill="#263238" fill-opacity="0.1"/>
</g>
<path d="M14.597 0H5.58955C4.7153 0 4 0.715298 4 1.58955V21.7239C4 22.5981 4.7153 23.3134 5.58955 23.3134H19.3657C20.2399 23.3134 20.9552 22.5981 20.9552 21.7239V6.35821L14.597 0Z" fill="url(#paint1_radial_343_977)"/>
<defs>
<linearGradient id="paint0_linear_343_977" x1="18.0089" y1="6.39915" x2="18.0089" y2="11.786" gradientUnits="userSpaceOnUse">
<stop stop-color="#263238" stop-opacity="0.2"/>
<stop offset="1" stop-color="#263238" stop-opacity="0.02"/>
</linearGradient>
<radialGradient id="paint1_radial_343_977" cx="0" cy="0" r="1" gradientUnits="userSpaceOnUse" gradientTransform="translate(4.53715 0.463403) scale(27.3401 27.3401)">
<stop stop-color="white" stop-opacity="0.1"/>
<stop offset="1" stop-color="white" stop-opacity="0"/>
</radialGradient>
</defs>
</svg>
