<svg width="24" height="24" viewBox="0 0 24 24" fill="none" xmlns="http://www.w3.org/2000/svg">
<g clip-path="url(#clip0_343_945)">
<path d="M24 0H0V24H24V0Z" fill="url(#paint0_linear_343_945)"/>
<path fill-rule="evenodd" clip-rule="evenodd" d="M15.5472 10.5521C15.2304 10.5521 14.9718 10.2946 14.9718 9.97784C14.9718 9.66048 15.2304 9.40299 15.5472 9.40299C15.8646 9.40299 16.1232 9.66048 16.1232 9.97784C16.1232 10.2946 15.8646 10.5521 15.5472 10.5521ZM14.0874 14.0479C13.7706 14.0479 13.512 13.7904 13.512 13.4731C13.512 13.1563 13.7706 12.8988 14.0874 12.8988C14.4054 12.8988 14.6634 13.1563 14.6634 13.4731C14.6634 13.7904 14.4054 14.0479 14.0874 14.0479ZM10.5846 13.4653C10.2678 13.4653 10.0098 13.2078 10.0098 12.8904C10.0098 12.5737 10.2678 12.3162 10.5846 12.3162C10.9026 12.3162 11.1606 12.5737 11.1606 12.8904C11.1606 13.2078 10.9026 13.4653 10.5846 13.4653ZM9.12598 16.6695C8.80858 16.6695 8.54998 16.412 8.54998 16.0952C8.54998 15.7784 8.80858 15.5204 9.12598 15.5204C9.44278 15.5204 9.70138 15.7784 9.70138 16.0952C9.70138 16.412 9.44278 16.6695 9.12598 16.6695ZM15.5472 8.80419C14.8992 8.80419 14.3718 9.33054 14.3718 9.97784C14.3718 10.3742 14.571 10.724 14.874 10.9365L14.3262 12.324C14.2488 12.3084 14.169 12.3 14.0874 12.3C13.572 12.3 13.1382 12.6353 12.9804 13.097L11.7534 12.8186C11.715 12.2054 11.2092 11.7174 10.5846 11.7174C9.93658 11.7174 9.40978 12.2437 9.40978 12.8904C9.40978 13.1928 9.52798 13.4665 9.71638 13.6742L9.18118 14.9275C9.16198 14.9263 9.14458 14.9216 9.12598 14.9216C8.47738 14.9216 7.94998 15.4479 7.94998 16.0952C7.94998 16.7419 8.47738 17.2683 9.12598 17.2683C9.77398 17.2683 10.3014 16.7419 10.3014 16.0952C10.3014 15.6796 10.083 15.3168 9.75658 15.1078L10.2288 14.003C10.3416 14.0389 10.4598 14.0641 10.5846 14.0641C11.0472 14.0641 11.4438 13.794 11.6358 13.406L12.9348 13.7006C13.0416 14.2389 13.5174 14.6467 14.0874 14.6467C14.736 14.6467 15.2634 14.1204 15.2634 13.4731C15.2634 13.1234 15.1068 12.8126 14.862 12.5976L15.4374 11.1395C15.4746 11.1431 15.51 11.1509 15.5472 11.1509C16.1958 11.1509 16.7232 10.6245 16.7232 9.97784C16.7232 9.33054 16.1958 8.80419 15.5472 8.80419ZM12.3 19.8012C9.38098 19.8012 7.19998 18.9251 7.19998 18.1419V6.95389C8.19778 7.75688 10.2918 8.18323 12.3 8.18323C14.3082 8.18323 16.4022 7.75688 17.4 6.95389V18.1419C17.4 18.9251 15.219 19.8012 12.3 19.8012ZM12.3 4.1988C15.3054 4.1988 17.4 5.09042 17.4 5.89162C17.4 6.69221 15.3054 7.58443 12.3 7.58443C9.29458 7.58443 7.19998 6.69221 7.19998 5.89162C7.19998 5.09042 9.29458 4.1988 12.3 4.1988ZM18 5.89162C18 4.40299 15.063 3.6 12.3 3.6C9.53638 3.6 6.59998 4.40299 6.59998 5.89162C6.59998 5.89401 6.60118 5.89641 6.60118 5.8988H6.59998V18.1419C6.59998 19.6084 9.53638 20.4 12.3 20.4C15.063 20.4 18 19.6084 18 18.1419V5.8988H17.9988C17.9988 5.89641 18 5.89401 18 5.89162Z" fill="white"/>
</g>
<defs>
<linearGradient id="paint0_linear_343_945" x1="0" y1="24" x2="24" y2="0" gradientUnits="userSpaceOnUse">
<stop stop-color="#4D27A8"/>
<stop offset="1" stop-color="#A166FF"/>
</linearGradient>
<clipPath id="clip0_343_945">
<rect width="24" height="24" rx="12" fill="white"/>
</clipPath>
</defs>
</svg>
