<svg width="24" height="24" viewBox="0 0 24 24" fill="none" xmlns="http://www.w3.org/2000/svg">
<g clip-path="url(#clip0_343_933)">
<path d="M24 0H0V24H24V0Z" fill="url(#paint0_linear_343_933)"/>
<path fill-rule="evenodd" clip-rule="evenodd" d="M7.927 16.427L5.854 18.5H7.25V19H5.25C5.112 19 5 18.8885 5 18.75V16.75H5.5V18.1465L7.5735 16.0735L7.927 16.427ZM18.5 16.75H19V18.75C19 18.8885 18.8885 19 18.75 19H16.75V18.5H18.1465L16.0735 16.427L16.427 16.0735L18.5 18.1465V16.75ZM19 5.25V7.25H18.5V5.854L16.427 7.927L16.0735 7.5735L18.1465 5.5H16.75V5H18.75C18.8885 5 19 5.112 19 5.25ZM5.5 7.25H5V5.25C5 5.112 5.112 5 5.25 5H7.25V5.5H5.7635L7.923 7.57L7.5775 7.9305L5.5 5.94V7.25ZM18.363 11.7C18.363 10.921 17.46 10.15 15.948 9.6385L16.108 9.165C17.859 9.7575 18.863 10.6815 18.863 11.7C18.863 12.7185 17.859 13.643 16.108 14.2355L15.948 13.7615C17.46 13.25 18.363 12.479 18.363 11.7ZM5.8685 11.7C5.8685 12.446 6.7135 13.1965 8.129 13.707L7.959 14.177C6.3125 13.5835 5.3685 12.6805 5.3685 11.7C5.3685 10.7195 6.3125 9.8165 7.959 9.2225L8.129 9.693C6.7135 10.2035 5.8685 10.954 5.8685 11.7ZM12.0115 9.8595C10.4435 9.8595 9.566 9.46 9.553 9.297C9.566 9.134 10.4435 8.7345 12.0115 8.7345C13.578 8.7345 14.4565 9.1335 14.47 9.297C14.4565 9.46 13.578 9.8595 12.0115 9.8595ZM12.0115 11.637C10.4205 11.637 9.553 11.174 9.553 10.936V9.921C10.1205 10.2185 11.0875 10.3595 12.0115 10.3595C12.9355 10.3595 13.9025 10.2185 14.47 9.921V10.936C14.47 11.174 13.6025 11.637 12.0115 11.637ZM12.0115 13.5055C10.4205 13.5055 9.553 13.042 9.553 12.804V11.6325C10.1125 11.965 11.0645 12.137 12.0115 12.137C12.9585 12.137 13.9105 11.965 14.47 11.6325V12.804C14.47 13.042 13.6025 13.5055 12.0115 13.5055ZM12.0115 15.145C10.4205 15.145 9.553 14.6875 9.553 14.4525V13.5005C10.1125 13.8335 11.0645 14.0055 12.0115 14.0055C12.9585 14.0055 13.9105 13.8335 14.47 13.5005V14.4525C14.47 14.6875 13.6025 15.145 12.0115 15.145ZM12.0115 8.2345C10.5865 8.2345 9.053 8.567 9.053 9.297V14.4525C9.053 15.2355 10.5415 15.645 12.0115 15.645C13.4815 15.645 14.97 15.2355 14.97 14.4525V9.297C14.97 8.567 13.4365 8.2345 12.0115 8.2345Z" fill="white"/>
</g>
<defs>
<linearGradient id="paint0_linear_343_933" x1="0" y1="24" x2="24" y2="0" gradientUnits="userSpaceOnUse">
<stop stop-color="#2E27AD"/>
<stop offset="1" stop-color="#527FFF"/>
</linearGradient>
<clipPath id="clip0_343_933">
<rect width="24" height="24" rx="12" fill="white"/>
</clipPath>
</defs>
</svg>
