<svg width="24" height="24" viewBox="0 0 24 24" fill="none" xmlns="http://www.w3.org/2000/svg">
<g clip-path="url(#clip0_320_461)">
<path d="M11.3433 16H12.6567V12.4179H15.9602V11.1443H12.6567V7.56219H11.3433V11.1443H8.07959V12.4179H11.3433V16Z" fill="#E8762D"/>
<path d="M5.25375 21.1741H6.36817V17.9901H9.31345V16.995H6.36817V13.7711H5.25375V16.995H2.30847V17.9901H5.25375V21.1741Z" fill="#C72037"/>
<path d="M17.6319 9.67164H18.7463V6.48756H21.7314V5.53234H18.7463V2.30846H17.6319V5.53234H14.6866V6.48756H17.6319V9.67164Z" fill="#5B879B"/>
<path d="M11.5423 23.6816H12.4975V21.4129H14.5274V20.5771H12.4975V18.3085H11.5423V20.5771H9.55225V21.4129H11.5423V23.6816Z" fill="#5C6692"/>
<path d="M5.29355 9.67164H6.32837V6.44776H9.31345V5.53234H6.32837V2.30846H5.29355V5.53234H2.30847V6.44776H5.29355V9.67164Z" fill="#EB9129"/>
<path d="M21.015 14.4478H21.9702V12.2189H24V11.3433H21.9702V9.11443H21.015V11.3433H19.0249V12.2189H21.015V14.4478Z" fill="#5C6692"/>
<path fill-rule="evenodd" clip-rule="evenodd" d="M17.6319 21.1741H18.7463V17.9901H21.7314V16.995H18.7463V13.7711H17.6319V16.995H14.6866V17.9901H17.6319V21.1741Z" fill="#1F457E"/>
<path d="M14.3682 2.86567V2.18905H12.3781V0H11.6617V2.18905H9.67164V2.86567H11.6617V5.05473H12.3781V2.86567H14.3682ZM1.99005 14.2886H2.70647V12.0995H4.69652V11.4229H2.70647V9.27363H1.99005V11.4229H0V12.1393L1.99005 12.0995V14.2886Z" fill="#7199A6"/>
</g>
<defs>
<clipPath id="clip0_320_461">
<rect width="24" height="24" fill="white"/>
</clipPath>
</defs>
</svg>
