<svg width="24" height="24" viewBox="0 0 24 24" fill="none" xmlns="http://www.w3.org/2000/svg">
<g clip-path="url(#clip0_48_206)">
<path d="M18.7546 13.3333L18.7507 13.34L16.5293 17.1786L17.768 19.3227C17.0706 19.8733 16.296 20.3254 15.46 20.66L14.2226 18.516H14.2147L9.77994 18.512L8.5386 20.66C7.70262 20.3254 6.92796 19.8733 6.23196 19.3227L7.46796 17.1839L7.46262 17.176L5.24928 13.3333H2.77332C2.7093 12.896 2.66664 12.4532 2.66664 12C2.66664 11.5467 2.7093 11.1027 2.77332 10.6666H5.244L5.24796 10.66L7.4706 6.82134L6.23196 4.67598C6.92796 4.12668 7.70262 3.6747 8.5386 3.3387L9.7773 5.48406H9.78528L14.22 5.48796L15.46 3.3387C16.296 3.6747 17.0706 4.12668 17.768 4.67598L16.532 6.816L16.5373 6.82392L18.7507 10.6666H21.2266C21.2893 11.1027 21.3333 11.5467 21.3333 12C21.3333 12.4532 21.2893 12.896 21.2266 13.3333H18.7546ZM11.9999 0C5.37198 0 0 5.37204 0 12C0 18.6266 5.37198 23.9999 11.9999 23.9999C18.6266 23.9999 24 18.6266 24 12C24 5.37204 18.6266 0 11.9999 0ZM9.78264 8.15064L7.55592 11.9959L9.77328 15.8453L14.2172 15.8493L16.4426 12.004L14.2267 8.15466" fill="#193956"/>
</g>
<defs>
<clipPath id="clip0_48_206">
<rect width="24" height="24" fill="white"/>
</clipPath>
</defs>
</svg>
