<svg width="24" height="24" viewBox="0 0 24 24" fill="none" xmlns="http://www.w3.org/2000/svg">
<path fill-rule="evenodd" clip-rule="evenodd" d="M18.4283 1.72043C18.8219 1.32686 18.8219 0.688751 18.4283 0.295179C18.0347 -0.098393 17.3966 -0.098393 17.003 0.295179L13.3188 3.97945L10.5142 1.17483C10.1206 0.781259 9.48252 0.781259 9.08896 1.17483C8.69539 1.5684 8.69539 2.20651 9.08896 2.60008L9.6952 3.20633L4.09971 8.80185L4.09894 8.80262C3.67827 9.22188 3.34447 9.72002 3.11666 10.2685C2.88871 10.8174 2.77136 11.4058 2.77136 12.0001C2.77136 12.5944 2.88871 13.1828 3.11666 13.7316C3.34448 14.2802 3.6783 14.7783 4.09899 15.1976L4.09971 15.1983L5.73805 16.8367L0.295177 22.2796C-0.0983924 22.6731 -0.0983924 23.3112 0.295177 23.7048C0.688747 24.0984 1.32685 24.0984 1.72042 23.7048L7.16329 18.2619L8.80159 19.9002C9.22087 20.3209 9.71971 20.6555 10.2683 20.8833C10.8171 21.1112 11.4055 21.2286 11.9998 21.2286C12.5941 21.2286 13.1825 21.1112 13.7313 20.8833C14.2798 20.6555 14.778 20.3217 15.1972 19.901L15.198 19.9002L20.7935 14.3047L21.4001 14.9113C21.7937 15.3049 22.4318 15.3049 22.8254 14.9113C23.2189 14.5178 23.2189 13.8796 22.8254 13.4861L20.0204 10.6811L23.7048 6.99673C24.0984 6.60316 24.0984 5.96505 23.7048 5.57148C23.3113 5.17791 22.6732 5.17791 22.2796 5.57148L18.5952 9.25589L14.744 5.4047L18.4283 1.72043ZM19.3683 12.8794L11.1204 4.63158L5.52358 10.2285L5.52221 10.2298C5.28916 10.462 5.10425 10.7379 4.97808 11.0416C4.85191 11.3454 4.78696 11.6711 4.78696 12.0001C4.78696 12.329 4.85191 12.6547 4.97808 12.9585C5.10425 13.2623 5.28916 13.5382 5.52221 13.7703L5.52358 13.7717L7.86446 16.1126L7.876 16.1239L7.88736 16.1355L10.2296 18.4777C10.4617 18.7108 10.7376 18.8957 11.0414 19.0218C11.3452 19.148 11.6709 19.213 11.9998 19.213C12.3287 19.213 12.6544 19.148 12.9582 19.0218C13.262 18.8957 13.5379 18.7108 13.77 18.4777L13.7714 18.4763L19.3683 12.8794Z" fill="#1B72C3"/>
<circle cx="8" cy="13" r="6.5" fill="#9E559C" stroke="white"/>
<path d="M5.53809 16H6.45752V12.1787H7.90674V11.3584H4.08545V12.1787H5.53809V16ZM10.6377 14.6328C11.5742 14.6328 12.3296 13.9971 12.3296 13.0024C12.3296 11.9497 11.5742 11.3584 10.6377 11.3584H8.48779V16H9.41064V14.6328H10.6377ZM10.5317 12.1582C11.0137 12.1582 11.3794 12.4624 11.3794 13.0024C11.3794 13.498 11.0205 13.8364 10.5317 13.8364H9.41064V12.1582H10.5317Z" fill="white"/>
</svg>
