<svg width="22" height="24" viewBox="0 0 22 24" fill="none" xmlns="http://www.w3.org/2000/svg">
<g clip-path="url(#clip0_103_430)">
<path d="M10.8651 18.3502L19.9918 20.5232V3.42838L10.8651 5.60139V18.3502Z" fill="#205B97"/>
<path d="M19.9917 3.42838L21.7301 4.29758V19.654L19.9917 20.5232V3.42838ZM10.8651 18.3502L1.7384 20.5232V3.42838L10.8651 5.60139V18.3502Z" fill="#5193CE"/>
<path d="M1.73841 3.42838L0 4.29758V19.654L1.73841 20.5232V3.42838Z" fill="#205B97"/>
<path d="M13.1834 24L16.6603 22.2616V1.73841L13.1834 0L12.1205 11.3965L13.1834 24Z" fill="#5193CE"/>
<path d="M8.54676 24L5.06995 22.2616V1.73841L8.54676 0L9.60972 11.3965L8.54676 24Z" fill="#205B97"/>
<path d="M8.54675 0H13.2305V23.9516H8.54675V0Z" fill="#2E73B7"/>
</g>
<defs>
<clipPath id="clip0_103_430">
<rect width="21.7301" height="24" fill="white"/>
</clipPath>
</defs>
</svg>
