<svg width="24" height="24" viewBox="0 0 24 24" fill="none" xmlns="http://www.w3.org/2000/svg">
<g clip-path="url(#clip0_36_269)">
<path d="M12.0769 0C5.86154 0 1 2.84308 1 6.46154V17.5385C1 21.1569 5.86154 24 12.0769 24C18.2923 24 23.1538 21.1569 23.1538 17.5385V6.46154C23.1538 2.84308 18.2923 0 12.0769 0ZM21.3077 12C21.3077 13.1077 20.3969 14.24 18.8092 15.1015C17.0246 16.0738 14.6369 16.6154 12.0769 16.6154C9.51692 16.6154 7.12923 16.0738 5.34462 15.1015C3.75692 14.24 2.84615 13.1077 2.84615 12V10.08C4.81538 11.8154 8.17538 12.9231 12.0769 12.9231C15.9785 12.9231 19.3385 11.8031 21.3077 10.08V12ZM18.8092 20.64C17.0246 21.6123 14.6369 22.1538 12.0769 22.1538C9.51692 22.1538 7.12923 21.6123 5.34462 20.64C3.75692 19.7785 2.84615 18.6462 2.84615 17.5385V15.6185C4.81538 17.3538 8.17538 18.4615 12.0769 18.4615C15.9785 18.4615 19.3385 17.3415 21.3077 15.6185V17.5385C21.3077 18.6462 20.3969 19.7785 18.8092 20.64Z" fill="#2196F3"/>
</g>
<defs>
<clipPath id="clip0_36_269">
<rect width="22.1538" height="24" fill="white" transform="translate(1)"/>
</clipPath>
</defs>
</svg>
