<svg width="24" height="24" viewBox="0 0 24 24" fill="none" xmlns="http://www.w3.org/2000/svg">
<path d="M12 12.6893V15.0089C15.9317 15.0089 18.9929 11.2107 17.7067 7.09081C17.1447 5.29039 15.7141 3.85978 13.9137 3.29775C9.79378 2.01163 5.99548 5.07291 5.99548 9.00453H8.32041C8.32075 9.00453 8.32102 9.00392 8.32102 9.00392C8.32137 6.53654 10.7632 4.62895 13.3573 5.57025C14.3184 5.91901 15.0849 6.68546 15.4339 7.64644C16.3753 10.239 14.4706 12.6799 12.0053 12.6834V10.3713C12.0053 10.3713 12.0051 10.3711 12.0049 10.3711H9.68715C9.68695 10.3711 9.68674 10.3715 9.68674 10.3715V12.6893H12ZM9.68633 14.4708H7.90546L7.90505 14.4704V12.6893H9.68674V14.4704C9.68674 14.4704 9.68654 14.4708 9.68633 14.4708ZM7.90628 12.6893H6.41336C6.41275 12.6893 6.41227 12.6889 6.41227 12.6889V11.1967C6.41227 11.1967 6.41275 11.1956 6.41336 11.1956H7.90519C7.9058 11.1956 7.90628 11.1961 7.90628 11.1961V12.6893Z" fill="#0080FF"/>
<path d="M2.07469 17.3619C1.77243 17.1522 1.39629 17.0459 0.956759 17.0459H0V20.0814H0.956759C1.3952 20.0814 1.77148 19.9692 2.07503 19.7481C2.24022 19.6308 2.37001 19.467 2.46084 19.2613C2.5512 19.0567 2.59702 18.8153 2.59702 18.5439C2.59702 18.2757 2.5512 18.0375 2.46077 17.8357C2.37001 17.633 2.24009 17.4736 2.07469 17.3619ZM0.55883 17.559H0.859115C1.19324 17.559 1.46826 17.6247 1.67683 17.7545C1.90834 17.8941 2.0258 18.1597 2.0258 18.5439C2.0258 18.9397 1.90807 19.2172 1.67601 19.3691H1.67581C1.4761 19.5012 1.20271 19.5682 0.863269 19.5682H0.55883V17.559ZM2.98889 20.0814H3.52689V17.9434H2.98889V20.0814ZM3.26303 17.0085C3.17111 17.0085 3.09185 17.0411 3.02805 17.105C2.96349 17.1665 2.93074 17.2445 2.93074 17.3367C2.93074 17.4286 2.96329 17.5078 3.02764 17.5721C3.09185 17.6365 3.17111 17.6691 3.26303 17.6691C3.35495 17.6691 3.43415 17.6365 3.49849 17.5721C3.56291 17.5078 3.59545 17.4286 3.59545 17.3367C3.59545 17.2446 3.5627 17.1666 3.49849 17.1054C3.43415 17.0411 3.35495 17.0085 3.26303 17.0085ZM5.48058 18.122C5.31838 17.9777 5.13726 17.8936 4.94136 17.8936C4.64441 17.8936 4.39758 17.9963 4.20781 18.1987C4.01565 18.3995 3.91814 18.6579 3.91814 18.9667C3.91814 19.2685 4.01408 19.526 4.20372 19.7325C4.39485 19.9323 4.64305 20.0336 4.94136 20.0336C5.14877 20.0336 5.32703 19.9758 5.47234 19.8618V19.911C5.47234 20.0884 5.42481 20.2264 5.33118 20.3212C5.23763 20.4158 5.10784 20.4638 4.94558 20.4638C4.69725 20.4638 4.54159 20.3662 4.35209 20.1101L3.98576 20.4621L3.99563 20.476C4.07475 20.587 4.19596 20.6957 4.3559 20.799C4.51592 20.9018 4.71706 20.9541 4.95382 20.9541C5.27324 20.9541 5.53158 20.8556 5.72183 20.6615C5.91317 20.4664 6.0102 20.205 6.0102 19.8851V17.9434H5.48058V18.122ZM5.33949 19.3847C5.24546 19.4915 5.12473 19.5432 4.97043 19.5432C4.81621 19.5432 4.69616 19.4915 4.60349 19.3849C4.51129 19.2787 4.46444 19.138 4.46444 18.9667C4.46444 18.7926 4.51129 18.6501 4.60355 18.5432C4.69493 18.4375 4.81838 18.3838 4.97043 18.3838C5.12459 18.3838 5.24539 18.436 5.33942 18.5435C5.43312 18.6504 5.48058 18.7927 5.48058 18.9667C5.48058 19.138 5.43312 19.2786 5.33949 19.3847ZM6.47063 20.0814H7.00863V17.9434H6.47063V20.0814ZM6.74484 17.0085C6.65285 17.0085 6.57359 17.0411 6.50979 17.105C6.44524 17.1665 6.41248 17.2445 6.41248 17.3367C6.41248 17.4286 6.44503 17.5078 6.50938 17.5721C6.57359 17.6365 6.65285 17.6691 6.74484 17.6691C6.8367 17.6691 6.91589 17.6365 6.9803 17.5721C7.04465 17.5078 7.0772 17.4286 7.0772 17.3367C7.0772 17.2446 7.04444 17.1666 6.9803 17.1054C6.91589 17.0411 6.8367 17.0085 6.74484 17.0085ZM8.18777 17.3658H7.65816V17.9434H7.35059V18.4338H7.65816V19.3218C7.65816 19.5997 7.71365 19.7985 7.82321 19.9127C7.93304 20.0274 8.12806 20.0856 8.40288 20.0856C8.49031 20.0856 8.57828 20.0827 8.66428 20.0771L8.68852 20.0754V19.5855L8.50406 19.5952C8.37598 19.5952 8.29046 19.5727 8.24981 19.5284C8.20861 19.4834 8.18777 19.3882 8.18777 19.2455V18.4338H8.68852V17.9434H8.18777V17.3658ZM10.5349 18.1034C10.3719 17.9642 10.1464 17.8936 9.86508 17.8936C9.68607 17.8936 9.5187 17.9329 9.36726 18.0097C9.2272 18.0807 9.08965 18.1984 9.00222 18.3523L9.00767 18.3588L9.35215 18.6886C9.49405 18.4624 9.65182 18.3838 9.861 18.3838C9.97342 18.3838 10.0667 18.414 10.1384 18.4734C10.2097 18.5325 10.2444 18.6076 10.2444 18.7028V18.8066C10.111 18.766 9.97798 18.7455 9.84854 18.7455C9.5808 18.7455 9.36297 18.8085 9.20112 18.9327C9.03722 19.0584 8.95415 19.2383 8.95415 19.4675C8.95415 19.6683 9.02422 19.8315 9.16285 19.9528C9.30271 20.0698 9.47743 20.1292 9.68232 20.1292C9.88714 20.1292 10.0788 20.0466 10.2527 19.9054V20.0814H10.7824V18.707C10.7824 18.4468 10.6991 18.2437 10.5349 18.1034ZM9.57971 19.2644C9.64072 19.2218 9.72692 19.2004 9.83601 19.2004C9.96552 19.2004 10.1029 19.2264 10.2444 19.2777V19.4875C10.1275 19.5961 9.9713 19.6513 9.78003 19.6513C9.68689 19.6513 9.6145 19.6306 9.56473 19.5897C9.51591 19.5496 9.49214 19.4987 9.49214 19.4342C9.49214 19.3608 9.52081 19.3053 9.57971 19.2644ZM11.2111 20.0814H11.749V17.0459H11.2111V20.0814ZM13.701 20.1271C12.8381 20.1271 12.1361 19.4252 12.1361 18.5622C12.1361 17.6994 12.8381 16.9974 13.701 16.9974C14.5638 16.9974 15.2658 17.6994 15.2658 18.5622C15.2658 19.4252 14.5638 20.1271 13.701 20.1271ZM13.701 17.5489C13.1422 17.5489 12.6876 18.0035 12.6876 18.5622C12.6876 19.1211 13.1422 19.5756 13.701 19.5756C14.2597 19.5756 14.7143 19.1211 14.7143 18.5622C14.7143 18.0035 14.2597 17.5489 13.701 17.5489ZM17.1841 19.3169C17.0879 19.4248 16.9894 19.5183 16.9135 19.5669C16.8392 19.6146 16.7453 19.6389 16.6346 19.6389C16.4761 19.6389 16.3486 19.5812 16.2447 19.4623C16.1415 19.344 16.0892 19.192 16.0892 19.0103C16.0892 18.8286 16.1408 18.6768 16.2428 18.5594C16.3452 18.4412 16.472 18.3838 16.6304 18.3838C16.8037 18.3838 16.9864 18.4916 17.1429 18.6767L17.4985 18.3357C17.2667 18.034 16.9709 17.8936 16.618 17.8936C16.3226 17.8936 16.0665 18.0012 15.857 18.2133C15.6485 18.4238 15.5429 18.692 15.5429 19.0103C15.5429 19.3286 15.6485 19.5974 15.8567 19.8094C16.0651 20.0216 16.3213 20.1292 16.618 20.1292C17.0075 20.1292 17.3219 19.9611 17.5339 19.653L17.1841 19.3169ZM19.3921 18.2421C19.3158 18.1358 19.2119 18.0503 19.0832 17.9877C18.9549 17.9252 18.8053 17.8936 18.6386 17.8936C18.3384 17.8936 18.0926 18.0044 17.9081 18.2231C17.729 18.4401 17.6383 18.7098 17.6383 19.0249C17.6383 19.3488 17.7379 19.6171 17.9343 19.8219C18.1296 20.0258 18.3911 20.1292 18.7114 20.1292C19.0742 20.1292 19.3719 19.9825 19.5962 19.6931L19.6083 19.6775L19.2573 19.3403C19.2248 19.3795 19.1787 19.424 19.1366 19.4636C19.0835 19.5138 19.0336 19.5526 18.9802 19.5791C18.8998 19.6192 18.8096 19.6389 18.7087 19.6389C18.5597 19.6389 18.4362 19.5951 18.3418 19.5086C18.2536 19.4277 18.202 19.3186 18.1883 19.1839H19.6136L19.6184 18.9875C19.6184 18.8485 19.5995 18.7146 19.5622 18.5895C19.5249 18.4641 19.4676 18.3472 19.3921 18.2421ZM18.2163 18.7455C18.2422 18.6432 18.2893 18.558 18.3567 18.4919C18.4297 18.4201 18.5245 18.3838 18.6388 18.3838C18.7692 18.3838 18.8702 18.4209 18.9388 18.4943C19.0025 18.5621 19.0383 18.6465 19.0458 18.7455H18.2163ZM21.4581 18.1034C21.2951 17.9642 21.0697 17.8936 20.7883 17.8936C20.6093 17.8936 20.4419 17.9329 20.2905 18.0097C20.1504 18.0807 20.0128 18.1984 19.9254 18.3523L19.9309 18.3588L20.2754 18.6886C20.4173 18.4624 20.575 18.3838 20.7842 18.3838C20.8966 18.3838 20.9899 18.414 21.0616 18.4734C21.1329 18.5325 21.1677 18.6076 21.1677 18.7028V18.8066C21.0342 18.766 20.9012 18.7455 20.7717 18.7455C20.504 18.7455 20.2861 18.8085 20.1243 18.9327C19.9604 19.0584 19.8774 19.2383 19.8774 19.4675C19.8774 19.6683 19.9474 19.8315 20.0861 19.9528C20.2259 20.0698 20.4007 20.1292 20.6056 20.1292C20.8104 20.1292 21.002 20.0466 21.1759 19.9054V20.0814H21.7056V18.707C21.7056 18.4468 21.6224 18.2437 21.4581 18.1034ZM20.5029 19.2644C20.5639 19.2218 20.6502 19.2004 20.7592 19.2004C20.8887 19.2004 21.0261 19.2264 21.1677 19.2777V19.4875C21.0507 19.5961 20.8945 19.6513 20.7032 19.6513C20.6101 19.6513 20.5377 19.6306 20.488 19.5897C20.4391 19.5496 20.4154 19.4987 20.4154 19.4342C20.4154 19.3608 20.444 19.3053 20.5029 19.2644ZM23.7752 18.1453C23.6254 17.9784 23.4148 17.8936 23.1493 17.8936C22.9359 17.8936 22.7625 17.9549 22.6329 18.0758V17.9434H22.1053V20.0814H22.6433V18.9023C22.6433 18.7403 22.6818 18.6117 22.7578 18.5199C22.8337 18.4284 22.9379 18.3838 23.0765 18.3838C23.1984 18.3838 23.2908 18.4236 23.3589 18.5054C23.4273 18.5876 23.462 18.7007 23.462 18.8421V20.0814H24V18.8421C24 18.546 23.9244 18.3116 23.7752 18.1453Z" fill="#0080FF"/>
</svg>
