<svg width="24" height="24" viewBox="0 0 24 24" fill="none" xmlns="http://www.w3.org/2000/svg">
<path d="M24 9.46817C24 9.39765 23.9765 9.37414 23.906 9.37414H22.5896C22.5426 9.37414 22.4956 9.39765 22.4486 9.42116C22.4016 9.44466 22.3546 9.49167 22.3075 9.56219L21.2733 10.855L20.6386 9.56219C20.6151 9.49167 20.5681 9.44466 20.5446 9.42116C20.5211 9.39765 20.474 9.37414 20.427 9.37414H18.3115L18.476 8.57493C18.4995 8.36337 18.5935 8.17532 18.6641 8.12831C18.7111 8.05779 18.8286 8.03428 18.9696 8.03428H19.2987L19.4868 7C19.1812 7 18.9696 7 18.9226 7C18.6405 7 18.335 7 18.1704 7.02351C17.9589 7.07052 17.7473 7.11753 17.5828 7.23506C17.4182 7.3526 17.2537 7.51714 17.1361 7.7287C17.0186 7.94025 16.9246 8.22233 16.8776 8.57493L16.7365 9.25661L16.2899 11.6543V11.6543L15.7022 14.7806C15.6787 14.8981 15.6552 14.9922 15.6317 15.0392C15.6082 15.1097 15.5847 15.1567 15.5377 15.1802C15.4907 15.2037 15.4437 15.2272 15.3732 15.2507C15.3497 15.2507 15.1381 15.2507 14.8795 15.2507L14.668 16.4025C14.903 16.4025 15.2321 16.4025 15.3026 16.4025C15.5612 16.4025 15.7493 16.379 15.9608 16.3555C16.1724 16.332 16.3839 16.238 16.5485 16.144C16.713 16.0264 16.8776 15.8619 16.9951 15.6503C17.1126 15.4388 17.2067 15.1567 17.2772 14.8041L18.0764 10.526H19.0402C19.2047 10.526 19.3222 10.573 19.3927 10.62C19.4163 10.6435 19.4398 10.6905 19.4868 10.714L20.1214 11.9598L17.9354 14.569C17.9118 14.5926 17.8883 14.6396 17.8883 14.6631C17.8883 14.7101 17.9118 14.7571 17.9824 14.7571H19.2987C19.3457 14.7571 19.3927 14.7336 19.4398 14.7101C19.4868 14.6866 19.5338 14.6396 19.5808 14.569L20.7561 13.0881L21.4613 14.5455C21.4848 14.6161 21.5318 14.6631 21.5553 14.6866C21.5788 14.7101 21.6259 14.7336 21.6729 14.7336H23.0832C23.1303 14.7336 23.1538 14.7101 23.1773 14.6866C23.2008 14.6631 23.2008 14.6161 23.2008 14.5926C23.2008 14.569 23.2008 14.5455 23.2008 14.5455L21.8844 12.0069L23.953 9.53869C23.9765 9.53869 24 9.51518 24 9.46817" fill="#31B4E7"/>
<path fill-rule="evenodd" clip-rule="evenodd" d="M7.99217 8.01078C8.01568 8.03429 8.03919 8.05779 8.03919 8.1048V8.76298C8.03919 8.78649 8.01568 8.8335 7.99217 8.85701C7.96867 8.88051 7.94516 8.90402 7.89815 8.90402H6.95789C6.93439 8.90402 6.88737 8.88051 6.86387 8.85701C6.84036 8.8335 6.81685 8.80999 6.81685 8.76298V8.1048C6.81685 8.0813 6.84036 8.03428 6.86387 8.01078C6.88737 7.98727 6.91088 7.96377 6.95789 7.96377H7.89815C7.92165 7.96377 7.96867 7.98727 7.99217 8.01078L7.99217 8.01078ZM6.44075 10.1264V9.44467C6.44075 9.39766 6.41724 9.37415 6.39374 9.35064C6.37023 9.32714 6.32322 9.30363 6.29971 9.30363C6.13517 9.30363 5.94712 9.32714 5.78257 9.39766C5.61803 9.46817 5.45348 9.53869 5.31244 9.65622V9.51519C5.31244 9.46817 5.28894 9.44467 5.26543 9.42116C5.21842 9.37415 5.19491 9.37415 5.1479 9.37415H4.27816C4.23115 9.37415 4.20764 9.39766 4.18414 9.42116C4.16063 9.44467 4.13713 9.49168 4.13713 9.51519V13.2527C4.13713 13.2997 4.16063 13.3232 4.18414 13.3467C4.20764 13.3702 4.25466 13.3937 4.27816 13.3937H5.17141C5.21842 13.3937 5.24192 13.3702 5.26543 13.3467C5.28894 13.3232 5.31244 13.2762 5.31244 13.2527V10.5025C5.45348 10.4319 5.59452 10.3849 5.75906 10.3379C5.92361 10.2909 6.08815 10.2674 6.2527 10.2674H6.29971C6.32322 10.2674 6.37023 10.2439 6.37023 10.2204C6.41724 10.1734 6.44075 10.1499 6.44075 10.1264ZM3.14985 9.79726C3.45544 10.1028 3.61998 10.5495 3.61998 11.1136V11.6308C3.61998 12.1949 3.47894 12.618 3.17336 12.9471C2.86778 13.2762 2.39765 13.4407 1.78648 13.4407C1.7557 13.4407 1.72044 13.4363 1.68071 13.4312C1.6294 13.4247 1.57064 13.4172 1.50441 13.4172C1.38688 13.4172 1.29285 13.4172 1.17532 13.3937V14.6161C1.17532 14.6396 1.15181 14.6866 1.12831 14.7101C1.1048 14.7336 1.08129 14.7571 1.03428 14.7571H0.141038C0.117532 14.7571 0.0705191 14.7336 0.0470127 14.7101C0.0235064 14.6866 0 14.6631 0 14.6161V9.70323C0 9.65622 0.0235064 9.6092 0.0470127 9.5857C0.0705191 9.56219 0.141038 9.53869 0.235064 9.51518C0.446621 9.44466 0.681685 9.39765 0.963761 9.37414C1.22233 9.35063 1.50441 9.32713 1.78648 9.32713C2.37414 9.32713 2.84427 9.49167 3.14985 9.79726ZM2.42114 11.9834C2.44465 11.8893 2.44465 11.7718 2.44465 11.6543H2.42114V11.1371C2.42114 10.9961 2.42114 10.8786 2.39764 10.7845C2.39764 10.6905 2.35062 10.5965 2.30361 10.526C2.2566 10.4319 2.20959 10.3849 2.11556 10.3379C2.02153 10.2909 1.92751 10.2674 1.78647 10.2674H1.45738C1.40699 10.2674 1.35661 10.2741 1.30984 10.2804L1.30983 10.2804C1.26933 10.2858 1.23154 10.2909 1.19881 10.2909V12.477C1.2432 12.477 1.2876 12.4822 1.33446 12.4878C1.38686 12.4939 1.44235 12.5005 1.50439 12.5005C1.62193 12.524 1.71595 12.524 1.80998 12.524C1.95102 12.524 2.04504 12.5005 2.13907 12.4535C2.20959 12.4065 2.2801 12.336 2.32712 12.2654C2.37413 12.1714 2.39764 12.0774 2.42114 11.9834ZM8.01565 9.49169C8.01565 9.44467 7.99214 9.42117 7.96864 9.39766C7.94513 9.37415 7.89812 9.35065 7.87461 9.35065H6.98137C6.93436 9.35065 6.91085 9.37415 6.88734 9.39766C6.86384 9.42117 6.84033 9.46818 6.84033 9.49169V13.2292C6.84033 13.2762 6.86384 13.2997 6.88734 13.3232C6.91085 13.3467 6.95786 13.3702 6.98137 13.3702H7.87461C7.92162 13.3702 7.94513 13.3467 7.96864 13.3232C7.99214 13.2997 8.01565 13.2527 8.01565 13.2292V9.49169ZM11.3536 12.5475V13.1822C11.3536 13.2292 11.3301 13.2762 11.3066 13.2057C11.2934 13.2189 11.2728 13.2247 11.2489 13.2314C11.2303 13.2366 11.2097 13.2424 11.189 13.2527C11.095 13.2762 10.954 13.2997 10.7894 13.3232C10.6249 13.3467 10.4368 13.3467 10.2253 13.3467C9.70814 13.3467 9.28503 13.2057 8.97945 12.9001C8.67386 12.5945 8.50932 12.1714 8.50932 11.5838V10.9961C8.50932 10.4319 8.67386 9.98532 8.97945 9.67973C9.30853 9.37415 9.70814 9.23311 10.2253 9.23311C10.4368 9.23311 10.6249 9.23311 10.7894 9.25662C10.954 9.28013 11.095 9.30363 11.189 9.32714C11.2361 9.32714 11.2831 9.35065 11.3066 9.37415C11.3301 9.39766 11.3536 9.44467 11.3536 9.49168V10.1264C11.3536 10.1734 11.3301 10.1969 11.3066 10.2204C11.2831 10.2439 11.2596 10.2439 11.2126 10.2439H11.189C11.1153 10.2439 11.0416 10.2375 10.9712 10.2313C10.907 10.2257 10.8455 10.2204 10.7894 10.2204C10.6719 10.1969 10.5074 10.1969 10.2958 10.1969C10.2018 10.1969 10.1313 10.2204 10.0607 10.2439C9.99022 10.2674 9.9197 10.3144 9.87269 10.3849C9.82568 10.4554 9.77866 10.5495 9.75516 10.6435C9.73165 10.761 9.70814 10.8786 9.70814 11.0431V11.6308C9.70814 11.7953 9.73165 11.9363 9.75516 12.0304C9.77866 12.1479 9.82568 12.2184 9.87269 12.2889C9.9197 12.3595 9.99022 12.4065 10.0607 12.43C10.1313 12.4535 10.2018 12.477 10.2958 12.477C10.417 12.477 10.5228 12.4693 10.6131 12.4627C10.6805 12.4578 10.7392 12.4535 10.7894 12.4535C10.9305 12.4535 11.048 12.4535 11.189 12.43H11.2126C11.2361 12.43 11.2831 12.43 11.3066 12.4535C11.3301 12.477 11.3536 12.5005 11.3536 12.5475ZM15.2556 11.1606C15.2556 10.9021 15.2086 10.6435 15.1381 10.4319C15.0676 10.1969 14.9501 10.0088 14.809 9.84427C14.668 9.67972 14.4799 9.56219 14.2449 9.46817C14.0098 9.37414 13.7512 9.32713 13.4692 9.32713C13.1871 9.32713 12.9285 9.37414 12.6934 9.46817C12.4584 9.56219 12.2703 9.67972 12.1058 9.84427C11.9412 10.0088 11.8237 10.1969 11.7532 10.4319C11.6592 10.667 11.6357 10.9256 11.6357 11.2076V11.7013C11.6357 12.0304 11.6827 12.3124 11.8002 12.5475C11.9177 12.7826 12.0588 12.9706 12.2233 13.1117C12.3879 13.2527 12.5994 13.3467 12.811 13.4172C13.0225 13.4878 13.2576 13.5113 13.4692 13.5113C13.7747 13.5113 14.0568 13.4878 14.2684 13.4642C14.4695 13.4441 14.6534 13.4068 14.8496 13.367L14.8496 13.367L14.9501 13.3467C15.0206 13.3232 15.0441 13.2997 15.0676 13.2762C15.0911 13.2527 15.0911 13.2057 15.0911 13.1587V12.618C15.0911 12.5475 15.0441 12.5005 14.9501 12.5005H14.9266C14.8958 12.5005 14.8605 12.505 14.8208 12.51C14.7695 12.5165 14.7107 12.524 14.6445 12.524C14.5857 12.524 14.5269 12.5299 14.4682 12.5357L14.4682 12.5357C14.4094 12.5416 14.3506 12.5475 14.2919 12.5475C14.1743 12.5475 14.0333 12.5475 13.8923 12.571H13.5162C13.3751 12.571 13.2576 12.5475 13.1636 12.5005C13.0695 12.4535 12.999 12.4065 12.9285 12.3359C12.8815 12.2654 12.8345 12.1949 12.811 12.1009C12.7875 12.0069 12.764 11.9128 12.764 11.8188V11.7248H15.0911C15.1851 11.7248 15.2556 11.6778 15.2556 11.5602V11.1606ZM12.7875 11.0196H14.1038V10.9961C14.1038 10.7375 14.0568 10.526 13.9393 10.4084C13.8453 10.2909 13.6807 10.2204 13.4692 10.2204C13.2576 10.2204 13.0931 10.2674 12.9755 10.4084C12.858 10.5495 12.7875 10.7375 12.7875 10.9961V11.0196Z" fill="#414142"/>
</svg>
