<svg width="24" height="24" viewBox="0 0 24 24" fill="none" xmlns="http://www.w3.org/2000/svg">
<g clip-path="url(#clip0_106_798)">
<circle cx="12" cy="12" r="12" fill="#2C9F1C"/>
<path d="M4.83521 11.9341C4.83521 14.0659 6.54949 15.7802 8.68136 15.7802H9.23081V14.3517H8.68136C7.3407 14.3517 6.26378 13.2747 6.26378 11.9341C6.26378 10.5934 7.3407 9.5165 8.68136 9.5165H10C10 9.5165 10 16.8572 10 16.989C10 17.7802 10.6374 18.4176 11.4286 18.4176V8.08792C11.4286 8.08792 9.95608 8.08792 8.68136 8.08792C6.54949 8.08792 4.83521 9.82419 4.83521 11.9341ZM15.2748 8.08792H14.7253V9.5165H15.2748C16.6154 9.5165 17.6923 10.5934 17.6923 11.9341C17.6923 13.2747 16.6154 14.3517 15.2748 14.3517H13.9561C13.9561 14.3517 13.9561 7.011 13.9561 6.87913C13.9561 6.08792 13.3187 5.45056 12.5275 5.45056V15.7802C12.5275 15.7802 14 15.7802 15.2748 15.7802C17.4066 15.7802 19.1209 14.0659 19.1209 11.9341C19.1209 9.82419 17.3847 8.08792 15.2748 8.08792Z" fill="white"/>
</g>
<defs>
<clipPath id="clip0_106_798">
<rect width="24" height="24" rx="12" fill="white"/>
</clipPath>
</defs>
</svg>
