<svg width="24" height="24" viewBox="0 0 24 24" fill="none" xmlns="http://www.w3.org/2000/svg">
<g clip-path="url(#clip0_40_93)">
<path fill-rule="evenodd" clip-rule="evenodd" d="M10.87 0H13.3597C13.9913 0 14.5081 0.509702 14.5081 1.1444V8.58454C14.5081 9.17221 14.9412 9.6719 15.5102 9.73956H22.6243C23.261 9.73956 23.7727 10.2493 23.7779 10.884V22.8553C23.7779 23.4851 23.2662 24 22.6294 24H13.3597H10.87H4.6378H2.14812C1.51652 24 1 23.4903 1 22.8553V1.1444C1 0.51486 1.51136 0 2.14812 0H4.6378C5.26941 0 5.78623 0.509702 5.78623 1.1444V8.66251C5.82297 9.21378 6.24566 9.6719 6.79376 9.73956H8.657C9.22058 9.68738 9.69064 9.22956 9.72161 8.66251V1.1444C9.72161 0.51486 10.2333 0 10.87 0ZM14.5604 17.9494C14.5604 18.5786 15.0717 19.0938 15.7085 19.0938H18.1982C18.8295 19.0938 19.3463 18.5841 19.3463 17.9494V15.6081C19.3463 14.9786 18.835 14.4637 18.1982 14.4637H15.7085C15.0769 14.4637 14.5604 14.9734 14.5604 15.6081V17.9494Z" fill="#FF6600"/>
</g>
<defs>
<clipPath id="clip0_40_93">
<rect width="24" height="24" fill="white"/>
</clipPath>
</defs>
</svg>
