<svg xmlns="http://www.w3.org/2000/svg" xmlns:xlink="http://www.w3.org/1999/xlink" width="40" zoomAndPan="magnify" viewBox="0 0 30 30.000001" height="40" preserveAspectRatio="xMidYMid meet" version="1.0"><defs><clipPath id="0d125e5286"><path d="M 10.359375 10.417969 L 19.796875 10.417969 L 19.796875 18.398438 L 10.359375 18.398438 Z M 10.359375 10.417969 " clip-rule="nonzero"/></clipPath></defs><path fill="#000000" d="M 5.738281 2.410156 C 4.375 2.84375 2.894531 4.414062 2.515625 5.835938 C 2.3125 6.589844 2.226562 9.871094 2.285156 15.183594 C 2.371094 23.253906 2.371094 23.398438 3.066406 24.503906 C 3.53125 25.257812 4.230469 25.839844 5.246094 26.304688 C 6.695312 26.972656 6.898438 27 14.972656 27 C 24 27 24.929688 26.882812 26.46875 25.402344 C 27.628906 24.328125 28.179688 22.585938 28.179688 19.886719 L 28.210938 17.855469 L 22.140625 17.855469 L 20.863281 19.972656 L 19.585938 22.066406 L 15.085938 22.007812 L 10.585938 21.917969 L 8.4375 18.203125 L 6.261719 14.515625 L 8.4375 10.800781 L 10.585938 7.113281 L 15.085938 7.027344 L 19.585938 6.96875 L 20.863281 9.058594 L 22.140625 11.175781 L 28.210938 11.175781 L 28.296875 9.523438 C 28.472656 5.980469 26.933594 3.136719 24.378906 2.378906 C 22.867188 1.917969 7.160156 1.945312 5.738281 2.410156 Z M 5.738281 2.410156 " fill-opacity="1" fill-rule="nonzero"/><path fill="#000000" d="M 11.574219 12.484375 L 10.414062 14.515625 L 11.574219 16.546875 L 12.765625 18.582031 L 17.527344 18.582031 L 18.714844 16.546875 L 19.878906 14.515625 L 18.714844 12.484375 L 17.527344 10.453125 L 12.765625 10.453125 Z M 11.574219 12.484375 " fill-opacity="1" fill-rule="nonzero"/><g clip-path="url(#0d125e5286)"><path fill="#033d58" d="M 12.71875 18.394531 L 10.359375 14.40625 L 12.71875 10.417969 L 17.4375 10.417969 L 19.796875 14.40625 L 17.4375 18.394531 Z M 12.71875 18.394531 " fill-opacity="1" fill-rule="nonzero"/></g></svg>