<svg width="24" height="24" viewBox="0 0 24 24" fill="none" xmlns="http://www.w3.org/2000/svg">
<path d="M0 17.8774H12.1174L24 6H0V17.8774Z" fill="#014185"/>
<path fill-rule="evenodd" clip-rule="evenodd" d="M14.2309 8.23235L11.8826 8.23188V13.85L9.81604 8.23188H7.79647L6.01174 12.9304C5.82387 11.7469 4.60274 11.3378 3.61644 11.0316C3.00587 10.8258 2.30137 10.5234 2.34833 10.1927C2.34833 9.91845 2.6771 9.66671 3.3816 9.70428C3.85127 9.72824 4.27397 9.76722 5.11937 10.1702L5.96477 8.73912C5.16634 8.35211 4.13307 8.10742 3.28767 8.10648C2.2544 8.10648 1.409 8.43149 0.892367 8.97019C0.5636 9.34499 0.328766 9.82076 0.328766 10.3482C0.328766 11.0738 0.610566 11.5886 1.1272 11.9986C1.64383 12.3438 2.20743 12.5688 2.77104 12.7336C3.42857 12.937 3.9452 13.1131 3.9452 13.4907C3.9452 13.6302 3.89824 13.757 3.8043 13.859C3.61644 14.0276 3.3816 14.0914 3.00587 14.0994C2.34833 14.1116 1.87867 14.0069 1.08023 13.5405L0.328766 14.9894C1.1272 15.4385 2.06653 15.7024 3.00587 15.7024L3.14677 15.7015C3.9452 15.6864 4.6497 15.4493 5.16634 15.0181C5.21331 14.9927 5.21331 14.9693 5.26027 14.9458L5.02544 15.5765H7.18591L7.51467 14.4831C7.89041 14.609 8.31311 14.6823 8.78278 14.6823C9.25244 14.6823 9.62818 14.6114 10.0039 14.4921L10.3796 15.5765H13.8552V13.3085H14.6536C16.4853 13.3085 17.5656 12.3687 17.5656 10.7925C17.5656 9.03783 16.5323 8.23235 14.2309 8.23235ZM8.78278 13.0422C8.50098 13.0422 8.26614 12.9934 8.03131 12.9079L8.78278 10.5445L9.53424 12.9154C9.29941 12.9962 9.06458 13.0422 8.78278 13.0422ZM14.3718 11.683H13.8552V9.77755H14.3718C15.0763 9.77755 15.6399 10.0082 15.6399 10.7206C15.6399 11.4533 15.0763 11.683 14.3718 11.683Z" fill="white"/>
</svg>
