<svg width="24" height="24" viewBox="0 0 24 24" fill="none" xmlns="http://www.w3.org/2000/svg">
<path fill-rule="evenodd" clip-rule="evenodd" d="M0 15.4411V9.12951H1.62108V9.63735C2.11974 9.22333 2.74809 8.99752 3.39624 9.00039C4.2369 8.9981 5.03511 9.36994 5.57681 10.0152C5.98767 10.5104 6.2261 11.1471 6.2261 12.2279V15.4414H4.54132V12.0962C4.54132 11.4799 4.39787 11.1471 4.16833 10.913C3.91135 10.6755 3.5709 10.5493 3.22122 10.5618C2.92425 10.5708 2.63297 10.6455 2.3683 10.7805C2.10363 10.9154 1.87216 11.1074 1.69052 11.3425V15.4512L0 15.4411Z" fill="#293E40"/>
<path fill-rule="evenodd" clip-rule="evenodd" d="M10.5623 9C9.82481 9.00177 9.10471 9.22398 8.49448 9.63808C7.88425 10.0522 7.41176 10.6393 7.13769 11.3239C6.86362 12.0086 6.80049 12.7595 6.95641 13.4803C7.11234 14.2011 7.4802 14.8588 8.01273 15.369C8.27297 15.6172 8.67264 15.6387 8.95956 15.4183C9.41447 15.0808 9.96587 14.8986 10.5323 14.8986C11.0987 14.8986 11.6501 15.0808 12.105 15.4183C12.2439 15.5284 12.4181 15.5841 12.5951 15.575C12.772 15.5659 12.9396 15.4927 13.0665 15.369C13.5964 14.8615 13.9634 14.2079 14.1207 13.4912C14.2781 12.7746 14.2188 12.0274 13.9503 11.3445C13.6818 10.6617 13.2162 10.0742 12.6129 9.65671C12.0095 9.23922 11.2956 9.01062 10.562 9M10.5413 14.5326C10.0484 14.5487 9.57069 14.3605 9.22065 14.0133C8.87061 13.6661 8.67953 13.1893 8.69215 12.6964C8.68127 12.3669 8.75915 12.0405 8.91764 11.7515C9.07613 11.4624 9.30941 11.2212 9.59305 11.0532C9.87669 10.8852 10.2003 10.7966 10.5299 10.7965C10.8596 10.7965 11.1832 10.885 11.4669 11.0529C11.7506 11.221 11.9838 11.4622 12.1423 11.7513C12.3007 12.0404 12.3785 12.3668 12.3676 12.6964C12.3808 13.187 12.1914 13.6621 11.8442 14.0096C11.4971 14.357 11.0219 14.5461 10.531 14.5329" fill="#81B5A1"/>
<path fill-rule="evenodd" clip-rule="evenodd" d="M18.8971 11.8476L17.5486 15.441H16.2934L13.7886 9.12967H15.4734L16.8437 12.7374L18.1922 9.12967H19.5995L20.9328 12.7374L22.3175 9.12967H24L21.498 15.4413H20.2428L18.8971 11.8476Z" fill="#293E40"/>
</svg>
