<svg width="24" height="24" viewBox="0 0 24 24" fill="none" xmlns="http://www.w3.org/2000/svg">
<path d="M19.4867 4.66506C19.4675 4.5494 19.3711 4.47229 19.2747 4.47229C19.1783 4.47229 17.347 4.33735 17.347 4.33735C17.347 4.33735 16.0747 3.06506 15.9205 2.93012C15.7855 2.79518 15.4964 2.83374 15.4 2.87229C15.3807 2.87229 15.1108 2.9494 14.6867 3.08434C14.2626 1.8506 13.5108 0.713253 12.1807 0.713253C12.1422 0.713253 12.1036 0.713253 12.0651 0.713253C11.6795 0.212048 11.2169 0 10.812 0C7.70843 0 6.2241 3.8747 5.76145 5.84096C4.56626 6.20723 3.69879 6.47711 3.60241 6.51566C2.92771 6.72771 2.90843 6.74699 2.83133 7.38313C2.75422 7.84578 1 21.4361 1 21.4361L14.6867 24L22.1084 22.4C22.1084 22.4 19.506 4.8 19.4867 4.66506ZM13.9157 3.31566C13.5687 3.43133 13.1831 3.54699 12.759 3.68193C12.759 3.60482 12.759 3.52771 12.759 3.43133C12.759 2.66024 12.6434 2.04337 12.4892 1.56145C13.1831 1.63855 13.6265 2.40964 13.9157 3.31566ZM11.641 1.69639C11.8337 2.17831 11.9494 2.85301 11.9494 3.77831C11.9494 3.81687 11.9494 3.8747 11.9494 3.91325C11.1976 4.14458 10.3687 4.39518 9.55903 4.64578C10.0217 2.89157 10.8892 2.0241 11.641 1.69639ZM10.7157 0.828916C10.8506 0.828916 10.9855 0.86747 11.1205 0.963855C10.1373 1.42651 9.05783 2.60241 8.61446 4.95422C7.95904 5.16627 7.32289 5.35904 6.7253 5.53253C7.24578 3.73976 8.49879 0.828916 10.7157 0.828916Z" fill="#95BF47"/>
<path d="M19.2747 4.47229C19.1783 4.47229 17.3469 4.33735 17.3469 4.33735C17.3469 4.33735 16.0747 3.06507 15.9204 2.93013C15.8626 2.87229 15.8048 2.85302 15.7277 2.83374L14.6867 24L22.1084 22.4C22.1084 22.4 19.506 4.80001 19.4867 4.68434C19.4674 4.5494 19.3518 4.49157 19.2747 4.47229Z" fill="#5E8E3E"/>
<path d="M12.1616 8.57835L11.2556 11.2964C11.2556 11.2964 10.4459 10.8723 9.48206 10.8723C8.03628 10.8723 7.97845 11.7783 7.97845 12.0097C7.97845 13.2434 11.217 13.7253 11.217 16.6362C11.217 18.9302 9.77122 20.3952 7.80495 20.3952C5.45315 20.3952 4.25797 18.9302 4.25797 18.9302L4.89411 16.8482C4.89411 16.8482 6.12784 17.9085 7.16881 17.9085C7.84351 17.9085 8.13266 17.3687 8.13266 16.9832C8.13266 15.3639 5.47242 15.2868 5.47242 12.6265C5.47242 10.3904 7.07242 8.21208 10.3303 8.21208C11.5447 8.21208 12.1616 8.57835 12.1616 8.57835Z" fill="white"/>
</svg>
