<svg width="24" height="24" viewBox="0 0 24 24" fill="none" xmlns="http://www.w3.org/2000/svg">
<g clip-path="url(#clip0_48_96)">
<path fill-rule="evenodd" clip-rule="evenodd" d="M5.04235 15.1661C5.04235 16.5538 3.90879 17.6873 2.52117 17.6873C1.13355 17.6873 0 16.5538 0 15.1661C0 13.7785 1.13355 12.645 2.52117 12.645H5.04235V15.1661Z" fill="#E01E5A"/>
<path fill-rule="evenodd" clip-rule="evenodd" d="M6.31268 15.1661C6.31268 13.7785 7.44623 12.645 8.83386 12.645C10.2215 12.645 11.355 13.7785 11.355 15.1661V21.4788C11.355 22.8665 10.2215 24 8.83386 24C7.44623 24 6.31268 22.8665 6.31268 21.4788V15.1661Z" fill="#E01E5A"/>
<path fill-rule="evenodd" clip-rule="evenodd" d="M8.83386 5.04235C7.44623 5.04235 6.31268 3.90879 6.31268 2.52117C6.31268 1.13355 7.44623 0 8.83386 0C10.2215 0 11.355 1.13355 11.355 2.52117V5.04235H8.83386Z" fill="#36C5F0"/>
<path fill-rule="evenodd" clip-rule="evenodd" d="M8.83388 6.3127C10.2215 6.3127 11.355 7.44625 11.355 8.83387C11.355 10.2215 10.2215 11.355 8.83388 11.355H2.52117C1.13355 11.355 0 10.2215 0 8.83387C0 7.44625 1.13355 6.3127 2.52117 6.3127H8.83388Z" fill="#36C5F0"/>
<path fill-rule="evenodd" clip-rule="evenodd" d="M18.9576 8.83387C18.9576 7.44625 20.0912 6.3127 21.4788 6.3127C22.8664 6.3127 24 7.44625 24 8.83387C24 10.2215 22.8664 11.355 21.4788 11.355H18.9576V8.83387Z" fill="#2EB67D"/>
<path fill-rule="evenodd" clip-rule="evenodd" d="M17.6872 8.83388C17.6872 10.2215 16.5537 11.355 15.1661 11.355C13.7784 11.355 12.6449 10.2215 12.6449 8.83388V2.52117C12.6449 1.13355 13.7784 0 15.1661 0C16.5537 0 17.6872 1.13355 17.6872 2.52117V8.83388Z" fill="#2EB67D"/>
<path fill-rule="evenodd" clip-rule="evenodd" d="M15.1661 18.9577C16.5537 18.9577 17.6872 20.0912 17.6872 21.4788C17.6872 22.8665 16.5537 24 15.1661 24C13.7784 24 12.6449 22.8665 12.6449 21.4788V18.9577H15.1661Z" fill="#ECB22E"/>
<path fill-rule="evenodd" clip-rule="evenodd" d="M15.1661 17.6873C13.7784 17.6873 12.6449 16.5538 12.6449 15.1661C12.6449 13.7785 13.7784 12.645 15.1661 12.645H21.4788C22.8664 12.645 23.9999 13.7785 23.9999 15.1661C23.9999 16.5538 22.8664 17.6873 21.4788 17.6873H15.1661Z" fill="#ECB22E"/>
</g>
<defs>
<clipPath id="clip0_48_96">
<rect width="24" height="24" fill="white"/>
</clipPath>
</defs>
</svg>
