<svg width="24" height="24" viewBox="0 0 24 24" fill="none" xmlns="http://www.w3.org/2000/svg">
<g clip-path="url(#clip0_48_73)">
<path d="M5.26259 22.114C2.17487 20.8795 0.505165 20.1221 0.292507 19.8595C-0.00924036 19.4868 -0.0251281 19.0597 0.0173872 12.4625C0.0560749 6.45929 0.0994682 5.43795 0.321717 5.29953C0.659266 5.08932 10.2558 8.86227 10.8216 9.42762L11.2124 9.81811L11.1672 16.8658L11.1221 23.9136L10.5172 23.9434C10.1017 23.9638 8.4575 23.3914 5.26259 22.114Z" fill="#343433"/>
<path d="M12.3605 23.8848C12.2971 23.8214 12.2453 20.6505 12.2453 16.8382C12.2453 10.9714 12.2849 9.85026 12.5032 9.53851C12.8175 9.08976 22.2397 5.2844 22.8293 5.36812L23.2184 5.42339L23.2635 12.4437C23.3052 18.9336 23.2857 19.4913 23.0043 19.8252C22.7006 20.1856 13.3458 24 12.7655 24C12.6061 24 12.4238 23.9481 12.3605 23.8848Z" fill="#CDCCCB"/>
<path d="M6.02426 6.46683C2.10289 4.90717 1.0993 4.44414 1.0993 4.19456C1.0993 3.71384 10.4278 0.00181515 11.6404 6.92396e-07C12.8762 -0.00184833 22.1816 3.70019 22.1816 4.19365C22.1816 4.45904 21.2721 4.88068 17.2566 6.47681C13.8137 7.84538 12.1237 8.43315 11.6404 8.43006C11.1718 8.42707 9.36302 7.79477 6.02426 6.46683Z" fill="#E61718"/>
</g>
<defs>
<clipPath id="clip0_48_73">
<rect width="24" height="24" fill="white"/>
</clipPath>
</defs>
</svg>
