<svg width="24" height="24" viewBox="0 0 24 24" fill="none" xmlns="http://www.w3.org/2000/svg">
<g clip-path="url(#clip0_104_518)">
<path d="M7.56692 19.1338C3.36274 19.1338 0 15.7711 0 11.5669C0 7.36274 3.36274 4 7.56692 4H16.4331C20.6373 4 24 7.36274 24 11.5669C24 15.7711 20.6373 19.1338 16.4331 19.1338H7.56692ZM16.2038 16.4589C18.9551 16.4589 21.0958 14.2426 21.0958 11.5669C21.0958 8.81559 18.8795 6.67491 16.2038 6.67491H7.7962C5.04487 6.67491 2.90418 8.89126 2.90418 11.5669C2.90418 14.2426 5.12053 16.4589 7.7962 16.4589H16.2038Z" fill="#C74634"/>
</g>
<defs>
<clipPath id="clip0_104_518">
<rect width="24" height="15.1338" fill="white" transform="translate(0 4)"/>
</clipPath>
</defs>
</svg>
