<svg
   width="87.512741mm"
   height="87.512756mm"
   viewBox="0 0 87.512741 87.512756"
   version="1.1"
   id="svg1"
   xmlns="http://www.w3.org/2000/svg"
   xmlns:svg="http://www.w3.org/2000/svg">
  <defs
     id="defs1" />
  <path
     id="path12"
     d="M 87.403748,46.81717 C 85.713354,70.922884 64.8014,89.094144 40.695576,87.403751 16.589863,85.713358 -1.5813975,64.801403 0.1089958,40.69558 1.7994989,16.589866 22.711344,-1.5813941 46.817167,0.10899916 70.92288,1.7995023 89.094141,22.711347 87.403748,46.81717"
     style="fill:#1e3b51;fill-opacity:1;fill-rule:nonzero;stroke:none;stroke-width:0.109887"
     clip-path="none" />
  <path
     id="path14"
     d="m 58.124748,45.339576 c 1.397764,-3.560232 2.728826,-7.417928 3.998461,-11.540453 0.171314,-0.556248 0.345486,-1.100629 0.514492,-1.667207 h -2.2e-4 -6.96904 -3.29e-4 c -0.07615,0.296256 -0.16582,0.617236 -0.248785,0.925909 -0.198236,0.736463 -0.413725,1.505014 -0.649652,2.312134 -0.0578,0.197687 -0.108679,0.382298 -0.168787,0.58427 -0.04538,0.152523 -0.09549,0.309552 -0.141315,0.462405 -0.365594,1.222714 -0.7391,2.45257 -1.130298,3.697591 -0.437901,1.402709 -0.88602,2.767067 -1.338096,4.095163 -0.218016,0.636136 -0.42801,1.241504 -0.63196,1.822367 -0.276366,0.77877 -0.546029,1.52842 -0.639543,1.786764 v -5.328645 c 0,-1.628746 -0.1656,-3.106069 -0.49647,-4.432076 -0.333068,-1.326008 -0.890196,-2.47246 -1.675229,-3.437159 -0.783056,-0.964699 -1.846653,-1.711491 -3.186836,-2.240268 -1.342271,-0.526799 -3.023543,-0.791187 -5.043708,-0.791187 -1.990055,0 -3.891322,0.143293 -5.699734,0.429878 -1.808192,0.286586 -3.287712,0.595368 -4.432076,0.926458 v 22.978052 h 6.739046 V 37.55924 c 0.421966,-0.06055 0.904151,-0.112964 1.447103,-0.157358 0.542952,-0.04648 1.055466,-0.06868 1.53798,-0.06868 1.568089,0 2.63784,0.452076 3.211121,1.358315 0.573061,0.904151 0.859757,2.442131 0.859757,4.611741 v 12.620314 h 6.739046 v 0 h 2.709376 c 0,-1.1e-4 1.1e-4,-1.1e-4 1.1e-4,-1.1e-4 h 9.89e-4 c 0.912173,-1.783687 1.833137,-3.769127 2.761243,-5.911596 0.307244,-0.709102 0.614818,-1.427653 0.923711,-2.176094 0.335595,-0.812945 0.67174,-1.636879 1.009643,-2.496196"
     style="fill:#01c38e;fill-opacity:1;fill-rule:nonzero;stroke:none;stroke-width:0.109887"
     clip-path="none" />
</svg>