<svg width="1200" height="1216" viewBox="0 0 1200 1216" fill="none" xmlns="http://www.w3.org/2000/svg">
<path d="M1017.27 163.233C1007.57 163.233 1000.12 160.519 994.907 155.091C989.769 149.59 987.199 142.027 987.199 132.402V70.1968H975.801C974.353 70.1968 973.123 69.7264 972.11 68.7855C971.096 67.8447 970.59 66.4334 970.59 64.5517V53.9128L988.502 50.9817L994.147 20.5849C994.509 19.1374 995.197 18.0157 996.21 17.2195C997.223 16.4234 998.526 16.0254 1000.12 16.0254H1014.01V51.0903H1043.76V70.1968H1014.01V130.556C1014.01 134.03 1014.85 136.744 1016.51 138.698C1018.25 140.652 1020.6 141.629 1023.57 141.629C1025.23 141.629 1026.61 141.448 1027.69 141.086C1028.85 140.652 1029.83 140.218 1030.62 139.784C1031.49 139.349 1032.25 138.951 1032.9 138.59C1033.55 138.155 1034.21 137.938 1034.86 137.938C1035.65 137.938 1036.3 138.155 1036.81 138.59C1037.32 138.951 1037.86 139.53 1038.44 140.327L1046.47 153.354C1042.56 156.611 1038.08 159.071 1033.01 160.736C1027.95 162.4 1022.7 163.233 1017.27 163.233Z" fill="#0084D7"/>
<path d="M884.148 63.7905C886.391 61.5469 888.743 59.4843 891.204 57.6026C893.737 55.6485 896.379 54.0201 899.129 52.7174C901.951 51.3423 904.955 50.2929 908.139 49.5692C911.324 48.7731 914.798 48.375 918.561 48.375C924.64 48.375 930.032 49.4244 934.737 51.5232C939.441 53.5497 943.349 56.4446 946.461 60.208C949.645 63.8991 952.034 68.35 953.626 73.5609C955.291 78.6994 956.123 84.3807 956.123 90.6048V161.494H929.309V90.6048C929.309 83.8017 927.752 78.5547 924.64 74.8636C921.528 71.1002 916.788 69.2185 910.419 69.2185C905.787 69.2185 901.445 70.2679 897.392 72.3667C893.339 74.4656 889.503 77.3243 885.885 80.943V161.494H859.07V50.112H875.463C878.937 50.112 881.216 51.7404 882.302 54.9972L884.148 63.7905Z" fill="#0084D7"/>
<path d="M831.743 50.1119V161.494H804.82V50.1119H831.743ZM835.434 17.6525C835.434 19.9684 834.963 22.1396 834.023 24.1661C833.082 26.1925 831.815 27.9657 830.223 29.4855C828.703 31.0053 826.894 32.2357 824.795 33.1765C822.696 34.045 820.453 34.4793 818.064 34.4793C815.748 34.4793 813.541 34.045 811.442 33.1765C809.416 32.2357 807.643 31.0053 806.123 29.4855C804.603 27.9657 803.372 26.1925 802.432 24.1661C801.563 22.1396 801.129 19.9684 801.129 17.6525C801.129 15.2641 801.563 13.0206 802.432 10.9217C803.372 8.82293 804.603 7.0136 806.123 5.49376C807.643 3.97391 809.416 2.77976 811.442 1.91128C813.541 0.970425 815.748 0.5 818.064 0.5C820.453 0.5 822.696 0.970425 824.795 1.91128C826.894 2.77976 828.703 3.97391 830.223 5.49376C831.815 7.0136 833.082 8.82293 834.023 10.9217C834.963 13.0206 835.434 15.2641 835.434 17.6525Z" fill="#0084D7"/>
<path d="M728.554 48.375C736.804 48.375 744.295 49.7139 751.026 52.3917C757.829 55.0695 763.619 58.8691 768.395 63.7905C773.244 68.7119 776.971 74.7189 779.577 81.8115C782.182 88.9041 783.485 96.8289 783.485 105.586C783.485 114.416 782.182 122.377 779.577 129.469C776.971 136.562 773.244 142.605 768.395 147.599C763.619 152.593 757.829 156.428 751.026 159.106C744.295 161.784 736.804 163.123 728.554 163.123C720.231 163.123 712.668 161.784 705.865 159.106C699.062 156.428 693.236 152.593 688.387 147.599C683.61 142.605 679.883 136.562 677.205 129.469C674.6 122.377 673.297 114.416 673.297 105.586C673.297 96.8289 674.6 88.9041 677.205 81.8115C679.883 74.7189 683.61 68.7119 688.387 63.7905C693.236 58.8691 699.062 55.0695 705.865 52.3917C712.668 49.7139 720.231 48.375 728.554 48.375ZM728.554 142.496C737.818 142.496 744.657 139.384 749.072 133.16C753.559 126.936 755.802 117.817 755.802 105.803C755.802 93.7892 753.559 84.634 749.072 78.3375C744.657 72.0411 737.818 68.8928 728.554 68.8928C719.145 68.8928 712.161 72.0773 707.602 78.4461C703.115 84.7426 700.871 93.8616 700.871 105.803C700.871 117.745 703.115 126.864 707.602 133.16C712.161 139.384 719.145 142.496 728.554 142.496Z" fill="#0084D7"/>
<path d="M582.678 132.617C585.717 136.308 589.01 138.914 592.557 140.433C596.175 141.953 600.083 142.713 604.281 142.713C608.334 142.713 611.989 141.953 615.246 140.433C618.502 138.914 621.252 136.598 623.496 133.486C625.812 130.373 627.585 126.465 628.815 121.761C630.046 116.984 630.661 111.375 630.661 104.934C630.661 98.4207 630.118 92.9203 629.033 88.4331C628.019 83.8736 626.536 80.1826 624.582 77.36C622.628 74.5375 620.239 72.4748 617.417 71.1721C614.667 69.8694 611.518 69.218 607.972 69.218C602.399 69.218 597.659 70.4122 593.751 72.8005C589.843 75.1164 586.151 78.4094 582.678 82.6795V132.617ZM581.266 65.3099C585.826 60.1714 591 56.0099 596.79 52.8255C602.58 49.641 609.383 48.0488 617.2 48.0488C623.279 48.0488 628.815 49.3154 633.809 51.8484C638.875 54.3815 643.218 58.0725 646.836 62.9215C650.527 67.6982 653.35 73.6328 655.304 80.7254C657.331 87.7456 658.344 95.8152 658.344 104.934C658.344 113.257 657.222 120.965 654.978 128.058C652.735 135.15 649.514 141.302 645.317 146.513C641.191 151.724 636.161 155.813 630.227 158.78C624.365 161.675 617.779 163.122 610.469 163.122C604.245 163.122 598.925 162.182 594.511 160.3C590.096 158.346 586.151 155.668 582.678 152.266V197.862H555.863V50.1115H572.256C575.73 50.1115 578.009 51.7399 579.095 54.9967L581.266 65.3099Z" fill="#0084D7"/>
<path d="M522.984 96.5755C522.984 90.7856 522.151 85.6109 520.487 81.0514C518.895 76.4195 516.615 72.5114 513.648 69.327C510.68 66.1425 507.134 63.718 503.009 62.0534C498.956 60.3165 494.469 59.448 489.547 59.448C483.975 59.448 478.981 60.3165 474.566 62.0534C470.151 63.7904 466.315 66.2873 463.059 69.5441C459.874 72.8009 457.305 76.709 455.351 81.2685C453.397 85.8281 452.094 90.9304 451.443 96.5755H522.984ZM450.9 103.198V105.26C450.9 113.366 451.841 120.495 453.722 126.647C455.604 132.798 458.282 137.973 461.756 142.171C465.23 146.296 469.427 149.408 474.349 151.507C479.27 153.606 484.771 154.655 490.85 154.655C496.278 154.655 500.982 154.076 504.963 152.918C508.943 151.688 512.272 150.349 514.95 148.901C517.7 147.382 519.872 146.043 521.464 144.885C523.056 143.654 524.214 143.039 524.938 143.039C525.879 143.039 526.602 143.401 527.109 144.125L529.932 147.599C528.195 149.77 525.879 151.796 522.984 153.678C520.161 155.56 516.977 157.188 513.43 158.563C509.956 159.866 506.193 160.915 502.14 161.711C498.16 162.508 494.143 162.906 490.09 162.906C482.708 162.906 475.977 161.639 469.898 159.106C463.819 156.501 458.608 152.737 454.265 147.816C449.923 142.894 446.558 136.887 444.169 129.795C441.853 122.63 440.695 114.452 440.695 105.26C440.695 97.5164 441.781 90.3876 443.952 83.874C446.196 77.288 449.38 71.6429 453.505 66.9386C457.703 62.162 462.805 58.4348 468.812 55.757C474.892 53.0791 481.767 51.7402 489.439 51.7402C495.518 51.7402 501.163 52.7896 506.374 54.8885C511.585 56.9873 516.108 60.0632 519.944 64.1161C523.78 68.0966 526.783 73.018 528.954 78.8802C531.198 84.7425 532.32 91.4732 532.32 99.0724C532.32 100.665 532.103 101.75 531.668 102.329C531.234 102.908 530.511 103.198 529.497 103.198H450.9Z" fill="#0084D7"/>
<path d="M337.711 72.3666C342.705 66.1425 348.458 61.1488 354.972 57.3854C361.558 53.6219 368.868 51.7402 376.901 51.7402C382.836 51.7402 388.047 52.6811 392.534 54.5628C397.093 56.4445 400.857 59.1585 403.824 62.7048C406.791 66.2511 409.035 70.5211 410.555 75.5149C412.074 80.5086 412.834 86.1537 412.834 92.4502V161.494H402.413V92.4502C402.413 82.3179 400.097 74.3931 395.465 68.6756C390.833 62.8857 383.777 59.9908 374.296 59.9908C367.275 59.9908 360.689 61.8001 354.538 65.4188C348.458 68.9651 343.03 73.9226 338.254 80.2915V161.494H327.832V53.4772H333.586C335.395 53.4772 336.444 54.3819 336.734 56.1912L337.711 72.3666Z" fill="#0084D7"/>
<path d="M299.975 84.6334C299.975 96.5026 298.201 107.286 294.655 116.984C291.109 126.61 286.115 134.86 279.674 141.736C273.233 148.539 265.489 153.822 256.442 157.586C247.468 161.277 237.553 163.122 226.697 163.122C215.841 163.122 205.926 161.277 196.951 157.586C187.977 153.822 180.269 148.539 173.828 141.736C167.387 134.86 162.393 126.61 158.847 116.984C155.3 107.286 153.527 96.5026 153.527 84.6334C153.527 72.8365 155.3 62.1253 158.847 52.4996C162.393 42.8016 167.387 34.551 173.828 27.748C180.269 20.8725 187.977 15.5531 196.951 11.7897C205.926 8.02624 215.841 6.14453 226.697 6.14453C237.553 6.14453 247.468 8.02624 256.442 11.7897C265.489 15.4807 273.233 20.7639 279.674 27.6394C286.115 34.5149 291.109 42.8016 294.655 52.4996C298.201 62.1253 299.975 72.8365 299.975 84.6334ZM288.467 84.6334C288.467 73.9221 286.984 64.2965 284.016 55.7564C281.049 47.2164 276.851 39.979 271.423 34.0444C265.995 28.1098 259.482 23.5865 251.883 20.4744C244.283 17.29 235.888 15.6978 226.697 15.6978C217.578 15.6978 209.219 17.29 201.619 20.4744C194.02 23.5865 187.47 28.1098 181.97 34.0444C176.542 39.979 172.308 47.2164 169.269 55.7564C166.301 64.2965 164.818 73.9221 164.818 84.6334C164.818 95.417 166.301 105.079 169.269 113.619C172.308 122.087 176.542 129.288 181.97 135.222C187.47 141.157 194.02 145.68 201.619 148.792C209.219 151.904 217.578 153.46 226.697 153.46C235.888 153.46 244.283 151.904 251.883 148.792C259.482 145.68 265.995 141.157 271.423 135.222C276.851 129.288 281.049 122.087 284.016 113.619C286.984 105.079 288.467 95.417 288.467 84.6334Z" fill="#0084D7"/>
<path d="M983.429 1192.66L983.475 1192.7L983.522 1192.75C1005.11 1213.59 1039.5 1213 1060.35 1191.41C1080.68 1170.36 1080.68 1136.97 1060.35 1115.92L1060.3 1115.87L1060.26 1115.83L815.836 871.407C941.304 704.134 909.9 466.503 744.129 337.726C576.612 207.592 335.32 237.896 205.185 405.414C75.0513 572.932 105.355 814.226 272.873 944.36C340.314 996.752 423.293 1025.17 508.695 1025.13C591.83 1025.13 672.648 998.112 739.013 948.24L983.429 1192.66ZM313.866 446.285L313.871 446.279L313.877 446.274C421.471 338.678 595.915 338.676 703.511 446.27C811.107 553.864 811.109 728.308 703.515 835.904C595.921 943.5 421.477 943.502 313.881 835.908L313.877 835.904L313.867 835.894L313.857 835.885C206.275 729.086 205.64 555.298 312.436 447.714C312.912 447.237 313.388 446.761 313.866 446.285Z" fill="#0084D7" stroke="#0084D7" stroke-width="15"/>
</svg>
