<svg width="1200" height="1215" viewBox="0 0 1200 1215" fill="none" xmlns="http://www.w3.org/2000/svg">
<path d="M1017.27 162.733C1007.57 162.733 1000.12 160.019 994.907 154.591C989.769 149.09 987.199 141.527 987.199 131.902V69.6968H975.801C974.353 69.6968 973.123 69.2264 972.11 68.2855C971.096 67.3447 970.59 65.9334 970.59 64.0517V53.4128L988.502 50.4817L994.147 20.0849C994.509 18.6374 995.197 17.5157 996.21 16.7195C997.223 15.9234 998.526 15.5254 1000.12 15.5254H1014.01V50.5903H1043.76V69.6968H1014.01V130.056C1014.01 133.53 1014.85 136.244 1016.51 138.198C1018.25 140.152 1020.6 141.129 1023.57 141.129C1025.23 141.129 1026.61 140.948 1027.69 140.586C1028.85 140.152 1029.83 139.718 1030.62 139.284C1031.49 138.849 1032.25 138.451 1032.9 138.09C1033.55 137.655 1034.21 137.438 1034.86 137.438C1035.65 137.438 1036.3 137.655 1036.81 138.09C1037.32 138.451 1037.86 139.03 1038.44 139.827L1046.47 152.854C1042.56 156.111 1038.08 158.571 1033.01 160.236C1027.95 161.9 1022.7 162.733 1017.27 162.733Z" fill="#0084D7"/>
<path d="M884.148 63.2905C886.391 61.0469 888.743 58.9843 891.204 57.1026C893.737 55.1485 896.379 53.5201 899.129 52.2174C901.951 50.8423 904.955 49.7929 908.139 49.0692C911.324 48.2731 914.798 47.875 918.561 47.875C924.64 47.875 930.032 48.9244 934.737 51.0232C939.441 53.0497 943.349 55.9446 946.461 59.708C949.645 63.3991 952.034 67.85 953.626 73.0609C955.291 78.1994 956.123 83.8807 956.123 90.1048V160.994H929.309V90.1048C929.309 83.3017 927.752 78.0547 924.64 74.3636C921.528 70.6002 916.788 68.7185 910.419 68.7185C905.787 68.7185 901.445 69.7679 897.392 71.8667C893.339 73.9656 889.503 76.8243 885.885 80.443V160.994H859.07V49.612H875.463C878.937 49.612 881.216 51.2404 882.302 54.4972L884.148 63.2905Z" fill="#0084D7"/>
<path d="M831.743 49.6119V160.994H804.82V49.6119H831.743ZM835.434 17.1525C835.434 19.4684 834.963 21.6396 834.023 23.6661C833.082 25.6925 831.815 27.4657 830.223 28.9855C828.703 30.5053 826.894 31.7357 824.795 32.6765C822.696 33.545 820.453 33.9793 818.064 33.9793C815.748 33.9793 813.541 33.545 811.442 32.6765C809.416 31.7357 807.643 30.5053 806.123 28.9855C804.603 27.4657 803.372 25.6925 802.432 23.6661C801.563 21.6396 801.129 19.4684 801.129 17.1525C801.129 14.7641 801.563 12.5206 802.432 10.4217C803.372 8.32293 804.603 6.5136 806.123 4.99376C807.643 3.47391 809.416 2.27976 811.442 1.41128C813.541 0.470425 815.748 0 818.064 0C820.453 0 822.696 0.470425 824.795 1.41128C826.894 2.27976 828.703 3.47391 830.223 4.99376C831.815 6.5136 833.082 8.32293 834.023 10.4217C834.963 12.5206 835.434 14.7641 835.434 17.1525Z" fill="#0084D7"/>
<path d="M728.554 47.875C736.804 47.875 744.295 49.2139 751.026 51.8917C757.829 54.5695 763.619 58.3691 768.395 63.2905C773.244 68.2119 776.971 74.2189 779.577 81.3115C782.182 88.4041 783.485 96.3289 783.485 105.086C783.485 113.916 782.182 121.877 779.577 128.969C776.971 136.062 773.244 142.105 768.395 147.099C763.619 152.093 757.829 155.928 751.026 158.606C744.295 161.284 736.804 162.623 728.554 162.623C720.231 162.623 712.668 161.284 705.865 158.606C699.062 155.928 693.236 152.093 688.387 147.099C683.61 142.105 679.883 136.062 677.205 128.969C674.6 121.877 673.297 113.916 673.297 105.086C673.297 96.3289 674.6 88.4041 677.205 81.3115C679.883 74.2189 683.61 68.2119 688.387 63.2905C693.236 58.3691 699.062 54.5695 705.865 51.8917C712.668 49.2139 720.231 47.875 728.554 47.875ZM728.554 141.996C737.818 141.996 744.657 138.884 749.072 132.66C753.559 126.436 755.802 117.317 755.802 105.303C755.802 93.2892 753.559 84.134 749.072 77.8375C744.657 71.5411 737.818 68.3928 728.554 68.3928C719.145 68.3928 712.161 71.5773 707.602 77.9461C703.115 84.2426 700.871 93.3616 700.871 105.303C700.871 117.245 703.115 126.364 707.602 132.66C712.161 138.884 719.145 141.996 728.554 141.996Z" fill="#0084D7"/>
<path d="M582.678 132.117C585.717 135.808 589.01 138.414 592.557 139.933C596.175 141.453 600.083 142.213 604.281 142.213C608.334 142.213 611.989 141.453 615.246 139.933C618.502 138.414 621.252 136.098 623.496 132.986C625.812 129.873 627.585 125.965 628.815 121.261C630.046 116.484 630.661 110.875 630.661 104.434C630.661 97.9207 630.118 92.4203 629.033 87.9331C628.019 83.3736 626.536 79.6826 624.582 76.86C622.628 74.0375 620.239 71.9748 617.417 70.6721C614.667 69.3694 611.518 68.718 607.972 68.718C602.399 68.718 597.659 69.9122 593.751 72.3005C589.843 74.6164 586.151 77.9094 582.678 82.1795V132.117ZM581.266 64.8099C585.826 59.6714 591 55.5099 596.79 52.3255C602.58 49.141 609.383 47.5488 617.2 47.5488C623.279 47.5488 628.815 48.8154 633.809 51.3484C638.875 53.8815 643.218 57.5725 646.836 62.4215C650.527 67.1982 653.35 73.1328 655.304 80.2254C657.331 87.2456 658.344 95.3152 658.344 104.434C658.344 112.757 657.222 120.465 654.978 127.558C652.735 134.65 649.514 140.802 645.317 146.013C641.191 151.224 636.161 155.313 630.227 158.28C624.365 161.175 617.779 162.622 610.469 162.622C604.245 162.622 598.925 161.682 594.511 159.8C590.096 157.846 586.151 155.168 582.678 151.766V197.362H555.863V49.6115H572.256C575.73 49.6115 578.009 51.2399 579.095 54.4967L581.266 64.8099Z" fill="#0084D7"/>
<path d="M522.984 96.0755C522.984 90.2856 522.151 85.1109 520.487 80.5514C518.895 75.9195 516.615 72.0114 513.648 68.827C510.68 65.6425 507.134 63.218 503.009 61.5534C498.956 59.8165 494.469 58.948 489.547 58.948C483.975 58.948 478.981 59.8165 474.566 61.5534C470.151 63.2904 466.315 65.7873 463.059 69.0441C459.874 72.3009 457.305 76.209 455.351 80.7685C453.397 85.3281 452.094 90.4304 451.443 96.0755H522.984ZM450.9 102.698V104.76C450.9 112.866 451.841 119.995 453.722 126.147C455.604 132.298 458.282 137.473 461.756 141.671C465.23 145.796 469.427 148.908 474.349 151.007C479.27 153.106 484.771 154.155 490.85 154.155C496.278 154.155 500.982 153.576 504.963 152.418C508.943 151.188 512.272 149.849 514.95 148.401C517.7 146.882 519.872 145.543 521.464 144.385C523.056 143.154 524.214 142.539 524.938 142.539C525.879 142.539 526.602 142.901 527.109 143.625L529.932 147.099C528.195 149.27 525.879 151.296 522.984 153.178C520.161 155.06 516.977 156.688 513.43 158.063C509.956 159.366 506.193 160.415 502.14 161.211C498.16 162.008 494.143 162.406 490.09 162.406C482.708 162.406 475.977 161.139 469.898 158.606C463.819 156.001 458.608 152.237 454.265 147.316C449.923 142.394 446.558 136.387 444.169 129.295C441.853 122.13 440.695 113.952 440.695 104.76C440.695 97.0164 441.781 89.8876 443.952 83.374C446.196 76.788 449.38 71.1429 453.505 66.4386C457.703 61.662 462.805 57.9348 468.812 55.257C474.892 52.5791 481.767 51.2402 489.439 51.2402C495.518 51.2402 501.163 52.2896 506.374 54.3885C511.585 56.4873 516.108 59.5632 519.944 63.6161C523.78 67.5966 526.783 72.518 528.954 78.3802C531.198 84.2425 532.32 90.9732 532.32 98.5724C532.32 100.165 532.103 101.25 531.668 101.829C531.234 102.408 530.511 102.698 529.497 102.698H450.9Z" fill="#0084D7"/>
<path d="M337.711 71.8666C342.705 65.6425 348.458 60.6488 354.972 56.8854C361.558 53.1219 368.868 51.2402 376.901 51.2402C382.836 51.2402 388.047 52.1811 392.534 54.0628C397.093 55.9445 400.857 58.6585 403.824 62.2048C406.791 65.7511 409.035 70.0211 410.555 75.0149C412.074 80.0086 412.834 85.6537 412.834 91.9502V160.994H402.413V91.9502C402.413 81.8179 400.097 73.8931 395.465 68.1756C390.833 62.3857 383.777 59.4908 374.296 59.4908C367.275 59.4908 360.689 61.3001 354.538 64.9188C348.458 68.4651 343.03 73.4226 338.254 79.7915V160.994H327.832V52.9772H333.586C335.395 52.9772 336.444 53.8819 336.734 55.6912L337.711 71.8666Z" fill="#0084D7"/>
<path d="M299.975 84.1334C299.975 96.0026 298.201 106.786 294.655 116.484C291.109 126.11 286.115 134.36 279.674 141.236C273.233 148.039 265.489 153.322 256.442 157.086C247.468 160.777 237.553 162.622 226.697 162.622C215.841 162.622 205.926 160.777 196.951 157.086C187.977 153.322 180.269 148.039 173.828 141.236C167.387 134.36 162.393 126.11 158.847 116.484C155.3 106.786 153.527 96.0026 153.527 84.1334C153.527 72.3365 155.3 61.6253 158.847 51.9996C162.393 42.3016 167.387 34.051 173.828 27.248C180.269 20.3725 187.977 15.0531 196.951 11.2897C205.926 7.52624 215.841 5.64453 226.697 5.64453C237.553 5.64453 247.468 7.52624 256.442 11.2897C265.489 14.9807 273.233 20.2639 279.674 27.1394C286.115 34.0149 291.109 42.3016 294.655 51.9996C298.201 61.6253 299.975 72.3365 299.975 84.1334ZM288.467 84.1334C288.467 73.4221 286.984 63.7965 284.016 55.2564C281.049 46.7164 276.851 39.479 271.423 33.5444C265.995 27.6098 259.482 23.0865 251.883 19.9744C244.283 16.79 235.888 15.1978 226.697 15.1978C217.578 15.1978 209.219 16.79 201.619 19.9744C194.02 23.0865 187.47 27.6098 181.97 33.5444C176.542 39.479 172.308 46.7164 169.269 55.2564C166.301 63.7965 164.818 73.4221 164.818 84.1334C164.818 94.917 166.301 104.579 169.269 113.119C172.308 121.587 176.542 128.788 181.97 134.722C187.47 140.657 194.02 145.18 201.619 148.292C209.219 151.404 217.578 152.96 226.697 152.96C235.888 152.96 244.283 151.404 251.883 148.292C259.482 145.18 265.995 140.657 271.423 134.722C276.851 128.788 281.049 121.587 284.016 113.119C286.984 104.579 288.467 94.917 288.467 84.1334Z" fill="#0084D7"/>
<mask id="path-9-outside-1_7084_367" maskUnits="userSpaceOnUse" x="22.332" y="248.939" width="1155" height="967" fill="black">
<rect fill="white" x="22.332" y="248.939" width="1155" height="967"/>
<path d="M1067.76 574.379C1067.96 570.634 1068.08 567.001 1068.08 563.478C1068.08 446.585 978.34 349.265 861.824 339.838C861.258 339.315 860.624 338.878 860.058 338.373C858.43 336.976 856.99 335.382 855.345 334.011C854.736 333.642 854.119 333.316 853.468 333.025C797.472 286.996 722.503 271.296 652.744 290.99C652.204 291.101 651.655 290.99 651.115 291.127C647.559 292.138 644.071 293.355 640.592 294.529C580.645 252.348 500.268 253.925 442.018 298.428H441.847C441.084 298.051 440.373 297.528 439.584 297.168C438.796 296.817 438.513 296.963 437.99 296.774C418.4 287.57 397.035 282.754 375.387 282.66C321.963 282.848 272.651 311.352 245.819 357.543H244.336C163.402 357.595 97.1139 421.869 94.5687 502.769C37.5445 548.215 21.7073 628.224 57.1268 691.967V694.529C57.2382 797.874 140.992 881.627 244.336 881.739C247.147 881.739 249.958 881.739 252.932 881.499C253.026 881.816 253.155 882.099 253.249 882.399C254.637 886.727 256.171 890.994 257.86 895.202L258.34 896.385C272.977 932.747 298.918 963.444 332.332 983.944L333.249 984.518C337.08 986.9 340.979 989.145 344.964 991.245C345.83 991.691 346.73 992.085 347.587 992.531C353.311 995.419 359.173 997.998 365.163 1000.27C367.82 1001.3 370.468 1002.36 373.176 1003.28C375.482 1004.03 377.838 1004.65 380.178 1005.34C383.546 1006.31 386.94 1007.21 390.368 1008.02C392.536 1008.5 394.687 1008.95 396.881 1009.36C400.754 1010.12 404.671 1010.69 408.621 1011.24C410.49 1011.46 412.358 1011.74 414.106 1011.91C419.908 1012.47 425.727 1012.82 431.623 1012.82C466.4 1012.7 500.448 1002.87 529.928 984.423C542.415 1023.84 579.111 1050.51 620.452 1050.23C625.851 1050.23 631.01 1052.52 634.618 1056.54L743.071 1180.78C754.083 1192.96 769.714 1199.94 786.134 1200C817.757 1199.97 843.39 1174.34 843.416 1142.72V1067.36C852.74 1068.4 862.115 1068.93 871.499 1068.96C990.209 1068.96 1086.79 989.163 1086.79 891.106C1086.78 875.98 1084.45 860.948 1079.88 846.525C1132.21 819.924 1164.14 765.18 1161.52 706.544C1158.91 647.9 1122.24 596.215 1067.76 574.379ZM785.946 1162.56C780.238 1162.5 774.822 1160.08 770.966 1155.87L662.685 1031.85C651.518 1019.41 635.484 1012.45 618.764 1012.79C588.538 1012.7 563.797 988.708 562.785 958.499C570.867 950.692 578.228 942.174 584.767 933.038C585.513 933.39 586.318 933.621 587.073 933.955C588.941 934.778 590.809 935.824 592.686 936.535C593.346 936.715 594.023 936.843 594.708 936.929C619.158 946.93 644.979 953.195 671.298 955.5C698.713 1008.46 747.99 1046.72 806.085 1060.16V1142.72C806.068 1148.02 803.934 1153.1 800.146 1156.83C796.367 1160.56 791.251 1162.62 785.946 1162.56ZM1049.35 891.106C1049.35 968.535 969.565 1031.52 871.499 1031.52C856.99 1031.58 842.516 1030.13 828.307 1027.19C782.295 1019.38 741.245 993.688 714.113 955.706C798.304 948.764 874.079 901.912 917.914 829.694C953.333 858.523 1000.06 869.432 1044.58 859.277C1047.7 869.595 1049.32 880.316 1049.35 891.106ZM1011.91 825.58C962.349 825.229 918.745 792.749 904.228 745.357C901.22 735.519 890.841 729.949 880.986 732.88C871.122 735.811 865.474 746.146 868.337 756.027C873.264 772.275 880.917 787.564 890.97 801.242C858.987 860.383 802.186 902.084 736.189 914.904C670.183 927.716 601.907 910.294 550.111 867.419C542.166 860.811 530.357 861.891 523.741 869.844C517.134 877.797 518.213 889.597 526.166 896.213C534.29 902.898 542.8 909.085 551.67 914.75C523.441 952.775 478.912 975.237 431.554 975.348C426.832 975.348 422.188 975.065 417.551 974.637C414.963 974.397 412.435 974.002 409.89 973.625C408.116 973.36 406.316 973.12 404.559 972.803C401.037 972.143 397.558 971.397 394.13 970.497L392.759 970.146C347.869 957.874 311.13 925.6 293.185 882.656L292.731 881.593C291.291 878.054 289.997 874.42 288.84 870.752C288.617 870.058 288.411 869.347 288.206 868.653C287.134 865.113 286.183 861.522 285.378 857.855C282.301 843.988 281.204 829.754 282.121 815.579C289.106 735.451 356.911 674.39 437.339 675.804H543.88C574.895 675.804 600.039 650.66 600.039 619.645C600.039 609.302 608.42 600.92 618.764 600.92H674.931C685.266 600.92 693.648 592.539 693.648 582.204C693.648 571.86 685.266 563.478 674.931 563.478H618.764C587.75 563.478 562.597 588.622 562.597 619.645C562.597 629.981 554.216 638.362 543.88 638.362H437.339C337.183 636.982 253.043 713.349 244.731 813.163C244.139 823.549 244.379 833.953 245.459 844.297H244.336C180.096 844.194 123.064 803.179 102.522 742.307C109.309 747.114 116.473 751.356 123.963 754.981C133.296 759.429 144.471 755.461 148.919 746.12C153.367 736.788 149.399 725.612 140.058 721.173C120.381 711.815 103.85 696.937 92.469 678.349C92.3576 678.169 92.3234 677.938 92.2119 677.758C61.3089 627.076 75.3464 561.087 124.203 527.382L124.452 527.176C138.661 517.329 154.978 510.919 172.092 508.459C182.333 507.003 189.455 497.516 187.998 487.275C186.541 477.034 177.054 469.912 166.813 471.369C156.161 472.946 145.705 475.671 135.644 479.493C143.948 447.013 166.333 419.932 196.679 405.672C227.025 391.403 262.153 391.446 292.473 405.775C301.755 409.923 312.656 405.895 317.018 396.708C321.38 387.53 317.618 376.543 308.533 371.958C301.549 368.71 294.316 366.011 286.912 363.894C321.748 318.293 385.534 306.63 434.245 336.95H434.417C447.486 345.014 458.772 355.658 467.591 368.239C473.59 376.474 485.074 378.403 493.438 372.567C501.793 366.739 503.953 355.298 498.297 346.823C491.612 337.361 483.848 328.706 475.175 321.036C512.343 297.7 558.86 294.966 598.505 313.794C595.608 315.517 592.652 317.162 589.823 318.996C581.159 324.644 578.708 336.247 584.356 344.911C590.003 353.576 601.599 356.018 610.263 350.379C682.601 304.684 776.562 312.98 839.765 370.647C857.71 387.238 872.253 407.163 882.58 429.308C885.194 435.658 891.073 440.072 897.912 440.8C904.742 441.537 911.418 438.469 915.317 432.804C919.216 427.148 919.696 419.812 916.585 413.693C912.043 404.027 906.816 394.703 900.928 385.798C978.16 410.583 1030.56 482.373 1030.63 563.478C1030.63 568.029 1030.33 572.52 1030.02 577.036C1029.83 579.453 1029.64 581.861 1029.34 584.526C1027.6 600.663 1023.74 616.5 1017.86 631.626C1015.43 637.857 1016.5 644.918 1020.68 650.146C1024.87 655.365 1031.52 657.97 1038.13 656.959C1044.75 655.948 1050.33 651.491 1052.76 645.252C1056.75 634.84 1059.94 624.145 1062.33 613.261C1108.74 636.614 1133.04 688.787 1121.04 739.341C1109.03 789.895 1063.87 825.589 1011.91 825.58Z"/>
</mask>
<path d="M1067.76 574.379C1067.96 570.634 1068.08 567.001 1068.08 563.478C1068.08 446.585 978.34 349.265 861.824 339.838C861.258 339.315 860.624 338.878 860.058 338.373C858.43 336.976 856.99 335.382 855.345 334.011C854.736 333.642 854.119 333.316 853.468 333.025C797.472 286.996 722.503 271.296 652.744 290.99C652.204 291.101 651.655 290.99 651.115 291.127C647.559 292.138 644.071 293.355 640.592 294.529C580.645 252.348 500.268 253.925 442.018 298.428H441.847C441.084 298.051 440.373 297.528 439.584 297.168C438.796 296.817 438.513 296.963 437.99 296.774C418.4 287.57 397.035 282.754 375.387 282.66C321.963 282.848 272.651 311.352 245.819 357.543H244.336C163.402 357.595 97.1139 421.869 94.5687 502.769C37.5445 548.215 21.7073 628.224 57.1268 691.967V694.529C57.2382 797.874 140.992 881.627 244.336 881.739C247.147 881.739 249.958 881.739 252.932 881.499C253.026 881.816 253.155 882.099 253.249 882.399C254.637 886.727 256.171 890.994 257.86 895.202L258.34 896.385C272.977 932.747 298.918 963.444 332.332 983.944L333.249 984.518C337.08 986.9 340.979 989.145 344.964 991.245C345.83 991.691 346.73 992.085 347.587 992.531C353.311 995.419 359.173 997.998 365.163 1000.27C367.82 1001.3 370.468 1002.36 373.176 1003.28C375.482 1004.03 377.838 1004.65 380.178 1005.34C383.546 1006.31 386.94 1007.21 390.368 1008.02C392.536 1008.5 394.687 1008.95 396.881 1009.36C400.754 1010.12 404.671 1010.69 408.621 1011.24C410.49 1011.46 412.358 1011.74 414.106 1011.91C419.908 1012.47 425.727 1012.82 431.623 1012.82C466.4 1012.7 500.448 1002.87 529.928 984.423C542.415 1023.84 579.111 1050.51 620.452 1050.23C625.851 1050.23 631.01 1052.52 634.618 1056.54L743.071 1180.78C754.083 1192.96 769.714 1199.94 786.134 1200C817.757 1199.97 843.39 1174.34 843.416 1142.72V1067.36C852.74 1068.4 862.115 1068.93 871.499 1068.96C990.209 1068.96 1086.79 989.163 1086.79 891.106C1086.78 875.98 1084.45 860.948 1079.88 846.525C1132.21 819.924 1164.14 765.18 1161.52 706.544C1158.91 647.9 1122.24 596.215 1067.76 574.379ZM785.946 1162.56C780.238 1162.5 774.822 1160.08 770.966 1155.87L662.685 1031.85C651.518 1019.41 635.484 1012.45 618.764 1012.79C588.538 1012.7 563.797 988.708 562.785 958.499C570.867 950.692 578.228 942.174 584.767 933.038C585.513 933.39 586.318 933.621 587.073 933.955C588.941 934.778 590.809 935.824 592.686 936.535C593.346 936.715 594.023 936.843 594.708 936.929C619.158 946.93 644.979 953.195 671.298 955.5C698.713 1008.46 747.99 1046.72 806.085 1060.16V1142.72C806.068 1148.02 803.934 1153.1 800.146 1156.83C796.367 1160.56 791.251 1162.62 785.946 1162.56ZM1049.35 891.106C1049.35 968.535 969.565 1031.52 871.499 1031.52C856.99 1031.58 842.516 1030.13 828.307 1027.19C782.295 1019.38 741.245 993.688 714.113 955.706C798.304 948.764 874.079 901.912 917.914 829.694C953.333 858.523 1000.06 869.432 1044.58 859.277C1047.7 869.595 1049.32 880.316 1049.35 891.106ZM1011.91 825.58C962.349 825.229 918.745 792.749 904.228 745.357C901.22 735.519 890.841 729.949 880.986 732.88C871.122 735.811 865.474 746.146 868.337 756.027C873.264 772.275 880.917 787.564 890.97 801.242C858.987 860.383 802.186 902.084 736.189 914.904C670.183 927.716 601.907 910.294 550.111 867.419C542.166 860.811 530.357 861.891 523.741 869.844C517.134 877.797 518.213 889.597 526.166 896.213C534.29 902.898 542.8 909.085 551.67 914.75C523.441 952.775 478.912 975.237 431.554 975.348C426.832 975.348 422.188 975.065 417.551 974.637C414.963 974.397 412.435 974.002 409.89 973.625C408.116 973.36 406.316 973.12 404.559 972.803C401.037 972.143 397.558 971.397 394.13 970.497L392.759 970.146C347.869 957.874 311.13 925.6 293.185 882.656L292.731 881.593C291.291 878.054 289.997 874.42 288.84 870.752C288.617 870.058 288.411 869.347 288.206 868.653C287.134 865.113 286.183 861.522 285.378 857.855C282.301 843.988 281.204 829.754 282.121 815.579C289.106 735.451 356.911 674.39 437.339 675.804H543.88C574.895 675.804 600.039 650.66 600.039 619.645C600.039 609.302 608.42 600.92 618.764 600.92H674.931C685.266 600.92 693.648 592.539 693.648 582.204C693.648 571.86 685.266 563.478 674.931 563.478H618.764C587.75 563.478 562.597 588.622 562.597 619.645C562.597 629.981 554.216 638.362 543.88 638.362H437.339C337.183 636.982 253.043 713.349 244.731 813.163C244.139 823.549 244.379 833.953 245.459 844.297H244.336C180.096 844.194 123.064 803.179 102.522 742.307C109.309 747.114 116.473 751.356 123.963 754.981C133.296 759.429 144.471 755.461 148.919 746.12C153.367 736.788 149.399 725.612 140.058 721.173C120.381 711.815 103.85 696.937 92.469 678.349C92.3576 678.169 92.3234 677.938 92.2119 677.758C61.3089 627.076 75.3464 561.087 124.203 527.382L124.452 527.176C138.661 517.329 154.978 510.919 172.092 508.459C182.333 507.003 189.455 497.516 187.998 487.275C186.541 477.034 177.054 469.912 166.813 471.369C156.161 472.946 145.705 475.671 135.644 479.493C143.948 447.013 166.333 419.932 196.679 405.672C227.025 391.403 262.153 391.446 292.473 405.775C301.755 409.923 312.656 405.895 317.018 396.708C321.38 387.53 317.618 376.543 308.533 371.958C301.549 368.71 294.316 366.011 286.912 363.894C321.748 318.293 385.534 306.63 434.245 336.95H434.417C447.486 345.014 458.772 355.658 467.591 368.239C473.59 376.474 485.074 378.403 493.438 372.567C501.793 366.739 503.953 355.298 498.297 346.823C491.612 337.361 483.848 328.706 475.175 321.036C512.343 297.7 558.86 294.966 598.505 313.794C595.608 315.517 592.652 317.162 589.823 318.996C581.159 324.644 578.708 336.247 584.356 344.911C590.003 353.576 601.599 356.018 610.263 350.379C682.601 304.684 776.562 312.98 839.765 370.647C857.71 387.238 872.253 407.163 882.58 429.308C885.194 435.658 891.073 440.072 897.912 440.8C904.742 441.537 911.418 438.469 915.317 432.804C919.216 427.148 919.696 419.812 916.585 413.693C912.043 404.027 906.816 394.703 900.928 385.798C978.16 410.583 1030.56 482.373 1030.63 563.478C1030.63 568.029 1030.33 572.52 1030.02 577.036C1029.83 579.453 1029.64 581.861 1029.34 584.526C1027.6 600.663 1023.74 616.5 1017.86 631.626C1015.43 637.857 1016.5 644.918 1020.68 650.146C1024.87 655.365 1031.52 657.97 1038.13 656.959C1044.75 655.948 1050.33 651.491 1052.76 645.252C1056.75 634.84 1059.94 624.145 1062.33 613.261C1108.74 636.614 1133.04 688.787 1121.04 739.341C1109.03 789.895 1063.87 825.589 1011.91 825.58Z" fill="#0084D7"/>
<path d="M1067.76 574.379C1067.96 570.634 1068.08 567.001 1068.08 563.478C1068.08 446.585 978.34 349.265 861.824 339.838C861.258 339.315 860.624 338.878 860.058 338.373C858.43 336.976 856.99 335.382 855.345 334.011C854.736 333.642 854.119 333.316 853.468 333.025C797.472 286.996 722.503 271.296 652.744 290.99C652.204 291.101 651.655 290.99 651.115 291.127C647.559 292.138 644.071 293.355 640.592 294.529C580.645 252.348 500.268 253.925 442.018 298.428H441.847C441.084 298.051 440.373 297.528 439.584 297.168C438.796 296.817 438.513 296.963 437.99 296.774C418.4 287.57 397.035 282.754 375.387 282.66C321.963 282.848 272.651 311.352 245.819 357.543H244.336C163.402 357.595 97.1139 421.869 94.5687 502.769C37.5445 548.215 21.7073 628.224 57.1268 691.967V694.529C57.2382 797.874 140.992 881.627 244.336 881.739C247.147 881.739 249.958 881.739 252.932 881.499C253.026 881.816 253.155 882.099 253.249 882.399C254.637 886.727 256.171 890.994 257.86 895.202L258.34 896.385C272.977 932.747 298.918 963.444 332.332 983.944L333.249 984.518C337.08 986.9 340.979 989.145 344.964 991.245C345.83 991.691 346.73 992.085 347.587 992.531C353.311 995.419 359.173 997.998 365.163 1000.27C367.82 1001.3 370.468 1002.36 373.176 1003.28C375.482 1004.03 377.838 1004.65 380.178 1005.34C383.546 1006.31 386.94 1007.21 390.368 1008.02C392.536 1008.5 394.687 1008.95 396.881 1009.36C400.754 1010.12 404.671 1010.69 408.621 1011.24C410.49 1011.46 412.358 1011.74 414.106 1011.91C419.908 1012.47 425.727 1012.82 431.623 1012.82C466.4 1012.7 500.448 1002.87 529.928 984.423C542.415 1023.84 579.111 1050.51 620.452 1050.23C625.851 1050.23 631.01 1052.52 634.618 1056.54L743.071 1180.78C754.083 1192.96 769.714 1199.94 786.134 1200C817.757 1199.97 843.39 1174.34 843.416 1142.72V1067.36C852.74 1068.4 862.115 1068.93 871.499 1068.96C990.209 1068.96 1086.79 989.163 1086.79 891.106C1086.78 875.98 1084.45 860.948 1079.88 846.525C1132.21 819.924 1164.14 765.18 1161.52 706.544C1158.91 647.9 1122.24 596.215 1067.76 574.379ZM785.946 1162.56C780.238 1162.5 774.822 1160.08 770.966 1155.87L662.685 1031.85C651.518 1019.41 635.484 1012.45 618.764 1012.79C588.538 1012.7 563.797 988.708 562.785 958.499C570.867 950.692 578.228 942.174 584.767 933.038C585.513 933.39 586.318 933.621 587.073 933.955C588.941 934.778 590.809 935.824 592.686 936.535C593.346 936.715 594.023 936.843 594.708 936.929C619.158 946.93 644.979 953.195 671.298 955.5C698.713 1008.46 747.99 1046.72 806.085 1060.16V1142.72C806.068 1148.02 803.934 1153.1 800.146 1156.83C796.367 1160.56 791.251 1162.62 785.946 1162.56ZM1049.35 891.106C1049.35 968.535 969.565 1031.52 871.499 1031.52C856.99 1031.58 842.516 1030.13 828.307 1027.19C782.295 1019.38 741.245 993.688 714.113 955.706C798.304 948.764 874.079 901.912 917.914 829.694C953.333 858.523 1000.06 869.432 1044.58 859.277C1047.7 869.595 1049.32 880.316 1049.35 891.106ZM1011.91 825.58C962.349 825.229 918.745 792.749 904.228 745.357C901.22 735.519 890.841 729.949 880.986 732.88C871.122 735.811 865.474 746.146 868.337 756.027C873.264 772.275 880.917 787.564 890.97 801.242C858.987 860.383 802.186 902.084 736.189 914.904C670.183 927.716 601.907 910.294 550.111 867.419C542.166 860.811 530.357 861.891 523.741 869.844C517.134 877.797 518.213 889.597 526.166 896.213C534.29 902.898 542.8 909.085 551.67 914.75C523.441 952.775 478.912 975.237 431.554 975.348C426.832 975.348 422.188 975.065 417.551 974.637C414.963 974.397 412.435 974.002 409.89 973.625C408.116 973.36 406.316 973.12 404.559 972.803C401.037 972.143 397.558 971.397 394.13 970.497L392.759 970.146C347.869 957.874 311.13 925.6 293.185 882.656L292.731 881.593C291.291 878.054 289.997 874.42 288.84 870.752C288.617 870.058 288.411 869.347 288.206 868.653C287.134 865.113 286.183 861.522 285.378 857.855C282.301 843.988 281.204 829.754 282.121 815.579C289.106 735.451 356.911 674.39 437.339 675.804H543.88C574.895 675.804 600.039 650.66 600.039 619.645C600.039 609.302 608.42 600.92 618.764 600.92H674.931C685.266 600.92 693.648 592.539 693.648 582.204C693.648 571.86 685.266 563.478 674.931 563.478H618.764C587.75 563.478 562.597 588.622 562.597 619.645C562.597 629.981 554.216 638.362 543.88 638.362H437.339C337.183 636.982 253.043 713.349 244.731 813.163C244.139 823.549 244.379 833.953 245.459 844.297H244.336C180.096 844.194 123.064 803.179 102.522 742.307C109.309 747.114 116.473 751.356 123.963 754.981C133.296 759.429 144.471 755.461 148.919 746.12C153.367 736.788 149.399 725.612 140.058 721.173C120.381 711.815 103.85 696.937 92.469 678.349C92.3576 678.169 92.3234 677.938 92.2119 677.758C61.3089 627.076 75.3464 561.087 124.203 527.382L124.452 527.176C138.661 517.329 154.978 510.919 172.092 508.459C182.333 507.003 189.455 497.516 187.998 487.275C186.541 477.034 177.054 469.912 166.813 471.369C156.161 472.946 145.705 475.671 135.644 479.493C143.948 447.013 166.333 419.932 196.679 405.672C227.025 391.403 262.153 391.446 292.473 405.775C301.755 409.923 312.656 405.895 317.018 396.708C321.38 387.53 317.618 376.543 308.533 371.958C301.549 368.71 294.316 366.011 286.912 363.894C321.748 318.293 385.534 306.63 434.245 336.95H434.417C447.486 345.014 458.772 355.658 467.591 368.239C473.59 376.474 485.074 378.403 493.438 372.567C501.793 366.739 503.953 355.298 498.297 346.823C491.612 337.361 483.848 328.706 475.175 321.036C512.343 297.7 558.86 294.966 598.505 313.794C595.608 315.517 592.652 317.162 589.823 318.996C581.159 324.644 578.708 336.247 584.356 344.911C590.003 353.576 601.599 356.018 610.263 350.379C682.601 304.684 776.562 312.98 839.765 370.647C857.71 387.238 872.253 407.163 882.58 429.308C885.194 435.658 891.073 440.072 897.912 440.8C904.742 441.537 911.418 438.469 915.317 432.804C919.216 427.148 919.696 419.812 916.585 413.693C912.043 404.027 906.816 394.703 900.928 385.798C978.16 410.583 1030.56 482.373 1030.63 563.478C1030.63 568.029 1030.33 572.52 1030.02 577.036C1029.83 579.453 1029.64 581.861 1029.34 584.526C1027.6 600.663 1023.74 616.5 1017.86 631.626C1015.43 637.857 1016.5 644.918 1020.68 650.146C1024.87 655.365 1031.52 657.97 1038.13 656.959C1044.75 655.948 1050.33 651.491 1052.76 645.252C1056.75 634.84 1059.94 624.145 1062.33 613.261C1108.74 636.614 1133.04 688.787 1121.04 739.341C1109.03 789.895 1063.87 825.589 1011.91 825.58Z" stroke="#0084D7" stroke-width="30" mask="url(#path-9-outside-1_7084_367)"/>
</svg>
