<svg width="1200" height="1215" viewBox="0 0 1200 1215" fill="none" xmlns="http://www.w3.org/2000/svg">
<path d="M1017.27 162.733C1007.57 162.733 1000.12 160.019 994.907 154.591C989.769 149.09 987.199 141.527 987.199 131.902V69.6968H975.801C974.353 69.6968 973.123 69.2264 972.11 68.2855C971.096 67.3447 970.59 65.9334 970.59 64.0517V53.4128L988.502 50.4817L994.147 20.0849C994.509 18.6374 995.197 17.5157 996.21 16.7195C997.223 15.9234 998.526 15.5254 1000.12 15.5254H1014.01V50.5903H1043.76V69.6968H1014.01V130.056C1014.01 133.53 1014.85 136.244 1016.51 138.198C1018.25 140.152 1020.6 141.129 1023.57 141.129C1025.23 141.129 1026.61 140.948 1027.69 140.586C1028.85 140.152 1029.83 139.718 1030.62 139.284C1031.49 138.849 1032.25 138.451 1032.9 138.09C1033.55 137.655 1034.21 137.438 1034.86 137.438C1035.65 137.438 1036.3 137.655 1036.81 138.09C1037.32 138.451 1037.86 139.03 1038.44 139.827L1046.47 152.854C1042.56 156.111 1038.08 158.571 1033.01 160.236C1027.95 161.9 1022.7 162.733 1017.27 162.733Z" fill="#0084D7"/>
<path d="M884.148 63.2905C886.391 61.0469 888.743 58.9843 891.204 57.1026C893.737 55.1485 896.379 53.5201 899.129 52.2174C901.951 50.8423 904.955 49.7929 908.139 49.0692C911.324 48.2731 914.798 47.875 918.561 47.875C924.64 47.875 930.032 48.9244 934.737 51.0232C939.441 53.0497 943.349 55.9446 946.461 59.708C949.645 63.3991 952.034 67.85 953.626 73.0609C955.291 78.1994 956.123 83.8807 956.123 90.1048V160.994H929.309V90.1048C929.309 83.3017 927.752 78.0547 924.64 74.3636C921.528 70.6002 916.788 68.7185 910.419 68.7185C905.787 68.7185 901.445 69.7679 897.392 71.8667C893.339 73.9656 889.503 76.8243 885.885 80.443V160.994H859.07V49.612H875.463C878.937 49.612 881.216 51.2404 882.302 54.4972L884.148 63.2905Z" fill="#0084D7"/>
<path d="M831.743 49.6119V160.994H804.82V49.6119H831.743ZM835.434 17.1525C835.434 19.4684 834.963 21.6396 834.023 23.6661C833.082 25.6925 831.815 27.4657 830.223 28.9855C828.703 30.5053 826.894 31.7357 824.795 32.6765C822.696 33.545 820.453 33.9793 818.064 33.9793C815.748 33.9793 813.541 33.545 811.442 32.6765C809.416 31.7357 807.643 30.5053 806.123 28.9855C804.603 27.4657 803.372 25.6925 802.432 23.6661C801.563 21.6396 801.129 19.4684 801.129 17.1525C801.129 14.7641 801.563 12.5206 802.432 10.4217C803.372 8.32293 804.603 6.5136 806.123 4.99376C807.643 3.47391 809.416 2.27976 811.442 1.41128C813.541 0.470425 815.748 0 818.064 0C820.453 0 822.696 0.470425 824.795 1.41128C826.894 2.27976 828.703 3.47391 830.223 4.99376C831.815 6.5136 833.082 8.32293 834.023 10.4217C834.963 12.5206 835.434 14.7641 835.434 17.1525Z" fill="#0084D7"/>
<path d="M728.554 47.875C736.804 47.875 744.295 49.2139 751.026 51.8917C757.829 54.5695 763.619 58.3691 768.395 63.2905C773.244 68.2119 776.971 74.2189 779.577 81.3115C782.182 88.4041 783.485 96.3289 783.485 105.086C783.485 113.916 782.182 121.877 779.577 128.969C776.971 136.062 773.244 142.105 768.395 147.099C763.619 152.093 757.829 155.928 751.026 158.606C744.295 161.284 736.804 162.623 728.554 162.623C720.231 162.623 712.668 161.284 705.865 158.606C699.062 155.928 693.236 152.093 688.387 147.099C683.61 142.105 679.883 136.062 677.205 128.969C674.6 121.877 673.297 113.916 673.297 105.086C673.297 96.3289 674.6 88.4041 677.205 81.3115C679.883 74.2189 683.61 68.2119 688.387 63.2905C693.236 58.3691 699.062 54.5695 705.865 51.8917C712.668 49.2139 720.231 47.875 728.554 47.875ZM728.554 141.996C737.818 141.996 744.657 138.884 749.072 132.66C753.559 126.436 755.802 117.317 755.802 105.303C755.802 93.2892 753.559 84.134 749.072 77.8375C744.657 71.5411 737.818 68.3928 728.554 68.3928C719.145 68.3928 712.161 71.5773 707.602 77.9461C703.115 84.2426 700.871 93.3616 700.871 105.303C700.871 117.245 703.115 126.364 707.602 132.66C712.161 138.884 719.145 141.996 728.554 141.996Z" fill="#0084D7"/>
<path d="M582.678 132.117C585.717 135.808 589.01 138.414 592.557 139.933C596.175 141.453 600.083 142.213 604.281 142.213C608.334 142.213 611.989 141.453 615.246 139.933C618.502 138.414 621.252 136.098 623.496 132.986C625.812 129.873 627.585 125.965 628.815 121.261C630.046 116.484 630.661 110.875 630.661 104.434C630.661 97.9207 630.118 92.4203 629.033 87.9331C628.019 83.3736 626.536 79.6826 624.582 76.86C622.628 74.0375 620.239 71.9748 617.417 70.6721C614.667 69.3694 611.518 68.718 607.972 68.718C602.399 68.718 597.659 69.9122 593.751 72.3005C589.843 74.6164 586.151 77.9094 582.678 82.1795V132.117ZM581.266 64.8099C585.826 59.6714 591 55.5099 596.79 52.3255C602.58 49.141 609.383 47.5488 617.2 47.5488C623.279 47.5488 628.816 48.8154 633.809 51.3484C638.875 53.8815 643.218 57.5725 646.836 62.4215C650.527 67.1982 653.35 73.1328 655.304 80.2254C657.331 87.2456 658.344 95.3152 658.344 104.434C658.344 112.757 657.222 120.465 654.978 127.558C652.735 134.65 649.514 140.802 645.317 146.013C641.191 151.224 636.161 155.313 630.227 158.28C624.365 161.175 617.779 162.622 610.469 162.622C604.245 162.622 598.925 161.682 594.511 159.8C590.096 157.846 586.151 155.168 582.678 151.766V197.362H555.863V49.6115H572.256C575.73 49.6115 578.009 51.2399 579.095 54.4967L581.266 64.8099Z" fill="#0084D7"/>
<path d="M522.984 96.0755C522.984 90.2856 522.151 85.1109 520.487 80.5514C518.895 75.9195 516.615 72.0114 513.648 68.827C510.68 65.6425 507.134 63.218 503.009 61.5534C498.956 59.8165 494.469 58.948 489.547 58.948C483.975 58.948 478.981 59.8165 474.566 61.5534C470.151 63.2904 466.315 65.7873 463.059 69.0441C459.874 72.3009 457.305 76.209 455.351 80.7685C453.397 85.3281 452.094 90.4304 451.443 96.0755H522.984ZM450.9 102.698V104.76C450.9 112.866 451.841 119.995 453.722 126.147C455.604 132.298 458.282 137.473 461.756 141.671C465.23 145.796 469.427 148.908 474.349 151.007C479.27 153.106 484.771 154.155 490.85 154.155C496.278 154.155 500.982 153.576 504.963 152.418C508.943 151.188 512.272 149.849 514.95 148.401C517.7 146.882 519.872 145.543 521.464 144.385C523.056 143.154 524.214 142.539 524.938 142.539C525.879 142.539 526.602 142.901 527.109 143.625L529.932 147.099C528.195 149.27 525.879 151.296 522.984 153.178C520.161 155.06 516.977 156.688 513.43 158.063C509.956 159.366 506.193 160.415 502.14 161.211C498.16 162.008 494.143 162.406 490.09 162.406C482.708 162.406 475.977 161.139 469.898 158.606C463.819 156.001 458.608 152.237 454.265 147.316C449.923 142.394 446.558 136.387 444.169 129.295C441.853 122.13 440.695 113.952 440.695 104.76C440.695 97.0164 441.781 89.8876 443.952 83.374C446.196 76.788 449.38 71.1429 453.505 66.4386C457.703 61.662 462.805 57.9348 468.812 55.257C474.892 52.5791 481.767 51.2402 489.439 51.2402C495.518 51.2402 501.163 52.2897 506.374 54.3885C511.585 56.4873 516.108 59.5632 519.944 63.6161C523.78 67.5966 526.783 72.518 528.954 78.3802C531.198 84.2425 532.32 90.9732 532.32 98.5724C532.32 100.165 532.103 101.25 531.668 101.829C531.234 102.408 530.511 102.698 529.497 102.698H450.9Z" fill="#0084D7"/>
<path d="M337.711 71.8666C342.705 65.6425 348.458 60.6488 354.972 56.8854C361.558 53.1219 368.868 51.2402 376.901 51.2402C382.836 51.2402 388.047 52.1811 392.534 54.0628C397.093 55.9445 400.857 58.6585 403.824 62.2048C406.791 65.7511 409.035 70.0211 410.555 75.0149C412.074 80.0086 412.834 85.6537 412.834 91.9502V160.994H402.413V91.9502C402.413 81.8179 400.097 73.8931 395.465 68.1756C390.833 62.3857 383.777 59.4908 374.296 59.4908C367.275 59.4908 360.689 61.3001 354.538 64.9188C348.458 68.4651 343.03 73.4226 338.254 79.7915V160.994H327.832V52.9772H333.586C335.395 52.9772 336.444 53.8819 336.734 55.6912L337.711 71.8666Z" fill="#0084D7"/>
<path d="M299.975 84.1334C299.975 96.0026 298.201 106.786 294.655 116.484C291.109 126.11 286.115 134.36 279.674 141.236C273.233 148.039 265.489 153.322 256.442 157.086C247.468 160.777 237.553 162.622 226.697 162.622C215.841 162.622 205.926 160.777 196.951 157.086C187.977 153.322 180.269 148.039 173.828 141.236C167.387 134.36 162.393 126.11 158.847 116.484C155.3 106.786 153.527 96.0026 153.527 84.1334C153.527 72.3365 155.3 61.6253 158.847 51.9996C162.393 42.3016 167.387 34.051 173.828 27.248C180.269 20.3725 187.977 15.0531 196.951 11.2897C205.926 7.52624 215.841 5.64453 226.697 5.64453C237.553 5.64453 247.468 7.52624 256.442 11.2897C265.489 14.9807 273.233 20.2639 279.674 27.1394C286.115 34.0149 291.109 42.3016 294.655 51.9996C298.201 61.6253 299.975 72.3365 299.975 84.1334ZM288.467 84.1334C288.467 73.4221 286.984 63.7965 284.016 55.2564C281.049 46.7164 276.851 39.479 271.423 33.5444C265.995 27.6098 259.482 23.0865 251.883 19.9744C244.283 16.79 235.888 15.1978 226.697 15.1978C217.578 15.1978 209.219 16.79 201.619 19.9744C194.02 23.0865 187.47 27.6098 181.97 33.5444C176.542 39.479 172.308 46.7164 169.269 55.2564C166.301 63.7965 164.818 73.4221 164.818 84.1334C164.818 94.917 166.301 104.579 169.269 113.119C172.308 121.587 176.542 128.788 181.97 134.722C187.47 140.657 194.02 145.18 201.619 148.292C209.219 151.404 217.578 152.96 226.697 152.96C235.888 152.96 244.283 151.404 251.883 148.292C259.482 145.18 265.995 140.657 271.423 134.722C276.851 128.788 281.049 121.587 284.016 113.119C286.984 104.579 288.467 94.917 288.467 84.1334Z" fill="#0084D7"/>
<path d="M326.404 976.749L329.168 970.116L326.404 976.749C400.352 1007.56 497.526 1024.37 600.012 1024.37C702.497 1024.37 799.672 1007.56 873.622 976.747C894.053 968.235 912.315 958.78 928.25 948.498V1016.87V1017.18C928.124 1027.43 921.655 1039.61 907.265 1052.57C892.897 1065.52 871.59 1078.34 844.375 1089.68C779.989 1116.51 693.22 1131.46 600.014 1131.46C506.807 1131.46 420.038 1116.51 355.651 1089.68C328.434 1078.34 307.072 1065.52 292.651 1052.56C278.057 1039.46 271.57 1027.17 271.57 1016.87V948.484C287.573 958.778 305.974 968.236 326.404 976.749ZM326.403 793.617L326.404 793.617C400.354 824.427 497.528 841.239 600.014 841.239C702.499 841.239 799.674 824.429 873.623 793.615C894.055 785.102 912.317 775.648 928.252 765.366V833.737C928.252 844.053 921.798 856.346 907.265 869.442C892.897 882.389 871.59 895.213 844.376 906.553C779.989 933.38 693.22 948.326 600.014 948.326C506.807 948.326 420.038 933.38 355.651 906.553C328.437 895.213 307.13 882.389 292.762 869.442C278.229 856.347 271.775 844.054 271.775 833.739C271.775 833.299 271.736 832.869 271.664 832.453C271.637 832.298 271.605 832.146 271.57 831.998L271.568 765.349C287.572 775.644 305.973 785.102 326.403 793.617ZM873.59 607.197C894.036 598.147 912.309 588.139 928.252 577.292V650.608C928.252 660.923 921.799 673.216 907.265 686.312C892.897 699.258 871.59 712.083 844.376 723.422C779.989 750.249 693.22 765.196 600.014 765.196C506.807 765.196 420.038 750.249 355.652 723.423C328.434 712.081 307.07 699.254 292.647 686.303C278.084 673.227 271.592 660.962 271.563 650.677C271.564 650.637 271.564 650.577 271.564 650.504L271.563 577.211C287.571 588.073 305.979 598.088 326.415 607.143L326.415 607.143C400.845 640.113 498.016 658.108 600.006 658.108C702.007 658.108 799.173 640.134 873.59 607.197ZM873.59 307.412C799.173 274.474 702.007 256.5 600.004 256.5C497.994 256.5 400.832 274.458 326.434 307.358C244.079 343.777 195.73 396.487 195.73 457.207C195.73 457.562 195.74 457.888 195.748 458.118L195.752 458.254C195.754 458.316 195.756 458.369 195.758 458.418L195.757 458.425L195.757 458.434C195.747 458.583 195.723 458.934 195.723 459.339L195.73 1016.87C195.73 1075.46 244.286 1125.66 326.402 1159.88C400.352 1190.69 497.528 1207.5 600.014 1207.5C702.499 1207.5 799.674 1190.69 873.623 1159.88C955.753 1125.65 1004.09 1075.45 1004.09 1016.87V458.669C1004.21 458.16 1004.28 457.584 1004.28 456.952C1004.09 396.38 955.782 343.788 873.59 307.412ZM357.192 376.903C421.619 348.411 507.838 332.543 600.004 332.543C692.154 332.543 778.371 348.427 842.812 376.948C870.425 389.17 892.067 403.108 906.681 417.286C921.402 431.567 928.243 445.322 928.243 457.304C928.243 469.286 921.402 483.041 906.681 497.322C892.067 511.5 870.425 525.438 842.812 537.66C778.371 566.181 692.154 582.065 600.004 582.065C504.761 582.065 421.845 564.736 362.996 539.906C333.547 527.48 310.438 513.308 294.822 498.759C279.103 484.115 271.773 469.878 271.773 457.207C271.773 445.23 278.613 431.482 293.331 417.21C307.943 403.04 329.581 389.113 357.192 376.903Z" fill="#0084D7" stroke="#0084D7" stroke-width="15"/>
</svg>
