<svg width="1200" height="1216" viewBox="0 0 1200 1216" fill="none" xmlns="http://www.w3.org/2000/svg">
<path d="M1017.27 163.233C1007.57 163.233 1000.12 160.519 994.907 155.091C989.769 149.59 987.199 142.027 987.199 132.402V70.1968H975.801C974.353 70.1968 973.123 69.7264 972.11 68.7855C971.096 67.8447 970.59 66.4334 970.59 64.5517V53.9128L988.502 50.9817L994.147 20.5849C994.509 19.1374 995.197 18.0157 996.21 17.2195C997.223 16.4234 998.526 16.0254 1000.12 16.0254H1014.01V51.0903H1043.76V70.1968H1014.01V130.556C1014.01 134.03 1014.85 136.744 1016.51 138.698C1018.25 140.652 1020.6 141.629 1023.57 141.629C1025.23 141.629 1026.61 141.448 1027.69 141.086C1028.85 140.652 1029.83 140.218 1030.62 139.784C1031.49 139.349 1032.25 138.951 1032.9 138.59C1033.55 138.155 1034.21 137.938 1034.86 137.938C1035.65 137.938 1036.3 138.155 1036.81 138.59C1037.32 138.951 1037.86 139.53 1038.44 140.327L1046.47 153.354C1042.56 156.611 1038.08 159.071 1033.01 160.736C1027.95 162.4 1022.7 163.233 1017.27 163.233Z" fill="#0084D7"/>
<path d="M884.148 63.7905C886.391 61.5469 888.743 59.4843 891.204 57.6026C893.737 55.6485 896.379 54.0201 899.129 52.7174C901.951 51.3423 904.955 50.2929 908.139 49.5692C911.324 48.7731 914.798 48.375 918.561 48.375C924.64 48.375 930.032 49.4244 934.737 51.5232C939.441 53.5497 943.349 56.4446 946.461 60.208C949.645 63.8991 952.034 68.35 953.626 73.5609C955.291 78.6994 956.123 84.3807 956.123 90.6048V161.494H929.309V90.6048C929.309 83.8017 927.752 78.5547 924.64 74.8636C921.528 71.1002 916.788 69.2185 910.419 69.2185C905.787 69.2185 901.445 70.2679 897.392 72.3667C893.339 74.4656 889.503 77.3243 885.885 80.943V161.494H859.07V50.112H875.463C878.937 50.112 881.216 51.7404 882.302 54.9972L884.148 63.7905Z" fill="#0084D7"/>
<path d="M831.743 50.1119V161.494H804.82V50.1119H831.743ZM835.434 17.6525C835.434 19.9684 834.963 22.1396 834.023 24.1661C833.082 26.1925 831.815 27.9657 830.223 29.4855C828.703 31.0053 826.894 32.2357 824.795 33.1765C822.696 34.045 820.453 34.4793 818.064 34.4793C815.748 34.4793 813.541 34.045 811.442 33.1765C809.416 32.2357 807.643 31.0053 806.123 29.4855C804.603 27.9657 803.372 26.1925 802.432 24.1661C801.563 22.1396 801.129 19.9684 801.129 17.6525C801.129 15.2641 801.563 13.0206 802.432 10.9217C803.372 8.82293 804.603 7.0136 806.123 5.49376C807.643 3.97391 809.416 2.77976 811.442 1.91128C813.541 0.970425 815.748 0.5 818.064 0.5C820.453 0.5 822.696 0.970425 824.795 1.91128C826.894 2.77976 828.703 3.97391 830.223 5.49376C831.815 7.0136 833.082 8.82293 834.023 10.9217C834.963 13.0206 835.434 15.2641 835.434 17.6525Z" fill="#0084D7"/>
<path d="M728.554 48.375C736.804 48.375 744.295 49.7139 751.026 52.3917C757.829 55.0695 763.619 58.8691 768.395 63.7905C773.244 68.7119 776.971 74.7189 779.577 81.8115C782.182 88.9041 783.485 96.8289 783.485 105.586C783.485 114.416 782.182 122.377 779.577 129.469C776.971 136.562 773.244 142.605 768.395 147.599C763.619 152.593 757.829 156.428 751.026 159.106C744.295 161.784 736.804 163.123 728.554 163.123C720.231 163.123 712.668 161.784 705.865 159.106C699.062 156.428 693.236 152.593 688.387 147.599C683.61 142.605 679.883 136.562 677.205 129.469C674.6 122.377 673.297 114.416 673.297 105.586C673.297 96.8289 674.6 88.9041 677.205 81.8115C679.883 74.7189 683.61 68.7119 688.387 63.7905C693.236 58.8691 699.062 55.0695 705.865 52.3917C712.668 49.7139 720.231 48.375 728.554 48.375ZM728.554 142.496C737.818 142.496 744.657 139.384 749.072 133.16C753.559 126.936 755.802 117.817 755.802 105.803C755.802 93.7892 753.559 84.634 749.072 78.3375C744.657 72.0411 737.818 68.8928 728.554 68.8928C719.145 68.8928 712.161 72.0773 707.602 78.4461C703.115 84.7426 700.871 93.8616 700.871 105.803C700.871 117.745 703.115 126.864 707.602 133.16C712.161 139.384 719.145 142.496 728.554 142.496Z" fill="#0084D7"/>
<path d="M582.678 132.617C585.717 136.308 589.01 138.914 592.557 140.433C596.175 141.953 600.083 142.713 604.281 142.713C608.334 142.713 611.989 141.953 615.246 140.433C618.502 138.914 621.252 136.598 623.496 133.486C625.812 130.373 627.585 126.465 628.815 121.761C630.046 116.984 630.661 111.375 630.661 104.934C630.661 98.4207 630.118 92.9203 629.033 88.4331C628.019 83.8736 626.536 80.1826 624.582 77.36C622.628 74.5375 620.239 72.4748 617.417 71.1721C614.667 69.8694 611.518 69.218 607.972 69.218C602.399 69.218 597.659 70.4122 593.751 72.8005C589.843 75.1164 586.151 78.4094 582.678 82.6795V132.617ZM581.266 65.3099C585.826 60.1714 591 56.0099 596.79 52.8255C602.58 49.641 609.383 48.0488 617.2 48.0488C623.279 48.0488 628.815 49.3154 633.809 51.8484C638.875 54.3815 643.218 58.0725 646.836 62.9215C650.527 67.6982 653.35 73.6328 655.304 80.7254C657.331 87.7456 658.344 95.8152 658.344 104.934C658.344 113.257 657.222 120.965 654.978 128.058C652.735 135.15 649.514 141.302 645.317 146.513C641.191 151.724 636.161 155.813 630.227 158.78C624.365 161.675 617.779 163.122 610.469 163.122C604.245 163.122 598.925 162.182 594.511 160.3C590.096 158.346 586.151 155.668 582.678 152.266V197.862H555.863V50.1115H572.256C575.73 50.1115 578.009 51.7399 579.095 54.9967L581.266 65.3099Z" fill="#0084D7"/>
<path d="M522.984 96.5755C522.984 90.7856 522.151 85.6109 520.487 81.0514C518.895 76.4195 516.615 72.5114 513.648 69.327C510.68 66.1425 507.134 63.718 503.009 62.0534C498.956 60.3165 494.469 59.448 489.547 59.448C483.975 59.448 478.981 60.3165 474.566 62.0534C470.151 63.7904 466.315 66.2873 463.059 69.5441C459.874 72.8009 457.305 76.709 455.351 81.2685C453.397 85.8281 452.094 90.9304 451.443 96.5755H522.984ZM450.9 103.198V105.26C450.9 113.366 451.841 120.495 453.722 126.647C455.604 132.798 458.282 137.973 461.756 142.171C465.23 146.296 469.427 149.408 474.349 151.507C479.27 153.606 484.771 154.655 490.85 154.655C496.278 154.655 500.982 154.076 504.963 152.918C508.943 151.688 512.272 150.349 514.95 148.901C517.7 147.382 519.872 146.043 521.464 144.885C523.056 143.654 524.214 143.039 524.938 143.039C525.879 143.039 526.602 143.401 527.109 144.125L529.932 147.599C528.195 149.77 525.879 151.796 522.984 153.678C520.161 155.56 516.977 157.188 513.43 158.563C509.956 159.866 506.193 160.915 502.14 161.711C498.16 162.508 494.143 162.906 490.09 162.906C482.708 162.906 475.977 161.639 469.898 159.106C463.819 156.501 458.608 152.737 454.265 147.816C449.923 142.894 446.558 136.887 444.169 129.795C441.853 122.63 440.695 114.452 440.695 105.26C440.695 97.5164 441.781 90.3876 443.952 83.874C446.196 77.288 449.38 71.6429 453.505 66.9386C457.703 62.162 462.805 58.4348 468.812 55.757C474.892 53.0791 481.767 51.7402 489.439 51.7402C495.518 51.7402 501.163 52.7896 506.374 54.8885C511.585 56.9873 516.108 60.0632 519.944 64.1161C523.78 68.0966 526.783 73.018 528.954 78.8802C531.198 84.7425 532.32 91.4732 532.32 99.0724C532.32 100.665 532.103 101.75 531.668 102.329C531.234 102.908 530.511 103.198 529.497 103.198H450.9Z" fill="#0084D7"/>
<path d="M337.711 72.3666C342.705 66.1425 348.458 61.1488 354.972 57.3854C361.558 53.6219 368.868 51.7402 376.901 51.7402C382.836 51.7402 388.047 52.6811 392.534 54.5628C397.093 56.4445 400.857 59.1585 403.824 62.7048C406.791 66.2511 409.035 70.5211 410.555 75.5149C412.074 80.5086 412.834 86.1537 412.834 92.4502V161.494H402.413V92.4502C402.413 82.3179 400.097 74.3931 395.465 68.6756C390.833 62.8857 383.777 59.9908 374.296 59.9908C367.275 59.9908 360.689 61.8001 354.538 65.4188C348.458 68.9651 343.03 73.9226 338.254 80.2915V161.494H327.832V53.4772H333.586C335.395 53.4772 336.444 54.3819 336.734 56.1912L337.711 72.3666Z" fill="#0084D7"/>
<path d="M299.975 84.6334C299.975 96.5026 298.201 107.286 294.655 116.984C291.109 126.61 286.115 134.86 279.674 141.736C273.233 148.539 265.489 153.822 256.442 157.586C247.468 161.277 237.553 163.122 226.697 163.122C215.841 163.122 205.926 161.277 196.951 157.586C187.977 153.822 180.269 148.539 173.828 141.736C167.387 134.86 162.393 126.61 158.847 116.984C155.3 107.286 153.527 96.5026 153.527 84.6334C153.527 72.8365 155.3 62.1253 158.847 52.4996C162.393 42.8016 167.387 34.551 173.828 27.748C180.269 20.8725 187.977 15.5531 196.951 11.7897C205.926 8.02624 215.841 6.14453 226.697 6.14453C237.553 6.14453 247.468 8.02624 256.442 11.7897C265.489 15.4807 273.233 20.7639 279.674 27.6394C286.115 34.5149 291.109 42.8016 294.655 52.4996C298.201 62.1253 299.975 72.8365 299.975 84.6334ZM288.467 84.6334C288.467 73.9221 286.984 64.2965 284.016 55.7564C281.049 47.2164 276.851 39.979 271.423 34.0444C265.995 28.1098 259.482 23.5865 251.883 20.4744C244.283 17.29 235.888 15.6978 226.697 15.6978C217.578 15.6978 209.219 17.29 201.619 20.4744C194.02 23.5865 187.47 28.1098 181.97 34.0444C176.542 39.979 172.308 47.2164 169.269 55.7564C166.301 64.2965 164.818 73.9221 164.818 84.6334C164.818 95.417 166.301 105.079 169.269 113.619C172.308 122.087 176.542 129.288 181.97 135.222C187.47 141.157 194.02 145.68 201.619 148.792C209.219 151.904 217.578 153.46 226.697 153.46C235.888 153.46 244.283 151.904 251.883 148.792C259.482 145.68 265.995 141.157 271.423 135.222C276.851 129.288 281.049 122.087 284.016 113.619C286.984 105.079 288.467 95.417 288.467 84.6334Z" fill="#0084D7"/>
<path d="M470.134 641.888L470.156 641.933L470.179 641.978L547.249 793.439L547.269 793.482L547.542 794.089L548.614 796.465C549.555 798.552 550.941 801.623 552.721 805.566C556.281 813.45 561.417 824.817 567.721 838.747C567.877 839.092 568.034 839.44 568.192 839.789L461.604 1052.4C460.419 1049.89 458.911 1046.71 457.107 1042.89C452.25 1032.62 445.254 1017.8 436.701 999.637C419.595 963.309 396.263 913.595 371.357 860.044C321.511 752.87 265.467 630.556 240.344 569.328L240.34 569.319L240.336 569.31C235.179 556.837 233.304 548.492 233.304 544.209C233.304 540.767 234.592 538.33 238.095 536.237C242.14 533.821 249.105 531.989 259.894 531.541L259.896 531.541L286.008 530.449C290.189 530.429 294.704 529.633 298.303 526.827C302.311 523.702 303.829 519.184 303.829 514.698V494.537V491.145L301.281 488.905L298.924 486.831L296.803 484.967L293.98 484.963L293.971 492.463C293.98 484.963 293.979 484.963 293.977 484.963L293.97 484.963L293.942 484.963L293.828 484.963L293.38 484.963L291.627 484.961L284.935 484.953C279.148 484.947 270.834 484.939 260.723 484.929C240.499 484.91 213.086 484.887 184.326 484.872C126.822 484.842 63.8882 484.841 42.3152 484.964L39.5109 484.979L37.405 486.831L35.0474 488.904L32.5 491.144V494.537V515.715C32.5 521.631 36.5568 525.236 40.3072 527.091C43.9245 528.881 48.613 529.848 53.741 530.406L53.9448 530.428L54.1495 530.439C67.116 531.136 77.5843 532.509 85.6819 534.476C93.8732 536.465 99.0241 538.918 101.939 541.356C104.961 543.946 108.699 549.133 113.324 557.854C117.866 566.418 122.889 577.649 128.724 591.606C160.445 667.803 209.963 773.797 259.65 879.879C261.373 883.557 263.096 887.236 264.819 890.914C312.828 993.405 360.437 1095.04 391.979 1169.46L392.008 1169.53L392.037 1169.6C396.921 1180.52 402.335 1189.66 408.431 1196.26C414.547 1202.88 421.874 1207.49 430.421 1207.96C438.979 1208.43 447.079 1204.67 454.536 1198.12C461.964 1191.59 469.323 1181.84 476.724 1168.97L476.775 1168.89L476.823 1168.8C501.829 1122.43 548.139 1028.61 588.128 946.523C593.156 936.202 598.086 926.063 602.863 916.223C607.224 925.815 611.718 935.689 616.296 945.737C653.656 1027.73 696.701 1121.44 719.289 1167.96C724.806 1179.34 730.734 1188.64 737.159 1195.29C743.584 1201.94 751.041 1206.47 759.481 1206.98C768.018 1207.49 775.923 1203.78 782.97 1197.39C789.956 1191.05 796.584 1181.66 802.959 1169.52L803.065 1169.31L803.159 1169.11C835.41 1097.39 898.643 953.711 953.799 827.999C981.381 765.136 1006.95 706.754 1025.62 664.087C1034.95 642.754 1042.57 625.35 1047.84 613.278C1050.48 607.243 1052.54 602.54 1053.93 599.347L1055.52 595.71L1055.93 594.782L1056.03 594.547L1056.06 594.488L1056.06 594.474C1056.06 594.47 1056.07 594.469 1049.19 591.466L1056.07 594.469L1056.13 594.316L1056.19 594.161C1063.97 573.952 1074.65 558.855 1088.06 547.989C1100.78 537.719 1121.33 531.311 1150.87 529.985C1154.88 529.959 1159.23 529.051 1162.64 526.032C1166.27 522.816 1167.5 518.407 1167.5 514.234V493.991V490.598L1164.95 488.358L1162.59 486.286L1160.47 484.418H1157.64V491.918C1157.64 484.418 1157.64 484.418 1157.64 484.418H1157.63H1157.62H1157.61H1157.59H1157.57H1157.55H1157.52H1157.48H1157.45H1157.4H1157.36H1157.31H1157.26H1157.2H1157.14H1157.08H1157.01H1156.94H1156.86H1156.79H1156.7H1156.62H1156.53H1156.43H1156.34H1156.24H1156.13H1156.02H1155.91H1155.8H1155.68H1155.55H1155.43H1155.3H1155.17H1155.03H1154.89H1154.75H1154.6H1154.45H1154.3H1154.14H1153.98H1153.81H1153.65H1153.47H1153.3H1153.12H1152.94H1152.76H1152.57H1152.38H1152.18H1151.99H1151.79H1151.58H1151.38H1151.16H1150.95H1150.73H1150.51H1150.29H1150.06H1149.84H1149.6H1149.37H1149.13H1148.89H1148.64H1148.39H1148.14H1147.89H1147.63H1147.37H1147.11H1146.84H1146.57H1146.3H1146.02H1145.75H1145.46H1145.18H1144.89H1144.6H1144.31H1144.02H1143.72H1143.42H1143.11H1142.8H1142.5H1142.18H1141.87H1141.55H1141.23H1140.91H1140.58H1140.25H1139.92H1139.59H1139.25H1138.91H1138.57H1138.22H1137.87H1137.52H1137.17H1136.82H1136.46H1136.1H1135.74H1135.37H1135H1134.63H1134.26H1133.88H1133.51H1133.13H1132.74H1132.36H1131.97H1131.58H1131.19H1130.79H1130.4H1130H1129.6H1129.19H1128.78H1128.38H1127.97H1127.55H1127.14H1126.72H1126.3H1125.88H1125.45H1125.03H1124.6H1124.17H1123.73H1123.3H1122.86H1122.42H1121.98H1121.54H1121.09H1120.64H1120.19H1119.74H1119.29H1118.83H1118.37H1117.91H1117.45H1116.99H1116.52H1116.06H1115.59H1115.12H1114.64H1114.17H1113.69H1113.21H1112.73H1112.25H1111.76H1111.28H1110.79H1110.3H1109.81H1109.32H1108.82H1108.32H1107.83H1107.33H1106.82H1106.32H1105.81H1105.31H1104.8H1104.29H1103.78H1103.26H1102.75H1102.23H1101.72H1101.2H1100.68H1100.15H1099.63H1099.1H1098.58H1098.05H1097.52H1096.99H1096.45H1095.92H1095.38H1094.85H1094.31H1093.77H1093.23H1092.69H1092.14H1091.6H1091.05H1090.5H1089.96H1089.41H1088.85H1088.3H1087.75H1087.19H1086.64H1086.08H1085.52H1084.96H1084.4H1083.84H1083.28H1082.71H1082.15H1081.58H1081.01H1080.44H1079.87H1079.3H1078.73H1078.16H1077.59H1077.01H1076.44H1075.86H1075.28H1074.7H1074.13H1073.55H1072.96H1072.38H1071.8H1071.22H1070.63H1070.05H1069.46H1068.88H1068.29H1067.7H1067.11H1066.52H1065.93H1065.34H1064.75H1064.16H1063.56H1062.97H1062.37H1061.78H1061.18H1060.59H1059.99H1059.39H1058.79H1058.19H1057.6H1057H1056.4H1055.79H1055.19H1054.59H1053.99H1053.39H1052.78H1052.18H1051.58H1050.97H1050.37H1049.76H1049.16H1048.55H1047.94H1047.34H1046.73H1046.12H1045.52H1044.91H1044.3H1043.69H1043.08H1042.48H1041.87H1041.26H1040.65H1040.04H1039.43H1038.82H1038.21H1037.6H1036.99H1036.38H1035.77H1035.16H1034.55H1033.94H1033.33H1032.72H1032.11H1031.5H1030.89H1030.28H1029.67H1029.06H1028.45H1027.84H1027.23H1026.62H1026.01H1025.4H1024.79H1024.18H1023.57H1022.96H1022.35H1021.74H1021.14H1020.53H1019.92H1019.31H1018.71H1018.1H1017.49H1016.89H1016.28H1015.68H1015.07H1014.47H1013.86H1013.26H1012.65H1012.05H1011.45H1010.85H1010.24H1009.64H1009.04H1008.44H1007.84H1007.24H1006.64H1006.05H1005.45H1004.85H1004.26H1003.66H1003.06H1002.47H1001.88H1001.28H1000.69H1000.1H999.508H998.917H998.328H997.739H997.15H996.563H995.976H995.39H994.805H994.221H993.638H993.055H992.473H991.892H991.312H990.733H990.155H989.578H989.002H988.426H987.852H987.278H986.706H986.134H985.564H984.995H984.426H983.859H983.292H982.727H982.163H981.6H981.038H980.477H979.918H979.359H978.802H978.246H977.691H977.137H976.584H976.033H975.483H974.934H974.387H973.841H973.296H972.752H972.21H971.669H971.129H970.591H970.054H969.518H968.984H968.451H967.92H967.39H966.862H966.335H965.809H965.285H964.763H964.242H963.723H963.205H962.688H962.174H961.66H961.149H960.639H960.13H959.624H959.119H958.615H958.113H957.613H957.115H956.618H956.123H955.63H955.139H954.649H954.161H953.675H953.19H952.708H952.227H951.748H951.271H950.796H950.323H949.852H949.382H948.915H948.449H947.985H947.523H947.064H946.606H946.15H945.696H945.245H944.795H944.347H943.902H943.458H943.017H942.577H942.14H941.705H941.272H940.841H940.412H939.986H939.562H939.14H938.72H938.302H937.887H937.473H937.062H936.654H936.248H935.844H935.442H935.042H934.645H934.251H933.858H933.469H933.081H932.696H932.313H931.933H931.555H931.18H930.807H930.437H930.069H929.703H929.34H928.98H928.622H928.267H927.915H927.565H927.217H926.872H926.53H926.191H923.804L921.856 485.798L918.929 487.87L915.764 490.112V493.991V514.234C915.764 519.282 918.221 523.422 922.036 526.174C925.142 528.497 928.827 530.056 933.015 530.106L952.085 531.034L952.113 531.035L952.141 531.036C963.613 531.508 970.201 532.875 974.806 534.724C979.288 536.525 982.401 538.966 986.884 542.832C992.359 547.762 994.741 557.41 987.981 576.13L786.431 1054.45L660.494 796.79C660.952 795.833 661.305 795.096 661.548 794.59L661.839 793.982L661.865 793.928L768.131 595.196C780.449 574.283 792.255 555.782 798.15 547.316L798.155 547.309C803.492 539.625 806.832 536.319 811.595 534.249C816.872 531.955 824.635 530.842 839.825 530.124C843.826 530.096 848.186 529.188 851.599 526.143C855.228 522.905 856.443 518.474 856.443 514.292V494.13V490.82L853.998 488.589L851.681 486.476L849.543 484.526L846.65 484.517L846.626 492.017C846.65 484.517 846.649 484.517 846.648 484.517L846.644 484.517L846.626 484.517L846.555 484.516L846.274 484.515L845.172 484.512C844.204 484.509 842.777 484.505 840.94 484.5C837.266 484.49 831.953 484.475 825.396 484.459C812.282 484.428 794.193 484.39 774.292 484.364C734.5 484.313 687.43 484.313 658.412 484.517L656.027 484.534L654.09 485.925L651.204 487.998L648.079 490.242V494.089V514.251C648.079 519.312 650.438 523.456 654.352 526.261C657.411 528.501 660.958 529.973 664.993 530.078L673.951 531.056L674.21 531.084L674.469 531.095C685.727 531.539 693.603 533.237 698.843 535.098C704.147 536.982 706.344 538.883 706.848 539.46C708.016 540.894 708.693 541.95 709.122 543.037C709.532 544.079 709.859 545.523 709.751 547.824C709.518 552.763 707.336 560.972 700.602 575.678L625.571 725.338L558.191 587.481L558.174 587.445L558.156 587.409C552.059 575.266 547.255 565.5 543.971 557.543C540.615 549.411 539.255 544.092 539.269 540.609C539.276 539.021 539.573 538.114 539.872 537.562C540.156 537.036 540.67 536.401 541.816 535.704C544.427 534.115 549.4 532.731 558.335 532.036L558.577 532.017L558.817 531.983L572.789 529.981C576.793 529.919 581.001 529.178 584.417 526.778C588.474 523.927 590.212 519.617 590.212 515.169V493.991V488.572L585.067 486.87L579.783 485.122L578.636 484.743L577.428 484.743V492.243C577.428 484.743 577.427 484.743 577.426 484.743H577.421H577.402H577.327L577.03 484.743L575.865 484.743L571.387 484.743C567.499 484.743 561.876 484.744 554.935 484.744C541.053 484.746 521.898 484.748 500.809 484.753C458.631 484.763 408.711 484.784 377.753 484.824L375.344 484.827L373.387 486.233L370.501 488.306L367.377 490.55V494.397V515.657C367.377 518.252 368.092 520.885 369.847 523.176C371.502 525.337 373.656 526.636 375.573 527.467C379.14 529.012 383.848 529.723 388.448 530.327C397.061 531.472 402.617 532.466 406.969 534.135C410.981 535.673 414.141 537.862 417.558 541.901C421.171 546.173 425.016 552.444 430.221 562.24C433.879 569.124 438.058 577.451 443.197 587.691C445.343 591.966 447.657 596.576 450.169 601.553C452.694 606.561 457.677 616.629 462.044 625.475C464.225 629.893 466.248 633.997 467.725 636.996L468.228 638.016C468.739 639.055 469.165 639.92 469.484 640.567L469.965 641.546L470.091 641.801L470.123 641.866L470.131 641.882L470.133 641.886L470.134 641.887C470.134 641.888 470.134 641.888 476.863 638.577L470.134 641.888Z" fill="#0084D7" stroke="#0084D7" stroke-width="15"/>
</svg>
