<svg version="1.1" xmlns="http://www.w3.org/2000/svg" width="200" height="200">
<path d="M0 0 C66 0 132 0 200 0 C200 66 200 132 200 200 C134 200 68 200 0 200 C0 134 0 68 0 0 Z " fill="#403F6B" transform="translate(0,0)"/>
<path d="M0 0 C1.18851563 0.00902344 2.37703125 0.01804687 3.6015625 0.02734375 C4.51679687 0.03894531 5.43203125 0.05054687 6.375 0.0625 C6.375 1.7125 6.375 3.3625 6.375 5.0625 C5.21871094 5.13597656 5.21871094 5.13597656 4.0390625 5.2109375 C3.03617188 5.28570312 2.03328125 5.36046875 1 5.4375 C0.00226563 5.50710937 -0.99546875 5.57671875 -2.0234375 5.6484375 C-4.78008879 5.82613964 -4.78008879 5.82613964 -6.625 8.0625 C-7.02547444 10.38525177 -7.3647104 12.71989357 -7.625 15.0625 C-4.325 15.0625 -1.025 15.0625 2.375 15.0625 C1.715 16.3825 1.055 17.7025 0.375 19.0625 C-1.935 19.0625 -4.245 19.0625 -6.625 19.0625 C-6.625 26.9825 -6.625 34.9025 -6.625 43.0625 C-8.605 43.0625 -10.585 43.0625 -12.625 43.0625 C-13.12 30.6875 -13.12 30.6875 -13.625 18.0625 C-19.895 30.6025 -26.165 43.1425 -32.625 56.0625 C-34.935 56.0625 -37.245 56.0625 -39.625 56.0625 C-39.03589844 54.97710937 -38.44679687 53.89171875 -37.83984375 52.7734375 C-37.07988131 51.32857063 -36.32081352 49.88323296 -35.5625 48.4375 C-34.97758789 47.36822266 -34.97758789 47.36822266 -34.38085938 46.27734375 C-32.72585554 43.0845045 -31.63280296 40.78817545 -31.59375 37.15625 C-33.09628233 32.64865301 -35.09302264 28.44701904 -37.1875 24.1875 C-37.61224609 23.30835937 -38.03699219 22.42921875 -38.47460938 21.5234375 C-39.51796559 19.36638644 -40.56821884 17.21299712 -41.625 15.0625 C-38.9296875 14.59375 -38.9296875 14.59375 -35.625 15.0625 C-33.51204972 17.28179132 -32.17765519 19.86743663 -30.75 22.5625 C-30.3478125 23.27792969 -29.945625 23.99335937 -29.53125 24.73046875 C-28.54221402 26.49660442 -27.58087545 28.27819916 -26.625 30.0625 C-26.13128906 29.06347656 -25.63757813 28.06445312 -25.12890625 27.03515625 C-24.48187605 25.7317186 -23.83473489 24.42833602 -23.1875 23.125 C-22.86201172 22.46564453 -22.53652344 21.80628906 -22.20117188 21.12695312 C-19.73828125 16.17578125 -19.73828125 16.17578125 -18.625 15.0625 C-16.62541636 15.02169217 -14.62454746 15.01995644 -12.625 15.0625 C-12.7075 13.86625 -12.79 12.67 -12.875 11.4375 C-12.89083495 6.97996125 -11.4909892 4.5185458 -8.625 1.0625 C-5.74084117 -0.37957941 -3.20778472 -0.03144887 0 0 Z " fill="#D7E4F7" transform="translate(97.625,71.9375)"/>
<path d="M0 0 C3.67547809 1.76967464 5.5140788 3.31971033 7.875 6.625 C9.39590225 11.18770674 9.70459836 15.23815396 9 20 C6.95957822 24.00797136 4.80867071 26.63903006 1 29 C-3.78690127 29.72766606 -8.43250689 29.55515381 -13 27.9375 C-17.18179696 23.8863842 -18.1831558 19.56698502 -18.4375 13.9375 C-18.28097105 9.25586146 -17.19935631 6.54523267 -14 3 C-9.79326981 -0.60576873 -5.30887002 -0.83331469 0 0 Z " fill="#D5E1F4" transform="translate(136,86)"/>
<path d="M0 0 C2.8125 -0.25 2.8125 -0.25 6 0 C8.66185727 2.87915174 10.11796408 6.18672925 11.6875 9.75 C12.12449219 10.73484375 12.56148437 11.7196875 13.01171875 12.734375 C13.33785156 13.48203125 13.66398438 14.2296875 14 15 C16.33364352 12.07096942 18.04960836 9.11431797 19.6875 5.75 C20.12449219 4.85796875 20.56148437 3.9659375 21.01171875 3.046875 C21.33785156 2.37140625 21.66398437 1.6959375 22 1 C22.66 1 23.32 1 24 1 C26.31 5.62 28.62 10.24 31 15 C33.34789509 11.86947322 34.95588751 9.27872441 36.625 5.8125 C38.90368272 1.09631728 38.90368272 1.09631728 40 0 C43.00003445 -0.14177857 45.99757235 -0.04228771 49 0 C47.69675781 1.39412109 47.69675781 1.39412109 46.3671875 2.81640625 C42.42683421 7.41348509 39.83348521 12.55364964 37.125 17.9375 C36.62742188 18.90751953 36.12984375 19.87753906 35.6171875 20.87695312 C34.40291817 23.24711345 33.19748699 25.62132923 32 28 C29.39529884 25.51318305 27.90499105 23.18465142 26.3125 19.9375 C25.87550781 19.05964844 25.43851563 18.18179688 24.98828125 17.27734375 C24 15 24 15 24 13 C23.34 13 22.68 13 22 13 C21.72414062 13.71542969 21.44828125 14.43085937 21.1640625 15.16796875 C20.01751478 17.95738855 18.73772885 20.62290358 17.375 23.3125 C16.92898437 24.19550781 16.48296875 25.07851562 16.0234375 25.98828125 C15.51683594 26.98408203 15.51683594 26.98408203 15 28 C12.17370611 25.52090508 10.74209724 22.84417518 9.08203125 19.4921875 C8.55029297 18.42355469 8.01855469 17.35492188 7.47070312 16.25390625 C6.92349609 15.13886719 6.37628906 14.02382812 5.8125 12.875 C5.25369141 11.75222656 4.69488281 10.62945312 4.11914062 9.47265625 C0 1.15390339 0 1.15390339 0 0 Z " fill="#D8E5F8" transform="translate(143,87)"/>
<path d="M0 0 C1.65 0 3.3 0 5 0 C5.33 10.23 5.66 20.46 6 31 C9.24723962 26.10936154 9.24723962 26.10936154 12.49194336 21.21704102 C12.89550049 20.61045654 13.29905762 20.00387207 13.71484375 19.37890625 C14.12855225 18.7557251 14.54226074 18.13254395 14.96850586 17.49047852 C16 16 16 16 17 15 C18.99958364 14.95919217 21.00045254 14.95745644 23 15 C21.97918309 17.74835321 20.9593938 20.06015733 19.3125 22.5 C17.65655753 25.65417613 18.0322446 26.62263141 19 30 C19.96187588 31.92641624 20.98627568 33.82255337 22.0625 35.6875 C25 40.79529412 25 40.79529412 25 43 C22.3125 43.5 22.3125 43.5 19 43 C17.39274543 41.0922019 16.25819461 39.14024197 15.078125 36.9453125 C14.03359962 34.8497962 14.03359962 34.8497962 12 33 C11.55269531 33.721875 11.10539062 34.44375 10.64453125 35.1875 C10.03996094 36.115625 9.43539062 37.04375 8.8125 38 C8.22082031 38.928125 7.62914062 39.85625 7.01953125 40.8125 C6.35308594 41.534375 5.68664063 42.25625 5 43 C3.35 43 1.7 43 0 43 C0 28.81 0 14.62 0 0 Z " fill="#DEEBFD" transform="translate(32,72)"/>
<path d="M0 0 C-0.66 1.65 -1.32 3.3 -2 5 C-5.3 4.67 -8.6 4.34 -12 4 C-12.33 5.32 -12.66 6.64 -13 8 C-12.24074219 8.25394531 -11.48148438 8.50789063 -10.69921875 8.76953125 C-9.70535156 9.11371094 -8.71148437 9.45789063 -7.6875 9.8125 C-6.20830078 10.31716797 -6.20830078 10.31716797 -4.69921875 10.83203125 C-2.0863423 11.96263915 -0.68018338 12.72978567 1 15 C1.40439513 18.70695534 1.5094482 21.07814135 -0.3125 24.375 C-3.33184821 27.2825205 -6.44744437 27.16043042 -10.4375 27.1875 C-11.85869141 27.20876953 -11.85869141 27.20876953 -13.30859375 27.23046875 C-16.04501644 26.99614518 -17.66428123 26.39701383 -20 25 C-19.34 23.35 -18.68 21.7 -18 20 C-17.01 20.33 -16.02 20.66 -15 21 C-13.43881572 21.06740865 -11.8749748 21.08514456 -10.3125 21.0625 C-9.50425781 21.05347656 -8.69601563 21.04445313 -7.86328125 21.03515625 C-7.24839844 21.02355469 -6.63351563 21.01195313 -6 21 C-6 19.68 -6 18.36 -6 17 C-6.77085938 16.73445313 -7.54171875 16.46890625 -8.3359375 16.1953125 C-9.84027344 15.66550781 -9.84027344 15.66550781 -11.375 15.125 C-12.37273438 14.77695313 -13.37046875 14.42890625 -14.3984375 14.0703125 C-17 13 -17 13 -19 11 C-19.30078125 8.94140625 -19.30078125 8.94140625 -19.3125 6.5625 C-19.32925781 5.78003906 -19.34601562 4.99757813 -19.36328125 4.19140625 C-18.91392045 1.48074592 -18.15823513 0.65279365 -16 -1 C-10.31632113 -2.89455962 -5.50196983 -2.14711018 0 0 Z " fill="#D7E5F7" transform="translate(27,88)"/>
<path d="M0 0 C1.98 0 3.96 0 6 0 C6.33 11.88 6.66 23.76 7 36 C8.65 36.66 10.3 37.32 12 38 C11.01 40.475 11.01 40.475 10 43 C7.25 42.875 7.25 42.875 4 42 C-0.14345891 37.19629921 -0.55532453 33.57405491 -0.390625 27.5390625 C-0.38496521 26.74849457 -0.37930542 25.95792664 -0.37347412 25.1434021 C-0.35121487 22.63663273 -0.30104153 20.13133187 -0.25 17.625 C-0.22992133 15.9179895 -0.21167296 14.21095643 -0.1953125 12.50390625 C-0.15138484 8.33537804 -0.08243296 4.16793736 0 0 Z " fill="#D3E0F4" transform="translate(106,72)"/>
<path d="M0 0 C2.875 1.3125 2.875 1.3125 5 4 C5.74767762 8.64829768 6.03047497 13.0936213 3.75 17.3125 C1.56105224 19.42327105 0.50430189 19.54005736 -2.5 19.5 C-3.2734375 19.5103125 -4.046875 19.520625 -4.84375 19.53125 C-7 19 -7 19 -8.75390625 17.3125 C-11.02377788 13.10007365 -10.62734586 8.6451789 -10 4 C-7.42652999 -0.25612348 -4.80716724 -0.78484363 0 0 Z " fill="#41426B" transform="translate(134,91)"/>
<path d="M0 0 C1.4540625 0.0309375 1.4540625 0.0309375 2.9375 0.0625 C1.91668309 2.81085321 0.8968938 5.12265733 -0.75 7.5625 C-2.40594247 10.71667613 -2.0302554 11.68513141 -1.0625 15.0625 C-0.10062412 16.98891624 0.92377568 18.88505337 2 20.75 C4.9375 25.85779412 4.9375 25.85779412 4.9375 28.0625 C2.25 28.5625 2.25 28.5625 -1.0625 28.0625 C-2.66975457 26.1547019 -3.80430539 24.20274197 -4.984375 22.0078125 C-6.02890038 19.9122962 -6.02890038 19.9122962 -8.0625 18.0625 C-8.7225 18.3925 -9.3825 18.7225 -10.0625 19.0625 C-9.7325 17.0825 -9.4025 15.1025 -9.0625 13.0625 C-9.3925 13.3925 -9.7225 13.7225 -10.0625 14.0625 C-10.7225 13.7325 -11.3825 13.4025 -12.0625 13.0625 C-10.75139201 11.08239841 -9.43868664 9.10338963 -8.125 7.125 C-7.56522461 6.27905273 -7.56522461 6.27905273 -6.99414062 5.41601562 C-3.44094942 0.07022346 -3.44094942 0.07022346 0 0 Z " fill="#D8E5F9" transform="translate(52.0625,86.9375)"/>
<path d="M0 0 C0.66 0.33 1.32 0.66 2 1 C2 3.31 2 5.62 2 8 C5.3 8 8.6 8 12 8 C11.34 9.32 10.68 10.64 10 12 C7.69 12.33 5.38 12.66 3 13 C2.67 20.26 2.34 27.52 2 35 C0.68 35 -0.64 35 -2 35 C-2.04937279 30.33692986 -2.08570627 25.67401127 -2.10986328 21.01074219 C-2.11993188 19.42380117 -2.13358767 17.83687875 -2.15087891 16.25 C-2.17509001 13.97130753 -2.18647422 11.69285994 -2.1953125 9.4140625 C-2.20563507 8.70255035 -2.21595764 7.99103821 -2.22659302 7.25796509 C-2.22699422 5.50368335 -2.12202209 3.75003291 -2 2 C-1.34 1.34 -0.68 0.68 0 0 Z " fill="#DFEEFD" transform="translate(88,79)"/>
<path d="M0 0 C1.18851563 0.00902344 2.37703125 0.01804687 3.6015625 0.02734375 C4.51679687 0.03894531 5.43203125 0.05054687 6.375 0.0625 C6.375 1.7125 6.375 3.3625 6.375 5.0625 C5.62734375 5.11148438 4.8796875 5.16046875 4.109375 5.2109375 C3.12453125 5.28570312 2.1396875 5.36046875 1.125 5.4375 C0.15046875 5.50710937 -0.8240625 5.57671875 -1.828125 5.6484375 C-4.54837381 6.0511559 -6.26883156 6.69675635 -8.625 8.0625 C-9.615 8.5575 -9.615 8.5575 -10.625 9.0625 C-10.955 19.9525 -11.285 30.8425 -11.625 42.0625 C-10.305 42.0625 -8.985 42.0625 -7.625 42.0625 C-7.625 34.8025 -7.625 27.5425 -7.625 20.0625 C-7.295 20.0625 -6.965 20.0625 -6.625 20.0625 C-6.625 27.6525 -6.625 35.2425 -6.625 43.0625 C-8.605 43.0625 -10.585 43.0625 -12.625 43.0625 C-12.65005615 42.32088623 -12.6751123 41.57927246 -12.70092773 40.81518555 C-12.81686132 37.45994672 -12.93959985 34.10499056 -13.0625 30.75 C-13.10181641 29.58275391 -13.14113281 28.41550781 -13.18164062 27.21289062 C-13.22353516 26.09462891 -13.26542969 24.97636719 -13.30859375 23.82421875 C-13.34525146 22.79256592 -13.38190918 21.76091309 -13.41967773 20.69799805 C-13.52661242 17.95501742 -13.52661242 17.95501742 -14.625 15.0625 C-13.965 15.0625 -13.305 15.0625 -12.625 15.0625 C-12.7075 13.86625 -12.79 12.67 -12.875 11.4375 C-12.89083495 6.97996125 -11.4909892 4.5185458 -8.625 1.0625 C-5.74084117 -0.37957941 -3.20778472 -0.03144887 0 0 Z " fill="#C2CCE6" transform="translate(97.625,71.9375)"/>
<path d="M0 0 C0.66 0 1.32 0 2 0 C3.44932983 4.34798948 3.51669065 8.45595345 3 13 C1.04140138 16.84724728 -1.0682957 20.08727899 -5 22 C-8.01763028 22.23534378 -10.98038766 22.1742084 -14 22 C-13.67 20.68 -13.34 19.36 -13 18 C-11.906875 17.773125 -10.81375 17.54625 -9.6875 17.3125 C-6.01426229 16.33253899 -6.01426229 16.33253899 -4.1875 14 C-2.76920141 10.41692989 -2.06924098 6.90181493 -1.4296875 3.109375 C-1 1 -1 1 0 0 Z " fill="#DBE7FA" transform="translate(142,93)"/>
<path d="M0 0 C0.33 0 0.66 0 1 0 C1 14.19 1 28.38 1 43 C0.67 43 0.34 43 0 43 C0 39.04 0 35.08 0 31 C-0.66 31 -1.32 31 -2 31 C-2 32.65 -2 34.3 -2 36 C-2.33 36 -2.66 36 -3 36 C-3.20625 35.071875 -3.4125 34.14375 -3.625 33.1875 C-4.74446192 29.73995905 -4.74446192 29.73995905 -8.125 28.125 C-9.07375 27.75375 -10.0225 27.3825 -11 27 C-10.67 26.34 -10.34 25.68 -10 25 C-8.66923011 24.65657551 -7.33568021 24.32380126 -6 24 C-5.34 23.34 -4.68 22.68 -4 22 C-3.47792969 21.48953125 -2.95585937 20.9790625 -2.41796875 20.453125 C-0.25445802 16.71019184 -0.42882439 13.00414927 -0.3125 8.75 C-0.27833984 7.90953125 -0.24417969 7.0690625 -0.20898438 6.203125 C-0.12676432 4.13587796 -0.06169843 2.06796126 0 0 Z " fill="#5B5E85" transform="translate(31,72)"/>
<path d="M0 0 C0.33 0 0.66 0 1 0 C1.07347656 0.92232422 1.07347656 0.92232422 1.1484375 1.86328125 C1.22320312 2.67152344 1.29796875 3.47976562 1.375 4.3125 C1.44460937 5.11300781 1.51421875 5.91351563 1.5859375 6.73828125 C1.89564426 9.27224441 1.89564426 9.27224441 4 12 C7.56769552 12.73606499 7.56769552 12.73606499 11 13 C11 13.33 11 13.66 11 14 C9.35 14.33 7.7 14.66 6 15 C5.67 15.99 5.34 16.98 5 18 C-0.56606398 16.6689847 -0.56606398 16.6689847 -2.5 13.6875 C-3.11785828 10.36651175 -2.4045748 9.03092456 -1 6 C-0.62406934 4.0075675 -0.28020455 2.0081326 0 0 Z " fill="#CEDAEE" transform="translate(123,97)"/>
<path d="M0 0 C-0.41153737 4.97093824 -0.79600832 9.44508386 -3 14 C-3.66 14 -4.32 14 -5 14 C-6.00496852 10.98509443 -6.10335303 8.95818308 -6.0625 5.8125 C-6.05347656 4.91144531 -6.04445313 4.01039062 -6.03515625 3.08203125 C-6.02355469 2.39496094 -6.01195313 1.70789063 -6 1 C-4 0 -4 0 0 0 Z " fill="#DAE8FB" transform="translate(124,94)"/>
<path d="M0 0 C0.99 0.33 1.98 0.66 3 1 C4.72795352 1.06802967 6.45835365 1.08495645 8.1875 1.0625 C9.08855469 1.05347656 9.98960938 1.04445313 10.91796875 1.03515625 C11.94857422 1.01775391 11.94857422 1.01775391 13 1 C12.34 2.32 11.68 3.64 11 5 C9.68 4.67 8.36 4.34 7 4 C7 4.99 7 5.98 7 7 C4.36 6.67 1.72 6.34 -1 6 C-1.33 5.01 -1.66 4.02 -2 3 C-1.34 2.01 -0.68 1.02 0 0 Z " fill="#D1DCF0" transform="translate(9,108)"/>
<path d="M0 0 C1.32 0.66 2.64 1.32 4 2 C4 5.3674681 3.68568426 7.99299978 3 11.25 C2.814375 12.14203125 2.62875 13.0340625 2.4375 13.953125 C2.293125 14.62859375 2.14875 15.3040625 2 16 C1.67 16 1.34 16 1 16 C0.97421875 15.39671875 0.9484375 14.7934375 0.921875 14.171875 C0.59668017 8.89464661 0.59668017 8.89464661 -2.0625 4.4375 C-2.701875 3.963125 -3.34125 3.48875 -4 3 C-2.68 3 -1.36 3 0 3 C0 2.01 0 1.02 0 0 Z " fill="#CEDAEF" transform="translate(138,88)"/>
<path d="M0 0 C3.3 0 6.6 0 10 0 C10 1.32 10 2.64 10 4 C6.04 4 2.08 4 -2 4 C-1.34 2.68 -0.68 1.36 0 0 Z " fill="#E2EDFE" transform="translate(93,73)"/>
<path d="M0 0 C1.32 0.33 2.64 0.66 4 1 C1.525 5.455 1.525 5.455 -1 10 C-4 7 -4 7 -5 4 C-2.75 1.9375 -2.75 1.9375 0 0 Z " fill="#474A70" transform="translate(159,93)"/>
<path d="M0 0 C1.5 1.375 1.5 1.375 3 3 C3 3.66 3 4.32 3 5 C1.02253397 5.73080266 -0.98072489 6.39421747 -3 7 C-3.66 6.67 -4.32 6.34 -5 6 C-3.35 4.02 -1.7 2.04 0 0 Z " fill="#474D70" transform="translate(44,104)"/>
<path d="M0 0 C3.63 0 7.26 0 11 0 C9.02 0.99 9.02 0.99 7 2 C7.33 3.32 7.66 4.64 8 6 C6.02 6.33 4.04 6.66 2 7 C2.99 5.02 3.98 3.04 5 1 C3.35 1 1.7 1 0 1 C0 0.67 0 0.34 0 0 Z " fill="#595F7D" transform="translate(50,86)"/>
<path d="M0 0 C1.4540625 0.0309375 1.4540625 0.0309375 2.9375 0.0625 C-0.0625 2.0625 -0.0625 2.0625 -2.0625 2.0625 C-1.4025 2.7225 -0.7425 3.3825 -0.0625 4.0625 C-0.0625 5.0525 -0.0625 6.0425 -0.0625 7.0625 C-2.5375 6.0725 -2.5375 6.0725 -5.0625 5.0625 C-3.9375 0.08035714 -3.9375 0.08035714 0 0 Z " fill="#4A5172" transform="translate(18.0625,90.9375)"/>
<path d="M0 0 C1.32 0.33 2.64 0.66 4 1 C4.66 3.31 5.32 5.62 6 8 C5.01 8.495 5.01 8.495 4 9 C2.68 6.03 1.36 3.06 0 0 Z " fill="#4B5073" transform="translate(50,101)"/>
<path d="M0 0 C1.65 0 3.3 0 5 0 C4.34 1.65 3.68 3.3 3 5 C1.68 4.67 0.36 4.34 -1 4 C-0.67 2.68 -0.34 1.36 0 0 Z " fill="#CFD8EF" transform="translate(22,88)"/>
<path d="M0 0 C2.31 0.66 4.62 1.32 7 2 C6.67 2.66 6.34 3.32 6 4 C4.02 4 2.04 4 0 4 C-0.33 3.01 -0.66 2.02 -1 1 C-0.67 0.67 -0.34 0.34 0 0 Z " fill="#E1EDFD" transform="translate(16,111)"/>
<path d="M0 0 C0.66 0 1.32 0 2 0 C2 1.98 2 3.96 2 6 C0.68 6.33 -0.64 6.66 -2 7 C-1.125 1.125 -1.125 1.125 0 0 Z " fill="#D2E1F3" transform="translate(44,99)"/>
</svg>
