<svg id="Layer_2" data-name="Layer 2" xmlns="http://www.w3.org/2000/svg" viewBox="0 0 24 24">
  <defs>
    <style>
      .cls-1 {
        fill: #005252;
      }

      .cls-1, .cls-2, .cls-3 {
        stroke-width: 0px;
      }

      .cls-2 {
        fill: #4dc0b3;
      }

      .cls-3 {
        fill: #fff;
      }
    </style>
  </defs>
  <g id="Layer_1-2" data-name="Layer 1">
    <rect class="cls-3" width="24" height="24"/>
    <path class="cls-1" d="M22.3,9.7c0,.22-.16.39-.38.39s-.38-.17-.38-.39.17-.39.38-.39.38.18.38.39ZM22.23,9.7c0-.18-.14-.32-.31-.32s-.31.15-.31.32.14.32.31.32.31-.14.31-.32ZM21.97,9.72l.1.13s0,.04-.01.05c-.02,0-.04,0-.05-.02l-.12-.16h-.04v.14s-.01.04-.04.04c-.02,0-.04-.02-.04-.04v-.34s.01-.04.04-.04h.12c.06,0,.15.02.15.12,0,.08-.06.11-.11.12ZM22,9.61s-.04-.06-.08-.06h-.08v.11h.08s.08,0,.08-.06Z"/>
    <g>
      <g>
        <path class="cls-1" d="M14.42,14.85c-.17,0-.33-.06-.46-.19l-2.6-2.66,2.6-2.66c.13-.13.29-.19.46-.19.36,0,.64.3.64.64,0,.16-.06.33-.18.45l-1.73,1.77,1.73,1.77c.12.13.18.29.18.45,0,.34-.27.63-.64.63Z"/>
        <path class="cls-1" d="M10.63,14.85c-.35,0-.64-.29-.64-.64v-4.43c0-.35.29-.64.64-.64s.64.29.64.64v4.43c0,.35-.29.64-.64.64Z"/>
      </g>
      <path class="cls-1" d="M18.64,14.85c-1.65,0-2.92-1.11-2.92-2.85,0-1.56,1.09-2.85,2.92-2.85.52,0,1.08.13,1.52.4.2.12.31.33.31.55,0,.33-.27.63-.64.64-.11,0-.23-.03-.33-.09-.24-.13-.54-.24-.86-.24-1,0-1.62.69-1.62,1.59,0,.97.68,1.59,1.62,1.59.34,0,.74-.12,1-.3v-.58h-.43c-.35,0-.64-.29-.64-.64s.29-.64.64-.64h1.07c.35,0,.64.29.64.64v1.47c0,.19-.08.37-.21.51-.54.52-1.28.81-2.07.81Z"/>
      <circle class="cls-2" cx="3.75" cy="9.82" r=".68"/>
      <circle class="cls-2" cx="7.88" cy="9.82" r=".68"/>
      <path class="cls-1" d="M5.82,14.85c-1.49,0-2.71-1.21-2.71-2.71v-.43c0-.35.29-.64.64-.64s.64.29.64.64v.45c0,.79.47,1.43,1.43,1.43.9,0,1.43-.64,1.43-1.43v-.45c0-.35.29-.64.64-.64s.64.29.64.64v.43c0,1.49-1.21,2.71-2.71,2.71Z"/>
    </g>
  </g>
</svg>