<svg width="24" height="24" viewBox="0 0 24 24" fill="none" xmlns="http://www.w3.org/2000/svg">
<path d="M17.5 1H6.5C3.475 1 1 3.475 1 6.5V17.5C1 20.525 3.475 23 6.5 23H17.5C20.525 23 23 20.525 23 17.5V6.5C23 3.475 20.525 1 17.5 1ZM18.8062 9.31875L16.8125 11.3125L17.5688 12.0688L18.325 12.825C18.6 13.1 18.6 13.5125 18.325 13.7875C18.05 14.0625 17.6375 14.0625 17.3625 13.7875L17.0875 13.5125L13.9937 16.6063C13.7187 16.8813 13.4438 17.0875 13.1 17.1562C12.7563 17.2938 12.4125 17.3625 12.0688 17.3625C11.725 17.3625 11.3813 17.2938 11.0375 17.1562C10.6938 17.0187 10.4188 16.8125 10.1438 16.6063L9.31875 15.7812L6.29375 18.8062C6.01875 19.0812 5.60625 19.0812 5.33125 18.8062C5.05625 18.5312 5.05625 18.1188 5.33125 17.8438L8.35625 14.8188L7.53125 13.9937C7.25625 13.7187 7.05 13.4438 6.98125 13.1C6.84375 12.7563 6.775 12.4125 6.775 12.0688C6.775 11.725 6.84375 11.3813 6.98125 11.0375C7.11875 10.6938 7.325 10.4188 7.53125 10.1438L10.625 7.05L10.35 6.775C10.075 6.5 10.075 6.0875 10.35 5.8125C10.625 5.5375 11.0375 5.5375 11.3125 5.8125L12.0688 6.56875L12.825 7.325L14.8188 5.33125C15.0938 5.05625 15.5062 5.05625 15.7812 5.33125C16.0563 5.60625 16.0563 6.01875 15.7812 6.29375L13.7875 8.2875L15.7812 10.2812L17.775 8.2875C18.05 8.0125 18.4625 8.0125 18.7375 8.2875C19.0812 8.5625 19.0812 9.04375 18.8062 9.31875Z" fill="#2196F3"/>
</svg>
