<svg width="24" height="24" viewBox="0 0 24 24" fill="none" xmlns="http://www.w3.org/2000/svg">
<path d="M23.4585 2.54154C23.1138 2.19692 22.6462 2 22.1538 2H5.53846C5.04615 2 4.57846 2.19692 4.23385 2.54154C3.88923 2.88615 3.69231 3.35385 3.69231 3.84615V5.69231H1.84615C1.35385 5.69231 0.886154 5.88923 0.541539 6.23385C0.196923 6.57846 0 7.04615 0 7.53846V20.4615C0 20.9538 0.196923 21.4215 0.541539 21.7662C0.886154 22.1108 1.35385 22.3077 1.84615 22.3077H18.4615C18.9538 22.3077 19.4215 22.1108 19.7662 21.7662C20.1108 21.4215 20.3077 20.9538 20.3077 20.4615V18.6154H22.1538C22.6462 18.6154 23.1138 18.4185 23.4585 18.0738C23.8031 17.7292 24 17.2615 24 16.7692V3.84615C24 3.35385 23.8031 2.88615 23.4585 2.54154ZM7.77846 17.1015C8.03692 17.3231 8.07385 17.7046 7.85231 17.9631C7.72923 18.1108 7.55692 18.1846 7.38462 18.1846C7.24923 18.1846 7.10154 18.1354 6.99077 18.0369L4.91077 16.3015C4.77538 16.1908 4.68923 16.0062 4.68923 15.8338C4.68923 15.6615 4.77538 15.4769 4.91077 15.3662L6.99077 13.6308C7.24923 13.4092 7.64308 13.4462 7.85231 13.7046C8.07385 13.9631 8.03692 14.3569 7.77846 14.5662L6.26462 15.8215L7.77846 17.0769V17.1015ZM8.19692 19.44L10.9662 11.8215C11.0769 11.5015 11.4338 11.3415 11.7538 11.4523C12.0738 11.5631 12.2338 11.92 12.1231 12.24L9.35385 19.8585C9.26769 20.1046 9.02154 20.2646 8.77539 20.2646C8.70154 20.2646 8.64 20.2646 8.56615 20.2277C8.24615 20.1169 8.08615 19.76 8.19692 19.44ZM15.3969 16.3138L13.3169 18.0492C13.2062 18.1477 13.0585 18.1969 12.9231 18.1969C12.7508 18.1969 12.5662 18.1231 12.4554 17.9754C12.2338 17.7169 12.2708 17.3231 12.5292 17.1138L14.0431 15.8585L12.5292 14.6031C12.2708 14.3815 12.2338 14 12.4554 13.7415C12.6769 13.4831 13.0585 13.4462 13.3169 13.6677L15.3969 15.4031C15.5323 15.5138 15.6185 15.6985 15.6185 15.8708C15.6185 16.0431 15.5323 16.2277 15.3969 16.3385V16.3138ZM18.4615 9.38461H1.84615V7.53846H18.4615V9.38461ZM22.1538 16.7692H20.3077V7.53846C20.3077 7.04615 20.1108 6.57846 19.7662 6.23385C19.4215 5.88923 18.9538 5.69231 18.4615 5.69231H5.53846V3.84615H22.1538V16.7692Z" fill="#673AB7"/>
<path d="M6.99076 18.0492C7.10153 18.1477 7.24922 18.1969 7.38461 18.1969C7.55692 18.1969 7.74153 18.1231 7.8523 17.9754C8.07384 17.7169 8.03692 17.3231 7.77845 17.1138L6.26461 15.8585L7.77845 14.6031C8.03692 14.3815 8.07384 14 7.8523 13.7415C7.63076 13.4831 7.24922 13.4462 6.99076 13.6677L4.91076 15.4031C4.77538 15.5138 4.68922 15.6985 4.68922 15.8708C4.68922 16.0431 4.77538 16.2277 4.91076 16.3385L6.99076 18.0738V18.0492Z" fill="white"/>
<path d="M12.4554 17.9754C12.5785 18.1231 12.7508 18.1969 12.9231 18.1969C13.0585 18.1969 13.2062 18.1477 13.3169 18.0492L15.3969 16.3139C15.5323 16.2031 15.6185 16.0185 15.6185 15.8462C15.6185 15.6739 15.5323 15.4892 15.3969 15.3785L13.3169 13.6431C13.0585 13.4215 12.6646 13.4585 12.4554 13.7169C12.2338 13.9754 12.2708 14.3692 12.5292 14.5785L14.0431 15.8339L12.5292 17.0892C12.2708 17.3108 12.2338 17.6923 12.4554 17.9508V17.9754Z" fill="white"/>
<path d="M8.55384 20.2277C8.62769 20.2523 8.68923 20.2646 8.76307 20.2646C9.00923 20.2646 9.25538 20.1046 9.34154 19.8585L12.1108 12.24C12.2215 11.92 12.0615 11.5631 11.7415 11.4523C11.4215 11.3415 11.0646 11.5015 10.9538 11.8215L8.18461 19.44C8.07384 19.76 8.23384 20.1169 8.55384 20.2277Z" fill="white"/>
</svg>
