<svg width="24" height="24" viewBox="0 0 24 24" fill="none" xmlns="http://www.w3.org/2000/svg">
<path d="M12.934 14.2161C11.494 14.2161 10.3259 13.0481 10.3259 11.6081C10.3259 10.168 11.494 9 12.934 9C14.374 9 15.542 10.168 15.542 11.6081C15.542 13.0481 14.37 14.2161 12.934 14.2161ZM12.934 10.152C12.134 10.152 11.482 10.804 11.482 11.6041C11.482 12.4041 12.13 13.0561 12.934 13.0561C13.734 13.0561 14.386 12.4041 14.386 11.6041C14.39 10.808 13.734 10.152 12.934 10.152Z" fill="#384B5D"/>
<path d="M5.50985 9.00409H6.29787C6.40587 9.00409 6.48987 9.08809 6.48987 9.19609V11.9642C6.48987 12.6002 6.65387 13.0562 7.29389 13.0562C8.23391 13.0562 8.70192 12.5282 8.70192 11.2721V9.19609C8.70192 9.08809 8.78592 9.00409 8.89393 9.00409H9.67394C9.78195 9.00409 9.86595 9.08809 9.86595 9.19609V14.0242C9.86595 14.1322 9.78195 14.2162 9.67394 14.2162H8.89393C8.78592 14.2162 8.70192 14.1322 8.70192 14.0242V13.5362C8.44992 14.0762 7.8339 14.2082 6.94588 14.2082C5.82985 14.2082 5.31384 13.6442 5.31384 12.2282V9.19609C5.32184 9.09209 5.40184 9.00409 5.50985 9.00409Z" fill="#384B5D"/>
<path d="M16.1421 9.00409H16.9221C17.0301 9.00409 17.1141 9.08809 17.1141 9.19609V9.68411C17.1141 9.68411 17.2741 9.02409 18.7062 9.00409C18.7142 9.00409 18.7262 9.00409 18.7302 9.00409C18.8462 9.00409 18.9382 9.10009 18.9222 9.21209L18.8222 10.0321C18.8222 10.1401 18.7342 10.2241 18.6302 10.2161C18.5902 10.2161 18.5542 10.2161 18.5142 10.2161C17.9622 10.2161 17.4661 10.5841 17.2181 11.3601C17.1341 11.6121 17.1021 11.9002 17.1021 12.2122V14.0322C17.1021 14.1402 17.0181 14.2242 16.9101 14.2242H16.1301C16.0221 14.2242 15.9381 14.1402 15.9381 14.0322V9.19609C15.9501 9.09209 16.0341 9.00409 16.1421 9.00409Z" fill="#384B5D"/>
<path d="M23.9982 11.5161C23.9742 10.8681 23.7302 10.3041 23.2822 9.82808C22.4262 8.91606 21.0741 8.76805 20.0581 9.36006C19.1301 9.90008 18.5781 10.9801 18.8021 12.1321C18.9941 13.1082 19.7421 13.9282 20.7501 14.1762C22.3742 14.4282 22.8582 13.5282 22.8262 13.5402C22.8382 13.5322 22.8342 14.0242 22.8342 14.0242C22.8342 14.1322 22.9422 14.2162 23.0502 14.2162H23.8062C23.9142 14.2162 23.9982 14.1282 23.9982 14.0242V11.5161C23.9982 11.5161 24.0022 11.5161 23.9982 11.5161ZM19.9301 11.6201C19.9381 10.8201 20.5981 10.1801 21.4022 10.1801C22.1822 10.1881 22.8302 10.8401 22.8222 11.6321C22.8302 12.4521 22.1302 13.0522 21.3581 13.0402C20.5701 13.0281 19.9221 12.4121 19.9301 11.6201Z" fill="#384B5D"/>
<path d="M5.43386 14.0881C5.16585 13.8841 5.07385 13.5281 4.94585 13.1041C4.93785 13.0721 4.90585 13.0521 4.87785 13.0521L2.19778 13.0601C2.13378 13.0601 2.10178 12.9921 2.14178 12.9401L4.85785 9.76002C4.86985 9.74802 4.87785 9.72802 4.88185 9.70802V9.188C4.88185 9.176 4.88185 9.164 4.88185 9.148C4.88185 9.136 4.88185 9.124 4.87385 9.116C4.84985 9.048 4.77784 9 4.61384 9H0.289741C0.157738 9 0.0497355 9.108 0.0497355 9.24001V9.93202C0.0497355 10.064 0.157738 10.172 0.289741 10.172H1.48977H2.7938C2.8578 10.172 2.8898 10.24 2.8498 10.292L0.401744 13.1601C0.177738 13.4121 -0.0502668 13.6601 0.00973456 13.9361C0.0217348 14.0201 0.0617358 14.0961 0.109737 14.1601C0.141738 14.2001 0.185739 14.2161 0.22974 14.2161H5.38986C5.45386 14.2161 5.48586 14.1321 5.43386 14.0881Z" fill="#384B5D"/>
</svg>
