<?xml version="1.0" encoding="UTF-8" standalone="no"?>
<svg
   viewBox="0 0 256 256"
   version="1.1"
   id="svg1"
   sodipodi:docname="airplane takeoff coral_purple.svg"
   xmlns:inkscape="http://www.inkscape.org/namespaces/inkscape"
   xmlns:sodipodi="http://sodipodi.sourceforge.net/DTD/sodipodi-0.dtd"
   xmlns:xlink="http://www.w3.org/1999/xlink"
   xmlns="http://www.w3.org/2000/svg"
   xmlns:svg="http://www.w3.org/2000/svg">
  <defs
     id="defs3">
    <linearGradient
       id="linearGradient1"
       inkscape:collect="always">
      <stop
         style="stop-color:#a03291;stop-opacity:1;"
         offset="0"
         id="stop1" />
      <stop
         style="stop-color:#ff7c66;stop-opacity:1;"
         offset="0.76340693"
         id="stop2" />
    </linearGradient>
    <linearGradient
       inkscape:collect="always"
       xlink:href="#linearGradient1"
       id="linearGradient2"
       x1="232.4884"
       y1="23.847498"
       x2="23.977745"
       y2="232.35815"
       gradientUnits="userSpaceOnUse" />
  </defs>
  <defs
     id="defs1" />
  <sodipodi:namedview
     id="namedview1"
     pagecolor="#ffffff"
     bordercolor="#000000"
     borderopacity="0.25"
     inkscape:showpageshadow="2"
     inkscape:pageopacity="0.0"
     inkscape:pagecheckerboard="0"
     inkscape:deskcolor="#d1d1d1" />
  <path
     id="line1"
     style="baseline-shift:baseline;display:inline;overflow:visible;vector-effect:none;fill:url(#linearGradient2);stroke-linecap:round;stroke-linejoin:round;enable-background:accumulate;stop-color:#000000;stop-opacity:1;opacity:1;fill-opacity:1"
     d="M 196.69531 48.021484 C 189.71554 47.994394 182.66989 49.784216 176.3125 53.525391 A 8.0008 8.0008 0 0 0 176.26758 53.550781 L 124.70703 84.34375 L 70.763672 64.492188 A 8.0008 8.0008 0 0 0 65.173828 64.515625 L 58.023438 67.216797 A 8.0008 8.0008 0 0 0 57.699219 67.347656 C 47.295905 71.806018 44.868451 86.205405 53.181641 93.839844 L 74.994141 115.0293 L 54.828125 127.23242 L 26.558594 117.68945 A 8.0008 8.0008 0 0 0 20.486328 118.08203 L 17.480469 119.55273 C 17.473222 119.55597 17.466223 119.55925 17.458984 119.5625 L 17.337891 119.62305 L 17.335938 119.62305 C 7.3512204 124.20875 4.9729174 138.11288 12.953125 145.73438 L 12.957031 145.74023 C 12.964348 145.74722 12.971181 145.75475 12.978516 145.76172 L 48.992188 181.03516 A 8.0008 8.0008 0 0 0 49.115234 181.1543 C 61.987738 193.23484 81.359528 195.43555 96.615234 186.55273 A 8.0008 8.0008 0 0 0 96.691406 186.50977 L 244.10156 98.509766 A 8.0008 8.0008 0 0 0 246.30859 86.722656 L 227.67969 62.822266 A 8.0008 8.0008 0 0 0 227.5625 62.675781 C 219.77914 53.159164 208.32826 48.06664 196.69531 48.021484 z M 196.67578 63.972656 C 203.6328 63.987486 210.45638 67.046093 215.16211 72.789062 L 228.12109 89.414062 L 88.564453 172.72656 C 79.365853 178.08255 67.836225 176.77258 60.072266 169.49219 C 60.069866 169.49019 60.066853 169.48833 60.064453 169.48633 L 24.126953 134.28516 A 8.0008 8.0008 0 0 0 24.001953 134.16406 A 8.0008 8.0008 0 0 0 24.363281 133.99805 L 24.558594 133.90234 L 53.232422 143.58008 A 8.0008 8.0008 0 0 0 59.931641 142.84375 L 92.140625 123.35547 A 8.0008 8.0008 0 0 0 93.574219 110.77148 L 64.224609 82.261719 A 8.0008 8.0008 0 0 0 64.007812 82.058594 L 68.035156 80.537109 L 122.76758 100.67773 A 8.0008 8.0008 0 0 0 129.63086 100.03906 L 184.42773 67.314453 L 184.43945 67.308594 C 188.28037 65.051094 192.50152 63.96376 196.67578 63.972656 z M 24 208 A 8 8 0 0 0 16 216 A 8 8 0 0 0 24 224 L 168 224 A 8 8 0 0 0 176 216 A 8 8 0 0 0 168 208 L 24 208 z " />
</svg>
