<?xml version="1.0" encoding="UTF-8" standalone="no"?>
<svg
   viewBox="0 0 256 256"
   version="1.1"
   id="svg3"
   sodipodi:docname="alien coral_purple.svg"
   xmlns:inkscape="http://www.inkscape.org/namespaces/inkscape"
   xmlns:sodipodi="http://sodipodi.sourceforge.net/DTD/sodipodi-0.dtd"
   xmlns:xlink="http://www.w3.org/1999/xlink"
   xmlns="http://www.w3.org/2000/svg"
   xmlns:svg="http://www.w3.org/2000/svg">
  <defs
     id="defs3">
    <linearGradient
       id="linearGradient1"
       inkscape:collect="always">
      <stop
         style="stop-color:#a03291;stop-opacity:1;"
         offset="0"
         id="stop1" />
      <stop
         style="stop-color:#ff7c66;stop-opacity:1;"
         offset="0.76340693"
         id="stop2" />
    </linearGradient>
    <linearGradient
       inkscape:collect="always"
       xlink:href="#linearGradient1"
       id="linearGradient2"
       x1="232.4884"
       y1="23.847498"
       x2="23.977745"
       y2="232.35815"
       gradientUnits="userSpaceOnUse" />
  </defs>
  <defs
     id="defs1" />
  <sodipodi:namedview
     id="namedview3"
     pagecolor="#ffffff"
     bordercolor="#000000"
     borderopacity="0.25"
     inkscape:showpageshadow="2"
     inkscape:pageopacity="0.0"
     inkscape:pagecheckerboard="0"
     inkscape:deskcolor="#d1d1d1" />
  <path
     id="path1"
     style="baseline-shift:baseline;display:inline;overflow:visible;vector-effect:none;fill:url(#linearGradient2);stroke-linecap:round;stroke-linejoin:round;enable-background:accumulate;stop-color:#000000;stop-opacity:1;opacity:1;fill-opacity:1"
     d="M 128 16 C 75.07543 16 32 59.075391 32 112 C 32 139.3727 46.873966 170.13527 65.607422 195.03516 C 74.97415 207.4851 85.372726 218.39933 95.890625 226.43945 C 106.40852 234.47958 117.025 240 128 240 C 138.975 240 149.59148 234.47958 160.10938 226.43945 C 170.62727 218.39933 181.02585 207.4851 190.39258 195.03516 C 209.12603 170.13527 224 139.3727 224 112 C 224 59.075391 180.92457 16 128 16 z M 128 32 C 172.27754 32 208 67.722427 208 112 C 208 133.2273 194.87397 162.4659 177.60742 185.41602 C 168.97415 196.89107 159.37274 206.86239 150.39062 213.72852 C 141.40854 220.59464 133.025 224 128 224 C 122.975 224 114.59147 220.59464 105.60938 213.72852 C 96.627264 206.86239 87.02585 196.89107 78.392578 185.41602 C 61.126034 162.4659 48 133.2273 48 112 C 48 67.722427 83.722456 32 128 32 z M 80 96 C 71.2582 96 64 103.2582 64 112 C 64 133.99663 82.00337 152 104 152 C 112.7418 152 120 144.7418 120 136 C 120 114.00337 101.99663 96 80 96 z M 176 96 C 154.00337 96 136 114.00337 136 136 C 136 144.7418 143.2582 152 152 152 C 173.99663 152 192 133.99663 192 112 C 192 103.2582 184.7418 96 176 96 z M 80 112 C 93.349591 112 104 122.65041 104 136 C 90.650409 136 80 125.34959 80 112 z M 176 112 C 176 125.34959 165.34959 136 152 136 C 152 122.65041 162.65041 112 176 112 z M 112 176 A 8 8 0 0 0 104 184 A 8 8 0 0 0 112 192 L 144 192 A 8 8 0 0 0 152 184 A 8 8 0 0 0 144 176 L 112 176 z " />
</svg>
