<?xml version="1.0" encoding="UTF-8" standalone="no"?>
<svg
   viewBox="0 0 256 256"
   version="1.1"
   id="svg1"
   sodipodi:docname="anchor simple coral_purple.svg"
   xmlns:inkscape="http://www.inkscape.org/namespaces/inkscape"
   xmlns:sodipodi="http://sodipodi.sourceforge.net/DTD/sodipodi-0.dtd"
   xmlns:xlink="http://www.w3.org/1999/xlink"
   xmlns="http://www.w3.org/2000/svg"
   xmlns:svg="http://www.w3.org/2000/svg">
  <defs
     id="defs3">
    <linearGradient
       id="linearGradient1"
       inkscape:collect="always">
      <stop
         style="stop-color:#a03291;stop-opacity:1;"
         offset="0"
         id="stop1" />
      <stop
         style="stop-color:#ff7c66;stop-opacity:1;"
         offset="0.76340693"
         id="stop2" />
    </linearGradient>
    <linearGradient
       inkscape:collect="always"
       xlink:href="#linearGradient1"
       id="linearGradient2"
       x1="232.4884"
       y1="23.847498"
       x2="23.977745"
       y2="232.35815"
       gradientUnits="userSpaceOnUse" />
  </defs>
  <defs
     id="defs1" />
  <sodipodi:namedview
     id="namedview1"
     pagecolor="#ffffff"
     bordercolor="#000000"
     borderopacity="0.25"
     inkscape:showpageshadow="2"
     inkscape:pageopacity="0.0"
     inkscape:pagecheckerboard="0"
     inkscape:deskcolor="#d1d1d1" />
  <path
     id="circle1"
     style="baseline-shift:baseline;display:inline;overflow:visible;vector-effect:none;fill:url(#linearGradient2);stroke-linecap:round;stroke-linejoin:round;enable-background:accumulate;stop-color:#000000;stop-opacity:1;opacity:1;fill-opacity:1"
     d="M 128 32 C 110.42165 32 96 46.421645 96 64 C 96 78.819408 106.24991 91.395984 120 94.978516 L 120 207.64258 C 77.714052 203.85145 44.197599 170.28903 40.402344 128 L 56 128 A 8 8 0 0 0 64 120 A 8 8 0 0 0 56 112 L 32 112 A 8.0008 8.0008 0 0 0 24 120 C 24 177.34289 70.657152 224 128 224 C 185.34285 224 232 177.34289 232 120 A 8.0008 8.0008 0 0 0 224 112 L 200 112 A 8 8 0 0 0 192 120 A 8 8 0 0 0 200 128 L 215.59766 128 C 211.8024 170.28903 178.28595 203.85145 136 207.64258 L 136 94.978516 C 149.75009 91.395984 160 78.819408 160 64 C 160 46.421645 145.57835 32 128 32 z M 128 48 C 136.93131 48 144 55.068687 144 64 C 144 72.931313 136.93131 80 128 80 C 119.06869 80 112 72.931313 112 64 C 112 55.068687 119.06869 48 128 48 z " />
</svg>
