<?xml version="1.0" encoding="UTF-8" standalone="no"?>
<svg
   viewBox="0 0 256 256"
   version="1.1"
   id="svg1"
   sodipodi:docname="arrow fat line left coral_purple.svg"
   xmlns:inkscape="http://www.inkscape.org/namespaces/inkscape"
   xmlns:sodipodi="http://sodipodi.sourceforge.net/DTD/sodipodi-0.dtd"
   xmlns:xlink="http://www.w3.org/1999/xlink"
   xmlns="http://www.w3.org/2000/svg"
   xmlns:svg="http://www.w3.org/2000/svg">
  <defs
     id="defs3">
    <linearGradient
       id="linearGradient1"
       inkscape:collect="always">
      <stop
         style="stop-color:#a03291;stop-opacity:1;"
         offset="0"
         id="stop1" />
      <stop
         style="stop-color:#ff7c66;stop-opacity:1;"
         offset="0.76340693"
         id="stop2" />
    </linearGradient>
    <linearGradient
       inkscape:collect="always"
       xlink:href="#linearGradient1"
       id="linearGradient2"
       x1="232.4884"
       y1="23.847498"
       x2="23.977745"
       y2="232.35815"
       gradientUnits="userSpaceOnUse" />
  </defs>
  <defs
     id="defs1" />
  <sodipodi:namedview
     id="namedview1"
     pagecolor="#ffffff"
     bordercolor="#000000"
     borderopacity="0.25"
     inkscape:showpageshadow="2"
     inkscape:pageopacity="0.0"
     inkscape:pagecheckerboard="0"
     inkscape:deskcolor="#d1d1d1" />
  <path
     id="polygon1"
     style="baseline-shift:baseline;display:inline;overflow:visible;vector-effect:none;fill:url(#linearGradient2);stroke-linecap:round;stroke-linejoin:round;enable-background:accumulate;stop-color:#000000;stop-opacity:1;opacity:1;fill-opacity:1"
     d="M 120 24.001953 A 8.0008 8.0008 0 0 0 114.34375 26.34375 L 18.34375 122.34375 A 8.0008 8.0008 0 0 0 18.34375 133.65625 L 114.34375 229.65625 A 8.0008 8.0008 0 0 0 128 224 L 128 184 L 184 184 A 8.0008 8.0008 0 0 0 192 176 L 192 80 A 8.0008 8.0008 0 0 0 184 72 L 128 72 L 128 32 A 8.0008 8.0008 0 0 0 120 24.001953 z M 112 51.3125 L 112 80 A 8.0008 8.0008 0 0 0 120 88 L 176 88 L 176 168 L 120 168 A 8.0008 8.0008 0 0 0 112 176 L 112 204.6875 L 35.3125 128 L 112 51.3125 z M 216 72 A 8 8 0 0 0 208 80 L 208 176 A 8 8 0 0 0 216 184 A 8 8 0 0 0 224 176 L 224 80 A 8 8 0 0 0 216 72 z " />
</svg>
