<?xml version="1.0" encoding="UTF-8" standalone="no"?>
<svg
   viewBox="0 0 256 256"
   version="1.1"
   id="svg2"
   sodipodi:docname="arrow elbow left down coral_purple.svg"
   xmlns:inkscape="http://www.inkscape.org/namespaces/inkscape"
   xmlns:sodipodi="http://sodipodi.sourceforge.net/DTD/sodipodi-0.dtd"
   xmlns:xlink="http://www.w3.org/1999/xlink"
   xmlns="http://www.w3.org/2000/svg"
   xmlns:svg="http://www.w3.org/2000/svg">
  <defs
     id="defs3">
    <linearGradient
       id="linearGradient1"
       inkscape:collect="always">
      <stop
         style="stop-color:#a03291;stop-opacity:1;"
         offset="0"
         id="stop1" />
      <stop
         style="stop-color:#ff7c66;stop-opacity:1;"
         offset="0.76340693"
         id="stop2" />
    </linearGradient>
    <linearGradient
       inkscape:collect="always"
       xlink:href="#linearGradient1"
       id="linearGradient2"
       x1="232.4884"
       y1="23.847498"
       x2="23.977745"
       y2="232.35815"
       gradientUnits="userSpaceOnUse" />
  </defs>
  <defs
     id="defs2" />
  <sodipodi:namedview
     id="namedview2"
     pagecolor="#ffffff"
     bordercolor="#000000"
     borderopacity="0.25"
     inkscape:showpageshadow="2"
     inkscape:pageopacity="0.0"
     inkscape:pagecheckerboard="0"
     inkscape:deskcolor="#d1d1d1" />
  <path
     id="polyline1"
     style="baseline-shift:baseline;display:inline;overflow:visible;vector-effect:none;fill:url(#linearGradient2);stroke-linecap:round;stroke-linejoin:round;enable-background:accumulate;stop-color:#000000;stop-opacity:1;opacity:1;fill-opacity:1"
     d="M 88 64 A 8.0008 8.0008 0 0 0 80 72 L 80 196.6875 L 45.65625 162.34375 A 8 8 0 0 0 40 160 A 8 8 0 0 0 34.34375 162.34375 A 8 8 0 0 0 34.34375 173.65625 L 82.261719 221.57422 L 82.34375 221.65625 A 8.0008 8.0008 0 0 0 82.664062 221.9375 A 8 8 0 0 0 83.103516 222.32227 A 8.0008 8.0008 0 0 0 83.525391 222.60938 A 8 8 0 0 0 83.966797 222.9043 A 8.0008 8.0008 0 0 0 84.445312 223.14648 A 8 8 0 0 0 84.921875 223.38281 A 8.0008 8.0008 0 0 0 85.398438 223.54688 A 8 8 0 0 0 85.914062 223.7207 A 8.0008 8.0008 0 0 0 86.292969 223.79883 A 8 8 0 0 0 88 224 A 8 8 0 0 0 89.707031 223.79883 A 8.0008 8.0008 0 0 0 90.085938 223.7207 A 8 8 0 0 0 90.601562 223.54688 A 8.0008 8.0008 0 0 0 91.078125 223.38281 A 8 8 0 0 0 91.554688 223.14648 A 8.0008 8.0008 0 0 0 92.033203 222.9043 A 8 8 0 0 0 92.474609 222.60938 A 8.0008 8.0008 0 0 0 92.896484 222.32227 A 8 8 0 0 0 93.335938 221.9375 A 8.0008 8.0008 0 0 0 93.65625 221.65625 L 93.738281 221.57422 L 141.65625 173.65625 A 8 8 0 0 0 141.65625 162.34375 A 8 8 0 0 0 130.34375 162.34375 L 96 196.6875 L 96 80 L 232 80 A 8 8 0 0 0 240 72 A 8 8 0 0 0 232 64 L 88 64 z " />
</svg>
