<?xml version="1.0" encoding="UTF-8" standalone="no"?>
<svg
   viewBox="0 0 256 256"
   version="1.1"
   id="svg2"
   sodipodi:docname="arrow elbow down right coral_purple.svg"
   xmlns:inkscape="http://www.inkscape.org/namespaces/inkscape"
   xmlns:sodipodi="http://sodipodi.sourceforge.net/DTD/sodipodi-0.dtd"
   xmlns:xlink="http://www.w3.org/1999/xlink"
   xmlns="http://www.w3.org/2000/svg"
   xmlns:svg="http://www.w3.org/2000/svg">
  <defs
     id="defs3">
    <linearGradient
       id="linearGradient1"
       inkscape:collect="always">
      <stop
         style="stop-color:#a03291;stop-opacity:1;"
         offset="0"
         id="stop1" />
      <stop
         style="stop-color:#ff7c66;stop-opacity:1;"
         offset="0.76340693"
         id="stop2" />
    </linearGradient>
    <linearGradient
       inkscape:collect="always"
       xlink:href="#linearGradient1"
       id="linearGradient2"
       x1="232.4884"
       y1="23.847498"
       x2="23.977745"
       y2="232.35815"
       gradientUnits="userSpaceOnUse" />
  </defs>
  <defs
     id="defs2" />
  <sodipodi:namedview
     id="namedview2"
     pagecolor="#ffffff"
     bordercolor="#000000"
     borderopacity="0.25"
     inkscape:showpageshadow="2"
     inkscape:pageopacity="0.0"
     inkscape:pagecheckerboard="0"
     inkscape:deskcolor="#d1d1d1" />
  <path
     id="polyline1"
     style="baseline-shift:baseline;display:inline;overflow:visible;vector-effect:none;fill:url(#linearGradient2);stroke-linecap:round;stroke-linejoin:round;enable-background:accumulate;stop-color:#000000;stop-opacity:1;opacity:1;fill-opacity:1"
     d="M 72 24 A 8 8 0 0 0 64 32 L 64 176 A 8.0008 8.0008 0 0 0 72 184 L 196.6875 184 L 162.34375 218.34375 A 8 8 0 0 0 162.34375 229.65625 A 8 8 0 0 0 173.65625 229.65625 L 221.57422 181.73828 L 221.65625 181.65625 A 8.0008 8.0008 0 0 0 221.9375 181.33594 A 8 8 0 0 0 222.32227 180.89648 A 8.0008 8.0008 0 0 0 222.60938 180.47461 A 8 8 0 0 0 222.9043 180.0332 A 8.0008 8.0008 0 0 0 223.14648 179.55469 A 8 8 0 0 0 223.38281 179.07812 A 8.0008 8.0008 0 0 0 223.54688 178.60156 A 8 8 0 0 0 223.7207 178.08594 A 8.0008 8.0008 0 0 0 223.79883 177.70703 A 8 8 0 0 0 224 176 A 8 8 0 0 0 223.79883 174.29297 A 8.0008 8.0008 0 0 0 223.7207 173.91406 A 8 8 0 0 0 223.54688 173.39844 A 8.0008 8.0008 0 0 0 223.38281 172.92188 A 8 8 0 0 0 223.14648 172.44531 A 8.0008 8.0008 0 0 0 222.9043 171.9668 A 8 8 0 0 0 222.60938 171.52539 A 8.0008 8.0008 0 0 0 222.32227 171.10352 A 8 8 0 0 0 221.9375 170.66406 A 8.0008 8.0008 0 0 0 221.65625 170.34375 L 221.57422 170.26172 L 173.65625 122.34375 A 8 8 0 0 0 168 120 A 8 8 0 0 0 162.34375 122.34375 A 8 8 0 0 0 162.34375 133.65625 L 196.6875 168 L 80 168 L 80 32 A 8 8 0 0 0 72 24 z " />
</svg>
