<?xml version="1.0" encoding="UTF-8" standalone="no"?>
<svg
   viewBox="0 0 256 256"
   version="1.1"
   id="svg2"
   sodipodi:docname="arrow square left coral_purple.svg"
   xmlns:inkscape="http://www.inkscape.org/namespaces/inkscape"
   xmlns:sodipodi="http://sodipodi.sourceforge.net/DTD/sodipodi-0.dtd"
   xmlns:xlink="http://www.w3.org/1999/xlink"
   xmlns="http://www.w3.org/2000/svg"
   xmlns:svg="http://www.w3.org/2000/svg">
  <defs
     id="defs3">
    <linearGradient
       id="linearGradient1"
       inkscape:collect="always">
      <stop
         style="stop-color:#a03291;stop-opacity:1;"
         offset="0"
         id="stop1" />
      <stop
         style="stop-color:#ff7c66;stop-opacity:1;"
         offset="0.76340693"
         id="stop2" />
    </linearGradient>
    <linearGradient
       inkscape:collect="always"
       xlink:href="#linearGradient1"
       id="linearGradient2"
       x1="232.4884"
       y1="23.847498"
       x2="23.977745"
       y2="232.35815"
       gradientUnits="userSpaceOnUse" />
  </defs>
  <defs
     id="defs2" />
  <sodipodi:namedview
     id="namedview2"
     pagecolor="#ffffff"
     bordercolor="#000000"
     borderopacity="0.25"
     inkscape:showpageshadow="2"
     inkscape:pageopacity="0.0"
     inkscape:pagecheckerboard="0"
     inkscape:deskcolor="#d1d1d1" />
  <path
     id="rect2"
     style="baseline-shift:baseline;display:inline;overflow:visible;vector-effect:none;fill:url(#linearGradient2);stroke-linecap:round;stroke-linejoin:round;enable-background:accumulate;stop-color:#000000;stop-opacity:1;opacity:1;fill-opacity:1"
     d="M 32 208 C 32 216.72562 39.274378 224 48 224 L 208 224 C 216.72562 224 224 216.72562 224 208 L 224 48 C 224 39.274378 216.72562 32 208 32 L 48 32 C 39.274378 32 32 39.274378 32 48 L 32 208 z M 48 208 L 48 48 L 208 48 L 208 208 L 48 208 z M 88 136 A 8 8 0 0 0 90.34375 141.65625 L 122.26172 173.57422 L 122.34375 173.65625 A 8.0008 8.0008 0 0 0 122.66406 173.9375 A 8 8 0 0 0 123.10352 174.32227 A 8.0008 8.0008 0 0 0 123.52539 174.60938 A 8 8 0 0 0 123.9668 174.9043 A 8.0008 8.0008 0 0 0 124.44531 175.14648 A 8 8 0 0 0 124.92188 175.38281 A 8.0008 8.0008 0 0 0 125.39844 175.54688 A 8 8 0 0 0 125.91406 175.7207 A 8.0008 8.0008 0 0 0 126.29297 175.79883 A 8 8 0 0 0 128 176 A 8 8 0 0 0 129.70703 175.79883 A 8.0008 8.0008 0 0 0 130.08594 175.7207 A 8 8 0 0 0 130.60156 175.54688 A 8.0008 8.0008 0 0 0 131.07812 175.38281 A 8 8 0 0 0 131.55469 175.14648 A 8.0008 8.0008 0 0 0 132.0332 174.9043 A 8 8 0 0 0 132.47461 174.60938 A 8.0008 8.0008 0 0 0 132.89648 174.32227 A 8 8 0 0 0 133.33594 173.9375 A 8.0008 8.0008 0 0 0 133.65625 173.65625 L 133.73828 173.57422 L 165.65625 141.65625 A 8 8 0 0 0 165.65625 130.34375 A 8 8 0 0 0 154.34375 130.34375 L 136 148.6875 L 136 88 A 8 8 0 0 0 128 80 A 8 8 0 0 0 120 88 L 120 148.6875 L 101.65625 130.34375 A 8 8 0 0 0 90.34375 130.34375 A 8 8 0 0 0 88 136 z "
     transform="translate(256 0) rotate(90)" />
</svg>
