<?xml version="1.0" encoding="UTF-8" standalone="no"?>
<svg
   viewBox="0 0 256 256"
   version="1.1"
   id="svg4"
   sodipodi:docname="arrows in coral_purple.svg"
   xmlns:inkscape="http://www.inkscape.org/namespaces/inkscape"
   xmlns:sodipodi="http://sodipodi.sourceforge.net/DTD/sodipodi-0.dtd"
   xmlns:xlink="http://www.w3.org/1999/xlink"
   xmlns="http://www.w3.org/2000/svg"
   xmlns:svg="http://www.w3.org/2000/svg">
  <defs
     id="defs3">
    <linearGradient
       id="linearGradient1"
       inkscape:collect="always">
      <stop
         style="stop-color:#a03291;stop-opacity:1;"
         offset="0"
         id="stop1" />
      <stop
         style="stop-color:#ff7c66;stop-opacity:1;"
         offset="0.76340693"
         id="stop2" />
    </linearGradient>
    <linearGradient
       inkscape:collect="always"
       xlink:href="#linearGradient1"
       id="linearGradient2"
       x1="232.4884"
       y1="23.847498"
       x2="23.977745"
       y2="232.35815"
       gradientUnits="userSpaceOnUse" />
  </defs>
  <defs
     id="defs4" />
  <sodipodi:namedview
     id="namedview4"
     pagecolor="#ffffff"
     bordercolor="#000000"
     borderopacity="0.25"
     inkscape:showpageshadow="2"
     inkscape:pageopacity="0.0"
     inkscape:pagecheckerboard="0"
     inkscape:deskcolor="#d1d1d1" />
  <path
     id="polyline1"
     style="baseline-shift:baseline;display:inline;overflow:visible;vector-effect:none;fill:url(#linearGradient2);stroke-linecap:round;stroke-linejoin:round;enable-background:accumulate;stop-color:#000000;stop-opacity:1;opacity:1;fill-opacity:1"
     d="M 48 40 A 8 8 0 0 0 42.34375 42.34375 A 8 8 0 0 0 42.34375 53.65625 L 84.6875 96 L 64 96 A 8 8 0 0 0 56 104 A 8 8 0 0 0 64 112 L 104 112 A 8.0008 8.0008 0 0 0 106.07031 111.72656 A 8 8 0 0 0 109.65625 109.65625 A 8 8 0 0 0 110.3457 108.86914 A 8.0008 8.0008 0 0 0 111.72656 106.07031 A 8.0008 8.0008 0 0 0 112 104 L 112 64 A 8 8 0 0 0 104 56 A 8 8 0 0 0 96 64 L 96 84.6875 L 53.65625 42.34375 A 8 8 0 0 0 48 40 z M 208 40 A 8 8 0 0 0 202.34375 42.34375 L 160 84.6875 L 160 64 A 8 8 0 0 0 152 56 A 8 8 0 0 0 144 64 L 144 104 A 8.0008 8.0008 0 0 0 152 112 L 192 112 A 8 8 0 0 0 200 104 A 8 8 0 0 0 192 96 L 171.3125 96 L 213.65625 53.65625 A 8 8 0 0 0 213.65625 42.34375 A 8 8 0 0 0 208 40 z M 64 144 A 8 8 0 0 0 56 152 A 8 8 0 0 0 64 160 L 84.6875 160 L 42.34375 202.34375 A 8 8 0 0 0 42.34375 213.65625 A 8 8 0 0 0 53.65625 213.65625 L 96 171.3125 L 96 192 A 8 8 0 0 0 104 200 A 8 8 0 0 0 112 192 L 112 152 A 8.0008 8.0008 0 0 0 104 144 L 64 144 z M 152 144 A 8.0008 8.0008 0 0 0 150.95508 144.06836 A 8 8 0 0 0 146.34375 146.34375 A 8 8 0 0 0 144.27344 149.92969 A 8.0008 8.0008 0 0 0 144 152 L 144 192 A 8 8 0 0 0 152 200 A 8 8 0 0 0 160 192 L 160 171.3125 L 202.34375 213.65625 A 8 8 0 0 0 213.65625 213.65625 A 8 8 0 0 0 213.65625 202.34375 L 171.3125 160 L 192 160 A 8 8 0 0 0 200 152 A 8 8 0 0 0 192 144 L 152 144 z " />
</svg>
