<?xml version="1.0" encoding="UTF-8" standalone="no"?>
<svg
   viewBox="0 0 256 256"
   version="1.1"
   id="svg3"
   sodipodi:docname="arrow elbow up left coral_purple.svg"
   xmlns:inkscape="http://www.inkscape.org/namespaces/inkscape"
   xmlns:sodipodi="http://sodipodi.sourceforge.net/DTD/sodipodi-0.dtd"
   xmlns:xlink="http://www.w3.org/1999/xlink"
   xmlns="http://www.w3.org/2000/svg"
   xmlns:svg="http://www.w3.org/2000/svg">
  <defs
     id="defs3">
    <linearGradient
       id="linearGradient1"
       inkscape:collect="always">
      <stop
         style="stop-color:#a03291;stop-opacity:1;"
         offset="0"
         id="stop1" />
      <stop
         style="stop-color:#ff7c66;stop-opacity:1;"
         offset="0.76340693"
         id="stop2" />
    </linearGradient>
    <linearGradient
       inkscape:collect="always"
       xlink:href="#linearGradient1"
       id="linearGradient2"
       x1="232.4884"
       y1="23.847498"
       x2="23.977745"
       y2="232.35815"
       gradientUnits="userSpaceOnUse" />
  </defs>
  <defs
     id="defs1" />
  <sodipodi:namedview
     id="namedview3"
     pagecolor="#ffffff"
     bordercolor="#000000"
     borderopacity="0.25"
     inkscape:showpageshadow="2"
     inkscape:pageopacity="0.0"
     inkscape:pagecheckerboard="0"
     inkscape:deskcolor="#d1d1d1" />
  <path
     id="polyline1"
     style="baseline-shift:baseline;display:inline;overflow:visible;vector-effect:none;fill:url(#linearGradient2);stroke-linecap:round;stroke-linejoin:round;enable-background:accumulate;stop-color:#000000;stop-opacity:1;opacity:1;fill-opacity:1"
     d="M 96 24 A 8 8 0 0 0 90.34375 26.34375 L 42.425781 74.261719 L 42.34375 74.34375 A 8.0008 8.0008 0 0 0 42.0625 74.664062 A 8 8 0 0 0 41.677734 75.103516 A 8.0008 8.0008 0 0 0 41.414062 75.490234 A 8.0008 8.0008 0 0 0 41.390625 75.525391 A 8 8 0 0 0 41.095703 75.966797 A 8 8 0 0 0 41.091797 75.972656 A 8.0008 8.0008 0 0 0 40.876953 76.396484 A 8.0008 8.0008 0 0 0 40.853516 76.445312 A 8 8 0 0 0 40.617188 76.921875 A 8.0008 8.0008 0 0 0 40.453125 77.398438 A 8 8 0 0 0 40.279297 77.914062 A 8 8 0 0 0 40.277344 77.916016 A 8.0008 8.0008 0 0 0 40.201172 78.292969 A 8 8 0 0 0 40 80 A 8 8 0 0 0 40.201172 81.707031 A 8.0008 8.0008 0 0 0 40.277344 82.083984 A 8.0008 8.0008 0 0 0 40.279297 82.085938 A 8 8 0 0 0 40.453125 82.601562 A 8.0008 8.0008 0 0 0 40.617188 83.078125 A 8 8 0 0 0 40.853516 83.554688 A 8 8 0 0 0 40.876953 83.603516 A 8.0008 8.0008 0 0 0 41.091797 84.027344 A 8.0008 8.0008 0 0 0 41.095703 84.033203 A 8 8 0 0 0 41.390625 84.474609 A 8 8 0 0 0 41.414062 84.509766 A 8.0008 8.0008 0 0 0 41.677734 84.896484 A 8 8 0 0 0 42.0625 85.335938 A 8.0008 8.0008 0 0 0 42.34375 85.65625 L 42.425781 85.738281 L 90.34375 133.65625 A 8 8 0 0 0 101.65625 133.65625 A 8 8 0 0 0 101.65625 122.34375 L 67.3125 88 L 184 88 L 184 224 A 8 8 0 0 0 192 232 A 8 8 0 0 0 193.04492 231.93164 A 8 8 0 0 0 200 224 L 200 80 A 8.0008 8.0008 0 0 0 199.93164 78.955078 A 8.0008 8.0008 0 0 0 192 72 L 67.3125 72 L 101.65625 37.65625 A 8 8 0 0 0 101.65625 26.34375 A 8 8 0 0 0 96 24 z " />
</svg>
