<?xml version="1.0" encoding="UTF-8" standalone="no"?>
<svg
   viewBox="0 0 256 256"
   version="1.1"
   id="svg3"
   sodipodi:docname="arrows merge coral_purple.svg"
   xmlns:inkscape="http://www.inkscape.org/namespaces/inkscape"
   xmlns:sodipodi="http://sodipodi.sourceforge.net/DTD/sodipodi-0.dtd"
   xmlns:xlink="http://www.w3.org/1999/xlink"
   xmlns="http://www.w3.org/2000/svg"
   xmlns:svg="http://www.w3.org/2000/svg">
  <defs
     id="defs3">
    <linearGradient
       id="linearGradient1"
       inkscape:collect="always">
      <stop
         style="stop-color:#a03291;stop-opacity:1;"
         offset="0"
         id="stop1" />
      <stop
         style="stop-color:#ff7c66;stop-opacity:1;"
         offset="0.76340693"
         id="stop2" />
    </linearGradient>
    <linearGradient
       inkscape:collect="always"
       xlink:href="#linearGradient1"
       id="linearGradient2"
       x1="232.4884"
       y1="23.847498"
       x2="23.977745"
       y2="232.35815"
       gradientUnits="userSpaceOnUse" />
  </defs>
  <defs
     id="defs1" />
  <sodipodi:namedview
     id="namedview3"
     pagecolor="#ffffff"
     bordercolor="#000000"
     borderopacity="0.25"
     inkscape:showpageshadow="2"
     inkscape:pageopacity="0.0"
     inkscape:pagecheckerboard="0"
     inkscape:deskcolor="#d1d1d1" />
  <path
     id="polyline1"
     style="baseline-shift:baseline;display:inline;overflow:visible;vector-effect:none;fill:url(#linearGradient2);stroke-linecap:round;stroke-linejoin:round;enable-background:accumulate;stop-color:#000000;stop-opacity:1;opacity:1;fill-opacity:1"
     d="M 72 32 A 8 8 0 0 0 64 40 L 64 104 A 8.0008 8.0008 0 0 0 66.34375 109.65625 L 120 163.31445 L 120 212.6875 L 101.65625 194.34375 A 8 8 0 0 0 96 192 A 8 8 0 0 0 90.34375 194.34375 A 8 8 0 0 0 90.34375 205.65625 L 122.34375 237.65625 A 8.0008 8.0008 0 0 0 122.66406 237.9375 A 8 8 0 0 0 123.10352 238.32227 A 8.0008 8.0008 0 0 0 123.52539 238.60938 A 8 8 0 0 0 123.9668 238.9043 A 8.0008 8.0008 0 0 0 124.44531 239.14648 A 8 8 0 0 0 124.92188 239.38281 A 8.0008 8.0008 0 0 0 125.39844 239.54688 A 8 8 0 0 0 125.91406 239.7207 A 8.0008 8.0008 0 0 0 126.29297 239.79883 A 8 8 0 0 0 128 240 A 8 8 0 0 0 129.70703 239.79883 A 8.0008 8.0008 0 0 0 130.08594 239.7207 A 8 8 0 0 0 130.60156 239.54688 A 8.0008 8.0008 0 0 0 131.07812 239.38281 A 8 8 0 0 0 131.55469 239.14648 A 8.0008 8.0008 0 0 0 132.0332 238.9043 A 8 8 0 0 0 132.47461 238.60938 A 8.0008 8.0008 0 0 0 132.89648 238.32227 A 8 8 0 0 0 133.33594 237.9375 A 8.0008 8.0008 0 0 0 133.65625 237.65625 L 165.65625 205.65625 A 8 8 0 0 0 165.65625 194.34375 A 8 8 0 0 0 154.34375 194.34375 L 136 212.6875 L 136 163.3125 L 189.65625 109.65625 A 8.0008 8.0008 0 0 0 192 104 L 192 40 A 8 8 0 0 0 184 32 A 8 8 0 0 0 176 40 L 176 100.68555 L 128 148.6875 L 80 100.68555 L 80 40 A 8 8 0 0 0 72 32 z " />
</svg>
