<?xml version="1.0" encoding="UTF-8" standalone="no"?>
<svg
   viewBox="0 0 256 256"
   version="1.1"
   id="svg1"
   sodipodi:docname="arrow circle right coral_purple.svg"
   xmlns:inkscape="http://www.inkscape.org/namespaces/inkscape"
   xmlns:sodipodi="http://sodipodi.sourceforge.net/DTD/sodipodi-0.dtd"
   xmlns:xlink="http://www.w3.org/1999/xlink"
   xmlns="http://www.w3.org/2000/svg"
   xmlns:svg="http://www.w3.org/2000/svg">
  <defs
     id="defs3">
    <linearGradient
       id="linearGradient1"
       inkscape:collect="always">
      <stop
         style="stop-color:#a03291;stop-opacity:1;"
         offset="0"
         id="stop1" />
      <stop
         style="stop-color:#ff7c66;stop-opacity:1;"
         offset="0.76340693"
         id="stop2" />
    </linearGradient>
    <linearGradient
       inkscape:collect="always"
       xlink:href="#linearGradient1"
       id="linearGradient2"
       x1="232.4884"
       y1="23.847498"
       x2="23.977745"
       y2="232.35815"
       gradientUnits="userSpaceOnUse" />
  </defs>
  <defs
     id="defs1" />
  <sodipodi:namedview
     id="namedview1"
     pagecolor="#ffffff"
     bordercolor="#000000"
     borderopacity="0.25"
     inkscape:showpageshadow="2"
     inkscape:pageopacity="0.0"
     inkscape:pagecheckerboard="0"
     inkscape:deskcolor="#d1d1d1" />
  <path
     id="circle1"
     style="baseline-shift:baseline;display:inline;overflow:visible;vector-effect:none;fill:url(#linearGradient2);stroke-linecap:round;stroke-linejoin:round;enable-background:accumulate;stop-color:#000000;stop-opacity:1;opacity:1;fill-opacity:1"
     d="M 128 24 C 70.657143 24 24 70.657143 24 128 C 24 185.34286 70.657143 232 128 232 C 185.34286 232 232 185.34286 232 128 C 232 70.657143 185.34286 24 128 24 z M 128 40 C 176.69582 40 216 79.304185 216 128 C 216 176.69582 176.69582 216 128 216 C 79.304185 216 40 176.69582 40 128 C 40 79.304185 79.304185 40 128 40 z M 136 88 A 8 8 0 0 0 130.34375 90.34375 A 8 8 0 0 0 130.34375 101.65625 L 148.6875 120 L 88 120 A 8 8 0 0 0 80 128 A 8 8 0 0 0 88 136 L 148.6875 136 L 130.34375 154.34375 A 8 8 0 0 0 130.34375 165.65625 A 8 8 0 0 0 141.65625 165.65625 L 173.57422 133.73828 L 173.65625 133.65625 A 8.0008 8.0008 0 0 0 173.9375 133.33594 A 8 8 0 0 0 174.32227 132.89648 A 8.0008 8.0008 0 0 0 174.60938 132.47461 A 8 8 0 0 0 174.9043 132.0332 A 8.0008 8.0008 0 0 0 175.14648 131.55469 A 8 8 0 0 0 175.38281 131.07812 A 8.0008 8.0008 0 0 0 175.54688 130.60156 A 8 8 0 0 0 175.7207 130.08594 A 8.0008 8.0008 0 0 0 175.79883 129.70703 A 8 8 0 0 0 176 128 A 8 8 0 0 0 175.79883 126.29297 A 8.0008 8.0008 0 0 0 175.7207 125.91406 A 8 8 0 0 0 175.54688 125.39844 A 8.0008 8.0008 0 0 0 175.38281 124.92188 A 8 8 0 0 0 175.14648 124.44531 A 8.0008 8.0008 0 0 0 174.9043 123.9668 A 8 8 0 0 0 174.60938 123.52539 A 8.0008 8.0008 0 0 0 174.32227 123.10352 A 8 8 0 0 0 173.9375 122.66406 A 8.0008 8.0008 0 0 0 173.65625 122.34375 L 173.57422 122.26172 L 141.65625 90.34375 A 8 8 0 0 0 136 88 z " />
</svg>
