<?xml version="1.0" encoding="UTF-8" standalone="no"?>
<svg
   viewBox="0 0 256 256"
   version="1.1"
   id="svg6"
   sodipodi:docname="article ny times coral_purple.svg"
   xmlns:inkscape="http://www.inkscape.org/namespaces/inkscape"
   xmlns:sodipodi="http://sodipodi.sourceforge.net/DTD/sodipodi-0.dtd"
   xmlns:xlink="http://www.w3.org/1999/xlink"
   xmlns="http://www.w3.org/2000/svg"
   xmlns:svg="http://www.w3.org/2000/svg">
  <defs
     id="defs3">
    <linearGradient
       id="linearGradient1"
       inkscape:collect="always">
      <stop
         style="stop-color:#a03291;stop-opacity:1;"
         offset="0"
         id="stop1" />
      <stop
         style="stop-color:#ff7c66;stop-opacity:1;"
         offset="0.76340693"
         id="stop2" />
    </linearGradient>
    <linearGradient
       inkscape:collect="always"
       xlink:href="#linearGradient1"
       id="linearGradient2"
       x1="232.4884"
       y1="23.847498"
       x2="23.977745"
       y2="232.35815"
       gradientUnits="userSpaceOnUse" />
  </defs>
  <defs
     id="defs6" />
  <sodipodi:namedview
     id="namedview6"
     pagecolor="#ffffff"
     bordercolor="#000000"
     borderopacity="0.25"
     inkscape:showpageshadow="2"
     inkscape:pageopacity="0.0"
     inkscape:pagecheckerboard="0"
     inkscape:deskcolor="#d1d1d1" />
  <path
     id="line1"
     style="baseline-shift:baseline;display:inline;overflow:visible;vector-effect:none;fill:url(#linearGradient2);stroke-linecap:round;stroke-linejoin:round;enable-background:accumulate;stop-color:#000000;stop-opacity:1;opacity:1;fill-opacity:1"
     d="M 32 48 A 8.0008 8.0008 0 0 0 24 56 L 24 72 A 8 8 0 0 0 32 80 A 8 8 0 0 0 40 72 L 40 64 L 72 64 L 72 128 L 64 128 A 8 8 0 0 0 56 136 A 8 8 0 0 0 64 144 L 80 144 L 96 144 A 8 8 0 0 0 104 136 A 8 8 0 0 0 96 128 L 88 128 L 88 64 L 120 64 L 120 72 A 8 8 0 0 0 128 80 A 8 8 0 0 0 136 72 L 136 56 A 8.0008 8.0008 0 0 0 128 48 L 80 48 L 32 48 z M 128 96 A 8 8 0 0 0 120 104 A 8 8 0 0 0 128 112 L 232 112 A 8 8 0 0 0 240 104 A 8 8 0 0 0 232 96 L 128 96 z M 128 128 A 8 8 0 0 0 120 136 A 8 8 0 0 0 128 144 L 232 144 A 8 8 0 0 0 240 136 A 8 8 0 0 0 232 128 L 128 128 z M 80 160 A 8 8 0 0 0 72 168 A 8 8 0 0 0 80 176 L 232 176 A 8 8 0 0 0 240 168 A 8 8 0 0 0 232 160 L 80 160 z M 80 192 A 8 8 0 0 0 72 200 A 8 8 0 0 0 80 208 L 232 208 A 8 8 0 0 0 240 200 A 8 8 0 0 0 232 192 L 80 192 z " />
</svg>
