<?xml version="1.0" encoding="UTF-8" standalone="no"?>
<svg
   viewBox="0 0 256 256"
   version="1.1"
   id="svg8"
   sodipodi:docname="baseball coral_purple.svg"
   xmlns:inkscape="http://www.inkscape.org/namespaces/inkscape"
   xmlns:sodipodi="http://sodipodi.sourceforge.net/DTD/sodipodi-0.dtd"
   xmlns:xlink="http://www.w3.org/1999/xlink"
   xmlns="http://www.w3.org/2000/svg"
   xmlns:svg="http://www.w3.org/2000/svg">
  <defs
     id="defs3">
    <linearGradient
       id="linearGradient1"
       inkscape:collect="always">
      <stop
         style="stop-color:#a03291;stop-opacity:1;"
         offset="0"
         id="stop1" />
      <stop
         style="stop-color:#ff7c66;stop-opacity:1;"
         offset="0.76340693"
         id="stop2" />
    </linearGradient>
    <linearGradient
       inkscape:collect="always"
       xlink:href="#linearGradient1"
       id="linearGradient2"
       x1="232.4884"
       y1="23.847498"
       x2="23.977745"
       y2="232.35815"
       gradientUnits="userSpaceOnUse" />
  </defs>
  <defs
     id="defs8" />
  <sodipodi:namedview
     id="namedview8"
     pagecolor="#ffffff"
     bordercolor="#000000"
     borderopacity="0.25"
     inkscape:showpageshadow="2"
     inkscape:pageopacity="0.0"
     inkscape:pagecheckerboard="0"
     inkscape:deskcolor="#d1d1d1" />
  <path
     id="circle1"
     style="baseline-shift:baseline;display:inline;overflow:visible;vector-effect:none;fill:url(#linearGradient2);stroke-linecap:round;stroke-linejoin:round;enable-background:accumulate;stop-color:#000000;stop-opacity:1;opacity:1;fill-opacity:1"
     d="M 128 24 C 99.956891 24 74.46875 35.159472 55.744141 53.269531 A 8 8 0 0 0 54.951172 53.976562 A 8 8 0 0 0 54.427734 54.564453 C 35.635661 73.391135 24 99.363221 24 128 C 24 156.63678 35.635663 182.60887 54.427734 201.43555 A 8 8 0 0 0 54.951172 202.02344 A 8 8 0 0 0 55.744141 202.73047 C 74.468873 220.84129 99.956225 232 128 232 C 156.04377 232 181.53113 220.84129 200.25586 202.73047 A 8 8 0 0 0 201.04883 202.02344 A 8 8 0 0 0 201.57227 201.43555 C 220.36433 182.60887 232 156.63678 232 128 C 232 99.363223 220.36434 73.391134 201.57227 54.564453 A 8 8 0 0 0 201.04883 53.976562 A 8 8 0 0 0 200.25586 53.269531 C 181.53125 35.159474 156.04311 24 128 24 z M 128 40 C 149.2799 40 168.7662 47.506209 183.96289 60.021484 C 183.11818 60.998604 182.29192 61.991299 181.48438 63 A 8 8 0 0 0 182.73047 74.246094 A 8 8 0 0 0 193.97461 73 C 194.43206 72.428605 194.89754 71.862265 195.36914 71.302734 C 208.25057 86.603469 216 106.37618 216 128 C 216 149.62382 208.25056 169.39653 195.36914 184.69727 C 194.89754 184.13773 194.43206 183.5714 193.97461 183 A 8 8 0 0 0 188.61133 180.04883 A 8 8 0 0 0 182.73047 181.75391 A 8 8 0 0 0 181.48438 193 C 182.29193 194.0087 183.11818 195.0014 183.96289 195.97852 C 168.7662 208.49379 149.2799 216 128 216 C 106.7201 216 87.233802 208.49379 72.037109 195.97852 C 72.881819 195.0014 73.708074 194.0087 74.515625 193 A 8 8 0 0 0 73.269531 181.75391 A 8 8 0 0 0 67.388672 180.04883 A 8 8 0 0 0 62.025391 183 C 61.56794 183.57139 61.102458 184.13774 60.630859 184.69727 C 47.749435 169.39653 40 149.62382 40 128 C 40 106.37618 47.749435 86.603469 60.630859 71.302734 C 61.102457 71.862264 61.56794 72.428605 62.025391 73 A 8 8 0 0 0 73.269531 74.246094 A 8 8 0 0 0 74.515625 63 C 73.708075 61.9913 72.881819 60.998603 72.037109 60.021484 C 87.233802 47.506208 106.7201 40 128 40 z M 84.277344 88.011719 A 8 8 0 0 0 81.189453 88.458984 A 8 8 0 0 0 76.318359 98.671875 C 78.00577 103.4359 79.274336 108.33769 80.109375 113.32227 A 8 8 0 0 0 89.322266 119.89062 A 8 8 0 0 0 95.890625 110.67773 C 94.901787 104.77509 93.398593 98.969598 91.400391 93.328125 A 8 8 0 0 0 84.277344 88.011719 z M 171.72266 88.011719 A 8 8 0 0 0 164.59961 93.328125 C 162.60141 98.969598 161.09822 104.77509 160.10938 110.67773 A 8 8 0 0 0 166.67773 119.89062 A 8 8 0 0 0 175.89062 113.32227 C 176.72566 108.33769 177.99423 103.4359 179.68164 98.671875 A 8 8 0 0 0 174.81055 88.458984 A 8 8 0 0 0 171.72266 88.011719 z M 88.28125 136.00391 A 8 8 0 0 0 80.109375 142.67773 C 79.274336 147.66231 78.00577 152.56411 76.318359 157.32812 A 8 8 0 0 0 81.189453 167.54102 A 8 8 0 0 0 91.400391 162.67188 C 93.398593 157.03041 94.901787 151.22491 95.890625 145.32227 A 8 8 0 0 0 89.322266 136.10938 A 8 8 0 0 0 88.28125 136.00391 z M 167.71875 136.00391 A 8 8 0 0 0 166.67773 136.10938 A 8 8 0 0 0 160.10938 145.32227 C 161.09822 151.22491 162.60141 157.03041 164.59961 162.67188 A 8 8 0 0 0 174.81055 167.54102 A 8 8 0 0 0 179.68164 157.32812 C 177.99423 152.56411 176.72567 147.66231 175.89062 142.67773 A 8 8 0 0 0 167.71875 136.00391 z " />
</svg>
