<?xml version="1.0" encoding="UTF-8" standalone="no"?>
<svg
   viewBox="0 0 256 256"
   version="1.1"
   id="svg3"
   sodipodi:docname="battery vertical medium coral_purple.svg"
   xmlns:inkscape="http://www.inkscape.org/namespaces/inkscape"
   xmlns:sodipodi="http://sodipodi.sourceforge.net/DTD/sodipodi-0.dtd"
   xmlns:xlink="http://www.w3.org/1999/xlink"
   xmlns="http://www.w3.org/2000/svg"
   xmlns:svg="http://www.w3.org/2000/svg">
  <defs
     id="defs3">
    <linearGradient
       id="linearGradient1"
       inkscape:collect="always">
      <stop
         style="stop-color:#a03291;stop-opacity:1;"
         offset="0"
         id="stop1" />
      <stop
         style="stop-color:#ff7c66;stop-opacity:1;"
         offset="0.76340693"
         id="stop2" />
    </linearGradient>
    <linearGradient
       inkscape:collect="always"
       xlink:href="#linearGradient1"
       id="linearGradient2"
       x1="232.4884"
       y1="23.847498"
       x2="23.977745"
       y2="232.35815"
       gradientUnits="userSpaceOnUse" />
  </defs>
  <defs
     id="defs1" />
  <sodipodi:namedview
     id="namedview3"
     pagecolor="#ffffff"
     bordercolor="#000000"
     borderopacity="0.25"
     inkscape:showpageshadow="2"
     inkscape:pageopacity="0.0"
     inkscape:pagecheckerboard="0"
     inkscape:deskcolor="#d1d1d1" />
  <path
     id="line1"
     style="baseline-shift:baseline;display:inline;overflow:visible;vector-effect:none;fill:url(#linearGradient2);stroke-linecap:round;stroke-linejoin:round;enable-background:accumulate;stop-color:#000000;stop-opacity:1;opacity:1;fill-opacity:1"
     d="M 96 0 A 8 8 0 0 0 88 8 A 8 8 0 0 0 96 16 L 160 16 A 8 8 0 0 0 168 8 A 8 8 0 0 0 160 0 L 96 0 z M 80 32 C 66.842378 32 56 42.842378 56 56 L 56 224 C 56 237.15762 66.842378 248 80 248 L 176 248 C 189.15762 248 200 237.15762 200 224 L 200 56 C 200 42.842378 189.15762 32 176 32 L 80 32 z M 80 48 L 176 48 C 180.57038 48 184 51.429622 184 56 L 184 224 C 184 228.57038 180.57038 232 176 232 L 80 232 C 75.429622 232 72 228.57038 72 224 L 72 56 C 72 51.429622 75.429622 48 80 48 z M 96 152 A 8 8 0 0 0 88 160 A 8 8 0 0 0 96 168 L 160 168 A 8 8 0 0 0 168 160 A 8 8 0 0 0 160 152 L 96 152 z M 96 192 A 8 8 0 0 0 88 200 A 8 8 0 0 0 96 208 L 160 208 A 8 8 0 0 0 168 200 A 8 8 0 0 0 160 192 L 96 192 z " />
</svg>
