<?xml version="1.0" encoding="UTF-8" standalone="no"?>
<svg
   viewBox="0 0 256 256"
   version="1.1"
   id="svg2"
   sodipodi:docname="bell z coral_purple.svg"
   xmlns:inkscape="http://www.inkscape.org/namespaces/inkscape"
   xmlns:sodipodi="http://sodipodi.sourceforge.net/DTD/sodipodi-0.dtd"
   xmlns:xlink="http://www.w3.org/1999/xlink"
   xmlns="http://www.w3.org/2000/svg"
   xmlns:svg="http://www.w3.org/2000/svg">
  <defs
     id="defs3">
    <linearGradient
       id="linearGradient1"
       inkscape:collect="always">
      <stop
         style="stop-color:#a03291;stop-opacity:1;"
         offset="0"
         id="stop1" />
      <stop
         style="stop-color:#ff7c66;stop-opacity:1;"
         offset="0.76340693"
         id="stop2" />
    </linearGradient>
    <linearGradient
       inkscape:collect="always"
       xlink:href="#linearGradient1"
       id="linearGradient2"
       x1="232.4884"
       y1="23.847498"
       x2="23.977745"
       y2="232.35815"
       gradientUnits="userSpaceOnUse" />
  </defs>
  <defs
     id="defs2" />
  <sodipodi:namedview
     id="namedview2"
     pagecolor="#ffffff"
     bordercolor="#000000"
     borderopacity="0.25"
     inkscape:showpageshadow="2"
     inkscape:pageopacity="0.0"
     inkscape:pagecheckerboard="0"
     inkscape:deskcolor="#d1d1d1" />
  <path
     id="polyline1"
     style="baseline-shift:baseline;display:inline;overflow:visible;vector-effect:none;fill:url(#linearGradient2);stroke-linecap:round;stroke-linejoin:round;enable-background:accumulate;stop-color:#000000;stop-opacity:1;opacity:1;fill-opacity:1"
     d="M 128 24 C 83.911986 24 48 59.911953 48 104 C 48 138.57534 39.317529 167.13183 34.193359 175.99609 A 8.0008 8.0008 0 0 0 34.191406 176 C 28.243883 186.30092 36.05677 199.92845 47.951172 200 A 8.0008 8.0008 0 0 0 48 200 L 88.808594 200 C 92.542026 218.19889 108.74089 232 128 232 C 147.25911 232 163.45797 218.19889 167.19141 200 L 208 200 A 8.0008 8.0008 0 0 0 208.02734 200 C 219.93731 199.958 227.78322 186.31435 221.82812 176 A 8.0008 8.0008 0 0 0 221.82422 175.99219 C 216.6924 167.12809 208 138.58419 208 104 C 208 59.911953 172.08801 24 128 24 z M 128 40 C 163.44099 40 192 68.558989 192 104 C 192 141.04971 199.90599 170.06162 207.97266 184 L 160 184 L 96 184 L 48.048828 184 C 56.10397 170.06293 64 141.04162 64 104 C 64 68.558989 92.559012 40 128 40 z M 112 88 A 8 8 0 0 0 104 96 A 8 8 0 0 0 112 104 L 129.05273 104 L 105.34375 139.5625 A 8.0008 8.0008 0 0 0 112 152 L 144 152 A 8 8 0 0 0 152 144 A 8 8 0 0 0 144 136 L 126.94727 136 L 150.65625 100.4375 A 8.0008 8.0008 0 0 0 144 88 L 112 88 z M 105.3418 200 L 150.6582 200 C 147.39562 209.36278 138.5385 216 128 216 C 117.4615 216 108.60438 209.36278 105.3418 200 z " />
</svg>
