<?xml version="1.0" encoding="UTF-8" standalone="no"?>
<svg
   viewBox="0 0 256 256"
   version="1.1"
   id="svg3"
   sodipodi:docname="bluetooth slash coral_purple.svg"
   xmlns:inkscape="http://www.inkscape.org/namespaces/inkscape"
   xmlns:sodipodi="http://sodipodi.sourceforge.net/DTD/sodipodi-0.dtd"
   xmlns:xlink="http://www.w3.org/1999/xlink"
   xmlns="http://www.w3.org/2000/svg"
   xmlns:svg="http://www.w3.org/2000/svg">
  <defs
     id="defs3">
    <linearGradient
       id="linearGradient1"
       inkscape:collect="always">
      <stop
         style="stop-color:#a03291;stop-opacity:1;"
         offset="0"
         id="stop1" />
      <stop
         style="stop-color:#ff7c66;stop-opacity:1;"
         offset="0.76340693"
         id="stop2" />
    </linearGradient>
    <linearGradient
       inkscape:collect="always"
       xlink:href="#linearGradient1"
       id="linearGradient2"
       x1="232.4884"
       y1="23.847498"
       x2="23.977745"
       y2="232.35815"
       gradientUnits="userSpaceOnUse" />
  </defs>
  <defs
     id="defs1" />
  <sodipodi:namedview
     id="namedview3"
     pagecolor="#ffffff"
     bordercolor="#000000"
     borderopacity="0.25"
     inkscape:showpageshadow="2"
     inkscape:pageopacity="0.0"
     inkscape:pagecheckerboard="0"
     inkscape:deskcolor="#d1d1d1" />
  <path
     id="line1"
     style="baseline-shift:baseline;display:inline;overflow:visible;vector-effect:none;fill:url(#linearGradient2);stroke-linecap:round;stroke-linejoin:round;enable-background:accumulate;stop-color:#000000;stop-opacity:1;opacity:1;fill-opacity:1"
     d="M 128.22656 24.003906 A 8.0008 8.0008 0 0 0 127.24414 24.037109 A 8.0008 8.0008 0 0 0 120 32 L 120 71.630859 A 8 8 0 0 0 128 79.630859 A 8 8 0 0 0 136 71.630859 L 136 48 L 178.66602 80 L 153.66992 98.75 A 8 8 0 0 0 152.07031 109.95117 A 8 8 0 0 0 163.26953 111.54883 L 196.80078 86.400391 A 8.0008 8.0008 0 0 0 196.80078 73.599609 L 132.80078 25.599609 A 8.0008 8.0008 0 0 0 128.22656 24.003906 z M 56.380859 32.009766 A 8 8 0 0 0 50.619141 34.080078 A 8 8 0 0 0 50.080078 45.380859 L 120.92188 123.30664 L 59.199219 169.59961 A 8 8 0 0 0 57.599609 180.80078 A 8 8 0 0 0 68.800781 182.40039 L 120 144.00195 L 120 224 A 8.0008 8.0008 0 0 0 132.80078 230.40039 L 183.625 192.2793 L 210.08008 221.38086 A 8 8 0 0 0 221.38086 221.91992 A 8 8 0 0 0 221.91992 210.61914 L 190.75391 176.33789 L 190.75195 176.33398 A 8 8 0 0 0 190.38086 175.92773 L 61.919922 34.619141 A 8 8 0 0 0 56.380859 32.009766 z M 136 144.00195 L 147.74805 152.81445 L 172.8125 180.38672 L 136 207.99805 L 136 144.00195 z " />
</svg>
