<?xml version="1.0" encoding="UTF-8" standalone="no"?>
<svg
   viewBox="0 0 256 256"
   version="1.1"
   id="svg3"
   sodipodi:docname="brandy coral_purple.svg"
   xmlns:inkscape="http://www.inkscape.org/namespaces/inkscape"
   xmlns:sodipodi="http://sodipodi.sourceforge.net/DTD/sodipodi-0.dtd"
   xmlns:xlink="http://www.w3.org/1999/xlink"
   xmlns="http://www.w3.org/2000/svg"
   xmlns:svg="http://www.w3.org/2000/svg">
  <defs
     id="defs3">
    <linearGradient
       id="linearGradient1"
       inkscape:collect="always">
      <stop
         style="stop-color:#a03291;stop-opacity:1;"
         offset="0"
         id="stop1" />
      <stop
         style="stop-color:#ff7c66;stop-opacity:1;"
         offset="0.76340693"
         id="stop2" />
    </linearGradient>
    <linearGradient
       inkscape:collect="always"
       xlink:href="#linearGradient1"
       id="linearGradient2"
       x1="232.4884"
       y1="23.847498"
       x2="23.977745"
       y2="232.35815"
       gradientUnits="userSpaceOnUse" />
  </defs>
  <defs
     id="defs1" />
  <sodipodi:namedview
     id="namedview3"
     pagecolor="#ffffff"
     bordercolor="#000000"
     borderopacity="0.25"
     inkscape:showpageshadow="2"
     inkscape:pageopacity="0.0"
     inkscape:pagecheckerboard="0"
     inkscape:deskcolor="#d1d1d1" />
  <path
     id="line1"
     style="baseline-shift:baseline;display:inline;overflow:visible;vector-effect:none;fill:url(#linearGradient2);stroke-linecap:round;stroke-linejoin:round;enable-background:accumulate;stop-color:#000000;stop-opacity:1;opacity:1;fill-opacity:1"
     d="M 54.230469 32 A 8.0008 8.0008 0 0 0 47.523438 35.638672 C 37.261512 51.416863 32.058978 69.533726 32.005859 87.707031 A 8 8 0 0 0 32 88 A 8 8 0 0 0 32.005859 88.294922 C 32.055593 103.90837 35.906515 119.54506 43.617188 133.75781 C 59.119624 162.33279 87.952601 180.9659 120 183.64258 L 120 216 L 88 216 A 8 8 0 0 0 80 224 A 8 8 0 0 0 88 232 L 168 232 A 8 8 0 0 0 176 224 A 8 8 0 0 0 168 216 L 136 216 L 136 183.64258 C 168.0474 180.9659 196.88038 162.33279 212.38281 133.75781 C 220.09348 119.54508 223.9444 103.90836 223.99414 88.294922 A 8 8 0 0 0 224 88 A 8 8 0 0 0 223.99414 87.707031 C 223.94101 69.53374 218.73848 51.416851 208.47656 35.638672 A 8.0008 8.0008 0 0 0 201.76953 32 L 54.230469 32 z M 58.90625 48 L 197.09375 48 C 202.85983 57.966403 206.34594 68.882746 207.5 80 L 48.5 80 C 49.654059 68.882746 53.140175 57.966403 58.90625 48 z M 48.449219 96 L 207.55078 96 C 206.53629 106.38098 203.4731 116.62544 198.31836 126.12695 C 184.32016 151.92923 157.3553 167.97656 128 167.97656 C 98.6447 167.97656 71.679838 151.92923 57.681641 126.12695 C 52.526899 116.62544 49.46371 106.38098 48.449219 96 z " />
</svg>
