<?xml version="1.0" encoding="UTF-8" standalone="no"?>
<svg
   viewBox="0 0 256 256"
   version="1.1"
   id="svg10"
   sodipodi:docname="building office coral_purple.svg"
   xmlns:inkscape="http://www.inkscape.org/namespaces/inkscape"
   xmlns:sodipodi="http://sodipodi.sourceforge.net/DTD/sodipodi-0.dtd"
   xmlns:xlink="http://www.w3.org/1999/xlink"
   xmlns="http://www.w3.org/2000/svg"
   xmlns:svg="http://www.w3.org/2000/svg">
  <defs
     id="defs3">
    <linearGradient
       id="linearGradient1"
       inkscape:collect="always">
      <stop
         style="stop-color:#a03291;stop-opacity:1;"
         offset="0"
         id="stop1" />
      <stop
         style="stop-color:#ff7c66;stop-opacity:1;"
         offset="0.76340693"
         id="stop2" />
    </linearGradient>
    <linearGradient
       inkscape:collect="always"
       xlink:href="#linearGradient1"
       id="linearGradient2"
       x1="232.4884"
       y1="23.847498"
       x2="23.977745"
       y2="232.35815"
       gradientUnits="userSpaceOnUse" />
  </defs>
  <defs
     id="defs10" />
  <sodipodi:namedview
     id="namedview10"
     pagecolor="#ffffff"
     bordercolor="#000000"
     borderopacity="0.25"
     inkscape:showpageshadow="2"
     inkscape:pageopacity="0.0"
     inkscape:pagecheckerboard="0"
     inkscape:deskcolor="#d1d1d1" />
  <path
     id="line1"
     style="baseline-shift:baseline;display:inline;overflow:visible;vector-effect:none;fill:url(#linearGradient2);stroke-linecap:round;stroke-linejoin:round;enable-background:accumulate;stop-color:#000000;stop-opacity:1;opacity:1;fill-opacity:1"
     d="M 40 32 A 8 8 0 0 0 32 40 A 8 8 0 0 0 40 48 L 40 208 L 24 208 A 8 8 0 0 0 16 216 A 8 8 0 0 0 24 224 L 248 224 A 8 8 0 0 0 256 216 A 8 8 0 0 0 248 208 L 232 208 L 232 96 A 8 8 0 0 0 240 88 A 8 8 0 0 0 232 80 L 224 80 L 184 80 L 184 48 A 8 8 0 0 0 192 40 A 8 8 0 0 0 184 32 L 40 32 z M 56 48 L 168 48 L 168 88 L 168 208 L 144 208 L 144 160 A 8.0008 8.0008 0 0 0 136 152 L 88 152 A 8.0008 8.0008 0 0 0 80 160 L 80 208 L 56 208 L 56 48 z M 80 72 A 8 8 0 0 0 72 80 A 8 8 0 0 0 80 88 L 96 88 A 8 8 0 0 0 104 80 A 8 8 0 0 0 96 72 L 80 72 z M 128 72 A 8 8 0 0 0 120 80 A 8 8 0 0 0 128 88 L 144 88 A 8 8 0 0 0 152 80 A 8 8 0 0 0 144 72 L 128 72 z M 184 96 L 216 96 L 216 208 L 184 208 L 184 96 z M 80 112 A 8 8 0 0 0 72 120 A 8 8 0 0 0 80 128 L 96 128 A 8 8 0 0 0 104 120 A 8 8 0 0 0 96 112 L 80 112 z M 128 112 A 8 8 0 0 0 120 120 A 8 8 0 0 0 128 128 L 144 128 A 8 8 0 0 0 152 120 A 8 8 0 0 0 144 112 L 128 112 z M 96 168 L 128 168 L 128 208 L 96 208 L 96 168 z " />
</svg>
