<?xml version="1.0" encoding="UTF-8" standalone="no"?>
<svg
   viewBox="0 0 256 256"
   version="1.1"
   id="svg6"
   sodipodi:docname="buildings coral_purple.svg"
   xmlns:inkscape="http://www.inkscape.org/namespaces/inkscape"
   xmlns:sodipodi="http://sodipodi.sourceforge.net/DTD/sodipodi-0.dtd"
   xmlns:xlink="http://www.w3.org/1999/xlink"
   xmlns="http://www.w3.org/2000/svg"
   xmlns:svg="http://www.w3.org/2000/svg">
  <defs
     id="defs3">
    <linearGradient
       id="linearGradient1"
       inkscape:collect="always">
      <stop
         style="stop-color:#a03291;stop-opacity:1;"
         offset="0"
         id="stop1" />
      <stop
         style="stop-color:#ff7c66;stop-opacity:1;"
         offset="0.76340693"
         id="stop2" />
    </linearGradient>
    <linearGradient
       inkscape:collect="always"
       xlink:href="#linearGradient1"
       id="linearGradient2"
       x1="232.4884"
       y1="23.847498"
       x2="23.977745"
       y2="232.35815"
       gradientUnits="userSpaceOnUse" />
  </defs>
  <defs
     id="defs6" />
  <sodipodi:namedview
     id="namedview6"
     pagecolor="#ffffff"
     bordercolor="#000000"
     borderopacity="0.25"
     inkscape:showpageshadow="2"
     inkscape:pageopacity="0.0"
     inkscape:pagecheckerboard="0"
     inkscape:deskcolor="#d1d1d1" />
  <path
     id="path1"
     style="baseline-shift:baseline;display:inline;overflow:visible;vector-effect:none;fill:url(#linearGradient2);stroke-linecap:round;stroke-linejoin:round;enable-background:accumulate;stop-color:#000000;stop-opacity:1;opacity:1;fill-opacity:1"
     d="M 127.33398 16.152344 C 124.5212 16.189734 121.68375 16.984239 119.11914 18.695312 L 39.123047 72.023438 A 8.0008 8.0008 0 0 0 39.119141 72.025391 C 34.669604 74.994001 31.989845 80.016296 32 85.365234 L 32 208 L 16 208 A 8 8 0 0 0 8 216 A 8 8 0 0 0 16 224 L 240 224 A 8 8 0 0 0 248 216 A 8 8 0 0 0 240 208 L 224 208 L 224 96 C 224 87.258201 216.7418 80 208 80 L 144 80 L 144 32 A 8.0008 8.0008 0 0 0 144 31.996094 C 143.994 22.747049 135.77234 16.040163 127.33398 16.152344 z M 128 32.003906 L 128 87.972656 A 8 8 0 0 0 128 88 A 8 8 0 0 0 128 88.027344 L 128 208 L 48 208 L 48 85.349609 A 8.0008 8.0008 0 0 0 48 85.333984 L 127.99805 32.005859 A 8.0008 8.0008 0 0 0 128 32.003906 z M 144 96 L 208 96 L 208 208 L 144 208 L 144 96 z M 72 104 A 8 8 0 0 0 64 112 L 64 128 A 8 8 0 0 0 72 136 A 8 8 0 0 0 80 128 L 80 112 A 8 8 0 0 0 72 104 z M 104 104 A 8 8 0 0 0 96 112 L 96 128 A 8 8 0 0 0 104 136 A 8 8 0 0 0 112 128 L 112 112 A 8 8 0 0 0 104 104 z M 72 160 A 8 8 0 0 0 64 168 L 64 184 A 8 8 0 0 0 72 192 A 8 8 0 0 0 80 184 L 80 168 A 8 8 0 0 0 72 160 z M 104 160 A 8 8 0 0 0 96 168 L 96 184 A 8 8 0 0 0 104 192 A 8 8 0 0 0 112 184 L 112 168 A 8 8 0 0 0 104 160 z " />
</svg>
