<?xml version="1.0" encoding="UTF-8" standalone="no"?>
<svg
   viewBox="0 0 256 256"
   version="1.1"
   id="svg4"
   sodipodi:docname="car battery coral_purple.svg"
   xmlns:inkscape="http://www.inkscape.org/namespaces/inkscape"
   xmlns:sodipodi="http://sodipodi.sourceforge.net/DTD/sodipodi-0.dtd"
   xmlns:xlink="http://www.w3.org/1999/xlink"
   xmlns="http://www.w3.org/2000/svg"
   xmlns:svg="http://www.w3.org/2000/svg">
  <defs
     id="defs3">
    <linearGradient
       id="linearGradient1"
       inkscape:collect="always">
      <stop
         style="stop-color:#a03291;stop-opacity:1;"
         offset="0"
         id="stop1" />
      <stop
         style="stop-color:#ff7c66;stop-opacity:1;"
         offset="0.76340693"
         id="stop2" />
    </linearGradient>
    <linearGradient
       inkscape:collect="always"
       xlink:href="#linearGradient1"
       id="linearGradient2"
       x1="232.4884"
       y1="23.847498"
       x2="23.977745"
       y2="232.35815"
       gradientUnits="userSpaceOnUse" />
  </defs>
  <defs
     id="defs4" />
  <sodipodi:namedview
     id="namedview4"
     pagecolor="#ffffff"
     bordercolor="#000000"
     borderopacity="0.25"
     inkscape:showpageshadow="2"
     inkscape:pageopacity="0.0"
     inkscape:pagecheckerboard="0"
     inkscape:deskcolor="#d1d1d1" />
  <path
     id="line1"
     style="baseline-shift:baseline;display:inline;overflow:visible;vector-effect:none;fill:url(#linearGradient2);stroke-linecap:round;stroke-linejoin:round;enable-background:accumulate;stop-color:#000000;stop-opacity:1;opacity:1;fill-opacity:1"
     d="M 64 40 C 55.258201 40 48 47.258201 48 56 L 48 72 L 32 72 C 23.274378 72 16 79.274378 16 88 L 16 184 C 16 192.72562 23.274378 200 32 200 L 224 200 C 232.72562 200 240 192.72562 240 184 L 240 88 C 240 79.274378 232.72562 72 224 72 L 208 72 L 208 56 C 208 47.258201 200.7418 40 192 40 L 160 40 C 151.2582 40 144 47.258201 144 56 L 144 72 L 112 72 L 112 56 C 112 47.258201 104.7418 40 96 40 L 64 40 z M 64 56 L 96 56 L 96 72 L 64 72 L 64 56 z M 160 56 L 192 56 L 192 72 L 160 72 L 160 56 z M 32 88 L 152 88 L 200 88 L 224 88 L 224 184 L 32 184 L 32 88 z M 168 112 A 8 8 0 0 0 160 120 L 160 128 L 152 128 A 8 8 0 0 0 144 136 A 8 8 0 0 0 152 144 L 160 144 L 160 152 A 8 8 0 0 0 168 160 A 8 8 0 0 0 176 152 L 176 144 L 184 144 A 8 8 0 0 0 192 136 A 8 8 0 0 0 184 128 L 176 128 L 176 120 A 8 8 0 0 0 168 112 z M 72 128 A 8 8 0 0 0 64 136 A 8 8 0 0 0 72 144 L 104 144 A 8 8 0 0 0 112 136 A 8 8 0 0 0 104 128 L 72 128 z " />
</svg>
