<?xml version="1.0" encoding="UTF-8" standalone="no"?>
<svg
   viewBox="0 0 256 256"
   version="1.1"
   id="svg2"
   sodipodi:docname="castle turret coral_purple.svg"
   xmlns:inkscape="http://www.inkscape.org/namespaces/inkscape"
   xmlns:sodipodi="http://sodipodi.sourceforge.net/DTD/sodipodi-0.dtd"
   xmlns:xlink="http://www.w3.org/1999/xlink"
   xmlns="http://www.w3.org/2000/svg"
   xmlns:svg="http://www.w3.org/2000/svg">
  <defs
     id="defs3">
    <linearGradient
       id="linearGradient1"
       inkscape:collect="always">
      <stop
         style="stop-color:#a03291;stop-opacity:1;"
         offset="0"
         id="stop1" />
      <stop
         style="stop-color:#ff7c66;stop-opacity:1;"
         offset="0.76340693"
         id="stop2" />
    </linearGradient>
    <linearGradient
       inkscape:collect="always"
       xlink:href="#linearGradient1"
       id="linearGradient2"
       x1="232.4884"
       y1="23.847498"
       x2="23.977745"
       y2="232.35815"
       gradientUnits="userSpaceOnUse" />
  </defs>
  <defs
     id="defs2" />
  <sodipodi:namedview
     id="namedview2"
     pagecolor="#ffffff"
     bordercolor="#000000"
     borderopacity="0.25"
     inkscape:showpageshadow="2"
     inkscape:pageopacity="0.0"
     inkscape:pagecheckerboard="0"
     inkscape:deskcolor="#d1d1d1" />
  <path
     id="path1"
     style="baseline-shift:baseline;display:inline;overflow:visible;vector-effect:none;fill:url(#linearGradient2);stroke-linecap:round;stroke-linejoin:round;enable-background:accumulate;stop-color:#000000;stop-opacity:1;opacity:1;fill-opacity:1"
     d="M 56 32 C 47.258201 32 40 39.258201 40 48 L 40 92.689453 A 8.0008 8.0008 0 0 0 40 92.693359 C 40.002 96.928117 41.686926 100.99805 44.679688 103.99414 A 8.0008 8.0008 0 0 0 44.683594 103.99609 L 56 115.31445 L 56 216 L 40 216 A 8 8 0 0 0 32 224 A 8 8 0 0 0 40 232 L 64 232 L 104 232 L 152 232 L 192 232 L 216 232 A 8 8 0 0 0 224 224 A 8 8 0 0 0 216 216 L 200 216 L 200 115.31445 L 211.31641 103.99609 A 8.0008 8.0008 0 0 0 211.32031 103.99414 C 214.31307 100.99805 215.99804 96.928117 216 92.693359 A 8.0008 8.0008 0 0 0 216 92.689453 L 216 48 C 216 39.258201 208.7418 32 200 32 L 176 32 A 8.0008 8.0008 0 0 0 168 40 L 168 64 L 152 64 L 152 40 A 8.0008 8.0008 0 0 0 144 32 L 112 32 A 8.0008 8.0008 0 0 0 104 40 L 104 64 L 88 64 L 88 40 A 8.0008 8.0008 0 0 0 80 32 L 56 32 z M 56 48 L 72 48 L 72 72 A 8.0008 8.0008 0 0 0 80 80 L 112 80 A 8.0008 8.0008 0 0 0 120 72 L 120 48 L 136 48 L 136 72 A 8.0008 8.0008 0 0 0 144 80 L 176 80 A 8.0008 8.0008 0 0 0 184 72 L 184 48 L 200 48 L 200 92.685547 L 186.34375 106.34375 A 8.0008 8.0008 0 0 0 184 112 L 184 216 L 160 216 L 160 168 C 160 150.42164 145.57835 136 128 136 C 110.42165 136 96 150.42164 96 168 L 96 216 L 72 216 L 72 112 A 8.0008 8.0008 0 0 0 69.65625 106.34375 L 56 92.689453 L 56 92.6875 L 56 92.685547 L 56 48 z M 128 152 C 136.93132 152 144 159.06868 144 168 L 144 216 L 112 216 L 112 168 C 112 159.06868 119.06868 152 128 152 z " />
</svg>
