<?xml version="1.0" encoding="UTF-8" standalone="no"?>
<svg
   viewBox="0 0 256 256"
   version="1.1"
   id="svg7"
   sodipodi:docname="cell signal slash coral_purple.svg"
   xmlns:inkscape="http://www.inkscape.org/namespaces/inkscape"
   xmlns:sodipodi="http://sodipodi.sourceforge.net/DTD/sodipodi-0.dtd"
   xmlns:xlink="http://www.w3.org/1999/xlink"
   xmlns="http://www.w3.org/2000/svg"
   xmlns:svg="http://www.w3.org/2000/svg">
  <defs
     id="defs3">
    <linearGradient
       id="linearGradient1"
       inkscape:collect="always">
      <stop
         style="stop-color:#a03291;stop-opacity:1;"
         offset="0"
         id="stop1" />
      <stop
         style="stop-color:#ff7c66;stop-opacity:1;"
         offset="0.76340693"
         id="stop2" />
    </linearGradient>
    <linearGradient
       inkscape:collect="always"
       xlink:href="#linearGradient1"
       id="linearGradient2"
       x1="232.4884"
       y1="23.847498"
       x2="23.977745"
       y2="232.35815"
       gradientUnits="userSpaceOnUse" />
  </defs>
  <defs
     id="defs7" />
  <sodipodi:namedview
     id="namedview7"
     pagecolor="#ffffff"
     bordercolor="#000000"
     borderopacity="0.25"
     inkscape:showpageshadow="2"
     inkscape:pageopacity="0.0"
     inkscape:pagecheckerboard="0"
     inkscape:deskcolor="#d1d1d1" />
  <path
     id="line1"
     style="baseline-shift:baseline;display:inline;overflow:visible;vector-effect:none;fill:url(#linearGradient2);stroke-linecap:round;stroke-linejoin:round;enable-background:accumulate;stop-color:#000000;stop-opacity:1;opacity:1;fill-opacity:1"
     d="M 200 24 A 8 8 0 0 0 192 32 L 192 159.63086 A 8 8 0 0 0 200 167.63086 A 8 8 0 0 0 208 159.63086 L 208 32 A 8 8 0 0 0 200 24 z M 48.380859 32.009766 A 8 8 0 0 0 42.619141 34.080078 A 8 8 0 0 0 42.080078 45.380859 L 112 122.29297 L 112 200 A 8 8 0 0 0 120 208 A 8 8 0 0 0 128 200 L 128 139.89258 L 152 166.29297 L 152 200 A 8 8 0 0 0 160 208 A 8 8 0 0 0 168 200 L 168 183.89258 L 202.08008 221.38086 A 8 8 0 0 0 213.38086 221.91992 A 8 8 0 0 0 213.91992 210.61914 L 165.98438 157.88867 A 8 8 0 0 0 165.85352 157.74609 L 125.99219 113.89844 L 125.98438 113.88867 A 8 8 0 0 0 125.85352 113.74609 L 53.919922 34.619141 A 8 8 0 0 0 48.380859 32.009766 z M 160 64 A 8 8 0 0 0 152 72 L 152 115.63086 A 8 8 0 0 0 160 123.63086 A 8 8 0 0 0 168 115.63086 L 168 72 A 8 8 0 0 0 160 64 z M 80 144 A 8 8 0 0 0 72 152 L 72 200 A 8 8 0 0 0 80 208 A 8 8 0 0 0 88 200 L 88 152 A 8 8 0 0 0 80 144 z M 40 184 A 8 8 0 0 0 32 192 L 32 200 A 8 8 0 0 0 40 208 A 8 8 0 0 0 48 200 L 48 192 A 8 8 0 0 0 40 184 z " />
</svg>
