<?xml version="1.0" encoding="UTF-8" standalone="no"?>
<svg
   viewBox="0 0 256 256"
   version="1.1"
   id="svg6"
   sodipodi:docname="chair coral_purple.svg"
   xmlns:inkscape="http://www.inkscape.org/namespaces/inkscape"
   xmlns:sodipodi="http://sodipodi.sourceforge.net/DTD/sodipodi-0.dtd"
   xmlns:xlink="http://www.w3.org/1999/xlink"
   xmlns="http://www.w3.org/2000/svg"
   xmlns:svg="http://www.w3.org/2000/svg">
  <defs
     id="defs3">
    <linearGradient
       id="linearGradient1"
       inkscape:collect="always">
      <stop
         style="stop-color:#a03291;stop-opacity:1;"
         offset="0"
         id="stop1" />
      <stop
         style="stop-color:#ff7c66;stop-opacity:1;"
         offset="0.76340693"
         id="stop2" />
    </linearGradient>
    <linearGradient
       inkscape:collect="always"
       xlink:href="#linearGradient1"
       id="linearGradient2"
       x1="232.4884"
       y1="23.847498"
       x2="23.977745"
       y2="232.35815"
       gradientUnits="userSpaceOnUse" />
  </defs>
  <defs
     id="defs6" />
  <sodipodi:namedview
     id="namedview6"
     pagecolor="#ffffff"
     bordercolor="#000000"
     borderopacity="0.25"
     inkscape:showpageshadow="2"
     inkscape:pageopacity="0.0"
     inkscape:pagecheckerboard="0"
     inkscape:deskcolor="#d1d1d1" />
  <path
     id="rect2"
     style="baseline-shift:baseline;display:inline;overflow:visible;vector-effect:none;fill:url(#linearGradient2);stroke-linecap:round;stroke-linejoin:round;enable-background:accumulate;stop-color:#000000;stop-opacity:1;opacity:1;fill-opacity:1"
     d="M 64 24 C 55.274378 24 48 31.274378 48 40 L 48 88 C 48 96.725622 55.274378 104 64 104 L 80 104 L 80 136 L 48 136 C 39.274378 136 32 143.27438 32 152 L 32 168 C 32 176.72562 39.274378 184 48 184 L 56 184 L 56 224 A 8 8 0 0 0 64 232 A 8 8 0 0 0 72 224 L 72 184 L 184 184 L 184 224 A 8 8 0 0 0 192 232 A 8 8 0 0 0 200 224 L 200 184 L 208 184 C 216.72562 184 224 176.72562 224 168 L 224 152 C 224 143.27438 216.72562 136 208 136 L 176 136 L 176 104 L 192 104 C 200.72562 104 208 96.725622 208 88 L 208 40 C 208 31.274378 200.72562 24 192 24 L 64 24 z M 64 40 L 192 40 L 192 88 L 64 88 L 64 40 z M 96 104 L 160 104 L 160 136 L 96 136 L 96 104 z M 48 152 L 208 152 L 208 168 L 64 168 L 48 168 L 48 152 z " />
</svg>
