<?xml version="1.0" encoding="UTF-8" standalone="no"?>
<svg
   viewBox="0 0 256 256"
   version="1.1"
   id="svg4"
   sodipodi:docname="champagne coral_purple.svg"
   xmlns:inkscape="http://www.inkscape.org/namespaces/inkscape"
   xmlns:sodipodi="http://sodipodi.sourceforge.net/DTD/sodipodi-0.dtd"
   xmlns:xlink="http://www.w3.org/1999/xlink"
   xmlns="http://www.w3.org/2000/svg"
   xmlns:svg="http://www.w3.org/2000/svg">
  <defs
     id="defs3">
    <linearGradient
       id="linearGradient1"
       inkscape:collect="always">
      <stop
         style="stop-color:#a03291;stop-opacity:1;"
         offset="0"
         id="stop1" />
      <stop
         style="stop-color:#ff7c66;stop-opacity:1;"
         offset="0.76340693"
         id="stop2" />
    </linearGradient>
    <linearGradient
       inkscape:collect="always"
       xlink:href="#linearGradient1"
       id="linearGradient2"
       x1="232.4884"
       y1="23.847498"
       x2="23.977745"
       y2="232.35815"
       gradientUnits="userSpaceOnUse" />
  </defs>
  <defs
     id="defs4" />
  <sodipodi:namedview
     id="namedview4"
     pagecolor="#ffffff"
     bordercolor="#000000"
     borderopacity="0.25"
     inkscape:showpageshadow="2"
     inkscape:pageopacity="0.0"
     inkscape:pagecheckerboard="0"
     inkscape:deskcolor="#d1d1d1" />
  <path
     id="line1"
     style="baseline-shift:baseline;display:inline;overflow:visible;vector-effect:none;fill:url(#linearGradient2);stroke-linecap:round;stroke-linejoin:round;enable-background:accumulate;stop-color:#000000;stop-opacity:1;opacity:1;fill-opacity:1"
     d="M 97.699219 8 A 8.0008 8.0008 0 0 0 90.091797 13.527344 C 90.091797 13.527344 82.08119 38.578064 76.720703 69.199219 A 8 8 0 0 0 76.199219 72 A 8 8 0 0 0 76.238281 72.597656 C 75.005214 80.026696 73.740138 87.516694 73.021484 95.259766 C 71.108503 115.87102 71.340467 136.74715 77.671875 153.78711 C 83.181437 168.6152 94.914807 180.51405 112 183.35352 L 112 232 L 96 232 A 8 8 0 0 0 88 240 A 8 8 0 0 0 96 248 L 144 248 A 8 8 0 0 0 152 240 A 8 8 0 0 0 144 232 L 128 232 L 128 183.35352 C 145.08519 180.51405 156.81857 168.6152 162.32812 153.78711 C 168.65954 136.74715 168.8915 115.87102 166.97852 95.259766 C 166.25986 87.516694 164.99479 80.026696 163.76172 72.597656 A 8 8 0 0 0 163.80078 72 A 8 8 0 0 0 163.2793 69.199219 C 157.91881 38.578064 149.9082 13.527344 149.9082 13.527344 A 8.0008 8.0008 0 0 0 142.30078 8 L 97.699219 8 z M 196 8 A 12 12 0 0 0 184 20 A 12 12 0 0 0 196 32 A 12 12 0 0 0 208 20 A 12 12 0 0 0 196 8 z M 103.63672 24 L 136.36328 24 C 138.53154 31.293118 142.70847 46.194321 146.20312 64 L 93.796875 64 C 97.29153 46.194321 101.46846 31.293118 103.63672 24 z M 220 40 A 12 12 0 0 0 208 52 A 12 12 0 0 0 220 64 A 12 12 0 0 0 232 52 A 12 12 0 0 0 220 40 z M 91.011719 80 L 148.98828 80 C 149.81604 85.489239 150.52399 91.1066 151.04688 96.740234 C 152.8464 116.12898 152.14554 135.25285 147.33008 148.21289 C 142.51461 161.17294 135.70376 168 120 168 C 104.29624 168 97.485389 161.17294 92.669922 148.21289 C 87.854455 135.25285 87.153607 116.12898 88.953125 96.740234 C 89.475997 91.1066 90.183955 85.489239 91.011719 80 z M 196 88 A 12 12 0 0 0 184 100 A 12 12 0 0 0 196 112 A 12 12 0 0 0 208 100 A 12 12 0 0 0 196 88 z " />
</svg>
