<?xml version="1.0" encoding="UTF-8" standalone="no"?>
<svg
   viewBox="0 0 256 256"
   version="1.1"
   id="svg3"
   sodipodi:docname="chart line up coral_purple.svg"
   xmlns:inkscape="http://www.inkscape.org/namespaces/inkscape"
   xmlns:sodipodi="http://sodipodi.sourceforge.net/DTD/sodipodi-0.dtd"
   xmlns:xlink="http://www.w3.org/1999/xlink"
   xmlns="http://www.w3.org/2000/svg"
   xmlns:svg="http://www.w3.org/2000/svg">
  <defs
     id="defs3">
    <linearGradient
       id="linearGradient1"
       inkscape:collect="always">
      <stop
         style="stop-color:#a03291;stop-opacity:1;"
         offset="0"
         id="stop1" />
      <stop
         style="stop-color:#ff7c66;stop-opacity:1;"
         offset="0.76340693"
         id="stop2" />
    </linearGradient>
    <linearGradient
       inkscape:collect="always"
       xlink:href="#linearGradient1"
       id="linearGradient2"
       x1="232.4884"
       y1="23.847498"
       x2="23.977745"
       y2="232.35815"
       gradientUnits="userSpaceOnUse" />
  </defs>
  <defs
     id="defs1" />
  <sodipodi:namedview
     id="namedview3"
     pagecolor="#ffffff"
     bordercolor="#000000"
     borderopacity="0.25"
     inkscape:showpageshadow="2"
     inkscape:pageopacity="0.0"
     inkscape:pagecheckerboard="0"
     inkscape:deskcolor="#d1d1d1" />
  <path
     id="polyline1"
     style="baseline-shift:baseline;display:inline;overflow:visible;vector-effect:none;fill:url(#linearGradient2);stroke-linecap:round;stroke-linejoin:round;enable-background:accumulate;stop-color:#000000;stop-opacity:1;opacity:1;fill-opacity:1"
     d="M 32 40 A 8 8 0 0 0 24 48 L 24 208 A 8.0008 8.0008 0 0 0 32 216 L 224 216 A 8 8 0 0 0 232 208 A 8 8 0 0 0 224 200 L 40 200 L 40 179.3125 L 96 123.3125 L 122.34375 149.65625 A 8.0008 8.0008 0 0 0 133.65625 149.65625 L 192 91.3125 L 192 112 A 8 8 0 0 0 200 120 A 8 8 0 0 0 208 112 L 208 72 A 8.0008 8.0008 0 0 0 207.72656 69.929688 A 8 8 0 0 0 205.65625 66.34375 A 8.0008 8.0008 0 0 0 200 64 L 160 64 A 8 8 0 0 0 152 72 A 8 8 0 0 0 160 80 L 180.6875 80 L 128 132.6875 L 101.65625 106.34375 A 8.0008 8.0008 0 0 0 90.34375 106.34375 L 40 156.6875 L 40 48 A 8 8 0 0 0 32 40 z " />
</svg>
