<?xml version="1.0" encoding="UTF-8" standalone="no"?>
<svg
   viewBox="0 0 256 256"
   version="1.1"
   id="svg3"
   sodipodi:docname="chart bar horizontal coral_purple.svg"
   xmlns:inkscape="http://www.inkscape.org/namespaces/inkscape"
   xmlns:sodipodi="http://sodipodi.sourceforge.net/DTD/sodipodi-0.dtd"
   xmlns:xlink="http://www.w3.org/1999/xlink"
   xmlns="http://www.w3.org/2000/svg"
   xmlns:svg="http://www.w3.org/2000/svg">
  <defs
     id="defs3">
    <linearGradient
       id="linearGradient1"
       inkscape:collect="always">
      <stop
         style="stop-color:#a03291;stop-opacity:1;"
         offset="0"
         id="stop1" />
      <stop
         style="stop-color:#ff7c66;stop-opacity:1;"
         offset="0.76340693"
         id="stop2" />
    </linearGradient>
    <linearGradient
       inkscape:collect="always"
       xlink:href="#linearGradient1"
       id="linearGradient2"
       x1="232.4884"
       y1="23.847498"
       x2="23.977745"
       y2="232.35815"
       gradientUnits="userSpaceOnUse" />
  </defs>
  <defs
     id="defs1" />
  <sodipodi:namedview
     id="namedview3"
     pagecolor="#ffffff"
     bordercolor="#000000"
     borderopacity="0.25"
     inkscape:showpageshadow="2"
     inkscape:pageopacity="0.0"
     inkscape:pagecheckerboard="0"
     inkscape:deskcolor="#d1d1d1" />
  <path
     id="line1"
     style="baseline-shift:baseline;display:inline;overflow:visible;vector-effect:none;fill:url(#linearGradient2);stroke-linecap:round;stroke-linejoin:round;enable-background:accumulate;stop-color:#000000;stop-opacity:1;opacity:1;fill-opacity:1"
     d="M 48 32 A 8 8 0 0 0 40 40 L 40 200 L 40 216 A 8 8 0 0 0 48 224 A 8 8 0 0 0 56 216 L 56 208 L 144 208 A 8.0008 8.0008 0 0 0 152 200 L 152 160 L 224 160 A 8.0008 8.0008 0 0 0 232 152 L 232 104 A 8.0008 8.0008 0 0 0 224 96 L 184 96 L 184 56 A 8.0008 8.0008 0 0 0 176 48 L 56 48 L 56 40 A 8 8 0 0 0 48 32 z M 56 64 L 168 64 L 168 96 L 56 96 L 56 64 z M 56 112 L 216 112 L 216 144 L 144 144 L 56 144 L 56 112 z M 56 160 L 136 160 L 136 192 L 56 192 L 56 160 z " />
</svg>
