<?xml version="1.0" encoding="UTF-8" standalone="no"?>
<svg
   viewBox="0 0 256 256"
   version="1.1"
   id="svg3"
   sodipodi:docname="chat teardrop dots coral_purple.svg"
   xmlns:inkscape="http://www.inkscape.org/namespaces/inkscape"
   xmlns:sodipodi="http://sodipodi.sourceforge.net/DTD/sodipodi-0.dtd"
   xmlns:xlink="http://www.w3.org/1999/xlink"
   xmlns="http://www.w3.org/2000/svg"
   xmlns:svg="http://www.w3.org/2000/svg">
  <defs
     id="defs3">
    <linearGradient
       id="linearGradient1"
       inkscape:collect="always">
      <stop
         style="stop-color:#a03291;stop-opacity:1;"
         offset="0"
         id="stop1" />
      <stop
         style="stop-color:#ff7c66;stop-opacity:1;"
         offset="0.76340693"
         id="stop2" />
    </linearGradient>
    <linearGradient
       inkscape:collect="always"
       xlink:href="#linearGradient1"
       id="linearGradient2"
       x1="232.4884"
       y1="23.847498"
       x2="23.977745"
       y2="232.35815"
       gradientUnits="userSpaceOnUse" />
  </defs>
  <defs
     id="defs1" />
  <sodipodi:namedview
     id="namedview3"
     pagecolor="#ffffff"
     bordercolor="#000000"
     borderopacity="0.25"
     inkscape:showpageshadow="2"
     inkscape:pageopacity="0.0"
     inkscape:pagecheckerboard="0"
     inkscape:deskcolor="#d1d1d1" />
  <path
     id="path1"
     style="baseline-shift:baseline;display:inline;overflow:visible;vector-effect:none;fill:url(#linearGradient2);stroke-linecap:round;stroke-linejoin:round;enable-background:accumulate;stop-color:#000000;stop-opacity:1;opacity:1;fill-opacity:1"
     d="M 132 24 C 76.866282 24 32 68.866282 32 124 L 32 208 C 32 216.7418 39.258201 224 48 224 L 132 224 C 187.13372 224 232 179.13372 232 124 C 232 68.866282 187.13372 24 132 24 z M 132 40 C 178.48668 40 216 77.513324 216 124 C 216 170.48668 178.48668 208 132 208 L 48 208 L 48 124 C 48 77.513324 85.513324 40 132 40 z M 88 116 A 12 12 0 0 0 76 128 A 12 12 0 0 0 88 140 A 12 12 0 0 0 100 128 A 12 12 0 0 0 88 116 z M 132 116 A 12 12 0 0 0 120 128 A 12 12 0 0 0 132 140 A 12 12 0 0 0 144 128 A 12 12 0 0 0 132 116 z M 176 116 A 12 12 0 0 0 164 128 A 12 12 0 0 0 176 140 A 12 12 0 0 0 188 128 A 12 12 0 0 0 176 116 z " />
</svg>
