<?xml version="1.0" encoding="UTF-8" standalone="no"?>
<svg
   viewBox="0 0 256 256"
   version="1.1"
   id="svg4"
   sodipodi:docname="cherries coral_purple.svg"
   xmlns:inkscape="http://www.inkscape.org/namespaces/inkscape"
   xmlns:sodipodi="http://sodipodi.sourceforge.net/DTD/sodipodi-0.dtd"
   xmlns:xlink="http://www.w3.org/1999/xlink"
   xmlns="http://www.w3.org/2000/svg"
   xmlns:svg="http://www.w3.org/2000/svg">
  <defs
     id="defs3">
    <linearGradient
       id="linearGradient1"
       inkscape:collect="always">
      <stop
         style="stop-color:#a03291;stop-opacity:1;"
         offset="0"
         id="stop1" />
      <stop
         style="stop-color:#ff7c66;stop-opacity:1;"
         offset="0.76340693"
         id="stop2" />
    </linearGradient>
    <linearGradient
       inkscape:collect="always"
       xlink:href="#linearGradient1"
       id="linearGradient2"
       x1="232.4884"
       y1="23.847498"
       x2="23.977745"
       y2="232.35815"
       gradientUnits="userSpaceOnUse" />
  </defs>
  <defs
     id="defs4" />
  <sodipodi:namedview
     id="namedview4"
     pagecolor="#ffffff"
     bordercolor="#000000"
     borderopacity="0.25"
     inkscape:showpageshadow="2"
     inkscape:pageopacity="0.0"
     inkscape:pagecheckerboard="0"
     inkscape:deskcolor="#d1d1d1" />
  <path
     id="circle1"
     style="baseline-shift:baseline;display:inline;overflow:visible;vector-effect:none;fill:url(#linearGradient2);stroke-linecap:round;stroke-linejoin:round;enable-background:accumulate;stop-color:#000000;stop-opacity:1;opacity:1;fill-opacity:1"
     d="M 73.568359 23.234375 C 62.273762 22.98668 54.869141 24.080078 54.869141 24.080078 A 8.0008 8.0008 0 0 0 51.5625 38.65625 C 68.916288 50.225442 77.049559 69.319706 80.445312 88.394531 C 44.305929 92.18794 16 122.88084 16 160 C 16 199.66974 48.330255 232 88 232 C 109.47956 232 128.80676 222.52118 142.01562 207.53125 C 165.03053 219.85201 193.21874 218.80797 215.38477 204.32031 C 239.6089 188.48748 252.01051 159.62551 246.82617 131.1543 C 241.64183 102.68309 219.86159 80.043364 191.61133 73.765625 C 188.08004 72.980907 184.53222 72.470798 180.99414 72.224609 C 176.6175 71.920072 172.25681 72.019414 167.96094 72.503906 C 154.52237 49.947779 134.69975 37.021061 115.60742 30.4375 C 100.04651 25.07167 84.862957 23.48207 73.568359 23.234375 z M 75.9375 39.388672 C 85.618333 39.783736 97.895356 41.253115 110.39258 45.5625 C 125.67058 50.830779 140.96891 59.700148 152.02734 76.167969 C 140.57322 80.21345 130.15606 87.141077 121.91797 96.513672 C 114.22714 92.384305 105.70547 89.613167 96.677734 88.521484 C 94.035572 71.778548 88.094825 53.858752 75.9375 39.388672 z M 175.52734 88.046875 C 179.7102 88.014102 183.93867 88.451009 188.14062 89.384766 C 210.1515 94.275993 227.04643 111.83549 231.08594 134.01953 C 235.12544 156.20357 225.50482 178.59177 206.63086 190.92773 C 189.90392 201.86042 168.86097 202.96751 151.27539 194.30469 C 156.83654 184.09754 160 172.40794 160 160 C 160 149.63321 157.79206 139.76794 153.82227 130.84961 C 154.01899 130.95268 154.21892 131.05477 154.42188 131.15625 C 159.37593 133.63328 166.66667 136 176 136 A 8 8 0 0 0 176.57031 135.98047 A 8 8 0 0 0 176.68945 135.96484 C 185.67837 135.84709 192.75218 133.56923 197.57812 131.15625 C 202.53218 128.67922 205.65625 125.65625 205.65625 125.65625 A 8 8 0 0 0 205.65625 114.34375 A 8 8 0 0 0 194.34375 114.34375 C 194.34375 114.34375 193.46782 115.32078 190.42188 116.84375 C 188.61709 117.74614 186.2292 118.68755 183.19531 119.30469 C 181.75472 107.58662 179.103 97.210935 175.52734 88.046875 z M 159.65625 90.476562 C 163.01492 98.549015 165.5584 107.94171 167.03125 118.89062 C 164.8225 118.30608 163.01534 117.56236 161.57812 116.84375 C 158.53218 115.32078 157.65625 114.34375 157.65625 114.34375 A 8 8 0 0 0 152 112 A 8 8 0 0 0 146.34375 114.34375 A 8 8 0 0 0 145.01562 116.10156 C 142.09172 112.31433 138.79896 108.82531 135.19336 105.6875 C 141.96119 98.481299 150.42524 93.291172 159.65625 90.476562 z M 82.285156 104.28516 C 83.043742 117.13953 82.089028 128.48052 81.226562 135.38672 C 77.99158 134.77315 75.465656 133.78751 73.578125 132.84375 C 70.532181 131.32078 69.65625 130.34375 69.65625 130.34375 A 8 8 0 0 0 64 128 A 8 8 0 0 0 58.34375 130.34375 A 8 8 0 0 0 58.34375 141.65625 C 58.34375 141.65625 61.467819 144.67922 66.421875 147.15625 C 71.240955 149.56579 78.308739 151.83126 87.279297 151.95508 A 8 8 0 0 0 87.689453 151.98047 C 87.798466 151.98112 87.890423 152 88 152 C 88.102669 152 88.188841 151.98299 88.291016 151.98242 A 8 8 0 0 0 88.71875 151.95508 C 97.69028 151.83158 104.75869 149.56597 109.57812 147.15625 C 114.53217 144.67922 117.65625 141.65625 117.65625 141.65625 A 8 8 0 0 0 117.65625 130.34375 A 8 8 0 0 0 106.34375 130.34375 C 106.34375 130.34375 105.46782 131.32078 102.42188 132.84375 C 101.08062 133.51437 99.417636 134.20695 97.40625 134.77148 C 98.21866 127.38825 98.930363 116.81301 98.34375 104.94531 C 105.65455 106.30004 112.45781 109.06524 118.46289 112.95117 A 8 8 0 0 0 119.17773 113.52344 A 8 8 0 0 0 120.28516 114.18164 C 134.64976 124.30017 144 141.01878 144 160 C 144 191.0227 119.0227 216 88 216 C 56.977297 216 32 191.0227 32 160 C 32 130.90731 53.966589 107.13091 82.285156 104.28516 z " />
</svg>
