<?xml version="1.0" encoding="UTF-8" standalone="no"?>
<svg
   viewBox="0 0 256 256"
   version="1.1"
   id="svg8"
   sodipodi:docname="city coral_purple.svg"
   xmlns:inkscape="http://www.inkscape.org/namespaces/inkscape"
   xmlns:sodipodi="http://sodipodi.sourceforge.net/DTD/sodipodi-0.dtd"
   xmlns:xlink="http://www.w3.org/1999/xlink"
   xmlns="http://www.w3.org/2000/svg"
   xmlns:svg="http://www.w3.org/2000/svg">
  <defs
     id="defs3">
    <linearGradient
       id="linearGradient1"
       inkscape:collect="always">
      <stop
         style="stop-color:#a03291;stop-opacity:1;"
         offset="0"
         id="stop1" />
      <stop
         style="stop-color:#ff7c66;stop-opacity:1;"
         offset="0.76340693"
         id="stop2" />
    </linearGradient>
    <linearGradient
       inkscape:collect="always"
       xlink:href="#linearGradient1"
       id="linearGradient2"
       x1="232.4884"
       y1="23.847498"
       x2="23.977745"
       y2="232.35815"
       gradientUnits="userSpaceOnUse" />
  </defs>
  <defs
     id="defs8" />
  <sodipodi:namedview
     id="namedview8"
     pagecolor="#ffffff"
     bordercolor="#000000"
     borderopacity="0.25"
     inkscape:showpageshadow="2"
     inkscape:pageopacity="0.0"
     inkscape:pagecheckerboard="0"
     inkscape:deskcolor="#d1d1d1" />
  <path
     id="line1"
     style="baseline-shift:baseline;display:inline;overflow:visible;vector-effect:none;fill:url(#linearGradient2);stroke-linecap:round;stroke-linejoin:round;enable-background:accumulate;stop-color:#000000;stop-opacity:1;opacity:1;fill-opacity:1"
     d="M 32 32 A 8.0008 8.0008 0 0 0 24 40 L 24 208 L 16 208 A 8 8 0 0 0 8 216 A 8 8 0 0 0 16 224 L 240 224 A 8 8 0 0 0 248 216 A 8 8 0 0 0 240 208 L 232 208 L 232 88 A 8.0008 8.0008 0 0 0 224 80 L 160 80 A 8.0008 8.0008 0 0 0 152 88 L 152 128 L 104 128 L 104 40 A 8.0008 8.0008 0 0 0 96 32 L 32 32 z M 40 48 L 88 48 L 88 208 L 40 208 L 40 48 z M 64 64 A 8 8 0 0 0 56 72 L 56 88 A 8 8 0 0 0 64 96 A 8 8 0 0 0 72 88 L 72 72 A 8 8 0 0 0 64 64 z M 168 96 L 216 96 L 216 208 L 168 208 L 168 96 z M 64 112 A 8 8 0 0 0 56 120 L 56 136 A 8 8 0 0 0 64 144 A 8 8 0 0 0 72 136 L 72 120 A 8 8 0 0 0 64 112 z M 192 112 A 8 8 0 0 0 184 120 L 184 136 A 8 8 0 0 0 192 144 A 8 8 0 0 0 200 136 L 200 120 A 8 8 0 0 0 192 112 z M 104 144 L 152 144 L 152 208 L 104 208 L 104 144 z M 64 160 A 8 8 0 0 0 56 168 L 56 184 A 8 8 0 0 0 64 192 A 8 8 0 0 0 72 184 L 72 168 A 8 8 0 0 0 64 160 z M 128 160 A 8 8 0 0 0 120 168 L 120 184 A 8 8 0 0 0 128 192 A 8 8 0 0 0 136 184 L 136 168 A 8 8 0 0 0 128 160 z M 192 160 A 8 8 0 0 0 184 168 L 184 184 A 8 8 0 0 0 192 192 A 8 8 0 0 0 200 184 L 200 168 A 8 8 0 0 0 192 160 z " />
</svg>
