<?xml version="1.0" encoding="UTF-8" standalone="no"?>
<svg
   viewBox="0 0 256 256"
   version="1.1"
   id="svg2"
   sodipodi:docname="cloud arrow up coral_purple.svg"
   xmlns:inkscape="http://www.inkscape.org/namespaces/inkscape"
   xmlns:sodipodi="http://sodipodi.sourceforge.net/DTD/sodipodi-0.dtd"
   xmlns:xlink="http://www.w3.org/1999/xlink"
   xmlns="http://www.w3.org/2000/svg"
   xmlns:svg="http://www.w3.org/2000/svg">
  <defs
     id="defs3">
    <linearGradient
       id="linearGradient1"
       inkscape:collect="always">
      <stop
         style="stop-color:#a03291;stop-opacity:1;"
         offset="0"
         id="stop1" />
      <stop
         style="stop-color:#ff7c66;stop-opacity:1;"
         offset="0.76340693"
         id="stop2" />
    </linearGradient>
    <linearGradient
       inkscape:collect="always"
       xlink:href="#linearGradient1"
       id="linearGradient2"
       x1="232.4884"
       y1="23.847498"
       x2="23.977745"
       y2="232.35815"
       gradientUnits="userSpaceOnUse" />
  </defs>
  <defs
     id="defs2" />
  <sodipodi:namedview
     id="namedview2"
     pagecolor="#ffffff"
     bordercolor="#000000"
     borderopacity="0.25"
     inkscape:showpageshadow="2"
     inkscape:pageopacity="0.0"
     inkscape:pagecheckerboard="0"
     inkscape:deskcolor="#d1d1d1" />
  <path
     id="path1"
     style="baseline-shift:baseline;display:inline;overflow:visible;vector-effect:none;fill:url(#linearGradient2);stroke-linecap:round;stroke-linejoin:round;enable-background:accumulate;stop-color:#000000;stop-opacity:1;opacity:1;fill-opacity:1"
     d="M 163.70898 40.103516 C 148.12963 39.445798 132.37681 42.919006 118.16602 50.597656 C 101.97345 59.347139 89.248446 72.763639 81.294922 88.664062 C 78.857575 88.307219 76.428388 88.096217 74.015625 88.023438 C 41.901456 87.054733 12.776169 110.68534 8.5722656 143.98438 C 3.7678049 182.0404 33.632095 215.95268 71.990234 216 A 8.0008 8.0008 0 0 0 72 216 L 112 216 A 8 8 0 0 0 120 208 A 8 8 0 0 0 112 200 L 72.009766 200 L 72 200 C 42.995429 199.9585 20.81417 174.76595 24.447266 145.98828 C 27.707558 120.16359 50.385936 102.30125 75.316406 104.08789 C 73.145369 111.76349 72.001926 119.79844 72 127.99805 A 8 8 0 0 0 79.998047 136 A 8 8 0 0 0 88 128.00195 C 88.0062 101.54361 102.49422 77.253403 125.77148 64.675781 C 149.04873 52.09817 177.30638 53.290667 199.44141 67.785156 C 221.57643 82.279645 233.96896 107.70389 231.74609 134.06836 C 229.52323 160.43285 213.05025 183.42448 188.80078 194.00781 A 8 8 0 0 0 184.66797 204.53906 A 8 8 0 0 0 195.19922 208.67188 C 224.80771 195.74967 244.97533 167.60322 247.68945 135.41211 C 250.40358 103.22101 235.23353 72.097919 208.20703 54.400391 C 194.69378 45.551626 179.28834 40.761233 163.70898 40.103516 z M 152 120 A 8.0008 8.0008 0 0 0 150.94922 120.07031 A 8 8 0 0 0 150.46094 120.16797 A 8.0008 8.0008 0 0 0 149.91406 120.2793 A 8 8 0 0 0 149.39844 120.45312 A 8.0008 8.0008 0 0 0 148.92188 120.61719 A 8 8 0 0 0 148.44531 120.85352 A 8.0008 8.0008 0 0 0 147.9668 121.0957 A 8 8 0 0 0 147.52539 121.39062 A 8.0008 8.0008 0 0 0 147.10352 121.67773 A 8 8 0 0 0 146.66406 122.0625 A 8.0008 8.0008 0 0 0 146.34375 122.34375 L 114.34375 154.34375 A 8 8 0 0 0 114.34375 165.65625 A 8 8 0 0 0 125.65625 165.65625 L 144 147.3125 L 144 208 A 8 8 0 0 0 152 216 A 8 8 0 0 0 160 208 L 160 147.3125 L 178.34375 165.65625 A 8 8 0 0 0 189.65625 165.65625 A 8 8 0 0 0 189.65625 154.34375 L 157.65625 122.34375 A 8.0008 8.0008 0 0 0 157.33594 122.0625 A 8 8 0 0 0 156.89648 121.67773 A 8.0008 8.0008 0 0 0 156.47461 121.39062 A 8 8 0 0 0 156.0332 121.0957 A 8.0008 8.0008 0 0 0 155.55469 120.85352 A 8 8 0 0 0 155.07812 120.61719 A 8.0008 8.0008 0 0 0 154.60156 120.45312 A 8 8 0 0 0 154.08594 120.2793 A 8.0008 8.0008 0 0 0 153.53906 120.16797 A 8 8 0 0 0 152 120 z " />
</svg>
