<?xml version="1.0" encoding="UTF-8" standalone="no"?>
<svg
   viewBox="0 0 256 256"
   version="1.1"
   id="svg3"
   sodipodi:docname="coin coral_purple.svg"
   xmlns:inkscape="http://www.inkscape.org/namespaces/inkscape"
   xmlns:sodipodi="http://sodipodi.sourceforge.net/DTD/sodipodi-0.dtd"
   xmlns:xlink="http://www.w3.org/1999/xlink"
   xmlns="http://www.w3.org/2000/svg"
   xmlns:svg="http://www.w3.org/2000/svg">
  <defs
     id="defs3">
    <linearGradient
       id="linearGradient1"
       inkscape:collect="always">
      <stop
         style="stop-color:#a03291;stop-opacity:1;"
         offset="0"
         id="stop1" />
      <stop
         style="stop-color:#ff7c66;stop-opacity:1;"
         offset="0.76340693"
         id="stop2" />
    </linearGradient>
    <linearGradient
       inkscape:collect="always"
       xlink:href="#linearGradient1"
       id="linearGradient2"
       x1="232.4884"
       y1="23.847498"
       x2="23.977745"
       y2="232.35815"
       gradientUnits="userSpaceOnUse" />
  </defs>
  <defs
     id="defs1" />
  <sodipodi:namedview
     id="namedview3"
     pagecolor="#ffffff"
     bordercolor="#000000"
     borderopacity="0.25"
     inkscape:showpageshadow="2"
     inkscape:pageopacity="0.0"
     inkscape:pagecheckerboard="0"
     inkscape:deskcolor="#d1d1d1" />
  <path
     id="ellipse1"
     style="baseline-shift:baseline;display:inline;overflow:visible;vector-effect:none;fill:url(#linearGradient2);stroke-linecap:round;stroke-linejoin:round;enable-background:accumulate;stop-color:#000000;stop-opacity:1;opacity:1;fill-opacity:1"
     d="M 128 48 C 98.283457 48 71.335448 53.459811 51.109375 62.794922 C 40.996338 67.462477 32.518891 73.099205 26.275391 79.912109 C 20.031891 86.725013 16 95.030676 16 104 L 16 152 C 16 168.44444 28.937788 182.41421 48.421875 192.15625 C 51.802275 193.84645 55.705526 195.26837 59.535156 196.72656 A 8 8 0 0 0 62.517578 197.95312 C 80.261931 204.20882 102.26184 208 128 208 C 153.73816 208 175.73807 204.20883 193.48242 197.95312 A 8 8 0 0 0 196.46484 196.72656 C 200.29447 195.26837 204.19774 193.84645 207.57812 192.15625 C 227.06221 182.41421 240 168.44444 240 152 L 240 104 C 240 95.030676 235.96811 86.725013 229.72461 79.912109 C 223.48111 73.099205 215.00368 67.462477 204.89062 62.794922 C 184.66455 53.459811 157.71654 48 128 48 z M 128 64 C 155.72107 64 180.77298 69.284793 198.1875 77.322266 C 206.89476 81.341002 213.64781 86.048326 217.92969 90.720703 C 222.21156 95.393081 224 99.71449 224 104 C 224 108.28551 222.21156 112.60692 217.92969 117.2793 C 213.64781 121.95167 206.89476 126.659 198.1875 130.67773 C 180.77298 138.71521 155.72107 144 128 144 C 100.27893 144 75.227023 138.71521 57.8125 130.67773 C 49.105238 126.659 42.352185 121.95167 38.070312 117.2793 C 33.788441 112.60692 32 108.28551 32 104 C 32 99.71449 33.788442 95.393081 38.070312 90.720703 C 42.352185 86.048326 49.105238 81.341002 57.8125 77.322266 C 75.227023 69.284793 100.27893 64 128 64 z M 32 133.51172 C 37.368713 137.96569 43.813399 141.8377 51.109375 145.20508 C 52.698717 145.93862 54.329565 146.64907 56 147.33398 L 56 178.05273 C 55.858773 177.98306 55.718147 177.91376 55.578125 177.84375 C 39.062212 169.58579 32 159.55556 32 152 L 32 133.51172 z M 224 133.51172 L 224 152 C 224 159.55556 216.93778 169.58579 200.42188 177.84375 C 200.28185 177.91376 200.14123 177.98307 200 178.05273 L 200 147.33398 C 201.67043 146.64907 203.30128 145.93862 204.89062 145.20508 C 212.1866 141.8377 218.63129 137.96569 224 133.51172 z M 72 152.79492 C 86.332386 156.81613 102.61118 159.28587 120 159.86719 L 120 191.86719 C 101.37534 191.24112 85.190651 188.44814 72 184.34375 L 72 152.79492 z M 184 152.79492 L 184 184.34375 C 170.80935 188.44815 154.62466 191.24112 136 191.86719 L 136 159.86719 C 153.38882 159.28587 169.66761 156.81614 184 152.79492 z " />
</svg>
