<?xml version="1.0" encoding="UTF-8" standalone="no"?>
<svg
   viewBox="0 0 256 256"
   version="1.1"
   id="svg4"
   sodipodi:docname="columns plus left coral_purple.svg"
   xmlns:inkscape="http://www.inkscape.org/namespaces/inkscape"
   xmlns:sodipodi="http://sodipodi.sourceforge.net/DTD/sodipodi-0.dtd"
   xmlns:xlink="http://www.w3.org/1999/xlink"
   xmlns="http://www.w3.org/2000/svg"
   xmlns:svg="http://www.w3.org/2000/svg">
  <defs
     id="defs3">
    <linearGradient
       id="linearGradient1"
       inkscape:collect="always">
      <stop
         style="stop-color:#a03291;stop-opacity:1;"
         offset="0"
         id="stop1" />
      <stop
         style="stop-color:#ff7c66;stop-opacity:1;"
         offset="0.76340693"
         id="stop2" />
    </linearGradient>
    <linearGradient
       inkscape:collect="always"
       xlink:href="#linearGradient1"
       id="linearGradient2"
       x1="232.4884"
       y1="23.847498"
       x2="23.977745"
       y2="232.35815"
       gradientUnits="userSpaceOnUse" />
  </defs>
  <defs
     id="defs4" />
  <sodipodi:namedview
     id="namedview4"
     pagecolor="#ffffff"
     bordercolor="#000000"
     borderopacity="0.25"
     inkscape:showpageshadow="2"
     inkscape:pageopacity="0.0"
     inkscape:pagecheckerboard="0"
     inkscape:deskcolor="#d1d1d1" />
  <path
     id="rect2"
     style="baseline-shift:baseline;display:inline;overflow:visible;vector-effect:none;fill:url(#linearGradient2);stroke-linecap:round;stroke-linejoin:round;enable-background:accumulate;stop-color:#000000;stop-opacity:1;opacity:1;fill-opacity:1"
     d="M 20 140 C 20 148.72562 27.274378 156 36 156 L 196 156 C 204.72562 156 212 148.72562 212 140 L 212 116 C 212 107.27438 204.72562 100 196 100 L 36 100 C 27.274378 100 20 107.27438 20 116 L 20 140 z M 20 68 C 20 76.72562 27.274378 84 36 84 L 196 84 C 204.72562 84 212 76.72562 212 68 L 212 44 C 212 35.27438 204.72562 28 196 28 L 36 28 C 27.274378 28 20 35.27438 20 44 L 20 68 z M 36 140 L 36 116 L 196 116 L 196 140 L 36 140 z M 36 68 L 36 44 L 196 44 L 196 68 L 36 68 z M 84 204 A 8 8 0 0 0 92 212 L 108 212 L 108 228 A 8 8 0 0 0 116 236 A 8 8 0 0 0 124 228 L 124 212 L 140 212 A 8 8 0 0 0 148 204 A 8 8 0 0 0 140 196 L 124 196 L 124 180 A 8 8 0 0 0 116 172 A 8 8 0 0 0 108 180 L 108 196 L 92 196 A 8 8 0 0 0 84 204 z "
     transform="translate(244 12) rotate(90)" />
</svg>
