<?xml version="1.0" encoding="UTF-8" standalone="no"?>
<svg
   viewBox="0 0 256 256"
   version="1.1"
   id="svg6"
   sodipodi:docname="compass rose coral_purple.svg"
   xmlns:inkscape="http://www.inkscape.org/namespaces/inkscape"
   xmlns:sodipodi="http://sodipodi.sourceforge.net/DTD/sodipodi-0.dtd"
   xmlns:xlink="http://www.w3.org/1999/xlink"
   xmlns="http://www.w3.org/2000/svg"
   xmlns:svg="http://www.w3.org/2000/svg">
  <defs
     id="defs3">
    <linearGradient
       id="linearGradient1"
       inkscape:collect="always">
      <stop
         style="stop-color:#a03291;stop-opacity:1;"
         offset="0"
         id="stop1" />
      <stop
         style="stop-color:#ff7c66;stop-opacity:1;"
         offset="0.76340693"
         id="stop2" />
    </linearGradient>
    <linearGradient
       inkscape:collect="always"
       xlink:href="#linearGradient1"
       id="linearGradient2"
       x1="232.4884"
       y1="23.847498"
       x2="23.977745"
       y2="232.35815"
       gradientUnits="userSpaceOnUse" />
  </defs>
  <defs
     id="defs6" />
  <sodipodi:namedview
     id="namedview6"
     pagecolor="#ffffff"
     bordercolor="#000000"
     borderopacity="0.25"
     inkscape:showpageshadow="2"
     inkscape:pageopacity="0.0"
     inkscape:pagecheckerboard="0"
     inkscape:deskcolor="#d1d1d1" />
  <path
     id="polygon1"
     style="baseline-shift:baseline;display:inline;overflow:visible;vector-effect:none;fill:url(#linearGradient2);stroke-linecap:round;stroke-linejoin:round;enable-background:accumulate;stop-color:#000000;stop-opacity:1;opacity:1;fill-opacity:1"
     d="M 127.72852 0.0078125 A 8.0008 8.0008 0 0 0 124.57812 0.77148438 A 8.0008 8.0008 0 0 0 120.23828 6.0605469 L 113.47852 33.101562 C 72.072645 39.421824 39.421823 72.072645 33.101562 113.47852 L 6.0605469 120.23828 A 8.0008 8.0008 0 0 0 6.0605469 135.76172 L 33.101562 142.52148 C 39.421824 183.92735 72.072646 216.57818 113.47852 222.89844 L 120.23828 249.93945 A 8.0008 8.0008 0 0 0 135.76172 249.93945 L 142.52148 222.89844 C 183.92735 216.57818 216.57818 183.92735 222.89844 142.52148 L 249.93945 135.76172 A 8.0008 8.0008 0 0 0 249.93945 120.23828 L 222.89844 113.47852 C 216.57818 72.072646 183.92735 39.421823 142.52148 33.101562 L 135.76172 6.0605469 A 8.0008 8.0008 0 0 0 127.72852 0.0078125 z M 128 40.986328 L 128.27734 42.099609 A 8 8 0 0 0 128.38281 42.515625 L 143.14062 101.54688 L 128 116.6875 L 112.85938 101.54688 L 127.61914 42.511719 A 8 8 0 0 0 127.72266 42.099609 L 128 40.986328 z M 109.19531 50.228516 L 97.402344 97.402344 L 50.228516 109.19531 C 57.239606 80.047579 80.047579 57.239606 109.19531 50.228516 z M 146.80469 50.228516 C 175.95242 57.239606 198.7604 80.047579 205.77148 109.19531 L 158.59766 97.402344 L 146.80469 50.228516 z M 101.54688 112.85938 L 116.6875 128 L 101.54688 143.14062 L 42.511719 128.38086 A 8 8 0 0 0 42.099609 128.27734 L 40.986328 128 L 42.105469 127.7207 A 8 8 0 0 0 42.515625 127.61719 L 101.54688 112.85938 z M 154.45312 112.85938 L 213.48438 127.61719 A 8 8 0 0 0 213.90039 127.72266 L 215.01367 128 L 213.90039 128.27734 A 8 8 0 0 0 213.48438 128.38281 L 154.45312 143.14062 L 139.3125 128 L 154.45312 112.85938 z M 128 139.3125 L 143.14062 154.45312 L 128.38281 213.48438 A 8 8 0 0 0 128.27734 213.90039 L 128 215.01367 L 127.7207 213.89453 A 8 8 0 0 0 127.61719 213.48438 L 112.85938 154.45312 L 128 139.3125 z M 50.228516 146.80469 L 97.402344 158.59766 L 109.19531 205.77148 C 80.047579 198.7604 57.239606 175.95242 50.228516 146.80469 z M 205.77148 146.80469 C 198.7604 175.95242 175.95242 198.7604 146.80469 205.77148 L 158.59766 158.59766 L 205.77148 146.80469 z " />
</svg>
