<?xml version="1.0" encoding="UTF-8" standalone="no"?>
<svg
   viewBox="0 0 256 256"
   version="1.1"
   id="svg3"
   sodipodi:docname="compass tool coral_purple.svg"
   xmlns:inkscape="http://www.inkscape.org/namespaces/inkscape"
   xmlns:sodipodi="http://sodipodi.sourceforge.net/DTD/sodipodi-0.dtd"
   xmlns:xlink="http://www.w3.org/1999/xlink"
   xmlns="http://www.w3.org/2000/svg"
   xmlns:svg="http://www.w3.org/2000/svg">
  <defs
     id="defs3">
    <linearGradient
       id="linearGradient1"
       inkscape:collect="always">
      <stop
         style="stop-color:#a03291;stop-opacity:1;"
         offset="0"
         id="stop1" />
      <stop
         style="stop-color:#ff7c66;stop-opacity:1;"
         offset="0.76340693"
         id="stop2" />
    </linearGradient>
    <linearGradient
       inkscape:collect="always"
       xlink:href="#linearGradient1"
       id="linearGradient2"
       x1="232.4884"
       y1="23.847498"
       x2="23.977745"
       y2="232.35815"
       gradientUnits="userSpaceOnUse" />
  </defs>
  <defs
     id="defs1" />
  <sodipodi:namedview
     id="namedview3"
     pagecolor="#ffffff"
     bordercolor="#000000"
     borderopacity="0.25"
     inkscape:showpageshadow="2"
     inkscape:pageopacity="0.0"
     inkscape:pagecheckerboard="0"
     inkscape:deskcolor="#d1d1d1" />
  <path
     id="circle1"
     style="baseline-shift:baseline;display:inline;overflow:visible;vector-effect:none;fill:url(#linearGradient2);stroke-linecap:round;stroke-linejoin:round;enable-background:accumulate;stop-color:#000000;stop-opacity:1;opacity:1;fill-opacity:1"
     d="M 128 16 A 8 8 0 0 0 120 24 L 120 40.808594 C 101.80111 44.542025 88 60.740884 88 80 C 88 93.361981 94.64289 105.25086 104.78906 112.52539 L 56.689453 220.75 A 8 8 0 0 0 60.75 231.31055 A 8 8 0 0 0 71.310547 227.25 L 96.447266 170.69336 C 106.57844 174.21516 117.24831 176.01552 128.01172 176 C 138.95715 175.99882 149.61219 174.17903 159.60742 170.81445 L 184.68945 227.25 A 8 8 0 0 0 195.25 231.31055 A 8 8 0 0 0 199.31055 220.75 L 174.31445 164.50977 C 191.78317 155.29861 206.21842 141.05456 215.12305 123.64258 A 8 8 0 0 0 211.64258 112.87695 A 8 8 0 0 0 205.53906 112.38867 A 8 8 0 0 0 200.87695 116.35742 C 193.72727 130.33783 181.99903 142.03079 167.76953 149.7832 L 151.21094 112.52539 C 161.35711 105.25086 168 93.361981 168 80 C 168 60.740884 154.19889 44.542025 136 40.808594 L 136 24 A 8 8 0 0 0 128 16 z M 128 56 C 141.34959 56 152 66.650409 152 80 C 152 89.653378 146.43058 97.894751 138.29883 101.71875 A 8 8 0 0 0 137.75 101.93945 A 8 8 0 0 0 137.25586 102.17969 C 134.41365 103.35356 131.28872 104 128 104 C 124.71128 104 121.58635 103.35356 118.74414 102.17969 A 8 8 0 0 0 118.25 101.93945 A 8 8 0 0 0 117.70117 101.71875 C 109.56942 97.894751 104 89.653378 104 80 C 104 66.650409 114.65041 56 128 56 z M 119.39453 119.06055 C 122.16858 119.67506 125.04828 120 128 120 C 130.95172 120 133.83142 119.67506 136.60547 119.06055 L 153.05469 156.07422 C 145.08382 158.61879 136.64131 160 128 160 A 8.0008 8.0008 0 0 0 127.98828 160 C 119.47292 160.01228 111.02896 158.65944 102.97266 156.00977 L 119.39453 119.06055 z " />
</svg>
