<?xml version="1.0" encoding="UTF-8" standalone="no"?>
<svg
   viewBox="0 0 256 256"
   version="1.1"
   id="svg2"
   sodipodi:docname="computer tower coral_purple.svg"
   xmlns:inkscape="http://www.inkscape.org/namespaces/inkscape"
   xmlns:sodipodi="http://sodipodi.sourceforge.net/DTD/sodipodi-0.dtd"
   xmlns:xlink="http://www.w3.org/1999/xlink"
   xmlns="http://www.w3.org/2000/svg"
   xmlns:svg="http://www.w3.org/2000/svg">
  <defs
     id="defs3">
    <linearGradient
       id="linearGradient1"
       inkscape:collect="always">
      <stop
         style="stop-color:#a03291;stop-opacity:1;"
         offset="0"
         id="stop1" />
      <stop
         style="stop-color:#ff7c66;stop-opacity:1;"
         offset="0.76340693"
         id="stop2" />
    </linearGradient>
    <linearGradient
       inkscape:collect="always"
       xlink:href="#linearGradient1"
       id="linearGradient2"
       x1="232.4884"
       y1="23.847498"
       x2="23.977745"
       y2="232.35815"
       gradientUnits="userSpaceOnUse" />
  </defs>
  <defs
     id="defs2" />
  <sodipodi:namedview
     id="namedview2"
     pagecolor="#ffffff"
     bordercolor="#000000"
     borderopacity="0.25"
     inkscape:showpageshadow="2"
     inkscape:pageopacity="0.0"
     inkscape:pagecheckerboard="0"
     inkscape:deskcolor="#d1d1d1" />
  <path
     id="line1"
     style="baseline-shift:baseline;display:inline;overflow:visible;vector-effect:none;fill:url(#linearGradient2);stroke-linecap:round;stroke-linejoin:round;enable-background:accumulate;stop-color:#000000;stop-opacity:1;opacity:1;fill-opacity:1"
     d="M 64 24 C 55.27438 24 48 31.274378 48 40 L 48 216 C 48 224.72562 55.27438 232 64 232 L 192 232 C 200.72562 232 208 224.72562 208 216 L 208 40 C 208 31.274378 200.72562 24 192 24 L 64 24 z M 64 40 L 192 40 L 192 216 L 64 216 L 64 40 z M 96 64 A 8 8 0 0 0 88 72 A 8 8 0 0 0 96 80 L 160 80 A 8 8 0 0 0 168 72 A 8 8 0 0 0 160 64 L 96 64 z M 96 96 A 8 8 0 0 0 88 104 A 8 8 0 0 0 96 112 L 160 112 A 8 8 0 0 0 168 104 A 8 8 0 0 0 160 96 L 96 96 z M 128 168 A 12 12 0 0 0 116 180 A 12 12 0 0 0 128 192 A 12 12 0 0 0 140 180 A 12 12 0 0 0 128 168 z " />
</svg>
