<?xml version="1.0" encoding="UTF-8" standalone="no"?>
<svg
   viewBox="0 0 256 256"
   version="1.1"
   id="svg6"
   sodipodi:docname="cow coral_purple.svg"
   xmlns:inkscape="http://www.inkscape.org/namespaces/inkscape"
   xmlns:sodipodi="http://sodipodi.sourceforge.net/DTD/sodipodi-0.dtd"
   xmlns:xlink="http://www.w3.org/1999/xlink"
   xmlns="http://www.w3.org/2000/svg"
   xmlns:svg="http://www.w3.org/2000/svg">
  <defs
     id="defs3">
    <linearGradient
       id="linearGradient1"
       inkscape:collect="always">
      <stop
         style="stop-color:#a03291;stop-opacity:1;"
         offset="0"
         id="stop1" />
      <stop
         style="stop-color:#ff7c66;stop-opacity:1;"
         offset="0.76340693"
         id="stop2" />
    </linearGradient>
    <linearGradient
       inkscape:collect="always"
       xlink:href="#linearGradient1"
       id="linearGradient2"
       x1="232.4884"
       y1="23.847498"
       x2="23.977745"
       y2="232.35815"
       gradientUnits="userSpaceOnUse" />
  </defs>
  <defs
     id="defs6" />
  <sodipodi:namedview
     id="namedview6"
     pagecolor="#ffffff"
     bordercolor="#000000"
     borderopacity="0.25"
     inkscape:showpageshadow="2"
     inkscape:pageopacity="0.0"
     inkscape:pagecheckerboard="0"
     inkscape:deskcolor="#d1d1d1" />
  <path
     id="path1"
     style="baseline-shift:baseline;display:inline;overflow:visible;vector-effect:none;fill:url(#linearGradient2);stroke-linecap:round;stroke-linejoin:round;enable-background:accumulate;stop-color:#000000;stop-opacity:1;opacity:1;fill-opacity:1"
     d="M 56 16 A 8 8 0 0 0 48 24 C 48 39.639443 54.475831 53.821041 64.880859 64 L 63.222656 64 L 63.220703 64 C 36.595561 63.993474 13.559594 82.84918 8.3066406 108.95117 A 8.0008 8.0008 0 0 0 8.2871094 109.06055 C 6.4788214 118.73392 14.1454 127.98305 23.986328 128 A 8.0008 8.0008 0 0 0 24 128 L 56 128 L 56 160.04102 C 46.295958 167.3531 40 178.96818 40 192 C 40 214.02162 57.978378 232 80 232 L 176 232 C 198.02162 232 216 214.02162 216 192 C 216 178.96819 209.70404 167.3531 200 160.04102 L 200 128 L 232 128 A 8.0008 8.0008 0 0 0 232.01367 128 C 241.8546 127.9831 249.52118 118.73392 247.71289 109.06055 A 8.0008 8.0008 0 0 0 247.69336 108.95117 C 242.44035 82.84918 219.40444 63.993474 192.7793 64 L 191.11914 64 C 201.52417 53.821041 208 39.639443 208 24 A 8 8 0 0 0 200 16 A 8 8 0 0 0 192 24 C 192 46.186147 174.18615 64 152 64 L 104 64 C 81.813853 64 64 46.186147 64 24 A 8 8 0 0 0 56 16 z M 63.216797 80 A 8.0008 8.0008 0 0 0 63.220703 80 L 64.056641 80 C 59.004398 86.697391 56 95.015604 56 104 L 56 112 L 24.023438 112 C 27.834518 93.331607 44.152493 79.994659 63.216797 80 z M 96 80 L 104 80 L 152 80 L 160 80 C 173.34959 80 184 90.650409 184 104 L 184 120 L 184 152.80664 C 181.4137 152.27755 178.7381 152 176 152 L 80 152 C 77.261897 152 74.586302 152.27755 72 152.80664 L 72 120 L 72 104 C 72 90.650409 82.650409 80 96 80 z M 191.94336 80 L 192.7793 80 A 8.0008 8.0008 0 0 0 192.7832 80 C 211.84751 79.9947 228.16548 93.331607 231.97656 112 L 200 112 L 200 104 C 200 95.015604 196.9956 86.697391 191.94336 80 z M 100 112 A 12 12 0 0 0 88 124 A 12 12 0 0 0 100 136 A 12 12 0 0 0 112 124 A 12 12 0 0 0 100 112 z M 156 112 A 12 12 0 0 0 144 124 A 12 12 0 0 0 156 136 A 12 12 0 0 0 168 124 A 12 12 0 0 0 156 112 z M 80 168 L 176 168 C 180.09069 168 183.91638 168.97878 187.25781 170.7207 A 8 8 0 0 0 188.85352 171.63477 C 195.59341 175.84477 200 183.32409 200 192 C 200 205.43438 189.43438 216 176 216 L 80 216 C 66.565622 216 56 205.43438 56 192 C 56 183.32409 60.40659 175.84477 67.146484 171.63477 A 8 8 0 0 0 68.742188 170.7207 C 72.083622 168.97878 75.909305 168 80 168 z M 80 184 A 8 8 0 0 0 72 192 A 8 8 0 0 0 80 200 L 96 200 A 8 8 0 0 0 104 192 A 8 8 0 0 0 96 184 L 80 184 z M 160 184 A 8 8 0 0 0 152 192 A 8 8 0 0 0 160 200 L 176 200 A 8 8 0 0 0 184 192 A 8 8 0 0 0 176 184 L 160 184 z " />
</svg>
