<?xml version="1.0" encoding="UTF-8" standalone="no"?>
<svg
   viewBox="0 0 256 256"
   version="1.1"
   id="svg3"
   sodipodi:docname="crane tower coral_purple.svg"
   xmlns:inkscape="http://www.inkscape.org/namespaces/inkscape"
   xmlns:sodipodi="http://sodipodi.sourceforge.net/DTD/sodipodi-0.dtd"
   xmlns:xlink="http://www.w3.org/1999/xlink"
   xmlns="http://www.w3.org/2000/svg"
   xmlns:svg="http://www.w3.org/2000/svg">
  <defs
     id="defs3">
    <linearGradient
       id="linearGradient1"
       inkscape:collect="always">
      <stop
         style="stop-color:#a03291;stop-opacity:1;"
         offset="0"
         id="stop1" />
      <stop
         style="stop-color:#ff7c66;stop-opacity:1;"
         offset="0.76340693"
         id="stop2" />
    </linearGradient>
    <linearGradient
       inkscape:collect="always"
       xlink:href="#linearGradient1"
       id="linearGradient2"
       x1="232.4884"
       y1="23.847498"
       x2="23.977745"
       y2="232.35815"
       gradientUnits="userSpaceOnUse" />
  </defs>
  <defs
     id="defs1" />
  <sodipodi:namedview
     id="namedview3"
     pagecolor="#ffffff"
     bordercolor="#000000"
     borderopacity="0.25"
     inkscape:showpageshadow="2"
     inkscape:pageopacity="0.0"
     inkscape:pagecheckerboard="0"
     inkscape:deskcolor="#d1d1d1" />
  <path
     id="line1"
     style="baseline-shift:baseline;display:inline;overflow:visible;vector-effect:none;fill:url(#linearGradient2);stroke-linecap:round;stroke-linejoin:round;enable-background:accumulate;stop-color:#000000;stop-opacity:1;opacity:1;fill-opacity:1"
     d="M 48 32 A 8.0008 8.0008 0 0 0 40 40 L 40 80 L 24 80 A 8 8 0 0 0 16 88 A 8 8 0 0 0 24 96 L 40 96 L 40 152 L 40 208 L 24 208 A 8 8 0 0 0 16 216 A 8 8 0 0 0 24 224 L 48 224 L 104 224 L 128 224 A 8 8 0 0 0 136 216 A 8 8 0 0 0 128 208 L 112 208 L 112 152 L 112 96 L 208 96 L 208 184 L 192 184 L 192 176 A 8 8 0 0 0 184 168 A 8 8 0 0 0 176 176 L 176 184 C 176 192.7418 183.2582 200 192 200 L 208 200 C 216.7418 200 224 192.7418 224 184 L 224 96 L 240 96 A 8 8 0 0 0 248 88 A 8 8 0 0 0 240 80 L 108.94531 80 L 87.15625 36.421875 A 8.0008 8.0008 0 0 0 80 32 L 48 32 z M 56 48 L 75.056641 48 L 91.056641 80 L 56 80 L 56 48 z M 56 96 L 96 96 L 96 144 L 56 144 L 56 96 z M 56 160 L 96 160 L 96 208 L 56 208 L 56 160 z " />
</svg>
