<?xml version="1.0" encoding="UTF-8" standalone="no"?>
<svg
   viewBox="0 0 256 256"
   version="1.1"
   id="svg2"
   sodipodi:docname="cricket coral_purple.svg"
   xmlns:inkscape="http://www.inkscape.org/namespaces/inkscape"
   xmlns:sodipodi="http://sodipodi.sourceforge.net/DTD/sodipodi-0.dtd"
   xmlns:xlink="http://www.w3.org/1999/xlink"
   xmlns="http://www.w3.org/2000/svg"
   xmlns:svg="http://www.w3.org/2000/svg">
  <defs
     id="defs3">
    <linearGradient
       id="linearGradient1"
       inkscape:collect="always">
      <stop
         style="stop-color:#a03291;stop-opacity:1;"
         offset="0"
         id="stop1" />
      <stop
         style="stop-color:#ff7c66;stop-opacity:1;"
         offset="0.76340693"
         id="stop2" />
    </linearGradient>
    <linearGradient
       inkscape:collect="always"
       xlink:href="#linearGradient1"
       id="linearGradient2"
       x1="232.4884"
       y1="23.847498"
       x2="23.977745"
       y2="232.35815"
       gradientUnits="userSpaceOnUse" />
  </defs>
  <defs
     id="defs2" />
  <sodipodi:namedview
     id="namedview2"
     pagecolor="#ffffff"
     bordercolor="#000000"
     borderopacity="0.25"
     inkscape:showpageshadow="2"
     inkscape:pageopacity="0.0"
     inkscape:pagecheckerboard="0"
     inkscape:deskcolor="#d1d1d1" />
  <path
     id="rect2"
     style="baseline-shift:baseline;display:inline;overflow:visible;vector-effect:none;fill:url(#linearGradient2);stroke-linecap:round;stroke-linejoin:round;enable-background:accumulate;stop-color:#000000;stop-opacity:1;opacity:1;fill-opacity:1"
     d="M 239.15197 71.477723 C 236.24267 68.568426 232.24388 66.750328 227.88107 66.750328 L 129.74791 66.750328 A 8 8 0 0 0 128.99661 66.750328 L 76.118277 66.750328 C 67.392654 66.750328 60.118605 74.024378 60.118605 82.75 L 60.119986 111.99688 L -6.3922453 111.99688 A 8 8 0 0 0 -14.391391 119.99602 A 8 8 0 0 0 -6.3922453 127.99517 L 60.119986 127.99517 L 60.119986 157.26 C 60.119986 165.98562 67.394035 173.25967 76.119658 173.25967 L 227.87969 173.25967 C 236.60531 173.25967 243.88074 165.98423 243.88074 157.25861 L 243.88074 82.75 C 243.88074 78.387189 242.06126 74.38702 239.15197 71.477723 z M 149.17125 -7.2831998 C 138.30357 -18.150877 120.44094 -18.150877 109.57327 -7.2831998 C 98.705587 3.584477 98.705587 21.447103 109.57327 32.31478 C 120.44094 43.182457 138.30357 43.182457 149.17125 32.31478 C 160.03892 21.447103 160.03892 3.584477 149.17125 -7.2831998 z M 227.87969 82.75 L 227.88107 157.26 L 148.67682 157.26 L 180.28394 125.65288 A 8.0008 8.0008 0 0 0 180.28394 114.33917 L 148.69478 82.75 L 227.87969 82.75 z M 137.85754 4.0305087 C 142.61083 8.7838035 142.61083 16.247777 137.85754 21.001071 C 133.10424 25.754366 125.64027 25.754366 120.88698 21.001071 C 116.13368 16.247777 116.13368 8.7838035 120.88698 4.0305087 C 125.64027 -0.72278622 133.10424 -0.72278622 137.85754 4.0305087 z M 126.06736 82.75 L 163.31338 119.99602 L 126.04941 157.26 L 76.118277 157.26 L 76.118277 127.99517 L 118.05855 127.99517 A 8 8 0 0 0 126.05769 119.99602 A 8 8 0 0 0 123.7154 114.33917 A 8 8 0 0 0 118.05855 111.99688 L 76.118277 111.99688 L 76.119658 82.75 L 126.06736 82.75 z "
     transform="translate(-40.33 142.63) rotate(-45)" />
</svg>
