<?xml version="1.0" encoding="UTF-8" standalone="no"?>
<svg
   viewBox="0 0 256 256"
   version="1.1"
   id="svg1"
   sodipodi:docname="cross coral_purple.svg"
   xmlns:inkscape="http://www.inkscape.org/namespaces/inkscape"
   xmlns:sodipodi="http://sodipodi.sourceforge.net/DTD/sodipodi-0.dtd"
   xmlns:xlink="http://www.w3.org/1999/xlink"
   xmlns="http://www.w3.org/2000/svg"
   xmlns:svg="http://www.w3.org/2000/svg">
  <defs
     id="defs3">
    <linearGradient
       id="linearGradient1"
       inkscape:collect="always">
      <stop
         style="stop-color:#a03291;stop-opacity:1;"
         offset="0"
         id="stop1" />
      <stop
         style="stop-color:#ff7c66;stop-opacity:1;"
         offset="0.76340693"
         id="stop2" />
    </linearGradient>
    <linearGradient
       inkscape:collect="always"
       xlink:href="#linearGradient1"
       id="linearGradient2"
       x1="232.4884"
       y1="23.847498"
       x2="23.977745"
       y2="232.35815"
       gradientUnits="userSpaceOnUse" />
  </defs>
  <defs
     id="defs1" />
  <sodipodi:namedview
     id="namedview1"
     pagecolor="#ffffff"
     bordercolor="#000000"
     borderopacity="0.25"
     inkscape:showpageshadow="2"
     inkscape:pageopacity="0.0"
     inkscape:pagecheckerboard="0"
     inkscape:deskcolor="#d1d1d1" />
  <path
     id="path1"
     style="baseline-shift:baseline;display:inline;overflow:visible;vector-effect:none;fill:url(#linearGradient2);stroke-linecap:round;stroke-linejoin:round;enable-background:accumulate;stop-color:#000000;stop-opacity:1;opacity:1;fill-opacity:1"
     d="M 112 16 C 103.2582 16 96 23.258201 96 32 L 96 72 L 56 72 C 47.258201 72 40 79.258201 40 88 L 40 120 C 40 128.7418 47.258201 136 56 136 L 96 136 L 96 224 C 96 232.7418 103.2582 240 112 240 L 144 240 C 152.7418 240 160 232.7418 160 224 L 160 136 L 200 136 C 208.7418 136 216 128.7418 216 120 L 216 88 C 216 79.258201 208.7418 72 200 72 L 160 72 L 160 32 C 160 23.258201 152.7418 16 144 16 L 112 16 z M 112 32 L 144 32 L 144 80 A 8.0008 8.0008 0 0 0 152 88 L 200 88 L 200 120 L 152 120 A 8.0008 8.0008 0 0 0 144 128 L 144 224 L 112 224 L 112 128 A 8.0008 8.0008 0 0 0 104 120 L 56 120 L 56 88 L 104 88 A 8.0008 8.0008 0 0 0 112 80 L 112 32 z " />
</svg>
