<?xml version="1.0" encoding="UTF-8" standalone="no"?>
<svg
   viewBox="0 0 256 256"
   version="1.1"
   id="svg1"
   sodipodi:docname="currency rub coral_purple.svg"
   xmlns:inkscape="http://www.inkscape.org/namespaces/inkscape"
   xmlns:sodipodi="http://sodipodi.sourceforge.net/DTD/sodipodi-0.dtd"
   xmlns:xlink="http://www.w3.org/1999/xlink"
   xmlns="http://www.w3.org/2000/svg"
   xmlns:svg="http://www.w3.org/2000/svg">
  <defs
     id="defs3">
    <linearGradient
       id="linearGradient1"
       inkscape:collect="always">
      <stop
         style="stop-color:#a03291;stop-opacity:1;"
         offset="0"
         id="stop1" />
      <stop
         style="stop-color:#ff7c66;stop-opacity:1;"
         offset="0.76340693"
         id="stop2" />
    </linearGradient>
    <linearGradient
       inkscape:collect="always"
       xlink:href="#linearGradient1"
       id="linearGradient2"
       x1="232.4884"
       y1="23.847498"
       x2="23.977745"
       y2="232.35815"
       gradientUnits="userSpaceOnUse" />
  </defs>
  <defs
     id="defs1" />
  <sodipodi:namedview
     id="namedview1"
     pagecolor="#ffffff"
     bordercolor="#000000"
     borderopacity="0.25"
     inkscape:showpageshadow="2"
     inkscape:pageopacity="0.0"
     inkscape:pagecheckerboard="0"
     inkscape:deskcolor="#d1d1d1" />
  <path
     id="line1"
     style="baseline-shift:baseline;display:inline;overflow:visible;vector-effect:none;fill:url(#linearGradient2);stroke-linecap:round;stroke-linejoin:round;enable-background:accumulate;stop-color:#000000;stop-opacity:1;opacity:1;fill-opacity:1"
     d="M 88 32 A 8.0008 8.0008 0 0 0 80 40 L 80 136 L 56 136 A 8 8 0 0 0 48 144 A 8 8 0 0 0 56 152 L 80 152 L 80 168 L 56 168 A 8 8 0 0 0 48 176 A 8 8 0 0 0 56 184 L 80 184 L 80 216 A 8 8 0 0 0 88 224 A 8 8 0 0 0 96 216 L 96 184 L 144 184 A 8 8 0 0 0 152 176 A 8 8 0 0 0 144 168 L 96 168 L 96 152 L 148 152 C 181.04234 152 208 125.04232 208 92 C 208 58.95768 181.04234 32 148 32 L 88 32 z M 96 48 L 148 48 C 172.39531 48 192 67.604707 192 92 C 192 116.39529 172.39531 136 148 136 L 96 136 L 96 48 z " />
</svg>
