<?xml version="1.0" encoding="UTF-8" standalone="no"?>
<svg
   viewBox="0 0 256 256"
   version="1.1"
   id="svg3"
   sodipodi:docname="currency jpy coral_purple.svg"
   xmlns:inkscape="http://www.inkscape.org/namespaces/inkscape"
   xmlns:sodipodi="http://sodipodi.sourceforge.net/DTD/sodipodi-0.dtd"
   xmlns:xlink="http://www.w3.org/1999/xlink"
   xmlns="http://www.w3.org/2000/svg"
   xmlns:svg="http://www.w3.org/2000/svg">
  <defs
     id="defs3">
    <linearGradient
       id="linearGradient1"
       inkscape:collect="always">
      <stop
         style="stop-color:#a03291;stop-opacity:1;"
         offset="0"
         id="stop1" />
      <stop
         style="stop-color:#ff7c66;stop-opacity:1;"
         offset="0.76340693"
         id="stop2" />
    </linearGradient>
    <linearGradient
       inkscape:collect="always"
       xlink:href="#linearGradient1"
       id="linearGradient2"
       x1="232.4884"
       y1="23.847498"
       x2="23.977745"
       y2="232.35815"
       gradientUnits="userSpaceOnUse" />
  </defs>
  <defs
     id="defs1" />
  <sodipodi:namedview
     id="namedview3"
     pagecolor="#ffffff"
     bordercolor="#000000"
     borderopacity="0.25"
     inkscape:showpageshadow="2"
     inkscape:pageopacity="0.0"
     inkscape:pagecheckerboard="0"
     inkscape:deskcolor="#d1d1d1" />
  <path
     id="line1"
     style="baseline-shift:baseline;display:inline;overflow:visible;vector-effect:none;fill:url(#linearGradient2);stroke-linecap:round;stroke-linejoin:round;enable-background:accumulate;stop-color:#000000;stop-opacity:1;opacity:1;fill-opacity:1"
     d="M 55.75 40.003906 A 8 8 0 0 0 50.933594 41.808594 A 8 8 0 0 0 49.808594 53.066406 L 111.11719 128 L 80 128 A 8 8 0 0 0 72 136 A 8 8 0 0 0 80 144 L 120 144 L 120 160 L 80 160 A 8 8 0 0 0 72 168 A 8 8 0 0 0 80 176 L 120 176 L 120 216 A 8 8 0 0 0 128 224 A 8 8 0 0 0 136 216 L 136 176 L 176 176 A 8 8 0 0 0 184 168 A 8 8 0 0 0 176 160 L 136 160 L 136 144 L 176 144 A 8 8 0 0 0 184 136 A 8 8 0 0 0 176 128 L 144.88281 128 L 206.19141 53.066406 A 8 8 0 0 0 205.06641 41.808594 A 8 8 0 0 0 193.80859 42.933594 L 128 123.36719 L 62.191406 42.933594 A 8 8 0 0 0 56.796875 40.039062 A 8 8 0 0 0 55.75 40.003906 z " />
</svg>
