<?xml version="1.0" encoding="UTF-8" standalone="no"?>
<svg
   viewBox="0 0 256 256"
   version="1.1"
   id="svg6"
   sodipodi:docname="currency btc coral_purple.svg"
   xmlns:inkscape="http://www.inkscape.org/namespaces/inkscape"
   xmlns:sodipodi="http://sodipodi.sourceforge.net/DTD/sodipodi-0.dtd"
   xmlns:xlink="http://www.w3.org/1999/xlink"
   xmlns="http://www.w3.org/2000/svg"
   xmlns:svg="http://www.w3.org/2000/svg">
  <defs
     id="defs3">
    <linearGradient
       id="linearGradient1"
       inkscape:collect="always">
      <stop
         style="stop-color:#a03291;stop-opacity:1;"
         offset="0"
         id="stop1" />
      <stop
         style="stop-color:#ff7c66;stop-opacity:1;"
         offset="0.76340693"
         id="stop2" />
    </linearGradient>
    <linearGradient
       inkscape:collect="always"
       xlink:href="#linearGradient1"
       id="linearGradient2"
       x1="232.4884"
       y1="23.847498"
       x2="23.977745"
       y2="232.35815"
       gradientUnits="userSpaceOnUse" />
  </defs>
  <defs
     id="defs6" />
  <sodipodi:namedview
     id="namedview6"
     pagecolor="#ffffff"
     bordercolor="#000000"
     borderopacity="0.25"
     inkscape:showpageshadow="2"
     inkscape:pageopacity="0.0"
     inkscape:pagecheckerboard="0"
     inkscape:deskcolor="#d1d1d1" />
  <path
     id="line1"
     style="baseline-shift:baseline;display:inline;overflow:visible;vector-effect:none;fill:url(#linearGradient2);stroke-linecap:round;stroke-linejoin:round;enable-background:accumulate;stop-color:#000000;stop-opacity:1;opacity:1;fill-opacity:1"
     d="M 112 16 A 8 8 0 0 0 104 24 L 104 40 L 88 40 L 72 40 A 8 8 0 0 0 64 48 A 8 8 0 0 0 72 56 L 80 56 L 80 120 L 80 192 L 72 192 A 8 8 0 0 0 64 200 A 8 8 0 0 0 72 208 L 88 208 L 104 208 L 104 224 A 8 8 0 0 0 112 232 A 8 8 0 0 0 120 224 L 120 208 L 136 208 L 136 224 A 8 8 0 0 0 144 232 A 8 8 0 0 0 152 224 L 152 208 L 160 208 C 186.41492 208 208 186.4149 208 160 C 208 140.07629 195.70799 122.92795 178.33789 115.68945 C 186.71361 107.66706 192 96.446461 192 84 C 192 61.142133 174.34888 42.218324 152 40.181641 L 152 24 A 8 8 0 0 0 144 16 A 8 8 0 0 0 136 24 L 136 40 L 120 40 L 120 24 A 8 8 0 0 0 112 16 z M 96 56 L 112 56 L 144 56 L 148 56 C 163.55875 56 176 68.441263 176 84 C 176 99.558737 163.55875 112 148 112 L 96 112 L 96 56 z M 96 128 L 148 128 L 160 128 C 177.76789 128 192 142.23212 192 160 C 192 177.76788 177.76789 192 160 192 L 144 192 L 112 192 L 96 192 L 96 128 z " />
</svg>
