<?xml version="1.0" encoding="UTF-8" standalone="no"?>
<svg
   viewBox="0 0 256 256"
   version="1.1"
   id="svg4"
   sodipodi:docname="desktop coral_purple.svg"
   xmlns:inkscape="http://www.inkscape.org/namespaces/inkscape"
   xmlns:sodipodi="http://sodipodi.sourceforge.net/DTD/sodipodi-0.dtd"
   xmlns:xlink="http://www.w3.org/1999/xlink"
   xmlns="http://www.w3.org/2000/svg"
   xmlns:svg="http://www.w3.org/2000/svg">
  <defs
     id="defs3">
    <linearGradient
       id="linearGradient1"
       inkscape:collect="always">
      <stop
         style="stop-color:#a03291;stop-opacity:1;"
         offset="0"
         id="stop1" />
      <stop
         style="stop-color:#ff7c66;stop-opacity:1;"
         offset="0.76340693"
         id="stop2" />
    </linearGradient>
    <linearGradient
       inkscape:collect="always"
       xlink:href="#linearGradient1"
       id="linearGradient2"
       x1="232.4884"
       y1="23.847498"
       x2="23.977745"
       y2="232.35815"
       gradientUnits="userSpaceOnUse" />
  </defs>
  <defs
     id="defs4" />
  <sodipodi:namedview
     id="namedview4"
     pagecolor="#ffffff"
     bordercolor="#000000"
     borderopacity="0.25"
     inkscape:showpageshadow="2"
     inkscape:pageopacity="0.0"
     inkscape:pagecheckerboard="0"
     inkscape:deskcolor="#d1d1d1" />
  <path
     id="rect2"
     style="baseline-shift:baseline;display:inline;overflow:visible;vector-effect:none;fill:url(#linearGradient2);stroke-linecap:round;stroke-linejoin:round;enable-background:accumulate;stop-color:#000000;stop-opacity:1;opacity:1;fill-opacity:1"
     d="M 208 200 C 221.15762 200 232 189.15762 232 176 L 232 64 C 232 50.842378 221.15762 40 208 40 L 136 40 L 136 24 L 160 24 A 8 8 0 0 0 168 16 A 8 8 0 0 0 160 8 L 128 8 L 96 8 A 8 8 0 0 0 88 16 A 8 8 0 0 0 96 24 L 120 24 L 120 40 L 48 40 C 34.842378 40 24 50.842378 24 64 L 24 176 C 24 189.15762 34.842378 200 48 200 L 208 200 z M 208 184 L 48 184 C 43.429622 184 40 180.57038 40 176 L 40 96 L 216 96 L 216 176 C 216 180.57038 212.57038 184 208 184 z M 216 80 L 40 80 L 40 64 C 40 59.429622 43.429622 56 48 56 L 128 56 L 208 56 C 212.57038 56 216 59.429622 216 64 L 216 80 z "
     transform="translate(256 240) rotate(180)" />
</svg>
