<?xml version="1.0" encoding="UTF-8" standalone="no"?>
<svg
   viewBox="0 0 256 256"
   version="1.1"
   id="svg3"
   sodipodi:docname="devices coral_purple.svg"
   xmlns:inkscape="http://www.inkscape.org/namespaces/inkscape"
   xmlns:sodipodi="http://sodipodi.sourceforge.net/DTD/sodipodi-0.dtd"
   xmlns:xlink="http://www.w3.org/1999/xlink"
   xmlns="http://www.w3.org/2000/svg"
   xmlns:svg="http://www.w3.org/2000/svg">
  <defs
     id="defs3">
    <linearGradient
       id="linearGradient1"
       inkscape:collect="always">
      <stop
         style="stop-color:#a03291;stop-opacity:1;"
         offset="0"
         id="stop1" />
      <stop
         style="stop-color:#ff7c66;stop-opacity:1;"
         offset="0.76340693"
         id="stop2" />
    </linearGradient>
    <linearGradient
       inkscape:collect="always"
       xlink:href="#linearGradient1"
       id="linearGradient2"
       x1="232.4884"
       y1="23.847498"
       x2="23.977745"
       y2="232.35815"
       gradientUnits="userSpaceOnUse" />
  </defs>
  <defs
     id="defs1" />
  <sodipodi:namedview
     id="namedview3"
     pagecolor="#ffffff"
     bordercolor="#000000"
     borderopacity="0.25"
     inkscape:showpageshadow="2"
     inkscape:pageopacity="0.0"
     inkscape:pagecheckerboard="0"
     inkscape:deskcolor="#d1d1d1" />
  <path
     id="rect2"
     style="baseline-shift:baseline;display:inline;overflow:visible;vector-effect:none;fill:url(#linearGradient2);stroke-linecap:round;stroke-linejoin:round;enable-background:accumulate;stop-color:#000000;stop-opacity:1;opacity:1;fill-opacity:1"
     d="M 96 304 C 96 317.16008 106.83992 328 120 328 L 216 328 C 229.16008 328 240 317.16008 240 304 L 240 192 L 248 192 C 261.15762 192 272 181.15762 272 168 L 272 120 C 272 106.84238 261.15762 96 248 96 L 152 96 C 138.84238 96 128 106.84238 128 120 L 128 136 L 120 136 C 106.83992 136 96 146.83992 96 160 L 96 304 z M 112 304 L 112 160 C 112 155.48696 115.48696 152 120 152 L 128 152 L 128 168 C 128 181.15762 138.84238 192 152 192 L 224 192 L 224 304 C 224 308.51304 220.51304 312 216 312 L 120 312 C 115.48696 312 112 308.51304 112 304 z M 144 168 L 144 120 C 144 115.42962 147.42962 112 152 112 L 248 112 C 252.57038 112 256 115.42962 256 120 L 256 168 C 256 172.57038 252.57038 176 248 176 L 152 176 C 147.42962 176 144 172.57038 144 168 z M 160 152 A 8 8 0 0 0 168 160 A 8 8 0 0 0 176 152 L 176 136 A 8 8 0 0 0 168 128 A 8 8 0 0 0 160 136 L 160 152 z M 256 256 A 8 8 0 0 0 264 264 A 8 8 0 0 0 272 256 L 272 216 A 8 8 0 0 0 264 208 A 8 8 0 0 0 256 216 L 256 256 z "
     transform="translate(344 -56) rotate(90)" />
</svg>
