<?xml version="1.0" encoding="UTF-8" standalone="no"?>
<svg
   viewBox="0 0 256 256"
   version="1.1"
   id="svg3"
   sodipodi:docname="disc coral_purple.svg"
   xmlns:inkscape="http://www.inkscape.org/namespaces/inkscape"
   xmlns:sodipodi="http://sodipodi.sourceforge.net/DTD/sodipodi-0.dtd"
   xmlns:xlink="http://www.w3.org/1999/xlink"
   xmlns="http://www.w3.org/2000/svg"
   xmlns:svg="http://www.w3.org/2000/svg">
  <defs
     id="defs3">
    <linearGradient
       id="linearGradient1"
       inkscape:collect="always">
      <stop
         style="stop-color:#a03291;stop-opacity:1;"
         offset="0"
         id="stop1" />
      <stop
         style="stop-color:#ff7c66;stop-opacity:1;"
         offset="0.76340693"
         id="stop2" />
    </linearGradient>
    <linearGradient
       inkscape:collect="always"
       xlink:href="#linearGradient1"
       id="linearGradient2"
       x1="232.4884"
       y1="23.847498"
       x2="23.977745"
       y2="232.35815"
       gradientUnits="userSpaceOnUse" />
  </defs>
  <defs
     id="defs1" />
  <sodipodi:namedview
     id="namedview3"
     pagecolor="#ffffff"
     bordercolor="#000000"
     borderopacity="0.25"
     inkscape:showpageshadow="2"
     inkscape:pageopacity="0.0"
     inkscape:pagecheckerboard="0"
     inkscape:deskcolor="#d1d1d1" />
  <path
     id="circle1"
     style="baseline-shift:baseline;display:inline;overflow:visible;vector-effect:none;fill:url(#linearGradient2);stroke-linecap:round;stroke-linejoin:round;enable-background:accumulate;stop-color:#000000;stop-opacity:1;opacity:1;fill-opacity:1"
     d="M 128 24 C 70.657143 24 24 70.657143 24 128 C 24 185.34286 70.657143 232 128 232 C 185.34286 232 232 185.34286 232 128 C 232 99.653461 220.5982 73.917452 202.14062 55.138672 A 8 8 0 0 0 201.53711 54.462891 A 8 8 0 0 0 200.86133 53.859375 C 182.08257 35.401949 156.34641 24 128 24 z M 128 40 C 149.45942 40 169.09593 47.631978 184.34766 60.337891 L 150.02734 94.658203 C 143.6995 90.454477 136.12195 88 128 88 C 106.00337 88 88 106.00337 88 128 C 88 149.99663 106.00337 168 128 168 C 147.25911 168 163.45797 154.19889 167.19141 136 L 215.64258 136 C 211.61645 180.92922 173.99865 216 128 216 C 79.304185 216 40 176.69582 40 128 C 40 79.304185 79.304185 40 128 40 z M 195.66211 71.652344 C 206.77105 84.987124 214.00037 101.67396 215.64258 120 L 167.19141 120 C 166.14762 114.91198 164.12865 110.16769 161.3418 105.97266 L 195.66211 71.652344 z M 128 104 C 134.40145 104 140.18144 106.44945 144.46484 110.4707 A 8 8 0 0 0 144.97266 111.02734 A 8 8 0 0 0 145.5293 111.53516 C 149.55055 115.81856 152 121.59855 152 128 C 152 141.34959 141.34959 152 128 152 C 114.65041 152 104 141.34959 104 128 C 104 114.65041 114.65041 104 128 104 z " />
</svg>
