<?xml version="1.0" encoding="UTF-8" standalone="no"?>
<svg
   viewBox="0 0 256 256"
   version="1.1"
   id="svg2"
   sodipodi:docname="drop slash coral_purple.svg"
   xmlns:inkscape="http://www.inkscape.org/namespaces/inkscape"
   xmlns:sodipodi="http://sodipodi.sourceforge.net/DTD/sodipodi-0.dtd"
   xmlns:xlink="http://www.w3.org/1999/xlink"
   xmlns="http://www.w3.org/2000/svg"
   xmlns:svg="http://www.w3.org/2000/svg">
  <defs
     id="defs3">
    <linearGradient
       id="linearGradient1"
       inkscape:collect="always">
      <stop
         style="stop-color:#a03291;stop-opacity:1;"
         offset="0"
         id="stop1" />
      <stop
         style="stop-color:#ff7c66;stop-opacity:1;"
         offset="0.76340693"
         id="stop2" />
    </linearGradient>
    <linearGradient
       inkscape:collect="always"
       xlink:href="#linearGradient1"
       id="linearGradient2"
       x1="232.4884"
       y1="23.847498"
       x2="23.977745"
       y2="232.35815"
       gradientUnits="userSpaceOnUse" />
  </defs>
  <defs
     id="defs2" />
  <sodipodi:namedview
     id="namedview2"
     pagecolor="#ffffff"
     bordercolor="#000000"
     borderopacity="0.25"
     inkscape:showpageshadow="2"
     inkscape:pageopacity="0.0"
     inkscape:pagecheckerboard="0"
     inkscape:deskcolor="#d1d1d1" />
  <path
     id="line1"
     style="baseline-shift:baseline;display:inline;overflow:visible;vector-effect:none;fill:url(#linearGradient2);stroke-linecap:round;stroke-linejoin:round;enable-background:accumulate;stop-color:#000000;stop-opacity:1;opacity:1;fill-opacity:1"
     d="M 127.9043 8 A 8.0008 8.0008 0 0 0 123.25586 9.5585938 C 111.2148 18.426477 99.993146 28.355332 89.724609 39.226562 A 8 8 0 0 0 90.046875 50.535156 A 8 8 0 0 0 101.35547 50.212891 C 109.57135 41.514786 118.56245 33.611371 128.00391 26.271484 C 140.01492 35.505135 200 84.265007 200 144 A 8.0008 8.0008 0 0 0 200 144.00391 C 200.003 150.47705 199.13798 156.92147 197.42578 163.16406 A 8 8 0 0 0 203.02344 172.99414 A 8 8 0 0 0 212.85547 167.39648 C 214.9464 159.77297 216.00376 151.90301 216 143.99805 C 215.99859 66.073136 132.58789 9.4453125 132.58789 9.4453125 A 8.0008 8.0008 0 0 0 127.9043 8 z M 48.380859 32.009766 A 8 8 0 0 0 42.619141 34.080078 A 8 8 0 0 0 42.080078 45.380859 L 64.71875 70.283203 C 50.984208 90.986241 40 116.13031 40 144 C 39.9978 180.97051 63.162957 214.05572 97.904297 226.69922 C 129.76869 238.2957 165.22762 230.45988 189.21484 207.22852 L 202.08008 221.38086 A 8 8 0 0 0 213.38086 221.91992 A 8 8 0 0 0 213.91992 210.61914 L 195.1875 190.01367 L 80.904297 64.302734 L 80.900391 64.296875 A 8 8 0 0 0 80.736328 64.117188 L 53.919922 34.619141 A 8 8 0 0 0 48.380859 32.009766 z M 75.853516 82.533203 L 178.44531 195.38281 C 158.80044 214.69536 129.65455 221.22733 103.37695 211.66406 C 74.905224 201.30228 55.99823 174.29862 56 144 C 56 121.77581 64.401367 100.73197 75.853516 82.533203 z " />
</svg>
