<?xml version="1.0" encoding="UTF-8" standalone="no"?>
<svg
   viewBox="0 0 256 256"
   version="1.1"
   id="svg1"
   sodipodi:docname="eraser coral_purple.svg"
   xmlns:inkscape="http://www.inkscape.org/namespaces/inkscape"
   xmlns:sodipodi="http://sodipodi.sourceforge.net/DTD/sodipodi-0.dtd"
   xmlns:xlink="http://www.w3.org/1999/xlink"
   xmlns="http://www.w3.org/2000/svg"
   xmlns:svg="http://www.w3.org/2000/svg">
  <defs
     id="defs3">
    <linearGradient
       id="linearGradient1"
       inkscape:collect="always">
      <stop
         style="stop-color:#a03291;stop-opacity:1;"
         offset="0"
         id="stop1" />
      <stop
         style="stop-color:#ff7c66;stop-opacity:1;"
         offset="0.76340693"
         id="stop2" />
    </linearGradient>
    <linearGradient
       inkscape:collect="always"
       xlink:href="#linearGradient1"
       id="linearGradient2"
       x1="232.4884"
       y1="23.847498"
       x2="23.977745"
       y2="232.35815"
       gradientUnits="userSpaceOnUse" />
  </defs>
  <defs
     id="defs1" />
  <sodipodi:namedview
     id="namedview1"
     pagecolor="#ffffff"
     bordercolor="#000000"
     borderopacity="0.25"
     inkscape:showpageshadow="2"
     inkscape:pageopacity="0.0"
     inkscape:pagecheckerboard="0"
     inkscape:deskcolor="#d1d1d1" />
  <path
     id="line1"
     style="baseline-shift:baseline;display:inline;overflow:visible;vector-effect:none;fill:url(#linearGradient2);stroke-linecap:round;stroke-linejoin:round;enable-background:accumulate;stop-color:#000000;stop-opacity:1;opacity:1;fill-opacity:1"
     d="M 166.625 32.052734 C 160.46525 32.052734 154.30534 34.379149 149.65234 39.033203 L 90.34375 98.34375 L 31.033203 157.65234 C 21.725096 166.95833 21.725096 182.29167 31.033203 191.59766 L 61.09375 221.65625 A 8.0008 8.0008 0 0 0 66.75 224 L 112 224 L 216 224 A 8 8 0 0 0 224 216 A 8 8 0 0 0 216 208 L 131.3125 208 L 165.65625 173.65625 L 224.9668 114.34766 C 234.2749 105.04167 234.2749 89.708326 224.9668 80.402344 L 183.59766 39.033203 C 178.94466 34.379149 172.78475 32.052734 166.625 32.052734 z M 166.625 47.951172 C 168.6559 47.951172 170.68751 48.749646 172.2832 50.345703 A 8.0008 8.0008 0 0 0 172.2832 50.347656 L 213.65234 91.716797 A 8.0008 8.0008 0 0 0 213.6543 91.716797 C 216.84641 94.908182 216.84641 99.841824 213.6543 103.0332 A 8.0008 8.0008 0 0 0 213.65234 103.0332 L 160 156.6875 L 107.3125 104 L 160.9668 50.347656 A 8.0008 8.0008 0 0 0 160.9668 50.345703 C 162.56249 48.749646 164.5941 47.951172 166.625 47.951172 z M 96 115.3125 L 148.6875 168 L 108.6875 208 L 70.064453 208 L 42.347656 180.2832 A 8.0008 8.0008 0 0 0 42.345703 180.2832 C 39.153589 177.09182 39.153589 172.15818 42.345703 168.9668 A 8.0008 8.0008 0 0 0 42.347656 168.9668 L 96 115.3125 z " />
</svg>
