<?xml version="1.0" encoding="UTF-8" standalone="no"?>
<svg
   viewBox="0 0 256 256"
   version="1.1"
   id="svg1"
   sodipodi:docname="escalator up coral_purple.svg"
   xmlns:inkscape="http://www.inkscape.org/namespaces/inkscape"
   xmlns:sodipodi="http://sodipodi.sourceforge.net/DTD/sodipodi-0.dtd"
   xmlns:xlink="http://www.w3.org/1999/xlink"
   xmlns="http://www.w3.org/2000/svg"
   xmlns:svg="http://www.w3.org/2000/svg">
  <defs
     id="defs3">
    <linearGradient
       id="linearGradient1"
       inkscape:collect="always">
      <stop
         style="stop-color:#a03291;stop-opacity:1;"
         offset="0"
         id="stop1" />
      <stop
         style="stop-color:#ff7c66;stop-opacity:1;"
         offset="0.76340693"
         id="stop2" />
    </linearGradient>
    <linearGradient
       inkscape:collect="always"
       xlink:href="#linearGradient1"
       id="linearGradient2"
       x1="232.4884"
       y1="23.847498"
       x2="23.977745"
       y2="232.35815"
       gradientUnits="userSpaceOnUse" />
  </defs>
  <defs
     id="defs1" />
  <sodipodi:namedview
     id="namedview1"
     pagecolor="#ffffff"
     bordercolor="#000000"
     borderopacity="0.25"
     inkscape:showpageshadow="2"
     inkscape:pageopacity="0.0"
     inkscape:pagecheckerboard="0"
     inkscape:deskcolor="#d1d1d1" />
  <path
     id="path1"
     style="baseline-shift:baseline;display:inline;overflow:visible;vector-effect:none;fill:url(#linearGradient2);stroke-linecap:round;stroke-linejoin:round;enable-background:accumulate;stop-color:#000000;stop-opacity:1;opacity:1;fill-opacity:1"
     d="M 168 40 A 8.0008 8.0008 0 0 0 162.12109 42.574219 L 68.498047 144 L 32 144 C 23.258201 144 16 151.2582 16 160 L 16 200 C 16 208.7418 23.258201 216 32 216 L 88 216 A 8.0008 8.0008 0 0 0 93.878906 213.42578 L 187.50195 112 L 224 112 C 232.7418 112 240 104.7418 240 96 L 240 56 C 240 47.258201 232.7418 40 224 40 L 168 40 z M 171.50195 56 L 224 56 L 224 96 L 184 96 A 8.0008 8.0008 0 0 0 178.12109 98.574219 L 84.498047 200 L 32 200 L 32 160 L 72 160 A 8.0008 8.0008 0 0 0 77.878906 157.42578 L 171.50195 56 z M 200 144 A 8.0008 8.0008 0 0 0 198.94922 144.07031 A 8 8 0 0 0 198.46094 144.16797 A 8.0008 8.0008 0 0 0 197.91406 144.2793 A 8 8 0 0 0 197.39844 144.45312 A 8.0008 8.0008 0 0 0 196.92188 144.61719 A 8 8 0 0 0 196.44531 144.85352 A 8.0008 8.0008 0 0 0 195.9668 145.0957 A 8 8 0 0 0 195.52539 145.39062 A 8.0008 8.0008 0 0 0 195.10352 145.67773 A 8 8 0 0 0 194.66406 146.0625 A 8.0008 8.0008 0 0 0 194.34375 146.34375 L 194.26172 146.42578 L 170.34375 170.34375 A 8 8 0 0 0 170.34375 181.65625 A 8 8 0 0 0 181.65625 181.65625 L 192 171.3125 L 192 208 A 8 8 0 0 0 200 216 A 8 8 0 0 0 208 208 L 208 171.3125 L 218.34375 181.65625 A 8 8 0 0 0 229.65625 181.65625 A 8 8 0 0 0 229.65625 170.34375 L 205.73828 146.42578 L 205.65625 146.34375 A 8.0008 8.0008 0 0 0 205.33594 146.0625 A 8 8 0 0 0 204.89648 145.67773 A 8.0008 8.0008 0 0 0 204.47461 145.39062 A 8 8 0 0 0 204.0332 145.0957 A 8.0008 8.0008 0 0 0 203.55469 144.85352 A 8 8 0 0 0 203.07812 144.61719 A 8.0008 8.0008 0 0 0 202.60156 144.45312 A 8 8 0 0 0 202.08594 144.2793 A 8.0008 8.0008 0 0 0 201.53906 144.16797 A 8 8 0 0 0 201.05078 144.07031 A 8 8 0 0 0 200 144 z " />
</svg>
