<?xml version="1.0" encoding="UTF-8" standalone="no"?>
<svg
   viewBox="0 0 256 256"
   version="1.1"
   id="svg3"
   sodipodi:docname="factory coral_purple.svg"
   xmlns:inkscape="http://www.inkscape.org/namespaces/inkscape"
   xmlns:sodipodi="http://sodipodi.sourceforge.net/DTD/sodipodi-0.dtd"
   xmlns:xlink="http://www.w3.org/1999/xlink"
   xmlns="http://www.w3.org/2000/svg"
   xmlns:svg="http://www.w3.org/2000/svg">
  <defs
     id="defs3">
    <linearGradient
       id="linearGradient1"
       inkscape:collect="always">
      <stop
         style="stop-color:#a03291;stop-opacity:1;"
         offset="0"
         id="stop1" />
      <stop
         style="stop-color:#ff7c66;stop-opacity:1;"
         offset="0.76340693"
         id="stop2" />
    </linearGradient>
    <linearGradient
       inkscape:collect="always"
       xlink:href="#linearGradient1"
       id="linearGradient2"
       x1="232.4884"
       y1="23.847498"
       x2="23.977745"
       y2="232.35815"
       gradientUnits="userSpaceOnUse" />
  </defs>
  <defs
     id="defs1" />
  <sodipodi:namedview
     id="namedview3"
     pagecolor="#ffffff"
     bordercolor="#000000"
     borderopacity="0.25"
     inkscape:showpageshadow="2"
     inkscape:pageopacity="0.0"
     inkscape:pagecheckerboard="0"
     inkscape:deskcolor="#d1d1d1" />
  <path
     id="line1"
     style="baseline-shift:baseline;display:inline;overflow:visible;vector-effect:none;fill:url(#linearGradient2);stroke-linecap:round;stroke-linejoin:round;enable-background:accumulate;stop-color:#000000;stop-opacity:1;opacity:1;fill-opacity:1"
     d="M 174.96094 16 C 167.04221 15.98 160.19858 21.900874 159.08008 29.740234 L 147.53906 110.6543 L 108.80078 81.599609 A 8.0008 8.0008 0 0 0 96 88 L 96 120 L 44.800781 81.599609 A 8.0008 8.0008 0 0 0 39.244141 80.037109 A 8.0008 8.0008 0 0 0 32 88 L 32 208 L 24 208 A 8 8 0 0 0 16 216 A 8 8 0 0 0 24 224 L 216 224 L 232 224 A 8 8 0 0 0 240 216 A 8 8 0 0 0 232 208 L 224 208 L 224 136 A 8.0008 8.0008 0 0 0 223.93555 135.01562 A 8 8 0 0 0 223.92578 134.92773 A 8.0008 8.0008 0 0 0 223.91992 134.86914 L 208.91992 29.740234 C 207.80144 21.900874 200.95779 15.980001 193.03906 16 L 174.96094 16 z M 174.91992 32 A 8.0008 8.0008 0 0 0 174.93945 32 L 193.06055 32 A 8.0008 8.0008 0 0 0 193.08008 32 L 206.77734 128 L 170.66602 128 L 162.13867 121.60352 L 174.91992 32 z M 48 104 L 99.199219 142.40039 A 8.0008 8.0008 0 0 0 112 136 L 112 104 L 163.19922 142.40039 A 8.0008 8.0008 0 0 0 168 144 L 208 144 L 208 208 L 48 208 L 48 104 z M 80 168 A 8 8 0 0 0 72 176 A 8 8 0 0 0 80 184 L 108 184 A 8 8 0 0 0 116 176 A 8 8 0 0 0 108 168 L 80 168 z M 148 168 A 8 8 0 0 0 140 176 A 8 8 0 0 0 148 184 L 176 184 A 8 8 0 0 0 184 176 A 8 8 0 0 0 176 168 L 148 168 z " />
</svg>
