<?xml version="1.0" encoding="UTF-8" standalone="no"?>
<svg
   viewBox="0 0 256 256"
   version="1.1"
   id="svg3"
   sodipodi:docname="files coral_purple.svg"
   xmlns:inkscape="http://www.inkscape.org/namespaces/inkscape"
   xmlns:sodipodi="http://sodipodi.sourceforge.net/DTD/sodipodi-0.dtd"
   xmlns:xlink="http://www.w3.org/1999/xlink"
   xmlns="http://www.w3.org/2000/svg"
   xmlns:svg="http://www.w3.org/2000/svg">
  <defs
     id="defs3">
    <linearGradient
       id="linearGradient1"
       inkscape:collect="always">
      <stop
         style="stop-color:#a03291;stop-opacity:1;"
         offset="0"
         id="stop1" />
      <stop
         style="stop-color:#ff7c66;stop-opacity:1;"
         offset="0.76340693"
         id="stop2" />
    </linearGradient>
    <linearGradient
       inkscape:collect="always"
       xlink:href="#linearGradient1"
       id="linearGradient2"
       x1="232.4884"
       y1="23.847498"
       x2="23.977745"
       y2="232.35815"
       gradientUnits="userSpaceOnUse" />
  </defs>
  <defs
     id="defs1" />
  <sodipodi:namedview
     id="namedview3"
     pagecolor="#ffffff"
     bordercolor="#000000"
     borderopacity="0.25"
     inkscape:showpageshadow="2"
     inkscape:pageopacity="0.0"
     inkscape:pagecheckerboard="0"
     inkscape:deskcolor="#d1d1d1" />
  <path
     id="path1"
     style="baseline-shift:baseline;display:inline;overflow:visible;vector-effect:none;fill:url(#linearGradient2);stroke-linecap:round;stroke-linejoin:round;enable-background:accumulate;stop-color:#000000;stop-opacity:1;opacity:1;fill-opacity:1"
     d="M 88 24 C 79.258201 24 72 31.258201 72 40 L 72 56 L 56 56 C 47.258201 56 40 63.258201 40 72 L 40 216 C 40 224.7418 47.258201 232 56 232 L 168 232 C 176.7418 232 184 224.7418 184 216 L 184 200 L 200 200 C 208.7418 200 216 192.7418 216 184 L 216 72 A 8.0008 8.0008 0 0 0 213.65625 66.34375 L 173.65625 26.34375 A 8.0008 8.0008 0 0 0 168 24 L 88 24 z M 88 40 L 164.68555 40 L 200 75.314453 L 200 184 L 184 184 L 184 104 A 8.0008 8.0008 0 0 0 181.65625 98.34375 L 141.65625 58.34375 A 8.0008 8.0008 0 0 0 136 56 L 88 56 L 88 40 z M 56 72 L 132.68555 72 L 168 107.31445 L 168 216 L 56 216 L 56 72 z M 88 144 A 8 8 0 0 0 80 152 A 8 8 0 0 0 88 160 L 136 160 A 8 8 0 0 0 144 152 A 8 8 0 0 0 136 144 L 88 144 z M 88 176 A 8 8 0 0 0 80 184 A 8 8 0 0 0 88 192 L 136 192 A 8 8 0 0 0 144 184 A 8 8 0 0 0 136 176 L 88 176 z " />
</svg>
