<?xml version="1.0" encoding="UTF-8" standalone="no"?>
<svg
   viewBox="0 0 256 256"
   version="1.1"
   id="svg3"
   sodipodi:docname="finn the human coral_purple.svg"
   xmlns:inkscape="http://www.inkscape.org/namespaces/inkscape"
   xmlns:sodipodi="http://sodipodi.sourceforge.net/DTD/sodipodi-0.dtd"
   xmlns:xlink="http://www.w3.org/1999/xlink"
   xmlns="http://www.w3.org/2000/svg"
   xmlns:svg="http://www.w3.org/2000/svg">
  <defs
     id="defs3">
    <linearGradient
       id="linearGradient1"
       inkscape:collect="always">
      <stop
         style="stop-color:#a03291;stop-opacity:1;"
         offset="0"
         id="stop1" />
      <stop
         style="stop-color:#ff7c66;stop-opacity:1;"
         offset="0.76340693"
         id="stop2" />
    </linearGradient>
    <linearGradient
       inkscape:collect="always"
       xlink:href="#linearGradient1"
       id="linearGradient2"
       x1="232.4884"
       y1="23.847498"
       x2="23.977745"
       y2="232.35815"
       gradientUnits="userSpaceOnUse" />
  </defs>
  <defs
     id="defs1" />
  <sodipodi:namedview
     id="namedview3"
     pagecolor="#ffffff"
     bordercolor="#000000"
     borderopacity="0.25"
     inkscape:showpageshadow="2"
     inkscape:pageopacity="0.0"
     inkscape:pagecheckerboard="0"
     inkscape:deskcolor="#d1d1d1" />
  <path
     id="rect2"
     style="baseline-shift:baseline;display:inline;overflow:visible;vector-effect:none;fill:url(#linearGradient2);stroke-linecap:round;stroke-linejoin:round;enable-background:accumulate;stop-color:#000000;stop-opacity:1;opacity:1;fill-opacity:1"
     d="M 48 40 C 30.421653 40 16 54.421639 16 72 L 16 152 C 16 191.66974 48.330255 224 88 224 L 168 224 C 207.66974 224 240 191.66974 240 152 L 240 72 C 240 54.421639 225.57835 40 208 40 C 193.19735 40 180.74527 50.273363 177.14648 64 L 78.853516 64 C 75.254735 50.273363 62.802653 40 48 40 z M 48 56 C 56.93132 56 64 63.068675 64 72 A 8.0008 8.0008 0 0 0 72 80 L 184 80 A 8.0008 8.0008 0 0 0 192 72 C 192 63.068675 199.06868 56 208 56 C 216.93132 56 224 63.068675 224 72 L 224 152 C 224 183.0227 199.0227 208 168 208 L 88 208 C 56.977297 208 32 183.0227 32 152 L 32 72 C 32 63.068675 39.06868 56 48 56 z M 88 104 C 65.978378 104 48 121.97838 48 144 L 48 152 C 48 174.02162 65.978378 192 88 192 L 168 192 C 190.02162 192 208 174.02162 208 152 L 208 144 C 208 121.97838 190.02162 104 168 104 L 88 104 z M 88 120 L 168 120 C 181.43438 120 192 130.56562 192 144 L 192 152 C 192 165.43438 181.43438 176 168 176 L 88 176 C 74.565622 176 64 165.43438 64 152 L 64 144 C 64 130.56562 74.565622 120 88 120 z M 92 136 A 12 12 0 0 0 80 148 A 12 12 0 0 0 92 160 A 12 12 0 0 0 104 148 A 12 12 0 0 0 92 136 z M 164 136 A 12 12 0 0 0 152 148 A 12 12 0 0 0 164 160 A 12 12 0 0 0 176 148 A 12 12 0 0 0 164 136 z " />
</svg>
