<?xml version="1.0" encoding="UTF-8" standalone="no"?>
<svg
   viewBox="0 0 256 256"
   version="1.1"
   id="svg1"
   sodipodi:docname="first aid coral_purple.svg"
   xmlns:inkscape="http://www.inkscape.org/namespaces/inkscape"
   xmlns:sodipodi="http://sodipodi.sourceforge.net/DTD/sodipodi-0.dtd"
   xmlns:xlink="http://www.w3.org/1999/xlink"
   xmlns="http://www.w3.org/2000/svg"
   xmlns:svg="http://www.w3.org/2000/svg">
  <defs
     id="defs3">
    <linearGradient
       id="linearGradient1"
       inkscape:collect="always">
      <stop
         style="stop-color:#a03291;stop-opacity:1;"
         offset="0"
         id="stop1" />
      <stop
         style="stop-color:#ff7c66;stop-opacity:1;"
         offset="0.76340693"
         id="stop2" />
    </linearGradient>
    <linearGradient
       inkscape:collect="always"
       xlink:href="#linearGradient1"
       id="linearGradient2"
       x1="232.4884"
       y1="23.847498"
       x2="23.977745"
       y2="232.35815"
       gradientUnits="userSpaceOnUse" />
  </defs>
  <defs
     id="defs1" />
  <sodipodi:namedview
     id="namedview1"
     pagecolor="#ffffff"
     bordercolor="#000000"
     borderopacity="0.25"
     inkscape:showpageshadow="2"
     inkscape:pageopacity="0.0"
     inkscape:pagecheckerboard="0"
     inkscape:deskcolor="#d1d1d1" />
  <path
     id="path1"
     style="baseline-shift:baseline;display:inline;overflow:visible;vector-effect:none;fill:url(#linearGradient2);stroke-linecap:round;stroke-linejoin:round;enable-background:accumulate;stop-color:#000000;stop-opacity:1;opacity:1;fill-opacity:1"
     d="M 104 24 C 95.258201 24 88 31.258201 88 40 L 88 88 L 40 88 C 31.258201 88 24 95.258201 24 104 L 24 152 C 24 160.7418 31.258201 168 40 168 L 88 168 L 88 216 C 88 224.7418 95.258201 232 104 232 L 152 232 C 160.7418 232 168 224.7418 168 216 L 168 168 L 216 168 C 224.7418 168 232 160.7418 232 152 L 232 104 C 232 95.258201 224.7418 88 216 88 L 168 88 L 168 40 C 168 31.258201 160.7418 24 152 24 L 104 24 z M 104 40 L 152 40 L 152 96 A 8.0008 8.0008 0 0 0 160 104 L 216 104 L 216 152 L 160 152 A 8.0008 8.0008 0 0 0 152 160 L 152 216 L 104 216 L 104 160 A 8.0008 8.0008 0 0 0 96 152 L 40 152 L 40 104 L 96 104 A 8.0008 8.0008 0 0 0 104 96 L 104 40 z " />
</svg>
