<?xml version="1.0" encoding="UTF-8" standalone="no"?>
<svg
   viewBox="0 0 256 256"
   version="1.1"
   id="svg1"
   sodipodi:docname="flag coral_purple.svg"
   xmlns:inkscape="http://www.inkscape.org/namespaces/inkscape"
   xmlns:sodipodi="http://sodipodi.sourceforge.net/DTD/sodipodi-0.dtd"
   xmlns:xlink="http://www.w3.org/1999/xlink"
   xmlns="http://www.w3.org/2000/svg"
   xmlns:svg="http://www.w3.org/2000/svg">
  <defs
     id="defs3">
    <linearGradient
       id="linearGradient1"
       inkscape:collect="always">
      <stop
         style="stop-color:#a03291;stop-opacity:1;"
         offset="0"
         id="stop1" />
      <stop
         style="stop-color:#ff7c66;stop-opacity:1;"
         offset="0.76340693"
         id="stop2" />
    </linearGradient>
    <linearGradient
       inkscape:collect="always"
       xlink:href="#linearGradient1"
       id="linearGradient2"
       x1="232.4884"
       y1="23.847498"
       x2="23.977745"
       y2="232.35815"
       gradientUnits="userSpaceOnUse" />
  </defs>
  <defs
     id="defs1" />
  <sodipodi:namedview
     id="namedview1"
     pagecolor="#ffffff"
     bordercolor="#000000"
     borderopacity="0.25"
     inkscape:showpageshadow="2"
     inkscape:pageopacity="0.0"
     inkscape:pagecheckerboard="0"
     inkscape:deskcolor="#d1d1d1" />
  <path
     id="line1"
     style="baseline-shift:baseline;display:inline;overflow:visible;vector-effect:none;fill:url(#linearGradient2);stroke-linecap:round;stroke-linejoin:round;enable-background:accumulate;stop-color:#000000;stop-opacity:1;opacity:1;fill-opacity:1"
     d="M 88.234375 32.039062 C 73.718621 31.777238 58.248397 36.722242 43.179688 49.619141 A 8 8 0 0 0 43.052734 49.720703 C 42.955936 49.80385 42.858483 49.869318 42.761719 49.953125 A 8 8 0 0 0 42.53125 50.177734 A 8 8 0 0 0 42.220703 50.482422 A 8 8 0 0 0 41.837891 50.917969 A 8 8 0 0 0 41.556641 51.273438 A 8 8 0 0 0 41.236328 51.753906 A 8 8 0 0 0 41.013672 52.117188 A 8 8 0 0 0 40.738281 52.677734 A 8 8 0 0 0 40.576172 53.039062 A 8 8 0 0 0 40.371094 53.644531 A 8 8 0 0 0 40.257812 54.007812 A 8 8 0 0 0 40.128906 54.65625 A 8 8 0 0 0 40.064453 55.011719 A 8 8 0 0 0 40.019531 55.714844 A 8 8 0 0 0 40 56 L 40 56.078125 L 40 175.92188 A 8 8 0 0 0 40 176.07812 L 40 224 A 8 8 0 0 0 48 232 A 8 8 0 0 0 56 224 L 56 179.75 C 69.405422 169.07141 80.745529 166.94324 92.550781 168.35352 C 105.15809 169.8596 118.45117 176.24117 132.45117 183.16992 C 146.45117 190.09867 161.15809 197.57491 177.55078 199.5332 C 193.94347 201.49149 211.86666 197.09233 229.23828 182.04688 A 8.0008 8.0008 0 0 0 232 176 L 232 56 A 8.0008 8.0008 0 0 0 218.76172 49.953125 C 204.13334 62.62267 192.05653 65.152569 179.44922 63.646484 C 166.84191 62.1404 153.54883 55.758828 139.54883 48.830078 C 125.54883 41.901328 110.84191 34.425087 94.449219 32.466797 C 92.400133 32.222011 90.327193 32.076811 88.234375 32.039062 z M 88.140625 48 C 89.606688 48.055909 91.075125 48.177232 92.550781 48.353516 C 105.15809 49.8596 118.45117 56.241172 132.45117 63.169922 C 146.45117 70.098672 161.15809 77.574913 177.55078 79.533203 C 189.80196 80.996744 202.90855 78.901113 216 71.472656 L 216 172.1582 C 202.60686 182.81716 191.24612 185.05576 179.44922 183.64648 C 166.84191 182.1404 153.54883 175.75883 139.54883 168.83008 C 125.54883 161.90133 110.84191 154.42509 94.449219 152.4668 C 82.19796 151.00325 69.091844 153.09087 56 160.51953 L 56 59.75 C 67.729744 50.406227 77.878183 47.608638 88.140625 48 z " />
</svg>
