<?xml version="1.0" encoding="UTF-8" standalone="no"?>
<svg
   viewBox="0 0 256 256"
   version="1.1"
   id="svg2"
   sodipodi:docname="flask coral_purple.svg"
   xmlns:inkscape="http://www.inkscape.org/namespaces/inkscape"
   xmlns:sodipodi="http://sodipodi.sourceforge.net/DTD/sodipodi-0.dtd"
   xmlns:xlink="http://www.w3.org/1999/xlink"
   xmlns="http://www.w3.org/2000/svg"
   xmlns:svg="http://www.w3.org/2000/svg">
  <defs
     id="defs3">
    <linearGradient
       id="linearGradient1"
       inkscape:collect="always">
      <stop
         style="stop-color:#a03291;stop-opacity:1;"
         offset="0"
         id="stop1" />
      <stop
         style="stop-color:#ff7c66;stop-opacity:1;"
         offset="0.76340693"
         id="stop2" />
    </linearGradient>
    <linearGradient
       inkscape:collect="always"
       xlink:href="#linearGradient1"
       id="linearGradient2"
       x1="232.4884"
       y1="23.847498"
       x2="23.977745"
       y2="232.35815"
       gradientUnits="userSpaceOnUse" />
  </defs>
  <defs
     id="defs2" />
  <sodipodi:namedview
     id="namedview2"
     pagecolor="#ffffff"
     bordercolor="#000000"
     borderopacity="0.25"
     inkscape:showpageshadow="2"
     inkscape:pageopacity="0.0"
     inkscape:pagecheckerboard="0"
     inkscape:deskcolor="#d1d1d1" />
  <path
     id="line1"
     style="baseline-shift:baseline;display:inline;overflow:visible;vector-effect:none;fill:url(#linearGradient2);stroke-linecap:round;stroke-linejoin:round;enable-background:accumulate;stop-color:#000000;stop-opacity:1;opacity:1;fill-opacity:1"
     d="M 88 24 A 8 8 0 0 0 80 32 A 8 8 0 0 0 88 40 L 96 40 L 96 96.923828 L 34.283203 199.75977 L 34.283203 199.76172 L 34.28125 199.76367 C 28.084202 210.08508 35.960417 224.00218 48 224 L 208 224 A 8.0008 8.0008 0 0 0 208.00781 224 C 220.04074 223.9887 227.90242 210.07908 221.70898 199.76367 L 221.70703 199.76172 L 160 96.923828 L 160 40 L 168 40 A 8 8 0 0 0 176 32 A 8 8 0 0 0 168 24 L 88 24 z M 112 40 L 144 40 L 144 99.140625 A 8.0008 8.0008 0 0 0 145.14062 103.25586 L 183.39648 167.01172 C 171.89876 169.35591 154.98236 168.69637 131.61328 156.86328 A 8.0008 8.0008 0 0 0 131.61133 156.86133 C 114.18065 148.04229 99.00218 144.53638 86.363281 144.07227 L 110.85938 103.25586 A 8.0008 8.0008 0 0 0 112 99.140625 L 112 40 z M 85.867188 160.01758 C 96.022625 160.36904 108.75618 163.22941 124.38867 171.13867 C 153.76336 186.01207 176.78784 185.60773 191.97852 181.3125 L 207.99023 207.99609 A 8.0008 8.0008 0 0 0 207.99219 208 L 48 208 A 8.0008 8.0008 0 0 0 47.998047 208 A 8.0008 8.0008 0 0 0 48 207.99609 L 76.558594 160.4082 L 76.560547 160.4082 C 79.384181 160.06231 82.482781 159.90045 85.867188 160.01758 z " />
</svg>
