<?xml version="1.0" encoding="UTF-8" standalone="no"?>
<svg
   viewBox="0 0 256 256"
   version="1.1"
   id="svg2"
   sodipodi:docname="floppy disk coral_purple.svg"
   xmlns:inkscape="http://www.inkscape.org/namespaces/inkscape"
   xmlns:sodipodi="http://sodipodi.sourceforge.net/DTD/sodipodi-0.dtd"
   xmlns:xlink="http://www.w3.org/1999/xlink"
   xmlns="http://www.w3.org/2000/svg"
   xmlns:svg="http://www.w3.org/2000/svg">
  <defs
     id="defs3">
    <linearGradient
       id="linearGradient1"
       inkscape:collect="always">
      <stop
         style="stop-color:#a03291;stop-opacity:1;"
         offset="0"
         id="stop1" />
      <stop
         style="stop-color:#ff7c66;stop-opacity:1;"
         offset="0.76340693"
         id="stop2" />
    </linearGradient>
    <linearGradient
       inkscape:collect="always"
       xlink:href="#linearGradient1"
       id="linearGradient2"
       x1="232.4884"
       y1="23.847498"
       x2="23.977745"
       y2="232.35815"
       gradientUnits="userSpaceOnUse" />
  </defs>
  <defs
     id="defs2" />
  <sodipodi:namedview
     id="namedview2"
     pagecolor="#ffffff"
     bordercolor="#000000"
     borderopacity="0.25"
     inkscape:showpageshadow="2"
     inkscape:pageopacity="0.0"
     inkscape:pagecheckerboard="0"
     inkscape:deskcolor="#d1d1d1" />
  <path
     id="path1"
     style="baseline-shift:baseline;display:inline;overflow:visible;vector-effect:none;fill:url(#linearGradient2);stroke-linecap:round;stroke-linejoin:round;enable-background:accumulate;stop-color:#000000;stop-opacity:1;opacity:1;fill-opacity:1"
     d="M 48 32 C 39.258201 32 32 39.258201 32 48 L 32 208 C 32 216.7418 39.258201 224 48 224 L 208 224 C 216.7418 224 224 216.7418 224 208 L 224 83.310547 A 8.0008 8.0008 0 0 0 224 83.306641 C 223.998 79.071883 222.31307 75.00195 219.32031 72.005859 A 8.0008 8.0008 0 0 0 219.31641 72.003906 L 183.99609 36.683594 A 8.0008 8.0008 0 0 0 183.99414 36.679688 C 180.9981 33.68692 176.92812 32.001963 172.69336 32 A 8.0008 8.0008 0 0 0 172.68945 32 L 48 32 z M 48 48 L 172.68555 48 L 172.68945 48 L 208 83.3125 L 208 83.314453 L 208 208 L 184 208 L 184 152 C 184 143.2582 176.7418 136 168 136 L 88 136 C 79.258201 136 72 143.2582 72 152 L 72 208 L 48 208 L 48 48 z M 96 64 A 8 8 0 0 0 88 72 A 8 8 0 0 0 96 80 L 152 80 A 8 8 0 0 0 160 72 A 8 8 0 0 0 152 64 L 96 64 z M 88 152 L 168 152 L 168 208 L 88 208 L 88 152 z " />
</svg>
