<?xml version="1.0" encoding="UTF-8" standalone="no"?>
<svg
   viewBox="0 0 256 256"
   version="1.1"
   id="svg6"
   sodipodi:docname="flower coral_purple.svg"
   xmlns:inkscape="http://www.inkscape.org/namespaces/inkscape"
   xmlns:sodipodi="http://sodipodi.sourceforge.net/DTD/sodipodi-0.dtd"
   xmlns:xlink="http://www.w3.org/1999/xlink"
   xmlns="http://www.w3.org/2000/svg"
   xmlns:svg="http://www.w3.org/2000/svg">
  <defs
     id="defs3">
    <linearGradient
       id="linearGradient1"
       inkscape:collect="always">
      <stop
         style="stop-color:#a03291;stop-opacity:1;"
         offset="0"
         id="stop1" />
      <stop
         style="stop-color:#ff7c66;stop-opacity:1;"
         offset="0.76340693"
         id="stop2" />
    </linearGradient>
    <linearGradient
       inkscape:collect="always"
       xlink:href="#linearGradient1"
       id="linearGradient2"
       x1="232.4884"
       y1="23.847498"
       x2="23.977745"
       y2="232.35815"
       gradientUnits="userSpaceOnUse" />
  </defs>
  <defs
     id="defs6" />
  <sodipodi:namedview
     id="namedview6"
     pagecolor="#ffffff"
     bordercolor="#000000"
     borderopacity="0.25"
     inkscape:showpageshadow="2"
     inkscape:pageopacity="0.0"
     inkscape:pagecheckerboard="0"
     inkscape:deskcolor="#d1d1d1" />
  <path
     id="circle1"
     style="baseline-shift:baseline;display:inline;overflow:visible;vector-effect:none;fill:url(#linearGradient2);stroke-linecap:round;stroke-linejoin:round;enable-background:accumulate;stop-color:#000000;stop-opacity:1;opacity:1;fill-opacity:1"
     d="M 128 16 C 106.00338 16 88 34.003358 88 56 C 88 56.955348 88.03382 57.919435 88.097656 58.890625 C 87.306448 58.362201 86.505814 57.862568 85.697266 57.394531 C 78.553913 53.161997 70.595871 51.423618 62.853516 51.919922 C 49.926927 52.748547 37.601595 59.792607 30.667969 71.800781 C 19.580625 91.002675 26.382413 115.8002 45.705078 126.66602 C 46.517129 127.13368 47.351196 127.57788 48.207031 128 C 47.351251 128.422 46.517184 128.86629 45.705078 129.33398 C 26.382413 140.1998 19.580625 164.99732 30.667969 184.19922 C 41.754477 203.39966 66.627414 209.90462 85.697266 198.60547 C 86.505814 198.13743 87.306448 197.6378 88.097656 197.10938 C 88.03382 198.08056 88 199.04465 88 200 C 88 221.99664 106.00338 240 128 240 C 149.99662 240 168 221.99664 168 200 C 168 199.04465 167.96618 198.08056 167.90234 197.10938 C 168.69355 197.6378 169.49419 198.13743 170.30273 198.60547 C 189.37259 209.90462 214.24552 203.39966 225.33203 184.19922 C 236.41938 164.99732 229.61759 140.1998 210.29492 129.33398 C 209.48288 128.86632 208.6488 128.42212 207.79297 128 C 208.64874 127.578 209.48282 127.13371 210.29492 126.66602 C 229.61759 115.8002 236.41938 91.002675 225.33203 71.800781 C 218.39841 59.792607 206.07307 52.748547 193.14648 51.919922 C 185.40413 51.423618 177.44609 53.161997 170.30273 57.394531 C 169.49419 57.862567 168.69355 58.362202 167.90234 58.890625 C 167.96618 57.919436 168 56.955347 168 56 C 168 34.003358 149.99662 16 128 16 z M 128 32 C 141.3496 32 152 42.650394 152 56 C 152 63.094167 146.86678 77.094363 140.5957 90.044922 C 136.63093 88.71897 132.39546 88 128 88 C 123.60454 88 119.36907 88.71897 115.4043 90.044922 C 109.13322 77.094363 104 63.094167 104 56 C 104 42.650394 114.6504 32 128 32 z M 66.126953 67.773438 C 70.020282 67.916893 73.945608 69.018444 77.564453 71.167969 A 8.0008 8.0008 0 0 0 77.652344 71.21875 C 83.797325 74.764392 93.37151 86.226932 101.45312 98.144531 C 95.135085 103.77216 90.598112 111.36148 88.824219 119.92969 C 74.474179 118.88668 59.790865 116.33111 53.652344 112.7832 A 8.0008 8.0008 0 0 0 53.564453 112.73242 C 41.817942 106.14181 37.788373 91.46507 44.523438 79.800781 C 49.153793 71.781583 57.561631 67.457836 66.126953 67.773438 z M 189.87305 67.773438 C 198.43837 67.457836 206.84621 71.781583 211.47656 79.800781 C 218.21163 91.46507 214.18206 106.14179 202.43555 112.73242 A 8.0008 8.0008 0 0 0 202.34766 112.7832 C 196.2153 116.32754 181.5318 118.87193 167.17383 119.92383 C 165.39893 111.35844 160.86322 103.77065 154.54688 98.144531 C 162.6285 86.226932 172.20267 74.764392 178.34766 71.21875 A 8.0008 8.0008 0 0 0 178.43555 71.167969 C 182.05439 69.018444 185.97972 67.916893 189.87305 67.773438 z M 128 104 C 132.05666 104 135.86418 104.98271 139.19922 106.72656 A 8 8 0 0 0 139.4668 106.90234 A 8 8 0 0 0 140.04688 107.23242 A 8 8 0 0 0 140.54102 107.51758 A 8 8 0 0 0 140.82617 107.66211 C 147.5623 111.89151 152 119.38339 152 128 C 152 136.61661 147.5623 144.10849 140.82617 148.33789 A 8 8 0 0 0 140.54102 148.48242 A 8 8 0 0 0 140.04688 148.76758 A 8 8 0 0 0 139.4668 149.09766 A 8 8 0 0 0 139.19922 149.27344 C 135.86418 151.01729 132.05666 152 128 152 C 123.94334 152 120.13582 151.01729 116.80078 149.27344 A 8 8 0 0 0 116.5332 149.09766 A 8 8 0 0 0 115.95703 148.78906 A 8 8 0 0 0 115.45898 148.48242 A 8 8 0 0 0 115.17383 148.33789 C 108.4375 144.10853 104 136.61677 104 128 C 104 119.38339 108.4377 111.89151 115.17383 107.66211 A 8 8 0 0 0 115.45898 107.51758 A 8 8 0 0 0 115.95703 107.21094 A 8 8 0 0 0 116.5332 106.90234 A 8 8 0 0 0 116.80078 106.72656 C 120.13583 104.98271 123.94334 104 128 104 z M 167.17578 136.07031 C 181.52582 137.11332 196.20913 139.66889 202.34766 143.2168 A 8.0008 8.0008 0 0 0 202.43555 143.26758 C 214.18206 149.85821 218.21163 164.53493 211.47656 176.19922 C 204.7415 187.86351 190.01585 191.71051 178.43555 184.83203 A 8.0008 8.0008 0 0 0 178.34766 184.78125 C 172.20267 181.23561 162.62849 169.77307 154.54688 157.85547 C 160.86492 152.22784 165.40189 144.63852 167.17578 136.07031 z M 88.826172 136.07617 C 90.601073 144.64155 95.136782 152.22936 101.45312 157.85547 C 93.37151 169.77307 83.797325 181.23561 77.652344 184.78125 A 8.0008 8.0008 0 0 0 77.564453 184.83203 C 65.984148 191.71051 51.2585 187.86351 44.523438 176.19922 C 37.788375 164.53493 41.817943 149.85821 53.564453 143.26758 A 8.0008 8.0008 0 0 0 53.652344 143.2168 C 59.784701 139.67246 74.4682 137.12807 88.826172 136.07617 z M 115.4043 165.95508 C 119.36907 167.28103 123.60454 168 128 168 C 132.39546 168 136.63093 167.28103 140.5957 165.95508 C 146.86678 178.90564 152 192.90583 152 200 C 152 213.34961 141.3496 224 128 224 C 114.6504 224 104 213.34961 104 200 C 104 192.90583 109.13322 178.90564 115.4043 165.95508 z " />
</svg>
