<?xml version="1.0" encoding="UTF-8" standalone="no"?>
<svg
   viewBox="0 0 256 256"
   version="1.1"
   id="svg2"
   sodipodi:docname="folder star coral_purple.svg"
   xmlns:inkscape="http://www.inkscape.org/namespaces/inkscape"
   xmlns:sodipodi="http://sodipodi.sourceforge.net/DTD/sodipodi-0.dtd"
   xmlns:xlink="http://www.w3.org/1999/xlink"
   xmlns="http://www.w3.org/2000/svg"
   xmlns:svg="http://www.w3.org/2000/svg">
  <defs
     id="defs3">
    <linearGradient
       id="linearGradient1"
       inkscape:collect="always">
      <stop
         style="stop-color:#a03291;stop-opacity:1;"
         offset="0"
         id="stop1" />
      <stop
         style="stop-color:#ff7c66;stop-opacity:1;"
         offset="0.76340693"
         id="stop2" />
    </linearGradient>
    <linearGradient
       inkscape:collect="always"
       xlink:href="#linearGradient1"
       id="linearGradient2"
       x1="232.4884"
       y1="23.847498"
       x2="23.977745"
       y2="232.35815"
       gradientUnits="userSpaceOnUse" />
  </defs>
  <defs
     id="defs2" />
  <sodipodi:namedview
     id="namedview2"
     pagecolor="#ffffff"
     bordercolor="#000000"
     borderopacity="0.25"
     inkscape:showpageshadow="2"
     inkscape:pageopacity="0.0"
     inkscape:pagecheckerboard="0"
     inkscape:deskcolor="#d1d1d1" />
  <path
     id="path1"
     style="baseline-shift:baseline;display:inline;overflow:visible;vector-effect:none;fill:url(#linearGradient2);stroke-linecap:round;stroke-linejoin:round;enable-background:accumulate;stop-color:#000000;stop-opacity:1;opacity:1;fill-opacity:1"
     d="M 40 40 C 31.258201 40 24 47.258201 24 56 L 24 80 L 24 200.61914 A 8.0008 8.0008 0 0 0 24 200.64062 C 24.02262 209.02016 30.979838 215.97738 39.359375 216 A 8.0008 8.0008 0 0 0 39.380859 216 L 120.56055 216 A 8 8 0 0 0 128.56055 208 A 8 8 0 0 0 120.56055 200 L 40 200 L 40 88 L 216 88 L 216 120 A 8 8 0 0 0 224 128 A 8 8 0 0 0 232 120 L 232 88 C 232 79.258201 224.7418 72 216 72 L 131.3125 72 L 103.99609 44.683594 A 8.0008 8.0008 0 0 0 103.99414 44.679688 C 100.9981 41.68692 96.928117 40.001963 92.693359 40 A 8.0008 8.0008 0 0 0 92.689453 40 L 40 40 z M 40 56 L 92.685547 56 L 92.689453 56 L 108.6875 72 L 40 72 L 40 56 z M 184.28125 120.00586 A 8.0008 8.0008 0 0 0 180.97461 120.5957 A 8.0008 8.0008 0 0 0 176.6543 124.83008 L 165.21875 151.33398 L 135.38477 153.63281 A 8.0008 8.0008 0 0 0 130.90625 167.7793 L 153.42383 186.37305 L 146.56445 214.07617 A 8.0008 8.0008 0 0 0 158.38672 222.89453 L 184 207.82227 L 209.61328 222.89453 A 8.0008 8.0008 0 0 0 221.43555 214.07617 L 214.57617 186.37305 L 237.09375 167.7793 A 8.0008 8.0008 0 0 0 232.61523 153.63281 L 202.78125 151.33398 L 191.3457 124.83008 A 8.0008 8.0008 0 0 0 184.28125 120.00586 z M 184 148.19531 L 190.00391 162.10938 A 8.0008 8.0008 0 0 0 196.73633 166.91602 L 211.62109 168.0625 L 200.50586 177.24219 A 8.0008 8.0008 0 0 0 197.83398 185.33203 L 201.33203 199.45703 L 188.05664 191.64453 A 8.0008 8.0008 0 0 0 179.94336 191.64453 L 166.66797 199.45703 L 170.16602 185.33203 A 8.0008 8.0008 0 0 0 167.49414 177.24219 L 156.37891 168.0625 L 171.26367 166.91602 A 8.0008 8.0008 0 0 0 177.99609 162.10938 L 184 148.19531 z " />
</svg>
