<?xml version="1.0" encoding="UTF-8" standalone="no"?>
<svg
   viewBox="0 0 256 256"
   version="1.1"
   id="svg4"
   sodipodi:docname="footprints coral_purple.svg"
   xmlns:inkscape="http://www.inkscape.org/namespaces/inkscape"
   xmlns:sodipodi="http://sodipodi.sourceforge.net/DTD/sodipodi-0.dtd"
   xmlns:xlink="http://www.w3.org/1999/xlink"
   xmlns="http://www.w3.org/2000/svg"
   xmlns:svg="http://www.w3.org/2000/svg">
  <defs
     id="defs3">
    <linearGradient
       id="linearGradient1"
       inkscape:collect="always">
      <stop
         style="stop-color:#a03291;stop-opacity:1;"
         offset="0"
         id="stop1" />
      <stop
         style="stop-color:#ff7c66;stop-opacity:1;"
         offset="0.76340693"
         id="stop2" />
    </linearGradient>
    <linearGradient
       inkscape:collect="always"
       xlink:href="#linearGradient1"
       id="linearGradient2"
       x1="232.4884"
       y1="23.847498"
       x2="23.977745"
       y2="232.35815"
       gradientUnits="userSpaceOnUse" />
  </defs>
  <defs
     id="defs4" />
  <sodipodi:namedview
     id="namedview4"
     pagecolor="#ffffff"
     bordercolor="#000000"
     borderopacity="0.25"
     inkscape:showpageshadow="2"
     inkscape:pageopacity="0.0"
     inkscape:pagecheckerboard="0"
     inkscape:deskcolor="#d1d1d1" />
  <path
     id="path1"
     style="baseline-shift:baseline;display:inline;overflow:visible;vector-effect:none;fill:url(#linearGradient2);stroke-linecap:round;stroke-linejoin:round;enable-background:accumulate;stop-color:#000000;stop-opacity:1;opacity:1;fill-opacity:1"
     d="M 76 16 C 65.51981 16 57.740659 23.397558 51.457031 32.431641 C 45.173404 41.465723 40.09497 53.158833 36.630859 65.900391 C 29.702638 91.383505 28.529199 121.50001 44.550781 141.06836 A 8.0008 8.0008 0 0 0 50.740234 144 L 101.25977 144 A 8.0008 8.0008 0 0 0 107.44922 141.06836 C 123.4708 121.50001 122.29736 91.383505 115.36914 65.900391 C 111.90503 53.158833 106.8266 41.465723 100.54297 32.431641 C 94.259339 23.397558 86.48019 16 76 16 z M 76 32 C 77.77981 32 82.563081 34.602442 87.408203 41.568359 C 92.253325 48.534277 96.868797 58.841167 99.929688 70.099609 C 105.625 91.047887 105.2203 114.76653 96.955078 128 L 55.044922 128 C 46.779696 114.76653 46.375002 91.047887 52.070312 70.099609 C 55.131203 58.841167 59.746675 48.534277 64.591797 41.568359 C 69.436919 34.602442 74.22019 32 76 32 z M 180 40 C 169.51981 40 161.74066 47.397558 155.45703 56.431641 C 149.1734 65.465723 144.09497 77.158833 140.63086 89.900391 C 133.70264 115.38351 132.5292 145.50001 148.55078 165.06836 A 8.0008 8.0008 0 0 0 154.74023 168 L 205.25977 168 A 8.0008 8.0008 0 0 0 211.44922 165.06836 C 227.4708 145.50001 226.29736 115.38351 219.36914 89.900391 C 215.90503 77.158833 210.8266 65.465723 204.54297 56.431641 C 198.25934 47.397558 190.48019 40 180 40 z M 180 56 C 181.77981 56 186.56308 58.602442 191.4082 65.568359 C 196.25333 72.534277 200.8688 82.841167 203.92969 94.099609 C 209.625 115.04789 209.2203 138.76653 200.95508 152 L 159.04492 152 C 150.7797 138.76653 150.375 115.04789 156.07031 94.099609 C 159.1312 82.841167 163.74667 72.534277 168.5918 65.568359 C 173.43692 58.602442 178.22019 56 180 56 z M 48 160 A 8.0008 8.0008 0 0 0 40 168 L 40 180 C 40 199.7875 56.212514 216 76 216 C 95.787486 216 112 199.7875 112 180 L 112 168 A 8.0008 8.0008 0 0 0 104 160 L 48 160 z M 56 176 L 96 176 L 96 180 C 96 191.14047 87.140459 200 76 200 C 64.859541 200 56 191.14047 56 180 L 56 176 z M 152 184 A 8.0008 8.0008 0 0 0 144 192 L 144 204 C 144 223.7875 160.21251 240 180 240 C 199.78749 240 216 223.7875 216 204 L 216 192 A 8.0008 8.0008 0 0 0 208 184 L 152 184 z M 160 200 L 200 200 L 200 204 C 200 215.14047 191.14046 224 180 224 C 168.85954 224 160 215.14047 160 204 L 160 200 z " />
</svg>
