<?xml version="1.0" encoding="UTF-8" standalone="no"?>
<svg
   viewBox="0 0 256 256"
   version="1.1"
   id="svg3"
   sodipodi:docname="golf coral_purple.svg"
   xmlns:inkscape="http://www.inkscape.org/namespaces/inkscape"
   xmlns:sodipodi="http://sodipodi.sourceforge.net/DTD/sodipodi-0.dtd"
   xmlns:xlink="http://www.w3.org/1999/xlink"
   xmlns="http://www.w3.org/2000/svg"
   xmlns:svg="http://www.w3.org/2000/svg">
  <defs
     id="defs3">
    <linearGradient
       id="linearGradient1"
       inkscape:collect="always">
      <stop
         style="stop-color:#a03291;stop-opacity:1;"
         offset="0"
         id="stop1" />
      <stop
         style="stop-color:#ff7c66;stop-opacity:1;"
         offset="0.76340693"
         id="stop2" />
    </linearGradient>
    <linearGradient
       inkscape:collect="always"
       xlink:href="#linearGradient1"
       id="linearGradient2"
       x1="232.4884"
       y1="23.847498"
       x2="23.977745"
       y2="232.35815"
       gradientUnits="userSpaceOnUse" />
  </defs>
  <defs
     id="defs1" />
  <sodipodi:namedview
     id="namedview3"
     pagecolor="#ffffff"
     bordercolor="#000000"
     borderopacity="0.25"
     inkscape:showpageshadow="2"
     inkscape:pageopacity="0.0"
     inkscape:pagecheckerboard="0"
     inkscape:deskcolor="#d1d1d1" />
  <path
     id="circle1"
     style="baseline-shift:baseline;display:inline;overflow:visible;vector-effect:none;fill:url(#linearGradient2);stroke-linecap:round;stroke-linejoin:round;enable-background:accumulate;stop-color:#000000;stop-opacity:1;opacity:1;fill-opacity:1"
     d="M 128 8 C 79.493699 8 40 47.493699 40 96 C 40 144.5063 79.493699 184 128 184 C 176.5063 184 216 144.5063 216 96 C 216 47.493699 176.5063 8 128 8 z M 128 24 C 167.85926 24 200 56.140741 200 96 C 200 135.85926 167.85926 168 128 168 C 88.140741 168 56 135.85926 56 96 C 56 56.140741 88.140741 24 128 24 z M 164 88 A 12 12 0 0 0 152 100 A 12 12 0 0 0 164 112 A 12 12 0 0 0 176 100 A 12 12 0 0 0 164 88 z M 132 120 A 12 12 0 0 0 120 132 A 12 12 0 0 0 132 144 A 12 12 0 0 0 144 132 A 12 12 0 0 0 132 120 z M 87.779297 192.00195 A 8 8 0 0 0 80.527344 197.14258 A 8 8 0 0 0 85.142578 207.47266 C 95.92871 211.59779 107.6393 214.7146 120 215.68359 L 120 248 A 8 8 0 0 0 128 256 A 8 8 0 0 0 136 248 L 136 215.68359 C 148.3607 214.7146 160.07129 211.59779 170.85742 207.47266 A 8 8 0 0 0 175.47266 197.14258 A 8 8 0 0 0 165.14258 192.52734 C 153.39062 197.02185 140.85981 200 128 200 C 115.14019 200 102.60938 197.02185 90.857422 192.52734 A 8 8 0 0 0 87.779297 192.00195 z " />
</svg>
