<?xml version="1.0" encoding="UTF-8" standalone="no"?>
<svg
   viewBox="0 0 256 256"
   version="1.1"
   id="svg10"
   sodipodi:docname="gradient coral_purple.svg"
   xmlns:inkscape="http://www.inkscape.org/namespaces/inkscape"
   xmlns:sodipodi="http://sodipodi.sourceforge.net/DTD/sodipodi-0.dtd"
   xmlns:xlink="http://www.w3.org/1999/xlink"
   xmlns="http://www.w3.org/2000/svg"
   xmlns:svg="http://www.w3.org/2000/svg">
  <defs
     id="defs3">
    <linearGradient
       id="linearGradient1"
       inkscape:collect="always">
      <stop
         style="stop-color:#a03291;stop-opacity:1;"
         offset="0"
         id="stop1" />
      <stop
         style="stop-color:#ff7c66;stop-opacity:1;"
         offset="0.76340693"
         id="stop2" />
    </linearGradient>
    <linearGradient
       inkscape:collect="always"
       xlink:href="#linearGradient1"
       id="linearGradient2"
       x1="232.4884"
       y1="23.847498"
       x2="23.977745"
       y2="232.35815"
       gradientUnits="userSpaceOnUse" />
  </defs>
  <defs
     id="defs10" />
  <sodipodi:namedview
     id="namedview10"
     pagecolor="#ffffff"
     bordercolor="#000000"
     borderopacity="0.25"
     inkscape:showpageshadow="2"
     inkscape:pageopacity="0.0"
     inkscape:pagecheckerboard="0"
     inkscape:deskcolor="#d1d1d1" />
  <path
     id="line1"
     style="baseline-shift:baseline;display:inline;overflow:visible;vector-effect:none;fill:url(#linearGradient2);stroke-linecap:round;stroke-linejoin:round;enable-background:accumulate;stop-color:#000000;stop-opacity:1;opacity:1;fill-opacity:1"
     d="M 32 56 A 8 8 0 0 0 24 64 A 8 8 0 0 0 32 72 L 224 72 A 8 8 0 0 0 232 64 A 8 8 0 0 0 224 56 L 32 56 z M 32 96 A 8 8 0 0 0 24 104 A 8 8 0 0 0 32 112 L 112 112 A 8 8 0 0 0 120 104 A 8 8 0 0 0 112 96 L 32 96 z M 144 96 A 8 8 0 0 0 136 104 A 8 8 0 0 0 144 112 L 224 112 A 8 8 0 0 0 232 104 A 8 8 0 0 0 224 96 L 144 96 z M 32 136 A 8 8 0 0 0 24 144 A 8 8 0 0 0 32 152 L 72 152 A 8 8 0 0 0 80 144 A 8 8 0 0 0 72 136 L 32 136 z M 104 136 A 8 8 0 0 0 96 144 A 8 8 0 0 0 104 152 L 152 152 A 8 8 0 0 0 160 144 A 8 8 0 0 0 152 136 L 104 136 z M 184 136 A 8 8 0 0 0 176 144 A 8 8 0 0 0 184 152 L 224 152 A 8 8 0 0 0 232 144 A 8 8 0 0 0 224 136 L 184 136 z M 32 176 A 8 8 0 0 0 24 184 A 8 8 0 0 0 32 192 L 56 192 A 8 8 0 0 0 64 184 A 8 8 0 0 0 56 176 L 32 176 z M 88 176 A 8 8 0 0 0 80 184 A 8 8 0 0 0 88 192 L 112 192 A 8 8 0 0 0 120 184 A 8 8 0 0 0 112 176 L 88 176 z M 144 176 A 8 8 0 0 0 136 184 A 8 8 0 0 0 144 192 L 168 192 A 8 8 0 0 0 176 184 A 8 8 0 0 0 168 176 L 144 176 z M 200 176 A 8 8 0 0 0 192 184 A 8 8 0 0 0 200 192 L 224 192 A 8 8 0 0 0 232 184 A 8 8 0 0 0 224 176 L 200 176 z " />
</svg>
