<?xml version="1.0" encoding="UTF-8" standalone="no"?>
<svg
   viewBox="0 0 256 256"
   version="1.1"
   id="svg8"
   sodipodi:docname="hands clapping coral_purple.svg"
   xmlns:inkscape="http://www.inkscape.org/namespaces/inkscape"
   xmlns:sodipodi="http://sodipodi.sourceforge.net/DTD/sodipodi-0.dtd"
   xmlns:xlink="http://www.w3.org/1999/xlink"
   xmlns="http://www.w3.org/2000/svg"
   xmlns:svg="http://www.w3.org/2000/svg">
  <defs
     id="defs3">
    <linearGradient
       id="linearGradient1"
       inkscape:collect="always">
      <stop
         style="stop-color:#a03291;stop-opacity:1;"
         offset="0"
         id="stop1" />
      <stop
         style="stop-color:#ff7c66;stop-opacity:1;"
         offset="0.76340693"
         id="stop2" />
    </linearGradient>
    <linearGradient
       inkscape:collect="always"
       xlink:href="#linearGradient1"
       id="linearGradient2"
       x1="232.4884"
       y1="23.847498"
       x2="23.977745"
       y2="232.35815"
       gradientUnits="userSpaceOnUse" />
  </defs>
  <defs
     id="defs8" />
  <sodipodi:namedview
     id="namedview8"
     pagecolor="#ffffff"
     bordercolor="#000000"
     borderopacity="0.25"
     inkscape:showpageshadow="2"
     inkscape:pageopacity="0.0"
     inkscape:pagecheckerboard="0"
     inkscape:deskcolor="#d1d1d1" />
  <path
     id="line1"
     style="baseline-shift:baseline;display:inline;overflow:visible;vector-effect:none;fill:url(#linearGradient2);stroke-linecap:round;stroke-linejoin:round;enable-background:accumulate;stop-color:#000000;stop-opacity:1;opacity:1;fill-opacity:1"
     d="M 168 0 A 8 8 0 0 0 160 8 L 160 24 A 8 8 0 0 0 168 32 A 8 8 0 0 0 176 24 L 176 8 A 8 8 0 0 0 168 0 z M 208.19336 13.021484 A 8 8 0 0 0 206.11719 13.244141 A 8 8 0 0 0 201.17188 16.853516 L 193.17188 29.962891 A 8 8 0 0 0 195.83203 40.958984 A 8 8 0 0 0 206.82812 38.296875 L 214.82812 25.1875 A 8 8 0 0 0 212.16797 14.191406 A 8 8 0 0 0 208.19336 13.021484 z M 115.57031 23.810547 C 111.74968 24.066252 107.93605 25.169552 104.41797 27.201172 C 100.44993 29.492631 97.315976 32.699354 95.125 36.40625 C 91.346733 33.903895 86.97076 32.426665 82.476562 32.101562 C 77.47269 31.739593 72.322385 32.807862 67.689453 35.482422 C 55.334969 42.614581 51.03971 58.645506 58.171875 71 A 8.0008 8.0008 0 0 0 58.173828 71.001953 L 58.886719 72.234375 C 55.566822 72.650207 52.280486 73.71603 49.220703 75.482422 C 36.866219 82.614581 32.569007 98.645506 39.701172 111 L 42.71875 116.22852 C 39.38037 116.63938 36.07653 117.70636 33 119.48242 C 20.645516 126.61458 16.350257 142.64551 23.482422 155 A 8.0008 8.0008 0 0 0 23.484375 155.00391 L 33.072266 171.5918 L 58.701172 215.99805 A 8.0008 8.0008 0 0 0 58.701172 216 C 80.745165 254.18203 129.80237 267.32718 167.98438 245.2832 C 188.71169 233.31651 202.06115 213.38925 206.4082 191.5625 C 229.85857 165.91415 234.10535 127.82495 216.63086 97.574219 L 216.62695 97.568359 L 195.54102 61.003906 A 8.0008 8.0008 0 0 0 195.53906 61 C 191.08146 53.278441 183.14643 48.704847 174.80664 48.101562 C 169.80277 47.739593 164.65246 48.807862 160.01953 51.482422 C 156.95835 53.249623 154.39146 55.563847 152.37109 58.232422 L 140.16992 37.126953 C 135.79855 29.227933 127.81159 24.502852 119.38281 23.833984 C 118.1185 23.733654 116.84386 23.725312 115.57031 23.810547 z M 117.23828 39.675781 C 120.81643 39.581717 124.27427 41.447631 126.16992 44.873047 A 8.0008 8.0008 0 0 0 126.24414 45.003906 L 150.03516 86.15625 C 150.18477 86.439208 150.34069 86.720656 150.50195 87 A 8 8 0 0 0 150.79102 87.462891 L 150.85938 87.582031 C 147.53722 87.995837 144.24712 89.0609 141.17969 90.833984 C 138.12249 92.601152 135.56268 94.911302 133.54883 97.572266 L 121.65039 77.005859 C 121.47196 76.687492 121.28766 76.374302 121.09766 76.066406 L 108.94336 55.027344 L 108.92773 54.998047 A 8.0008 8.0008 0 0 0 108.88672 54.929688 L 108.58789 54.404297 C 106.02023 49.610531 107.64525 43.813913 112.41992 41.056641 C 113.96096 40.166728 115.61185 39.718538 117.23828 39.675781 z M 80.449219 47.962891 C 83.987677 47.851022 87.420398 49.654793 89.351562 53 L 95.056641 62.972656 C 95.071992 62.998555 95.086109 63.024917 95.101562 63.050781 L 95.623047 63.953125 C 92.308261 64.369523 89.026405 65.435442 85.96875 67.201172 C 82.915816 68.964175 80.357481 71.269973 78.341797 73.927734 L 72.029297 63 L 72.027344 62.998047 C 69.220223 58.132744 70.824452 52.146423 75.689453 49.337891 C 77.210001 48.460088 78.840829 48.01374 80.449219 47.962891 z M 235.25977 48.011719 A 8 8 0 0 0 233.20508 48.386719 L 218.16406 53.236328 A 8 8 0 0 0 213.00586 63.304688 A 8 8 0 0 0 223.07617 68.464844 L 238.11523 63.613281 A 8 8 0 0 0 243.27344 53.544922 A 8 8 0 0 0 235.25977 48.011719 z M 172.7793 63.962891 C 176.31775 63.851022 179.75047 65.654793 181.68164 69 L 202.76953 105.56641 A 8.0008 8.0008 0 0 0 202.77344 105.57227 C 212.88309 123.06992 213.93962 143.75241 206.68555 161.63672 C 205.0919 152.84167 201.98627 144.17236 197.26953 136.00195 L 197.26758 136 L 177.4043 101.58398 L 177.40234 101.58008 A 8 8 0 0 0 177.0957 100.99609 L 164.0625 78.453125 C 161.67263 73.693743 163.33476 68.042378 168.01953 65.337891 C 169.54008 64.460088 171.17091 64.01374 172.7793 63.962891 z M 98.583984 79.683594 C 102.03608 79.520762 105.39938 81.187123 107.38867 84.320312 L 107.7832 85.001953 A 8 8 0 0 0 107.97461 85.316406 L 131.05859 125.21289 L 131.08398 125.25781 C 131.4387 125.94675 131.82465 126.62498 132.24805 127.29102 A 8 8 0 0 0 132.35742 127.45898 A 8 8 0 0 0 132.35938 127.46094 L 144.24609 148.00586 A 8 8 0 0 0 155.17578 150.92383 A 8 8 0 0 0 158.09375 139.99414 L 145.12891 117.58594 C 142.8917 112.90036 144.54476 107.36808 149.18555 104.68555 C 154.20358 101.78495 160.36417 103.57319 163.05078 108.70898 A 8.0008 8.0008 0 0 0 163.21094 108.99805 L 183.41211 143.99805 A 8.0008 8.0008 0 0 0 183.41211 144 C 190.96473 157.08177 193.39924 171.67488 191.33008 185.48633 A 8 8 0 0 0 191.00586 187.43945 C 187.76676 205.2781 176.97774 221.61484 159.98438 231.42578 C 129.29144 249.14603 90.279518 238.69429 72.558594 208.00195 L 72.558594 208 L 46.929688 163.5918 A 8.0008 8.0008 0 0 0 46.925781 163.58594 L 37.337891 147 L 37.337891 146.99805 L 37.335938 146.99609 C 34.530157 142.13114 36.135559 136.1461 41 133.33789 C 45.865754 130.52892 51.853142 132.13424 54.662109 137 A 8.0008 8.0008 0 0 0 54.662109 137.00195 L 74.882812 172.00195 A 8 8 0 0 0 85.8125 174.92773 A 8 8 0 0 0 88.736328 163.99805 L 72.931641 136.64062 A 8 8 0 0 0 72.558594 135.91016 L 53.558594 103 C 50.749626 98.134244 52.352996 92.146857 57.21875 89.337891 C 62.084504 86.528924 68.071892 88.134244 70.880859 93 L 70.882812 93.001953 A 8 8 0 0 0 70.927734 93.080078 L 76.599609 102.97656 A 8 8 0 0 0 76.802734 103.3125 L 102.62305 148.00195 A 8 8 0 0 0 113.55273 150.92773 A 8 8 0 0 0 116.47656 139.99805 L 90.476562 94.998047 A 8.0008 8.0008 0 0 0 90.404297 94.873047 C 87.467114 89.994499 89.0394 83.904362 93.970703 81.056641 C 95.447057 80.204078 97.024037 79.757175 98.583984 79.683594 z " />
</svg>
