<?xml version="1.0" encoding="UTF-8" standalone="no"?>
<svg
   viewBox="0 0 256 256"
   version="1.1"
   id="svg5"
   sodipodi:docname="high definition coral_purple.svg"
   xmlns:inkscape="http://www.inkscape.org/namespaces/inkscape"
   xmlns:sodipodi="http://sodipodi.sourceforge.net/DTD/sodipodi-0.dtd"
   xmlns:xlink="http://www.w3.org/1999/xlink"
   xmlns="http://www.w3.org/2000/svg"
   xmlns:svg="http://www.w3.org/2000/svg">
  <defs
     id="defs3">
    <linearGradient
       id="linearGradient1"
       inkscape:collect="always">
      <stop
         style="stop-color:#a03291;stop-opacity:1;"
         offset="0"
         id="stop1" />
      <stop
         style="stop-color:#ff7c66;stop-opacity:1;"
         offset="0.76340693"
         id="stop2" />
    </linearGradient>
    <linearGradient
       inkscape:collect="always"
       xlink:href="#linearGradient1"
       id="linearGradient2"
       x1="232.4884"
       y1="23.847498"
       x2="23.977745"
       y2="232.35815"
       gradientUnits="userSpaceOnUse" />
  </defs>
  <defs
     id="defs5" />
  <sodipodi:namedview
     id="namedview5"
     pagecolor="#ffffff"
     bordercolor="#000000"
     borderopacity="0.25"
     inkscape:showpageshadow="2"
     inkscape:pageopacity="0.0"
     inkscape:pagecheckerboard="0"
     inkscape:deskcolor="#d1d1d1" />
  <path
     id="path1"
     style="baseline-shift:baseline;display:inline;overflow:visible;vector-effect:none;fill:url(#linearGradient2);stroke-linecap:round;stroke-linejoin:round;enable-background:accumulate;stop-color:#000000;stop-opacity:1;opacity:1;fill-opacity:1"
     d="M 32 40 A 8 8 0 0 0 24 48 A 8 8 0 0 0 32 56 L 224 56 A 8 8 0 0 0 232 48 A 8 8 0 0 0 224 40 L 32 40 z M 48 72 A 8 8 0 0 0 40 80 L 40 128 L 40 176 A 8 8 0 0 0 48 184 A 8 8 0 0 0 56 176 L 56 136 L 112 136 L 112 176 A 8 8 0 0 0 120 184 A 8 8 0 0 0 128 176 L 128 128 L 128 80 A 8 8 0 0 0 120 72 A 8 8 0 0 0 112 80 L 112 120 L 56 120 L 56 80 A 8 8 0 0 0 48 72 z M 152 72 A 8.0008 8.0008 0 0 0 144 80 L 144 176 A 8.0008 8.0008 0 0 0 152 184 L 176 184 C 206.8332 184 232 158.83318 232 128 C 232 97.166819 206.8332 72 176 72 L 152 72 z M 160 88 L 176 88 C 198.18617 88 216 105.81385 216 128 C 216 150.18615 198.18617 168 176 168 L 160 168 L 160 88 z M 32 200 A 8 8 0 0 0 24 208 A 8 8 0 0 0 32 216 L 224 216 A 8 8 0 0 0 232 208 A 8 8 0 0 0 224 200 L 32 200 z " />
</svg>
