<?xml version="1.0" encoding="UTF-8" standalone="no"?>
<svg
   viewBox="0 0 256 256"
   version="1.1"
   id="svg3"
   sodipodi:docname="images square coral_purple.svg"
   xmlns:inkscape="http://www.inkscape.org/namespaces/inkscape"
   xmlns:sodipodi="http://sodipodi.sourceforge.net/DTD/sodipodi-0.dtd"
   xmlns:xlink="http://www.w3.org/1999/xlink"
   xmlns="http://www.w3.org/2000/svg"
   xmlns:svg="http://www.w3.org/2000/svg">
  <defs
     id="defs3">
    <linearGradient
       id="linearGradient1"
       inkscape:collect="always">
      <stop
         style="stop-color:#a03291;stop-opacity:1;"
         offset="0"
         id="stop1" />
      <stop
         style="stop-color:#ff7c66;stop-opacity:1;"
         offset="0.76340693"
         id="stop2" />
    </linearGradient>
    <linearGradient
       inkscape:collect="always"
       xlink:href="#linearGradient1"
       id="linearGradient2"
       x1="232.4884"
       y1="23.847498"
       x2="23.977745"
       y2="232.35815"
       gradientUnits="userSpaceOnUse" />
  </defs>
  <defs
     id="defs1" />
  <sodipodi:namedview
     id="namedview3"
     pagecolor="#ffffff"
     bordercolor="#000000"
     borderopacity="0.25"
     inkscape:showpageshadow="2"
     inkscape:pageopacity="0.0"
     inkscape:pagecheckerboard="0"
     inkscape:deskcolor="#d1d1d1" />
  <path
     id="rect2"
     style="baseline-shift:baseline;display:inline;overflow:visible;vector-effect:none;fill:url(#linearGradient2);stroke-linecap:round;stroke-linejoin:round;enable-background:accumulate;stop-color:#000000;stop-opacity:1;opacity:1;fill-opacity:1"
     d="M 80 32 C 71.274378 32 64 39.274378 64 48 L 64 64 L 48 64 C 39.258201 64 32 71.258201 32 80 L 32 208 C 32 216.7418 39.258201 224 48 224 L 176 224 C 184.7418 224 192 216.7418 192 208 L 192 192 L 208 192 C 216.72562 192 224 184.72562 224 176 L 224 136.80664 A 8 8 0 0 0 224 136.57227 L 224 48 C 224 39.274378 216.72562 32 208 32 L 80 32 z M 80 48 L 208 48 L 208 117.37109 L 191.32031 100.68555 C 188.229 97.590787 184.11434 96.044922 180 96.044922 C 175.88702 96.044922 171.77456 97.590899 168.68359 100.68359 L 93.376953 176 L 80 176 L 80 48 z M 120 64 C 106.83992 64 96 74.839923 96 88 C 96 101.16008 106.83992 112 120 112 C 133.16008 112 144 101.16008 144 88 C 144 74.839923 133.16008 64 120 64 z M 48 80 L 64 80 L 64 176 C 64 184.72562 71.274378 192 80 192 L 96.691406 192 L 176 192 L 176 208 L 48 208 L 48 80 z M 120 80 C 124.51304 80 128 83.486965 128 88 C 128 92.513035 124.51304 96 120 96 C 115.48696 96 112 92.513035 112 88 C 112 83.486965 115.48696 80 120 80 z M 180 111.99414 A 8.0008 8.0008 0 0 0 180.00195 111.99609 L 208 140.00391 L 208 176 L 116.00195 176 L 179.99805 111.99609 A 8.0008 8.0008 0 0 0 180 111.99414 z " />
</svg>
