<?xml version="1.0" encoding="UTF-8" standalone="no"?>
<svg
   viewBox="0 0 256 256"
   version="1.1"
   id="svg3"
   sodipodi:docname="intersect square coral_purple.svg"
   xmlns:inkscape="http://www.inkscape.org/namespaces/inkscape"
   xmlns:sodipodi="http://sodipodi.sourceforge.net/DTD/sodipodi-0.dtd"
   xmlns:xlink="http://www.w3.org/1999/xlink"
   xmlns="http://www.w3.org/2000/svg"
   xmlns:svg="http://www.w3.org/2000/svg">
  <defs
     id="defs3">
    <linearGradient
       id="linearGradient1"
       inkscape:collect="always">
      <stop
         style="stop-color:#a03291;stop-opacity:1;"
         offset="0"
         id="stop1" />
      <stop
         style="stop-color:#ff7c66;stop-opacity:1;"
         offset="0.76340693"
         id="stop2" />
    </linearGradient>
    <linearGradient
       inkscape:collect="always"
       xlink:href="#linearGradient1"
       id="linearGradient2"
       x1="232.4884"
       y1="23.847498"
       x2="23.977745"
       y2="232.35815"
       gradientUnits="userSpaceOnUse" />
  </defs>
  <defs
     id="defs1" />
  <sodipodi:namedview
     id="namedview3"
     pagecolor="#ffffff"
     bordercolor="#000000"
     borderopacity="0.25"
     inkscape:showpageshadow="2"
     inkscape:pageopacity="0.0"
     inkscape:pagecheckerboard="0"
     inkscape:deskcolor="#d1d1d1" />
  <path
     id="rect2"
     style="baseline-shift:baseline;display:inline;overflow:visible;vector-effect:none;fill:url(#linearGradient2);stroke-linecap:round;stroke-linejoin:round;enable-background:accumulate;stop-color:#000000;stop-opacity:1;opacity:1;fill-opacity:1"
     d="M 40 32 A 8.0008 8.0008 0 0 0 32 40 L 32 160 A 8.0008 8.0008 0 0 0 40 168 L 88 168 L 88 216 A 8.0008 8.0008 0 0 0 96 224 L 216 224 A 8.0008 8.0008 0 0 0 224 216 L 224 96 A 8.0008 8.0008 0 0 0 216 88 L 168 88 L 168 40 A 8.0008 8.0008 0 0 0 160 32 L 40 32 z M 48 48 L 152 48 L 152 88 L 96 88 A 8.0008 8.0008 0 0 0 88.273438 93.929688 A 8.0008 8.0008 0 0 0 88 96 L 88 152 L 48 152 L 48 48 z M 115.3125 104 L 152 104 L 152 140.6875 L 115.3125 104 z M 168 104 L 208 104 L 208 208 L 104 208 L 104 168 L 160 168 A 8.0008 8.0008 0 0 0 162.07031 167.72656 A 8 8 0 0 0 165.65625 165.65625 A 8 8 0 0 0 166.3457 164.86914 A 8.0008 8.0008 0 0 0 167.72656 162.07031 A 8.0008 8.0008 0 0 0 168 160 L 168 104 z M 104 115.3125 L 140.6875 152 L 104 152 L 104 115.3125 z " />
</svg>
