<?xml version="1.0" encoding="UTF-8" standalone="no"?>
<svg
   viewBox="0 0 256 256"
   version="1.1"
   id="svg7"
   sodipodi:docname="island coral_purple.svg"
   xmlns:inkscape="http://www.inkscape.org/namespaces/inkscape"
   xmlns:sodipodi="http://sodipodi.sourceforge.net/DTD/sodipodi-0.dtd"
   xmlns:xlink="http://www.w3.org/1999/xlink"
   xmlns="http://www.w3.org/2000/svg"
   xmlns:svg="http://www.w3.org/2000/svg">
  <defs
     id="defs3">
    <linearGradient
       id="linearGradient1"
       inkscape:collect="always">
      <stop
         style="stop-color:#a03291;stop-opacity:1;"
         offset="0"
         id="stop1" />
      <stop
         style="stop-color:#ff7c66;stop-opacity:1;"
         offset="0.76340693"
         id="stop2" />
    </linearGradient>
    <linearGradient
       inkscape:collect="always"
       xlink:href="#linearGradient1"
       id="linearGradient2"
       x1="232.4884"
       y1="23.847498"
       x2="23.977745"
       y2="232.35815"
       gradientUnits="userSpaceOnUse" />
  </defs>
  <defs
     id="defs7" />
  <sodipodi:namedview
     id="namedview7"
     pagecolor="#ffffff"
     bordercolor="#000000"
     borderopacity="0.25"
     inkscape:showpageshadow="2"
     inkscape:pageopacity="0.0"
     inkscape:pagecheckerboard="0"
     inkscape:deskcolor="#d1d1d1" />
  <path
     id="path1"
     style="baseline-shift:baseline;display:inline;overflow:visible;vector-effect:none;fill:url(#linearGradient2);stroke-linecap:round;stroke-linejoin:round;enable-background:accumulate;stop-color:#000000;stop-opacity:1;opacity:1;fill-opacity:1"
     d="M 131.16406 24.044922 C 121.85067 24.407392 111.4509 27.430337 100.10156 33.763672 A 8 8 0 0 0 97.013672 44.648438 A 8 8 0 0 0 107.89844 47.736328 C 120.76599 40.555774 130.32317 39.21016 137.64062 40.353516 C 144.9581 41.496871 150.55107 45.21229 155.16797 50.130859 C 157.59239 52.713698 159.64575 55.584356 161.35547 58.414062 C 155.06426 56.889517 147.60769 55.761609 139.75391 56.003906 A 8.0008 8.0008 0 0 0 139.73828 56.003906 C 129.78764 56.328755 118.88716 59.026772 109.44531 66.332031 C 100.00347 73.63729 92.417854 85.33682 88.238281 102.06055 A 8 8 0 0 0 94.060547 111.76172 A 8 8 0 0 0 103.76172 105.93945 C 107.28215 91.85318 112.96817 83.836069 119.23633 78.986328 C 125.50339 74.13743 132.74985 72.241776 140.25781 71.996094 C 146.11357 71.816864 151.93533 72.701275 156.98438 73.904297 C 126.62422 94.764411 115.89949 122.93502 114.02539 146.36133 C 112.7925 161.77244 115.09457 175.4126 117.30078 184.29102 C 56.837379 187.58554 19.001953 217.75391 19.001953 217.75391 A 8 8 0 0 0 17.753906 228.99805 A 8 8 0 0 0 28.998047 230.24609 C 28.998047 230.24609 66.666667 200 128 200 C 189.33333 200 227.00195 230.24609 227.00195 230.24609 A 8 8 0 0 0 238.24609 228.99805 A 8 8 0 0 0 236.99805 217.75391 C 236.99805 217.75391 197.11229 185.95105 133.80078 184.08594 C 131.77041 177.11131 128.70942 163.45356 129.97461 147.63867 C 131.7215 125.80255 140.89452 100.63734 174.1875 82.007812 C 184.16143 94.529206 184.9555 105.76052 183.57617 114.79297 C 182.03417 124.89064 177.4668 131.38281 177.4668 131.38281 A 8 8 0 0 0 179.38281 142.5332 A 8 8 0 0 0 190.5332 140.61719 C 190.5332 140.61719 197.26958 131.10936 199.39258 117.20703 C 200.81923 107.86467 200.02296 96.150729 194.22461 84.107422 C 196.12612 84.893435 198.07904 85.829763 200.03125 86.945312 C 212.03652 93.805465 224 106.33333 224 136 A 8 8 0 0 0 232 144 A 8 8 0 0 0 240 136 C 240 101.66667 223.96348 82.194536 207.96875 73.054688 C 200.63721 68.865234 193.30987 66.613935 187.52344 65.404297 C 189.33851 61.923176 191.77472 58.015557 194.79297 54.847656 C 198.41512 51.045909 202.40631 48.55323 207.16602 48.080078 C 211.92572 47.606926 218.27582 48.986747 227.17578 55.712891 A 8 8 0 0 0 238.38281 54.154297 A 8 8 0 0 0 236.82422 42.947266 C 225.72418 34.55841 215.07428 31.214793 205.58398 32.158203 C 196.09369 33.101613 188.58488 38.166044 183.20703 43.810547 C 180.57092 46.577367 178.33398 49.541948 176.45898 52.441406 C 174.00938 48.094759 170.8467 43.458627 166.83203 39.181641 C 160.44893 32.38146 151.54189 26.331254 140.10938 24.544922 C 137.25125 24.098339 134.26853 23.924098 131.16406 24.044922 z M 52 112 C 36.630784 112 24 124.63078 24 140 C 24 155.36922 36.630784 168 52 168 C 67.369216 168 80 155.36922 80 140 C 80 124.63078 67.369216 112 52 112 z M 52 128 C 58.722174 128 64 133.27783 64 140 C 64 146.72217 58.722174 152 52 152 C 45.277826 152 40 146.72217 40 140 C 40 133.27783 45.277826 128 52 128 z " />
</svg>
