<?xml version="1.0" encoding="UTF-8" standalone="no"?>
<svg
   viewBox="0 0 256 256"
   version="1.1"
   id="svg5"
   sodipodi:docname="jeep coral_purple.svg"
   xmlns:inkscape="http://www.inkscape.org/namespaces/inkscape"
   xmlns:sodipodi="http://sodipodi.sourceforge.net/DTD/sodipodi-0.dtd"
   xmlns:xlink="http://www.w3.org/1999/xlink"
   xmlns="http://www.w3.org/2000/svg"
   xmlns:svg="http://www.w3.org/2000/svg">
  <defs
     id="defs3">
    <linearGradient
       id="linearGradient1"
       inkscape:collect="always">
      <stop
         style="stop-color:#a03291;stop-opacity:1;"
         offset="0"
         id="stop1" />
      <stop
         style="stop-color:#ff7c66;stop-opacity:1;"
         offset="0.76340693"
         id="stop2" />
    </linearGradient>
    <linearGradient
       inkscape:collect="always"
       xlink:href="#linearGradient1"
       id="linearGradient2"
       x1="232.4884"
       y1="23.847498"
       x2="23.977745"
       y2="232.35815"
       gradientUnits="userSpaceOnUse" />
  </defs>
  <defs
     id="defs5" />
  <sodipodi:namedview
     id="namedview5"
     pagecolor="#ffffff"
     bordercolor="#000000"
     borderopacity="0.25"
     inkscape:showpageshadow="2"
     inkscape:pageopacity="0.0"
     inkscape:pagecheckerboard="0"
     inkscape:deskcolor="#d1d1d1" />
  <path
     id="path1"
     style="baseline-shift:baseline;display:inline;overflow:visible;vector-effect:none;fill:url(#linearGradient2);stroke-linecap:round;stroke-linejoin:round;enable-background:accumulate;stop-color:#000000;stop-opacity:1;opacity:1;fill-opacity:1"
     d="M 50.478516 32 C 42.977225 31.9921 36.393627 37.306597 34.818359 44.640625 A 8.0008 8.0008 0 0 0 34.818359 44.644531 L 25.533203 88 L 16 88 A 8 8 0 0 0 8 96 A 8 8 0 0 0 16 104 L 24 104 L 24 168 L 24 200 C 24 208.7418 31.258201 216 40 216 L 64 216 C 72.741799 216 80 208.7418 80 200 L 80 176 L 176 176 L 176 200 C 176 208.7418 183.2582 216 192 216 L 216 216 C 224.7418 216 232 208.7418 232 200 L 232 168 L 232 104 L 240 104 A 8 8 0 0 0 248 96 A 8 8 0 0 0 240 88 L 230.4668 88 L 221.18164 44.644531 A 8.0008 8.0008 0 0 0 221.18164 44.640625 C 219.60637 37.306591 213.02278 31.992135 205.52148 32 L 50.478516 32 z M 50.460938 48 L 50.462891 48 A 8.0008 8.0008 0 0 0 50.470703 48 L 205.5293 48 A 8.0008 8.0008 0 0 0 205.53711 48 L 205.53906 48 L 214.10547 88 L 41.894531 88 L 50.460938 48 z M 40 104 L 216 104 L 216 160 L 152 160 L 152 128 A 8 8 0 0 0 144 120 A 8 8 0 0 0 136 128 L 136 160 L 120 160 L 120 128 A 8 8 0 0 0 112 120 A 8 8 0 0 0 104 128 L 104 160 L 40 160 L 40 104 z M 68 120 A 12 12 0 0 0 56 132 A 12 12 0 0 0 68 144 A 12 12 0 0 0 80 132 A 12 12 0 0 0 68 120 z M 188 120 A 12 12 0 0 0 176 132 A 12 12 0 0 0 188 144 A 12 12 0 0 0 200 132 A 12 12 0 0 0 188 120 z M 40 176 L 64 176 L 64 200 L 40 200 L 40 176 z M 192 176 L 216 176 L 216 200 L 192 200 L 192 176 z " />
</svg>
