<?xml version="1.0" encoding="UTF-8" standalone="no"?>
<svg
   viewBox="0 0 256 256"
   version="1.1"
   id="svg2"
   sodipodi:docname="keyhole coral_purple.svg"
   xmlns:inkscape="http://www.inkscape.org/namespaces/inkscape"
   xmlns:sodipodi="http://sodipodi.sourceforge.net/DTD/sodipodi-0.dtd"
   xmlns:xlink="http://www.w3.org/1999/xlink"
   xmlns="http://www.w3.org/2000/svg"
   xmlns:svg="http://www.w3.org/2000/svg">
  <defs
     id="defs3">
    <linearGradient
       id="linearGradient1"
       inkscape:collect="always">
      <stop
         style="stop-color:#a03291;stop-opacity:1;"
         offset="0"
         id="stop1" />
      <stop
         style="stop-color:#ff7c66;stop-opacity:1;"
         offset="0.76340693"
         id="stop2" />
    </linearGradient>
    <linearGradient
       inkscape:collect="always"
       xlink:href="#linearGradient1"
       id="linearGradient2"
       x1="232.4884"
       y1="23.847498"
       x2="23.977745"
       y2="232.35815"
       gradientUnits="userSpaceOnUse" />
  </defs>
  <defs
     id="defs2" />
  <sodipodi:namedview
     id="namedview2"
     pagecolor="#ffffff"
     bordercolor="#000000"
     borderopacity="0.25"
     inkscape:showpageshadow="2"
     inkscape:pageopacity="0.0"
     inkscape:pagecheckerboard="0"
     inkscape:deskcolor="#d1d1d1" />
  <path
     id="circle1"
     style="baseline-shift:baseline;display:inline;overflow:visible;vector-effect:none;fill:url(#linearGradient2);stroke-linecap:round;stroke-linejoin:round;enable-background:accumulate;stop-color:#000000;stop-opacity:1;opacity:1;fill-opacity:1"
     d="M 128 24 C 70.657143 24 24 70.657143 24 128 C 24 185.34286 70.657143 232 128 232 C 185.34286 232 232 185.34286 232 128 C 232 70.657143 185.34286 24 128 24 z M 128 40 C 176.69582 40 216 79.304185 216 128 C 216 176.69582 176.69582 216 128 216 C 79.304185 216 40 176.69582 40 128 C 40 124.95651 40.153364 121.94914 40.453125 118.98633 C 44.949541 74.544124 82.347673 40 128 40 z M 128 72.011719 C 109.93582 72.011719 94.039345 84.205158 89.363281 101.6543 C 85.327049 116.71584 90.522869 132.53887 102.07227 142.4043 L 88.679688 172.77148 A 8.0008 8.0008 0 0 0 96 184 L 160 184 A 8.0008 8.0008 0 0 0 167.32031 172.77148 L 153.92773 142.4043 C 165.47712 132.53887 170.67295 116.71584 166.63672 101.6543 C 161.96066 84.205158 146.06418 72.011719 128 72.011719 z M 128 88.011719 C 138.90205 88.011719 148.36032 95.268872 151.18164 105.79688 C 154.00299 116.32496 149.44062 127.34047 140 132.79102 A 8.0008 8.0008 0 0 0 136.67969 142.94727 L 147.72852 168 L 108.27148 168 L 119.32031 142.94727 A 8.0008 8.0008 0 0 0 116 132.79102 C 106.55938 127.34047 101.99701 116.32496 104.81836 105.79688 C 107.63968 95.268872 117.09795 88.011719 128 88.011719 z " />
</svg>
