<?xml version="1.0" encoding="UTF-8" standalone="no"?>
<svg
   viewBox="0 0 256 256"
   version="1.1"
   id="svg1"
   sodipodi:docname="lastfm logo coral_purple.svg"
   xmlns:inkscape="http://www.inkscape.org/namespaces/inkscape"
   xmlns:sodipodi="http://sodipodi.sourceforge.net/DTD/sodipodi-0.dtd"
   xmlns:xlink="http://www.w3.org/1999/xlink"
   xmlns="http://www.w3.org/2000/svg"
   xmlns:svg="http://www.w3.org/2000/svg">
  <defs
     id="defs3">
    <linearGradient
       id="linearGradient1"
       inkscape:collect="always">
      <stop
         style="stop-color:#a03291;stop-opacity:1;"
         offset="0"
         id="stop1" />
      <stop
         style="stop-color:#ff7c66;stop-opacity:1;"
         offset="0.76340693"
         id="stop2" />
    </linearGradient>
    <linearGradient
       inkscape:collect="always"
       xlink:href="#linearGradient1"
       id="linearGradient2"
       x1="232.4884"
       y1="23.847498"
       x2="23.977745"
       y2="232.35815"
       gradientUnits="userSpaceOnUse" />
  </defs>
  <defs
     id="defs1" />
  <sodipodi:namedview
     id="namedview1"
     pagecolor="#ffffff"
     bordercolor="#000000"
     borderopacity="0.25"
     inkscape:showpageshadow="2"
     inkscape:pageopacity="0.0"
     inkscape:pagecheckerboard="0"
     inkscape:deskcolor="#d1d1d1" />
  <path
     id="path1"
     style="baseline-shift:baseline;display:inline;overflow:visible;vector-effect:none;fill:url(#linearGradient2);stroke-linecap:round;stroke-linejoin:round;enable-background:accumulate;stop-color:#000000;stop-opacity:1;opacity:1;fill-opacity:1"
     d="M 64 64 C 33.166811 64 8 89.166811 8 120 L 8 144 C 8 174.83319 33.166811 200 64 200 L 71.998047 200 C 91.066764 200.004 108.37447 188.67599 116.00195 171.19922 A 8 8 0 0 0 111.86914 160.66797 A 8 8 0 0 0 101.33789 164.80078 C 96.238743 176.4844 84.749829 184.00299 72.001953 184 A 8.0008 8.0008 0 0 0 72 184 L 64 184 C 41.813853 184 24 166.18615 24 144 L 24 120 C 24 97.813853 41.813853 80 64 80 L 73.429688 80 C 88.990395 79.9987 103.09881 88.983369 109.67969 103.08398 L 139.82031 167.68164 A 8.0008 8.0008 0 0 0 139.82031 167.68359 C 149.01422 187.38305 168.83103 200.00177 190.57031 200 L 208 200 C 229.99663 200 248 181.99663 248 160 C 248 138.00337 229.99663 120 208 120 L 188 120 C 176.85955 120 168 111.14045 168 100 C 168 88.859548 176.85955 80 188 80 L 208 80 C 216.93131 80 224 87.068687 224 96 A 8 8 0 0 0 232 104 A 8 8 0 0 0 240 96 C 240 78.421595 225.57835 64 208 64 L 188 64 C 168.21251 64 152 80.212506 152 100 C 152 119.78749 168.21251 136 188 136 L 208 136 C 221.34959 136 232 146.65041 232 160 C 232 173.34959 221.34959 184 208 184 L 190.57031 184 C 175.01018 184.001 160.90151 175.01769 154.32031 160.91797 L 154.32031 160.91602 L 124.17969 96.318359 A 8.0008 8.0008 0 0 0 124.17969 96.316406 C 114.98578 76.616995 95.168975 63.99823 73.429688 64 L 64 64 z " />
</svg>
