<?xml version="1.0" encoding="UTF-8" standalone="no"?>
<svg
   viewBox="0 0 256 256"
   version="1.1"
   id="svg2"
   sodipodi:docname="lightning slash coral_purple.svg"
   xmlns:inkscape="http://www.inkscape.org/namespaces/inkscape"
   xmlns:sodipodi="http://sodipodi.sourceforge.net/DTD/sodipodi-0.dtd"
   xmlns:xlink="http://www.w3.org/1999/xlink"
   xmlns="http://www.w3.org/2000/svg"
   xmlns:svg="http://www.w3.org/2000/svg">
  <defs
     id="defs3">
    <linearGradient
       id="linearGradient1"
       inkscape:collect="always">
      <stop
         style="stop-color:#a03291;stop-opacity:1;"
         offset="0"
         id="stop1" />
      <stop
         style="stop-color:#ff7c66;stop-opacity:1;"
         offset="0.76340693"
         id="stop2" />
    </linearGradient>
    <linearGradient
       inkscape:collect="always"
       xlink:href="#linearGradient1"
       id="linearGradient2"
       x1="232.4884"
       y1="23.847498"
       x2="23.977745"
       y2="232.35815"
       gradientUnits="userSpaceOnUse" />
  </defs>
  <defs
     id="defs2" />
  <sodipodi:namedview
     id="namedview2"
     pagecolor="#ffffff"
     bordercolor="#000000"
     borderopacity="0.25"
     inkscape:showpageshadow="2"
     inkscape:pageopacity="0.0"
     inkscape:pagecheckerboard="0"
     inkscape:deskcolor="#d1d1d1" />
  <path
     id="line1"
     style="baseline-shift:baseline;display:inline;overflow:visible;vector-effect:none;fill:url(#linearGradient2);stroke-linecap:round;stroke-linejoin:round;enable-background:accumulate;stop-color:#000000;stop-opacity:1;opacity:1;fill-opacity:1"
     d="M 160.3418 8.0097656 A 8.0008 8.0008 0 0 0 154.15234 10.541016 L 108.27148 59.701172 A 8 8 0 0 0 108.66211 71.007812 A 8 8 0 0 0 119.96875 70.619141 L 146.63281 42.048828 L 136.15625 94.431641 A 8.0008 8.0008 0 0 0 141.19141 103.49023 L 193.99023 123.28906 L 179.85156 138.44141 A 8 8 0 0 0 180.24219 149.75 A 8 8 0 0 0 191.54883 149.35742 L 213.84961 125.45703 A 8.0008 8.0008 0 0 0 210.80859 112.50977 L 153.17969 90.898438 L 167.84375 17.568359 A 8.0008 8.0008 0 0 0 160.3418 8.0097656 z M 48.380859 32.009766 A 8 8 0 0 0 42.619141 34.080078 A 8 8 0 0 0 42.080078 45.380859 L 81.333984 88.558594 L 42.152344 130.54102 A 8.0008 8.0008 0 0 0 45.191406 143.49023 L 102.82031 165.10156 L 88.15625 238.43164 A 8.0008 8.0008 0 0 0 101.84766 245.45898 L 163.71289 179.17773 L 202.08008 221.38086 A 8 8 0 0 0 213.38086 221.91992 A 8 8 0 0 0 213.91992 210.61914 L 98.199219 83.326172 L 98.191406 83.316406 A 8 8 0 0 0 98.060547 83.173828 L 53.919922 34.619141 A 8 8 0 0 0 48.380859 32.009766 z M 92.132812 100.4375 L 152.91406 167.29883 L 109.36719 213.95508 L 119.84375 161.56836 A 8.0008 8.0008 0 0 0 114.80859 152.50977 L 62.011719 132.71094 L 92.132812 100.4375 z " />
</svg>
