<?xml version="1.0" encoding="UTF-8" standalone="no"?>
<svg
   viewBox="0 0 256 256"
   version="1.1"
   id="svg1"
   sodipodi:docname="lightning a coral_purple.svg"
   xmlns:inkscape="http://www.inkscape.org/namespaces/inkscape"
   xmlns:sodipodi="http://sodipodi.sourceforge.net/DTD/sodipodi-0.dtd"
   xmlns:xlink="http://www.w3.org/1999/xlink"
   xmlns="http://www.w3.org/2000/svg"
   xmlns:svg="http://www.w3.org/2000/svg">
  <defs
     id="defs3">
    <linearGradient
       id="linearGradient1"
       inkscape:collect="always">
      <stop
         style="stop-color:#a03291;stop-opacity:1;"
         offset="0"
         id="stop1" />
      <stop
         style="stop-color:#ff7c66;stop-opacity:1;"
         offset="0.76340693"
         id="stop2" />
    </linearGradient>
    <linearGradient
       inkscape:collect="always"
       xlink:href="#linearGradient1"
       id="linearGradient2"
       x1="232.4884"
       y1="23.847498"
       x2="23.977745"
       y2="232.35815"
       gradientUnits="userSpaceOnUse" />
  </defs>
  <defs
     id="defs1" />
  <sodipodi:namedview
     id="namedview1"
     pagecolor="#ffffff"
     bordercolor="#000000"
     borderopacity="0.25"
     inkscape:showpageshadow="2"
     inkscape:pageopacity="0.0"
     inkscape:pagecheckerboard="0"
     inkscape:deskcolor="#d1d1d1" />
  <path
     id="polygon1"
     style="baseline-shift:baseline;display:inline;overflow:visible;vector-effect:none;fill:url(#linearGradient2);stroke-linecap:round;stroke-linejoin:round;enable-background:accumulate;stop-color:#000000;stop-opacity:1;opacity:1;fill-opacity:1"
     d="M 127.61523 16.013672 A 8.0008 8.0008 0 0 0 121.32812 18.566406 L 26.128906 121.42578 A 8.0008 8.0008 0 0 0 28.722656 134.1582 L 78.6875 156.58789 L 65.015625 214.15234 A 8.0008 8.0008 0 0 0 78.671875 221.43359 L 173.87109 118.57422 A 8.0008 8.0008 0 0 0 171.27734 105.8418 L 121.3125 83.412109 L 134.98438 25.847656 A 8.0008 8.0008 0 0 0 127.61523 16.013672 z M 112.37695 51.792969 L 104.2168 86.152344 A 8.0008 8.0008 0 0 0 108.72266 95.298828 L 154.56445 115.87695 L 87.623047 188.20703 L 95.783203 153.84766 A 8.0008 8.0008 0 0 0 91.277344 144.70117 L 45.435547 124.12305 L 112.37695 51.792969 z M 196.26953 136.00586 A 8.0008 8.0008 0 0 0 193.11523 136.53906 A 8.0008 8.0008 0 0 0 188.84375 140.42188 L 152.84375 212.42188 A 8 8 0 0 0 156.42188 223.15625 A 8 8 0 0 0 167.15625 219.57812 L 176.94531 200 L 215.05469 200 L 224.84375 219.57812 A 8 8 0 0 0 235.57812 223.15625 A 8 8 0 0 0 239.15625 212.42188 L 203.15625 140.42188 A 8.0008 8.0008 0 0 0 196.26953 136.00586 z M 196 161.89062 L 207.05469 184 L 184.94531 184 L 196 161.89062 z " />
</svg>
