<?xml version="1.0" encoding="UTF-8" standalone="no"?>
<svg
   viewBox="0 0 256 256"
   version="1.1"
   id="svg2"
   sodipodi:docname="link simple horizontal break coral_purple.svg"
   xmlns:inkscape="http://www.inkscape.org/namespaces/inkscape"
   xmlns:sodipodi="http://sodipodi.sourceforge.net/DTD/sodipodi-0.dtd"
   xmlns:xlink="http://www.w3.org/1999/xlink"
   xmlns="http://www.w3.org/2000/svg"
   xmlns:svg="http://www.w3.org/2000/svg">
  <defs
     id="defs3">
    <linearGradient
       id="linearGradient1"
       inkscape:collect="always">
      <stop
         style="stop-color:#a03291;stop-opacity:1;"
         offset="0"
         id="stop1" />
      <stop
         style="stop-color:#ff7c66;stop-opacity:1;"
         offset="0.76340693"
         id="stop2" />
    </linearGradient>
    <linearGradient
       inkscape:collect="always"
       xlink:href="#linearGradient1"
       id="linearGradient2"
       x1="232.4884"
       y1="23.847498"
       x2="23.977745"
       y2="232.35815"
       gradientUnits="userSpaceOnUse" />
  </defs>
  <defs
     id="defs2" />
  <sodipodi:namedview
     id="namedview2"
     pagecolor="#ffffff"
     bordercolor="#000000"
     borderopacity="0.25"
     inkscape:showpageshadow="2"
     inkscape:pageopacity="0.0"
     inkscape:pagecheckerboard="0"
     inkscape:deskcolor="#d1d1d1" />
  <path
     id="path1"
     style="baseline-shift:baseline;display:inline;overflow:visible;vector-effect:none;fill:url(#linearGradient2);stroke-linecap:round;stroke-linejoin:round;enable-background:accumulate;stop-color:#000000;stop-opacity:1;opacity:1;fill-opacity:1"
     d="M 64 72 C 33.166796 72 8 97.166819 8 128 C 8 158.83318 33.166796 184 64 184 L 104 184 A 8 8 0 0 0 112 176 A 8 8 0 0 0 104 168 L 64 168 C 41.813832 168 24 150.18615 24 128 C 24 105.81385 41.813832 88 64 88 L 104 88 A 8 8 0 0 0 112 80 A 8 8 0 0 0 104 72 L 64 72 z M 152 72 A 8 8 0 0 0 144 80 A 8 8 0 0 0 152 88 L 192 88 C 214.18615 88 232 105.81385 232 128 C 232 150.18615 214.18615 168 192 168 L 152 168 A 8 8 0 0 0 144 176 A 8 8 0 0 0 152 184 L 192 184 C 222.83319 184 248 158.83319 248 128 C 248 97.166811 222.83319 72 192 72 L 152 72 z " />
</svg>
