<?xml version="1.0" encoding="UTF-8" standalone="no"?>
<svg
   viewBox="0 0 256 256"
   version="1.1"
   id="svg2"
   sodipodi:docname="linux logo coral_purple.svg"
   xmlns:inkscape="http://www.inkscape.org/namespaces/inkscape"
   xmlns:sodipodi="http://sodipodi.sourceforge.net/DTD/sodipodi-0.dtd"
   xmlns:xlink="http://www.w3.org/1999/xlink"
   xmlns="http://www.w3.org/2000/svg"
   xmlns:svg="http://www.w3.org/2000/svg">
  <defs
     id="defs3">
    <linearGradient
       id="linearGradient1"
       inkscape:collect="always">
      <stop
         style="stop-color:#a03291;stop-opacity:1;"
         offset="0"
         id="stop1" />
      <stop
         style="stop-color:#ff7c66;stop-opacity:1;"
         offset="0.76340693"
         id="stop2" />
    </linearGradient>
    <linearGradient
       inkscape:collect="always"
       xlink:href="#linearGradient1"
       id="linearGradient2"
       x1="232.4884"
       y1="23.847498"
       x2="23.977745"
       y2="232.35815"
       gradientUnits="userSpaceOnUse" />
  </defs>
  <defs
     id="defs2" />
  <sodipodi:namedview
     id="namedview2"
     pagecolor="#ffffff"
     bordercolor="#000000"
     borderopacity="0.25"
     inkscape:showpageshadow="2"
     inkscape:pageopacity="0.0"
     inkscape:pagecheckerboard="0"
     inkscape:deskcolor="#d1d1d1" />
  <path
     id="path1"
     style="baseline-shift:baseline;display:inline;overflow:visible;vector-effect:none;fill:url(#linearGradient2);stroke-linecap:round;stroke-linejoin:round;enable-background:accumulate;stop-color:#000000;stop-opacity:1;opacity:1;fill-opacity:1"
     d="M 128 16 C 88.330264 16 56 48.330234 56 88 C 56 126.93333 48.230757 155.88307 40.572266 175.0293 C 32.913774 194.17553 25.753906 203.00195 25.753906 203.00195 A 8 8 0 0 0 27.001953 214.24609 A 8 8 0 0 0 38.246094 212.99805 C 38.246094 212.99805 47.086226 201.82447 55.427734 180.9707 C 63.769243 160.11693 72 129.06667 72 88 C 72 56.97727 96.97729 32 128 32 C 159.02271 32 184 56.97727 184 88 C 184 129.06667 192.23076 160.11693 200.57227 180.9707 C 208.91377 201.82447 217.75391 212.99805 217.75391 212.99805 A 8 8 0 0 0 228.99805 214.24609 A 8 8 0 0 0 230.24609 203.00195 C 230.24609 203.00195 223.08623 194.17553 215.42773 175.0293 C 207.76924 155.88307 200 126.93333 200 88 C 200 48.330234 167.66974 16 128 16 z M 100 88 A 12 12 0 0 0 88 100 A 12 12 0 0 0 100 112 A 12 12 0 0 0 112 100 A 12 12 0 0 0 100 88 z M 156 88 A 12 12 0 0 0 144 100 A 12 12 0 0 0 156 112 A 12 12 0 0 0 168 100 A 12 12 0 0 0 156 88 z M 95.521484 128.01367 A 8 8 0 0 0 93.470703 128.41016 A 8 8 0 0 0 88.84375 132.42188 A 8 8 0 0 0 92.421875 143.15625 L 124.42188 159.15625 A 8.0008 8.0008 0 0 0 131.57812 159.15625 L 163.57812 143.15625 A 8 8 0 0 0 167.15625 132.42188 A 8 8 0 0 0 156.42188 128.84375 L 128 143.05664 L 99.578125 128.84375 A 8 8 0 0 0 95.521484 128.01367 z M 128 176 C 107.89849 176 90.327502 187.39528 81.011719 204.10547 A 8 8 0 0 0 84.105469 214.98828 A 8 8 0 0 0 94.988281 211.89453 C 101.6725 199.90472 113.92151 192 128 192 C 142.07849 192 154.3275 199.90472 161.01172 211.89453 A 8 8 0 0 0 171.89453 214.98828 A 8 8 0 0 0 174.98828 204.10547 C 165.6725 187.39528 148.10151 176 128 176 z " />
</svg>
