<?xml version="1.0" encoding="UTF-8" standalone="no"?>
<svg
   viewBox="0 0 256 256"
   version="1.1"
   id="svg3"
   sodipodi:docname="list star coral_purple.svg"
   xmlns:inkscape="http://www.inkscape.org/namespaces/inkscape"
   xmlns:sodipodi="http://sodipodi.sourceforge.net/DTD/sodipodi-0.dtd"
   xmlns:xlink="http://www.w3.org/1999/xlink"
   xmlns="http://www.w3.org/2000/svg"
   xmlns:svg="http://www.w3.org/2000/svg">
  <defs
     id="defs3">
    <linearGradient
       id="linearGradient1"
       inkscape:collect="always">
      <stop
         style="stop-color:#a03291;stop-opacity:1;"
         offset="0"
         id="stop1" />
      <stop
         style="stop-color:#ff7c66;stop-opacity:1;"
         offset="0.76340693"
         id="stop2" />
    </linearGradient>
    <linearGradient
       inkscape:collect="always"
       xlink:href="#linearGradient1"
       id="linearGradient2"
       x1="232.4884"
       y1="23.847498"
       x2="23.977745"
       y2="232.35815"
       gradientUnits="userSpaceOnUse" />
  </defs>
  <defs
     id="defs1" />
  <sodipodi:namedview
     id="namedview3"
     pagecolor="#ffffff"
     bordercolor="#000000"
     borderopacity="0.25"
     inkscape:showpageshadow="2"
     inkscape:pageopacity="0.0"
     inkscape:pagecheckerboard="0"
     inkscape:deskcolor="#d1d1d1" />
  <path
     id="line1"
     style="baseline-shift:baseline;display:inline;overflow:visible;vector-effect:none;fill:url(#linearGradient2);stroke-linecap:round;stroke-linejoin:round;enable-background:accumulate;stop-color:#000000;stop-opacity:1;opacity:1;fill-opacity:1"
     d="M 40 56 A 8 8 0 0 0 32 64 A 8 8 0 0 0 40 72 L 216 72 A 8 8 0 0 0 224 64 A 8 8 0 0 0 216 56 L 40 56 z M 184.28125 96.005859 A 8.0008 8.0008 0 0 0 180.97461 96.595703 A 8.0008 8.0008 0 0 0 176.6543 100.83008 L 165.21875 127.33398 L 135.38477 129.63281 A 8.0008 8.0008 0 0 0 130.90625 143.7793 L 153.42383 162.37305 L 146.56445 190.07617 A 8.0008 8.0008 0 0 0 158.38672 198.89453 L 184 183.82227 L 209.61328 198.89453 A 8.0008 8.0008 0 0 0 221.43555 190.07617 L 214.57617 162.37305 L 237.09375 143.7793 A 8.0008 8.0008 0 0 0 232.61523 129.63281 L 202.78125 127.33398 L 191.3457 100.83008 A 8.0008 8.0008 0 0 0 184.28125 96.005859 z M 40 120 A 8 8 0 0 0 32 128 A 8 8 0 0 0 40 136 L 96 136 A 8 8 0 0 0 104 128 A 8 8 0 0 0 96 120 L 40 120 z M 184 124.19531 L 190.00391 138.10938 A 8.0008 8.0008 0 0 0 196.73633 142.91602 L 211.62109 144.0625 L 200.50586 153.24219 A 8.0008 8.0008 0 0 0 197.83398 161.33203 L 201.33203 175.45703 L 188.05664 167.64453 A 8.0008 8.0008 0 0 0 179.94336 167.64453 L 166.66797 175.45703 L 170.16602 161.33203 A 8.0008 8.0008 0 0 0 167.49414 153.24219 L 156.37891 144.0625 L 171.26367 142.91602 A 8.0008 8.0008 0 0 0 177.99609 138.10938 L 184 124.19531 z M 40 184 A 8 8 0 0 0 32 192 A 8 8 0 0 0 40 200 L 112 200 A 8 8 0 0 0 120 192 A 8 8 0 0 0 112 184 L 40 184 z " />
</svg>
