<?xml version="1.0" encoding="UTF-8" standalone="no"?>
<svg
   viewBox="0 0 256 256"
   version="1.1"
   id="svg3"
   sodipodi:docname="list numbers coral_purple.svg"
   xmlns:inkscape="http://www.inkscape.org/namespaces/inkscape"
   xmlns:sodipodi="http://sodipodi.sourceforge.net/DTD/sodipodi-0.dtd"
   xmlns:xlink="http://www.w3.org/1999/xlink"
   xmlns="http://www.w3.org/2000/svg"
   xmlns:svg="http://www.w3.org/2000/svg">
  <defs
     id="defs3">
    <linearGradient
       id="linearGradient1"
       inkscape:collect="always">
      <stop
         style="stop-color:#a03291;stop-opacity:1;"
         offset="0"
         id="stop1" />
      <stop
         style="stop-color:#ff7c66;stop-opacity:1;"
         offset="0.76340693"
         id="stop2" />
    </linearGradient>
    <linearGradient
       inkscape:collect="always"
       xlink:href="#linearGradient1"
       id="linearGradient2"
       x1="232.4884"
       y1="23.847498"
       x2="23.977745"
       y2="232.35815"
       gradientUnits="userSpaceOnUse" />
  </defs>
  <defs
     id="defs1" />
  <sodipodi:namedview
     id="namedview3"
     pagecolor="#ffffff"
     bordercolor="#000000"
     borderopacity="0.25"
     inkscape:showpageshadow="2"
     inkscape:pageopacity="0.0"
     inkscape:pagecheckerboard="0"
     inkscape:deskcolor="#d1d1d1" />
  <g
     id="line1"
     style="opacity:1">
    <path
       style="baseline-shift:baseline;display:inline;overflow:visible;vector-effect:none;fill:url(#linearGradient2);stroke-linecap:round;stroke-linejoin:round;enable-background:accumulate;stop-color:#000000;stop-opacity:1;opacity:1;fill-opacity:1"
       d="M 104,128 H 216"
       id="path4" />
    <path
       style="baseline-shift:baseline;display:inline;overflow:visible;vector-effect:none;fill:url(#linearGradient2);stroke-linecap:round;stroke-linejoin:round;enable-background:accumulate;stop-color:#000000;stop-opacity:1;opacity:1;fill-opacity:1"
       d="m 104,120 a 8,8 0 0 0 -8,8 8,8 0 0 0 8,8 h 112 a 8,8 0 0 0 8,-8 8,8 0 0 0 -8,-8 z"
       id="path5" />
  </g>
  <g
     id="line2"
     style="opacity:1">
    <path
       style="baseline-shift:baseline;display:inline;overflow:visible;vector-effect:none;fill:url(#linearGradient2);stroke-linecap:round;stroke-linejoin:round;enable-background:accumulate;stop-color:#000000;stop-opacity:1;opacity:1;fill-opacity:1"
       d="M 104,64 H 216"
       id="path6" />
    <path
       style="baseline-shift:baseline;display:inline;overflow:visible;vector-effect:none;fill:url(#linearGradient2);stroke-linecap:round;stroke-linejoin:round;enable-background:accumulate;stop-color:#000000;stop-opacity:1;opacity:1;fill-opacity:1"
       d="m 104,56 a 8,8 0 0 0 -8,8 8,8 0 0 0 8,8 h 112 a 8,8 0 0 0 8,-8 8,8 0 0 0 -8,-8 z"
       id="path7" />
  </g>
  <g
     id="line3"
     style="opacity:1">
    <path
       style="baseline-shift:baseline;display:inline;overflow:visible;vector-effect:none;fill:url(#linearGradient2);stroke-linecap:round;stroke-linejoin:round;enable-background:accumulate;stop-color:#000000;stop-opacity:1;opacity:1;fill-opacity:1"
       d="M 104,192 H 216"
       id="path8" />
    <path
       style="baseline-shift:baseline;display:inline;overflow:visible;vector-effect:none;fill:url(#linearGradient2);stroke-linecap:round;stroke-linejoin:round;enable-background:accumulate;stop-color:#000000;stop-opacity:1;opacity:1;fill-opacity:1"
       d="m 104,184 a 8,8 0 0 0 -8,8 8,8 0 0 0 8,8 h 112 a 8,8 0 0 0 8,-8 8,8 0 0 0 -8,-8 z"
       id="path9" />
  </g>
  <path
     style="baseline-shift:baseline;display:inline;overflow:visible;vector-effect:none;fill:url(#linearGradient2);stroke-linecap:round;stroke-linejoin:round;enable-background:accumulate;stop-color:#000000;stop-opacity:1;opacity:1;fill-opacity:1"
     d="m 57.703125,32.183594 a 8.0008,8.0008 0 0 0 -5.28125,0.660156 l -16,8 A 8,8 0 0 0 32.84375,51.578125 8,8 0 0 0 43.578125,55.15625 L 48,52.945312 V 104 a 8,8 0 0 0 8,8 8,8 0 0 0 8,-8 V 40 a 8.0008,8.0008 0 0 0 -6.296875,-7.816406 z"
     id="polyline3" />
  <path
     style="baseline-shift:baseline;display:inline;overflow:visible;vector-effect:none;fill:url(#linearGradient2);stroke-linecap:round;stroke-linejoin:round;enable-background:accumulate;stop-color:#000000;stop-opacity:1;opacity:1;fill-opacity:1"
     d="m 56.847656,136.0625 c -7.772229,-0.38571 -15.616184,2.85757 -20.74414,9.34766 a 8.0008,8.0008 0 0 0 -0.03711,0.0469 c -1.522892,1.95744 -2.731966,4.14087 -3.582031,6.4707 a 8,8 0 0 0 4.773437,10.25782 8,8 0 0 0 10.257813,-4.77344 c 0.275986,-0.75642 0.670471,-1.46211 1.162109,-2.09961 2.980584,-3.74861 8.17352,-4.45704 12.044922,-1.63086 a 8.0008,8.0008 0 0 0 0.0625,0.0449 c 3.642733,2.60685 4.3431,7.45057 1.587891,10.98242 a 8.0008,8.0008 0 0 0 -0.101563,0.13086 l -28.679687,38.3711 A 8.0008,8.0008 0 0 0 40,216 h 32 a 8,8 0 0 0 8,-8 8,8 0 0 0 -8,-8 H 55.966797 l 19.121094,-25.58008 -0.09961,0.13086 c 8.210667,-10.5251 5.973738,-26.03278 -4.867187,-33.81445 -4.000645,-2.91014 -8.623261,-4.44306 -13.273438,-4.67383 z"
     id="path3" />
</svg>
