<?xml version="1.0" encoding="UTF-8" standalone="no"?>
<svg
   viewBox="0 0 256 256"
   version="1.1"
   id="svg2"
   sodipodi:docname="mailbox coral_purple.svg"
   xmlns:inkscape="http://www.inkscape.org/namespaces/inkscape"
   xmlns:sodipodi="http://sodipodi.sourceforge.net/DTD/sodipodi-0.dtd"
   xmlns:xlink="http://www.w3.org/1999/xlink"
   xmlns="http://www.w3.org/2000/svg"
   xmlns:svg="http://www.w3.org/2000/svg">
  <defs
     id="defs3">
    <linearGradient
       id="linearGradient1"
       inkscape:collect="always">
      <stop
         style="stop-color:#a03291;stop-opacity:1;"
         offset="0"
         id="stop1" />
      <stop
         style="stop-color:#ff7c66;stop-opacity:1;"
         offset="0.76340693"
         id="stop2" />
    </linearGradient>
    <linearGradient
       inkscape:collect="always"
       xlink:href="#linearGradient1"
       id="linearGradient2"
       x1="232.4884"
       y1="23.847498"
       x2="23.977745"
       y2="232.35815"
       gradientUnits="userSpaceOnUse" />
  </defs>
  <defs
     id="defs2" />
  <sodipodi:namedview
     id="namedview2"
     pagecolor="#ffffff"
     bordercolor="#000000"
     borderopacity="0.25"
     inkscape:showpageshadow="2"
     inkscape:pageopacity="0.0"
     inkscape:pagecheckerboard="0"
     inkscape:deskcolor="#d1d1d1" />
  <path
     id="line1"
     style="baseline-shift:baseline;display:inline;overflow:visible;vector-effect:none;fill:url(#linearGradient2);stroke-linecap:round;stroke-linejoin:round;enable-background:accumulate;stop-color:#000000;stop-opacity:1;opacity:1;fill-opacity:1"
     d="M 160 16 A 8.0008 8.0008 0 0 0 152 24 L 152 56 L 76 56 C 42.957672 56 16 82.957672 16 116 L 16 176 C 16 184.7418 23.258201 192 32 192 L 120 192 L 120 224 A 8 8 0 0 0 128 232 A 8 8 0 0 0 136 224 L 136 192 L 224 192 C 232.7418 192 240 184.7418 240 176 L 240 116 C 240 82.957672 213.04233 56 180 56 L 168 56 L 168 32 L 192 32 A 8 8 0 0 0 200 24 A 8 8 0 0 0 192 16 L 160 16 z M 76 72 C 100.39529 72 120 91.604714 120 116 L 120 176 L 32 176 L 32 116 C 32 91.604714 51.604714 72 76 72 z M 116.62109 72 L 152 72 L 152 144 A 8 8 0 0 0 160 152 A 8 8 0 0 0 168 144 L 168 72 L 180 72 C 204.39529 72 224 91.604714 224 116 L 224 176 L 136 176 L 136 116 C 136 98.621666 128.49819 82.975455 116.62109 72 z M 56 144 A 8 8 0 0 0 48 152 A 8 8 0 0 0 56 160 L 96 160 A 8 8 0 0 0 104 152 A 8 8 0 0 0 96 144 L 56 144 z " />
</svg>
