<?xml version="1.0" encoding="UTF-8" standalone="no"?>
<svg
   viewBox="0 0 256 256"
   version="1.1"
   id="svg4"
   sodipodi:docname="mask happy coral_purple.svg"
   xmlns:inkscape="http://www.inkscape.org/namespaces/inkscape"
   xmlns:sodipodi="http://sodipodi.sourceforge.net/DTD/sodipodi-0.dtd"
   xmlns:xlink="http://www.w3.org/1999/xlink"
   xmlns="http://www.w3.org/2000/svg"
   xmlns:svg="http://www.w3.org/2000/svg">
  <defs
     id="defs3">
    <linearGradient
       id="linearGradient1"
       inkscape:collect="always">
      <stop
         style="stop-color:#a03291;stop-opacity:1;"
         offset="0"
         id="stop1" />
      <stop
         style="stop-color:#ff7c66;stop-opacity:1;"
         offset="0.76340693"
         id="stop2" />
    </linearGradient>
    <linearGradient
       inkscape:collect="always"
       xlink:href="#linearGradient1"
       id="linearGradient2"
       x1="232.4884"
       y1="23.847498"
       x2="23.977745"
       y2="232.35815"
       gradientUnits="userSpaceOnUse" />
  </defs>
  <defs
     id="defs4" />
  <sodipodi:namedview
     id="namedview4"
     pagecolor="#ffffff"
     bordercolor="#000000"
     borderopacity="0.25"
     inkscape:showpageshadow="2"
     inkscape:pageopacity="0.0"
     inkscape:pagecheckerboard="0"
     inkscape:deskcolor="#d1d1d1" />
  <path
     id="path1"
     style="baseline-shift:baseline;display:inline;overflow:visible;vector-effect:none;fill:url(#linearGradient2);stroke-linecap:round;stroke-linejoin:round;enable-background:accumulate;stop-color:#000000;stop-opacity:1;opacity:1;fill-opacity:1"
     d="M 207.79492 32.03125 C 207.23173 32.030192 206.66477 32.059065 206.09766 32.121094 C 204.8014 32.262873 203.50135 32.574174 202.2207 33.070312 A 8.0008 8.0008 0 0 0 202.20898 33.074219 C 187.67833 38.728767 159.38194 47.710938 128 47.710938 C 96.618057 47.710938 68.324082 38.731079 53.783203 33.091797 A 8.0008 8.0008 0 0 0 53.779297 33.089844 C 43.548482 29.12634 32.013371 37.018498 32 47.990234 A 8.0008 8.0008 0 0 0 32 48 L 32 103.76953 C 32 140.6679 42.180302 174.20346 59.179688 198.97266 C 76.179073 223.74185 100.55048 240 128 240 C 155.44952 240 179.8209 223.74313 196.82031 198.97656 C 213.81972 174.20999 224 140.67785 224 103.78906 L 224 48.009766 C 224.01153 38.996901 216.24273 32.047118 207.79492 32.03125 z M 208 47.990234 A 8.0008 8.0008 0 0 0 208 48 L 208 103.78906 C 208 137.71028 198.4795 168.28594 183.62891 189.92188 C 168.77832 211.55781 149.15048 224 128 224 C 106.84952 224 87.221709 211.55822 72.371094 189.91992 C 57.520478 168.28162 48 137.70117 48 103.76953 L 48 48.009766 C 63.679649 54.090525 93.603358 63.710936 128 63.710938 C 162.39104 63.710938 192.30803 54.09588 208 47.990234 z M 92 112 C 82.572138 112 72.73551 115.17614 66.037109 122.66797 A 8 8 0 0 0 66.667969 133.96289 A 8 8 0 0 0 77.962891 133.33203 C 80.04449 131.00386 87.207862 128 92 128 C 96.792138 128 103.95551 131.00386 106.03711 133.33203 A 8 8 0 0 0 117.33203 133.96289 A 8 8 0 0 0 117.96289 122.66797 C 111.26449 115.17614 101.42786 112 92 112 z M 164 112 C 154.57214 112 144.73551 115.17614 138.03711 122.66797 A 8 8 0 0 0 138.66797 133.96289 A 8 8 0 0 0 149.96289 133.33203 C 152.04449 131.00386 159.20786 128 164 128 C 168.79214 128 175.95551 131.00386 178.03711 133.33203 A 8 8 0 0 0 189.33203 133.96289 A 8 8 0 0 0 189.96289 122.66797 C 183.26449 115.17614 173.42786 112 164 112 z M 93.283203 160.00781 A 8 8 0 0 0 88.492188 161.87695 A 8 8 0 0 0 87.515625 173.14844 C 108.54916 198.16638 147.45084 198.16638 168.48438 173.14844 A 8 8 0 0 0 167.50781 161.87695 A 8 8 0 0 0 156.23633 162.85156 C 141.39335 180.50627 114.60665 180.50627 99.763672 162.85156 A 8 8 0 0 0 94.330078 160.0293 A 8 8 0 0 0 93.283203 160.00781 z " />
</svg>
