<?xml version="1.0" encoding="UTF-8" standalone="no"?>
<svg
   viewBox="0 0 256 256"
   version="1.1"
   id="svg3"
   sodipodi:docname="mastodon logo coral_purple.svg"
   xmlns:inkscape="http://www.inkscape.org/namespaces/inkscape"
   xmlns:sodipodi="http://sodipodi.sourceforge.net/DTD/sodipodi-0.dtd"
   xmlns:xlink="http://www.w3.org/1999/xlink"
   xmlns="http://www.w3.org/2000/svg"
   xmlns:svg="http://www.w3.org/2000/svg">
  <defs
     id="defs3">
    <linearGradient
       id="linearGradient1"
       inkscape:collect="always">
      <stop
         style="stop-color:#a03291;stop-opacity:1;"
         offset="0"
         id="stop1" />
      <stop
         style="stop-color:#ff7c66;stop-opacity:1;"
         offset="0.76340693"
         id="stop2" />
    </linearGradient>
    <linearGradient
       inkscape:collect="always"
       xlink:href="#linearGradient1"
       id="linearGradient2"
       x1="232.4884"
       y1="23.847498"
       x2="23.977745"
       y2="232.35815"
       gradientUnits="userSpaceOnUse" />
  </defs>
  <defs
     id="defs1" />
  <sodipodi:namedview
     id="namedview3"
     pagecolor="#ffffff"
     bordercolor="#000000"
     borderopacity="0.25"
     inkscape:showpageshadow="2"
     inkscape:pageopacity="0.0"
     inkscape:pagecheckerboard="0"
     inkscape:deskcolor="#d1d1d1" />
  <path
     id="path1"
     style="baseline-shift:baseline;display:inline;overflow:visible;vector-effect:none;fill:url(#linearGradient2);stroke-linecap:round;stroke-linejoin:round;enable-background:accumulate;stop-color:#000000;stop-opacity:1;opacity:1;fill-opacity:1"
     d="M 72 32 C 50.003367 32 32 50.003367 32 72 L 32 176 L 32 192 C 32 213.99663 50.003367 232 72 232 L 160 232 A 8 8 0 0 0 168 224 A 8 8 0 0 0 160 216 L 72 216 C 58.650409 216 48 205.34959 48 192 L 48 184 L 184 184 C 205.99663 184 224 165.99663 224 144 L 224 72 C 224 50.003367 205.99663 32 184 32 L 72 32 z M 72 48 L 184 48 C 197.34959 48 208 58.650409 208 72 L 208 144 C 208 157.34959 197.34959 168 184 168 L 48 168 L 48 72 C 48 58.650409 58.650409 48 72 48 z M 104 72 C 86.421653 72 72 86.421639 72 104 L 72 136 A 8 8 0 0 0 80 144 A 8 8 0 0 0 88 136 L 88 104 C 88 95.068675 95.06868 88 104 88 C 112.93132 88 120 95.068675 120 104 L 120 136 A 8 8 0 0 0 128 144 A 8 8 0 0 0 136 136 L 136 104 C 136 95.068675 143.06868 88 152 88 C 160.93132 88 168 95.068675 168 104 L 168 136 A 8 8 0 0 0 176 144 A 8 8 0 0 0 184 136 L 184 104 C 184 86.421639 169.57835 72 152 72 C 142.47621 72 133.87904 76.23315 128 82.908203 C 122.12096 76.233156 113.52378 72 104 72 z " />
</svg>
