<?xml version="1.0" encoding="UTF-8" standalone="no"?>
<svg
   viewBox="0 0 256 256"
   version="1.1"
   id="svg3"
   sodipodi:docname="matrix logo coral_purple.svg"
   xmlns:inkscape="http://www.inkscape.org/namespaces/inkscape"
   xmlns:sodipodi="http://sodipodi.sourceforge.net/DTD/sodipodi-0.dtd"
   xmlns:xlink="http://www.w3.org/1999/xlink"
   xmlns="http://www.w3.org/2000/svg"
   xmlns:svg="http://www.w3.org/2000/svg">
  <defs
     id="defs3">
    <linearGradient
       id="linearGradient1"
       inkscape:collect="always">
      <stop
         style="stop-color:#a03291;stop-opacity:1;"
         offset="0"
         id="stop1" />
      <stop
         style="stop-color:#ff7c66;stop-opacity:1;"
         offset="0.76340693"
         id="stop2" />
    </linearGradient>
    <linearGradient
       inkscape:collect="always"
       xlink:href="#linearGradient1"
       id="linearGradient2"
       x1="232.4884"
       y1="23.847498"
       x2="23.977745"
       y2="232.35815"
       gradientUnits="userSpaceOnUse" />
  </defs>
  <defs
     id="defs1" />
  <sodipodi:namedview
     id="namedview3"
     pagecolor="#ffffff"
     bordercolor="#000000"
     borderopacity="0.25"
     inkscape:showpageshadow="2"
     inkscape:pageopacity="0.0"
     inkscape:pagecheckerboard="0"
     inkscape:deskcolor="#d1d1d1" />
  <path
     id="polyline1"
     style="baseline-shift:baseline;display:inline;overflow:visible;vector-effect:none;fill:url(#linearGradient2);stroke-linecap:round;stroke-linejoin:round;enable-background:accumulate;stop-color:#000000;stop-opacity:1;opacity:1;fill-opacity:1"
     d="M 40 32 A 8.0008 8.0008 0 0 0 32 40 L 32 216 A 8.0008 8.0008 0 0 0 40 224 L 64 224 A 8 8 0 0 0 72 216 A 8 8 0 0 0 64 208 L 48 208 L 48 48 L 64 48 A 8 8 0 0 0 72 40 A 8 8 0 0 0 64 32 L 40 32 z M 192 32 A 8 8 0 0 0 184 40 A 8 8 0 0 0 192 48 L 208 48 L 208 208 L 192 208 A 8 8 0 0 0 184 216 A 8 8 0 0 0 192 224 L 216 224 A 8.0008 8.0008 0 0 0 224 216 L 224 40 A 8.0008 8.0008 0 0 0 216 32 L 192 32 z M 80 88 A 8 8 0 0 0 72 96 L 72 120 L 72 160 A 8 8 0 0 0 80 168 A 8 8 0 0 0 88 160 L 88 120 C 88 111.06868 95.06868 104 104 104 C 112.93132 104 120 111.06868 120 120 L 120 160 A 8 8 0 0 0 128 168 A 8 8 0 0 0 136 160 L 136 120 C 136 111.06868 143.06868 104 152 104 C 160.93132 104 168 111.06868 168 120 L 168 160 A 8 8 0 0 0 176 168 A 8 8 0 0 0 184 160 L 184 120 C 184 102.42164 169.57835 88 152 88 C 142.47621 88 133.87904 92.23315 128 98.908203 C 122.12096 92.233156 113.52378 88 104 88 C 97.898092 88 92.17662 89.73785 87.306641 92.742188 A 8 8 0 0 0 80 88 z " />
</svg>
