<?xml version="1.0" encoding="UTF-8" standalone="no"?>
<svg
   viewBox="0 0 256 256"
   version="1.1"
   id="svg2"
   sodipodi:docname="medal coral_purple.svg"
   xmlns:inkscape="http://www.inkscape.org/namespaces/inkscape"
   xmlns:sodipodi="http://sodipodi.sourceforge.net/DTD/sodipodi-0.dtd"
   xmlns:xlink="http://www.w3.org/1999/xlink"
   xmlns="http://www.w3.org/2000/svg"
   xmlns:svg="http://www.w3.org/2000/svg">
  <defs
     id="defs3">
    <linearGradient
       id="linearGradient1"
       inkscape:collect="always">
      <stop
         style="stop-color:#a03291;stop-opacity:1;"
         offset="0"
         id="stop1" />
      <stop
         style="stop-color:#ff7c66;stop-opacity:1;"
         offset="0.76340693"
         id="stop2" />
    </linearGradient>
    <linearGradient
       inkscape:collect="always"
       xlink:href="#linearGradient1"
       id="linearGradient2"
       x1="232.4884"
       y1="23.847498"
       x2="23.977745"
       y2="232.35815"
       gradientUnits="userSpaceOnUse" />
  </defs>
  <defs
     id="defs2" />
  <sodipodi:namedview
     id="namedview2"
     pagecolor="#ffffff"
     bordercolor="#000000"
     borderopacity="0.25"
     inkscape:showpageshadow="2"
     inkscape:pageopacity="0.0"
     inkscape:pagecheckerboard="0"
     inkscape:deskcolor="#d1d1d1" />
  <path
     id="circle1"
     style="baseline-shift:baseline;display:inline;overflow:visible;vector-effect:none;fill:url(#linearGradient2);stroke-linecap:round;stroke-linejoin:round;enable-background:accumulate;stop-color:#000000;stop-opacity:1;opacity:1;fill-opacity:1"
     d="M 128 8 C 79.493699 8 40 47.493699 40 96 C 40 123.25542 52.469159 147.66534 72 163.82227 L 72 240 A 8.0008 8.0008 0 0 0 83.578125 247.1543 L 127.99023 224.94336 L 172.42383 247.15625 A 8.0008 8.0008 0 0 0 184 240 L 184 163.82227 C 203.53084 147.66534 216 123.25542 216 96 C 216 47.493699 176.5063 8 128 8 z M 128 24 C 167.85926 24 200 56.140741 200 96 C 200 119.30841 189.00983 139.97693 171.91211 153.12305 A 8 8 0 0 0 170.54297 154.15039 C 158.63591 162.86312 143.93438 168 128 168 C 112.04298 168 97.322275 162.84856 85.40625 154.11328 A 8 8 0 0 0 84.146484 153.16797 C 67.015484 140.02404 56 119.33487 56 96 C 56 56.140741 88.140741 24 128 24 z M 128 40 C 97.166811 40 72 65.166811 72 96 C 72 126.83319 97.166811 152 128 152 C 158.83319 152 184 126.83319 184 96 C 184 65.166811 158.83319 40 128 40 z M 128 56 C 150.18615 56 168 73.813853 168 96 C 168 118.18615 150.18615 136 128 136 C 105.81385 136 88 118.18615 88 96 C 88 73.813853 105.81385 56 128 56 z M 88 174.36523 C 100.00912 180.5227 113.60785 184 128 184 C 142.39215 184 155.99088 180.5227 168 174.36523 L 168 227.05664 L 131.56641 208.84375 A 8.0008 8.0008 0 0 0 124.41211 208.8457 L 88 227.05469 L 88 174.36523 z " />
</svg>
