<?xml version="1.0" encoding="UTF-8" standalone="no"?>
<svg
   viewBox="0 0 256 256"
   version="1.1"
   id="svg5"
   sodipodi:docname="microsoft teams logo coral_purple.svg"
   xmlns:inkscape="http://www.inkscape.org/namespaces/inkscape"
   xmlns:sodipodi="http://sodipodi.sourceforge.net/DTD/sodipodi-0.dtd"
   xmlns:xlink="http://www.w3.org/1999/xlink"
   xmlns="http://www.w3.org/2000/svg"
   xmlns:svg="http://www.w3.org/2000/svg">
  <defs
     id="defs3">
    <linearGradient
       id="linearGradient1"
       inkscape:collect="always">
      <stop
         style="stop-color:#a03291;stop-opacity:1;"
         offset="0"
         id="stop1" />
      <stop
         style="stop-color:#ff7c66;stop-opacity:1;"
         offset="0.76340693"
         id="stop2" />
    </linearGradient>
    <linearGradient
       inkscape:collect="always"
       xlink:href="#linearGradient1"
       id="linearGradient2"
       x1="232.4884"
       y1="23.847498"
       x2="23.977745"
       y2="232.35815"
       gradientUnits="userSpaceOnUse" />
  </defs>
  <defs
     id="defs5" />
  <sodipodi:namedview
     id="namedview5"
     pagecolor="#ffffff"
     bordercolor="#000000"
     borderopacity="0.25"
     inkscape:showpageshadow="2"
     inkscape:pageopacity="0.0"
     inkscape:pagecheckerboard="0"
     inkscape:deskcolor="#d1d1d1" />
  <path
     id="rect2"
     style="baseline-shift:baseline;display:inline;overflow:visible;vector-effect:none;fill:url(#linearGradient2);stroke-linecap:round;stroke-linejoin:round;enable-background:accumulate;stop-color:#000000;stop-opacity:1;opacity:1;fill-opacity:1"
     d="M 137.76367 16.0625 C 136.21874 15.995756 134.67521 16.019652 133.14062 16.130859 C 122.91011 16.872245 113.08418 21.527096 106 29.560547 C 97.565404 39.125368 94.36887 51.947237 96.8125 64 L 40 64 C 31.274378 64 24 71.274378 24 80 L 24 176 C 24 184.72562 31.274378 192 40 192 L 76.65625 192 C 86.34745 215.96562 109.76228 232.00673 136.00195 232 C 162.82734 231.99919 185.88657 215.35052 195.37695 191.85742 C 215.80958 190.12792 232 172.85961 232 152 L 232 92.740234 C 232 85.798884 226.20112 80 219.25977 80 L 211.50586 80 C 216.34709 71.722505 217.6076 61.326256 213.47461 51.544922 C 207.97318 38.524984 195.0306 31.597231 182.24805 32.191406 C 178.10676 32.383907 173.98195 33.365345 170.13281 35.185547 C 165.85072 28.170384 159.41948 22.469244 151.48828 19.138672 C 147.04445 17.272561 142.39845 16.262733 137.76367 16.0625 z M 137.04492 32.03125 C 139.82413 32.155225 142.61385 32.765574 145.29297 33.890625 C 152.10925 36.753008 157.0522 42.462735 159.03906 49.253906 C 159.07735 49.384784 159.1143 49.514816 159.15039 49.646484 C 159.85862 52.230624 160.14184 54.965443 159.93945 57.753906 C 159.44563 64.557707 156.14318 70.624803 151.07617 74.705078 C 148.85306 68.518393 142.87724 64 136 64 L 113.36523 64 C 110.49371 55.897274 112.15548 46.770249 118 40.142578 C 122.27021 35.300159 128.14374 32.506389 134.27344 32.068359 C 135.19289 32.002655 136.11852 31.989925 137.04492 32.03125 z M 183.75781 47.833984 C 189.91409 47.698706 195.96335 51.210774 198.73633 57.773438 C 203.30473 68.585224 195.73751 79.998906 184 80 L 167.99805 80 C 172.49539 74.004112 175.32877 66.733942 175.89648 58.912109 C 176.10717 56.009329 175.99756 53.137388 175.59375 50.335938 C 178.13869 48.711317 180.95951 47.895475 183.75781 47.833984 z M 40 80 L 136 80 L 136 86.951172 A 8 8 0 0 0 136 87.048828 L 136 176 L 40 176 L 40 80 z M 72 96 A 8 8 0 0 0 64 104 A 8 8 0 0 0 72 112 L 80 112 L 80 152 A 8 8 0 0 0 88 160 A 8 8 0 0 0 96 152 L 96 112 L 104 112 A 8 8 0 0 0 112 104 A 8 8 0 0 0 104 96 L 72 96 z M 152 96 L 184 96 L 184 168 C 184 194.60443 162.60443 216 136 216 A 8.0008 8.0008 0 0 0 135.99805 216 C 118.54021 216.0041 102.83386 206.63142 94.40625 192 L 136 192 C 144.72562 192 152 184.72562 152 176 L 152 96 z M 200 96 L 216 96 L 216 152 C 216 162.67216 209.19348 171.61967 199.64258 174.7793 C 199.87893 172.55115 200 170.28908 200 168 L 200 96 z " />
</svg>
