<?xml version="1.0" encoding="UTF-8" standalone="no"?>
<svg
   viewBox="0 0 256 256"
   version="1.1"
   id="svg2"
   sodipodi:docname="mountains coral_purple.svg"
   xmlns:inkscape="http://www.inkscape.org/namespaces/inkscape"
   xmlns:sodipodi="http://sodipodi.sourceforge.net/DTD/sodipodi-0.dtd"
   xmlns:xlink="http://www.w3.org/1999/xlink"
   xmlns="http://www.w3.org/2000/svg"
   xmlns:svg="http://www.w3.org/2000/svg">
  <defs
     id="defs3">
    <linearGradient
       id="linearGradient1"
       inkscape:collect="always">
      <stop
         style="stop-color:#a03291;stop-opacity:1;"
         offset="0"
         id="stop1" />
      <stop
         style="stop-color:#ff7c66;stop-opacity:1;"
         offset="0.76340693"
         id="stop2" />
    </linearGradient>
    <linearGradient
       inkscape:collect="always"
       xlink:href="#linearGradient1"
       id="linearGradient2"
       x1="232.4884"
       y1="23.847498"
       x2="23.977745"
       y2="232.35815"
       gradientUnits="userSpaceOnUse" />
  </defs>
  <defs
     id="defs2" />
  <sodipodi:namedview
     id="namedview2"
     pagecolor="#ffffff"
     bordercolor="#000000"
     borderopacity="0.25"
     inkscape:showpageshadow="2"
     inkscape:pageopacity="0.0"
     inkscape:pagecheckerboard="0"
     inkscape:deskcolor="#d1d1d1" />
  <path
     id="circle1"
     style="baseline-shift:baseline;display:inline;overflow:visible;vector-effect:none;fill:url(#linearGradient2);stroke-linecap:round;stroke-linejoin:round;enable-background:accumulate;stop-color:#000000;stop-opacity:1;opacity:1;fill-opacity:1"
     d="M 164 24 C 148.63078 24 136 36.630784 136 52 C 136 67.369216 148.63078 80 164 80 C 179.36922 80 192 67.369216 192 52 C 192 36.630784 179.36922 24 164 24 z M 164 40 C 170.72217 40 176 45.277826 176 52 C 176 58.722174 170.72217 64 164 64 C 157.27783 64 152 58.722174 152 52 C 152 45.277826 157.27783 40 164 40 z M 88 64.228516 C 82.602956 64.228516 77.205568 66.779236 74.207031 71.878906 L 74.203125 71.886719 L 74.203125 71.888672 L 74.201172 71.888672 L 74.199219 71.888672 L 74.199219 71.890625 L 44.021484 123.10742 A 8 8 0 0 0 43 124.8418 L 1.1074219 195.93945 A 8.0008 8.0008 0 0 0 8 208 L 168 208 L 248 208 A 8.0008 8.0008 0 0 0 254.88281 195.92188 L 200.3125 103.8418 A 8.0008 8.0008 0 0 0 200.31055 103.83789 C 197.304 98.770945 191.92751 96.236328 186.55078 96.236328 C 181.17406 96.236328 175.79561 98.770945 172.78906 103.83789 A 8.0008 8.0008 0 0 0 172.78711 103.8418 L 146.63281 147.97852 L 133.00391 124.84766 A 8 8 0 0 0 131.9707 123.0957 L 101.79688 71.886719 C 98.799229 66.781951 93.399741 64.228516 88 64.228516 z M 88 79.988281 A 8.0008 8.0008 0 0 0 88.007812 80.001953 L 111.57617 120 L 64.423828 120 L 87.992188 80.001953 A 8.0008 8.0008 0 0 0 88 79.988281 z M 186.55078 112.00391 L 233.95898 192 L 172.57227 192 L 155.90625 163.7168 L 186.55078 112.00391 z M 54.996094 136 L 121.00391 136 L 139.57812 167.52344 A 8 8 0 0 0 139.86719 168.01367 L 154 192 L 22 192 L 54.996094 136 z " />
</svg>
