<?xml version="1.0" encoding="UTF-8" standalone="no"?>
<svg
   viewBox="0 0 256 256"
   version="1.1"
   id="svg2"
   sodipodi:docname="newspaper clipping coral_purple.svg"
   xmlns:inkscape="http://www.inkscape.org/namespaces/inkscape"
   xmlns:sodipodi="http://sodipodi.sourceforge.net/DTD/sodipodi-0.dtd"
   xmlns:xlink="http://www.w3.org/1999/xlink"
   xmlns="http://www.w3.org/2000/svg"
   xmlns:svg="http://www.w3.org/2000/svg">
  <defs
     id="defs3">
    <linearGradient
       id="linearGradient1"
       inkscape:collect="always">
      <stop
         style="stop-color:#a03291;stop-opacity:1;"
         offset="0"
         id="stop1" />
      <stop
         style="stop-color:#ff7c66;stop-opacity:1;"
         offset="0.76340693"
         id="stop2" />
    </linearGradient>
    <linearGradient
       inkscape:collect="always"
       xlink:href="#linearGradient1"
       id="linearGradient2"
       x1="232.4884"
       y1="23.847498"
       x2="23.977745"
       y2="232.35815"
       gradientUnits="userSpaceOnUse" />
  </defs>
  <defs
     id="defs2" />
  <sodipodi:namedview
     id="namedview2"
     pagecolor="#ffffff"
     bordercolor="#000000"
     borderopacity="0.25"
     inkscape:showpageshadow="2"
     inkscape:pageopacity="0.0"
     inkscape:pagecheckerboard="0"
     inkscape:deskcolor="#d1d1d1" />
  <path
     id="path1"
     style="baseline-shift:baseline;display:inline;overflow:visible;vector-effect:none;fill:url(#linearGradient2);stroke-linecap:round;stroke-linejoin:round;enable-background:accumulate;stop-color:#000000;stop-opacity:1;opacity:1;fill-opacity:1"
     d="M 40 40 C 31.258201 40 24 47.258201 24 56 L 24 216 A 8.0008 8.0008 0 0 0 35.578125 223.15625 L 64 208.94336 L 92.421875 223.15625 A 8.0008 8.0008 0 0 0 99.578125 223.15625 L 128 208.94336 L 156.42188 223.15625 A 8.0008 8.0008 0 0 0 163.57812 223.15625 L 192 208.94336 L 220.42188 223.15625 A 8.0008 8.0008 0 0 0 232 216 L 232 56 C 232 47.258201 224.7418 40 216 40 L 40 40 z M 40 56 L 216 56 L 216 203.05469 L 195.57812 192.84375 A 8.0008 8.0008 0 0 0 188.42188 192.84375 L 160 207.05664 L 131.57812 192.84375 A 8.0008 8.0008 0 0 0 124.42188 192.84375 L 96 207.05664 L 67.578125 192.84375 A 8.0008 8.0008 0 0 0 60.421875 192.84375 L 40 203.05469 L 40 56 z M 64 88 A 8.0008 8.0008 0 0 0 56 96 L 56 160 A 8.0008 8.0008 0 0 0 64 168 L 112 168 A 8.0008 8.0008 0 0 0 120 160 L 120 96 A 8.0008 8.0008 0 0 0 112 88 L 64 88 z M 72 104 L 104 104 L 104 152 L 72 152 L 72 104 z M 144 104 A 8 8 0 0 0 136 112 A 8 8 0 0 0 144 120 L 192 120 A 8 8 0 0 0 200 112 A 8 8 0 0 0 192 104 L 144 104 z M 144 136 A 8 8 0 0 0 136 144 A 8 8 0 0 0 144 152 L 192 152 A 8 8 0 0 0 200 144 A 8 8 0 0 0 192 136 L 144 136 z " />
</svg>
