<?xml version="1.0" encoding="UTF-8" standalone="no"?>
<svg
   viewBox="0 0 256 256"
   version="1.1"
   id="svg2"
   sodipodi:docname="notion logo coral_purple.svg"
   xmlns:inkscape="http://www.inkscape.org/namespaces/inkscape"
   xmlns:sodipodi="http://sodipodi.sourceforge.net/DTD/sodipodi-0.dtd"
   xmlns:xlink="http://www.w3.org/1999/xlink"
   xmlns="http://www.w3.org/2000/svg"
   xmlns:svg="http://www.w3.org/2000/svg">
  <defs
     id="defs3">
    <linearGradient
       id="linearGradient1"
       inkscape:collect="always">
      <stop
         style="stop-color:#a03291;stop-opacity:1;"
         offset="0"
         id="stop1" />
      <stop
         style="stop-color:#ff7c66;stop-opacity:1;"
         offset="0.76340693"
         id="stop2" />
    </linearGradient>
    <linearGradient
       inkscape:collect="always"
       xlink:href="#linearGradient1"
       id="linearGradient2"
       x1="232.4884"
       y1="23.847498"
       x2="23.977745"
       y2="232.35815"
       gradientUnits="userSpaceOnUse" />
  </defs>
  <defs
     id="defs2" />
  <sodipodi:namedview
     id="namedview2"
     pagecolor="#ffffff"
     bordercolor="#000000"
     borderopacity="0.25"
     inkscape:showpageshadow="2"
     inkscape:pageopacity="0.0"
     inkscape:pagecheckerboard="0"
     inkscape:deskcolor="#d1d1d1" />
  <path
     id="polyline1"
     style="baseline-shift:baseline;display:inline;overflow:visible;vector-effect:none;fill:url(#linearGradient2);stroke-linecap:round;stroke-linejoin:round;enable-background:accumulate;stop-color:#000000;stop-opacity:1;opacity:1;fill-opacity:1"
     d="M 40 40 A 8 8 0 0 0 32 48 A 8 8 0 0 0 40 56 L 56 56 L 56 200 L 40 200 A 8 8 0 0 0 32 208 A 8 8 0 0 0 40 216 L 64 216 L 88 216 A 8 8 0 0 0 96 208 A 8 8 0 0 0 88 200 L 72 200 L 72 79.146484 L 144.99023 211.85547 A 8.0008 8.0008 0 0 0 152 216 L 191.95508 216 L 192 216 A 8.0008 8.0008 0 0 0 192.3418 215.97852 A 8 8 0 0 0 193.00781 215.93359 A 8.0008 8.0008 0 0 0 193.40625 215.85938 A 8 8 0 0 0 194.02539 215.73633 A 8.0008 8.0008 0 0 0 194.41211 215.61133 A 8 8 0 0 0 195 215.41211 A 8.0008 8.0008 0 0 0 195.39453 215.22656 A 8 8 0 0 0 195.85547 215.00977 A 8 8 0 0 0 195.92773 214.96289 A 8.0008 8.0008 0 0 0 196.36523 214.68359 A 8 8 0 0 0 196.82031 214.37695 A 8.0008 8.0008 0 0 0 197.19727 214.05664 A 8 8 0 0 0 197.61914 213.68945 A 8.0008 8.0008 0 0 0 197.95508 213.31445 A 8 8 0 0 0 198.32422 212.89453 A 8.0008 8.0008 0 0 0 198.58594 212.50977 A 8 8 0 0 0 198.91602 212.01758 A 8.0008 8.0008 0 0 0 199.12695 211.59766 A 8 8 0 0 0 199.38672 211.06641 A 8 8 0 0 0 199.39062 211.06055 A 8.0008 8.0008 0 0 0 199.48242 210.79102 A 8 8 0 0 0 199.81836 209.60938 A 8.0008 8.0008 0 0 0 199.93164 209.03125 A 8.0008 8.0008 0 0 0 199.93359 209.02539 A 8 8 0 0 0 199.94531 208.82617 A 8.0008 8.0008 0 0 0 200 208 L 200 207.95508 L 200 56 L 216 56 A 8 8 0 0 0 224 48 A 8 8 0 0 0 216 40 L 168 40 A 8 8 0 0 0 160 48 A 8 8 0 0 0 168 56 L 184 56 L 184 176.85352 L 111.00977 44.144531 A 8.0008 8.0008 0 0 0 104 40 L 64 40 L 40 40 z M 77.53125 56 L 99.269531 56 L 178.46875 200 L 156.73047 200 L 77.53125 56 z " />
</svg>
