<?xml version="1.0" encoding="UTF-8" standalone="no"?>
<svg
   viewBox="0 0 256 256"
   version="1.1"
   id="svg1"
   sodipodi:docname="notification coral_purple.svg"
   xmlns:inkscape="http://www.inkscape.org/namespaces/inkscape"
   xmlns:sodipodi="http://sodipodi.sourceforge.net/DTD/sodipodi-0.dtd"
   xmlns:xlink="http://www.w3.org/1999/xlink"
   xmlns="http://www.w3.org/2000/svg"
   xmlns:svg="http://www.w3.org/2000/svg">
  <defs
     id="defs3">
    <linearGradient
       id="linearGradient1"
       inkscape:collect="always">
      <stop
         style="stop-color:#a03291;stop-opacity:1;"
         offset="0"
         id="stop1" />
      <stop
         style="stop-color:#ff7c66;stop-opacity:1;"
         offset="0.76340693"
         id="stop2" />
    </linearGradient>
    <linearGradient
       inkscape:collect="always"
       xlink:href="#linearGradient1"
       id="linearGradient2"
       x1="232.4884"
       y1="23.847498"
       x2="23.977745"
       y2="232.35815"
       gradientUnits="userSpaceOnUse" />
  </defs>
  <defs
     id="defs1" />
  <sodipodi:namedview
     id="namedview1"
     pagecolor="#ffffff"
     bordercolor="#000000"
     borderopacity="0.25"
     inkscape:showpageshadow="2"
     inkscape:pageopacity="0.0"
     inkscape:pagecheckerboard="0"
     inkscape:deskcolor="#d1d1d1" />
  <path
     id="path1"
     style="baseline-shift:baseline;display:inline;overflow:visible;vector-effect:none;fill:url(#linearGradient2);stroke-linecap:round;stroke-linejoin:round;enable-background:accumulate;stop-color:#000000;stop-opacity:1;opacity:1;fill-opacity:1"
     d="M 196 24 C 176.21251 24 160 40.212506 160 60 C 160 79.787494 176.21251 96 196 96 C 215.78749 96 232 79.787494 232 60 C 232 40.212506 215.78749 24 196 24 z M 48 40 C 39.258201 40 32 47.258201 32 56 L 32 208 C 32 216.7418 39.258201 224 48 224 L 200 224 C 208.7418 224 216 216.7418 216 208 L 216 128 A 8 8 0 0 0 208 120 A 8 8 0 0 0 200 128 L 200 208 L 48 208 L 48 56 L 128 56 A 8 8 0 0 0 136 48 A 8 8 0 0 0 128 40 L 48 40 z M 196 40 C 207.14045 40 216 48.859548 216 60 C 216 71.140452 207.14045 80 196 80 C 184.85955 80 176 71.140452 176 60 C 176 48.859548 184.85955 40 196 40 z " />
</svg>
