<?xml version="1.0" encoding="UTF-8" standalone="no"?>
<svg
   viewBox="0 0 256 256"
   version="1.1"
   id="svg1"
   sodipodi:docname="number circle zero coral_purple.svg"
   xmlns:inkscape="http://www.inkscape.org/namespaces/inkscape"
   xmlns:sodipodi="http://sodipodi.sourceforge.net/DTD/sodipodi-0.dtd"
   xmlns:xlink="http://www.w3.org/1999/xlink"
   xmlns="http://www.w3.org/2000/svg"
   xmlns:svg="http://www.w3.org/2000/svg">
  <defs
     id="defs3">
    <linearGradient
       id="linearGradient1"
       inkscape:collect="always">
      <stop
         style="stop-color:#a03291;stop-opacity:1;"
         offset="0"
         id="stop1" />
      <stop
         style="stop-color:#ff7c66;stop-opacity:1;"
         offset="0.76340693"
         id="stop2" />
    </linearGradient>
    <linearGradient
       inkscape:collect="always"
       xlink:href="#linearGradient1"
       id="linearGradient2"
       x1="232.4884"
       y1="23.847498"
       x2="23.977745"
       y2="232.35815"
       gradientUnits="userSpaceOnUse" />
  </defs>
  <defs
     id="defs1" />
  <sodipodi:namedview
     id="namedview1"
     pagecolor="#ffffff"
     bordercolor="#000000"
     borderopacity="0.25"
     inkscape:showpageshadow="2"
     inkscape:pageopacity="0.0"
     inkscape:pagecheckerboard="0"
     inkscape:deskcolor="#d1d1d1" />
  <path
     id="circle1"
     style="baseline-shift:baseline;display:inline;overflow:visible;vector-effect:none;fill:url(#linearGradient2);stroke-linecap:round;stroke-linejoin:round;enable-background:accumulate;stop-color:#000000;stop-opacity:1;opacity:1;fill-opacity:1"
     d="M 128 24 C 70.657143 24 24 70.657143 24 128 C 24 185.34286 70.657143 232 128 232 C 185.34286 232 232 185.34286 232 128 C 232 70.657143 185.34286 24 128 24 z M 128 40 C 176.69582 40 216 79.304185 216 128 C 216 176.69582 176.69582 216 128 216 C 79.304185 216 40 176.69582 40 128 C 40 79.304185 79.304185 40 128 40 z M 128 72 C 115.17653 72 103.83118 79.010903 96.144531 89.259766 C 88.457884 99.508628 84 113.12385 84 128 C 84 142.87615 88.457884 156.49137 96.144531 166.74023 C 103.83118 176.9891 115.17653 184 128 184 C 140.82347 184 152.16882 176.9891 159.85547 166.74023 C 167.54212 156.49137 172 142.87615 172 128 C 172 113.12385 167.54212 99.508628 159.85547 89.259766 C 152.16882 79.010903 140.82347 72 128 72 z M 128 88 C 135.05878 88 141.71385 91.735655 147.05664 98.859375 C 152.39943 105.9831 156 116.36649 156 128 C 156 139.63351 152.39943 150.0169 147.05664 157.14062 C 141.71385 164.26435 135.05878 168 128 168 C 120.94122 168 114.28615 164.26435 108.94336 157.14062 C 103.60057 150.0169 100 139.63351 100 128 C 100 116.36649 103.60057 105.9831 108.94336 98.859375 C 114.28615 91.735655 120.94122 88 128 88 z " />
</svg>
