<?xml version="1.0" encoding="UTF-8" standalone="no"?>
<svg
   viewBox="0 0 256 256"
   version="1.1"
   id="svg4"
   sodipodi:docname="orange slice coral_purple.svg"
   xmlns:inkscape="http://www.inkscape.org/namespaces/inkscape"
   xmlns:sodipodi="http://sodipodi.sourceforge.net/DTD/sodipodi-0.dtd"
   xmlns:xlink="http://www.w3.org/1999/xlink"
   xmlns="http://www.w3.org/2000/svg"
   xmlns:svg="http://www.w3.org/2000/svg">
  <defs
     id="defs3">
    <linearGradient
       id="linearGradient1"
       inkscape:collect="always">
      <stop
         style="stop-color:#a03291;stop-opacity:1;"
         offset="0"
         id="stop1" />
      <stop
         style="stop-color:#ff7c66;stop-opacity:1;"
         offset="0.76340693"
         id="stop2" />
    </linearGradient>
    <linearGradient
       inkscape:collect="always"
       xlink:href="#linearGradient1"
       id="linearGradient2"
       x1="232.4884"
       y1="23.847498"
       x2="23.977745"
       y2="232.35815"
       gradientUnits="userSpaceOnUse" />
  </defs>
  <defs
     id="defs4" />
  <sodipodi:namedview
     id="namedview4"
     pagecolor="#ffffff"
     bordercolor="#000000"
     borderopacity="0.25"
     inkscape:showpageshadow="2"
     inkscape:pageopacity="0.0"
     inkscape:pagecheckerboard="0"
     inkscape:deskcolor="#d1d1d1" />
  <path
     id="path1"
     style="baseline-shift:baseline;display:inline;overflow:visible;vector-effect:none;fill:url(#linearGradient2);stroke-linecap:round;stroke-linejoin:round;enable-background:accumulate;stop-color:#000000;stop-opacity:1;opacity:1;fill-opacity:1"
     d="M 8 80 A 8.0008 8.0008 0 0 0 0 88 C 0 158.59773 57.402318 216 128 216 C 198.59768 216 256 158.59773 256 88 A 8.0008 8.0008 0 0 0 248 80 L 128 80 L 8 80 z M 16.404297 96 L 32.330078 96 C 34.231719 118.93126 44.232063 139.60475 59.455078 155.14258 A 8 8 0 0 0 60.113281 155.88672 A 8 8 0 0 0 60.857422 156.54492 C 78.182873 173.51934 101.89353 184 128 184 C 154.10647 184 177.81713 173.51934 195.14258 156.54492 A 8 8 0 0 0 195.88672 155.88672 A 8 8 0 0 0 196.54492 155.14258 C 211.76793 139.60475 221.76828 118.93125 223.66992 96 L 239.5957 96 C 235.49065 154.18735 187.24933 200 128 200 C 68.750667 200 20.50935 154.18735 16.404297 96 z M 48.392578 96 L 108.6875 96 L 66.021484 138.66406 C 56.332245 126.81469 49.983391 112.12055 48.392578 96 z M 147.3125 96 L 207.60742 96 C 206.01661 112.12055 199.66775 126.81469 189.97852 138.66406 L 147.3125 96 z M 120 107.3125 L 120 167.60742 C 103.87945 166.01661 89.185316 159.66775 77.335938 149.97852 L 120 107.3125 z " />
</svg>
