<?xml version="1.0" encoding="UTF-8" standalone="no"?>
<svg
   viewBox="0 0 256 256"
   version="1.1"
   id="svg3"
   sodipodi:docname="paint brush household coral_purple.svg"
   xmlns:inkscape="http://www.inkscape.org/namespaces/inkscape"
   xmlns:sodipodi="http://sodipodi.sourceforge.net/DTD/sodipodi-0.dtd"
   xmlns:xlink="http://www.w3.org/1999/xlink"
   xmlns="http://www.w3.org/2000/svg"
   xmlns:svg="http://www.w3.org/2000/svg">
  <defs
     id="defs3">
    <linearGradient
       id="linearGradient1"
       inkscape:collect="always">
      <stop
         style="stop-color:#a03291;stop-opacity:1;"
         offset="0"
         id="stop1" />
      <stop
         style="stop-color:#ff7c66;stop-opacity:1;"
         offset="0.76340693"
         id="stop2" />
    </linearGradient>
    <linearGradient
       inkscape:collect="always"
       xlink:href="#linearGradient1"
       id="linearGradient2"
       x1="232.4884"
       y1="23.847498"
       x2="23.977745"
       y2="232.35815"
       gradientUnits="userSpaceOnUse" />
  </defs>
  <defs
     id="defs1" />
  <sodipodi:namedview
     id="namedview3"
     pagecolor="#ffffff"
     bordercolor="#000000"
     borderopacity="0.25"
     inkscape:showpageshadow="2"
     inkscape:pageopacity="0.0"
     inkscape:pagecheckerboard="0"
     inkscape:deskcolor="#d1d1d1" />
  <path
     id="line1"
     style="baseline-shift:baseline;display:inline;overflow:visible;vector-effect:none;fill:url(#linearGradient2);stroke-linecap:round;stroke-linejoin:round;enable-background:accumulate;stop-color:#000000;stop-opacity:1;opacity:1;fill-opacity:1"
     d="M 208 16.007812 C 199.78308 16.00781 191.56677 19.120732 185.34375 25.34375 A 8.0008 8.0008 0 0 0 184.91992 25.800781 L 131.54102 88.226562 L 120.9668 77.652344 A 8.0008 8.0008 0 0 0 120.96484 77.650391 C 111.66042 68.352067 96.339577 68.352067 87.035156 77.650391 A 8.0008 8.0008 0 0 0 87.033203 77.652344 L 66.34375 98.34375 L 10.34375 154.34375 A 8.0008 8.0008 0 0 0 10.34375 165.65625 L 38.34375 193.65625 L 62.34375 217.65625 L 90.34375 245.65625 A 8.0008 8.0008 0 0 0 101.65625 245.65625 L 157.65625 189.65625 L 178.34766 168.9668 A 8.0008 8.0008 0 0 0 178.34961 168.96484 C 187.64793 159.66042 187.64793 144.33958 178.34961 135.03516 A 8.0008 8.0008 0 0 0 178.34766 135.0332 L 167.77344 124.45898 L 230.19922 71.080078 A 8.0008 8.0008 0 0 0 230.65625 70.65625 C 243.10229 58.210214 243.10228 37.789776 230.65625 25.34375 C 224.43324 19.120817 216.21692 16.007817 208 16.007812 z M 208 31.908203 C 212.08865 31.908209 216.17792 33.490426 219.34375 36.65625 C 225.64084 42.953337 225.66196 52.895465 219.43359 59.232422 L 150.80078 117.91992 A 8.0008 8.0008 0 0 0 150.34375 129.65625 L 167.0332 146.34766 C 170.21975 149.53837 170.21919 154.46431 167.03125 157.6543 L 152 172.6875 L 83.3125 104 L 98.345703 88.96875 L 98.347656 88.966797 C 101.53837 85.780248 106.46431 85.780809 109.6543 88.96875 L 126.34375 105.65625 A 8.0008 8.0008 0 0 0 138.08008 105.19922 L 196.76758 36.566406 C 199.91865 33.469344 203.956 31.908209 208 31.908203 z M 72 115.3125 L 140.6875 184 L 96 228.6875 L 79.3125 212 L 101.65625 189.65625 A 8 8 0 0 0 101.65625 178.34375 A 8 8 0 0 0 96 176 A 8 8 0 0 0 90.34375 178.34375 L 68 200.6875 L 55.3125 188 L 77.65625 165.65625 A 8 8 0 0 0 77.65625 154.34375 A 8 8 0 0 0 72 152 A 8 8 0 0 0 66.34375 154.34375 L 44 176.6875 L 27.3125 160 L 72 115.3125 z " />
</svg>
