<?xml version="1.0" encoding="UTF-8" standalone="no"?>
<svg
   viewBox="0 0 256 256"
   version="1.1"
   id="svg2"
   sodipodi:docname="paint bucket coral_purple.svg"
   xmlns:inkscape="http://www.inkscape.org/namespaces/inkscape"
   xmlns:sodipodi="http://sodipodi.sourceforge.net/DTD/sodipodi-0.dtd"
   xmlns:xlink="http://www.w3.org/1999/xlink"
   xmlns="http://www.w3.org/2000/svg"
   xmlns:svg="http://www.w3.org/2000/svg">
  <defs
     id="defs3">
    <linearGradient
       id="linearGradient1"
       inkscape:collect="always">
      <stop
         style="stop-color:#a03291;stop-opacity:1;"
         offset="0"
         id="stop1" />
      <stop
         style="stop-color:#ff7c66;stop-opacity:1;"
         offset="0.76340693"
         id="stop2" />
    </linearGradient>
    <linearGradient
       inkscape:collect="always"
       xlink:href="#linearGradient1"
       id="linearGradient2"
       x1="232.4884"
       y1="23.847498"
       x2="23.977745"
       y2="232.35815"
       gradientUnits="userSpaceOnUse" />
  </defs>
  <defs
     id="defs2" />
  <sodipodi:namedview
     id="namedview2"
     pagecolor="#ffffff"
     bordercolor="#000000"
     borderopacity="0.25"
     inkscape:showpageshadow="2"
     inkscape:pageopacity="0.0"
     inkscape:pagecheckerboard="0"
     inkscape:deskcolor="#d1d1d1" />
  <path
     id="path1"
     style="baseline-shift:baseline;display:inline;overflow:visible;vector-effect:none;fill:url(#linearGradient2);stroke-linecap:round;stroke-linejoin:round;enable-background:accumulate;stop-color:#000000;stop-opacity:1;opacity:1;fill-opacity:1"
     d="M 116.51953 8 A 8.0008 8.0008 0 0 0 110.86328 10.34375 L 70.257812 50.949219 L 45.646484 26.341797 A 8 8 0 0 0 39.990234 24 A 8 8 0 0 0 34.332031 26.34375 A 8 8 0 0 0 34.333984 37.658203 L 58.943359 62.263672 L 15.033203 106.17383 C 5.7261892 115.47992 5.7254603 130.81157 15.033203 140.11719 L 99.882812 224.9668 C 109.1888 234.2749 124.52214 234.2749 133.82812 224.9668 L 212.32031 146.47266 L 234.5293 139.07031 A 8.0008 8.0008 0 0 0 237.65625 125.82227 L 122.17773 10.34375 A 8.0008 8.0008 0 0 0 116.51953 8 z M 116.51953 27.3125 L 217.19141 127.98438 L 205.4707 131.89062 A 8.0008 8.0008 0 0 0 202.34375 133.82227 L 122.51367 213.65234 A 8.0008 8.0008 0 0 0 122.51172 213.6543 C 119.32033 216.84641 114.38865 216.84641 111.19727 213.6543 A 8.0008 8.0008 0 0 0 111.19727 213.65234 L 26.347656 128.80273 A 8.0008 8.0008 0 0 0 26.345703 128.80273 C 23.153589 125.61135 23.153589 120.67967 26.345703 117.48828 A 8.0008 8.0008 0 0 0 26.347656 117.48633 L 70.257812 73.576172 L 99.392578 102.70703 C 97.231479 106.67039 96 111.20184 96 116 C 96 131.36922 108.63078 144 124 144 C 139.36922 144 152 131.36922 152 116 C 152 100.63078 139.36922 88 124 88 C 119.20104 88 114.66891 89.230808 110.70508 91.392578 L 81.570312 62.261719 L 116.51953 27.3125 z M 124 104 C 130.72217 104 136 109.27783 136 116 C 136 122.72217 130.72217 128 124 128 C 117.27783 128 112 122.72217 112 116 C 112 112.89939 113.12263 110.10594 114.99219 107.99609 A 8 8 0 0 0 115.51758 107.51562 A 8 8 0 0 0 115.99609 106.99219 C 118.10601 105.12232 120.8991 104 124 104 z M 232 160 A 8.0008 8.0008 0 0 0 225.34375 163.5625 C 225.34375 163.5625 221.08226 169.94485 216.84375 178.42188 C 212.60524 186.8989 208 197.33333 208 208 C 208 221.16008 218.83993 232 232 232 C 245.16007 232 256 221.16008 256 208 C 256 197.33333 251.39476 186.8989 247.15625 178.42188 C 242.91774 169.94485 238.65625 163.5625 238.65625 163.5625 A 8.0008 8.0008 0 0 0 232 160 z M 232 184.04297 C 232.30515 184.63042 232.53628 184.96319 232.84375 185.57812 C 236.60524 193.10111 240 202.66667 240 208 C 240 212.51304 236.51304 216 232 216 C 227.48696 216 224 212.51304 224 208 C 224 202.66667 227.39476 193.1011 231.15625 185.57812 C 231.46372 184.96319 231.69485 184.63042 232 184.04297 z " />
</svg>
