<?xml version="1.0" encoding="UTF-8" standalone="no"?>
<svg
   viewBox="0 0 256 256"
   version="1.1"
   id="svg1"
   sodipodi:docname="paperclip horizontal coral_purple.svg"
   xmlns:inkscape="http://www.inkscape.org/namespaces/inkscape"
   xmlns:sodipodi="http://sodipodi.sourceforge.net/DTD/sodipodi-0.dtd"
   xmlns:xlink="http://www.w3.org/1999/xlink"
   xmlns="http://www.w3.org/2000/svg"
   xmlns:svg="http://www.w3.org/2000/svg">
  <defs
     id="defs3">
    <linearGradient
       id="linearGradient1"
       inkscape:collect="always">
      <stop
         style="stop-color:#a03291;stop-opacity:1;"
         offset="0"
         id="stop1" />
      <stop
         style="stop-color:#ff7c66;stop-opacity:1;"
         offset="0.76340693"
         id="stop2" />
    </linearGradient>
    <linearGradient
       inkscape:collect="always"
       xlink:href="#linearGradient1"
       id="linearGradient2"
       x1="232.4884"
       y1="23.847498"
       x2="23.977745"
       y2="232.35815"
       gradientUnits="userSpaceOnUse" />
  </defs>
  <defs
     id="defs1" />
  <sodipodi:namedview
     id="namedview1"
     pagecolor="#ffffff"
     bordercolor="#000000"
     borderopacity="0.25"
     inkscape:showpageshadow="2"
     inkscape:pageopacity="0.0"
     inkscape:pagecheckerboard="0"
     inkscape:deskcolor="#d1d1d1" />
  <path
     id="path1"
     style="baseline-shift:baseline;display:inline;overflow:visible;vector-effect:none;fill:url(#linearGradient2);stroke-linecap:round;stroke-linejoin:round;enable-background:accumulate;stop-color:#000000;stop-opacity:1;opacity:1;fill-opacity:1"
     d="M 80 72 A 8 8 0 0 0 72 80 A 8 8 0 0 0 80 88 L 192 88 C 214.18617 88 232 105.81385 232 128 C 232 150.18615 214.18617 168 192 168 L 48 168 C 34.650394 168 24 157.3496 24 144 C 24 130.6504 34.650394 120 48 120 L 192 120 C 196.51304 120 200 123.48696 200 128 C 200 132.51304 196.51304 136 192 136 L 80 136 A 8 8 0 0 0 72 144 A 8 8 0 0 0 80 152 L 192 152 C 205.16008 152 216 141.16007 216 128 C 216 114.83993 205.16008 104 192 104 L 48 104 C 26.003358 104 8 122.00338 8 144 C 8 165.99662 26.003358 184 48 184 L 192 184 C 222.8332 184 248 158.83318 248 128 C 248 97.166819 222.8332 72 192 72 L 80 72 z " />
</svg>
