<?xml version="1.0" encoding="UTF-8" standalone="no"?>
<svg
   viewBox="0 0 256 256"
   version="1.1"
   id="svg1"
   sodipodi:docname="perspective coral_purple.svg"
   xmlns:inkscape="http://www.inkscape.org/namespaces/inkscape"
   xmlns:sodipodi="http://sodipodi.sourceforge.net/DTD/sodipodi-0.dtd"
   xmlns:xlink="http://www.w3.org/1999/xlink"
   xmlns="http://www.w3.org/2000/svg"
   xmlns:svg="http://www.w3.org/2000/svg">
  <defs
     id="defs3">
    <linearGradient
       id="linearGradient1"
       inkscape:collect="always">
      <stop
         style="stop-color:#a03291;stop-opacity:1;"
         offset="0"
         id="stop1" />
      <stop
         style="stop-color:#ff7c66;stop-opacity:1;"
         offset="0.76340693"
         id="stop2" />
    </linearGradient>
    <linearGradient
       inkscape:collect="always"
       xlink:href="#linearGradient1"
       id="linearGradient2"
       x1="232.4884"
       y1="23.847498"
       x2="23.977745"
       y2="232.35815"
       gradientUnits="userSpaceOnUse" />
  </defs>
  <defs
     id="defs1" />
  <sodipodi:namedview
     id="namedview1"
     pagecolor="#ffffff"
     bordercolor="#000000"
     borderopacity="0.25"
     inkscape:showpageshadow="2"
     inkscape:pageopacity="0.0"
     inkscape:pagecheckerboard="0"
     inkscape:deskcolor="#d1d1d1" />
  <path
     id="path1"
     style="baseline-shift:baseline;display:inline;overflow:visible;vector-effect:none;fill:url(#linearGradient2);stroke-linecap:round;stroke-linejoin:round;enable-background:accumulate;stop-color:#000000;stop-opacity:1;opacity:1;fill-opacity:1"
     d="M 208.72461 32.029297 C 207.54848 31.968227 206.34833 32.040357 205.14062 32.259766 A 8.0008 8.0008 0 0 0 205.13867 32.259766 L 45.138672 61.349609 C 37.582921 62.723249 32.00111 69.408126 32 77.087891 A 8.0008 8.0008 0 0 0 32 77.089844 L 32 120 L 16 120 A 8 8 0 0 0 8 128 A 8 8 0 0 0 16 136 L 32 136 L 32 178.91016 A 8.0008 8.0008 0 0 0 32 178.91211 C 32.0011 186.59187 37.582921 193.27675 45.138672 194.65039 L 205.13867 223.74023 A 8.0008 8.0008 0 0 0 205.14062 223.74023 C 214.8022 225.49551 223.99858 217.82167 224 208.00195 A 8.0008 8.0008 0 0 0 224 208 L 224 136 L 240 136 A 8 8 0 0 0 248 128 A 8 8 0 0 0 240 120 L 224 120 L 224 48 A 8.0008 8.0008 0 0 0 224 47.998047 C 223.999 39.405799 216.95749 32.456805 208.72461 32.029297 z M 208 48 L 208 48.001953 L 208 120 L 48 120 L 48 77.091797 A 8.0008 8.0008 0 0 0 48.001953 77.091797 L 208 48 z M 48 136 L 208 136 L 208 208 L 48.001953 178.9082 A 8.0008 8.0008 0 0 0 48 178.9082 L 48 136 z " />
</svg>
