<?xml version="1.0" encoding="UTF-8" standalone="no"?>
<svg
   viewBox="0 0 256 256"
   version="1.1"
   id="svg2"
   sodipodi:docname="person simple ski coral_purple.svg"
   xmlns:inkscape="http://www.inkscape.org/namespaces/inkscape"
   xmlns:sodipodi="http://sodipodi.sourceforge.net/DTD/sodipodi-0.dtd"
   xmlns:xlink="http://www.w3.org/1999/xlink"
   xmlns="http://www.w3.org/2000/svg"
   xmlns:svg="http://www.w3.org/2000/svg">
  <defs
     id="defs3">
    <linearGradient
       id="linearGradient1"
       inkscape:collect="always">
      <stop
         style="stop-color:#a03291;stop-opacity:1;"
         offset="0"
         id="stop1" />
      <stop
         style="stop-color:#ff7c66;stop-opacity:1;"
         offset="0.76340693"
         id="stop2" />
    </linearGradient>
    <linearGradient
       inkscape:collect="always"
       xlink:href="#linearGradient1"
       id="linearGradient2"
       x1="232.4884"
       y1="23.847498"
       x2="23.977745"
       y2="232.35815"
       gradientUnits="userSpaceOnUse" />
  </defs>
  <defs
     id="defs2" />
  <sodipodi:namedview
     id="namedview2"
     pagecolor="#ffffff"
     bordercolor="#000000"
     borderopacity="0.25"
     inkscape:showpageshadow="2"
     inkscape:pageopacity="0.0"
     inkscape:pagecheckerboard="0"
     inkscape:deskcolor="#d1d1d1" />
  <path
     id="circle1"
     style="baseline-shift:baseline;display:inline;overflow:visible;vector-effect:none;fill:url(#linearGradient2);stroke-linecap:round;stroke-linejoin:round;enable-background:accumulate;stop-color:#000000;stop-opacity:1;opacity:1;fill-opacity:1"
     d="M 172 32 C 156.63078 32 144 44.630784 144 60 C 144 75.369216 156.63078 88 172 88 C 187.36922 88 200 75.369216 200 60 C 200 44.630784 187.36922 32 172 32 z M 172 48 C 178.72217 48 184 53.277826 184 60 C 184 66.722174 178.72217 72 172 72 C 165.27783 72 160 66.722174 160 60 C 160 53.277826 165.27783 48 172 48 z M 40.175781 72.001953 A 8 8 0 0 0 32.320312 77.759766 A 8 8 0 0 0 37.759766 87.679688 L 111.875 109.29688 A 8 8 0 0 0 112.2793 109.41406 L 148.73242 120.04492 L 154.34375 125.65625 A 8.0008 8.0008 0 0 0 160 128 L 200 128 A 8 8 0 0 0 208 120 A 8 8 0 0 0 200 112 L 163.31445 112 L 133.65625 82.34375 A 8.0008 8.0008 0 0 0 128 80 A 8.0008 8.0008 0 0 0 122.34375 82.34375 L 112.01562 92.671875 L 42.240234 72.320312 A 8 8 0 0 0 40.175781 72.001953 z M 88.130859 120.00195 A 8 8 0 0 0 80.308594 125.80273 A 8 8 0 0 0 85.802734 135.69141 L 128.73047 147.95703 L 102.23438 174.45117 L 26.236328 152.31836 A 8 8 0 0 0 16.318359 157.76367 A 8 8 0 0 0 21.763672 167.68164 L 101.62891 190.93945 A 8 8 0 0 0 101.63281 190.94141 A 8 8 0 0 0 102.94141 191.32227 A 8 8 0 0 0 102.95117 191.32422 L 178.07227 213.20117 L 178.07031 213.19922 C 197.88702 218.97821 219.25826 215.70506 236.43555 204.25781 A 8 8 0 0 0 238.65625 193.16406 A 8 8 0 0 0 227.56445 190.94336 C 214.30917 199.77692 197.84089 202.29934 182.54883 197.83984 A 8.0008 8.0008 0 0 0 182.54688 197.83984 L 119.75977 179.55469 L 149.65625 149.65625 A 8.0008 8.0008 0 0 0 146.19727 136.30859 L 90.197266 120.30859 A 8 8 0 0 0 88.130859 120.00195 z " />
</svg>
