<?xml version="1.0" encoding="UTF-8" standalone="no"?>
<svg
   viewBox="0 0 256 256"
   version="1.1"
   id="svg3"
   sodipodi:docname="person simple throw coral_purple.svg"
   xmlns:inkscape="http://www.inkscape.org/namespaces/inkscape"
   xmlns:sodipodi="http://sodipodi.sourceforge.net/DTD/sodipodi-0.dtd"
   xmlns:xlink="http://www.w3.org/1999/xlink"
   xmlns="http://www.w3.org/2000/svg"
   xmlns:svg="http://www.w3.org/2000/svg">
  <defs
     id="defs3">
    <linearGradient
       id="linearGradient1"
       inkscape:collect="always">
      <stop
         style="stop-color:#a03291;stop-opacity:1;"
         offset="0"
         id="stop1" />
      <stop
         style="stop-color:#ff7c66;stop-opacity:1;"
         offset="0.76340693"
         id="stop2" />
    </linearGradient>
    <linearGradient
       inkscape:collect="always"
       xlink:href="#linearGradient1"
       id="linearGradient2"
       x1="232.4884"
       y1="23.847498"
       x2="23.977745"
       y2="232.35815"
       gradientUnits="userSpaceOnUse" />
  </defs>
  <defs
     id="defs1" />
  <sodipodi:namedview
     id="namedview3"
     pagecolor="#ffffff"
     bordercolor="#000000"
     borderopacity="0.25"
     inkscape:showpageshadow="2"
     inkscape:pageopacity="0.0"
     inkscape:pagecheckerboard="0"
     inkscape:deskcolor="#d1d1d1" />
  <path
     id="circle1"
     style="baseline-shift:baseline;display:inline;overflow:visible;vector-effect:none;fill:url(#linearGradient2);stroke-linecap:round;stroke-linejoin:round;enable-background:accumulate;stop-color:#000000;stop-opacity:1;opacity:1;fill-opacity:1"
     d="M 128 24 C 110.42165 24 96 38.421645 96 56 C 96 73.578355 110.42165 88 128 88 C 145.57835 88 160 73.578355 160 56 C 160 38.421645 145.57835 24 128 24 z M 128 40 C 136.93131 40 144 47.068687 144 56 C 144 64.931313 136.93131 72 128 72 C 119.06869 72 112 64.931313 112 56 C 112 47.068687 119.06869 40 128 40 z M 64 80 A 16 16 0 0 0 48 96 A 16 16 0 0 0 64 112 A 16 16 0 0 0 80 96 A 16 16 0 0 0 64 80 z M 182.23828 88.064453 C 170.34512 88.358776 156.19936 91.601945 140.68945 100.28711 A 8 8 0 0 0 139.2168 101.12695 C 136.67828 102.59702 134.10349 104.21299 131.49805 105.98633 C 107.26803 122.45199 88.731489 127.08225 76.535156 127.90625 C 64.337798 128.73032 59.316406 126.16992 59.316406 126.16992 A 8 8 0 0 0 48.71875 130.13477 A 8 8 0 0 0 52.683594 140.73047 C 52.683594 140.73047 62.428139 144.89507 77.613281 143.86914 C 91.743127 142.91451 111.30653 137.82959 135.0957 122.76172 C 134.18815 134.31324 132.03891 149.48563 126.13867 164.9082 C 116.89836 189.06138 99.295475 213.0596 61.701172 224.33789 A 8 8 0 0 0 56.337891 234.29883 A 8 8 0 0 0 66.298828 239.66211 C 108.70452 226.9404 130.60179 198.02433 141.08398 170.625 C 142.41729 167.13987 143.57993 163.66747 144.59375 160.24219 L 166.68359 178.65039 L 152.41016 221.4707 A 8 8 0 0 0 157.4707 231.58984 A 8 8 0 0 0 167.58984 226.5293 L 183.58984 178.5293 A 8.0008 8.0008 0 0 0 181.12109 169.85352 L 148.68555 142.82617 C 150.95504 130.14019 151.46707 119.24789 151.71289 112.48633 C 168.90533 103.58071 182.64013 103.06571 192.68555 104.74023 C 204.82682 106.76414 210.99414 111.83984 210.99414 111.83984 A 8 8 0 0 0 222.24023 110.60547 A 8 8 0 0 0 221.00586 99.359375 C 221.00586 99.359375 211.17318 91.600624 195.31445 88.957031 C 191.34977 88.296133 186.97312 87.947279 182.23828 88.064453 z " />
</svg>
