<?xml version="1.0" encoding="UTF-8" standalone="no"?>
<svg
   viewBox="0 0 256 256"
   version="1.1"
   id="svg4"
   sodipodi:docname="plug coral_purple.svg"
   xmlns:inkscape="http://www.inkscape.org/namespaces/inkscape"
   xmlns:sodipodi="http://sodipodi.sourceforge.net/DTD/sodipodi-0.dtd"
   xmlns:xlink="http://www.w3.org/1999/xlink"
   xmlns="http://www.w3.org/2000/svg"
   xmlns:svg="http://www.w3.org/2000/svg">
  <defs
     id="defs3">
    <linearGradient
       id="linearGradient1"
       inkscape:collect="always">
      <stop
         style="stop-color:#a03291;stop-opacity:1;"
         offset="0"
         id="stop1" />
      <stop
         style="stop-color:#ff7c66;stop-opacity:1;"
         offset="0.76340693"
         id="stop2" />
    </linearGradient>
    <linearGradient
       inkscape:collect="always"
       xlink:href="#linearGradient1"
       id="linearGradient2"
       x1="232.4884"
       y1="23.847498"
       x2="23.977745"
       y2="232.35815"
       gradientUnits="userSpaceOnUse" />
  </defs>
  <defs
     id="defs4" />
  <sodipodi:namedview
     id="namedview4"
     pagecolor="#ffffff"
     bordercolor="#000000"
     borderopacity="0.25"
     inkscape:showpageshadow="2"
     inkscape:pageopacity="0.0"
     inkscape:pagecheckerboard="0"
     inkscape:deskcolor="#d1d1d1" />
  <path
     id="line1"
     style="baseline-shift:baseline;display:inline;overflow:visible;vector-effect:none;fill:url(#linearGradient2);stroke-linecap:round;stroke-linejoin:round;enable-background:accumulate;stop-color:#000000;stop-opacity:1;opacity:1;fill-opacity:1"
     d="M 184 16 A 8 8 0 0 0 178.34375 18.34375 L 144 52.6875 L 129.65625 38.34375 A 8 8 0 0 0 129.6543 38.341797 L 117.65625 26.34375 A 8 8 0 0 0 112 24 A 8 8 0 0 0 106.34375 26.34375 A 8 8 0 0 0 106.34375 37.65625 L 112.6875 44 L 59.712891 96.972656 A 8.0008 8.0008 0 0 0 59.712891 96.974609 C 44.162898 112.52792 44.162898 137.98379 59.712891 153.53711 L 75.431641 169.25586 L 26.34375 218.34375 A 8 8 0 0 0 26.34375 229.65625 A 8 8 0 0 0 37.65625 229.65625 L 86.744141 180.56836 L 102.46289 196.28711 C 118.01621 211.8371 143.47208 211.8371 159.02539 196.28711 A 8.0008 8.0008 0 0 0 159.02734 196.28711 L 212 143.3125 L 218.34375 149.65625 A 8 8 0 0 0 229.65625 149.65625 A 8 8 0 0 0 229.65625 138.34375 L 217.66016 126.34766 A 8 8 0 0 0 217.65625 126.34375 A 8 8 0 0 0 217.65234 126.33984 L 203.3125 112 L 237.65625 77.65625 A 8 8 0 0 0 237.65625 66.34375 A 8 8 0 0 0 232 64 A 8 8 0 0 0 226.34375 66.34375 L 192 100.6875 L 155.3125 64 L 189.65625 29.65625 A 8 8 0 0 0 189.65625 18.34375 A 8 8 0 0 0 184 16 z M 124 55.3125 L 200.6875 132 L 147.71289 184.97266 C 138.27412 194.40941 123.21655 194.40868 113.77734 184.97266 L 113.77539 184.97266 L 92.636719 163.83398 A 8 8 0 0 0 92.40625 163.59375 A 8 8 0 0 0 92.166016 163.36328 L 71.027344 142.22461 L 71.027344 142.22266 C 61.59132 132.78345 61.590591 117.72588 71.027344 108.28711 L 124 55.3125 z " />
</svg>
