<?xml version="1.0" encoding="UTF-8" standalone="no"?>
<svg
   viewBox="0 0 256 256"
   version="1.1"
   id="svg8"
   sodipodi:docname="plugs connected coral_purple.svg"
   xmlns:inkscape="http://www.inkscape.org/namespaces/inkscape"
   xmlns:sodipodi="http://sodipodi.sourceforge.net/DTD/sodipodi-0.dtd"
   xmlns:xlink="http://www.w3.org/1999/xlink"
   xmlns="http://www.w3.org/2000/svg"
   xmlns:svg="http://www.w3.org/2000/svg">
  <defs
     id="defs3">
    <linearGradient
       id="linearGradient1"
       inkscape:collect="always">
      <stop
         style="stop-color:#a03291;stop-opacity:1;"
         offset="0"
         id="stop1" />
      <stop
         style="stop-color:#ff7c66;stop-opacity:1;"
         offset="0.76340693"
         id="stop2" />
    </linearGradient>
    <linearGradient
       inkscape:collect="always"
       xlink:href="#linearGradient1"
       id="linearGradient2"
       x1="232.4884"
       y1="23.847498"
       x2="23.977745"
       y2="232.35815"
       gradientUnits="userSpaceOnUse" />
  </defs>
  <defs
     id="defs8" />
  <sodipodi:namedview
     id="namedview8"
     pagecolor="#ffffff"
     bordercolor="#000000"
     borderopacity="0.25"
     inkscape:showpageshadow="2"
     inkscape:pageopacity="0.0"
     inkscape:pagecheckerboard="0"
     inkscape:deskcolor="#d1d1d1" />
  <path
     id="rect2"
     style="baseline-shift:baseline;display:inline;overflow:visible;vector-effect:none;fill:url(#linearGradient2);stroke-linecap:round;stroke-linejoin:round;enable-background:accumulate;stop-color:#000000;stop-opacity:1;opacity:1;fill-opacity:1"
     d="M 280.73553 122.34362 A 8 8 0 0 0 275.07868 120.00132 L 200.97196 119.99994 L 200.97057 112.39993 C 200.97057 94.8103 186.56086 80.400582 168.97123 80.400582 L 135.99961 80.400582 L 135.99961 71.431927 A 8 8 0 0 0 133.65732 65.775073 A 8 8 0 0 0 128.00047 63.432782 A 8 8 0 0 0 120.00132 71.431927 L 120.00132 80.400582 L 87.029708 80.400582 C 69.440086 80.400582 55.028983 94.811682 55.028983 112.40131 L 55.028983 119.99994 L -19.077741 120.00132 A 8 8 0 0 0 -27.076886 128.00047 A 8 8 0 0 0 -19.077741 135.99961 L 55.028983 136.001 L 55.028983 143.59963 C 55.028983 161.18925 69.440086 175.60036 87.029708 175.60036 L 120.00132 175.60036 L 120.00132 184.56901 A 8 8 0 0 0 128.00047 192.56816 A 8 8 0 0 0 135.99961 184.56901 L 135.99961 175.60036 L 168.97123 175.60036 C 186.56086 175.60036 200.97196 161.18925 200.97196 143.59963 L 200.97196 136.001 L 275.07868 135.99961 A 8 8 0 0 0 283.07783 128.00047 A 8 8 0 0 0 280.73553 122.34362 z M 178.98121 31.903001 A 8 8 0 0 0 176.4069 30.137996 A 8 8 0 0 0 165.9025 34.339205 L 157.41722 54.138194 A 8 8 0 0 0 161.61843 64.642597 A 8 8 0 0 0 172.12283 60.441388 L 180.60811 40.642399 A 8 8 0 0 0 178.98121 31.903001 z M 180.34709 101.02407 C 183.22179 103.89877 184.9709 107.90012 184.9709 112.40131 L 184.9709 127.84717 A 8 8 0 0 0 184.96952 128.00047 A 8 8 0 0 0 184.9709 128.15377 L 184.9709 143.59963 C 184.9709 152.60201 177.97361 159.5993 168.97123 159.5993 L 135.99961 159.5993 L 135.99961 96.401635 L 168.96985 96.400254 C 173.47104 96.400254 177.47238 98.149367 180.34709 101.02407 z M 88.333436 31.764894 A 8 8 0 0 0 79.594039 30.137996 A 8 8 0 0 0 75.39283 40.642399 L 83.878111 60.441388 A 8 8 0 0 0 94.382514 64.642597 A 8 8 0 0 0 98.583723 54.138194 L 90.098441 34.339205 A 8 8 0 0 0 88.333436 31.764894 z M 120.00132 96.401635 L 120.00132 159.5993 L 87.029708 159.5993 C 78.02733 159.5993 71.030036 152.60201 71.030036 143.59963 L 71.028655 128.18553 A 8 8 0 0 0 71.031417 128.00047 A 8 8 0 0 0 71.028655 127.81541 L 71.028655 112.39993 C 71.028655 103.39755 78.025949 96.400254 87.028327 96.400254 L 120.00132 96.401635 z M 170.35782 192.98524 A 8 8 0 0 0 161.61843 191.35834 A 8 8 0 0 0 157.41722 201.86274 L 165.9025 221.66173 A 8 8 0 0 0 176.4069 225.86294 A 8 8 0 0 0 180.60811 215.35854 L 172.12283 195.55955 A 8 8 0 0 0 170.35782 192.98524 z M 96.956825 193.12335 A 8 8 0 0 0 94.382514 191.35834 A 8 8 0 0 0 83.878111 195.55955 L 75.39283 215.35854 A 8 8 0 0 0 79.594039 225.86294 A 8 8 0 0 0 90.098441 221.66173 L 98.583723 201.86274 A 8 8 0 0 0 96.956825 193.12335 z "
     transform="translate(-53.02 128) rotate(-45)" />
</svg>
