<?xml version="1.0" encoding="UTF-8" standalone="no"?>
<svg
   viewBox="0 0 256 256"
   version="1.1"
   id="svg3"
   sodipodi:docname="popsicle coral_purple.svg"
   xmlns:inkscape="http://www.inkscape.org/namespaces/inkscape"
   xmlns:sodipodi="http://sodipodi.sourceforge.net/DTD/sodipodi-0.dtd"
   xmlns:xlink="http://www.w3.org/1999/xlink"
   xmlns="http://www.w3.org/2000/svg"
   xmlns:svg="http://www.w3.org/2000/svg">
  <defs
     id="defs3">
    <linearGradient
       id="linearGradient1"
       inkscape:collect="always">
      <stop
         style="stop-color:#a03291;stop-opacity:1;"
         offset="0"
         id="stop1" />
      <stop
         style="stop-color:#ff7c66;stop-opacity:1;"
         offset="0.76340693"
         id="stop2" />
    </linearGradient>
    <linearGradient
       inkscape:collect="always"
       xlink:href="#linearGradient1"
       id="linearGradient2"
       x1="232.4884"
       y1="23.847498"
       x2="23.977745"
       y2="232.35815"
       gradientUnits="userSpaceOnUse" />
  </defs>
  <defs
     id="defs1" />
  <sodipodi:namedview
     id="namedview3"
     pagecolor="#ffffff"
     bordercolor="#000000"
     borderopacity="0.25"
     inkscape:showpageshadow="2"
     inkscape:pageopacity="0.0"
     inkscape:pagecheckerboard="0"
     inkscape:deskcolor="#d1d1d1" />
  <path
     id="path1"
     style="baseline-shift:baseline;display:inline;overflow:visible;vector-effect:none;fill:url(#linearGradient2);stroke-linecap:round;stroke-linejoin:round;enable-background:accumulate;stop-color:#000000;stop-opacity:1;opacity:1;fill-opacity:1"
     d="M 128 8 C 88.330255 8 56 40.330255 56 80 L 56 176 C 56 184.7418 63.258201 192 72 192 L 104 192 L 104 232 C 104 245.16008 114.83992 256 128 256 C 141.16008 256 152 245.16008 152 232 L 152 192 L 184 192 C 192.7418 192 200 184.7418 200 176 L 200 80 C 200 40.330255 167.66974 8 128 8 z M 128 24 C 159.0227 24 184 48.977297 184 80 L 184 176 L 72 176 L 72 80 C 72 48.977297 96.977297 24 128 24 z M 112 64 A 8 8 0 0 0 104 72 L 104 152 A 8 8 0 0 0 112 160 A 8 8 0 0 0 120 152 L 120 72 A 8 8 0 0 0 112 64 z M 144 64 A 8 8 0 0 0 136 72 L 136 152 A 8 8 0 0 0 144 160 A 8 8 0 0 0 152 152 L 152 72 A 8 8 0 0 0 144 64 z M 120 192 L 136 192 L 136 232 C 136 236.51304 132.51304 240 128 240 C 123.48696 240 120 236.51304 120 232 L 120 192 z " />
</svg>
