<?xml version="1.0" encoding="UTF-8" standalone="no"?>
<svg
   viewBox="0 0 256 256"
   version="1.1"
   id="svg4"
   sodipodi:docname="projector screen coral_purple.svg"
   xmlns:inkscape="http://www.inkscape.org/namespaces/inkscape"
   xmlns:sodipodi="http://sodipodi.sourceforge.net/DTD/sodipodi-0.dtd"
   xmlns:xlink="http://www.w3.org/1999/xlink"
   xmlns="http://www.w3.org/2000/svg"
   xmlns:svg="http://www.w3.org/2000/svg">
  <defs
     id="defs3">
    <linearGradient
       id="linearGradient1"
       inkscape:collect="always">
      <stop
         style="stop-color:#a03291;stop-opacity:1;"
         offset="0"
         id="stop1" />
      <stop
         style="stop-color:#ff7c66;stop-opacity:1;"
         offset="0.76340693"
         id="stop2" />
    </linearGradient>
    <linearGradient
       inkscape:collect="always"
       xlink:href="#linearGradient1"
       id="linearGradient2"
       x1="232.4884"
       y1="23.847498"
       x2="23.977745"
       y2="232.35815"
       gradientUnits="userSpaceOnUse" />
  </defs>
  <defs
     id="defs4" />
  <sodipodi:namedview
     id="namedview4"
     pagecolor="#ffffff"
     bordercolor="#000000"
     borderopacity="0.25"
     inkscape:showpageshadow="2"
     inkscape:pageopacity="0.0"
     inkscape:pagecheckerboard="0"
     inkscape:deskcolor="#d1d1d1" />
  <path
     id="line1"
     style="baseline-shift:baseline;display:inline;overflow:visible;vector-effect:none;fill:url(#linearGradient2);stroke-linecap:round;stroke-linejoin:round;enable-background:accumulate;stop-color:#000000;stop-opacity:1;opacity:1;fill-opacity:1"
     d="M 40 32 C 31.274378 32 24 39.274378 24 48 L 24 64 C 24 72.725622 31.274378 80 40 80 L 40 176 L 32 176 A 8 8 0 0 0 24 184 A 8 8 0 0 0 32 192 L 48 192 L 120 192 L 120 209.38867 C 110.7193 212.71553 104 221.63886 104 232 C 104 245.16008 114.83992 256 128 256 C 141.16008 256 152 245.16008 152 232 C 152 221.63886 145.2807 212.71553 136 209.38867 L 136 192 L 208 192 L 224 192 A 8 8 0 0 0 232 184 A 8 8 0 0 0 224 176 L 216 176 L 216 80 C 224.72562 80 232 72.725622 232 64 L 232 48 C 232 39.274378 224.72562 32 216 32 L 40 32 z M 40 48 L 216 48 L 216 64 L 40 64 L 40 48 z M 56 80 L 200 80 L 200 176 L 128 176 L 56 176 L 56 80 z M 128 224 C 132.51304 224 136 227.48696 136 232 C 136 236.51304 132.51304 240 128 240 C 123.48696 240 120 236.51304 120 232 C 120 227.48696 123.48696 224 128 224 z " />
</svg>
