<?xml version="1.0" encoding="UTF-8" standalone="no"?>
<svg
   viewBox="0 0 256 256"
   version="1.1"
   id="svg2"
   sodipodi:docname="quotes coral_purple.svg"
   xmlns:inkscape="http://www.inkscape.org/namespaces/inkscape"
   xmlns:sodipodi="http://sodipodi.sourceforge.net/DTD/sodipodi-0.dtd"
   xmlns:xlink="http://www.w3.org/1999/xlink"
   xmlns="http://www.w3.org/2000/svg"
   xmlns:svg="http://www.w3.org/2000/svg">
  <defs
     id="defs3">
    <linearGradient
       id="linearGradient1"
       inkscape:collect="always">
      <stop
         style="stop-color:#a03291;stop-opacity:1;"
         offset="0"
         id="stop1" />
      <stop
         style="stop-color:#ff7c66;stop-opacity:1;"
         offset="0.76340693"
         id="stop2" />
    </linearGradient>
    <linearGradient
       inkscape:collect="always"
       xlink:href="#linearGradient1"
       id="linearGradient2"
       x1="232.4884"
       y1="23.847498"
       x2="23.977745"
       y2="232.35815"
       gradientUnits="userSpaceOnUse" />
  </defs>
  <defs
     id="defs2" />
  <sodipodi:namedview
     id="namedview2"
     pagecolor="#ffffff"
     bordercolor="#000000"
     borderopacity="0.25"
     inkscape:showpageshadow="2"
     inkscape:pageopacity="0.0"
     inkscape:pagecheckerboard="0"
     inkscape:deskcolor="#d1d1d1" />
  <path
     id="path1"
     style="baseline-shift:baseline;display:inline;overflow:visible;vector-effect:none;fill:url(#linearGradient2);stroke-linecap:round;stroke-linejoin:round;enable-background:accumulate;stop-color:#000000;stop-opacity:1;opacity:1;fill-opacity:1"
     d="M 40 56 C 31.258201 56 24 63.258201 24 72 L 24 136 C 24 144.7418 31.258201 152 40 152 L 100 152 L 100 160 C 100 177.76787 85.767869 192 68 192 A 8 8 0 0 0 60 200 A 8 8 0 0 0 68 208 C 94.414911 208 116 186.41491 116 160 L 116 144 L 116 72 C 116 63.258201 108.7418 56 100 56 L 40 56 z M 156 56 C 147.2582 56 140 63.258201 140 72 L 140 136 C 140 144.7418 147.2582 152 156 152 L 216 152 L 216 160 C 216 177.76787 201.76787 192 184 192 A 8 8 0 0 0 176 200 A 8 8 0 0 0 184 208 C 210.41491 208 232 186.41491 232 160 L 232 144 L 232 72 C 232 63.258201 224.7418 56 216 56 L 156 56 z M 40 72 L 100 72 L 100 136 L 40 136 L 40 72 z M 156 72 L 216 72 L 216 136 L 156 136 L 156 72 z " />
</svg>
