<?xml version="1.0" encoding="UTF-8" standalone="no"?>
<svg
   viewBox="0 0 256 256"
   version="1.1"
   id="svg6"
   sodipodi:docname="robot coral_purple.svg"
   xmlns:inkscape="http://www.inkscape.org/namespaces/inkscape"
   xmlns:sodipodi="http://sodipodi.sourceforge.net/DTD/sodipodi-0.dtd"
   xmlns:xlink="http://www.w3.org/1999/xlink"
   xmlns="http://www.w3.org/2000/svg"
   xmlns:svg="http://www.w3.org/2000/svg">
  <defs
     id="defs3">
    <linearGradient
       id="linearGradient1"
       inkscape:collect="always">
      <stop
         style="stop-color:#a03291;stop-opacity:1;"
         offset="0"
         id="stop1" />
      <stop
         style="stop-color:#ff7c66;stop-opacity:1;"
         offset="0.76340693"
         id="stop2" />
    </linearGradient>
    <linearGradient
       inkscape:collect="always"
       xlink:href="#linearGradient1"
       id="linearGradient2"
       x1="232.4884"
       y1="23.847498"
       x2="23.977745"
       y2="232.35815"
       gradientUnits="userSpaceOnUse" />
  </defs>
  <defs
     id="defs6" />
  <sodipodi:namedview
     id="namedview6"
     pagecolor="#ffffff"
     bordercolor="#000000"
     borderopacity="0.25"
     inkscape:showpageshadow="2"
     inkscape:pageopacity="0.0"
     inkscape:pagecheckerboard="0"
     inkscape:deskcolor="#d1d1d1" />
  <path
     id="rect2"
     style="baseline-shift:baseline;display:inline;overflow:visible;vector-effect:none;fill:url(#linearGradient2);stroke-linecap:round;stroke-linejoin:round;enable-background:accumulate;stop-color:#000000;stop-opacity:1;opacity:1;fill-opacity:1"
     d="M 128 8 A 8 8 0 0 0 120 16 L 120 48 L 56 48 C 38.410378 48 24 62.410378 24 80 L 24 192 C 24 209.58962 38.410378 224 56 224 L 200 224 C 217.58962 224 232 209.58962 232 192 L 232 80 C 232 62.410378 217.58962 48 200 48 L 136 48 L 136 16 A 8 8 0 0 0 128 8 z M 56 64 L 200 64 C 209.00238 64 216 70.997622 216 80 L 216 192 C 216 201.00238 209.00238 208 200 208 L 56 208 C 46.997622 208 40 201.00238 40 192 L 40 80 C 40 70.997622 46.997622 64 56 64 z M 84 96 A 12 12 0 0 0 72 108 A 12 12 0 0 0 84 120 A 12 12 0 0 0 96 108 A 12 12 0 0 0 84 96 z M 172 96 A 12 12 0 0 0 160 108 A 12 12 0 0 0 172 120 A 12 12 0 0 0 184 108 A 12 12 0 0 0 172 96 z M 92 136 C 76.626378 136 64 148.62638 64 164 C 64 179.37362 76.626378 192 92 192 L 164 192 C 179.37362 192 192 179.37362 192 164 C 192 148.62638 179.37362 136 164 136 L 92 136 z M 92 152 L 100 152 L 100 176 L 92 176 C 85.213622 176 80 170.78638 80 164 C 80 157.21362 85.213622 152 92 152 z M 116 152 L 140 152 L 140 176 L 116 176 L 116 152 z M 156 152 L 164 152 C 170.78638 152 176 157.21362 176 164 C 176 170.78638 170.78638 176 164 176 L 156 176 L 156 152 z " />
</svg>
