<?xml version="1.0" encoding="UTF-8" standalone="no"?>
<svg
   viewBox="0 0 256 256"
   version="1.1"
   id="svg2"
   sodipodi:docname="sailboat coral_purple.svg"
   xmlns:inkscape="http://www.inkscape.org/namespaces/inkscape"
   xmlns:sodipodi="http://sodipodi.sourceforge.net/DTD/sodipodi-0.dtd"
   xmlns:xlink="http://www.w3.org/1999/xlink"
   xmlns="http://www.w3.org/2000/svg"
   xmlns:svg="http://www.w3.org/2000/svg">
  <defs
     id="defs3">
    <linearGradient
       id="linearGradient1"
       inkscape:collect="always">
      <stop
         style="stop-color:#a03291;stop-opacity:1;"
         offset="0"
         id="stop1" />
      <stop
         style="stop-color:#ff7c66;stop-opacity:1;"
         offset="0.76340693"
         id="stop2" />
    </linearGradient>
    <linearGradient
       inkscape:collect="always"
       xlink:href="#linearGradient1"
       id="linearGradient2"
       x1="232.4884"
       y1="23.847498"
       x2="23.977745"
       y2="232.35815"
       gradientUnits="userSpaceOnUse" />
  </defs>
  <defs
     id="defs2" />
  <sodipodi:namedview
     id="namedview2"
     pagecolor="#ffffff"
     bordercolor="#000000"
     borderopacity="0.25"
     inkscape:showpageshadow="2"
     inkscape:pageopacity="0.0"
     inkscape:pagecheckerboard="0"
     inkscape:deskcolor="#d1d1d1" />
  <path
     id="path1"
     style="baseline-shift:baseline;display:inline;overflow:visible;vector-effect:none;fill:url(#linearGradient2);stroke-linecap:round;stroke-linejoin:round;enable-background:accumulate;stop-color:#000000;stop-opacity:1;opacity:1;fill-opacity:1"
     d="M 135.45117 0.01953125 A 8.0008 8.0008 0 0 0 129.79102 2.9550781 L 25.791016 130.95508 A 8.0008 8.0008 0 0 0 32 144 L 128 144 L 128 168 L 16 168 A 8.0008 8.0008 0 0 0 9.7539062 180.99805 L 39.353516 217.99805 A 8.0008 8.0008 0 0 0 39.355469 218 C 42.386067 221.78522 46.986978 223.99697 51.835938 224 A 8.0008 8.0008 0 0 0 51.839844 224 L 204.16016 224 A 8.0008 8.0008 0 0 0 204.16406 224 C 209.01302 223.997 213.61393 221.78522 216.64453 218 A 8.0008 8.0008 0 0 0 216.64648 217.99805 L 246.24609 180.99805 A 8.0008 8.0008 0 0 0 240 168 L 144 168 L 144 144 L 216 144 A 8.0008 8.0008 0 0 0 221.91992 130.61914 L 144 44.90625 L 144 8 A 8.0008 8.0008 0 0 0 135.45117 0.01953125 z M 128 30.533203 L 128 128 L 48.808594 128 L 128 30.533203 z M 144 68.693359 L 197.91602 128 L 144 128 L 144 68.693359 z M 32.644531 184 L 136 184 L 223.35547 184 L 204.1543 208 L 51.845703 208 L 32.644531 184 z " />
</svg>
