<?xml version="1.0" encoding="UTF-8" standalone="no"?>
<svg
   viewBox="0 0 256 256"
   version="1.1"
   id="svg4"
   sodipodi:docname="scales coral_purple.svg"
   xmlns:inkscape="http://www.inkscape.org/namespaces/inkscape"
   xmlns:sodipodi="http://sodipodi.sourceforge.net/DTD/sodipodi-0.dtd"
   xmlns:xlink="http://www.w3.org/1999/xlink"
   xmlns="http://www.w3.org/2000/svg"
   xmlns:svg="http://www.w3.org/2000/svg">
  <defs
     id="defs3">
    <linearGradient
       id="linearGradient1"
       inkscape:collect="always">
      <stop
         style="stop-color:#a03291;stop-opacity:1;"
         offset="0"
         id="stop1" />
      <stop
         style="stop-color:#ff7c66;stop-opacity:1;"
         offset="0.76340693"
         id="stop2" />
    </linearGradient>
    <linearGradient
       inkscape:collect="always"
       xlink:href="#linearGradient1"
       id="linearGradient2"
       x1="232.4884"
       y1="23.847498"
       x2="23.977745"
       y2="232.35815"
       gradientUnits="userSpaceOnUse" />
  </defs>
  <defs
     id="defs4" />
  <sodipodi:namedview
     id="namedview4"
     pagecolor="#ffffff"
     bordercolor="#000000"
     borderopacity="0.25"
     inkscape:showpageshadow="2"
     inkscape:pageopacity="0.0"
     inkscape:pagecheckerboard="0"
     inkscape:deskcolor="#d1d1d1" />
  <path
     id="line1"
     style="baseline-shift:baseline;display:inline;overflow:visible;vector-effect:none;fill:url(#linearGradient2);stroke-linecap:round;stroke-linejoin:round;enable-background:accumulate;stop-color:#000000;stop-opacity:1;opacity:1;fill-opacity:1"
     d="M 128 32 A 8 8 0 0 0 120 40 L 120 65.583984 L 54.263672 80.191406 A 8 8 0 0 0 54.080078 80.244141 A 8.0008 8.0008 0 0 0 53.603516 80.384766 A 8 8 0 0 0 53.076172 80.564453 A 8.0008 8.0008 0 0 0 52.908203 80.623047 A 8.0008 8.0008 0 0 0 52.632812 80.761719 A 8 8 0 0 0 52.123047 81.015625 A 8.0008 8.0008 0 0 0 51.701172 81.273438 A 8 8 0 0 0 51.25 81.578125 A 8.0008 8.0008 0 0 0 50.855469 81.894531 A 8 8 0 0 0 50.445312 82.257812 A 8.0008 8.0008 0 0 0 50.095703 82.625 A 8 8 0 0 0 49.742188 83.035156 A 8.0008 8.0008 0 0 0 49.441406 83.447266 A 8 8 0 0 0 49.144531 83.898438 A 8.0008 8.0008 0 0 0 48.894531 84.355469 A 8 8 0 0 0 48.669922 84.824219 A 8.0008 8.0008 0 0 0 48.572266 85.029297 L 16.572266 165.0293 A 8.0008 8.0008 0 0 0 16 168 C 16 179.8533 23.337971 188.79468 31.46875 193.53711 C 39.599529 198.27954 48.593333 200 56 200 C 63.406667 200 72.400471 198.27954 80.53125 193.53711 C 88.662029 188.79468 96 179.8533 96 168 A 8.0008 8.0008 0 0 0 95.427734 165.0293 L 66.923828 93.767578 L 120 81.972656 L 120 208 L 104 208 A 8 8 0 0 0 96 216 A 8 8 0 0 0 104 224 L 152 224 A 8 8 0 0 0 160 216 A 8 8 0 0 0 152 208 L 136 208 L 136 78.416016 L 186.94531 67.095703 L 160.57227 133.0293 A 8.0008 8.0008 0 0 0 160 136 C 160 147.8533 167.33797 156.79468 175.46875 161.53711 C 183.59953 166.27954 192.59333 168 200 168 C 207.40667 168 216.40047 166.27954 224.53125 161.53711 C 232.66203 156.79468 240 147.8533 240 136 A 8.0008 8.0008 0 0 0 239.42773 133.0293 L 207.42773 53.029297 A 8.0008 8.0008 0 0 0 207.25781 52.675781 A 8 8 0 0 0 207.02539 52.191406 A 8.0008 8.0008 0 0 0 206.75 51.738281 A 8 8 0 0 0 206.4707 51.310547 A 8.0008 8.0008 0 0 0 206.14844 50.908203 A 8 8 0 0 0 205.78125 50.484375 A 8.0008 8.0008 0 0 0 205.45117 50.167969 A 8 8 0 0 0 205.01172 49.775391 A 8.0008 8.0008 0 0 0 204.62891 49.496094 A 8 8 0 0 0 204.14844 49.169922 A 8.0008 8.0008 0 0 0 203.73047 48.941406 A 8 8 0 0 0 203.22656 48.689453 A 8.0008 8.0008 0 0 0 202.76172 48.509766 A 8 8 0 0 0 202.23633 48.330078 A 8.0008 8.0008 0 0 0 201.76758 48.214844 A 8 8 0 0 0 201.19727 48.101562 A 8.0008 8.0008 0 0 0 200.74805 48.052734 A 8 8 0 0 0 200.15234 48.011719 A 8.0008 8.0008 0 0 0 199.69336 48.021484 A 8 8 0 0 0 199.09766 48.0625 A 8.0008 8.0008 0 0 0 198.64258 48.132812 A 8 8 0 0 0 198.26367 48.191406 L 136 62.027344 L 136 40 A 8 8 0 0 0 128 32 z M 200 77.539062 L 223.85156 137.16992 C 223.48335 142.178 220.97136 145.09056 216.46875 147.7168 C 211.59953 150.55686 204.59333 152 200 152 C 195.40667 152 188.40047 150.55686 183.53125 147.7168 C 179.02864 145.09056 176.51665 142.178 176.14844 137.16992 L 200 77.539062 z M 56 109.53906 L 79.851562 169.16992 C 79.483356 174.178 76.971363 177.09056 72.46875 179.7168 C 67.599529 182.55686 60.593333 184 56 184 C 51.406667 184 44.400471 182.55686 39.53125 179.7168 C 35.028637 177.09056 32.516647 174.178 32.148438 169.16992 L 56 109.53906 z " />
</svg>
