<?xml version="1.0" encoding="UTF-8" standalone="no"?>
<svg
   viewBox="0 0 256 256"
   version="1.1"
   id="svg4"
   sodipodi:docname="screencast coral_purple.svg"
   xmlns:inkscape="http://www.inkscape.org/namespaces/inkscape"
   xmlns:sodipodi="http://sodipodi.sourceforge.net/DTD/sodipodi-0.dtd"
   xmlns:xlink="http://www.w3.org/1999/xlink"
   xmlns="http://www.w3.org/2000/svg"
   xmlns:svg="http://www.w3.org/2000/svg">
  <defs
     id="defs3">
    <linearGradient
       id="linearGradient1"
       inkscape:collect="always">
      <stop
         style="stop-color:#a03291;stop-opacity:1;"
         offset="0"
         id="stop1" />
      <stop
         style="stop-color:#ff7c66;stop-opacity:1;"
         offset="0.76340693"
         id="stop2" />
    </linearGradient>
    <linearGradient
       inkscape:collect="always"
       xlink:href="#linearGradient1"
       id="linearGradient2"
       x1="232.4884"
       y1="23.847498"
       x2="23.977745"
       y2="232.35815"
       gradientUnits="userSpaceOnUse" />
  </defs>
  <defs
     id="defs4" />
  <sodipodi:namedview
     id="namedview4"
     pagecolor="#ffffff"
     bordercolor="#000000"
     borderopacity="0.25"
     inkscape:showpageshadow="2"
     inkscape:pageopacity="0.0"
     inkscape:pagecheckerboard="0"
     inkscape:deskcolor="#d1d1d1" />
  <path
     id="path1"
     style="baseline-shift:baseline;display:inline;overflow:visible;vector-effect:none;fill:url(#linearGradient2);stroke-linecap:round;stroke-linejoin:round;enable-background:accumulate;stop-color:#000000;stop-opacity:1;opacity:1;fill-opacity:1"
     d="M 40 40 C 31.258201 40 24 47.258201 24 56 L 24 96 A 8 8 0 0 0 32 104 A 8 8 0 0 0 40 96 L 40 56 L 216 56 L 216 200 L 144 200 A 8 8 0 0 0 136 208 A 8 8 0 0 0 144 216 L 216 216 C 224.7418 216 232 208.7418 232 200 L 232 56 C 232 47.258201 224.7418 40 216 40 L 40 40 z M 32 120 A 8 8 0 0 0 24 128 A 8 8 0 0 0 32 136 C 71.859259 136 104 168.14074 104 208 A 8 8 0 0 0 112 216 A 8 8 0 0 0 120 208 C 120 159.4937 80.506301 120 32 120 z M 32 152 A 8 8 0 0 0 24 160 A 8 8 0 0 0 32 168 C 54.186147 168 72 185.81385 72 208 A 8 8 0 0 0 80 216 A 8 8 0 0 0 88 208 C 88 177.16681 62.833189 152 32 152 z M 32 184 A 8 8 0 0 0 24 192 A 8 8 0 0 0 32 200 C 36.513035 200 40 203.48696 40 208 A 8 8 0 0 0 48 216 A 8 8 0 0 0 56 208 C 56 194.83992 45.160077 184 32 184 z " />
</svg>
