<?xml version="1.0" encoding="UTF-8" standalone="no"?>
<svg
   viewBox="0 0 256 256"
   version="1.1"
   id="svg2"
   sodipodi:docname="scroll coral_purple.svg"
   xmlns:inkscape="http://www.inkscape.org/namespaces/inkscape"
   xmlns:sodipodi="http://sodipodi.sourceforge.net/DTD/sodipodi-0.dtd"
   xmlns:xlink="http://www.w3.org/1999/xlink"
   xmlns="http://www.w3.org/2000/svg"
   xmlns:svg="http://www.w3.org/2000/svg">
  <defs
     id="defs3">
    <linearGradient
       id="linearGradient1"
       inkscape:collect="always">
      <stop
         style="stop-color:#a03291;stop-opacity:1;"
         offset="0"
         id="stop1" />
      <stop
         style="stop-color:#ff7c66;stop-opacity:1;"
         offset="0.76340693"
         id="stop2" />
    </linearGradient>
    <linearGradient
       inkscape:collect="always"
       xlink:href="#linearGradient1"
       id="linearGradient2"
       x1="232.4884"
       y1="23.847498"
       x2="23.977745"
       y2="232.35815"
       gradientUnits="userSpaceOnUse" />
  </defs>
  <defs
     id="defs2" />
  <sodipodi:namedview
     id="namedview2"
     pagecolor="#ffffff"
     bordercolor="#000000"
     borderopacity="0.25"
     inkscape:showpageshadow="2"
     inkscape:pageopacity="0.0"
     inkscape:pagecheckerboard="0"
     inkscape:deskcolor="#d1d1d1" />
  <path
     id="path1"
     style="baseline-shift:baseline;display:inline;overflow:visible;vector-effect:none;fill:url(#linearGradient2);stroke-linecap:round;stroke-linejoin:round;enable-background:accumulate;stop-color:#000000;stop-opacity:1;opacity:1;fill-opacity:1"
     d="M 40 32 C 22.421653 32 8 46.421639 8 64 C 8 78.266667 19.199219 86.400391 19.199219 86.400391 A 8 8 0 0 0 30.400391 84.800781 A 8 8 0 0 0 28.800781 73.599609 C 28.800781 73.599609 24 69.733333 24 64 C 24 55.068692 31.068704 48.000027 40 48 C 48.93132 48 56 55.068675 56 64 L 56 192 C 56 209.57836 70.421653 224 88 224 L 200 224 C 217.57835 224 232 209.57835 232 192 C 232 177.73333 220.80078 169.59961 220.80078 169.59961 A 8.0008 8.0008 0 0 0 216 168 L 208 168 L 208 64 C 208 46.421645 193.57835 32 176 32 L 40 32 z M 67.673828 48 L 176 48 C 184.93131 48 192 55.068687 192 64 L 192 168 L 104 168 A 8.0008 8.0008 0 0 0 99.199219 182.40039 C 99.199219 182.40039 104 186.26667 104 192 C 104 200.93132 96.93132 208 88 208 C 79.06868 208 72 200.93132 72 192 L 72 64 C 72 58.185357 70.422087 52.716117 67.673828 48 z M 104 96 A 8 8 0 0 0 96 104 A 8 8 0 0 0 104 112 L 168 112 A 8 8 0 0 0 176 104 A 8 8 0 0 0 168 96 L 104 96 z M 104 128 A 8 8 0 0 0 96 136 A 8 8 0 0 0 104 144 L 168 144 A 8 8 0 0 0 176 136 A 8 8 0 0 0 168 128 L 104 128 z M 118.68164 184 L 200 184 L 212.64844 184 C 214.06082 185.50239 216 187.99707 216 192 C 216 200.93131 208.93131 208 200 208 L 115.51758 208 C 118.29162 203.2677 120 197.84405 120 192 C 120 189.04071 119.44551 186.41366 118.68164 184 z " />
</svg>
