<?xml version="1.0" encoding="UTF-8" standalone="no"?>
<svg
   viewBox="0 0 256 256"
   version="1.1"
   id="svg2"
   sodipodi:docname="shovel coral_purple.svg"
   xmlns:inkscape="http://www.inkscape.org/namespaces/inkscape"
   xmlns:sodipodi="http://sodipodi.sourceforge.net/DTD/sodipodi-0.dtd"
   xmlns:xlink="http://www.w3.org/1999/xlink"
   xmlns="http://www.w3.org/2000/svg"
   xmlns:svg="http://www.w3.org/2000/svg">
  <defs
     id="defs3">
    <linearGradient
       id="linearGradient1"
       inkscape:collect="always">
      <stop
         style="stop-color:#a03291;stop-opacity:1;"
         offset="0"
         id="stop1" />
      <stop
         style="stop-color:#ff7c66;stop-opacity:1;"
         offset="0.76340693"
         id="stop2" />
    </linearGradient>
    <linearGradient
       inkscape:collect="always"
       xlink:href="#linearGradient1"
       id="linearGradient2"
       x1="232.4884"
       y1="23.847498"
       x2="23.977745"
       y2="232.35815"
       gradientUnits="userSpaceOnUse" />
  </defs>
  <defs
     id="defs2" />
  <sodipodi:namedview
     id="namedview2"
     pagecolor="#ffffff"
     bordercolor="#000000"
     borderopacity="0.25"
     inkscape:showpageshadow="2"
     inkscape:pageopacity="0.0"
     inkscape:pagecheckerboard="0"
     inkscape:deskcolor="#d1d1d1" />
  <path
     id="line1"
     style="baseline-shift:baseline;display:inline;overflow:visible;vector-effect:none;fill:url(#linearGradient2);stroke-linecap:round;stroke-linejoin:round;enable-background:accumulate;stop-color:#000000;stop-opacity:1;opacity:1;fill-opacity:1"
     d="M 192 8 A 8 8 0 0 0 186.34375 10.34375 A 8 8 0 0 0 186.34375 21.65625 L 204.6875 40 L 133.66016 111.02734 L 99.316406 76.683594 C 96.22544 73.590891 92.11298 72.044922 88 72.044922 C 83.885657 72.044922 79.771002 73.590793 76.679688 76.685547 L 20.683594 132.68359 A 8.0008 8.0008 0 0 0 20.679688 132.68555 C 17.68204 135.68648 15.996665 139.7642 16 144.00586 L 16 224 C 16 232.7418 23.258201 240 32 240 L 111.99414 240 C 116.2358 240.003 120.31348 238.31795 123.31445 235.32031 A 8.0008 8.0008 0 0 0 123.31641 235.31641 L 179.31445 179.32031 L 179.31641 179.31641 C 185.50181 173.13447 185.50181 162.86553 179.31641 156.68359 L 179.31445 156.67969 L 144.97266 122.33984 L 216 51.3125 L 234.34375 69.65625 A 8 8 0 0 0 245.65625 69.65625 A 8 8 0 0 0 245.65625 58.34375 L 221.65625 34.34375 A 8 8 0 0 0 221.6543 34.341797 L 197.65625 10.34375 A 8 8 0 0 0 192 8 z M 88 87.994141 A 8.0008 8.0008 0 0 0 88.003906 87.996094 L 122.34766 122.33984 L 82.34375 162.34375 A 8 8 0 0 0 82.34375 173.65625 A 8 8 0 0 0 93.65625 173.65625 L 133.66016 133.65234 L 168.00391 167.99609 A 8.0008 8.0008 0 0 0 168.00586 168 A 8.0008 8.0008 0 0 0 168.00391 168.00391 L 112.00586 224 A 8.0008 8.0008 0 0 0 112 224 L 32 224 L 32 144 A 8.0008 8.0008 0 0 0 32 143.99414 L 87.996094 87.996094 A 8.0008 8.0008 0 0 0 88 87.994141 z " />
</svg>
