<?xml version="1.0" encoding="UTF-8" standalone="no"?>
<svg
   viewBox="0 0 256 256"
   version="1.1"
   id="svg5"
   sodipodi:docname="shuffle angular coral_purple.svg"
   xmlns:inkscape="http://www.inkscape.org/namespaces/inkscape"
   xmlns:sodipodi="http://sodipodi.sourceforge.net/DTD/sodipodi-0.dtd"
   xmlns:xlink="http://www.w3.org/1999/xlink"
   xmlns="http://www.w3.org/2000/svg"
   xmlns:svg="http://www.w3.org/2000/svg">
  <defs
     id="defs3">
    <linearGradient
       id="linearGradient1"
       inkscape:collect="always">
      <stop
         style="stop-color:#a03291;stop-opacity:1;"
         offset="0"
         id="stop1" />
      <stop
         style="stop-color:#ff7c66;stop-opacity:1;"
         offset="0.76340693"
         id="stop2" />
    </linearGradient>
    <linearGradient
       inkscape:collect="always"
       xlink:href="#linearGradient1"
       id="linearGradient2"
       x1="232.4884"
       y1="23.847498"
       x2="23.977745"
       y2="232.35815"
       gradientUnits="userSpaceOnUse" />
  </defs>
  <defs
     id="defs5" />
  <sodipodi:namedview
     id="namedview5"
     pagecolor="#ffffff"
     bordercolor="#000000"
     borderopacity="0.25"
     inkscape:showpageshadow="2"
     inkscape:pageopacity="0.0"
     inkscape:pagecheckerboard="0"
     inkscape:deskcolor="#d1d1d1" />
  <path
     id="polyline1"
     style="baseline-shift:baseline;display:inline;overflow:visible;vector-effect:none;fill:url(#linearGradient2);stroke-linecap:round;stroke-linejoin:round;enable-background:accumulate;stop-color:#000000;stop-opacity:1;opacity:1;fill-opacity:1"
     d="M 208 40 A 8 8 0 0 0 202.34375 42.34375 A 8 8 0 0 0 202.34375 53.65625 L 212.6875 64 L 168 64 A 8.0008 8.0008 0 0 0 161.49023 67.349609 L 141.15039 95.820312 A 8 8 0 0 0 143.00977 106.97852 A 8 8 0 0 0 154.16992 105.12109 L 172.11719 80 L 212.6875 80 L 202.34375 90.34375 A 8 8 0 0 0 202.34375 101.65625 A 8 8 0 0 0 213.65625 101.65625 L 237.65625 77.65625 A 8.0008 8.0008 0 0 0 237.9375 77.335938 A 8 8 0 0 0 238.32227 76.896484 A 8.0008 8.0008 0 0 0 238.60938 76.474609 A 8 8 0 0 0 238.9043 76.033203 A 8.0008 8.0008 0 0 0 239.14648 75.554688 A 8 8 0 0 0 239.38281 75.078125 A 8.0008 8.0008 0 0 0 239.54688 74.601562 A 8 8 0 0 0 239.7207 74.085938 A 8.0008 8.0008 0 0 0 239.79883 73.707031 A 8 8 0 0 0 240 72 A 8 8 0 0 0 239.79883 70.292969 A 8.0008 8.0008 0 0 0 239.7207 69.914062 A 8 8 0 0 0 239.54688 69.398438 A 8.0008 8.0008 0 0 0 239.38281 68.921875 A 8 8 0 0 0 239.14648 68.445312 A 8.0008 8.0008 0 0 0 238.9043 67.966797 A 8 8 0 0 0 238.60938 67.525391 A 8.0008 8.0008 0 0 0 238.32227 67.103516 A 8 8 0 0 0 237.9375 66.664062 A 8.0008 8.0008 0 0 0 237.65625 66.34375 L 213.65625 42.34375 A 8 8 0 0 0 208 40 z M 32 64 A 8 8 0 0 0 24 72 A 8 8 0 0 0 32 80 L 83.882812 80 L 161.49023 188.65039 A 8.0008 8.0008 0 0 0 168 192 L 212.6875 192 L 202.34375 202.34375 A 8 8 0 0 0 202.34375 213.65625 A 8 8 0 0 0 213.65625 213.65625 L 237.65625 189.65625 A 8.0008 8.0008 0 0 0 237.9375 189.33594 A 8 8 0 0 0 238.32227 188.89648 A 8.0008 8.0008 0 0 0 238.60938 188.47461 A 8 8 0 0 0 238.9043 188.0332 A 8.0008 8.0008 0 0 0 239.14648 187.55469 A 8 8 0 0 0 239.38281 187.07812 A 8.0008 8.0008 0 0 0 239.54688 186.60156 A 8 8 0 0 0 239.7207 186.08594 A 8.0008 8.0008 0 0 0 239.79883 185.70703 A 8 8 0 0 0 240 184 A 8 8 0 0 0 239.79883 182.29297 A 8.0008 8.0008 0 0 0 239.7207 181.91406 A 8 8 0 0 0 239.54688 181.39844 A 8.0008 8.0008 0 0 0 239.38281 180.92188 A 8 8 0 0 0 239.14648 180.44531 A 8.0008 8.0008 0 0 0 238.9043 179.9668 A 8 8 0 0 0 238.60938 179.52539 A 8.0008 8.0008 0 0 0 238.32227 179.10352 A 8 8 0 0 0 237.9375 178.66406 A 8.0008 8.0008 0 0 0 237.65625 178.34375 L 213.65625 154.34375 A 8 8 0 0 0 208 152 A 8 8 0 0 0 202.34375 154.34375 A 8 8 0 0 0 202.34375 165.65625 L 212.6875 176 L 172.11719 176 L 94.509766 67.349609 A 8.0008 8.0008 0 0 0 88 64 L 32 64 z M 108.06641 147.53516 A 8 8 0 0 0 107.02539 147.63867 A 8 8 0 0 0 101.83008 150.87891 L 83.882812 176 L 32 176 A 8 8 0 0 0 24 184 A 8 8 0 0 0 32 192 L 88 192 A 8.0008 8.0008 0 0 0 94.509766 188.65039 L 114.84961 160.17969 A 8 8 0 0 0 112.99023 149.02148 A 8 8 0 0 0 108.06641 147.53516 z " />
</svg>
