<?xml version="1.0" encoding="UTF-8" standalone="no"?>
<svg
   viewBox="0 0 256 256"
   version="1.1"
   id="svg3"
   sodipodi:docname="speaker hifi coral_purple.svg"
   xmlns:inkscape="http://www.inkscape.org/namespaces/inkscape"
   xmlns:sodipodi="http://sodipodi.sourceforge.net/DTD/sodipodi-0.dtd"
   xmlns:xlink="http://www.w3.org/1999/xlink"
   xmlns="http://www.w3.org/2000/svg"
   xmlns:svg="http://www.w3.org/2000/svg">
  <defs
     id="defs3">
    <linearGradient
       id="linearGradient1"
       inkscape:collect="always">
      <stop
         style="stop-color:#a03291;stop-opacity:1;"
         offset="0"
         id="stop1" />
      <stop
         style="stop-color:#ff7c66;stop-opacity:1;"
         offset="0.76340693"
         id="stop2" />
    </linearGradient>
    <linearGradient
       inkscape:collect="always"
       xlink:href="#linearGradient1"
       id="linearGradient2"
       x1="232.4884"
       y1="23.847498"
       x2="23.977745"
       y2="232.35815"
       gradientUnits="userSpaceOnUse" />
  </defs>
  <defs
     id="defs1" />
  <sodipodi:namedview
     id="namedview3"
     pagecolor="#ffffff"
     bordercolor="#000000"
     borderopacity="0.25"
     inkscape:showpageshadow="2"
     inkscape:pageopacity="0.0"
     inkscape:pagecheckerboard="0"
     inkscape:deskcolor="#d1d1d1" />
  <path
     id="rect2"
     style="baseline-shift:baseline;display:inline;overflow:visible;vector-effect:none;fill:url(#linearGradient2);stroke-linecap:round;stroke-linejoin:round;enable-background:accumulate;stop-color:#000000;stop-opacity:1;opacity:1;fill-opacity:1"
     d="M 24 192 C 24 200.72562 31.274378 208 40 208 L 216 208 C 224.72562 208 232 200.72562 232 192 L 232 64 C 232 55.274378 224.72562 48 216 48 L 40 48 C 31.274378 48 24 55.274378 24 64 L 24 192 z M 40 192 L 40 64 L 216 64 L 216 192 L 40 192 z M 64 128 A 12 12 0 0 0 76 140 A 12 12 0 0 0 88 128 A 12 12 0 0 0 76 116 A 12 12 0 0 0 64 128 z M 112 128 C 112 149.99663 130.00337 168 152 168 C 173.99663 168 192 149.99663 192 128 C 192 106.00337 173.99663 88 152 88 C 130.00337 88 112 106.00337 112 128 z M 128 128 C 128 114.65041 138.65041 104 152 104 C 165.34959 104 176 114.65041 176 128 C 176 141.34959 165.34959 152 152 152 C 138.65041 152 128 141.34959 128 128 z "
     transform="translate(256 0) rotate(90)" />
</svg>
