<?xml version="1.0" encoding="UTF-8" standalone="no"?>
<svg
   viewBox="0 0 256 256"
   version="1.1"
   id="svg2"
   sodipodi:docname="spray bottle coral_purple.svg"
   xmlns:inkscape="http://www.inkscape.org/namespaces/inkscape"
   xmlns:sodipodi="http://sodipodi.sourceforge.net/DTD/sodipodi-0.dtd"
   xmlns:xlink="http://www.w3.org/1999/xlink"
   xmlns="http://www.w3.org/2000/svg"
   xmlns:svg="http://www.w3.org/2000/svg">
  <defs
     id="defs3">
    <linearGradient
       id="linearGradient1"
       inkscape:collect="always">
      <stop
         style="stop-color:#a03291;stop-opacity:1;"
         offset="0"
         id="stop1" />
      <stop
         style="stop-color:#ff7c66;stop-opacity:1;"
         offset="0.76340693"
         id="stop2" />
    </linearGradient>
    <linearGradient
       inkscape:collect="always"
       xlink:href="#linearGradient1"
       id="linearGradient2"
       x1="232.4884"
       y1="23.847498"
       x2="23.977745"
       y2="232.35815"
       gradientUnits="userSpaceOnUse" />
  </defs>
  <defs
     id="defs2" />
  <sodipodi:namedview
     id="namedview2"
     pagecolor="#ffffff"
     bordercolor="#000000"
     borderopacity="0.25"
     inkscape:showpageshadow="2"
     inkscape:pageopacity="0.0"
     inkscape:pagecheckerboard="0"
     inkscape:deskcolor="#d1d1d1" />
  <path
     id="path1"
     style="baseline-shift:baseline;display:inline;overflow:visible;vector-effect:none;fill:url(#linearGradient2);stroke-linecap:round;stroke-linejoin:round;enable-background:accumulate;stop-color:#000000;stop-opacity:1;opacity:1;fill-opacity:1"
     d="M 80 16 C 71.258201 16 64 23.258201 64 32 L 64 72 L 64 80 C 64 93.349591 53.349591 104 40 104 A 8 8 0 0 0 32 112 A 8 8 0 0 0 40 120 C 61.996633 120 80 101.99663 80 80 L 112 80 L 112 104.59961 A 8.0008 8.0008 0 0 0 112 104.60547 C 112.005 111.90418 108.69756 118.79378 103 123.35547 L 87.007812 136.12891 A 8.0008 8.0008 0 0 0 87 136.13477 C 77.51641 143.72771 71.992406 155.23605 72 167.38477 L 72 224 C 72 232.7418 79.258201 240 88 240 L 192 240 C 200.7418 240 208 232.7418 208 224 L 208 211.4707 C 208.00043 165.39631 196.25948 120.16068 173.99414 80 L 200 80 A 8.0008 8.0008 0 0 0 208 72 C 208 41.166811 182.83319 16 152 16 L 80 16 z M 80 32 L 152 32 C 171.44298 32 187.51884 45.684624 191.19922 64 L 120 64 L 80 64 L 80 32 z M 128 80 L 155.52148 80 C 179.3762 119.67551 192.00043 165.1206 192 211.4707 L 192 224 L 88 224 L 88 167.38086 A 8.0008 8.0008 0 0 0 88 167.375 C 87.9954 160.07629 91.302444 153.18669 97 148.625 L 112.99219 135.85156 A 8.0008 8.0008 0 0 0 113 135.8457 C 122.48359 128.25276 128.00759 116.74442 128 104.5957 L 128 80 z " />
</svg>
