<?xml version="1.0" encoding="UTF-8" standalone="no"?>
<svg
   viewBox="0 0 256 256"
   version="1.1"
   id="svg5"
   sodipodi:docname="subtitles coral_purple.svg"
   xmlns:inkscape="http://www.inkscape.org/namespaces/inkscape"
   xmlns:sodipodi="http://sodipodi.sourceforge.net/DTD/sodipodi-0.dtd"
   xmlns:xlink="http://www.w3.org/1999/xlink"
   xmlns="http://www.w3.org/2000/svg"
   xmlns:svg="http://www.w3.org/2000/svg">
  <defs
     id="defs3">
    <linearGradient
       id="linearGradient1"
       inkscape:collect="always">
      <stop
         style="stop-color:#a03291;stop-opacity:1;"
         offset="0"
         id="stop1" />
      <stop
         style="stop-color:#ff7c66;stop-opacity:1;"
         offset="0.76340693"
         id="stop2" />
    </linearGradient>
    <linearGradient
       inkscape:collect="always"
       xlink:href="#linearGradient1"
       id="linearGradient2"
       x1="232.4884"
       y1="23.847498"
       x2="23.977745"
       y2="232.35815"
       gradientUnits="userSpaceOnUse" />
  </defs>
  <defs
     id="defs5" />
  <sodipodi:namedview
     id="namedview5"
     pagecolor="#ffffff"
     bordercolor="#000000"
     borderopacity="0.25"
     inkscape:showpageshadow="2"
     inkscape:pageopacity="0.0"
     inkscape:pagecheckerboard="0"
     inkscape:deskcolor="#d1d1d1" />
  <path
     id="rect2"
     style="baseline-shift:baseline;display:inline;overflow:visible;vector-effect:none;fill:url(#linearGradient2);stroke-linecap:round;stroke-linejoin:round;enable-background:accumulate;stop-color:#000000;stop-opacity:1;opacity:1;fill-opacity:1"
     d="M 32 48 C 23.274378 48 16 55.274378 16 64 L 16 192 C 16 200.72562 23.274378 208 32 208 L 224 208 C 232.72562 208 240 200.72562 240 192 L 240 64 C 240 55.274378 232.72562 48 224 48 L 32 48 z M 32 64 L 224 64 L 224 192 L 32 192 L 32 64 z M 56 128 A 8 8 0 0 0 48 136 A 8 8 0 0 0 56 144 L 72 144 A 8 8 0 0 0 80 136 A 8 8 0 0 0 72 128 L 56 128 z M 104 128 A 8 8 0 0 0 96 136 A 8 8 0 0 0 104 144 L 200 144 A 8 8 0 0 0 208 136 A 8 8 0 0 0 200 128 L 104 128 z M 56 160 A 8 8 0 0 0 48 168 A 8 8 0 0 0 56 176 L 152 176 A 8 8 0 0 0 160 168 A 8 8 0 0 0 152 160 L 56 160 z M 184 160 A 8 8 0 0 0 176 168 A 8 8 0 0 0 184 176 L 200 176 A 8 8 0 0 0 208 168 A 8 8 0 0 0 200 160 L 184 160 z " />
</svg>
