<?xml version="1.0" encoding="UTF-8" standalone="no"?>
<svg
   viewBox="0 0 256 256"
   version="1.1"
   id="svg8"
   sodipodi:docname="sun dim coral_purple.svg"
   xmlns:inkscape="http://www.inkscape.org/namespaces/inkscape"
   xmlns:sodipodi="http://sodipodi.sourceforge.net/DTD/sodipodi-0.dtd"
   xmlns:xlink="http://www.w3.org/1999/xlink"
   xmlns="http://www.w3.org/2000/svg"
   xmlns:svg="http://www.w3.org/2000/svg">
  <defs
     id="defs3">
    <linearGradient
       id="linearGradient1"
       inkscape:collect="always">
      <stop
         style="stop-color:#a03291;stop-opacity:1;"
         offset="0"
         id="stop1" />
      <stop
         style="stop-color:#ff7c66;stop-opacity:1;"
         offset="0.76340693"
         id="stop2" />
    </linearGradient>
    <linearGradient
       inkscape:collect="always"
       xlink:href="#linearGradient1"
       id="linearGradient2"
       x1="232.4884"
       y1="23.847498"
       x2="23.977745"
       y2="232.35815"
       gradientUnits="userSpaceOnUse" />
  </defs>
  <defs
     id="defs8" />
  <sodipodi:namedview
     id="namedview8"
     pagecolor="#ffffff"
     bordercolor="#000000"
     borderopacity="0.25"
     inkscape:showpageshadow="2"
     inkscape:pageopacity="0.0"
     inkscape:pagecheckerboard="0"
     inkscape:deskcolor="#d1d1d1" />
  <path
     id="line1"
     style="baseline-shift:baseline;display:inline;overflow:visible;vector-effect:none;fill:url(#linearGradient2);stroke-linecap:round;stroke-linejoin:round;enable-background:accumulate;stop-color:#000000;stop-opacity:1;opacity:1;fill-opacity:1"
     d="M 128 24 A 8 8 0 0 0 120 32 L 120 40 A 8 8 0 0 0 128 48 A 8 8 0 0 0 136 40 L 136 32 A 8 8 0 0 0 128 24 z M 56 48 A 8 8 0 0 0 50.34375 50.34375 A 8 8 0 0 0 50.34375 61.65625 L 58.34375 69.65625 A 8 8 0 0 0 69.65625 69.65625 A 8 8 0 0 0 69.65625 58.34375 L 61.65625 50.34375 A 8 8 0 0 0 56 48 z M 200 48 A 8 8 0 0 0 194.34375 50.34375 L 186.34375 58.34375 A 8 8 0 0 0 186.34375 69.65625 A 8 8 0 0 0 197.65625 69.65625 L 205.65625 61.65625 A 8 8 0 0 0 205.65625 50.34375 A 8 8 0 0 0 200 48 z M 128 64 C 92.748533 64 64 92.748533 64 128 C 64 163.25147 92.748533 192 128 192 C 163.25147 192 192 163.25147 192 128 C 192 92.748533 163.25147 64 128 64 z M 128 80 C 154.60443 80 176 101.39557 176 128 C 176 154.60443 154.60443 176 128 176 C 101.39557 176 80 154.60443 80 128 C 80 101.39557 101.39557 80 128 80 z M 32 120 A 8 8 0 0 0 24 128 A 8 8 0 0 0 32 136 L 40 136 A 8 8 0 0 0 48 128 A 8 8 0 0 0 40 120 L 32 120 z M 216 120 A 8 8 0 0 0 208 128 A 8 8 0 0 0 216 136 L 224 136 A 8 8 0 0 0 232 128 A 8 8 0 0 0 224 120 L 216 120 z M 64 184 A 8 8 0 0 0 58.34375 186.34375 L 50.34375 194.34375 A 8 8 0 0 0 50.34375 205.65625 A 8 8 0 0 0 61.65625 205.65625 L 69.65625 197.65625 A 8 8 0 0 0 69.65625 186.34375 A 8 8 0 0 0 64 184 z M 192 184 A 8 8 0 0 0 186.34375 186.34375 A 8 8 0 0 0 186.34375 197.65625 L 194.34375 205.65625 A 8 8 0 0 0 205.65625 205.65625 A 8 8 0 0 0 205.65625 194.34375 L 197.65625 186.34375 A 8 8 0 0 0 192 184 z M 128 208 A 8 8 0 0 0 120 216 L 120 224 A 8 8 0 0 0 128 232 A 8 8 0 0 0 136 224 L 136 216 A 8 8 0 0 0 128 208 z " />
</svg>
