<?xml version="1.0" encoding="UTF-8" standalone="no"?>
<svg
   viewBox="0 0 256 256"
   version="1.1"
   id="svg3"
   sodipodi:docname="swatches coral_purple.svg"
   xmlns:inkscape="http://www.inkscape.org/namespaces/inkscape"
   xmlns:sodipodi="http://sodipodi.sourceforge.net/DTD/sodipodi-0.dtd"
   xmlns:xlink="http://www.w3.org/1999/xlink"
   xmlns="http://www.w3.org/2000/svg"
   xmlns:svg="http://www.w3.org/2000/svg">
  <defs
     id="defs3">
    <linearGradient
       id="linearGradient1"
       inkscape:collect="always">
      <stop
         style="stop-color:#a03291;stop-opacity:1;"
         offset="0"
         id="stop1" />
      <stop
         style="stop-color:#ff7c66;stop-opacity:1;"
         offset="0.76340693"
         id="stop2" />
    </linearGradient>
    <linearGradient
       inkscape:collect="always"
       xlink:href="#linearGradient1"
       id="linearGradient2"
       x1="232.4884"
       y1="23.847498"
       x2="23.977745"
       y2="232.35815"
       gradientUnits="userSpaceOnUse" />
  </defs>
  <defs
     id="defs1" />
  <sodipodi:namedview
     id="namedview3"
     pagecolor="#ffffff"
     bordercolor="#000000"
     borderopacity="0.25"
     inkscape:showpageshadow="2"
     inkscape:pageopacity="0.0"
     inkscape:pagecheckerboard="0"
     inkscape:deskcolor="#d1d1d1" />
  <path
     id="circle1"
     style="baseline-shift:baseline;display:inline;overflow:visible;vector-effect:none;fill:url(#linearGradient2);stroke-linecap:round;stroke-linejoin:round;enable-background:accumulate;stop-color:#000000;stop-opacity:1;opacity:1;fill-opacity:1"
     d="M 72.869141 16.027344 C 65.526142 16.311968 59.00361 21.735198 57.673828 29.208984 A 8.0008 8.0008 0 0 0 57.669922 29.234375 L 32.673828 172.33984 L 32.673828 172.3418 C 28.45477 196.08238 44.339437 218.96844 68.056641 223.31836 A 8.0008 8.0008 0 0 0 68.125 223.33203 C 70.586941 223.76132 73.039389 223.97393 75.460938 223.98242 A 8 8 0 0 0 75.990234 224 A 8 8 0 0 0 76 224 C 76.030583 224.00003 76.061217 224.00004 76.091797 224 L 224 224 C 232.7418 224 240 216.7418 240 208 L 240 156.18945 A 8 8 0 0 0 239.9668 155.46875 C 239.90829 153.87692 239.6075 152.27363 239.03906 150.70898 A 8.0008 8.0008 0 0 0 239.0332 150.69336 L 219.94336 98.482422 A 8.0008 8.0008 0 0 0 219.93359 98.455078 C 217.67185 92.338036 211.90496 88.39193 205.71289 88.046875 C 203.64887 87.931857 201.53892 88.216864 199.49414 88.955078 A 8.0008 8.0008 0 0 0 199.48438 88.958984 L 131.66602 113.53711 L 143.72852 44.5 L 143.72852 44.496094 C 145.23903 35.92434 139.4101 27.54534 130.84766 25.980469 A 8.0008 8.0008 0 0 0 130.8125 25.974609 L 76.142578 16.244141 A 8.0008 8.0008 0 0 0 76.052734 16.228516 C 74.982999 16.05044 73.91814 15.986683 72.869141 16.027344 z M 73.427734 32.011719 L 127.97266 41.720703 A 8.0008 8.0008 0 0 0 127.96875 41.732422 L 102.95898 184.87305 A 8.0008 8.0008 0 0 0 102.95312 184.91016 C 100.69143 198.22787 89.491402 207.60798 76.539062 207.97852 C 74.688728 208.03145 72.803288 207.89987 70.902344 207.57031 C 55.683425 204.75549 45.716018 190.38446 48.425781 175.14062 A 8.0008 8.0008 0 0 0 48.431641 175.11719 L 73.427734 32.011719 z M 204.92578 104.00586 L 223.97656 156.10547 L 116.80664 194.94727 C 117.64724 192.59289 118.29422 190.13553 118.72656 187.58984 L 128.49023 131.70703 L 204.92578 104.00586 z M 76 168 A 12 12 0 0 0 64 180 A 12 12 0 0 0 76 192 A 12 12 0 0 0 88 180 A 12 12 0 0 0 76 168 z M 224 173.11719 L 224 208 L 127.75195 208 L 224 173.11719 z " />
</svg>
