<?xml version="1.0" encoding="UTF-8" standalone="no"?>
<svg
   viewBox="0 0 256 256"
   version="1.1"
   id="svg3"
   sodipodi:docname="t shirt coral_purple.svg"
   xmlns:inkscape="http://www.inkscape.org/namespaces/inkscape"
   xmlns:sodipodi="http://sodipodi.sourceforge.net/DTD/sodipodi-0.dtd"
   xmlns:xlink="http://www.w3.org/1999/xlink"
   xmlns="http://www.w3.org/2000/svg"
   xmlns:svg="http://www.w3.org/2000/svg">
  <defs
     id="defs3">
    <linearGradient
       id="linearGradient1"
       inkscape:collect="always">
      <stop
         style="stop-color:#a03291;stop-opacity:1;"
         offset="0"
         id="stop1" />
      <stop
         style="stop-color:#ff7c66;stop-opacity:1;"
         offset="0.76340693"
         id="stop2" />
    </linearGradient>
    <linearGradient
       inkscape:collect="always"
       xlink:href="#linearGradient1"
       id="linearGradient2"
       x1="232.4884"
       y1="23.847498"
       x2="23.977745"
       y2="232.35815"
       gradientUnits="userSpaceOnUse" />
  </defs>
  <defs
     id="defs1" />
  <sodipodi:namedview
     id="namedview3"
     pagecolor="#ffffff"
     bordercolor="#000000"
     borderopacity="0.25"
     inkscape:showpageshadow="2"
     inkscape:pageopacity="0.0"
     inkscape:pagecheckerboard="0"
     inkscape:deskcolor="#d1d1d1" />
  <path
     id="path1"
     style="baseline-shift:baseline;display:inline;overflow:visible;vector-effect:none;fill:url(#linearGradient2);stroke-linecap:round;stroke-linejoin:round;enable-background:accumulate;stop-color:#000000;stop-opacity:1;opacity:1;fill-opacity:1"
     d="M 64 32 A 8.0008 8.0008 0 0 0 63.634766 32.023438 A 8 8 0 0 0 63.009766 32.064453 A 8.0008 8.0008 0 0 0 62.583984 32.142578 A 8 8 0 0 0 61.994141 32.259766 A 8.0008 8.0008 0 0 0 61.601562 32.384766 A 8 8 0 0 0 61.003906 32.587891 A 8.0008 8.0008 0 0 0 60.638672 32.757812 A 8 8 0 0 0 60.167969 32.976562 L 8.5273438 61.152344 C 0.87561214 65.133892 -2.179823 74.7899 1.7871094 82.449219 A 8.0008 8.0008 0 0 0 1.8027344 82.480469 L 21.072266 119.29102 A 8.0008 8.0008 0 0 0 21.125 119.39062 C 24.017469 124.73091 29.66134 128.05661 35.734375 128 L 56 128 L 56 208 C 56 216.7418 63.258201 224 72 224 L 184 224 C 192.7418 224 200 216.7418 200 208 L 200 128 L 220.26562 128 C 226.33866 128.0566 231.98253 124.73089 234.875 119.39062 A 8.0008 8.0008 0 0 0 234.92773 119.29102 L 254.19727 82.480469 A 8.0008 8.0008 0 0 0 254.21289 82.449219 C 258.17982 74.7899 255.12439 65.133892 247.47266 61.152344 L 195.83203 32.976562 A 8 8 0 0 0 195.36133 32.757812 A 8.0008 8.0008 0 0 0 194.99609 32.587891 A 8 8 0 0 0 194.39844 32.384766 A 8.0008 8.0008 0 0 0 194.00586 32.259766 A 8 8 0 0 0 193.41602 32.142578 A 8.0008 8.0008 0 0 0 192.99023 32.064453 A 8 8 0 0 0 192.36523 32.023438 A 8.0008 8.0008 0 0 0 192 32 L 191.90234 32 L 160 32 A 8.0008 8.0008 0 0 0 152 40 C 152 53.349606 141.3496 64 128 64 C 114.6504 64 104 53.349606 104 40 A 8.0008 8.0008 0 0 0 96 32 L 64.097656 32 L 64 32 z M 72 48 L 88.8125 48 C 92.545955 66.198863 108.74091 80 128 80 C 147.25909 80 163.45405 66.198863 167.1875 48 L 184 48 L 184 120 L 184 208 L 72 208 L 72 120 L 72 48 z M 56 53.478516 L 56 112 L 35.660156 112 A 8.0008 8.0008 0 0 0 35.585938 112 C 35.407792 112.002 35.280161 111.9262 35.195312 111.76953 L 16.082031 75.255859 L 56 53.478516 z M 200 53.478516 L 239.91797 75.255859 L 220.80469 111.76953 C 220.71989 111.92618 220.59221 112.00166 220.41406 112 A 8.0008 8.0008 0 0 0 220.33984 112 L 200 112 L 200 53.478516 z " />
</svg>
