<?xml version="1.0" encoding="UTF-8" standalone="no"?>
<svg
   viewBox="0 0 256 256"
   version="1.1"
   id="svg1"
   sodipodi:docname="tag coral_purple.svg"
   xmlns:inkscape="http://www.inkscape.org/namespaces/inkscape"
   xmlns:sodipodi="http://sodipodi.sourceforge.net/DTD/sodipodi-0.dtd"
   xmlns:xlink="http://www.w3.org/1999/xlink"
   xmlns="http://www.w3.org/2000/svg"
   xmlns:svg="http://www.w3.org/2000/svg">
  <defs
     id="defs3">
    <linearGradient
       id="linearGradient1"
       inkscape:collect="always">
      <stop
         style="stop-color:#a03291;stop-opacity:1;"
         offset="0"
         id="stop1" />
      <stop
         style="stop-color:#ff7c66;stop-opacity:1;"
         offset="0.76340693"
         id="stop2" />
    </linearGradient>
    <linearGradient
       inkscape:collect="always"
       xlink:href="#linearGradient1"
       id="linearGradient2"
       x1="232.4884"
       y1="23.847498"
       x2="23.977745"
       y2="232.35815"
       gradientUnits="userSpaceOnUse" />
  </defs>
  <defs
     id="defs1" />
  <sodipodi:namedview
     id="namedview1"
     pagecolor="#ffffff"
     bordercolor="#000000"
     borderopacity="0.25"
     inkscape:showpageshadow="2"
     inkscape:pageopacity="0.0"
     inkscape:pagecheckerboard="0"
     inkscape:deskcolor="#d1d1d1" />
  <path
     id="path1"
     style="baseline-shift:baseline;display:inline;overflow:visible;vector-effect:none;fill:url(#linearGradient2);stroke-linecap:round;stroke-linejoin:round;enable-background:accumulate;stop-color:#000000;stop-opacity:1;opacity:1;fill-opacity:1"
     d="M 40 32 A 8.0008 8.0008 0 0 0 32 40 L 32 132.68945 A 8.0008 8.0008 0 0 0 32 132.69336 C 32.002 136.92812 33.686926 140.99805 36.679688 143.99414 A 8.0008 8.0008 0 0 0 36.683594 143.99805 L 136.0332 243.31836 A 8.0008 8.0008 0 0 0 136.03516 243.31836 C 142.21581 249.49496 152.47365 249.49496 158.6543 243.31836 A 8.0008 8.0008 0 0 0 158.6582 243.31641 L 243.31836 158.625 C 249.49496 152.44435 249.49496 142.18651 243.31836 136.00586 A 8.0008 8.0008 0 0 0 243.31641 136.00391 L 143.99609 36.683594 A 8.0008 8.0008 0 0 0 143.99414 36.679688 C 140.9981 33.68692 136.92812 32.001963 132.69336 32 A 8.0008 8.0008 0 0 0 132.68945 32 L 40 32 z M 48 48 L 132.68555 48 L 232.00195 147.31445 L 147.34375 232 L 48 132.68555 L 48 48 z M 84 72 A 12 12 0 0 0 72 84 A 12 12 0 0 0 84 96 A 12 12 0 0 0 96 84 A 12 12 0 0 0 84 72 z " />
</svg>
