<?xml version="1.0" encoding="UTF-8" standalone="no"?>
<svg
   viewBox="0 0 256 256"
   version="1.1"
   id="svg3"
   sodipodi:docname="text indent coral_purple.svg"
   xmlns:inkscape="http://www.inkscape.org/namespaces/inkscape"
   xmlns:sodipodi="http://sodipodi.sourceforge.net/DTD/sodipodi-0.dtd"
   xmlns:xlink="http://www.w3.org/1999/xlink"
   xmlns="http://www.w3.org/2000/svg"
   xmlns:svg="http://www.w3.org/2000/svg">
  <defs
     id="defs3">
    <linearGradient
       id="linearGradient1"
       inkscape:collect="always">
      <stop
         style="stop-color:#a03291;stop-opacity:1;"
         offset="0"
         id="stop1" />
      <stop
         style="stop-color:#ff7c66;stop-opacity:1;"
         offset="0.76340693"
         id="stop2" />
    </linearGradient>
    <linearGradient
       inkscape:collect="always"
       xlink:href="#linearGradient1"
       id="linearGradient2"
       x1="232.4884"
       y1="23.847498"
       x2="23.977745"
       y2="232.35815"
       gradientUnits="userSpaceOnUse" />
  </defs>
  <defs
     id="defs1" />
  <sodipodi:namedview
     id="namedview3"
     pagecolor="#ffffff"
     bordercolor="#000000"
     borderopacity="0.25"
     inkscape:showpageshadow="2"
     inkscape:pageopacity="0.0"
     inkscape:pagecheckerboard="0"
     inkscape:deskcolor="#d1d1d1" />
  <path
     id="line1"
     style="baseline-shift:baseline;display:inline;overflow:visible;vector-effect:none;fill:url(#linearGradient2);stroke-linecap:round;stroke-linejoin:round;enable-background:accumulate;stop-color:#000000;stop-opacity:1;opacity:1;fill-opacity:1"
     d="M 40 48 A 8 8 0 0 0 34.34375 50.34375 A 8 8 0 0 0 34.34375 61.65625 L 68.6875 96 L 34.34375 130.34375 A 8 8 0 0 0 34.34375 141.65625 A 8 8 0 0 0 45.65625 141.65625 L 85.65625 101.65625 A 8.0008 8.0008 0 0 0 85.65625 90.34375 L 45.65625 50.34375 A 8 8 0 0 0 40 48 z M 112 56 A 8 8 0 0 0 104 64 A 8 8 0 0 0 112 72 L 216 72 A 8 8 0 0 0 224 64 A 8 8 0 0 0 216 56 L 112 56 z M 112 120 A 8 8 0 0 0 104 128 A 8 8 0 0 0 112 136 L 216 136 A 8 8 0 0 0 224 128 A 8 8 0 0 0 216 120 L 112 120 z M 40 184 A 8 8 0 0 0 32 192 A 8 8 0 0 0 40 200 L 216 200 A 8 8 0 0 0 224 192 A 8 8 0 0 0 216 184 L 40 184 z " />
</svg>
