<?xml version="1.0" encoding="UTF-8" standalone="no"?>
<svg
   viewBox="0 0 256 256"
   version="1.1"
   id="svg1"
   sodipodi:docname="text aa coral_purple.svg"
   xmlns:inkscape="http://www.inkscape.org/namespaces/inkscape"
   xmlns:sodipodi="http://sodipodi.sourceforge.net/DTD/sodipodi-0.dtd"
   xmlns:xlink="http://www.w3.org/1999/xlink"
   xmlns="http://www.w3.org/2000/svg"
   xmlns:svg="http://www.w3.org/2000/svg">
  <defs
     id="defs3">
    <linearGradient
       id="linearGradient1"
       inkscape:collect="always">
      <stop
         style="stop-color:#a03291;stop-opacity:1;"
         offset="0"
         id="stop1" />
      <stop
         style="stop-color:#ff7c66;stop-opacity:1;"
         offset="0.76340693"
         id="stop2" />
    </linearGradient>
    <linearGradient
       inkscape:collect="always"
       xlink:href="#linearGradient1"
       id="linearGradient2"
       x1="232.4884"
       y1="23.847498"
       x2="23.977745"
       y2="232.35815"
       gradientUnits="userSpaceOnUse" />
  </defs>
  <defs
     id="defs1" />
  <sodipodi:namedview
     id="namedview1"
     pagecolor="#ffffff"
     bordercolor="#000000"
     borderopacity="0.25"
     inkscape:showpageshadow="2"
     inkscape:pageopacity="0.0"
     inkscape:pagecheckerboard="0"
     inkscape:deskcolor="#d1d1d1" />
  <path
     id="polyline1"
     style="baseline-shift:baseline;display:inline;overflow:visible;vector-effect:none;fill:url(#linearGradient2);stroke-linecap:round;stroke-linejoin:round;enable-background:accumulate;stop-color:#000000;stop-opacity:1;opacity:1;fill-opacity:1"
     d="M 80.273438 48.005859 A 8.0008 8.0008 0 0 0 77.054688 48.5625 A 8.0008 8.0008 0 0 0 72.761719 52.59375 L 27.681641 148.39062 A 8 8 0 0 0 27.488281 148.80078 L 8.7617188 188.59375 A 8 8 0 0 0 12.59375 199.23828 A 8 8 0 0 0 23.238281 195.40625 L 39.900391 160 L 120.09961 160 L 136.76172 195.40625 A 8 8 0 0 0 147.40625 199.23828 A 8 8 0 0 0 151.23828 188.59375 L 132.51172 148.80078 A 8 8 0 0 0 132.31836 148.39062 L 87.238281 52.59375 A 8.0008 8.0008 0 0 0 80.273438 48.005859 z M 80 74.787109 L 112.57031 144 L 47.429688 144 L 80 74.787109 z M 200 96 C 189.22382 96 178.28481 98.456756 170.36328 106.32422 A 8 8 0 0 0 170.32422 117.63672 A 8 8 0 0 0 181.63672 117.67578 C 185.43523 113.9032 191.65618 112 200 112 C 213.88505 112 224 121.48351 224 132 L 224 135.22461 C 217.232 130.66135 208.86456 128 200 128 C 178.54381 128 160 143.59486 160 164 C 160 184.40514 178.54381 200 200 200 C 208.87999 200 217.26096 197.32978 224.03516 192.75195 A 8 8 0 0 0 232 200 A 8 8 0 0 0 240 192 L 240 132 C 240 111.59649 221.45495 96 200 96 z M 200 144 C 213.89003 144 224 153.47719 224 164 C 224 174.52281 213.89003 184 200 184 C 186.10997 184 176 174.52281 176 164 C 176 153.47719 186.10997 144 200 144 z " />
</svg>
