<?xml version="1.0" encoding="UTF-8" standalone="no"?>
<svg
   viewBox="0 0 256 256"
   version="1.1"
   id="svg3"
   sodipodi:docname="toilet coral_purple.svg"
   xmlns:inkscape="http://www.inkscape.org/namespaces/inkscape"
   xmlns:sodipodi="http://sodipodi.sourceforge.net/DTD/sodipodi-0.dtd"
   xmlns:xlink="http://www.w3.org/1999/xlink"
   xmlns="http://www.w3.org/2000/svg"
   xmlns:svg="http://www.w3.org/2000/svg">
  <defs
     id="defs3">
    <linearGradient
       id="linearGradient1"
       inkscape:collect="always">
      <stop
         style="stop-color:#a03291;stop-opacity:1;"
         offset="0"
         id="stop1" />
      <stop
         style="stop-color:#ff7c66;stop-opacity:1;"
         offset="0.76340693"
         id="stop2" />
    </linearGradient>
    <linearGradient
       inkscape:collect="always"
       xlink:href="#linearGradient1"
       id="linearGradient2"
       x1="232.4884"
       y1="23.847498"
       x2="23.977745"
       y2="232.35815"
       gradientUnits="userSpaceOnUse" />
  </defs>
  <defs
     id="defs1" />
  <sodipodi:namedview
     id="namedview3"
     pagecolor="#ffffff"
     bordercolor="#000000"
     borderopacity="0.25"
     inkscape:showpageshadow="2"
     inkscape:pageopacity="0.0"
     inkscape:pagecheckerboard="0"
     inkscape:deskcolor="#d1d1d1" />
  <path
     id="path1"
     style="baseline-shift:baseline;display:inline;overflow:visible;vector-effect:none;fill:url(#linearGradient2);stroke-linecap:round;stroke-linejoin:round;enable-background:accumulate;stop-color:#000000;stop-opacity:1;opacity:1;fill-opacity:1"
     d="M 72 24 C 63.258201 24 56 31.258201 56 40 L 56 104 L 40 104 A 8.0008 8.0008 0 0 0 32 112 C 32 148.94788 52.993135 181.09647 83.675781 197.13867 L 80.160156 221.73828 A 8.0008 8.0008 0 0 0 80.160156 221.74023 C 78.805398 231.23523 86.408793 240.00025 96 240 L 160 240 C 169.59121 240.00025 177.1946 231.23528 175.83984 221.74023 A 8.0008 8.0008 0 0 0 175.83984 221.73828 L 172.32422 197.13867 C 203.00686 181.09647 224 148.94788 224 112 A 8.0008 8.0008 0 0 0 216 104 L 200 104 L 200 40 C 200 31.258201 192.7418 24 184 24 L 72 24 z M 72 40 L 184 40 L 184 104 L 72 104 L 72 40 z M 96 56 A 8 8 0 0 0 88 64 A 8 8 0 0 0 96 72 L 112 72 A 8 8 0 0 0 120 64 A 8 8 0 0 0 112 56 L 96 56 z M 48.402344 120 L 207.59766 120 C 204.72975 149.05278 186.41261 173.47261 160.93945 184.95703 A 8 8 0 0 0 159.78125 185.46875 C 150.04672 189.67234 139.30228 192 128 192 C 116.69772 192 105.95328 189.67234 96.21875 185.46875 A 8 8 0 0 0 95.060547 184.95703 C 69.58739 173.47261 51.270246 149.05277 48.402344 120 z M 98.929688 203.5 C 108.10355 206.42216 117.87188 208 128 208 C 138.12812 208 147.89645 206.42216 157.07031 203.5 L 160 224 L 96 224 L 98.929688 203.5 z " />
</svg>
