<?xml version="1.0" encoding="UTF-8" standalone="no"?>
<svg
   viewBox="0 0 256 256"
   version="1.1"
   id="svg4"
   sodipodi:docname="toolbox coral_purple.svg"
   xmlns:inkscape="http://www.inkscape.org/namespaces/inkscape"
   xmlns:sodipodi="http://sodipodi.sourceforge.net/DTD/sodipodi-0.dtd"
   xmlns:xlink="http://www.w3.org/1999/xlink"
   xmlns="http://www.w3.org/2000/svg"
   xmlns:svg="http://www.w3.org/2000/svg">
  <defs
     id="defs3">
    <linearGradient
       id="linearGradient1"
       inkscape:collect="always">
      <stop
         style="stop-color:#a03291;stop-opacity:1;"
         offset="0"
         id="stop1" />
      <stop
         style="stop-color:#ff7c66;stop-opacity:1;"
         offset="0.76340693"
         id="stop2" />
    </linearGradient>
    <linearGradient
       inkscape:collect="always"
       xlink:href="#linearGradient1"
       id="linearGradient2"
       x1="232.4884"
       y1="23.847498"
       x2="23.977745"
       y2="232.35815"
       gradientUnits="userSpaceOnUse" />
  </defs>
  <defs
     id="defs4" />
  <sodipodi:namedview
     id="namedview4"
     pagecolor="#ffffff"
     bordercolor="#000000"
     borderopacity="0.25"
     inkscape:showpageshadow="2"
     inkscape:pageopacity="0.0"
     inkscape:pagecheckerboard="0"
     inkscape:deskcolor="#d1d1d1" />
  <path
     id="rect2"
     style="baseline-shift:baseline;display:inline;overflow:visible;vector-effect:none;fill:url(#linearGradient2);stroke-linecap:round;stroke-linejoin:round;enable-background:accumulate;stop-color:#000000;stop-opacity:1;opacity:1;fill-opacity:1"
     d="M 104 32 C 90.839923 32 80 42.839923 80 56 L 80 64 L 32 64 C 23.274378 64 16 71.274378 16 80 L 16 192 C 16 200.72562 23.274378 208 32 208 L 224 208 C 232.72562 208 240 200.72562 240 192 L 240 80 C 240 71.274378 232.72562 64 224 64 L 176 64 L 176 56 C 176 42.839923 165.16008 32 152 32 L 104 32 z M 104 48 L 152 48 C 156.51304 48 160 51.486965 160 56 L 160 64 L 96 64 L 96 56 C 96 51.486965 99.486965 48 104 48 z M 32 80 L 88 80 L 168 80 L 224 80 L 224 112 L 192 112 L 192 104 A 8 8 0 0 0 184 96 A 8 8 0 0 0 176 104 L 176 112 L 80 112 L 80 104 A 8 8 0 0 0 72 96 A 8 8 0 0 0 64 104 L 64 112 L 32 112 L 32 80 z M 32 128 L 64 128 L 64 136 A 8 8 0 0 0 72 144 A 8 8 0 0 0 80 136 L 80 128 L 176 128 L 176 136 A 8 8 0 0 0 184 144 A 8 8 0 0 0 192 136 L 192 128 L 224 128 L 224 192 L 32 192 L 32 128 z " />
</svg>
