<?xml version="1.0" encoding="UTF-8" standalone="no"?>
<svg
   viewBox="0 0 256 256"
   version="1.1"
   id="svg7"
   sodipodi:docname="tornado coral_purple.svg"
   xmlns:inkscape="http://www.inkscape.org/namespaces/inkscape"
   xmlns:sodipodi="http://sodipodi.sourceforge.net/DTD/sodipodi-0.dtd"
   xmlns:xlink="http://www.w3.org/1999/xlink"
   xmlns="http://www.w3.org/2000/svg"
   xmlns:svg="http://www.w3.org/2000/svg">
  <defs
     id="defs3">
    <linearGradient
       id="linearGradient1"
       inkscape:collect="always">
      <stop
         style="stop-color:#a03291;stop-opacity:1;"
         offset="0"
         id="stop1" />
      <stop
         style="stop-color:#ff7c66;stop-opacity:1;"
         offset="0.76340693"
         id="stop2" />
    </linearGradient>
    <linearGradient
       inkscape:collect="always"
       xlink:href="#linearGradient1"
       id="linearGradient2"
       x1="232.4884"
       y1="23.847498"
       x2="23.977745"
       y2="232.35815"
       gradientUnits="userSpaceOnUse" />
  </defs>
  <defs
     id="defs7" />
  <sodipodi:namedview
     id="namedview7"
     pagecolor="#ffffff"
     bordercolor="#000000"
     borderopacity="0.25"
     inkscape:showpageshadow="2"
     inkscape:pageopacity="0.0"
     inkscape:pagecheckerboard="0"
     inkscape:deskcolor="#d1d1d1" />
  <path
     id="line1"
     style="baseline-shift:baseline;display:inline;overflow:visible;vector-effect:none;fill:url(#linearGradient2);stroke-linecap:round;stroke-linejoin:round;enable-background:accumulate;stop-color:#000000;stop-opacity:1;opacity:1;fill-opacity:1"
     d="M 56 32 A 8 8 0 0 0 48 40 A 8 8 0 0 0 56 48 L 224 48 A 8 8 0 0 0 232 40 A 8 8 0 0 0 224 32 L 56 32 z M 32 64 A 8 8 0 0 0 24 72 A 8 8 0 0 0 32 80 L 176 80 A 8 8 0 0 0 184 72 A 8 8 0 0 0 176 64 L 32 64 z M 56 96 A 8 8 0 0 0 48 104 A 8 8 0 0 0 56 112 L 160 112 A 8 8 0 0 0 168 104 A 8 8 0 0 0 160 96 L 56 96 z M 88 128 A 8 8 0 0 0 80 136 A 8 8 0 0 0 88 144 L 176 144 A 8 8 0 0 0 184 136 A 8 8 0 0 0 176 128 L 88 128 z M 120 160 A 8 8 0 0 0 112 168 A 8 8 0 0 0 120 176 L 184 176 A 8 8 0 0 0 192 168 A 8 8 0 0 0 184 160 L 120 160 z M 128 192 A 8 8 0 0 0 120 200 A 8 8 0 0 0 128 208 L 160 208 A 8 8 0 0 0 168 200 A 8 8 0 0 0 160 192 L 128 192 z M 112 224 A 8 8 0 0 0 104 232 A 8 8 0 0 0 112 240 L 128 240 A 8 8 0 0 0 136 232 A 8 8 0 0 0 128 224 L 112 224 z " />
</svg>
