<?xml version="1.0" encoding="UTF-8" standalone="no"?>
<svg
   viewBox="0 0 256 256"
   version="1.1"
   id="svg6"
   sodipodi:docname="traffic signal coral_purple.svg"
   xmlns:inkscape="http://www.inkscape.org/namespaces/inkscape"
   xmlns:sodipodi="http://sodipodi.sourceforge.net/DTD/sodipodi-0.dtd"
   xmlns:xlink="http://www.w3.org/1999/xlink"
   xmlns="http://www.w3.org/2000/svg"
   xmlns:svg="http://www.w3.org/2000/svg">
  <defs
     id="defs3">
    <linearGradient
       id="linearGradient1"
       inkscape:collect="always">
      <stop
         style="stop-color:#a03291;stop-opacity:1;"
         offset="0"
         id="stop1" />
      <stop
         style="stop-color:#ff7c66;stop-opacity:1;"
         offset="0.76340693"
         id="stop2" />
    </linearGradient>
    <linearGradient
       inkscape:collect="always"
       xlink:href="#linearGradient1"
       id="linearGradient2"
       x1="232.4884"
       y1="23.847498"
       x2="23.977745"
       y2="232.35815"
       gradientUnits="userSpaceOnUse" />
  </defs>
  <defs
     id="defs6" />
  <sodipodi:namedview
     id="namedview6"
     pagecolor="#ffffff"
     bordercolor="#000000"
     borderopacity="0.25"
     inkscape:showpageshadow="2"
     inkscape:pageopacity="0.0"
     inkscape:pagecheckerboard="0"
     inkscape:deskcolor="#d1d1d1" />
  <path
     id="rect2"
     style="baseline-shift:baseline;display:inline;overflow:visible;vector-effect:none;fill:url(#linearGradient2);stroke-linecap:round;stroke-linejoin:round;enable-background:accumulate;stop-color:#000000;stop-opacity:1;opacity:1;fill-opacity:1"
     d="M 72 24 C 63.274378 24 56 31.274378 56 40 L 56 64 L 40 64 A 8 8 0 0 0 32 72 A 8 8 0 0 0 40 80 L 56 80 L 56 144 L 40 144 A 8 8 0 0 0 32 152 A 8 8 0 0 0 40 160 L 56 160 L 56 216 C 56 224.72562 63.274378 232 72 232 L 184 232 C 192.72562 232 200 224.72562 200 216 L 200 160 L 216 160 A 8 8 0 0 0 224 152 A 8 8 0 0 0 216 144 L 200 144 L 200 80 L 216 80 A 8 8 0 0 0 224 72 A 8 8 0 0 0 216 64 L 200 64 L 200 40 C 200 31.274378 192.72562 24 184 24 L 72 24 z M 72 40 L 184 40 L 184 216 L 72 216 L 72 152 L 72 40 z M 128 56 C 110.42165 56 96 70.421645 96 88 C 96 105.57835 110.42165 120 128 120 C 145.57835 120 160 105.57835 160 88 C 160 70.421645 145.57835 56 128 56 z M 128 72 C 136.93131 72 144 79.068687 144 88 C 144 96.931313 136.93131 104 128 104 C 119.06869 104 112 96.931313 112 88 C 112 79.068687 119.06869 72 128 72 z M 128 136 C 110.42165 136 96 150.42165 96 168 C 96 185.57835 110.42165 200 128 200 C 145.57835 200 160 185.57835 160 168 C 160 150.42165 145.57835 136 128 136 z M 128 152 C 136.93131 152 144 159.06869 144 168 C 144 176.93131 136.93131 184 128 184 C 119.06869 184 112 176.93131 112 168 C 112 159.06869 119.06869 152 128 152 z " />
</svg>
