<?xml version="1.0" encoding="UTF-8" standalone="no"?>
<svg
   viewBox="0 0 256 256"
   version="1.1"
   id="svg5"
   sodipodi:docname="tram coral_purple.svg"
   xmlns:inkscape="http://www.inkscape.org/namespaces/inkscape"
   xmlns:sodipodi="http://sodipodi.sourceforge.net/DTD/sodipodi-0.dtd"
   xmlns:xlink="http://www.w3.org/1999/xlink"
   xmlns="http://www.w3.org/2000/svg"
   xmlns:svg="http://www.w3.org/2000/svg">
  <defs
     id="defs3">
    <linearGradient
       id="linearGradient1"
       inkscape:collect="always">
      <stop
         style="stop-color:#a03291;stop-opacity:1;"
         offset="0"
         id="stop1" />
      <stop
         style="stop-color:#ff7c66;stop-opacity:1;"
         offset="0.76340693"
         id="stop2" />
    </linearGradient>
    <linearGradient
       inkscape:collect="always"
       xlink:href="#linearGradient1"
       id="linearGradient2"
       x1="232.4884"
       y1="23.847498"
       x2="23.977745"
       y2="232.35815"
       gradientUnits="userSpaceOnUse" />
  </defs>
  <defs
     id="defs5" />
  <sodipodi:namedview
     id="namedview5"
     pagecolor="#ffffff"
     bordercolor="#000000"
     borderopacity="0.25"
     inkscape:showpageshadow="2"
     inkscape:pageopacity="0.0"
     inkscape:pagecheckerboard="0"
     inkscape:deskcolor="#d1d1d1" />
  <path
     id="line1"
     style="baseline-shift:baseline;display:inline;overflow:visible;vector-effect:none;fill:url(#linearGradient2);stroke-linecap:round;stroke-linejoin:round;enable-background:accumulate;stop-color:#000000;stop-opacity:1;opacity:1;fill-opacity:1"
     d="M 88 8 A 8 8 0 0 0 80 16 A 8 8 0 0 0 88 24 L 120 24 L 120 48 L 72 48 C 54.410378 48 40 62.410378 40 80 L 40 184 C 40 201.58962 54.410378 216 72 216 L 80 216 L 65.599609 235.19922 A 8 8 0 0 0 67.199219 246.40039 A 8 8 0 0 0 78.400391 244.80078 L 100 216 L 156 216 L 177.59961 244.80078 A 8 8 0 0 0 188.80078 246.40039 A 8 8 0 0 0 190.40039 235.19922 L 176 216 L 184 216 C 201.58962 216 216 201.58962 216 184 L 216 80 C 216 62.410378 201.58962 48 184 48 L 136 48 L 136 24 L 168 24 A 8 8 0 0 0 176 16 A 8 8 0 0 0 168 8 L 128 8 L 88 8 z M 72 64 L 184 64 C 193.00238 64 200 70.997622 200 80 L 200 120 L 56 120 L 56 80 C 56 70.997622 62.997622 64 72 64 z M 56 136 L 200 136 L 200 184 C 200 193.00238 193.00238 200 184 200 L 72 200 C 62.997622 200 56 193.00238 56 184 L 56 136 z M 84 160 A 12 12 0 0 0 72 172 A 12 12 0 0 0 84 184 A 12 12 0 0 0 96 172 A 12 12 0 0 0 84 160 z M 172 160 A 12 12 0 0 0 160 172 A 12 12 0 0 0 172 184 A 12 12 0 0 0 184 172 A 12 12 0 0 0 172 160 z " />
</svg>
