<?xml version="1.0" encoding="UTF-8" standalone="no"?>
<svg
   viewBox="0 0 256 256"
   version="1.1"
   id="svg2"
   sodipodi:docname="trend down coral_purple.svg"
   xmlns:inkscape="http://www.inkscape.org/namespaces/inkscape"
   xmlns:sodipodi="http://sodipodi.sourceforge.net/DTD/sodipodi-0.dtd"
   xmlns:xlink="http://www.w3.org/1999/xlink"
   xmlns="http://www.w3.org/2000/svg"
   xmlns:svg="http://www.w3.org/2000/svg">
  <defs
     id="defs3">
    <linearGradient
       id="linearGradient1"
       inkscape:collect="always">
      <stop
         style="stop-color:#a03291;stop-opacity:1;"
         offset="0"
         id="stop1" />
      <stop
         style="stop-color:#ff7c66;stop-opacity:1;"
         offset="0.76340693"
         id="stop2" />
    </linearGradient>
    <linearGradient
       inkscape:collect="always"
       xlink:href="#linearGradient1"
       id="linearGradient2"
       x1="232.4884"
       y1="23.847498"
       x2="23.977745"
       y2="232.35815"
       gradientUnits="userSpaceOnUse" />
  </defs>
  <defs
     id="defs2" />
  <sodipodi:namedview
     id="namedview2"
     pagecolor="#ffffff"
     bordercolor="#000000"
     borderopacity="0.25"
     inkscape:showpageshadow="2"
     inkscape:pageopacity="0.0"
     inkscape:pagecheckerboard="0"
     inkscape:deskcolor="#d1d1d1" />
  <path
     id="polyline1"
     style="baseline-shift:baseline;display:inline;overflow:visible;vector-effect:none;fill:url(#linearGradient2);stroke-linecap:round;stroke-linejoin:round;enable-background:accumulate;stop-color:#000000;stop-opacity:1;opacity:1;fill-opacity:1"
     d="M 24 56 A 8 8 0 0 0 18.34375 58.34375 A 8 8 0 0 0 18.34375 69.65625 L 90.34375 141.65625 A 8.0008 8.0008 0 0 0 101.65625 141.65625 L 136 107.3125 L 212.6875 184 L 168 184 A 8 8 0 0 0 160 192 A 8 8 0 0 0 168 200 L 232 200 A 8.0008 8.0008 0 0 0 234.07031 199.72656 A 8 8 0 0 0 237.65625 197.65625 A 8 8 0 0 0 239.72656 194.07031 A 8.0008 8.0008 0 0 0 240 192 L 240 128 A 8 8 0 0 0 232 120 A 8 8 0 0 0 224 128 L 224 172.6875 L 141.65625 90.34375 A 8.0008 8.0008 0 0 0 130.34375 90.34375 L 96 124.6875 L 29.65625 58.34375 A 8 8 0 0 0 24 56 z " />
</svg>
