<?xml version="1.0" encoding="UTF-8" standalone="no"?>
<svg
   viewBox="0 0 256 256"
   version="1.1"
   id="svg2"
   sodipodi:docname="trolley coral_purple.svg"
   xmlns:inkscape="http://www.inkscape.org/namespaces/inkscape"
   xmlns:sodipodi="http://sodipodi.sourceforge.net/DTD/sodipodi-0.dtd"
   xmlns:xlink="http://www.w3.org/1999/xlink"
   xmlns="http://www.w3.org/2000/svg"
   xmlns:svg="http://www.w3.org/2000/svg">
  <defs
     id="defs3">
    <linearGradient
       id="linearGradient1"
       inkscape:collect="always">
      <stop
         style="stop-color:#a03291;stop-opacity:1;"
         offset="0"
         id="stop1" />
      <stop
         style="stop-color:#ff7c66;stop-opacity:1;"
         offset="0.76340693"
         id="stop2" />
    </linearGradient>
    <linearGradient
       inkscape:collect="always"
       xlink:href="#linearGradient1"
       id="linearGradient2"
       x1="232.4884"
       y1="23.847498"
       x2="23.977745"
       y2="232.35815"
       gradientUnits="userSpaceOnUse" />
  </defs>
  <defs
     id="defs2" />
  <sodipodi:namedview
     id="namedview2"
     pagecolor="#ffffff"
     bordercolor="#000000"
     borderopacity="0.25"
     inkscape:showpageshadow="2"
     inkscape:pageopacity="0.0"
     inkscape:pagecheckerboard="0"
     inkscape:deskcolor="#d1d1d1" />
  <path
     id="circle1"
     style="baseline-shift:baseline;display:inline;overflow:visible;vector-effect:none;fill:url(#linearGradient2);stroke-linecap:round;stroke-linejoin:round;enable-background:accumulate;stop-color:#000000;stop-opacity:1;opacity:1;fill-opacity:1"
     d="M 24 40 A 8 8 0 0 0 18.34375 42.34375 A 8 8 0 0 0 18.34375 53.65625 L 40 75.3125 L 40 75.314453 L 40 176 L 32 176 A 8 8 0 0 0 24 184 A 8 8 0 0 0 32 192 L 48 192 L 240 192 A 8 8 0 0 0 248 184 A 8 8 0 0 0 240 176 L 56 176 L 56 75.310547 A 8.0008 8.0008 0 0 0 56 75.306641 C 55.998 71.071883 54.313073 67.00195 51.320312 64.005859 A 8.0008 8.0008 0 0 0 51.316406 64.003906 L 29.65625 42.34375 A 8 8 0 0 0 24 40 z M 72 208 A 16 16 0 0 0 56 224 A 16 16 0 0 0 72 240 A 16 16 0 0 0 88 224 A 16 16 0 0 0 72 208 z M 216 208 A 16 16 0 0 0 200 224 A 16 16 0 0 0 216 240 A 16 16 0 0 0 232 224 A 16 16 0 0 0 216 208 z " />
</svg>
