<?xml version="1.0" encoding="UTF-8" standalone="no"?>
<svg
   viewBox="0 0 256 256"
   version="1.1"
   id="svg2"
   sodipodi:docname="usb coral_purple.svg"
   xmlns:inkscape="http://www.inkscape.org/namespaces/inkscape"
   xmlns:sodipodi="http://sodipodi.sourceforge.net/DTD/sodipodi-0.dtd"
   xmlns:xlink="http://www.w3.org/1999/xlink"
   xmlns="http://www.w3.org/2000/svg"
   xmlns:svg="http://www.w3.org/2000/svg">
  <defs
     id="defs3">
    <linearGradient
       id="linearGradient1"
       inkscape:collect="always">
      <stop
         style="stop-color:#a03291;stop-opacity:1;"
         offset="0"
         id="stop1" />
      <stop
         style="stop-color:#ff7c66;stop-opacity:1;"
         offset="0.76340693"
         id="stop2" />
    </linearGradient>
    <linearGradient
       inkscape:collect="always"
       xlink:href="#linearGradient1"
       id="linearGradient2"
       x1="232.4884"
       y1="23.847498"
       x2="23.977745"
       y2="232.35815"
       gradientUnits="userSpaceOnUse" />
  </defs>
  <defs
     id="defs2" />
  <sodipodi:namedview
     id="namedview2"
     pagecolor="#ffffff"
     bordercolor="#000000"
     borderopacity="0.25"
     inkscape:showpageshadow="2"
     inkscape:pageopacity="0.0"
     inkscape:pagecheckerboard="0"
     inkscape:deskcolor="#d1d1d1" />
  <path
     id="circle1"
     style="baseline-shift:baseline;display:inline;overflow:visible;vector-effect:none;fill:url(#linearGradient2);stroke-linecap:round;stroke-linejoin:round;enable-background:accumulate;stop-color:#000000;stop-opacity:1;opacity:1;fill-opacity:1"
     d="M 136 32 C 121.1806 32 108.60402 42.249911 105.02148 56 L 72 56 C 63.258201 56 56 63.258201 56 72 L 56 120 L 8 120 A 8 8 0 0 0 0 128 A 8 8 0 0 0 8 136 L 56 136 L 56 184 C 56 192.7418 63.258201 200 72 200 L 104 200 L 104 208 C 104 216.72562 111.27438 224 120 224 L 152 224 C 160.72562 224 168 216.72562 168 208 L 168 176 C 168 167.27438 160.72562 160 152 160 L 120 160 C 111.27438 160 104 167.27438 104 176 L 104 184 L 72 184 L 72 136 L 192 136 L 192 160 A 8.0008 8.0008 0 0 0 204.4375 166.65625 L 252.4375 134.65625 A 8.0008 8.0008 0 0 0 252.4375 121.34375 L 204.4375 89.34375 A 8.0008 8.0008 0 0 0 198.95117 88.070312 A 8.0008 8.0008 0 0 0 192 96 L 192 120 L 72 120 L 72 72 L 105.02148 72 C 108.60402 85.750089 121.1806 96 136 96 C 153.57835 96 168 81.578355 168 64 C 168 46.421645 153.57835 32 136 32 z M 136 48 C 144.93131 48 152 55.068687 152 64 C 152 72.931313 144.93131 80 136 80 C 127.06869 80 120 72.931313 120 64 C 120 55.068687 127.06869 48 136 48 z M 208 110.94727 L 233.57812 128 L 208 145.05273 L 208 110.94727 z M 120 176 L 152 176 L 152 208 L 120 208 L 120 192 L 120 176 z " />
</svg>
