<?xml version="1.0" encoding="UTF-8" standalone="no"?>
<svg
   viewBox="0 0 256 256"
   version="1.1"
   id="svg7"
   sodipodi:docname="user circle gear coral_purple.svg"
   xmlns:inkscape="http://www.inkscape.org/namespaces/inkscape"
   xmlns:sodipodi="http://sodipodi.sourceforge.net/DTD/sodipodi-0.dtd"
   xmlns:xlink="http://www.w3.org/1999/xlink"
   xmlns="http://www.w3.org/2000/svg"
   xmlns:svg="http://www.w3.org/2000/svg">
  <defs
     id="defs3">
    <linearGradient
       id="linearGradient1"
       inkscape:collect="always">
      <stop
         style="stop-color:#a03291;stop-opacity:1;"
         offset="0"
         id="stop1" />
      <stop
         style="stop-color:#ff7c66;stop-opacity:1;"
         offset="0.76340693"
         id="stop2" />
    </linearGradient>
    <linearGradient
       inkscape:collect="always"
       xlink:href="#linearGradient1"
       id="linearGradient2"
       x1="232.4884"
       y1="23.847498"
       x2="23.977745"
       y2="232.35815"
       gradientUnits="userSpaceOnUse" />
  </defs>
  <defs
     id="defs7" />
  <sodipodi:namedview
     id="namedview7"
     pagecolor="#ffffff"
     bordercolor="#000000"
     borderopacity="0.25"
     inkscape:showpageshadow="2"
     inkscape:pageopacity="0.0"
     inkscape:pagecheckerboard="0"
     inkscape:deskcolor="#d1d1d1" />
  <path
     id="circle1"
     style="baseline-shift:baseline;display:inline;overflow:visible;vector-effect:none;fill:url(#linearGradient2);stroke-linecap:round;stroke-linejoin:round;enable-background:accumulate;stop-color:#000000;stop-opacity:1;opacity:1;fill-opacity:1"
     d="M 200 20 A 8 8 0 0 0 192 28 L 192 33.388672 C 189.21431 34.387259 186.65897 35.890645 184.44727 37.785156 L 179.75 35.072266 A 8 8 0 0 0 173.67969 34.271484 A 8 8 0 0 0 168.82227 38 A 8 8 0 0 0 171.75 48.927734 L 176.40625 51.617188 C 176.13898 53.03976 176 54.505058 176 56 C 176 57.494942 176.13898 58.960239 176.40625 60.382812 L 171.75 63.072266 A 8 8 0 0 0 168.82227 74 A 8 8 0 0 0 179.75 76.927734 L 184.44727 74.214844 C 186.65897 76.109355 189.21431 77.612741 192 78.611328 L 192 84 A 8 8 0 0 0 200 92 A 8 8 0 0 0 208 84 L 208 78.611328 C 210.78569 77.612741 213.34103 76.109354 215.55273 74.214844 L 220.25 76.927734 A 8 8 0 0 0 231.17773 74 A 8 8 0 0 0 228.25 63.072266 L 223.59375 60.382812 C 223.86102 58.96024 224 57.494942 224 56 C 224 54.505058 223.86102 53.039761 223.59375 51.617188 L 228.25 48.927734 A 8 8 0 0 0 231.17773 38 A 8 8 0 0 0 226.32031 34.271484 A 8 8 0 0 0 220.25 35.072266 L 215.55273 37.785156 C 213.34103 35.890646 210.78569 34.387259 208 33.388672 L 208 28 A 8 8 0 0 0 200 20 z M 128.67773 23.998047 C 90.060331 23.773568 53.830011 45.162244 35.716797 80.292969 C 15.016066 120.4422 22.663719 169.45278 54.605469 201.39453 C 55.463288 202.25235 56.332906 203.09332 57.214844 203.91602 A 8 8 0 0 0 59.96875 206.39453 C 91.856221 234.08517 137.74337 239.85707 175.70703 220.2832 C 183.35106 216.34199 190.34381 211.54346 196.60547 206.04883 A 8 8 0 0 0 198.36914 204.4668 C 223.82195 181.08003 236.49317 145.93317 230.55859 110.67188 A 8 8 0 0 0 221.3418 104.11133 A 8 8 0 0 0 214.78125 113.32812 C 219.30245 140.19167 211.11542 166.904 193.75586 186.39648 C 184.73907 173.3853 172.12565 163.45088 157.66992 157.67188 C 168.81753 148.86486 176 135.23636 176 120 C 176 93.585089 154.41491 72 128 72 C 101.58509 72 80 93.585089 80 120 C 80 135.23636 87.182473 148.86486 98.330078 157.67188 C 83.920059 163.43261 71.341003 173.32086 62.330078 186.27148 C 38.311781 159.23763 33.20067 120.08622 49.9375 87.625 C 67.477938 53.605179 104.92484 34.865826 142.67188 41.21875 A 8 8 0 0 0 151.88867 34.658203 A 8 8 0 0 0 145.32812 25.441406 C 139.75974 24.50423 134.19451 24.030115 128.67773 23.998047 z M 200 48 C 202.8215 48 205.24211 49.363794 206.66016 51.488281 A 8 8 0 0 0 206.93164 52 A 8 8 0 0 0 207.19922 52.429688 C 207.7141 53.496609 208 54.706598 208 56 C 208 57.293311 207.71403 58.501494 207.19922 59.568359 A 8 8 0 0 0 206.93164 60 A 8 8 0 0 0 206.66016 60.511719 C 205.24211 62.636206 202.8215 64 200 64 C 197.1785 64 194.75789 62.636207 193.33984 60.511719 A 8 8 0 0 0 193.06836 60 A 8 8 0 0 0 192.80078 59.568359 C 192.28597 58.501494 192 57.293311 192 56 C 192 54.706598 192.2859 53.496609 192.80078 52.429688 A 8 8 0 0 0 193.06836 52 A 8 8 0 0 0 193.33984 51.488281 C 194.75788 49.363805 197.17852 48.000017 200 48 z M 128 88 C 145.76787 88 160 102.23213 160 120 C 160 137.32583 146.46813 151.29053 129.32031 151.97461 C 128.88107 151.96739 128.44035 151.96289 128 151.96289 C 127.55965 151.96289 127.11893 151.96739 126.67969 151.97461 C 109.53187 151.29053 96 137.32583 96 120 C 96 102.23213 110.23213 88 128 88 z M 126.56836 167.97852 C 127.04411 167.99261 127.52098 168 128 168 C 128.47903 168 128.95589 167.99261 129.43164 167.97852 C 150.85056 168.45472 170.47264 179.58863 181.90039 197.45312 C 177.71812 200.6858 173.20002 203.57475 168.375 206.0625 C 137.64823 221.90505 100.92649 218.17193 74.162109 197.35742 C 85.598713 179.54935 105.18804 168.45386 126.56836 167.97852 z " />
</svg>
