<?xml version="1.0" encoding="UTF-8" standalone="no"?>
<svg
   viewBox="0 0 256 256"
   version="1.1"
   id="svg2"
   sodipodi:docname="whatsapp logo coral_purple.svg"
   xmlns:inkscape="http://www.inkscape.org/namespaces/inkscape"
   xmlns:sodipodi="http://sodipodi.sourceforge.net/DTD/sodipodi-0.dtd"
   xmlns:xlink="http://www.w3.org/1999/xlink"
   xmlns="http://www.w3.org/2000/svg"
   xmlns:svg="http://www.w3.org/2000/svg">
  <defs
     id="defs3">
    <linearGradient
       id="linearGradient1"
       inkscape:collect="always">
      <stop
         style="stop-color:#a03291;stop-opacity:1;"
         offset="0"
         id="stop1" />
      <stop
         style="stop-color:#ff7c66;stop-opacity:1;"
         offset="0.76340693"
         id="stop2" />
    </linearGradient>
    <linearGradient
       inkscape:collect="always"
       xlink:href="#linearGradient1"
       id="linearGradient2"
       x1="232.4884"
       y1="23.847498"
       x2="23.977745"
       y2="232.35815"
       gradientUnits="userSpaceOnUse" />
  </defs>
  <defs
     id="defs2" />
  <sodipodi:namedview
     id="namedview2"
     pagecolor="#ffffff"
     bordercolor="#000000"
     borderopacity="0.25"
     inkscape:showpageshadow="2"
     inkscape:pageopacity="0.0"
     inkscape:pagecheckerboard="0"
     inkscape:deskcolor="#d1d1d1" />
  <path
     id="path1"
     style="baseline-shift:baseline;display:inline;overflow:visible;vector-effect:none;fill:url(#linearGradient2);stroke-linecap:round;stroke-linejoin:round;enable-background:accumulate;stop-color:#000000;stop-opacity:1;opacity:1;fill-opacity:1"
     d="M 125.58789 24.101562 C 104.14863 24.580659 82.748691 31.657816 64.658203 45.552734 C 24.313127 76.540929 12.561265 132.16118 36.271484 176.77148 L 24.833984 210.91992 A 8.0008 8.0008 0 0 0 24.830078 210.92969 C 20.817708 222.96116 33.038842 235.18229 45.070312 231.16992 L 79.263672 219.76562 C 123.87477 243.47901 179.49703 231.72933 210.48633 191.38281 C 242.24614 150.03313 238.39266 91.38875 201.52148 54.517578 C 180.78145 33.777544 153.15266 23.485582 125.58789 24.101562 z M 125.96875 40.037109 C 149.26876 39.509317 172.61222 48.235265 190.20898 65.832031 C 221.49212 97.115172 224.7378 146.561 197.79688 181.63672 C 170.85533 216.71326 122.22748 226.3462 83.9375 204.18555 A 8.0008 8.0008 0 0 0 77.398438 203.52148 L 40.009766 215.99023 L 52.515625 178.65039 A 8.0008 8.0008 0 0 0 51.853516 172.10352 C 29.692864 133.81353 39.327751 85.183735 74.404297 58.242188 C 89.749925 46.455537 107.84652 40.447614 125.96875 40.037109 z M 104 64 C 82.003367 64 64 82.003367 64 104 C 64 152.5063 103.4937 192 152 192 C 173.99663 192 192 173.99663 192 152 A 8.0008 8.0008 0 0 0 187.57812 144.84375 L 155.57812 128.84375 A 8.0008 8.0008 0 0 0 147.56055 129.34375 L 133.05469 139.01953 C 126.23094 135.31392 120.68608 129.76906 116.98047 122.94531 L 126.65625 108.43945 A 8.0008 8.0008 0 0 0 127.15625 100.42188 L 111.15625 68.421875 A 8.0008 8.0008 0 0 0 104 64 z M 99.289062 80.46875 L 110.76758 103.42383 L 101.02539 118.03125 A 8.0008 8.0008 0 0 0 100.30078 125.55859 C 105.99795 139.17187 116.82813 150.00205 130.44141 155.69922 A 8.0008 8.0008 0 0 0 137.96875 154.97461 L 152.57617 145.23242 L 175.53125 156.71094 C 173.36683 167.76715 163.73318 176 152 176 C 112.14074 176 80 143.85926 80 104 C 80 92.26682 88.232846 82.633168 99.289062 80.46875 z " />
</svg>
