<?xml version="1.0" encoding="UTF-8" standalone="no"?>
<svg
   viewBox="0 0 256 256"
   version="1.1"
   id="svg2"
   sodipodi:docname="wifi medium coral_purple.svg"
   xmlns:inkscape="http://www.inkscape.org/namespaces/inkscape"
   xmlns:sodipodi="http://sodipodi.sourceforge.net/DTD/sodipodi-0.dtd"
   xmlns:xlink="http://www.w3.org/1999/xlink"
   xmlns="http://www.w3.org/2000/svg"
   xmlns:svg="http://www.w3.org/2000/svg">
  <defs
     id="defs3">
    <linearGradient
       id="linearGradient1"
       inkscape:collect="always">
      <stop
         style="stop-color:#a03291;stop-opacity:1;"
         offset="0"
         id="stop1" />
      <stop
         style="stop-color:#ff7c66;stop-opacity:1;"
         offset="0.76340693"
         id="stop2" />
    </linearGradient>
    <linearGradient
       inkscape:collect="always"
       xlink:href="#linearGradient1"
       id="linearGradient2"
       x1="232.4884"
       y1="23.847498"
       x2="23.977745"
       y2="232.35815"
       gradientUnits="userSpaceOnUse" />
  </defs>
  <defs
     id="defs2" />
  <sodipodi:namedview
     id="namedview2"
     pagecolor="#ffffff"
     bordercolor="#000000"
     borderopacity="0.25"
     inkscape:showpageshadow="2"
     inkscape:pageopacity="0.0"
     inkscape:pagecheckerboard="0"
     inkscape:deskcolor="#d1d1d1" />
  <path
     id="circle1"
     style="baseline-shift:baseline;display:inline;overflow:visible;vector-effect:none;fill:url(#linearGradient2);stroke-linecap:round;stroke-linejoin:round;enable-background:accumulate;stop-color:#000000;stop-opacity:1;opacity:1;fill-opacity:1"
     d="M 128 95.970703 C 100.78369 95.970703 73.568045 104.8906 51.035156 122.72852 A 8 8 0 0 0 49.728516 133.96484 A 8 8 0 0 0 60.964844 135.27148 C 100.27915 104.14875 155.72085 104.14875 195.03516 135.27148 A 8 8 0 0 0 206.27148 133.96484 A 8 8 0 0 0 204.96484 122.72852 C 182.43195 104.8906 155.21631 95.970703 128 95.970703 z M 128 144.00586 C 112.30351 144.00586 96.607826 148.84754 83.294922 158.53125 A 8 8 0 0 0 81.53125 169.70508 A 8 8 0 0 0 92.705078 171.46875 C 113.77139 156.14526 142.22861 156.14526 163.29492 171.46875 A 8 8 0 0 0 174.46875 169.70508 A 8 8 0 0 0 172.70508 158.53125 C 159.39217 148.84754 143.69649 144.00586 128 144.00586 z M 128 192 A 12 12 0 0 0 116 204 A 12 12 0 0 0 128 216 A 12 12 0 0 0 140 204 A 12 12 0 0 0 128 192 z " />
</svg>
