<?xml version="1.0" encoding="UTF-8" standalone="no"?>
<svg
   viewBox="0 0 256 256"
   version="1.1"
   id="svg4"
   sodipodi:docname="windmill coral_purple.svg"
   xmlns:inkscape="http://www.inkscape.org/namespaces/inkscape"
   xmlns:sodipodi="http://sodipodi.sourceforge.net/DTD/sodipodi-0.dtd"
   xmlns:xlink="http://www.w3.org/1999/xlink"
   xmlns="http://www.w3.org/2000/svg"
   xmlns:svg="http://www.w3.org/2000/svg">
  <defs
     id="defs3">
    <linearGradient
       id="linearGradient1"
       inkscape:collect="always">
      <stop
         style="stop-color:#a03291;stop-opacity:1;"
         offset="0"
         id="stop1" />
      <stop
         style="stop-color:#ff7c66;stop-opacity:1;"
         offset="0.76340693"
         id="stop2" />
    </linearGradient>
    <linearGradient
       inkscape:collect="always"
       xlink:href="#linearGradient1"
       id="linearGradient2"
       x1="232.4884"
       y1="23.847498"
       x2="23.977745"
       y2="232.35815"
       gradientUnits="userSpaceOnUse" />
  </defs>
  <defs
     id="defs4" />
  <sodipodi:namedview
     id="namedview4"
     pagecolor="#ffffff"
     bordercolor="#000000"
     borderopacity="0.25"
     inkscape:showpageshadow="2"
     inkscape:pageopacity="0.0"
     inkscape:pagecheckerboard="0"
     inkscape:deskcolor="#d1d1d1" />
  <path
     id="path1"
     style="baseline-shift:baseline;display:inline;overflow:visible;vector-effect:none;fill:url(#linearGradient2);stroke-linecap:round;stroke-linejoin:round;enable-background:accumulate;stop-color:#000000;stop-opacity:1;opacity:1;fill-opacity:1"
     d="M 67.087891 8.0507812 C 61.921808 8.3732815 56.970506 11.158088 54.195312 15.898438 L 42.226562 36.1875 C 37.730024 43.74193 40.314648 53.754008 47.90625 58.1875 L 82.884766 78.775391 L 42.238281 147.80469 L 42.236328 147.80664 L 42.236328 147.80859 C 37.739526 155.35747 40.31516 165.36513 47.898438 169.80469 L 68.1875 181.77344 C 71.481645 183.73418 75.242238 184.34923 78.804688 183.78906 L 73.060547 224 L 32 224 A 8 8 0 0 0 24 232 A 8 8 0 0 0 32 240 L 79.933594 240 L 80.066406 240 L 224 240 A 8 8 0 0 0 232 232 A 8 8 0 0 0 224 224 L 182.9375 224 L 176.64844 179.99609 L 179.7832 181.8418 L 179.78516 181.84375 C 187.33422 186.34183 197.34334 183.76544 201.7832 176.18164 L 213.75391 155.89258 L 213.75586 155.88867 C 218.24925 148.33469 215.66454 138.32532 208.07422 133.89258 L 173.13281 113.32617 L 213.80273 44.255859 L 213.80469 44.251953 C 218.30149 36.703073 215.72586 26.695418 208.14258 22.255859 L 187.85156 10.285156 L 187.84766 10.283203 C 185.01571 8.5986576 181.83918 7.9095078 178.74023 8.1054688 C 173.57613 8.4320198 168.62931 11.217511 165.85742 15.957031 C 165.85542 15.959931 165.85356 15.961944 165.85156 15.964844 L 145.2832 50.917969 L 76.195312 10.238281 L 76.191406 10.236328 C 73.361366 8.5505534 70.186144 7.8573683 67.087891 8.0507812 z M 68.003906 23.982422 A 8.0008 8.0008 0 0 0 68.041016 24.003906 L 137.16797 64.707031 L 125.16992 85.097656 L 98.630859 69.476562 A 8 8 0 0 0 97.919922 69.005859 A 8 8 0 0 0 97.158203 68.611328 L 55.998047 44.384766 A 8.0008 8.0008 0 0 0 55.974609 44.371094 A 8.0008 8.0008 0 0 0 55.990234 44.345703 L 67.990234 24.005859 A 8.0008 8.0008 0 0 0 68.003906 23.982422 z M 179.66797 24.035156 A 8.0008 8.0008 0 0 0 179.69531 24.050781 L 200.03516 36.050781 A 8.0008 8.0008 0 0 0 200.05859 36.064453 A 8.0008 8.0008 0 0 0 200.03711 36.101562 L 159.34375 105.21094 L 138.95898 93.212891 L 179.6543 24.056641 A 8.0008 8.0008 0 0 0 179.66797 24.035156 z M 96.671875 86.890625 L 117.05664 98.886719 L 101.25977 125.73047 A 8 8 0 0 0 100.98633 126.16016 A 8 8 0 0 0 100.72852 126.63086 L 83.792969 155.41211 A 8 8 0 0 0 83.029297 156.70898 A 8 8 0 0 0 83.019531 156.72852 L 76.384766 168.00195 A 8.0008 8.0008 0 0 0 76.371094 168.02539 A 8.0008 8.0008 0 0 0 76.345703 168.00977 L 56.005859 156.00977 A 8.0008 8.0008 0 0 0 55.982422 155.99609 A 8.0008 8.0008 0 0 0 56.003906 155.95898 L 96.671875 86.890625 z M 130.8457 107.00391 L 199.98242 147.69531 A 8.0008 8.0008 0 0 0 200.00586 147.70898 A 8.0008 8.0008 0 0 0 199.99023 147.73438 L 187.99023 168.07422 A 8.0008 8.0008 0 0 0 187.97656 168.09766 A 8.0008 8.0008 0 0 0 187.93945 168.07617 L 171.39844 158.33594 A 8 8 0 0 0 169.34961 157.13086 L 118.84766 127.39258 L 130.8457 107.00391 z M 110.73242 141.18359 L 159.00195 169.60547 L 166.77539 224 L 89.224609 224 L 97.953125 162.90234 L 110.73242 141.18359 z " />
</svg>
